<svg xmlns="http://www.w3.org/2000/svg" viewBox="0 0 25 25" id="1-1-solid">
  <path d="M16.859375,9.24375 C16.859375,9.24375 16.859375,15.3257812 16.859375,15.3257812 C16.859375,15.6609375 16.6679688,15.8523437 16.3328125,15.8523437 C16.3328125,15.8523437 16.3328125,15.8523437 16.3328125,15.8523437 C15.9976563,15.8523437 15.8539063,15.6609375 15.8539063,15.3257812 C15.8539063,15.3257812 15.8539063,15.3257812 15.8539063,15.3257812 C15.8539063,15.3257812 15.8539063,9.9140625 15.8539063,9.9140625 C15.8539063,9.9140625 14.7046875,10.296875 14.7046875,10.296875 C14.4171875,10.440625 14.2257813,10.296875 14.0820312,9.96171875 C13.9382812,9.6265625 14.0820312,9.38671875 14.4171875,9.3390625 C14.4171875,9.3390625 14.4171875,9.3390625 14.4171875,9.3390625 C14.4171875,9.3390625 16.1890625,8.71640625 16.1890625,8.71640625 C16.3328125,8.66875 16.5242187,8.66875 16.6679688,8.8125 C16.6679688,8.8125 16.6679688,8.8125 16.6679688,8.8125 C16.8117188,8.95625 16.859375,9.1 16.859375,9.24375 C16.859375,9.24375 16.859375,9.24375 16.859375,9.24375 Z M12.7882812,11.2546875 C12.7882812,11.5898438 12.596875,11.7335938 12.2617188,11.7335938 C11.9265625,11.7335938 11.7351562,11.5898438 11.7351562,11.2546875 C11.7351562,11.2546875 11.7351562,11.2546875 11.7351562,11.2546875 C11.7351562,10.9195313 11.9265625,10.728125 12.2617188,10.728125 C12.596875,10.728125 12.7882812,10.9195313 12.7882812,11.2546875 C12.7882812,11.2546875 12.7882812,11.2546875 12.7882812,11.2546875 Z M12.7882812,14.3203125 C12.7882812,14.6554687 12.596875,14.7992187 12.2617188,14.7992187 C11.9265625,14.7992187 11.7351562,14.6554687 11.7351562,14.3203125 C11.7351562,14.3203125 11.7351562,14.3203125 11.7351562,14.3203125 C11.7351562,13.9851562 11.9265625,13.79375 12.2617188,13.79375 C12.596875,13.79375 12.7882812,13.9851562 12.7882812,14.3203125 C12.7882812,14.3203125 12.7882812,14.3203125 12.7882812,14.3203125 Z M8.66953125,9.24375 C8.66953125,9.24375 8.66953125,15.3257812 8.66953125,15.3257812 C8.66953125,15.6609375 8.52578125,15.8523437 8.190625,15.8523437 C8.190625,15.8523437 8.190625,15.8523437 8.190625,15.8523437 C7.85546875,15.8523437 7.6640625,15.6609375 7.6640625,15.3257812 C7.6640625,15.3257812 7.6640625,15.3257812 7.6640625,15.3257812 C7.6640625,15.3257812 7.6640625,9.9140625 7.6640625,9.9140625 C7.6640625,9.9140625 6.5625,10.296875 6.5625,10.296875 C6.22734375,10.3929687 6.0359375,10.296875 5.8921875,9.96171875 C5.8921875,9.96171875 5.8921875,9.96171875 5.8921875,9.96171875 C5.84453125,9.6265625 5.93984375,9.38671875 6.22734375,9.3390625 C6.22734375,9.3390625 6.22734375,9.3390625 6.22734375,9.3390625 C6.22734375,9.3390625 7.99921875,8.71640625 7.99921875,8.71640625 C8.14296875,8.66875 8.334375,8.71640625 8.478125,8.8125 C8.478125,8.8125 8.478125,8.8125 8.478125,8.8125 C8.621875,8.90859375 8.66953125,9.0515625 8.66953125,9.24375 C8.66953125,9.24375 8.66953125,9.24375 8.66953125,9.24375 Z M20.9296875,3.5921875 C18.5351562,1.19765625 15.6617188,0 12.2609375,0 C8.86015625,0 5.98671875,1.19765625 3.5921875,3.5921875 C1.19765625,5.98671875 0,8.86015625 0,12.2609375 C0,15.6617188 1.19765625,18.5351563 3.5921875,20.9296875 C5.98671875,23.3242188 8.86015625,24.521875 12.2609375,24.521875 C15.6617188,24.521875 18.5351563,23.3242188 20.9296875,20.9296875 C23.3242188,18.5351562 24.521875,15.6617188 24.521875,12.2609375 C24.521875,8.86015625 23.3242188,5.98671875 20.9296875,3.5921875 Z"/>
  <title>1 1 Solid</title>
</svg>