<svg xmlns="http://www.w3.org/2000/svg" viewBox="0 0 25 25" id="1-1">
  <path d="M20.2117187,20.2109375 C18.0085937,22.4140625 15.3742187,23.515625 12.2617187,23.515625 C9.14921875,23.515625 6.51484375,22.4140625 4.31171875,20.2109375 C2.10859375,18.0078125 1.00703125,15.3734375 1.00703125,12.2609375 C1.00703125,9.1484375 2.10859375,6.5140625 4.31171875,4.3109375 C6.51484375,2.1078125 9.14921875,1.00625 12.2617187,1.00625 C15.3742188,1.00625 18.0085937,2.1078125 20.2117187,4.3109375 C22.4148437,6.5140625 23.5164062,9.1484375 23.5164062,12.2609375 C23.5164062,15.3734375 22.4148437,18.0078125 20.2117187,20.2109375 L20.2117187,20.2109375 Z M20.9296875,3.5921875 C18.5351562,1.19765625 15.6617188,0 12.2609375,0 C8.86015625,0 5.98671875,1.19765625 3.5921875,3.5921875 C1.19765625,5.98671875 0,8.86015625 0,12.2609375 C0,15.6617188 1.19765625,18.5351563 3.5921875,20.9296875 C5.98671875,23.3242188 8.86015625,24.521875 12.2609375,24.521875 C15.6617188,24.521875 18.5351563,23.3242188 20.9296875,20.9296875 C23.3242188,18.5351562 24.521875,15.6617188 24.521875,12.2609375 C24.521875,8.86015625 23.3242188,5.98671875 20.9296875,3.5921875 Z M7.99921875,8.71640625 C7.99921875,8.71640625 7.99921875,8.71640625 7.99921875,8.71640625 C7.99921875,8.71640625 6.22734375,9.3390625 6.22734375,9.3390625 C5.93984375,9.38671875 5.84453125,9.6265625 5.8921875,9.96171875 C5.8921875,9.96171875 5.8921875,9.96171875 5.8921875,9.96171875 C6.0359375,10.296875 6.22734375,10.3929688 6.5625,10.296875 C6.5625,10.296875 6.5625,10.296875 6.5625,10.296875 C6.5625,10.296875 7.6640625,9.9140625 7.6640625,9.9140625 C7.6640625,9.9140625 7.6640625,15.3257813 7.6640625,15.3257813 C7.6640625,15.6609375 7.85546875,15.8523438 8.190625,15.8523438 C8.190625,15.8523438 8.190625,15.8523438 8.190625,15.8523438 C8.52578125,15.8523438 8.66953125,15.6609375 8.66953125,15.3257813 C8.66953125,15.3257813 8.66953125,15.3257813 8.66953125,15.3257813 C8.66953125,15.3257813 8.66953125,9.24375 8.66953125,9.24375 C8.66953125,9.05234375 8.621875,8.90859375 8.478125,8.8125 C8.478125,8.8125 8.478125,8.8125 8.478125,8.8125 C8.334375,8.71640625 8.14296875,8.66875 7.99921875,8.71640625 Z M16.1882812,8.71640625 C16.1882812,8.71640625 16.1882812,8.71640625 16.1882812,8.71640625 C16.1882812,8.71640625 14.4164062,9.3390625 14.4164062,9.3390625 C14.08125,9.38671875 13.9375,9.6265625 14.08125,9.96171875 C14.225,10.296875 14.4164062,10.440625 14.7039062,10.296875 C14.7039062,10.296875 14.7039062,10.296875 14.7039062,10.296875 C14.7039062,10.296875 15.853125,9.9140625 15.853125,9.9140625 C15.853125,9.9140625 15.853125,15.3257813 15.853125,15.3257813 C15.853125,15.6609375 15.996875,15.8523438 16.3320312,15.8523438 C16.3320312,15.8523438 16.3320312,15.8523438 16.3320312,15.8523438 C16.6671875,15.8523438 16.8585937,15.6609375 16.8585937,15.3257813 C16.8585937,15.3257813 16.8585937,15.3257813 16.8585937,15.3257813 C16.8585937,15.3257813 16.8585937,9.24375 16.8585937,9.24375 C16.8585937,9.1 16.8109375,8.95625 16.6671875,8.8125 C16.6671875,8.8125 16.6671875,8.8125 16.6671875,8.8125 C16.5234375,8.66875 16.3320312,8.66875 16.1882812,8.71640625 Z M12.7882812,11.2546875 C12.7882812,10.9195313 12.596875,10.728125 12.2617188,10.728125 C11.9265625,10.728125 11.7351562,10.9195313 11.7351562,11.2546875 C11.7351562,11.2546875 11.7351562,11.2546875 11.7351562,11.2546875 C11.7351562,11.5898438 11.9265625,11.7335938 12.2617188,11.7335938 C12.596875,11.7335938 12.7882812,11.5898438 12.7882812,11.2546875 C12.7882812,11.2546875 12.7882812,11.2546875 12.7882812,11.2546875 Z M12.2617188,13.7929688 C12.2617188,13.7929688 12.2617188,13.7929688 12.2617188,13.7929688 C11.9265625,13.7929688 11.7351562,13.984375 11.7351562,14.3195313 C11.7351562,14.3195313 11.7351562,14.3195313 11.7351562,14.3195313 C11.7351562,14.6546875 11.9265625,14.7984375 12.2617188,14.7984375 C12.596875,14.7984375 12.7882812,14.6546875 12.7882812,14.3195313 C12.7882812,14.3195313 12.7882812,14.3195313 12.7882812,14.3195313 C12.7882812,13.984375 12.596875,13.7929688 12.2617188,13.7929688 C12.2617188,13.7929688 12.2617188,13.7929688 12.2617188,13.7929688 Z"/>
  <title>1 1</title>
</svg>