<svg xmlns="http://www.w3.org/2000/svg" viewBox="0 0 25 25" id="a11y">
  <path d="M22.5,22.6585937 C22.5,22.6585937 19.6554687,18.2445312 19.6554687,18.2445312 C19.1648437,17.65625 18.478125,17.2640625 17.69375,17.2640625 C17.69375,17.2640625 13.9664062,17.2640625 13.9664062,17.2640625 C13.5742188,17.2640625 13.1820312,17.0679687 12.8875,16.7734375 C12.5929687,16.4789062 12.4953125,16.0867187 12.4953125,15.6945312 C12.4953125,15.6945312 12.4953125,11.084375 12.4953125,11.084375 C12.4953125,11.084375 17.3015625,11.084375 17.3015625,11.084375 C17.5960937,11.084375 17.7921875,10.8882812 17.7921875,10.59375 C17.7921875,10.2992187 17.5960937,10.103125 17.3015625,10.103125 C17.3015625,10.103125 12.4953125,10.103125 12.4953125,10.103125 C12.4953125,10.103125 12.4953125,7.0625 12.4953125,7.0625 C13.378125,6.9640625 14.0648437,6.571875 14.653125,5.88515625 C15.2414062,5.1984375 15.5359375,4.4140625 15.5359375,3.53125 C15.5359375,2.55078125 15.14375,1.765625 14.4570312,1.07890625 C13.7703125,0.3921875 12.8875,0 11.9070312,0 C10.9265625,0 10.1414062,0.3921875 9.4546875,1.07890625 C8.76796875,1.765625 8.47421875,2.55 8.47421875,3.53125 C8.47421875,4.4140625 8.76875,5.1984375 9.35703125,5.88515625 C9.84765625,6.571875 10.6320312,6.9640625 11.4164062,7.0625 C11.4164062,7.0625 11.4164062,15.7921875 11.4164062,15.7921875 C11.4164062,16.4789062 11.7109375,17.165625 12.2007812,17.6554687 C12.690625,18.1453125 13.2796875,18.4398437 13.9664063,18.4398437 C13.9664063,18.4398437 17.69375,18.4398437 17.69375,18.4398437 C18.0859375,18.4398437 18.478125,18.6359375 18.8710938,18.9304687 C18.8710938,18.9304687 21.715625,23.2460938 21.715625,23.2460938 C21.8140625,23.4421875 21.9117188,23.540625 22.1078125,23.540625 C22.5,23.540625 22.6960938,23.3445312 22.6960938,23.05 C22.5976562,22.8539062 22.5976562,22.7554687 22.5,22.6578125 L22.5,22.6585937 Z M11.9070312,6.08203125 C11.9070312,6.08203125 10.6320312,5.8859375 10.1414062,5.3953125 C9.65078125,4.9046875 9.4546875,4.31640625 9.4546875,3.6296875 C9.4546875,2.94296875 9.74921875,2.25625 10.2390625,1.76640625 C10.63125,1.27578125 11.2195312,0.98203125 11.90625,0.98203125 C12.5929687,0.98203125 13.2796875,1.2765625 13.7695312,1.76640625 C14.2601562,2.25703125 14.5539063,2.8453125 14.5539063,3.6296875 C14.5539063,4.31640625 14.259375,4.9046875 13.7695312,5.3953125 C13.2796875,5.8859375 12.690625,6.08203125 11.90625,6.08203125 L11.9070312,6.08203125 Z M14.8492187,20.5984375 C14.653125,20.5984375 14.5546875,20.696875 14.4570312,20.7945313 C13.1820312,22.6578125 11.4164062,23.540625 9.25859375,23.540625 C7.49296875,23.540625 6.021875,22.9523438 4.84453125,21.6773438 C3.56953125,20.5 2.98125,19.0289063 2.98125,17.2632813 C2.98125,15.4976563 3.56953125,14.0265625 4.84453125,12.8492188 C6.021875,11.671875 7.590625,10.9859375 9.25859375,10.9859375 C9.553125,10.9859375 9.74921875,10.7898438 9.74921875,10.4953125 C9.74921875,10.2007813 9.553125,10.0046875 9.25859375,10.0046875 C7.296875,10.0046875 5.53125,10.6914063 4.1578125,12.1625 C2.68671875,13.6335938 2,15.3015625 2,17.2632813 C2,19.225 2.68671875,20.990625 4.1578125,22.3640625 C5.53125,23.8351563 7.296875,24.521875 9.25859375,24.521875 C11.8085937,24.521875 13.7703125,23.4429688 15.2414062,21.3828125 C15.3398438,21.284375 15.3398438,21.1867188 15.3398438,21.0882813 C15.3398438,20.8921875 15.2414062,20.79375 15.14375,20.6960938 C15.0460937,20.5984375 14.9476562,20.5976563 14.8492188,20.5976563 L14.8492187,20.5984375 Z"/>
  <title>A11y</title>
</svg>