<svg xmlns="http://www.w3.org/2000/svg" viewBox="0 0 25 25" id="align-center">
  <path d="M7.41171875,2.9578125 C7.0765625,2.9578125 6.9328125,2.8140625 6.9328125,2.47890625 C6.9328125,2.14375 7.0765625,2 7.41171875,2 C7.41171875,2 7.41171875,2 7.41171875,2 C7.41171875,2 18.1875,2 18.1875,2 C18.5226563,2 18.7140625,2.14375 18.7140625,2.47890625 C18.7140625,2.8140625 18.5226563,2.9578125 18.1875,2.9578125 C18.1875,2.9578125 18.1875,2.9578125 18.1875,2.9578125 C18.1875,2.9578125 7.41171875,2.9578125 7.41171875,2.9578125 Z M2.5265625,7.890625 C2.5265625,7.890625 2.5265625,7.890625 2.5265625,7.890625 C2.5265625,7.890625 23.1203125,7.890625 23.1203125,7.890625 C23.4554688,7.890625 23.5992187,7.746875 23.5992187,7.41171875 C23.5992187,7.41171875 23.5992187,7.41171875 23.5992187,7.41171875 C23.5992187,7.0765625 23.4554688,6.88515625 23.1203125,6.88515625 C23.1203125,6.88515625 23.1203125,6.88515625 23.1203125,6.88515625 C23.1203125,6.88515625 2.5265625,6.88515625 2.5265625,6.88515625 C2.19140625,6.88515625 2,7.0765625 2,7.41171875 C2,7.41171875 2,7.41171875 2,7.41171875 C2,7.746875 2.19140625,7.890625 2.5265625,7.890625 Z M18.1875,11.8179687 C18.1875,11.8179687 7.41171875,11.8179687 7.41171875,11.8179687 C7.0765625,11.8179687 6.9328125,11.9617187 6.9328125,12.296875 C6.9328125,12.6320313 7.0765625,12.7757812 7.41171875,12.7757812 C7.41171875,12.7757812 7.41171875,12.7757812 7.41171875,12.7757812 C7.41171875,12.7757812 18.1875,12.7757812 18.1875,12.7757812 C18.5226563,12.7757812 18.7140625,12.6320312 18.7140625,12.296875 C18.7140625,11.9617188 18.5226563,11.8179687 18.1875,11.8179687 C18.1875,11.8179687 18.1875,11.8179687 18.1875,11.8179687 L18.1875,11.8179687 Z M23.1203125,16.7023438 C23.1203125,16.7023438 23.1203125,16.7023438 23.1203125,16.7023438 C23.1203125,16.7023438 2.5265625,16.7023438 2.5265625,16.7023438 C2.19140625,16.7023438 2,16.8460938 2,17.18125 C2,17.18125 2,17.18125 2,17.18125 C2,17.5164062 2.19140625,17.7078125 2.5265625,17.7078125 C2.5265625,17.7078125 2.5265625,17.7078125 2.5265625,17.7078125 C2.5265625,17.7078125 23.1203125,17.7078125 23.1203125,17.7078125 C23.4554688,17.7078125 23.5992187,17.5164062 23.5992187,17.18125 C23.5992187,17.18125 23.5992187,17.18125 23.5992187,17.18125 C23.5992187,16.8460938 23.4554688,16.7023438 23.1203125,16.7023438 Z M18.1875,21.6359375 C18.1875,21.6359375 18.1875,21.6359375 18.1875,21.6359375 C18.1875,21.6359375 7.41171875,21.6359375 7.41171875,21.6359375 C7.0765625,21.6359375 6.9328125,21.7796875 6.9328125,22.1148437 C6.9328125,22.45 7.0765625,22.59375 7.41171875,22.59375 C7.41171875,22.59375 7.41171875,22.59375 7.41171875,22.59375 C7.41171875,22.59375 18.1875,22.59375 18.1875,22.59375 C18.5226563,22.59375 18.7140625,22.45 18.7140625,22.1148437 C18.7140625,21.7796875 18.5226563,21.6359375 18.1875,21.6359375 Z"/>
  <title>Align Center</title>
</svg>