<svg xmlns="http://www.w3.org/2000/svg" viewBox="0 0 25 25" id="align-item-down-solid">
  <path d="M15.2234375,6.89140625 C15.2234375,6.89140625 15.2234375,6.89140625 15.2234375,6.89140625 C15.2234375,6.89140625 19.1507813,6.89140625 19.1507813,6.89140625 C19.5820313,6.89140625 19.9171875,7.03515625 20.2046875,7.32265625 C20.4921875,7.61015625 20.6359375,7.9453125 20.6359375,8.3765625 C20.6359375,8.3765625 20.6359375,8.3765625 20.6359375,8.3765625 C20.6359375,8.3765625 20.6359375,20.1578125 20.6359375,20.1578125 C20.6359375,20.5890625 20.4921875,20.9242188 20.2046875,21.2117187 C19.9171875,21.4992188 19.5820313,21.6429687 19.1507813,21.6429687 C19.1507813,21.6429687 19.1507813,21.6429687 19.1507813,21.6429687 C19.1507813,21.6429687 15.2234375,21.6429687 15.2234375,21.6429687 C14.7921875,21.6429687 14.4570312,21.4992188 14.2179688,21.2117187 C13.9304688,20.9242188 13.7867188,20.5890625 13.7867188,20.1578125 C13.7867188,20.1578125 13.7867188,20.1578125 13.7867188,20.1578125 C13.7867188,20.1578125 13.7867188,8.3765625 13.7867188,8.3765625 C13.7867188,7.9453125 13.9304688,7.61015625 14.2179688,7.32265625 C14.4570313,7.03515625 14.7929688,6.89140625 15.2234375,6.89140625 Z M3.96875,2.48515625 C3.96875,2.48515625 3.96875,2.48515625 3.96875,2.48515625 C3.96875,2.48515625 3.96875,20.1578125 3.96875,20.1578125 C3.96875,20.5890625 4.1125,20.9242188 4.4,21.2117188 C4.6875,21.4992188 5.02265625,21.6429688 5.45390625,21.6429688 C5.45390625,21.6429688 5.45390625,21.6429688 5.45390625,21.6429688 C5.45390625,21.6429688 9.38125,21.6429688 9.38125,21.6429688 C9.8125,21.6429688 10.1476563,21.4992188 10.4351563,21.2117188 C10.6742188,20.9242188 10.8179688,20.5890625 10.8179688,20.1578125 C10.8179688,20.1578125 10.8179688,20.1578125 10.8179688,20.1578125 C10.8179688,20.1578125 10.8179688,2.48515625 10.8179688,2.48515625 C10.8179688,2.05390625 10.6742188,1.71875 10.4351563,1.43125 C10.1476563,1.14375 9.8125,1 9.38125,1 C9.38125,1 9.38125,1 9.38125,1 C9.38125,1 5.45390625,1 5.45390625,1 C5.02265625,1 4.6875,1.14375 4.4,1.43125 C4.1125,1.71875 3.96875,2.05390625 3.96875,2.48515625 Z M23.078125,23.5585938 C23.078125,23.5585938 23.078125,23.5585938 23.078125,23.5585938 C23.078125,23.5585938 1.5265625,23.5585938 1.5265625,23.5585938 C1.19140625,23.5585938 1,23.75 1,24.0851563 C1,24.0851563 1,24.0851563 1,24.0851563 C1,24.4203125 1.19140625,24.5640625 1.5265625,24.5640625 C1.5265625,24.5640625 1.5265625,24.5640625 1.5265625,24.5640625 C1.5265625,24.5640625 23.078125,24.5640625 23.078125,24.5640625 C23.4132813,24.5640625 23.6046875,24.4203125 23.6046875,24.0851563 C23.6046875,24.0851563 23.6046875,24.0851563 23.6046875,24.0851563 C23.6046875,23.75 23.4132813,23.5585938 23.078125,23.5585938 Z"/>
  <title>Align Item Down Solid</title>
</svg>