<svg xmlns="http://www.w3.org/2000/svg" viewBox="0 0 25 25" id="align-item-vert-center">
  <path d="M20.1453125,13.7460938 C20.1453125,13.7460938 20.1453125,13.7460938 20.1453125,13.7460938 C20.1453125,13.7460938 12.8179688,13.7460938 12.8179688,13.7460938 C12.8179688,13.7460938 12.8179688,10.7765625 12.8179688,10.7765625 C12.8179688,10.7765625 17.2242188,10.7765625 17.2242188,10.7765625 C17.6554688,10.7765625 17.990625,10.6328125 18.278125,10.3453125 C18.565625,10.0578125 18.709375,9.72265625 18.709375,9.33984375 C18.709375,9.33984375 18.709375,9.33984375 18.709375,9.33984375 C18.709375,9.33984375 18.709375,5.4125 18.709375,5.4125 C18.709375,4.98125 18.565625,4.64609375 18.278125,4.35859375 C17.990625,4.07109375 17.6554688,3.92734375 17.2242188,3.92734375 C17.2242188,3.92734375 17.2242188,3.92734375 17.2242188,3.92734375 C17.2242188,3.92734375 12.8179688,3.92734375 12.8179688,3.92734375 C12.8179688,3.92734375 12.8179688,0.47890625 12.8179688,0.47890625 C12.8179688,0.14375 12.6265625,0 12.2914063,0 C12.2914063,0 12.2914063,0 12.2914063,0 C11.95625,0 11.8125,0.14375 11.8125,0.47890625 C11.8125,0.47890625 11.8125,0.47890625 11.8125,0.47890625 C11.8125,0.47890625 11.8125,3.92734375 11.8125,3.92734375 C11.8125,3.92734375 7.40625,3.92734375 7.40625,3.92734375 C6.975,3.92734375 6.63984375,4.07109375 6.35234375,4.35859375 C6.06484375,4.64609375 5.92109375,4.98125 5.92109375,5.4125 C5.92109375,5.4125 5.92109375,5.4125 5.92109375,5.4125 C5.92109375,5.4125 5.92109375,9.33984375 5.92109375,9.33984375 C5.92109375,9.72265625 6.06484375,10.0585938 6.35234375,10.3453125 C6.63984375,10.6320312 6.975,10.7765625 7.40625,10.7765625 C7.40625,10.7765625 7.40625,10.7765625 7.40625,10.7765625 C7.40625,10.7765625 11.8125,10.7765625 11.8125,10.7765625 C11.8125,10.7765625 11.8125,13.7460938 11.8125,13.7460938 C11.8125,13.7460938 4.48515625,13.7460938 4.48515625,13.7460938 C4.05390625,13.7460938 3.71875,13.8898438 3.43125,14.1289063 C3.14375,14.4164063 3,14.7515625 3,15.1828125 C3,15.1828125 3,15.1828125 3,15.1828125 C3,15.1828125 3,19.1101563 3,19.1101563 C3,19.5414063 3.14375,19.8765625 3.43125,20.1640625 C3.71875,20.4515625 4.05390625,20.5953125 4.48515625,20.5953125 C4.48515625,20.5953125 4.48515625,20.5953125 4.48515625,20.5953125 C4.48515625,20.5953125 11.8125,20.5953125 11.8125,20.5953125 C11.8125,20.5953125 11.8125,24.04375 11.8125,24.04375 C11.8125,24.3789062 11.95625,24.5226563 12.2914063,24.5226563 C12.2914063,24.5226563 12.2914063,24.5226563 12.2914063,24.5226563 C12.6265625,24.5226563 12.8179688,24.3789062 12.8179688,24.04375 C12.8179688,24.04375 12.8179688,24.04375 12.8179688,24.04375 C12.8179688,24.04375 12.8179688,20.5953125 12.8179688,20.5953125 C12.8179688,20.5953125 20.1453125,20.5953125 20.1453125,20.5953125 C20.5765625,20.5953125 20.9117188,20.4515625 21.1992188,20.1640625 C21.4867188,19.8765625 21.6304687,19.5414062 21.6304687,19.1101562 C21.6304687,19.1101562 21.6304687,19.1101562 21.6304687,19.1101562 C21.6304687,19.1101562 21.6304687,15.1828125 21.6304687,15.1828125 C21.6304687,14.7515625 21.4867188,14.4164062 21.1992188,14.1289062 C20.9117188,13.8898437 20.5765625,13.7460937 20.1453125,13.7460938 Z M17.2242187,9.81875 C17.2242187,9.81875 7.40625,9.81875 7.40625,9.81875 C7.07109375,9.81875 6.92734375,9.675 6.92734375,9.33984375 C6.92734375,9.33984375 6.92734375,9.33984375 6.92734375,9.33984375 C6.92734375,9.33984375 6.92734375,5.4125 6.92734375,5.4125 C6.92734375,5.07734375 7.07109375,4.8859375 7.40625,4.8859375 C7.40625,4.8859375 7.40625,4.8859375 7.40625,4.8859375 C7.40625,4.8859375 17.2242187,4.8859375 17.2242187,4.8859375 C17.559375,4.8859375 17.703125,5.07734375 17.703125,5.4125 C17.703125,5.4125 17.703125,5.4125 17.703125,5.4125 C17.703125,5.4125 17.703125,9.33984375 17.703125,9.33984375 C17.703125,9.675 17.559375,9.81875 17.2242187,9.81875 C17.2242187,9.81875 17.2242187,9.81875 17.2242187,9.81875 Z M20.6726562,15.1828125 C20.6726562,15.1828125 20.6726562,19.1101562 20.6726562,19.1101562 C20.6726562,19.4453125 20.48125,19.6367188 20.1460937,19.6367188 C20.1460937,19.6367188 20.1460937,19.6367188 20.1460937,19.6367188 C20.1460937,19.6367188 4.48515625,19.6367188 4.48515625,19.6367188 C4.15,19.6367188 3.95859375,19.4453125 3.95859375,19.1101562 C3.95859375,19.1101562 3.95859375,19.1101562 3.95859375,19.1101562 C3.95859375,19.1101562 3.95859375,15.1828125 3.95859375,15.1828125 C3.95859375,14.8476562 4.15,14.7039062 4.48515625,14.7039062 C4.48515625,14.7039062 4.48515625,14.7039062 4.48515625,14.7039062 C4.48515625,14.7039062 20.1460937,14.7039062 20.1460937,14.7039062 C20.48125,14.7039062 20.6726562,14.8476562 20.6726562,15.1828125 C20.6726562,15.1828125 20.6726562,15.1828125 20.6726562,15.1828125 Z"/>
  <title>Align Item Vert Center</title>
</svg>