<svg xmlns="http://www.w3.org/2000/svg" viewBox="0 0 25 25" id="align-item-center">
  <path d="M24.04375,11.8609375 C24.04375,11.8609375 24.04375,11.8609375 24.04375,11.8609375 C24.04375,11.8609375 20.5953125,11.8609375 20.5953125,11.8609375 C20.5953125,11.8609375 20.5953125,7.4546875 20.5953125,7.4546875 C20.5953125,7.0234375 20.4515625,6.68828125 20.1640625,6.40078125 C19.8765625,6.11328125 19.5414063,5.96953125 19.1101563,5.96953125 C19.1101563,5.96953125 19.1101563,5.96953125 19.1101563,5.96953125 C19.1101563,5.96953125 15.1828125,5.96953125 15.1828125,5.96953125 C14.7515625,5.96953125 14.4164062,6.11328125 14.1773438,6.40078125 C13.8898438,6.68828125 13.7460938,7.0234375 13.7460938,7.4546875 C13.7460938,7.4546875 13.7460938,7.4546875 13.7460938,7.4546875 C13.7460938,7.4546875 13.7460938,11.8609375 13.7460938,11.8609375 C13.7460938,11.8609375 10.7765625,11.8609375 10.7765625,11.8609375 C10.7765625,11.8609375 10.7765625,4.48515625 10.7765625,4.48515625 C10.7765625,4.05390625 10.6328125,3.71875 10.39375,3.43125 C10.10625,3.14375 9.77109375,3 9.33984375,3 C9.33984375,3 9.33984375,3 9.33984375,3 C9.33984375,3 5.4125,3 5.4125,3 C4.98125,3 4.64609375,3.14375 4.35859375,3.43125 C4.07109375,3.71875 3.92734375,4.05390625 3.92734375,4.48515625 C3.92734375,4.48515625 3.92734375,4.48515625 3.92734375,4.48515625 C3.92734375,4.48515625 3.92734375,11.8609375 3.92734375,11.8609375 C3.92734375,11.8609375 0.47890625,11.8609375 0.47890625,11.8609375 C0.14375,11.8609375 0,12.0046875 0,12.3398437 C0,12.675 0.14375,12.81875 0.47890625,12.81875 C0.47890625,12.81875 0.47890625,12.81875 0.47890625,12.81875 C0.47890625,12.81875 3.92734375,12.81875 3.92734375,12.81875 C3.92734375,12.81875 3.92734375,20.1945312 3.92734375,20.1945312 C3.92734375,20.6257812 4.07109375,20.9609375 4.35859375,21.2484375 C4.64609375,21.5359375 4.98125,21.6796875 5.4125,21.6796875 C5.4125,21.6796875 5.4125,21.6796875 5.4125,21.6796875 C5.4125,21.6796875 9.33984375,21.6796875 9.33984375,21.6796875 C9.77109375,21.6796875 10.10625,21.5359375 10.39375,21.2484375 C10.6328125,20.9609375 10.7765625,20.6257812 10.7765625,20.1945312 C10.7765625,20.1945312 10.7765625,20.1945312 10.7765625,20.1945312 C10.7765625,20.1945312 10.7765625,12.81875 10.7765625,12.81875 C10.7765625,12.81875 13.7460938,12.81875 13.7460938,12.81875 C13.7460938,12.81875 13.7460938,17.225 13.7460938,17.225 C13.7460938,17.65625 13.8898438,17.9914062 14.1773438,18.2789062 C14.4164063,18.5664062 14.7523438,18.7101562 15.1828125,18.7101562 C15.1828125,18.7101562 15.1828125,18.7101562 15.1828125,18.7101562 C15.1828125,18.7101562 19.1101563,18.7101562 19.1101563,18.7101562 C19.5414063,18.7101562 19.8765625,18.5664062 20.1640625,18.2789062 C20.4515625,17.9914062 20.5953125,17.65625 20.5953125,17.225 C20.5953125,17.225 20.5953125,17.225 20.5953125,17.225 C20.5953125,17.225 20.5953125,12.81875 20.5953125,12.81875 C20.5953125,12.81875 24.04375,12.81875 24.04375,12.81875 C24.3789063,12.81875 24.5226563,12.675 24.5226563,12.3398437 C24.5226563,12.0046875 24.3789063,11.8609375 24.04375,11.8609375 Z M9.81953125,4.48515625 C9.81953125,4.48515625 9.81953125,20.19375 9.81953125,20.19375 C9.81953125,20.5289062 9.67578125,20.6726562 9.340625,20.6726562 C9.340625,20.6726562 9.340625,20.6726562 9.340625,20.6726562 C9.340625,20.6726562 5.41328125,20.6726562 5.41328125,20.6726562 C5.078125,20.6726562 4.88671875,20.5289062 4.88671875,20.19375 C4.88671875,20.19375 4.88671875,20.19375 4.88671875,20.19375 C4.88671875,20.19375 4.88671875,4.48515625 4.88671875,4.48515625 C4.88671875,4.15 5.078125,4.00625 5.41328125,4.00625 C5.41328125,4.00625 5.41328125,4.00625 5.41328125,4.00625 C5.41328125,4.00625 9.340625,4.00625 9.340625,4.00625 C9.67578125,4.00625 9.81953125,4.15 9.81953125,4.48515625 C9.81953125,4.48515625 9.81953125,4.48515625 9.81953125,4.48515625 Z M19.6375,7.4546875 C19.6375,7.4546875 19.6375,17.225 19.6375,17.225 C19.6375,17.5601563 19.4460937,17.7515625 19.1109375,17.7515625 C19.1109375,17.7515625 19.1109375,17.7515625 19.1109375,17.7515625 C19.1109375,17.7515625 15.1835938,17.7515625 15.1835938,17.7515625 C14.8484375,17.7515625 14.7046875,17.5601563 14.7046875,17.225 C14.7046875,17.225 14.7046875,17.225 14.7046875,17.225 C14.7046875,17.225 14.7046875,7.4546875 14.7046875,7.4546875 C14.7046875,7.11953125 14.8484375,6.928125 15.1835938,6.928125 C15.1835938,6.928125 15.1835938,6.928125 15.1835938,6.928125 C15.1835938,6.928125 19.1109375,6.928125 19.1109375,6.928125 C19.4460937,6.928125 19.6375,7.11953125 19.6375,7.4546875 C19.6375,7.4546875 19.6375,7.4546875 19.6375,7.4546875 Z"/>
  <title>Align Item Center</title>
</svg>