<svg xmlns="http://www.w3.org/2000/svg" viewBox="0 0 25 25" id="align-right">
  <path d="M12.296875,2.9578125 C11.9617188,2.9578125 11.8179688,2.8140625 11.8179688,2.47890625 C11.8179688,2.14375 11.9617188,2 12.296875,2 C12.296875,2 12.296875,2 12.296875,2 C12.296875,2 23.0726563,2 23.0726563,2 C23.4078125,2 23.5992187,2.14375 23.5992187,2.47890625 C23.5992187,2.8140625 23.4078125,2.9578125 23.0726563,2.9578125 C23.0726563,2.9578125 23.0726563,2.9578125 23.0726563,2.9578125 C23.0726563,2.9578125 12.296875,2.9578125 12.296875,2.9578125 Z M23.0726562,6.884375 C23.0726562,6.884375 23.0726562,6.884375 23.0726562,6.884375 C23.0726562,6.884375 2.47890625,6.884375 2.47890625,6.884375 C2.14375,6.884375 2,7.07578125 2,7.4109375 C2,7.4109375 2,7.4109375 2,7.4109375 C2,7.74609375 2.14375,7.88984375 2.47890625,7.88984375 C2.47890625,7.88984375 2.47890625,7.88984375 2.47890625,7.88984375 C2.47890625,7.88984375 23.0726562,7.88984375 23.0726562,7.88984375 C23.4078125,7.88984375 23.5992187,7.74609375 23.5992187,7.4109375 C23.5992187,7.4109375 23.5992187,7.4109375 23.5992187,7.4109375 C23.5992187,7.07578125 23.4078125,6.884375 23.0726562,6.884375 Z M23.0726563,11.8179687 C23.0726563,11.8179687 23.0726563,11.8179687 23.0726563,11.8179687 C23.0726563,11.8179687 12.296875,11.8179687 12.296875,11.8179687 C11.9617188,11.8179687 11.8179688,11.9617187 11.8179688,12.296875 C11.8179688,12.6320313 11.9617188,12.7757812 12.296875,12.7757812 C12.296875,12.7757812 12.296875,12.7757812 12.296875,12.7757812 C12.296875,12.7757812 23.0726563,12.7757812 23.0726563,12.7757812 C23.4078125,12.7757812 23.5992187,12.6320312 23.5992187,12.296875 C23.5992187,11.9617188 23.4078125,11.8179687 23.0726563,11.8179687 L23.0726563,11.8179687 Z M23.0726562,16.7023438 C23.0726562,16.7023438 23.0726562,16.7023438 23.0726562,16.7023438 C23.0726562,16.7023438 2.47890625,16.7023438 2.47890625,16.7023438 C2.14375,16.7023438 2,16.8460938 2,17.18125 C2,17.18125 2,17.18125 2,17.18125 C2,17.5164062 2.14375,17.7078125 2.47890625,17.7078125 C2.47890625,17.7078125 2.47890625,17.7078125 2.47890625,17.7078125 C2.47890625,17.7078125 23.0726562,17.7078125 23.0726562,17.7078125 C23.4078125,17.7078125 23.5992187,17.5164062 23.5992187,17.18125 C23.5992187,17.18125 23.5992187,17.18125 23.5992187,17.18125 C23.5992187,16.8460938 23.4078125,16.7023438 23.0726562,16.7023438 Z M23.0726563,21.6359375 C23.0726563,21.6359375 23.0726563,21.6359375 23.0726563,21.6359375 C23.0726563,21.6359375 12.296875,21.6359375 12.296875,21.6359375 C11.9617188,21.6359375 11.8179688,21.7796875 11.8179688,22.1148437 C11.8179688,22.45 11.9617188,22.59375 12.296875,22.59375 C12.296875,22.59375 12.296875,22.59375 12.296875,22.59375 C12.296875,22.59375 23.0726563,22.59375 23.0726563,22.59375 C23.4078125,22.59375 23.5992187,22.45 23.5992187,22.1148437 C23.5992187,21.7796875 23.4078125,21.6359375 23.0726563,21.6359375 Z"/>
  <title>Align Right</title>
</svg>