<svg xmlns="http://www.w3.org/2000/svg" viewBox="0 0 25 25" id="align-item-vert-center-solid">
  <path d="M21.6304687,15.1828125 C21.6304687,15.1828125 21.6304687,15.1828125 21.6304687,15.1828125 C21.6304687,15.1828125 21.6304687,19.1101563 21.6304687,19.1101563 C21.6304687,19.5414063 21.4867187,19.8765625 21.1992188,20.1640625 C20.9117187,20.4515625 20.5765625,20.5953125 20.1453125,20.5953125 C20.1453125,20.5953125 20.1453125,20.5953125 20.1453125,20.5953125 C20.1453125,20.5953125 12.8179687,20.5953125 12.8179687,20.5953125 C12.8179687,20.5953125 12.8179687,24.04375 12.8179687,24.04375 C12.8179687,24.3789062 12.6265625,24.5226563 12.2914062,24.5226563 C12.2914062,24.5226563 12.2914062,24.5226563 12.2914062,24.5226563 C11.95625,24.5226563 11.8125,24.3789062 11.8125,24.04375 C11.8125,24.04375 11.8125,24.04375 11.8125,24.04375 C11.8125,24.04375 11.8125,20.5953125 11.8125,20.5953125 C11.8125,20.5953125 4.48515625,20.5953125 4.48515625,20.5953125 C4.05390625,20.5953125 3.71875,20.4515625 3.43125,20.1640625 C3.14375,19.8765625 3,19.5414063 3,19.1101563 C3,19.1101563 3,19.1101563 3,19.1101563 C3,19.1101563 3,15.1828125 3,15.1828125 C3,14.7515625 3.14375,14.4164062 3.43125,14.1289062 C3.71875,13.8898438 4.05390625,13.7460938 4.48515625,13.7460938 C4.48515625,13.7460938 4.48515625,13.7460938 4.48515625,13.7460938 C4.48515625,13.7460938 11.8125,13.7460938 11.8125,13.7460938 C11.8125,13.7460938 11.8125,10.7765625 11.8125,10.7765625 C11.8125,10.7765625 7.40625,10.7765625 7.40625,10.7765625 C6.975,10.7765625 6.63984375,10.6328125 6.35234375,10.3453125 C6.06484375,10.0578125 5.92109375,9.72265625 5.92109375,9.33984375 C5.92109375,9.33984375 5.92109375,9.33984375 5.92109375,9.33984375 C5.92109375,9.33984375 5.92109375,5.4125 5.92109375,5.4125 C5.92109375,4.98125 6.06484375,4.64609375 6.35234375,4.35859375 C6.63984375,4.07109375 6.975,3.92734375 7.40625,3.92734375 C7.40625,3.92734375 7.40625,3.92734375 7.40625,3.92734375 C7.40625,3.92734375 11.8125,3.92734375 11.8125,3.92734375 C11.8125,3.92734375 11.8125,0.47890625 11.8125,0.47890625 C11.8125,0.14375 11.95625,0 12.2914062,0 C12.2914062,0 12.2914062,0 12.2914062,0 C12.6265625,0 12.8179687,0.14375 12.8179687,0.47890625 C12.8179687,0.47890625 12.8179687,0.47890625 12.8179687,0.47890625 C12.8179687,0.47890625 12.8179687,3.92734375 12.8179687,3.92734375 C12.8179687,3.92734375 17.2242187,3.92734375 17.2242187,3.92734375 C17.6554687,3.92734375 17.990625,4.07109375 18.278125,4.35859375 C18.565625,4.64609375 18.709375,4.98125 18.709375,5.4125 C18.709375,5.4125 18.709375,5.4125 18.709375,5.4125 C18.709375,5.4125 18.709375,9.33984375 18.709375,9.33984375 C18.709375,9.72265625 18.565625,10.0585938 18.278125,10.3453125 C17.990625,10.6320312 17.6554687,10.7765625 17.2242187,10.7765625 C17.2242187,10.7765625 17.2242187,10.7765625 17.2242187,10.7765625 C17.2242187,10.7765625 12.8179687,10.7765625 12.8179687,10.7765625 C12.8179687,10.7765625 12.8179687,13.7460937 12.8179687,13.7460937 C12.8179687,13.7460937 20.1453125,13.7460937 20.1453125,13.7460937 C20.5765625,13.7460937 20.9117187,13.8898438 21.1992187,14.1289062 C21.4867187,14.4164062 21.6304687,14.7515625 21.6304687,15.1828125 L21.6304687,15.1828125 Z"/>
  <title>Align Item Vert Center Solid</title>
</svg>