<svg xmlns="http://www.w3.org/2000/svg" viewBox="0 0 25 25" id="align-item-right">
  <path d="M20.109375,3.96953125 C20.109375,3.96953125 20.109375,3.96953125 20.109375,3.96953125 C20.109375,3.96953125 6.41171875,3.96953125 6.41171875,3.96953125 C5.98046875,3.96953125 5.6453125,4.11328125 5.3578125,4.40078125 C5.0703125,4.68828125 4.9265625,5.0234375 4.9265625,5.4546875 C4.9265625,5.4546875 4.9265625,5.4546875 4.9265625,5.4546875 C4.9265625,5.4546875 4.9265625,9.38203125 4.9265625,9.38203125 C4.9265625,9.76484375 5.0703125,10.1007813 5.3578125,10.3875 C5.6453125,10.6742188 5.98046875,10.81875 6.41171875,10.81875 C6.41171875,10.81875 6.41171875,10.81875 6.41171875,10.81875 C6.41171875,10.81875 20.109375,10.81875 20.109375,10.81875 C20.540625,10.81875 20.8757812,10.675 21.1632813,10.3875 C21.4507812,10.1 21.5945312,9.76484375 21.5945312,9.38203125 C21.5945312,9.38203125 21.5945312,9.38203125 21.5945312,9.38203125 C21.5945312,9.38203125 21.5945312,5.4546875 21.5945312,5.4546875 C21.5945312,5.0234375 21.4507812,4.68828125 21.1632813,4.40078125 C20.8757812,4.11328125 20.540625,3.96953125 20.109375,3.96953125 Z M20.6359375,5.45390625 C20.6359375,5.45390625 20.6359375,9.38125 20.6359375,9.38125 C20.6359375,9.71640625 20.4445312,9.86015625 20.109375,9.86015625 C20.109375,9.86015625 20.109375,9.86015625 20.109375,9.86015625 C20.109375,9.86015625 6.41171875,9.86015625 6.41171875,9.86015625 C6.0765625,9.86015625 5.88515625,9.71640625 5.88515625,9.38125 C5.88515625,9.38125 5.88515625,9.38125 5.88515625,9.38125 C5.88515625,9.38125 5.88515625,5.45390625 5.88515625,5.45390625 C5.88515625,5.11875 6.0765625,4.92734375 6.41171875,4.92734375 C6.41171875,4.92734375 6.41171875,4.92734375 6.41171875,4.92734375 C6.41171875,4.92734375 20.109375,4.92734375 20.109375,4.92734375 C20.4445312,4.92734375 20.6359375,5.11875 20.6359375,5.45390625 C20.6359375,5.45390625 20.6359375,5.45390625 20.6359375,5.45390625 Z M20.109375,13.7875 C20.109375,13.7875 20.109375,13.7875 20.109375,13.7875 C20.109375,13.7875 2.48515625,13.7875 2.48515625,13.7875 C2.05390625,13.7875 1.71875,13.93125 1.43125,14.1703125 C1.14375,14.4578125 1,14.7929688 1,15.2242188 C1,15.2242188 1,15.2242188 1,15.2242188 C1,15.2242188 1,19.1515625 1,19.1515625 C1,19.5828125 1.14375,19.9179688 1.43125,20.2054688 C1.71875,20.4929688 2.05390625,20.6367188 2.48515625,20.6367188 C2.48515625,20.6367188 2.48515625,20.6367188 2.48515625,20.6367188 C2.48515625,20.6367188 20.109375,20.6367188 20.109375,20.6367188 C20.540625,20.6367188 20.8757812,20.4929688 21.1632813,20.2054688 C21.4507812,19.9179688 21.5945312,19.5828125 21.5945312,19.1515625 C21.5945312,19.1515625 21.5945312,19.1515625 21.5945312,19.1515625 C21.5945312,19.1515625 21.5945312,15.2242188 21.5945312,15.2242188 C21.5945312,14.7929688 21.4507812,14.4578125 21.1632813,14.1703125 C20.8757812,13.93125 20.540625,13.7875 20.109375,13.7875 Z M20.6359375,15.2242188 C20.6359375,15.2242188 20.6359375,19.1515625 20.6359375,19.1515625 C20.6359375,19.4867188 20.4445312,19.678125 20.109375,19.678125 C20.109375,19.678125 20.109375,19.678125 20.109375,19.678125 C20.109375,19.678125 2.48515625,19.678125 2.48515625,19.678125 C2.15,19.678125 1.95859375,19.4867188 1.95859375,19.1515625 C1.95859375,19.1515625 1.95859375,19.1515625 1.95859375,19.1515625 C1.95859375,19.1515625 1.95859375,15.2242188 1.95859375,15.2242188 C1.95859375,14.8890625 2.15,14.7453125 2.48515625,14.7453125 C2.48515625,14.7453125 2.48515625,14.7453125 2.48515625,14.7453125 C2.48515625,14.7453125 20.109375,14.7453125 20.109375,14.7453125 C20.4445312,14.7453125 20.6359375,14.8890625 20.6359375,15.2242188 C20.6359375,15.2242188 20.6359375,15.2242188 20.6359375,15.2242188 Z M24.5632812,1.5265625 C24.5632812,1.5265625 24.5632812,1.5265625 24.5632812,1.5265625 C24.5632812,1.5265625 24.5632812,23.078125 24.5632812,23.078125 C24.5632812,23.4132813 24.371875,23.5570313 24.0367187,23.5570313 C24.0367187,23.5570313 24.0367187,23.5570313 24.0367187,23.5570313 C23.7015625,23.5570313 23.5578125,23.4132813 23.5578125,23.078125 C23.5578125,23.078125 23.5578125,23.078125 23.5578125,23.078125 C23.5578125,23.078125 23.5578125,1.5265625 23.5578125,1.5265625 C23.5578125,1.19140625 23.7015625,1 24.0367187,1 C24.0367187,1 24.0367187,1 24.0367187,1 C24.371875,1 24.5632812,1.19140625 24.5632812,1.5265625 Z"/>
  <title>Align Item Right</title>
</svg>