<svg xmlns="http://www.w3.org/2000/svg" viewBox="0 0 25 25" id="align-item-left">
  <path d="M5.45390625,10.8179688 C5.45390625,10.8179688 5.45390625,10.8179688 5.45390625,10.8179688 C5.45390625,10.8179688 19.1515625,10.8179688 19.1515625,10.8179688 C19.5828125,10.8179688 19.9179688,10.6742188 20.2054688,10.3867188 C20.4929688,10.0992188 20.6367188,9.7640625 20.6367188,9.38125 C20.6367188,9.38125 20.6367188,9.38125 20.6367188,9.38125 C20.6367188,9.38125 20.6367188,5.45390625 20.6367188,5.45390625 C20.6367188,5.02265625 20.4929688,4.6875 20.2054688,4.4 C19.9179688,4.1125 19.5828125,3.96875 19.1515625,3.96875 C19.1515625,3.96875 19.1515625,3.96875 19.1515625,3.96875 C19.1515625,3.96875 5.45390625,3.96875 5.45390625,3.96875 C5.02265625,3.96875 4.6875,4.1125 4.4,4.4 C4.1125,4.6875 3.96875,5.02265625 3.96875,5.45390625 C3.96875,5.45390625 3.96875,5.45390625 3.96875,5.45390625 C3.96875,5.45390625 3.96875,9.38125 3.96875,9.38125 C3.96875,9.7640625 4.1125,10.1 4.4,10.3867188 C4.6875,10.6734375 5.02265625,10.8179688 5.45390625,10.8179688 L5.45390625,10.8179688 Z M4.92734375,9.38125 C4.92734375,9.38125 4.92734375,5.45390625 4.92734375,5.45390625 C4.92734375,5.11875 5.11875,4.92734375 5.45390625,4.92734375 C5.45390625,4.92734375 5.45390625,4.92734375 5.45390625,4.92734375 C5.45390625,4.92734375 19.1515625,4.92734375 19.1515625,4.92734375 C19.4867187,4.92734375 19.678125,5.11875 19.678125,5.45390625 C19.678125,5.45390625 19.678125,5.45390625 19.678125,5.45390625 C19.678125,5.45390625 19.678125,9.38125 19.678125,9.38125 C19.678125,9.71640625 19.4867187,9.86015625 19.1515625,9.86015625 C19.1515625,9.86015625 19.1515625,9.86015625 19.1515625,9.86015625 C19.1515625,9.86015625 5.45390625,9.86015625 5.45390625,9.86015625 C5.11875,9.86015625 4.92734375,9.71640625 4.92734375,9.38125 C4.92734375,9.38125 4.92734375,9.38125 4.92734375,9.38125 Z M23.0789063,13.7875 C23.0789063,13.7875 23.0789063,13.7875 23.0789063,13.7875 C23.0789063,13.7875 5.4546875,13.7875 5.4546875,13.7875 C5.0234375,13.7875 4.68828125,13.93125 4.40078125,14.1703125 C4.11328125,14.4578125 3.96953125,14.7929688 3.96953125,15.2242188 C3.96953125,15.2242188 3.96953125,15.2242188 3.96953125,15.2242188 C3.96953125,15.2242188 3.96953125,19.1515625 3.96953125,19.1515625 C3.96953125,19.5828125 4.11328125,19.9179688 4.40078125,20.2054688 C4.68828125,20.4929688 5.0234375,20.6367188 5.4546875,20.6367188 C5.4546875,20.6367188 5.4546875,20.6367188 5.4546875,20.6367188 C5.4546875,20.6367188 23.0789063,20.6367188 23.0789063,20.6367188 C23.5101563,20.6367188 23.8453125,20.4929688 24.1328125,20.2054688 C24.4203125,19.9179688 24.5640625,19.5828125 24.5640625,19.1515625 C24.5640625,19.1515625 24.5640625,19.1515625 24.5640625,19.1515625 C24.5640625,19.1515625 24.5640625,15.2242188 24.5640625,15.2242188 C24.5640625,14.7929688 24.4203125,14.4578125 24.1328125,14.1703125 C23.8453125,13.93125 23.5101563,13.7875 23.0789062,13.7875 L23.0789063,13.7875 Z M23.6054688,15.2242188 C23.6054688,15.2242188 23.6054688,19.1515625 23.6054688,19.1515625 C23.6054688,19.4867188 23.4140625,19.678125 23.0789062,19.678125 C23.0789062,19.678125 23.0789062,19.678125 23.0789062,19.678125 C23.0789062,19.678125 5.4546875,19.678125 5.4546875,19.678125 C5.11953125,19.678125 4.928125,19.4867188 4.928125,19.1515625 C4.928125,19.1515625 4.928125,19.1515625 4.928125,19.1515625 C4.928125,19.1515625 4.928125,15.2242188 4.928125,15.2242188 C4.928125,14.8890625 5.11953125,14.7453125 5.4546875,14.7453125 C5.4546875,14.7453125 5.4546875,14.7453125 5.4546875,14.7453125 C5.4546875,14.7453125 23.0789062,14.7453125 23.0789062,14.7453125 C23.4140625,14.7453125 23.6054688,14.8890625 23.6054688,15.2242188 C23.6054688,15.2242188 23.6054688,15.2242188 23.6054688,15.2242188 Z M2.00546875,1.5265625 C2.00546875,1.5265625 2.00546875,1.5265625 2.00546875,1.5265625 C2.00546875,1.5265625 2.00546875,23.078125 2.00546875,23.078125 C2.00546875,23.4132813 1.86171875,23.5570313 1.5265625,23.5570313 C1.5265625,23.5570313 1.5265625,23.5570313 1.5265625,23.5570313 C1.19140625,23.5570313 1,23.4132813 1,23.078125 C1,23.078125 1,23.078125 1,23.078125 C1,23.078125 1,1.5265625 1,1.5265625 C1,1.19140625 1.19140625,1 1.5265625,1 C1.5265625,1 1.5265625,1 1.5265625,1 C1.86171875,1 2.00546875,1.19140625 2.00546875,1.5265625 Z"/>
  <title>Align Item Left</title>
</svg>