<svg xmlns="http://www.w3.org/2000/svg" viewBox="0 0 25 25" id="align-item-down">
  <path d="M15.2234375,21.5945313 C15.2234375,21.5945313 15.2234375,21.5945313 15.2234375,21.5945313 C15.2234375,21.5945313 19.1507813,21.5945313 19.1507813,21.5945313 C19.5820313,21.5945313 19.9171875,21.4507813 20.2046875,21.1632813 C20.4921875,20.8757813 20.6359375,20.540625 20.6359375,20.109375 C20.6359375,20.109375 20.6359375,20.109375 20.6359375,20.109375 C20.6359375,20.109375 20.6359375,8.37578125 20.6359375,8.37578125 C20.6359375,7.94453125 20.4921875,7.609375 20.2046875,7.321875 C19.9171875,7.034375 19.5820313,6.890625 19.1507813,6.890625 C19.1507813,6.890625 19.1507813,6.890625 19.1507813,6.890625 C19.1507813,6.890625 15.2234375,6.890625 15.2234375,6.890625 C14.7921875,6.890625 14.4570312,7.034375 14.2179688,7.321875 C13.9304688,7.609375 13.7867188,7.94453125 13.7867188,8.37578125 C13.7867188,8.37578125 13.7867188,8.37578125 13.7867188,8.37578125 C13.7867188,8.37578125 13.7867188,20.109375 13.7867188,20.109375 C13.7867188,20.540625 13.9304688,20.8757813 14.2179688,21.1632813 C14.4570313,21.4507813 14.7929688,21.5945313 15.2234375,21.5945313 Z M14.7445313,20.1101563 C14.7445313,20.1101563 14.7445313,8.3765625 14.7445313,8.3765625 C14.7445313,8.04140625 14.8882813,7.85 15.2234375,7.85 C15.2234375,7.85 15.2234375,7.85 15.2234375,7.85 C15.2234375,7.85 19.1507813,7.85 19.1507813,7.85 C19.4859375,7.85 19.6773437,8.04140625 19.6773437,8.3765625 C19.6773437,8.3765625 19.6773437,8.3765625 19.6773437,8.3765625 C19.6773437,8.3765625 19.6773437,20.1101563 19.6773437,20.1101563 C19.6773437,20.4453125 19.4859375,20.6367188 19.1507813,20.6367188 C19.1507813,20.6367188 19.1507813,20.6367188 19.1507813,20.6367188 C19.1507813,20.6367188 15.2234375,20.6367188 15.2234375,20.6367188 C14.8882813,20.6367188 14.7445313,20.4453125 14.7445313,20.1101563 C14.7445313,20.1101563 14.7445313,20.1101563 14.7445313,20.1101563 Z M5.453125,21.5945312 C5.453125,21.5945312 5.453125,21.5945312 5.453125,21.5945312 C5.453125,21.5945312 9.38046875,21.5945312 9.38046875,21.5945312 C9.81171875,21.5945312 10.146875,21.4507812 10.434375,21.1632813 C10.6734375,20.8757812 10.8171875,20.540625 10.8171875,20.109375 C10.8171875,20.109375 10.8171875,20.109375 10.8171875,20.109375 C10.8171875,20.109375 10.8171875,2.48515625 10.8171875,2.48515625 C10.8171875,2.05390625 10.6734375,1.71875 10.434375,1.43125 C10.146875,1.14375 9.81171875,1 9.38046875,1 C9.38046875,1 9.38046875,1 9.38046875,1 C9.38046875,1 5.453125,1 5.453125,1 C5.021875,1 4.68671875,1.14375 4.39921875,1.43125 C4.11171875,1.71875 3.96796875,2.05390625 3.96796875,2.48515625 C3.96796875,2.48515625 3.96796875,2.48515625 3.96796875,2.48515625 C3.96796875,2.48515625 3.96796875,20.109375 3.96796875,20.109375 C3.96796875,20.540625 4.11171875,20.8757812 4.39921875,21.1632813 C4.68671875,21.4507812 5.021875,21.5945312 5.453125,21.5945312 L5.453125,21.5945312 Z M4.9265625,20.1101562 C4.9265625,20.1101562 4.9265625,2.4859375 4.9265625,2.4859375 C4.9265625,2.15078125 5.11796875,1.959375 5.453125,1.959375 C5.453125,1.959375 5.453125,1.959375 5.453125,1.959375 C5.453125,1.959375 9.38046875,1.959375 9.38046875,1.959375 C9.715625,1.959375 9.859375,2.15078125 9.859375,2.4859375 C9.859375,2.4859375 9.859375,2.4859375 9.859375,2.4859375 C9.859375,2.4859375 9.859375,20.1101562 9.859375,20.1101562 C9.859375,20.4453125 9.715625,20.6367188 9.38046875,20.6367188 C9.38046875,20.6367188 9.38046875,20.6367188 9.38046875,20.6367188 C9.38046875,20.6367188 5.453125,20.6367188 5.453125,20.6367188 C5.11796875,20.6367188 4.9265625,20.4453125 4.9265625,20.1101562 C4.9265625,20.1101562 4.9265625,20.1101562 4.9265625,20.1101562 L4.9265625,20.1101562 Z M23.078125,23.5585938 C23.4132813,23.5585938 23.6046875,23.7023438 23.6046875,24.0375 C23.6046875,24.3726562 23.4132813,24.5164062 23.078125,24.5164062 C23.078125,24.5164062 23.078125,24.5164062 23.078125,24.5164062 C23.078125,24.5164062 1.5265625,24.5164062 1.5265625,24.5164062 C1.19140625,24.5164062 1,24.3726562 1,24.0375 C1,23.7023438 1.19140625,23.5585938 1.5265625,23.5585938 C1.5265625,23.5585938 1.5265625,23.5585938 1.5265625,23.5585938 C1.5265625,23.5585938 23.078125,23.5585938 23.078125,23.5585938 Z"/>
  <title>Align Item Down</title>
</svg>