<svg xmlns="http://www.w3.org/2000/svg" viewBox="0 0 25 25" id="align-item-up">
  <path d="M19.1507813,3.921875 C19.1507813,3.921875 19.1507813,3.921875 19.1507813,3.921875 C19.1507813,3.921875 15.2234375,3.921875 15.2234375,3.921875 C14.7921875,3.921875 14.4570312,4.065625 14.2179688,4.353125 C13.9304688,4.640625 13.7867188,4.97578125 13.7867188,5.40703125 C13.7867188,5.40703125 13.7867188,5.40703125 13.7867188,5.40703125 C13.7867188,5.40703125 13.7867188,17.1882812 13.7867188,17.1882812 C13.7867188,17.6195312 13.9304688,17.9546875 14.2179688,18.2421875 C14.4570313,18.5296875 14.7929688,18.6734375 15.2234375,18.6734375 C15.2234375,18.6734375 15.2234375,18.6734375 15.2234375,18.6734375 C15.2234375,18.6734375 19.1507813,18.6734375 19.1507813,18.6734375 C19.5820313,18.6734375 19.9171875,18.5296875 20.2046875,18.2421875 C20.4921875,17.9546875 20.6359375,17.6195312 20.6359375,17.1882812 C20.6359375,17.1882812 20.6359375,17.1882812 20.6359375,17.1882812 C20.6359375,17.1882812 20.6359375,5.40703125 20.6359375,5.40703125 C20.6359375,4.97578125 20.4921875,4.640625 20.2046875,4.353125 C19.9171875,4.065625 19.5820313,3.921875 19.1507813,3.921875 Z M19.6773437,5.40625 C19.6773437,5.40625 19.6773437,17.1875 19.6773437,17.1875 C19.6773437,17.5226563 19.4859375,17.6664062 19.1507813,17.6664062 C19.1507813,17.6664062 19.1507813,17.6664062 19.1507813,17.6664062 C19.1507813,17.6664062 15.2234375,17.6664062 15.2234375,17.6664062 C14.8882813,17.6664062 14.7445313,17.5226563 14.7445313,17.1875 C14.7445313,17.1875 14.7445313,17.1875 14.7445313,17.1875 C14.7445313,17.1875 14.7445313,5.40625 14.7445313,5.40625 C14.7445313,5.07109375 14.8882813,4.92734375 15.2234375,4.92734375 C15.2234375,4.92734375 15.2234375,4.92734375 15.2234375,4.92734375 C15.2234375,4.92734375 19.1507813,4.92734375 19.1507813,4.92734375 C19.4859375,4.92734375 19.6773437,5.07109375 19.6773437,5.40625 C19.6773437,5.40625 19.6773437,5.40625 19.6773437,5.40625 Z M9.38046875,3.921875 C9.38046875,3.921875 9.38046875,3.921875 9.38046875,3.921875 C9.38046875,3.921875 5.453125,3.921875 5.453125,3.921875 C5.021875,3.921875 4.68671875,4.065625 4.39921875,4.353125 C4.11171875,4.640625 3.96796875,4.97578125 3.96796875,5.40703125 C3.96796875,5.40703125 3.96796875,5.40703125 3.96796875,5.40703125 C3.96796875,5.40703125 3.96796875,23.0796875 3.96796875,23.0796875 C3.96796875,23.5109375 4.11171875,23.8460938 4.39921875,24.0851563 C4.68671875,24.3726562 5.021875,24.5164062 5.453125,24.5164062 C5.453125,24.5164062 5.453125,24.5164062 5.453125,24.5164062 C5.453125,24.5164062 9.38046875,24.5164062 9.38046875,24.5164062 C9.81171875,24.5164062 10.146875,24.3726562 10.434375,24.0851563 C10.6734375,23.8460937 10.8171875,23.5101563 10.8171875,23.0796875 C10.8171875,23.0796875 10.8171875,23.0796875 10.8171875,23.0796875 C10.8171875,23.0796875 10.8171875,5.40703125 10.8171875,5.40703125 C10.8171875,4.97578125 10.6734375,4.640625 10.434375,4.353125 C10.146875,4.065625 9.81171875,3.921875 9.38046875,3.921875 Z M9.859375,5.40625 C9.859375,5.40625 9.859375,23.0789063 9.859375,23.0789063 C9.859375,23.4140625 9.715625,23.5578125 9.38046875,23.5578125 C9.38046875,23.5578125 9.38046875,23.5578125 9.38046875,23.5578125 C9.38046875,23.5578125 5.453125,23.5578125 5.453125,23.5578125 C5.11796875,23.5578125 4.9265625,23.4140625 4.9265625,23.0789063 C4.9265625,23.0789063 4.9265625,23.0789063 4.9265625,23.0789063 C4.9265625,23.0789063 4.9265625,5.40625 4.9265625,5.40625 C4.9265625,5.07109375 5.11796875,4.92734375 5.453125,4.92734375 C5.453125,4.92734375 5.453125,4.92734375 5.453125,4.92734375 C5.453125,4.92734375 9.38046875,4.92734375 9.38046875,4.92734375 C9.715625,4.92734375 9.859375,5.07109375 9.859375,5.40625 C9.859375,5.40625 9.859375,5.40625 9.859375,5.40625 Z M23.078125,1 C23.4132813,1 23.6046875,1.14375 23.6046875,1.47890625 C23.6046875,1.8140625 23.4132813,1.9578125 23.078125,1.9578125 C23.078125,1.9578125 23.078125,1.9578125 23.078125,1.9578125 C23.078125,1.9578125 1.5265625,1.9578125 1.5265625,1.9578125 C1.19140625,1.9578125 1,1.8140625 1,1.47890625 C1,1.14375 1.19140625,1 1.5265625,1 C1.5265625,1 1.5265625,1 1.5265625,1 C1.5265625,1 23.078125,1 23.078125,1 Z"/>
  <title>Align Item Up</title>
</svg>