<svg xmlns="http://www.w3.org/2000/svg" viewBox="0 0 25 25" id="align-left">
  <path d="M2.5265625,2.9578125 C2.19140625,2.9578125 2,2.8140625 2,2.47890625 C2,2.14375 2.19140625,2 2.5265625,2 C2.5265625,2 2.5265625,2 2.5265625,2 C2.5265625,2 13.3023438,2 13.3023438,2 C13.6375,2 13.78125,2.14375 13.78125,2.47890625 C13.78125,2.8140625 13.6375,2.9578125 13.3023438,2.9578125 C13.3023438,2.9578125 13.3023438,2.9578125 13.3023438,2.9578125 C13.3023438,2.9578125 2.5265625,2.9578125 2.5265625,2.9578125 Z M2.5265625,7.890625 C2.5265625,7.890625 2.5265625,7.890625 2.5265625,7.890625 C2.5265625,7.890625 23.1203125,7.890625 23.1203125,7.890625 C23.4554688,7.890625 23.5992187,7.746875 23.5992187,7.41171875 C23.5992187,7.41171875 23.5992187,7.41171875 23.5992187,7.41171875 C23.5992187,7.0765625 23.4554688,6.88515625 23.1203125,6.88515625 C23.1203125,6.88515625 23.1203125,6.88515625 23.1203125,6.88515625 C23.1203125,6.88515625 2.5265625,6.88515625 2.5265625,6.88515625 C2.19140625,6.88515625 2,7.0765625 2,7.41171875 C2,7.41171875 2,7.41171875 2,7.41171875 C2,7.746875 2.19140625,7.890625 2.5265625,7.890625 Z M2.5265625,12.7757812 C2.5265625,12.7757812 2.5265625,12.7757812 2.5265625,12.7757812 C2.5265625,12.7757812 13.3023438,12.7757812 13.3023438,12.7757812 C13.6375,12.7757812 13.78125,12.6320312 13.78125,12.296875 C13.78125,11.9617188 13.6375,11.8179688 13.3023438,11.8179688 C13.3023438,11.8179688 13.3023438,11.8179688 13.3023438,11.8179688 C13.3023438,11.8179688 2.5265625,11.8179688 2.5265625,11.8179688 C2.19140625,11.8179688 2,11.9617187 2,12.296875 C2,12.6320313 2.19140625,12.7757812 2.5265625,12.7757812 Z M23.1210938,16.7023438 C23.1210938,16.7023438 23.1210938,16.7023438 23.1210938,16.7023438 C23.1210938,16.7023438 2.52734375,16.7023438 2.52734375,16.7023438 C2.1921875,16.7023438 2.00078125,16.8460938 2.00078125,17.18125 C2.00078125,17.18125 2.00078125,17.18125 2.00078125,17.18125 C2.00078125,17.5164062 2.1921875,17.7078125 2.52734375,17.7078125 C2.52734375,17.7078125 2.52734375,17.7078125 2.52734375,17.7078125 C2.52734375,17.7078125 23.1210938,17.7078125 23.1210938,17.7078125 C23.45625,17.7078125 23.6,17.5164062 23.6,17.18125 C23.6,17.18125 23.6,17.18125 23.6,17.18125 C23.6,16.8460938 23.45625,16.7023438 23.1210938,16.7023438 Z M13.303125,21.6359375 C13.303125,21.6359375 13.303125,21.6359375 13.303125,21.6359375 C13.303125,21.6359375 2.52734375,21.6359375 2.52734375,21.6359375 C2.1921875,21.6359375 2.00078125,21.7796875 2.00078125,22.1148437 C2.00078125,22.45 2.1921875,22.59375 2.52734375,22.59375 C2.52734375,22.59375 2.52734375,22.59375 2.52734375,22.59375 C2.52734375,22.59375 13.303125,22.59375 13.303125,22.59375 C13.6382813,22.59375 13.7820313,22.45 13.7820313,22.1148437 C13.7820313,21.7796875 13.6382813,21.6359375 13.303125,21.6359375 Z"/>
  <title>Align Left</title>
</svg>