<svg xmlns="http://www.w3.org/2000/svg" viewBox="0 0 25 25" id="align-item-center-solid">
  <path d="M24.04375,11.8125 C24.3789063,11.8125 24.5226563,11.95625 24.5226563,12.2914063 C24.5226563,12.6265625 24.3789063,12.7703125 24.04375,12.7703125 C24.04375,12.7703125 24.04375,12.7703125 24.04375,12.7703125 C24.04375,12.7703125 20.5953125,12.7703125 20.5953125,12.7703125 C20.5953125,12.7703125 20.5953125,17.2242188 20.5953125,17.2242188 C20.5953125,17.6554688 20.4515625,17.990625 20.1640625,18.2296875 C19.8765625,18.5171875 19.5414063,18.6609375 19.1101563,18.6609375 C19.1101563,18.6609375 19.1101563,18.6609375 19.1101563,18.6609375 C19.1101563,18.6609375 15.1828125,18.6609375 15.1828125,18.6609375 C14.7515625,18.6609375 14.4164062,18.5171875 14.1773438,18.2296875 C13.8898438,17.990625 13.7460938,17.6546875 13.7460938,17.2242188 C13.7460938,17.2242188 13.7460938,17.2242188 13.7460938,17.2242188 C13.7460938,17.2242188 13.7460938,12.7703125 13.7460938,12.7703125 C13.7460938,12.7703125 10.7765625,12.7703125 10.7765625,12.7703125 C10.7765625,12.7703125 10.7765625,20.1460938 10.7765625,20.1460938 C10.7765625,20.5773438 10.6328125,20.9125 10.39375,21.2 C10.10625,21.4875 9.77109375,21.63125 9.33984375,21.63125 C9.33984375,21.63125 9.33984375,21.63125 9.33984375,21.63125 C9.33984375,21.63125 5.4125,21.63125 5.4125,21.63125 C4.98125,21.63125 4.64609375,21.4875 4.35859375,21.2 C4.07109375,20.9125 3.92734375,20.5773438 3.92734375,20.1460938 C3.92734375,20.1460938 3.92734375,20.1460938 3.92734375,20.1460938 C3.92734375,20.1460938 3.92734375,12.7703125 3.92734375,12.7703125 C3.92734375,12.7703125 0.47890625,12.7703125 0.47890625,12.7703125 C0.14375,12.7703125 0,12.6265625 0,12.2914062 C0,11.95625 0.14375,11.8125 0.47890625,11.8125 C0.47890625,11.8125 0.47890625,11.8125 0.47890625,11.8125 C0.47890625,11.8125 3.92734375,11.8125 3.92734375,11.8125 C3.92734375,11.8125 3.92734375,4.43671875 3.92734375,4.43671875 C3.92734375,4.00546875 4.07109375,3.6703125 4.35859375,3.3828125 C4.64609375,3.14375 4.98125,3 5.4125,3 C5.4125,3 5.4125,3 5.4125,3 C5.4125,3 9.33984375,3 9.33984375,3 C9.77109375,3 10.10625,3.14375 10.39375,3.3828125 C10.6328125,3.6703125 10.7765625,4.00546875 10.7765625,4.43671875 C10.7765625,4.43671875 10.7765625,4.43671875 10.7765625,4.43671875 C10.7765625,4.43671875 10.7765625,11.8125 10.7765625,11.8125 C10.7765625,11.8125 13.7460938,11.8125 13.7460938,11.8125 C13.7460938,11.8125 13.7460938,7.40625 13.7460938,7.40625 C13.7460938,6.975 13.8898438,6.63984375 14.1773438,6.35234375 C14.4164063,6.06484375 14.7523438,5.92109375 15.1828125,5.92109375 C15.1828125,5.92109375 15.1828125,5.92109375 15.1828125,5.92109375 C15.1828125,5.92109375 19.1101563,5.92109375 19.1101563,5.92109375 C19.5414063,5.92109375 19.8765625,6.06484375 20.1640625,6.35234375 C20.4515625,6.63984375 20.5953125,6.975 20.5953125,7.40625 C20.5953125,7.40625 20.5953125,7.40625 20.5953125,7.40625 C20.5953125,7.40625 20.5953125,11.8125 20.5953125,11.8125 C20.5953125,11.8125 24.04375,11.8125 24.04375,11.8125 Z"/>
  <title>Align Item Center Solid</title>
</svg>