<svg xmlns="http://www.w3.org/2000/svg" viewBox="0 0 25 25" id="align-item-left-solid">
  <path d="M19.1515625,10.8179688 C19.1515625,10.8179688 19.1515625,10.8179688 19.1515625,10.8179688 C19.1515625,10.8179688 5.40625,10.8179688 5.40625,10.8179688 C4.975,10.8179688 4.63984375,10.6742188 4.40078125,10.3867188 C4.11328125,10.0992188 3.96953125,9.7640625 3.96953125,9.3328125 C3.96953125,9.3328125 3.96953125,9.3328125 3.96953125,9.3328125 C3.96953125,9.3328125 3.96953125,5.40546875 3.96953125,5.40546875 C3.96953125,4.97421875 4.11328125,4.6390625 4.40078125,4.3515625 C4.63984375,4.1125 4.97578125,3.96875 5.40625,3.96875 C5.40625,3.96875 5.40625,3.96875 5.40625,3.96875 C5.40625,3.96875 19.1515625,3.96875 19.1515625,3.96875 C19.5828125,3.96875 19.9179688,4.1125 20.2054688,4.3515625 C20.4929687,4.6390625 20.6367188,4.97421875 20.6367188,5.40546875 C20.6367188,5.40546875 20.6367188,5.40546875 20.6367188,5.40546875 C20.6367188,5.40546875 20.6367188,9.3328125 20.6367188,9.3328125 C20.6367188,9.7640625 20.4929687,10.0992188 20.2054688,10.3867188 C19.9179688,10.6742188 19.5828125,10.8179688 19.1515625,10.8179688 Z M24.5632812,19.1515625 C24.5632812,19.1515625 24.5632812,19.1515625 24.5632812,19.1515625 C24.5632812,19.1515625 24.5632812,15.2242188 24.5632812,15.2242188 C24.5632812,14.7929688 24.4195312,14.4578125 24.1320313,14.1703125 C23.8445312,13.8828125 23.509375,13.7390625 23.078125,13.7390625 C23.078125,13.7390625 23.078125,13.7390625 23.078125,13.7390625 C23.078125,13.7390625 5.40546875,13.7390625 5.40546875,13.7390625 C4.97421875,13.7390625 4.6390625,13.8828125 4.4,14.1703125 C4.1125,14.4578125 3.96875,14.7929688 3.96875,15.2242188 C3.96875,15.2242188 3.96875,15.2242188 3.96875,15.2242188 C3.96875,15.2242188 3.96875,19.1515625 3.96875,19.1515625 C3.96875,19.5828125 4.1125,19.9179688 4.4,20.2054688 C4.6390625,20.4929688 4.975,20.6367188 5.40546875,20.6367188 C5.40546875,20.6367188 5.40546875,20.6367188 5.40546875,20.6367188 C5.40546875,20.6367188 23.078125,20.6367188 23.078125,20.6367188 C23.509375,20.6367188 23.8445312,20.4929688 24.1320313,20.2054688 C24.4195312,19.9179688 24.5632812,19.5828125 24.5632812,19.1515625 Z M1.47890625,1 C1.47890625,1 1.47890625,1 1.47890625,1 C1.14375,1 1,1.14375 1,1.47890625 C1,1.47890625 1,1.47890625 1,1.47890625 C1,1.47890625 1,23.0789062 1,23.0789062 C1,23.4140625 1.14375,23.5578125 1.47890625,23.5578125 C1.47890625,23.5578125 1.47890625,23.5578125 1.47890625,23.5578125 C1.8140625,23.5578125 2.00546875,23.4140625 2.00546875,23.0789062 C2.00546875,23.0789062 2.00546875,23.0789062 2.00546875,23.0789062 C2.00546875,23.0789062 2.00546875,1.47890625 2.00546875,1.47890625 C2.00546875,1.14375 1.8140625,1 1.47890625,1 Z"/>
  <title>Align Item Left Solid</title>
</svg>