<svg xmlns="http://www.w3.org/2000/svg" viewBox="0 0 25 25" id="align-item-right-solid">
  <path d="M4.928125,9.38125 C4.928125,9.38125 4.928125,9.38125 4.928125,9.38125 C4.928125,9.38125 4.928125,5.45390625 4.928125,5.45390625 C4.928125,5.02265625 5.071875,4.6875 5.359375,4.4 C5.646875,4.1125 5.98203125,3.96875 6.41328125,3.96875 C6.41328125,3.96875 6.41328125,3.96875 6.41328125,3.96875 C6.41328125,3.96875 20.1109375,3.96875 20.1109375,3.96875 C20.5421875,3.96875 20.8773438,4.1125 21.1648438,4.4 C21.4523437,4.6875 21.5960938,5.02265625 21.5960938,5.45390625 C21.5960938,5.45390625 21.5960938,5.45390625 21.5960938,5.45390625 C21.5960938,5.45390625 21.5960938,9.38125 21.5960938,9.38125 C21.5960938,9.7640625 21.4523437,10.1 21.1648438,10.3867188 C20.8773438,10.6734375 20.5421875,10.8179687 20.1109375,10.8179687 C20.1109375,10.8179687 20.1109375,10.8179687 20.1109375,10.8179687 C20.1109375,10.8179687 6.41328125,10.8179687 6.41328125,10.8179687 C5.98203125,10.8179687 5.646875,10.6742187 5.359375,10.3867188 C5.071875,10.0992187 4.928125,9.7640625 4.928125,9.38125 Z M2.48515625,20.6359375 C2.48515625,20.6359375 2.48515625,20.6359375 2.48515625,20.6359375 C2.48515625,20.6359375 20.109375,20.6359375 20.109375,20.6359375 C20.540625,20.6359375 20.8757812,20.4921875 21.1632813,20.2046875 C21.4507812,19.9171875 21.5945312,19.5820313 21.5945312,19.1507813 C21.5945312,19.1507813 21.5945312,19.1507813 21.5945312,19.1507813 C21.5945312,19.1507813 21.5945312,15.2234375 21.5945312,15.2234375 C21.5945312,14.7921875 21.4507812,14.4570312 21.1632813,14.1695313 C20.8757812,13.9304688 20.540625,13.7867188 20.109375,13.7867188 C20.109375,13.7867188 20.109375,13.7867188 20.109375,13.7867188 C20.109375,13.7867188 2.48515625,13.7867188 2.48515625,13.7867188 C2.05390625,13.7867188 1.71875,13.9304688 1.43125,14.1695313 C1.14375,14.4570312 1,14.7921875 1,15.2234375 C1,15.2234375 1,15.2234375 1,15.2234375 C1,15.2234375 1,19.1507813 1,19.1507813 C1,19.5820313 1.14375,19.9171875 1.43125,20.2046875 C1.71875,20.4921875 2.05390625,20.6359375 2.48515625,20.6359375 Z M24.0375,1 C24.0375,1 24.0375,1 24.0375,1 C23.7023438,1 23.5585938,1.19140625 23.5585938,1.5265625 C23.5585938,1.5265625 23.5585938,1.5265625 23.5585938,1.5265625 C23.5585938,1.5265625 23.5585938,23.078125 23.5585938,23.078125 C23.5585938,23.4132813 23.7023438,23.5570313 24.0375,23.5570313 C24.0375,23.5570313 24.0375,23.5570313 24.0375,23.5570313 C24.3726562,23.5570313 24.5640625,23.4132813 24.5640625,23.078125 C24.5640625,23.078125 24.5640625,23.078125 24.5640625,23.078125 C24.5640625,23.078125 24.5640625,1.5265625 24.5640625,1.5265625 C24.5640625,1.19140625 24.3726562,1 24.0375,1 Z"/>
  <title>Align Item Right Solid</title>
</svg>