<svg xmlns="http://www.w3.org/2000/svg" viewBox="0 0 25 25" id="align-item-up-solid">
  <path d="M13.7867188,17.1875 C13.7867188,17.1875 13.7867188,17.1875 13.7867188,17.1875 C13.7867188,17.1875 13.7867188,5.40625 13.7867188,5.40625 C13.7867188,4.975 13.9304688,4.63984375 14.2179688,4.35234375 C14.4570313,4.06484375 14.7929688,3.92109375 15.2234375,3.92109375 C15.2234375,3.92109375 15.2234375,3.92109375 15.2234375,3.92109375 C15.2234375,3.92109375 19.1507813,3.92109375 19.1507813,3.92109375 C19.5820313,3.92109375 19.9171875,4.06484375 20.2046875,4.35234375 C20.4921875,4.63984375 20.6359375,4.975 20.6359375,5.40625 C20.6359375,5.40625 20.6359375,5.40625 20.6359375,5.40625 C20.6359375,5.40625 20.6359375,17.1875 20.6359375,17.1875 C20.6359375,17.61875 20.4921875,17.9539063 20.2046875,18.2414063 C19.9171875,18.5289062 19.5820313,18.6726562 19.1507813,18.6726562 C19.1507813,18.6726562 19.1507813,18.6726562 19.1507813,18.6726562 C19.1507813,18.6726562 15.2234375,18.6726562 15.2234375,18.6726562 C14.7921875,18.6726562 14.4570312,18.5289062 14.2179688,18.2414063 C13.9304688,17.9539063 13.7867188,17.61875 13.7867188,17.1875 Z M5.453125,24.515625 C5.453125,24.515625 5.453125,24.515625 5.453125,24.515625 C5.453125,24.515625 9.38046875,24.515625 9.38046875,24.515625 C9.81171875,24.515625 10.146875,24.371875 10.434375,24.084375 C10.6734375,23.8453125 10.8171875,23.509375 10.8171875,23.0789063 C10.8171875,23.0789063 10.8171875,23.0789063 10.8171875,23.0789063 C10.8171875,23.0789063 10.8171875,5.40625 10.8171875,5.40625 C10.8171875,4.975 10.6734375,4.63984375 10.434375,4.35234375 C10.146875,4.06484375 9.81171875,3.92109375 9.38046875,3.92109375 C9.38046875,3.92109375 9.38046875,3.92109375 9.38046875,3.92109375 C9.38046875,3.92109375 5.453125,3.92109375 5.453125,3.92109375 C5.021875,3.92109375 4.68671875,4.06484375 4.39921875,4.35234375 C4.11171875,4.63984375 3.96796875,4.975 3.96796875,5.40625 C3.96796875,5.40625 3.96796875,5.40625 3.96796875,5.40625 C3.96796875,5.40625 3.96796875,23.0789063 3.96796875,23.0789063 C3.96796875,23.5101563 4.11171875,23.8453125 4.39921875,24.084375 C4.68671875,24.371875 5.021875,24.515625 5.453125,24.515625 L5.453125,24.515625 Z M23.078125,1 C23.078125,1 23.078125,1 23.078125,1 C23.078125,1 1.5265625,1 1.5265625,1 C1.19140625,1 1,1.14375 1,1.47890625 C1,1.8140625 1.19140625,1.9578125 1.5265625,1.9578125 C1.5265625,1.9578125 1.5265625,1.9578125 1.5265625,1.9578125 C1.5265625,1.9578125 23.078125,1.9578125 23.078125,1.9578125 C23.4132813,1.9578125 23.6046875,1.8140625 23.6046875,1.47890625 C23.6046875,1.14375 23.4132813,1 23.078125,1 Z"/>
  <title>Align Item Up Solid</title>
</svg>