<svg xmlns="http://www.w3.org/2000/svg" viewBox="0 0 25 25" id="amazon">
  <path d="M14.0451319,6.8375 C14.0451319,6.8375 14.0451319,7.17265625 14.0451319,7.17265625 C13.1834132,7.2203125 12.6084132,7.31640625 12.2732569,7.3640625 C12.2732569,7.3640625 12.2732569,7.3640625 12.2732569,7.3640625 C11.1716944,7.5078125 10.3099757,7.69921875 9.63888194,8.034375 C9.63888194,8.034375 9.63888194,8.034375 9.63888194,8.034375 C7.91466319,8.65703125 7.05294444,9.95 7.05294444,11.865625 C7.05294444,11.865625 7.05294444,11.865625 7.05294444,11.865625 C7.05294444,13.0632813 7.38810069,13.9726562 8.05841319,14.5953125 C8.72872569,15.2179688 9.59122569,15.553125 10.5966944,15.553125 C10.5966944,15.553125 10.5966944,15.553125 10.5966944,15.553125 C11.1716944,15.553125 11.7459132,15.4570312 12.2732569,15.3140625 C12.2732569,15.3140625 12.2732569,15.3140625 12.2732569,15.3140625 C12.9920069,15.075 13.7576319,14.5953125 14.5240382,13.8296875 C14.5240382,13.8296875 14.5240382,13.8296875 14.5240382,13.8296875 C15.0029444,14.5 15.4341944,15.0273438 15.8646632,15.3625 C15.8646632,15.3625 15.8646632,15.3625 15.8646632,15.3625 C16.0560694,15.4585938 16.2474757,15.4585938 16.4396632,15.3148437 C16.4396632,15.3148437 16.4396632,15.3148437 16.4396632,15.3148437 C16.5834132,15.1710937 16.9185694,14.9320313 17.3498194,14.5484375 C17.7810694,14.1648437 18.1162257,13.9257812 18.2599757,13.7820312 C18.2599757,13.7820312 18.2599757,13.7820312 18.2599757,13.7820312 C18.4513819,13.590625 18.4513819,13.3992187 18.2599757,13.159375 C18.2599757,13.159375 18.2599757,13.159375 18.2599757,13.159375 C17.6849757,12.3929687 17.3982569,11.675 17.3982569,10.95625 C17.3982569,10.95625 17.3982569,10.95625 17.3982569,10.95625 C17.3982569,10.95625 17.3982569,7.26875 17.3982569,7.26875 C17.3982569,7.22109375 17.3982569,7.07734375 17.3982569,6.78984375 C17.3982569,6.55078125 17.3982569,6.35859375 17.3982569,6.3109375 C17.3982569,6.26328125 17.3982569,6.11953125 17.3982569,5.8796875 C17.3982569,5.640625 17.3982569,5.496875 17.3982569,5.4484375 C17.3506007,5.40078125 17.3506007,5.25703125 17.3021632,5.0171875 C17.2545069,4.82578125 17.2545069,4.68203125 17.2060694,4.5859375 C17.1584132,4.53828125 17.1584132,4.39453125 17.1099757,4.25078125 C17.0615382,4.10703125 16.9662257,3.96328125 16.9185694,3.86796875 C16.8224757,3.771875 16.7271632,3.6765625 16.6795069,3.5328125 C16.5834132,3.3890625 16.4881007,3.29375 16.3443507,3.19765625 C16.3443507,3.19765625 16.3443507,3.19765625 16.3443507,3.19765625 C15.4341944,2.38359375 14.2849757,2 12.8006007,2 C12.8006007,2 12.8006007,2 12.8006007,2 C12.8006007,2 12.2740382,2 12.2740382,2 C9.49591319,2.19140625 7.91544444,3.3890625 7.48497569,5.63984375 C7.48497569,5.63984375 7.48497569,5.63984375 7.48497569,5.63984375 C7.43731944,5.87890625 7.53263194,6.07109375 7.82013194,6.11875 C7.82013194,6.11875 7.82013194,6.11875 7.82013194,6.11875 C7.82013194,6.11875 10.1193507,6.40625 10.1193507,6.40625 C10.3584132,6.35859375 10.5021632,6.21484375 10.5021632,5.975 C10.5021632,5.975 10.5021632,5.975 10.5021632,5.975 C10.7412257,5.11328125 11.3162257,4.634375 12.2740382,4.490625 C12.2740382,4.490625 12.2740382,4.490625 12.2740382,4.490625 C12.2740382,4.490625 12.4654444,4.490625 12.4654444,4.490625 C12.9920069,4.490625 13.4232569,4.68203125 13.7584132,5.11328125 C13.7584132,5.11328125 13.7584132,5.11328125 13.7584132,5.11328125 C13.9498194,5.40078125 14.0459132,5.975 14.0459132,6.8375 C14.0459132,6.8375 14.0459132,6.8375 14.0459132,6.8375 L14.0451319,6.8375 Z M14.0451319,9.08828125 C14.0451319,9.08828125 14.0451319,9.5671875 14.0451319,9.5671875 C14.0451319,10.7648438 13.9013819,11.5789063 13.6138819,12.1054688 C13.6138819,12.1054688 13.6138819,12.1054688 13.6138819,12.1054688 C13.3748194,12.6320313 12.8951319,13.015625 12.2732569,13.159375 C12.2732569,13.159375 12.2732569,13.159375 12.2732569,13.159375 C12.2732569,13.159375 12.1295069,13.2070312 12.1295069,13.2070312 C12.0818507,13.2070312 11.9857569,13.2070312 11.9381007,13.2070312 C11.9381007,13.2070312 11.9381007,13.2070312 11.9381007,13.2070312 C11.5068507,13.2070312 11.1716944,13.0632812 10.9326319,12.728125 C10.6451319,12.3929688 10.5013819,12.009375 10.5013819,11.4828125 C10.5013819,11.4828125 10.5013819,11.4828125 10.5013819,11.4828125 C10.5013819,10.3335938 11.0763819,9.5671875 12.2732569,9.23203125 C12.2732569,9.23203125 12.2732569,9.23203125 12.2732569,9.23203125 C12.7998194,9.1359375 13.4224757,9.08828125 14.0451319,9.08828125 C14.0451319,9.08828125 14.0451319,9.08828125 14.0451319,9.08828125 Z M21.6123194,21.109375 C21.6123194,21.109375 21.6123194,21.109375 21.6123194,21.109375 C22.0435694,20.7265625 22.4263819,20.1992188 22.6662257,19.5765625 C22.9060694,18.9539063 23.0490382,18.4273438 23.0490382,17.9484375 C23.0490382,17.9484375 23.0490382,17.9484375 23.0490382,17.9484375 C23.0490382,17.9484375 23.0490382,17.8046875 23.0490382,17.8046875 C23.0490382,17.7570313 23.0490382,17.6609375 23.0490382,17.565625 C23.0490382,17.565625 23.0490382,17.565625 23.0490382,17.565625 C23.0490382,17.565625 23.0013819,17.421875 23.0013819,17.421875 C22.8576319,17.278125 22.5224757,17.1828125 21.9474757,17.134375 C21.3248194,17.0867188 20.7021632,17.1820313 20.0318507,17.3257813 C20.0318507,17.3257813 20.0318507,17.3257813 20.0318507,17.3257813 C19.7443507,17.3734375 19.4091944,17.5648438 19.0740382,17.8046875 C19.0740382,17.8046875 19.0740382,17.8046875 19.0740382,17.8046875 C18.8826319,17.9484375 18.8826319,18.0921875 19.1216944,18.1398438 C19.1216944,18.1398438 19.1216944,18.1398438 19.1216944,18.1398438 C19.2654444,18.0921875 19.6006007,18.04375 20.0318507,17.9960938 C20.0318507,17.9960938 20.0318507,17.9960938 20.0318507,17.9960938 C21.1334132,17.9484375 21.7560694,17.9960938 21.9474757,18.2351563 C21.9474757,18.2351563 21.9474757,18.2351563 21.9474757,18.2351563 C22.1865382,18.4742188 21.9474757,19.384375 21.3248194,20.9648438 C21.3248194,20.9648438 21.3248194,20.9648438 21.3248194,20.9648438 C21.2771632,21.1085938 21.2771632,21.15625 21.3724757,21.2039063 C21.4201319,21.2515625 21.5162257,21.2039063 21.6115382,21.1078125 L21.6123194,21.109375 Z M1.11466319,17.9484375 C1.11466319,17.9484375 1.11466319,17.9484375 1.11466319,17.9484375 C4.22794444,20.7265625 7.86778819,22.1148437 12.0341944,22.1148437 C12.0341944,22.1148437 12.0341944,22.1148437 12.0341944,22.1148437 C15.0037257,22.1148437 17.6857569,21.3960937 20.0326319,19.959375 C20.0326319,19.959375 20.0326319,19.959375 20.0326319,19.959375 C20.2716944,19.815625 20.5591944,19.6242188 20.9427882,19.384375 C20.9427882,19.384375 20.9427882,19.384375 20.9427882,19.384375 C21.1341655,19.240625 21.1818507,19.0492188 21.0865382,18.9054688 C20.9427882,18.7617188 20.7990382,18.7140625 20.6076319,18.809375 C20.6076319,18.809375 20.6076319,18.809375 20.6076319,18.809375 C20.5599757,18.8570312 20.4638819,18.8570312 20.3201319,18.9054688 C20.1763819,18.9539063 20.0810694,18.953125 20.0326319,19.0015625 C20.0326319,19.0015625 20.0326319,19.0015625 20.0326319,19.0015625 C17.5904444,20.0070313 15.0037257,20.4859375 12.2740382,20.4859375 C12.2740382,20.4859375 12.2740382,20.4859375 12.2740382,20.4859375 C8.34669444,20.4859375 4.70685069,19.528125 1.35450694,17.6125 C1.35450694,17.6125 1.35450694,17.6125 1.35450694,17.6125 C1.21075694,17.5164062 1.11544444,17.5164062 1.06700694,17.6125 C0.970913194,17.7085937 0.970913194,17.8039063 1.11466319,17.9476562 L1.11466319,17.9484375 Z"/>
  <title>Amazon</title>
</svg>