<svg xmlns="http://www.w3.org/2000/svg" viewBox="0 0 25 25" id="ambulance-solid">
  <path d="M14.703125,8.3703125 C14.703125,8.3703125 14.703125,8.3703125 14.703125,8.3703125 C14.703125,8.3703125 14.703125,3.9640625 14.703125,3.9640625 C14.703125,3.9640625 18.4867188,3.9640625 18.4867188,3.9640625 C19.2054688,3.9640625 19.684375,4.29921875 19.9234375,5.01796875 C19.9234375,5.01796875 19.9234375,5.01796875 19.9234375,5.01796875 C19.9234375,5.01796875 21.3125,9.85546875 21.3125,9.85546875 C21.3125,9.85546875 16.1882812,9.85546875 16.1882812,9.85546875 C15.7570313,9.85546875 15.421875,9.71171875 15.134375,9.42421875 C14.846875,9.13671875 14.703125,8.8015625 14.703125,8.3703125 L14.703125,8.3703125 Z M24.5210937,12.871875 C24.5210937,12.871875 24.5210937,12.871875 24.5210937,12.871875 C24.5210937,12.871875 24.5210937,17.1820313 24.5210937,17.1820313 C24.5210937,17.6132812 24.3773438,17.9484375 24.0898438,18.2359375 C23.8023437,18.5234375 23.4671875,18.6671875 23.0359375,18.6671875 C23.0359375,18.6671875 23.0359375,18.6671875 23.0359375,18.6671875 C23.0359375,18.6671875 20.59375,18.6671875 20.59375,18.6671875 C20.59375,19.48125 20.30625,20.2 19.7320312,20.7742187 C19.1578125,21.3484375 18.4867187,21.6359375 17.6726562,21.6359375 C16.8585937,21.6359375 16.1882812,21.3484375 15.6132812,20.7742187 C14.990625,20.1992188 14.703125,19.48125 14.703125,18.6671875 C14.703125,18.6671875 14.703125,18.6671875 14.703125,18.6671875 C14.703125,18.6671875 8.8125,18.6671875 8.8125,18.6671875 C8.8125,19.48125 8.525,20.2 7.95078125,20.7742187 C7.3765625,21.3484375 6.70546875,21.6359375 5.89140625,21.6359375 C5.07734375,21.6359375 4.40703125,21.3484375 3.83203125,20.7742187 C3.209375,20.1992188 2.921875,19.48125 2.921875,18.6671875 C2.921875,18.6671875 2.921875,18.6671875 2.921875,18.6671875 C2.921875,18.6671875 1.48515625,18.6671875 1.48515625,18.6671875 C1.05390625,18.6671875 0.71875,18.5234375 0.43125,18.2359375 C0.14375,17.9484375 0,17.6132812 0,17.1820313 C0,17.1820313 0,17.1820313 0,17.1820313 C0,17.1820313 0,5.4484375 0,5.4484375 C0,5.0171875 0.14375,4.68203125 0.43125,4.39453125 C0.71875,4.10703125 1.05390625,3.96328125 1.48515625,3.96328125 C1.48515625,3.96328125 1.48515625,3.96328125 1.48515625,3.96328125 C1.48515625,3.96328125 10.7765625,3.96328125 10.7765625,3.96328125 C10.7765625,3.96328125 10.7765625,2.47890625 10.7765625,2.47890625 C10.7765625,2.14375 10.9679687,2 11.303125,2 C11.303125,2 11.303125,2 11.303125,2 C11.303125,2 13.21875,2 13.21875,2 C13.5539062,2 13.7453125,2.14375 13.7453125,2.47890625 C13.7453125,2.47890625 13.7453125,2.47890625 13.7453125,2.47890625 C13.7453125,2.47890625 13.7453125,8.36953125 13.7453125,8.36953125 C13.7453125,9.03984375 13.984375,9.61484375 14.4640625,10.09375 C14.94375,10.5726562 15.5179687,10.8125 16.1882813,10.8125 C16.1882813,10.8125 16.1882813,10.8125 16.1882813,10.8125 C16.1882813,10.8125 21.6,10.8125 21.6,10.8125 C21.6,10.8125 23.515625,11.4828125 23.515625,11.4828125 C24.1859375,11.721875 24.5210937,12.153125 24.5210937,12.871875 Z M7.2796875,20.05625 C7.6625,19.6734375 7.8546875,19.1945312 7.8546875,18.6671875 C7.8546875,18.1398438 7.66328125,17.6617187 7.2796875,17.278125 C6.896875,16.8953125 6.41796875,16.703125 5.890625,16.703125 C5.36328125,16.703125 4.88515625,16.8945312 4.5015625,17.278125 C4.11875,17.6609375 3.9265625,18.1398438 3.9265625,18.6671875 C3.9265625,19.1945312 4.11796875,19.6726562 4.5015625,20.05625 C4.884375,20.4390625 5.36328125,20.63125 5.890625,20.63125 C6.41796875,20.63125 6.89609375,20.4398437 7.2796875,20.05625 Z M10.7757813,11.2914062 C10.7757813,11.2914062 10.7757813,9.37578125 10.7757813,9.37578125 C10.7757813,9.040625 10.6320313,8.84921875 10.296875,8.84921875 C10.296875,8.84921875 10.296875,8.84921875 10.296875,8.84921875 C10.296875,8.84921875 8.8125,8.84921875 8.8125,8.84921875 C8.8125,8.84921875 8.8125,7.4125 8.8125,7.4125 C8.8125,7.07734375 8.66875,6.8859375 8.33359375,6.8859375 C8.33359375,6.8859375 8.33359375,6.8859375 8.33359375,6.8859375 C8.33359375,6.8859375 6.3703125,6.8859375 6.3703125,6.8859375 C6.03515625,6.8859375 5.89140625,7.07734375 5.89140625,7.4125 C5.89140625,7.4125 5.89140625,7.4125 5.89140625,7.4125 C5.89140625,7.4125 5.89140625,8.84921875 5.89140625,8.84921875 C5.89140625,8.84921875 4.40703125,8.84921875 4.40703125,8.84921875 C4.071875,8.84921875 3.928125,9.040625 3.928125,9.37578125 C3.928125,9.37578125 3.928125,9.37578125 3.928125,9.37578125 C3.928125,9.37578125 3.928125,11.2914062 3.928125,11.2914062 C3.928125,11.6265625 4.071875,11.8179687 4.40703125,11.8179687 C4.40703125,11.8179687 4.40703125,11.8179687 4.40703125,11.8179687 C4.40703125,11.8179687 5.89140625,11.8179687 5.89140625,11.8179687 C5.89140625,11.8179687 5.89140625,13.2546875 5.89140625,13.2546875 C5.89140625,13.5898437 6.03515625,13.78125 6.3703125,13.78125 C6.3703125,13.78125 6.3703125,13.78125 6.3703125,13.78125 C6.3703125,13.78125 8.33359375,13.78125 8.33359375,13.78125 C8.66875,13.78125 8.8125,13.5898437 8.8125,13.2546875 C8.8125,13.2546875 8.8125,13.2546875 8.8125,13.2546875 C8.8125,13.2546875 8.8125,11.8179687 8.8125,11.8179687 C8.8125,11.8179687 10.296875,11.8179687 10.296875,11.8179687 C10.6320313,11.8179687 10.7757813,11.6265625 10.7757813,11.2914062 C10.7757813,11.2914062 10.7757813,11.2914062 10.7757813,11.2914062 Z M12.7398437,3.9640625 C12.7398437,3.9640625 12.7398437,2.95859375 12.7398437,2.95859375 C12.7398437,2.95859375 11.7820312,2.95859375 11.7820312,2.95859375 C11.7820312,2.95859375 11.7820312,3.9640625 11.7820312,3.9640625 C11.7820312,3.9640625 12.7398437,3.9640625 12.7398437,3.9640625 Z M19.0617187,20.05625 C19.4445312,19.6734375 19.6367188,19.1945312 19.6367188,18.6671875 C19.6367188,18.1398438 19.4453125,17.6617187 19.0617187,17.278125 C18.6789062,16.8953125 18.2,16.703125 17.6726562,16.703125 C17.1453125,16.703125 16.6671875,16.8945312 16.2835938,17.278125 C15.9007813,17.6609375 15.7085938,18.1398438 15.7085938,18.6671875 C15.7085938,19.1945312 15.9,19.6726562 16.2835938,20.05625 C16.6664062,20.4390625 17.1453125,20.63125 17.6726562,20.63125 C18.2,20.63125 18.678125,20.4398437 19.0617187,20.05625 Z"/>
  <title>Ambulance Solid</title>
</svg>