<svg xmlns="http://www.w3.org/2000/svg" viewBox="0 0 25 25" id="ambulance">
  <path d="M10.2960937,8.890625 C10.2960937,8.890625 10.2960937,8.890625 10.2960937,8.890625 C10.2960937,8.890625 8.81171875,8.890625 8.81171875,8.890625 C8.81171875,8.890625 8.81171875,7.45390625 8.81171875,7.45390625 C8.81171875,7.11875 8.66796875,6.92734375 8.3328125,6.92734375 C8.3328125,6.92734375 8.3328125,6.92734375 8.3328125,6.92734375 C8.3328125,6.92734375 6.36953125,6.92734375 6.36953125,6.92734375 C6.034375,6.92734375 5.890625,7.11875 5.890625,7.45390625 C5.890625,7.45390625 5.890625,7.45390625 5.890625,7.45390625 C5.890625,7.45390625 5.890625,8.890625 5.890625,8.890625 C5.890625,8.890625 4.40625,8.890625 4.40625,8.890625 C4.07109375,8.890625 3.92734375,9.08203125 3.92734375,9.4171875 C3.92734375,9.4171875 3.92734375,9.4171875 3.92734375,9.4171875 C3.92734375,9.4171875 3.92734375,11.3328125 3.92734375,11.3328125 C3.92734375,11.6679688 4.07109375,11.859375 4.40625,11.859375 C4.40625,11.859375 4.40625,11.859375 4.40625,11.859375 C4.40625,11.859375 5.890625,11.859375 5.890625,11.859375 C5.890625,11.859375 5.890625,13.2960938 5.890625,13.2960938 C5.890625,13.63125 6.034375,13.8226563 6.36953125,13.8226563 C6.36953125,13.8226563 6.36953125,13.8226563 6.36953125,13.8226563 C6.36953125,13.8226563 8.3328125,13.8226563 8.3328125,13.8226563 C8.66796875,13.8226563 8.81171875,13.63125 8.81171875,13.2960938 C8.81171875,13.2960938 8.81171875,13.2960938 8.81171875,13.2960938 C8.81171875,13.2960938 8.81171875,11.859375 8.81171875,11.859375 C8.81171875,11.859375 10.2960937,11.859375 10.2960937,11.859375 C10.63125,11.859375 10.775,11.6679688 10.775,11.3328125 C10.775,11.3328125 10.775,11.3328125 10.775,11.3328125 C10.775,11.3328125 10.775,9.4171875 10.775,9.4171875 C10.775,9.08203125 10.63125,8.890625 10.2960937,8.890625 Z M9.8171875,9.89609375 C9.8171875,9.89609375 9.8171875,10.8539062 9.8171875,10.8539062 C9.8171875,10.8539062 7.85390625,10.8539062 7.85390625,10.8539062 C7.85390625,10.8539062 7.85390625,12.8171875 7.85390625,12.8171875 C7.85390625,12.8171875 6.8484375,12.8171875 6.8484375,12.8171875 C6.8484375,12.8171875 6.8484375,10.8539062 6.8484375,10.8539062 C6.8484375,10.8539062 4.88515625,10.8539062 4.88515625,10.8539062 C4.88515625,10.8539062 4.88515625,9.89609375 4.88515625,9.89609375 C4.88515625,9.89609375 6.8484375,9.89609375 6.8484375,9.89609375 C6.8484375,9.89609375 6.8484375,7.9328125 6.8484375,7.9328125 C6.8484375,7.9328125 7.85390625,7.9328125 7.85390625,7.9328125 C7.85390625,7.9328125 7.85390625,9.89609375 7.85390625,9.89609375 C7.85390625,9.89609375 9.8171875,9.89609375 9.8171875,9.89609375 L9.8171875,9.89609375 Z M23.5148437,11.5242188 C23.5148437,11.5242188 23.5148437,11.5242188 23.5148437,11.5242188 C23.5148437,11.5242188 21.5992187,10.8539063 21.5992187,10.8539063 C21.5992187,10.8539063 19.9710937,5.96875 19.9710937,5.96875 C19.6835937,5.2984375 19.2046875,4.96328125 18.534375,4.96328125 C18.534375,4.96328125 18.534375,4.96328125 18.534375,4.96328125 C18.534375,4.96328125 13.7453125,4.96328125 13.7453125,4.96328125 C13.7453125,4.96328125 13.7453125,3.5265625 13.7453125,3.5265625 C13.7453125,3.19140625 13.5539062,3 13.21875,3 C13.21875,3 13.21875,3 13.21875,3 C13.21875,3 11.303125,3 11.303125,3 C10.9679687,3 10.7765625,3.19140625 10.7765625,3.5265625 C10.7765625,3.5265625 10.7765625,3.5265625 10.7765625,3.5265625 C10.7765625,3.5265625 10.7765625,4.96328125 10.7765625,4.96328125 C10.7765625,4.96328125 1.48515625,4.96328125 1.48515625,4.96328125 C1.05390625,4.96328125 0.71875,5.10703125 0.43125,5.39453125 C0.14375,5.68203125 0,6.0171875 0,6.4484375 C0,6.4484375 0,6.4484375 0,6.4484375 C0,6.4484375 0,17.2242188 0,17.2242188 C0,17.6554688 0.14375,17.990625 0.43125,18.278125 C0.71875,18.565625 1.05390625,18.709375 1.48515625,18.709375 C1.48515625,18.709375 1.48515625,18.709375 1.48515625,18.709375 C1.48515625,18.709375 2.921875,18.709375 2.921875,18.709375 C2.921875,19.5234375 3.209375,20.2421875 3.83203125,20.8164062 C4.40703125,21.3914062 5.07734375,21.678125 5.89140625,21.678125 C6.70546875,21.678125 7.37578125,21.390625 7.95078125,20.8164062 C8.52578125,20.2414062 8.8125,19.5234375 8.8125,18.709375 C8.8125,18.709375 8.8125,18.709375 8.8125,18.709375 C8.8125,18.709375 14.703125,18.709375 14.703125,18.709375 C14.703125,19.5234375 14.990625,20.2421875 15.6132813,20.8164062 C16.1882813,21.3914062 16.8585938,21.678125 17.6726562,21.678125 C18.4867187,21.678125 19.1570312,21.390625 19.7320312,20.8164062 C20.3070312,20.2414062 20.59375,19.5234375 20.59375,18.709375 C20.59375,18.709375 20.59375,18.709375 20.59375,18.709375 C20.59375,18.709375 23.0359375,18.709375 23.0359375,18.709375 C23.4671875,18.709375 23.8023438,18.565625 24.0898438,18.278125 C24.3773437,17.990625 24.5210937,17.6554688 24.5210937,17.2242188 C24.5210937,17.2242188 24.5210937,17.2242188 24.5210937,17.2242188 C24.5210937,17.2242188 24.5210937,12.9140625 24.5210937,12.9140625 C24.5210937,12.1953125 24.1859375,11.7648438 23.515625,11.525 L23.5148437,11.5242188 Z M14.7023437,9.4171875 C14.7023437,9.4171875 14.7023437,5.96875 14.7023437,5.96875 C14.7023437,5.96875 18.5335937,5.96875 18.5335937,5.96875 C18.7726562,5.96875 18.9648437,6.06484375 19.0125,6.30390625 C19.0125,6.30390625 19.0125,6.30390625 19.0125,6.30390625 C19.0125,6.30390625 20.5453125,10.8539063 20.5453125,10.8539063 C20.5453125,10.8539063 16.1867187,10.8539063 16.1867187,10.8539063 C15.7554687,10.8539063 15.4203125,10.7101563 15.1328125,10.4226563 C14.8453125,10.1351563 14.7015625,9.8 14.7015625,9.4171875 C14.7015625,9.4171875 14.7015625,9.4171875 14.7015625,9.4171875 L14.7023437,9.4171875 Z M11.7804688,4.96328125 C11.7804688,4.96328125 11.7804688,4.00546875 11.7804688,4.00546875 C11.7804688,4.00546875 12.7382813,4.00546875 12.7382813,4.00546875 C12.7382813,4.00546875 12.7382813,4.96328125 12.7382813,4.96328125 C12.7382813,4.96328125 11.7804688,4.96328125 11.7804688,4.96328125 Z M7.27890625,20.0976562 C6.89609375,20.4804688 6.4171875,20.6726562 5.88984375,20.6726562 C5.3625,20.6726562 4.884375,20.48125 4.50078125,20.0976562 C4.11796875,19.7148438 3.92578125,19.2359375 3.92578125,18.7085937 C3.92578125,18.18125 4.1171875,17.703125 4.50078125,17.3195313 C4.88359375,16.9367188 5.3625,16.7445313 5.88984375,16.7445313 C6.4171875,16.7445313 6.8953125,16.9359375 7.27890625,17.3195313 C7.66171875,17.7023437 7.85390625,18.18125 7.85390625,18.7085937 C7.85390625,19.2359375 7.6625,19.7140625 7.27890625,20.0976562 Z M19.0609375,20.0976562 C18.678125,20.4804688 18.1992187,20.6726562 17.671875,20.6726562 C17.1445313,20.6726562 16.6664063,20.48125 16.2828125,20.0976562 C15.9,19.7148438 15.7078125,19.2359375 15.7078125,18.7085937 C15.7078125,18.18125 15.8992188,17.703125 16.2828125,17.3195313 C16.665625,16.9367188 17.1445313,16.7445313 17.671875,16.7445313 C18.1992187,16.7445313 18.6773437,16.9359375 19.0609375,17.3195313 C19.44375,17.7023437 19.6359375,18.18125 19.6359375,18.7085937 C19.6359375,19.2359375 19.4445312,19.7140625 19.0609375,20.0976562 Z M23.5625,12.9132813 C23.5625,12.9132813 23.5625,17.2234375 23.5625,17.2234375 C23.5625,17.5585938 23.3710937,17.75 23.0359375,17.75 C23.0359375,17.75 23.0359375,17.75 23.0359375,17.75 C23.0359375,17.75 20.4015625,17.75 20.4015625,17.75 C20.2101562,17.175 19.875,16.6960938 19.3476562,16.3132813 C18.8210937,15.978125 18.29375,15.7867188 17.6710937,15.7867188 C17.6710937,15.7867188 17.6710937,15.7867188 17.6710937,15.7867188 C16.3304687,15.7867188 15.4203125,16.409375 14.8929687,17.7023438 C14.8929687,17.7023438 14.8929687,17.7023438 14.8929687,17.7023438 C14.8929687,17.7023438 8.6671875,17.75 8.6671875,17.75 C8.428125,17.175 8.0921875,16.6960938 7.565625,16.3132813 C7.0390625,15.978125 6.51171875,15.7867188 5.8890625,15.7867188 C5.8890625,15.7867188 5.8890625,15.7867188 5.8890625,15.7867188 C4.5484375,15.7867188 3.63828125,16.409375 3.1109375,17.7023438 C3.1109375,17.7023438 3.1109375,17.7023438 3.1109375,17.7023438 C3.1109375,17.7023438 1.4828125,17.75 1.4828125,17.75 C1.14765625,17.75 0.95625,17.5585938 0.95625,17.2234375 C0.95625,17.2234375 0.95625,17.2234375 0.95625,17.2234375 C0.95625,17.2234375 0.95625,6.44765625 0.95625,6.44765625 C0.95625,6.1125 1.14765625,5.96875 1.4828125,5.96875 C1.4828125,5.96875 1.4828125,5.96875 1.4828125,5.96875 C1.4828125,5.96875 13.74375,5.96875 13.74375,5.96875 C13.74375,5.96875 13.74375,9.4171875 13.74375,9.4171875 C13.74375,10.0875 13.9828125,10.6625 14.4625,11.1414063 C14.9421875,11.6203125 15.5164062,11.8601563 16.1867187,11.8601563 C16.1867187,11.8601563 16.1867187,11.8601563 16.1867187,11.8601563 C16.1867187,11.8601563 21.4070312,11.8601563 21.4070312,11.8601563 C21.4070312,11.8601563 23.2265625,12.4351563 23.2265625,12.4351563 C23.465625,12.53125 23.5617187,12.6742188 23.5617187,12.9140625 C23.5617187,12.9140625 23.5617187,12.9140625 23.5617187,12.9140625 L23.5625,12.9132813 Z"/>
  <title>Ambulance</title>
</svg>