<svg xmlns="http://www.w3.org/2000/svg" viewBox="0 0 25 25" id="analytics-neutral">
  <path d="M14.6070312,18.153125 C14.5109375,18.2492187 14.415625,18.296875 14.271875,18.296875 C14.128125,18.296875 14.0328125,18.2492187 13.9367187,18.153125 C13.9367187,18.153125 13.9367187,18.153125 13.9367187,18.153125 C13.6976562,17.9140625 13.6976562,17.721875 13.9367187,17.4828125 C13.9367187,17.4828125 13.9367187,17.4828125 13.9367187,17.4828125 C13.9367187,17.4828125 19.109375,12.2625 19.109375,12.2625 C19.109375,12.2625 13.9367187,7.0421875 13.9367187,7.0421875 C13.6976562,6.803125 13.6976562,6.6109375 13.9367187,6.371875 C14.1757812,6.1328125 14.3679687,6.1328125 14.6070312,6.371875 C14.6070312,6.371875 14.6070312,6.371875 14.6070312,6.371875 C14.6070312,6.371875 20.1625,11.9273437 20.1625,11.9273437 C20.2585937,12.0234375 20.30625,12.11875 20.30625,12.2625 C20.30625,12.40625 20.2585937,12.5015625 20.1625,12.5976562 C20.1625,12.5976562 20.1625,12.5976562 20.1625,12.5976562 C20.1625,12.5976562 14.6070312,18.153125 14.6070312,18.153125 Z M12.2609375,24.5226563 C12.2609375,24.5226563 12.2609375,24.5226563 12.2609375,24.5226563 C8.8609375,24.5226563 5.98671875,23.325 3.5921875,20.9304688 C1.19765625,18.5359375 0,15.6625 0,12.2617188 C0,12.2617188 0,12.2617188 0,12.2617188 C0,11.9265625 0.14375,11.7828125 0.47890625,11.7828125 C0.47890625,11.7828125 0.47890625,11.7828125 0.47890625,11.7828125 C0.47890625,11.7828125 19.8273437,11.7828125 19.8273437,11.7828125 C20.1625,11.7828125 20.30625,11.9265625 20.30625,12.2617188 C20.30625,12.596875 20.1625,12.740625 19.8273437,12.740625 C19.8273437,12.740625 19.8273437,12.740625 19.8273437,12.740625 C19.8273437,12.740625 1.00546875,12.740625 1.00546875,12.740625 C1.14921875,15.7578125 2.2984375,18.2960938 4.5015625,20.403125 C6.65703125,22.5101563 9.24296875,23.5640625 12.2601562,23.5640625 C12.2601562,23.5640625 12.2601562,23.5640625 12.2601562,23.5640625 C15.3734375,23.5640625 18.0554687,22.4625 20.2585937,20.259375 C22.4617187,18.05625 23.5632812,15.3742187 23.5632812,12.2609375 C23.5632812,9.14765625 22.4617187,6.465625 20.2585937,4.2625 C18.0554687,2.059375 15.3734375,0.9578125 12.2601562,0.9578125 C12.2601562,0.9578125 12.2601562,0.9578125 12.2601562,0.9578125 C10.3921875,0.9578125 8.66796875,1.3890625 6.9921875,2.25078125 C5.315625,3.1609375 3.975,4.3578125 2.92109375,5.93828125 C2.92109375,5.93828125 2.92109375,5.93828125 2.92109375,5.93828125 C2.77734375,6.22578125 2.53828125,6.2734375 2.20234375,6.08203125 C2.20234375,6.08203125 2.20234375,6.08203125 2.20234375,6.08203125 C1.96328125,5.93828125 1.96328125,5.69921875 2.10625,5.41171875 C2.10625,5.41171875 2.10625,5.41171875 2.10625,5.41171875 C3.2078125,3.73515625 4.6921875,2.39453125 6.5125,1.43671875 C8.284375,0.47890625 10.2,0 12.259375,0 C12.259375,0 12.259375,0 12.259375,0 C15.659375,0 18.5335937,1.19765625 20.928125,3.5921875 C23.3226562,5.98671875 24.5203125,8.86015625 24.5203125,12.2609375 C24.5203125,15.6609375 23.3226562,18.5351562 20.928125,20.9296875 C18.5335938,23.3242188 15.6601562,24.521875 12.259375,24.521875 C12.259375,24.521875 12.259375,24.521875 12.259375,24.521875 L12.2609375,24.5226563 Z"/>
  <title>Analytics Neutral</title>
</svg>