<svg xmlns="http://www.w3.org/2000/svg" viewBox="0 0 25 25" id="analytics-bad-solid">
  <path d="M20.9296875,20.9296875 C18.5351562,23.3242188 15.6617187,24.521875 12.2609375,24.521875 C8.86015625,24.521875 5.98671875,23.3242188 3.5921875,20.9296875 C1.19765625,18.5351562 0,15.6617188 0,12.2609375 C0,12.2609375 0,12.2609375 0,12.2609375 C0,11.015625 0.19140625,9.72265625 0.62265625,8.38125 C0.62265625,8.38125 0.62265625,8.38125 0.62265625,8.38125 C0.62265625,8.38125 0.71875,8.47734375 0.71875,8.47734375 C0.71875,8.47734375 5.89140625,13.6015625 5.89140625,13.6015625 C6.13046875,13.840625 6.32265625,13.840625 6.56171875,13.6015625 C6.56171875,13.6015625 6.56171875,13.6015625 6.56171875,13.6015625 C6.56171875,13.6015625 10.2015625,10.009375 10.2015625,10.009375 C10.2015625,10.009375 16.8585938,16.6664062 16.8585938,16.6664062 C16.8585938,16.6664062 10.2015625,16.6664062 10.2015625,16.6664062 C9.86640625,16.6664062 9.675,16.8101563 9.675,17.1453125 C9.675,17.1453125 9.675,17.1453125 9.675,17.1453125 C9.675,17.528125 9.86640625,17.7203125 10.2015625,17.7203125 C10.2015625,17.7203125 10.2015625,17.7203125 10.2015625,17.7203125 C10.2015625,17.7203125 18.0078125,17.7203125 18.0078125,17.7203125 C18.0554687,17.7679688 18.1515625,17.7203125 18.2953125,17.6726563 C18.2953125,17.6726563 18.2953125,17.6726563 18.2953125,17.6726563 C18.4390625,17.625 18.534375,17.48125 18.5828125,17.3375 C18.5828125,17.3375 18.5828125,17.3375 18.5828125,17.3375 C18.6304687,17.2898438 18.6304687,17.19375 18.6304687,17.05 C18.6304687,17.05 18.6304687,17.05 18.6304687,17.05 C18.6304687,17.05 18.6304687,9.3390625 18.6304687,9.3390625 C18.6304687,8.95625 18.4867187,8.7640625 18.1515625,8.7640625 C17.8164062,8.7640625 17.6726562,8.95546875 17.6726562,9.3390625 C17.6726562,9.3390625 17.6726562,9.3390625 17.6726562,9.3390625 C17.6726562,9.3390625 17.6726562,15.9960938 17.6726562,15.9960938 C17.6726562,15.9960938 10.5367187,8.9078125 10.5367187,8.9078125 C10.2976562,8.66875 10.0578125,8.66875 9.81796875,8.9078125 C9.81796875,8.9078125 9.81796875,8.9078125 9.81796875,8.9078125 C9.81796875,8.9078125 6.22578125,12.5 6.22578125,12.5 C6.22578125,12.5 1.053125,7.37578125 1.053125,7.37578125 C1.96328125,5.17265625 3.44765625,3.40078125 5.50703125,2.01171875 C7.51875,0.67109375 9.76953125,0 12.2601562,0 C12.2601562,0 12.2601562,0 12.2601562,0 C15.6601562,0 18.534375,1.19765625 20.9289062,3.5921875 C23.3234375,5.98671875 24.5210937,8.86015625 24.5210937,12.2609375 C24.5210937,15.6609375 23.3234375,18.5351563 20.9289062,20.9296875 L20.9296875,20.9296875 Z"/>
  <title>Analytics Bad Solid</title>
</svg>