<svg xmlns="http://www.w3.org/2000/svg" viewBox="0 0 25 25" id="analytics-good-solid">
  <path d="M20.9296875,3.5921875 C18.5351562,1.19765625 15.6617187,0 12.2609375,0 C8.86015625,0 5.98671875,1.19765625 3.5921875,3.5921875 C1.19765625,5.98671875 0,8.86015625 0,12.2609375 C0,12.2609375 0,12.2609375 0,12.2609375 C0,13.50625 0.19140625,14.7992187 0.62265625,16.140625 C0.62265625,16.140625 0.62265625,16.140625 0.62265625,16.140625 C0.62265625,16.140625 0.71875,16.0445313 0.71875,16.0445313 C0.71875,16.0445313 5.89140625,10.9203125 5.89140625,10.9203125 C6.13046875,10.68125 6.32265625,10.68125 6.56171875,10.9203125 C6.56171875,10.9203125 6.56171875,10.9203125 6.56171875,10.9203125 C6.56171875,10.9203125 10.2015625,14.5125 10.2015625,14.5125 C10.2015625,14.5125 16.8585938,7.85546875 16.8585938,7.85546875 C16.8585938,7.85546875 10.2015625,7.85546875 10.2015625,7.85546875 C9.86640625,7.85546875 9.675,7.71171875 9.675,7.3765625 C9.675,7.3765625 9.675,7.3765625 9.675,7.3765625 C9.675,6.99375 9.86640625,6.8015625 10.2015625,6.8015625 C10.2015625,6.8015625 10.2015625,6.8015625 10.2015625,6.8015625 C10.2015625,6.8015625 18.0078125,6.8015625 18.0078125,6.8015625 C18.0554687,6.75390625 18.1515625,6.8015625 18.2953125,6.84921875 C18.2953125,6.84921875 18.2953125,6.84921875 18.2953125,6.84921875 C18.4390625,6.896875 18.534375,7.040625 18.5828125,7.184375 C18.5828125,7.184375 18.5828125,7.184375 18.5828125,7.184375 C18.6304687,7.23203125 18.6304687,7.328125 18.6304687,7.471875 C18.6304687,7.471875 18.6304687,7.471875 18.6304687,7.471875 C18.6304687,7.471875 18.6304687,15.1828125 18.6304687,15.1828125 C18.6304687,15.565625 18.4867187,15.7578125 18.1515625,15.7578125 C17.8164062,15.7578125 17.6726562,15.5664062 17.6726562,15.1828125 C17.6726562,15.1828125 17.6726562,15.1828125 17.6726562,15.1828125 C17.6726562,15.1828125 17.6726562,8.52578125 17.6726562,8.52578125 C17.6726562,8.52578125 10.5367187,15.6140625 10.5367187,15.6140625 C10.2976562,15.853125 10.0578125,15.853125 9.81796875,15.6140625 C9.81796875,15.6140625 9.81796875,15.6140625 9.81796875,15.6140625 C9.81796875,15.6140625 6.22578125,12.021875 6.22578125,12.021875 C6.22578125,12.021875 1.053125,17.1460938 1.053125,17.1460938 C1.96328125,19.3492188 3.44765625,21.1210938 5.50703125,22.4625 C7.51875,23.8515625 9.76953125,24.521875 12.2601562,24.521875 C12.2601562,24.521875 12.2601562,24.521875 12.2601562,24.521875 C15.6601562,24.521875 18.534375,23.3242188 20.9289062,20.9296875 C23.3234375,18.5351563 24.5210937,15.6617188 24.5210937,12.2609375 C24.5210937,8.86015625 23.3234375,5.98671875 20.9289062,3.5921875 L20.9296875,3.5921875 Z"/>
  <title>Analytics Good Solid</title>
</svg>