<svg xmlns="http://www.w3.org/2000/svg" viewBox="0 0 25 25" id="analytics-good">
  <path d="M12.176657,24.5702796 C12.176657,24.5702796 12.176657,24.5702796 12.176657,24.5702796 C9.92587571,24.5702796 7.77040696,23.9952796 5.80712571,22.7984046 C5.80712571,22.7984046 5.80712571,22.7984046 5.80712571,22.7984046 C3.31650071,21.3140296 1.59228196,19.2546546 0.586813209,16.6202796 C0.586813209,16.6202796 0.586813209,16.6202796 0.586813209,16.6202796 C0.490719459,16.4288733 0.539156959,16.2374671 0.730563209,16.0937171 C0.730563209,16.0937171 0.730563209,16.0937171 0.730563209,16.0937171 C0.730563209,16.0937171 5.90321946,10.9694983 5.90321946,10.9694983 C6.14228196,10.7304358 6.33446946,10.7304358 6.57353196,10.9694983 C6.57353196,10.9694983 6.57353196,10.9694983 6.57353196,10.9694983 C6.57353196,10.9694983 10.2133757,14.5616858 10.2133757,14.5616858 C10.2133757,14.5616858 17.7805632,7.04215458 17.7805632,7.04215458 C18.0196257,6.80309208 18.2118132,6.80309208 18.4508757,7.04215458 C18.4508757,7.04215458 18.4508757,7.04215458 18.4508757,7.04215458 C18.6899382,7.28121708 18.6899382,7.52106083 18.4508757,7.76090458 C18.4508757,7.76090458 18.4508757,7.76090458 18.4508757,7.76090458 C18.4508757,7.76090458 10.548532,15.6155921 10.548532,15.6155921 C10.3094695,15.8546546 10.0696257,15.8546546 9.82978196,15.6155921 C9.82978196,15.6155921 9.82978196,15.6155921 9.82978196,15.6155921 C9.82978196,15.6155921 6.23759446,12.0234046 6.23759446,12.0234046 C6.23759446,12.0234046 1.63993821,16.5734046 1.63993821,16.5734046 C2.59775071,18.8241858 4.17821946,20.6444983 6.33368821,21.9851233 C6.33368821,21.9851233 6.33368821,21.9851233 6.33368821,21.9851233 C9.01571946,23.5655921 11.889157,23.9968421 14.9540007,23.2304358 C17.9711882,22.4640296 20.3180632,20.7398108 21.9461882,18.1062171 C21.9461882,18.1062171 21.9461882,18.1062171 21.9461882,18.1062171 C23.526657,15.4241858 23.957907,12.5984046 23.239157,9.58121708 C23.239157,9.58121708 23.239157,9.58121708 23.239157,9.58121708 C22.4250945,6.56402958 20.7008757,4.26481083 18.0188445,2.63668583 C18.0188445,2.63668583 18.0188445,2.63668583 18.0188445,2.63668583 C15.3368132,1.05621708 12.4633757,0.624967083 9.44618821,1.34371708 C6.38134446,2.11012333 4.03446946,3.83434208 2.40634446,6.51637333 C2.40634446,6.51637333 2.40634446,6.51637333 2.40634446,6.51637333 C1.68759446,7.80934208 1.20868821,9.05465458 0.969625709,10.2523108 C0.969625709,10.2523108 0.969625709,10.2523108 0.969625709,10.2523108 C0.921969459,10.5874671 0.730563209,10.6835608 0.394625709,10.6351233 C0.0586882085,10.5866858 -0.0366242915,10.3960608 0.0118132085,10.0601233 C0.0118132085,10.0601233 0.0118132085,10.0601233 0.0118132085,10.0601233 C0.299313209,8.67106083 0.825875709,7.28199833 1.59228196,5.98902958 C1.59228196,5.98902958 1.59228196,5.98902958 1.59228196,5.98902958 C3.36415696,3.06793583 5.90243821,1.19996708 9.20712571,0.385904583 C12.5118132,-0.428157917 15.6250945,0.0507483335 18.5461882,1.77496708 C18.5461882,1.77496708 18.5461882,1.77496708 18.5461882,1.77496708 C21.467282,3.54684208 23.3352507,6.08512333 24.1493132,9.34215458 C24.1493132,9.34215458 24.1493132,9.34215458 24.1493132,9.34215458 C24.9633757,12.6468421 24.5321257,15.7116858 22.7602507,18.6335608 C22.7602507,18.6335608 22.7602507,18.6335608 22.7602507,18.6335608 C21.6586882,20.5015296 20.1258757,21.9859046 18.2586882,22.9921546 C16.3430632,24.0460608 14.3313445,24.5726233 12.176657,24.5726233 L12.176657,24.5702796 Z M18.1149382,15.7585608 C18.1149382,15.7585608 18.1149382,15.7585608 18.1149382,15.7585608 C17.779782,15.7585608 17.636032,15.5671546 17.636032,15.2319983 C17.636032,15.2319983 17.636032,15.2319983 17.636032,15.2319983 C17.636032,15.2319983 17.636032,7.90465458 17.636032,7.90465458 C17.636032,7.90465458 10.2125945,7.90465458 10.2125945,7.90465458 C9.87743821,7.90465458 9.68603196,7.76090458 9.68603196,7.42574833 C9.68603196,7.42574833 9.68603196,7.42574833 9.68603196,7.42574833 C9.68603196,7.09059208 9.87743821,6.89918583 10.2125945,6.89918583 C10.2125945,6.89918583 10.2125945,6.89918583 10.2125945,6.89918583 C10.2125945,6.89918583 18.1149382,6.89918583 18.1149382,6.89918583 C18.4500945,6.89918583 18.5938445,7.09059208 18.5938445,7.42574833 C18.5938445,7.42574833 18.5938445,7.42574833 18.5938445,7.42574833 C18.5938445,7.42574833 18.5938445,15.2319983 18.5938445,15.2319983 C18.5938445,15.5671546 18.4500945,15.7585608 18.1149382,15.7585608 C18.1149382,15.7585608 18.1149382,15.7585608 18.1149382,15.7585608 L18.1149382,15.7585608 Z"/>
  <title>Analytics Good</title>
</svg>