<svg xmlns="http://www.w3.org/2000/svg" viewBox="0 0 25 25" id="analytics-bad">
  <path d="M22.7592552,5.9390625 C22.7592552,5.9390625 22.7592552,5.9390625 22.7592552,5.9390625 C21.5615989,4.0234375 20.0772239,2.53828125 18.2092552,1.5328125 C18.2092552,1.5328125 18.2092552,1.5328125 18.2092552,1.5328125 C16.3412864,0.52734375 14.3295677,0 12.1748802,0 C12.1748802,0 12.1748802,0 12.1748802,0 C9.87566143,0 7.76863018,0.575 5.80534893,1.771875 C5.80534893,1.771875 5.80534893,1.771875 5.80534893,1.771875 C3.36316143,3.25625 1.59050518,5.315625 0.585036435,7.95 C0.585036435,7.95 0.585036435,7.95 0.585036435,7.95 C0.488942685,8.09375 0.537380185,8.28515625 0.728786435,8.4765625 C0.728786435,8.4765625 0.728786435,8.4765625 0.728786435,8.4765625 C0.728786435,8.4765625 5.90144268,13.6007813 5.90144268,13.6007813 C6.14050518,13.7921875 6.38034893,13.7921875 6.57175518,13.6007813 C6.57175518,13.6007813 6.57175518,13.6007813 6.57175518,13.6007813 C6.57175518,13.6007813 10.2115989,10.0085938 10.2115989,10.0085938 C10.2115989,10.0085938 16.9162864,16.665625 16.9162864,16.665625 C16.9162864,16.665625 10.2115989,16.665625 10.2115989,16.665625 C9.87644268,16.665625 9.68503643,16.809375 9.68503643,17.1445312 C9.68503643,17.1445312 9.68503643,17.1445312 9.68503643,17.1445312 C9.68503643,17.4796875 9.87644268,17.6710938 10.2115989,17.6710938 C10.2115989,17.6710938 10.2115989,17.6710938 10.2115989,17.6710938 C10.2115989,17.6710938 18.0178489,17.6710938 18.0178489,17.6710938 C18.1615989,17.6710938 18.2569114,17.6710938 18.3053489,17.6234375 C18.3053489,17.6234375 18.3053489,17.6234375 18.3053489,17.6234375 C18.4014427,17.5757812 18.4967552,17.4796875 18.5444114,17.3359375 C18.5444114,17.3359375 18.5444114,17.3359375 18.5444114,17.3359375 C18.5920677,17.2882813 18.5920677,17.1921875 18.5920677,17.0484375 C18.5920677,17.0484375 18.5920677,17.0484375 18.5920677,17.0484375 C18.5920677,17.0484375 18.5920677,9.3375 18.5920677,9.3375 C18.5920677,9.00234375 18.4483177,8.8109375 18.1131614,8.8109375 C17.7780052,8.8109375 17.6342552,9.00234375 17.6342552,9.3375 C17.6342552,9.3375 17.6342552,9.3375 17.6342552,9.3375 C17.6342552,9.3375 17.6342552,15.9945313 17.6342552,15.9945313 C17.6342552,15.9945313 10.5459739,8.9546875 10.5459739,8.9546875 C10.3069114,8.715625 10.0670677,8.715625 9.82722393,8.9546875 C9.82722393,8.9546875 9.82722393,8.9546875 9.82722393,8.9546875 C9.82722393,8.9546875 6.23503643,12.546875 6.23503643,12.546875 C6.23503643,12.546875 1.63738018,7.996875 1.63738018,7.996875 C2.59519268,5.74609375 4.17566143,3.92578125 6.33113018,2.58515625 C6.33113018,2.58515625 6.33113018,2.58515625 6.33113018,2.58515625 C9.06081768,1.0046875 11.8865989,0.5734375 14.9037864,1.33984375 C14.9037864,1.33984375 14.9037864,1.33984375 14.9037864,1.33984375 C17.9686302,2.10625 20.3155052,3.83046875 21.9436302,6.4640625 C21.9436302,6.4640625 21.9436302,6.4640625 21.9436302,6.4640625 C23.5240989,9.14609375 23.9553489,11.971875 23.2365989,14.9890625 C23.2365989,14.9890625 23.2365989,14.9890625 23.2365989,14.9890625 C22.4225364,17.9585938 20.6506614,20.2570313 18.0162864,21.8859375 C18.0162864,21.8859375 18.0162864,21.8859375 18.0162864,21.8859375 C15.3342552,23.5140625 12.4608177,23.9453125 9.44363018,23.1789063 C9.44363018,23.1789063 9.44363018,23.1789063 9.44363018,23.1789063 C6.37878643,22.4125 4.03191143,20.6882813 2.40378643,18.0546875 C2.40378643,18.0546875 2.40378643,18.0546875 2.40378643,18.0546875 C1.68503643,16.7617188 1.20613018,15.5164063 0.967067685,14.31875 C0.967067685,14.31875 0.967067685,14.31875 0.967067685,14.31875 C0.919411435,13.9835938 0.728005185,13.8398438 0.392067685,13.9359375 C0.392067685,13.9359375 0.392067685,13.9359375 0.392067685,13.9359375 C0.104567685,13.9835938 -0.0391823153,14.175 0.0092551847,14.5109375 C0.0092551847,14.5109375 0.0092551847,14.5109375 0.0092551847,14.5109375 C0.296755185,15.9 0.823317685,17.240625 1.58972393,18.5820313 C1.58972393,18.5820313 1.58972393,18.5820313 1.58972393,18.5820313 C3.36159893,21.503125 5.89988018,23.3234375 9.20456768,24.1375 C12.5092552,24.9515625 15.6225364,24.4726563 18.5436302,22.7484375 C18.5436302,22.7484375 18.5436302,22.7484375 18.5436302,22.7484375 C21.4647239,20.9765625 23.3326927,18.4859375 24.1467552,15.2289063 C24.1467552,15.2289063 24.1467552,15.2289063 24.1467552,15.2289063 C24.9608177,11.9242188 24.4819114,8.859375 22.7576927,5.9375 C22.7576927,5.9375 22.7576927,5.9375 22.7576927,5.9375 L22.7592552,5.9390625 Z"/>
  <title>Analytics Bad</title>
</svg>