<svg xmlns="http://www.w3.org/2000/svg" viewBox="0 0 25 25" id="analytics-neutral-solid">
  <path d="M12.2609375,0 C12.2609375,0 12.2609375,0 12.2609375,0 C8.95625,0 6.13046875,1.14921875 3.78359375,3.4484375 C1.3890625,5.74765625 0.14375,8.525 0,11.7820313 C0,11.7820313 0,11.7820313 0,11.7820313 C0,11.7820313 18.6304688,11.7820313 18.6304688,11.7820313 C18.6304688,11.7820313 13.9367188,6.99296875 13.9367188,6.99296875 C13.6976563,6.75390625 13.6976563,6.56171875 13.9367188,6.32265625 C14.1757813,6.08359375 14.3679688,6.08359375 14.6070313,6.32265625 C14.6070313,6.32265625 14.6070313,6.32265625 14.6070313,6.32265625 C14.6070313,6.32265625 20.1625,11.878125 20.1625,11.878125 C20.2585938,11.9742188 20.30625,12.0695313 20.30625,12.2132813 C20.30625,12.3570313 20.2585938,12.4523438 20.1625,12.5484375 C20.1625,12.5484375 20.1625,12.5484375 20.1625,12.5484375 C20.1625,12.5484375 14.6070313,18.1515625 14.6070313,18.1515625 C14.5109375,18.2476563 14.415625,18.2953125 14.271875,18.2953125 C14.128125,18.2953125 14.0328125,18.2476563 13.9367188,18.1515625 C13.9367188,18.1515625 13.9367188,18.1515625 13.9367188,18.1515625 C13.6976563,17.9125 13.6976563,17.7203125 13.9367188,17.48125 C13.9367188,17.48125 13.9367188,17.48125 13.9367188,17.48125 C13.9367188,17.48125 18.6304688,12.7398438 18.6304688,12.7398438 C18.6304688,12.7398438 0,12.7398438 0,12.7398438 C0.14375,16.0445313 1.3890625,18.821875 3.78359375,21.0734375 C6.13046875,23.3726563 8.95625,24.521875 12.2609375,24.521875 C12.2609375,24.521875 12.2609375,24.521875 12.2609375,24.521875 C15.6609375,24.521875 18.5351563,23.3242188 20.9296875,20.9296875 C23.3242188,18.5351563 24.521875,15.6617188 24.521875,12.2609375 C24.521875,8.86015625 23.3242188,5.98671875 20.9296875,3.5921875 C18.5351563,1.19765625 15.6617188,0 12.2609375,0 L12.2609375,0 Z"/>
  <title>Analytics Neutral Solid</title>
</svg>