<svg xmlns="http://www.w3.org/2000/svg" viewBox="0 0 25 25" id="app-solid">
  <path d="M1,18.6296875 C1,18.6296875 1,6.36875 1,6.36875 C1,6.36875 11.8234375,12.4507813 11.8234375,12.4507813 C11.8234375,12.4507813 11.8234375,24.5195313 11.8234375,24.5195313 C11.8234375,24.5195313 1,18.6289063 1,18.6289063 L1,18.6296875 Z M23.6054688,18.6296875 C23.6054688,18.6296875 23.6054688,6.36875 23.6054688,6.36875 C23.6054688,6.36875 12.7820313,12.4507813 12.7820313,12.4507813 C12.7820313,12.4507813 12.7820313,24.5195313 12.7820313,24.5195313 C12.7820313,24.5195313 23.6054688,18.6289063 23.6054688,18.6289063 L23.6054688,18.6296875 Z M1.8140625,5.890625 C1.8140625,5.890625 12.3023438,0 12.3023438,0 C12.3023438,0 22.790625,5.890625 22.790625,5.890625 C22.790625,5.890625 12.3023438,11.5898438 12.3023438,11.5898438 C12.3023438,11.5898438 1.8140625,5.890625 1.8140625,5.890625 Z"/>
  <title>App Solid</title>
</svg>