<svg xmlns="http://www.w3.org/2000/svg" viewBox="0 0 25 25" id="app">
  <path d="M23.6046875,18.1507813 C23.6046875,18.1507813 23.6046875,6.36953125 23.6046875,6.36953125 C23.6046875,6.36953125 12.3023437,0 12.3023437,0 C12.3023437,0 1,6.36953125 1,6.36953125 C1,6.36953125 1,18.1507813 1,18.1507813 C1,18.1507813 1.04765625,18.1507813 1.04765625,18.1507813 C1.04765625,18.2945313 1.04765625,18.3421875 1.0953125,18.3898438 C1.0953125,18.3898438 1.0953125,18.3898438 1.0953125,18.3898438 C1.0953125,18.3898438 1.19140625,18.4859375 1.19140625,18.4859375 C1.19140625,18.4859375 1.2875,18.5820313 1.2875,18.5820313 C1.2875,18.5820313 12.0632812,24.4726563 12.0632812,24.4726563 C12.1109375,24.5203125 12.2070312,24.5203125 12.3023437,24.5203125 C12.3976562,24.5203125 12.49375,24.5203125 12.5414062,24.4726563 C12.5414062,24.4726563 12.5414062,24.4726563 12.5414062,24.4726563 C12.5414062,24.4726563 23.3171875,18.5820313 23.3171875,18.5820313 C23.3171875,18.5820313 23.4132812,18.4859375 23.4132812,18.4859375 C23.4132812,18.4859375 23.509375,18.3898438 23.509375,18.3898438 C23.5570313,18.3421875 23.5570313,18.29375 23.5570313,18.1507813 C23.5570313,18.1507813 23.5570313,18.1507813 23.5570313,18.1507813 C23.5570313,18.1507813 23.6046875,18.1507813 23.6046875,18.1507813 L23.6046875,18.1507813 Z M22.5992187,6.94375 C22.5992187,6.94375 22.5992187,17.2882812 22.5992187,17.2882812 C22.5992187,17.2882812 16.46875,13.7921875 16.46875,13.7921875 C16.4210937,13.7445312 16.3726562,13.7445312 16.2296875,13.7445312 C16.2296875,13.7445312 16.2296875,13.7445312 16.2296875,13.7445312 C15.8945312,13.7445312 15.7507813,13.8882813 15.7507813,14.2234375 C15.7507813,14.2234375 15.7507813,14.2234375 15.7507813,14.2234375 C15.7507813,14.4148437 15.846875,14.5585937 15.9898437,14.6546875 C15.9898437,14.6546875 15.9898437,14.6546875 15.9898437,14.6546875 C15.9898437,14.6546875 22.071875,18.1507812 22.071875,18.1507812 C22.071875,18.1507812 12.7804688,23.1796875 12.7804688,23.1796875 C12.7804688,23.1796875 12.7804688,12.4515625 12.7804688,12.4515625 C12.7804688,12.4515625 22.5984375,6.94375 22.5984375,6.94375 L22.5992187,6.94375 Z M3.0109375,6.36875 C3.0109375,6.36875 11.8234375,1.38828125 11.8234375,1.38828125 C11.8234375,1.38828125 11.8234375,7.375 11.8234375,7.375 C11.8234375,7.71015625 11.9671875,7.85390625 12.3023437,7.85390625 C12.6375,7.85390625 12.78125,7.71015625 12.78125,7.375 C12.78125,7.375 12.78125,7.375 12.78125,7.375 C12.78125,7.375 12.78125,1.38828125 12.78125,1.38828125 C12.78125,1.38828125 21.59375,6.36875 21.59375,6.36875 C21.59375,6.36875 12.3023437,11.6367188 12.3023437,11.6367188 C12.3023437,11.6367188 3.0109375,6.36875 3.0109375,6.36875 L3.0109375,6.36875 Z M2.0046875,6.94375 C2.0046875,6.94375 11.8226562,12.4515625 11.8226562,12.4515625 C11.8226562,12.4515625 11.8226562,23.1796875 11.8226562,23.1796875 C11.8226562,23.1796875 2.53125,18.1507813 2.53125,18.1507813 C2.53125,18.1507813 8.61328125,14.6546875 8.61328125,14.6546875 C8.75703125,14.5585938 8.85234375,14.415625 8.85234375,14.2234375 C8.85234375,14.2234375 8.85234375,14.2234375 8.85234375,14.2234375 C8.85234375,13.8882813 8.70859375,13.7445313 8.3734375,13.7445313 C8.3734375,13.7445313 8.3734375,13.7445313 8.3734375,13.7445313 C8.2296875,13.7445313 8.18203125,13.7445313 8.134375,13.7921875 C8.134375,13.7921875 8.134375,13.7921875 8.134375,13.7921875 C8.134375,13.7921875 2.00390625,17.2882813 2.00390625,17.2882813 C2.00390625,17.2882813 2.00390625,6.94375 2.00390625,6.94375 L2.0046875,6.94375 Z"/>
  <title>App</title>
</svg>