<svg xmlns="http://www.w3.org/2000/svg" viewBox="0 0 25 25" id="archive-solid">
  <path d="M23.1734375,5.92734375 C23.1734375,5.92734375 23.1734375,5.92734375 23.1734375,5.92734375 C23.1734375,5.92734375 12.7804688,5.92734375 12.7804688,5.92734375 C12.7804688,5.92734375 12.7804688,2 12.7804688,2 C12.7804688,2 17.809375,2 17.809375,2 C18.1921875,2 18.4796875,2.09609375 18.7195312,2.33515625 C18.7195312,2.33515625 18.7195312,2.33515625 18.7195312,2.33515625 C18.7195312,2.33515625 23.0296875,5.7359375 23.0296875,5.7359375 C23.0773438,5.78359375 23.1257813,5.8796875 23.1734375,5.92734375 L23.1734375,5.92734375 Z M11.775,5.92734375 C11.775,5.92734375 11.775,2 11.775,2 C11.775,2 6.74609375,2 6.74609375,2 C6.36328125,2 6.07578125,2.09609375 5.8359375,2.33515625 C5.8359375,2.33515625 5.8359375,2.33515625 5.8359375,2.33515625 C5.8359375,2.33515625 1.5734375,5.7359375 1.5734375,5.7359375 C1.47734375,5.78359375 1.4296875,5.83203125 1.38203125,5.92734375 C1.38203125,5.92734375 1.38203125,5.92734375 1.38203125,5.92734375 C1.38203125,5.92734375 11.775,5.92734375 11.775,5.92734375 L11.775,5.92734375 Z M23.5570312,6.88515625 C23.5570312,6.88515625 12.78125,6.88515625 12.78125,6.88515625 C12.78125,6.88515625 12.78125,10.3335937 12.78125,10.3335937 C12.78125,10.66875 12.6375,10.8125 12.3023437,10.8125 C12.3023437,10.8125 12.3023437,10.8125 12.3023437,10.8125 C11.9671875,10.8125 11.7757812,10.66875 11.7757812,10.3335937 C11.7757812,10.3335937 11.7757812,10.3335937 11.7757812,10.3335937 C11.7757812,10.3335937 11.7757812,6.88515625 11.7757812,6.88515625 C11.7757812,6.88515625 1,6.88515625 1,6.88515625 C1,6.88515625 1,21.109375 1,21.109375 C1,21.540625 1.14375,21.8757812 1.43125,22.1632812 C1.71875,22.4507812 2.05390625,22.5945312 2.48515625,22.5945312 C2.48515625,22.5945312 2.48515625,22.5945312 2.48515625,22.5945312 C2.48515625,22.5945312 22.0734375,22.5945312 22.0734375,22.5945312 C22.4085937,22.5945312 22.7921875,22.4507812 23.1273438,22.1632812 C23.1273438,22.1632812 23.1273438,22.1632812 23.1273438,22.1632812 C23.4148437,21.8757812 23.5585938,21.540625 23.5585938,21.109375 C23.5585938,21.109375 23.5585938,21.109375 23.5585938,21.109375 C23.5585938,21.109375 23.5585938,6.88515625 23.5585938,6.88515625 L23.5570312,6.88515625 Z"/>
  <title>Archive Solid</title>
</svg>