<svg xmlns="http://www.w3.org/2000/svg" viewBox="0 0 25 25" id="archive">
  <path d="M23.03125,5.78359375 C23.03125,5.78359375 23.03125,5.7359375 23.03125,5.7359375 C23.03125,5.7359375 18.76875,2.33515625 18.76875,2.33515625 C18.48125,2.09609375 18.19375,2 17.8585938,2 C17.8585938,2 17.8585938,2 17.8585938,2 C17.8585938,2 6.74765625,2 6.74765625,2 C6.4125,2 6.125,2.09609375 5.8375,2.33515625 C5.8375,2.33515625 5.8375,2.33515625 5.8375,2.33515625 C5.8375,2.33515625 1.575,5.7359375 1.575,5.7359375 C1.1921875,6.07109375 1,6.4546875 1,6.88515625 C1,6.88515625 1,6.88515625 1,6.88515625 C1,6.88515625 1,21.1570312 1,21.1570312 C1,21.5882812 1.14375,21.9234375 1.43125,22.2109375 C1.71875,22.4984375 2.05390625,22.6421875 2.48515625,22.6421875 C2.48515625,22.6421875 2.48515625,22.6421875 2.48515625,22.6421875 C4.8796875,22.5945312 11.4414063,22.5945312 22.1210938,22.5945312 C22.1210938,22.5945312 22.1210938,22.5945312 22.1210938,22.5945312 C22.5523437,22.5945312 22.8875,22.4507812 23.1265625,22.1632812 C23.1265625,22.1632812 23.1265625,22.1632812 23.1265625,22.1632812 C23.4617187,21.9242187 23.6054688,21.5882812 23.6054688,21.1578125 C23.6054688,21.1578125 23.6054688,21.1578125 23.6054688,21.1578125 C23.6054688,21.1578125 23.6054688,6.8859375 23.6054688,6.8859375 C23.6054688,6.4546875 23.4140625,6.071875 23.0304688,5.784375 C23.0304688,5.784375 23.0304688,5.784375 23.0304688,5.784375 L23.03125,5.78359375 Z M12.7828125,5.92734375 C12.7828125,5.92734375 12.7828125,3.00625 12.7828125,3.00625 C12.7828125,3.00625 17.859375,3.00625 17.859375,3.00625 C17.9070313,3.00625 18.003125,3.05390625 18.146875,3.10234375 C18.146875,3.10234375 18.146875,3.10234375 18.146875,3.10234375 C18.146875,3.10234375 21.690625,5.928125 21.690625,5.928125 C21.690625,5.928125 12.7828125,5.928125 12.7828125,5.928125 L12.7828125,5.92734375 Z M2.91640625,5.92734375 C2.91640625,5.92734375 6.46015625,3.1015625 6.46015625,3.1015625 C6.60390625,3.05390625 6.69921875,3.00546875 6.74765625,3.00546875 C6.74765625,3.00546875 6.74765625,3.00546875 6.74765625,3.00546875 C6.74765625,3.00546875 11.8242187,3.00546875 11.8242187,3.00546875 C11.8242187,3.00546875 11.8242187,5.9265625 11.8242187,5.9265625 C11.8242187,5.9265625 2.91640625,5.9265625 2.91640625,5.9265625 L2.91640625,5.92734375 Z M22.6007813,6.9328125 C22.6007813,6.9328125 22.6007813,21.1570313 22.6007813,21.1570313 C22.6007813,21.3007813 22.553125,21.3960938 22.4570312,21.4921875 C22.3609375,21.5882813 22.265625,21.6359375 22.121875,21.6359375 C22.121875,21.6359375 22.121875,21.6359375 22.121875,21.6359375 C22.121875,21.6359375 2.4859375,21.6359375 2.4859375,21.6359375 C2.4859375,21.6359375 2.4859375,21.6359375 2.4859375,21.6359375 C2.3421875,21.6359375 2.246875,21.5882813 2.15078125,21.4921875 C2.0546875,21.3960938 2.00703125,21.3007813 2.00703125,21.1570313 C2.00703125,21.1570313 2.00703125,21.1570313 2.00703125,21.1570313 C2.00703125,21.1570313 2.00703125,6.9328125 2.00703125,6.9328125 C2.00703125,6.9328125 11.825,6.9328125 11.825,6.9328125 C11.825,6.9328125 11.825,10.38125 11.825,10.38125 C11.825,10.7164063 11.96875,10.8601563 12.3039063,10.8601563 C12.6390625,10.8601563 12.7828125,10.7164063 12.7828125,10.38125 C12.7828125,10.38125 12.7828125,10.38125 12.7828125,10.38125 C12.7828125,10.38125 12.7828125,6.9328125 12.7828125,6.9328125 C12.7828125,6.9328125 22.6007813,6.9328125 22.6007813,6.9328125 Z"/>
  <title>Archive</title>
</svg>