<svg xmlns="http://www.w3.org/2000/svg" viewBox="0 0 25 25" id="archery">
  <path d="M23.4609375,23.75625 C23.4609375,23.75625 20.7789062,20.2125 20.7789062,20.2125 C23.3171875,18.1054688 24.5625,15.4710938 24.5625,12.2625 C24.5625,12.2625 24.5625,12.2625 24.5625,12.2625 C24.5625,9.43671875 23.5570313,6.99453125 21.5453125,4.9828125 C19.5335937,2.97109375 17.0914062,1.965625 14.265625,1.965625 C14.265625,1.965625 14.265625,1.965625 14.265625,1.965625 C12.1585938,1.965625 10.2429687,2.540625 8.56640625,3.68984375 C8.56640625,3.68984375 8.56640625,3.68984375 8.56640625,3.68984375 C8.42265625,3.7375 8.375,3.88125 8.375,4.07265625 C8.375,4.07265625 8.375,4.07265625 8.375,4.07265625 C8.375,4.4078125 8.51875,4.5515625 8.85390625,4.5515625 C8.85390625,4.5515625 8.85390625,4.5515625 8.85390625,4.5515625 C8.9015625,4.5515625 8.99765625,4.50390625 9.14140625,4.45546875 C9.14140625,4.45546875 9.14140625,4.45546875 9.14140625,4.45546875 C10.7695312,3.4015625 12.49375,2.875 14.3617187,2.875 C14.3617187,2.875 14.3617187,2.875 14.3617187,2.875 C16.9960938,2.875 19.1992188,3.78515625 21.0664062,5.653125 C22.8859375,7.52109375 23.7960937,9.72421875 23.7960937,12.3578125 C23.7960937,12.3578125 23.7960937,12.3578125 23.7960937,12.3578125 C23.7960937,14.94375 22.8859375,17.146875 21.0664062,19.0148438 C19.1984375,20.8828125 16.9953125,21.7929688 14.3617187,21.7929688 C11.728125,21.7929688 9.52421875,20.8828125 7.7046875,19.0148438 C5.83671875,17.146875 4.9265625,14.94375 4.9265625,12.3578125 C4.9265625,12.3578125 4.9265625,12.3578125 4.9265625,12.3578125 C4.9265625,10.1546875 5.596875,8.19140625 6.9859375,6.4671875 C6.9859375,6.4671875 6.9859375,6.4671875 6.9859375,6.4671875 C6.9859375,6.4671875 8.42265625,7.76015625 8.42265625,7.76015625 C7.4171875,9.053125 6.93828125,10.5382813 6.93828125,12.2140625 C6.93828125,12.2140625 6.93828125,12.2140625 6.93828125,12.2140625 C6.93828125,14.2734375 7.65703125,15.9976563 9.09375,17.3867188 C10.4828125,18.8234375 12.2070312,19.5421875 14.2664063,19.5421875 C14.2664063,19.5421875 14.2664063,19.5421875 14.2664063,19.5421875 C16.278125,19.5421875 18.0023438,18.8234375 19.4390625,17.3867188 C20.8757812,15.9976563 21.5945312,14.2734375 21.5945312,12.2140625 C21.5945312,12.2140625 21.5945312,12.2140625 21.5945312,12.2140625 C21.5945312,10.2023437 20.8757812,8.478125 19.4390625,7.04140625 C18.0023438,5.6046875 16.278125,4.8859375 14.2664063,4.8859375 C14.2664063,4.8859375 14.2664063,4.8859375 14.2664063,4.8859375 C13.1648437,4.8859375 12.015625,5.1734375 10.8664062,5.7 C10.8664062,5.7 10.8664062,5.7 10.8664062,5.7 C10.7226562,5.84375 10.675,5.9875 10.675,6.13125 C10.675,6.13125 10.675,6.13125 10.675,6.13125 C10.675,6.46640625 10.81875,6.61015625 11.1539062,6.61015625 C11.1539062,6.61015625 11.1539062,6.61015625 11.1539062,6.61015625 C11.25,6.61015625 11.3453125,6.61015625 11.3929687,6.5625 C11.3929687,6.5625 11.3929687,6.5625 11.3929687,6.5625 C12.2070312,6.13125 13.1648437,5.8921875 14.21875,5.8921875 C14.21875,5.8921875 14.21875,5.8921875 14.21875,5.8921875 C14.21875,5.8921875 14.3148437,5.8921875 14.3148437,5.8921875 C16.0867187,5.8921875 17.6195313,6.51484375 18.8648438,7.76015625 C20.1101563,9.00546875 20.7328125,10.5382812 20.7328125,12.3101562 C20.7328125,14.0820312 20.1101562,15.6148437 18.8648438,16.8601562 C17.6195313,18.153125 16.0867187,18.7757812 14.3148438,18.7757812 C12.5429688,18.7757812 11.0101563,18.153125 9.76484375,16.8601562 C8.471875,15.6148437 7.84921875,14.0820312 7.84921875,12.3101562 C7.84921875,12.3101562 7.84921875,12.3101562 7.84921875,12.3101562 C7.84921875,10.9210937 8.28046875,9.628125 9.18984375,8.43046875 C9.18984375,8.43046875 9.18984375,8.43046875 9.18984375,8.43046875 C9.18984375,8.43046875 10.6265625,9.7234375 10.6265625,9.7234375 C10.1,10.5375 9.8125,11.4 9.8125,12.2617187 C9.8125,12.2617187 9.8125,12.2617187 9.8125,12.2617187 C9.8125,12.2617187 9.8125,12.3578125 9.8125,12.3578125 C9.8125,13.603125 10.24375,14.6570312 11.153125,15.51875 C12.0632813,16.4289062 13.1164063,16.859375 14.3617187,16.859375 C15.6070313,16.859375 16.6609375,16.428125 17.5703125,15.51875 C18.4320313,14.6570312 18.8632812,13.603125 18.8632812,12.3578125 C18.8632812,11.1125 18.4320313,10.0585937 17.5703125,9.14921875 C16.6601562,8.2875 15.6070313,7.85625 14.3617187,7.85625 C14.3617187,7.85625 14.3617187,7.85625 14.3617187,7.85625 C13.9789063,7.85625 13.6914063,7.85625 13.5476562,7.90390625 C13.5476562,7.90390625 13.5476562,7.90390625 13.5476562,7.90390625 C13.3085938,7.9515625 13.1648438,8.14296875 13.1648438,8.3828125 C13.1648438,8.3828125 13.1648438,8.3828125 13.1648438,8.3828125 C13.1648438,8.71796875 13.3085938,8.909375 13.64375,8.909375 C13.64375,8.909375 13.64375,8.909375 13.64375,8.909375 C13.6914063,8.909375 13.6914063,8.909375 13.7398438,8.86171875 C13.7398438,8.86171875 13.7398438,8.86171875 13.7398438,8.86171875 C13.7398438,8.86171875 14.21875,8.86171875 14.21875,8.86171875 C15.1765625,8.86171875 15.990625,9.196875 16.6609375,9.8671875 C17.33125,10.5375 17.6664063,11.3515625 17.6664063,12.2617188 C17.6664063,12.2617188 17.6664063,12.2617188 17.6664063,12.2617188 C17.6664063,13.2195312 17.33125,14.0335937 16.6609375,14.7039062 C15.990625,15.3742187 15.1765625,15.709375 14.21875,15.709375 C14.21875,15.709375 14.21875,15.709375 14.21875,15.709375 C13.3085938,15.709375 12.4945312,15.3742187 11.8242188,14.7039062 C11.1539063,14.0335937 10.81875,13.2195312 10.81875,12.2617188 C10.81875,12.2617188 10.81875,12.2617188 10.81875,12.2617188 C10.81875,11.5429687 11.0101562,10.9210937 11.39375,10.39375 C11.39375,10.39375 11.39375,10.39375 11.39375,10.39375 C11.39375,10.39375 12.878125,11.734375 12.878125,11.734375 C12.8304688,11.8304687 12.7820312,12.021875 12.7820312,12.309375 C12.7820312,12.309375 12.7820312,12.309375 12.7820312,12.309375 C12.7820312,12.740625 12.9257813,13.0757812 13.2132812,13.3632812 C13.5007812,13.6507812 13.8359375,13.7945312 14.2671875,13.7945312 C14.6984375,13.7945312 15.0335937,13.6507812 15.3210937,13.3632812 C15.6085937,13.0757812 15.7523438,12.740625 15.7523438,12.309375 C15.7523438,11.878125 15.6085937,11.5429687 15.3210937,11.2078125 C15.0335937,10.9203125 14.6984375,10.7765625 14.2671875,10.7765625 C14.2671875,10.7765625 14.2671875,10.7765625 14.2671875,10.7765625 C14.0757812,10.7765625 13.8359375,10.8242188 13.5007812,10.9679687 C13.5007812,10.9679687 13.5007812,10.9679687 13.5007812,10.9679687 C13.5007812,10.9679687 6.26875,4.55 6.26875,4.55 C6.26875,4.55 6.55625,2.778125 6.55625,2.778125 C6.55625,2.778125 3.778125,0 3.778125,0 C3.778125,0 3.059375,2.059375 3.059375,2.059375 C3.059375,2.059375 1,2.778125 1,2.778125 C1,2.778125 3.778125,5.55625 3.778125,5.55625 C3.778125,5.55625 5.55,5.26875 5.55,5.26875 C5.59765625,5.26875 5.59765625,5.26875 5.59765625,5.31640625 C5.59765625,5.31640625 5.59765625,5.31640625 5.59765625,5.31640625 C5.59765625,5.31640625 6.2203125,5.84296875 6.2203125,5.84296875 C4.6875,7.7109375 3.92109375,9.81796875 3.92109375,12.2609375 C3.92109375,12.2609375 3.92109375,12.2609375 3.92109375,12.2609375 C3.92109375,15.4695312 5.16640625,18.1039062 7.65703125,20.1632812 C7.65703125,20.1632812 7.65703125,20.1632812 7.65703125,20.1632812 C7.65703125,20.1632812 5.02265625,23.7554687 5.02265625,23.7554687 C4.975,23.803125 4.9265625,23.8992187 4.9265625,24.0429687 C4.9265625,24.0429687 4.9265625,24.0429687 4.9265625,24.0429687 C4.9265625,24.378125 5.0703125,24.521875 5.40546875,24.521875 C5.40546875,24.521875 5.40546875,24.521875 5.40546875,24.521875 C5.54921875,24.521875 5.64453125,24.4742187 5.78828125,24.3304687 C5.78828125,24.3304687 5.78828125,24.3304687 5.78828125,24.3304687 C5.78828125,24.3304687 8.4703125,20.7867187 8.4703125,20.7867187 C10.2421875,21.984375 12.1578125,22.5585937 14.2171875,22.5585937 C14.2171875,22.5585937 14.2171875,22.5585937 14.2171875,22.5585937 C16.3726562,22.5585937 18.2882812,21.9359375 20.0601562,20.7390625 C20.0601562,20.7390625 20.0601562,20.7390625 20.0601562,20.7390625 C20.0601562,20.7390625 22.6945312,24.33125 22.6945312,24.33125 C22.7421875,24.475 22.8859375,24.5226562 23.0773437,24.5226562 C23.0773437,24.5226562 23.0773437,24.5226562 23.0773437,24.5226562 C23.4125,24.5226562 23.55625,24.3789062 23.55625,24.04375 C23.55625,24.04375 23.55625,24.04375 23.55625,24.04375 C23.55625,23.9 23.5085937,23.8046875 23.4601562,23.75625 C23.4601562,23.75625 23.4601562,23.75625 23.4601562,23.75625 L23.4609375,23.75625 Z M5.5015625,3.11484375 C5.5015625,3.11484375 5.31015625,4.3125 5.31015625,4.3125 C5.31015625,4.3125 4.1125,4.50390625 4.1125,4.50390625 C4.1125,4.50390625 2.81953125,3.2109375 2.81953125,3.2109375 C2.81953125,3.2109375 3.8734375,2.87578125 3.8734375,2.87578125 C3.8734375,2.87578125 4.20859375,1.821875 4.20859375,1.821875 C4.20859375,1.821875 5.5015625,3.11484375 5.5015625,3.11484375 L5.5015625,3.11484375 Z"/>
  <title>Archery</title>
</svg>