<svg xmlns="http://www.w3.org/2000/svg" viewBox="0 0 25 25" id="arrow-left-right">
  <path d="M13.734375,13.8117188 C13.734375,13.8117188 14.7398438,14.146875 14.7398438,14.7695312 C14.7398438,15.4398438 14.4046875,15.775 13.734375,15.775 C13.734375,15.775 2.95859375,15.775 2.95859375,15.775 C2.3359375,15.775 2.00078125,15.4398438 2.00078125,14.7695312 C2.00078125,14.146875 2.3359375,13.8117188 2.95859375,13.8117188 C2.95859375,13.8117188 13.734375,13.8117188 13.734375,13.8117188 Z M22.5945312,7.92109375 C22.5945312,7.92109375 23.5523437,8.25625 23.5523437,8.9265625 C23.5523437,9.54921875 23.2171875,9.884375 22.5945312,9.884375 C22.5945312,9.884375 11.81875,9.884375 11.81875,9.884375 C11.1484375,9.884375 10.8132813,9.54921875 10.8132813,8.9265625 C10.8132813,8.25625 11.1484375,7.92109375 11.81875,7.92109375 C11.81875,7.92109375 22.5945312,7.92109375 22.5945312,7.92109375 L22.5945312,7.92109375 Z M8.56171875,19.0320312 C8.56171875,19.0320312 9.08828125,19.9421875 8.56171875,20.3726562 C8.13046875,20.8039063 7.7,20.8039063 7.17265625,20.3726562 C7.17265625,20.3726562 2.2875,15.4875 2.2875,15.4875 C2.09609375,15.2960938 2,15.05625 2,14.76875 C2,14.5296875 2.09609375,14.2898438 2.2875,14.0984375 C2.2875,14.0984375 7.17265625,9.21328125 7.17265625,9.21328125 C7.6515625,8.68671875 8.13046875,8.68671875 8.56171875,9.21328125 C9.08828125,9.64453125 9.08828125,10.1234375 8.56171875,10.5539063 C8.56171875,10.5539063 4.346875,14.76875 4.346875,14.76875 C4.346875,14.76875 8.56171875,19.03125 8.56171875,19.03125 L8.56171875,19.0320312 Z M23.2648438,9.596875 C23.2648438,9.596875 18.3796875,14.4820313 18.3796875,14.4820313 C17.9007813,15.0085937 17.421875,15.0085937 16.990625,14.4820313 C16.4640625,14.0507813 16.4640625,13.571875 16.990625,13.1414062 C16.990625,13.1414062 21.2054688,8.9265625 21.2054688,8.9265625 C21.2054688,8.9265625 16.990625,4.6640625 16.990625,4.6640625 C16.4640625,4.2328125 16.4640625,3.75390625 16.990625,3.3234375 C17.421875,2.8921875 17.8523438,2.8921875 18.3796875,3.3234375 C18.3796875,3.3234375 23.2648438,8.20859375 23.2648438,8.20859375 C23.45625,8.4 23.5523437,8.63984375 23.5523437,8.92734375 C23.5523437,8.92734375 23.5523437,9.40625 23.5523437,9.40625 C23.5523437,9.40625 23.0734375,9.40625 23.0734375,9.40625 C23.0734375,9.40625 23.2648438,9.59765625 23.2648438,9.59765625 L23.2648438,9.596875 Z"/>
  <title>Arrow Left Right</title>
</svg>