<svg xmlns="http://www.w3.org/2000/svg" viewBox="0 0 25 25" id="arrow-left-column">
  <path d="M20.1148437,0 C20.1148437,0 20.1148437,0 20.1148437,0 C20.1148437,0 4.40625,0 4.40625,0 C3.20859375,0 2.15546875,0.43125 1.29296875,1.29296875 C0.43046875,2.1546875 0,3.20859375 0,4.40625 C0,4.40625 0,4.40625 0,4.40625 C0,4.40625 0,20.1148437 0,20.1148437 C0,21.3125 0.43125,22.365625 1.29296875,23.228125 C2.1546875,24.090625 3.20859375,24.5210937 4.40625,24.5210937 C4.40625,24.5210937 4.40625,24.5210937 4.40625,24.5210937 C4.40625,24.5210937 20.1148437,24.5210937 20.1148437,24.5210937 C21.3125,24.5210937 22.365625,24.0898438 23.228125,23.228125 C24.090625,22.3664062 24.5210937,21.3125 24.5210937,20.1148437 C24.5210937,20.1148437 24.5210937,20.1148437 24.5210937,20.1148437 C24.5210937,20.1148437 24.5210937,4.40625 24.5210937,4.40625 C24.5210937,3.20859375 24.0898438,2.15546875 23.228125,1.29296875 C22.3664062,0.43046875 21.3125,0 20.1148437,0 Z M23.5632813,4.40625 C23.5632813,4.40625 23.5632813,20.1148437 23.5632813,20.1148437 C23.515625,21.025 23.1804688,21.8390625 22.509375,22.509375 C21.8382813,23.1796875 21.025,23.5148437 20.1148438,23.5632813 C20.1148438,23.5632813 20.1148438,23.5632813 20.1148438,23.5632813 C20.1148438,23.5632813 12.7390625,23.5632813 12.7390625,23.5632813 C12.7390625,23.5632813 12.7390625,15.7085938 12.7390625,15.7085938 C12.7390625,15.7085938 11.78125,15.7085938 11.78125,15.7085938 C11.78125,15.7085938 11.78125,23.5632813 11.78125,23.5632813 C11.78125,23.5632813 4.40546875,23.5632813 4.40546875,23.5632813 C3.4953125,23.515625 2.68125,23.1804688 2.0109375,22.509375 C1.340625,21.8382813 1.00546875,21.025 0.95703125,20.1148437 C0.95703125,20.1148437 0.95703125,20.1148437 0.95703125,20.1148437 C0.95703125,20.1148437 0.95703125,4.40625 0.95703125,4.40625 C1.0046875,3.49609375 1.33984375,2.68203125 2.0109375,2.01171875 C2.68203125,1.34140625 3.4953125,1.00625 4.40546875,0.9578125 C4.40546875,0.9578125 4.40546875,0.9578125 4.40546875,0.9578125 C4.40546875,0.9578125 11.78125,0.9578125 11.78125,0.9578125 C11.78125,0.9578125 11.78125,8.8125 11.78125,8.8125 C11.78125,8.8125 12.7390625,8.8125 12.7390625,8.8125 C12.7390625,8.8125 12.7390625,0.9578125 12.7390625,0.9578125 C12.7390625,0.9578125 20.1148438,0.9578125 20.1148438,0.9578125 C21.025,1.00546875 21.8390625,1.340625 22.509375,2.01171875 C23.1796875,2.6828125 23.5148438,3.49609375 23.5632813,4.40625 C23.5632813,4.40625 23.5632813,4.40625 23.5632813,4.40625 Z M5.69921875,11.7820313 C5.69921875,11.7820313 10.009375,7.90234375 10.009375,7.90234375 C10.009375,7.90234375 9.3390625,7.1359375 9.3390625,7.1359375 C9.3390625,7.1359375 4.40625,11.5898438 4.40625,11.5898438 C4.40625,11.5898438 4.35859375,11.5898438 4.35859375,11.5898438 C4.35859375,11.5898438 4.07109375,11.925 4.07109375,11.925 C4.07109375,11.925 3.7359375,12.2125 3.7359375,12.2125 C3.7359375,12.2125 3.7359375,12.2601563 3.7359375,12.2601563 C3.7359375,12.2601563 3.7359375,12.3078125 3.7359375,12.3078125 C3.7359375,12.3078125 4.07109375,12.5953125 4.07109375,12.5953125 C4.07109375,12.5953125 4.35859375,12.9304687 4.35859375,12.9304687 C4.35859375,12.9304687 4.40625,12.9304687 4.40625,12.9304687 C4.40625,12.9304687 9.3390625,17.384375 9.3390625,17.384375 C9.3390625,17.384375 10.009375,16.6179687 10.009375,16.6179687 C10.009375,16.6179687 5.69921875,12.7382812 5.69921875,12.7382812 C5.69921875,12.7382812 19.6359375,12.7382812 19.6359375,12.7382812 C19.6359375,12.7382812 19.6359375,11.7804687 19.6359375,11.7804687 C19.6359375,11.7804687 5.69921875,11.7804687 5.69921875,11.7804687 L5.69921875,11.7820313 Z"/>
  <title>Arrow Left Column</title>
</svg>