<svg xmlns="http://www.w3.org/2000/svg" viewBox="0 0 25 25" id="arrow-left">
  <path d="M6.353125,12.8609375 C6.353125,12.8609375 11.4773438,17.9851562 11.4773438,17.9851562 C11.7164063,18.1289062 11.8601563,18.3679688 11.8601563,18.7039063 C11.8601563,18.7039063 11.8601563,18.7039063 11.8601563,18.7039063 C11.8601563,19.3742188 11.525,19.709375 10.8546875,19.709375 C10.8546875,19.709375 10.8546875,19.709375 10.8546875,19.709375 C10.615625,19.709375 10.3757813,19.6132812 10.184375,19.421875 C10.184375,19.421875 10.184375,19.421875 10.184375,19.421875 C10.184375,19.421875 3.2875,12.5734375 3.2875,12.5734375 C3.2875,12.5734375 3.19140625,12.4296875 3.19140625,12.4296875 C3.04765625,12.190625 3,11.9984375 3,11.8546875 C3,11.8546875 3,11.8546875 3,11.8546875 C3,11.8070313 3.04765625,11.615625 3.19140625,11.2796875 C3.19140625,11.2796875 3.19140625,11.2796875 3.19140625,11.2796875 C3.19140625,11.2796875 3.2875,11.1359375 3.2875,11.1359375 C3.2875,11.1359375 10.184375,4.2875 10.184375,4.2875 C10.3757812,4.09609375 10.615625,4 10.8546875,4 C10.8546875,4 10.8546875,4 10.8546875,4 C11.525,4 11.8601562,4.33515625 11.8601562,4.9578125 C11.8601562,4.9578125 11.8601562,4.9578125 11.8601562,4.9578125 C11.8601562,5.340625 11.7164063,5.58046875 11.4773437,5.72421875 C11.4773437,5.72421875 11.4773437,5.72421875 11.4773437,5.72421875 C11.4773437,5.72421875 6.353125,10.8484375 6.353125,10.8484375 C6.353125,10.8484375 21.6789063,10.8484375 21.6789063,10.8484375 C22.3015625,10.8484375 22.6367188,11.1835938 22.6367188,11.8539063 C22.6367188,12.5242188 22.3015625,12.859375 21.6789063,12.859375 C21.6789063,12.859375 21.6789063,12.859375 21.6789063,12.859375 C21.6789063,12.859375 6.353125,12.859375 6.353125,12.859375 L6.353125,12.8609375 Z"/>
  <title>Arrow Left</title>
</svg>