<svg xmlns="http://www.w3.org/2000/svg" viewBox="0 0 25 25" id="arrow-out">
  <path d="M23.4148437,11.925 C23.5109375,12.0210937 23.5585937,12.1164062 23.5585937,12.2601562 C23.5585937,12.4039062 23.5109375,12.4992187 23.4148437,12.5953125 C23.4148437,12.5953125 23.4148437,12.5953125 23.4148437,12.5953125 C23.4148437,12.5953125 18.5296875,17.528125 18.5296875,17.528125 C18.3859375,17.5757812 18.290625,17.6242188 18.146875,17.6242188 C18.146875,17.6242188 18.146875,17.6242188 18.146875,17.6242188 C17.8117188,17.6242188 17.6679688,17.4804688 17.6679688,17.1453125 C17.6679688,17.1453125 17.6679688,17.1453125 17.6679688,17.1453125 C17.6679688,17.0015625 17.715625,16.90625 17.8117188,16.8101563 C17.8117188,16.8101563 17.8117188,16.8101563 17.8117188,16.8101563 C17.8117188,16.8101563 21.8828125,12.7390625 21.8828125,12.7390625 C21.8828125,12.7390625 6.41328125,12.7390625 6.41328125,12.7390625 C6.078125,12.7390625 5.88671875,12.5953125 5.88671875,12.2601563 C5.88671875,11.925 6.078125,11.78125 6.41328125,11.78125 C6.41328125,11.78125 6.41328125,11.78125 6.41328125,11.78125 C6.41328125,11.78125 21.8828125,11.78125 21.8828125,11.78125 C21.8828125,11.78125 17.8117188,7.71015625 17.8117188,7.71015625 C17.715625,7.6140625 17.6679688,7.51875 17.6679688,7.375 C17.6679688,7.375 17.6679688,7.375 17.6679688,7.375 C17.6679688,7.03984375 17.8117188,6.8484375 18.146875,6.8484375 C18.146875,6.8484375 18.146875,6.8484375 18.146875,6.8484375 C18.1945313,6.8484375 18.3382813,6.89609375 18.5296875,6.9921875 C18.5296875,6.9921875 18.5296875,6.9921875 18.5296875,6.9921875 C18.5296875,6.9921875 23.4148437,11.925 23.4148437,11.925 L23.4148437,11.925 Z M14.2195313,18.6304687 C14.2195313,18.6304687 14.2195313,18.6304687 14.2195313,18.6304687 C13.884375,18.6304687 13.740625,18.7742187 13.740625,19.109375 C13.740625,19.109375 13.740625,19.109375 13.740625,19.109375 C13.740625,19.109375 13.740625,23.0367187 13.740625,23.0367187 C13.740625,23.371875 13.596875,23.515625 13.2617188,23.515625 C13.2617188,23.515625 13.2617188,23.515625 13.2617188,23.515625 C13.2617188,23.515625 2.4859375,23.515625 2.4859375,23.515625 C2.15078125,23.515625 1.959375,23.371875 1.959375,23.0367187 C1.959375,23.0367187 1.959375,23.0367187 1.959375,23.0367187 C1.959375,23.0367187 1.959375,1.48515625 1.959375,1.48515625 C1.959375,1.15 2.15078125,0.95859375 2.4859375,0.95859375 C2.4859375,0.95859375 2.4859375,0.95859375 2.4859375,0.95859375 C2.4859375,0.95859375 13.2617188,0.95859375 13.2617188,0.95859375 C13.596875,0.95859375 13.740625,1.15 13.740625,1.48515625 C13.740625,1.48515625 13.740625,1.48515625 13.740625,1.48515625 C13.740625,1.48515625 13.740625,5.4125 13.740625,5.4125 C13.740625,5.74765625 13.884375,5.89140625 14.2195313,5.89140625 C14.2195313,5.89140625 14.2195313,5.89140625 14.2195313,5.89140625 C14.5546875,5.89140625 14.7460938,5.74765625 14.7460938,5.4125 C14.7460938,5.4125 14.7460938,5.4125 14.7460938,5.4125 C14.7460938,5.4125 14.7460938,1.48515625 14.7460938,1.48515625 C14.7460938,1.05390625 14.6023437,0.71875 14.3148437,0.43125 C14.0273438,0.14375 13.6921875,0 13.2609375,0 C13.2609375,0 13.2609375,0 13.2609375,0 C13.2609375,0 2.48515625,0 2.48515625,0 C2.05390625,0 1.71875,0.14375 1.43125,0.43125 C1.14375,0.71875 1,1.05390625 1,1.48515625 C1,1.48515625 1,1.48515625 1,1.48515625 C1,1.48515625 1,23.0367187 1,23.0367187 C1,23.4679687 1.14375,23.803125 1.43125,24.090625 C1.71875,24.378125 2.05390625,24.521875 2.48515625,24.521875 C2.48515625,24.521875 2.48515625,24.521875 2.48515625,24.521875 C2.48515625,24.521875 13.2609375,24.521875 13.2609375,24.521875 C13.6921875,24.521875 14.0273438,24.378125 14.3148437,24.090625 C14.6023437,23.803125 14.7460938,23.4679688 14.7460938,23.0367188 C14.7460938,23.0367188 14.7460938,23.0367188 14.7460938,23.0367188 C14.7460938,23.0367188 14.7460938,19.109375 14.7460938,19.109375 C14.7460938,18.7742188 14.5546875,18.6304688 14.2195313,18.6304687 Z"/>
  <title>Arrow Out</title>
</svg>