<svg xmlns="http://www.w3.org/2000/svg" viewBox="0 0 25 25" id="arrow-bend-left">
  <path d="M14.7390625,22.5945312 C14.7390625,22.5945312 7.41171875,22.5945312 7.41171875,22.5945312 C7.41171875,22.5945312 7.41171875,22.5945312 7.41171875,22.5945312 C7.0765625,22.5945312 6.88515625,22.4507812 6.88515625,22.115625 C6.88515625,21.7804688 7.0765625,21.6367188 7.41171875,21.6367188 C7.41171875,21.6367188 14.7390625,21.6367188 14.7390625,21.6367188 C14.7390625,21.6367188 14.7390625,21.6367188 14.7390625,21.6367188 C16.6070312,21.6367188 18.2351562,20.9664062 19.6242188,19.5773438 C20.9648438,18.2367188 21.6359375,16.6078125 21.6359375,14.7398438 C21.6359375,12.871875 20.965625,11.24375 19.6242188,9.90234375 C18.2351562,8.56171875 16.6070312,7.890625 14.7390625,7.890625 C14.7390625,7.890625 3.67578125,7.890625 3.67578125,7.890625 C3.67578125,7.890625 7.746875,11.9617188 7.746875,11.9617188 C7.746875,11.9617188 7.746875,11.9617188 7.746875,11.9617188 C7.84296875,12.0578125 7.890625,12.153125 7.890625,12.296875 C7.890625,12.296875 7.890625,12.296875 7.890625,12.296875 C7.890625,12.6320313 7.69921875,12.7757813 7.3640625,12.7757813 C7.3640625,12.7757813 7.3640625,12.7757813 7.3640625,12.7757813 C7.2203125,12.7757813 7.125,12.728125 7.02890625,12.6320313 C7.02890625,12.6320313 2.14375,7.746875 2.14375,7.746875 C2.14375,7.746875 2.14375,7.746875 2.14375,7.746875 C2.04765625,7.65078125 2,7.55546875 2,7.41171875 C2,7.41171875 2,7.41171875 2,7.41171875 C2,7.26796875 2.04765625,7.12421875 2.14375,7.02890625 C2.14375,7.02890625 7.02890625,2.14375 7.02890625,2.14375 C7.02890625,2.14375 7.02890625,2.14375 7.02890625,2.14375 C7.125,2.04765625 7.26796875,2 7.41171875,2 C7.41171875,2 7.41171875,2 7.41171875,2 C7.746875,2 7.890625,2.14375 7.890625,2.47890625 C7.890625,2.47890625 7.890625,2.47890625 7.890625,2.47890625 C7.890625,2.6703125 7.84296875,2.76640625 7.746875,2.8140625 C7.746875,2.8140625 3.67578125,6.88515625 3.67578125,6.88515625 C3.67578125,6.88515625 14.7390625,6.88515625 14.7390625,6.88515625 C14.7390625,6.88515625 14.7390625,6.88515625 14.7390625,6.88515625 C16.8945312,6.9328125 18.7617188,7.69921875 20.2945312,9.184375 C21.8273438,10.7171875 22.59375,12.5851562 22.59375,14.7398437 C22.59375,16.8945312 21.8273438,18.7625 20.2945312,20.2953125 C18.7617188,21.828125 16.8945312,22.5945312 14.7390625,22.5945312 Z"/>
  <title>Arrow Bend Left</title>
</svg>