<svg xmlns="http://www.w3.org/2000/svg" viewBox="0 0 25 25" id="arrow-in">
  <path d="M12.925,16.8101562 C12.925,16.8101562 16.9960938,12.7390625 16.9960938,12.7390625 C16.9960938,12.7390625 1.47890625,12.7390625 1.47890625,12.7390625 C1.14375,12.7390625 1,12.5953125 1,12.2601562 C1,11.925 1.14375,11.78125 1.47890625,11.78125 C1.47890625,11.78125 1.47890625,11.78125 1.47890625,11.78125 C1.47890625,11.78125 16.9960938,11.78125 16.9960938,11.78125 C16.9960938,11.78125 12.925,7.71015625 12.925,7.71015625 C12.8289062,7.6140625 12.78125,7.51875 12.78125,7.375 C12.78125,7.375 12.78125,7.375 12.78125,7.375 C12.78125,7.03984375 12.925,6.8484375 13.2601562,6.8484375 C13.2601562,6.8484375 13.2601562,6.8484375 13.2601562,6.8484375 C13.3078125,6.8484375 13.4039063,6.89609375 13.5953125,6.9921875 C13.5953125,6.9921875 13.5953125,6.9921875 13.5953125,6.9921875 C13.5953125,6.9921875 18.528125,11.925 18.528125,11.925 C18.6242188,12.1164062 18.671875,12.2125 18.671875,12.2601562 C18.671875,12.3078125 18.6242188,12.4039062 18.528125,12.5953125 C18.528125,12.5953125 18.528125,12.5953125 18.528125,12.5953125 C18.528125,12.5953125 13.5953125,17.528125 13.5953125,17.528125 C13.4515625,17.5757812 13.35625,17.6242187 13.2601562,17.6242187 C13.2601562,17.6242187 13.2601562,17.6242187 13.2601562,17.6242187 C12.925,17.6242187 12.78125,17.4804687 12.78125,17.1453125 C12.78125,17.1453125 12.78125,17.1453125 12.78125,17.1453125 C12.78125,17.0015625 12.8289062,16.90625 12.925,16.8101562 C12.925,16.8101562 12.925,16.8101562 12.925,16.8101562 Z M22.0726563,0 C22.0726563,0 22.0726563,0 22.0726563,0 C22.0726563,0 11.296875,0 11.296875,0 C10.865625,0 10.5304688,0.14375 10.2429688,0.43125 C9.95546875,0.71875 9.81171875,1.05390625 9.81171875,1.48515625 C9.81171875,1.48515625 9.81171875,1.48515625 9.81171875,1.48515625 C9.81171875,1.48515625 9.81171875,5.4125 9.81171875,5.4125 C9.81171875,5.74765625 10.003125,5.89140625 10.3382812,5.89140625 C10.3382812,5.89140625 10.3382812,5.89140625 10.3382812,5.89140625 C10.6734375,5.89140625 10.8171875,5.74765625 10.8171875,5.4125 C10.8171875,5.4125 10.8171875,5.4125 10.8171875,5.4125 C10.8171875,5.4125 10.8171875,1.48515625 10.8171875,1.48515625 C10.8171875,1.15 10.9609375,0.95859375 11.2960938,0.95859375 C11.2960938,0.95859375 11.2960938,0.95859375 11.2960938,0.95859375 C11.2960938,0.95859375 22.071875,0.95859375 22.071875,0.95859375 C22.4070313,0.95859375 22.5984375,1.15 22.5984375,1.48515625 C22.5984375,1.48515625 22.5984375,1.48515625 22.5984375,1.48515625 C22.5984375,1.48515625 22.5984375,23.0367188 22.5984375,23.0367188 C22.5984375,23.371875 22.4070313,23.515625 22.071875,23.515625 C22.071875,23.515625 22.071875,23.515625 22.071875,23.515625 C22.071875,23.515625 11.2960938,23.515625 11.2960938,23.515625 C10.9609375,23.515625 10.8171875,23.371875 10.8171875,23.0367188 C10.8171875,23.0367188 10.8171875,23.0367188 10.8171875,23.0367188 C10.8171875,23.0367188 10.8171875,19.109375 10.8171875,19.109375 C10.8171875,18.7742187 10.6734375,18.6304688 10.3382812,18.6304688 C10.3382812,18.6304688 10.3382812,18.6304688 10.3382812,18.6304688 C10.003125,18.6304688 9.81171875,18.7742187 9.81171875,19.109375 C9.81171875,19.109375 9.81171875,19.109375 9.81171875,19.109375 C9.81171875,19.109375 9.81171875,23.0367188 9.81171875,23.0367188 C9.81171875,23.4679688 9.95546875,23.803125 10.2429688,24.090625 C10.5304688,24.378125 10.865625,24.521875 11.296875,24.521875 C11.296875,24.521875 11.296875,24.521875 11.296875,24.521875 C11.296875,24.521875 22.0726563,24.521875 22.0726563,24.521875 C22.5039063,24.521875 22.8390625,24.378125 23.1265625,24.090625 C23.4140625,23.803125 23.5578125,23.4679688 23.5578125,23.0367188 C23.5578125,23.0367188 23.5578125,23.0367188 23.5578125,23.0367188 C23.5578125,23.0367188 23.5578125,1.48515625 23.5578125,1.48515625 C23.5578125,1.05390625 23.4140625,0.71875 23.1265625,0.43125 C22.8390625,0.14375 22.5039062,0 22.0726563,0 L22.0726563,0 Z"/>
  <title>Arrow In</title>
</svg>