<svg xmlns="http://www.w3.org/2000/svg" viewBox="0 0 25 25" id="arrow-up-down">
  <path d="M14.8117188,22.59375 C14.8117188,22.59375 14.8117188,11.8179687 14.8117188,11.8179687 C14.8117188,11.1476562 15.146875,10.8125 15.7695312,10.8125 C15.7695312,10.8125 15.7695312,10.8125 15.7695312,10.8125 C16.4398438,10.8125 16.775,11.1476563 16.775,11.8179687 C16.775,11.8179687 16.775,11.8179687 16.775,11.8179687 C16.775,11.8179687 16.775,22.59375 16.775,22.59375 C16.775,23.2164062 16.4398438,23.5515625 15.7695312,23.5515625 C15.7695312,23.5515625 15.7695312,23.5515625 15.7695312,23.5515625 C15.146875,23.5515625 14.8117188,23.2164062 14.8117188,22.59375 C14.8117188,22.59375 14.8117188,22.59375 14.8117188,22.59375 Z M8.92109375,13.7335938 C8.92109375,13.7335938 8.92109375,2.9578125 8.92109375,2.9578125 C8.92109375,2.33515625 9.25625,2 9.9265625,2 C9.9265625,2 9.9265625,2 9.9265625,2 C10.5492188,2 10.884375,2.33515625 10.884375,2.9578125 C10.884375,2.9578125 10.884375,2.9578125 10.884375,2.9578125 C10.884375,2.9578125 10.884375,13.7335938 10.884375,13.7335938 C10.884375,14.4039063 10.5492188,14.7390625 9.9265625,14.7390625 C9.9265625,14.7390625 9.9265625,14.7390625 9.9265625,14.7390625 C9.25625,14.7390625 8.92109375,14.4039063 8.92109375,13.7335938 C8.92109375,13.7335938 8.92109375,13.7335938 8.92109375,13.7335938 Z M15.7695313,21.2046875 C15.7695313,21.2046875 20.0320312,16.9898438 20.0320312,16.9898438 C20.4632813,16.4632813 20.9421875,16.4632813 21.3726562,16.9898438 C21.3726562,16.9898438 21.3726562,16.9898438 21.3726562,16.9898438 C21.8039063,17.4210938 21.8039063,17.8515625 21.3726562,18.3789062 C21.3726562,18.3789062 21.3726562,18.3789062 21.3726562,18.3789062 C21.3726562,18.3789062 16.4875,23.2640625 16.4875,23.2640625 C16.2960938,23.4554688 16.05625,23.5515625 15.76875,23.5515625 C15.76875,23.5515625 15.76875,23.5515625 15.76875,23.5515625 C15.5296875,23.5515625 15.2898438,23.4554687 15.0984375,23.2640625 C15.0984375,23.2640625 15.0984375,23.2640625 15.0984375,23.2640625 C15.0984375,23.2640625 10.2132813,18.3789062 10.2132813,18.3789062 C9.68671875,17.9 9.68671875,17.4210938 10.2132813,16.9898438 C10.2132813,16.9898438 10.2132813,16.9898438 10.2132813,16.9898438 C10.6445312,16.4632813 11.1234375,16.4632813 11.5539063,16.9898438 C11.5539063,16.9898438 11.5539063,16.9898438 11.5539063,16.9898438 C11.5539063,16.9898438 15.76875,21.2046875 15.76875,21.2046875 L15.7695313,21.2046875 Z M10.4054688,2.47890625 C10.4054688,2.47890625 10.596875,2.2875 10.596875,2.2875 C10.596875,2.2875 15.4820313,7.17265625 15.4820313,7.17265625 C16.0085937,7.6515625 16.0085937,8.13046875 15.4820313,8.56171875 C15.4820313,8.56171875 15.4820313,8.56171875 15.4820313,8.56171875 C15.0507813,9.08828125 14.571875,9.08828125 14.1414062,8.56171875 C14.1414062,8.56171875 14.1414062,8.56171875 14.1414062,8.56171875 C14.1414062,8.56171875 9.9265625,4.346875 9.9265625,4.346875 C9.9265625,4.346875 5.6640625,8.56171875 5.6640625,8.56171875 C5.2328125,9.08828125 4.75390625,9.08828125 4.3234375,8.56171875 C4.3234375,8.56171875 4.3234375,8.56171875 4.3234375,8.56171875 C3.8921875,8.13046875 3.8921875,7.7 4.3234375,7.17265625 C4.3234375,7.17265625 4.3234375,7.17265625 4.3234375,7.17265625 C4.3234375,7.17265625 9.20859375,2.2875 9.20859375,2.2875 C9.4,2.09609375 9.63984375,2 9.92734375,2 C9.92734375,2 9.92734375,2 9.92734375,2 C9.92734375,2 10.40625,2 10.40625,2 C10.40625,2 10.40625,2.47890625 10.40625,2.47890625 L10.4054688,2.47890625 Z"/>
  <title>Arrow Up Down</title>
</svg>