<svg xmlns="http://www.w3.org/2000/svg" viewBox="0 0 25 25" id="arrow-between-column-down">
  <path d="M24.5203125,5.8921875 C24.5203125,5.8921875 23.5625,5.8921875 23.5625,5.8921875 C23.5625,5.8921875 23.5625,23.5164062 23.5625,23.5164062 C23.5625,23.5164062 17.671875,23.5164062 17.671875,23.5164062 C17.671875,23.5164062 17.671875,13.2195312 17.671875,13.2195312 C17.671875,13.2195312 16.6664062,13.2195312 16.6664062,13.2195312 C16.6664062,13.2195312 16.6664062,23.5164062 16.6664062,23.5164062 C16.6664062,23.5164062 7.85390625,23.5164062 7.85390625,23.5164062 C7.85390625,23.5164062 7.85390625,13.2195312 7.85390625,13.2195312 C7.85390625,13.2195312 6.8484375,13.2195312 6.8484375,13.2195312 C6.8484375,13.2195312 6.8484375,23.5164062 6.8484375,23.5164062 C6.8484375,23.5164062 0.9578125,23.5164062 0.9578125,23.5164062 C0.9578125,23.5164062 0.9578125,5.8921875 0.9578125,5.8921875 C0.9578125,5.8921875 0,5.8921875 0,5.8921875 C0,5.8921875 0,24.5226562 0,24.5226562 C0,24.5226562 24.5210937,24.5226562 24.5210937,24.5226562 C24.5210937,24.5226562 24.5210937,5.8921875 24.5210937,5.8921875 L24.5203125,5.8921875 Z M12.2601562,11.9742188 C12.2601562,11.9742188 12.9304687,11.2554688 12.9304687,11.2554688 C12.9304687,11.2554688 17.3367187,6.896875 17.3367187,6.896875 C17.3367187,6.896875 16.6664062,6.178125 16.6664062,6.178125 C16.6664062,6.178125 12.7390625,10.1054688 12.7390625,10.1054688 C12.7390625,10.1054688 12.7390625,0 12.7390625,0 C12.7390625,0 11.78125,0 11.78125,0 C11.78125,0 11.78125,10.1054688 11.78125,10.1054688 C11.78125,10.1054688 7.85390625,6.178125 7.85390625,6.178125 C7.85390625,6.178125 7.18359375,6.896875 7.18359375,6.896875 C7.18359375,6.896875 12.2601562,11.9734375 12.2601562,11.9734375 L12.2601562,11.9742188 Z"/>
  <title>Arrow Between Column Down</title>
</svg>