<svg xmlns="http://www.w3.org/2000/svg" viewBox="0 0 25 25" id="arrow-below-or">
  <path d="M23.5632812,1 C23.5632812,1 23.5632812,10.8179688 23.5632812,10.8179688 C23.5632812,10.8179688 24.5210937,10.8179688 24.5210937,10.8179688 C24.5210937,10.8179688 24.5210937,1 24.5210937,1 C24.5210937,1 23.5632812,1 23.5632812,1 Z M18.6304687,1 C18.6304687,1 18.6304687,10.8179688 18.6304687,10.8179688 C18.6304687,10.8179688 19.6359375,10.8179688 19.6359375,10.8179688 C19.6359375,10.8179688 19.6359375,1 19.6359375,1 C19.6359375,1 18.6304687,1 18.6304687,1 Z M18.9179687,18.7203125 C18.9179687,18.7203125 14.990625,14.7453125 14.990625,14.7453125 C14.990625,14.7453125 15.709375,14.075 15.709375,14.075 C15.709375,14.075 20.115625,18.4335938 20.115625,18.4335938 C20.115625,18.4335938 20.7859375,19.2 20.7859375,19.2 C20.7859375,19.2 15.709375,24.2765625 15.709375,24.2765625 C15.709375,24.2765625 14.990625,23.60625 14.990625,23.60625 C14.990625,23.60625 18.9179687,19.63125 18.9179687,19.63125 C18.9179687,19.63125 0,19.63125 0,19.63125 C0,19.63125 0,18.7210938 0,18.7210938 C0,18.7210938 18.9179687,18.7210938 18.9179687,18.7210938 L18.9179687,18.7203125 Z"/>
  <title>Arrow Below Or</title>
</svg>