<svg xmlns="http://www.w3.org/2000/svg" viewBox="0 0 25 25" id="arrow-down">
  <path d="M13.8601562,18.2835937 C13.8601562,18.2835937 18.984375,13.159375 18.984375,13.159375 C19.1757812,12.9203125 19.415625,12.7765625 19.7507813,12.7765625 C19.7507813,12.7765625 19.7507813,12.7765625 19.7507813,12.7765625 C20.3734375,12.7765625 20.7085937,13.1117187 20.7085937,13.7820312 C20.7085937,13.7820312 20.7085937,13.7820312 20.7085937,13.7820312 C20.7085937,14.0210937 20.6125,14.2609375 20.4210938,14.4523437 C20.4210938,14.4523437 20.4210938,14.4523437 20.4210938,14.4523437 C20.4210938,14.4523437 13.5726563,21.3492187 13.5726563,21.3492187 C13.5726563,21.3492187 13.4289063,21.4453125 13.4289063,21.4453125 C13.1898438,21.5890625 12.9976563,21.6367188 12.9023438,21.6367188 C12.9023438,21.6367188 12.9023438,21.6367188 12.9023438,21.6367188 C12.7585938,21.6367188 12.5195313,21.5890625 12.2796875,21.4453125 C12.2796875,21.4453125 12.2796875,21.4453125 12.2796875,21.4453125 C12.2796875,21.4453125 12.1359375,21.3492187 12.1359375,21.3492187 C12.1359375,21.3492187 5.2875,14.4523437 5.2875,14.4523437 C5.09609375,14.2132812 5,13.9734375 5,13.7820312 C5,13.7820312 5,13.7820312 5,13.7820312 C5,13.1117187 5.33515625,12.7765625 6.00546875,12.7765625 C6.00546875,12.7765625 6.00546875,12.7765625 6.00546875,12.7765625 C6.340625,12.7765625 6.58046875,12.9203125 6.72421875,13.159375 C6.72421875,13.159375 6.72421875,13.159375 6.72421875,13.159375 C6.72421875,13.159375 11.8484375,18.2835937 11.8484375,18.2835937 C11.8484375,18.2835937 11.8484375,2.9578125 11.8484375,2.9578125 C11.8484375,2.33515625 12.1835937,2 12.9023437,2 C12.9023437,2 12.9023437,2 12.9023437,2 C13.525,2 13.8601562,2.33515625 13.8601562,2.9578125 C13.8601562,2.9578125 13.8601562,2.9578125 13.8601562,2.9578125 C13.8601562,2.9578125 13.8601562,18.2835937 13.8601562,18.2835937 Z"/>
  <title>Arrow Down</title>
</svg>