<svg xmlns="http://www.w3.org/2000/svg" viewBox="0 0 25 25" id="arrow-below-row-left">
  <path d="M6.7046875,16.7039062 C6.7046875,16.7039062 11.0148438,12.8242188 11.0148438,12.8242188 C11.0148438,12.8242188 10.3445313,12.1054688 10.3445313,12.1054688 C10.3445313,12.1054688 4.6453125,17.1820313 4.6453125,17.1820313 C4.6453125,17.1820313 10.3445313,22.30625 10.3445313,22.30625 C10.3445313,22.30625 11.0148438,21.5875 11.0148438,21.5875 C11.0148438,21.5875 6.65625,17.6601562 6.65625,17.6601562 C6.65625,17.6601562 24.5203125,17.6601562 24.5203125,17.6601562 C24.5203125,17.6601562 24.5203125,16.7023437 24.5203125,16.7023437 C24.5203125,16.7023437 6.70390625,16.7023437 6.70390625,16.7023437 L6.7046875,16.7039062 Z M24.5210937,10.8125 C24.5210937,10.8125 24.5210937,2 24.5210937,2 C24.5210937,2 0,2 0,2 C0,2 0,10.8125 0,10.8125 C0,10.8125 24.5210937,10.8125 24.5210937,10.8125 Z M7.8546875,9.8546875 C7.8546875,9.8546875 0.9578125,9.8546875 0.9578125,9.8546875 C0.9578125,9.8546875 0.9578125,2.9578125 0.9578125,2.9578125 C0.9578125,2.9578125 7.8546875,2.9578125 7.8546875,2.9578125 C7.8546875,2.9578125 7.8546875,9.8546875 7.8546875,9.8546875 Z M15.7085938,9.8546875 C15.7085938,9.8546875 8.81171875,9.8546875 8.81171875,9.8546875 C8.81171875,9.8546875 8.81171875,2.9578125 8.81171875,2.9578125 C8.81171875,2.9578125 15.7085938,2.9578125 15.7085938,2.9578125 C15.7085938,2.9578125 15.7085938,9.8546875 15.7085938,9.8546875 Z M23.5632813,2.95859375 C23.5632813,2.95859375 23.5632813,9.85546875 23.5632813,9.85546875 C23.5632813,9.85546875 16.6664063,9.85546875 16.6664063,9.85546875 C16.6664063,9.85546875 16.6664063,2.95859375 16.6664063,2.95859375 C16.6664063,2.95859375 23.5632813,2.95859375 23.5632813,2.95859375 Z"/>
  <title>Arrow Below Row Left</title>
</svg>