<svg xmlns="http://www.w3.org/2000/svg" viewBox="0 0 25 25" id="arrow-right">
  <path d="M19.2835937,10.8484375 C19.2835937,10.8484375 14.159375,5.72421875 14.159375,5.72421875 C13.9203125,5.5328125 13.8242188,5.29296875 13.8242188,4.9578125 C13.8242188,4.9578125 13.8242188,4.9578125 13.8242188,4.9578125 C13.8242188,4.33515625 14.159375,4 14.7820312,4 C14.7820312,4 14.7820312,4 14.7820312,4 C15.0210937,4 15.2609375,4.09609375 15.4523437,4.2875 C15.4523437,4.2875 15.4523437,4.2875 15.4523437,4.2875 C15.4523437,4.2875 22.3492187,11.1359375 22.3492187,11.1359375 C22.3492187,11.1359375 22.4453125,11.2796875 22.4453125,11.2796875 C22.5890625,11.51875 22.6367188,11.7109375 22.6367188,11.80625 C22.6367188,11.80625 22.6367188,11.80625 22.6367188,11.80625 C22.6367188,11.95 22.5890625,12.1890625 22.4453125,12.4289062 C22.4453125,12.4289062 22.4453125,12.4289062 22.4453125,12.4289062 C22.4453125,12.4289062 22.3492187,12.5726563 22.3492187,12.5726563 C22.3492187,12.5726563 15.4523437,19.4210938 15.4523437,19.4210938 C15.2609375,19.6125 15.0210937,19.7085937 14.7820312,19.7085937 C14.7820312,19.7085937 14.7820312,19.7085937 14.7820312,19.7085937 C14.159375,19.7085937 13.8242188,19.3734375 13.8242188,18.703125 C13.8242188,18.703125 13.8242188,18.703125 13.8242188,18.703125 C13.8242188,18.3679688 13.9203125,18.128125 14.159375,17.984375 C14.159375,17.984375 14.159375,17.984375 14.159375,17.984375 C14.159375,17.984375 19.2835937,12.8601562 19.2835937,12.8601562 C19.2835937,12.8601562 3.9578125,12.8601562 3.9578125,12.8601562 C3.33515625,12.8601562 3,12.525 3,11.80625 C3,11.80625 3,11.80625 3,11.80625 C3,11.1835937 3.33515625,10.8484375 3.9578125,10.8484375 C3.9578125,10.8484375 3.9578125,10.8484375 3.9578125,10.8484375 C3.9578125,10.8484375 19.2835937,10.8484375 19.2835937,10.8484375 L19.2835937,10.8484375 Z"/>
  <title>Arrow Right</title>
</svg>