<svg xmlns="http://www.w3.org/2000/svg" viewBox="0 0 25 25" id="arrow-above-row-right">
  <path d="M14.1765625,2 C14.1765625,2 13.50625,2.71875 13.50625,2.71875 C13.50625,2.71875 17.8648437,6.64609375 17.8648437,6.64609375 C17.8648437,6.64609375 0.00078125,6.64609375 0.00078125,6.64609375 C0.00078125,6.64609375 0.00078125,7.60390625 0.00078125,7.60390625 C0.00078125,7.60390625 17.8171875,7.60390625 17.8171875,7.60390625 C17.8171875,7.60390625 13.5070313,11.4835938 13.5070313,11.4835938 C13.5070313,11.4835938 14.1773438,12.2023438 14.1773438,12.2023438 C14.1773438,12.2023438 19.8765625,7.12578125 19.8765625,7.12578125 C19.8765625,7.12578125 14.1773437,2.0015625 14.1773437,2.0015625 L14.1765625,2 Z M24.5210937,22.30625 C24.5210937,22.30625 0,22.30625 0,22.30625 C0,22.30625 0,13.49375 0,13.49375 C0,13.49375 24.5210937,13.49375 24.5210937,13.49375 C24.5210937,13.49375 24.5210937,22.30625 24.5210937,22.30625 Z M16.6664063,14.4515625 C16.6664063,14.4515625 16.6664063,21.3484375 16.6664063,21.3484375 C16.6664063,21.3484375 23.5632813,21.3484375 23.5632813,21.3484375 C23.5632813,21.3484375 23.5632813,14.4515625 23.5632813,14.4515625 C23.5632813,14.4515625 16.6664063,14.4515625 16.6664063,14.4515625 Z M8.8125,14.4515625 C8.8125,14.4515625 8.8125,21.3484375 8.8125,21.3484375 C8.8125,21.3484375 15.709375,21.3484375 15.709375,21.3484375 C15.709375,21.3484375 15.709375,14.4515625 15.709375,14.4515625 C15.709375,14.4515625 8.8125,14.4515625 8.8125,14.4515625 Z M0.9578125,14.4515625 C0.9578125,14.4515625 0.9578125,21.3484375 0.9578125,21.3484375 C0.9578125,21.3484375 7.8546875,21.3484375 7.8546875,21.3484375 C7.8546875,21.3484375 7.8546875,14.4515625 7.8546875,14.4515625 C7.8546875,14.4515625 0.9578125,14.4515625 0.9578125,14.4515625 Z"/>
  <title>Arrow Above Row Right</title>
</svg>