<svg xmlns="http://www.w3.org/2000/svg" viewBox="0 0 25 25" id="arrow-bend-right">
  <path d="M4.29921875,20.2953125 C2.76640625,18.7625 2,16.8953125 2,14.7398438 C2,12.584375 2.76640625,10.7171875 4.29921875,9.184375 C5.83203125,7.7 7.7,6.93359375 9.8546875,6.88515625 C9.8546875,6.88515625 9.8546875,6.88515625 9.8546875,6.88515625 C9.8546875,6.88515625 20.9179688,6.88515625 20.9179688,6.88515625 C20.9179688,6.88515625 16.846875,2.8140625 16.846875,2.8140625 C16.7507813,2.76640625 16.703125,2.6703125 16.703125,2.47890625 C16.703125,2.47890625 16.703125,2.47890625 16.703125,2.47890625 C16.703125,2.14375 16.846875,2 17.1820313,2 C17.1820313,2 17.1820313,2 17.1820313,2 C17.3257813,2 17.4695312,2.04765625 17.5648437,2.14375 C17.5648437,2.14375 17.5648437,2.14375 17.5648437,2.14375 C17.5648437,2.14375 22.45,7.02890625 22.45,7.02890625 C22.5460938,7.125 22.59375,7.26796875 22.59375,7.41171875 C22.59375,7.41171875 22.59375,7.41171875 22.59375,7.41171875 C22.59375,7.55546875 22.5460938,7.65078125 22.45,7.746875 C22.45,7.746875 22.45,7.746875 22.45,7.746875 C22.45,7.746875 17.5648437,12.6320313 17.5648437,12.6320313 C17.46875,12.728125 17.3734375,12.7757813 17.2296875,12.7757813 C17.2296875,12.7757813 17.2296875,12.7757813 17.2296875,12.7757813 C16.8945312,12.7757813 16.703125,12.6320313 16.703125,12.296875 C16.703125,12.296875 16.703125,12.296875 16.703125,12.296875 C16.703125,12.153125 16.7507813,12.0578125 16.846875,11.9617188 C16.846875,11.9617188 16.846875,11.9617188 16.846875,11.9617188 C16.846875,11.9617188 20.9179688,7.890625 20.9179688,7.890625 C20.9179688,7.890625 9.8546875,7.890625 9.8546875,7.890625 C7.98671875,7.890625 6.35859375,8.5609375 5.0171875,9.90234375 C3.628125,11.2429688 2.9578125,12.871875 2.9578125,14.7398438 C2.9578125,16.6078125 3.628125,18.2359375 5.0171875,19.5773438 C6.3578125,20.9664063 7.98671875,21.6367188 9.8546875,21.6367188 C9.8546875,21.6367188 9.8546875,21.6367188 9.8546875,21.6367188 C9.8546875,21.6367188 17.1820313,21.6367188 17.1820313,21.6367188 C17.5171875,21.6367188 17.7085937,21.7804688 17.7085937,22.115625 C17.7085937,22.4507813 17.5171875,22.5945312 17.1820313,22.5945312 C17.1820313,22.5945312 17.1820313,22.5945312 17.1820313,22.5945312 C17.1820313,22.5945312 9.8546875,22.5945312 9.8546875,22.5945312 C7.69921875,22.5945312 5.83203125,21.828125 4.29921875,20.2953125 Z"/>
  <title>Arrow Bend Right</title>
</svg>