<svg xmlns="http://www.w3.org/2000/svg" viewBox="0 0 25 25" id="arrow-down-row">
  <path d="M7.90234375,14.5117188 C7.90234375,14.5117188 11.7820313,18.821875 11.7820313,18.821875 C11.7820313,18.821875 11.7820313,4.88515625 11.7820313,4.88515625 C11.7820313,4.88515625 12.7398438,4.88515625 12.7398438,4.88515625 C12.7398438,4.88515625 12.7398438,18.821875 12.7398438,18.821875 C12.7398438,18.821875 16.6195313,14.5117188 16.6195313,14.5117188 C16.6195313,14.5117188 17.3859375,15.1820313 17.3859375,15.1820313 C17.3859375,15.1820313 12.9320313,20.1148438 12.9320313,20.1148438 C12.9320313,20.1148438 12.9320313,20.1625 12.9320313,20.1625 C12.9320313,20.1625 12.596875,20.45 12.596875,20.45 C12.596875,20.45 12.309375,20.7851562 12.309375,20.7851562 C12.309375,20.7851562 12.2132813,20.7851562 12.2132813,20.7851562 C12.2132813,20.7851562 11.9257813,20.45 11.9257813,20.45 C11.9257813,20.45 11.590625,20.1625 11.590625,20.1625 C11.590625,20.1625 11.590625,20.1148438 11.590625,20.1148438 C11.590625,20.1148438 7.13671875,15.1820313 7.13671875,15.1820313 C7.13671875,15.1820313 7.903125,14.5117188 7.903125,14.5117188 L7.90234375,14.5117188 Z M20.1148437,0.9578125 C20.1148437,0.9578125 4.40625,0.9578125 4.40625,0.9578125 C3.4484375,1.00546875 2.634375,1.3890625 2.01171875,2.01171875 C1.3890625,2.634375 1.00625,3.4484375 0.9578125,4.40625 C0.9578125,4.40625 0.9578125,4.40625 0.9578125,4.40625 C0.9578125,4.40625 0.9578125,11.7820313 0.9578125,11.7820313 C0.9578125,11.7820313 8.8125,11.7820313 8.8125,11.7820313 C8.8125,11.7820313 8.8125,12.7398438 8.8125,12.7398438 C8.8125,12.7398438 0.9578125,12.7398438 0.9578125,12.7398438 C0.9578125,12.7398438 0.9578125,20.115625 0.9578125,20.115625 C1.00546875,21.0734375 1.3890625,21.8875 2.01171875,22.5101563 C2.634375,23.1328125 3.4484375,23.515625 4.40625,23.5640625 C4.40625,23.5640625 4.40625,23.5640625 4.40625,23.5640625 C4.40625,23.5640625 20.1148437,23.5640625 20.1148437,23.5640625 C21.0726562,23.5164063 21.8867188,23.1328125 22.509375,22.5101563 C23.1320313,21.8875 23.5148437,21.0734375 23.5632812,20.115625 C23.5632812,20.115625 23.5632812,20.115625 23.5632812,20.115625 C23.5632812,20.115625 23.5632812,12.7398438 23.5632812,12.7398438 C23.5632812,12.7398438 15.7085937,12.7398438 15.7085937,12.7398438 C15.7085937,12.7398438 15.7085937,11.7820313 15.7085937,11.7820313 C15.7085937,11.7820313 23.5632812,11.7820313 23.5632812,11.7820313 C23.5632812,11.7820313 23.5632812,4.40625 23.5632812,4.40625 C23.515625,3.4484375 23.1320313,2.634375 22.509375,2.01171875 C21.8867188,1.3890625 21.0726563,1.00625 20.1148437,0.9578125 C20.1148437,0.9578125 20.1148437,0.9578125 20.1148437,0.9578125 Z M0,4.40625 C0,3.20859375 0.43125,2.15546875 1.29296875,1.29296875 C2.1546875,0.43046875 3.20859375,0 4.40625,0 C4.40625,0 4.40625,0 4.40625,0 C4.40625,0 20.1148437,0 20.1148437,0 C21.3125,0 22.365625,0.43125 23.228125,1.29296875 C24.090625,2.1546875 24.5210937,3.20859375 24.5210937,4.40625 C24.5210937,4.40625 24.5210937,4.40625 24.5210937,4.40625 C24.5210937,4.40625 24.5210937,20.1148437 24.5210937,20.1148437 C24.5210937,21.3125 24.0898438,22.365625 23.228125,23.228125 C22.3664062,24.090625 21.3125,24.5210937 20.1148437,24.5210937 C20.1148437,24.5210937 20.1148437,24.5210937 20.1148437,24.5210937 C20.1148437,24.5210937 4.40625,24.5210937 4.40625,24.5210937 C3.20859375,24.5210937 2.15546875,24.0898438 1.29296875,23.228125 C0.43046875,22.3664062 0,21.3125 0,20.1148437 C0,20.1148437 0,20.1148437 0,20.1148437 C0,20.1148437 0,4.40625 0,4.40625 Z"/>
  <title>Arrow Down Row</title>
</svg>