<svg xmlns="http://www.w3.org/2000/svg" viewBox="0 0 25 25" id="arrow-down-between-left-column">
  <path d="M8.33359375,11.9734375 C8.33359375,11.9734375 7.66328125,11.303125 7.66328125,11.303125 C7.66328125,11.303125 3.7359375,7.37578125 3.7359375,7.37578125 C3.7359375,7.37578125 4.40625,6.65703125 4.40625,6.65703125 C4.40625,6.65703125 7.8546875,10.1054687 7.8546875,10.1054687 C7.8546875,10.1054687 7.8546875,0 7.8546875,0 C7.8546875,0 8.8125,0 8.8125,0 C8.8125,0 8.8125,10.1054687 8.8125,10.1054687 C8.8125,10.1054687 12.2609375,6.65703125 12.2609375,6.65703125 C12.2609375,6.65703125 12.93125,7.37578125 12.93125,7.37578125 C12.93125,7.37578125 8.33359375,11.9734375 8.33359375,11.9734375 Z M23.5632812,23.5632812 C23.5632812,23.5632812 23.5632812,5.890625 23.5632812,5.890625 C23.5632812,5.890625 24.5210937,5.890625 24.5210937,5.890625 C24.5210937,5.890625 24.5210937,24.5210938 24.5210937,24.5210938 C24.5210937,24.5210938 0,24.5210938 0,24.5210938 C0,24.5210938 0,5.890625 0,5.890625 C0,5.890625 0.9578125,5.890625 0.9578125,5.890625 C0.9578125,5.890625 0.9578125,23.5632812 0.9578125,23.5632812 C0.9578125,23.5632812 14.703125,23.5632812 14.703125,23.5632812 C14.703125,23.5632812 14.703125,13.21875 14.703125,13.21875 C14.703125,13.21875 15.7085937,13.21875 15.7085937,13.21875 C15.7085937,13.21875 15.7085937,23.5632812 15.7085937,23.5632812 C15.7085937,23.5632812 23.5632812,23.5632812 23.5632812,23.5632812 Z"/>
  <title>Arrow Down Between Left Column</title>
</svg>