<svg xmlns="http://www.w3.org/2000/svg" viewBox="0 0 25 25" id="arrow-right-between-rows">
  <path d="M11.1585937,11.590625 C11.1585937,11.590625 11.9726562,12.2609375 11.9726562,12.2609375 C11.9726562,12.2609375 6.8484375,17.3375 6.8484375,17.3375 C6.8484375,17.3375 6.178125,16.6671875 6.178125,16.6671875 C6.178125,16.6671875 10.1054688,12.7398437 10.1054688,12.7398437 C10.1054688,12.7398437 0,12.7398437 0,12.7398437 C0,12.7398437 0,11.7820312 0,11.7820312 C0,11.7820312 10.1054688,11.7820312 10.1054688,11.7820312 C10.1054688,11.7820312 6.178125,7.8546875 6.178125,7.8546875 C6.178125,7.8546875 6.8484375,7.184375 6.8484375,7.184375 C6.8484375,7.184375 11.1585937,11.590625 11.1585937,11.590625 Z M5.88984375,0.9578125 C5.88984375,0.9578125 5.88984375,0 5.88984375,0 C5.88984375,0 24.5203125,0 24.5203125,0 C24.5203125,0 24.5203125,24.5210937 24.5203125,24.5210937 C24.5203125,24.5210937 5.88984375,24.5210937 5.88984375,24.5210937 C5.88984375,24.5210937 5.88984375,23.5632812 5.88984375,23.5632812 C5.88984375,23.5632812 23.5625,23.5632812 23.5625,23.5632812 C23.5625,23.5632812 23.5625,17.6726562 23.5625,17.6726562 C23.5625,17.6726562 13.2179687,17.6726562 13.2179687,17.6726562 C13.2179687,17.6726562 13.2179687,16.6671875 13.2179687,16.6671875 C13.2179687,16.6671875 23.5625,16.6671875 23.5625,16.6671875 C23.5625,16.6671875 23.5625,7.8546875 23.5625,7.8546875 C23.5625,7.8546875 13.2179687,7.8546875 13.2179687,7.8546875 C13.2179687,7.8546875 13.2179687,6.84921875 13.2179687,6.84921875 C13.2179687,6.84921875 23.5625,6.84921875 23.5625,6.84921875 C23.5625,6.84921875 23.5625,0.95859375 23.5625,0.95859375 C23.5625,0.95859375 5.88984375,0.95859375 5.88984375,0.95859375 L5.88984375,0.9578125 Z"/>
  <title>Arrow Right Between Rows</title>
</svg>