<svg xmlns="http://www.w3.org/2000/svg" viewBox="0 0 25 25" id="arrow-above-or">
  <path d="M18.9179687,6.55625 C18.9179687,6.55625 14.990625,10.4835937 14.990625,10.4835937 C14.990625,10.4835937 15.709375,11.1539063 15.709375,11.1539063 C15.709375,11.1539063 20.115625,6.7953125 20.115625,6.7953125 C20.115625,6.7953125 20.7859375,6.0765625 20.7859375,6.0765625 C20.7859375,6.0765625 15.709375,1 15.709375,1 C15.709375,1 14.990625,1.6703125 14.990625,1.6703125 C14.990625,1.6703125 18.9179687,5.59765625 18.9179687,5.59765625 C18.9179687,5.59765625 0,5.59765625 0,5.59765625 C0,5.59765625 0,6.55546875 0,6.55546875 C0,6.55546875 18.9179687,6.55546875 18.9179687,6.55546875 L18.9179687,6.55625 Z M23.5632812,24.228125 C23.5632812,24.228125 23.5632812,14.4101562 23.5632812,14.4101562 C23.5632812,14.4101562 24.5210937,14.4101562 24.5210937,14.4101562 C24.5210937,14.4101562 24.5210937,24.228125 24.5210937,24.228125 C24.5210937,24.228125 23.5632812,24.228125 23.5632812,24.228125 Z M18.6304687,24.228125 C18.6304687,24.228125 18.6304687,14.4101562 18.6304687,14.4101562 C18.6304687,14.4101562 19.6359375,14.4101562 19.6359375,14.4101562 C19.6359375,14.4101562 19.6359375,24.228125 19.6359375,24.228125 C19.6359375,24.228125 18.6304687,24.228125 18.6304687,24.228125 Z"/>
  <title>Arrow Above Or</title>
</svg>