<svg xmlns="http://www.w3.org/2000/svg" viewBox="0 0 25 25" id="arrow-below-row-right">
  <path d="M0,10.6203125 C0,10.6203125 0,2 0,2 C0,2 24.5210937,2 24.5210937,2 C24.5210937,2 24.5210937,10.6203125 24.5210937,10.6203125 C24.5210937,10.6203125 0,10.6203125 0,10.6203125 Z M17.8640625,16.415625 C17.8640625,16.415625 13.5539062,12.584375 13.5539062,12.584375 C13.5539062,12.584375 14.2242187,11.9140625 14.2242187,11.9140625 C14.2242187,11.9140625 19.9234375,16.8945312 19.9234375,16.8945312 C19.9234375,16.8945312 14.2242187,21.9234375 14.2242187,21.9234375 C14.2242187,21.9234375 13.5539062,21.2046875 13.5539062,21.2046875 C13.5539062,21.2046875 17.8640625,17.3734375 17.8640625,17.3734375 C17.8640625,17.3734375 0,17.3734375 0,17.3734375 C0,17.3734375 0,16.415625 0,16.415625 C0,16.415625 17.8640625,16.415625 17.8640625,16.415625 Z M0.9578125,2.9578125 C0.9578125,2.9578125 0.9578125,9.75859375 0.9578125,9.75859375 C0.9578125,9.75859375 7.8546875,9.75859375 7.8546875,9.75859375 C7.8546875,9.75859375 7.8546875,2.9578125 7.8546875,2.9578125 C7.8546875,2.9578125 0.9578125,2.9578125 0.9578125,2.9578125 Z M8.8125,9.75859375 C8.8125,9.75859375 15.709375,9.75859375 15.709375,9.75859375 C15.709375,9.75859375 15.709375,2.9578125 15.709375,2.9578125 C15.709375,2.9578125 8.8125,2.9578125 8.8125,2.9578125 C8.8125,2.9578125 8.8125,9.75859375 8.8125,9.75859375 Z M16.6664063,9.75859375 C16.6664063,9.75859375 23.5632813,9.75859375 23.5632813,9.75859375 C23.5632813,9.75859375 23.5632813,2.9578125 23.5632813,2.9578125 C23.5632813,2.9578125 16.6664063,2.9578125 16.6664063,2.9578125 C16.6664063,2.9578125 16.6664063,9.75859375 16.6664063,9.75859375 Z"/>
  <title>Arrow Below Row Right</title>
</svg>