<svg xmlns="http://www.w3.org/2000/svg" viewBox="0 0 25 25" id="arrow-up">
  <path d="M11.8484375,5.353125 C11.8484375,5.353125 6.72421875,10.4773438 6.72421875,10.4773438 C6.58046875,10.7164063 6.34140625,10.8125 6.00546875,10.8125 C6.00546875,10.8125 6.00546875,10.8125 6.00546875,10.8125 C5.33515625,10.8125 5,10.4773438 5,9.8546875 C5,9.8546875 5,9.8546875 5,9.8546875 C5,9.66328125 5.09609375,9.4234375 5.2875,9.184375 C5.2875,9.184375 5.2875,9.184375 5.2875,9.184375 C5.2875,9.184375 12.1359375,2.2875 12.1359375,2.2875 C12.1359375,2.2875 12.2796875,2.19140625 12.2796875,2.19140625 C12.5671875,2.04765625 12.7585937,2 12.8546875,2 C12.8546875,2 12.8546875,2 12.8546875,2 C12.9984375,2 13.1898437,2.04765625 13.4296875,2.19140625 C13.4296875,2.19140625 13.4296875,2.19140625 13.4296875,2.19140625 C13.4296875,2.19140625 13.5734375,2.2875 13.5734375,2.2875 C13.5734375,2.2875 20.421875,9.184375 20.421875,9.184375 C20.6132812,9.37578125 20.709375,9.615625 20.709375,9.8546875 C20.709375,9.8546875 20.709375,9.8546875 20.709375,9.8546875 C20.709375,10.4773438 20.3742188,10.8125 19.7515625,10.8125 C19.7515625,10.8125 19.7515625,10.8125 19.7515625,10.8125 C19.36875,10.8125 19.1289062,10.7164063 18.9851562,10.4773437 C18.9851562,10.4773437 18.9851562,10.4773437 18.9851562,10.4773437 C18.9851562,10.4773437 13.8609375,5.353125 13.8609375,5.353125 C13.8609375,5.353125 13.8609375,20.6789063 13.8609375,20.6789063 C13.8609375,21.3015625 13.5257812,21.6367188 12.8554688,21.6367188 C12.1851562,21.6367188 11.85,21.3015625 11.85,20.6789063 C11.85,20.6789063 11.85,20.6789063 11.85,20.6789063 C11.85,20.6789063 11.85,5.353125 11.85,5.353125 L11.8484375,5.353125 Z"/>
  <title>Arrow Up</title>
</svg>