<svg xmlns="http://www.w3.org/2000/svg" viewBox="0 0 25 25" id="arrow-above-row-left">
  <path d="M11.015625,2.71875 C11.015625,2.71875 10.3453125,2 10.3453125,2 C10.3453125,2 4.64609375,7.02890625 4.64609375,7.02890625 C4.64609375,7.02890625 10.3453125,12.009375 10.3453125,12.009375 C10.3453125,12.009375 11.015625,11.290625 11.015625,11.290625 C11.015625,11.290625 6.70546875,7.50703125 6.70546875,7.50703125 C6.70546875,7.50703125 24.521875,7.50703125 24.521875,7.50703125 C24.521875,7.50703125 24.521875,6.54921875 24.521875,6.54921875 C24.521875,6.54921875 6.6578125,6.54921875 6.6578125,6.54921875 C6.6578125,6.54921875 11.0164063,2.71796875 11.0164063,2.71796875 L11.015625,2.71875 Z M24.5210937,21.9242188 C24.5210937,21.9242188 0,21.9242188 0,21.9242188 C0,21.9242188 0,13.1117187 0,13.1117187 C0,13.1117187 24.5210937,13.1117187 24.5210937,13.1117187 C24.5210937,13.1117187 24.5210937,21.9242188 24.5210937,21.9242188 L24.5210937,21.9242188 Z M16.6664063,14.0695313 C16.6664063,14.0695313 16.6664063,20.9664062 16.6664063,20.9664062 C16.6664063,20.9664062 23.5632813,20.9664062 23.5632813,20.9664062 C23.5632813,20.9664062 23.5632813,14.0695313 23.5632813,14.0695313 C23.5632813,14.0695313 16.6664063,14.0695313 16.6664063,14.0695313 Z M8.8125,14.0695313 C8.8125,14.0695313 8.8125,20.9664062 8.8125,20.9664062 C8.8125,20.9664062 15.709375,20.9664062 15.709375,20.9664062 C15.709375,20.9664062 15.709375,14.0695313 15.709375,14.0695313 C15.709375,14.0695313 8.8125,14.0695313 8.8125,14.0695313 Z M0.9578125,14.0695313 C0.9578125,14.0695313 0.9578125,20.9664062 0.9578125,20.9664062 C0.9578125,20.9664062 7.8546875,20.9664062 7.8546875,20.9664062 C7.8546875,20.9664062 7.8546875,14.0695313 7.8546875,14.0695313 C7.8546875,14.0695313 0.9578125,14.0695313 0.9578125,14.0695313 Z"/>
  <title>Arrow Above Row Left</title>
</svg>