<svg xmlns="http://www.w3.org/2000/svg" viewBox="0 0 25 25" id="arrow-down-between-right-column">
  <path d="M16.1875,11.9734375 C16.1875,11.9734375 11.5898438,7.37578125 11.5898438,7.37578125 C11.5898438,7.37578125 12.2601563,6.65703125 12.2601563,6.65703125 C12.2601563,6.65703125 15.7085937,10.1054688 15.7085937,10.1054688 C15.7085937,10.1054688 15.7085937,0 15.7085937,0 C15.7085937,0 16.6664062,0 16.6664062,0 C16.6664062,0 16.6664062,10.1054688 16.6664062,10.1054688 C16.6664062,10.1054688 20.1148437,6.65703125 20.1148437,6.65703125 C20.1148437,6.65703125 20.7851562,7.37578125 20.7851562,7.37578125 C20.7851562,7.37578125 16.1875,11.9734375 16.1875,11.9734375 L16.1875,11.9734375 Z M0.9578125,23.5195313 C0.9578125,23.5195313 8.8125,23.5195313 8.8125,23.5195313 C8.8125,23.5195313 8.8125,13.175 8.8125,13.175 C8.8125,13.175 9.81796875,13.175 9.81796875,13.175 C9.81796875,13.175 9.81796875,23.5195313 9.81796875,23.5195313 C9.81796875,23.5195313 23.5632812,23.5195313 23.5632812,23.5195313 C23.5632812,23.5195313 23.5632812,5.846875 23.5632812,5.846875 C23.5632812,5.846875 24.5210937,5.846875 24.5210937,5.846875 C24.5210937,5.846875 24.5210937,24.4773438 24.5210937,24.4773438 C24.5210937,24.4773438 0,24.4773438 0,24.4773438 C0,24.4773438 0,5.846875 0,5.846875 C0,5.846875 0.9578125,5.846875 0.9578125,5.846875 C0.9578125,5.846875 0.9578125,23.5195313 0.9578125,23.5195313 Z"/>
  <title>Arrow Down Between Right Column</title>
</svg>