<svg xmlns="http://www.w3.org/2000/svg" viewBox="0 0 25 25" id="arrow-up-row">
  <path d="M16.61875,10.0101563 C16.61875,10.0101563 12.7390625,5.7 12.7390625,5.7 C12.7390625,5.7 12.7390625,19.6367187 12.7390625,19.6367187 C12.7390625,19.6367187 11.78125,19.6367187 11.78125,19.6367187 C11.78125,19.6367187 11.78125,5.7 11.78125,5.7 C11.78125,5.7 7.9015625,10.0101562 7.9015625,10.0101562 C7.9015625,10.0101562 7.13515625,9.33984375 7.13515625,9.33984375 C7.13515625,9.33984375 11.5890625,4.40703125 11.5890625,4.40703125 C11.5890625,4.40703125 11.5890625,4.359375 11.5890625,4.359375 C11.5890625,4.359375 11.9242187,4.071875 11.9242187,4.071875 C11.9242187,4.071875 12.2117187,3.73671875 12.2117187,3.73671875 C12.2117187,3.73671875 12.3078125,3.73671875 12.3078125,3.73671875 C12.3078125,3.73671875 12.5953125,4.071875 12.5953125,4.071875 C12.5953125,4.071875 12.9304687,4.359375 12.9304687,4.359375 C12.9304687,4.359375 12.9304687,4.40703125 12.9304687,4.40703125 C12.9304687,4.40703125 17.384375,9.33984375 17.384375,9.33984375 C17.384375,9.33984375 16.6179687,10.0101562 16.6179687,10.0101562 L16.61875,10.0101563 Z M4.40625,23.5632813 C4.40625,23.5632813 20.1148437,23.5632813 20.1148437,23.5632813 C21.0726562,23.515625 21.8867188,23.1320313 22.509375,22.509375 C23.1320313,21.8867188 23.5148437,21.0726563 23.5632812,20.1148438 C23.5632812,20.1148438 23.5632812,20.1148438 23.5632812,20.1148438 C23.5632812,20.1148438 23.5632812,12.7390625 23.5632812,12.7390625 C23.5632812,12.7390625 15.7085937,12.7390625 15.7085937,12.7390625 C15.7085937,12.7390625 15.7085937,11.78125 15.7085937,11.78125 C15.7085937,11.78125 23.5632812,11.78125 23.5632812,11.78125 C23.5632812,11.78125 23.5632812,4.40546875 23.5632812,4.40546875 C23.515625,3.44765625 23.1320313,2.63359375 22.509375,2.0109375 C21.8867188,1.38828125 21.0726563,1.00546875 20.1148437,0.95703125 C20.1148437,0.95703125 20.1148437,0.95703125 20.1148437,0.95703125 C20.1148437,0.95703125 4.40625,0.95703125 4.40625,0.95703125 C3.4484375,1.0046875 2.634375,1.38828125 2.01171875,2.0109375 C1.3890625,2.63359375 1.00625,3.44765625 0.9578125,4.40546875 C0.9578125,4.40546875 0.9578125,4.40546875 0.9578125,4.40546875 C0.9578125,4.40546875 0.9578125,11.78125 0.9578125,11.78125 C0.9578125,11.78125 8.8125,11.78125 8.8125,11.78125 C8.8125,11.78125 8.8125,12.7390625 8.8125,12.7390625 C8.8125,12.7390625 0.9578125,12.7390625 0.9578125,12.7390625 C0.9578125,12.7390625 0.9578125,20.1148438 0.9578125,20.1148438 C1.00546875,21.0726563 1.3890625,21.8867188 2.01171875,22.509375 C2.634375,23.1320313 3.4484375,23.5148438 4.40625,23.5632813 C4.40625,23.5632813 4.40625,23.5632813 4.40625,23.5632813 Z M24.5210937,20.1148437 C24.5210937,21.3125 24.0898438,22.365625 23.228125,23.228125 C22.3664062,24.090625 21.3125,24.5210937 20.1148437,24.5210937 C20.1148437,24.5210937 20.1148437,24.5210937 20.1148437,24.5210937 C20.1148437,24.5210937 4.40625,24.5210937 4.40625,24.5210937 C3.20859375,24.5210937 2.15546875,24.0898438 1.29296875,23.228125 C0.43046875,22.3664062 0,21.3125 0,20.1148437 C0,20.1148437 0,20.1148437 0,20.1148437 C0,20.1148437 0,4.40625 0,4.40625 C0,3.20859375 0.43125,2.15546875 1.29296875,1.29296875 C2.1546875,0.43046875 3.20859375,0 4.40625,0 C4.40625,0 4.40625,0 4.40625,0 C4.40625,0 20.1148437,0 20.1148437,0 C21.3125,0 22.365625,0.43125 23.228125,1.29296875 C24.090625,2.1546875 24.5210937,3.20859375 24.5210937,4.40625 C24.5210937,4.40625 24.5210937,4.40625 24.5210937,4.40625 C24.5210937,4.40625 24.5210937,20.1148437 24.5210937,20.1148437 Z"/>
  <title>Arrow Up Row</title>
</svg>