<svg xmlns="http://www.w3.org/2000/svg" viewBox="0 0 25 25" id="arrow-right-column">
  <path d="M14.5117188,16.61875 C14.5117188,16.61875 18.821875,12.7390625 18.821875,12.7390625 C18.821875,12.7390625 4.88515625,12.7390625 4.88515625,12.7390625 C4.88515625,12.7390625 4.88515625,11.78125 4.88515625,11.78125 C4.88515625,11.78125 18.821875,11.78125 18.821875,11.78125 C18.821875,11.78125 14.5117188,7.9015625 14.5117188,7.9015625 C14.5117188,7.9015625 15.1820313,7.13515625 15.1820313,7.13515625 C15.1820313,7.13515625 20.1148438,11.5890625 20.1148438,11.5890625 C20.1148438,11.5890625 20.1625,11.5890625 20.1625,11.5890625 C20.1625,11.5890625 20.45,11.9242187 20.45,11.9242187 C20.45,11.9242187 20.7851562,12.2117187 20.7851562,12.2117187 C20.7851562,12.2117187 20.7851562,12.3078125 20.7851562,12.3078125 C20.7851562,12.3078125 20.45,12.5953125 20.45,12.5953125 C20.45,12.5953125 20.1625,12.9304687 20.1625,12.9304687 C20.1625,12.9304687 20.1148438,12.9304687 20.1148438,12.9304687 C20.1148438,12.9304687 15.1820313,17.384375 15.1820313,17.384375 C15.1820313,17.384375 14.5117188,16.6179687 14.5117188,16.6179687 L14.5117188,16.61875 Z M0.9578125,4.40625 C0.9578125,4.40625 0.9578125,20.1148437 0.9578125,20.1148437 C1.00546875,21.0726562 1.3890625,21.8867188 2.01171875,22.509375 C2.634375,23.1320313 3.4484375,23.5148437 4.40625,23.5632812 C4.40625,23.5632812 4.40625,23.5632812 4.40625,23.5632812 C4.40625,23.5632812 11.7820313,23.5632812 11.7820313,23.5632812 C11.7820313,23.5632812 11.7820313,15.7085937 11.7820313,15.7085937 C11.7820313,15.7085937 12.7398438,15.7085937 12.7398438,15.7085937 C12.7398438,15.7085937 12.7398438,23.5632812 12.7398438,23.5632812 C12.7398438,23.5632812 20.115625,23.5632812 20.115625,23.5632812 C21.0734375,23.515625 21.8875,23.1320313 22.5101563,22.509375 C23.1328125,21.8867188 23.515625,21.0726563 23.5640625,20.1148437 C23.5640625,20.1148437 23.5640625,20.1148437 23.5640625,20.1148437 C23.5640625,20.1148437 23.5640625,4.40625 23.5640625,4.40625 C23.5164063,3.4484375 23.1328125,2.634375 22.5101563,2.01171875 C21.8875,1.3890625 21.0734375,1.00625 20.115625,0.9578125 C20.115625,0.9578125 20.115625,0.9578125 20.115625,0.9578125 C20.115625,0.9578125 12.7398438,0.9578125 12.7398438,0.9578125 C12.7398438,0.9578125 12.7398438,8.8125 12.7398438,8.8125 C12.7398438,8.8125 11.7820313,8.8125 11.7820313,8.8125 C11.7820313,8.8125 11.7820313,0.9578125 11.7820313,0.9578125 C11.7820313,0.9578125 4.40625,0.9578125 4.40625,0.9578125 C3.4484375,1.00546875 2.634375,1.3890625 2.01171875,2.01171875 C1.3890625,2.634375 1.00625,3.4484375 0.9578125,4.40625 C0.9578125,4.40625 0.9578125,4.40625 0.9578125,4.40625 Z M4.40625,24.5210937 C3.20859375,24.5210937 2.15546875,24.0898438 1.29296875,23.228125 C0.43046875,22.3664062 0,21.3125 0,20.1148437 C0,20.1148437 0,20.1148437 0,20.1148437 C0,20.1148437 0,4.40625 0,4.40625 C0,3.20859375 0.43125,2.15546875 1.29296875,1.29296875 C2.1546875,0.43046875 3.20859375,0 4.40625,0 C4.40625,0 4.40625,0 4.40625,0 C4.40625,0 20.1148437,0 20.1148437,0 C21.3125,0 22.365625,0.43125 23.228125,1.29296875 C24.090625,2.1546875 24.5210937,3.20859375 24.5210937,4.40625 C24.5210937,4.40625 24.5210937,4.40625 24.5210937,4.40625 C24.5210937,4.40625 24.5210937,20.1148437 24.5210937,20.1148437 C24.5210937,21.3125 24.0898438,22.365625 23.228125,23.228125 C22.3664062,24.090625 21.3125,24.5210937 20.1148437,24.5210937 C20.1148437,24.5210937 20.1148437,24.5210937 20.1148437,24.5210937 C20.1148437,24.5210937 4.40625,24.5210937 4.40625,24.5210937 Z"/>
  <title>Arrow Right Column</title>
</svg>