<svg xmlns="http://www.w3.org/2000/svg" viewBox="0 0 25 25" id="atom">
  <path d="M23.371875,14.553125 C24.1382812,13.834375 24.5210937,13.1164063 24.5210937,12.3023438 C24.5210937,11.4882812 24.1382812,10.721875 23.371875,10.003125 C22.6054687,9.284375 21.5523437,8.71015625 20.2109375,8.18359375 C20.2109375,8.18359375 20.2109375,8.18359375 20.2109375,8.18359375 C20.6421875,6.55546875 20.7375,5.11875 20.4984375,3.8734375 C20.259375,2.67578125 19.684375,1.8140625 18.8703125,1.3828125 C18.8703125,1.3828125 18.8703125,1.3828125 18.8703125,1.3828125 C18.4390625,1.14296875 18.0085937,1 17.48125,1 C17.48125,1 17.48125,1 17.48125,1 C17.48125,1 17.4335937,1 17.4335937,1 C15.9492187,1 14.225,1.8140625 12.2609375,3.490625 C12.2609375,3.490625 12.2609375,3.490625 12.2609375,3.490625 C10.2976562,1.8140625 8.5734375,1 7.08828125,1 C7.08828125,1 7.08828125,1 7.08828125,1 C7.08828125,1 7.040625,1 7.040625,1 C6.5140625,1 6.03515625,1.14375 5.60390625,1.3828125 C5.60390625,1.3828125 5.60390625,1.3828125 5.60390625,1.3828125 C4.78984375,1.8140625 4.26328125,2.67578125 4.07109375,3.8734375 C3.83203125,5.11875 3.92734375,6.55546875 4.31015625,8.18359375 C4.31015625,8.18359375 4.31015625,8.18359375 4.31015625,8.18359375 C2.96953125,8.71015625 1.915625,9.28515625 1.14921875,10.003125 C0.3828125,10.7210937 0,11.4875 0,12.3023438 C0,13.1164063 0.3828125,13.8351563 1.14921875,14.553125 C1.915625,15.2710938 2.96875,15.89375 4.31015625,16.4210938 C4.31015625,16.4210938 4.31015625,16.4210938 4.31015625,16.4210938 C3.87890625,18.0492188 3.83125,19.4859375 4.07109375,20.6835938 C4.31015625,21.9289063 4.8375,22.790625 5.6515625,23.221875 C5.6515625,23.221875 5.6515625,23.221875 5.6515625,23.221875 C5.98671875,23.4609375 6.465625,23.5570313 7.040625,23.5570313 C7.040625,23.5570313 7.040625,23.5570313 7.040625,23.5570313 C7.040625,23.5570313 7.08828125,23.5570313 7.08828125,23.5570313 C8.62109375,23.5570313 10.3453125,22.7429687 12.2609375,21.1148437 C12.2609375,21.1148437 12.2609375,21.1148437 12.2609375,21.1148437 C14.1765625,22.7429687 15.9007813,23.5570313 17.4335938,23.5570313 C17.4335938,23.5570313 17.4335938,23.5570313 17.4335938,23.5570313 C17.4335938,23.5570313 17.48125,23.5570313 17.48125,23.5570313 C18.0078125,23.5570313 18.4867188,23.4609375 18.9179688,23.221875 C18.9179688,23.221875 18.9179688,23.221875 18.9179688,23.221875 C19.7320313,22.790625 20.2585938,21.9289063 20.4984375,20.6835938 C20.6898438,19.4859375 20.5945313,18.0492188 20.2109375,16.4210938 C20.2109375,16.4210938 20.2109375,16.4210938 20.2109375,16.4210938 C21.5515625,15.8945313 22.6054688,15.271875 23.371875,14.553125 L23.371875,14.553125 Z M17.3851562,2.0046875 C17.3851562,2.0046875 17.4328125,2.0046875 17.4328125,2.0046875 C17.4328125,2.0046875 17.4804687,2.0046875 17.4804687,2.0046875 C17.815625,2.0046875 18.103125,2.10078125 18.4382812,2.24453125 C18.4382812,2.24453125 18.4382812,2.24453125 18.4382812,2.24453125 C18.9648437,2.62734375 19.3,3.10625 19.44375,3.72890625 C19.44375,3.72890625 19.44375,3.72890625 19.44375,3.72890625 C19.5398437,4.25546875 19.5875,4.83046875 19.5875,5.453125 C19.5875,5.453125 19.5875,5.453125 19.5875,5.453125 C19.5875,6.36328125 19.4914062,7.17734375 19.2523437,7.94375 C19.2523437,7.94375 19.2523437,7.94375 19.2523437,7.94375 C18.1984375,7.5609375 17.0492187,7.2734375 15.8039062,7.1296875 C15.8039062,7.1296875 15.8039062,7.1296875 15.8039062,7.1296875 C14.5585937,5.69296875 13.6484375,4.6875 13.0257812,4.16015625 C13.0257812,4.16015625 13.0257812,4.16015625 13.0257812,4.16015625 C14.2234375,2.9625 15.6601562,2.24453125 17.384375,2.0046875 C17.384375,2.0046875 17.384375,2.0046875 17.384375,2.0046875 L17.3851562,2.0046875 Z M16.475,14.553125 C16.475,14.553125 16.475,14.553125 16.475,14.553125 C15.9960937,15.3671875 15.5648437,16.0375 15.134375,16.5648437 C15.134375,16.5648437 15.134375,16.5648437 15.134375,16.5648437 C14.2726562,16.6609375 13.3148437,16.7085937 12.2609375,16.7085937 C12.2609375,16.7085937 12.2609375,16.7085937 12.2609375,16.7085937 C11.2554687,16.7085937 10.2492187,16.6609375 9.24375,16.5648437 C9.24375,16.5648437 9.24375,16.5648437 9.24375,16.5648437 C9.19609375,16.46875 8.76484375,15.7984375 8.04609375,14.553125 C8.04609375,14.553125 8.04609375,14.553125 8.04609375,14.553125 C7.51953125,13.6914062 7.1359375,12.925 6.8484375,12.3023437 C6.8484375,12.3023437 6.8484375,12.3023437 6.8484375,12.3023437 C7.1359375,11.6796875 7.51875,10.9132812 8.04609375,10.0515625 C8.04609375,10.0515625 8.04609375,10.0515625 8.04609375,10.0515625 C8.525,9.2375 8.95625,8.5671875 9.38671875,8.03984375 C9.38671875,8.03984375 9.38671875,8.03984375 9.38671875,8.03984375 C10.2484375,7.94375 11.20625,7.89609375 12.2601562,7.89609375 C12.2601562,7.89609375 12.2601562,7.89609375 12.2601562,7.89609375 C13.265625,7.89609375 14.271875,7.94375 15.2773437,8.03984375 C15.2773437,8.03984375 15.2773437,8.03984375 15.2773437,8.03984375 C15.325,8.1359375 15.75625,8.80625 16.475,10.0515625 C16.475,10.0515625 16.475,10.0515625 16.475,10.0515625 C17.0015625,10.9132812 17.3851562,11.6796875 17.6726562,12.3023437 C17.6726562,12.3023437 17.6726562,12.3023437 17.6726562,12.3023437 C17.3851562,12.925 17.0023437,13.6914062 16.475,14.553125 Z M18.1992188,13.4515625 C18.1992188,13.4515625 18.1992188,13.4515625 18.1992188,13.4515625 C18.4867187,14.0742188 18.7742187,14.7921875 19.0132813,15.6070313 C19.0132813,15.6070313 19.0132813,15.6070313 19.0132813,15.6070313 C18.390625,15.9421875 17.5765625,16.2296875 16.5710937,16.3734375 C16.5710937,16.3734375 16.5710937,16.3734375 16.5710937,16.3734375 C16.7148438,16.0859375 16.9539062,15.6546875 17.3375,15.0804688 C17.3375,15.0804688 17.3375,15.0804688 17.3375,15.0804688 C17.4335938,14.8890625 17.5765625,14.6015625 17.76875,14.2664063 C17.9609375,13.93125 18.1039063,13.64375 18.2,13.4523437 L18.1992188,13.4515625 Z M12.2609375,19.8210937 C12.2609375,19.8210937 12.2609375,19.8210937 12.2609375,19.8210937 C11.3992187,19.0070312 10.728125,18.2882813 10.2015625,17.665625 C10.2015625,17.665625 10.2015625,17.665625 10.2015625,17.665625 C10.440625,17.665625 10.7765625,17.665625 11.2070312,17.665625 C11.6382812,17.7132813 12.0210938,17.7132813 12.2609375,17.7132813 C12.2609375,17.7132813 12.2609375,17.7132813 12.2609375,17.7132813 C12.7398438,17.7132813 13.4101562,17.665625 14.3203125,17.6171875 C14.3203125,17.6171875 14.3203125,17.6171875 14.3203125,17.6171875 C13.79375,18.2398437 13.1226562,19.00625 12.2609375,19.8203125 L12.2609375,19.8210937 Z M7.18359375,15.0796875 C7.18359375,15.0796875 8.0453125,16.3726563 8.0453125,16.3726563 C7.3265625,16.2765625 6.4171875,16.0851563 5.36328125,15.75 C5.36328125,15.75 5.36328125,15.75 5.36328125,15.75 C5.459375,15.5109375 5.60234375,15.0796875 5.8421875,14.5523438 C6.08203125,14.025 6.225,13.5945313 6.36875,13.3070313 C6.36875,13.3070313 6.36875,13.3070313 6.36875,13.3070313 C6.56015625,13.8335938 6.84765625,14.45625 7.1828125,15.0789063 C7.1828125,15.0789063 7.1828125,15.0789063 7.1828125,15.0789063 L7.18359375,15.0796875 Z M6.321875,11.1523438 C6.321875,11.1523438 6.321875,11.1523438 6.321875,11.1523438 C6.034375,10.5296875 5.746875,9.81171875 5.5078125,8.996875 C5.5078125,8.996875 5.5078125,8.996875 5.5078125,8.996875 C6.13046875,8.66171875 6.94453125,8.37421875 7.95,8.23046875 C7.95,8.23046875 7.95,8.23046875 7.95,8.23046875 C7.80625,8.51796875 7.5671875,8.94921875 7.18359375,9.5234375 C7.18359375,9.5234375 7.18359375,9.5234375 7.18359375,9.5234375 C6.80078125,10.2421875 6.51328125,10.76875 6.321875,11.1515625 L6.321875,11.1523438 Z M12.2609375,4.7828125 C12.2609375,4.7828125 12.2609375,4.7828125 12.2609375,4.7828125 C13.1226563,5.596875 13.79375,6.315625 14.3203125,6.93828125 C14.3203125,6.93828125 14.3203125,6.93828125 14.3203125,6.93828125 C14.08125,6.93828125 13.7453125,6.93828125 13.3148437,6.890625 C12.8835937,6.890625 12.5007812,6.890625 12.2609375,6.890625 C12.2609375,6.890625 12.2609375,6.890625 12.2609375,6.890625 C11.7820312,6.890625 11.1117187,6.93828125 10.2015625,6.98671875 C10.2015625,6.98671875 10.2015625,6.98671875 10.2015625,6.98671875 C10.728125,6.3640625 11.3992187,5.59765625 12.2609375,4.78359375 L12.2609375,4.7828125 Z M17.3375,9.52421875 C17.3375,9.52421875 17.3375,9.52421875 17.3375,9.52421875 C17.3375,9.52421875 16.4757813,8.23125 16.4757813,8.23125 C17.1945313,8.32734375 18.1039062,8.51875 19.1578125,8.85390625 C19.1578125,8.85390625 19.1578125,8.85390625 19.1578125,8.85390625 C19.0617187,9.09296875 18.91875,9.52421875 18.6789063,10.0515625 C18.4390625,10.5789063 18.2960938,11.009375 18.1523438,11.296875 C18.1523438,11.296875 18.1523438,11.296875 18.1523438,11.296875 C18.0085937,10.8179688 17.7210938,10.2429688 17.3382813,9.525 L17.3375,9.52421875 Z M5.0765625,3.68125 C5.0765625,3.68125 5.0765625,3.72890625 5.0765625,3.72890625 C5.2203125,3.10625 5.55546875,2.62734375 6.08203125,2.24453125 C6.08203125,2.24453125 6.08203125,2.24453125 6.08203125,2.24453125 C6.4171875,2.10078125 6.7046875,2.0046875 7.03984375,2.0046875 C7.03984375,2.0046875 7.03984375,2.0046875 7.03984375,2.0046875 C7.03984375,2.0046875 7.0875,2.0046875 7.0875,2.0046875 C8.7640625,2.24375 10.2484375,2.91484375 11.5414063,4.11171875 C11.5414063,4.11171875 11.5414063,4.11171875 11.5414063,4.11171875 C10.63125,4.92578125 9.721875,5.93125 8.90703125,7.08125 C8.90703125,7.08125 8.90703125,7.08125 8.90703125,7.08125 C7.709375,7.225 6.46484375,7.5125 5.07578125,7.8953125 C5.07578125,7.8953125 5.07578125,7.8953125 5.07578125,7.8953125 C4.9796875,6.3625 4.93203125,5.5484375 4.93203125,5.453125 C4.93203125,5.453125 4.93203125,5.453125 4.93203125,5.453125 C4.93203125,4.83046875 4.9796875,4.25546875 5.07578125,3.68125 C5.07578125,3.68125 5.07578125,3.68125 5.07578125,3.68125 L5.0765625,3.68125 Z M0.9578125,12.3015625 C0.9578125,12.3015625 0.9578125,12.3015625 0.9578125,12.3015625 C0.9578125,11.1039062 2.15546875,10.0507812 4.55,9.140625 C4.55,9.140625 4.55,9.140625 4.55,9.140625 C4.98125,10.4335938 5.3640625,11.5351562 5.7953125,12.4453125 C5.7953125,12.4453125 5.7953125,12.4453125 5.7953125,12.4453125 C5.4125,13.0203125 5.02890625,13.978125 4.59765625,15.2710938 C4.59765625,15.2710938 4.59765625,15.2710938 4.59765625,15.2710938 C3.49609375,14.9359375 2.5859375,14.5046875 1.96328125,13.978125 C1.29296875,13.4515625 0.9578125,12.8765625 0.9578125,12.3015625 Z M7.1359375,22.5992187 C7.1359375,22.5992187 7.08828125,22.5992187 7.08828125,22.5992187 C7.08828125,22.5992187 7.040625,22.5992187 7.040625,22.5992187 C6.70546875,22.5992187 6.41796875,22.503125 6.0828125,22.3601562 C6.0828125,22.3601562 6.0828125,22.3601562 6.0828125,22.3601562 C5.55625,21.9773437 5.22109375,21.4984375 5.07734375,20.8757812 C5.07734375,20.8757812 5.07734375,20.8757812 5.07734375,20.8757812 C4.98125,20.3492187 4.93359375,19.7742187 4.93359375,19.1515625 C4.93359375,19.1515625 4.93359375,19.1515625 4.93359375,19.1515625 C4.93359375,18.19375 5.0296875,17.3796875 5.26875,16.6609375 C5.26875,16.6609375 5.26875,16.6609375 5.26875,16.6609375 C6.32265625,17.04375 7.471875,17.33125 8.7171875,17.475 C8.7171875,17.475 8.7171875,17.475 8.7171875,17.475 C9.9625,18.9117187 10.8726563,19.9171875 11.4953125,20.4445312 C11.4953125,20.4445312 11.4953125,20.4445312 11.4953125,20.4445312 C10.2976563,21.6421875 8.8609375,22.3601562 7.13671875,22.6 C7.13671875,22.6 7.13671875,22.6 7.13671875,22.6 L7.1359375,22.5992187 Z M19.4445313,20.9226563 C19.4445313,20.9226563 19.4445313,20.875 19.4445313,20.875 C19.3007813,21.4976563 18.965625,21.9765625 18.4390625,22.359375 C18.4390625,22.359375 18.4390625,22.359375 18.4390625,22.359375 C18.1039063,22.503125 17.8164063,22.5984375 17.48125,22.5984375 C17.48125,22.5984375 17.48125,22.5984375 17.48125,22.5984375 C17.48125,22.5984375 17.4335938,22.5984375 17.4335938,22.5984375 C15.7570313,22.359375 14.2726563,21.6882813 12.9796875,20.4914063 C12.9796875,20.4914063 12.9796875,20.4914063 12.9796875,20.4914063 C13.8898438,19.6773438 14.7992188,18.671875 15.6140625,17.521875 C15.6140625,17.521875 15.6140625,17.521875 15.6140625,17.521875 C16.9070313,17.378125 18.2,17.090625 19.4453125,16.6601562 C19.4453125,16.6601562 19.4453125,16.6601562 19.4453125,16.6601562 C19.5414063,18.1929687 19.5890625,19.0070313 19.5890625,19.1507812 C19.5890625,19.1507812 19.5890625,19.1507812 19.5890625,19.1507812 C19.5890625,19.7734375 19.5414063,20.3484375 19.4453125,20.9226562 C19.4453125,20.9226562 19.4453125,20.9226562 19.4453125,20.9226562 L19.4445313,20.9226563 Z M19.9710938,15.4625 C19.9710938,15.4625 19.9710938,15.4625 19.9710938,15.4625 C19.5398438,14.1695312 19.1570312,13.0679687 18.7257813,12.1578125 C18.7257813,12.1578125 18.7257813,12.1578125 18.7257813,12.1578125 C19.1085937,11.5828125 19.4921875,10.625 19.9234375,9.33203125 C19.9234375,9.33203125 19.9234375,9.33203125 19.9234375,9.33203125 C21.025,9.6671875 21.9351562,10.0984375 22.6054688,10.625 C23.228125,11.1515625 23.5632812,11.7265625 23.5632812,12.3015625 C23.5632812,12.3015625 23.5632812,12.3015625 23.5632812,12.3015625 C23.5632812,13.4992187 22.365625,14.5523437 19.9710938,15.4625 L19.9710938,15.4625 Z M13.3140625,11.2484375 C13.6015625,11.5359375 13.7453125,11.8710938 13.7453125,12.3023438 C13.7453125,12.7335937 13.6015625,13.06875 13.3140625,13.35625 C13.0265625,13.64375 12.6914062,13.7875 12.2601562,13.7875 C11.8289062,13.7875 11.49375,13.64375 11.20625,13.35625 C10.91875,13.06875 10.775,12.7335938 10.775,12.3023438 C10.775,11.8710938 10.91875,11.5359375 11.20625,11.2484375 C11.49375,10.9609375 11.8289062,10.8171875 12.2601562,10.8171875 C12.6914062,10.8171875 13.0265625,10.9609375 13.3140625,11.2484375 L13.3140625,11.2484375 Z"/>
  <title>Atom</title>
</svg>