<svg xmlns="http://www.w3.org/2000/svg" viewBox="0 0 25 25" id="backspace">
  <path d="M2.5328125,11.9445312 C2.5328125,11.9445312 9.2375,17.7875 9.2375,17.7875 C9.2375,17.7875 21.6414063,17.7875 21.6414063,17.7875 C21.8804688,17.7875 22.1203125,17.6914062 22.3117188,17.4523438 C22.503125,17.2609375 22.5992187,17.0210937 22.5992187,16.7820312 C22.5992187,16.7820312 22.5992187,16.7820312 22.5992187,16.7820312 C22.5992187,16.7820312 22.5992187,6.9640625 22.5992187,6.9640625 C22.5992187,6.725 22.503125,6.48515625 22.3117188,6.29375 C22.1203125,6.10234375 21.8804688,6.00625 21.6414063,6.00625 C21.6414063,6.00625 21.6414063,6.00625 21.6414063,6.00625 C21.6414063,6.00625 9.2375,6.00625 9.2375,6.00625 C9.2375,6.00625 2.5328125,11.9453125 2.5328125,11.9453125 L2.5328125,11.9445312 Z M21.6421875,18.7453125 C21.6421875,18.7453125 21.6421875,18.7453125 21.6421875,18.7453125 C21.6421875,18.7453125 8.8546875,18.7453125 8.8546875,18.7453125 C8.8546875,18.7453125 1,11.9445312 1,11.9445312 C1,11.9445312 8.8546875,5 8.8546875,5 C8.8546875,5 21.6421875,5 21.6421875,5 C22.16875,5 22.6476562,5.19140625 23.03125,5.575 C23.4148437,5.95859375 23.60625,6.43671875 23.60625,6.9640625 C23.60625,6.9640625 23.60625,6.9640625 23.60625,6.9640625 C23.60625,6.9640625 23.60625,16.7820313 23.60625,16.7820313 C23.60625,17.3085938 23.4148437,17.7875 23.03125,18.1710938 C22.6476562,18.5546875 22.1695312,18.7460938 21.6421875,18.7460938 L21.6421875,18.7453125 Z M17.7148438,8.25703125 C17.7148438,8.25703125 14.7453125,11.178125 14.7453125,11.178125 C14.7453125,11.178125 11.8242188,8.25703125 11.8242188,8.25703125 C11.8242188,8.25703125 11.1054688,8.92734375 11.1054688,8.92734375 C11.1054688,8.92734375 14.075,11.896875 14.075,11.896875 C14.075,11.896875 11.1054688,14.8179688 11.1054688,14.8179688 C11.1054688,14.8179688 11.8242188,15.5367188 11.8242188,15.5367188 C11.8242188,15.5367188 14.7453125,12.5671875 14.7453125,12.5671875 C14.7453125,12.5671875 17.7148438,15.5367188 17.7148438,15.5367188 C17.7148438,15.5367188 18.3851563,14.8179688 18.3851563,14.8179688 C18.3851563,14.8179688 15.4640625,11.896875 15.4640625,11.896875 C15.4640625,11.896875 18.3851563,8.92734375 18.3851563,8.92734375 C18.3851563,8.92734375 17.7148438,8.25703125 17.7148438,8.25703125 Z"/>
  <title>Backspace</title>
</svg>