<svg xmlns="http://www.w3.org/2000/svg" viewBox="0 0 25 25" id="bank">
  <path d="M2.484375,8.8546875 C2.484375,8.8546875 2.484375,8.8546875 2.484375,8.8546875 C2.484375,8.8546875 22.1203125,8.8546875 22.1203125,8.8546875 C22.4554688,8.8546875 22.5992187,8.7109375 22.5992187,8.37578125 C22.5992187,8.37578125 22.5992187,8.37578125 22.5992187,8.37578125 C22.5992187,8.23203125 22.5515625,8.08828125 22.4078125,7.94453125 C22.4078125,7.94453125 22.4078125,7.94453125 22.4078125,7.94453125 C22.4078125,7.94453125 12.5898437,1.09609375 12.5898437,1.09609375 C12.4460937,1.0484375 12.3507812,1 12.3023437,1 C12.2539063,1 12.1585937,1.04765625 12.0148437,1.09609375 C12.0148437,1.09609375 12.0148437,1.09609375 12.0148437,1.09609375 C12.0148437,1.09609375 2.196875,7.94453125 2.196875,7.94453125 C2.053125,8.08828125 2.00546875,8.23203125 2.00546875,8.37578125 C2.00546875,8.37578125 2.00546875,8.37578125 2.00546875,8.37578125 C2.00546875,8.7109375 2.14921875,8.8546875 2.484375,8.8546875 Z M4.0640625,7.896875 C4.0640625,7.896875 12.3015625,2.1015625 12.3015625,2.1015625 C12.3015625,2.1015625 20.5390625,7.896875 20.5390625,7.896875 C20.5390625,7.896875 4.0640625,7.896875 4.0640625,7.896875 Z M23.6046875,24.0367187 C23.6046875,24.0367187 23.6046875,24.0367187 23.6046875,24.0367187 C23.6046875,24.371875 23.4132813,24.5632812 23.078125,24.5632812 C23.078125,24.5632812 23.078125,24.5632812 23.078125,24.5632812 C23.078125,24.5632812 1.5265625,24.5632812 1.5265625,24.5632812 C1.19140625,24.5632812 1,24.371875 1,24.0367187 C1,24.0367187 1,24.0367187 1,24.0367187 C1,23.7015625 1.19140625,23.5578125 1.5265625,23.5578125 C1.5265625,23.5578125 1.5265625,23.5578125 1.5265625,23.5578125 C1.5265625,23.5578125 23.078125,23.5578125 23.078125,23.5578125 C23.4132813,23.5578125 23.6046875,23.7015625 23.6046875,24.0367187 Z M2.96328125,19.1515625 C2.96328125,19.1515625 2.96328125,19.1515625 2.96328125,19.1515625 C2.96328125,19.1515625 2.96328125,11.296875 2.96328125,11.296875 C2.96328125,10.9617187 3.1546875,10.8179687 3.48984375,10.8179687 C3.48984375,10.8179687 3.48984375,10.8179687 3.48984375,10.8179687 C3.825,10.8179687 3.96875,10.9617187 3.96875,11.296875 C3.96875,11.296875 3.96875,11.296875 3.96875,11.296875 C3.96875,11.296875 3.96875,19.1515625 3.96875,19.1515625 C3.96875,19.4867187 3.825,19.6304687 3.48984375,19.6304687 C3.48984375,19.6304687 3.48984375,19.6304687 3.48984375,19.6304687 C3.1546875,19.6304687 2.96328125,19.4867187 2.96328125,19.1515625 Z M6.88984375,19.1515625 C6.88984375,19.4867187 6.74609375,19.6304687 6.4109375,19.6304687 C6.07578125,19.6304687 5.93203125,19.4867187 5.93203125,19.1515625 C5.93203125,19.1515625 5.93203125,19.1515625 5.93203125,19.1515625 C5.93203125,19.1515625 5.93203125,11.296875 5.93203125,11.296875 C5.93203125,10.9617187 6.07578125,10.8179687 6.4109375,10.8179687 C6.74609375,10.8179687 6.88984375,10.9617187 6.88984375,11.296875 C6.88984375,11.296875 6.88984375,11.296875 6.88984375,11.296875 C6.88984375,11.296875 6.88984375,19.1515625 6.88984375,19.1515625 Z M9.38046875,19.6304687 C9.38046875,19.6304687 9.38046875,19.6304687 9.38046875,19.6304687 C9.0453125,19.6304687 8.85390625,19.4867187 8.85390625,19.1515625 C8.85390625,19.1515625 8.85390625,19.1515625 8.85390625,19.1515625 C8.85390625,19.1515625 8.85390625,11.296875 8.85390625,11.296875 C8.85390625,10.9617187 9.0453125,10.8179687 9.38046875,10.8179687 C9.38046875,10.8179687 9.38046875,10.8179687 9.38046875,10.8179687 C9.715625,10.8179687 9.859375,10.9617187 9.859375,11.296875 C9.859375,11.296875 9.859375,11.296875 9.859375,11.296875 C9.859375,11.296875 9.859375,19.1515625 9.859375,19.1515625 C9.859375,19.4867187 9.715625,19.6304687 9.38046875,19.6304687 Z M18.671875,19.1515625 C18.671875,19.4867187 18.528125,19.6304687 18.1929687,19.6304687 C17.8578125,19.6304687 17.7140625,19.4867187 17.7140625,19.1515625 C17.7140625,19.1515625 17.7140625,19.1515625 17.7140625,19.1515625 C17.7140625,19.1515625 17.7140625,11.296875 17.7140625,11.296875 C17.7140625,10.9617187 17.8578125,10.8179687 18.1929687,10.8179687 C18.528125,10.8179687 18.671875,10.9617187 18.671875,11.296875 C18.671875,11.296875 18.671875,11.296875 18.671875,11.296875 C18.671875,11.296875 18.671875,19.1515625 18.671875,19.1515625 Z M15.2234375,19.6304687 C15.2234375,19.6304687 15.2234375,19.6304687 15.2234375,19.6304687 C14.8882813,19.6304687 14.7445312,19.4867187 14.7445312,19.1515625 C14.7445312,19.1515625 14.7445312,19.1515625 14.7445312,19.1515625 C14.7445312,19.1515625 14.7445312,11.296875 14.7445312,11.296875 C14.7445312,10.9617187 14.8882813,10.8179687 15.2234375,10.8179687 C15.2234375,10.8179687 15.2234375,10.8179687 15.2234375,10.8179687 C15.5585937,10.8179687 15.75,10.9617187 15.75,11.296875 C15.75,11.296875 15.75,11.296875 15.75,11.296875 C15.75,11.296875 15.75,19.1515625 15.75,19.1515625 C15.75,19.4867187 15.5585937,19.6304687 15.2234375,19.6304687 Z M21.6414062,11.296875 C21.6414062,11.296875 21.6414062,19.1515625 21.6414062,19.1515625 C21.6414062,19.4867187 21.45,19.6304687 21.1148437,19.6304687 C21.1148437,19.6304687 21.1148437,19.6304687 21.1148437,19.6304687 C20.7796875,19.6304687 20.6359375,19.4867187 20.6359375,19.1515625 C20.6359375,19.1515625 20.6359375,19.1515625 20.6359375,19.1515625 C20.6359375,19.1515625 20.6359375,11.296875 20.6359375,11.296875 C20.6359375,10.9617187 20.7796875,10.8179687 21.1148437,10.8179687 C21.1148437,10.8179687 21.1148437,10.8179687 21.1148437,10.8179687 C21.45,10.8179687 21.6414062,10.9617187 21.6414062,11.296875 C21.6414062,11.296875 21.6414062,11.296875 21.6414062,11.296875 Z M13.3554688,4.35234375 C13.0679688,4.11328125 12.7328125,3.96953125 12.3015625,3.96953125 C11.8703125,3.96953125 11.5351562,4.11328125 11.2476563,4.35234375 C10.9601562,4.63984375 10.8164062,4.975 10.8164062,5.40625 C10.8164062,5.8375 10.9601562,6.17265625 11.2476563,6.46015625 C11.5351562,6.74765625 11.8703125,6.89140625 12.3015625,6.89140625 C12.7328125,6.89140625 13.0679688,6.74765625 13.3554688,6.46015625 C13.6429687,6.17265625 13.7867188,5.8375 13.7867188,5.40625 C13.7867188,4.975 13.6429687,4.63984375 13.3554688,4.35234375 L13.3554688,4.35234375 Z M12.78125,5.40625 C12.78125,5.74140625 12.6375,5.9328125 12.3023438,5.9328125 C11.9671875,5.9328125 11.8234375,5.74140625 11.8234375,5.40625 C11.8234375,5.40625 11.8234375,5.40625 11.8234375,5.40625 C11.8234375,5.07109375 11.9671875,4.92734375 12.3023438,4.92734375 C12.6375,4.92734375 12.78125,5.07109375 12.78125,5.40625 C12.78125,5.40625 12.78125,5.40625 12.78125,5.40625 Z M2.96328125,22.1210938 C2.96328125,22.1210938 2.96328125,22.1210938 2.96328125,22.1210938 C2.96328125,21.7859375 3.1546875,21.5945312 3.48984375,21.5945312 C3.48984375,21.5945312 3.48984375,21.5945312 3.48984375,21.5945312 C3.48984375,21.5945312 21.1140625,21.5945312 21.1140625,21.5945312 C21.4492188,21.5945312 21.640625,21.7859375 21.640625,22.1210938 C21.640625,22.1210938 21.640625,22.1210938 21.640625,22.1210938 C21.640625,22.45625 21.4492188,22.6 21.1140625,22.6 C21.1140625,22.6 21.1140625,22.6 21.1140625,22.6 C21.1140625,22.6 3.48984375,22.6 3.48984375,22.6 C3.1546875,22.6 2.96328125,22.45625 2.96328125,22.1210938 Z"/>
  <title>Bank</title>
</svg>