<svg xmlns="http://www.w3.org/2000/svg" viewBox="0 0 25 25" id="bank-solid">
  <path d="M23.0789062,23.5578125 C23.4140625,23.5578125 23.5578125,23.7015625 23.5578125,24.0367187 C23.5578125,24.371875 23.4140625,24.515625 23.0789062,24.515625 C23.0789062,24.515625 23.0789062,24.515625 23.0789062,24.515625 C23.0789062,24.515625 1.47890625,24.515625 1.47890625,24.515625 C1.14375,24.515625 1,24.371875 1,24.0367187 C1,23.7015625 1.14375,23.5578125 1.47890625,23.5578125 C1.47890625,23.5578125 1.47890625,23.5578125 1.47890625,23.5578125 C1.47890625,23.5578125 23.0789062,23.5578125 23.0789062,23.5578125 Z M2.9640625,19.1515625 C2.9640625,19.4867188 3.1078125,19.6304688 3.44296875,19.6304688 C3.778125,19.6304688 3.921875,19.4867188 3.921875,19.1515625 C3.921875,19.1515625 3.921875,19.1515625 3.921875,19.1515625 C3.921875,19.1515625 3.921875,11.296875 3.921875,11.296875 C3.921875,10.9617188 3.778125,10.8179688 3.44296875,10.8179688 C3.1078125,10.8179688 2.9640625,10.9617188 2.9640625,11.296875 C2.9640625,11.296875 2.9640625,11.296875 2.9640625,11.296875 C2.9640625,11.296875 2.9640625,19.1515625 2.9640625,19.1515625 Z M6.89140625,19.1515625 C6.89140625,19.1515625 6.89140625,19.1515625 6.89140625,19.1515625 C6.89140625,19.1515625 6.89140625,11.296875 6.89140625,11.296875 C6.89140625,10.9617188 6.74765625,10.8179688 6.4125,10.8179688 C6.4125,10.8179688 6.4125,10.8179688 6.4125,10.8179688 C6.07734375,10.8179688 5.8859375,10.9617188 5.8859375,11.296875 C5.8859375,11.296875 5.8859375,11.296875 5.8859375,11.296875 C5.8859375,11.296875 5.8859375,19.1515625 5.8859375,19.1515625 C5.8859375,19.4867188 6.07734375,19.6304688 6.4125,19.6304688 C6.4125,19.6304688 6.4125,19.6304688 6.4125,19.6304688 C6.74765625,19.6304688 6.89140625,19.4867188 6.89140625,19.1515625 Z M9.8125,19.1515625 C9.8125,19.1515625 9.8125,19.1515625 9.8125,19.1515625 C9.8125,19.1515625 9.8125,11.296875 9.8125,11.296875 C9.8125,10.9617188 9.66875,10.8179688 9.33359375,10.8179688 C8.9984375,10.8179688 8.8546875,10.9617188 8.8546875,11.296875 C8.8546875,11.296875 8.8546875,11.296875 8.8546875,11.296875 C8.8546875,11.296875 8.8546875,19.1515625 8.8546875,19.1515625 C8.8546875,19.4867188 8.9984375,19.6304688 9.33359375,19.6304688 C9.66875,19.6304688 9.8125,19.4867188 9.8125,19.1515625 Z M18.6726563,19.1515625 C18.6726563,19.1515625 18.6726563,19.1515625 18.6726563,19.1515625 C18.6726563,19.1515625 18.6726563,11.296875 18.6726563,11.296875 C18.6726563,10.9617188 18.48125,10.8179688 18.1460938,10.8179688 C18.1460938,10.8179688 18.1460938,10.8179688 18.1460938,10.8179688 C17.8109375,10.8179688 17.6671875,10.9617188 17.6671875,11.296875 C17.6671875,11.296875 17.6671875,11.296875 17.6671875,11.296875 C17.6671875,11.296875 17.6671875,19.1515625 17.6671875,19.1515625 C17.6671875,19.4867188 17.8109375,19.6304688 18.1460938,19.6304688 C18.1460938,19.6304688 18.1460938,19.6304688 18.1460938,19.6304688 C18.48125,19.6304688 18.6726563,19.4867188 18.6726563,19.1515625 Z M15.703125,19.1515625 C15.703125,19.1515625 15.703125,19.1515625 15.703125,19.1515625 C15.703125,19.1515625 15.703125,11.296875 15.703125,11.296875 C15.703125,10.9617188 15.559375,10.8179688 15.2242188,10.8179688 C14.8890625,10.8179688 14.7453125,10.9617188 14.7453125,11.296875 C14.7453125,11.296875 14.7453125,11.296875 14.7453125,11.296875 C14.7453125,11.296875 14.7453125,19.1515625 14.7453125,19.1515625 C14.7453125,19.4867188 14.8890625,19.6304688 15.2242188,19.6304688 C15.559375,19.6304688 15.703125,19.4867188 15.703125,19.1515625 Z M21.5945312,19.1515625 C21.5945312,19.1515625 21.5945312,11.296875 21.5945312,11.296875 C21.5945312,10.9617188 21.4507812,10.8179688 21.115625,10.8179688 C20.7804688,10.8179688 20.6367188,10.9617188 20.6367188,11.296875 C20.6367188,11.296875 20.6367188,11.296875 20.6367188,11.296875 C20.6367188,11.296875 20.6367188,19.1515625 20.6367188,19.1515625 C20.6367188,19.4867188 20.7804688,19.6304688 21.115625,19.6304688 C21.4507812,19.6304688 21.5945312,19.4867188 21.5945312,19.1515625 C21.5945312,19.1515625 21.5945312,19.1515625 21.5945312,19.1515625 Z M2.00625,8.51953125 C2.00625,8.51953125 2.00625,8.51953125 2.00625,8.51953125 C2.00625,8.51953125 2.00625,8.471875 2.00625,8.471875 C1.95859375,8.42421875 1.95859375,8.42421875 1.95859375,8.37578125 C1.95859375,8.37578125 1.95859375,8.37578125 1.95859375,8.37578125 C1.95859375,8.184375 2.0546875,8.040625 2.19765625,7.94453125 C2.19765625,7.94453125 2.19765625,7.94453125 2.19765625,7.94453125 C2.19765625,7.94453125 12.015625,1.09609375 12.015625,1.09609375 C12.0632813,1.0484375 12.159375,1 12.2546875,1 C12.2546875,1 12.2546875,1 12.2546875,1 C12.3984375,1 12.49375,1.04765625 12.5421875,1.09609375 C12.5421875,1.09609375 12.5421875,1.09609375 12.5421875,1.09609375 C12.5421875,1.09609375 22.3601563,7.94453125 22.3601563,7.94453125 C22.5039063,8.040625 22.5992188,8.18359375 22.5992188,8.37578125 C22.5992188,8.37578125 22.5992188,8.37578125 22.5992188,8.37578125 C22.5992188,8.7109375 22.4078125,8.8546875 22.0726563,8.8546875 C22.0726563,8.8546875 22.0726563,8.8546875 22.0726563,8.8546875 C22.0726563,8.8546875 2.484375,8.8546875 2.484375,8.8546875 C2.2453125,8.8546875 2.053125,8.75859375 2.00546875,8.51953125 L2.00625,8.51953125 Z M11.2492188,4.35234375 C10.9617188,4.63984375 10.8179688,4.975 10.8179688,5.40625 C10.8179688,5.8375 10.9617188,6.17265625 11.2492188,6.46015625 C11.5367188,6.74765625 11.871875,6.89140625 12.2546875,6.89140625 C12.2546875,6.89140625 12.2546875,6.89140625 12.2546875,6.89140625 C12.6859375,6.89140625 13.0210938,6.74765625 13.3085938,6.46015625 C13.5960937,6.17265625 13.7398438,5.8375 13.7398438,5.40625 C13.7398438,4.975 13.5960937,4.63984375 13.3085938,4.35234375 C13.0210938,4.06484375 12.6859375,3.92109375 12.2546875,3.92109375 C12.2546875,3.92109375 12.2546875,3.92109375 12.2546875,3.92109375 C11.871875,3.92109375 11.5359375,4.06484375 11.2492188,4.35234375 Z M3.44296875,22.6 C3.44296875,22.6 3.44296875,22.6 3.44296875,22.6 C3.44296875,22.6 21.115625,22.6 21.115625,22.6 C21.4507812,22.6 21.5945312,22.4085938 21.5945312,22.0734375 C21.5945312,22.0734375 21.5945312,22.0734375 21.5945312,22.0734375 C21.5945312,21.7382812 21.4507812,21.5945312 21.115625,21.5945312 C21.115625,21.5945312 21.115625,21.5945312 21.115625,21.5945312 C21.115625,21.5945312 3.44296875,21.5945312 3.44296875,21.5945312 C3.1078125,21.5945312 2.9640625,21.7382812 2.9640625,22.0734375 C2.9640625,22.0734375 2.9640625,22.0734375 2.9640625,22.0734375 C2.9640625,22.4085938 3.1078125,22.6 3.44296875,22.6 Z"/>
  <title>Bank Solid</title>
</svg>