<svg xmlns="http://www.w3.org/2000/svg" viewBox="0 0 25 25" id="bars">
  <path d="M3,4 C3,4 21.678125,4 21.678125,4 C21.678125,4 21.678125,5.96328125 21.678125,5.96328125 C21.678125,5.96328125 3,5.96328125 3,5.96328125 C3,5.96328125 3,4 3,4 Z M3,11.3757812 C3,11.3757812 21.678125,11.3757812 21.678125,11.3757812 C21.678125,11.3757812 21.678125,13.2914063 21.678125,13.2914063 C21.678125,13.2914063 3,13.2914063 3,13.2914063 C3,13.2914063 3,11.3757812 3,11.3757812 L3,11.3757812 Z M3,18.703125 C3,18.703125 21.678125,18.703125 21.678125,18.703125 C21.678125,18.703125 21.678125,20.6664062 21.678125,20.6664062 C21.678125,20.6664062 3,20.6664062 3,20.6664062 C3,20.6664062 3,18.703125 3,18.703125 Z"/>
  <title>Bars</title>
</svg>