<svg xmlns="http://www.w3.org/2000/svg" viewBox="0 0 25 25" id="battery-charge-solid">
  <path d="M22.5585938,8.92734375 C22.5585938,8.92734375 23.0375,8.92734375 23.0375,8.92734375 C23.46875,8.92734375 23.8039063,9.07109375 24.0914063,9.35859375 C24.3789062,9.64609375 24.5226563,9.98125 24.5226563,10.4125 C24.5226563,10.4125 24.5226563,10.4125 24.5226563,10.4125 C24.5226563,10.4125 24.5226563,13.3335937 24.5226563,13.3335937 C24.5226563,13.7648437 24.3789063,14.1 24.0914063,14.3875 C23.8039063,14.675 23.46875,14.81875 23.0375,14.81875 C23.0375,14.81875 23.0375,14.81875 23.0375,14.81875 C23.0375,14.81875 22.5585938,14.81875 22.5585938,14.81875 C22.5585938,14.81875 22.5585938,17.2609375 22.5585938,17.2609375 C22.5585938,17.6921875 22.4148438,18.0273438 22.1273438,18.3148438 C21.8398438,18.6023437 21.5046875,18.7460938 21.0734375,18.7460938 C21.0734375,18.7460938 21.0734375,18.7460938 21.0734375,18.7460938 C21.0734375,18.7460938 1.48515625,18.7460938 1.48515625,18.7460938 C1.05390625,18.7460938 0.71875,18.6023437 0.43125,18.3148438 C0.14375,18.0273438 0,17.6921875 0,17.2609375 C0,17.2609375 0,17.2609375 0,17.2609375 C0,17.2609375 0,6.48515625 0,6.48515625 C0,6.05390625 0.14375,5.71875 0.43125,5.43125 C0.71875,5.14375 1.05390625,5 1.48515625,5 C1.48515625,5 1.48515625,5 1.48515625,5 C1.48515625,5 21.0734375,5 21.0734375,5 C21.5046875,5 21.8398438,5.14375 22.1273438,5.43125 C22.4148438,5.71875 22.5585938,6.05390625 22.5585938,6.48515625 C22.5585938,6.48515625 22.5585938,6.48515625 22.5585938,6.48515625 C22.5585938,6.48515625 22.5585938,8.92734375 22.5585938,8.92734375 Z M10.7765625,12.8546875 C10.7765625,12.8546875 9.77109375,16.7820312 9.77109375,16.7820312 C9.77109375,16.7820312 13.7460938,11.8492187 13.7460938,11.8492187 C13.7460938,11.8492187 11.7828125,10.8914062 11.7828125,10.8914062 C11.7828125,10.8914062 12.740625,6.9640625 12.740625,6.9640625 C12.740625,6.9640625 8.81328125,11.8492187 8.81328125,11.8492187 C8.81328125,11.8492187 10.7765625,12.8546875 10.7765625,12.8546875 Z"/>
  <title>Battery Charge Solid</title>
</svg>