<svg xmlns="http://www.w3.org/2000/svg" viewBox="0 0 25 25" id="battery-charge">
  <path d="M23.0375,8.92734375 C23.0375,8.92734375 23.0375,8.92734375 23.0375,8.92734375 C23.0375,8.92734375 22.5585938,8.92734375 22.5585938,8.92734375 C22.5585938,8.92734375 22.5585938,6.48515625 22.5585938,6.48515625 C22.5585938,6.05390625 22.4148438,5.71875 22.1273438,5.43125 C21.8398438,5.14375 21.5046875,5 21.0734375,5 C21.0734375,5 21.0734375,5 21.0734375,5 C21.0734375,5 1.48515625,5 1.48515625,5 C1.05390625,5 0.71875,5.14375 0.43125,5.43125 C0.14375,5.71875 0,6.05390625 0,6.48515625 C0,6.48515625 0,6.48515625 0,6.48515625 C0,6.48515625 0,17.2609375 0,17.2609375 C0,17.6921875 0.14375,18.0273438 0.43125,18.3148438 C0.71875,18.6023438 1.05390625,18.7460938 1.48515625,18.7460938 C1.48515625,18.7460938 1.48515625,18.7460938 1.48515625,18.7460938 C1.48515625,18.7460938 21.0734375,18.7460938 21.0734375,18.7460938 C21.5046875,18.7460938 21.8398438,18.6023438 22.1273438,18.3148438 C22.4148438,18.0273438 22.5585938,17.6921875 22.5585938,17.2609375 C22.5585938,17.2609375 22.5585938,17.2609375 22.5585938,17.2609375 C22.5585938,17.2609375 22.5585938,14.81875 22.5585938,14.81875 C22.5585938,14.81875 23.0375,14.81875 23.0375,14.81875 C23.46875,14.81875 23.8039063,14.675 24.0914063,14.3875 C24.3789062,14.1 24.5226563,13.7648438 24.5226563,13.3335938 C24.5226563,13.3335938 24.5226563,13.3335938 24.5226563,13.3335938 C24.5226563,13.3335938 24.5226563,10.3640625 24.5226563,10.3640625 C24.5226563,9.98125 24.3789063,9.6453125 24.0914063,9.35859375 C23.8039063,9.071875 23.46875,8.92734375 23.0375,8.92734375 Z M23.5640625,10.3640625 C23.5640625,10.3640625 23.5640625,13.3335938 23.5640625,13.3335938 C23.5640625,13.66875 23.3726563,13.8125 23.0375,13.8125 C23.0375,13.8125 23.0375,13.8125 23.0375,13.8125 C23.0375,13.8125 21.6007813,13.8125 21.6007813,13.8125 C21.6007813,13.8125 21.6007813,17.2609375 21.6007813,17.2609375 C21.6007813,17.5960937 21.409375,17.7398438 21.0742188,17.7398438 C21.0742188,17.7398438 21.0742188,17.7398438 21.0742188,17.7398438 C21.0742188,17.7398438 1.4859375,17.7398438 1.4859375,17.7398438 C1.15078125,17.7398438 0.959375,17.5960937 0.959375,17.2609375 C0.959375,17.2609375 0.959375,17.2609375 0.959375,17.2609375 C0.959375,17.2609375 0.959375,6.48515625 0.959375,6.48515625 C0.959375,6.15 1.15078125,5.95859375 1.4859375,5.95859375 C1.4859375,5.95859375 1.4859375,5.95859375 1.4859375,5.95859375 C1.4859375,5.95859375 21.0742188,5.95859375 21.0742188,5.95859375 C21.409375,5.95859375 21.6007813,6.15 21.6007813,6.48515625 C21.6007813,6.48515625 21.6007813,6.48515625 21.6007813,6.48515625 C21.6007813,6.48515625 21.6007813,9.88515625 21.6007813,9.88515625 C21.6007813,9.88515625 23.0375,9.88515625 23.0375,9.88515625 C23.3726563,9.88515625 23.5640625,10.0289063 23.5640625,10.3640625 C23.5640625,10.3640625 23.5640625,10.3640625 23.5640625,10.3640625 Z M12.740625,6.9640625 C12.740625,6.9640625 11.7828125,10.8914062 11.7828125,10.8914062 C11.7828125,10.8914062 13.7460938,11.8492187 13.7460938,11.8492187 C13.7460938,11.8492187 9.77109375,16.7820312 9.77109375,16.7820312 C9.77109375,16.7820312 10.7765625,12.8546875 10.7765625,12.8546875 C10.7765625,12.8546875 8.81328125,11.8492187 8.81328125,11.8492187 C8.81328125,11.8492187 12.740625,6.9640625 12.740625,6.9640625 L12.740625,6.9640625 Z"/>
  <title>Battery Charge</title>
</svg>