<svg xmlns="http://www.w3.org/2000/svg" viewBox="0 0 25 25" id="bell-off">
  <path d="M21.109375,19.6296875 C21.109375,19.6296875 8.94453125,19.6296875 8.94453125,19.6296875 C8.94453125,19.6296875 9.61484375,18.671875 9.61484375,18.671875 C9.61484375,18.671875 21.109375,18.671875 21.109375,18.671875 C21.4445313,18.671875 21.6359375,18.4804688 21.6359375,18.1453125 C21.6359375,18.1453125 21.6359375,18.1453125 21.6359375,18.1453125 C21.6359375,18.1453125 21.6359375,17.2835938 21.6359375,17.2835938 C21.5882813,17.1875 21.5398438,17.0921875 21.4921875,16.9484375 C21.4921875,16.9484375 21.4921875,16.9484375 21.4921875,16.9484375 C21.4921875,16.9484375 20.1515625,15.6554688 20.1515625,15.6554688 C19.8164063,15.4164063 19.6726563,15.0328125 19.625,14.5539063 C19.625,14.5539063 19.625,14.5539063 19.625,14.5539063 C19.625,14.5539063 18.6195313,7.41796875 18.6195313,7.41796875 C18.571875,7.03515625 18.4757813,6.6515625 18.3320313,6.26875 C18.3320313,6.26875 18.3320313,6.26875 18.3320313,6.26875 C18.3320313,6.26875 19.0023438,5.3109375 19.0023438,5.3109375 C19.2898438,5.93359375 19.48125,6.60390625 19.5773438,7.32265625 C19.5773438,7.32265625 19.5773438,7.32265625 19.5773438,7.32265625 C19.5773438,7.32265625 20.5828125,14.4109375 20.5828125,14.4109375 C20.6304688,14.6023438 20.7265625,14.79375 20.8703125,14.9859375 C20.8703125,14.9859375 20.8703125,14.9859375 20.8703125,14.9859375 C20.8703125,14.9859375 22.1632813,16.2789063 22.1632813,16.2789063 C22.4507813,16.5664063 22.5945313,16.9015625 22.5945313,17.284375 C22.5945313,17.284375 22.5945313,17.284375 22.5945313,17.284375 C22.5945313,17.284375 22.5945313,18.1460938 22.5945313,18.1460938 C22.5945313,18.5773438 22.4507813,18.9125 22.1632813,19.2 C21.8757813,19.4875 21.540625,19.63125 21.109375,19.63125 C21.109375,19.63125 21.109375,19.63125 21.109375,19.63125 L21.109375,19.6296875 Z M6.0234375,18.671875 C6.0234375,18.671875 5.353125,19.6296875 5.353125,19.6296875 C5.353125,19.6296875 3.48515625,19.6296875 3.48515625,19.6296875 C3.05390625,19.6296875 2.71875,19.4859375 2.43125,19.1984375 C2.14375,18.9109375 2,18.5757812 2,18.1445312 C2,18.1445312 2,18.1445312 2,18.1445312 C2,18.1445312 2,17.2828125 2,17.2828125 C2,16.9 2.14375,16.5640625 2.43125,16.2773438 C2.43125,16.2773438 2.43125,16.2773438 2.43125,16.2773438 C2.43125,16.2773438 3.72421875,14.984375 3.72421875,14.984375 C3.86796875,14.7929687 3.96328125,14.6015625 4.01171875,14.409375 C4.01171875,14.409375 4.01171875,14.409375 4.01171875,14.409375 C4.01171875,14.409375 5.0171875,7.2734375 5.0171875,7.2734375 C5.25625,5.5015625 6.07109375,4.01640625 7.459375,2.81953125 C7.459375,2.81953125 7.459375,2.81953125 7.459375,2.81953125 C8.8484375,1.621875 10.4765625,1 12.296875,1 C12.296875,1 12.296875,1 12.296875,1 C14.06875,1 15.696875,1.62265625 17.0859375,2.81953125 C17.0859375,2.81953125 17.0859375,2.81953125 17.0859375,2.81953125 C17.0859375,2.81953125 17.1335937,2.81953125 17.1335937,2.81953125 C17.1335937,2.81953125 16.5585938,3.63359375 16.5585938,3.63359375 C16.5585938,3.63359375 16.4625,3.5375 16.4625,3.5375 C15.2648437,2.48359375 13.8765625,1.95703125 12.2960937,1.95703125 C10.715625,1.95703125 9.3265625,2.48359375 8.1296875,3.5375 C8.1296875,3.5375 8.1296875,3.5375 8.1296875,3.5375 C6.93203125,4.59140625 6.2140625,5.884375 5.97421875,7.46484375 C5.97421875,7.46484375 5.97421875,7.46484375 5.97421875,7.46484375 C5.97421875,7.46484375 4.96875,14.553125 4.96875,14.553125 C4.92109375,15.0320312 4.77734375,15.4148438 4.4421875,15.6546875 C4.4421875,15.6546875 4.4421875,15.6546875 4.4421875,15.6546875 C4.4421875,15.6546875 3.1015625,16.9476563 3.1015625,16.9476563 C3.1015625,16.9476563 2.9578125,17.2828125 2.9578125,17.2828125 C2.9578125,17.2828125 2.9578125,18.1445312 2.9578125,18.1445312 C2.9578125,18.4796875 3.14921875,18.6710938 3.484375,18.6710938 C3.484375,18.6710938 3.484375,18.6710938 3.484375,18.6710938 C3.484375,18.6710938 6.02265625,18.6710938 6.02265625,18.6710938 L6.0234375,18.671875 Z M14.6921875,20.6351563 C14.6921875,20.6351563 14.6921875,20.6351563 14.6921875,20.6351563 C14.6921875,20.6351563 15.6976563,20.6351563 15.6976563,20.6351563 C15.5539063,21.4492188 15.1710938,22.1679688 14.5484375,22.7421875 C14.5484375,22.7421875 14.5484375,22.7421875 14.5484375,22.7421875 C13.9734375,23.26875 13.2078125,23.55625 12.2976562,23.55625 C11.3875,23.55625 10.6210937,23.26875 10.046875,22.7421875 C10.046875,22.7421875 10.046875,22.7421875 10.046875,22.7421875 C9.42421875,22.1671875 9.04140625,21.4492188 8.89765625,20.6351563 C8.89765625,20.6351563 8.89765625,20.6351563 8.89765625,20.6351563 C8.89765625,20.6351563 9.903125,20.6351563 9.903125,20.6351563 C10.046875,21.2101563 10.334375,21.6890625 10.7648437,22.071875 C10.7648437,22.071875 10.7648437,22.071875 10.7648437,22.071875 C11.1476562,22.4070312 11.675,22.5984375 12.2976562,22.5984375 C12.9203125,22.5984375 13.446875,22.4070312 13.8304688,22.071875 C13.8304688,22.071875 13.8304688,22.071875 13.8304688,22.071875 C14.2617188,21.6890625 14.5492188,21.2101563 14.6921875,20.6351563 Z M19.48125,2.10078125 C19.48125,2.10078125 19.48125,2.10078125 19.48125,2.10078125 C19.625,2.24453125 19.6726562,2.33984375 19.6726562,2.48359375 C19.6726562,2.62734375 19.625,2.7234375 19.5765625,2.77109375 C19.5765625,2.77109375 19.5765625,2.77109375 19.5765625,2.77109375 C19.5765625,2.77109375 5.78359375,22.4070313 5.78359375,22.4070313 C5.6875,22.5507813 5.54453125,22.5984375 5.40078125,22.5984375 C5.40078125,22.5984375 5.40078125,22.5984375 5.40078125,22.5984375 C5.065625,22.5984375 4.921875,22.4546875 4.921875,22.1195313 C4.921875,22.1195313 4.921875,22.1195313 4.921875,22.1195313 C4.921875,21.9757813 4.96953125,21.8804688 5.01796875,21.8320313 C5.01796875,21.8320313 5.01796875,21.8320313 5.01796875,21.8320313 C5.01796875,21.8320313 18.7632812,2.19609375 18.7632812,2.19609375 C18.859375,2.05234375 19.0023437,2.0046875 19.1460937,2.0046875 C19.1460937,2.0046875 19.1460937,2.0046875 19.1460937,2.0046875 C19.19375,2.0046875 19.2898437,2.05234375 19.48125,2.10078125 L19.48125,2.10078125 Z"/>
  <title>Bell Off</title>
</svg>