<svg xmlns="http://www.w3.org/2000/svg" viewBox="0 0 25 25" id="bell-off-solid">
  <path d="M21.109375,19.6296875 C21.109375,19.6296875 8.94453125,19.6296875 8.94453125,19.6296875 C8.94453125,19.6296875 19.0023437,5.31015625 19.0023437,5.31015625 C19.2898437,5.9328125 19.48125,6.603125 19.5773438,7.321875 C19.5773438,7.321875 19.5773438,7.321875 19.5773438,7.321875 C19.5773438,7.321875 20.5828125,14.4101563 20.5828125,14.4101563 C20.6304687,14.6015625 20.7265625,14.7929688 20.8703125,14.9851563 C20.8703125,14.9851563 20.8703125,14.9851563 20.8703125,14.9851563 C20.8703125,14.9851563 22.1632813,16.278125 22.1632813,16.278125 C22.4507812,16.565625 22.5945312,16.9007813 22.5945312,17.2835938 C22.5945312,17.2835938 22.5945312,17.2835938 22.5945312,17.2835938 C22.5945312,17.2835938 22.5945312,18.1453125 22.5945312,18.1453125 C22.5945312,18.5765625 22.4507812,18.9117188 22.1632813,19.1992188 C21.8757812,19.4867188 21.540625,19.6304688 21.109375,19.6304688 C21.109375,19.6304688 21.109375,19.6304688 21.109375,19.6304688 L21.109375,19.6296875 Z M17.134375,2.81953125 C17.134375,2.81953125 5.353125,19.6296875 5.353125,19.6296875 C5.353125,19.6296875 3.48515625,19.6296875 3.48515625,19.6296875 C3.05390625,19.6296875 2.71875,19.4859375 2.43125,19.1984375 C2.14375,18.9109375 2,18.5757812 2,18.1445312 C2,18.1445312 2,18.1445312 2,18.1445312 C2,18.1445312 2,17.2828125 2,17.2828125 C2,16.9 2.14375,16.5640625 2.43125,16.2773438 C2.43125,16.2773438 2.43125,16.2773438 2.43125,16.2773438 C2.43125,16.2773438 3.72421875,14.984375 3.72421875,14.984375 C3.86796875,14.7929687 3.96328125,14.6015625 4.01171875,14.409375 C4.01171875,14.409375 4.01171875,14.409375 4.01171875,14.409375 C4.01171875,14.409375 5.0171875,7.2734375 5.0171875,7.2734375 C5.25625,5.5015625 6.07109375,4.01640625 7.459375,2.81953125 C7.459375,2.81953125 7.459375,2.81953125 7.459375,2.81953125 C8.8484375,1.621875 10.4765625,1 12.296875,1 C12.296875,1 12.296875,1 12.296875,1 C14.06875,1 15.696875,1.62265625 17.0859375,2.81953125 C17.0859375,2.81953125 17.0859375,2.81953125 17.0859375,2.81953125 C17.0859375,2.81953125 17.1335937,2.81953125 17.1335937,2.81953125 L17.134375,2.81953125 Z M8.896875,20.6351563 C8.896875,20.6351563 8.896875,20.6351563 8.896875,20.6351563 C8.896875,20.6351563 15.6976562,20.6351563 15.6976562,20.6351563 C15.5539062,21.4492188 15.1710937,22.1679688 14.5484375,22.7421875 C13.9257812,23.3164062 13.159375,23.6039063 12.2976562,23.6039063 C11.4359375,23.6039063 10.6695312,23.3164063 10.046875,22.7421875 C9.42421875,22.1679687 9.04140625,21.4492188 8.89765625,20.6351563 L8.896875,20.6351563 Z M19.48125,2.10078125 C19.48125,2.10078125 19.48125,2.10078125 19.48125,2.10078125 C19.625,2.24453125 19.6726562,2.33984375 19.6726562,2.48359375 C19.6726562,2.62734375 19.625,2.7234375 19.5765625,2.77109375 C19.5765625,2.77109375 19.5765625,2.77109375 19.5765625,2.77109375 C19.5765625,2.77109375 5.78359375,22.4070313 5.78359375,22.4070313 C5.6875,22.5507813 5.54453125,22.5984375 5.40078125,22.5984375 C5.40078125,22.5984375 5.40078125,22.5984375 5.40078125,22.5984375 C5.065625,22.5984375 4.921875,22.4546875 4.921875,22.1195313 C4.921875,22.1195313 4.921875,22.1195313 4.921875,22.1195313 C4.921875,21.9757813 4.96953125,21.8804688 5.01796875,21.8320313 C5.01796875,21.8320313 5.01796875,21.8320313 5.01796875,21.8320313 C5.01796875,21.8320313 18.7632812,2.19609375 18.7632812,2.19609375 C18.859375,2.05234375 19.0023437,2.0046875 19.1460937,2.0046875 C19.1460937,2.0046875 19.1460937,2.0046875 19.1460937,2.0046875 C19.19375,2.0046875 19.2898437,2.05234375 19.48125,2.10078125 L19.48125,2.10078125 Z"/>
  <title>Bell Off Solid</title>
</svg>