<svg xmlns="http://www.w3.org/2000/svg" viewBox="0 0 25 25" id="bell-solid">
  <path d="M20.8703125,14.984375 C20.8703125,14.984375 22.1632813,16.2773438 22.1632813,16.2773438 C22.4507812,16.5648437 22.5945312,16.9 22.5945312,17.2828125 C22.5945312,17.2828125 22.5945312,17.2828125 22.5945312,17.2828125 C22.5945312,17.2828125 22.5945312,18.1445312 22.5945312,18.1445312 C22.5945312,18.5757812 22.4507812,18.9109375 22.1632813,19.1984375 C21.8757812,19.4859375 21.540625,19.6296875 21.109375,19.6296875 C21.109375,19.6296875 21.109375,19.6296875 21.109375,19.6296875 C21.109375,19.6296875 3.48515625,19.6296875 3.48515625,19.6296875 C3.05390625,19.6296875 2.71875,19.4859375 2.43125,19.1984375 C2.14375,18.9109375 2,18.5757812 2,18.1445312 C2,18.1445312 2,18.1445312 2,18.1445312 C2,18.1445312 2,17.2828125 2,17.2828125 C2,16.9 2.14375,16.5640625 2.43125,16.2773438 C2.43125,16.2773438 2.43125,16.2773438 2.43125,16.2773438 C2.43125,16.2773438 3.72421875,14.984375 3.72421875,14.984375 C3.86796875,14.7929687 3.96328125,14.6015625 4.01171875,14.409375 C4.01171875,14.409375 4.01171875,14.409375 4.01171875,14.409375 C4.01171875,14.409375 5.0171875,7.2734375 5.0171875,7.2734375 C5.25625,5.5015625 6.07109375,4.01640625 7.459375,2.81953125 C7.459375,2.81953125 7.459375,2.81953125 7.459375,2.81953125 C8.8484375,1.621875 10.4765625,1 12.296875,1 C12.296875,1 12.296875,1 12.296875,1 C14.06875,1 15.696875,1.62265625 17.0859375,2.81953125 C17.0859375,2.81953125 17.0859375,2.81953125 17.0859375,2.81953125 C18.5226562,4.06484375 19.3367187,5.54921875 19.5765625,7.32109375 C19.5765625,7.32109375 19.5765625,7.32109375 19.5765625,7.32109375 C19.5765625,7.32109375 20.5820312,14.409375 20.5820312,14.409375 C20.6296875,14.6007813 20.7257812,14.7921875 20.8695312,14.984375 C20.8695312,14.984375 20.8695312,14.984375 20.8695312,14.984375 L20.8703125,14.984375 Z M8.896875,20.6351563 C8.896875,20.6351563 8.896875,20.6351563 8.896875,20.6351563 C8.896875,20.6351563 15.6976562,20.6351563 15.6976562,20.6351563 C15.5539062,21.4492188 15.1710937,22.1679688 14.5484375,22.7421875 C13.9257812,23.3164062 13.159375,23.6039063 12.2976562,23.6039063 C11.4359375,23.6039063 10.6695312,23.3164063 10.046875,22.7421875 C9.42421875,22.1679687 9.04140625,21.4492188 8.89765625,20.6351563 L8.896875,20.6351563 Z"/>
  <title>Bell Solid</title>
</svg>