<svg xmlns="http://www.w3.org/2000/svg" viewBox="0 0 25 25" id="bell">
  <path d="M20.8703125,14.984375 C20.8703125,14.984375 22.1632813,16.2773438 22.1632813,16.2773438 C22.4507812,16.5648437 22.5945312,16.9 22.5945312,17.2828125 C22.5945312,17.2828125 22.5945312,17.2828125 22.5945312,17.2828125 C22.5945312,17.2828125 22.5945312,18.1445312 22.5945312,18.1445312 C22.5945312,18.5757812 22.4507812,18.9109375 22.1632813,19.1984375 C21.8757812,19.4859375 21.540625,19.6296875 21.109375,19.6296875 C21.109375,19.6296875 21.109375,19.6296875 21.109375,19.6296875 C21.109375,19.6296875 3.48515625,19.6296875 3.48515625,19.6296875 C3.05390625,19.6296875 2.71875,19.4859375 2.43125,19.1984375 C2.14375,18.9109375 2,18.5757812 2,18.1445312 C2,18.1445312 2,18.1445312 2,18.1445312 C2,18.1445312 2,17.2828125 2,17.2828125 C2,16.9 2.14375,16.5640625 2.43125,16.2773438 C2.43125,16.2773438 2.43125,16.2773438 2.43125,16.2773438 C2.43125,16.2773438 3.72421875,14.984375 3.72421875,14.984375 C3.86796875,14.7929687 3.96328125,14.6015625 4.01171875,14.409375 C4.01171875,14.409375 4.01171875,14.409375 4.01171875,14.409375 C4.01171875,14.409375 5.0171875,7.2734375 5.0171875,7.2734375 C5.25625,5.5015625 6.07109375,4.01640625 7.459375,2.81953125 C7.459375,2.81953125 7.459375,2.81953125 7.459375,2.81953125 C8.8484375,1.621875 10.4765625,1 12.296875,1 C12.296875,1 12.296875,1 12.296875,1 C14.06875,1 15.696875,1.62265625 17.0859375,2.81953125 C17.0859375,2.81953125 17.0859375,2.81953125 17.0859375,2.81953125 C18.5226562,4.06484375 19.3367187,5.54921875 19.5765625,7.32109375 C19.5765625,7.32109375 19.5765625,7.32109375 19.5765625,7.32109375 C19.5765625,7.32109375 20.5820312,14.409375 20.5820312,14.409375 C20.6296875,14.6007813 20.7257812,14.7921875 20.8695312,14.984375 C20.8695312,14.984375 20.8695312,14.984375 20.8695312,14.984375 L20.8703125,14.984375 Z M21.6367188,18.1453125 C21.6367188,18.1453125 21.6367188,17.2835938 21.6367188,17.2835938 C21.5890625,17.1875 21.540625,17.0921875 21.4929687,16.9484375 C21.4929687,16.9484375 21.4929687,16.9484375 21.4929687,16.9484375 C21.4929687,16.9484375 20.1523437,15.6554688 20.1523437,15.6554688 C19.8171875,15.4164062 19.6734375,15.0328125 19.6257812,14.5539063 C19.6257812,14.5539063 19.6257812,14.5539063 19.6257812,14.5539063 C19.6257812,14.5539063 18.6203125,7.41796875 18.6203125,7.41796875 C18.38125,5.88515625 17.6625,4.5921875 16.4648437,3.53828125 C15.2671875,2.484375 13.8789062,1.9578125 12.2984375,1.9578125 C10.7179687,1.9578125 9.32890625,2.484375 8.13203125,3.53828125 C8.13203125,3.53828125 8.13203125,3.53828125 8.13203125,3.53828125 C6.934375,4.5921875 6.21640625,5.88515625 5.9765625,7.465625 C5.9765625,7.465625 5.9765625,7.465625 5.9765625,7.465625 C5.9765625,7.465625 4.97109375,14.5539063 4.97109375,14.5539063 C4.9234375,15.0328125 4.7796875,15.415625 4.44453125,15.6554688 C4.44453125,15.6554688 4.44453125,15.6554688 4.44453125,15.6554688 C4.44453125,15.6554688 3.10390625,16.9484375 3.10390625,16.9484375 C3.10390625,16.9484375 2.96015625,17.2835938 2.96015625,17.2835938 C2.96015625,17.2835938 2.96015625,18.1453125 2.96015625,18.1453125 C2.96015625,18.4804688 3.1515625,18.671875 3.48671875,18.671875 C3.48671875,18.671875 3.48671875,18.671875 3.48671875,18.671875 C3.48671875,18.671875 21.1109375,18.671875 21.1109375,18.671875 C21.4460937,18.671875 21.6375,18.4804688 21.6375,18.1453125 C21.6375,18.1453125 21.6375,18.1453125 21.6375,18.1453125 L21.6367188,18.1453125 Z M14.6921875,20.6351563 C14.6921875,20.6351563 14.6921875,20.6351563 14.6921875,20.6351563 C14.6921875,20.6351563 15.6976562,20.6351563 15.6976562,20.6351563 C15.5539062,21.4492188 15.1710937,22.1679688 14.5484375,22.7421875 C14.5484375,22.7421875 14.5484375,22.7421875 14.5484375,22.7421875 C13.9734375,23.26875 13.2078125,23.55625 12.2976562,23.55625 C11.3875,23.55625 10.6210937,23.26875 10.046875,22.7421875 C10.046875,22.7421875 10.046875,22.7421875 10.046875,22.7421875 C9.42421875,22.1671875 9.04140625,21.4492188 8.89765625,20.6351563 C8.89765625,20.6351563 8.89765625,20.6351563 8.89765625,20.6351563 C8.89765625,20.6351563 9.903125,20.6351563 9.903125,20.6351563 C10.046875,21.2101563 10.334375,21.6890625 10.7648437,22.071875 C10.7648437,22.071875 10.7648437,22.071875 10.7648437,22.071875 C11.1476562,22.4070312 11.675,22.5984375 12.2976562,22.5984375 C12.9203125,22.5984375 13.446875,22.4070312 13.8304687,22.071875 C13.8304687,22.071875 13.8304687,22.071875 13.8304687,22.071875 C14.2617187,21.6890625 14.5492187,21.2101563 14.6921875,20.6351563 Z"/>
  <title>Bell</title>
</svg>