<svg xmlns="http://www.w3.org/2000/svg" viewBox="0 0 25 25" id="blocks-solid">
  <path d="M21.0726563,20.5929688 C21.0726563,20.5929688 21.0726563,20.5929688 21.0726563,20.5929688 C21.0726563,20.5929688 9.53046875,20.5929688 9.53046875,20.5929688 C9.1953125,20.5929688 9.00390625,20.7367187 9.00390625,21.071875 C9.00390625,21.071875 9.00390625,21.071875 9.00390625,21.071875 C9.00390625,21.4070312 9.1953125,21.5984375 9.53046875,21.5984375 C9.53046875,21.5984375 9.53046875,21.5984375 9.53046875,21.5984375 C9.53046875,21.5984375 21.0726563,21.5984375 21.0726563,21.5984375 C21.4078125,21.5984375 21.5992188,21.4070312 21.5992188,21.071875 C21.5992188,21.071875 21.5992188,21.071875 21.5992188,21.071875 C21.5992188,20.7367187 21.4078125,20.5929688 21.0726563,20.5929688 Z M6.36953125,20.5929688 C6.36953125,20.5929688 6.36953125,20.5929688 6.36953125,20.5929688 C6.36953125,20.5929688 3.92734375,20.5929688 3.92734375,20.5929688 C3.92734375,20.5929688 3.92734375,18.1507813 3.92734375,18.1507813 C3.92734375,17.815625 3.78359375,17.671875 3.4484375,17.671875 C3.4484375,17.671875 3.4484375,17.671875 3.4484375,17.671875 C3.11328125,17.671875 2.921875,17.815625 2.921875,18.1507813 C2.921875,18.1507813 2.921875,18.1507813 2.921875,18.1507813 C2.921875,18.1507813 2.921875,20.5929688 2.921875,20.5929688 C2.921875,20.5929688 0.4796875,20.5929688 0.4796875,20.5929688 C0.14453125,20.5929688 0.00078125,20.7367188 0.00078125,21.071875 C0.00078125,21.071875 0.00078125,21.071875 0.00078125,21.071875 C0.00078125,21.4070312 0.14453125,21.5984375 0.4796875,21.5984375 C0.4796875,21.5984375 0.4796875,21.5984375 0.4796875,21.5984375 C0.4796875,21.5984375 2.921875,21.5984375 2.921875,21.5984375 C2.921875,21.5984375 2.921875,24.040625 2.921875,24.040625 C2.921875,24.3757813 3.11328125,24.5195312 3.4484375,24.5195312 C3.4484375,24.5195312 3.4484375,24.5195312 3.4484375,24.5195312 C3.78359375,24.5195312 3.92734375,24.3757813 3.92734375,24.040625 C3.92734375,24.040625 3.92734375,24.040625 3.92734375,24.040625 C3.92734375,24.040625 3.92734375,21.5984375 3.92734375,21.5984375 C3.92734375,21.5984375 6.36953125,21.5984375 6.36953125,21.5984375 C6.7046875,21.5984375 6.8484375,21.4070312 6.8484375,21.071875 C6.8484375,21.071875 6.8484375,21.071875 6.8484375,21.071875 C6.8484375,20.7367188 6.7046875,20.5929688 6.36953125,20.5929688 Z M0,6.8484375 C0,6.8484375 0,0 0,0 C0,0 24.5210937,0 24.5210937,0 C24.5210937,0 24.5210937,6.8484375 24.5210937,6.8484375 C24.5210937,6.8484375 0,6.8484375 0,6.8484375 Z M0,15.7085938 C0,15.7085938 0,8.81171875 0,8.81171875 C0,8.81171875 24.5210937,8.81171875 24.5210937,8.81171875 C24.5210937,8.81171875 24.5210937,15.7085938 24.5210937,15.7085938 C24.5210937,15.7085938 0,15.7085938 0,15.7085938 Z"/>
  <title>Blocks Solid</title>
</svg>