<svg xmlns="http://www.w3.org/2000/svg" viewBox="0 0 25 25" id="blocks">
  <path d="M24.5210937,0 C24.5210937,0 24.5210937,6.8484375 24.5210937,6.8484375 C24.5210937,6.8484375 0,6.8484375 0,6.8484375 C0,6.8484375 0,0 0,0 C0,0 24.5210937,0 24.5210937,0 Z M0.9578125,0.9578125 C0.9578125,0.9578125 0.9578125,5.890625 0.9578125,5.890625 C0.9578125,5.890625 23.5632813,5.890625 23.5632813,5.890625 C23.5632813,5.890625 23.5632813,0.9578125 23.5632813,0.9578125 C23.5632813,0.9578125 0.9578125,0.9578125 0.9578125,0.9578125 Z M24.5210937,8.8125 C24.5210937,8.8125 24.5210937,15.709375 24.5210937,15.709375 C24.5210937,15.709375 0,15.709375 0,15.709375 C0,15.709375 0,8.8125 0,8.8125 C0,8.8125 24.5210937,8.8125 24.5210937,8.8125 Z M0.9578125,9.81796875 C0.9578125,9.81796875 0.9578125,14.703125 0.9578125,14.703125 C0.9578125,14.703125 23.5632813,14.703125 23.5632813,14.703125 C23.5632813,14.703125 23.5632813,9.81796875 23.5632813,9.81796875 C23.5632813,9.81796875 0.9578125,9.81796875 0.9578125,9.81796875 Z M9.81796875,21.6 C9.81796875,21.6 9.81796875,20.5945312 9.81796875,20.5945312 C9.81796875,20.5945312 21.5992188,20.5945312 21.5992188,20.5945312 C21.5992188,20.5945312 21.5992188,21.6 21.5992188,21.6 C21.5992188,21.6 9.81796875,21.6 9.81796875,21.6 Z M6.8484375,20.59375 C6.8484375,20.59375 3.92734375,20.59375 3.92734375,20.59375 C3.92734375,20.59375 3.92734375,17.6726562 3.92734375,17.6726562 C3.92734375,17.6726562 2.921875,17.6726562 2.921875,17.6726562 C2.921875,17.6726562 2.921875,20.59375 2.921875,20.59375 C2.921875,20.59375 0.00078125,20.59375 0.00078125,20.59375 C0.00078125,20.59375 0.00078125,21.5992187 0.00078125,21.5992187 C0.00078125,21.5992187 2.921875,21.5992187 2.921875,21.5992187 C2.921875,21.5992187 2.921875,24.5203125 2.921875,24.5203125 C2.921875,24.5203125 3.92734375,24.5203125 3.92734375,24.5203125 C3.92734375,24.5203125 3.92734375,21.5992187 3.92734375,21.5992187 C3.92734375,21.5992187 6.8484375,21.5992187 6.8484375,21.5992187 C6.8484375,21.5992187 6.8484375,20.59375 6.8484375,20.59375 Z"/>
  <title>Blocks</title>
</svg>