<svg xmlns="http://www.w3.org/2000/svg" viewBox="0 0 25 25" id="bluetooth">
  <path d="M20.475,16.7625 C20.475,16.7625 13.578125,12.0210938 13.578125,12.0210938 C13.578125,12.0210938 20.475,7.2796875 20.475,7.2796875 C20.61875,7.18359375 20.7140625,7.040625 20.7140625,6.8484375 C20.7140625,6.8484375 20.7140625,6.8484375 20.7140625,6.8484375 C20.7140625,6.7046875 20.6664063,6.609375 20.5226562,6.465625 C20.5226562,6.465625 20.5226562,6.465625 20.5226562,6.465625 C20.5226562,6.465625 12.6679688,0.09609375 12.6679688,0.09609375 C12.5242187,0.0484375 12.4289062,0 12.3804688,0 C12.3804688,0 12.3804688,0 12.3804688,0 C12.0453125,0 11.8539062,0.14375 11.8539062,0.47890625 C11.8539062,0.47890625 11.8539062,0.47890625 11.8539062,0.47890625 C11.8539062,0.47890625 11.8539062,10.8234375 11.8539062,10.8234375 C11.8539062,10.8234375 4.765625,5.9859375 4.765625,5.9859375 C4.71796875,5.93828125 4.621875,5.88984375 4.5265625,5.88984375 C4.5265625,5.88984375 4.5265625,5.88984375 4.5265625,5.88984375 C4.19140625,5.88984375 4,6.03359375 4,6.36875 C4,6.36875 4,6.36875 4,6.36875 C4,6.56015625 4.09609375,6.70390625 4.2390625,6.7515625 C4.2390625,6.7515625 4.2390625,6.7515625 4.2390625,6.7515625 C4.2390625,6.7515625 11.8539062,12.0195313 11.8539062,12.0195313 C11.8539062,12.0195313 4.2390625,17.2398437 4.2390625,17.2398437 C4.0953125,17.3359375 4,17.4789063 4,17.6710938 C4,17.6710938 4,17.6710938 4,17.6710938 C4,18.00625 4.19140625,18.15 4.5265625,18.15 C4.5265625,18.15 4.5265625,18.15 4.5265625,18.15 C4.57421875,18.15 4.6703125,18.1023438 4.8140625,18.0539062 C4.8140625,18.0539062 4.8140625,18.0539062 4.8140625,18.0539062 C4.8140625,18.0539062 11.8546875,13.16875 11.8546875,13.16875 C11.8546875,13.16875 11.8546875,24.040625 11.8546875,24.040625 C11.8546875,24.3757812 12.0460937,24.5195312 12.38125,24.5195312 C12.38125,24.5195312 12.38125,24.5195312 12.38125,24.5195312 C12.4773437,24.5195312 12.5726562,24.471875 12.66875,24.3757812 C12.66875,24.3757812 12.66875,24.3757812 12.66875,24.3757812 C12.66875,24.3757812 20.5234375,17.5273438 20.5234375,17.5273438 C20.6671875,17.3835937 20.7148438,17.2882812 20.7148438,17.1445312 C20.7148438,17.1445312 20.7148438,17.1445312 20.7148438,17.1445312 C20.7148438,17.0007812 20.61875,16.8570313 20.4757812,16.7617188 C20.4757812,16.7617188 20.4757812,16.7617188 20.4757812,16.7617188 L20.475,16.7625 Z M12.859375,11.3023437 C12.859375,11.3023437 12.859375,1.53203125 12.859375,1.53203125 C12.859375,1.53203125 19.3726562,6.8484375 19.3726562,6.8484375 C19.3726562,6.8484375 12.859375,11.3023437 12.859375,11.3023437 Z M19.4210937,17.19375 C19.4210937,17.19375 12.8601562,22.940625 12.8601562,22.940625 C12.8601562,22.940625 12.8601562,12.6914062 12.8601562,12.6914062 C12.8601562,12.6914062 19.4210937,17.1929687 19.4210937,17.1929687 L19.4210937,17.19375 Z"/>
  <title>Bluetooth</title>
</svg>