<svg xmlns="http://www.w3.org/2000/svg" viewBox="0 0 25 25" id="bolt">
  <path d="M14.7757812,6.8484375 C14.7757812,6.8484375 18.2242188,0 18.2242188,0 C18.2242188,0 9.3640625,0 9.3640625,0 C9.3640625,0 4,12.7390625 4,12.7390625 C4,12.7390625 11.3273438,12.7390625 11.3273438,12.7390625 C11.3273438,12.7390625 6.92109375,24.5203125 6.92109375,24.5203125 C6.92109375,24.5203125 21.6242188,6.84765625 21.6242188,6.84765625 C21.6242188,6.84765625 14.7757812,6.84765625 14.7757812,6.84765625 L14.7757812,6.8484375 Z M13.2914062,7.85390625 C13.2914062,7.85390625 19.6609375,7.85390625 19.6609375,7.85390625 C19.6609375,7.85390625 9.890625,19.6351563 9.890625,19.6351563 C9.890625,19.6351563 12.8117187,11.7804687 12.8117187,11.7804687 C12.8117187,11.7804687 5.4359375,11.7804687 5.4359375,11.7804687 C5.4359375,11.7804687 10.36875,0.95703125 10.36875,0.95703125 C10.36875,0.95703125 16.7382812,0.95703125 16.7382812,0.95703125 C16.7382812,0.95703125 13.2898437,7.85390625 13.2898437,7.85390625 L13.2914062,7.85390625 Z"/>
  <title>Bolt</title>
</svg>