<svg xmlns="http://www.w3.org/2000/svg" viewBox="0 0 25 25" id="bookmark">
  <path d="M18.2609375,0 C18.2609375,0 18.2609375,0 18.2609375,0 C18.2609375,0 7.48515625,0 7.48515625,0 C7.05390625,0 6.71875,0.14375 6.43125,0.43125 C6.14375,0.71875 6,1.05390625 6,1.48515625 C6,1.48515625 6,1.48515625 6,1.48515625 C6,1.48515625 6,24.0429688 6,24.0429688 C6,24.378125 6.19140625,24.521875 6.5265625,24.521875 C6.5265625,24.521875 6.5265625,24.521875 6.5265625,24.521875 C6.6703125,24.521875 6.765625,24.4742188 6.8140625,24.378125 C6.8140625,24.378125 6.8140625,24.378125 6.8140625,24.378125 C6.8140625,24.378125 12.8960937,18.63125 12.8960937,18.63125 C12.8960937,18.63125 18.9304688,24.378125 18.9304688,24.378125 C19.0265625,24.4742188 19.121875,24.521875 19.265625,24.521875 C19.265625,24.521875 19.265625,24.521875 19.265625,24.521875 C19.6007812,24.521875 19.7445313,24.378125 19.7445313,24.0429688 C19.7445313,24.0429688 19.7445313,24.0429688 19.7445313,24.0429688 C19.7445313,24.0429688 19.7445313,1.48515625 19.7445313,1.48515625 C19.7445313,1.05390625 19.6007812,0.71875 19.3132812,0.43125 C19.0257813,0.14375 18.690625,0 18.259375,0 L18.2609375,0 Z M18.7882813,1.484375 C18.7882813,1.484375 18.7882813,22.8921875 18.7882813,22.8921875 C18.7882813,22.8921875 12.8976563,17.2890625 12.8976563,17.2890625 C12.8976563,17.2890625 7.00703125,22.8921875 7.00703125,22.8921875 C7.00703125,22.8921875 7.00703125,1.484375 7.00703125,1.484375 C7.00703125,1.14921875 7.15078125,0.9578125 7.4859375,0.9578125 C7.4859375,0.9578125 7.4859375,0.9578125 7.4859375,0.9578125 C7.4859375,0.9578125 18.2617188,0.9578125 18.2617188,0.9578125 C18.596875,0.9578125 18.7882813,1.14921875 18.7882813,1.484375 C18.7882813,1.484375 18.7882813,1.484375 18.7882813,1.484375 Z"/>
  <title>Bookmark</title>
</svg>