<svg xmlns="http://www.w3.org/2000/svg" viewBox="0 0 25 25" id="book">
  <path d="M21.6367188,20.5945313 C21.6367188,20.5945313 22.115625,20.5945313 22.115625,20.5945313 C22.4507812,20.5945313 22.5945312,20.4507812 22.5945312,20.115625 C22.5945312,20.115625 22.5945312,20.115625 22.5945312,20.115625 C22.5945312,20.115625 22.5945312,1.48515625 22.5945312,1.48515625 C22.5945312,1.05390625 22.4507812,0.71875 22.1632813,0.43125 C21.8757812,0.14375 21.540625,0 21.109375,0 C21.109375,0 21.109375,0 21.109375,0 C21.109375,0 3.48515625,0 3.48515625,0 C3.05390625,0 2.71875,0.14375 2.43125,0.43125 C2.14375,0.71875 2,1.05390625 2,1.48515625 C2,1.48515625 2,1.48515625 2,1.48515625 C2,1.48515625 2,22.0789062 2,22.0789062 C2,22.7492188 2.2390625,23.3242188 2.71875,23.803125 C3.1984375,24.2820312 3.77265625,24.521875 4.44296875,24.521875 C4.44296875,24.521875 4.44296875,24.521875 4.44296875,24.521875 C4.44296875,24.521875 22.115625,24.521875 22.115625,24.521875 C22.4507812,24.521875 22.5945312,24.378125 22.5945312,24.0429688 C22.5945312,24.0429688 22.5945312,24.0429688 22.5945312,24.0429688 C22.5945312,23.7078125 22.4507812,23.5164063 22.115625,23.5164063 C22.115625,23.5164063 22.115625,23.5164063 22.115625,23.5164063 C22.115625,23.5164063 21.6367188,23.5164063 21.6367188,23.5164063 C21.6367188,23.5164063 21.6367188,20.5953125 21.6367188,20.5953125 L21.6367188,20.5945313 Z M5.92734375,11.7828125 C5.92734375,11.7828125 5.92734375,0.959375 5.92734375,0.959375 C5.92734375,0.959375 11.8179688,0.959375 11.8179688,0.959375 C11.8179688,0.959375 11.8179688,11.7828125 11.8179688,11.7828125 C11.8179688,11.7828125 8.8484375,9.5796875 8.8484375,9.5796875 C8.8484375,9.5796875 5.92734375,11.7828125 5.92734375,11.7828125 L5.92734375,11.7828125 Z M20.6304688,20.5945312 C20.6304688,20.5945312 20.6304688,23.515625 20.6304688,23.515625 C20.6304688,23.515625 4.44296875,23.515625 4.44296875,23.515625 C4.01171875,23.515625 3.6765625,23.371875 3.3890625,23.084375 C3.1015625,22.8453125 2.9578125,22.509375 2.9578125,22.0789062 C2.9578125,21.6484375 3.1015625,21.3125 3.3890625,21.025 C3.6765625,20.7375 4.01171875,20.59375 4.44296875,20.59375 C4.44296875,20.59375 4.44296875,20.59375 4.44296875,20.59375 C4.44296875,20.59375 20.6304688,20.59375 20.6304688,20.59375 L20.6304688,20.5945312 Z M21.6367188,19.6367187 C21.6367188,19.6367187 4.44296875,19.6367187 4.44296875,19.6367187 C3.91640625,19.6367187 3.4375,19.7804687 2.95859375,20.115625 C2.95859375,20.115625 2.95859375,20.115625 2.95859375,20.115625 C2.95859375,20.115625 2.95859375,1.48515625 2.95859375,1.48515625 C2.95859375,1.15 3.15,0.95859375 3.48515625,0.95859375 C3.48515625,0.95859375 3.48515625,0.95859375 3.48515625,0.95859375 C3.48515625,0.95859375 4.921875,0.95859375 4.921875,0.95859375 C4.921875,0.95859375 4.921875,13.3148437 4.921875,13.3148437 C4.921875,13.4585937 4.96953125,13.5539062 5.11328125,13.5539062 C5.11328125,13.5539062 5.11328125,13.5539062 5.11328125,13.5539062 C5.11328125,13.5539062 5.1609375,13.5539062 5.1609375,13.5539062 C5.20859375,13.50625 5.20859375,13.50625 5.25703125,13.50625 C5.25703125,13.50625 5.25703125,13.50625 5.25703125,13.50625 C5.25703125,13.50625 8.84921875,10.7765625 8.84921875,10.7765625 C8.84921875,10.7765625 12.4890625,13.50625 12.4890625,13.50625 C12.5367188,13.5539062 12.5367188,13.5539062 12.5851563,13.5539062 C12.5851563,13.5539062 12.5851563,13.5539062 12.5851563,13.5539062 C12.5851563,13.5539062 12.5851563,13.5539062 12.5851563,13.5539062 C12.7289063,13.5539062 12.7765625,13.4578125 12.7765625,13.3148437 C12.7765625,13.3148437 12.7765625,13.3148437 12.7765625,13.3148437 C12.7765625,13.3148437 12.7765625,0.95859375 12.7765625,0.95859375 C12.7765625,0.95859375 21.1101563,0.95859375 21.1101563,0.95859375 C21.4453125,0.95859375 21.6367188,1.15 21.6367188,1.48515625 C21.6367188,1.48515625 21.6367188,1.48515625 21.6367188,1.48515625 C21.6367188,1.48515625 21.6367188,19.6367187 21.6367188,19.6367187 Z"/>
  <title>Book</title>
</svg>