<svg xmlns="http://www.w3.org/2000/svg" viewBox="0 0 25 25" id="book-open-solid">
  <path d="M23.0382813,2.9640625 C23.0382813,2.9640625 23.0382813,2.9640625 23.0382813,2.9640625 C23.0382813,2.9640625 22.559375,2.9640625 22.559375,2.9640625 C22.559375,2.9640625 22.559375,2.48515625 22.559375,2.48515625 C22.559375,2.05390625 22.415625,1.71875 22.128125,1.43125 C21.840625,1.14375 21.5054688,1 21.0742188,1 C21.0742188,1 21.0742188,1 21.0742188,1 C21.0742188,1 12.740625,1 12.740625,1 C12.740625,1 12.740625,21.6414062 12.740625,21.6414062 C12.740625,21.6414062 21.6007813,21.6414062 21.6007813,21.6414062 C21.8398438,21.6414062 22.0796875,21.5453125 22.2710938,21.30625 C22.4625,21.1148438 22.5585938,20.875 22.5585938,20.6359375 C22.5585938,20.6359375 22.5585938,20.6359375 22.5585938,20.6359375 C22.5585938,20.6359375 22.5585938,3.96953125 22.5585938,3.96953125 C22.5585938,3.96953125 23.0375,3.96953125 23.0375,3.96953125 C23.3726563,3.96953125 23.5640625,4.11328125 23.5640625,4.4484375 C23.5640625,4.4484375 23.5640625,4.4484375 23.5640625,4.4484375 C23.5640625,4.4484375 23.5640625,22.1210938 23.5640625,22.1210938 C23.5640625,22.45625 23.3726563,22.6 23.0375,22.6 C23.0375,22.6 23.0375,22.6 23.0375,22.6 C23.0375,22.6 1.4859375,22.6 1.4859375,22.6 C1.15078125,22.6 0.959375,22.45625 0.959375,22.1210938 C0.959375,22.1210938 0.959375,22.1210938 0.959375,22.1210938 C0.959375,22.1210938 0.959375,4.4484375 0.959375,4.4484375 C0.959375,4.11328125 1.15078125,3.96953125 1.4859375,3.96953125 C1.4859375,3.96953125 1.4859375,3.96953125 1.4859375,3.96953125 C1.4859375,3.96953125 1.96484375,3.96953125 1.96484375,3.96953125 C1.96484375,3.96953125 1.96484375,20.6359375 1.96484375,20.6359375 C1.96484375,20.875 2.0609375,21.1148438 2.25234375,21.30625 C2.44375,21.5453125 2.68359375,21.6414062 2.92265625,21.6414062 C2.92265625,21.6414062 2.92265625,21.6414062 2.92265625,21.6414062 C2.92265625,21.6414062 11.7828125,21.6414062 11.7828125,21.6414062 C11.7828125,21.6414062 11.7828125,1 11.7828125,1 C11.7828125,1 3.44921875,1 3.44921875,1 C3.01796875,1 2.6828125,1.14375 2.3953125,1.43125 C2.1078125,1.71875 1.9640625,2.05390625 1.9640625,2.48515625 C1.9640625,2.48515625 1.9640625,2.48515625 1.9640625,2.48515625 C1.9640625,2.48515625 1.9640625,2.9640625 1.9640625,2.9640625 C1.9640625,2.9640625 1.48515625,2.9640625 1.48515625,2.9640625 C1.05390625,2.9640625 0.71875,3.1078125 0.43125,3.3953125 C0.14375,3.6828125 0,4.01796875 0,4.44921875 C0,4.44921875 0,4.44921875 0,4.44921875 C0,4.44921875 0,22.121875 0,22.121875 C0,22.553125 0.14375,22.8882813 0.43125,23.1273438 C0.71875,23.4148437 1.05390625,23.5585938 1.48515625,23.5585938 C1.48515625,23.5585938 1.48515625,23.5585938 1.48515625,23.5585938 C1.48515625,23.5585938 23.0367188,23.5585938 23.0367188,23.5585938 C23.4679688,23.5585938 23.803125,23.4148437 24.090625,23.1273438 C24.378125,22.8882813 24.521875,22.5523437 24.521875,22.121875 C24.521875,22.121875 24.521875,22.121875 24.521875,22.121875 C24.521875,22.121875 24.521875,4.44921875 24.521875,4.44921875 C24.521875,4.01796875 24.378125,3.6828125 24.090625,3.3953125 C23.803125,3.1078125 23.4679688,2.9640625 23.0367188,2.9640625 L23.0382813,2.9640625 Z M19.1109375,14.7453125 C19.1109375,14.7453125 19.1109375,14.7453125 19.1109375,14.7453125 C19.1109375,14.7453125 15.1835938,14.7453125 15.1835938,14.7453125 C14.8484375,14.7453125 14.7046875,14.6015625 14.7046875,14.2664062 C14.7046875,13.93125 14.8484375,13.7875 15.1835938,13.7875 C15.1835938,13.7875 15.1835938,13.7875 15.1835938,13.7875 C15.1835938,13.7875 19.1109375,13.7875 19.1109375,13.7875 C19.4460937,13.7875 19.6375,13.93125 19.6375,14.2664062 C19.6375,14.6015625 19.4460937,14.7453125 19.1109375,14.7453125 Z M19.1109375,11.8242187 C19.1109375,11.8242187 19.1109375,11.8242187 19.1109375,11.8242187 C19.1109375,11.8242187 15.1835938,11.8242187 15.1835938,11.8242187 C14.8484375,11.8242187 14.7046875,11.6328125 14.7046875,11.2976562 C14.7046875,11.2976562 14.7046875,11.2976562 14.7046875,11.2976562 C14.7046875,10.9625 14.8484375,10.81875 15.1835938,10.81875 C15.1835938,10.81875 15.1835938,10.81875 15.1835938,10.81875 C15.1835938,10.81875 19.1109375,10.81875 19.1109375,10.81875 C19.4460937,10.81875 19.6375,10.9625 19.6375,11.2976562 C19.6375,11.2976562 19.6375,11.2976562 19.6375,11.2976562 C19.6375,11.6328125 19.4460937,11.8242187 19.1109375,11.8242187 Z M19.1109375,8.8546875 C19.1109375,8.8546875 19.1109375,8.8546875 19.1109375,8.8546875 C19.1109375,8.8546875 15.1835938,8.8546875 15.1835938,8.8546875 C14.8484375,8.8546875 14.7046875,8.7109375 14.7046875,8.37578125 C14.7046875,8.040625 14.8484375,7.896875 15.1835938,7.896875 C15.1835938,7.896875 15.1835938,7.896875 15.1835938,7.896875 C15.1835938,7.896875 19.1109375,7.896875 19.1109375,7.896875 C19.4460937,7.896875 19.6375,8.040625 19.6375,8.37578125 C19.6375,8.7109375 19.4460937,8.8546875 19.1109375,8.8546875 Z M19.1109375,5.9328125 C19.1109375,5.9328125 19.1109375,5.9328125 19.1109375,5.9328125 C19.1109375,5.9328125 15.1835938,5.9328125 15.1835938,5.9328125 C14.8484375,5.9328125 14.7046875,5.7890625 14.7046875,5.45390625 C14.7046875,5.45390625 14.7046875,5.45390625 14.7046875,5.45390625 C14.7046875,5.11875 14.8484375,4.92734375 15.1835938,4.92734375 C15.1835938,4.92734375 15.1835938,4.92734375 15.1835938,4.92734375 C15.1835938,4.92734375 19.1109375,4.92734375 19.1109375,4.92734375 C19.4460937,4.92734375 19.6375,5.11875 19.6375,5.45390625 C19.6375,5.45390625 19.6375,5.45390625 19.6375,5.45390625 C19.6375,5.7890625 19.4460937,5.9328125 19.1109375,5.9328125 Z M21.6015625,20.6359375 C21.6015625,20.6359375 21.6015625,21.1148438 21.6015625,21.1148438 C21.6015625,21.1148438 21.6015625,20.6359375 21.6015625,20.6359375 Z M5.41328125,4.92734375 C5.41328125,4.92734375 5.41328125,4.92734375 5.41328125,4.92734375 C5.41328125,4.92734375 9.340625,4.92734375 9.340625,4.92734375 C9.67578125,4.92734375 9.81953125,5.11875 9.81953125,5.45390625 C9.81953125,5.45390625 9.81953125,5.45390625 9.81953125,5.45390625 C9.81953125,5.7890625 9.67578125,5.9328125 9.340625,5.9328125 C9.340625,5.9328125 9.340625,5.9328125 9.340625,5.9328125 C9.340625,5.9328125 5.41328125,5.9328125 5.41328125,5.9328125 C5.078125,5.9328125 4.88671875,5.7890625 4.88671875,5.45390625 C4.88671875,5.45390625 4.88671875,5.45390625 4.88671875,5.45390625 C4.88671875,5.11875 5.078125,4.92734375 5.41328125,4.92734375 L5.41328125,4.92734375 Z M5.41328125,7.896875 C5.41328125,7.896875 5.41328125,7.896875 5.41328125,7.896875 C5.41328125,7.896875 9.340625,7.896875 9.340625,7.896875 C9.67578125,7.896875 9.81953125,8.040625 9.81953125,8.37578125 C9.81953125,8.7109375 9.67578125,8.8546875 9.340625,8.8546875 C9.340625,8.8546875 9.340625,8.8546875 9.340625,8.8546875 C9.340625,8.8546875 5.41328125,8.8546875 5.41328125,8.8546875 C5.078125,8.8546875 4.88671875,8.7109375 4.88671875,8.37578125 C4.88671875,8.040625 5.078125,7.896875 5.41328125,7.896875 L5.41328125,7.896875 Z M5.41328125,10.8179688 C5.41328125,10.8179688 5.41328125,10.8179688 5.41328125,10.8179688 C5.41328125,10.8179688 9.340625,10.8179688 9.340625,10.8179688 C9.67578125,10.8179688 9.81953125,10.9617187 9.81953125,11.296875 C9.81953125,11.296875 9.81953125,11.296875 9.81953125,11.296875 C9.81953125,11.6320313 9.67578125,11.8234375 9.340625,11.8234375 C9.340625,11.8234375 9.340625,11.8234375 9.340625,11.8234375 C9.340625,11.8234375 5.41328125,11.8234375 5.41328125,11.8234375 C5.078125,11.8234375 4.88671875,11.6320313 4.88671875,11.296875 C4.88671875,11.296875 4.88671875,11.296875 4.88671875,11.296875 C4.88671875,10.9617187 5.078125,10.8179688 5.41328125,10.8179688 L5.41328125,10.8179688 Z M5.41328125,13.7875 C5.41328125,13.7875 5.41328125,13.7875 5.41328125,13.7875 C5.41328125,13.7875 9.340625,13.7875 9.340625,13.7875 C9.67578125,13.7875 9.81953125,13.93125 9.81953125,14.2664062 C9.81953125,14.6015625 9.67578125,14.7453125 9.340625,14.7453125 C9.340625,14.7453125 9.340625,14.7453125 9.340625,14.7453125 C9.340625,14.7453125 5.41328125,14.7453125 5.41328125,14.7453125 C5.078125,14.7453125 4.88671875,14.6015625 4.88671875,14.2664062 C4.88671875,13.93125 5.078125,13.7875 5.41328125,13.7875 L5.41328125,13.7875 Z"/>
  <title>Book Open Solid</title>
</svg>