<svg xmlns="http://www.w3.org/2000/svg" viewBox="0 0 25 25" id="book-open">
  <path d="M23.0375,2.9640625 C23.0375,2.9640625 23.0375,2.9640625 23.0375,2.9640625 C23.0375,2.9640625 22.5585938,2.9640625 22.5585938,2.9640625 C22.5585938,2.9640625 22.5585938,2.48515625 22.5585938,2.48515625 C22.5585938,2.05390625 22.4148437,1.71875 22.1273438,1.43125 C21.8398438,1.14375 21.5046875,1 21.0734375,1 C21.0734375,1 21.0734375,1 21.0734375,1 C21.0734375,1 3.44921875,1 3.44921875,1 C3.01796875,1 2.6828125,1.14375 2.3953125,1.43125 C2.1078125,1.71875 1.9640625,2.05390625 1.9640625,2.48515625 C1.9640625,2.48515625 1.9640625,2.48515625 1.9640625,2.48515625 C1.9640625,2.48515625 1.9640625,2.9640625 1.9640625,2.9640625 C1.9640625,2.9640625 1.48515625,2.9640625 1.48515625,2.9640625 C1.05390625,2.9640625 0.71875,3.1078125 0.43125,3.3953125 C0.14375,3.6828125 0,4.01796875 0,4.44921875 C0,4.44921875 0,4.44921875 0,4.44921875 C0,4.44921875 0,22.121875 0,22.121875 C0,22.553125 0.14375,22.8882813 0.43125,23.1273438 C0.71875,23.4148437 1.05390625,23.5585938 1.48515625,23.5585938 C1.48515625,23.5585938 1.48515625,23.5585938 1.48515625,23.5585938 C1.48515625,23.5585938 23.0367188,23.5585938 23.0367188,23.5585938 C23.4679688,23.5585938 23.803125,23.4148437 24.090625,23.1273438 C24.378125,22.8882813 24.521875,22.5523437 24.521875,22.121875 C24.521875,22.121875 24.521875,22.121875 24.521875,22.121875 C24.521875,22.121875 24.521875,4.44921875 24.521875,4.44921875 C24.521875,4.01796875 24.378125,3.6828125 24.090625,3.3953125 C23.803125,3.1078125 23.4679688,2.9640625 23.0367188,2.9640625 L23.0375,2.9640625 Z M12.740625,20.6359375 C12.740625,20.6359375 12.740625,2.00546875 12.740625,2.00546875 C12.740625,2.00546875 21.0742188,2.00546875 21.0742188,2.00546875 C21.409375,2.00546875 21.6007812,2.14921875 21.6007812,2.484375 C21.6007812,2.484375 21.6007812,2.484375 21.6007812,2.484375 C21.6007812,2.484375 21.6007812,20.6359375 21.6007812,20.6359375 C21.6007812,20.6359375 21.6007812,21.1148437 21.6007812,21.1148437 C21.6007812,21.1148437 21.6007812,20.6359375 21.6007812,20.6359375 C21.6007812,20.6359375 12.740625,20.6359375 12.740625,20.6359375 Z M2.92265625,20.6359375 C2.92265625,20.6359375 2.92265625,2.484375 2.92265625,2.484375 C2.92265625,2.14921875 3.1140625,2.00546875 3.44921875,2.00546875 C3.44921875,2.00546875 3.44921875,2.00546875 3.44921875,2.00546875 C3.44921875,2.00546875 11.7828125,2.00546875 11.7828125,2.00546875 C11.7828125,2.00546875 11.7828125,20.6359375 11.7828125,20.6359375 C11.7828125,20.6359375 2.92265625,20.6359375 2.92265625,20.6359375 L2.92265625,20.6359375 Z M23.5640625,4.4484375 C23.5640625,4.4484375 23.5640625,22.1210938 23.5640625,22.1210938 C23.5640625,22.45625 23.3726563,22.6 23.0375,22.6 C23.0375,22.6 23.0375,22.6 23.0375,22.6 C23.0375,22.6 1.4859375,22.6 1.4859375,22.6 C1.15078125,22.6 0.959375,22.45625 0.959375,22.1210938 C0.959375,22.1210938 0.959375,22.1210938 0.959375,22.1210938 C0.959375,22.1210938 0.959375,4.4484375 0.959375,4.4484375 C0.959375,4.11328125 1.15078125,3.96953125 1.4859375,3.96953125 C1.4859375,3.96953125 1.4859375,3.96953125 1.4859375,3.96953125 C1.4859375,3.96953125 1.96484375,3.96953125 1.96484375,3.96953125 C1.96484375,3.96953125 1.96484375,20.6359375 1.96484375,20.6359375 C1.96484375,20.875 2.0609375,21.1148437 2.25234375,21.30625 C2.44375,21.5453125 2.68359375,21.6414062 2.92265625,21.6414062 C2.92265625,21.6414062 2.92265625,21.6414062 2.92265625,21.6414062 C2.92265625,21.6414062 21.6007813,21.6414062 21.6007813,21.6414062 C21.8398438,21.6414062 22.0796875,21.5453125 22.2710938,21.30625 C22.4625,21.1148437 22.5585938,20.875 22.5585938,20.6359375 C22.5585938,20.6359375 22.5585938,20.6359375 22.5585938,20.6359375 C22.5585938,20.6359375 22.5585938,3.96953125 22.5585938,3.96953125 C22.5585938,3.96953125 23.0375,3.96953125 23.0375,3.96953125 C23.3726563,3.96953125 23.5640625,4.11328125 23.5640625,4.4484375 C23.5640625,4.4484375 23.5640625,4.4484375 23.5640625,4.4484375 Z M9.81875,5.45390625 C9.81875,5.45390625 9.81875,5.45390625 9.81875,5.45390625 C9.81875,5.7890625 9.675,5.9328125 9.33984375,5.9328125 C9.33984375,5.9328125 9.33984375,5.9328125 9.33984375,5.9328125 C9.33984375,5.9328125 5.4125,5.9328125 5.4125,5.9328125 C5.07734375,5.9328125 4.8859375,5.7890625 4.8859375,5.45390625 C4.8859375,5.45390625 4.8859375,5.45390625 4.8859375,5.45390625 C4.8859375,5.11875 5.07734375,4.92734375 5.4125,4.92734375 C5.4125,4.92734375 5.4125,4.92734375 5.4125,4.92734375 C5.4125,4.92734375 9.33984375,4.92734375 9.33984375,4.92734375 C9.675,4.92734375 9.81875,5.11875 9.81875,5.45390625 Z M9.33984375,7.896875 C9.675,7.896875 9.81875,8.040625 9.81875,8.37578125 C9.81875,8.7109375 9.675,8.8546875 9.33984375,8.8546875 C9.33984375,8.8546875 9.33984375,8.8546875 9.33984375,8.8546875 C9.33984375,8.8546875 5.4125,8.8546875 5.4125,8.8546875 C5.07734375,8.8546875 4.8859375,8.7109375 4.8859375,8.37578125 C4.8859375,8.040625 5.07734375,7.896875 5.4125,7.896875 C5.4125,7.896875 5.4125,7.896875 5.4125,7.896875 C5.4125,7.896875 9.33984375,7.896875 9.33984375,7.896875 Z M9.81875,11.296875 C9.81875,11.296875 9.81875,11.296875 9.81875,11.296875 C9.81875,11.6320312 9.675,11.8234375 9.33984375,11.8234375 C9.33984375,11.8234375 9.33984375,11.8234375 9.33984375,11.8234375 C9.33984375,11.8234375 5.4125,11.8234375 5.4125,11.8234375 C5.07734375,11.8234375 4.8859375,11.6320312 4.8859375,11.296875 C4.8859375,11.296875 4.8859375,11.296875 4.8859375,11.296875 C4.8859375,10.9617187 5.07734375,10.8179687 5.4125,10.8179687 C5.4125,10.8179687 5.4125,10.8179687 5.4125,10.8179687 C5.4125,10.8179687 9.33984375,10.8179687 9.33984375,10.8179687 C9.675,10.8179687 9.81875,10.9617187 9.81875,11.296875 Z M9.33984375,13.7875 C9.675,13.7875 9.81875,13.93125 9.81875,14.2664062 C9.81875,14.6015625 9.675,14.7453125 9.33984375,14.7453125 C9.33984375,14.7453125 9.33984375,14.7453125 9.33984375,14.7453125 C9.33984375,14.7453125 5.4125,14.7453125 5.4125,14.7453125 C5.07734375,14.7453125 4.8859375,14.6015625 4.8859375,14.2664062 C4.8859375,13.93125 5.07734375,13.7875 5.4125,13.7875 C5.4125,13.7875 5.4125,13.7875 5.4125,13.7875 C5.4125,13.7875 9.33984375,13.7875 9.33984375,13.7875 Z M19.6367188,5.45390625 C19.6367188,5.45390625 19.6367188,5.45390625 19.6367188,5.45390625 C19.6367188,5.7890625 19.4453125,5.9328125 19.1101562,5.9328125 C19.1101562,5.9328125 19.1101562,5.9328125 19.1101562,5.9328125 C19.1101562,5.9328125 15.1828125,5.9328125 15.1828125,5.9328125 C14.8476562,5.9328125 14.7039062,5.7890625 14.7039062,5.45390625 C14.7039062,5.45390625 14.7039062,5.45390625 14.7039062,5.45390625 C14.7039062,5.11875 14.8476562,4.92734375 15.1828125,4.92734375 C15.1828125,4.92734375 15.1828125,4.92734375 15.1828125,4.92734375 C15.1828125,4.92734375 19.1101562,4.92734375 19.1101562,4.92734375 C19.4453125,4.92734375 19.6367188,5.11875 19.6367188,5.45390625 Z M19.1101562,7.896875 C19.4453125,7.896875 19.6367188,8.040625 19.6367188,8.37578125 C19.6367188,8.7109375 19.4453125,8.8546875 19.1101562,8.8546875 C19.1101562,8.8546875 19.1101562,8.8546875 19.1101562,8.8546875 C19.1101562,8.8546875 15.1828125,8.8546875 15.1828125,8.8546875 C14.8476562,8.8546875 14.7039062,8.7109375 14.7039062,8.37578125 C14.7039062,8.040625 14.8476562,7.896875 15.1828125,7.896875 C15.1828125,7.896875 15.1828125,7.896875 15.1828125,7.896875 C15.1828125,7.896875 19.1101562,7.896875 19.1101562,7.896875 Z M19.6367188,11.296875 C19.6367188,11.296875 19.6367188,11.296875 19.6367188,11.296875 C19.6367188,11.6320312 19.4453125,11.8234375 19.1101562,11.8234375 C19.1101562,11.8234375 19.1101562,11.8234375 19.1101562,11.8234375 C19.1101562,11.8234375 15.1828125,11.8234375 15.1828125,11.8234375 C14.8476562,11.8234375 14.7039062,11.6320312 14.7039062,11.296875 C14.7039062,11.296875 14.7039062,11.296875 14.7039062,11.296875 C14.7039062,10.9617187 14.8476562,10.8179687 15.1828125,10.8179687 C15.1828125,10.8179687 15.1828125,10.8179687 15.1828125,10.8179687 C15.1828125,10.8179687 19.1101562,10.8179687 19.1101562,10.8179687 C19.4453125,10.8179687 19.6367188,10.9617187 19.6367188,11.296875 Z M19.1101562,13.7875 C19.4453125,13.7875 19.6367188,13.93125 19.6367188,14.2664062 C19.6367188,14.6015625 19.4453125,14.7453125 19.1101562,14.7453125 C19.1101562,14.7453125 19.1101562,14.7453125 19.1101562,14.7453125 C19.1101562,14.7453125 15.1828125,14.7453125 15.1828125,14.7453125 C14.8476562,14.7453125 14.7039062,14.6015625 14.7039062,14.2664062 C14.7039062,13.93125 14.8476562,13.7875 15.1828125,13.7875 C15.1828125,13.7875 15.1828125,13.7875 15.1828125,13.7875 C15.1828125,13.7875 19.1101562,13.7875 19.1101562,13.7875 Z"/>
  <title>Book Open</title>
</svg>