<svg xmlns="http://www.w3.org/2000/svg" viewBox="0 0 25 25" id="bookmark-solid">
  <path d="M19.7445312,1.48515625 C19.7445312,1.48515625 19.7445312,1.48515625 19.7445312,1.48515625 C19.7445312,1.48515625 19.7445312,24.0429688 19.7445312,24.0429688 C19.7445312,24.378125 19.553125,24.521875 19.2179687,24.521875 C19.2179687,24.521875 19.2179687,24.521875 19.2179687,24.521875 C19.0742188,24.521875 18.9789063,24.4742188 18.9304688,24.378125 C18.9304688,24.378125 18.9304688,24.378125 18.9304688,24.378125 C18.9304688,24.378125 12.8484375,18.63125 12.8484375,18.63125 C12.8484375,18.63125 6.8140625,24.378125 6.8140625,24.378125 C6.71796875,24.4742188 6.62265625,24.521875 6.47890625,24.521875 C6.47890625,24.521875 6.47890625,24.521875 6.47890625,24.521875 C6.14375,24.521875 6,24.378125 6,24.0429688 C6,24.0429688 6,24.0429688 6,24.0429688 C6,24.0429688 6,1.48515625 6,1.48515625 C6,1.05390625 6.14375,0.71875 6.43125,0.43125 C6.71875,0.14375 7.05390625,0 7.48515625,0 C7.48515625,0 7.48515625,0 7.48515625,0 C7.48515625,0 18.2609375,0 18.2609375,0 C18.6921875,0 19.0273438,0.14375 19.3148438,0.43125 C19.6023437,0.71875 19.7460938,1.05390625 19.7460938,1.48515625 L19.7445312,1.48515625 Z"/>
  <title>Bookmark Solid</title>
</svg>