<svg xmlns="http://www.w3.org/2000/svg" viewBox="0 0 25 25" id="bounding-box">
  <path d="M8.8125,4.88515625 C8.8125,4.88515625 8.8125,3.92734375 8.8125,3.92734375 C8.8125,3.92734375 15.709375,3.92734375 15.709375,3.92734375 C15.709375,3.92734375 15.709375,4.88515625 15.709375,4.88515625 C15.709375,4.88515625 8.8125,4.88515625 8.8125,4.88515625 Z M8.8125,20.59375 C8.8125,20.59375 8.8125,19.6359375 8.8125,19.6359375 C8.8125,19.6359375 15.709375,19.6359375 15.709375,19.6359375 C15.709375,19.6359375 15.709375,20.59375 15.709375,20.59375 C15.709375,20.59375 8.8125,20.59375 8.8125,20.59375 Z M3.92734375,15.709375 C3.92734375,15.709375 3.92734375,8.8125 3.92734375,8.8125 C3.92734375,8.8125 4.88515625,8.8125 4.88515625,8.8125 C4.88515625,8.8125 4.88515625,15.709375 4.88515625,15.709375 C4.88515625,15.709375 3.92734375,15.709375 3.92734375,15.709375 Z M19.6359375,15.709375 C19.6359375,15.709375 19.6359375,8.8125 19.6359375,8.8125 C19.6359375,8.8125 20.59375,8.8125 20.59375,8.8125 C20.59375,8.8125 20.59375,15.709375 20.59375,15.709375 C20.59375,15.709375 19.6359375,15.709375 19.6359375,15.709375 Z M0.9578125,0.9578125 C0.9578125,0.9578125 7.8546875,0.9578125 7.8546875,0.9578125 C7.8546875,0.9578125 7.8546875,7.8546875 7.8546875,7.8546875 C7.8546875,7.8546875 0.9578125,7.8546875 0.9578125,7.8546875 C0.9578125,7.8546875 0.9578125,0.9578125 0.9578125,0.9578125 Z M8.8125,8.8125 C8.8125,8.8125 8.8125,0 8.8125,0 C8.8125,0 0,0 0,0 C0,0 0,8.8125 0,8.8125 C0,8.8125 8.8125,8.8125 8.8125,8.8125 Z M16.6664063,0.9578125 C16.6664063,0.9578125 23.5632813,0.9578125 23.5632813,0.9578125 C23.5632813,0.9578125 23.5632813,7.8546875 23.5632813,7.8546875 C23.5632813,7.8546875 16.6664063,7.8546875 16.6664063,7.8546875 C16.6664063,7.8546875 16.6664063,0.9578125 16.6664063,0.9578125 Z M24.5210937,8.8125 C24.5210937,8.8125 24.5210937,0 24.5210937,0 C24.5210937,0 15.7085937,0 15.7085937,0 C15.7085937,0 15.7085937,8.8125 15.7085937,8.8125 C15.7085937,8.8125 24.5210937,8.8125 24.5210937,8.8125 Z M16.6664063,16.6671875 C16.6664063,16.6671875 23.5632813,16.6671875 23.5632813,16.6671875 C23.5632813,16.6671875 23.5632813,23.5640625 23.5632813,23.5640625 C23.5632813,23.5640625 16.6664063,23.5640625 16.6664063,23.5640625 C16.6664063,23.5640625 16.6664063,16.6671875 16.6664063,16.6671875 Z M24.5210937,24.5210937 C24.5210937,24.5210937 24.5210937,15.7085937 24.5210937,15.7085937 C24.5210937,15.7085937 15.7085937,15.7085937 15.7085937,15.7085937 C15.7085937,15.7085937 15.7085937,24.5210937 15.7085937,24.5210937 C15.7085937,24.5210937 24.5210937,24.5210937 24.5210937,24.5210937 Z M0.9578125,16.6671875 C0.9578125,16.6671875 7.8546875,16.6671875 7.8546875,16.6671875 C7.8546875,16.6671875 7.8546875,23.5640625 7.8546875,23.5640625 C7.8546875,23.5640625 0.9578125,23.5640625 0.9578125,23.5640625 C0.9578125,23.5640625 0.9578125,16.6671875 0.9578125,16.6671875 Z M8.8125,24.5210937 C8.8125,24.5210937 8.8125,15.7085937 8.8125,15.7085937 C8.8125,15.7085937 0,15.7085937 0,15.7085937 C0,15.7085937 0,24.5210937 0,24.5210937 C0,24.5210937 8.8125,24.5210937 8.8125,24.5210937 Z"/>
  <title>Bounding Box</title>
</svg>