<svg xmlns="http://www.w3.org/2000/svg" viewBox="0 0 25 25" id="bounding-box-solid">
  <path d="M0,8.8125 C0,8.8125 0,0 0,0 C0,0 8.8125,0 8.8125,0 C8.8125,0 8.8125,8.8125 8.8125,8.8125 C8.8125,8.8125 0,8.8125 0,8.8125 Z M15.7085937,8.8125 C15.7085937,8.8125 15.7085937,0 15.7085937,0 C15.7085937,0 24.5210937,0 24.5210937,0 C24.5210937,0 24.5210937,8.8125 24.5210937,8.8125 C24.5210937,8.8125 15.7085937,8.8125 15.7085937,8.8125 Z M0,24.5210937 C0,24.5210937 0,15.7085937 0,15.7085937 C0,15.7085937 8.8125,15.7085937 8.8125,15.7085937 C8.8125,15.7085937 8.8125,24.5210937 8.8125,24.5210937 C8.8125,24.5210937 0,24.5210937 0,24.5210937 Z M15.7085937,24.5210937 C15.7085937,24.5210937 15.7085937,15.7085937 15.7085937,15.7085937 C15.7085937,15.7085937 24.5210937,15.7085937 24.5210937,15.7085937 C24.5210937,15.7085937 24.5210937,24.5210937 24.5210937,24.5210937 C24.5210937,24.5210937 15.7085937,24.5210937 15.7085937,24.5210937 Z M7.8546875,4.88515625 C7.8546875,4.88515625 7.8546875,3.92734375 7.8546875,3.92734375 C7.8546875,3.92734375 16.6671875,3.92734375 16.6671875,3.92734375 C16.6671875,3.92734375 16.6671875,4.88515625 16.6671875,4.88515625 C16.6671875,4.88515625 7.8546875,4.88515625 7.8546875,4.88515625 Z M3.92734375,16.6671875 C3.92734375,16.6671875 3.92734375,7.8546875 3.92734375,7.8546875 C3.92734375,7.8546875 4.88515625,7.8546875 4.88515625,7.8546875 C4.88515625,7.8546875 4.88515625,16.6671875 4.88515625,16.6671875 C4.88515625,16.6671875 3.92734375,16.6671875 3.92734375,16.6671875 Z M19.6359375,16.6671875 C19.6359375,16.6671875 19.6359375,7.8546875 19.6359375,7.8546875 C19.6359375,7.8546875 20.59375,7.8546875 20.59375,7.8546875 C20.59375,7.8546875 20.59375,16.6671875 20.59375,16.6671875 C20.59375,16.6671875 19.6359375,16.6671875 19.6359375,16.6671875 Z M7.8546875,20.59375 C7.8546875,20.59375 7.8546875,19.6359375 7.8546875,19.6359375 C7.8546875,19.6359375 16.6671875,19.6359375 16.6671875,19.6359375 C16.6671875,19.6359375 16.6671875,20.59375 16.6671875,20.59375 C16.6671875,20.59375 7.8546875,20.59375 7.8546875,20.59375 Z"/>
  <title>Bounding Box Solid</title>
</svg>