<svg xmlns="http://www.w3.org/2000/svg" viewBox="0 0 25 25" id="box-grid">
  <path d="M6.8484375,17.6726563 C6.8484375,17.6726563 6.8484375,6.84921875 6.8484375,6.84921875 C6.8484375,6.84921875 17.671875,6.84921875 17.671875,6.84921875 C17.671875,6.84921875 17.671875,17.6726563 17.671875,17.6726563 C17.671875,17.6726563 6.8484375,17.6726563 6.8484375,17.6726563 Z M18.6304687,7.8546875 C18.6304687,7.8546875 18.6304687,6.84921875 18.6304687,6.84921875 C18.6304687,6.84921875 19.6359375,6.84921875 19.6359375,6.84921875 C19.6359375,6.84921875 19.6359375,7.8546875 19.6359375,7.8546875 C19.6359375,7.8546875 18.6304687,7.8546875 18.6304687,7.8546875 L18.6304687,7.8546875 Z M20.9289063,7.8546875 C20.9289063,7.8546875 20.9289063,6.84921875 20.9289063,6.84921875 C20.9289063,6.84921875 22.221875,6.84921875 22.221875,6.84921875 C22.221875,6.84921875 22.221875,7.8546875 22.221875,7.8546875 C22.221875,7.8546875 20.9289063,7.8546875 20.9289063,7.8546875 L20.9289063,7.8546875 Z M23.5632812,7.8546875 C23.5632812,7.8546875 23.5632812,6.84921875 23.5632812,6.84921875 C23.5632812,6.84921875 24.5210937,6.84921875 24.5210937,6.84921875 C24.5210937,6.84921875 24.5210937,7.8546875 24.5210937,7.8546875 C24.5210937,7.8546875 23.5632812,7.8546875 23.5632812,7.8546875 L23.5632812,7.8546875 Z M18.6304687,17.6726563 C18.6304687,17.6726563 18.6304687,16.6671875 18.6304687,16.6671875 C18.6304687,16.6671875 19.6359375,16.6671875 19.6359375,16.6671875 C19.6359375,16.6671875 19.6359375,17.6726563 19.6359375,17.6726563 C19.6359375,17.6726563 18.6304687,17.6726563 18.6304687,17.6726563 Z M20.9289063,17.6726563 C20.9289063,17.6726563 20.9289063,16.6671875 20.9289063,16.6671875 C20.9289063,16.6671875 22.221875,16.6671875 22.221875,16.6671875 C22.221875,16.6671875 22.221875,17.6726563 22.221875,17.6726563 C22.221875,17.6726563 20.9289063,17.6726563 20.9289063,17.6726563 Z M23.5632812,17.6726563 C23.5632812,17.6726563 23.5632812,16.6671875 23.5632812,16.6671875 C23.5632812,16.6671875 24.5210937,16.6671875 24.5210937,16.6671875 C24.5210937,16.6671875 24.5210937,17.6726563 24.5210937,17.6726563 C24.5210937,17.6726563 23.5632812,17.6726563 23.5632812,17.6726563 Z M0,7.8546875 C0,7.8546875 0,6.84921875 0,6.84921875 C0,6.84921875 0.9578125,6.84921875 0.9578125,6.84921875 C0.9578125,6.84921875 0.9578125,7.8546875 0.9578125,7.8546875 C0.9578125,7.8546875 0,7.8546875 0,7.8546875 L0,7.8546875 Z M2.29921875,7.8546875 C2.29921875,7.8546875 2.29921875,6.84921875 2.29921875,6.84921875 C2.29921875,6.84921875 3.5921875,6.84921875 3.5921875,6.84921875 C3.5921875,6.84921875 3.5921875,7.8546875 3.5921875,7.8546875 C3.5921875,7.8546875 2.29921875,7.8546875 2.29921875,7.8546875 L2.29921875,7.8546875 Z M4.88515625,7.8546875 C4.88515625,7.8546875 4.88515625,6.84921875 4.88515625,6.84921875 C4.88515625,6.84921875 5.890625,6.84921875 5.890625,6.84921875 C5.890625,6.84921875 5.890625,7.8546875 5.890625,7.8546875 C5.890625,7.8546875 4.88515625,7.8546875 4.88515625,7.8546875 L4.88515625,7.8546875 Z M0,17.6726563 C0,17.6726563 0,16.6671875 0,16.6671875 C0,16.6671875 0.9578125,16.6671875 0.9578125,16.6671875 C0.9578125,16.6671875 0.9578125,17.6726563 0.9578125,17.6726563 C0.9578125,17.6726563 0,17.6726563 0,17.6726563 Z M2.29921875,17.6726563 C2.29921875,17.6726563 2.29921875,16.6671875 2.29921875,16.6671875 C2.29921875,16.6671875 3.5921875,16.6671875 3.5921875,16.6671875 C3.5921875,16.6671875 3.5921875,17.6726563 3.5921875,17.6726563 C3.5921875,17.6726563 2.29921875,17.6726563 2.29921875,17.6726563 Z M4.88515625,17.6726563 C4.88515625,17.6726563 4.88515625,16.6671875 4.88515625,16.6671875 C4.88515625,16.6671875 5.890625,16.6671875 5.890625,16.6671875 C5.890625,16.6671875 5.890625,17.6726563 5.890625,17.6726563 C5.890625,17.6726563 4.88515625,17.6726563 4.88515625,17.6726563 Z M6.8484375,5.89140625 C6.8484375,5.89140625 6.8484375,4.8859375 6.8484375,4.8859375 C6.8484375,4.8859375 7.85390625,4.8859375 7.85390625,4.8859375 C7.85390625,4.8859375 7.85390625,5.89140625 7.85390625,5.89140625 C7.85390625,5.89140625 6.8484375,5.89140625 6.8484375,5.89140625 Z M6.8484375,3.5921875 C6.8484375,3.5921875 6.8484375,2.29921875 6.8484375,2.29921875 C6.8484375,2.29921875 7.85390625,2.29921875 7.85390625,2.29921875 C7.85390625,2.29921875 7.85390625,3.5921875 7.85390625,3.5921875 C7.85390625,3.5921875 6.8484375,3.5921875 6.8484375,3.5921875 Z M6.8484375,0.9578125 C6.8484375,0.9578125 6.8484375,0 6.8484375,0 C6.8484375,0 7.85390625,0 7.85390625,0 C7.85390625,0 7.85390625,0.9578125 7.85390625,0.9578125 C7.85390625,0.9578125 6.8484375,0.9578125 6.8484375,0.9578125 Z M16.6664063,5.89140625 C16.6664063,5.89140625 16.6664063,4.8859375 16.6664063,4.8859375 C16.6664063,4.8859375 17.671875,4.8859375 17.671875,4.8859375 C17.671875,4.8859375 17.671875,5.89140625 17.671875,5.89140625 C17.671875,5.89140625 16.6664063,5.89140625 16.6664063,5.89140625 Z M16.6664063,3.5921875 C16.6664063,3.5921875 16.6664063,2.29921875 16.6664063,2.29921875 C16.6664063,2.29921875 17.671875,2.29921875 17.671875,2.29921875 C17.671875,2.29921875 17.671875,3.5921875 17.671875,3.5921875 C17.671875,3.5921875 16.6664063,3.5921875 16.6664063,3.5921875 Z M16.6664063,0.9578125 C16.6664063,0.9578125 16.6664063,0 16.6664063,0 C16.6664063,0 17.671875,0 17.671875,0 C17.671875,0 17.671875,0.9578125 17.671875,0.9578125 C17.671875,0.9578125 16.6664063,0.9578125 16.6664063,0.9578125 Z M6.8484375,24.5210937 C6.8484375,24.5210937 6.8484375,23.5632812 6.8484375,23.5632812 C6.8484375,23.5632812 7.85390625,23.5632812 7.85390625,23.5632812 C7.85390625,23.5632812 7.85390625,24.5210937 7.85390625,24.5210937 C7.85390625,24.5210937 6.8484375,24.5210937 6.8484375,24.5210937 Z M6.8484375,22.2226562 C6.8484375,22.2226562 6.8484375,20.9296875 6.8484375,20.9296875 C6.8484375,20.9296875 7.85390625,20.9296875 7.85390625,20.9296875 C7.85390625,20.9296875 7.85390625,22.2226562 7.85390625,22.2226562 C7.85390625,22.2226562 6.8484375,22.2226562 6.8484375,22.2226562 Z M6.8484375,19.6359375 C6.8484375,19.6359375 6.8484375,18.6304687 6.8484375,18.6304687 C6.8484375,18.6304687 7.85390625,18.6304687 7.85390625,18.6304687 C7.85390625,18.6304687 7.85390625,19.6359375 7.85390625,19.6359375 C7.85390625,19.6359375 6.8484375,19.6359375 6.8484375,19.6359375 Z M16.6664063,24.5210937 C16.6664063,24.5210937 16.6664063,23.5632812 16.6664063,23.5632812 C16.6664063,23.5632812 17.671875,23.5632812 17.671875,23.5632812 C17.671875,23.5632812 17.671875,24.5210937 17.671875,24.5210937 C17.671875,24.5210937 16.6664063,24.5210937 16.6664063,24.5210937 Z M16.6664063,22.2226562 C16.6664063,22.2226562 16.6664063,20.9296875 16.6664063,20.9296875 C16.6664063,20.9296875 17.671875,20.9296875 17.671875,20.9296875 C17.671875,20.9296875 17.671875,22.2226562 17.671875,22.2226562 C17.671875,22.2226562 16.6664063,22.2226562 16.6664063,22.2226562 Z M16.6664063,19.6359375 C16.6664063,19.6359375 16.6664063,18.6304687 16.6664063,18.6304687 C16.6664063,18.6304687 17.671875,18.6304687 17.671875,18.6304687 C17.671875,18.6304687 17.671875,19.6359375 17.671875,19.6359375 C17.671875,19.6359375 16.6664063,19.6359375 16.6664063,19.6359375 Z"/>
  <title>Box Grid</title>
</svg>