<svg xmlns="http://www.w3.org/2000/svg" viewBox="0 0 25 25" id="box-dashed-labeled">
  <path d="M18.6304687,4.88515625 C18.6304687,4.88515625 18.6304687,3.92734375 18.6304687,3.92734375 C18.6304687,3.92734375 20.59375,3.92734375 20.59375,3.92734375 C20.59375,3.92734375 20.59375,4.88515625 20.59375,4.88515625 C20.59375,4.88515625 18.6304687,4.88515625 18.6304687,4.88515625 Z M24.5210937,3.92734375 C24.5210937,3.92734375 24.5210937,6.36953125 24.5210937,6.36953125 C24.5210937,6.36953125 23.5632812,6.36953125 23.5632812,6.36953125 C23.5632812,6.36953125 23.5632812,4.88515625 23.5632812,4.88515625 C23.5632812,4.88515625 22.0789062,4.88515625 22.0789062,4.88515625 C22.0789062,4.88515625 22.0789062,3.92734375 22.0789062,3.92734375 C22.0789062,3.92734375 24.5210937,3.92734375 24.5210937,3.92734375 Z M24.5210937,15.8046875 C24.5210937,15.8046875 24.5210937,18.9179688 24.5210937,18.9179688 C24.5210937,18.9179688 23.5632812,18.9179688 23.5632812,18.9179688 C23.5632812,18.9179688 23.5632812,15.8046875 23.5632812,15.8046875 C23.5632812,15.8046875 24.5210937,15.8046875 24.5210937,15.8046875 Z M24.5210937,9.53125 C24.5210937,9.53125 24.5210937,12.6445312 24.5210937,12.6445312 C24.5210937,12.6445312 23.5632812,12.6445312 23.5632812,12.6445312 C23.5632812,12.6445312 23.5632812,9.53125 23.5632812,9.53125 C23.5632812,9.53125 24.5210937,9.53125 24.5210937,9.53125 Z M24.5210937,22.0789062 C24.5210937,22.0789062 24.5210937,24.5210937 24.5210937,24.5210937 C24.5210937,24.5210937 22.0789062,24.5210937 22.0789062,24.5210937 C22.0789062,24.5210937 22.0789062,23.5632812 22.0789062,23.5632812 C22.0789062,23.5632812 23.5632812,23.5632812 23.5632812,23.5632812 C23.5632812,23.5632812 23.5632812,22.0789062 23.5632812,22.0789062 C23.5632812,22.0789062 24.5210937,22.0789062 24.5210937,22.0789062 L24.5210937,22.0789062 Z M18.1515625,23.5632812 C18.1515625,23.5632812 18.1515625,24.5210937 18.1515625,24.5210937 C18.1515625,24.5210937 14.2242188,24.5210937 14.2242188,24.5210937 C14.2242188,24.5210937 14.2242188,23.5632812 14.2242188,23.5632812 C14.2242188,23.5632812 18.1515625,23.5632812 18.1515625,23.5632812 Z M10.296875,23.5632812 C10.296875,23.5632812 10.296875,24.5210937 10.296875,24.5210937 C10.296875,24.5210937 6.36953125,24.5210937 6.36953125,24.5210937 C6.36953125,24.5210937 6.36953125,23.5632812 6.36953125,23.5632812 C6.36953125,23.5632812 10.296875,23.5632812 10.296875,23.5632812 L10.296875,23.5632812 Z M2.44296875,23.5632812 C2.44296875,23.5632812 2.44296875,24.5210937 2.44296875,24.5210937 C2.44296875,24.5210937 0.00078125,24.5210937 0.00078125,24.5210937 C0.00078125,24.5210937 0.00078125,22.0789062 0.00078125,22.0789062 C0.00078125,22.0789062 0.95859375,22.0789062 0.95859375,22.0789062 C0.95859375,22.0789062 0.95859375,23.5632812 0.95859375,23.5632812 C0.95859375,23.5632812 2.44296875,23.5632812 2.44296875,23.5632812 L2.44296875,23.5632812 Z M0.9578125,15.8046875 C0.9578125,15.8046875 0.9578125,18.9179688 0.9578125,18.9179688 C0.9578125,18.9179688 0,18.9179688 0,18.9179688 C0,18.9179688 0,15.8046875 0,15.8046875 C0,15.8046875 0.9578125,15.8046875 0.9578125,15.8046875 Z M0.9578125,9.53125 C0.9578125,9.53125 0.9578125,12.6445312 0.9578125,12.6445312 C0.9578125,12.6445312 0,12.6445312 0,12.6445312 C0,12.6445312 0,9.53125 0,9.53125 C0,9.53125 0.9578125,9.53125 0.9578125,9.53125 Z M0.9578125,4.88515625 C0.9578125,4.88515625 0.9578125,6.36953125 0.9578125,6.36953125 C0.9578125,6.36953125 0,6.36953125 0,6.36953125 C0,6.36953125 0,3.92734375 0,3.92734375 C0,3.92734375 1.96328125,3.92734375 1.96328125,3.92734375 C1.96328125,3.92734375 1.96328125,4.88515625 1.96328125,4.88515625 C1.96328125,4.88515625 0.9578125,4.88515625 0.9578125,4.88515625 L0.9578125,4.88515625 Z M3.92734375,0.9578125 C3.92734375,0.9578125 17.6726563,0.9578125 17.6726563,0.9578125 C17.6726563,0.9578125 17.6726563,7.8546875 17.6726563,7.8546875 C17.6726563,7.8546875 3.92734375,7.8546875 3.92734375,7.8546875 C3.92734375,7.8546875 3.92734375,0.9578125 3.92734375,0.9578125 Z M18.6304688,8.8125 C18.6304688,8.8125 18.6304688,0 18.6304688,0 C18.6304688,0 2.921875,0 2.921875,0 C2.921875,0 2.921875,8.8125 2.921875,8.8125 C2.921875,8.8125 18.6304688,8.8125 18.6304688,8.8125 Z"/>
  <title>Box Dashed Labeled</title>
</svg>