<svg xmlns="http://www.w3.org/2000/svg" viewBox="0 0 25 25" id="box-4">
  <path d="M9.38203125,1 C9.38203125,1 9.38203125,1 9.38203125,1 C9.38203125,1 2.48515625,1 2.48515625,1 C2.05390625,1 1.71875,1.14375 1.43125,1.43125 C1.14375,1.71875 1,2.05390625 1,2.48515625 C1,2.48515625 1,2.48515625 1,2.48515625 C1,2.48515625 1,9.33359375 1,9.33359375 C1,9.76484375 1.14375,10.1 1.43125,10.3875 C1.71875,10.675 2.05390625,10.81875 2.48515625,10.81875 C2.48515625,10.81875 2.48515625,10.81875 2.48515625,10.81875 C2.48515625,10.81875 9.38203125,10.81875 9.38203125,10.81875 C9.81328125,10.81875 10.1484375,10.675 10.4359375,10.3875 C10.675,10.1 10.81875,9.76484375 10.81875,9.33359375 C10.81875,9.33359375 10.81875,9.33359375 10.81875,9.33359375 C10.81875,9.33359375 10.81875,2.48515625 10.81875,2.48515625 C10.81875,2.05390625 10.675,1.71875 10.4359375,1.43125 C10.1484375,1.14375 9.81328125,1 9.38203125,1 Z M9.8609375,2.48515625 C9.8609375,2.48515625 9.8609375,9.33359375 9.8609375,9.33359375 C9.8609375,9.66875 9.7171875,9.8125 9.38203125,9.8125 C9.38203125,9.8125 9.38203125,9.8125 9.38203125,9.8125 C9.38203125,9.8125 2.48515625,9.8125 2.48515625,9.8125 C2.15,9.8125 2.00625,9.66875 2.00625,9.33359375 C2.00625,9.33359375 2.00625,9.33359375 2.00625,9.33359375 C2.00625,9.33359375 2.00625,2.48515625 2.00625,2.48515625 C2.00625,2.15 2.15,1.95859375 2.48515625,1.95859375 C2.48515625,1.95859375 2.48515625,1.95859375 2.48515625,1.95859375 C2.48515625,1.95859375 9.38203125,1.95859375 9.38203125,1.95859375 C9.7171875,1.95859375 9.8609375,2.15 9.8609375,2.48515625 C9.8609375,2.48515625 9.8609375,2.48515625 9.8609375,2.48515625 Z M22.121875,1 C22.121875,1 22.121875,1 22.121875,1 C22.121875,1 15.225,1 15.225,1 C14.79375,1 14.4585938,1.14375 14.2195313,1.43125 C13.9320313,1.71875 13.7882813,2.05390625 13.7882813,2.48515625 C13.7882813,2.48515625 13.7882813,2.48515625 13.7882813,2.48515625 C13.7882813,2.48515625 13.7882813,9.33359375 13.7882813,9.33359375 C13.7882813,9.76484375 13.9320313,10.1 14.2195313,10.3875 C14.4585938,10.675 14.7945313,10.81875 15.225,10.81875 C15.225,10.81875 15.225,10.81875 15.225,10.81875 C15.225,10.81875 22.121875,10.81875 22.121875,10.81875 C22.553125,10.81875 22.8882813,10.675 23.1757812,10.3875 C23.4632813,10.1 23.6070312,9.76484375 23.6070312,9.33359375 C23.6070312,9.33359375 23.6070312,9.33359375 23.6070312,9.33359375 C23.6070312,9.33359375 23.6070312,2.48515625 23.6070312,2.48515625 C23.6070312,2.05390625 23.4632813,1.71875 23.1757812,1.43125 C22.8882813,1.14375 22.553125,1 22.121875,1 Z M22.6007812,2.48515625 C22.6007812,2.48515625 22.6007812,9.33359375 22.6007812,9.33359375 C22.6007812,9.66875 22.4570312,9.8125 22.121875,9.8125 C22.121875,9.8125 22.121875,9.8125 22.121875,9.8125 C22.121875,9.8125 15.225,9.8125 15.225,9.8125 C14.8898437,9.8125 14.7460937,9.66875 14.7460937,9.33359375 C14.7460937,9.33359375 14.7460937,9.33359375 14.7460937,9.33359375 C14.7460937,9.33359375 14.7460937,2.48515625 14.7460937,2.48515625 C14.7460937,2.15 14.8898437,1.95859375 15.225,1.95859375 C15.225,1.95859375 15.225,1.95859375 15.225,1.95859375 C15.225,1.95859375 22.121875,1.95859375 22.121875,1.95859375 C22.4570312,1.95859375 22.6007812,2.15 22.6007812,2.48515625 C22.6007812,2.48515625 22.6007812,2.48515625 22.6007812,2.48515625 Z M9.38203125,13.7398438 C9.38203125,13.7398438 9.38203125,13.7398438 9.38203125,13.7398438 C9.38203125,13.7398438 2.48515625,13.7398438 2.48515625,13.7398438 C2.05390625,13.7398438 1.71875,13.8835938 1.43125,14.1710938 C1.14375,14.4585938 1,14.79375 1,15.225 C1,15.225 1,15.225 1,15.225 C1,15.225 1,22.0734375 1,22.0734375 C1,22.5046875 1.14375,22.8398438 1.43125,23.1273438 C1.71875,23.4148438 2.05390625,23.5585938 2.48515625,23.5585938 C2.48515625,23.5585938 2.48515625,23.5585938 2.48515625,23.5585938 C2.48515625,23.5585938 9.38203125,23.5585938 9.38203125,23.5585938 C9.81328125,23.5585938 10.1484375,23.4148438 10.4359375,23.1273438 C10.675,22.8398438 10.81875,22.5046875 10.81875,22.0734375 C10.81875,22.0734375 10.81875,22.0734375 10.81875,22.0734375 C10.81875,22.0734375 10.81875,15.225 10.81875,15.225 C10.81875,14.79375 10.675,14.4585938 10.4359375,14.1710938 C10.1484375,13.8835938 9.81328125,13.7398438 9.38203125,13.7398438 L9.38203125,13.7398438 Z M9.8609375,15.2242188 C9.8609375,15.2242188 9.8609375,22.0726563 9.8609375,22.0726563 C9.8609375,22.4078125 9.7171875,22.5515625 9.38203125,22.5515625 C9.38203125,22.5515625 9.38203125,22.5515625 9.38203125,22.5515625 C9.38203125,22.5515625 2.48515625,22.5515625 2.48515625,22.5515625 C2.15,22.5515625 2.00625,22.4078125 2.00625,22.0726563 C2.00625,22.0726563 2.00625,22.0726563 2.00625,22.0726563 C2.00625,22.0726563 2.00625,15.2242188 2.00625,15.2242188 C2.00625,14.8890625 2.15,14.7453125 2.48515625,14.7453125 C2.48515625,14.7453125 2.48515625,14.7453125 2.48515625,14.7453125 C2.48515625,14.7453125 9.38203125,14.7453125 9.38203125,14.7453125 C9.7171875,14.7453125 9.8609375,14.8890625 9.8609375,15.2242188 C9.8609375,15.2242188 9.8609375,15.2242188 9.8609375,15.2242188 Z M22.121875,13.7398438 C22.121875,13.7398438 22.121875,13.7398438 22.121875,13.7398438 C22.121875,13.7398438 15.225,13.7398438 15.225,13.7398438 C14.79375,13.7398438 14.4585938,13.8835938 14.2195313,14.1710938 C13.9320313,14.4585938 13.7882813,14.79375 13.7882813,15.225 C13.7882813,15.225 13.7882813,15.225 13.7882813,15.225 C13.7882813,15.225 13.7882813,22.0734375 13.7882813,22.0734375 C13.7882813,22.5046875 13.9320313,22.8398438 14.2195313,23.1273438 C14.4585938,23.4148438 14.7945313,23.5585938 15.225,23.5585938 C15.225,23.5585938 15.225,23.5585938 15.225,23.5585938 C15.225,23.5585938 22.121875,23.5585938 22.121875,23.5585938 C22.553125,23.5585938 22.8882813,23.4148438 23.1757812,23.1273438 C23.4632813,22.8398438 23.6070312,22.5046875 23.6070312,22.0734375 C23.6070312,22.0734375 23.6070312,22.0734375 23.6070312,22.0734375 C23.6070312,22.0734375 23.6070312,15.225 23.6070312,15.225 C23.6070312,14.79375 23.4632813,14.4585938 23.1757812,14.1710938 C22.8882813,13.8835938 22.553125,13.7398438 22.121875,13.7398438 L22.121875,13.7398438 Z M22.6007812,15.2242188 C22.6007812,15.2242188 22.6007812,22.0726563 22.6007812,22.0726563 C22.6007812,22.4078125 22.4570312,22.5515625 22.121875,22.5515625 C22.121875,22.5515625 22.121875,22.5515625 22.121875,22.5515625 C22.121875,22.5515625 15.225,22.5515625 15.225,22.5515625 C14.8898437,22.5515625 14.7460937,22.4078125 14.7460937,22.0726563 C14.7460937,22.0726563 14.7460937,22.0726563 14.7460937,22.0726563 C14.7460937,22.0726563 14.7460937,15.2242188 14.7460937,15.2242188 C14.7460937,14.8890625 14.8898437,14.7453125 15.225,14.7453125 C15.225,14.7453125 15.225,14.7453125 15.225,14.7453125 C15.225,14.7453125 22.121875,14.7453125 22.121875,14.7453125 C22.4570312,14.7453125 22.6007812,14.8890625 22.6007812,15.2242188 C22.6007812,15.2242188 22.6007812,15.2242188 22.6007812,15.2242188 Z"/>
  <title>Box 4</title>
</svg>