<svg xmlns="http://www.w3.org/2000/svg" viewBox="0 0 25 25" id="box-4-solid">
  <path d="M10.81875,2.48515625 C10.81875,2.48515625 10.81875,2.48515625 10.81875,2.48515625 C10.81875,2.48515625 10.81875,9.38203125 10.81875,9.38203125 C10.81875,9.76484375 10.675,10.1007813 10.4359375,10.3875 C10.1484375,10.675 9.81328125,10.81875 9.38203125,10.81875 C9.38203125,10.81875 9.38203125,10.81875 9.38203125,10.81875 C9.38203125,10.81875 2.48515625,10.81875 2.48515625,10.81875 C2.05390625,10.81875 1.71875,10.675 1.43125,10.3875 C1.14375,10.1 1,9.76484375 1,9.38203125 C1,9.38203125 1,9.38203125 1,9.38203125 C1,9.38203125 1,2.48515625 1,2.48515625 C1,2.05390625 1.14375,1.71875 1.43125,1.43125 C1.71875,1.14375 2.05390625,1 2.48515625,1 C2.48515625,1 2.48515625,1 2.48515625,1 C2.48515625,1 9.38203125,1 9.38203125,1 C9.81328125,1 10.1484375,1.14375 10.4359375,1.43125 C10.675,1.71875 10.81875,2.05390625 10.81875,2.48515625 Z M22.121875,1.00078125 C22.121875,1.00078125 22.121875,1.00078125 22.121875,1.00078125 C22.121875,1.00078125 15.225,1.00078125 15.225,1.00078125 C14.79375,1.00078125 14.4585938,1.14453125 14.2195313,1.43203125 C13.9320313,1.71953125 13.7882813,2.0546875 13.7882813,2.4859375 C13.7882813,2.4859375 13.7882813,2.4859375 13.7882813,2.4859375 C13.7882813,2.4859375 13.7882813,9.3828125 13.7882813,9.3828125 C13.7882813,9.765625 13.9320313,10.1015625 14.2195313,10.3882813 C14.4585938,10.6757812 14.7945313,10.8195312 15.225,10.8195312 C15.225,10.8195312 15.225,10.8195312 15.225,10.8195312 C15.225,10.8195312 22.121875,10.8195312 22.121875,10.8195312 C22.553125,10.8195312 22.8882813,10.6757812 23.1757812,10.3882813 C23.4632813,10.1007812 23.6070312,9.765625 23.6070312,9.3828125 C23.6070312,9.3828125 23.6070312,9.3828125 23.6070312,9.3828125 C23.6070312,9.3828125 23.6070312,2.4859375 23.6070312,2.4859375 C23.6070312,2.0546875 23.4632813,1.71953125 23.1757812,1.43203125 C22.8882813,1.14453125 22.553125,1.00078125 22.121875,1.00078125 Z M9.38203125,13.7882812 C9.38203125,13.7882812 9.38203125,13.7882812 9.38203125,13.7882812 C9.38203125,13.7882812 2.48515625,13.7882812 2.48515625,13.7882812 C2.05390625,13.7882812 1.71875,13.9320312 1.43125,14.1710937 C1.14375,14.4585937 1,14.79375 1,15.225 C1,15.225 1,15.225 1,15.225 C1,15.225 1,22.121875 1,22.121875 C1,22.553125 1.14375,22.8882812 1.43125,23.1273437 C1.71875,23.4148437 2.05390625,23.5585938 2.48515625,23.5585938 C2.48515625,23.5585938 2.48515625,23.5585938 2.48515625,23.5585938 C2.48515625,23.5585938 9.38203125,23.5585938 9.38203125,23.5585938 C9.81328125,23.5585938 10.1484375,23.4148437 10.4359375,23.1273437 C10.675,22.8882812 10.81875,22.5523437 10.81875,22.121875 C10.81875,22.121875 10.81875,22.121875 10.81875,22.121875 C10.81875,22.121875 10.81875,15.225 10.81875,15.225 C10.81875,14.79375 10.675,14.4585937 10.4359375,14.1710937 C10.1484375,13.9320312 9.81328125,13.7882812 9.38203125,13.7882812 Z M22.121875,13.7882812 C22.121875,13.7882812 22.121875,13.7882812 22.121875,13.7882812 C22.121875,13.7882812 15.225,13.7882812 15.225,13.7882812 C14.79375,13.7882812 14.4585938,13.9320312 14.2195313,14.1710937 C13.9320313,14.4585937 13.7882813,14.79375 13.7882813,15.225 C13.7882813,15.225 13.7882813,15.225 13.7882813,15.225 C13.7882813,15.225 13.7882813,22.121875 13.7882813,22.121875 C13.7882813,22.553125 13.9320313,22.8882812 14.2195313,23.1273437 C14.4585938,23.4148437 14.7945313,23.5585938 15.225,23.5585938 C15.225,23.5585938 15.225,23.5585938 15.225,23.5585938 C15.225,23.5585938 22.121875,23.5585938 22.121875,23.5585938 C22.553125,23.5585938 22.8882813,23.4148437 23.1757812,23.1273437 C23.4632813,22.8882812 23.6070312,22.5523437 23.6070312,22.121875 C23.6070312,22.121875 23.6070312,22.121875 23.6070312,22.121875 C23.6070312,22.121875 23.6070312,15.225 23.6070312,15.225 C23.6070312,14.79375 23.4632813,14.4585937 23.1757812,14.1710937 C22.8882813,13.9320312 22.553125,13.7882812 22.121875,13.7882812 Z"/>
  <title>Box 4 Solid</title>
</svg>