<svg xmlns="http://www.w3.org/2000/svg" viewBox="0 0 25 25" id="box-lines-2">
  <path d="M23.5625,2.921875 C23.5625,2.921875 23.5625,21.6 23.5625,21.6 C23.5625,22.1265625 23.3710938,22.6054688 22.9875,22.9890625 C22.6039063,23.3726562 22.1257813,23.5640625 21.5984375,23.5640625 C21.5984375,23.5640625 21.5984375,23.5640625 21.5984375,23.5640625 C21.5984375,23.5640625 2.9203125,23.5640625 2.9203125,23.5640625 C2.39375,23.5640625 1.91484375,23.3726562 1.53125,22.9890625 C1.14765625,22.6054688 0.95625,22.1273438 0.95625,21.6 C0.95625,21.6 0.95625,21.6 0.95625,21.6 C0.95625,21.6 0.95625,2.921875 0.95625,2.921875 C0.95625,2.3953125 1.14765625,1.91640625 1.53125,1.5328125 C1.91484375,1.14921875 2.39296875,0.9578125 2.9203125,0.9578125 C2.9203125,0.9578125 2.9203125,0.9578125 2.9203125,0.9578125 C2.9203125,0.9578125 21.5984375,0.9578125 21.5984375,0.9578125 C22.125,0.9578125 22.6039063,1.14921875 22.9875,1.5328125 C23.3710938,1.91640625 23.5625,2.39453125 23.5625,2.921875 C23.5625,2.921875 23.5625,2.921875 23.5625,2.921875 Z M21.5992187,0 C21.5992187,0 21.5992187,0 21.5992187,0 C21.5992187,0 2.92109375,0 2.92109375,0 C2.10703125,0 1.43671875,0.2875 0.86171875,0.86171875 C0.28671875,1.4359375 0,2.10703125 0,2.92109375 C0,2.92109375 0,2.92109375 0,2.92109375 C0,2.92109375 0,21.5992187 0,21.5992187 C0,22.4132813 0.2875,23.0835937 0.86171875,23.6585937 C1.4359375,24.2335937 2.10703125,24.5203125 2.92109375,24.5203125 C2.92109375,24.5203125 2.92109375,24.5203125 2.92109375,24.5203125 C2.92109375,24.5203125 21.5992187,24.5203125 21.5992187,24.5203125 C22.4132813,24.5203125 23.0835937,24.2328125 23.6585937,23.6585937 C24.2335937,23.084375 24.5203125,22.4132812 24.5203125,21.5992187 C24.5203125,21.5992187 24.5203125,21.5992187 24.5203125,21.5992187 C24.5203125,21.5992187 24.5203125,2.92109375 24.5203125,2.92109375 C24.5203125,2.10703125 24.2328125,1.43671875 23.6585937,0.86171875 C23.084375,0.28671875 22.4132812,0 21.5992187,0 Z M18.1507813,9.3390625 C18.1507813,9.3390625 18.1507813,9.3390625 18.1507813,9.3390625 C18.1507813,9.3390625 6.36953125,9.3390625 6.36953125,9.3390625 C6.034375,9.3390625 5.890625,9.4828125 5.890625,9.81796875 C5.890625,10.153125 6.034375,10.296875 6.36953125,10.296875 C6.36953125,10.296875 6.36953125,10.296875 6.36953125,10.296875 C6.36953125,10.296875 18.1507813,10.296875 18.1507813,10.296875 C18.4859375,10.296875 18.6296875,10.153125 18.6296875,9.81796875 C18.6296875,9.4828125 18.4859375,9.3390625 18.1507813,9.3390625 Z M18.1507813,14.2242188 C18.1507813,14.2242188 18.1507813,14.2242188 18.1507813,14.2242188 C18.1507813,14.2242188 6.36953125,14.2242188 6.36953125,14.2242188 C6.034375,14.2242188 5.890625,14.3679688 5.890625,14.703125 C5.890625,15.0382812 6.034375,15.1820312 6.36953125,15.1820312 C6.36953125,15.1820312 6.36953125,15.1820312 6.36953125,15.1820312 C6.36953125,15.1820312 18.1507813,15.1820312 18.1507813,15.1820312 C18.4859375,15.1820312 18.6296875,15.0382812 18.6296875,14.703125 C18.6296875,14.3679688 18.4859375,14.2242188 18.1507813,14.2242188 C18.1507813,14.2242188 18.1507813,14.2242188 18.1507813,14.2242188 Z"/>
  <title>Box Lines 2</title>
</svg>