<svg xmlns="http://www.w3.org/2000/svg" viewBox="0 0 25 25" id="box-3-solid">
  <path d="M1,15.896875 C1,15.896875 1,9 1,9 C1,9 7.896875,9 7.896875,9 C7.896875,9 7.896875,15.896875 7.896875,15.896875 C7.896875,15.896875 1,15.896875 1,15.896875 Z M8.8546875,15.896875 C8.8546875,15.896875 8.8546875,9 8.8546875,9 C8.8546875,9 15.7515625,9 15.7515625,9 C15.7515625,9 15.7515625,15.896875 15.7515625,15.896875 C15.7515625,15.896875 8.8546875,15.896875 8.8546875,15.896875 Z M16.7085938,15.896875 C16.7085938,15.896875 16.7085938,9 16.7085938,9 C16.7085938,9 23.6054688,9 23.6054688,9 C23.6054688,9 23.6054688,15.896875 23.6054688,15.896875 C23.6054688,15.896875 16.7085938,15.896875 16.7085938,15.896875 Z"/>
  <title>Box 3 Solid</title>
</svg>