<svg xmlns="http://www.w3.org/2000/svg" viewBox="0 0 25 25" id="box-lines-2-solid">
  <path d="M2.92109375,0 C2.92109375,0 2.92109375,0 2.92109375,0 C2.92109375,0 21.5992188,0 21.5992188,0 C22.4132813,0 23.0835937,0.2875 23.6585938,0.86171875 C24.2335938,1.4359375 24.5203125,2.10703125 24.5203125,2.92109375 C24.5203125,2.92109375 24.5203125,2.92109375 24.5203125,2.92109375 C24.5203125,2.92109375 24.5203125,21.5992187 24.5203125,21.5992187 C24.5203125,22.4132813 24.2328125,23.0835937 23.6585937,23.6585937 C23.084375,24.2335937 22.4132812,24.5203125 21.5992187,24.5203125 C21.5992187,24.5203125 21.5992187,24.5203125 21.5992187,24.5203125 C21.5992187,24.5203125 2.92109375,24.5203125 2.92109375,24.5203125 C2.10703125,24.5203125 1.43671875,24.2328125 0.86171875,23.6585937 C0.28671875,23.084375 0,22.4132812 0,21.5992187 C0,21.5992187 0,21.5992187 0,21.5992187 C0,21.5992187 0,2.92109375 0,2.92109375 C0,2.10703125 0.2875,1.43671875 0.86171875,0.86171875 C1.4359375,0.28671875 2.10703125,0 2.92109375,0 Z M6.36875,10.296875 C6.36875,10.296875 6.36875,10.296875 6.36875,10.296875 C6.36875,10.296875 18.15,10.296875 18.15,10.296875 C18.4851563,10.296875 18.6289062,10.153125 18.6289062,9.81796875 C18.6289062,9.4828125 18.4851563,9.3390625 18.15,9.3390625 C18.15,9.3390625 18.15,9.3390625 18.15,9.3390625 C18.15,9.3390625 6.36875,9.3390625 6.36875,9.3390625 C6.03359375,9.3390625 5.88984375,9.4828125 5.88984375,9.81796875 C5.88984375,10.153125 6.03359375,10.296875 6.36875,10.296875 Z M6.36875,15.1820312 C6.36875,15.1820312 6.36875,15.1820312 6.36875,15.1820312 C6.36875,15.1820312 18.15,15.1820312 18.15,15.1820312 C18.4851563,15.1820312 18.6289062,15.0382812 18.6289062,14.703125 C18.6289062,14.3679688 18.4851563,14.2242188 18.15,14.2242188 C18.15,14.2242188 18.15,14.2242188 18.15,14.2242188 C18.15,14.2242188 6.36875,14.2242188 6.36875,14.2242188 C6.03359375,14.2242188 5.88984375,14.3679688 5.88984375,14.703125 C5.88984375,15.0382812 6.03359375,15.1820312 6.36875,15.1820312 Z"/>
  <title>Box Lines 2 Solid</title>
</svg>