<svg xmlns="http://www.w3.org/2000/svg" viewBox="0 0 25 25" id="box-3">
  <path d="M2.00546875,10.0054687 C2.00546875,10.0054687 6.890625,10.0054687 6.890625,10.0054687 C6.890625,10.0054687 6.890625,14.890625 6.890625,14.890625 C6.890625,14.890625 2.00546875,14.890625 2.00546875,14.890625 C2.00546875,14.890625 2.00546875,10.0054687 2.00546875,10.0054687 Z M7.896875,15.896875 C7.896875,15.896875 7.896875,9 7.896875,9 C7.896875,9 1,9 1,9 C1,9 1,15.896875 1,15.896875 C1,15.896875 7.896875,15.896875 7.896875,15.896875 Z M9.86015625,10.0054687 C9.86015625,10.0054687 14.7453125,10.0054687 14.7453125,10.0054687 C14.7453125,10.0054687 14.7453125,14.890625 14.7453125,14.890625 C14.7453125,14.890625 9.86015625,14.890625 9.86015625,14.890625 C9.86015625,14.890625 9.86015625,10.0054687 9.86015625,10.0054687 Z M15.7507812,15.896875 C15.7507812,15.896875 15.7507812,9 15.7507812,9 C15.7507812,9 8.85390625,9 8.85390625,9 C8.85390625,9 8.85390625,15.896875 8.85390625,15.896875 C8.85390625,15.896875 15.7507812,15.896875 15.7507812,15.896875 Z M17.7148438,10.0054687 C17.7148438,10.0054687 22.6,10.0054687 22.6,10.0054687 C22.6,10.0054687 22.6,14.890625 22.6,14.890625 C22.6,14.890625 17.7148438,14.890625 17.7148438,14.890625 C17.7148438,14.890625 17.7148438,10.0054687 17.7148438,10.0054687 Z M23.6054688,15.896875 C23.6054688,15.896875 23.6054688,9 23.6054688,9 C23.6054688,9 16.7085938,9 16.7085938,9 C16.7085938,9 16.7085938,15.896875 16.7085938,15.896875 C16.7085938,15.896875 23.6054688,15.896875 23.6054688,15.896875 Z"/>
  <title>Box 3</title>
</svg>