<svg xmlns="http://www.w3.org/2000/svg" viewBox="0 0 25 25" id="box-crosshair">
  <path d="M11.78125,4.88515625 C11.78125,4.88515625 11.78125,0 11.78125,0 C11.78125,0 12.7390625,0 12.7390625,0 C12.7390625,0 12.7390625,4.88515625 12.7390625,4.88515625 C12.7390625,4.88515625 11.78125,4.88515625 11.78125,4.88515625 Z M0,12.7398437 C0,12.7398437 0,11.7820312 0,11.7820312 C0,11.7820312 4.88515625,11.7820312 4.88515625,11.7820312 C4.88515625,11.7820312 4.88515625,12.7398437 4.88515625,12.7398437 C4.88515625,12.7398437 0,12.7398437 0,12.7398437 Z M12.7398437,11.7820313 C12.7398437,11.7820313 12.7398437,4.88515625 12.7398437,4.88515625 C12.7398437,4.88515625 19.6367188,4.88515625 19.6367188,4.88515625 C19.6367188,4.88515625 19.6367188,11.7820313 19.6367188,11.7820313 C19.6367188,11.7820313 12.7398437,11.7820313 12.7398437,11.7820313 Z M11.78125,24.5210938 C11.78125,24.5210938 11.78125,19.6359375 11.78125,19.6359375 C11.78125,19.6359375 12.7390625,19.6359375 12.7390625,19.6359375 C12.7390625,19.6359375 12.7390625,24.5210938 12.7390625,24.5210938 C12.7390625,24.5210938 11.78125,24.5210938 11.78125,24.5210938 Z M4.88515625,11.7820313 C4.88515625,11.7820313 4.88515625,4.88515625 4.88515625,4.88515625 C4.88515625,4.88515625 11.7820313,4.88515625 11.7820313,4.88515625 C11.7820313,4.88515625 11.7820313,11.7820313 11.7820313,11.7820313 C11.7820313,11.7820313 4.88515625,11.7820313 4.88515625,11.7820313 Z M12.7398437,19.6359375 C12.7398437,19.6359375 12.7398437,12.7390625 12.7398437,12.7390625 C12.7398437,12.7390625 19.6367188,12.7390625 19.6367188,12.7390625 C19.6367188,12.7390625 19.6367188,19.6359375 19.6367188,19.6359375 C19.6367188,19.6359375 12.7398437,19.6359375 12.7398437,19.6359375 Z M19.6359375,12.7398437 C19.6359375,12.7398437 19.6359375,11.7820312 19.6359375,11.7820312 C19.6359375,11.7820312 24.5210938,11.7820312 24.5210938,11.7820312 C24.5210938,11.7820312 24.5210938,12.7398437 24.5210938,12.7398437 C24.5210938,12.7398437 19.6359375,12.7398437 19.6359375,12.7398437 Z M4.88515625,19.6359375 C4.88515625,19.6359375 4.88515625,12.7390625 4.88515625,12.7390625 C4.88515625,12.7390625 11.7820313,12.7390625 11.7820313,12.7390625 C11.7820313,12.7390625 11.7820313,19.6359375 11.7820313,19.6359375 C11.7820313,19.6359375 4.88515625,19.6359375 4.88515625,19.6359375 Z"/>
  <title>Box Crosshair</title>
</svg>