<svg xmlns="http://www.w3.org/2000/svg" viewBox="0 0 25 25" id="box">
  <path d="M13.1414062,9.2046875 C13.1414062,9.2046875 15.3476562,9.57890625 16.2234375,10.3273437 C17.0992187,11.0757812 17.6328125,12.0234375 17.8242187,13.1703125 C18.015625,14.3171875 17.8164062,15.3921875 17.2265625,16.3960937 C16.6367187,17.4 15.7851562,18.0921875 14.6703125,18.475 C13.5554687,18.8257812 12.45625,18.79375 11.3734375,18.3796875 C10.290625,17.965625 9.478125,17.2484375 8.93671875,16.2296875 C8.42734375,17.1851562 7.678125,17.8859375 6.690625,18.3320312 C5.703125,18.778125 4.68359375,18.8734375 3.63203125,18.61875 C2.58046875,18.3640625 1.7203125,17.8140625 1.0515625,16.9703125 C0.3828125,16.1265625 0.03203125,15.1625 0,14.0789062 C0,14.0789062 0,5.9078125 0,5.9078125 C0,5.653125 0.0953125,5.4296875 0.28671875,5.2390625 C0.509375,5.0796875 0.7328125,5 0.95546875,5 C1.178125,5 1.4015625,5.0796875 1.62421875,5.2390625 C1.815625,5.43046875 1.9109375,5.653125 1.9109375,5.9078125 C1.9109375,5.9078125 1.9109375,10.1609375 1.9109375,10.1609375 C3.0578125,9.30078125 4.34765625,9.0296875 5.78125,9.3484375 C7.1828125,9.63515625 8.234375,10.43125 8.93515625,11.7375 C9.34921875,10.9414062 9.93046875,10.3195312 10.6796875,9.87421875 C11.4289062,9.42890625 12.2484375,9.20546875 13.140625,9.20546875 L13.1414062,9.2046875 Z M4.73125,16.85 C4.73125,16.85 6.2046875,16.5710938 6.7625,16.0140625 C7.3203125,15.4570312 7.5984375,14.7796875 7.5984375,13.9828125 C7.5984375,12.7085937 7.009375,11.8328125 5.83046875,11.3546875 C4.6515625,10.8765625 3.61640625,11.0835937 2.72421875,11.9757812 C1.83203125,12.8679687 1.625,13.903125 2.103125,15.0820312 C2.54921875,16.2609375 3.425,16.85 4.73125,16.85 Z M13.1414062,16.85 C13.1414062,16.85 14.590625,16.5789062 15.1960937,16.0375 C15.7375,15.4320313 16.0085937,14.7476563 16.0085937,13.9828125 C16.0085937,12.7085938 15.4195312,11.8328125 14.240625,11.3546875 C13.0617187,10.8765625 12.0265625,11.0835938 11.134375,11.9757813 C10.2421875,12.8679688 10.0351562,13.903125 10.5132812,15.0820313 C10.959375,16.2609375 11.8351562,16.85 13.1414062,16.85 Z M24.275,17.2328125 C24.6570312,17.7421875 24.59375,18.1882813 24.0835937,18.5710938 C23.8921875,18.7304688 23.6617187,18.79375 23.390625,18.7625 C23.1195312,18.73125 22.9046875,18.603125 22.7453125,18.3804688 C22.7453125,18.3804688 20.690625,15.6085938 20.690625,15.6085938 C20.690625,15.6085938 18.5882813,18.3804688 18.5882813,18.3804688 C18.20625,18.8898438 17.7601563,18.9539063 17.25,18.571875 C17.0273438,18.4125 16.8992187,18.2054688 16.8679687,17.9507813 C16.8367187,17.6960938 16.9,17.4570313 17.059375,17.2335938 C17.059375,17.2335938 19.4960938,13.984375 19.4960938,13.984375 C19.4960938,13.984375 17.059375,10.7351563 17.059375,10.7351563 C16.6773437,10.2257813 16.740625,9.7796875 17.2507813,9.396875 C17.4421875,9.2375 17.6726562,9.17421875 17.94375,9.20546875 C18.2148438,9.23671875 18.4296875,9.36484375 18.5890625,9.5875 C18.5890625,9.5875 20.64375,12.4070313 20.64375,12.4070313 C20.64375,12.4070313 22.7460938,9.5875 22.7460938,9.5875 C23.128125,9.078125 23.5742187,9.0140625 24.084375,9.39609375 C24.5945312,9.778125 24.6578125,10.2242188 24.2757812,10.734375 C24.2757812,10.734375 21.8390625,13.9835938 21.8390625,13.9835938 C21.8390625,13.9835938 24.2757812,17.2328125 24.2757812,17.2328125 L24.275,17.2328125 Z"/>
  <title>Box</title>
</svg>