<svg xmlns="http://www.w3.org/2000/svg" viewBox="0 0 25 25" id="browser">
  <path d="M23.4858863,2 C23.4858863,2 23.4858863,2 23.4858863,2 C23.4858863,2 1.51411367,2 1.51411367,2 C1.07445521,2 0.732764114,2.14655282 0.439658468,2.43965847 C0.146552823,2.73276411 0,3.07445521 0,3.51411367 C0,3.51411367 0,3.51411367 0,3.51411367 C0,3.51411367 0,21.5313496 0,21.5313496 C0,21.971008 0.146552823,22.3126991 0.439658468,22.6058048 C0.732764114,22.8989104 1.07445521,23.0454632 1.51411367,23.0454632 C1.51411367,23.0454632 1.51411367,23.0454632 1.51411367,23.0454632 C1.51411367,23.0454632 23.4858863,23.0454632 23.4858863,23.0454632 C23.9255448,23.0454632 24.2672359,22.8989104 24.5603415,22.6058048 C24.8534472,22.3126991 25,21.971008 25,21.5313496 C25,21.5313496 25,21.5313496 25,21.5313496 C25,21.5313496 25,3.51411367 25,3.51411367 C25,3.07445521 24.8534472,2.73276411 24.5603415,2.43965847 C24.2672359,2.14655282 23.9255448,2 23.4858863,2 Z M0.97648783,6.0039187 C0.97648783,6.0039187 0.97648783,3.51411367 0.97648783,3.51411367 C0.97648783,3.17242258 1.1716261,3.02586976 1.51331719,3.02586976 C1.51331719,3.02586976 1.51331719,3.02586976 1.51331719,3.02586976 C1.51331719,3.02586976 8.00704091,3.02586976 8.00704091,3.02586976 C8.00704091,3.02586976 8.00704091,6.0039187 8.00704091,6.0039187 C8.00704091,6.0039187 0.975691347,6.0039187 0.975691347,6.0039187 L0.97648783,6.0039187 Z M24.0227157,7.02899197 C24.0227157,7.02899197 24.0227157,21.5305531 24.0227157,21.5305531 C24.0227157,21.8722442 23.8275774,22.018797 23.4858863,22.018797 C23.4858863,22.018797 23.4858863,22.018797 23.4858863,22.018797 C23.4858863,22.018797 1.51411367,22.018797 1.51411367,22.018797 C1.17242258,22.018797 0.977284312,21.8722442 0.977284312,21.5305531 C0.977284312,21.5305531 0.977284312,21.5305531 0.977284312,21.5305531 C0.977284312,21.5305531 0.977284312,7.02899197 0.977284312,7.02899197 C0.977284312,7.02899197 24.0235122,7.02899197 24.0235122,7.02899197 L24.0227157,7.02899197 Z M24.0227157,3.51331719 C24.0227157,3.51331719 24.0227157,6.00312221 24.0227157,6.00312221 C24.0227157,6.00312221 8.98432522,6.00312221 8.98432522,6.00312221 C8.98432522,6.00312221 8.98432522,3.02507328 8.98432522,3.02507328 C8.98432522,3.02507328 23.4858863,3.02507328 23.4858863,3.02507328 C23.8275774,3.02507328 24.0227157,3.1716261 24.0227157,3.51331719 C24.0227157,3.51331719 24.0227157,3.51331719 24.0227157,3.51331719 Z M2.00156111,5.02743087 C2.00156111,5.02743087 2.00156111,4.00235759 2.00156111,4.00235759 C2.00156111,4.00235759 2.97804894,4.00235759 2.97804894,4.00235759 C2.97804894,4.00235759 2.97804894,5.02743087 2.97804894,5.02743087 C2.97804894,5.02743087 2.00156111,5.02743087 2.00156111,5.02743087 Z M4.0039187,5.02743087 C4.0039187,5.02743087 4.0039187,4.00235759 4.0039187,4.00235759 C4.0039187,4.00235759 4.98040652,4.00235759 4.98040652,4.00235759 C4.98040652,4.00235759 4.98040652,5.02743087 4.98040652,5.02743087 C4.98040652,5.02743087 4.0039187,5.02743087 4.0039187,5.02743087 Z M6.0054798,5.02743087 C6.0054798,5.02743087 6.0054798,4.00235759 6.0054798,4.00235759 C6.0054798,4.00235759 6.98196763,4.00235759 6.98196763,4.00235759 C6.98196763,4.00235759 6.98196763,5.02743087 6.98196763,5.02743087 C6.98196763,5.02743087 6.0054798,5.02743087 6.0054798,5.02743087 L6.0054798,5.02743087 Z"/>
  <title>Browser</title>
</svg>