<svg xmlns="http://www.w3.org/2000/svg" viewBox="0 0 25 25" id="browser-solid">
  <path d="M0.000796457358,21.5307273 C0.000796457358,21.5307273 0.000796457358,8.00608493 0.000796457358,8.00608493 C0.000796457358,8.00608493 24.9992035,8.00608493 24.9992035,8.00608493 C24.9992035,8.00608493 24.9992035,21.5307273 24.9992035,21.5307273 C24.9992035,21.9703718 24.8526554,22.312052 24.5595591,22.5557679 C24.2664628,22.8488643 23.9247826,22.9954124 23.4851381,22.9954124 C23.4851381,22.9954124 23.4851381,22.9954124 23.4851381,22.9954124 C23.4851381,22.9954124 1.51406544,22.9954124 1.51406544,22.9954124 C1.07442098,22.9954124 0.732740769,22.8488643 0.439644461,22.5557679 C0.146548154,22.312052 0,21.9695753 0,21.5307273 C0,21.5307273 0,21.5307273 0,21.5307273 L0.000796457358,21.5307273 Z M24.9992035,3.51406544 C24.9992035,3.51406544 24.9992035,3.51406544 24.9992035,3.51406544 C24.9992035,3.51406544 24.9992035,7.02962821 24.9992035,7.02962821 C24.9992035,7.02962821 0.000796457358,7.02962821 0.000796457358,7.02962821 C0.000796457358,7.02962821 0.000796457358,3.51406544 0.000796457358,3.51406544 C0.000796457358,3.07442098 0.147344611,2.73274077 0.440440919,2.43964446 C0.733537226,2.14654815 1.07521743,2 1.51486189,2 C1.51486189,2 1.51486189,2 1.51486189,2 C1.51486189,2 23.4859346,2 23.4859346,2 C23.925579,2 24.2672592,2.14654815 24.5603555,2.43964446 C24.8534518,2.73274077 25,3.07442098 25,3.51406544 L24.9992035,3.51406544 Z M2.97954698,5.02733442 C2.97954698,5.02733442 2.97954698,4.0022938 2.97954698,4.0022938 C2.97954698,4.0022938 2.00309025,4.0022938 2.00309025,4.0022938 C2.00309025,4.0022938 2.00309025,5.02733442 2.00309025,5.02733442 C2.00309025,5.02733442 2.97954698,5.02733442 2.97954698,5.02733442 Z M4.98104431,5.02733442 C4.98104431,5.02733442 4.98104431,4.0022938 4.98104431,4.0022938 C4.98104431,4.0022938 4.00458759,4.0022938 4.00458759,4.0022938 C4.00458759,4.0022938 4.00458759,5.02733442 4.00458759,5.02733442 C4.00458759,5.02733442 4.98104431,5.02733442 4.98104431,5.02733442 Z M6.98254165,5.02733442 C6.98254165,5.02733442 6.98254165,4.0022938 6.98254165,4.0022938 C6.98254165,4.0022938 6.00608493,4.0022938 6.00608493,4.0022938 C6.00608493,4.0022938 6.00608493,5.02733442 6.00608493,5.02733442 C6.00608493,5.02733442 6.98254165,5.02733442 6.98254165,5.02733442 Z M24.0227468,6.00379114 C24.0227468,6.00379114 24.0227468,3.51406544 24.0227468,3.51406544 C24.0227468,3.17238523 23.8276148,3.02583708 23.4859346,3.02583708 C23.4859346,3.02583708 23.4859346,3.02583708 23.4859346,3.02583708 C23.4859346,3.02583708 8.98483545,3.02583708 8.98483545,3.02583708 C8.98483545,3.02583708 8.98483545,6.00379114 8.98483545,6.00379114 C8.98483545,6.00379114 24.0227468,6.00379114 24.0227468,6.00379114 L24.0227468,6.00379114 Z"/>
  <title>Browser Solid</title>
</svg>