<svg xmlns="http://www.w3.org/2000/svg" viewBox="0 0 25 25" id="bug-solid">
  <path d="M18.7070312,8.37578125 C18.7070312,8.37578125 18.7070312,10.8179687 18.7070312,10.8179687 C18.7070312,10.8179687 5.96796875,10.8179687 5.96796875,10.8179687 C5.96796875,10.8179687 5.96796875,8.37578125 5.96796875,8.37578125 C5.96796875,5.98125 7.021875,4.1609375 9.08125,2.86796875 C9.08125,2.86796875 9.08125,2.86796875 9.08125,2.86796875 C9.08125,2.86796875 8.07578125,1.8140625 8.07578125,1.8140625 C7.9796875,1.76640625 7.93203125,1.62265625 7.93203125,1.47890625 C7.93203125,1.47890625 7.93203125,1.47890625 7.93203125,1.47890625 C7.93203125,1.14375 8.07578125,1 8.4109375,1 C8.4109375,1 8.4109375,1 8.4109375,1 C8.5546875,1 8.65,1.04765625 8.74609375,1.14375 C8.74609375,1.14375 8.74609375,1.14375 8.74609375,1.14375 C8.74609375,1.14375 10.0390625,2.43671875 10.0390625,2.43671875 C10.7578125,2.1015625 11.5234375,1.9578125 12.3382812,1.9578125 C12.3382812,1.9578125 12.3382812,1.9578125 12.3382812,1.9578125 C13.1046875,1.9578125 13.8710938,2.1015625 14.6851563,2.43671875 C14.6851563,2.43671875 14.6851563,2.43671875 14.6851563,2.43671875 C14.6851563,2.43671875 15.9304688,1.14375 15.9304688,1.14375 C16.0265625,1.04765625 16.121875,1 16.265625,1 C16.265625,1 16.265625,1 16.265625,1 C16.6007813,1 16.7445313,1.14375 16.7445313,1.47890625 C16.7445313,1.47890625 16.7445313,1.47890625 16.7445313,1.47890625 C16.7445313,1.62265625 16.696875,1.76640625 16.6007813,1.8140625 C16.6007813,1.8140625 16.6007813,1.8140625 16.6007813,1.8140625 C16.6007813,1.8140625 15.5953125,2.86796875 15.5953125,2.86796875 C17.6546875,4.1609375 18.7085937,5.98125 18.7085937,8.37578125 C18.7085937,8.37578125 18.7085937,8.37578125 18.7085937,8.37578125 L18.7070312,8.37578125 Z M21.6765625,14.21875 C21.6765625,14.21875 21.6765625,14.21875 21.6765625,14.21875 C21.6765625,14.5539062 21.4851562,14.7453125 21.15,14.7453125 C21.15,14.7453125 21.15,14.7453125 21.15,14.7453125 C21.15,14.7453125 18.7078125,14.7453125 18.7078125,14.7453125 C18.7078125,14.7453125 18.7078125,17.1875 18.7078125,17.1875 C18.7078125,17.90625 18.5640625,18.6242187 18.325,19.3429688 C18.325,19.3429688 18.325,19.3429688 18.325,19.3429688 C18.325,19.3429688 18.46875,19.3429688 18.46875,19.3429688 C18.46875,19.3429688 20.528125,21.45 20.528125,21.45 C20.6242188,21.4976562 20.671875,21.6414063 20.671875,21.7851562 C20.671875,21.7851562 20.671875,21.7851562 20.671875,21.7851562 C20.671875,22.1203125 20.528125,22.2640625 20.1929688,22.2640625 C20.1929688,22.2640625 20.1929688,22.2640625 20.1929688,22.2640625 C20.0015625,22.2640625 19.9054688,22.2164062 19.8578125,22.1203125 C19.8578125,22.1203125 19.8578125,22.1203125 19.8578125,22.1203125 C19.8578125,22.1203125 17.9421875,20.2046875 17.9421875,20.2046875 C17.3671875,21.2101562 16.6015625,22.0242188 15.5953125,22.646875 C14.5890625,23.2695312 13.5359375,23.5570313 12.3382812,23.5570313 C11.140625,23.5570313 10.0875,23.2695312 9.08125,22.646875 C8.075,22.0242188 7.309375,21.2578125 6.734375,20.2523438 C6.734375,20.2523438 6.734375,20.2523438 6.734375,20.2523438 C6.734375,20.2523438 4.81875,22.1203125 4.81875,22.1203125 C4.77109375,22.2164062 4.675,22.2640625 4.48359375,22.2640625 C4.48359375,22.2640625 4.48359375,22.2640625 4.48359375,22.2640625 C4.1484375,22.2640625 4.0046875,22.1203125 4.0046875,21.7851562 C4.0046875,21.7851562 4.0046875,21.7851562 4.0046875,21.7851562 C4.0046875,21.6414062 4.05234375,21.4976562 4.1484375,21.45 C4.1484375,21.45 4.1484375,21.45 4.1484375,21.45 C4.1484375,21.45 6.2078125,19.3429688 6.2078125,19.3429688 C6.2078125,19.3429688 6.30390625,19.2953125 6.30390625,19.2953125 C6.06484375,18.5765625 5.96875,17.8585938 5.96875,17.1882813 C5.96875,17.1882813 5.96875,17.1882813 5.96875,17.1882813 C5.96875,17.1882813 5.96875,14.7460938 5.96875,14.7460938 C5.96875,14.7460938 3.5265625,14.7460938 3.5265625,14.7460938 C3.19140625,14.7460938 3,14.5546875 3,14.2195313 C3,14.2195313 3,14.2195313 3,14.2195313 C3,13.884375 3.19140625,13.740625 3.5265625,13.740625 C3.5265625,13.740625 3.5265625,13.740625 3.5265625,13.740625 C3.5265625,13.740625 5.96875,13.740625 5.96875,13.740625 C5.96875,13.740625 5.96875,11.7773438 5.96875,11.7773438 C5.96875,11.7773438 18.7078125,11.7773438 18.7078125,11.7773438 C18.7078125,11.7773438 18.7078125,13.740625 18.7078125,13.740625 C18.7078125,13.740625 21.15,13.740625 21.15,13.740625 C21.4851562,13.740625 21.6765625,13.884375 21.6765625,14.2195313 L21.6765625,14.21875 Z M17.7492188,17.1875 C17.7492188,17.1875 17.7492188,14.7453125 17.7492188,14.7453125 C17.7492188,14.7453125 12.8164063,14.7453125 12.8164063,14.7453125 C12.8164063,14.7453125 12.8164063,19.534375 12.8164063,19.534375 C12.8164063,19.8695312 12.6726563,20.0132812 12.3375,20.0132812 C12.0023438,20.0132812 11.8585938,19.8695312 11.8585938,19.534375 C11.8585938,19.534375 11.8585938,19.534375 11.8585938,19.534375 C11.8585938,19.534375 11.8585938,14.7453125 11.8585938,14.7453125 C11.8585938,14.7453125 6.92578125,14.7453125 6.92578125,14.7453125 C6.92578125,14.7453125 6.92578125,17.1875 6.92578125,17.1875 C6.92578125,18.671875 7.45234375,19.965625 8.55390625,21.01875 C9.6078125,22.0726563 10.853125,22.5992187 12.3375,22.5992187 C13.821875,22.5992187 15.0671875,22.0726563 16.16875,21.01875 C17.2226563,19.9648438 17.7492188,18.671875 17.7492188,17.1875 C17.7492188,17.1875 17.7492188,17.1875 17.7492188,17.1875 Z"/>
  <title>Bug Solid</title>
</svg>