<svg xmlns="http://www.w3.org/2000/svg" viewBox="0 0 25 25" id="bug">
  <path d="M21.1507813,13.7875 C21.1507813,13.7875 21.1507813,13.7875 21.1507813,13.7875 C21.1507813,13.7875 18.7085938,13.7875 18.7085938,13.7875 C18.7085938,13.7875 18.7085938,8.37578125 18.7085938,8.37578125 C18.7085938,7.2265625 18.4210938,6.17265625 17.8945313,5.21484375 C17.3195313,4.25703125 16.5539063,3.490625 15.5953125,2.915625 C15.5953125,2.915625 15.5953125,2.915625 15.5953125,2.915625 C15.5953125,2.915625 16.6007813,1.86171875 16.6007813,1.86171875 C16.696875,1.765625 16.7445313,1.6703125 16.7445313,1.5265625 C16.7445313,1.5265625 16.7445313,1.5265625 16.7445313,1.5265625 C16.7445313,1.19140625 16.6007813,1 16.265625,1 C16.265625,1 16.265625,1 16.265625,1 C16.2179688,1 16.121875,1.04765625 15.9304688,1.14375 C15.9304688,1.14375 15.9304688,1.14375 15.9304688,1.14375 C15.9304688,1.14375 14.6375,2.43671875 14.6375,2.43671875 C13.9671875,2.14921875 13.2007813,2.00546875 12.3382813,2.00546875 C12.3382813,2.00546875 12.3382813,2.00546875 12.3382813,2.00546875 C11.5242188,2.00546875 10.7101563,2.14921875 9.99140625,2.43671875 C9.99140625,2.43671875 9.99140625,2.43671875 9.99140625,2.43671875 C9.99140625,2.43671875 8.74609375,1.14375 8.74609375,1.14375 C8.5546875,1.04765625 8.45859375,1 8.4109375,1 C8.4109375,1 8.4109375,1 8.4109375,1 C8.07578125,1 7.93203125,1.19140625 7.93203125,1.5265625 C7.93203125,1.5265625 7.93203125,1.5265625 7.93203125,1.5265625 C7.93203125,1.6703125 7.9796875,1.76640625 8.07578125,1.86171875 C8.07578125,1.86171875 8.07578125,1.86171875 8.07578125,1.86171875 C8.07578125,1.86171875 9.08125,2.915625 9.08125,2.915625 C8.1234375,3.490625 7.35703125,4.25625 6.83046875,5.21484375 C6.25546875,6.17265625 5.96875,7.2265625 5.96875,8.37578125 C5.96875,8.37578125 5.96875,8.37578125 5.96875,8.37578125 C5.96875,8.37578125 5.96875,13.7875 5.96875,13.7875 C5.96875,13.7875 3.5265625,13.7875 3.5265625,13.7875 C3.19140625,13.7875 3,13.93125 3,14.2664063 C3,14.6015625 3.19140625,14.7453125 3.5265625,14.7453125 C3.5265625,14.7453125 3.5265625,14.7453125 3.5265625,14.7453125 C3.5265625,14.7453125 5.96875,14.7453125 5.96875,14.7453125 C5.96875,14.7453125 5.96875,17.1875 5.96875,17.1875 C5.96875,17.90625 6.1125,18.6242188 6.3515625,19.3429688 C6.3515625,19.3429688 6.3515625,19.3429688 6.3515625,19.3429688 C6.30390625,19.3429688 6.25546875,19.3429688 6.2078125,19.390625 C6.2078125,19.390625 6.2078125,19.390625 6.2078125,19.390625 C6.2078125,19.390625 4.1484375,21.45 4.1484375,21.45 C4.05234375,21.5460938 4.0046875,21.6414063 4.0046875,21.7851562 C4.0046875,21.7851562 4.0046875,21.7851562 4.0046875,21.7851562 C4.0046875,22.1203125 4.1484375,22.2640625 4.48359375,22.2640625 C4.48359375,22.2640625 4.48359375,22.2640625 4.48359375,22.2640625 C4.675,22.2640625 4.77109375,22.2164062 4.81875,22.1203125 C4.81875,22.1203125 4.81875,22.1203125 4.81875,22.1203125 C4.81875,22.1203125 6.734375,20.2523438 6.734375,20.2523438 C7.2609375,21.2578125 8.075,22.071875 9.08125,22.646875 C10.0867187,23.2695313 11.140625,23.5570313 12.3382813,23.5570313 C13.5359375,23.5570313 14.6375,23.2695313 15.6429688,22.646875 C16.6484375,22.071875 17.4148438,21.30625 17.9421875,20.3 C17.9421875,20.3 17.9421875,20.3 17.9421875,20.3 C17.9421875,20.3 19.8578125,22.1195313 19.8578125,22.1195313 C19.9054688,22.215625 20.0015625,22.2632813 20.1929688,22.2632813 C20.1929688,22.2632813 20.1929688,22.2632813 20.1929688,22.2632813 C20.528125,22.2632813 20.671875,22.1195313 20.671875,21.784375 C20.671875,21.784375 20.671875,21.784375 20.671875,21.784375 C20.671875,21.640625 20.6242188,21.5453125 20.528125,21.4492188 C20.528125,21.4492188 20.528125,21.4492188 20.528125,21.4492188 C20.528125,21.4492188 18.46875,19.3898438 18.46875,19.3898438 C18.46875,19.3898438 18.3726562,19.29375 18.3726562,19.29375 C18.6117188,18.575 18.7078125,17.8570313 18.7078125,17.1867188 C18.7078125,17.1867188 18.7078125,17.1867188 18.7078125,17.1867188 C18.7078125,17.1867188 18.7078125,14.7445313 18.7078125,14.7445313 C18.7078125,14.7445313 21.15,14.7445313 21.15,14.7445313 C21.4851562,14.7445313 21.6765625,14.6007813 21.6765625,14.265625 C21.6765625,13.9304688 21.4851562,13.7867188 21.15,13.7867188 L21.1507813,13.7875 Z M17.7507813,14.7453125 C17.7507813,14.7453125 17.7507813,17.1875 17.7507813,17.1875 C17.7507813,18.671875 17.2242188,19.965625 16.1703125,21.01875 C15.1164063,22.071875 13.8234375,22.5992188 12.3390625,22.5992188 C10.8546875,22.5992188 9.5609375,22.0726563 8.5078125,21.01875 C7.4546875,19.9648438 6.92734375,18.671875 6.92734375,17.1875 C6.92734375,17.1875 6.92734375,17.1875 6.92734375,17.1875 C6.92734375,17.1875 6.92734375,14.7453125 6.92734375,14.7453125 C6.92734375,14.7453125 11.8601563,14.7453125 11.8601563,14.7453125 C11.8601563,14.7453125 11.8601563,19.534375 11.8601563,19.534375 C11.8601563,19.8695313 12.0039063,20.0132812 12.3390625,20.0132812 C12.6742188,20.0132812 12.8179688,19.8695313 12.8179688,19.534375 C12.8179688,19.534375 12.8179688,19.534375 12.8179688,19.534375 C12.8179688,19.534375 12.8179688,14.7453125 12.8179688,14.7453125 C12.8179688,14.7453125 17.7507813,14.7453125 17.7507813,14.7453125 Z M17.7507813,11.8242188 C17.7507813,11.8242188 17.7507813,13.7875 17.7507813,13.7875 C17.7507813,13.7875 6.92734375,13.7875 6.92734375,13.7875 C6.92734375,13.7875 6.92734375,11.8242188 6.92734375,11.8242188 C6.92734375,11.8242188 17.7507813,11.8242188 17.7507813,11.8242188 Z M17.7507813,8.37578125 C17.7507813,8.37578125 17.7507813,10.8179688 17.7507813,10.8179688 C17.7507813,10.8179688 6.92734375,10.8179688 6.92734375,10.8179688 C6.92734375,10.8179688 6.92734375,8.37578125 6.92734375,8.37578125 C6.92734375,6.89140625 7.45390625,5.59765625 8.55546875,4.54453125 C9.609375,3.490625 10.8546875,2.9640625 12.3390625,2.9640625 C13.8234375,2.9640625 15.06875,3.490625 16.1703125,4.54453125 C17.2242188,5.5984375 17.7507813,6.89140625 17.7507813,8.37578125 C17.7507813,8.37578125 17.7507813,8.37578125 17.7507813,8.37578125 Z"/>
  <title>Bug</title>
</svg>