<svg xmlns="http://www.w3.org/2000/svg" viewBox="0 0 25 25" id="building-solid">
  <path d="M24.0421875,23.5570313 C24.0421875,23.5570313 24.0421875,23.5570313 24.0421875,23.5570313 C24.0421875,23.5570313 23.5632812,23.5570313 23.5632812,23.5570313 C23.5632812,23.5570313 23.5632812,10.8179688 23.5632812,10.8179688 C23.5632812,10.5789063 23.4671875,10.3390625 23.2757812,10.1476563 C23.0367187,9.95625 22.796875,9.86015625 22.5570312,9.86015625 C22.5570312,9.86015625 22.5570312,9.86015625 22.5570312,9.86015625 C22.5570312,9.86015625 21.5992187,9.86015625 21.5992187,9.86015625 C21.5992187,9.86015625 21.5992187,9.38125 21.5992187,9.38125 C21.5992187,9.04609375 21.4078125,8.8546875 21.0726562,8.8546875 C21.0726562,8.8546875 21.0726562,8.8546875 21.0726562,8.8546875 C20.7375,8.8546875 20.59375,9.04609375 20.59375,9.38125 C20.59375,9.38125 20.59375,9.38125 20.59375,9.38125 C20.59375,9.38125 20.59375,9.86015625 20.59375,9.86015625 C20.59375,9.86015625 19.6359375,9.86015625 19.6359375,9.86015625 C19.3484375,9.86015625 19.109375,9.95625 18.9171875,10.1476563 C18.725,10.3390625 18.6296875,10.5789062 18.6296875,10.8179688 C18.6296875,10.8179688 18.6296875,10.8179688 18.6296875,10.8179688 C18.6296875,10.8179688 18.6296875,23.5570313 18.6296875,23.5570313 C18.6296875,23.5570313 16.6664062,23.5570313 16.6664062,23.5570313 C16.6664062,23.5570313 16.6664062,4.9265625 16.6664062,4.9265625 C16.6664062,4.6875 16.5703125,4.44765625 16.3789062,4.25625 C16.1875,4.06484375 15.9476562,3.96875 15.7085937,3.96875 C15.7085937,3.96875 15.7085937,3.96875 15.7085937,3.96875 C15.7085937,3.96875 12.7390625,3.96875 12.7390625,3.96875 C12.7390625,3.96875 12.7390625,1.5265625 12.7390625,1.5265625 C12.7390625,1.19140625 12.5953125,1 12.2601562,1 C11.925,1 11.78125,1.19140625 11.78125,1.5265625 C11.78125,1.5265625 11.78125,1.5265625 11.78125,1.5265625 C11.78125,1.5265625 11.78125,3.96875 11.78125,3.96875 C11.78125,3.96875 8.81171875,3.96875 8.81171875,3.96875 C8.57265625,3.96875 8.3328125,4.06484375 8.14140625,4.25625 C7.95,4.44765625 7.85390625,4.6875 7.85390625,4.9265625 C7.85390625,4.9265625 7.85390625,4.9265625 7.85390625,4.9265625 C7.85390625,4.9265625 7.85390625,23.5570313 7.85390625,23.5570313 C7.85390625,23.5570313 5.890625,23.5570313 5.890625,23.5570313 C5.890625,23.5570313 5.890625,10.8179688 5.890625,10.8179688 C5.890625,10.5789063 5.79453125,10.3390625 5.603125,10.1476563 C5.41171875,9.95625 5.171875,9.86015625 4.884375,9.86015625 C4.884375,9.86015625 4.884375,9.86015625 4.884375,9.86015625 C4.884375,9.86015625 3.9265625,9.86015625 3.9265625,9.86015625 C3.9265625,9.86015625 3.9265625,9.38125 3.9265625,9.38125 C3.9265625,9.04609375 3.7828125,8.8546875 3.44765625,8.8546875 C3.44765625,8.8546875 3.44765625,8.8546875 3.44765625,8.8546875 C3.1125,8.8546875 2.92109375,9.04609375 2.92109375,9.38125 C2.92109375,9.38125 2.92109375,9.38125 2.92109375,9.38125 C2.92109375,9.38125 2.92109375,9.86015625 2.92109375,9.86015625 C2.92109375,9.86015625 1.96328125,9.86015625 1.96328125,9.86015625 C1.72421875,9.86015625 1.484375,9.95625 1.29296875,10.1476563 C1.05390625,10.3390625 0.9578125,10.5789062 0.9578125,10.8179688 C0.9578125,10.8179688 0.9578125,10.8179688 0.9578125,10.8179688 C0.9578125,10.8179688 0.9578125,23.5570313 0.9578125,23.5570313 C0.9578125,23.5570313 0.47890625,23.5570313 0.47890625,23.5570313 C0.14375,23.5570313 0,23.7484375 0,24.0835938 C0,24.0835938 0,24.0835938 0,24.0835938 C0,24.41875 0.14375,24.5625 0.47890625,24.5625 C0.47890625,24.5625 0.47890625,24.5625 0.47890625,24.5625 C0.47890625,24.5625 24.0421875,24.5625 24.0421875,24.5625 C24.3773438,24.5625 24.5210937,24.41875 24.5210937,24.0835938 C24.5210937,24.0835938 24.5210937,24.0835938 24.5210937,24.0835938 C24.5210937,23.7484375 24.3773438,23.5570313 24.0421875,23.5570313 L24.0421875,23.5570313 Z M3.92734375,20.6351563 C3.92734375,20.6351563 3.92734375,21.640625 3.92734375,21.640625 C3.92734375,21.640625 2.921875,21.640625 2.921875,21.640625 C2.921875,21.640625 2.921875,20.6351563 2.921875,20.6351563 C2.921875,20.6351563 3.92734375,20.6351563 3.92734375,20.6351563 Z M3.92734375,17.7140625 C3.92734375,17.7140625 3.92734375,18.671875 3.92734375,18.671875 C3.92734375,18.671875 2.921875,18.671875 2.921875,18.671875 C2.921875,18.671875 2.921875,17.7140625 2.921875,17.7140625 C2.921875,17.7140625 3.92734375,17.7140625 3.92734375,17.7140625 Z M3.92734375,14.7445312 C3.92734375,14.7445312 3.92734375,15.75 3.92734375,15.75 C3.92734375,15.75 2.921875,15.75 2.921875,15.75 C2.921875,15.75 2.921875,14.7445312 2.921875,14.7445312 C2.921875,14.7445312 3.92734375,14.7445312 3.92734375,14.7445312 Z M3.92734375,11.8234375 C3.92734375,11.8234375 3.92734375,12.78125 3.92734375,12.78125 C3.92734375,12.78125 2.921875,12.78125 2.921875,12.78125 C2.921875,12.78125 2.921875,11.8234375 2.921875,11.8234375 C2.921875,11.8234375 3.92734375,11.8234375 3.92734375,11.8234375 L3.92734375,11.8234375 Z M14.2242187,19.6773437 C14.2242187,19.6773437 14.2242187,19.6773437 14.2242187,19.6773437 C14.2242187,19.6773437 10.296875,19.6773437 10.296875,19.6773437 C9.96171875,19.6773437 9.81796875,19.4859375 9.81796875,19.1507812 C9.81796875,19.1507812 9.81796875,19.1507812 9.81796875,19.1507812 C9.81796875,18.815625 9.96171875,18.671875 10.296875,18.671875 C10.296875,18.671875 10.296875,18.671875 10.296875,18.671875 C10.296875,18.671875 14.2242187,18.671875 14.2242187,18.671875 C14.559375,18.671875 14.703125,18.815625 14.703125,19.1507812 C14.703125,19.1507812 14.703125,19.1507812 14.703125,19.1507812 C14.703125,19.4859375 14.559375,19.6773437 14.2242187,19.6773437 Z M14.2242187,16.7078125 C14.2242187,16.7078125 14.2242187,16.7078125 14.2242187,16.7078125 C14.2242187,16.7078125 10.296875,16.7078125 10.296875,16.7078125 C9.96171875,16.7078125 9.81796875,16.5640625 9.81796875,16.2289063 C9.81796875,15.89375 9.96171875,15.75 10.296875,15.75 C10.296875,15.75 10.296875,15.75 10.296875,15.75 C10.296875,15.75 14.2242187,15.75 14.2242187,15.75 C14.559375,15.75 14.703125,15.89375 14.703125,16.2289063 C14.703125,16.5640625 14.559375,16.7078125 14.2242187,16.7078125 Z M14.2242187,13.7867187 C14.2242187,13.7867187 14.2242187,13.7867187 14.2242187,13.7867187 C14.2242187,13.7867187 10.296875,13.7867187 10.296875,13.7867187 C9.96171875,13.7867187 9.81796875,13.5953125 9.81796875,13.2601562 C9.81796875,13.2601562 9.81796875,13.2601562 9.81796875,13.2601562 C9.81796875,12.925 9.96171875,12.78125 10.296875,12.78125 C10.296875,12.78125 10.296875,12.78125 10.296875,12.78125 C10.296875,12.78125 14.2242187,12.78125 14.2242187,12.78125 C14.559375,12.78125 14.703125,12.925 14.703125,13.2601562 C14.703125,13.2601562 14.703125,13.2601562 14.703125,13.2601562 C14.703125,13.5953125 14.559375,13.7867187 14.2242187,13.7867187 Z M14.2242187,10.8171875 C14.2242187,10.8171875 14.2242187,10.8171875 14.2242187,10.8171875 C14.2242187,10.8171875 10.296875,10.8171875 10.296875,10.8171875 C9.96171875,10.8171875 9.81796875,10.6734375 9.81796875,10.3382812 C9.81796875,10.003125 9.96171875,9.859375 10.296875,9.859375 C10.296875,9.859375 10.296875,9.859375 10.296875,9.859375 C10.296875,9.859375 14.2242187,9.859375 14.2242187,9.859375 C14.559375,9.859375 14.703125,10.003125 14.703125,10.3382812 C14.703125,10.6734375 14.559375,10.8171875 14.2242187,10.8171875 Z M14.2242187,7.89609375 C14.2242187,7.89609375 14.2242187,7.89609375 14.2242187,7.89609375 C14.2242187,7.89609375 10.296875,7.89609375 10.296875,7.89609375 C9.96171875,7.89609375 9.81796875,7.75234375 9.81796875,7.4171875 C9.81796875,7.4171875 9.81796875,7.4171875 9.81796875,7.4171875 C9.81796875,7.08203125 9.96171875,6.890625 10.296875,6.890625 C10.296875,6.890625 10.296875,6.890625 10.296875,6.890625 C10.296875,6.890625 14.2242187,6.890625 14.2242187,6.890625 C14.559375,6.890625 14.703125,7.08203125 14.703125,7.4171875 C14.703125,7.4171875 14.703125,7.4171875 14.703125,7.4171875 C14.703125,7.75234375 14.559375,7.89609375 14.2242187,7.89609375 Z M21.6,20.6351563 C21.6,20.6351563 21.6,21.640625 21.6,21.640625 C21.6,21.640625 20.5945312,21.640625 20.5945312,21.640625 C20.5945312,21.640625 20.5945312,20.6351563 20.5945312,20.6351563 C20.5945312,20.6351563 21.6,20.6351563 21.6,20.6351563 Z M21.6,17.7140625 C21.6,17.7140625 21.6,18.671875 21.6,18.671875 C21.6,18.671875 20.5945312,18.671875 20.5945312,18.671875 C20.5945312,18.671875 20.5945312,17.7140625 20.5945312,17.7140625 C20.5945312,17.7140625 21.6,17.7140625 21.6,17.7140625 Z M21.6,14.7445312 C21.6,14.7445312 21.6,15.75 21.6,15.75 C21.6,15.75 20.5945312,15.75 20.5945312,15.75 C20.5945312,15.75 20.5945312,14.7445312 20.5945312,14.7445312 C20.5945312,14.7445312 21.6,14.7445312 21.6,14.7445312 Z M21.6,11.8234375 C21.6,11.8234375 21.6,12.78125 21.6,12.78125 C21.6,12.78125 20.5945312,12.78125 20.5945312,12.78125 C20.5945312,12.78125 20.5945312,11.8234375 20.5945312,11.8234375 C20.5945312,11.8234375 21.6,11.8234375 21.6,11.8234375 L21.6,11.8234375 Z"/>
  <title>Building Solid</title>
</svg>