<svg xmlns="http://www.w3.org/2000/svg" viewBox="0 0 25 25" id="building-3-solid">
  <path d="M22.115625,23.515625 C22.115625,23.515625 22.115625,23.515625 22.115625,23.515625 C22.115625,23.515625 20.63125,23.515625 20.63125,23.515625 C20.63125,23.515625 20.63125,1.48515625 20.63125,1.48515625 C20.63125,1.05390625 20.4875,0.71875 20.2,0.43125 C19.9125,0.14375 19.5773438,0 19.1460938,0 C19.1460938,0 19.1460938,0 19.1460938,0 C19.1460938,0 5.4484375,0 5.4484375,0 C5.0171875,0 4.68203125,0.14375 4.39453125,0.43125 C4.10703125,0.71875 3.96328125,1.05390625 3.96328125,1.48515625 C3.96328125,1.48515625 3.96328125,1.48515625 3.96328125,1.48515625 C3.96328125,1.48515625 3.96328125,23.515625 3.96328125,23.515625 C3.96328125,23.515625 2.47890625,23.515625 2.47890625,23.515625 C2.14375,23.515625 2,23.7070312 2,24.0421875 C2,24.0421875 2,24.0421875 2,24.0421875 C2,24.3773437 2.14375,24.5210937 2.47890625,24.5210937 C2.47890625,24.5210937 2.47890625,24.5210937 2.47890625,24.5210937 C2.47890625,24.5210937 22.1148437,24.5210937 22.1148437,24.5210937 C22.45,24.5210937 22.59375,24.3773437 22.59375,24.0421875 C22.59375,24.0421875 22.59375,24.0421875 22.59375,24.0421875 C22.59375,23.7070312 22.45,23.515625 22.1148437,23.515625 L22.115625,23.515625 Z M15.7453125,16.6664063 C15.7453125,16.6664063 15.7453125,23.5148438 15.7453125,23.5148438 C15.7453125,23.5148438 8.8484375,23.5148438 8.8484375,23.5148438 C8.8484375,23.5148438 8.8484375,16.6664063 8.8484375,16.6664063 C8.8484375,16.4273438 8.94453125,16.1875 9.1359375,15.9960938 C9.32734375,15.8046875 9.5671875,15.7085938 9.8546875,15.7085938 C9.8546875,15.7085938 9.8546875,15.7085938 9.8546875,15.7085938 C9.8546875,15.7085938 14.7398438,15.7085938 14.7398438,15.7085938 C15.0273438,15.7085938 15.2664063,15.8046875 15.4585938,15.9960938 C15.6507813,16.1875 15.7460938,16.4273438 15.7460938,16.6664063 C15.7460938,16.6664063 15.7460938,16.6664063 15.7460938,16.6664063 L15.7453125,16.6664063 Z M16.703125,10.296875 C16.703125,10.296875 16.703125,12.2601562 16.703125,12.2601562 C16.703125,12.5953125 16.559375,12.7390625 16.2242187,12.7390625 C16.2242187,12.7390625 16.2242187,12.7390625 16.2242187,12.7390625 C16.2242187,12.7390625 8.36953125,12.7390625 8.36953125,12.7390625 C8.034375,12.7390625 7.890625,12.5953125 7.890625,12.2601562 C7.890625,12.2601562 7.890625,12.2601562 7.890625,12.2601562 C7.890625,12.2601562 7.890625,10.296875 7.890625,10.296875 C7.890625,9.96171875 8.034375,9.81796875 8.36953125,9.81796875 C8.36953125,9.81796875 8.36953125,9.81796875 8.36953125,9.81796875 C8.36953125,9.81796875 16.2242187,9.81796875 16.2242187,9.81796875 C16.559375,9.81796875 16.703125,9.96171875 16.703125,10.296875 C16.703125,10.296875 16.703125,10.296875 16.703125,10.296875 L16.703125,10.296875 Z M16.703125,4.40625 C16.703125,4.40625 16.703125,6.36953125 16.703125,6.36953125 C16.703125,6.7046875 16.559375,6.8484375 16.2242187,6.8484375 C16.2242187,6.8484375 16.2242187,6.8484375 16.2242187,6.8484375 C16.2242187,6.8484375 8.36953125,6.8484375 8.36953125,6.8484375 C8.034375,6.8484375 7.890625,6.7046875 7.890625,6.36953125 C7.890625,6.36953125 7.890625,6.36953125 7.890625,6.36953125 C7.890625,6.36953125 7.890625,4.40625 7.890625,4.40625 C7.890625,4.07109375 8.034375,3.92734375 8.36953125,3.92734375 C8.36953125,3.92734375 8.36953125,3.92734375 8.36953125,3.92734375 C8.36953125,3.92734375 16.2242187,3.92734375 16.2242187,3.92734375 C16.559375,3.92734375 16.703125,4.07109375 16.703125,4.40625 C16.703125,4.40625 16.703125,4.40625 16.703125,4.40625 Z"/>
  <title>Building 3 Solid</title>
</svg>