<svg xmlns="http://www.w3.org/2000/svg" viewBox="0 0 25 25" id="building-2">
  <path d="M10.296875,11.7820312 C10.6320313,11.7820312 10.7757813,11.9257812 10.7757813,12.2609375 C10.7757813,12.5960938 10.6320313,12.7398438 10.296875,12.7398438 C10.296875,12.7398438 10.296875,12.7398438 10.296875,12.7398438 C10.296875,12.7398438 6.36953125,12.7398438 6.36953125,12.7398438 C6.034375,12.7398438 5.890625,12.5960938 5.890625,12.2609375 C5.890625,11.9257813 6.034375,11.7820312 6.36953125,11.7820312 C6.36953125,11.7820312 6.36953125,11.7820312 6.36953125,11.7820312 C6.36953125,11.7820312 10.296875,11.7820312 10.296875,11.7820312 L10.296875,11.7820312 Z M10.296875,7.8546875 C10.296875,7.8546875 10.296875,7.8546875 10.296875,7.8546875 C10.296875,7.8546875 6.36953125,7.8546875 6.36953125,7.8546875 C6.034375,7.8546875 5.890625,7.9984375 5.890625,8.33359375 C5.890625,8.66875 6.034375,8.8125 6.36953125,8.8125 C6.36953125,8.8125 6.36953125,8.8125 6.36953125,8.8125 C6.36953125,8.8125 10.296875,8.8125 10.296875,8.8125 C10.6320313,8.8125 10.7757813,8.66875 10.7757813,8.33359375 C10.7757813,7.9984375 10.6320313,7.8546875 10.296875,7.8546875 L10.296875,7.8546875 Z M19.109375,16.6664063 C19.109375,16.6664063 19.109375,16.6664063 19.109375,16.6664063 C19.109375,16.6664063 17.1460937,16.6664063 17.1460937,16.6664063 C16.8109375,16.6664063 16.6671875,16.8101563 16.6671875,17.1453125 C16.6671875,17.1453125 16.6671875,17.1453125 16.6671875,17.1453125 C16.6671875,17.4804688 16.8109375,17.671875 17.1460937,17.671875 C17.1460937,17.671875 17.1460937,17.671875 17.1460937,17.671875 C17.1460937,17.671875 19.109375,17.671875 19.109375,17.671875 C19.4445312,17.671875 19.6359375,17.4804688 19.6359375,17.1453125 C19.6359375,17.1453125 19.6359375,17.1453125 19.6359375,17.1453125 C19.6359375,16.8101563 19.4445312,16.6664063 19.109375,16.6664063 Z M19.109375,20.59375 C19.109375,20.59375 19.109375,20.59375 19.109375,20.59375 C19.109375,20.59375 17.1460937,20.59375 17.1460937,20.59375 C16.8109375,20.59375 16.6671875,20.7375 16.6671875,21.0726562 C16.6671875,21.0726562 16.6671875,21.0726562 16.6671875,21.0726562 C16.6671875,21.4078125 16.8109375,21.5992187 17.1460937,21.5992187 C17.1460937,21.5992187 17.1460937,21.5992187 17.1460937,21.5992187 C17.1460937,21.5992187 19.109375,21.5992187 19.109375,21.5992187 C19.4445312,21.5992187 19.6359375,21.4078125 19.6359375,21.0726562 C19.6359375,21.0726562 19.6359375,21.0726562 19.6359375,21.0726562 C19.6359375,20.7375 19.4445312,20.59375 19.109375,20.59375 Z M19.109375,12.7398438 C19.109375,12.7398438 19.109375,12.7398438 19.109375,12.7398438 C19.109375,12.7398438 17.1460937,12.7398438 17.1460937,12.7398438 C16.8109375,12.7398438 16.6671875,12.8835938 16.6671875,13.21875 C16.6671875,13.21875 16.6671875,13.21875 16.6671875,13.21875 C16.6671875,13.5539062 16.8109375,13.7453125 17.1460937,13.7453125 C17.1460937,13.7453125 17.1460937,13.7453125 17.1460937,13.7453125 C17.1460937,13.7453125 19.109375,13.7453125 19.109375,13.7453125 C19.4445312,13.7453125 19.6359375,13.5539062 19.6359375,13.21875 C19.6359375,13.21875 19.6359375,13.21875 19.6359375,13.21875 C19.6359375,12.8835938 19.4445312,12.7398438 19.109375,12.7398438 Z M10.296875,3.92734375 C10.296875,3.92734375 10.296875,3.92734375 10.296875,3.92734375 C10.296875,3.92734375 6.36953125,3.92734375 6.36953125,3.92734375 C6.034375,3.92734375 5.890625,4.07109375 5.890625,4.40625 C5.890625,4.74140625 6.034375,4.88515625 6.36953125,4.88515625 C6.36953125,4.88515625 6.36953125,4.88515625 6.36953125,4.88515625 C6.36953125,4.88515625 10.296875,4.88515625 10.296875,4.88515625 C10.6320313,4.88515625 10.7757813,4.74140625 10.7757813,4.40625 C10.7757813,4.07109375 10.6320313,3.92734375 10.296875,3.92734375 L10.296875,3.92734375 Z M24.5210938,24.0421875 C24.5210938,24.0421875 24.5210938,24.0421875 24.5210938,24.0421875 C24.5210938,24.3773437 24.3773438,24.5210937 24.0421875,24.5210937 C24.0421875,24.5210937 24.0421875,24.5210937 24.0421875,24.5210937 C24.0421875,24.5210937 0.47890625,24.5210937 0.47890625,24.5210937 C0.14375,24.5210937 0,24.3773437 0,24.0421875 C0,24.0421875 0,24.0421875 0,24.0421875 C0,23.7070312 0.14375,23.515625 0.47890625,23.515625 C0.47890625,23.515625 0.47890625,23.515625 0.47890625,23.515625 C0.47890625,23.515625 1.96328125,23.515625 1.96328125,23.515625 C1.96328125,23.515625 1.96328125,1.48515625 1.96328125,1.48515625 C1.96328125,1.05390625 2.10703125,0.71875 2.39453125,0.43125 C2.68203125,0.14375 3.0171875,0 3.4484375,0 C3.4484375,0 3.4484375,0 3.4484375,0 C3.4484375,0 13.21875,0 13.21875,0 C13.65,0 13.9851563,0.14375 14.2726563,0.43125 C14.5601563,0.71875 14.7039063,1.05390625 14.7039063,1.48515625 C14.7039063,1.48515625 14.7039063,1.48515625 14.7039063,1.48515625 C14.7039063,1.48515625 14.7039063,8.8125 14.7039063,8.8125 C14.7039063,8.8125 21.0734375,8.8125 21.0734375,8.8125 C21.5046875,8.8125 21.8398438,8.95625 22.1273438,9.24375 C22.4148438,9.53125 22.5585938,9.86640625 22.5585938,10.2976562 C22.5585938,10.2976562 22.5585938,10.2976562 22.5585938,10.2976562 C22.5585938,10.2976562 22.5585938,23.5164062 22.5585938,23.5164062 C22.5585938,23.5164062 24.0429688,23.5164062 24.0429688,23.5164062 C24.378125,23.5164062 24.521875,23.7078125 24.521875,24.0429687 L24.5210938,24.0421875 Z M10.7757813,23.515625 C10.7757813,23.515625 10.7757813,16.6671875 10.7757813,16.6671875 C10.7757813,16.6671875 5.890625,16.6671875 5.890625,16.6671875 C5.890625,16.6671875 5.890625,23.515625 5.890625,23.515625 C5.890625,23.515625 10.7757813,23.515625 10.7757813,23.515625 Z M13.7453125,23.515625 C13.7453125,23.515625 13.7453125,1.48515625 13.7453125,1.48515625 C13.7453125,1.15 13.5539063,0.95859375 13.21875,0.95859375 C13.21875,0.95859375 13.21875,0.95859375 13.21875,0.95859375 C13.21875,0.95859375 3.4484375,0.95859375 3.4484375,0.95859375 C3.11328125,0.95859375 2.921875,1.15 2.921875,1.48515625 C2.921875,1.48515625 2.921875,1.48515625 2.921875,1.48515625 C2.921875,1.48515625 2.921875,23.515625 2.921875,23.515625 C2.921875,23.515625 4.88515625,23.515625 4.88515625,23.515625 C4.88515625,23.515625 4.88515625,16.6671875 4.88515625,16.6671875 C4.88515625,16.428125 4.98125,16.1882813 5.2203125,15.996875 C5.41171875,15.8054688 5.6515625,15.709375 5.890625,15.709375 C5.890625,15.709375 5.890625,15.709375 5.890625,15.709375 C5.890625,15.709375 10.7757813,15.709375 10.7757813,15.709375 C11.0632813,15.709375 11.3023438,15.8054688 11.4945313,15.996875 C11.6867188,16.1882813 11.7820313,16.428125 11.7820313,16.6671875 C11.7820313,16.6671875 11.7820313,16.6671875 11.7820313,16.6671875 C11.7820313,16.6671875 11.7820313,23.515625 11.7820313,23.515625 C11.7820313,23.515625 13.7453125,23.515625 13.7453125,23.515625 Z M21.6,23.515625 C21.6,23.515625 21.6,10.296875 21.6,10.296875 C21.6,9.96171875 21.4085938,9.81796875 21.0734375,9.81796875 C21.0734375,9.81796875 21.0734375,9.81796875 21.0734375,9.81796875 C21.0734375,9.81796875 14.7039062,9.81796875 14.7039062,9.81796875 C14.7039062,9.81796875 14.7039062,23.515625 14.7039062,23.515625 C14.7039062,23.515625 21.6007812,23.515625 21.6007812,23.515625 L21.6,23.515625 Z"/>
  <title>Building 2</title>
</svg>