<svg xmlns="http://www.w3.org/2000/svg" viewBox="0 0 25 25" id="building-2-solid">
  <path d="M24.0429687,23.5164063 C24.0429687,23.5164063 24.0429687,23.5164063 24.0429687,23.5164063 C24.0429687,23.5164063 22.5585937,23.5164063 22.5585937,23.5164063 C22.5585937,23.5164063 22.5585937,10.2976562 22.5585937,10.2976562 C22.5585937,9.86640625 22.4148437,9.53125 22.1273437,9.24375 C21.8398438,8.95625 21.5046875,8.8125 21.0734375,8.8125 C21.0734375,8.8125 21.0734375,8.8125 21.0734375,8.8125 C21.0734375,8.8125 15.709375,8.8125 15.709375,8.8125 C15.709375,8.8125 15.709375,23.515625 15.709375,23.515625 C15.709375,23.515625 14.7039062,23.515625 14.7039062,23.515625 C14.7039062,23.515625 14.7039062,1.48515625 14.7039062,1.48515625 C14.7039062,1.05390625 14.5601562,0.71875 14.2726562,0.43125 C13.9851563,0.14375 13.65,0 13.21875,0 C13.21875,0 13.21875,0 13.21875,0 C13.21875,0 3.4484375,0 3.4484375,0 C3.0171875,0 2.68203125,0.14375 2.39453125,0.43125 C2.10703125,0.71875 1.96328125,1.05390625 1.96328125,1.48515625 C1.96328125,1.48515625 1.96328125,1.48515625 1.96328125,1.48515625 C1.96328125,1.48515625 1.96328125,23.515625 1.96328125,23.515625 C1.96328125,23.515625 0.47890625,23.515625 0.47890625,23.515625 C0.14375,23.515625 0,23.7070312 0,24.0421875 C0,24.0421875 0,24.0421875 0,24.0421875 C0,24.3773437 0.14375,24.5210937 0.47890625,24.5210937 C0.47890625,24.5210937 0.47890625,24.5210937 0.47890625,24.5210937 C0.47890625,24.5210937 24.0421875,24.5210937 24.0421875,24.5210937 C24.3773438,24.5210937 24.5210937,24.3773437 24.5210937,24.0421875 C24.5210937,24.0421875 24.5210937,24.0421875 24.5210937,24.0421875 C24.5210937,23.7070312 24.3773438,23.515625 24.0421875,23.515625 L24.0429687,23.5164063 Z M6.3703125,3.928125 C6.3703125,3.928125 6.3703125,3.928125 6.3703125,3.928125 C6.3703125,3.928125 10.2976562,3.928125 10.2976562,3.928125 C10.6328125,3.928125 10.7765625,4.071875 10.7765625,4.40703125 C10.7765625,4.7421875 10.6328125,4.8859375 10.2976562,4.8859375 C10.2976562,4.8859375 10.2976562,4.8859375 10.2976562,4.8859375 C10.2976562,4.8859375 6.3703125,4.8859375 6.3703125,4.8859375 C6.03515625,4.8859375 5.89140625,4.7421875 5.89140625,4.40703125 C5.89140625,4.071875 6.03515625,3.928125 6.3703125,3.928125 L6.3703125,3.928125 Z M6.3703125,7.85546875 C6.3703125,7.85546875 6.3703125,7.85546875 6.3703125,7.85546875 C6.3703125,7.85546875 10.2976562,7.85546875 10.2976562,7.85546875 C10.6328125,7.85546875 10.7765625,7.99921875 10.7765625,8.334375 C10.7765625,8.66953125 10.6328125,8.81328125 10.2976562,8.81328125 C10.2976562,8.81328125 10.2976562,8.81328125 10.2976562,8.81328125 C10.2976562,8.81328125 6.3703125,8.81328125 6.3703125,8.81328125 C6.03515625,8.81328125 5.89140625,8.66953125 5.89140625,8.334375 C5.89140625,7.99921875 6.03515625,7.85546875 6.3703125,7.85546875 L6.3703125,7.85546875 Z M6.3703125,11.7828125 C6.3703125,11.7828125 6.3703125,11.7828125 6.3703125,11.7828125 C6.3703125,11.7828125 10.2976562,11.7828125 10.2976562,11.7828125 C10.6328125,11.7828125 10.7765625,11.9265625 10.7765625,12.2617188 C10.7765625,12.596875 10.6328125,12.740625 10.2976562,12.740625 C10.2976562,12.740625 10.2976562,12.740625 10.2976562,12.740625 C10.2976562,12.740625 6.3703125,12.740625 6.3703125,12.740625 C6.03515625,12.740625 5.89140625,12.596875 5.89140625,12.2617188 C5.89140625,11.9265625 6.03515625,11.7828125 6.3703125,11.7828125 L6.3703125,11.7828125 Z M11.7820312,16.6671875 C11.7820312,16.6671875 11.7820312,23.515625 11.7820312,23.515625 C11.7820312,23.515625 4.88515625,23.515625 4.88515625,23.515625 C4.88515625,23.515625 4.88515625,16.6671875 4.88515625,16.6671875 C4.88515625,16.428125 4.98125,16.1882813 5.2203125,15.996875 C5.41171875,15.8054688 5.6515625,15.709375 5.890625,15.709375 C5.890625,15.709375 5.890625,15.709375 5.890625,15.709375 C5.890625,15.709375 10.7757812,15.709375 10.7757812,15.709375 C11.0632812,15.709375 11.3023437,15.8054688 11.4945312,15.996875 C11.6867187,16.1882813 11.7820312,16.428125 11.7820312,16.6671875 C11.7820312,16.6671875 11.7820312,16.6671875 11.7820312,16.6671875 L11.7820312,16.6671875 Z M20.115625,21.6007812 C20.115625,21.6007812 20.115625,21.6007812 20.115625,21.6007812 C20.115625,21.6007812 18.1523437,21.6007812 18.1523437,21.6007812 C17.8171875,21.6007812 17.6734375,21.409375 17.6734375,21.0742187 C17.6734375,21.0742187 17.6734375,21.0742187 17.6734375,21.0742187 C17.6734375,20.7390625 17.8171875,20.5953125 18.1523437,20.5953125 C18.1523437,20.5953125 18.1523437,20.5953125 18.1523437,20.5953125 C18.1523437,20.5953125 20.115625,20.5953125 20.115625,20.5953125 C20.4507812,20.5953125 20.5945312,20.7390625 20.5945312,21.0742187 C20.5945312,21.0742187 20.5945312,21.0742187 20.5945312,21.0742187 C20.5945312,21.409375 20.4507812,21.6007812 20.115625,21.6007812 Z M20.115625,17.6734375 C20.115625,17.6734375 20.115625,17.6734375 20.115625,17.6734375 C20.115625,17.6734375 18.1523437,17.6734375 18.1523437,17.6734375 C17.8171875,17.6734375 17.6734375,17.4820312 17.6734375,17.146875 C17.6734375,17.146875 17.6734375,17.146875 17.6734375,17.146875 C17.6734375,16.8117188 17.8171875,16.6679688 18.1523437,16.6679688 C18.1523437,16.6679688 18.1523437,16.6679688 18.1523437,16.6679688 C18.1523437,16.6679688 20.115625,16.6679688 20.115625,16.6679688 C20.4507812,16.6679688 20.5945312,16.8117188 20.5945312,17.146875 C20.5945312,17.146875 20.5945312,17.146875 20.5945312,17.146875 C20.5945312,17.4820312 20.4507812,17.6734375 20.115625,17.6734375 Z M20.115625,13.7460938 C20.115625,13.7460938 20.115625,13.7460938 20.115625,13.7460938 C20.115625,13.7460938 18.1523437,13.7460938 18.1523437,13.7460938 C17.8171875,13.7460938 17.6734375,13.5546875 17.6734375,13.2195312 C17.6734375,13.2195312 17.6734375,13.2195312 17.6734375,13.2195312 C17.6734375,12.884375 17.8171875,12.740625 18.1523437,12.740625 C18.1523437,12.740625 18.1523437,12.740625 18.1523437,12.740625 C18.1523437,12.740625 20.115625,12.740625 20.115625,12.740625 C20.4507812,12.740625 20.5945312,12.884375 20.5945312,13.2195312 C20.5945312,13.2195312 20.5945312,13.2195312 20.5945312,13.2195312 C20.5945312,13.5546875 20.4507812,13.7460938 20.115625,13.7460938 Z"/>
  <title>Building 2 Solid</title>
</svg>