<svg xmlns="http://www.w3.org/2000/svg" viewBox="0 0 25 25" id="building">
  <path d="M24.0429687,23.5578125 C24.0429687,23.5578125 24.0429687,23.5578125 24.0429687,23.5578125 C24.0429687,23.5578125 23.5640625,23.5578125 23.5640625,23.5578125 C23.5640625,23.5578125 23.5640625,10.81875 23.5640625,10.81875 C23.5640625,10.53125 23.4679687,10.2921875 23.2765625,10.1 C23.0375,9.90859375 22.7976562,9.8125 22.5578125,9.8125 C22.5578125,9.8125 22.5578125,9.8125 22.5578125,9.8125 C22.5578125,9.8125 21.6,9.8125 21.6,9.8125 C21.6,9.8125 21.6,9.33359375 21.6,9.33359375 C21.6,8.9984375 21.4085937,8.8546875 21.0734375,8.8546875 C21.0734375,8.8546875 21.0734375,8.8546875 21.0734375,8.8546875 C20.7382812,8.8546875 20.5945312,8.9984375 20.5945312,9.33359375 C20.5945312,9.33359375 20.5945312,9.33359375 20.5945312,9.33359375 C20.5945312,9.33359375 20.5945312,9.8125 20.5945312,9.8125 C20.5945312,9.8125 19.6367188,9.8125 19.6367188,9.8125 C19.3492188,9.8125 19.1101562,9.90859375 18.9179688,10.1 C18.7257812,10.2914062 18.6304687,10.53125 18.6304687,10.81875 C18.6304687,10.81875 18.6304687,10.81875 18.6304687,10.81875 C18.6304687,10.81875 18.6304687,23.5578125 18.6304687,23.5578125 C18.6304687,23.5578125 16.6671875,23.5578125 16.6671875,23.5578125 C16.6671875,23.5578125 16.6671875,4.92734375 16.6671875,4.92734375 C16.6671875,4.68828125 16.5710937,4.4484375 16.3796875,4.20859375 C16.1882813,4.0171875 15.9484375,3.92109375 15.709375,3.92109375 C15.709375,3.92109375 15.709375,3.92109375 15.709375,3.92109375 C15.709375,3.92109375 12.7398438,3.92109375 12.7398438,3.92109375 C12.7398438,3.92109375 12.7398438,1.47890625 12.7398438,1.47890625 C12.7398438,1.14375 12.5960938,1 12.2609375,1 C11.9257813,1 11.7820313,1.14375 11.7820313,1.47890625 C11.7820313,1.47890625 11.7820313,1.47890625 11.7820313,1.47890625 C11.7820313,1.47890625 11.7820313,3.92109375 11.7820313,3.92109375 C11.7820313,3.92109375 8.8125,3.92109375 8.8125,3.92109375 C8.5734375,3.92109375 8.33359375,4.0171875 8.1421875,4.20859375 C7.95078125,4.44765625 7.8546875,4.6875 7.8546875,4.92734375 C7.8546875,4.92734375 7.8546875,4.92734375 7.8546875,4.92734375 C7.8546875,4.92734375 7.8546875,23.5578125 7.8546875,23.5578125 C7.8546875,23.5578125 5.89140625,23.5578125 5.89140625,23.5578125 C5.89140625,23.5578125 5.89140625,10.81875 5.89140625,10.81875 C5.89140625,10.53125 5.7953125,10.2921875 5.60390625,10.1 C5.4125,9.9078125 5.17265625,9.8125 4.88515625,9.8125 C4.88515625,9.8125 4.88515625,9.8125 4.88515625,9.8125 C4.88515625,9.8125 3.92734375,9.8125 3.92734375,9.8125 C3.92734375,9.8125 3.92734375,9.2859375 3.92734375,9.2859375 C3.92734375,8.9984375 3.78359375,8.8546875 3.49609375,8.8546875 C3.49609375,8.8546875 3.49609375,8.8546875 3.49609375,8.8546875 C3.49609375,8.8546875 3.4,8.8546875 3.4,8.8546875 C3.06484375,8.8546875 2.92109375,8.9984375 2.92109375,9.2859375 C2.92109375,9.2859375 2.92109375,9.2859375 2.92109375,9.2859375 C2.92109375,9.2859375 2.92109375,9.8125 2.92109375,9.8125 C2.92109375,9.8125 1.96328125,9.8125 1.96328125,9.8125 C1.72421875,9.8125 1.484375,9.90859375 1.29296875,10.1 C1.05390625,10.2914062 0.9578125,10.53125 0.9578125,10.81875 C0.9578125,10.81875 0.9578125,10.81875 0.9578125,10.81875 C0.9578125,10.81875 0.9578125,23.5578125 0.9578125,23.5578125 C0.9578125,23.5578125 0.47890625,23.5578125 0.47890625,23.5578125 C0.14375,23.5578125 0,23.7015625 0,24.0367188 C0,24.371875 0.14375,24.515625 0.47890625,24.515625 C0.47890625,24.515625 0.47890625,24.515625 0.47890625,24.515625 C0.47890625,24.515625 24.0421875,24.515625 24.0421875,24.515625 C24.3773438,24.515625 24.5210937,24.371875 24.5210937,24.0367188 C24.5210937,23.7015625 24.3773438,23.5578125 24.0421875,23.5578125 L24.0429687,23.5578125 Z M4.8859375,10.8179688 C4.8859375,10.8179688 4.8859375,23.5570313 4.8859375,23.5570313 C4.8859375,23.5570313 1.96484375,23.5570313 1.96484375,23.5570313 C1.96484375,23.5570313 1.96484375,10.8179688 1.96484375,10.8179688 C1.96484375,10.8179688 4.8859375,10.8179688 4.8859375,10.8179688 Z M15.709375,4.92734375 C15.709375,4.92734375 15.709375,23.5578125 15.709375,23.5578125 C15.709375,23.5578125 8.8125,23.5578125 8.8125,23.5578125 C8.8125,23.5578125 8.8125,4.92734375 8.8125,4.92734375 C8.8125,4.92734375 15.709375,4.92734375 15.709375,4.92734375 Z M22.5585938,10.8179688 C22.5585938,10.8179688 22.5585938,23.5570313 22.5585938,23.5570313 C22.5585938,23.5570313 19.6375,23.5570313 19.6375,23.5570313 C19.6375,23.5570313 19.6375,10.8179688 19.6375,10.8179688 C19.6375,10.8179688 22.5585938,10.8179688 22.5585938,10.8179688 Z M10.2976562,7.8484375 C9.9625,7.8484375 9.81875,7.7046875 9.81875,7.36953125 C9.81875,7.034375 9.9625,6.890625 10.2976562,6.890625 C10.2976562,6.890625 10.2976562,6.890625 10.2976562,6.890625 C10.2976562,6.890625 14.225,6.890625 14.225,6.890625 C14.5601562,6.890625 14.7039062,7.034375 14.7039062,7.36953125 C14.7039062,7.7046875 14.5601562,7.8484375 14.225,7.8484375 C14.225,7.8484375 14.225,7.8484375 14.225,7.8484375 C14.225,7.8484375 10.2976562,7.8484375 10.2976562,7.8484375 Z M9.81875,10.3390625 C9.81875,10.3390625 9.81875,10.3390625 9.81875,10.3390625 C9.81875,10.0039062 9.9625,9.8125 10.2976562,9.8125 C10.2976562,9.8125 10.2976562,9.8125 10.2976562,9.8125 C10.2976562,9.8125 14.225,9.8125 14.225,9.8125 C14.5601562,9.8125 14.7039062,10.0039062 14.7039062,10.3390625 C14.7039062,10.3390625 14.7039062,10.3390625 14.7039062,10.3390625 C14.7039062,10.6742187 14.5601562,10.8179687 14.225,10.8179687 C14.225,10.8179687 14.225,10.8179687 14.225,10.8179687 C14.225,10.8179687 10.2976562,10.8179687 10.2976562,10.8179687 C9.9625,10.8179687 9.81875,10.6742187 9.81875,10.3390625 Z M10.2976562,13.7398438 C9.9625,13.7398438 9.81875,13.5960938 9.81875,13.2609375 C9.81875,12.9257813 9.9625,12.7820313 10.2976562,12.7820313 C10.2976562,12.7820313 10.2976562,12.7820313 10.2976562,12.7820313 C10.2976562,12.7820313 14.225,12.7820313 14.225,12.7820313 C14.5601562,12.7820313 14.7039062,12.9257813 14.7039062,13.2609375 C14.7039062,13.5960938 14.5601562,13.7398438 14.225,13.7398438 C14.225,13.7398438 14.225,13.7398438 14.225,13.7398438 C14.225,13.7398438 10.2976562,13.7398438 10.2976562,13.7398438 Z M9.81875,16.1820313 C9.81875,16.1820313 9.81875,16.1820313 9.81875,16.1820313 C9.81875,15.846875 9.9625,15.703125 10.2976562,15.703125 C10.2976562,15.703125 10.2976562,15.703125 10.2976562,15.703125 C10.2976562,15.703125 14.225,15.703125 14.225,15.703125 C14.5601562,15.703125 14.7039062,15.846875 14.7039062,16.1820313 C14.7039062,16.1820313 14.7039062,16.1820313 14.7039062,16.1820313 C14.7039062,16.5171875 14.5601562,16.7085937 14.225,16.7085937 C14.225,16.7085937 14.225,16.7085937 14.225,16.7085937 C14.225,16.7085937 10.2976562,16.7085937 10.2976562,16.7085937 C9.9625,16.7085937 9.81875,16.5171875 9.81875,16.1820313 Z M10.2976562,19.6304688 C9.9625,19.6304688 9.81875,19.4867188 9.81875,19.1515625 C9.81875,18.8164063 9.9625,18.6726563 10.2976562,18.6726563 C10.2976562,18.6726563 10.2976562,18.6726563 10.2976562,18.6726563 C10.2976562,18.6726563 14.225,18.6726563 14.225,18.6726563 C14.5601562,18.6726563 14.7039062,18.8164063 14.7039062,19.1515625 C14.7039062,19.4867188 14.5601562,19.6304688 14.225,19.6304688 C14.225,19.6304688 14.225,19.6304688 14.225,19.6304688 C14.225,19.6304688 10.2976562,19.6304688 10.2976562,19.6304688 Z M21.6007812,11.7757812 C21.6007812,11.7757812 21.6007812,12.78125 21.6007812,12.78125 C21.6007812,12.78125 20.5953125,12.78125 20.5953125,12.78125 C20.5953125,12.78125 20.5953125,11.7757812 20.5953125,11.7757812 C20.5953125,11.7757812 21.6007812,11.7757812 21.6007812,11.7757812 L21.6007812,11.7757812 Z M21.6007812,14.7453125 C21.6007812,14.7453125 21.6007812,15.703125 21.6007812,15.703125 C21.6007812,15.703125 20.5953125,15.703125 20.5953125,15.703125 C20.5953125,15.703125 20.5953125,14.7453125 20.5953125,14.7453125 C20.5953125,14.7453125 21.6007812,14.7453125 21.6007812,14.7453125 Z M21.6007812,17.6664063 C21.6007812,17.6664063 21.6007812,18.671875 21.6007812,18.671875 C21.6007812,18.671875 20.5953125,18.671875 20.5953125,18.671875 C20.5953125,18.671875 20.5953125,17.6664063 20.5953125,17.6664063 C20.5953125,17.6664063 21.6007812,17.6664063 21.6007812,17.6664063 Z M21.6007812,20.6359375 C21.6007812,20.6359375 21.6007812,21.59375 21.6007812,21.59375 C21.6007812,21.59375 20.5953125,21.59375 20.5953125,21.59375 C20.5953125,21.59375 20.5953125,20.6359375 20.5953125,20.6359375 C20.5953125,20.6359375 21.6007812,20.6359375 21.6007812,20.6359375 Z M3.928125,11.7757812 C3.928125,11.7757812 3.928125,12.78125 3.928125,12.78125 C3.928125,12.78125 2.92265625,12.78125 2.92265625,12.78125 C2.92265625,12.78125 2.92265625,11.7757812 2.92265625,11.7757812 C2.92265625,11.7757812 3.928125,11.7757812 3.928125,11.7757812 L3.928125,11.7757812 Z M3.928125,14.7453125 C3.928125,14.7453125 3.928125,15.703125 3.928125,15.703125 C3.928125,15.703125 2.92265625,15.703125 2.92265625,15.703125 C2.92265625,15.703125 2.92265625,14.7453125 2.92265625,14.7453125 C2.92265625,14.7453125 3.928125,14.7453125 3.928125,14.7453125 Z M3.928125,17.6664063 C3.928125,17.6664063 3.928125,18.671875 3.928125,18.671875 C3.928125,18.671875 2.92265625,18.671875 2.92265625,18.671875 C2.92265625,18.671875 2.92265625,17.6664063 2.92265625,17.6664063 C2.92265625,17.6664063 3.928125,17.6664063 3.928125,17.6664063 Z M3.928125,20.6359375 C3.928125,20.6359375 3.928125,21.59375 3.928125,21.59375 C3.928125,21.59375 2.92265625,21.59375 2.92265625,21.59375 C2.92265625,21.59375 2.92265625,20.6359375 2.92265625,20.6359375 C2.92265625,20.6359375 3.928125,20.6359375 3.928125,20.6359375 Z"/>
  <title>Building</title>
</svg>