<svg xmlns="http://www.w3.org/2000/svg" viewBox="0 0 25 25" id="building-3">
  <path d="M22.115625,23.515625 C22.115625,23.515625 22.115625,23.515625 22.115625,23.515625 C22.115625,23.515625 20.63125,23.515625 20.63125,23.515625 C20.63125,23.515625 20.63125,1.48515625 20.63125,1.48515625 C20.63125,1.05390625 20.4875,0.71875 20.2,0.43125 C19.9125,0.14375 19.5773438,0 19.1460938,0 C19.1460938,0 19.1460938,0 19.1460938,0 C19.1460938,0 5.4484375,0 5.4484375,0 C5.0171875,0 4.68203125,0.14375 4.39453125,0.43125 C4.10703125,0.71875 3.96328125,1.05390625 3.96328125,1.48515625 C3.96328125,1.48515625 3.96328125,1.48515625 3.96328125,1.48515625 C3.96328125,1.48515625 3.96328125,23.515625 3.96328125,23.515625 C3.96328125,23.515625 2.47890625,23.515625 2.47890625,23.515625 C2.14375,23.515625 2,23.7070312 2,24.0421875 C2,24.0421875 2,24.0421875 2,24.0421875 C2,24.3773437 2.14375,24.5210937 2.47890625,24.5210937 C2.47890625,24.5210937 2.47890625,24.5210937 2.47890625,24.5210937 C2.47890625,24.5210937 22.1148437,24.5210937 22.1148437,24.5210937 C22.45,24.5210937 22.59375,24.3773437 22.59375,24.0421875 C22.59375,24.0421875 22.59375,24.0421875 22.59375,24.0421875 C22.59375,23.7070312 22.45,23.515625 22.1148437,23.515625 L22.115625,23.515625 Z M14.7398438,16.6664063 C14.7398438,16.6664063 14.7398438,23.5148438 14.7398438,23.5148438 C14.7398438,23.5148438 9.8546875,23.5148438 9.8546875,23.5148438 C9.8546875,23.5148438 9.8546875,16.6664063 9.8546875,16.6664063 C9.8546875,16.6664063 14.7398438,16.6664063 14.7398438,16.6664063 L14.7398438,16.6664063 Z M19.6726562,1.484375 C19.6726562,1.484375 19.6726562,23.5148438 19.6726562,23.5148438 C19.6726562,23.5148438 15.7453125,23.5148438 15.7453125,23.5148438 C15.7453125,23.5148438 15.7453125,16.6664063 15.7453125,16.6664063 C15.7453125,16.4273438 15.6492187,16.1875 15.4578125,15.9960938 C15.2664063,15.8046875 15.0265625,15.7085938 14.7390625,15.7085938 C14.7390625,15.7085938 14.7390625,15.7085938 14.7390625,15.7085938 C14.7390625,15.7085938 9.85390625,15.7085938 9.85390625,15.7085938 C9.56640625,15.7085938 9.32734375,15.8046875 9.13515625,15.9960938 C8.94296875,16.1875 8.84765625,16.4273438 8.84765625,16.6664063 C8.84765625,16.6664063 8.84765625,16.6664063 8.84765625,16.6664063 C8.84765625,16.6664063 8.84765625,23.5148438 8.84765625,23.5148438 C8.84765625,23.5148438 4.9203125,23.5148438 4.9203125,23.5148438 C4.9203125,23.5148438 4.9203125,1.484375 4.9203125,1.484375 C4.9203125,1.14921875 5.11171875,0.9578125 5.446875,0.9578125 C5.446875,0.9578125 5.446875,0.9578125 5.446875,0.9578125 C5.446875,0.9578125 19.1445312,0.9578125 19.1445312,0.9578125 C19.4796875,0.9578125 19.6710937,1.14921875 19.6710937,1.484375 C19.6710937,1.484375 19.6710937,1.484375 19.6710937,1.484375 L19.6726562,1.484375 Z M16.703125,8.8125 C16.703125,8.8125 16.703125,8.8125 16.703125,8.8125 C16.703125,8.8125 7.890625,8.8125 7.890625,8.8125 C7.6515625,8.8125 7.41171875,8.90859375 7.2203125,9.1 C6.98125,9.29140625 6.88515625,9.53125 6.88515625,9.81875 C6.88515625,9.81875 6.88515625,9.81875 6.88515625,9.81875 C6.88515625,9.81875 6.88515625,11.7820313 6.88515625,11.7820313 C6.88515625,12.0210938 6.98125,12.2609375 7.2203125,12.4523438 C7.41171875,12.64375 7.6515625,12.7398438 7.890625,12.7398438 C7.890625,12.7398438 7.890625,12.7398438 7.890625,12.7398438 C7.890625,12.7398438 16.703125,12.7398438 16.703125,12.7398438 C16.9421875,12.7398438 17.1820313,12.64375 17.421875,12.4523438 C17.6132813,12.2609375 17.709375,12.0210938 17.709375,11.7820312 C17.709375,11.7820312 17.709375,11.7820312 17.709375,11.7820312 C17.709375,11.7820312 17.709375,9.81875 17.709375,9.81875 C17.709375,9.53125 17.6132812,9.2921875 17.421875,9.1 C17.1828125,8.90859375 16.9429688,8.8125 16.703125,8.8125 L16.703125,8.8125 Z M16.703125,9.81796875 C16.703125,9.81796875 16.703125,11.78125 16.703125,11.78125 C16.703125,11.78125 7.890625,11.78125 7.890625,11.78125 C7.890625,11.78125 7.890625,9.81796875 7.890625,9.81796875 C7.890625,9.81796875 16.703125,9.81796875 16.703125,9.81796875 Z M16.703125,2.921875 C16.703125,2.921875 16.703125,2.921875 16.703125,2.921875 C16.703125,2.921875 7.890625,2.921875 7.890625,2.921875 C7.6515625,2.921875 7.41171875,3.01796875 7.2203125,3.209375 C6.98125,3.4484375 6.88515625,3.68828125 6.88515625,3.928125 C6.88515625,3.928125 6.88515625,3.928125 6.88515625,3.928125 C6.88515625,3.928125 6.88515625,5.89140625 6.88515625,5.89140625 C6.88515625,6.13046875 6.98125,6.3703125 7.2203125,6.56171875 C7.41171875,6.753125 7.6515625,6.84921875 7.890625,6.84921875 C7.890625,6.84921875 7.890625,6.84921875 7.890625,6.84921875 C7.890625,6.84921875 16.703125,6.84921875 16.703125,6.84921875 C16.9421875,6.84921875 17.1820313,6.753125 17.421875,6.56171875 C17.6132813,6.3703125 17.709375,6.13046875 17.709375,5.89140625 C17.709375,5.89140625 17.709375,5.89140625 17.709375,5.89140625 C17.709375,5.89140625 17.709375,3.928125 17.709375,3.928125 C17.709375,3.6890625 17.6132812,3.44921875 17.421875,3.209375 C17.1828125,3.01796875 16.9429688,2.921875 16.703125,2.921875 Z M16.703125,3.92734375 C16.703125,3.92734375 16.703125,5.890625 16.703125,5.890625 C16.703125,5.890625 7.890625,5.890625 7.890625,5.890625 C7.890625,5.890625 7.890625,3.92734375 7.890625,3.92734375 C7.890625,3.92734375 16.703125,3.92734375 16.703125,3.92734375 L16.703125,3.92734375 Z"/>
  <title>Building 3</title>
</svg>