<svg xmlns="http://www.w3.org/2000/svg" viewBox="0 0 25 25" id="bulb-solid">
  <path d="M15.775,20.109375 C15.775,20.109375 15.775,20.109375 15.775,20.109375 C15.775,20.4445313 15.63125,20.6359375 15.2960938,20.6359375 C15.2960938,20.6359375 15.2960938,20.6359375 15.2960938,20.6359375 C15.2960938,20.6359375 9.40546875,20.6359375 9.40546875,20.6359375 C9.0703125,20.6359375 8.9265625,20.4445313 8.9265625,20.109375 C8.9265625,20.109375 8.9265625,20.109375 8.9265625,20.109375 C8.9265625,19.7742187 9.0703125,19.6304687 9.40546875,19.6304687 C9.40546875,19.6304687 9.40546875,19.6304687 9.40546875,19.6304687 C9.40546875,19.6304687 15.2960938,19.6304687 15.2960938,19.6304687 C15.63125,19.6304687 15.775,19.7742187 15.775,20.109375 Z M15.2960937,21.59375 C15.2960937,21.59375 15.2960937,21.59375 15.2960937,21.59375 C15.2960937,21.59375 9.40546875,21.59375 9.40546875,21.59375 C9.0703125,21.59375 8.9265625,21.7375 8.9265625,22.0726563 C8.9265625,22.0726563 8.9265625,22.0726563 8.9265625,22.0726563 C8.9265625,22.4078125 9.0703125,22.5992187 9.40546875,22.5992187 C9.40546875,22.5992187 9.40546875,22.5992187 9.40546875,22.5992187 C9.40546875,22.5992187 9.93203125,22.5992187 9.93203125,22.5992187 C10.0757812,23.1257812 10.3632812,23.6046875 10.79375,23.9882812 C11.2242188,24.371875 11.7515625,24.5632812 12.3742188,24.5632812 C12.3742188,24.5632812 12.3742188,24.5632812 12.3742188,24.5632812 C12.9492187,24.5632812 13.4757812,24.371875 13.9070312,23.9882812 C14.3382813,23.6046875 14.6257813,23.1265625 14.76875,22.5992187 C14.76875,22.5992187 14.76875,22.5992187 14.76875,22.5992187 C14.76875,22.5992187 15.2953125,22.5992187 15.2953125,22.5992187 C15.6304688,22.5992187 15.7742188,22.4078125 15.7742188,22.0726563 C15.7742188,22.0726563 15.7742188,22.0726563 15.7742188,22.0726563 C15.7742188,21.7375 15.6304688,21.59375 15.2953125,21.59375 L15.2960937,21.59375 Z M12.3273438,1 C12.3273438,1 12.375,1 12.375,1 C12.375,1 12.1835938,1 12.1835938,1 C10.2203125,1 8.49609375,1.71875 7.10703125,3.10703125 C5.71796875,4.4953125 5,6.2203125 5,8.18359375 C5,8.18359375 5,8.18359375 5,8.18359375 C5,8.18359375 5,8.375 5,8.375 C5,9.7640625 5.71875,11.6796875 7.203125,14.121875 C7.203125,14.121875 7.203125,14.121875 7.203125,14.121875 C8.35234375,15.9414063 8.92734375,17.2828125 8.92734375,18.1445313 C8.92734375,18.1445313 8.92734375,18.1445313 8.92734375,18.1445313 C8.92734375,18.4796875 9.07109375,18.6710938 9.40625,18.6710938 C9.40625,18.6710938 9.40625,18.6710938 9.40625,18.6710938 C9.40625,18.6710938 15.296875,18.6710938 15.296875,18.6710938 C15.6320312,18.6710938 15.7757812,18.4796875 15.7757812,18.1445313 C15.7757812,18.1445313 15.7757812,18.1445313 15.7757812,18.1445313 C15.7757812,17.378125 16.3507812,16.0375 17.5,14.121875 C17.5,14.121875 17.5,14.121875 17.5,14.121875 C18.984375,11.775 19.703125,9.859375 19.703125,8.375 C19.703125,8.375 19.703125,8.375 19.703125,8.375 C19.703125,8.375 19.703125,8.18359375 19.703125,8.18359375 C19.703125,6.2203125 18.984375,4.49609375 17.5960938,3.10703125 C16.2078125,1.71796875 14.4828125,1 12.5195312,1 C12.5195312,1 12.5195312,1 12.5195312,1 C12.5195312,1 12.328125,1 12.328125,1 L12.3273438,1 Z"/>
  <title>Bulb Solid</title>
</svg>