<svg xmlns="http://www.w3.org/2000/svg" viewBox="0 0 25 25" id="bulb">
  <path d="M15.8234375,20.109375 C15.8234375,20.109375 15.8234375,20.109375 15.8234375,20.109375 C15.8234375,20.4445313 15.6320312,20.6359375 15.296875,20.6359375 C15.296875,20.6359375 15.296875,20.6359375 15.296875,20.6359375 C15.296875,20.6359375 9.45390625,20.6359375 9.45390625,20.6359375 C9.11875,20.6359375 8.92734375,20.4445313 8.92734375,20.109375 C8.92734375,20.109375 8.92734375,20.109375 8.92734375,20.109375 C8.92734375,19.7742187 9.11875,19.6304687 9.45390625,19.6304687 C9.45390625,19.6304687 9.45390625,19.6304687 9.45390625,19.6304687 C9.45390625,19.6304687 15.296875,19.6304687 15.296875,19.6304687 C15.6320312,19.6304687 15.8234375,19.7742187 15.8234375,20.109375 Z M15.296875,21.59375 C15.296875,21.59375 15.296875,21.59375 15.296875,21.59375 C15.296875,21.59375 9.45390625,21.59375 9.45390625,21.59375 C9.11875,21.59375 8.92734375,21.7375 8.92734375,22.0726563 C8.92734375,22.0726563 8.92734375,22.0726563 8.92734375,22.0726563 C8.92734375,22.4078125 9.11875,22.5992187 9.45390625,22.5992187 C9.45390625,22.5992187 9.45390625,22.5992187 9.45390625,22.5992187 C9.45390625,22.5992187 9.98046875,22.5992187 9.98046875,22.5992187 C10.1242188,23.1742188 10.4117188,23.653125 10.8421875,23.9882812 C11.2734375,24.3710937 11.8,24.5632812 12.375,24.5632812 C12.95,24.5632812 13.4765625,24.371875 13.9078125,23.9882812 C14.3390625,23.653125 14.6265625,23.1742187 14.7695313,22.5992187 C14.7695313,22.5992187 14.7695313,22.5992187 14.7695313,22.5992187 C14.7695313,22.5992187 15.2960938,22.5992187 15.2960938,22.5992187 C15.63125,22.5992187 15.8226563,22.4078125 15.8226563,22.0726563 C15.8226563,22.0726563 15.8226563,22.0726563 15.8226563,22.0726563 C15.8226563,21.7375 15.63125,21.59375 15.2960938,21.59375 L15.296875,21.59375 Z M19.7507812,8.18359375 C19.7507812,8.18359375 19.7507812,8.375 19.7507812,8.375 C19.7507812,9.81171875 18.984375,11.7273438 17.5,14.121875 C17.5,14.121875 17.5,14.121875 17.5,14.121875 C16.3984375,15.9898437 15.8234375,17.3304687 15.8234375,18.1445313 C15.8234375,18.1445313 15.8234375,18.1445313 15.8234375,18.1445313 C15.8234375,18.4796875 15.6320312,18.6710938 15.296875,18.6710938 C15.296875,18.6710938 15.296875,18.6710938 15.296875,18.6710938 C15.296875,18.6710938 9.45390625,18.6710938 9.45390625,18.6710938 C9.11875,18.6710938 8.92734375,18.4796875 8.92734375,18.1445313 C8.92734375,18.1445313 8.92734375,18.1445313 8.92734375,18.1445313 C8.92734375,17.3304687 8.35234375,15.9890625 7.25078125,14.121875 C7.25078125,14.121875 7.25078125,14.121875 7.25078125,14.121875 C5.76640625,11.7273438 5,9.81171875 5,8.375 C5,8.375 5,8.375 5,8.375 C5,8.375 5,8.18359375 5,8.18359375 C5,6.2203125 5.71875,4.49609375 7.15546875,3.10703125 C8.54453125,1.71796875 10.26875,1 12.2320312,1 C12.2320312,1 12.2320312,1 12.2320312,1 C12.2320312,1 12.3757812,1 12.3757812,1 C12.3757812,1 12.5195313,1 12.5195313,1 C14.4828125,1 16.2070312,1.71875 17.64375,3.10703125 C19.0328125,4.49609375 19.7507812,6.2203125 19.7507812,8.18359375 C19.7507812,8.18359375 19.7507812,8.18359375 19.7507812,8.18359375 L19.7507812,8.18359375 Z M18.7453125,8.37578125 C18.7453125,8.37578125 18.7453125,8.37578125 18.7453125,8.37578125 C18.7453125,8.37578125 18.7453125,8.13671875 18.7453125,8.13671875 C18.7453125,6.46015625 18.1703125,4.97578125 16.9734375,3.778125 C15.7765625,2.58046875 14.2914062,1.95859375 12.5671875,1.95859375 C12.5671875,1.95859375 12.5671875,1.95859375 12.5671875,1.95859375 C12.5671875,1.95859375 12.3757812,1.95859375 12.3757812,1.95859375 C12.3757812,1.95859375 12.184375,1.95859375 12.184375,1.95859375 C10.4601562,1.95859375 9.0234375,2.58125 7.82578125,3.778125 C6.628125,4.975 6.00625,6.46015625 6.00625,8.13671875 C6.00625,8.13671875 6.00625,8.13671875 6.00625,8.13671875 C6.00625,8.13671875 6.00625,8.37578125 6.00625,8.37578125 C6.00625,9.62109375 6.6765625,11.3453125 8.065625,13.5960937 C8.065625,13.5960937 8.065625,13.5960937 8.065625,13.5960937 C8.92734375,14.7453125 9.55,16.0867187 9.88515625,17.61875 C9.88515625,17.61875 9.88515625,17.61875 9.88515625,17.61875 C9.88515625,17.61875 14.865625,17.6664063 14.865625,17.6664063 C15.2007812,16.1335938 15.8234375,14.7929688 16.6851562,13.5953125 C16.6851562,13.5953125 16.6851562,13.5953125 16.6851562,13.5953125 C18.0742187,11.3445312 18.7445312,9.6203125 18.7445312,8.375 L18.7453125,8.37578125 Z"/>
  <title>Bulb</title>
</svg>