<svg xmlns="http://www.w3.org/2000/svg" viewBox="0 0 25 25" id="calculator-solid">
  <path d="M21.1515625,0 C21.1515625,0 21.1515625,0 21.1515625,0 C21.1515625,0 4.48515625,0 4.48515625,0 C4.05390625,0 3.71875,0.14375 3.43125,0.43125 C3.14375,0.71875 3,1.05390625 3,1.48515625 C3,1.48515625 3,1.48515625 3,1.48515625 C3,1.48515625 3,23.0367188 3,23.0367188 C3,23.4679688 3.14375,23.803125 3.43125,24.090625 C3.71875,24.378125 4.05390625,24.521875 4.48515625,24.521875 C4.48515625,24.521875 4.48515625,24.521875 4.48515625,24.521875 C4.48515625,24.521875 21.1515625,24.521875 21.1515625,24.521875 C21.5828125,24.521875 21.9179688,24.378125 22.2054688,24.090625 C22.4929687,23.803125 22.6367188,23.4679688 22.6367188,23.0367188 C22.6367188,23.0367188 22.6367188,23.0367188 22.6367188,23.0367188 C22.6367188,23.0367188 22.6367188,1.48515625 22.6367188,1.48515625 C22.6367188,1.05390625 22.4929687,0.71875 22.2054688,0.43125 C21.9179688,0.14375 21.5828125,0 21.1515625,0 Z M8.60390625,20.30625 C8.4125,20.4976563 8.17265625,20.59375 7.93359375,20.59375 C7.69453125,20.59375 7.4546875,20.4976562 7.26328125,20.30625 C7.02421875,20.1148437 6.928125,19.875 6.928125,19.6359375 C6.928125,19.6359375 6.928125,19.6359375 6.928125,19.6359375 C6.928125,19.3484375 7.02421875,19.109375 7.26328125,18.9171875 C7.4546875,18.7257812 7.69453125,18.6296875 7.93359375,18.6296875 C8.17265625,18.6296875 8.4125,18.7257813 8.60390625,18.9171875 C8.7953125,19.1085938 8.89140625,19.3484375 8.89140625,19.6359375 C8.89140625,19.6359375 8.89140625,19.6359375 8.89140625,19.6359375 C8.89140625,19.875 8.7953125,20.1148437 8.60390625,20.30625 Z M8.60390625,15.3734375 C8.4125,15.6125 8.17265625,15.7085937 7.93359375,15.7085937 C7.69453125,15.7085937 7.4546875,15.6125 7.26328125,15.3734375 C7.02421875,15.1820312 6.928125,14.9421875 6.928125,14.703125 C6.928125,14.4640625 7.02421875,14.2242188 7.26328125,14.0328125 C7.4546875,13.8414062 7.69453125,13.7453125 7.93359375,13.7453125 C8.17265625,13.7453125 8.4125,13.8414063 8.60390625,14.0328125 C8.7953125,14.2242188 8.89140625,14.4640625 8.89140625,14.703125 C8.89140625,14.9421875 8.7953125,15.1820312 8.60390625,15.3734375 Z M8.60390625,10.4882813 C8.4125,10.6796875 8.17265625,10.7757813 7.93359375,10.7757813 C7.69453125,10.7757813 7.4546875,10.6796875 7.26328125,10.4882813 C7.02421875,10.296875 6.928125,10.0570313 6.928125,9.81796875 C6.928125,9.81796875 6.928125,9.81796875 6.928125,9.81796875 C6.928125,9.53046875 7.02421875,9.29140625 7.26328125,9.09921875 C7.4546875,8.9078125 7.69453125,8.81171875 7.93359375,8.81171875 C8.17265625,8.81171875 8.4125,8.9078125 8.60390625,9.09921875 C8.7953125,9.290625 8.89140625,9.53046875 8.89140625,9.81796875 C8.89140625,9.81796875 8.89140625,9.81796875 8.89140625,9.81796875 C8.89140625,10.0570312 8.7953125,10.296875 8.60390625,10.4882813 Z M12.81875,20.59375 C12.81875,20.59375 12.81875,20.59375 12.81875,20.59375 C12.5796875,20.59375 12.3398438,20.4976562 12.1484375,20.30625 C11.9570312,20.1148438 11.8609375,19.875 11.8609375,19.6359375 C11.8609375,19.6359375 11.8609375,19.6359375 11.8609375,19.6359375 C11.8609375,19.3484375 11.9570313,19.109375 12.1484375,18.9171875 C12.3398437,18.725 12.5796875,18.6296875 12.81875,18.6296875 C12.81875,18.6296875 12.81875,18.6296875 12.81875,18.6296875 C13.10625,18.6296875 13.3453125,18.7257813 13.5375,18.9171875 C13.7296875,19.1085937 13.825,19.3484375 13.825,19.6359375 C13.825,19.6359375 13.825,19.6359375 13.825,19.6359375 C13.825,19.875 13.7289062,20.1148437 13.5375,20.30625 C13.3460938,20.4976563 13.10625,20.59375 12.81875,20.59375 Z M12.81875,15.7085937 C12.81875,15.7085937 12.81875,15.7085937 12.81875,15.7085937 C12.5796875,15.7085937 12.3398438,15.6125 12.1484375,15.3734375 C11.9570312,15.1820312 11.8609375,14.9421875 11.8609375,14.703125 C11.8609375,14.4640625 11.9570313,14.2242188 12.1484375,14.0328125 C12.3398438,13.8414062 12.5796875,13.7453125 12.81875,13.7453125 C12.81875,13.7453125 12.81875,13.7453125 12.81875,13.7453125 C13.10625,13.7453125 13.3453125,13.8414063 13.5375,14.0328125 C13.7296875,14.2242187 13.825,14.4640625 13.825,14.703125 C13.825,14.9421875 13.7289062,15.1820312 13.5375,15.3734375 C13.3460938,15.6125 13.10625,15.7085937 12.81875,15.7085937 Z M12.81875,10.7757813 C12.81875,10.7757813 12.81875,10.7757813 12.81875,10.7757813 C12.5796875,10.7757813 12.3398438,10.6796875 12.1484375,10.4882813 C11.9570312,10.296875 11.8609375,10.0570313 11.8609375,9.81796875 C11.8609375,9.81796875 11.8609375,9.81796875 11.8609375,9.81796875 C11.8609375,9.53046875 11.9570313,9.29140625 12.1484375,9.09921875 C12.3398437,8.90703125 12.5796875,8.81171875 12.81875,8.81171875 C12.81875,8.81171875 12.81875,8.81171875 12.81875,8.81171875 C13.10625,8.81171875 13.3453125,8.9078125 13.5375,9.09921875 C13.7296875,9.290625 13.825,9.53046875 13.825,9.81796875 C13.825,9.81796875 13.825,9.81796875 13.825,9.81796875 C13.825,10.0570312 13.7289062,10.296875 13.5375,10.4882813 C13.3460938,10.6796875 13.10625,10.7757813 12.81875,10.7757813 Z M17.7515625,20.59375 C17.7515625,20.59375 17.7515625,20.59375 17.7515625,20.59375 C17.4640625,20.59375 17.225,20.4976562 17.0328125,20.30625 C16.840625,20.1148438 16.7453125,19.875 16.7453125,19.6359375 C16.7453125,19.6359375 16.7453125,19.6359375 16.7453125,19.6359375 C16.7453125,19.3484375 16.8414063,19.109375 17.0328125,18.9171875 C17.2242187,18.725 17.4640625,18.6296875 17.7515625,18.6296875 C17.7515625,18.6296875 17.7515625,18.6296875 17.7515625,18.6296875 C17.990625,18.6296875 18.2304688,18.7257813 18.421875,18.9171875 C18.6132812,19.1085937 18.709375,19.3484375 18.709375,19.6359375 C18.709375,19.6359375 18.709375,19.6359375 18.709375,19.6359375 C18.709375,19.875 18.6132812,20.1148437 18.421875,20.30625 C18.2304688,20.4976563 17.990625,20.59375 17.7515625,20.59375 Z M17.7515625,15.7085937 C17.7515625,15.7085937 17.7515625,15.7085937 17.7515625,15.7085937 C17.4640625,15.7085937 17.225,15.6125 17.0328125,15.3734375 C16.8414062,15.1820312 16.7453125,14.9421875 16.7453125,14.703125 C16.7453125,14.4640625 16.8414063,14.2242188 17.0328125,14.0328125 C17.2242187,13.8414062 17.4640625,13.7453125 17.7515625,13.7453125 C17.7515625,13.7453125 17.7515625,13.7453125 17.7515625,13.7453125 C17.990625,13.7453125 18.2304688,13.8414063 18.421875,14.0328125 C18.6132812,14.2242187 18.709375,14.4640625 18.709375,14.703125 C18.709375,14.9421875 18.6132812,15.1820312 18.421875,15.3734375 C18.2304688,15.6125 17.990625,15.7085937 17.7515625,15.7085937 Z M17.7515625,10.7757813 C17.7515625,10.7757813 17.7515625,10.7757813 17.7515625,10.7757813 C17.4640625,10.7757813 17.225,10.6796875 17.0328125,10.4882813 C16.840625,10.296875 16.7453125,10.0570313 16.7453125,9.81796875 C16.7453125,9.81796875 16.7453125,9.81796875 16.7453125,9.81796875 C16.7453125,9.53046875 16.8414063,9.29140625 17.0328125,9.09921875 C17.2242187,8.90703125 17.4640625,8.81171875 17.7515625,8.81171875 C17.7515625,8.81171875 17.7515625,8.81171875 17.7515625,8.81171875 C17.990625,8.81171875 18.2304688,8.9078125 18.421875,9.09921875 C18.6132812,9.290625 18.709375,9.53046875 18.709375,9.81796875 C18.709375,9.81796875 18.709375,9.81796875 18.709375,9.81796875 C18.709375,10.0570312 18.6132812,10.296875 18.421875,10.4882813 C18.2304688,10.6796875 17.990625,10.7757813 17.7515625,10.7757813 Z M19.1882812,4.88515625 C19.1882812,4.88515625 19.1882812,4.88515625 19.1882812,4.88515625 C19.1882812,4.88515625 6.44921875,4.88515625 6.44921875,4.88515625 C6.1140625,4.88515625 5.9703125,4.74140625 5.9703125,4.40625 C5.9703125,4.07109375 6.1140625,3.92734375 6.44921875,3.92734375 C6.44921875,3.92734375 6.44921875,3.92734375 6.44921875,3.92734375 C6.44921875,3.92734375 19.1882812,3.92734375 19.1882812,3.92734375 C19.5234375,3.92734375 19.7148437,4.07109375 19.7148437,4.40625 C19.7148437,4.74140625 19.5234375,4.88515625 19.1882812,4.88515625 Z"/>
  <title>Calculator Solid</title>
</svg>