<svg xmlns="http://www.w3.org/2000/svg" viewBox="0 0 25 25" id="calendar-plus-solid">
  <path d="M24.5210937,3.92109375 C24.5210937,3.92109375 24.5210937,3.92109375 24.5210937,3.92109375 C24.5210937,3.92109375 24.5210937,7.8484375 24.5210937,7.8484375 C24.5210937,7.8484375 0,7.8484375 0,7.8484375 C0,7.8484375 0,3.92109375 0,3.92109375 C0,3.68203125 0.09609375,3.4421875 0.2875,3.25078125 C0.47890625,3.059375 0.71875,2.96328125 0.9578125,2.96328125 C0.9578125,2.96328125 0.9578125,2.96328125 0.9578125,2.96328125 C0.9578125,2.96328125 5.890625,2.96328125 5.890625,2.96328125 C5.890625,2.96328125 5.890625,1.47890625 5.890625,1.47890625 C5.890625,1.14375 6.034375,1 6.36953125,1 C6.7046875,1 6.8484375,1.14375 6.8484375,1.47890625 C6.8484375,1.47890625 6.8484375,1.47890625 6.8484375,1.47890625 C6.8484375,1.47890625 6.8484375,2.96328125 6.8484375,2.96328125 C6.8484375,2.96328125 17.671875,2.96328125 17.671875,2.96328125 C17.671875,2.96328125 17.671875,1.47890625 17.671875,1.47890625 C17.671875,1.14375 17.815625,1 18.1507812,1 C18.4859375,1 18.6296875,1.14375 18.6296875,1.47890625 C18.6296875,1.47890625 18.6296875,1.47890625 18.6296875,1.47890625 C18.6296875,1.47890625 18.6296875,2.96328125 18.6296875,2.96328125 C18.6296875,2.96328125 23.5625,2.96328125 23.5625,2.96328125 C23.8015625,2.96328125 24.0414062,3.059375 24.2328125,3.25078125 C24.4242187,3.4421875 24.5203125,3.68203125 24.5203125,3.92109375 L24.5210937,3.92109375 Z M0,23.5570313 C0,23.5570313 0,8.85390625 0,8.85390625 C0,8.85390625 24.5210937,8.85390625 24.5210937,8.85390625 C24.5210937,8.85390625 24.5210937,23.5570313 24.5210937,23.5570313 C24.5210937,23.7960938 24.425,24.0359375 24.2335937,24.2273438 C24.0421875,24.41875 23.8023437,24.5148438 23.5632812,24.5148438 C23.5632812,24.5148438 23.5632812,24.5148438 23.5632812,24.5148438 C23.5632812,24.5148438 0.9578125,24.5148438 0.9578125,24.5148438 C0.71875,24.5148438 0.47890625,24.41875 0.2875,24.2273438 C0.09609375,24.0359375 0,23.7960938 0,23.5570313 C0,23.5570313 0,23.5570313 0,23.5570313 Z M8.8125,16.18125 C8.8125,16.18125 8.8125,16.18125 8.8125,16.18125 C8.8125,16.5164062 9.00390625,16.7078125 9.3390625,16.7078125 C9.3390625,16.7078125 9.3390625,16.7078125 9.3390625,16.7078125 C9.3390625,16.7078125 11.78125,16.7078125 11.78125,16.7078125 C11.78125,16.7078125 11.78125,19.15 11.78125,19.15 C11.78125,19.4851563 11.925,19.6289062 12.2601563,19.6289062 C12.5953125,19.6289062 12.7390625,19.4851563 12.7390625,19.15 C12.7390625,19.15 12.7390625,19.15 12.7390625,19.15 C12.7390625,19.15 12.7390625,16.7078125 12.7390625,16.7078125 C12.7390625,16.7078125 15.18125,16.7078125 15.18125,16.7078125 C15.5164063,16.7078125 15.7078125,16.5164062 15.7078125,16.18125 C15.7078125,16.18125 15.7078125,16.18125 15.7078125,16.18125 C15.7078125,15.8460938 15.5164063,15.7023438 15.18125,15.7023438 C15.18125,15.7023438 15.18125,15.7023438 15.18125,15.7023438 C15.18125,15.7023438 12.7390625,15.7023438 12.7390625,15.7023438 C12.7390625,15.7023438 12.7390625,13.2601562 12.7390625,13.2601562 C12.7390625,12.925 12.5953125,12.78125 12.2601563,12.78125 C11.925,12.78125 11.78125,12.925 11.78125,13.2601562 C11.78125,13.2601562 11.78125,13.2601562 11.78125,13.2601562 C11.78125,13.2601562 11.78125,15.7023438 11.78125,15.7023438 C11.78125,15.7023438 9.3390625,15.7023438 9.3390625,15.7023438 C9.00390625,15.7023438 8.8125,15.8460938 8.8125,16.18125 L8.8125,16.18125 Z"/>
  <title>Calendar Plus Solid</title>
</svg>