<svg xmlns="http://www.w3.org/2000/svg" viewBox="0 0 25 25" id="calendar-empty">
  <path d="M23.5625,2.96328125 C23.5625,2.96328125 23.5625,2.96328125 23.5625,2.96328125 C23.5625,2.96328125 18.6296875,2.96328125 18.6296875,2.96328125 C18.6296875,2.96328125 18.6296875,1.47890625 18.6296875,1.47890625 C18.6296875,1.14375 18.4859375,1 18.1507812,1 C17.815625,1 17.671875,1.14375 17.671875,1.47890625 C17.671875,1.47890625 17.671875,1.47890625 17.671875,1.47890625 C17.671875,1.47890625 17.671875,2.96328125 17.671875,2.96328125 C17.671875,2.96328125 6.8484375,2.96328125 6.8484375,2.96328125 C6.8484375,2.96328125 6.8484375,1.47890625 6.8484375,1.47890625 C6.8484375,1.14375 6.7046875,1 6.36953125,1 C6.034375,1 5.890625,1.14375 5.890625,1.47890625 C5.890625,1.47890625 5.890625,1.47890625 5.890625,1.47890625 C5.890625,1.47890625 5.890625,2.96328125 5.890625,2.96328125 C5.890625,2.96328125 0.9578125,2.96328125 0.9578125,2.96328125 C0.71875,2.96328125 0.47890625,3.059375 0.2875,3.25078125 C0.09609375,3.4421875 0,3.68203125 0,3.92109375 C0,3.92109375 0,3.92109375 0,3.92109375 C0,3.92109375 0,23.5570313 0,23.5570313 C0,23.7960938 0.09609375,24.0359375 0.2875,24.2273437 C0.47890625,24.41875 0.71875,24.5148438 0.9578125,24.5148438 C0.9578125,24.5148438 0.9578125,24.5148438 0.9578125,24.5148438 C0.9578125,24.5148438 23.5632812,24.5148438 23.5632812,24.5148438 C23.8023437,24.5148438 24.0421875,24.41875 24.2335937,24.2273437 C24.425,24.0359375 24.5210937,23.7960938 24.5210937,23.5570313 C24.5210937,23.5570313 24.5210937,23.5570313 24.5210937,23.5570313 C24.5210937,23.5570313 24.5210937,3.92109375 24.5210937,3.92109375 C24.5210937,3.68203125 24.425,3.4421875 24.2335937,3.25078125 C24.0421875,3.059375 23.8023437,2.96328125 23.5632812,2.96328125 L23.5625,2.96328125 Z M23.5625,8.8546875 C23.5625,8.8546875 23.5625,23.5578125 23.5625,23.5578125 C23.5625,23.5578125 0.95703125,23.5578125 0.95703125,23.5578125 C0.95703125,23.5578125 0.95703125,8.8546875 0.95703125,8.8546875 C0.95703125,8.8546875 23.5625,8.8546875 23.5625,8.8546875 Z M23.5625,3.921875 C23.5625,3.921875 23.5625,7.84921875 23.5625,7.84921875 C23.5625,7.84921875 0.95703125,7.84921875 0.95703125,7.84921875 C0.95703125,7.84921875 0.95703125,3.921875 0.95703125,3.921875 C0.95703125,3.921875 23.5625,3.921875 23.5625,3.921875 Z"/>
  <title>Calendar Empty</title>
</svg>