<svg xmlns="http://www.w3.org/2000/svg" viewBox="0 0 25 25" id="calendar-plus">
  <path d="M23.5625,2.96328125 C23.5625,2.96328125 23.5625,2.96328125 23.5625,2.96328125 C23.5625,2.96328125 18.6296875,2.96328125 18.6296875,2.96328125 C18.6296875,2.96328125 18.6296875,1.47890625 18.6296875,1.47890625 C18.6296875,1.14375 18.4859375,1 18.1507812,1 C17.815625,1 17.671875,1.14375 17.671875,1.47890625 C17.671875,1.47890625 17.671875,1.47890625 17.671875,1.47890625 C17.671875,1.47890625 17.671875,2.96328125 17.671875,2.96328125 C17.671875,2.96328125 6.8484375,2.96328125 6.8484375,2.96328125 C6.8484375,2.96328125 6.8484375,1.47890625 6.8484375,1.47890625 C6.8484375,1.14375 6.7046875,1 6.36953125,1 C6.034375,1 5.890625,1.14375 5.890625,1.47890625 C5.890625,1.47890625 5.890625,1.47890625 5.890625,1.47890625 C5.890625,1.47890625 5.890625,2.96328125 5.890625,2.96328125 C5.890625,2.96328125 0.9578125,2.96328125 0.9578125,2.96328125 C0.71875,2.96328125 0.47890625,3.059375 0.2875,3.25078125 C0.09609375,3.4421875 0,3.68203125 0,3.92109375 C0,3.92109375 0,3.92109375 0,3.92109375 C0,3.92109375 0,23.5570313 0,23.5570313 C0,23.7960938 0.09609375,24.0359375 0.2875,24.2273437 C0.47890625,24.41875 0.71875,24.5148438 0.9578125,24.5148438 C0.9578125,24.5148438 0.9578125,24.5148438 0.9578125,24.5148438 C0.9578125,24.5148438 23.5632812,24.5148438 23.5632812,24.5148438 C23.8023437,24.5148438 24.0421875,24.41875 24.2335937,24.2273437 C24.425,24.0359375 24.5210937,23.7960938 24.5210937,23.5570313 C24.5210937,23.5570313 24.5210937,23.5570313 24.5210937,23.5570313 C24.5210937,23.5570313 24.5210937,3.92109375 24.5210937,3.92109375 C24.5210937,3.68203125 24.425,3.4421875 24.2335937,3.25078125 C24.0421875,3.059375 23.8023437,2.96328125 23.5632812,2.96328125 L23.5625,2.96328125 Z M23.5625,8.8546875 C23.5625,8.8546875 23.5625,23.5578125 23.5625,23.5578125 C23.5625,23.5578125 0.95703125,23.5578125 0.95703125,23.5578125 C0.95703125,23.5578125 0.95703125,8.8546875 0.95703125,8.8546875 C0.95703125,8.8546875 23.5625,8.8546875 23.5625,8.8546875 Z M23.5625,3.921875 C23.5625,3.921875 23.5625,7.84921875 23.5625,7.84921875 C23.5625,7.84921875 0.95703125,7.84921875 0.95703125,7.84921875 C0.95703125,7.84921875 0.95703125,3.921875 0.95703125,3.921875 C0.95703125,3.921875 23.5625,3.921875 23.5625,3.921875 Z M8.81171875,16.1820312 C8.81171875,16.1820312 8.81171875,16.1820312 8.81171875,16.1820312 C8.81171875,15.846875 9.003125,15.703125 9.33828125,15.703125 C9.33828125,15.703125 9.33828125,15.703125 9.33828125,15.703125 C9.33828125,15.703125 11.7804688,15.703125 11.7804688,15.703125 C11.7804688,15.703125 11.7804688,13.2609375 11.7804688,13.2609375 C11.7804688,12.9257812 11.9242188,12.7820312 12.259375,12.7820312 C12.5945313,12.7820312 12.7382813,12.9257812 12.7382813,13.2609375 C12.7382813,13.2609375 12.7382813,13.2609375 12.7382813,13.2609375 C12.7382813,13.2609375 12.7382813,15.703125 12.7382813,15.703125 C12.7382813,15.703125 15.1804688,15.703125 15.1804688,15.703125 C15.515625,15.703125 15.7070313,15.846875 15.7070313,16.1820312 C15.7070313,16.1820312 15.7070313,16.1820312 15.7070313,16.1820312 C15.7070313,16.5171875 15.515625,16.7085937 15.1804688,16.7085937 C15.1804688,16.7085937 15.1804688,16.7085937 15.1804688,16.7085937 C15.1804688,16.7085937 12.7382813,16.7085937 12.7382813,16.7085937 C12.7382813,16.7085937 12.7382813,19.1507812 12.7382813,19.1507812 C12.7382813,19.4859375 12.5945313,19.6296875 12.259375,19.6296875 C11.9242188,19.6296875 11.7804688,19.4859375 11.7804688,19.1507812 C11.7804688,19.1507812 11.7804688,19.1507812 11.7804688,19.1507812 C11.7804688,19.1507812 11.7804688,16.7085937 11.7804688,16.7085937 C11.7804688,16.7085937 9.33828125,16.7085937 9.33828125,16.7085937 C9.003125,16.7085937 8.81171875,16.5171875 8.81171875,16.1820312 L8.81171875,16.1820312 Z"/>
  <title>Calendar Plus</title>
</svg>