<svg xmlns="http://www.w3.org/2000/svg" viewBox="0 0 25 25" id="calendar">
  <path d="M18.6304687,2.96328125 C18.6304687,2.96328125 23.5632812,2.96328125 23.5632812,2.96328125 C23.8023438,2.96328125 24.0421875,3.059375 24.2335937,3.25078125 C24.425,3.4421875 24.5210937,3.68203125 24.5210937,3.92109375 C24.5210937,3.92109375 24.5210937,3.92109375 24.5210937,3.92109375 C24.5210937,3.92109375 24.5210937,23.5570313 24.5210937,23.5570313 C24.5210937,23.7960938 24.425,24.0359375 24.2335937,24.2273437 C24.0421875,24.41875 23.8023437,24.5148438 23.5632812,24.5148438 C23.5632812,24.5148438 23.5632812,24.5148438 23.5632812,24.5148438 C23.5632812,24.5148438 0.9578125,24.5148438 0.9578125,24.5148438 C0.71875,24.5148438 0.47890625,24.41875 0.2875,24.2273437 C0.09609375,24.0359375 0,23.7960938 0,23.5570313 C0,23.5570313 0,23.5570313 0,23.5570313 C0,23.5570313 0,3.92109375 0,3.92109375 C0,3.68203125 0.09609375,3.4421875 0.2875,3.25078125 C0.47890625,3.059375 0.71875,2.96328125 0.9578125,2.96328125 C0.9578125,2.96328125 0.9578125,2.96328125 0.9578125,2.96328125 C0.9578125,2.96328125 5.890625,2.96328125 5.890625,2.96328125 C5.890625,2.96328125 5.890625,1 5.890625,1 C5.890625,1 6.8484375,1 6.8484375,1 C6.8484375,1 6.8484375,2.96328125 6.8484375,2.96328125 C6.8484375,2.96328125 17.671875,2.96328125 17.671875,2.96328125 C17.671875,2.96328125 17.671875,1 17.671875,1 C17.671875,1 18.6296875,1 18.6296875,1 C18.6296875,1 18.6296875,2.96328125 18.6296875,2.96328125 L18.6304687,2.96328125 Z M0.9578125,23.5570313 C0.9578125,23.5570313 23.5632813,23.5570313 23.5632813,23.5570313 C23.5632813,23.5570313 23.5632813,8.85390625 23.5632813,8.85390625 C23.5632813,8.85390625 0.9578125,8.85390625 0.9578125,8.85390625 C0.9578125,8.85390625 0.9578125,23.5570313 0.9578125,23.5570313 Z M0.9578125,7.8484375 C0.9578125,7.8484375 23.5632813,7.8484375 23.5632813,7.8484375 C23.5632813,7.8484375 23.5632813,3.92109375 23.5632813,3.92109375 C23.5632813,3.92109375 0.9578125,3.92109375 0.9578125,3.92109375 C0.9578125,3.92109375 0.9578125,7.8484375 0.9578125,7.8484375 Z M13.6976562,11.775 C13.6976562,11.775 15.6609375,11.775 15.6609375,11.775 C15.6609375,11.775 15.6609375,13.7382812 15.6609375,13.7382812 C15.6609375,13.7382812 13.6976562,13.7382812 13.6976562,13.7382812 C13.6976562,13.7382812 13.6976562,11.775 13.6976562,11.775 L13.6976562,11.775 Z M18.6304687,11.775 C18.6304687,11.775 20.59375,11.775 20.59375,11.775 C20.59375,11.775 20.59375,13.7382812 20.59375,13.7382812 C20.59375,13.7382812 18.6304687,13.7382812 18.6304687,13.7382812 C18.6304687,13.7382812 18.6304687,11.775 18.6304687,11.775 L18.6304687,11.775 Z M3.92734375,16.7085937 C3.92734375,16.7085937 5.890625,16.7085937 5.890625,16.7085937 C5.890625,16.7085937 5.890625,18.671875 5.890625,18.671875 C5.890625,18.671875 3.92734375,18.671875 3.92734375,18.671875 C3.92734375,18.671875 3.92734375,16.7085937 3.92734375,16.7085937 L3.92734375,16.7085937 Z M8.86015625,16.7085937 C8.86015625,16.7085937 10.8234375,16.7085937 10.8234375,16.7085937 C10.8234375,16.7085937 10.8234375,18.671875 10.8234375,18.671875 C10.8234375,18.671875 8.86015625,18.671875 8.86015625,18.671875 C8.86015625,18.671875 8.86015625,16.7085937 8.86015625,16.7085937 L8.86015625,16.7085937 Z M13.7453125,16.7085937 C13.7453125,16.7085937 15.7085938,16.7085937 15.7085938,16.7085937 C15.7085938,16.7085937 15.7085938,18.671875 15.7085938,18.671875 C15.7085938,18.671875 13.7453125,18.671875 13.7453125,18.671875 C13.7453125,18.671875 13.7453125,16.7085937 13.7453125,16.7085937 L13.7453125,16.7085937 Z M3.92734375,11.8234375 C3.92734375,11.8234375 5.890625,11.8234375 5.890625,11.8234375 C5.890625,11.8234375 5.890625,13.7867188 5.890625,13.7867188 C5.890625,13.7867188 3.92734375,13.7867188 3.92734375,13.7867188 C3.92734375,13.7867188 3.92734375,11.8234375 3.92734375,11.8234375 Z M8.86015625,11.8234375 C8.86015625,11.8234375 10.8234375,11.8234375 10.8234375,11.8234375 C10.8234375,11.8234375 10.8234375,13.7867188 10.8234375,13.7867188 C10.8234375,13.7867188 8.86015625,13.7867188 8.86015625,13.7867188 C8.86015625,13.7867188 8.86015625,11.8234375 8.86015625,11.8234375 Z"/>
  <title>Calendar</title>
</svg>