<svg xmlns="http://www.w3.org/2000/svg" viewBox="0 0 25 25" id="camera">
  <path d="M22.5585938,4.921875 C22.5585938,4.921875 22.5585938,4.921875 22.5585938,4.921875 C22.5585938,4.921875 18.6789062,4.921875 18.6789062,4.921875 C18.6789062,4.921875 18.1039062,3.5328125 18.1039062,3.5328125 C17.7210937,2.52734375 16.9546875,2 15.853125,2 C15.853125,2 15.853125,2 15.853125,2 C15.853125,2 8.66953125,2 8.66953125,2 C7.56796875,2 6.8015625,2.5265625 6.41875,3.5328125 C6.41875,3.5328125 6.41875,3.5328125 6.41875,3.5328125 C6.41875,3.5328125 5.84375,4.921875 5.84375,4.921875 C5.84375,4.921875 1.9640625,4.921875 1.9640625,4.921875 C1.4375,4.921875 0.95859375,5.11328125 0.575,5.496875 C0.19140625,5.88046875 0,6.35859375 0,6.8859375 C0,6.8859375 0,6.8859375 0,6.8859375 C0,6.8859375 0,20.63125 0,20.63125 C0,21.1578125 0.19140625,21.6367187 0.575,22.0203125 C0.95859375,22.4039062 1.43671875,22.5953125 1.9640625,22.5953125 C1.9640625,22.5953125 1.9640625,22.5953125 1.9640625,22.5953125 C1.9640625,22.5953125 22.5578125,22.5953125 22.5578125,22.5953125 C23.084375,22.5953125 23.5632812,22.4039062 23.946875,22.0203125 C24.3304687,21.6367187 24.521875,21.1585937 24.521875,20.63125 C24.521875,20.63125 24.521875,20.63125 24.521875,20.63125 C24.521875,20.63125 24.521875,6.8859375 24.521875,6.8859375 C24.521875,6.359375 24.3304687,5.88046875 23.946875,5.496875 C23.5632812,5.11328125 23.0851562,4.921875 22.5578125,4.921875 L22.5585938,4.921875 Z M23.5640625,6.88515625 C23.5640625,6.88515625 23.5640625,20.6304687 23.5640625,20.6304687 C23.5640625,20.8695313 23.4679688,21.109375 23.2765625,21.3007812 C23.0375,21.5398438 22.7976563,21.6359375 22.5578125,21.6359375 C22.5578125,21.6359375 22.5578125,21.6359375 22.5578125,21.6359375 C22.5578125,21.6359375 1.9640625,21.6359375 1.9640625,21.6359375 C1.725,21.6359375 1.48515625,21.5398437 1.29375,21.3007812 C1.0546875,21.109375 0.95859375,20.8695313 0.95859375,20.6304687 C0.95859375,20.6304687 0.95859375,20.6304687 0.95859375,20.6304687 C0.95859375,20.6304687 0.95859375,6.88515625 0.95859375,6.88515625 C0.95859375,6.64609375 1.0546875,6.40625 1.29375,6.21484375 C1.48515625,6.0234375 1.725,5.92734375 1.9640625,5.92734375 C1.9640625,5.92734375 1.9640625,5.92734375 1.9640625,5.92734375 C1.9640625,5.92734375 6.5140625,5.92734375 6.5140625,5.92734375 C6.5140625,5.92734375 7.328125,3.915625 7.328125,3.915625 C7.5671875,3.29296875 7.9984375,2.9578125 8.66875,2.9578125 C8.66875,2.9578125 8.66875,2.9578125 8.66875,2.9578125 C8.66875,2.9578125 15.8523438,2.9578125 15.8523438,2.9578125 C16.5226563,2.9578125 16.9539062,3.29296875 17.1929688,3.915625 C17.1929688,3.915625 17.1929688,3.915625 17.1929688,3.915625 C17.1929688,3.915625 18.0070313,5.92734375 18.0070313,5.92734375 C18.0070313,5.92734375 22.5570313,5.92734375 22.5570313,5.92734375 C22.7960938,5.92734375 23.0359375,6.0234375 23.2757813,6.21484375 C23.4671875,6.40625 23.5632813,6.64609375 23.5632813,6.88515625 C23.5632813,6.88515625 23.5632813,6.88515625 23.5632813,6.88515625 L23.5640625,6.88515625 Z M16.0929688,9.471875 C15.0390625,8.41796875 13.7460938,7.89140625 12.2617188,7.89140625 C10.7773438,7.89140625 9.48359375,8.41796875 8.43046875,9.471875 C7.3765625,10.5257812 6.85,11.7710937 6.85,13.2554688 C6.85,13.2554688 6.85,13.2554688 6.85,13.2554688 C6.85,14.7398437 7.3765625,16.0335937 8.43046875,17.0867187 C9.484375,18.1398437 10.7773438,18.6671875 12.2617188,18.6671875 C13.7460938,18.6671875 15.0398438,18.140625 16.0929688,17.0867187 C17.1460938,16.0328125 17.6734375,14.7398437 17.6734375,13.2554688 C17.6734375,13.2554688 17.6734375,13.2554688 17.6734375,13.2554688 C17.6734375,11.7710938 17.146875,10.5257813 16.0929688,9.471875 Z M15.3742187,16.3679687 C14.5125,17.278125 13.4585937,17.7085937 12.2609375,17.7085937 C11.0632812,17.7085937 10.0101562,17.2773438 9.14765625,16.3679687 C8.2859375,15.50625 7.8546875,14.4523437 7.8546875,13.2546875 C7.8546875,12.0570313 8.2859375,11.0039062 9.14765625,10.1414063 C10.009375,9.2796875 11.0632812,8.8484375 12.2609375,8.8484375 C13.4585937,8.8484375 14.5117187,9.2796875 15.3742187,10.1414063 C16.2359375,11.003125 16.6671875,12.0570313 16.6671875,13.2546875 C16.6671875,14.4523437 16.2359375,15.5054687 15.3742187,16.3679687 Z"/>
  <title>Camera</title>
</svg>