<svg xmlns="http://www.w3.org/2000/svg" viewBox="0 0 25 25" id="cancel">
  <path d="M20.9296875,3.5921875 C18.5351562,1.19765625 15.6617188,0 12.2609375,0 C8.86015625,0 5.98671875,1.19765625 3.5921875,3.5921875 C1.19765625,5.98671875 0,8.86015625 0,12.2609375 C0,15.6617188 1.19765625,18.5351563 3.5921875,20.9296875 C5.98671875,23.3242188 8.86015625,24.521875 12.2609375,24.521875 C15.6617188,24.521875 18.5351563,23.3242188 20.9296875,20.9296875 C23.3242188,18.5351563 24.521875,15.6617188 24.521875,12.2609375 C24.521875,8.86015625 23.3242188,5.98671875 20.9296875,3.5921875 Z M12.2617188,23.515625 C12.2617188,23.515625 12.2617188,23.515625 12.2617188,23.515625 C9.1484375,23.515625 6.46640625,22.4140625 4.26328125,20.2109375 C2.06015625,18.0078125 0.95859375,15.3734375 0.95859375,12.2609375 C0.95859375,12.2609375 0.95859375,12.2609375 0.95859375,12.2609375 C0.95859375,9.33984375 1.9640625,6.80078125 3.97578125,4.64609375 C3.97578125,4.64609375 3.97578125,4.64609375 3.97578125,4.64609375 C3.97578125,4.64609375 19.8757813,20.5460938 19.8757813,20.5460938 C17.7203125,22.509375 15.1820313,23.515625 12.2609375,23.515625 L12.2617188,23.515625 Z M20.546875,19.8757812 C20.546875,19.8757812 20.546875,19.8757812 20.546875,19.8757812 C20.546875,19.8757812 4.646875,3.97578125 4.646875,3.97578125 C6.80234375,1.9640625 9.340625,0.95859375 12.2617187,0.95859375 C12.2617187,0.95859375 12.2617187,0.95859375 12.2617187,0.95859375 C15.375,0.95859375 18.0570312,2.06015625 20.2601562,4.26328125 C22.4632812,6.5140625 23.5648437,9.1484375 23.5648437,12.2617188 C23.5648437,12.2617188 23.5648437,12.2617188 23.5648437,12.2617188 C23.5648437,15.1828125 22.559375,17.721875 20.5476562,19.8765625 L20.546875,19.8757812 Z"/>
  <title>Cancel</title>
</svg>