<svg xmlns="http://www.w3.org/2000/svg" viewBox="0 0 25 25" id="car-solid">
  <path d="M24.5203125,15.2914063 C24.5203125,15.2914063 24.5203125,15.1 24.5203125,15.1 C24.5203125,15.1 24.1375,12.465625 24.1375,12.465625 C23.99375,11.746875 23.6585937,11.125 23.1320312,10.6460937 C22.6054687,10.1671875 21.934375,9.92734375 21.2164062,9.92734375 C21.2164062,9.92734375 21.2164062,9.92734375 21.2164062,9.92734375 C21.2164062,9.92734375 19.253125,9.92734375 19.253125,9.92734375 C18.9179688,9.92734375 18.534375,9.78359375 18.1992188,9.49609375 C18.1992188,9.49609375 18.1992188,9.49609375 18.1992188,9.49609375 C18.1992188,9.49609375 15.5648437,6.86171875 15.5648437,6.86171875 C14.9898437,6.28671875 14.3195312,6 13.5054688,6 C13.5054688,6 13.5054688,6 13.5054688,6 C13.5054688,6 6.8484375,6 6.8484375,6 C5.3640625,6 3.975,6.6703125 2.77734375,7.96328125 C1.5796875,9.30390625 0.9578125,10.9328125 0.9578125,12.8484375 C0.9578125,12.8484375 0.9578125,12.8484375 0.9578125,12.8484375 C0.9578125,12.8484375 0.9578125,15.8179688 0.9578125,15.8179688 C0.9578125,15.8179688 0.47890625,15.8179688 0.47890625,15.8179688 C0.14375,15.8179688 0,15.9617188 0,16.296875 C0,16.6320313 0.14375,16.7757813 0.47890625,16.7757813 C0.47890625,16.7757813 0.47890625,16.7757813 0.47890625,16.7757813 C0.47890625,16.7757813 3.975,16.7757813 3.975,16.7757813 C4.11875,17.3507813 4.40625,17.8296875 4.83671875,18.1648437 C5.26796875,18.5476562 5.746875,18.7398437 6.36953125,18.7398437 C6.9921875,18.7398437 7.51875,18.5484375 7.95,18.1648437 C8.38125,17.8296875 8.6203125,17.3507812 8.7640625,16.7757813 C8.7640625,16.7757813 8.7640625,16.7757813 8.7640625,16.7757813 C8.7640625,16.7757813 16.7140625,16.7757813 16.7140625,16.7757813 C16.8578125,17.3507813 17.1453125,17.8296875 17.5757812,18.1648437 C18.0070313,18.5476562 18.5335937,18.7398437 19.1085938,18.7398437 C19.1085938,18.7398437 19.1085938,18.7398437 19.1085938,18.7398437 C19.73125,18.7398437 20.2578125,18.5484375 20.6890625,18.1648437 C21.1203125,17.8296875 21.4078125,17.3507812 21.503125,16.7757813 C21.503125,16.7757813 21.503125,16.7757813 21.503125,16.7757813 C21.503125,16.7757813 23.0359375,16.7757813 23.0359375,16.7757813 C23.4671875,16.7757813 23.8023438,16.6320313 24.0898438,16.3445313 C24.3773438,16.0570313 24.5210937,15.721875 24.5210937,15.290625 C24.5210937,15.290625 24.5210937,15.290625 24.5210937,15.290625 L24.5203125,15.2914063 Z M6.84765625,9.92734375 C6.84765625,9.92734375 2.6328125,9.92734375 2.6328125,9.92734375 C3.446875,8.1078125 4.88359375,7.1015625 6.84765625,6.9578125 C6.84765625,6.9578125 6.84765625,6.9578125 6.84765625,6.9578125 C6.84765625,6.9578125 6.84765625,9.92734375 6.84765625,9.92734375 Z M7.42265625,17.3507813 C7.13515625,17.6382812 6.8,17.7820312 6.36875,17.7820312 C5.9375,17.7820312 5.60234375,17.6382812 5.31484375,17.3507813 C5.02734375,17.0632813 4.88359375,16.728125 4.88359375,16.296875 C4.88359375,15.865625 5.02734375,15.5304687 5.31484375,15.2429688 C5.60234375,14.9554688 5.9375,14.8117188 6.36875,14.8117188 C6.8,14.8117188 7.13515625,14.9554688 7.42265625,15.2429688 C7.71015625,15.5304687 7.85390625,15.865625 7.85390625,16.296875 C7.85390625,16.728125 7.71015625,17.0632813 7.42265625,17.3507813 Z M13.2179688,13.8546875 C13.2179688,13.8546875 13.2179688,13.8546875 13.2179688,13.8546875 C13.2179688,13.8546875 11.3023437,13.8546875 11.3023437,13.8546875 C10.9671875,13.8546875 10.7757812,13.6632813 10.7757812,13.328125 C10.7757812,13.328125 10.7757812,13.328125 10.7757812,13.328125 C10.7757812,12.9929688 10.9671875,12.8492188 11.3023437,12.8492188 C11.3023437,12.8492188 11.3023437,12.8492188 11.3023437,12.8492188 C11.3023437,12.8492188 13.2179688,12.8492188 13.2179688,12.8492188 C13.553125,12.8492188 13.7445312,12.9929688 13.7445312,13.328125 C13.7445312,13.328125 13.7445312,13.328125 13.7445312,13.328125 C13.7445312,13.6632813 13.553125,13.8546875 13.2179688,13.8546875 Z M17.240625,9.92734375 C17.240625,9.92734375 7.85390625,9.92734375 7.85390625,9.92734375 C7.85390625,9.92734375 7.85390625,6.9578125 7.85390625,6.9578125 C7.85390625,6.9578125 13.5054688,6.9578125 13.5054688,6.9578125 C13.984375,6.9578125 14.4632812,7.14921875 14.8945312,7.5328125 C14.8945312,7.5328125 14.8945312,7.5328125 14.8945312,7.5328125 C14.8945312,7.5328125 17.2414063,9.92734375 17.2414063,9.92734375 L17.240625,9.92734375 Z M20.1617188,17.3507813 C19.8742188,17.6382812 19.5390625,17.7820312 19.1078125,17.7820312 C18.6765625,17.7820312 18.3414062,17.6382812 18.1023437,17.3507813 C17.8148438,17.0632813 17.6710938,16.728125 17.6710938,16.296875 C17.6710938,15.865625 17.8148438,15.5304687 18.1023437,15.2429688 C18.3414063,14.9554688 18.6773438,14.8117188 19.1078125,14.8117188 C19.5382813,14.8117188 19.8742188,14.9554688 20.1617188,15.2429688 C20.4492188,15.5304687 20.5929688,15.865625 20.5929688,16.296875 C20.5929688,16.728125 20.4492188,17.0632813 20.1617188,17.3507813 Z"/>
  <title>Car Solid</title>
</svg>