<svg xmlns="http://www.w3.org/2000/svg" viewBox="0 0 25 25" id="car">
  <path d="M24.5203125,15.3390625 C24.5203125,15.3390625 24.5203125,15.1 24.5203125,15.1 C24.5203125,15.1 24.1375,12.465625 24.1375,12.465625 C23.99375,11.746875 23.6585937,11.125 23.1320312,10.6460938 C22.6054687,10.1671875 21.934375,9.92734375 21.2164062,9.92734375 C21.2164062,9.92734375 21.2164062,9.92734375 21.2164062,9.92734375 C21.2164062,9.92734375 19.253125,9.92734375 19.253125,9.92734375 C18.821875,9.92734375 18.4867187,9.78359375 18.1992188,9.49609375 C18.1992188,9.49609375 18.1992188,9.49609375 18.1992188,9.49609375 C18.1992188,9.49609375 15.5648437,6.86171875 15.5648437,6.86171875 C14.9898437,6.28671875 14.3195312,6 13.5054688,6 C13.5054688,6 13.5054688,6 13.5054688,6 C13.5054688,6 6.8484375,6 6.8484375,6 C5.3640625,6 3.975,6.6703125 2.77734375,8.01171875 C1.5796875,9.353125 0.9578125,10.98125 0.9578125,12.896875 C0.9578125,12.896875 0.9578125,12.896875 0.9578125,12.896875 C0.9578125,12.896875 0.9578125,15.8179688 0.9578125,15.8179688 C0.9578125,15.8179688 0.47890625,15.8179688 0.47890625,15.8179688 C0.14375,15.8179688 0,15.9617187 0,16.296875 C0,16.296875 0,16.296875 0,16.296875 C0,16.6320312 0.14375,16.8234375 0.47890625,16.8234375 C0.47890625,16.8234375 0.47890625,16.8234375 0.47890625,16.8234375 C0.47890625,16.8234375 3.975,16.8234375 3.975,16.8234375 C4.11875,17.3984375 4.40625,17.8773438 4.83671875,18.2125 C5.26796875,18.5953125 5.79453125,18.7875 6.36953125,18.7875 C6.94453125,18.7875 7.47109375,18.5960937 7.90234375,18.2125 C8.33359375,17.8773438 8.62109375,17.3984375 8.7640625,16.8234375 C8.7640625,16.8234375 8.7640625,16.8234375 8.7640625,16.8234375 C8.7640625,16.8234375 16.7140625,16.8234375 16.7140625,16.8234375 C16.8578125,17.35 17.1453125,17.8289062 17.5757812,18.2125 C18.00625,18.5960937 18.5335937,18.7875 19.1085938,18.7875 C19.1085938,18.7875 19.1085938,18.7875 19.1085938,18.7875 C19.73125,18.7875 20.2578125,18.5960937 20.6890625,18.2125 C21.1203125,17.8289062 21.4078125,17.3507812 21.503125,16.8234375 C21.503125,16.8234375 21.503125,16.8234375 21.503125,16.8234375 C21.503125,16.8234375 23.0359375,16.8234375 23.0359375,16.8234375 C23.4671875,16.8234375 23.8023438,16.6796875 24.0898438,16.3921875 C24.3773438,16.1046875 24.5210937,15.7695312 24.5210937,15.3382812 C24.5210937,15.3382812 24.5210937,15.3382812 24.5210937,15.3382812 L24.5203125,15.3390625 Z M7.85390625,9.92734375 C7.85390625,9.92734375 7.85390625,7.00625 7.85390625,7.00625 C7.85390625,7.00625 13.5054688,7.00625 13.5054688,7.00625 C14.0320312,7.00625 14.5109375,7.19765625 14.8945312,7.58125 C14.8945312,7.58125 14.8945312,7.58125 14.8945312,7.58125 C14.8945312,7.58125 17.2414063,9.928125 17.2414063,9.928125 C17.2414063,9.928125 7.8546875,9.928125 7.8546875,9.928125 L7.85390625,9.92734375 Z M6.84765625,7.00546875 C6.84765625,7.00546875 6.84765625,7.00546875 6.84765625,7.00546875 C6.84765625,7.00546875 6.84765625,9.9265625 6.84765625,9.9265625 C6.84765625,9.9265625 2.6328125,9.9265625 2.6328125,9.9265625 C3.446875,8.1546875 4.88359375,7.1484375 6.84765625,7.00546875 Z M7.42265625,17.35 C7.13515625,17.6375 6.8,17.78125 6.36875,17.78125 C5.9375,17.78125 5.60234375,17.6375 5.31484375,17.35 C5.02734375,17.0625 4.88359375,16.7273437 4.88359375,16.2960937 C4.88359375,15.8648437 5.02734375,15.5296875 5.31484375,15.2421875 C5.60234375,15.003125 5.9375,14.859375 6.36875,14.859375 C6.8,14.859375 7.13515625,15.003125 7.42265625,15.2421875 C7.71015625,15.5296875 7.85390625,15.8648437 7.85390625,16.2960937 C7.85390625,16.7273437 7.71015625,17.0625 7.42265625,17.35 Z M20.1617188,17.35 C19.8742188,17.6375 19.5390625,17.78125 19.1078125,17.78125 C18.6765625,17.78125 18.3414062,17.6375 18.1023437,17.35 C17.8148438,17.0625 17.6710938,16.7273437 17.6710938,16.2960937 C17.6710938,15.8648437 17.8148438,15.5296875 18.1023437,15.2421875 C18.3414063,15.003125 18.6773438,14.859375 19.1078125,14.859375 C19.5382813,14.859375 19.8742188,15.003125 20.1617188,15.2421875 C20.4492188,15.5296875 20.5929688,15.8648437 20.5929688,16.2960937 C20.5929688,16.7273437 20.4492188,17.0625 20.1617188,17.35 Z M23.5625,15.3390625 C23.5625,15.4828125 23.5148437,15.578125 23.41875,15.6742187 C23.3226562,15.7703125 23.1796875,15.8179687 23.0359375,15.8179687 C23.0359375,15.8179687 23.0359375,15.8179687 23.0359375,15.8179687 C23.0359375,15.8179687 21.5515625,15.8179687 21.5515625,15.8179687 C21.4078125,15.2914062 21.1203125,14.8125 20.6898437,14.4289063 C20.259375,14.0453125 19.7320312,13.8539062 19.109375,13.8539062 C19.109375,13.8539062 19.109375,13.8539062 19.109375,13.8539062 C18.534375,13.8539062 18.0078125,14.0453125 17.5765625,14.4289063 C17.1453125,14.8125 16.8578125,15.290625 16.7148437,15.8179687 C16.7148437,15.8179687 16.7148437,15.8179687 16.7148437,15.8179687 C16.7148437,15.8179687 8.76484375,15.8179687 8.76484375,15.8179687 C8.62109375,15.2429687 8.33359375,14.7640625 7.903125,14.38125 C7.471875,14.0460938 6.9453125,13.8546875 6.3703125,13.8546875 C5.7953125,13.8546875 5.26875,14.0460938 4.8375,14.38125 C4.40625,14.7640625 4.11875,15.2429688 3.97578125,15.8179687 C3.97578125,15.8179687 3.97578125,15.8179687 3.97578125,15.8179687 C3.97578125,15.8179687 1.9640625,15.8179687 1.9640625,15.8179687 C1.9640625,15.8179687 1.9640625,12.896875 1.9640625,12.896875 C1.9640625,12.178125 2.06015625,11.5078125 2.2515625,10.8851562 C2.2515625,10.8851562 2.2515625,10.8851562 2.2515625,10.8851562 C2.2515625,10.8851562 21.2171875,10.9328125 21.2171875,10.9328125 C21.6960937,10.9328125 22.1273437,11.0765625 22.5101563,11.4117187 C22.8453125,11.746875 23.0851562,12.1304688 23.1328125,12.609375 C23.1328125,12.609375 23.1328125,12.609375 23.1328125,12.609375 C23.1328125,12.609375 23.515625,15.24375 23.515625,15.24375 C23.515625,15.24375 23.5632812,15.2914062 23.5632812,15.2914062 C23.5632812,15.2914062 23.5632812,15.3390625 23.5632812,15.3390625 L23.5625,15.3390625 Z M13.2179688,12.8960937 C13.553125,12.8960937 13.7445312,13.0398437 13.7445312,13.375 C13.7445312,13.7101562 13.553125,13.8539062 13.2179688,13.8539062 C13.2179688,13.8539062 13.2179688,13.8539062 13.2179688,13.8539062 C13.2179688,13.8539062 11.3023437,13.8539062 11.3023437,13.8539062 C10.9671875,13.8539062 10.7757812,13.7101562 10.7757812,13.375 C10.7757812,13.0398437 10.9671875,12.8960937 11.3023437,12.8960937 C11.3023437,12.8960937 11.3023437,12.8960937 11.3023437,12.8960937 C11.3023437,12.8960937 13.2179688,12.8960937 13.2179688,12.8960937 Z"/>
  <title>Car</title>
</svg>