<svg xmlns="http://www.w3.org/2000/svg" viewBox="0 0 25 25" id="card-stack">
  <path d="M23.0367187,2 C23.0367187,2 23.0367187,2 23.0367187,2 C23.0367187,2 1.48515625,2 1.48515625,2 C1.05390625,2 0.71875,2.14375 0.43125,2.43125 C0.14375,2.71875 0,3.05390625 0,3.48515625 C0,3.48515625 0,3.48515625 0,3.48515625 C0,3.48515625 0,12.2976563 0,12.2976563 C0,12.7289062 0.14375,13.0640625 0.43125,13.3515625 C0.71875,13.6390625 1.05390625,13.7828125 1.48515625,13.7828125 C1.48515625,13.7828125 1.48515625,13.7828125 1.48515625,13.7828125 C1.48515625,13.7828125 23.0367187,13.7828125 23.0367187,13.7828125 C23.4679687,13.7828125 23.803125,13.6390625 24.090625,13.3515625 C24.378125,13.0640625 24.521875,12.7289062 24.521875,12.2976563 C24.521875,12.2976563 24.521875,12.2976563 24.521875,12.2976563 C24.521875,12.2976563 24.521875,3.48515625 24.521875,3.48515625 C24.521875,3.05390625 24.378125,2.71875 24.090625,2.43125 C23.803125,2.14375 23.4679687,2 23.0367187,2 Z M23.5632813,3.48515625 C23.5632813,3.48515625 23.5632813,12.2976563 23.5632813,12.2976563 C23.5632813,12.6328125 23.371875,12.7765625 23.0367188,12.7765625 C23.0367188,12.7765625 23.0367188,12.7765625 23.0367188,12.7765625 C23.0367188,12.7765625 1.48515625,12.7765625 1.48515625,12.7765625 C1.15,12.7765625 0.95859375,12.6328125 0.95859375,12.2976563 C0.95859375,12.2976563 0.95859375,12.2976563 0.95859375,12.2976563 C0.95859375,12.2976563 0.95859375,3.48515625 0.95859375,3.48515625 C0.95859375,3.15 1.15,2.95859375 1.48515625,2.95859375 C1.48515625,2.95859375 1.48515625,2.95859375 1.48515625,2.95859375 C1.48515625,2.95859375 23.0367188,2.95859375 23.0367188,2.95859375 C23.371875,2.95859375 23.5632813,3.15 23.5632813,3.48515625 C23.5632813,3.48515625 23.5632813,3.48515625 23.5632813,3.48515625 Z M22.0789062,15.7453125 C22.4140625,15.7453125 22.5578125,15.8890625 22.5578125,16.2242187 C22.5578125,16.559375 22.4140625,16.703125 22.0789062,16.703125 C22.0789062,16.703125 22.0789062,16.703125 22.0789062,16.703125 C22.0789062,16.703125 2.44296875,16.703125 2.44296875,16.703125 C2.1078125,16.703125 1.9640625,16.559375 1.9640625,16.2242187 C1.9640625,15.8890625 2.1078125,15.7453125 2.44296875,15.7453125 C2.44296875,15.7453125 2.44296875,15.7453125 2.44296875,15.7453125 C2.44296875,15.7453125 22.0789062,15.7453125 22.0789062,15.7453125 Z M20.59375,19.1460937 C20.59375,19.1460937 20.59375,19.1460937 20.59375,19.1460937 C20.59375,19.48125 20.45,19.6726562 20.1148437,19.6726562 C20.1148437,19.6726562 20.1148437,19.6726562 20.1148437,19.6726562 C20.1148437,19.6726562 4.40625,19.6726562 4.40625,19.6726562 C4.07109375,19.6726562 3.92734375,19.48125 3.92734375,19.1460937 C3.92734375,19.1460937 3.92734375,19.1460937 3.92734375,19.1460937 C3.92734375,18.8109375 4.07109375,18.6671875 4.40625,18.6671875 C4.40625,18.6671875 4.40625,18.6671875 4.40625,18.6671875 C4.40625,18.6671875 20.1148437,18.6671875 20.1148437,18.6671875 C20.45,18.6671875 20.59375,18.8109375 20.59375,19.1460937 Z M18.1515625,21.6367188 C18.4867188,21.6367188 18.6304687,21.7804688 18.6304687,22.115625 C18.6304687,22.4507812 18.4867188,22.5945312 18.1515625,22.5945312 C18.1515625,22.5945312 18.1515625,22.5945312 18.1515625,22.5945312 C18.1515625,22.5945312 6.3703125,22.5945312 6.3703125,22.5945312 C6.03515625,22.5945312 5.89140625,22.4507812 5.89140625,22.115625 C5.89140625,21.7804688 6.03515625,21.6367188 6.3703125,21.6367188 C6.3703125,21.6367188 6.3703125,21.6367188 6.3703125,21.6367188 C6.3703125,21.6367188 18.1515625,21.6367188 18.1515625,21.6367188 Z"/>
  <title>Card Stack</title>
</svg>