<svg xmlns="http://www.w3.org/2000/svg" viewBox="0 0 25 25" id="card-stack-solid">
  <path d="M24.521875,3.48515625 C24.521875,3.48515625 24.521875,3.48515625 24.521875,3.48515625 C24.521875,3.48515625 24.521875,12.2976563 24.521875,12.2976563 C24.521875,12.7289062 24.378125,13.0640625 24.090625,13.3515625 C23.803125,13.6390625 23.4679688,13.7828125 23.0367188,13.7828125 C23.0367188,13.7828125 23.0367188,13.7828125 23.0367188,13.7828125 C23.0367188,13.7828125 1.48515625,13.7828125 1.48515625,13.7828125 C1.05390625,13.7828125 0.71875,13.6390625 0.43125,13.3515625 C0.14375,13.0640625 0,12.7289062 0,12.2976563 C0,12.2976563 0,12.2976563 0,12.2976563 C0,12.2976563 0,3.48515625 0,3.48515625 C0,3.05390625 0.14375,2.71875 0.43125,2.43125 C0.71875,2.14375 1.05390625,2 1.48515625,2 C1.48515625,2 1.48515625,2 1.48515625,2 C1.48515625,2 23.0367188,2 23.0367188,2 C23.4679688,2 23.803125,2.14375 24.090625,2.43125 C24.378125,2.71875 24.521875,3.05390625 24.521875,3.48515625 Z M22.0796875,15.7453125 C22.0796875,15.7453125 22.0796875,15.7453125 22.0796875,15.7453125 C22.0796875,15.7453125 2.44375,15.7453125 2.44375,15.7453125 C2.10859375,15.7453125 1.96484375,15.8890625 1.96484375,16.2242187 C1.96484375,16.559375 2.10859375,16.703125 2.44375,16.703125 C2.44375,16.703125 2.44375,16.703125 2.44375,16.703125 C2.44375,16.703125 22.0796875,16.703125 22.0796875,16.703125 C22.4148437,16.703125 22.5585938,16.559375 22.5585938,16.2242187 C22.5585938,15.8890625 22.4148437,15.7453125 22.0796875,15.7453125 Z M20.115625,18.6671875 C20.115625,18.6671875 20.115625,18.6671875 20.115625,18.6671875 C20.115625,18.6671875 4.40703125,18.6671875 4.40703125,18.6671875 C4.071875,18.6671875 3.928125,18.8109375 3.928125,19.1460937 C3.928125,19.1460937 3.928125,19.1460937 3.928125,19.1460937 C3.928125,19.48125 4.071875,19.6726562 4.40703125,19.6726562 C4.40703125,19.6726562 4.40703125,19.6726562 4.40703125,19.6726562 C4.40703125,19.6726562 20.115625,19.6726562 20.115625,19.6726562 C20.4507812,19.6726562 20.5945313,19.48125 20.5945313,19.1460937 C20.5945313,19.1460937 20.5945313,19.1460937 20.5945313,19.1460937 C20.5945313,18.8109375 20.4507812,18.6671875 20.115625,18.6671875 Z M18.1523438,21.6367188 C18.1523438,21.6367188 18.1523438,21.6367188 18.1523438,21.6367188 C18.1523438,21.6367188 6.37109375,21.6367188 6.37109375,21.6367188 C6.0359375,21.6367188 5.8921875,21.7804688 5.8921875,22.115625 C5.8921875,22.4507812 6.0359375,22.5945312 6.37109375,22.5945312 C6.37109375,22.5945312 6.37109375,22.5945312 6.37109375,22.5945312 C6.37109375,22.5945312 18.1523438,22.5945312 18.1523438,22.5945312 C18.4875,22.5945312 18.63125,22.4507812 18.63125,22.115625 C18.63125,21.7804688 18.4875,21.6367188 18.1523438,21.6367188 Z"/>
  <title>Card Stack Solid</title>
</svg>