<svg xmlns="http://www.w3.org/2000/svg" viewBox="0 0 25 25" id="caret-right">
  <path d="M16.5726562,12.4882812 C16.5726562,12.4882812 9.72421875,21.3484375 9.72421875,21.3484375 C9.72421875,21.3484375 9.58046875,21.4921875 9.58046875,21.4921875 C9.3890625,21.5882813 9.19765625,21.6359375 9.00546875,21.6359375 C9.00546875,21.6359375 9.00546875,21.6359375 9.00546875,21.6359375 C8.33515625,21.6359375 8,21.3007813 8,20.678125 C8,20.678125 8,20.678125 8,20.678125 C8,20.534375 8.09609375,20.3429688 8.2390625,20.0078125 C8.2390625,20.0078125 8.2390625,20.0078125 8.2390625,20.0078125 C8.2390625,20.0078125 14.2257813,11.8179688 14.2257813,11.8179688 C14.2257813,11.8179688 8.19140625,3.5328125 8.19140625,3.5328125 C8.04765625,3.29375 8,3.1015625 8,2.9578125 C8,2.9578125 8,2.9578125 8,2.9578125 C8,2.33515625 8.33515625,2 9.00546875,2 C9.00546875,2 9.00546875,2 9.00546875,2 C9.196875,2 9.38828125,2.04765625 9.58046875,2.14375 C9.58046875,2.14375 9.58046875,2.14375 9.58046875,2.14375 C9.58046875,2.14375 9.72421875,2.2875 9.72421875,2.2875 C9.72421875,2.2875 16.525,11.1476563 16.525,11.1476563 C16.7164063,11.3390625 16.8125,11.5789062 16.8125,11.8179688 C16.8125,11.8179688 16.8125,11.8179688 16.8125,11.8179688 C16.8125,12.0578125 16.7164062,12.2492188 16.5734375,12.4882812 C16.5734375,12.4882812 16.5734375,12.4882812 16.5734375,12.4882812 L16.5726562,12.4882812 Z"/>
  <title>Caret Right</title>
</svg>