<svg xmlns="http://www.w3.org/2000/svg" viewBox="0 0 25 25" id="caret-2-right">
  <path d="M13.4351563,21.3484375 C13.4351563,21.3484375 13.2914062,21.4921875 13.2914062,21.4921875 C13.1,21.5882813 12.9085938,21.6359375 12.7164062,21.6359375 C12.0460937,21.6359375 11.7109375,21.3007813 11.7109375,20.678125 C11.7109375,20.534375 11.8070313,20.3429688 11.95,20.0078125 C11.95,20.0078125 17.9367188,11.8179688 17.9367188,11.8179688 C17.9367188,11.8179688 11.9023438,3.5328125 11.9023438,3.5328125 C11.7585937,3.29375 11.7109375,3.1015625 11.7109375,2.9578125 C11.7109375,2.33515625 12.0460937,2 12.7164062,2 C12.9078125,2 13.0992187,2.04765625 13.2914062,2.14375 C13.2914062,2.14375 13.4351563,2.2875 13.4351563,2.2875 C13.4351563,2.2875 20.2359375,11.1476563 20.2359375,11.1476563 C20.4273438,11.3390625 20.5234375,11.5789062 20.5234375,11.8179688 C20.5234375,12.0570312 20.4273437,12.2492188 20.284375,12.4882812 C20.284375,12.4882812 13.4359375,21.3484375 13.4359375,21.3484375 L13.4351563,21.3484375 Z M5.72421875,21.3484375 C5.72421875,21.3484375 5.58046875,21.4921875 5.58046875,21.4921875 C5.3890625,21.5882813 5.19765625,21.6359375 5.00546875,21.6359375 C4.33515625,21.6359375 4,21.3007813 4,20.678125 C4,20.534375 4.09609375,20.3429688 4.2390625,20.0078125 C4.2390625,20.0078125 10.2257813,11.8179688 10.2257813,11.8179688 C10.2257813,11.8179688 4.19140625,3.5328125 4.19140625,3.5328125 C4.04765625,3.29375 4,3.1015625 4,2.9578125 C4,2.33515625 4.33515625,2 5.00546875,2 C5.196875,2 5.38828125,2.04765625 5.58046875,2.14375 C5.58046875,2.14375 5.72421875,2.2875 5.72421875,2.2875 C5.72421875,2.2875 12.525,11.1476563 12.525,11.1476563 C12.7164063,11.3390625 12.8125,11.5789062 12.8125,11.8179688 C12.8125,12.0570312 12.7164062,12.2492188 12.5734375,12.4882812 C12.5734375,12.4882812 5.725,21.3484375 5.725,21.3484375 L5.72421875,21.3484375 Z"/>
  <title>Caret 2 Right</title>
</svg>