<svg xmlns="http://www.w3.org/2000/svg" viewBox="0 0 25 25" id="caret-2-left">
  <path d="M11.9023438,12.5367188 C11.7585937,12.2976563 11.6632813,12.1054688 11.6632813,11.8664063 C11.6632813,11.6273437 11.759375,11.3875 11.9507812,11.1960938 C11.9507812,11.1960938 18.7515625,2.3359375 18.7515625,2.3359375 C18.7515625,2.3359375 18.8953125,2.1921875 18.8953125,2.1921875 C19.0867188,2.09609375 19.278125,2.0484375 19.4703125,2.0484375 C20.140625,2.0484375 20.4757813,2.38359375 20.4757813,3.00625 C20.4757813,3.15 20.428125,3.34140625 20.284375,3.58125 C20.284375,3.58125 14.25,11.8664063 14.25,11.8664063 C14.25,11.8664063 20.2367188,20.05625 20.2367188,20.05625 C20.3804688,20.3914063 20.4757813,20.5828125 20.4757813,20.7265625 C20.4757813,21.3492188 20.140625,21.684375 19.4703125,21.684375 C19.2789063,21.684375 19.0875,21.6367188 18.8953125,21.540625 C18.8953125,21.540625 18.7515625,21.396875 18.7515625,21.396875 C18.7515625,21.396875 11.903125,12.5367188 11.903125,12.5367188 L11.9023438,12.5367188 Z M4.2390625,12.4882812 C4.0953125,12.2492188 4,12.0570312 4,11.8179688 C4,11.5789062 4.09609375,11.3390625 4.2875,11.1476563 C4.2875,11.1476563 11.0882813,2.2875 11.0882813,2.2875 C11.0882813,2.2875 11.2320313,2.14375 11.2320313,2.14375 C11.4234375,2.04765625 11.6148438,2 11.8070313,2 C12.4773438,2 12.8125,2.33515625 12.8125,2.9578125 C12.8125,3.1015625 12.7648438,3.29296875 12.6210937,3.5328125 C12.6210937,3.5328125 6.58671875,11.8179688 6.58671875,11.8179688 C6.58671875,11.8179688 12.5734375,20.0078125 12.5734375,20.0078125 C12.7171875,20.3429688 12.8125,20.534375 12.8125,20.678125 C12.8125,21.3007813 12.4773438,21.6359375 11.8070313,21.6359375 C11.615625,21.6359375 11.4242188,21.5882813 11.2320313,21.4921875 C11.2320313,21.4921875 11.0882813,21.3484375 11.0882813,21.3484375 C11.0882813,21.3484375 4.23984375,12.4882812 4.23984375,12.4882812 L4.2390625,12.4882812 Z"/>
  <title>Caret 2 Left</title>
</svg>