<svg xmlns="http://www.w3.org/2000/svg" viewBox="0 0 25 25" id="caret-up">
  <path d="M13.4882812,8.23984375 C13.4882812,8.23984375 22.3484375,15.0882812 22.3484375,15.0882812 C22.3484375,15.0882812 22.4921875,15.2320313 22.4921875,15.2320313 C22.5882813,15.4234375 22.6359375,15.6148437 22.6359375,15.8070313 C22.6359375,15.8070313 22.6359375,15.8070313 22.6359375,15.8070313 C22.6359375,16.4773438 22.3007813,16.8125 21.678125,16.8125 C21.678125,16.8125 21.678125,16.8125 21.678125,16.8125 C21.534375,16.8125 21.3429688,16.7164062 21.0078125,16.5734375 C21.0078125,16.5734375 21.0078125,16.5734375 21.0078125,16.5734375 C21.0078125,16.5734375 12.8179688,10.5867187 12.8179688,10.5867187 C12.8179688,10.5867187 4.5328125,16.6210938 4.5328125,16.6210938 C4.29375,16.7648438 4.1015625,16.8125 3.9578125,16.8125 C3.9578125,16.8125 3.9578125,16.8125 3.9578125,16.8125 C3.33515625,16.8125 3,16.4773438 3,15.8070313 C3,15.8070313 3,15.8070313 3,15.8070313 C3,15.615625 3.04765625,15.4242188 3.14375,15.2320313 C3.14375,15.2320313 3.14375,15.2320313 3.14375,15.2320313 C3.14375,15.2320313 3.2875,15.0882812 3.2875,15.0882812 C3.2875,15.0882812 12.1476563,8.2875 12.1476563,8.2875 C12.3390625,8.09609375 12.5789062,8 12.8179688,8 C12.8179688,8 12.8179688,8 12.8179688,8 C13.0570312,8 13.2492188,8.09609375 13.4882812,8.2390625 C13.4882812,8.2390625 13.4882812,8.2390625 13.4882812,8.2390625 L13.4882812,8.23984375 Z"/>
  <title>Caret Up</title>
</svg>