<svg xmlns="http://www.w3.org/2000/svg" viewBox="0 0 25 25" id="caret-left">
  <path d="M8.23984375,11.1476563 C8.23984375,11.1476563 15.0882812,2.2875 15.0882812,2.2875 C15.0882812,2.2875 15.2320312,2.14375 15.2320312,2.14375 C15.4234375,2.04765625 15.6148437,2 15.8070312,2 C15.8070312,2 15.8070312,2 15.8070312,2 C16.4773437,2 16.8125,2.33515625 16.8125,2.9578125 C16.8125,2.9578125 16.8125,2.9578125 16.8125,2.9578125 C16.8125,3.1015625 16.7164062,3.29296875 16.5734375,3.628125 C16.5734375,3.628125 16.5734375,3.628125 16.5734375,3.628125 C16.5734375,3.628125 10.5867187,11.8179688 10.5867187,11.8179688 C10.5867187,11.8179688 16.6210937,20.103125 16.6210937,20.103125 C16.7648437,20.3421875 16.8125,20.534375 16.8125,20.678125 C16.8125,20.678125 16.8125,20.678125 16.8125,20.678125 C16.8125,21.3007812 16.4773437,21.6359375 15.8070312,21.6359375 C15.8070312,21.6359375 15.8070312,21.6359375 15.8070312,21.6359375 C15.615625,21.6359375 15.4242188,21.5882813 15.2320312,21.4921875 C15.2320312,21.4921875 15.2320312,21.4921875 15.2320312,21.4921875 C15.2320312,21.4921875 15.0882812,21.3484375 15.0882812,21.3484375 C15.0882812,21.3484375 8.2875,12.4882812 8.2875,12.4882812 C8.09609375,12.296875 8,12.0570312 8,11.8179687 C8,11.8179687 8,11.8179687 8,11.8179687 C8,11.5789062 8.09609375,11.3867187 8.2390625,11.1476562 C8.2390625,11.1476562 8.2390625,11.1476562 8.2390625,11.1476562 L8.23984375,11.1476563 Z"/>
  <title>Caret Left</title>
</svg>