<svg xmlns="http://www.w3.org/2000/svg" viewBox="0 0 25 25" id="caret-down">
  <path d="M12.1476563,16.5726562 C12.1476563,16.5726562 3.2875,9.72421875 3.2875,9.72421875 C3.2875,9.72421875 3.14375,9.58046875 3.14375,9.58046875 C3.04765625,9.3890625 3,9.19765625 3,9.00546875 C3,9.00546875 3,9.00546875 3,9.00546875 C3,8.33515625 3.33515625,8 3.9578125,8 C3.9578125,8 3.9578125,8 3.9578125,8 C4.1015625,8 4.29296875,8.09609375 4.628125,8.2390625 C4.628125,8.2390625 4.628125,8.2390625 4.628125,8.2390625 C4.628125,8.2390625 12.8179688,14.2257813 12.8179688,14.2257813 C12.8179688,14.2257813 21.103125,8.19140625 21.103125,8.19140625 C21.3421875,8.04765625 21.534375,8 21.678125,8 C21.678125,8 21.678125,8 21.678125,8 C22.3007813,8 22.6359375,8.33515625 22.6359375,9.00546875 C22.6359375,9.00546875 22.6359375,9.00546875 22.6359375,9.00546875 C22.6359375,9.196875 22.5882813,9.38828125 22.4921875,9.58046875 C22.4921875,9.58046875 22.4921875,9.58046875 22.4921875,9.58046875 C22.4921875,9.58046875 22.3484375,9.72421875 22.3484375,9.72421875 C22.3484375,9.72421875 13.4882812,16.525 13.4882812,16.525 C13.296875,16.7164063 13.0570312,16.8125 12.8179688,16.8125 C12.8179688,16.8125 12.8179688,16.8125 12.8179688,16.8125 C12.5789062,16.8125 12.3867188,16.7164062 12.1476563,16.5734375 C12.1476563,16.5734375 12.1476563,16.5734375 12.1476563,16.5734375 L12.1476563,16.5726562 Z"/>
  <title>Caret Down</title>
</svg>