<svg xmlns="http://www.w3.org/2000/svg" viewBox="0 0 25 25" id="cart-close-solid">
  <path d="M24.4257813,6.11875 C24.4257813,6.11875 24.4257813,6.11875 24.4257813,6.11875 C24.2820313,5.975 24.1867188,5.92734375 24.0429688,5.92734375 C24.0429688,5.92734375 24.0429688,5.92734375 24.0429688,5.92734375 C24.0429688,5.92734375 5.89140625,5.92734375 5.89140625,5.92734375 C5.84375,5.92734375 5.7953125,5.92734375 5.7953125,5.975 C5.7953125,5.975 5.7953125,5.975 5.7953125,5.975 C5.7953125,5.975 5.0765625,3.1015625 5.0765625,3.1015625 C4.8375,2.3828125 4.3578125,2 3.63984375,2 C3.63984375,2 3.63984375,2 3.63984375,2 C3.63984375,2 0.47890625,2 0.47890625,2 C0.14375,2 0,2.19140625 0,2.5265625 C0,2.5265625 0,2.5265625 0,2.5265625 C0,2.86171875 0.14375,3.00546875 0.47890625,3.00546875 C0.47890625,3.00546875 0.47890625,3.00546875 0.47890625,3.00546875 C0.47890625,3.00546875 3.63984375,3.00546875 3.63984375,3.00546875 C3.87890625,3.00546875 4.07109375,3.1015625 4.11875,3.340625 C4.11875,3.340625 4.11875,3.340625 4.11875,3.340625 C4.11875,3.340625 7.8546875,18.33125 7.8546875,18.33125 C7.90234375,18.5703125 8.09375,18.7140625 8.33359375,18.7140625 C8.33359375,18.7140625 8.33359375,18.7140625 8.33359375,18.7140625 C8.33359375,18.7140625 8.38125,18.7140625 8.38125,18.7140625 C8.38125,18.7140625 8.525,18.6664062 8.525,18.6664062 C8.525,18.6664062 7.90234375,19.959375 7.90234375,19.959375 C7.8546875,20.0070312 7.8546875,20.0554687 7.8546875,20.1507812 C7.8546875,20.1507812 7.8546875,20.1507812 7.8546875,20.1507812 C7.8546875,20.4859375 7.9984375,20.6773437 8.33359375,20.6773437 C8.33359375,20.6773437 8.33359375,20.6773437 8.33359375,20.6773437 C8.33359375,20.6773437 20.1148437,20.6773437 20.1148437,20.6773437 C20.45,20.6773437 20.59375,20.4859375 20.59375,20.1507812 C20.59375,20.1507812 20.59375,20.1507812 20.59375,20.1507812 C20.59375,19.815625 20.45,19.671875 20.1148437,19.671875 C20.1148437,19.671875 20.1148437,19.671875 20.1148437,19.671875 C20.1148437,19.671875 9.14765625,19.671875 9.14765625,19.671875 C9.14765625,19.671875 9.67421875,18.5703125 9.67421875,18.5703125 C9.67421875,18.5703125 21.1203125,17.7085937 21.1203125,17.7085937 C21.359375,17.7085937 21.503125,17.6125 21.5515625,17.3734375 C21.5515625,17.3734375 21.5515625,17.3734375 21.5515625,17.3734375 C21.5515625,17.3734375 24.5210937,6.55 24.5210937,6.55 C24.5210937,6.55 24.5210937,6.45390625 24.5210937,6.45390625 C24.5210937,6.3578125 24.4734375,6.2625 24.425,6.11875 L24.4257813,6.11875 Z M15.4703125,12.296875 C15.4703125,12.296875 17.003125,13.8773438 17.003125,13.8773438 C17.0992188,13.9734375 17.146875,14.1164063 17.146875,14.2601562 C17.146875,14.2601562 17.146875,14.2601562 17.146875,14.2601562 C17.146875,14.5953125 17.003125,14.7867187 16.6679688,14.7867187 C16.6679688,14.7867187 16.6679688,14.7867187 16.6679688,14.7867187 C16.5242188,14.7867187 16.4289063,14.7390625 16.2851563,14.5953125 C16.2851563,14.5953125 16.2851563,14.5953125 16.2851563,14.5953125 C16.2851563,14.5953125 14.7046875,13.0625 14.7046875,13.0625 C14.7046875,13.0625 13.171875,14.5953125 13.171875,14.5953125 C13.028125,14.7390625 12.9328125,14.7867187 12.7890625,14.7867187 C12.7890625,14.7867187 12.7890625,14.7867187 12.7890625,14.7867187 C12.4539063,14.7867187 12.2625,14.5953125 12.2625,14.2601562 C12.2625,14.2601562 12.2625,14.2601562 12.2625,14.2601562 C12.2625,14.1164062 12.3101563,13.9726562 12.40625,13.8773438 C12.40625,13.8773438 12.40625,13.8773438 12.40625,13.8773438 C12.40625,13.8773438 13.9867188,12.296875 13.9867188,12.296875 C13.9867188,12.296875 12.40625,10.7640625 12.40625,10.7640625 C12.3101563,10.6679688 12.2625,10.525 12.2625,10.38125 C12.2625,10.38125 12.2625,10.38125 12.2625,10.38125 C12.2625,10.0460937 12.4539063,9.8546875 12.7890625,9.8546875 C12.7890625,9.8546875 12.7890625,9.8546875 12.7890625,9.8546875 C12.9328125,9.8546875 13.0765625,9.90234375 13.171875,9.9984375 C13.171875,9.9984375 13.171875,9.9984375 13.171875,9.9984375 C13.171875,9.9984375 14.7046875,11.5789062 14.7046875,11.5789062 C14.7046875,11.5789062 16.2851563,9.9984375 16.2851563,9.9984375 C16.38125,9.90234375 16.5242188,9.8546875 16.6679688,9.8546875 C16.6679688,9.8546875 16.6679688,9.8546875 16.6679688,9.8546875 C17.003125,9.8546875 17.146875,10.0460937 17.146875,10.38125 C17.146875,10.38125 17.146875,10.38125 17.146875,10.38125 C17.146875,10.525 17.0992188,10.66875 17.003125,10.7640625 C17.003125,10.7640625 17.003125,10.7640625 17.003125,10.7640625 C17.003125,10.7640625 15.4703125,12.296875 15.4703125,12.296875 Z M10.7765625,22.59375 C10.7765625,22.59375 10.7765625,22.59375 10.7765625,22.59375 C10.7765625,22.88125 10.6804687,23.1203125 10.4890625,23.3125 C10.2976562,23.5046875 10.0578125,23.6 9.81875,23.6 C9.81875,23.6 9.81875,23.6 9.81875,23.6 C9.53125,23.6 9.2921875,23.5039062 9.1,23.3125 C8.9078125,23.1210938 8.8125,22.88125 8.8125,22.59375 C8.8125,22.59375 8.8125,22.59375 8.8125,22.59375 C8.8125,22.3546875 8.90859375,22.1148438 9.1,21.9234375 C9.29140625,21.7320312 9.53125,21.6359375 9.81875,21.6359375 C9.81875,21.6359375 9.81875,21.6359375 9.81875,21.6359375 C10.0578125,21.6359375 10.2976562,21.7320313 10.4890625,21.9234375 C10.6804687,22.1148437 10.7765625,22.3546875 10.7765625,22.59375 L10.7765625,22.59375 Z M19.6367188,22.59375 C19.6367188,22.59375 19.6367188,22.59375 19.6367188,22.59375 C19.6367188,22.88125 19.540625,23.1203125 19.3492188,23.3125 C19.1101562,23.5039062 18.8703125,23.6 18.6304687,23.6 C18.390625,23.6 18.1515625,23.5039062 17.9601562,23.3125 C17.76875,23.1210938 17.6726562,22.88125 17.6726562,22.59375 C17.6726562,22.59375 17.6726562,22.59375 17.6726562,22.59375 C17.6726562,22.3546875 17.76875,22.1148438 17.9601562,21.9234375 C18.1515625,21.7320312 18.3914062,21.6359375 18.6304687,21.6359375 C18.8695313,21.6359375 19.109375,21.7320313 19.3492188,21.9234375 C19.540625,22.1148438 19.6367188,22.3546875 19.6367188,22.59375 L19.6367188,22.59375 Z"/>
  <title>Cart Close Solid</title>
</svg>