<svg xmlns="http://www.w3.org/2000/svg" viewBox="0 0 25 25" id="cart">
  <path d="M24.4257813,6.11875 C24.4257813,6.11875 24.4257813,6.11875 24.4257813,6.11875 C24.3296875,5.975 24.1867188,5.92734375 24.0429688,5.92734375 C24.0429688,5.92734375 24.0429688,5.92734375 24.0429688,5.92734375 C24.0429688,5.92734375 5.89140625,5.92734375 5.89140625,5.92734375 C5.89140625,5.92734375 5.7953125,5.92734375 5.7953125,5.92734375 C5.7953125,5.92734375 5.0765625,3.1015625 5.0765625,3.1015625 C4.8375,2.3828125 4.3578125,2 3.63984375,2 C3.63984375,2 3.63984375,2 3.63984375,2 C3.63984375,2 0.47890625,2 0.47890625,2 C0.14375,2 0,2.14375 0,2.47890625 C0,2.8140625 0.14375,2.9578125 0.47890625,2.9578125 C0.47890625,2.9578125 0.47890625,2.9578125 0.47890625,2.9578125 C0.47890625,2.9578125 3.63984375,2.9578125 3.63984375,2.9578125 C3.87890625,2.9578125 4.07109375,3.1015625 4.11875,3.340625 C4.11875,3.340625 4.11875,3.340625 4.11875,3.340625 C4.11875,3.340625 7.8546875,18.2828125 7.8546875,18.2828125 C7.90234375,18.521875 8.09375,18.665625 8.33359375,18.665625 C8.33359375,18.665625 8.33359375,18.665625 8.33359375,18.665625 C8.33359375,18.665625 8.38125,18.665625 8.38125,18.665625 C8.38125,18.665625 8.525,18.665625 8.525,18.665625 C8.525,18.665625 7.90234375,19.9109375 7.90234375,19.9109375 C7.8546875,19.9585938 7.8546875,20.0546875 7.8546875,20.15 C7.8546875,20.15 7.8546875,20.15 7.8546875,20.15 C7.8546875,20.4851562 7.9984375,20.6289062 8.33359375,20.6289062 C8.33359375,20.6289062 8.33359375,20.6289062 8.33359375,20.6289062 C8.33359375,20.6289062 20.1148437,20.6289062 20.1148437,20.6289062 C20.45,20.6289062 20.59375,20.4851562 20.59375,20.15 C20.59375,19.8148438 20.45,19.6710938 20.1148437,19.6710938 C20.1148437,19.6710938 20.1148437,19.6710938 20.1148437,19.6710938 C20.1148437,19.6710938 9.14765625,19.6710938 9.14765625,19.6710938 C9.14765625,19.6710938 9.67421875,18.5695313 9.67421875,18.5695313 C9.67421875,18.5695313 21.1203125,17.7078125 21.1203125,17.7078125 C21.359375,17.6601562 21.503125,17.5164062 21.5515625,17.325 C21.5515625,17.325 21.5515625,17.325 21.5515625,17.325 C21.5515625,17.325 24.5210937,6.54921875 24.5210937,6.54921875 C24.5210937,6.54921875 24.5210937,6.40546875 24.5210937,6.40546875 C24.5210937,6.3578125 24.4734375,6.26171875 24.425,6.11796875 L24.4257813,6.11875 Z M23.3726562,6.88515625 C23.3726562,6.88515625 20.690625,16.7507812 20.690625,16.7507812 C20.690625,16.7507812 8.7171875,17.6609375 8.7171875,17.6609375 C8.7171875,17.6609375 6.03515625,6.88515625 6.03515625,6.88515625 C6.03515625,6.88515625 23.3726562,6.88515625 23.3726562,6.88515625 Z M10.4890625,21.9234375 C10.6804687,22.1148438 10.7765625,22.3546875 10.7765625,22.59375 C10.7765625,22.8328125 10.6804687,23.0726563 10.4890625,23.2640625 C10.2976562,23.4554688 10.0578125,23.5515625 9.81875,23.5515625 C9.81875,23.5515625 9.81875,23.5515625 9.81875,23.5515625 C9.53125,23.5515625 9.2921875,23.4554687 9.1,23.2640625 C8.9078125,23.0726563 8.8125,22.8328125 8.8125,22.59375 C8.8125,22.3546875 8.90859375,22.1148438 9.1,21.9234375 C9.29140625,21.7320312 9.53125,21.6359375 9.81875,21.6359375 C9.81875,21.6359375 9.81875,21.6359375 9.81875,21.6359375 C10.0578125,21.6359375 10.2976562,21.7320313 10.4890625,21.9234375 Z M19.3492188,21.9234375 C19.540625,22.1148438 19.6367188,22.3546875 19.6367188,22.59375 C19.6367188,22.8328125 19.540625,23.0726563 19.3492188,23.2640625 C19.1101562,23.4554688 18.8703125,23.5515625 18.6304687,23.5515625 C18.390625,23.5515625 18.1515625,23.4554687 17.9601562,23.2640625 C17.76875,23.0726563 17.6726562,22.8328125 17.6726562,22.59375 C17.6726562,22.3546875 17.76875,22.1148438 17.9601562,21.9234375 C18.1515625,21.7320312 18.3914062,21.6359375 18.6304687,21.6359375 C18.8695313,21.6359375 19.109375,21.7320313 19.3492188,21.9234375 Z"/>
  <title>Cart</title>
</svg>