<svg xmlns="http://www.w3.org/2000/svg" viewBox="0 0 25 25" id="cart-solid">
  <path d="M24.5210937,6.45390625 C24.5210937,6.45390625 24.5210937,6.55 24.5210937,6.55 C24.5210937,6.55 21.5515625,17.3734375 21.5515625,17.3734375 C21.5039062,17.6125 21.3601562,17.7085937 21.1203125,17.7085937 C21.1203125,17.7085937 21.1203125,17.7085937 21.1203125,17.7085937 C21.1203125,17.7085937 9.67421875,18.5703125 9.67421875,18.5703125 C9.67421875,18.5703125 9.14765625,19.671875 9.14765625,19.671875 C9.14765625,19.671875 20.1148437,19.671875 20.1148437,19.671875 C20.45,19.671875 20.59375,19.815625 20.59375,20.1507812 C20.59375,20.1507812 20.59375,20.1507812 20.59375,20.1507812 C20.59375,20.4859375 20.45,20.6773437 20.1148437,20.6773437 C20.1148437,20.6773437 20.1148437,20.6773437 20.1148437,20.6773437 C20.1148437,20.6773437 8.33359375,20.6773437 8.33359375,20.6773437 C7.9984375,20.6773437 7.8546875,20.4859375 7.8546875,20.1507812 C7.8546875,20.1507812 7.8546875,20.1507812 7.8546875,20.1507812 C7.8546875,20.0546875 7.8546875,20.0070312 7.90234375,19.959375 C7.90234375,19.959375 7.90234375,19.959375 7.90234375,19.959375 C7.90234375,19.959375 8.525,18.6664062 8.525,18.6664062 C8.525,18.6664062 8.38125,18.7140625 8.38125,18.7140625 C8.38125,18.7140625 8.33359375,18.7140625 8.33359375,18.7140625 C8.09453125,18.7140625 7.90234375,18.5703125 7.8546875,18.33125 C7.8546875,18.33125 7.8546875,18.33125 7.8546875,18.33125 C7.8546875,18.33125 4.11875,3.340625 4.11875,3.340625 C4.07109375,3.1015625 3.8796875,3.00546875 3.63984375,3.00546875 C3.63984375,3.00546875 3.63984375,3.00546875 3.63984375,3.00546875 C3.63984375,3.00546875 0.47890625,3.00546875 0.47890625,3.00546875 C0.14375,3.00546875 0,2.86171875 0,2.5265625 C0,2.5265625 0,2.5265625 0,2.5265625 C0,2.19140625 0.14375,2 0.47890625,2 C0.47890625,2 0.47890625,2 0.47890625,2 C0.47890625,2 3.63984375,2 3.63984375,2 C4.35859375,2 4.8375,2.3828125 5.0765625,3.1015625 C5.0765625,3.1015625 5.0765625,3.1015625 5.0765625,3.1015625 C5.0765625,3.1015625 5.7953125,5.975 5.7953125,5.975 C5.7953125,5.92734375 5.84296875,5.92734375 5.89140625,5.92734375 C5.89140625,5.92734375 5.89140625,5.92734375 5.89140625,5.92734375 C5.89140625,5.92734375 24.0429688,5.92734375 24.0429688,5.92734375 C24.378125,5.92734375 24.521875,6.11875 24.521875,6.45390625 C24.521875,6.45390625 24.521875,6.45390625 24.521875,6.45390625 L24.5210937,6.45390625 Z M9.81796875,21.6359375 C9.81796875,21.6359375 9.81796875,21.6359375 9.81796875,21.6359375 C9.53046875,21.6359375 9.29140625,21.7320313 9.09921875,21.9234375 C8.90703125,22.1148437 8.81171875,22.3546875 8.81171875,22.59375 C8.81171875,22.59375 8.81171875,22.59375 8.81171875,22.59375 C8.81171875,22.88125 8.9078125,23.1203125 9.09921875,23.3125 C9.290625,23.5046875 9.53046875,23.6 9.81796875,23.6 C9.81796875,23.6 9.81796875,23.6 9.81796875,23.6 C10.0570313,23.6 10.296875,23.5039062 10.4882813,23.3125 C10.6796875,23.1210938 10.7757813,22.88125 10.7757813,22.59375 C10.7757813,22.59375 10.7757813,22.59375 10.7757813,22.59375 C10.7757813,22.3546875 10.6796875,22.1148437 10.4882813,21.9234375 C10.296875,21.7320312 10.0570313,21.6359375 9.81796875,21.6359375 Z M19.3484375,21.9226562 C19.109375,21.73125 18.8695313,21.6351563 18.6296875,21.6351563 C18.3898437,21.6351563 18.1507813,21.73125 17.959375,21.9226562 C17.7679687,22.1140625 17.671875,22.3539063 17.671875,22.5929688 C17.671875,22.5929688 17.671875,22.5929688 17.671875,22.5929688 C17.671875,22.8804687 17.7679688,23.1195313 17.959375,23.3117188 C18.1507812,23.5039063 18.390625,23.5992188 18.6296875,23.5992188 C18.86875,23.5992188 19.1085938,23.503125 19.3484375,23.3117188 C19.5398438,23.1203125 19.6359375,22.8804688 19.6359375,22.5929688 C19.6359375,22.5929688 19.6359375,22.5929688 19.6359375,22.5929688 C19.6359375,22.3539063 19.5398437,22.1140625 19.3484375,21.9226562 Z"/>
  <title>Cart Solid</title>
</svg>