<svg xmlns="http://www.w3.org/2000/svg" viewBox="0 0 25 25" id="case">
  <path d="M23.0375,4.92734375 C23.0375,4.92734375 23.0375,4.92734375 23.0375,4.92734375 C23.0375,4.92734375 17.6734375,4.92734375 17.6734375,4.92734375 C17.6734375,4.92734375 17.6734375,3.44296875 17.6734375,3.44296875 C17.6734375,2.77265625 17.434375,2.19765625 16.9546875,1.71875 C16.475,1.23984375 15.9007812,1 15.1828125,1 C15.1828125,1 15.1828125,1 15.1828125,1 C15.1828125,1 9.33984375,1 9.33984375,1 C8.62109375,1 8.046875,1.2390625 7.56796875,1.71875 C7.0890625,2.1984375 6.84921875,2.77265625 6.84921875,3.44296875 C6.84921875,3.44296875 6.84921875,3.44296875 6.84921875,3.44296875 C6.84921875,3.44296875 6.84921875,4.92734375 6.84921875,4.92734375 C6.84921875,4.92734375 1.48515625,4.92734375 1.48515625,4.92734375 C1.05390625,4.92734375 0.71875,5.07109375 0.43125,5.35859375 C0.14375,5.64609375 0,5.98125 0,6.4125 C0,6.4125 0,6.4125 0,6.4125 C0,6.4125 0,22.0734375 0,22.0734375 C0,22.5046875 0.14375,22.8398438 0.43125,23.1273438 C0.71875,23.4148437 1.05390625,23.5585938 1.48515625,23.5585938 C1.48515625,23.5585938 1.48515625,23.5585938 1.48515625,23.5585938 C1.48515625,23.5585938 23.0367187,23.5585938 23.0367187,23.5585938 C23.4679687,23.5585938 23.803125,23.4148437 24.090625,23.1273438 C24.378125,22.8398438 24.521875,22.5046875 24.521875,22.0734375 C24.521875,22.0734375 24.521875,22.0734375 24.521875,22.0734375 C24.521875,22.0734375 24.521875,6.4125 24.521875,6.4125 C24.521875,5.98125 24.378125,5.64609375 24.090625,5.35859375 C23.803125,5.07109375 23.4679687,4.92734375 23.0367187,4.92734375 L23.0375,4.92734375 Z M7.85546875,4.92734375 C7.85546875,4.92734375 7.85546875,3.44296875 7.85546875,3.44296875 C7.85546875,3.01171875 7.99921875,2.6765625 8.28671875,2.3890625 C8.57421875,2.1015625 8.909375,1.9578125 9.340625,1.9578125 C9.340625,1.9578125 9.340625,1.9578125 9.340625,1.9578125 C9.340625,1.9578125 15.1835937,1.9578125 15.1835937,1.9578125 C15.6148437,1.9578125 15.95,2.1015625 16.2375,2.3890625 C16.525,2.6765625 16.66875,3.01171875 16.66875,3.44296875 C16.66875,3.44296875 16.66875,3.44296875 16.66875,3.44296875 C16.66875,3.44296875 16.66875,4.92734375 16.66875,4.92734375 C16.66875,4.92734375 7.85625,4.92734375 7.85625,4.92734375 L7.85546875,4.92734375 Z M23.7554688,11.2492188 C23.7554688,11.2492188 23.5640625,22.0726563 23.5640625,22.0726563 C23.5640625,22.4078125 23.3726562,22.5992187 23.0375,22.5992187 C23.0375,22.5992187 23.0375,22.5992187 23.0375,22.5992187 C23.0375,22.5992187 1.4859375,22.5992187 1.4859375,22.5992187 C1.15078125,22.5992187 0.959375,22.4078125 0.959375,22.0726563 C0.959375,22.0726563 0.959375,22.0726563 0.959375,22.0726563 C0.959375,22.0726563 0.959375,11.3445313 0.959375,11.3445313 C3.49765625,12.78125 6.37109375,13.9304687 9.53203125,14.840625 C9.53203125,14.840625 9.53203125,14.840625 9.53203125,14.840625 C9.53203125,14.840625 9.81953125,16.7085938 9.81953125,16.7085938 C9.81953125,16.9476563 9.915625,17.1875 10.1070313,17.3789062 C10.2984375,17.5703125 10.5382813,17.6664063 10.7773438,17.6664063 C10.7773438,17.6664063 10.7773438,17.6664063 10.7773438,17.6664063 C10.7773438,17.6664063 13.746875,17.6664063 13.746875,17.6664063 C13.9859375,17.6664063 14.2257813,17.5703125 14.4171875,17.3789062 C14.6085938,17.1875 14.7046875,16.9476563 14.7046875,16.7085938 C14.7046875,16.7085938 14.7046875,16.7085938 14.7046875,16.7085938 C14.7046875,16.7085938 14.7046875,14.8890625 14.7046875,14.8890625 C18.009375,13.9789063 21.0265625,12.7820313 23.75625,11.2492188 C23.75625,11.2492188 23.75625,11.2492188 23.75625,11.2492188 L23.7554688,11.2492188 Z M10.7765625,16.7085937 C10.7765625,16.7085937 10.7765625,15.0804688 10.7765625,15.0804688 C11.2078125,15.1765625 11.6867188,15.2242188 12.2609375,15.2242188 C12.2609375,15.2242188 12.2609375,15.2242188 12.2609375,15.2242188 C12.7875,15.2242188 13.3148438,15.1765625 13.79375,15.0804688 C13.79375,15.0804688 13.79375,15.0804688 13.79375,15.0804688 C13.79375,15.0804688 13.7460938,16.7085937 13.7460938,16.7085937 C13.7460938,16.7085937 10.7765625,16.7085937 10.7765625,16.7085937 Z M23.5640625,6.41171875 C23.5640625,6.41171875 23.5640625,10.2429687 23.5640625,10.2429687 C23.5640625,10.2429687 23.325,10.3867187 23.325,10.3867187 C18.2007813,12.925 14.5125,14.2179687 12.2617188,14.2179687 C10.0109375,14.2179687 6.32265625,12.925 1.1984375,10.3867187 C1.1984375,10.3867187 1.1984375,10.3867187 1.1984375,10.3867187 C1.1984375,10.3867187 0.959375,10.2429687 0.959375,10.2429687 C0.959375,10.2429687 0.959375,6.41171875 0.959375,6.41171875 C0.959375,6.0765625 1.15078125,5.88515625 1.4859375,5.88515625 C1.4859375,5.88515625 1.4859375,5.88515625 1.4859375,5.88515625 C1.4859375,5.88515625 23.0375,5.88515625 23.0375,5.88515625 C23.3726563,5.88515625 23.5640625,6.0765625 23.5640625,6.41171875 C23.5640625,6.41171875 23.5640625,6.41171875 23.5640625,6.41171875 L23.5640625,6.41171875 Z"/>
  <title>Case</title>
</svg>