<svg xmlns="http://www.w3.org/2000/svg" viewBox="0 0 25 25" id="case-solid">
  <path d="M14.7039063,16.709375 C14.7039063,16.709375 14.7039063,14.8898437 14.7039063,14.8898437 C18.2476563,13.9320312 21.6007813,12.5429687 24.7132813,10.7710937 C24.7132813,10.7710937 24.7132813,10.7710937 24.7132813,10.7710937 C24.7132813,10.7710937 24.521875,22.0734375 24.521875,22.0734375 C24.521875,22.5046875 24.378125,22.8398438 24.090625,23.1273437 C23.803125,23.4148437 23.4679688,23.5585938 23.0367188,23.5585938 C23.0367188,23.5585938 23.0367188,23.5585938 23.0367188,23.5585938 C23.0367188,23.5585938 1.48515625,23.5585938 1.48515625,23.5585938 C1.05390625,23.5585938 0.71875,23.4148437 0.43125,23.1273437 C0.14375,22.8398438 0,22.5046875 0,22.0734375 C0,22.0734375 0,22.0734375 0,22.0734375 C0,22.0734375 0,10.8664062 0,10.8664062 C2.96953125,12.590625 6.13046875,13.93125 9.53046875,14.8414062 C9.53046875,14.8414062 9.53046875,14.8414062 9.53046875,14.8414062 C9.53046875,14.8414062 9.81796875,16.709375 9.81796875,16.709375 C9.81796875,16.9484375 9.9140625,17.1882812 10.1054688,17.3796875 C10.296875,17.5710937 10.5367188,17.6671875 10.7757813,17.6671875 C10.7757813,17.6671875 10.7757813,17.6671875 10.7757813,17.6671875 C10.7757813,17.6671875 13.7453125,17.6671875 13.7453125,17.6671875 C13.984375,17.6671875 14.2242188,17.5710937 14.415625,17.3796875 C14.6070313,17.1882813 14.703125,16.9484375 14.703125,16.709375 C14.703125,16.709375 14.703125,16.709375 14.703125,16.709375 L14.7039063,16.709375 Z M24.521875,6.4125 C24.521875,6.4125 24.521875,6.4125 24.521875,6.4125 C24.521875,6.4125 24.521875,9.76484375 24.521875,9.76484375 C24.521875,9.76484375 24.2828125,9.90859375 24.2828125,9.90859375 C24.2828125,9.90859375 24.2351563,9.95625 24.2351563,9.95625 C19.1109375,12.6859375 15.0875,14.075 12.2617188,14.21875 C12.2617188,14.21875 12.2617188,14.21875 12.2617188,14.21875 C9.4359375,14.21875 5.4609375,12.7820312 0.28828125,9.95625 C0.28828125,9.95625 0.28828125,9.95625 0.28828125,9.95625 C0.28828125,9.95625 0.240625,9.90859375 0.240625,9.90859375 C0.240625,9.90859375 0.0015625,9.76484375 0.0015625,9.76484375 C0.0015625,9.76484375 0.0015625,6.4125 0.0015625,6.4125 C0.0015625,5.98125 0.1453125,5.64609375 0.4328125,5.35859375 C0.7203125,5.07109375 1.05546875,4.92734375 1.48671875,4.92734375 C1.48671875,4.92734375 1.48671875,4.92734375 1.48671875,4.92734375 C1.48671875,4.92734375 6.85078125,4.92734375 6.85078125,4.92734375 C6.85078125,4.92734375 6.85078125,3.44296875 6.85078125,3.44296875 C6.85078125,2.77265625 7.08984375,2.19765625 7.56953125,1.71875 C8.04921875,1.23984375 8.6234375,1 9.34140625,1 C9.34140625,1 9.34140625,1 9.34140625,1 C9.34140625,1 15.184375,1 15.184375,1 C15.903125,1 16.4773437,1.2390625 16.95625,1.71875 C17.4351562,2.1984375 17.675,2.77265625 17.675,3.44296875 C17.675,3.44296875 17.675,3.44296875 17.675,3.44296875 C17.675,3.44296875 17.675,4.92734375 17.675,4.92734375 C17.675,4.92734375 23.0390625,4.92734375 23.0390625,4.92734375 C23.4703125,4.92734375 23.8054688,5.07109375 24.0929688,5.35859375 C24.3804688,5.64609375 24.5242188,5.98125 24.5242188,6.4125 L24.521875,6.4125 Z M16.6671875,4.928125 C16.6671875,4.928125 16.6671875,3.44375 16.6671875,3.44375 C16.6671875,3.0125 16.5234375,2.67734375 16.2359375,2.38984375 C15.9484375,2.10234375 15.6132813,1.95859375 15.1820313,1.95859375 C15.1820313,1.95859375 15.1820313,1.95859375 15.1820313,1.95859375 C15.1820313,1.95859375 9.3390625,1.95859375 9.3390625,1.95859375 C8.9078125,1.95859375 8.57265625,2.10234375 8.28515625,2.38984375 C7.99765625,2.67734375 7.85390625,3.0125 7.85390625,3.44375 C7.85390625,3.44375 7.85390625,3.44375 7.85390625,3.44375 C7.85390625,3.44375 7.85390625,4.928125 7.85390625,4.928125 C7.85390625,4.928125 16.6664063,4.928125 16.6664063,4.928125 L16.6671875,4.928125 Z"/>
  <title>Case Solid</title>
</svg>