<svg xmlns="http://www.w3.org/2000/svg" viewBox="0 0 25 25" id="case-medical-solid">
  <path d="M23.0375,4.92734375 C23.0375,4.92734375 23.0375,4.92734375 23.0375,4.92734375 C23.0375,4.92734375 17.6734375,4.92734375 17.6734375,4.92734375 C17.6734375,4.92734375 17.6734375,3.44296875 17.6734375,3.44296875 C17.6734375,2.77265625 17.434375,2.19765625 16.9546875,1.71875 C16.475,1.23984375 15.9007812,1 15.1828125,1 C15.1828125,1 15.1828125,1 15.1828125,1 C15.1828125,1 9.33984375,1 9.33984375,1 C8.62109375,1 8.046875,1.23984375 7.56796875,1.71875 C7.0890625,2.19765625 6.84921875,2.77265625 6.84921875,3.44296875 C6.84921875,3.44296875 6.84921875,3.44296875 6.84921875,3.44296875 C6.84921875,3.44296875 6.84921875,4.92734375 6.84921875,4.92734375 C6.84921875,4.92734375 1.48515625,4.92734375 1.48515625,4.92734375 C1.05390625,4.92734375 0.71875,5.07109375 0.43125,5.35859375 C0.14375,5.64609375 0,5.98125 0,6.4125 C0,6.4125 0,6.4125 0,6.4125 C0,6.4125 0,22.0734375 0,22.0734375 C0,22.5046875 0.14375,22.8398438 0.43125,23.1273437 C0.71875,23.4148437 1.05390625,23.5585938 1.48515625,23.5585938 C1.48515625,23.5585938 1.48515625,23.5585938 1.48515625,23.5585938 C1.48515625,23.5585938 23.0367187,23.5585938 23.0367187,23.5585938 C23.4679687,23.5585938 23.803125,23.4148437 24.090625,23.1273438 C24.378125,22.8398438 24.521875,22.5046875 24.521875,22.0734375 C24.521875,22.0734375 24.521875,22.0734375 24.521875,22.0734375 C24.521875,22.0734375 24.521875,6.4125 24.521875,6.4125 C24.521875,5.98125 24.378125,5.64609375 24.090625,5.35859375 C23.803125,5.07109375 23.4679687,4.92734375 23.0367187,4.92734375 L23.0375,4.92734375 Z M7.85546875,4.92734375 C7.85546875,4.92734375 7.85546875,3.44296875 7.85546875,3.44296875 C7.85546875,3.01171875 7.99921875,2.6765625 8.28671875,2.3890625 C8.57421875,2.1015625 8.909375,1.9578125 9.340625,1.9578125 C9.340625,1.9578125 9.340625,1.9578125 9.340625,1.9578125 C9.340625,1.9578125 15.1835937,1.9578125 15.1835937,1.9578125 C15.6148437,1.9578125 15.95,2.1015625 16.2375,2.3890625 C16.525,2.6765625 16.66875,3.01171875 16.66875,3.44296875 C16.66875,3.44296875 16.66875,3.44296875 16.66875,3.44296875 C16.66875,3.44296875 16.66875,4.92734375 16.66875,4.92734375 C16.66875,4.92734375 7.85625,4.92734375 7.85625,4.92734375 L7.85546875,4.92734375 Z M15.709375,13.2609375 C15.709375,13.2609375 15.709375,15.2242187 15.709375,15.2242187 C15.709375,15.559375 15.5179687,15.703125 15.1828125,15.703125 C15.1828125,15.703125 15.1828125,15.703125 15.1828125,15.703125 C15.1828125,15.703125 13.7460937,15.703125 13.7460937,15.703125 C13.7460937,15.703125 13.7460937,17.1875 13.7460937,17.1875 C13.7460937,17.5226562 13.5546875,17.6664062 13.2195312,17.6664062 C13.2195312,17.6664062 13.2195312,17.6664062 13.2195312,17.6664062 C13.2195312,17.6664062 11.3039062,17.6664062 11.3039062,17.6664062 C10.96875,17.6664062 10.7773437,17.5226562 10.7773437,17.1875 C10.7773437,17.1875 10.7773437,17.1875 10.7773437,17.1875 C10.7773437,17.1875 10.7773437,15.703125 10.7773437,15.703125 C10.7773437,15.703125 9.340625,15.703125 9.340625,15.703125 C9.00546875,15.703125 8.8140625,15.559375 8.8140625,15.2242187 C8.8140625,15.2242187 8.8140625,15.2242187 8.8140625,15.2242187 C8.8140625,15.2242187 8.8140625,13.2609375 8.8140625,13.2609375 C8.8140625,12.9257812 9.00546875,12.7820312 9.340625,12.7820312 C9.340625,12.7820312 9.340625,12.7820312 9.340625,12.7820312 C9.340625,12.7820312 10.7773437,12.7820312 10.7773437,12.7820312 C10.7773437,12.7820312 10.7773437,11.2976563 10.7773437,11.2976563 C10.7773437,10.9625 10.96875,10.81875 11.3039062,10.81875 C11.3039062,10.81875 11.3039062,10.81875 11.3039062,10.81875 C11.3039062,10.81875 13.2195312,10.81875 13.2195312,10.81875 C13.5546875,10.81875 13.7460937,10.9625 13.7460937,11.2976563 C13.7460937,11.2976563 13.7460937,11.2976563 13.7460937,11.2976563 C13.7460937,11.2976563 13.7460937,12.7820312 13.7460937,12.7820312 C13.7460937,12.7820312 15.1828125,12.7820312 15.1828125,12.7820312 C15.5179687,12.7820312 15.709375,12.9257812 15.709375,13.2609375 C15.709375,13.2609375 15.709375,13.2609375 15.709375,13.2609375 Z"/>
  <title>Case Medical Solid</title>
</svg>