<svg xmlns="http://www.w3.org/2000/svg" viewBox="0 0 25 25" id="chain-up">
  <path d="M9.81875,20.6296875 C9.81875,20.6296875 9.81875,22.1140625 9.81875,22.1140625 C9.81875,22.4492188 9.675,22.5929688 9.33984375,22.5929688 C9.33984375,22.5929688 9.33984375,22.5929688 9.33984375,22.5929688 C9.33984375,22.5929688 1.48515625,22.5929688 1.48515625,22.5929688 C1.15,22.5929688 0.95859375,22.4492188 0.95859375,22.1140625 C0.95859375,22.1140625 0.95859375,22.1140625 0.95859375,22.1140625 C0.95859375,22.1140625 0.95859375,16.2234375 0.95859375,16.2234375 C0.95859375,15.8882813 1.15,15.696875 1.48515625,15.696875 C1.48515625,15.696875 1.48515625,15.696875 1.48515625,15.696875 C1.48515625,15.696875 9.33984375,15.696875 9.33984375,15.696875 C9.675,15.696875 9.81875,15.8882813 9.81875,16.2234375 C9.81875,16.2234375 9.81875,16.2234375 9.81875,16.2234375 C9.81875,16.2234375 9.81875,17.6601562 9.81875,17.6601562 C9.81875,17.6601562 10.7765625,17.6601562 10.7765625,17.6601562 C10.7765625,17.6601562 10.7765625,16.2234375 10.7765625,16.2234375 C10.7765625,15.7921875 10.6328125,15.4570312 10.39375,15.1695313 C10.10625,14.8820313 9.77109375,14.7382812 9.33984375,14.7382812 C9.33984375,14.7382812 9.33984375,14.7382812 9.33984375,14.7382812 C9.33984375,14.7382812 1.48515625,14.7382812 1.48515625,14.7382812 C1.05390625,14.7382812 0.71875,14.8820313 0.43125,15.1695313 C0.14375,15.4570312 0,15.7921875 0,16.2234375 C0,16.2234375 0,16.2234375 0,16.2234375 C0,16.2234375 0,22.1140625 0,22.1140625 C0,22.5453125 0.14375,22.8804688 0.43125,23.1195313 C0.71875,23.4070313 1.05390625,23.5507812 1.48515625,23.5507812 C1.48515625,23.5507812 1.48515625,23.5507812 1.48515625,23.5507812 C1.48515625,23.5507812 9.33984375,23.5507812 9.33984375,23.5507812 C9.77109375,23.5507812 10.10625,23.4070313 10.39375,23.1195313 C10.6328125,22.8804687 10.7765625,22.5445313 10.7765625,22.1140625 C10.7765625,22.1140625 10.7765625,22.1140625 10.7765625,22.1140625 C10.7765625,22.1140625 10.7765625,20.6296875 10.7765625,20.6296875 C10.7765625,20.6296875 9.81875,20.6296875 9.81875,20.6296875 Z M23.0375,14.7390625 C23.0375,14.7390625 23.0375,14.7390625 23.0375,14.7390625 C23.0375,14.7390625 15.1828125,14.7390625 15.1828125,14.7390625 C14.7515625,14.7390625 14.4164062,14.8828125 14.1773437,15.1703125 C13.8898437,15.4578125 13.7460937,15.7929688 13.7460937,16.2242187 C13.7460937,16.2242187 13.7460937,16.2242187 13.7460937,16.2242187 C13.7460937,16.2242187 13.7460937,17.6609375 13.7460937,17.6609375 C13.7460937,17.6609375 14.7039062,17.6609375 14.7039062,17.6609375 C14.7039062,17.6609375 14.7039062,16.2242187 14.7039062,16.2242187 C14.7039062,15.8890625 14.8476562,15.6976562 15.1828125,15.6976562 C15.1828125,15.6976562 15.1828125,15.6976562 15.1828125,15.6976562 C15.1828125,15.6976562 23.0375,15.6976562 23.0375,15.6976562 C23.3726562,15.6976562 23.5640625,15.8890625 23.5640625,16.2242187 C23.5640625,16.2242187 23.5640625,16.2242187 23.5640625,16.2242187 C23.5640625,16.2242187 23.5640625,22.1148437 23.5640625,22.1148437 C23.5640625,22.45 23.3726562,22.59375 23.0375,22.59375 C23.0375,22.59375 23.0375,22.59375 23.0375,22.59375 C23.0375,22.59375 15.1828125,22.59375 15.1828125,22.59375 C14.8476562,22.59375 14.7039062,22.45 14.7039062,22.1148437 C14.7039062,22.1148437 14.7039062,22.1148437 14.7039062,22.1148437 C14.7039062,22.1148437 14.7039062,20.6304688 14.7039062,20.6304688 C14.7039062,20.6304688 13.7460937,20.6304688 13.7460937,20.6304688 C13.7460937,20.6304688 13.7460937,22.1148437 13.7460937,22.1148437 C13.7460937,22.5460938 13.8898437,22.88125 14.1773437,23.1203125 C14.4164062,23.4078125 14.7523437,23.5515625 15.1828125,23.5515625 C15.1828125,23.5515625 15.1828125,23.5515625 15.1828125,23.5515625 C15.1828125,23.5515625 23.0375,23.5515625 23.0375,23.5515625 C23.46875,23.5515625 23.8039063,23.4078125 24.0914062,23.1203125 C24.3789062,22.88125 24.5226562,22.5453125 24.5226562,22.1148437 C24.5226562,22.1148437 24.5226562,22.1148437 24.5226562,22.1148437 C24.5226562,22.1148437 24.5226562,16.2242187 24.5226562,16.2242187 C24.5226562,15.7929688 24.3789062,15.4578125 24.0914062,15.1703125 C23.8039062,14.8828125 23.46875,14.7390625 23.0375,14.7390625 L23.0375,14.7390625 Z M6.3703125,18.6664063 C6.3703125,18.6664063 6.3703125,18.6664063 6.3703125,18.6664063 C6.3703125,18.6664063 18.1515625,18.6664063 18.1515625,18.6664063 C18.4867188,18.6664063 18.6304687,18.8101563 18.6304687,19.1453125 C18.6304687,19.4804688 18.4867188,19.6242188 18.1515625,19.6242188 C18.1515625,19.6242188 18.1515625,19.6242188 18.1515625,19.6242188 C18.1515625,19.6242188 6.3703125,19.6242188 6.3703125,19.6242188 C6.03515625,19.6242188 5.89140625,19.4804688 5.89140625,19.1453125 C5.89140625,18.8101563 6.03515625,18.6664063 6.3703125,18.6664063 Z M15.565625,5.06484375 C15.565625,5.06484375 12.5960937,2.14375 12.5960937,2.14375 C12.5,2.04765625 12.4046875,2 12.2609375,2 C12.1171875,2 12.021875,2.04765625 11.9257812,2.14375 C11.9257812,2.14375 11.9257812,2.14375 11.9257812,2.14375 C11.9257812,2.14375 8.95625,5.06484375 8.95625,5.06484375 C8.7171875,5.30390625 8.7171875,5.54375 8.95625,5.78359375 C9.1953125,6.0234375 9.43515625,6.02265625 9.675,5.78359375 C9.675,5.78359375 9.675,5.78359375 9.675,5.78359375 C9.675,5.78359375 11.7820312,3.6765625 11.7820312,3.6765625 C11.7820312,3.6765625 11.7820312,11.2914063 11.7820312,11.2914063 C11.7820312,11.6265625 11.9257812,11.8179688 12.2609375,11.8179688 C12.5960937,11.8179688 12.7398437,11.6265625 12.7398437,11.2914063 C12.7398437,11.2914063 12.7398437,11.2914063 12.7398437,11.2914063 C12.7398437,11.2914063 12.7398437,3.6765625 12.7398437,3.6765625 C12.7398437,3.6765625 14.846875,5.78359375 14.846875,5.78359375 C15.0859375,6.02265625 15.3257812,6.02265625 15.565625,5.78359375 C15.8054688,5.54453125 15.8046875,5.3046875 15.565625,5.06484375 C15.565625,5.06484375 15.565625,5.06484375 15.565625,5.06484375 Z"/>
  <title>Chain Up</title>
</svg>