<svg xmlns="http://www.w3.org/2000/svg" viewBox="0 0 25 25" id="chain-solid">
  <path d="M6.36953125,11.9289063 C6.36953125,11.9289063 6.36953125,11.9289063 6.36953125,11.9289063 C6.36953125,11.9289063 18.1507813,11.9289063 18.1507813,11.9289063 C18.4859375,11.9289063 18.6296875,12.0726562 18.6296875,12.4078125 C18.6296875,12.7429688 18.4859375,12.8867188 18.1507813,12.8867188 C18.1507813,12.8867188 18.1507813,12.8867188 18.1507813,12.8867188 C18.1507813,12.8867188 6.36953125,12.8867188 6.36953125,12.8867188 C6.034375,12.8867188 5.890625,12.7429687 5.890625,12.4078125 C5.890625,12.0726563 6.034375,11.9289063 6.36953125,11.9289063 L6.36953125,11.9289063 Z M23.0367188,8.0015625 C23.0367188,8.0015625 23.0367188,8.0015625 23.0367188,8.0015625 C23.0367188,8.0015625 15.1820313,8.0015625 15.1820313,8.0015625 C14.7507813,8.0015625 14.415625,8.1453125 14.1765625,8.4328125 C13.8890625,8.7203125 13.7453125,9.05546875 13.7453125,9.48671875 C13.7453125,9.48671875 13.7453125,9.48671875 13.7453125,9.48671875 C13.7453125,9.48671875 13.7453125,10.9234375 13.7453125,10.9234375 C13.7453125,10.9234375 18.1515625,10.9234375 18.1515625,10.9234375 C18.5828125,10.9234375 18.9179688,11.0671875 19.2054688,11.3546875 C19.4929688,11.6421875 19.6367188,11.9773438 19.6367188,12.4085938 C19.6367188,12.8398438 19.4929688,13.175 19.2054688,13.4625 C18.9179688,13.75 18.5828125,13.89375 18.1515625,13.89375 C18.1515625,13.89375 18.1515625,13.89375 18.1515625,13.89375 C18.1515625,13.89375 13.7453125,13.89375 13.7453125,13.89375 C13.7453125,13.89375 13.7453125,15.3304687 13.7453125,15.3304687 C13.7453125,15.7617188 13.8890625,16.096875 14.1765625,16.384375 C14.415625,16.671875 14.7515625,16.815625 15.1820313,16.815625 C15.1820313,16.815625 15.1820313,16.815625 15.1820313,16.815625 C15.1820313,16.815625 23.0367188,16.815625 23.0367188,16.815625 C23.4679688,16.815625 23.803125,16.671875 24.090625,16.384375 C24.378125,16.096875 24.521875,15.7617188 24.521875,15.3304687 C24.521875,15.3304687 24.521875,15.3304687 24.521875,15.3304687 C24.521875,15.3304687 24.521875,9.4875 24.521875,9.4875 C24.521875,9.05625 24.378125,8.72109375 24.090625,8.43359375 C23.803125,8.14609375 23.4679688,8.00234375 23.0367188,8.00234375 L23.0367188,8.0015625 Z M5.31640625,13.4609375 C5.02890625,13.1734375 4.88515625,12.8382813 4.88515625,12.4070313 C4.88515625,11.9757813 5.02890625,11.640625 5.31640625,11.353125 C5.60390625,11.065625 5.9390625,10.921875 6.3703125,10.921875 C6.3703125,10.921875 6.3703125,10.921875 6.3703125,10.921875 C6.3703125,10.921875 10.7765625,10.921875 10.7765625,10.921875 C10.7765625,10.921875 10.7765625,9.48515625 10.7765625,9.48515625 C10.7765625,9.05390625 10.6328125,8.71875 10.39375,8.43125 C10.10625,8.14375 9.77109375,8 9.33984375,8 C9.33984375,8 9.33984375,8 9.33984375,8 C9.33984375,8 1.48515625,8 1.48515625,8 C1.05390625,8 0.71875,8.14375 0.43125,8.43125 C0.14375,8.71875 0,9.05390625 0,9.48515625 C0,9.48515625 0,9.48515625 0,9.48515625 C0,9.48515625 0,15.328125 0,15.328125 C0,15.759375 0.14375,16.0945313 0.43125,16.3820313 C0.71875,16.6695312 1.05390625,16.8132813 1.48515625,16.8132813 C1.48515625,16.8132813 1.48515625,16.8132813 1.48515625,16.8132813 C1.48515625,16.8132813 9.33984375,16.8132813 9.33984375,16.8132813 C9.77109375,16.8132813 10.10625,16.6695312 10.39375,16.3820313 C10.6328125,16.0945313 10.7765625,15.759375 10.7765625,15.328125 C10.7765625,15.328125 10.7765625,15.328125 10.7765625,15.328125 C10.7765625,15.328125 10.7765625,13.8914063 10.7765625,13.8914063 C10.7765625,13.8914063 6.3703125,13.8914063 6.3703125,13.8914063 C5.9390625,13.8914063 5.60390625,13.7476563 5.31640625,13.4601563 L5.31640625,13.4609375 Z"/>
  <title>Chain Solid</title>
</svg>