<svg xmlns="http://www.w3.org/2000/svg" viewBox="0 0 25 25" id="chart-forecast">
  <path d="M24.5632812,24.084375 C24.5632812,24.084375 24.5632812,24.084375 24.5632812,24.084375 C24.5632812,24.4195312 24.4195313,24.5632812 24.084375,24.5632812 C24.084375,24.5632812 24.084375,24.5632812 24.084375,24.5632812 C24.084375,24.5632812 1.5265625,24.5632812 1.5265625,24.5632812 C1.19140625,24.5632812 1,24.4195312 1,24.084375 C1,24.084375 1,24.084375 1,24.084375 C1,24.084375 1,1.5265625 1,1.5265625 C1,1.19140625 1.19140625,1 1.5265625,1 C1.5265625,1 1.5265625,1 1.5265625,1 C1.86171875,1 2.00546875,1.19140625 2.00546875,1.5265625 C2.00546875,1.5265625 2.00546875,1.5265625 2.00546875,1.5265625 C2.00546875,1.5265625 2.00546875,23.5570313 2.00546875,23.5570313 C2.00546875,23.5570313 2.196875,23.5570313 2.196875,23.5570313 C2.196875,23.5570313 6.93828125,14.0265625 6.93828125,14.0265625 C7.034375,13.8828125 7.17734375,13.7875 7.4171875,13.7875 C7.4171875,13.7875 7.4171875,13.7875 7.4171875,13.7875 C7.75234375,13.7875 7.89609375,13.93125 7.89609375,14.2664063 C7.89609375,14.2664063 7.89609375,14.2664063 7.89609375,14.2664063 C7.89609375,14.3140625 7.89609375,14.3140625 7.89609375,14.3625 C7.8484375,14.4101563 7.8484375,14.4585938 7.8484375,14.50625 C7.8484375,14.50625 7.8484375,14.50625 7.8484375,14.50625 C7.8484375,14.50625 3.2984375,23.5578125 3.2984375,23.5578125 C3.2984375,23.5578125 24.0835938,23.5578125 24.0835938,23.5578125 C24.41875,23.5578125 24.5625,23.7492188 24.5625,24.084375 L24.5632812,24.084375 Z M6.890625,10.8179688 C6.890625,10.8179688 6.890625,10.8179688 6.890625,10.8179688 C6.890625,10.2914063 7.08203125,9.86015625 7.51328125,9.42890625 C7.89609375,9.04609375 8.32734375,8.85390625 8.85390625,8.85390625 C8.85390625,8.85390625 8.85390625,8.85390625 8.85390625,8.85390625 C9.38046875,8.85390625 9.859375,9.0453125 10.2429687,9.42890625 C10.6265625,9.8125 10.8179687,10.290625 10.8179687,10.8179688 C10.8179687,11.3445313 10.6265625,11.8234375 10.2429687,12.2070313 C9.859375,12.590625 9.38125,12.7820313 8.85390625,12.7820313 C8.32734375,12.7820313 7.8484375,12.590625 7.46484375,12.2070313 C7.08125,11.8234375 6.88984375,11.3453125 6.88984375,10.8179688 L6.890625,10.8179688 Z M7.896875,10.8179688 C7.896875,10.8179688 7.896875,10.8179688 7.896875,10.8179688 C7.896875,11.1054688 7.99296875,11.3445313 8.184375,11.5367188 C8.37578125,11.7289063 8.615625,11.8242188 8.8546875,11.8242188 C8.8546875,11.8242188 8.8546875,11.8242188 8.8546875,11.8242188 C9.1421875,11.8242188 9.38125,11.728125 9.5734375,11.5367188 C9.765625,11.3453125 9.8609375,11.1054688 9.8609375,10.8179688 C9.8609375,10.8179688 9.8609375,10.8179688 9.8609375,10.8179688 C9.8609375,10.5789063 9.76484375,10.3390625 9.5734375,10.1476563 C9.38203125,9.95625 9.1421875,9.86015625 8.8546875,9.86015625 C8.8546875,9.86015625 8.8546875,9.86015625 8.8546875,9.86015625 C8.615625,9.86015625 8.37578125,9.95625 8.184375,10.1476563 C7.99296875,10.3390625 7.896875,10.5789063 7.896875,10.8179688 Z M19.246875,10.24375 C18.8640625,9.8609375 18.671875,9.38203125 18.671875,8.8546875 C18.671875,8.32734375 18.8632812,7.84921875 19.246875,7.465625 C19.6296875,7.0828125 20.1085938,6.890625 20.6359375,6.890625 C21.1632812,6.890625 21.6414062,7.08203125 22.025,7.465625 C22.4078125,7.8484375 22.6,8.32734375 22.6,8.8546875 C22.6,9.38203125 22.4085937,9.86015625 22.025,10.24375 C21.6421875,10.6265625 21.1632812,10.81875 20.6359375,10.81875 C20.1085938,10.81875 19.6304687,10.6273437 19.246875,10.24375 Z M19.678125,8.8546875 C19.678125,8.8546875 19.678125,8.8546875 19.678125,8.8546875 C19.678125,9.1421875 19.7742188,9.38125 19.965625,9.5734375 C20.1570312,9.765625 20.396875,9.8609375 20.6359375,9.8609375 C20.875,9.8609375 21.1148438,9.76484375 21.3546875,9.5734375 C21.5460938,9.38203125 21.6421875,9.1421875 21.6421875,8.8546875 C21.6421875,8.8546875 21.6421875,8.8546875 21.6421875,8.8546875 C21.6421875,8.615625 21.5460938,8.37578125 21.3546875,8.184375 C21.115625,7.99296875 20.8757813,7.896875 20.6359375,7.896875 C20.3960937,7.896875 20.1570313,7.99296875 19.965625,8.184375 C19.7742187,8.37578125 19.678125,8.615625 19.678125,8.8546875 Z M14.3625,17.1398438 C13.9796875,16.7570313 13.7875,16.278125 13.7875,15.7507813 C13.7875,15.2234375 13.9789062,14.7453125 14.3625,14.3617188 C14.7453125,13.9789063 15.2242188,13.7867188 15.7515625,13.7867188 C16.2789062,13.7867188 16.7570312,13.978125 17.140625,14.3617188 C17.5234375,14.7445312 17.715625,15.2234375 17.715625,15.7507813 C17.715625,16.278125 17.5242187,16.75625 17.140625,17.1398438 C16.709375,17.5226563 16.2789062,17.7148438 15.7515625,17.7148438 C15.7515625,17.7148438 15.7515625,17.7148438 15.7515625,17.7148438 C15.225,17.7148438 14.7460938,17.5234375 14.3625,17.1398438 Z M14.7453125,15.7507813 C14.7453125,15.7507813 14.7453125,15.7507813 14.7453125,15.7507813 C14.7453125,15.9898438 14.8414063,16.2296875 15.0328125,16.4210938 C15.2242187,16.6125 15.4640625,16.7085937 15.7515625,16.7085937 C15.7515625,16.7085937 15.7515625,16.7085937 15.7515625,16.7085937 C15.990625,16.7085937 16.2304688,16.6125 16.421875,16.4210938 C16.6132812,16.2296875 16.709375,15.9898438 16.709375,15.7507813 C16.709375,15.7507813 16.709375,15.7507813 16.709375,15.7507813 C16.709375,15.4632813 16.6132812,15.2242188 16.421875,15.0320312 C16.2304688,14.8398437 15.990625,14.7445312 15.7515625,14.7445312 C15.7515625,14.7445312 15.7515625,14.7445312 15.7515625,14.7445312 C15.4640625,14.7445312 15.225,14.840625 15.0328125,15.0320312 C14.840625,15.2234375 14.7453125,15.4632812 14.7453125,15.7507813 Z M11.8234375,13.2609375 C11.8234375,13.5960937 11.9671875,13.7875 12.3023438,13.7875 C12.6375,13.7875 12.78125,13.5960937 12.78125,13.2609375 C12.78125,13.2609375 12.78125,13.2609375 12.78125,13.2609375 C12.78125,12.9257812 12.6375,12.7820312 12.3023438,12.7820312 C11.9671875,12.7820312 11.8234375,12.9257812 11.8234375,13.2609375 C11.8234375,13.2609375 11.8234375,13.2609375 11.8234375,13.2609375 Z M17.7148438,12.3023438 C17.7148438,12.6375 17.8585938,12.78125 18.19375,12.78125 C18.5289062,12.78125 18.6726562,12.6375 18.6726562,12.3023438 C18.6726562,11.9671875 18.5289062,11.8234375 18.19375,11.8234375 C17.8585938,11.8234375 17.7148438,11.9671875 17.7148438,12.3023438 Z"/>
  <title>Chart Forecast</title>
</svg>