<svg xmlns="http://www.w3.org/2000/svg" viewBox="0 0 25 25" id="chart-line">
  <path d="M24.0421875,21.6359375 C24.3773438,21.6359375 24.5210937,21.7796875 24.5210937,22.1148437 C24.5210937,22.45 24.3773438,22.59375 24.0421875,22.59375 C24.0421875,22.59375 24.0421875,22.59375 24.0421875,22.59375 C24.0421875,22.59375 0.47890625,22.59375 0.47890625,22.59375 C0.14375,22.59375 0,22.45 0,22.1148437 C0,22.1148437 0,22.1148437 0,22.1148437 C0,22.1148437 0,2.47890625 0,2.47890625 C0,2.14375 0.14375,2 0.47890625,2 C0.8140625,2 0.9578125,2.14375 0.9578125,2.47890625 C0.9578125,2.47890625 0.9578125,2.47890625 0.9578125,2.47890625 C0.9578125,2.47890625 0.9578125,21.6359375 0.9578125,21.6359375 C0.9578125,21.6359375 24.0421875,21.6359375 24.0421875,21.6359375 Z M3.25703125,18.3789062 C3.4484375,18.5703125 3.68828125,18.6664063 3.92734375,18.6664063 C4.16640625,18.6664063 4.40625,18.5703125 4.59765625,18.3789062 C4.7890625,18.1875 4.88515625,17.9476563 4.88515625,17.7085937 C4.88515625,17.7085937 4.88515625,17.7085937 4.88515625,17.7085937 C4.88515625,17.5648438 4.88515625,17.4695312 4.8375,17.4210938 C4.8375,17.4210938 4.8375,17.4210938 4.8375,17.4210938 C4.8375,17.4210938 9.57890625,12.7273438 9.57890625,12.7273438 C9.6265625,12.775 9.675,12.775 9.81796875,12.775 C9.81796875,12.775 9.81796875,12.775 9.81796875,12.775 C10.009375,12.775 10.153125,12.7273438 10.296875,12.63125 C10.296875,12.63125 10.296875,12.63125 10.296875,12.63125 C10.296875,12.63125 15.7085938,15.7445313 15.7085938,15.7445313 C15.7085938,15.9835938 15.8046875,16.2234375 15.9960937,16.4148438 C16.1875,16.60625 16.4273437,16.7023438 16.6664063,16.7023438 C16.6664063,16.7023438 16.6664063,16.7023438 16.6664063,16.7023438 C17.2890625,16.7023438 17.6242187,16.3671875 17.671875,15.7445313 C17.671875,15.7445313 17.671875,15.7445313 17.671875,15.7445313 C17.671875,15.696875 17.671875,15.6484375 17.6242187,15.6007813 C17.6242187,15.6007813 17.6242187,15.6007813 17.6242187,15.6007813 C17.6242187,15.6007813 17.6242187,15.5046875 17.6242187,15.5046875 C17.6242187,15.5046875 22.3179687,10.7632813 22.3179687,10.7632813 C22.365625,10.8109375 22.4617187,10.8109375 22.5570312,10.8109375 C22.5570312,10.8109375 22.5570312,10.8109375 22.5570312,10.8109375 C22.7960938,10.8109375 23.0359375,10.7148438 23.2757813,10.5234375 C23.4671875,10.3320312 23.5632812,10.0921875 23.5632812,9.853125 C23.5632812,9.853125 23.5632812,9.853125 23.5632812,9.853125 C23.5632812,9.565625 23.4671875,9.3265625 23.2757813,9.134375 C23.0367187,8.94296875 22.796875,8.846875 22.5570312,8.846875 C22.3171875,8.846875 22.078125,8.94296875 21.8867188,9.134375 C21.6953125,9.32578125 21.5992188,9.565625 21.5992188,9.853125 C21.5992188,9.853125 21.5992188,9.853125 21.5992188,9.853125 C21.5992188,9.94921875 21.5992188,10.0445312 21.646875,10.0921875 C21.646875,10.0921875 21.646875,10.0921875 21.646875,10.0921875 C21.646875,10.0921875 16.9054688,14.7859375 16.9054688,14.7859375 C16.8578125,14.7859375 16.8578125,14.7859375 16.809375,14.7382812 C16.7617188,14.7382812 16.7132813,14.7382812 16.665625,14.7382812 C16.665625,14.7382812 16.665625,14.7382812 16.665625,14.7382812 C16.4742187,14.7382812 16.3304688,14.7859375 16.1867187,14.8820312 C16.1867187,14.8820312 16.1867187,14.8820312 16.1867187,14.8820312 C16.1867187,14.8820312 10.775,11.8171875 10.775,11.8171875 C10.775,11.578125 10.6789063,11.3382812 10.4875,11.146875 C10.2960937,10.9554687 10.05625,10.859375 9.8171875,10.859375 C9.8171875,10.859375 9.8171875,10.859375 9.8171875,10.859375 C9.19453125,10.859375 8.859375,11.1945312 8.81171875,11.8171875 C8.81171875,11.8171875 8.81171875,11.8171875 8.81171875,11.8171875 C8.81171875,11.8648437 8.81171875,11.8648437 8.859375,11.9132812 C8.859375,11.9609375 8.859375,12.009375 8.859375,12.0570312 C8.859375,12.0570312 8.859375,12.0570312 8.859375,12.0570312 C8.859375,12.0570312 4.165625,16.7507812 4.165625,16.7507812 C4.11796875,16.7507812 4.11796875,16.7507812 4.06953125,16.703125 C4.021875,16.703125 3.9734375,16.703125 3.92578125,16.703125 C3.92578125,16.703125 3.92578125,16.703125 3.92578125,16.703125 C3.68671875,16.703125 3.446875,16.7992187 3.25546875,16.990625 C3.01640625,17.1820312 2.9203125,17.421875 2.9203125,17.709375 C2.9203125,17.709375 2.9203125,17.709375 2.9203125,17.709375 C2.9203125,17.9484375 3.01640625,18.1882812 3.25546875,18.3796875 L3.25703125,18.3789062 Z"/>
  <title>Chart Line</title>
</svg>