<svg xmlns="http://www.w3.org/2000/svg" viewBox="0 0 25 25" id="chart-pie">
  <path d="M20.0195312,22.6054688 C20.0195312,22.6054688 11.6859375,14.0328125 11.6859375,14.0328125 C11.6859375,14.0328125 11.6859375,1.15 11.6859375,1.15 C14.990625,1.4375 17.7679687,2.778125 20.0195312,5.22109375 C22.2710938,7.6640625 23.4195312,10.5851563 23.4195312,13.9375 C23.4195312,13.9375 23.4195312,13.9375 23.4195312,13.9375 C23.4195312,17.2421875 22.2703125,20.1632813 20.0195312,22.60625 C20.0195312,22.60625 20.0195312,22.60625 20.0195312,22.60625 L20.0195312,22.6054688 Z M17.4328125,21.5039062 C17.4328125,21.5039062 16.90625,20.9773437 16.90625,20.9773437 C15.0382813,22.6054688 12.93125,23.4195312 10.584375,23.4195312 C10.584375,23.4195312 10.584375,23.4195312 10.584375,23.4195312 C8.09375,23.4195312 5.9390625,22.5578125 4.11875,20.8335938 C2.2984375,19.109375 1.29296875,17.0023438 1.14921875,14.5117188 C1.14921875,14.5117188 1.14921875,14.5117188 1.14921875,14.5117188 C1.14921875,14.5117188 10.584375,14.5117188 10.584375,14.5117188 C10.584375,14.5117188 17.4328125,21.5039062 17.4328125,21.5039062 L17.4328125,21.5039062 Z M10.584375,4.45390625 C10.584375,4.45390625 10.584375,4.45390625 10.584375,4.45390625 C10.584375,4.45390625 10.584375,13.3617187 10.584375,13.3617187 C10.584375,13.3617187 1.14921875,13.3617187 1.14921875,13.3617187 C1.29296875,10.8710937 2.2984375,8.7640625 4.11875,7.03984375 C5.9390625,5.315625 8.09375,4.45390625 10.584375,4.45390625 L10.584375,4.45390625 Z M10.584375,0 C10.584375,0 10.584375,0 10.584375,0 C10.584375,0 10.584375,3.35234375 10.584375,3.35234375 C7.66328125,3.35234375 5.17265625,4.40625 3.11328125,6.465625 C1.05390625,8.525 0,11.015625 0,13.9367187 C0,16.8578125 1.05390625,19.3484375 3.11328125,21.4078125 C5.17265625,23.4671875 7.66328125,24.5210937 10.584375,24.5210937 C10.584375,24.5210937 10.584375,24.5210937 10.584375,24.5210937 C13.2664062,24.5210937 15.6132812,23.6109375 17.6726562,21.7914062 C17.6726562,21.7914062 17.6726562,21.7914062 17.6726562,21.7914062 C17.6726562,21.7914062 20.0195313,24.1859375 20.0195313,24.1859375 C23.0367187,21.45625 24.5210937,18.0078125 24.5210937,13.9367188 C24.5210937,13.9367188 24.5210937,13.9367188 24.5210937,13.9367188 C24.5210937,10.0570312 23.1804687,6.80078125 20.45,4.07109375 C17.7195313,1.34140625 14.4632813,0 10.584375,0 Z"/>
  <title>Chart Pie</title>
</svg>