<svg xmlns="http://www.w3.org/2000/svg" viewBox="0 0 25 25" id="chart-radar-solid">
  <path d="M10.39375,3.353125 C10.0109375,2.9703125 9.81875,2.49140625 9.81875,1.9640625 C9.81875,1.43671875 10.0101562,0.95859375 10.39375,0.575 C10.7765625,0.1921875 11.2554688,0 11.7828125,0 C12.3101563,0 12.7882812,0.19140625 13.171875,0.575 C13.5546875,0.9578125 13.746875,1.43671875 13.746875,1.9640625 C13.746875,2.49140625 13.5554687,2.96953125 13.171875,3.353125 C12.7890625,3.7359375 12.3101562,3.928125 11.7828125,3.928125 C11.2554688,3.928125 10.7773438,3.73671875 10.39375,3.353125 L10.39375,3.353125 Z M3.353125,11.2078125 C3.7359375,10.825 3.928125,10.3460938 3.928125,9.81875 C3.928125,9.29140625 3.73671875,8.81328125 3.353125,8.4296875 C2.9703125,8.046875 2.49140625,7.8546875 1.9640625,7.8546875 C1.43671875,7.8546875 0.95859375,8.04609375 0.575,8.4296875 C0.1921875,8.8125 0,9.29140625 0,9.81875 C0,10.3460938 0.19140625,10.8242188 0.575,11.2078125 C0.9578125,11.590625 1.43671875,11.7828125 1.9640625,11.7828125 C2.49140625,11.7828125 2.96953125,11.5914063 3.353125,11.2078125 Z M23.946875,8.4296875 C23.5640625,8.046875 23.0851562,7.8546875 22.5578125,7.8546875 C22.0304688,7.8546875 21.5523437,8.04609375 21.16875,8.4296875 C20.7859375,8.8125 20.59375,9.29140625 20.59375,9.81875 C20.59375,10.3460938 20.7851562,10.8242188 21.16875,11.2078125 C21.5515625,11.590625 22.0304688,11.7828125 22.5578125,11.7828125 C23.0851562,11.7828125 23.5632812,11.5914063 23.946875,11.2078125 C24.3296875,10.825 24.521875,10.3460938 24.521875,9.81875 C24.521875,9.29140625 24.3304688,8.81328125 23.946875,8.4296875 Z M7.28046875,21.1695312 C6.89765625,20.7867188 6.41875,20.5945312 5.89140625,20.5945312 C5.3640625,20.5945312 4.8859375,20.7859375 4.50234375,21.1695312 C4.11953125,21.5523437 3.92734375,22.03125 3.92734375,22.5585938 C3.92734375,23.0859375 4.11875,23.5640625 4.50234375,23.9476563 C4.88515625,24.3304687 5.3640625,24.5226563 5.89140625,24.5226563 C6.41875,24.5226563 6.896875,24.33125 7.28046875,23.9476563 C7.66328125,23.5648438 7.85546875,23.0859375 7.85546875,22.5585938 C7.85546875,22.03125 7.6640625,21.553125 7.28046875,21.1695312 Z M20.0203125,21.1695312 C19.6375,20.7867188 19.1585938,20.5945312 18.63125,20.5945312 C18.1039063,20.5945312 17.6257813,20.7859375 17.2421875,21.1695312 C16.859375,21.5523437 16.6671875,22.03125 16.6671875,22.5585938 C16.6671875,23.0859375 16.8585938,23.5640625 17.2421875,23.9476563 C17.625,24.3304687 18.1039063,24.5226563 18.63125,24.5226563 C19.1585938,24.5226563 19.6367188,24.33125 20.0203125,23.9476563 C20.403125,23.5648438 20.5953125,23.0859375 20.5953125,22.5585938 C20.5953125,22.03125 20.4039063,21.553125 20.0203125,21.1695312 Z M4.359375,8.09453125 C4.359375,8.09453125 4.359375,8.1421875 4.359375,8.1421875 C4.359375,8.1421875 9.48359375,3.78359375 9.48359375,3.78359375 C9.24453125,3.49609375 9.05234375,3.20859375 9.0046875,2.921875 C9.0046875,2.921875 9.0046875,2.921875 9.0046875,2.921875 C9.0046875,2.921875 3.68828125,7.4234375 3.68828125,7.4234375 C3.92734375,7.61484375 4.1671875,7.8546875 4.35859375,8.09375 C4.35859375,8.09375 4.35859375,8.09375 4.35859375,8.09375 L4.359375,8.09453125 Z M15.7578125,22.03125 C15.7578125,22.03125 8.765625,22.0789062 8.765625,22.0789062 C8.81328125,22.175 8.81328125,22.3179688 8.81328125,22.5578125 C8.81328125,22.7976562 8.81328125,22.940625 8.765625,23.084375 C8.765625,23.084375 8.765625,23.084375 8.765625,23.084375 C8.765625,23.084375 15.7578125,23.0367187 15.7578125,23.0367187 C15.7101562,22.940625 15.7101562,22.7976562 15.7101562,22.5578125 C15.7101562,22.3179688 15.7101562,22.175 15.7578125,22.03125 C15.7578125,22.03125 15.7578125,22.03125 15.7578125,22.03125 Z M21.5523438,12.5484375 C21.5523438,12.5484375 21.6,12.5484375 21.6,12.5484375 C21.6,12.5484375 19.109375,19.684375 19.109375,19.684375 C19.4445313,19.7320313 19.7796875,19.828125 20.0671875,19.971875 C20.0671875,19.971875 20.0671875,19.971875 20.0671875,19.971875 C20.0671875,19.971875 22.5578125,12.7398437 22.5578125,12.7398437 C22.175,12.7398437 21.8390625,12.6921875 21.5523438,12.5484375 C21.5523438,12.5484375 21.5523438,12.5484375 21.5523438,12.5484375 L21.5523438,12.5484375 Z M19.684375,10.3453125 C19.684375,10.3453125 19.684375,10.3453125 19.684375,10.3453125 C19.684375,10.3453125 15.3257812,11.9734375 15.3257812,11.9734375 C14.846875,11.159375 14.1765625,10.7757812 13.2664062,10.7757812 C13.2664062,10.7757812 13.2664062,10.7757812 13.2664062,10.7757812 C12.2609375,10.7757812 11.5421875,11.2070312 11.1109375,12.06875 C11.1109375,12.06875 11.1109375,12.06875 11.1109375,12.06875 C11.1109375,12.06875 4.88515625,10.2007812 4.88515625,10.2007812 C4.8375,10.5359375 4.74140625,10.8234375 4.59765625,11.1109375 C4.59765625,11.1109375 4.59765625,11.1109375 4.59765625,11.1109375 C4.59765625,11.1109375 10.8234375,13.0265625 10.8234375,13.0265625 C10.8234375,13.0742188 10.8234375,13.0742188 10.8234375,13.1226563 C10.7757812,13.1703125 10.7757812,13.1703125 10.7757812,13.21875 C10.7757812,13.21875 10.7757812,13.21875 10.7757812,13.21875 C10.7757812,13.21875 10.7757812,13.3148438 10.7757812,13.3148438 C10.7757812,13.9851563 11.0148437,14.5601563 11.4945312,15.0390625 C11.9742187,15.5179688 12.5484375,15.7578125 13.21875,15.7578125 C13.21875,15.7578125 13.21875,15.7578125 13.21875,15.7578125 C13.9375,15.7578125 14.5117187,15.51875 14.990625,15.0390625 C15.4695312,14.559375 15.709375,13.9851563 15.709375,13.3148438 C15.709375,13.3148438 15.709375,13.3148438 15.709375,13.3148438 C15.709375,13.2671875 15.709375,13.21875 15.709375,13.0757813 C15.6617187,12.9320313 15.6617187,12.884375 15.6617187,12.8367188 C15.6617187,12.8367188 15.6617187,12.8367188 15.6617187,12.8367188 C15.6617187,12.8367188 20.0203125,11.25625 20.0203125,11.25625 C19.8289062,10.96875 19.7328125,10.68125 19.6851562,10.3460938 L19.684375,10.3453125 Z M20.115625,8.1421875 C20.115625,8.1421875 20.1632813,8.1421875 20.1632813,8.1421875 C20.4023438,7.80703125 20.5945313,7.5671875 20.8335938,7.471875 C20.8335938,7.471875 20.8335938,7.471875 20.8335938,7.471875 C20.8335938,7.471875 20.8335938,7.42421875 20.8335938,7.42421875 C20.8335938,7.42421875 14.559375,2.77890625 14.559375,2.77890625 C14.4632812,3.1140625 14.3203125,3.4015625 14.128125,3.6890625 C14.128125,3.6890625 14.128125,3.6890625 14.128125,3.6890625 C14.128125,3.6890625 20.1148438,8.14296875 20.1148438,8.14296875 L20.115625,8.1421875 Z M5.4125,19.684375 C5.4125,19.684375 5.4125,19.684375 5.4125,19.684375 C5.4125,19.684375 2.921875,12.5484375 2.921875,12.5484375 C2.6828125,12.6921875 2.346875,12.7398437 1.9640625,12.7398437 C1.9640625,12.7398437 1.9640625,12.7398437 1.9640625,12.7398437 C1.9640625,12.7398437 4.50234375,19.971875 4.50234375,19.971875 C4.74140625,19.828125 5.02890625,19.7328125 5.4125,19.684375 L5.4125,19.684375 Z"/>
  <title>Chart Radar Solid</title>
</svg>