<svg xmlns="http://www.w3.org/2000/svg" viewBox="0 0 25 25" id="chart-donut">
  <path d="M16.7625,16.7617187 C16.7625,16.7617187 16.7625,16.7617187 16.7625,16.7617187 C16.7625,16.7617187 20.9289062,20.928125 20.9289062,20.928125 C22.796875,19.0601562 23.9460937,16.809375 24.3773437,14.175 C24.3773437,14.175 24.3773437,14.175 24.3773437,14.175 C24.3773437,14.175 18.534375,13.2171875 18.534375,13.2171875 C18.3429687,14.6539062 17.7679687,15.8515625 16.7625,16.7609375 L16.7625,16.7617187 Z M19.3007812,14.3671875 C19.3007812,14.3671875 23.228125,14.89375 23.228125,14.89375 C22.796875,16.665625 22.0304687,18.1984375 20.88125,19.5390625 C20.88125,19.5390625 20.88125,19.5390625 20.88125,19.5390625 C20.88125,19.5390625 18.103125,16.7132813 18.103125,16.7132813 C18.678125,15.9945312 19.0609375,15.2289063 19.3007812,14.3664063 C19.3007812,14.3664063 19.3007812,14.3664063 19.3007812,14.3664063 L19.3007812,14.3671875 Z M14.271875,0.190625 C14.271875,0.190625 14.2242187,0.190625 14.2242187,0.190625 C14.2242187,0.190625 13.2664062,5.9859375 13.2664062,5.9859375 C14.7992187,6.225 16.0921875,6.94375 17.0976562,8.14140625 C18.103125,9.3390625 18.6304687,10.6796875 18.6304687,12.2601562 C18.6304687,12.2601562 18.6304687,12.2601562 18.6304687,12.2601562 C18.6304687,12.2601562 24.5210937,12.2601562 24.5210937,12.2601562 C24.5210937,9.24296875 23.5632812,6.60859375 21.6,4.31015625 C19.6367187,2.059375 17.19375,0.6703125 14.2726562,0.19140625 C14.2726562,0.19140625 14.2726562,0.19140625 14.2726562,0.19140625 L14.271875,0.190625 Z M23.515625,11.2539062 C23.515625,11.2539062 19.540625,11.3015625 19.540625,11.3015625 C19.3492187,9.86484375 18.7742187,8.571875 17.8640625,7.4703125 C16.9539063,6.36875 15.8046875,5.65078125 14.4640625,5.21953125 C14.4640625,5.21953125 14.4640625,5.21953125 14.4640625,5.21953125 C14.4640625,5.21953125 15.0390625,1.33984375 15.0390625,1.33984375 C17.3382813,1.91484375 19.2539062,3.11171875 20.834375,4.93203125 C22.4148437,6.75234375 23.2765625,8.859375 23.5164062,11.2539062 C23.5164062,11.2539062 23.5164062,11.2539062 23.5164062,11.2539062 L23.515625,11.2539062 Z M12.2609375,18.6296875 C12.2609375,18.6296875 12.2609375,18.6296875 12.2609375,18.6296875 C10.4890625,18.6296875 9.00390625,18.0070313 7.759375,16.7617188 C6.51484375,15.5164063 5.89140625,14.0320313 5.89140625,12.2601563 C5.89140625,10.4882812 6.5140625,9.003125 7.759375,7.75859375 C8.95703125,6.51328125 10.4890625,5.890625 12.2609375,5.890625 C12.2609375,5.890625 12.2609375,5.890625 12.2609375,5.890625 C12.2609375,5.890625 12.2609375,0 12.2609375,0 C8.8609375,0 5.98671875,1.19765625 3.5921875,3.5921875 C1.19765625,5.98671875 0,8.86015625 0,12.2609375 C0,15.6609375 1.19765625,18.5351562 3.5921875,20.9296875 C5.98671875,23.3242188 8.86015625,24.521875 12.2609375,24.521875 C12.2609375,24.521875 12.2609375,24.521875 12.2609375,24.521875 C14.7992187,24.521875 17.19375,23.7554688 19.3492187,22.2710938 C19.3492187,22.2710938 19.3492187,22.2710938 19.3492187,22.2710938 C19.3492187,22.2710938 15.9492187,17.4820313 15.9492187,17.4820313 C14.8476562,18.2484375 13.6023437,18.63125 12.2617187,18.63125 L12.2609375,18.6296875 Z M12.2609375,23.5148437 C12.2609375,23.5148437 12.2609375,23.5148437 12.2609375,23.5148437 C9.14765625,23.5148437 6.465625,22.4132813 4.2625,20.2101563 C2.059375,18.0070312 0.9578125,15.3726563 0.9578125,12.2601562 C0.9578125,12.2601562 0.9578125,12.2601562 0.9578125,12.2601562 C0.9578125,9.3390625 1.96328125,6.75234375 3.975,4.59765625 C5.93828125,2.4421875 8.38125,1.2453125 11.2546875,1.00546875 C11.2546875,1.00546875 11.2546875,1.00546875 11.2546875,1.00546875 C11.2546875,1.00546875 11.3023437,4.98046875 11.3023437,4.98046875 C9.4828125,5.21953125 7.95,6.034375 6.75234375,7.42265625 C5.50703125,8.81171875 4.884375,10.3921875 4.884375,12.2601562 C4.884375,12.2601562 4.884375,12.2601562 4.884375,12.2601562 C4.884375,14.3195313 5.603125,16.04375 7.03984375,17.4804688 C8.4765625,18.9171875 10.2007812,19.6359375 12.2601562,19.6359375 C12.2601562,19.6359375 12.2601562,19.6359375 12.2601562,19.6359375 C13.409375,19.6359375 14.559375,19.3484375 15.7085938,18.7742188 C15.7085938,18.7742188 15.7085938,18.7742188 15.7085938,18.7742188 C15.7085938,18.7742188 17.9117187,22.03125 17.9117187,22.03125 C16.2351562,23.0367188 14.3195313,23.515625 12.2601562,23.515625 L12.2609375,23.5148437 Z"/>
  <title>Chart Donut</title>
</svg>