<svg xmlns="http://www.w3.org/2000/svg" viewBox="0 0 25 25" id="chart-pie-solid">
  <path d="M12.2976562,14.3570312 C12.2976562,14.3570312 20.2960938,22.5945312 20.2960938,22.5945312 C22.4515625,20.2476562 23.553125,17.4703125 23.553125,14.2609375 C23.553125,14.2609375 23.553125,14.2609375 23.553125,14.2609375 C23.553125,11.0523438 22.4515625,8.2265625 20.2960938,5.8796875 C18.140625,3.5328125 15.4585937,2.23984375 12.2976562,2 C12.2976562,2 12.2976562,2 12.2976562,2 C12.2976562,2 12.2976562,14.35625 12.2976562,14.35625 L12.2976562,14.3570312 Z M11.2914063,4.92265625 C11.2914063,4.92265625 11.2914063,13.7351562 11.2914063,13.7351562 C11.2914063,13.7351562 2,13.7351562 2,13.7351562 C2.14375,11.2929687 3.1015625,9.18515625 4.8734375,7.4609375 C6.6453125,5.784375 8.80078125,4.92265625 11.2914063,4.92265625 C11.2914063,4.92265625 11.2914063,4.92265625 11.2914063,4.92265625 L11.2914063,4.92265625 Z M11.2914063,14.740625 C11.2914063,14.740625 17.5171875,21.1585938 17.5171875,21.1585938 C15.7453125,22.7390625 13.6859375,23.553125 11.2914063,23.553125 C11.2914063,23.553125 11.2914063,23.553125 11.2914063,23.553125 C8.80078125,23.553125 6.64609375,22.6914062 4.8734375,20.9671875 C3.1015625,19.290625 2.14375,17.1835938 2,14.7414063 C2,14.7414063 2,14.7414063 2,14.7414063 C2,14.7414063 11.2914063,14.7414063 11.2914063,14.7414063 L11.2914063,14.740625 Z"/>
  <title>Chart Pie Solid</title>
</svg>