<svg xmlns="http://www.w3.org/2000/svg" viewBox="0 0 25 25" id="chart-radar">
  <path d="M22.559375,7.85546875 C22.559375,7.85546875 22.559375,7.85546875 22.559375,7.85546875 C22.271875,7.85546875 21.984375,7.9515625 21.6492188,8.09453125 C21.6492188,8.09453125 21.6492188,8.09453125 21.6492188,8.09453125 C21.6492188,8.09453125 13.6992188,2.1078125 13.6992188,2.1078125 C13.6992188,2.06015625 13.6992188,2.06015625 13.6992188,2.06015625 C13.6992188,2.06015625 13.6992188,2.06015625 13.6992188,2.06015625 C13.6992188,2.06015625 13.746875,1.9640625 13.746875,1.9640625 C13.746875,1.4375 13.5554687,0.95859375 13.171875,0.575 C12.7882813,0.19140625 12.3101562,0 11.7828125,0 C11.25625,0 10.7773438,0.19140625 10.39375,0.575 C10.0101562,0.95859375 9.81875,1.43671875 9.81875,1.9640625 C9.81875,1.9640625 9.81875,1.9640625 9.81875,1.9640625 C9.81875,1.9640625 9.81875,2.20390625 9.81875,2.20390625 C9.81875,2.20390625 2.87421875,8.09453125 2.87421875,8.09453125 C2.63515625,7.95078125 2.29921875,7.85546875 1.9640625,7.85546875 C1.9640625,7.85546875 1.9640625,7.85546875 1.9640625,7.85546875 C1.4375,7.85546875 0.95859375,8.046875 0.575,8.43046875 C0.19140625,8.8140625 0,9.2921875 0,9.81953125 C0,9.81953125 0,9.81953125 0,9.81953125 C0,10.2984375 0.14375,10.7296875 0.47890625,11.0648438 C0.76640625,11.4 1.14921875,11.6398438 1.58046875,11.7351563 C1.58046875,11.7351563 1.58046875,11.7351563 1.58046875,11.7351563 C1.58046875,11.7351563 4.9328125,21.265625 4.9328125,21.265625 C4.9328125,21.265625 4.9328125,21.6007813 4.9328125,21.6007813 C4.9328125,22.1273438 5.12421875,22.5585938 5.5078125,22.9414063 C5.84296875,23.3242188 6.321875,23.5164063 6.8484375,23.5164063 C6.8484375,23.5164063 6.8484375,23.5164063 6.8484375,23.5164063 C7.85390625,23.5164063 8.4765625,23.0375 8.71640625,22.1273438 C8.71640625,22.1273438 8.71640625,22.1273438 8.71640625,22.1273438 C8.71640625,22.1273438 15.75625,22.5101563 15.75625,22.5101563 C15.8523438,23.0851563 16.1390625,23.5640625 16.5703125,23.946875 C17.0015625,24.3296875 17.528125,24.521875 18.1507813,24.521875 C18.1507813,24.521875 18.1507813,24.521875 18.1507813,24.521875 C18.8210938,24.521875 19.3960938,24.2828125 19.875,23.803125 C20.3539063,23.3234375 20.59375,22.7492188 20.59375,22.0789062 C20.59375,22.0789062 20.59375,22.0789062 20.59375,22.0789062 C20.59375,21.3601562 20.3546875,20.7859375 19.9234375,20.3546875 C19.9234375,20.3546875 19.9234375,20.3546875 19.9234375,20.3546875 C19.9234375,20.3546875 22.940625,11.734375 22.940625,11.734375 C23.371875,11.6382812 23.7546875,11.3992187 24.0898438,11.0640625 C24.3773438,10.7289062 24.5210937,10.2976562 24.5210937,9.81875 C24.5210937,9.81875 24.5210937,9.81875 24.5210937,9.81875 C24.5210937,9.2921875 24.3296875,8.81328125 23.9460937,8.4296875 C23.5625,8.04609375 23.084375,7.8546875 22.5570313,7.8546875 L22.559375,7.85546875 Z M11.7828125,0.95859375 C11.7828125,0.95859375 11.7828125,0.95859375 11.7828125,0.95859375 C12.021875,0.95859375 12.2617188,1.0546875 12.453125,1.24609375 C12.6445313,1.4859375 12.740625,1.725 12.740625,1.96484375 C12.740625,2.2046875 12.6445312,2.44375 12.453125,2.63515625 C12.2617188,2.8265625 12.021875,2.92265625 11.7828125,2.92265625 C11.7828125,2.92265625 11.7828125,2.92265625 11.7828125,2.92265625 C11.4953125,2.92265625 11.25625,2.8265625 11.0640625,2.63515625 C10.871875,2.44375 10.7765625,2.20390625 10.7765625,1.96484375 C10.7765625,1.725 10.8726563,1.4859375 11.0640625,1.24609375 C11.2554688,1.0546875 11.4953125,0.95859375 11.7828125,0.95859375 Z M3.59375,8.76484375 C3.59375,8.76484375 10.203125,3.16171875 10.203125,3.16171875 C10.634375,3.68828125 11.1609375,3.928125 11.7835938,3.928125 C11.7835938,3.928125 11.7835938,3.928125 11.7835938,3.928125 C12.4539063,3.928125 12.98125,3.640625 13.3640625,3.1140625 C13.3640625,3.1140625 13.3640625,3.1140625 13.3640625,3.1140625 C13.3640625,3.1140625 20.93125,8.7171875 20.93125,8.7171875 C20.6921875,9.1 20.5960938,9.48359375 20.5960938,9.81875 C20.5960938,9.81875 20.5960938,9.81875 20.5960938,9.81875 C20.5960938,9.81875 20.5960938,10.0101563 20.5960938,10.0101563 C20.5960938,10.0101563 15.328125,11.9734375 15.328125,11.9734375 C14.8492188,11.159375 14.1789063,10.7757813 13.26875,10.7757813 C13.26875,10.7757813 13.26875,10.7757813 13.26875,10.7757813 C12.2632813,10.7757813 11.5445313,11.2070312 11.1132812,12.06875 C11.1132812,12.06875 11.1132812,12.06875 11.1132812,12.06875 C11.1132812,12.06875 3.9296875,9.865625 3.9296875,9.865625 C3.9296875,9.865625 3.9296875,9.81796875 3.9296875,9.81796875 C3.9296875,9.38671875 3.83359375,9.00390625 3.59453125,8.7640625 C3.59453125,8.7640625 3.59453125,8.7640625 3.59453125,8.7640625 L3.59375,8.76484375 Z M14.2734375,12.165625 C14.5609375,12.453125 14.7046875,12.7882813 14.7046875,13.2195313 C14.7046875,13.6507813 14.5609375,13.9859375 14.2734375,14.2734375 C13.9859375,14.5609375 13.6507812,14.7046875 13.2195312,14.7046875 C13.2195312,14.7046875 13.2195312,14.7046875 13.2195312,14.7046875 C12.8367187,14.7046875 12.5007812,14.5609375 12.2140625,14.2734375 C11.9273438,13.9859375 11.7828125,13.6507813 11.7828125,13.2195313 C11.7828125,12.7882813 11.9265625,12.453125 12.2140625,12.165625 C12.5015625,11.9265625 12.8367187,11.7828125 13.2195312,11.7828125 C13.2195312,11.7828125 13.2195312,11.7828125 13.2195312,11.7828125 C13.6507812,11.7828125 13.9859375,11.9265625 14.2734375,12.165625 Z M0.959375,9.81875 C0.959375,9.81875 0.959375,9.81875 0.959375,9.81875 C0.959375,9.53125 1.05546875,9.2921875 1.29453125,9.1 C1.4859375,8.90859375 1.72578125,8.8125 1.96484375,8.8125 C2.20390625,8.8125 2.44375,8.90859375 2.63515625,9.1 C2.8265625,9.29140625 2.92265625,9.53125 2.92265625,9.81875 C2.92265625,9.81875 2.92265625,9.81875 2.92265625,9.81875 C2.92265625,10.0578125 2.8265625,10.2976562 2.63515625,10.4890625 C2.44375,10.6804688 2.20390625,10.7765625 1.96484375,10.7765625 C1.72578125,10.7765625 1.4859375,10.6804688 1.29453125,10.4890625 C1.05546875,10.2976563 0.959375,10.0578125 0.959375,9.81875 Z M6.85,22.5585938 C6.85,22.5585938 6.85,22.5585938 6.85,22.5585938 C6.6109375,22.5585938 6.37109375,22.4625 6.1796875,22.2710938 C5.98828125,22.0796875 5.8921875,21.8398438 5.8921875,21.6007813 C5.8921875,21.6007813 5.8921875,21.6007813 5.8921875,21.6007813 C5.8921875,21.3132813 5.98828125,21.0742188 6.1796875,20.8820312 C6.37109375,20.6898437 6.6109375,20.5945312 6.85,20.5945312 C6.85,20.5945312 6.85,20.5945312 6.85,20.5945312 C7.1375,20.5945312 7.3765625,20.690625 7.56875,20.8820312 C7.7609375,21.0734375 7.85625,21.3132812 7.85625,21.6007813 C7.85625,21.6007813 7.85625,21.6007813 7.85625,21.6007813 C7.85625,21.8398438 7.76015625,22.0796875 7.56875,22.2710938 C7.37734375,22.4625 7.1375,22.5585938 6.85,22.5585938 Z M19.20625,23.0851563 C18.91875,23.3726562 18.5835937,23.5164062 18.1523438,23.5164062 C17.7210938,23.5164062 17.3859375,23.3726562 17.0984375,23.0851563 C16.8109375,22.8460937 16.6671875,22.5101562 16.6671875,22.0796875 C16.6671875,21.6492187 16.8109375,21.3132812 17.0984375,21.0257812 C17.3859375,20.7382812 17.7210938,20.5945312 18.1523438,20.5945312 C18.5835937,20.5945312 18.91875,20.7382812 19.20625,21.0257812 C19.49375,21.3132812 19.6375,21.6484375 19.6375,22.0796875 C19.6375,22.5109375 19.49375,22.8460938 19.20625,23.0851563 Z M21.8882812,11.6390625 C21.8882812,11.6390625 19.0625,19.7804688 19.0625,19.7804688 C18.775,19.684375 18.4875,19.6367188 18.1523438,19.6367188 C18.1523438,19.6367188 18.1523438,19.6367188 18.1523438,19.6367188 C17.5773437,19.6367188 17.0507812,19.828125 16.6195312,20.1632812 C16.1882812,20.4984375 15.9007812,20.9773438 15.7578125,21.5039062 C15.7578125,21.5039062 15.7578125,21.5039062 15.7578125,21.5039062 C15.7578125,21.5039062 8.765625,21.1210938 8.765625,21.1210938 C8.66953125,20.6898438 8.43046875,20.3070313 8.0953125,20.0195312 C7.76015625,19.7804688 7.32890625,19.6367188 6.89765625,19.6367188 C6.89765625,19.6367188 6.89765625,19.6367188 6.89765625,19.6367188 C6.37109375,19.6367188 5.8921875,19.7804688 5.55703125,20.115625 C5.55703125,20.115625 5.55703125,20.115625 5.55703125,20.115625 C5.55703125,20.115625 2.6359375,11.6382813 2.6359375,11.6382813 C3.0671875,11.4945312 3.40234375,11.2554688 3.64140625,10.8242188 C3.64140625,10.8242188 3.64140625,10.8242188 3.64140625,10.8242188 C3.64140625,10.8242188 10.825,13.0273438 10.825,13.0273438 C10.825,13.075 10.825,13.075 10.825,13.1234375 C10.7773437,13.1710938 10.7773437,13.1710938 10.7773437,13.2195313 C10.7773437,13.2195313 10.7773437,13.2195313 10.7773437,13.2195313 C10.7773437,13.9382813 11.0164062,14.5125 11.4960937,14.9914063 C11.9757812,15.4703125 12.55,15.7101563 13.2203125,15.7101563 C13.2203125,15.7101563 13.2203125,15.7101563 13.2203125,15.7101563 C13.9390625,15.7101563 14.5132813,15.4710938 14.9921875,14.9914063 C15.4710937,14.5117188 15.7109375,13.9375 15.7109375,13.2195313 C15.7109375,13.2195313 15.7109375,13.2195313 15.7109375,13.2195313 C15.7109375,13.171875 15.7109375,13.1234375 15.7109375,13.028125 C15.6632813,12.9804688 15.6632813,12.884375 15.6632813,12.8367188 C15.6632813,12.8367188 15.6632813,12.8367188 15.6632813,12.8367188 C15.6632813,12.8367188 20.93125,10.9210938 20.93125,10.9210938 C21.1703125,11.25625 21.4578125,11.4960938 21.8890625,11.6398438 C21.8890625,11.6398438 21.8890625,11.6398438 21.8890625,11.6398438 L21.8882812,11.6390625 Z M23.2773438,10.4890625 C23.0382813,10.6804687 22.7984375,10.7765625 22.5585938,10.7765625 C22.31875,10.7765625 22.0796875,10.6804688 21.8882812,10.4890625 C21.696875,10.2976563 21.6007813,10.0578125 21.6007813,9.81875 C21.6007813,9.81875 21.6007813,9.81875 21.6007813,9.81875 C21.6007813,9.53125 21.696875,9.2921875 21.8882812,9.1 C22.0796875,8.9078125 22.3195313,8.8125 22.5585938,8.8125 C22.7976563,8.8125 23.0375,8.90859375 23.2773438,9.1 C23.46875,9.29140625 23.5648438,9.53125 23.5648438,9.81875 C23.5648438,9.81875 23.5648438,9.81875 23.5648438,9.81875 C23.5648438,10.0578125 23.46875,10.2976562 23.2773438,10.4890625 Z"/>
  <title>Chart Radar</title>
</svg>