<svg xmlns="http://www.w3.org/2000/svg" viewBox="0 0 25 25" id="chart-donut-solid">
  <path d="M18.534375,13.265625 C18.534375,13.265625 18.534375,13.2179688 18.534375,13.2179688 C18.534375,13.2179688 24.3773437,14.0796875 24.3773437,14.0796875 C23.9460937,16.809375 22.796875,19.0601563 20.9289062,20.928125 C20.9289062,20.928125 20.9289062,20.928125 20.9289062,20.928125 C20.9289062,20.928125 16.7625,16.7617188 16.7625,16.7617188 C17.7679687,15.8515625 18.3429687,14.6546875 18.534375,13.265625 C18.534375,13.265625 18.534375,13.265625 18.534375,13.265625 L18.534375,13.265625 Z M14.271875,0.190625 C14.271875,0.190625 14.2242187,0.190625 14.2242187,0.190625 C14.2242187,0.190625 13.2664062,5.9859375 13.2664062,5.9859375 C14.7992187,6.225 16.0921875,6.94375 17.0976562,8.14140625 C18.103125,9.3390625 18.6304687,10.6796875 18.6304687,12.2601562 C18.6304687,12.2601562 18.6304687,12.2601562 18.6304687,12.2601562 C18.6304687,12.2601562 24.5210937,12.2601562 24.5210937,12.2601562 C24.5210937,9.24296875 23.5632812,6.60859375 21.6,4.31015625 C19.6367187,2.059375 17.19375,0.6703125 14.2726562,0.19140625 C14.2726562,0.19140625 14.2726562,0.19140625 14.2726562,0.19140625 L14.271875,0.190625 Z M12.2609375,18.6296875 C12.2609375,18.6296875 12.2609375,18.6296875 12.2609375,18.6296875 C10.4890625,18.6296875 9.00390625,18.0070313 7.759375,16.7617188 C6.51484375,15.5164063 5.89140625,14.0320313 5.89140625,12.2601563 C5.89140625,10.4882812 6.5140625,9.003125 7.759375,7.75859375 C8.95703125,6.51328125 10.4890625,5.890625 12.2609375,5.890625 C12.2609375,5.890625 12.2609375,5.890625 12.2609375,5.890625 C12.2609375,5.890625 12.2609375,0 12.2609375,0 C8.8609375,0 5.98671875,1.19765625 3.5921875,3.5921875 C1.19765625,5.98671875 0,8.86015625 0,12.2609375 C0,15.6609375 1.19765625,18.5351562 3.5921875,20.9296875 C5.98671875,23.3242188 8.86015625,24.521875 12.2609375,24.521875 C12.2609375,24.521875 12.2609375,24.521875 12.2609375,24.521875 C14.7992187,24.521875 17.19375,23.7554688 19.3492187,22.2710938 C19.3492187,22.2710938 19.3492187,22.2710938 19.3492187,22.2710938 C19.3492187,22.2710938 15.9492187,17.4820313 15.9492187,17.4820313 C14.8476562,18.2484375 13.6023437,18.63125 12.2617187,18.63125 L12.2609375,18.6296875 Z"/>
  <title>Chart Donut Solid</title>
</svg>