<svg xmlns="http://www.w3.org/2000/svg" viewBox="0 0 25 25" id="chart-bar-solid">
  <path d="M7.92734375,13.3023438 C7.92734375,13.3023438 7.92734375,13.3023438 7.92734375,13.3023438 C7.92734375,13.3023438 7.92734375,22.1148438 7.92734375,22.1148438 C7.92734375,22.5460938 7.78359375,22.88125 7.54453125,23.16875 C7.25703125,23.45625 6.921875,23.6 6.490625,23.6 C6.490625,23.6 6.490625,23.6 6.490625,23.6 C6.490625,23.6 5.48515625,23.6 5.48515625,23.6 C5.05390625,23.6 4.71875,23.45625 4.43125,23.16875 C4.14375,22.88125 4,22.5460938 4,22.1148438 C4,22.1148438 4,22.1148438 4,22.1148438 C4,22.1148438 4,13.3023438 4,13.3023438 C4,12.8710938 4.14375,12.5359375 4.43125,12.2484375 C4.71875,11.9609375 5.05390625,11.8171875 5.48515625,11.8171875 C5.48515625,11.8171875 5.48515625,11.8171875 5.48515625,11.8171875 C5.48515625,11.8171875 6.490625,11.8171875 6.490625,11.8171875 C6.921875,11.8171875 7.25703125,11.9609375 7.54453125,12.2484375 C7.78359375,12.5359375 7.92734375,12.8710938 7.92734375,13.3023438 L7.92734375,13.3023438 Z M13.3398438,6.9328125 C13.3398438,6.9328125 13.3398438,6.9328125 13.3398438,6.9328125 C13.3398438,6.9328125 12.3820313,6.9328125 12.3820313,6.9328125 C11.9507813,6.9328125 11.615625,7.0765625 11.328125,7.3640625 C11.040625,7.6515625 10.896875,7.98671875 10.896875,8.41796875 C10.896875,8.41796875 10.896875,8.41796875 10.896875,8.41796875 C10.896875,8.41796875 10.896875,22.115625 10.896875,22.115625 C10.896875,22.546875 11.040625,22.8820313 11.328125,23.1695313 C11.615625,23.4570312 11.9507813,23.6007813 12.3820313,23.6007813 C12.3820313,23.6007813 12.3820313,23.6007813 12.3820313,23.6007813 C12.3820313,23.6007813 13.3398438,23.6007813 13.3398438,23.6007813 C13.7710937,23.6007813 14.10625,23.4570312 14.39375,23.1695313 C14.68125,22.8820313 14.825,22.546875 14.825,22.115625 C14.825,22.115625 14.825,22.115625 14.825,22.115625 C14.825,22.115625 14.825,8.41796875 14.825,8.41796875 C14.825,7.98671875 14.68125,7.6515625 14.39375,7.3640625 C14.10625,7.0765625 13.7710937,6.9328125 13.3398438,6.9328125 Z M20.1882812,2 C20.1882812,2 20.1882812,2 20.1882812,2 C20.1882812,2 19.2304688,2 19.2304688,2 C18.7992188,2 18.4640625,2.14375 18.1765625,2.43125 C17.8890625,2.71875 17.7453125,3.05390625 17.7453125,3.48515625 C17.7453125,3.48515625 17.7453125,3.48515625 17.7453125,3.48515625 C17.7453125,3.48515625 17.7453125,22.115625 17.7453125,22.115625 C17.7453125,22.546875 17.8890625,22.8820313 18.1765625,23.1695313 C18.4640625,23.4570312 18.7992188,23.6007813 19.2304688,23.6007813 C19.2304688,23.6007813 19.2304688,23.6007813 19.2304688,23.6007813 C19.2304688,23.6007813 20.1882812,23.6007813 20.1882812,23.6007813 C20.6195313,23.6007813 20.9546875,23.4570312 21.2421875,23.1695313 C21.5296875,22.8820313 21.6734375,22.546875 21.6734375,22.115625 C21.6734375,22.115625 21.6734375,22.115625 21.6734375,22.115625 C21.6734375,22.115625 21.6734375,3.48515625 21.6734375,3.48515625 C21.6734375,3.05390625 21.5296875,2.71875 21.2421875,2.43125 C20.9546875,2.14375 20.6195313,2 20.1882812,2 Z"/>
  <title>Chart Bar Solid</title>
</svg>