<svg xmlns="http://www.w3.org/2000/svg" viewBox="0 0 25 25" id="chart-bar">
  <path d="M6.490625,11.8179688 C6.490625,11.8179688 6.490625,11.8179688 6.490625,11.8179688 C6.490625,11.8179688 5.48515625,11.8179688 5.48515625,11.8179688 C5.05390625,11.8179688 4.71875,11.9617188 4.43125,12.2492188 C4.14375,12.5367188 4,12.871875 4,13.303125 C4,13.303125 4,13.303125 4,13.303125 C4,13.303125 4,22.115625 4,22.115625 C4,22.546875 4.14375,22.8820313 4.43125,23.1695313 C4.71875,23.4570312 5.05390625,23.6007813 5.48515625,23.6007813 C5.48515625,23.6007813 5.48515625,23.6007813 5.48515625,23.6007813 C5.48515625,23.6007813 6.490625,23.6007813 6.490625,23.6007813 C6.921875,23.6007813 7.25703125,23.4570313 7.54453125,23.1695313 C7.78359375,22.8820313 7.92734375,22.546875 7.92734375,22.115625 C7.92734375,22.115625 7.92734375,22.115625 7.92734375,22.115625 C7.92734375,22.115625 7.92734375,13.303125 7.92734375,13.303125 C7.92734375,12.871875 7.78359375,12.5367188 7.54453125,12.2492188 C7.25703125,11.9617188 6.921875,11.8179688 6.490625,11.8179688 L6.490625,11.8179688 Z M6.96953125,13.3023438 C6.96953125,13.3023438 6.96953125,22.1148438 6.96953125,22.1148438 C6.96953125,22.45 6.82578125,22.59375 6.490625,22.59375 C6.490625,22.59375 6.490625,22.59375 6.490625,22.59375 C6.490625,22.59375 5.48515625,22.59375 5.48515625,22.59375 C5.15,22.59375 5.00625,22.45 5.00625,22.1148438 C5.00625,22.1148438 5.00625,22.1148438 5.00625,22.1148438 C5.00625,22.1148438 5.00625,13.3023438 5.00625,13.3023438 C5.00625,12.9671875 5.15,12.8234375 5.48515625,12.8234375 C5.48515625,12.8234375 5.48515625,12.8234375 5.48515625,12.8234375 C5.48515625,12.8234375 6.490625,12.8234375 6.490625,12.8234375 C6.82578125,12.8234375 6.96953125,12.9671875 6.96953125,13.3023438 C6.96953125,13.3023438 6.96953125,13.3023438 6.96953125,13.3023438 L6.96953125,13.3023438 Z M13.3398438,6.9328125 C13.3398438,6.9328125 13.3398438,6.9328125 13.3398438,6.9328125 C13.3398438,6.9328125 12.3820313,6.9328125 12.3820313,6.9328125 C11.9507813,6.9328125 11.615625,7.0765625 11.328125,7.3640625 C11.040625,7.6515625 10.896875,7.98671875 10.896875,8.41796875 C10.896875,8.41796875 10.896875,8.41796875 10.896875,8.41796875 C10.896875,8.41796875 10.896875,22.115625 10.896875,22.115625 C10.896875,22.546875 11.040625,22.8820312 11.328125,23.1695313 C11.615625,23.4570312 11.9507813,23.6007813 12.3820313,23.6007813 C12.3820313,23.6007813 12.3820313,23.6007813 12.3820313,23.6007813 C12.3820313,23.6007813 13.3398438,23.6007813 13.3398438,23.6007813 C13.7710937,23.6007813 14.10625,23.4570313 14.39375,23.1695313 C14.68125,22.8820313 14.825,22.546875 14.825,22.115625 C14.825,22.115625 14.825,22.115625 14.825,22.115625 C14.825,22.115625 14.825,8.41796875 14.825,8.41796875 C14.825,7.98671875 14.68125,7.6515625 14.39375,7.3640625 C14.10625,7.0765625 13.7710937,6.9328125 13.3398438,6.9328125 Z M13.81875,8.4171875 C13.81875,8.4171875 13.81875,22.1148437 13.81875,22.1148437 C13.81875,22.45 13.675,22.59375 13.3398437,22.59375 C13.3398437,22.59375 13.3398437,22.59375 13.3398437,22.59375 C13.3398437,22.59375 12.3820312,22.59375 12.3820312,22.59375 C12.046875,22.59375 11.8554687,22.45 11.8554687,22.1148437 C11.8554687,22.1148437 11.8554687,22.1148437 11.8554687,22.1148437 C11.8554687,22.1148437 11.8554687,8.4171875 11.8554687,8.4171875 C11.8554687,8.08203125 12.046875,7.890625 12.3820312,7.890625 C12.3820312,7.890625 12.3820312,7.890625 12.3820312,7.890625 C12.3820312,7.890625 13.3398437,7.890625 13.3398437,7.890625 C13.675,7.890625 13.81875,8.08203125 13.81875,8.4171875 C13.81875,8.4171875 13.81875,8.4171875 13.81875,8.4171875 Z M20.1882812,2 C20.1882812,2 20.1882812,2 20.1882812,2 C20.1882812,2 19.2304688,2 19.2304688,2 C18.7992188,2 18.4640625,2.14375 18.1765625,2.43125 C17.8890625,2.71875 17.7453125,3.05390625 17.7453125,3.48515625 C17.7453125,3.48515625 17.7453125,3.48515625 17.7453125,3.48515625 C17.7453125,3.48515625 17.7453125,22.115625 17.7453125,22.115625 C17.7453125,22.546875 17.8890625,22.8820313 18.1765625,23.1695313 C18.4640625,23.4570312 18.7992188,23.6007813 19.2304688,23.6007813 C19.2304688,23.6007813 19.2304688,23.6007813 19.2304688,23.6007813 C19.2304688,23.6007813 20.1882812,23.6007813 20.1882812,23.6007813 C20.6195313,23.6007813 20.9546875,23.4570313 21.2421875,23.1695313 C21.5296875,22.8820313 21.6734375,22.546875 21.6734375,22.115625 C21.6734375,22.115625 21.6734375,22.115625 21.6734375,22.115625 C21.6734375,22.115625 21.6734375,3.48515625 21.6734375,3.48515625 C21.6734375,3.05390625 21.5296875,2.71875 21.2421875,2.43125 C20.9546875,2.14375 20.6195313,2 20.1882812,2 Z M20.7148438,3.484375 C20.7148438,3.484375 20.7148438,22.1148438 20.7148438,22.1148438 C20.7148438,22.45 20.5234375,22.59375 20.1882812,22.59375 C20.1882812,22.59375 20.1882812,22.59375 20.1882812,22.59375 C20.1882812,22.59375 19.2304688,22.59375 19.2304688,22.59375 C18.8953125,22.59375 18.7515625,22.45 18.7515625,22.1148438 C18.7515625,22.1148438 18.7515625,22.1148438 18.7515625,22.1148438 C18.7515625,22.1148438 18.7515625,3.484375 18.7515625,3.484375 C18.7515625,3.14921875 18.8953125,3.00546875 19.2304688,3.00546875 C19.2304688,3.00546875 19.2304688,3.00546875 19.2304688,3.00546875 C19.2304688,3.00546875 20.1882812,3.00546875 20.1882812,3.00546875 C20.5234375,3.00546875 20.7148438,3.14921875 20.7148438,3.484375 C20.7148438,3.484375 20.7148438,3.484375 20.7148438,3.484375 Z"/>
  <title>Chart Bar</title>
</svg>