<svg xmlns="http://www.w3.org/2000/svg" viewBox="0 0 25 25" id="chat-sentiment">
  <path d="M23.0367187,1 C23.0367187,1 23.0367187,1 23.0367187,1 C23.0367187,1 1.48515625,1 1.48515625,1 C1.05390625,1.04765625 0.71875,1.19140625 0.43125,1.43125 C0.14375,1.71875 0,2.05390625 0,2.48515625 C0,2.48515625 0,2.48515625 0,2.48515625 C0,2.48515625 0,18.19375 0,18.19375 C0,18.625 0.14375,18.9601563 0.43125,19.2476563 C0.71875,19.5351562 1.05390625,19.6789062 1.48515625,19.6789062 C1.48515625,19.6789062 1.48515625,19.6789062 1.48515625,19.6789062 C1.48515625,19.6789062 13.8890625,19.6789062 13.8890625,19.6789062 C14.0328125,19.6789062 14.128125,19.7265625 14.1765625,19.775 C14.1765625,19.775 14.1765625,19.775 14.1765625,19.775 C14.1765625,19.775 19.0140625,23.3671875 19.0140625,23.3671875 C19.253125,23.5109375 19.4453125,23.60625 19.6367188,23.60625 C19.6367188,23.60625 19.6367188,23.60625 19.6367188,23.60625 C19.8757813,23.60625 20.115625,23.5101562 20.3070313,23.2710938 C20.4984375,23.0796875 20.5945313,22.8398438 20.5945313,22.6007813 C20.5945313,22.6007813 20.5945313,22.6007813 20.5945313,22.6007813 C20.5945313,22.6007813 20.5945313,19.6796875 20.5945313,19.6796875 C20.5945313,19.6796875 23.0367188,19.6796875 23.0367188,19.6796875 C23.4679688,19.6796875 23.803125,19.5359375 24.090625,19.2484375 C24.378125,18.9609375 24.521875,18.6257812 24.521875,18.1945313 C24.521875,18.1945313 24.521875,18.1945313 24.521875,18.1945313 C24.521875,18.1945313 24.521875,2.4859375 24.521875,2.4859375 C24.521875,2.0546875 24.378125,1.71953125 24.090625,1.43203125 C23.803125,1.1921875 23.4679688,1.04921875 23.0367188,1.00078125 L23.0367187,1 Z M23.5632812,2.484375 C23.5632812,2.484375 23.5632812,18.1929688 23.5632812,18.1929688 C23.5632812,18.528125 23.371875,18.671875 23.0367188,18.671875 C23.0367188,18.671875 23.0367188,18.671875 23.0367188,18.671875 C23.0367188,18.671875 20.3070312,18.671875 20.3070312,18.671875 C20.115625,18.671875 19.971875,18.7195313 19.828125,18.8632812 C19.684375,19.0070313 19.6367188,19.1984375 19.6367188,19.3421875 C19.6367188,19.3421875 19.6367188,19.3421875 19.6367188,19.3421875 C19.6367188,19.3421875 19.6367188,22.5992188 19.6367188,22.5992188 C19.6367188,22.5992188 14.7992187,18.959375 14.7992187,18.959375 C14.5601562,18.7679687 14.2726562,18.671875 13.8890625,18.671875 C13.8890625,18.671875 13.8890625,18.671875 13.8890625,18.671875 C13.8890625,18.671875 1.48515625,18.671875 1.48515625,18.671875 C1.15,18.671875 0.95859375,18.528125 0.95859375,18.1929688 C0.95859375,18.1929688 0.95859375,18.1929688 0.95859375,18.1929688 C0.95859375,18.1929688 0.95859375,2.484375 0.95859375,2.484375 C0.95859375,2.14921875 1.15,2.00546875 1.48515625,2.00546875 C1.48515625,2.00546875 1.48515625,2.00546875 1.48515625,2.00546875 C1.48515625,2.00546875 23.0367188,2.00546875 23.0367188,2.00546875 C23.371875,2.00546875 23.5632812,2.14921875 23.5632812,2.484375 C23.5632812,2.484375 23.5632812,2.484375 23.5632812,2.484375 Z M16.475,12.8773438 C16.475,12.8773438 16.475,12.8773438 16.475,12.8773438 C16.61875,13.0210938 16.6664062,13.1164063 16.6664062,13.2601562 C16.6664062,13.4039062 16.61875,13.4992188 16.5703125,13.5476562 C16.5703125,13.5476562 16.5703125,13.5476562 16.5703125,13.5476562 C15.5164062,15.0320312 14.0796875,15.7507812 12.2601562,15.7507812 C10.440625,15.7507812 9.003125,15.0320312 7.95,13.5953125 C7.95,13.5953125 7.95,13.5953125 7.95,13.5953125 C7.90234375,13.4515625 7.85390625,13.35625 7.85390625,13.2601562 C7.85390625,13.2601562 7.85390625,13.2601562 7.85390625,13.2601562 C7.85390625,12.925 7.99765625,12.78125 8.3328125,12.78125 C8.3328125,12.78125 8.3328125,12.78125 8.3328125,12.78125 C8.52421875,12.78125 8.66796875,12.8773438 8.7640625,13.0203125 C8.7640625,13.0203125 8.7640625,13.0203125 8.7640625,13.0203125 C9.67421875,14.1695313 10.8234375,14.7445313 12.2601562,14.7445313 C13.696875,14.7445313 14.8460937,14.1695313 15.75625,13.0203125 C15.75625,13.0203125 15.75625,13.0203125 15.75625,13.0203125 C15.8523437,12.8765625 15.9953125,12.78125 16.1875,12.78125 C16.1875,12.78125 16.1875,12.78125 16.1875,12.78125 C16.2351562,12.78125 16.33125,12.8289062 16.475,12.8773438 L16.475,12.8773438 Z"/>
  <title>Chat Sentiment</title>
</svg>