<svg xmlns="http://www.w3.org/2000/svg" viewBox="0 0 25 25" id="chats">
  <path d="M23.0367187,0 C23.0367187,0 23.0367187,0 23.0367187,0 C23.0367187,0 5.4125,0 5.4125,0 C4.98125,0 4.64609375,0.14375 4.35859375,0.43125 C4.07109375,0.71875 3.92734375,1.05390625 3.92734375,1.48515625 C3.92734375,1.48515625 3.92734375,1.48515625 3.92734375,1.48515625 C3.92734375,1.48515625 3.92734375,3.92734375 3.92734375,3.92734375 C3.92734375,3.92734375 1.48515625,3.92734375 1.48515625,3.92734375 C1.05390625,3.92734375 0.71875,4.07109375 0.43125,4.35859375 C0.14375,4.64609375 0,4.98125 0,5.4125 C0,5.4125 0,5.4125 0,5.4125 C0,5.4125 0,19.1101562 0,19.1101562 C0,19.5414063 0.14375,19.8765625 0.43125,20.1640625 C0.71875,20.4515625 1.05390625,20.5953125 1.48515625,20.5953125 C1.48515625,20.5953125 1.48515625,20.5953125 1.48515625,20.5953125 C1.48515625,20.5953125 3.92734375,20.5953125 3.92734375,20.5953125 C3.92734375,20.5953125 3.92734375,23.5164062 3.92734375,23.5164062 C3.92734375,23.5164062 3.92734375,23.5640625 3.92734375,23.5640625 C3.92734375,23.803125 4.0234375,24.0429688 4.21484375,24.234375 C4.40625,24.4257812 4.64609375,24.521875 4.88515625,24.521875 C4.88515625,24.521875 4.88515625,24.521875 4.88515625,24.521875 C5.02890625,24.521875 5.26796875,24.4742188 5.5078125,24.3304688 C5.5078125,24.3304688 5.5078125,24.3304688 5.5078125,24.3304688 C5.5078125,24.3304688 10.440625,20.5945313 10.440625,20.5945313 C10.440625,20.5945313 19.6359375,20.5945313 19.6359375,20.5945313 C19.7796875,20.5945313 19.9234375,20.5945313 19.9710937,20.546875 C19.9710937,20.546875 19.9710937,20.546875 19.9710937,20.546875 C19.9710937,20.546875 20.01875,20.4992188 20.01875,20.4992188 C20.4015625,20.3554688 20.59375,20.0679688 20.59375,19.6375 C20.59375,19.6375 20.59375,19.6375 20.59375,19.6375 C20.59375,19.6375 20.59375,16.6679688 20.59375,16.6679688 C20.59375,16.6679688 23.0359375,16.6679688 23.0359375,16.6679688 C23.4671875,16.6679688 23.8023438,16.5242187 24.0898438,16.2367187 C24.3773438,15.9492188 24.5210937,15.6140625 24.5210937,15.1828125 C24.5210937,15.1828125 24.5210937,15.1828125 24.5210937,15.1828125 C24.5210937,15.1828125 24.5210937,1.48515625 24.5210937,1.48515625 C24.5210937,1.05390625 24.3773438,0.71875 24.0898438,0.43125 C23.8023437,0.14375 23.4671875,0 23.0359375,0 L23.0367187,0 Z M17.9601563,19.6359375 C17.9601563,19.6359375 10.1539062,19.6359375 10.1539062,19.6359375 C10.1539062,19.6359375 4.8859375,23.515625 4.8859375,23.515625 C4.8859375,23.515625 4.8859375,19.6359375 4.8859375,19.6359375 C4.8859375,19.6359375 1.48515625,19.6359375 1.48515625,19.6359375 C1.15,19.6359375 0.95859375,19.4445312 0.95859375,19.109375 C0.95859375,19.109375 0.95859375,19.109375 0.95859375,19.109375 C0.95859375,19.109375 0.95859375,5.41171875 0.95859375,5.41171875 C0.95859375,5.0765625 1.15,4.88515625 1.48515625,4.88515625 C1.48515625,4.88515625 1.48515625,4.88515625 1.48515625,4.88515625 C1.48515625,4.88515625 3.92734375,4.88515625 3.92734375,4.88515625 C3.92734375,4.88515625 3.92734375,15.1820312 3.92734375,15.1820312 C3.92734375,15.6132812 4.07109375,15.9484375 4.35859375,16.2359375 C4.64609375,16.5234375 4.98125,16.6671875 5.4125,16.6671875 C5.4125,16.6671875 5.4125,16.6671875 5.4125,16.6671875 C5.4125,16.6671875 14.08125,16.6671875 14.08125,16.6671875 C14.08125,16.6671875 17.9609375,19.6367187 17.9609375,19.6367187 L17.9601563,19.6359375 Z M23.5632812,1.484375 C23.5632812,1.484375 23.5632812,15.1820313 23.5632812,15.1820313 C23.5632812,15.5171875 23.371875,15.7085937 23.0367187,15.7085937 C23.0367187,15.7085937 23.0367187,15.7085937 23.0367187,15.7085937 C23.0367187,15.7085937 19.6367188,15.7085937 19.6367188,15.7085937 C19.6367188,15.7085937 19.6367188,19.6359375 19.6367188,19.6359375 C19.6367188,19.6359375 14.36875,15.7085937 14.36875,15.7085937 C14.36875,15.7085937 5.4125,15.7085937 5.4125,15.7085937 C5.07734375,15.7085937 4.8859375,15.5171875 4.8859375,15.1820313 C4.8859375,15.1820313 4.8859375,15.1820313 4.8859375,15.1820313 C4.8859375,15.1820313 4.8859375,1.484375 4.8859375,1.484375 C4.8859375,1.14921875 5.07734375,0.9578125 5.4125,0.9578125 C5.4125,0.9578125 5.4125,0.9578125 5.4125,0.9578125 C5.4125,0.9578125 23.0367187,0.9578125 23.0367187,0.9578125 C23.371875,0.9578125 23.5632812,1.14921875 23.5632812,1.484375 C23.5632812,1.484375 23.5632812,1.484375 23.5632812,1.484375 Z"/>
  <title>Chats</title>
</svg>