<svg xmlns="http://www.w3.org/2000/svg" viewBox="0 0 25 25" id="chat-sentiment-solid">
  <path d="M23.0367187,1 C23.0367187,1 23.0367187,1 23.0367187,1 C23.0367187,1 1.48515625,1 1.48515625,1 C1.05390625,1 0.71875,1.14375 0.43125,1.43125 C0.14375,1.71875 0,2.05390625 0,2.48515625 C0,2.48515625 0,2.48515625 0,2.48515625 C0,2.48515625 0,18.1460938 0,18.1460938 C0,18.5773438 0.14375,18.9125 0.43125,19.2 C0.71875,19.4875 1.05390625,19.63125 1.48515625,19.63125 C1.48515625,19.63125 1.48515625,19.63125 1.48515625,19.63125 C1.48515625,19.63125 13.8890625,19.63125 13.8890625,19.63125 C14.0328125,19.63125 14.128125,19.6789063 14.1765625,19.7273438 C14.1765625,19.7273438 14.1765625,19.7273438 14.1765625,19.7273438 C14.1765625,19.7273438 19.0140625,23.3671875 19.0140625,23.3671875 C19.253125,23.5109375 19.4929688,23.5585938 19.6367188,23.5585938 C19.6367188,23.5585938 19.6367188,23.5585938 19.6367188,23.5585938 C19.8757813,23.5585938 20.115625,23.4625 20.3070313,23.2710938 C20.4984375,23.0796875 20.5945313,22.8398438 20.5945313,22.5523437 C20.5945313,22.5523437 20.5945313,22.5523437 20.5945313,22.5523437 C20.5945313,22.5523437 20.5945313,19.63125 20.5945313,19.63125 C20.5945313,19.63125 23.0367188,19.63125 23.0367188,19.63125 C23.4679688,19.63125 23.803125,19.4875 24.090625,19.2 C24.378125,18.9125 24.521875,18.5773437 24.521875,18.1460937 C24.521875,18.1460937 24.521875,18.1460937 24.521875,18.1460937 C24.521875,18.1460937 24.521875,2.48515625 24.521875,2.48515625 C24.521875,2.05390625 24.378125,1.71875 24.090625,1.43125 C23.803125,1.14375 23.4679688,1 23.0367187,1 Z M16.5710937,13.5484375 C16.5710937,13.5484375 16.5710937,13.5484375 16.5710937,13.5484375 C15.5171875,14.9851562 14.0804688,15.7039062 12.2609375,15.7039062 C10.4414062,15.7039062 9.00390625,14.9851562 7.95078125,13.5484375 C7.95078125,13.5484375 7.95078125,13.5484375 7.95078125,13.5484375 C7.903125,13.4046875 7.8546875,13.309375 7.8546875,13.2609375 C7.8546875,13.2609375 7.8546875,13.2609375 7.8546875,13.2609375 C7.8546875,12.9257812 7.9984375,12.7820312 8.33359375,12.7820312 C8.33359375,12.7820312 8.33359375,12.7820312 8.33359375,12.7820312 C8.525,12.7820312 8.66875,12.8296875 8.76484375,12.9734375 C8.76484375,12.9734375 8.76484375,12.9734375 8.76484375,12.9734375 C9.675,14.1710938 10.871875,14.7453125 12.2609375,14.7453125 C13.65,14.7453125 14.846875,14.1703125 15.7570313,12.9734375 C15.7570313,12.9734375 15.7570313,12.9734375 15.7570313,12.9734375 C15.853125,12.8296875 15.9960938,12.7820312 16.1882813,12.7820312 C16.1882813,12.7820312 16.1882813,12.7820312 16.1882813,12.7820312 C16.5234375,12.7820312 16.6671875,12.9257812 16.6671875,13.2609375 C16.6671875,13.2609375 16.6671875,13.2609375 16.6671875,13.2609375 C16.6671875,13.4046875 16.6195313,13.5 16.5710937,13.5484375 Z"/>
  <title>Chat Sentiment Solid</title>
</svg>