<svg xmlns="http://www.w3.org/2000/svg" viewBox="0 0 25 25" id="chats-solid">
  <path d="M6.36953125,17.6726563 C6.36953125,17.6726563 13.7453125,17.6726563 13.7453125,17.6726563 C13.7453125,17.6726563 17.6726562,20.59375 17.6726562,20.59375 C17.6726562,20.59375 10.440625,20.59375 10.440625,20.59375 C10.440625,20.59375 5.5078125,24.3296875 5.5078125,24.3296875 C5.26875,24.4734375 5.02890625,24.5210937 4.88515625,24.5210937 C4.88515625,24.5210937 4.88515625,24.5210937 4.88515625,24.5210937 C4.64609375,24.5210937 4.40625,24.425 4.21484375,24.2335938 C4.0234375,24.0421875 3.92734375,23.8023437 3.92734375,23.5148438 C3.92734375,23.5148438 3.92734375,23.5148438 3.92734375,23.5148438 C3.92734375,23.5148438 3.92734375,20.59375 3.92734375,20.59375 C3.92734375,20.59375 1.48515625,20.59375 1.48515625,20.59375 C1.05390625,20.59375 0.71875,20.45 0.43125,20.1625 C0.14375,19.875 0,19.5398437 0,19.1085937 C0,19.1085937 0,19.1085937 0,19.1085937 C0,19.1085937 0,5.4109375 0,5.4109375 C0,4.9796875 0.14375,4.64453125 0.43125,4.35703125 C0.71875,4.06953125 1.05390625,3.92578125 1.48515625,3.92578125 C1.48515625,3.92578125 1.48515625,3.92578125 1.48515625,3.92578125 C1.48515625,3.92578125 3.92734375,3.92578125 3.92734375,3.92578125 C3.92734375,3.92578125 3.92734375,15.1804687 3.92734375,15.1804687 C3.92734375,15.8992187 4.16640625,16.4734375 4.64609375,16.9523437 C5.12578125,17.43125 5.7,17.6710937 6.3703125,17.6710937 C6.3703125,17.6710937 6.3703125,17.6710937 6.3703125,17.6710937 L6.36953125,17.6726563 Z M23.0367187,0 C23.0367187,0 23.0367187,0 23.0367187,0 C23.0367187,0 6.3703125,0 6.3703125,0 C5.9390625,0 5.60390625,0.14375 5.31640625,0.43125 C5.02890625,0.71875 4.88515625,1.05390625 4.88515625,1.48515625 C4.88515625,1.48515625 4.88515625,1.48515625 4.88515625,1.48515625 C4.88515625,1.48515625 4.88515625,15.1828125 4.88515625,15.1828125 C4.88515625,15.6140625 5.02890625,15.9492187 5.31640625,16.2367187 C5.60390625,16.5242187 5.9390625,16.6679687 6.3703125,16.6679687 C6.3703125,16.6679687 6.3703125,16.6679687 6.3703125,16.6679687 C6.3703125,16.6679687 14.08125,16.6679687 14.08125,16.6679687 C14.08125,16.6679687 19.0140625,20.4039062 19.0140625,20.4039062 C19.253125,20.5476562 19.4929687,20.5953125 19.6367187,20.5953125 C19.6367187,20.5953125 19.6367187,20.5953125 19.6367187,20.5953125 C19.8757812,20.5953125 20.115625,20.4992187 20.3070312,20.3078125 C20.4984375,20.1164063 20.5945312,19.8765625 20.5945312,19.6375 C20.5945312,19.6375 20.5945312,19.6375 20.5945312,19.6375 C20.5945312,19.6375 20.5945312,16.6679687 20.5945312,16.6679687 C20.5945312,16.6679687 23.0367187,16.6679687 23.0367187,16.6679687 C23.4679687,16.6679687 23.803125,16.5242187 24.090625,16.2367187 C24.378125,15.9492187 24.521875,15.6140625 24.521875,15.1828125 C24.521875,15.1828125 24.521875,15.1828125 24.521875,15.1828125 C24.521875,15.1828125 24.521875,1.48515625 24.521875,1.48515625 C24.521875,1.05390625 24.378125,0.71875 24.090625,0.43125 C23.803125,0.14375 23.4679687,0 23.0367187,0 Z"/>
  <title>Chats Solid</title>
</svg>