<svg xmlns="http://www.w3.org/2000/svg" viewBox="0 0 25 25" id="chat-help">
  <path d="M23.0367187,1 C23.0367187,1 23.0367187,1 23.0367187,1 C23.0367187,1 1.48515625,1 1.48515625,1 C1.05390625,1 0.71875,1.14375 0.43125,1.43125 C0.14375,1.71875 0,2.05390625 0,2.48515625 C0,2.48515625 0,2.48515625 0,2.48515625 C0,2.48515625 0,18.1460937 0,18.1460937 C0,18.5773437 0.14375,18.9125 0.43125,19.2 C0.71875,19.4875 1.05390625,19.63125 1.48515625,19.63125 C1.48515625,19.63125 1.48515625,19.63125 1.48515625,19.63125 C1.48515625,19.63125 13.8890625,19.63125 13.8890625,19.63125 C14.0328125,19.63125 14.128125,19.6789063 14.1765625,19.7273438 C14.1765625,19.7273438 14.1765625,19.7273438 14.1765625,19.7273438 C14.1765625,19.7273438 19.0140625,23.3671875 19.0140625,23.3671875 C19.253125,23.5109375 19.4929688,23.5585938 19.6367188,23.5585938 C19.6367188,23.5585938 19.6367188,23.5585938 19.6367188,23.5585938 C19.8757813,23.5585938 20.115625,23.4625 20.3070313,23.2710938 C20.4984375,23.0796875 20.5945313,22.8398438 20.5945313,22.6007813 C20.5945313,22.6007813 20.5945313,22.6007813 20.5945313,22.6007813 C20.5945313,22.6007813 20.5945313,19.63125 20.5945313,19.63125 C20.5945313,19.63125 23.0367188,19.63125 23.0367188,19.63125 C23.4679688,19.63125 23.803125,19.4875 24.090625,19.2 C24.378125,18.9125 24.521875,18.5773437 24.521875,18.1460937 C24.521875,18.1460937 24.521875,18.1460937 24.521875,18.1460937 C24.521875,18.1460937 24.521875,2.48515625 24.521875,2.48515625 C24.521875,2.05390625 24.378125,1.71875 24.090625,1.43125 C23.803125,1.14375 23.4679688,1 23.0367187,1 Z M23.5632812,2.484375 C23.5632812,2.484375 23.5632812,18.1453125 23.5632812,18.1453125 C23.5632812,18.4804688 23.371875,18.671875 23.0367188,18.671875 C23.0367188,18.671875 23.0367188,18.671875 23.0367188,18.671875 C23.0367188,18.671875 20.3070312,18.671875 20.3070312,18.671875 C19.8757812,18.671875 19.6367188,18.9109375 19.6367188,19.3421875 C19.6367188,19.3421875 19.6367188,19.3421875 19.6367188,19.3421875 C19.6367188,19.3421875 19.6367188,22.5507812 19.6367188,22.5507812 C19.6367188,22.5507812 14.7992187,18.9585937 14.7992187,18.9585937 C14.5601562,18.7671875 14.2726562,18.6710938 13.8890625,18.6710938 C13.8890625,18.6710938 13.8890625,18.6710938 13.8890625,18.6710938 C13.8890625,18.6710938 1.48515625,18.6710938 1.48515625,18.6710938 C1.15,18.6710938 0.95859375,18.4796875 0.95859375,18.1445313 C0.95859375,18.1445313 0.95859375,18.1445313 0.95859375,18.1445313 C0.95859375,18.1445313 0.95859375,2.48359375 0.95859375,2.48359375 C0.95859375,2.1484375 1.15,1.95703125 1.48515625,1.95703125 C1.48515625,1.95703125 1.48515625,1.95703125 1.48515625,1.95703125 C1.48515625,1.95703125 23.0367188,1.95703125 23.0367188,1.95703125 C23.371875,1.95703125 23.5632812,2.1484375 23.5632812,2.48359375 C23.5632812,2.48359375 23.5632812,2.48359375 23.5632812,2.48359375 L23.5632812,2.484375 Z M15.7085937,8.37578125 C15.7085937,8.37578125 15.7085937,8.37578125 15.7085937,8.37578125 C15.7085937,8.37578125 15.7085937,8.90234375 15.7085937,8.90234375 C15.7085937,10.1 15.1335937,10.865625 14.0320312,11.2492188 C14.0320312,11.2492188 14.0320312,11.2492188 14.0320312,11.2492188 C14.0320312,11.2492188 13.0742187,11.5367187 13.0742187,11.5367187 C12.8351562,11.584375 12.7390625,11.7757813 12.7390625,12.015625 C12.7390625,12.015625 12.7390625,12.015625 12.7390625,12.015625 C12.7390625,12.015625 12.7390625,13.2609375 12.7390625,13.2609375 C12.7390625,13.5960937 12.5953125,13.7398438 12.2601562,13.7398438 C11.925,13.7398438 11.78125,13.5960937 11.78125,13.2609375 C11.78125,13.2609375 11.78125,13.2609375 11.78125,13.2609375 C11.78125,13.2609375 11.78125,12.015625 11.78125,12.015625 C11.78125,11.296875 12.1164062,10.8179688 12.7867187,10.6265625 C12.7867187,10.6265625 12.7867187,10.6265625 12.7867187,10.6265625 C12.7867187,10.6265625 13.696875,10.2914062 13.696875,10.2914062 C14.3671875,10.1 14.7023437,9.62109375 14.7023437,8.90234375 C14.7023437,8.90234375 14.7023437,8.90234375 14.7023437,8.90234375 C14.7023437,8.90234375 14.7023437,8.37578125 14.7023437,8.37578125 C14.7023437,7.65703125 14.4632812,7.0828125 13.9835937,6.60390625 C13.5039062,6.125 12.9296875,5.88515625 12.259375,5.88515625 C11.5890625,5.88515625 11.0140625,6.12421875 10.5351562,6.60390625 C10.05625,7.08359375 9.81640625,7.6578125 9.81640625,8.37578125 C9.81640625,8.37578125 9.81640625,8.37578125 9.81640625,8.37578125 C9.81640625,8.7109375 9.67265625,8.8546875 9.3375,8.8546875 C9.3375,8.8546875 9.3375,8.8546875 9.3375,8.8546875 C9.00234375,8.8546875 8.8109375,8.7109375 8.8109375,8.37578125 C8.8109375,8.37578125 8.8109375,8.37578125 8.8109375,8.37578125 C8.8109375,7.41796875 9.14609375,6.60390625 9.81640625,5.93359375 C10.4867187,5.26328125 11.3007812,4.928125 12.2585937,4.928125 C13.2164062,4.928125 14.0304687,5.26328125 14.7007812,5.93359375 C15.3710937,6.60390625 15.70625,7.41796875 15.70625,8.37578125 L15.7085937,8.37578125 Z M11.78125,15.703125 C11.78125,15.703125 11.78125,14.7453125 11.78125,14.7453125 C11.78125,14.7453125 12.7390625,14.7453125 12.7390625,14.7453125 C12.7390625,14.7453125 12.7390625,15.703125 12.7390625,15.703125 C12.7390625,15.703125 11.78125,15.703125 11.78125,15.703125 Z"/>
  <title>Chat Help</title>
</svg>