<svg xmlns="http://www.w3.org/2000/svg" viewBox="0 0 25 25" id="chat-typing-solid">
  <path d="M17.3859375,12.20625 C17.3859375,12.20625 17.3859375,12.20625 17.3859375,12.20625 C17.0984375,12.20625 16.859375,12.1101563 16.6671875,11.91875 C16.428125,11.7273438 16.3320312,11.4875 16.3320312,11.2 C16.3320312,10.9125 16.428125,10.6734375 16.6671875,10.48125 C16.8585938,10.2898438 17.0984375,10.19375 17.3859375,10.19375 C17.3859375,10.19375 17.3859375,10.19375 17.3859375,10.19375 C17.625,10.19375 17.8648438,10.2898438 18.1046875,10.48125 C18.2960938,10.6726563 18.3921875,10.9125 18.3921875,11.2 C18.3921875,11.4875 18.2960938,11.7265625 18.1046875,11.91875 C17.865625,12.1101562 17.6257813,12.20625 17.3859375,12.20625 Z M12.9796875,11.9195313 C12.7882813,12.1109375 12.5484375,12.2070312 12.2609375,12.2070312 C11.9734375,12.2070312 11.734375,12.1109375 11.5421875,11.9195313 C11.3507813,11.728125 11.2546875,11.4882812 11.2546875,11.2007813 C11.2546875,10.9132813 11.3507812,10.6742188 11.5421875,10.4820313 C11.7335937,10.290625 11.9734375,10.1945313 12.2609375,10.1945313 C12.5484375,10.1945313 12.7875,10.290625 12.9796875,10.4820313 C13.1710938,10.6734375 13.2671875,10.9132813 13.2671875,11.2007813 C13.2671875,11.4882812 13.1710937,11.7273437 12.9796875,11.9195313 Z M7.13671875,12.20625 C7.13671875,12.20625 7.13671875,12.20625 7.13671875,12.20625 C6.89765625,12.20625 6.6578125,12.1101563 6.46640625,11.91875 C6.22734375,11.7273438 6.13125,11.4875 6.13125,11.2 C6.13125,10.9125 6.22734375,10.6734375 6.46640625,10.48125 C6.6578125,10.2898438 6.89765625,10.19375 7.13671875,10.19375 C7.13671875,10.19375 7.13671875,10.19375 7.13671875,10.19375 C7.42421875,10.19375 7.66328125,10.2898438 7.903125,10.48125 C8.09453125,10.6726563 8.190625,10.9125 8.190625,11.2 C8.190625,11.4875 8.09453125,11.7265625 7.903125,11.91875 C7.6640625,12.1101562 7.42421875,12.20625 7.13671875,12.20625 Z M22.9890625,1 C22.9890625,1 22.9890625,1 22.9890625,1 C22.9890625,1 1.5328125,1 1.5328125,1 C1.1015625,1 0.71875,1.14375 0.43125,1.43125 C0.14375,1.76640625 0,2.1015625 0,2.5328125 C0,2.5328125 0,2.5328125 0,2.5328125 C0,2.5328125 0,18.8640625 0,18.8640625 C0,19.2953125 0.14375,19.678125 0.43125,19.965625 C0.71875,20.253125 1.1015625,20.396875 1.5328125,20.396875 C1.5328125,20.396875 1.5328125,20.396875 1.5328125,20.396875 C1.5328125,20.396875 13.4578125,20.396875 13.4578125,20.396875 C13.5054688,20.396875 13.6015625,20.4445312 13.7453125,20.4929688 C13.7453125,20.4929688 13.7453125,20.4929688 13.7453125,20.4929688 C13.7453125,20.4929688 18.7742187,24.2765625 18.7742187,24.2765625 C18.9179688,24.4203125 19.1570312,24.4679688 19.396875,24.4679688 C19.396875,24.4679688 19.396875,24.4679688 19.396875,24.4679688 C19.6359375,24.4679688 19.7796875,24.4203125 19.8757812,24.371875 C19.8757812,24.371875 19.8757812,24.371875 19.8757812,24.371875 C20.2585937,24.1328125 20.4507813,23.8453125 20.4507813,23.4617187 C20.4507813,23.4617187 20.4507813,23.4617187 20.4507813,23.4617187 C20.4507813,23.4617187 20.4507813,20.396875 20.4507813,20.396875 C20.4507813,20.396875 22.9890625,20.396875 22.9890625,20.396875 C23.4203125,20.396875 23.803125,20.253125 24.090625,19.965625 C24.378125,19.678125 24.521875,19.2953125 24.521875,18.8640625 C24.521875,18.8640625 24.521875,18.8640625 24.521875,18.8640625 C24.521875,18.8640625 24.521875,2.5328125 24.521875,2.5328125 C24.521875,2.1015625 24.378125,1.76640625 24.090625,1.43125 C23.803125,1.14375 23.4203125,1 22.9890625,1 C22.9890625,1 22.9890625,1 22.9890625,1 Z"/>
  <title>Chat Typing Solid</title>
</svg>