<svg xmlns="http://www.w3.org/2000/svg" viewBox="0 0 25 25" id="chat-solid">
  <path d="M24.521875,2.48515625 C24.521875,2.48515625 24.521875,2.48515625 24.521875,2.48515625 C24.521875,2.48515625 24.521875,18.19375 24.521875,18.19375 C24.521875,18.625 24.378125,18.9601563 24.090625,19.1992188 C23.803125,19.4867188 23.4679688,19.6304687 23.0367188,19.6304687 C23.0367188,19.6304687 23.0367188,19.6304687 23.0367188,19.6304687 C23.0367188,19.6304687 20.5945313,19.6304687 20.5945313,19.6304687 C20.5945313,19.6304687 20.5945313,22.6 20.5945313,22.6 C20.5945313,22.8390625 20.4984375,23.0789062 20.3070313,23.2703125 C20.115625,23.4617188 19.8757813,23.5578125 19.6367188,23.5578125 C19.3976563,23.5578125 19.1578125,23.5101563 19.0140625,23.3664063 C19.0140625,23.3664063 19.0140625,23.3664063 19.0140625,23.3664063 C19.0140625,23.3664063 14.1765625,19.7265625 14.1765625,19.7265625 C14.1289063,19.6789063 14.0328125,19.6304687 13.8890625,19.6304687 C13.8890625,19.6304687 13.8890625,19.6304687 13.8890625,19.6304687 C13.8890625,19.6304687 1.48515625,19.6304687 1.48515625,19.6304687 C1.05390625,19.6304687 0.71875,19.4867188 0.43125,19.1992188 C0.14375,18.9601562 0,18.6242188 0,18.19375 C0,18.19375 0,18.19375 0,18.19375 C0,18.19375 0,2.48515625 0,2.48515625 C0,2.05390625 0.14375,1.71875 0.43125,1.43125 C0.71875,1.14375 1.05390625,1 1.48515625,1 C1.48515625,1 1.48515625,1 1.48515625,1 C1.48515625,1 23.0367187,1 23.0367187,1 C23.4679687,1 23.803125,1.14375 24.090625,1.43125 C24.378125,1.71875 24.521875,2.05390625 24.521875,2.48515625 L24.521875,2.48515625 Z"/>
  <title>Chat Solid</title>
</svg>