<svg xmlns="http://www.w3.org/2000/svg" viewBox="0 0 25 25" id="chat-typing">
  <path d="M23.078125,1 C23.078125,1 23.078125,1 23.078125,1 C23.078125,1 2.484375,1 2.484375,1 C2.053125,1 1.71796875,1.14375 1.47890625,1.43125 C1.19140625,1.71875 1.04765625,2.05390625 1,2.48515625 C1,2.48515625 1,2.48515625 1,2.48515625 C1,2.48515625 1,18.1460937 1,18.1460937 C1.04765625,18.5773437 1.19140625,18.9125 1.47890625,19.2 C1.71796875,19.4875 2.05390625,19.63125 2.484375,19.63125 C2.484375,19.63125 2.484375,19.63125 2.484375,19.63125 C2.484375,19.63125 13.9304687,19.63125 13.9304687,19.63125 C14.0742187,19.63125 14.1695312,19.6789063 14.2179687,19.7273438 C14.2179687,19.7273438 14.2179687,19.7273438 14.2179687,19.7273438 C14.2179687,19.7273438 19.0554687,23.3671875 19.0554687,23.3671875 C19.2945312,23.5109375 19.534375,23.5585938 19.678125,23.5585938 C19.678125,23.5585938 19.678125,23.5585938 19.678125,23.5585938 C19.9171875,23.5585938 20.1570312,23.4625 20.3484375,23.2710938 C20.5398437,23.0796875 20.6359375,22.8398438 20.6359375,22.6007813 C20.6359375,22.6007813 20.6359375,22.6007813 20.6359375,22.6007813 C20.6359375,22.6007813 20.6359375,19.63125 20.6359375,19.63125 C20.6359375,19.63125 23.078125,19.63125 23.078125,19.63125 C23.509375,19.63125 23.8445312,19.4875 24.1320312,19.2 C24.4195312,18.9125 24.5632812,18.5773437 24.5632812,18.1460937 C24.5632812,18.1460937 24.5632812,18.1460937 24.5632812,18.1460937 C24.5632812,18.1460937 24.5632812,2.48515625 24.5632812,2.48515625 C24.5632812,2.05390625 24.4195312,1.71875 24.1320312,1.43125 C23.8445312,1.14375 23.509375,1 23.078125,1 Z M23.6046875,2.484375 C23.6046875,2.484375 23.6046875,18.1453125 23.6046875,18.1453125 C23.6046875,18.4804688 23.4132812,18.671875 23.078125,18.671875 C23.078125,18.671875 23.078125,18.671875 23.078125,18.671875 C23.078125,18.671875 20.3484375,18.671875 20.3484375,18.671875 C19.9171875,18.671875 19.678125,18.9109375 19.678125,19.3421875 C19.678125,19.3421875 19.678125,19.3421875 19.678125,19.3421875 C19.678125,19.3421875 19.678125,22.5507812 19.678125,22.5507812 C19.678125,22.5507812 14.840625,18.9585937 14.840625,18.9585937 C14.6015625,18.7671875 14.3140625,18.6710938 13.9304688,18.6710938 C13.9304688,18.6710938 13.9304688,18.6710938 13.9304688,18.6710938 C13.9304688,18.6710938 2.484375,18.6710938 2.484375,18.6710938 C2.14921875,18.6710938 2.00546875,18.4796875 2.00546875,18.1445313 C2.00546875,18.1445313 2.00546875,18.1445313 2.00546875,18.1445313 C2.00546875,18.1445313 2.00546875,2.48359375 2.00546875,2.48359375 C2.00546875,2.1484375 2.14921875,1.95703125 2.484375,1.95703125 C2.484375,1.95703125 2.484375,1.95703125 2.484375,1.95703125 C2.484375,1.95703125 23.078125,1.95703125 23.078125,1.95703125 C23.4132812,1.95703125 23.6046875,2.1484375 23.6046875,2.48359375 C23.6046875,2.48359375 23.6046875,2.48359375 23.6046875,2.48359375 L23.6046875,2.484375 Z M8.85390625,10.8179688 C8.85390625,10.8179688 8.85390625,10.8179688 8.85390625,10.8179688 C8.85390625,11.0570313 8.7578125,11.296875 8.56640625,11.4882813 C8.375,11.6796875 8.13515625,11.7757813 7.89609375,11.7757813 C7.65703125,11.7757813 7.4171875,11.6796875 7.22578125,11.4882813 C6.98671875,11.296875 6.890625,11.0570313 6.890625,10.8179688 C6.890625,10.8179688 6.890625,10.8179688 6.890625,10.8179688 C6.890625,10.5304688 6.98671875,10.2914063 7.22578125,10.0992188 C7.4171875,9.9078125 7.65703125,9.81171875 7.89609375,9.81171875 C8.13515625,9.81171875 8.375,9.9078125 8.56640625,10.0992188 C8.7578125,10.290625 8.85390625,10.5304688 8.85390625,10.8179688 Z M13.7867188,10.8179688 C13.7867188,10.8179688 13.7867188,10.8179688 13.7867188,10.8179688 C13.7867188,11.0570313 13.690625,11.296875 13.4992188,11.4882813 C13.3078125,11.6796875 13.0679688,11.7757813 12.7804688,11.7757813 C12.7804688,11.7757813 12.7804688,11.7757813 12.7804688,11.7757813 C12.5414062,11.7757813 12.3015625,11.6796875 12.1101563,11.4882813 C11.91875,11.296875 11.8226563,11.0570313 11.8226563,10.8179688 C11.8226563,10.8179688 11.8226563,10.8179688 11.8226563,10.8179688 C11.8226563,10.5304688 11.91875,10.2914063 12.1101563,10.0992188 C12.3015625,9.90703125 12.5414062,9.81171875 12.7804688,9.81171875 C12.7804688,9.81171875 12.7804688,9.81171875 12.7804688,9.81171875 C13.0679688,9.81171875 13.3070313,9.9078125 13.4992188,10.0992188 C13.6914063,10.290625 13.7867188,10.5304688 13.7867188,10.8179688 Z M18.671875,10.8179688 C18.671875,10.8179688 18.671875,10.8179688 18.671875,10.8179688 C18.671875,11.0570313 18.5757812,11.296875 18.384375,11.4882813 C18.1929688,11.6796875 17.953125,11.7757813 17.7140625,11.7757813 C17.7140625,11.7757813 17.7140625,11.7757813 17.7140625,11.7757813 C17.4265625,11.7757813 17.1875,11.6796875 16.9953125,11.4882813 C16.803125,11.296875 16.7078125,11.0570313 16.7078125,10.8179688 C16.7078125,10.8179688 16.7078125,10.8179688 16.7078125,10.8179688 C16.7078125,10.5304688 16.8039063,10.2914063 16.9953125,10.0992188 C17.1867187,9.90703125 17.4265625,9.81171875 17.7140625,9.81171875 C17.7140625,9.81171875 17.7140625,9.81171875 17.7140625,9.81171875 C17.953125,9.81171875 18.1929687,9.9078125 18.384375,10.0992188 C18.5757812,10.290625 18.671875,10.5304688 18.671875,10.8179688 Z"/>
  <title>Chat Typing</title>
</svg>