<svg xmlns="http://www.w3.org/2000/svg" viewBox="0 0 25 25" id="chat-help-solid">
  <path d="M23.0367187,1 C23.0367187,1 23.0367187,1 23.0367187,1 C23.0367187,1 1.48515625,1 1.48515625,1 C1.05390625,1 0.71875,1.14375 0.43125,1.43125 C0.14375,1.71875 0,2.05390625 0,2.48515625 C0,2.48515625 0,2.48515625 0,2.48515625 C0,2.48515625 0,18.19375 0,18.19375 C0,18.625 0.14375,18.9601563 0.43125,19.1992188 C0.71875,19.4867188 1.05390625,19.6304687 1.48515625,19.6304687 C1.48515625,19.6304687 1.48515625,19.6304687 1.48515625,19.6304687 C1.48515625,19.6304687 13.8890625,19.6304687 13.8890625,19.6304687 C14.0328125,19.6304687 14.128125,19.678125 14.1765625,19.7265625 C14.1765625,19.7265625 14.1765625,19.7265625 14.1765625,19.7265625 C14.1765625,19.7265625 19.0140625,23.3664063 19.0140625,23.3664063 C19.1578125,23.5101563 19.396875,23.5578125 19.6367188,23.5578125 C19.8765625,23.5578125 20.115625,23.4617187 20.3070313,23.2703125 C20.4984375,23.0789062 20.5945313,22.8390625 20.5945313,22.6 C20.5945313,22.6 20.5945313,22.6 20.5945313,22.6 C20.5945313,22.6 20.5945313,19.6304687 20.5945313,19.6304687 C20.5945313,19.6304687 23.0367188,19.6304687 23.0367188,19.6304687 C23.4679688,19.6304687 23.803125,19.4867188 24.090625,19.1992188 C24.378125,18.9601562 24.521875,18.6242188 24.521875,18.19375 C24.521875,18.19375 24.521875,18.19375 24.521875,18.19375 C24.521875,18.19375 24.521875,2.48515625 24.521875,2.48515625 C24.521875,2.05390625 24.378125,1.71875 24.090625,1.43125 C23.803125,1.14375 23.4679688,1 23.0367187,1 Z M12.7398437,14.7453125 C12.7398437,14.7453125 12.7398437,15.703125 12.7398437,15.703125 C12.7398437,15.703125 11.7820312,15.703125 11.7820312,15.703125 C11.7820312,15.703125 11.7820312,14.7453125 11.7820312,14.7453125 C11.7820312,14.7453125 12.7398437,14.7453125 12.7398437,14.7453125 Z M15.7085937,8.37578125 C15.7085937,8.37578125 15.7085937,8.90234375 15.7085937,8.90234375 C15.7085937,10.1 15.1335937,10.865625 14.0320312,11.2492188 C14.0320312,11.2492188 14.0320312,11.2492188 14.0320312,11.2492188 C14.0320312,11.2492188 13.0742187,11.5367188 13.0742187,11.5367188 C12.8351562,11.6804688 12.7390625,11.8242188 12.7390625,12.015625 C12.7390625,12.015625 12.7390625,12.015625 12.7390625,12.015625 C12.7390625,12.015625 12.7390625,13.2609375 12.7390625,13.2609375 C12.7390625,13.5960938 12.5953125,13.7398438 12.2601562,13.7398438 C11.925,13.7398438 11.78125,13.5960938 11.78125,13.2609375 C11.78125,13.2609375 11.78125,13.2609375 11.78125,13.2609375 C11.78125,13.2609375 11.78125,12.015625 11.78125,12.015625 C11.78125,11.296875 12.1164062,10.8179688 12.7867187,10.6265625 C12.7867187,10.6265625 12.7867187,10.6265625 12.7867187,10.6265625 C12.7867187,10.6265625 13.696875,10.2914063 13.696875,10.2914063 C14.3671875,10.1 14.7023437,9.62109375 14.7023437,8.90234375 C14.7023437,8.90234375 14.7023437,8.90234375 14.7023437,8.90234375 C14.7023437,8.90234375 14.7023437,8.37578125 14.7023437,8.37578125 C14.7023437,7.65703125 14.4632812,7.0828125 13.9835937,6.60390625 C13.5046875,6.17265625 12.9296875,5.93359375 12.259375,5.93359375 C11.5890625,5.93359375 11.0140625,6.17265625 10.5351562,6.60390625 C10.05625,7.0828125 9.81640625,7.6578125 9.81640625,8.37578125 C9.81640625,8.37578125 9.81640625,8.37578125 9.81640625,8.37578125 C9.81640625,8.7109375 9.67265625,8.8546875 9.3375,8.8546875 C9.3375,8.8546875 9.3375,8.8546875 9.3375,8.8546875 C9.00234375,8.8546875 8.8109375,8.7109375 8.8109375,8.37578125 C8.8109375,8.37578125 8.8109375,8.37578125 8.8109375,8.37578125 C8.8109375,7.41796875 9.14609375,6.60390625 9.81640625,5.93359375 C10.4867187,5.26328125 11.3007812,4.928125 12.2585937,4.928125 C13.2164062,4.928125 14.0304687,5.26328125 14.7007812,5.93359375 C15.3710937,6.60390625 15.70625,7.41796875 15.70625,8.37578125 C15.70625,8.37578125 15.70625,8.37578125 15.70625,8.37578125 L15.7085937,8.37578125 Z"/>
  <title>Chat Help Solid</title>
</svg>