<svg xmlns="http://www.w3.org/2000/svg" viewBox="0 0 25 25" id="checkbook">
  <path d="M22.078125,10.8242188 C22.078125,10.8242188 22.078125,10.8242188 22.078125,10.8242188 C22.078125,10.8242188 22.078125,11.8296875 22.078125,11.8296875 C22.509375,11.9734375 22.8445312,12.2125 23.1320312,12.5484375 C23.4195312,12.884375 23.5632812,13.3148438 23.5632812,13.7460938 C23.5632812,13.7460938 23.5632812,13.7460938 23.5632812,13.7460938 C23.5632812,13.7460938 23.5632812,21.6007813 23.5632812,21.6007813 C23.5632812,22.1273438 23.371875,22.60625 22.9882812,22.9898438 C22.6046875,23.3734375 22.1265625,23.5648438 21.5992187,23.5648438 C21.5992187,23.5648438 21.5992187,23.5648438 21.5992187,23.5648438 C21.5992187,23.5648438 2.92109375,23.5648438 2.92109375,23.5648438 C2.39453125,23.5648438 1.915625,23.3734375 1.53203125,22.9898438 C1.1484375,22.60625 0.95703125,22.128125 0.95703125,21.6007813 C0.95703125,21.6007813 0.95703125,21.6007813 0.95703125,21.6007813 C0.95703125,21.6007813 0.95703125,13.7460938 0.95703125,13.7460938 C0.95703125,13.2195313 1.1484375,12.740625 1.53203125,12.3570313 C1.915625,11.9734375 2.39375,11.7820313 2.92109375,11.7820313 C2.92109375,11.7820313 2.92109375,11.7820313 2.92109375,11.7820313 C2.92109375,11.7820313 16.1875,11.7820313 16.1875,11.7820313 C16.1875,11.7820313 16.1875,10.7765625 16.1875,10.7765625 C16.1875,10.7765625 2.92109375,10.7765625 2.92109375,10.7765625 C2.10703125,10.7765625 1.43671875,11.0640625 0.86171875,11.6382813 C0.28671875,12.2609375 0,12.93125 0,13.7453125 C0,13.7453125 0,13.7453125 0,13.7453125 C0,13.7453125 0,21.6 0,21.6 C0,22.4140625 0.2875,23.084375 0.86171875,23.659375 C1.4359375,24.234375 2.10703125,24.5210937 2.92109375,24.5210937 C2.92109375,24.5210937 2.92109375,24.5210937 2.92109375,24.5210937 C2.92109375,24.5210937 21.5992187,24.5210937 21.5992187,24.5210937 C22.4132813,24.5210937 23.0835937,24.2335937 23.6585937,23.659375 C24.2335937,23.0851562 24.5203125,22.4140625 24.5203125,21.6 C24.5203125,21.6 24.5203125,21.6 24.5203125,21.6 C24.5203125,21.6 24.5203125,13.7453125 24.5203125,13.7453125 C24.5203125,13.0265625 24.28125,12.35625 23.85,11.8296875 C23.3710938,11.303125 22.7960938,10.9679687 22.078125,10.8242187 L22.078125,10.8242188 Z M17.9109375,3.4484375 C17.9109375,3.4484375 17.9109375,14.4640625 17.9109375,14.4640625 C17.9109375,14.4640625 20.353125,14.4640625 20.353125,14.4640625 C20.353125,14.4640625 20.353125,3.4484375 20.353125,3.4484375 C20.353125,3.4484375 17.9109375,3.4484375 17.9109375,3.4484375 Z M17.9109375,0.9578125 C17.9109375,0.9578125 17.9109375,2.4421875 17.9109375,2.4421875 C17.9109375,2.4421875 20.353125,2.4421875 20.353125,2.4421875 C20.353125,2.4421875 20.353125,0.9578125 20.353125,0.9578125 C20.353125,0.9578125 17.9109375,0.9578125 17.9109375,0.9578125 Z M19.2523437,15.709375 C19.2523437,15.709375 19.2523437,17.2898437 19.2523437,17.2898437 C19.2523437,17.3859375 19.2046875,17.4335938 19.1085937,17.4335938 C19.1085937,17.4335938 19.1085937,17.4335938 19.1085937,17.4335938 C19.0609375,17.4335938 19.0125,17.3859375 19.0125,17.2898437 C19.0125,17.2898437 19.0125,17.2898437 19.0125,17.2898437 C19.0125,17.2898437 19.0125,15.709375 19.0125,15.709375 C19.0125,15.709375 19.2515625,15.709375 19.2515625,15.709375 L19.2523437,15.709375 Z M15.9476562,8.8125 C15.9476562,8.8125 15.9476562,2.203125 15.9476562,2.203125 C15.9476562,2.059375 16.04375,1.9640625 16.1867188,1.9640625 C16.1867188,1.9640625 16.1867188,1.9640625 16.1867188,1.9640625 C16.1867188,1.9640625 16.9054688,1.9640625 16.9054688,1.9640625 C16.9054688,1.9640625 16.9054688,14.703125 16.9054688,14.703125 C16.9054688,15.2296875 17.1445313,15.4695312 17.671875,15.4695312 C17.671875,15.4695312 17.671875,15.4695312 17.671875,15.4695312 C17.671875,15.4695312 18.0070313,15.4695312 18.0070313,15.4695312 C18.0070313,15.4695312 18.0070313,17.2890625 18.0070313,17.2890625 C18.0070313,17.6242188 18.103125,17.8640625 18.3421875,18.0554688 C18.58125,18.2945313 18.8210938,18.390625 19.1085938,18.390625 C19.1085938,18.390625 19.1085938,18.390625 19.1085938,18.390625 C19.44375,18.390625 19.6835938,18.2945312 19.9226563,18.0554688 C20.1140625,17.8640625 20.2101563,17.6242188 20.2101563,17.2890625 C20.2101563,17.2890625 20.2101563,17.2890625 20.2101563,17.2890625 C20.2101563,17.2890625 20.2101563,15.4695312 20.2101563,15.4695312 C20.2101563,15.4695312 20.5929688,15.4695312 20.5929688,15.4695312 C21.071875,15.4695312 21.3117188,15.2304687 21.3117188,14.703125 C21.3117188,14.703125 21.3117188,14.703125 21.3117188,14.703125 C21.3117188,14.703125 21.3117188,0.71875 21.3117188,0.71875 C21.3117188,0.23984375 21.0726563,0 20.5929688,0 C20.5929688,0 20.5929688,0 20.5929688,0 C20.5929688,0 17.671875,0 17.671875,0 C17.4328125,0 17.2890625,0.04765625 17.1453125,0.19140625 C17.0015625,0.33515625 16.90625,0.5265625 16.90625,0.71796875 C16.90625,0.71796875 16.90625,0.71796875 16.90625,0.71796875 C16.90625,0.71796875 16.90625,0.95703125 16.90625,0.95703125 C16.90625,0.95703125 16.1875,0.95703125 16.1875,0.95703125 C15.8523437,0.95703125 15.5648437,1.10078125 15.3257812,1.33984375 C15.0867187,1.57890625 14.9429687,1.86640625 14.9429687,2.2015625 C14.9429687,2.2015625 14.9429687,2.2015625 14.9429687,2.2015625 C14.9429687,2.2015625 14.9429687,8.8109375 14.9429687,8.8109375 C14.9429687,8.8109375 15.9484375,8.8109375 15.9484375,8.8109375 L15.9476562,8.8125 Z M3.9265625,15.1820312 C3.9265625,15.1820312 3.9265625,15.1820312 3.9265625,15.1820312 C3.9265625,15.1820312 13.7445313,15.1820312 13.7445313,15.1820312 C14.0796875,15.1820312 14.2234375,15.0382812 14.2234375,14.703125 C14.2234375,14.3679688 14.0796875,14.2242188 13.7445313,14.2242188 C13.7445313,14.2242188 13.7445313,14.2242188 13.7445313,14.2242188 C13.7445313,14.2242188 3.9265625,14.2242188 3.9265625,14.2242188 C3.59140625,14.2242188 3.44765625,14.3679688 3.44765625,14.703125 C3.44765625,15.0382812 3.59140625,15.1820312 3.9265625,15.1820312 Z M3.9265625,18.1515625 C3.9265625,18.1515625 3.9265625,18.1515625 3.9265625,18.1515625 C3.9265625,18.1515625 15.7078125,18.1515625 15.7078125,18.1515625 C16.0429688,18.1515625 16.1867188,18.0078125 16.1867188,17.6726562 C16.1867188,17.6726562 16.1867188,17.6726562 16.1867188,17.6726562 C16.1867188,17.3375 16.0429688,17.1460937 15.7078125,17.1460937 C15.7078125,17.1460937 15.7078125,17.1460937 15.7078125,17.1460937 C15.7078125,17.1460937 3.9265625,17.1460937 3.9265625,17.1460937 C3.59140625,17.1460937 3.44765625,17.3375 3.44765625,17.6726562 C3.44765625,17.6726562 3.44765625,17.6726562 3.44765625,17.6726562 C3.44765625,18.0078125 3.59140625,18.1515625 3.9265625,18.1515625 Z M3.9265625,21.0726562 C3.9265625,21.0726562 3.9265625,21.0726562 3.9265625,21.0726562 C3.9265625,21.0726562 17.671875,21.0726562 17.671875,21.0726562 C18.0070313,21.0726562 18.1507813,20.9289062 18.1507813,20.59375 C18.1507813,20.2585937 18.0070313,20.1148437 17.671875,20.1148437 C17.671875,20.1148437 17.671875,20.1148437 17.671875,20.1148437 C17.671875,20.1148437 3.9265625,20.1148437 3.9265625,20.1148437 C3.59140625,20.1148437 3.44765625,20.2585937 3.44765625,20.59375 C3.44765625,20.9289062 3.59140625,21.0726562 3.9265625,21.0726562 C3.9265625,21.0726562 3.9265625,21.0726562 3.9265625,21.0726562 Z"/>
  <title>Checkbook</title>
</svg>