<svg xmlns="http://www.w3.org/2000/svg" viewBox="0 0 25 25" id="chevron">
  <path d="M18.6304687,19.709375 C18.6304687,19.709375 24.5210937,11.8546875 24.5210937,11.8546875 C24.5210937,11.8546875 18.6304687,4 18.6304687,4 C18.6304687,4 0,4 0,4 C0,4 4.88515625,11.8546875 4.88515625,11.8546875 C4.88515625,11.8546875 0,19.709375 0,19.709375 C0,19.709375 18.6304687,19.709375 18.6304687,19.709375 Z M23.5632813,11.8554688 C23.5632813,11.8554688 18.1515625,18.7039063 18.1515625,18.7039063 C18.1515625,18.7039063 1.48515625,18.7039063 1.48515625,18.7039063 C1.48515625,18.7039063 5.89140625,11.8554688 5.89140625,11.8554688 C5.89140625,11.8554688 1.48515625,4.95859375 1.48515625,4.95859375 C1.48515625,4.95859375 18.1515625,4.95859375 18.1515625,4.95859375 C18.1515625,4.95859375 23.5632813,11.8554688 23.5632813,11.8554688 Z"/>
  <title>Chevron</title>
</svg>