<svg xmlns="http://www.w3.org/2000/svg" viewBox="0 0 25 25" id="church-solid">
  <path d="M18.1515625,12.2117188 C18.1515625,12.2117188 18.1515625,12.2117188 18.1515625,12.2117188 C18.1515625,12.2117188 18.1515625,14.2234375 18.1515625,14.2234375 C18.1515625,14.2234375 16.1882812,14.2234375 16.1882812,14.2234375 C16.1882812,14.2234375 16.1882812,12.2117188 16.1882812,12.2117188 C16.1882812,11.9726563 16.284375,11.7328125 16.4757812,11.5414062 C16.6195312,11.35 16.8585937,11.2539062 17.0984375,11.2539062 C17.0984375,11.2539062 17.0984375,11.2539062 17.0984375,11.2539062 C17.0984375,11.2539062 17.2421875,11.2539062 17.2421875,11.2539062 C17.48125,11.2539062 17.7210937,11.35 17.9125,11.5414062 C18.05625,11.7328125 18.1515625,11.9726562 18.1515625,12.2117188 L18.1515625,12.2117188 Z M6.94453125,15.7078125 C6.94453125,15.7078125 6.94453125,15.7078125 6.94453125,15.7078125 C6.94453125,15.7078125 6.80078125,15.7078125 6.80078125,15.7078125 C6.178125,15.7078125 5.890625,15.9953125 5.890625,16.6179687 C5.890625,16.6179687 5.890625,16.6179687 5.890625,16.6179687 C5.890625,16.6179687 5.890625,18.6296875 5.890625,18.6296875 C5.890625,18.6296875 7.85390625,18.6296875 7.85390625,18.6296875 C7.85390625,18.6296875 7.85390625,16.6179687 7.85390625,16.6179687 C7.85390625,16.3789062 7.7578125,16.1390625 7.61484375,15.9476562 C7.4234375,15.8039062 7.18359375,15.7085937 6.94453125,15.7085937 L6.94453125,15.7078125 Z M24.5210937,24.0414062 C24.5210937,24.0414062 24.5210937,24.0414062 24.5210937,24.0414062 C24.5210937,24.3765625 24.3773438,24.5203125 24.0421875,24.5203125 C24.0421875,24.5203125 24.0421875,24.5203125 24.0421875,24.5203125 C24.0421875,24.5203125 0.47890625,24.5203125 0.47890625,24.5203125 C0.14375,24.5203125 0,24.3765625 0,24.0414062 C0,24.0414062 0,24.0414062 0,24.0414062 C0,23.70625 0.14375,23.5148438 0.47890625,23.5148438 C0.47890625,23.5148438 0.47890625,23.5148438 0.47890625,23.5148438 C0.47890625,23.5148438 1.96328125,23.5148438 1.96328125,23.5148438 C1.96328125,23.5148438 1.96328125,12.4992188 1.96328125,12.4992188 C1.96328125,12.4992188 10.7757812,10.1046875 10.7757812,10.1046875 C10.7757812,10.1046875 10.7757812,23.5148438 10.7757812,23.5148438 C10.7757812,23.5148438 11.78125,23.5148438 11.78125,23.5148438 C11.78125,23.5148438 11.78125,8.3328125 11.78125,8.3328125 C11.78125,8.3328125 16.6664062,4.54921875 16.6664062,4.54921875 C16.6664062,4.54921875 16.6664062,1.96328125 16.6664062,1.96328125 C16.6664062,1.96328125 16.1875,1.96328125 16.1875,1.96328125 C15.8523437,1.96328125 15.7085937,1.81953125 15.7085937,1.484375 C15.7085937,1.484375 15.7085937,1.484375 15.7085937,1.484375 C15.7085937,1.14921875 15.8523437,0.9578125 16.1875,0.9578125 C16.1875,0.9578125 16.1875,0.9578125 16.1875,0.9578125 C16.1875,0.9578125 16.6664062,0.9578125 16.6664062,0.9578125 C16.6664062,0.9578125 16.6664062,0.47890625 16.6664062,0.47890625 C16.6664062,0.14375 16.8101562,0 17.1453125,0 C17.1453125,0 17.1453125,0 17.1453125,0 C17.4804687,0 17.671875,0.14375 17.671875,0.47890625 C17.671875,0.47890625 17.671875,0.47890625 17.671875,0.47890625 C17.671875,0.47890625 17.671875,0.9578125 17.671875,0.9578125 C17.671875,0.9578125 18.1507812,0.9578125 18.1507812,0.9578125 C18.4859375,0.9578125 18.6296875,1.14921875 18.6296875,1.484375 C18.6296875,1.484375 18.6296875,1.484375 18.6296875,1.484375 C18.6296875,1.81953125 18.4859375,1.96328125 18.1507812,1.96328125 C18.1507812,1.96328125 18.1507812,1.96328125 18.1507812,1.96328125 C18.1507812,1.96328125 17.671875,1.96328125 17.671875,1.96328125 C17.671875,1.96328125 17.671875,4.54921875 17.671875,4.54921875 C17.671875,4.54921875 22.5570312,8.3328125 22.5570312,8.3328125 C22.5570312,8.3328125 22.5570312,23.5148438 22.5570312,23.5148438 C22.5570312,23.5148438 24.0414062,23.5148438 24.0414062,23.5148438 C24.3765625,23.5148438 24.5203125,23.70625 24.5203125,24.0414062 L24.5210937,24.0414062 Z M8.8125,19.6351563 C8.8125,19.6351563 8.8125,16.6179687 8.8125,16.6179687 C8.8125,16.0914062 8.62109375,15.6125 8.2859375,15.2289062 C7.903125,14.89375 7.471875,14.7023438 6.9453125,14.7023438 C6.9453125,14.7023438 6.9453125,14.7023438 6.9453125,14.7023438 C6.9453125,14.7023438 6.8015625,14.7023438 6.8015625,14.7023438 C6.275,14.7023438 5.84375,14.89375 5.4609375,15.2773438 C5.078125,15.6609375 4.8859375,16.0914063 4.8859375,16.6179688 C4.8859375,16.6179688 4.8859375,16.6179688 4.8859375,16.6179688 C4.8859375,16.6179688 4.8859375,19.6351563 4.8859375,19.6351563 C4.8859375,19.6351563 8.81328125,19.6351563 8.81328125,19.6351563 L8.8125,19.6351563 Z M15.1820312,12.2117188 C15.1820312,12.2117188 15.1820312,15.18125 15.1820312,15.18125 C15.1820312,15.18125 19.109375,15.18125 19.109375,15.18125 C19.109375,15.18125 19.109375,12.2117188 19.109375,12.2117188 C19.109375,11.6851563 18.9179688,11.20625 18.5828125,10.8226562 C18.2,10.4875 17.76875,10.2960938 17.2421875,10.2960938 C17.2421875,10.2960938 17.2421875,10.2960938 17.2421875,10.2960938 C17.2421875,10.2960938 17.0984375,10.2960938 17.0984375,10.2960938 C16.571875,10.2960938 16.0929688,10.4875 15.7578125,10.8710938 C15.375,11.2539063 15.1828125,11.6851563 15.1828125,12.2117188 C15.1828125,12.2117188 15.1828125,12.2117188 15.1828125,12.2117188 L15.1820312,12.2117188 Z M20.1148438,23.5148438 C20.1148438,23.5148438 20.1148438,20.59375 20.1148438,20.59375 C20.1148438,19.7796875 19.8273438,19.109375 19.253125,18.534375 C18.6789062,17.959375 17.9601563,17.6726562 17.1460938,17.6726562 C16.3320312,17.6726562 15.6132812,17.9601562 15.0867188,18.534375 C14.5117188,19.109375 14.225,19.7796875 14.225,20.59375 C14.225,20.59375 14.225,20.59375 14.225,20.59375 C14.225,20.59375 14.225,23.5148438 14.225,23.5148438 C14.225,23.5148438 15.1828125,23.5148438 15.1828125,23.5148438 C15.1828125,23.5148438 15.1828125,20.59375 15.1828125,20.59375 C15.1828125,20.0671875 15.3742188,19.5882813 15.7578125,19.2046875 C16.1414062,18.8210938 16.6195313,18.6296875 17.146875,18.6296875 C17.6734375,18.6296875 18.1523438,18.8210938 18.5359375,19.2046875 C18.9195312,19.5882813 19.1109375,20.0664063 19.1109375,20.59375 C19.1109375,20.59375 19.1109375,20.59375 19.1109375,20.59375 C19.1109375,20.59375 19.1109375,23.5148438 19.1109375,23.5148438 C19.1109375,23.5148438 20.1164062,23.5148438 20.1164062,23.5148438 L20.1148438,23.5148438 Z"/>
  <title>Church Solid</title>
</svg>