<svg xmlns="http://www.w3.org/2000/svg" viewBox="0 0 25 25" id="church">
  <path d="M24.0414062,23.5148438 C24.0414062,23.5148438 24.0414062,23.5148438 24.0414062,23.5148438 C24.0414062,23.5148438 22.5570312,23.5148438 22.5570312,23.5148438 C22.5570312,23.5148438 22.5570312,9.48203125 22.5570312,9.48203125 C22.5570312,9.05078125 22.4132812,8.715625 22.078125,8.38046875 C22.078125,8.38046875 22.078125,8.38046875 22.078125,8.38046875 C22.078125,8.38046875 17.671875,4.3578125 17.671875,4.3578125 C17.671875,4.3578125 17.671875,1.96328125 17.671875,1.96328125 C17.671875,1.96328125 18.1507812,1.96328125 18.1507812,1.96328125 C18.4859375,1.96328125 18.6296875,1.81953125 18.6296875,1.484375 C18.6296875,1.484375 18.6296875,1.484375 18.6296875,1.484375 C18.6296875,1.14921875 18.4859375,0.9578125 18.1507812,0.9578125 C18.1507812,0.9578125 18.1507812,0.9578125 18.1507812,0.9578125 C18.1507812,0.9578125 17.671875,0.9578125 17.671875,0.9578125 C17.671875,0.9578125 17.671875,0.47890625 17.671875,0.47890625 C17.671875,0.14375 17.4804688,0 17.1453125,0 C17.1453125,0 17.1453125,0 17.1453125,0 C16.8101562,0 16.6664062,0.14375 16.6664062,0.47890625 C16.6664062,0.47890625 16.6664062,0.47890625 16.6664062,0.47890625 C16.6664062,0.47890625 16.6664062,0.9578125 16.6664062,0.9578125 C16.6664062,0.9578125 16.1875,0.9578125 16.1875,0.9578125 C15.8523438,0.9578125 15.7085937,1.14921875 15.7085937,1.484375 C15.7085937,1.484375 15.7085937,1.484375 15.7085937,1.484375 C15.7085937,1.81953125 15.8523438,1.96328125 16.1875,1.96328125 C16.1875,1.96328125 16.1875,1.96328125 16.1875,1.96328125 C16.1875,1.96328125 16.6664062,1.96328125 16.6664062,1.96328125 C16.6664062,1.96328125 16.6664062,4.3578125 16.6664062,4.3578125 C16.6664062,4.3578125 12.2601562,8.38046875 12.2601562,8.38046875 C11.925,8.715625 11.78125,9.05078125 11.78125,9.48203125 C11.78125,9.48203125 11.78125,9.48203125 11.78125,9.48203125 C11.78125,9.48203125 11.78125,10.0570312 11.78125,10.0570312 C11.78125,10.0570312 3.06484375,12.4515625 3.06484375,12.4515625 C2.34609375,12.690625 1.96328125,13.1703125 1.96328125,13.8882813 C1.96328125,13.8882813 1.96328125,13.8882813 1.96328125,13.8882813 C1.96328125,13.8882813 1.96328125,23.5148438 1.96328125,23.5148438 C1.96328125,23.5148438 0.47890625,23.5148438 0.47890625,23.5148438 C0.14375,23.5148438 0,23.70625 0,24.0414062 C0,24.0414062 0,24.0414062 0,24.0414062 C0,24.3765625 0.14375,24.5203125 0.47890625,24.5203125 C0.47890625,24.5203125 0.47890625,24.5203125 0.47890625,24.5203125 C0.47890625,24.5203125 24.0421875,24.5203125 24.0421875,24.5203125 C24.3773438,24.5203125 24.5210937,24.3765625 24.5210937,24.0414062 C24.5210937,24.0414062 24.5210937,24.0414062 24.5210937,24.0414062 C24.5210937,23.70625 24.3773438,23.5148438 24.0421875,23.5148438 L24.0414062,23.5148438 Z M11.7804688,11.1101562 C11.7804688,11.1101562 11.7804688,23.5140625 11.7804688,23.5140625 C11.7804688,23.5140625 2.9203125,23.5140625 2.9203125,23.5140625 C2.9203125,23.5140625 2.9203125,13.8875 2.9203125,13.8875 C2.9203125,13.6484375 3.0640625,13.45625 3.303125,13.4085937 C3.303125,13.4085937 3.303125,13.4085937 3.303125,13.4085937 C3.303125,13.4085937 11.7804688,11.109375 11.7804688,11.109375 L11.7804688,11.1101562 Z M19.1085938,20.5929687 C19.1085938,20.5929687 19.1085938,23.5140625 19.1085938,23.5140625 C19.1085938,23.5140625 15.18125,23.5140625 15.18125,23.5140625 C15.18125,23.5140625 15.18125,20.5929687 15.18125,20.5929687 C15.18125,20.0664062 15.3726563,19.5875 15.75625,19.2039062 C16.1398438,18.8203125 16.6179688,18.6289062 17.1453125,18.6289062 C17.671875,18.6289062 18.1507813,18.8203125 18.534375,19.2039062 C18.9179688,19.5875 19.109375,20.065625 19.109375,20.5929687 C19.109375,20.5929687 19.109375,20.5929687 19.109375,20.5929687 L19.1085938,20.5929687 Z M21.5992188,9.48203125 C21.5992188,9.48203125 21.5992188,23.5148438 21.5992188,23.5148438 C21.5992188,23.5148438 20.1148438,23.5148438 20.1148438,23.5148438 C20.1148438,23.5148438 20.1148438,20.59375 20.1148438,20.59375 C20.1148438,19.7796875 19.8273438,19.109375 19.253125,18.534375 C18.6789062,17.959375 17.9601563,17.6726562 17.1460937,17.6726562 C16.3320312,17.6726562 15.6132813,17.9601562 15.0867188,18.534375 C14.5117187,19.109375 14.225,19.7796875 14.225,20.59375 C14.225,20.59375 14.225,20.59375 14.225,20.59375 C14.225,20.59375 14.225,23.5148438 14.225,23.5148438 C14.225,23.5148438 12.740625,23.5148438 12.740625,23.5148438 C12.740625,23.5148438 12.740625,9.48203125 12.740625,9.48203125 C12.740625,9.33828125 12.7882813,9.24296875 12.9320312,9.09921875 C12.9320312,9.09921875 12.9320312,9.09921875 12.9320312,9.09921875 C12.9320312,9.09921875 17.146875,5.26796875 17.146875,5.26796875 C17.146875,5.26796875 21.409375,9.09921875 21.409375,9.09921875 C21.553125,9.24296875 21.6007813,9.33828125 21.6007813,9.48203125 C21.6007813,9.48203125 21.6007813,9.48203125 21.6007813,9.48203125 L21.5992188,9.48203125 Z M17.240625,10.2960938 C17.240625,10.2960938 17.240625,10.2960938 17.240625,10.2960938 C17.240625,10.2960938 17.096875,10.2960938 17.096875,10.2960938 C16.5703125,10.2960938 16.0914063,10.4875 15.75625,10.8710938 C15.3734375,11.2539063 15.18125,11.6851563 15.18125,12.2117188 C15.18125,12.2117188 15.18125,12.2117188 15.18125,12.2117188 C15.18125,12.2117188 15.18125,15.18125 15.18125,15.18125 C15.18125,15.18125 19.1085938,15.18125 19.1085938,15.18125 C19.1085938,15.18125 19.1085938,12.2117188 19.1085938,12.2117188 C19.1085938,11.6851563 18.9171875,11.20625 18.5820313,10.8226562 C18.1992188,10.4875 17.7679688,10.2960938 17.2414063,10.2960938 L17.240625,10.2960938 Z M18.1507813,12.2117187 C18.1507813,12.2117187 18.1507813,14.2234375 18.1507813,14.2234375 C18.1507813,14.2234375 16.1875,14.2234375 16.1875,14.2234375 C16.1875,14.2234375 16.1875,12.2117187 16.1875,12.2117187 C16.1875,11.6367187 16.475,11.3015625 17.0976562,11.2539062 C17.0976562,11.2539062 17.0976562,11.2539062 17.0976562,11.2539062 C17.0976562,11.2539062 17.2414063,11.2539062 17.2414063,11.2539062 C17.8640625,11.3015625 18.1515625,11.6367188 18.1515625,12.2117187 C18.1515625,12.2117187 18.1515625,12.2117187 18.1515625,12.2117187 L18.1507813,12.2117187 Z M9.8171875,19.6351563 C9.8171875,19.6351563 9.8171875,16.6179688 9.8171875,16.6179688 C9.8171875,16.0914063 9.62578125,15.6601563 9.290625,15.2773438 C8.9078125,14.8945313 8.42890625,14.7023438 7.9015625,14.7023438 C7.9015625,14.7023438 7.9015625,14.7023438 7.9015625,14.7023438 C7.9015625,14.7023438 7.80546875,14.7023438 7.80546875,14.7023438 C7.27890625,14.7023438 6.8,14.89375 6.46484375,15.2773438 C6.08203125,15.6601563 5.88984375,16.0914063 5.88984375,16.6179688 C5.88984375,16.6179688 5.88984375,16.6179688 5.88984375,16.6179688 C5.88984375,16.6179688 5.88984375,19.6351563 5.88984375,19.6351563 C5.88984375,19.6351563 9.8171875,19.6351563 9.8171875,19.6351563 Z M8.81171875,16.6179688 C8.81171875,16.6179688 8.81171875,18.6296875 8.81171875,18.6296875 C8.81171875,18.6296875 6.8484375,18.6296875 6.8484375,18.6296875 C6.8484375,18.6296875 6.8484375,16.6179688 6.8484375,16.6179688 C6.8484375,16.3789062 6.94453125,16.1390625 7.1359375,15.9476563 C7.32734375,15.8039063 7.5671875,15.7085938 7.80625,15.7085938 C7.80625,15.7085938 7.80625,15.7085938 7.80625,15.7085938 C7.80625,15.7085938 7.90234375,15.7085938 7.90234375,15.7085938 C8.525,15.7085938 8.8125,15.9960938 8.8125,16.61875 C8.8125,16.61875 8.8125,16.61875 8.8125,16.61875 L8.81171875,16.6179688 Z"/>
  <title>Church</title>
</svg>