<svg xmlns="http://www.w3.org/2000/svg" viewBox="0 0 25 25" id="circle-mixed-up">
  <path d="M19.7625,18.7625 C17.846875,20.678125 15.5476562,21.6359375 12.8179688,21.6359375 C10.0882813,21.6359375 7.7890625,20.678125 5.8734375,18.7625 C3.9578125,16.846875 3,14.5476562 3,11.8179688 C3,9.08828125 3.9578125,6.7890625 5.8734375,4.8734375 C7.7890625,2.9578125 10.0882813,2 12.8179688,2 C15.5476562,2 17.846875,2.9578125 19.7625,4.8734375 C21.678125,6.7890625 22.6359375,9.08828125 22.6359375,11.8179688 C22.6359375,14.5476562 21.678125,16.846875 19.7625,18.7625 Z M4.00625,11.8179687 C4.00625,14.2601562 4.86796875,16.3195312 6.5921875,18.04375 C8.26875,19.7679687 10.3757812,20.6296875 12.8179687,20.6296875 C15.2601562,20.6296875 17.3679688,19.7679687 19.0921875,18.04375 C20.8164062,16.3195312 21.678125,14.2601562 21.678125,11.8179687 C21.678125,11.8179687 4.00546875,11.8179687 4.00546875,11.8179687 L4.00625,11.8179687 Z"/>
  <title>Circle Mixed Up</title>
</svg>