<svg xmlns="http://www.w3.org/2000/svg" viewBox="0 0 25 25" id="circle-stacked">
  <path d="M4.11328125,4.11328125 C5.40625,2.8203125 6.98671875,2.15 8.8546875,2.15 C10.7226562,2.15 12.303125,2.8203125 13.64375,4.11328125 C14.9367187,5.40625 15.6070312,6.98671875 15.6070312,8.8546875 C15.6070312,10.7226563 14.9367187,12.303125 13.64375,13.5960938 C12.303125,14.9367188 10.7226562,15.6078125 8.8546875,15.6078125 C6.98671875,15.6078125 5.40625,14.9375 4.11328125,13.5960938 C2.8203125,12.303125 2.15,10.7226562 2.15,8.8546875 C2.15,6.98671875 2.8203125,5.40625 4.11328125,4.11328125 L4.11328125,4.11328125 Z M14.4101562,3.29921875 C12.8773437,1.76640625 11.0101562,1 8.8546875,1 C6.69921875,1 4.83203125,1.76640625 3.29921875,3.29921875 C1.76640625,4.83203125 1,6.69921875 1,8.8546875 C1,11.0101562 1.76640625,12.8773437 3.29921875,14.4101562 C4.83203125,15.9429687 6.7,16.709375 8.8546875,16.709375 C11.009375,16.709375 12.8773437,15.9429687 14.4101562,14.4101562 C15.9429687,12.8773437 16.709375,11.0101562 16.709375,8.8546875 C16.709375,6.69921875 15.9429687,4.83203125 14.4101562,3.29921875 Z M17.7148438,8.1359375 C17.7148438,8.1359375 17.7148438,8.1359375 17.7148438,8.1359375 C17.7148438,8.1359375 17.7148438,9.28515625 17.7148438,9.28515625 C19.2476563,9.7640625 20.4445313,10.6742188 21.3546875,11.9671875 C22.2164063,13.3078125 22.5523438,14.7929688 22.4085938,16.3734375 C22.2648438,17.9539063 21.5945313,19.3429688 20.4929688,20.4445313 C19.34375,21.59375 17.9546875,22.2640625 16.3742188,22.4078125 C14.79375,22.5515625 13.309375,22.2164063 12.015625,21.30625 C10.675,20.4445313 9.76484375,19.246875 9.2859375,17.7140625 C9.2859375,17.7140625 9.2859375,17.7140625 9.2859375,17.7140625 C9.2859375,17.7140625 8.13671875,17.7140625 8.13671875,17.7140625 C8.615625,19.5820313 9.62109375,21.01875 11.2015625,22.1203125 C12.7820313,23.221875 14.50625,23.7007813 16.3742188,23.5570313 C16.3742188,23.5570313 16.3742188,23.5570313 16.3742188,23.5570313 C18.2898438,23.4132813 19.9179688,22.646875 21.3070313,21.2578125 C22.6476563,19.9171875 23.4140625,18.2882813 23.5578125,16.3726563 C23.5578125,16.3726563 23.5578125,16.3726563 23.5578125,16.3726563 C23.7015625,14.5046875 23.2703125,12.7804688 22.16875,11.2 C21.0671875,9.61953125 19.5828125,8.6140625 17.7148438,8.13515625 L17.7148438,8.1359375 Z"/>
  <title>Circle Stacked</title>
</svg>