<svg xmlns="http://www.w3.org/2000/svg" viewBox="0 0 25 25" id="circle-stacked-solid">
  <path d="M17.6664063,8.1359375 C17.6664063,8.1359375 17.6664063,8.1359375 17.6664063,8.1359375 C17.6664063,8.23203125 17.6664063,8.375 17.7140625,8.51875 C17.7140625,8.6625 17.7140625,8.80625 17.7140625,8.85390625 C17.7140625,8.85390625 17.7140625,8.85390625 17.7140625,8.85390625 C17.7140625,11.2960938 16.8523438,13.3554688 15.128125,15.0796875 C13.35625,16.8515625 11.296875,17.7140625 8.85390625,17.7140625 C8.85390625,17.7140625 8.85390625,17.7140625 8.85390625,17.7140625 C8.80625,17.7140625 8.6625,17.7140625 8.51875,17.6664063 C8.375,17.6664063 8.23125,17.6664063 8.1359375,17.6664063 C8.1359375,17.6664063 8.1359375,17.6664063 8.1359375,17.6664063 C8.61484375,19.534375 9.6203125,21.01875 11.2007813,22.1203125 C12.7335938,23.221875 14.4578125,23.7007813 16.3734375,23.5570313 C18.2890625,23.4132813 19.9171875,22.646875 21.30625,21.2578125 C22.646875,19.9171875 23.4132813,18.2882813 23.5570313,16.3726562 C23.7007813,14.4570312 23.221875,12.7328125 22.1203125,11.1523438 C21.01875,9.61953125 19.534375,8.6140625 17.6664063,8.13515625 L17.6664063,8.1359375 Z M14.4101562,3.29921875 C15.9429687,4.83203125 16.709375,6.69921875 16.709375,8.8546875 C16.709375,11.0101562 15.9429687,12.8773437 14.4101562,14.4101562 C12.8773437,15.9429687 11.0101562,16.709375 8.8546875,16.709375 C6.69921875,16.709375 4.83203125,15.9429687 3.29921875,14.4101562 C1.76640625,12.8773437 1,11.0101562 1,8.8546875 C1,6.69921875 1.76640625,4.83203125 3.29921875,3.29921875 C4.83203125,1.76640625 6.7,1 8.8546875,1 C11.009375,1 12.8773437,1.76640625 14.4101562,3.29921875 Z"/>
  <title>Circle Stacked Solid</title>
</svg>