<svg xmlns="http://www.w3.org/2000/svg" viewBox="0 0 25 25" id="circle-mixed-down">
  <path d="M5.8734375,4.8734375 C7.7890625,2.9578125 10.0882812,2 12.8179688,2 C15.5476562,2 17.846875,2.9578125 19.7625,4.8734375 C21.678125,6.7890625 22.6359375,9.08828125 22.6359375,11.8179688 C22.6359375,14.5476562 21.678125,16.846875 19.7625,18.7625 C17.846875,20.678125 15.5476562,21.6359375 12.8179688,21.6359375 C10.0882813,21.6359375 7.7890625,20.678125 5.8734375,18.7625 C3.9578125,16.846875 3,14.5476562 3,11.8179688 C3,9.08828125 3.9578125,6.7890625 5.8734375,4.8734375 Z M21.6296875,11.8179687 C21.6296875,9.37578125 20.7679687,7.31640625 19.0914062,5.5921875 C17.3671875,3.86796875 15.2601562,3.00625 12.8171875,3.00625 C10.3742188,3.00625 8.2671875,3.86796875 6.54296875,5.5921875 C4.81875,7.31640625 3.95703125,9.37578125 3.95703125,11.8179687 C3.95703125,11.8179687 21.6296875,11.8179687 21.6296875,11.8179687 L21.6296875,11.8179687 Z"/>
  <title>Circle Mixed Down</title>
</svg>