<svg xmlns="http://www.w3.org/2000/svg" viewBox="0 0 25 25" id="circle">
  <path d="M12.8179688,21.6359375 C12.8179688,21.6359375 12.8179688,21.6359375 12.8179688,21.6359375 C10.0882813,21.6359375 7.7890625,20.678125 5.8734375,18.7625 C3.9578125,16.846875 3,14.5476562 3,11.8179688 C3,9.08828125 3.9578125,6.7890625 5.8734375,4.8734375 C7.7890625,2.9578125 10.0882813,2 12.8179688,2 C15.5476562,2 17.846875,2.9578125 19.7625,4.8734375 C21.678125,6.7890625 22.6359375,9.08828125 22.6359375,11.8179688 C22.6359375,11.8179688 22.6359375,11.8179688 22.6359375,11.8179688 C22.5882813,14.5476562 21.6304688,16.846875 19.7625,18.7148438 C17.846875,20.6304687 15.5476562,21.5882813 12.8179688,21.6359375 Z M19.0445312,5.59140625 C17.3203125,3.91484375 15.2609375,3.053125 12.81875,3.053125 C10.3765625,3.053125 8.3171875,3.91484375 6.640625,5.59140625 C4.91640625,7.315625 4.0546875,9.375 4.0546875,11.8171875 C4.0546875,14.259375 4.91640625,16.31875 6.640625,17.9953125 C8.3171875,19.7195313 10.3765625,20.58125 12.81875,20.58125 C15.2609375,20.58125 17.3203125,19.7195312 19.0445312,17.9953125 C20.7210937,16.31875 21.5828125,14.259375 21.5828125,11.8171875 C21.5828125,9.375 20.7210937,7.315625 19.0445312,5.59140625 Z"/>
  <title>Circle</title>
</svg>