<svg xmlns="http://www.w3.org/2000/svg" viewBox="0 0 25 25" id="circle-stacked-mixed">
  <path d="M14.4578125,3.29921875 C14.4578125,3.29921875 14.4578125,3.29921875 14.4578125,3.29921875 C15.9421875,4.8796875 16.7085937,6.69921875 16.7085937,8.8546875 C16.7085937,8.8546875 16.7085937,8.8546875 16.7085937,8.8546875 C16.7085937,11.0101563 15.9421875,12.8773438 14.4578125,14.4578125 C14.4578125,14.4578125 14.4578125,14.4578125 14.4578125,14.4578125 C12.8773438,15.9421875 11.009375,16.7085937 8.8546875,16.7085937 C8.8546875,16.7085937 8.8546875,16.7085937 8.8546875,16.7085937 C6.69921875,16.7085937 4.8796875,15.9421875 3.29921875,14.4578125 C3.29921875,14.4578125 3.29921875,14.4578125 3.29921875,14.4578125 C1.76640625,12.925 1,11.0578125 1,8.8546875 C1,8.8546875 1,8.8546875 1,8.8546875 C1,6.69921875 1.76640625,4.83203125 3.29921875,3.29921875 C4.83203125,1.76640625 6.7,1 8.8546875,1 C8.8546875,1 8.8546875,1 8.8546875,1 C11.0578125,1 12.9257812,1.76640625 14.4578125,3.29921875 Z M21.30625,10.1476563 C21.30625,10.1476563 21.30625,10.1476563 21.30625,10.1476563 C20.3007812,9.04609375 19.103125,8.37578125 17.7140625,8.08828125 C17.7140625,8.08828125 17.7140625,8.08828125 17.7140625,8.08828125 C17.7140625,8.08828125 17.7140625,9.1421875 17.7140625,9.1421875 C18.815625,9.47734375 19.8210937,10.0523437 20.6351563,10.9140625 C20.6351563,10.9140625 20.6351563,10.9140625 20.6351563,10.9140625 C22.0242187,12.303125 22.646875,13.8835937 22.5984375,15.7515625 C22.5984375,15.7515625 22.5984375,15.7515625 22.5984375,15.7515625 C22.6460937,17.6195312 22.0234375,19.2476562 20.6351563,20.540625 C20.6351563,20.540625 20.6351563,20.540625 20.6351563,20.540625 C19.3421875,21.9296875 17.7140625,22.5523437 15.8460938,22.5039062 C15.8460938,22.5039062 15.8460938,22.5039062 15.8460938,22.5039062 C13.9304687,22.5039062 12.3023438,21.8335937 10.9132813,20.540625 C10.9132813,20.540625 10.9132813,20.540625 10.9132813,20.540625 C10.0515625,19.7265625 9.4765625,18.7210937 9.14140625,17.6195312 C9.14140625,17.6195312 9.14140625,17.6195312 9.14140625,17.6195312 C9.14140625,17.6195312 8.0875,17.6195312 8.0875,17.6195312 C8.375,19.0085937 9.0453125,20.2054687 10.146875,21.2117187 C10.146875,21.2117187 10.146875,21.2117187 10.146875,21.2117187 C11.63125,22.7921875 13.4992188,23.5585938 15.75,23.4625 C15.75,23.4625 15.75,23.4625 15.75,23.4625 C17.9054687,23.5101562 19.725,22.7921875 21.3054687,21.2117187 C21.3054687,21.2117187 21.3054687,21.2117187 21.3054687,21.2117187 C22.8859375,19.7273437 23.6523438,17.859375 23.6046875,15.65625 C23.6046875,15.65625 23.6046875,15.65625 23.6046875,15.65625 C23.5570313,13.5007812 22.790625,11.68125 21.3054687,10.1484375 L21.30625,10.1476563 Z"/>
  <title>Circle Stacked Mixed</title>
</svg>