<svg xmlns="http://www.w3.org/2000/svg" viewBox="0 0 25 25" id="city-solid">
  <path d="M24.0421875,23.515625 C24.0421875,23.515625 24.0421875,23.515625 24.0421875,23.515625 C24.0421875,23.515625 22.5578125,23.515625 22.5578125,23.515625 C22.5578125,23.515625 22.5578125,15.9484375 22.5578125,15.9484375 C22.5578125,15.8046875 22.5101562,15.6609375 22.3664062,15.565625 C22.3664062,15.565625 22.3664062,15.565625 22.3664062,15.565625 C22.3664062,15.565625 17.9601562,11.878125 17.9601562,11.878125 C17.8164062,11.8304687 17.7210937,11.7820313 17.6726562,11.7820313 C17.6726562,11.7820313 17.6726562,11.7820313 17.6726562,11.7820313 C17.5765625,11.7820313 17.48125,11.8296875 17.3375,11.878125 C17.3375,11.878125 17.3375,11.878125 17.3375,11.878125 C17.3375,11.878125 12.93125,15.565625 12.93125,15.565625 C12.7875,15.709375 12.7398437,15.8046875 12.7398437,15.9484375 C12.7398437,15.9484375 12.7398437,15.9484375 12.7398437,15.9484375 C12.7398437,15.9484375 12.7398437,23.515625 12.7398437,23.515625 C12.7398437,23.515625 11.7820312,23.515625 11.7820312,23.515625 C11.7820312,23.515625 11.7820312,15.9484375 11.7820312,15.9484375 C11.7820312,15.4695312 11.9734375,15.0867187 12.3085937,14.7992187 C12.3085937,14.7992187 12.3085937,14.7992187 12.3085937,14.7992187 C12.3085937,14.7992187 16.6671875,11.159375 16.6671875,11.159375 C16.6671875,11.159375 16.6671875,0.47890625 16.6671875,0.47890625 C16.6671875,0.14375 16.5234375,0 16.1882812,0 C16.1882812,0 16.1882812,0 16.1882812,0 C16.1882812,0 10.2976562,0 10.2976562,0 C9.9625,0 9.81875,0.14375 9.81875,0.47890625 C9.81875,0.47890625 9.81875,0.47890625 9.81875,0.47890625 C9.81875,0.47890625 9.81875,23.515625 9.81875,23.515625 C9.81875,23.515625 8.81328125,23.515625 8.81328125,23.515625 C8.81328125,23.515625 8.81328125,2.921875 8.81328125,2.921875 C8.81328125,2.921875 7.3765625,2.921875 7.3765625,2.921875 C6.9453125,2.921875 6.61015625,3.065625 6.32265625,3.353125 C6.03515625,3.640625 5.89140625,3.97578125 5.89140625,4.40703125 C5.89140625,4.40703125 5.89140625,4.40703125 5.89140625,4.40703125 C5.89140625,4.40703125 5.89140625,23.5164062 5.89140625,23.5164062 C5.89140625,23.5164062 2.921875,23.5164062 2.921875,23.5164062 C2.921875,23.5164062 2.921875,19.6367187 2.921875,19.6367187 C2.921875,19.6367187 2.921875,19.540625 2.921875,19.540625 C3.496875,19.3492187 3.97578125,19.0140625 4.35859375,18.4867187 C4.74140625,18.0078125 4.93359375,17.48125 4.93359375,16.8585937 C4.93359375,16.8585937 4.93359375,16.8585937 4.93359375,16.8585937 C4.93359375,16.8109375 4.93359375,16.7625 4.8859375,16.7148437 C4.8859375,16.7148437 4.8859375,16.7148437 4.8859375,16.7148437 C4.8859375,16.7148437 4.8859375,16.6671875 4.8859375,16.6671875 C4.93359375,16.6195312 4.93359375,16.5710937 4.93359375,16.428125 C4.93359375,16.428125 4.93359375,16.428125 4.93359375,16.428125 C4.93359375,15.709375 4.69453125,15.1351562 4.21484375,14.6085937 C3.73515625,14.0820312 3.1609375,13.7945312 2.44296875,13.746875 C2.44296875,13.746875 2.44296875,13.746875 2.44296875,13.746875 C1.72421875,13.7945312 1.15,14.0820312 0.71875,14.6085937 C0.23984375,15.1351562 0,15.7101562 0,16.428125 C0,16.428125 0,16.428125 0,16.428125 C0,16.428125 0,16.6671875 0,16.6671875 C0,16.6671875 0,16.8585937 0,16.8585937 C0,18.1992187 0.6703125,19.109375 1.96328125,19.540625 C1.96328125,19.540625 1.96328125,19.540625 1.96328125,19.540625 C1.96328125,19.540625 1.96328125,19.6367187 1.96328125,19.6367187 C1.96328125,19.6367187 1.96328125,23.5164062 1.96328125,23.5164062 C1.96328125,23.5164062 0.47890625,23.5164062 0.47890625,23.5164062 C0.14375,23.5164062 0,23.7078125 0,24.0429688 C0,24.0429688 0,24.0429688 0,24.0429688 C0,24.378125 0.14375,24.521875 0.47890625,24.521875 C0.47890625,24.521875 0.47890625,24.521875 0.47890625,24.521875 C0.47890625,24.521875 24.0421875,24.521875 24.0421875,24.521875 C24.3773438,24.521875 24.5210937,24.378125 24.5210937,24.0429688 C24.5210937,24.0429688 24.5210937,24.0429688 24.5210937,24.0429688 C24.5210937,23.7078125 24.3773438,23.5164063 24.0421875,23.5164063 L24.0421875,23.515625 Z M12.2609375,3.92734375 C12.2609375,3.92734375 12.2609375,3.92734375 12.2609375,3.92734375 C12.2609375,3.92734375 14.2242187,3.92734375 14.2242187,3.92734375 C14.559375,3.92734375 14.703125,4.07109375 14.703125,4.40625 C14.703125,4.74140625 14.559375,4.88515625 14.2242187,4.88515625 C14.2242187,4.88515625 14.2242187,4.88515625 14.2242187,4.88515625 C14.2242187,4.88515625 12.2609375,4.88515625 12.2609375,4.88515625 C11.9257812,4.88515625 11.7820312,4.74140625 11.7820312,4.40625 C11.7820312,4.07109375 11.9257812,3.92734375 12.2609375,3.92734375 Z M12.2609375,6.8484375 C12.2609375,6.8484375 12.2609375,6.8484375 12.2609375,6.8484375 C12.2609375,6.8484375 14.2242187,6.8484375 14.2242187,6.8484375 C14.559375,6.8484375 14.703125,7.03984375 14.703125,7.375 C14.703125,7.375 14.703125,7.375 14.703125,7.375 C14.703125,7.71015625 14.559375,7.85390625 14.2242187,7.85390625 C14.2242187,7.85390625 14.2242187,7.85390625 14.2242187,7.85390625 C14.2242187,7.85390625 12.2609375,7.85390625 12.2609375,7.85390625 C11.9257812,7.85390625 11.7820312,7.71015625 11.7820312,7.375 C11.7820312,7.375 11.7820312,7.375 11.7820312,7.375 C11.7820312,7.03984375 11.9257812,6.8484375 12.2609375,6.8484375 Z M12.2609375,9.81796875 C12.2609375,9.81796875 12.2609375,9.81796875 12.2609375,9.81796875 C12.2609375,9.81796875 14.2242187,9.81796875 14.2242187,9.81796875 C14.559375,9.81796875 14.703125,9.96171875 14.703125,10.296875 C14.703125,10.6320313 14.559375,10.7757812 14.2242187,10.7757812 C14.2242187,10.7757812 14.2242187,10.7757812 14.2242187,10.7757812 C14.2242187,10.7757812 12.2609375,10.7757812 12.2609375,10.7757812 C11.9257812,10.7757812 11.7820312,10.6320313 11.7820312,10.296875 C11.7820312,9.96171875 11.9257812,9.81796875 12.2609375,9.81796875 Z M19.6359375,18.6304687 C19.6359375,18.6304687 19.6359375,23.515625 19.6359375,23.515625 C19.6359375,23.515625 15.7085937,23.515625 15.7085937,23.515625 C15.7085937,23.515625 15.7085937,18.6304687 15.7085937,18.6304687 C15.7085937,18.6304687 19.6359375,18.6304687 19.6359375,18.6304687 Z M20.59375,12.7875 C20.59375,12.7875 18.5820312,11.1109375 18.5820312,11.1109375 C18.2945312,10.871875 18.0070312,10.7757812 17.671875,10.7757812 C17.671875,10.7757812 17.671875,10.7757812 17.671875,10.7757812 C17.671875,10.7757812 17.671875,2.92109375 17.671875,2.92109375 C17.671875,2.92109375 19.1085937,2.92109375 19.1085937,2.92109375 C19.5398437,2.92109375 19.875,3.06484375 20.1625,3.35234375 C20.45,3.63984375 20.59375,3.975 20.59375,4.40625 C20.59375,4.40625 20.59375,4.40625 20.59375,4.40625 C20.59375,4.40625 20.59375,12.7875 20.59375,12.7875 Z"/>
  <title>City Solid</title>
</svg>