<svg xmlns="http://www.w3.org/2000/svg" viewBox="0 0 25 25" id="city">
  <path d="M24.04375,23.5164063 C24.04375,23.5164063 24.04375,23.5164063 24.04375,23.5164063 C24.04375,23.5164063 23.5648437,23.5164063 23.5648437,23.5164063 C23.5648437,23.5164063 23.5648437,15.9492188 23.5648437,15.9492188 C23.5648437,15.5179687 23.3734375,15.1351562 23.0382812,14.8 C23.0382812,14.8 23.0382812,14.8 23.0382812,14.8 C23.0382812,14.8 20.5960937,12.7882813 20.5960937,12.7882813 C20.5960937,12.7882813 20.5960937,4.40703125 20.5960937,4.40703125 C20.5960937,3.97578125 20.4523437,3.640625 20.1648437,3.353125 C19.8773437,3.065625 19.5421875,2.921875 19.1109375,2.921875 C19.1109375,2.921875 19.1109375,2.921875 19.1109375,2.921875 C19.1109375,2.921875 17.6742187,2.921875 17.6742187,2.921875 C17.6742187,2.921875 17.6742187,1.48515625 17.6742187,1.48515625 C17.6742187,1.05390625 17.5304687,0.71875 17.2429687,0.43125 C16.9554687,0.14375 16.6203125,0 16.1890625,0 C16.1890625,0 16.1890625,0 16.1890625,0 C16.1890625,0 10.2984375,0 10.2984375,0 C9.8671875,0 9.53203125,0.14375 9.24453125,0.43125 C8.95703125,0.71875 8.81328125,1.05390625 8.81328125,1.48515625 C8.81328125,1.48515625 8.81328125,1.48515625 8.81328125,1.48515625 C8.81328125,1.48515625 8.81328125,2.921875 8.81328125,2.921875 C8.81328125,2.921875 7.3765625,2.921875 7.3765625,2.921875 C6.9453125,2.921875 6.61015625,3.065625 6.32265625,3.353125 C6.03515625,3.640625 5.89140625,3.97578125 5.89140625,4.40703125 C5.89140625,4.40703125 5.89140625,4.40703125 5.89140625,4.40703125 C5.89140625,4.40703125 5.89140625,23.5164063 5.89140625,23.5164063 C5.89140625,23.5164063 2.921875,23.5164063 2.921875,23.5164063 C2.921875,23.5164063 2.921875,17.5773438 2.921875,17.5773438 C3.496875,17.3859375 3.97578125,17.0507812 4.35859375,16.5234375 C4.74140625,16.0445313 4.93359375,15.5179687 4.93359375,14.8953125 C4.93359375,14.8953125 4.93359375,14.8953125 4.93359375,14.8953125 C4.93359375,14.8476562 4.93359375,14.8476562 4.8859375,14.7992187 C4.8859375,14.7992187 4.8859375,14.7992187 4.8859375,14.7992187 C4.8859375,14.7992187 4.8859375,14.703125 4.8859375,14.703125 C4.93359375,14.6554687 4.93359375,14.6070312 4.93359375,14.4640625 C4.93359375,14.4640625 4.93359375,14.4640625 4.93359375,14.4640625 C4.93359375,13.7453125 4.69453125,13.1710937 4.21484375,12.6445312 C3.73515625,12.1179687 3.1609375,11.8304687 2.44296875,11.7828125 C2.44296875,11.7828125 2.44296875,11.7828125 2.44296875,11.7828125 C1.72421875,11.8304687 1.15,12.1179687 0.71875,12.6445312 C0.23984375,13.1710937 0,13.7460937 0,14.4640625 C0,14.4640625 0,14.4640625 0,14.4640625 C0,14.4640625 0,14.703125 0,14.703125 C0,14.703125 0,14.8945312 0,14.8945312 C0,16.2351562 0.6703125,17.1453125 1.96328125,17.5765625 C1.96328125,17.5765625 1.96328125,17.5765625 1.96328125,17.5765625 C1.96328125,17.5765625 1.96328125,23.515625 1.96328125,23.515625 C1.96328125,23.515625 0.47890625,23.515625 0.47890625,23.515625 C0.14375,23.515625 0,23.7070312 0,24.0421875 C0,24.0421875 0,24.0421875 0,24.0421875 C0,24.3773437 0.14375,24.5210937 0.47890625,24.5210937 C0.47890625,24.5210937 0.47890625,24.5210937 0.47890625,24.5210937 C0.47890625,24.5210937 24.0421875,24.5210937 24.0421875,24.5210937 C24.3773438,24.5210937 24.5210937,24.3773437 24.5210937,24.0421875 C24.5210937,24.0421875 24.5210937,24.0421875 24.5210937,24.0421875 C24.5210937,23.7070312 24.3773438,23.515625 24.0421875,23.515625 L24.04375,23.5164063 Z M1.43828125,16.0445313 C1.103125,15.6617188 0.959375,15.2304688 0.959375,14.7039063 C0.959375,14.1773438 1.103125,13.7460938 1.43828125,13.3148438 C1.72578125,12.9320313 2.0609375,12.7398438 2.44375,12.7398438 C2.44375,12.7398438 2.44375,12.7398438 2.44375,12.7398438 C2.875,12.7398438 3.21015625,12.93125 3.49765625,13.3148438 C3.78515625,13.6984375 3.92890625,14.1765625 3.92890625,14.7039063 C3.92890625,15.2304688 3.78515625,15.709375 3.49765625,16.0929688 C3.21015625,16.4765625 2.875,16.6679688 2.44375,16.6679688 C2.44375,16.6679688 2.44375,16.6679688 2.44375,16.6679688 C2.0609375,16.6679688 1.725,16.4765625 1.43828125,16.0453125 L1.43828125,16.0445313 Z M8.8140625,3.928125 C8.8140625,3.928125 8.8140625,23.5164062 8.8140625,23.5164062 C8.8140625,23.5164062 6.85078125,23.5164062 6.85078125,23.5164062 C6.85078125,23.5164062 6.85078125,4.40703125 6.85078125,4.40703125 C6.85078125,4.071875 7.0421875,3.928125 7.37734375,3.928125 C7.37734375,3.928125 7.37734375,3.928125 7.37734375,3.928125 C7.37734375,3.928125 8.8140625,3.928125 8.8140625,3.928125 Z M17.6742187,10.7765625 C17.6742187,10.7765625 17.6742187,3.928125 17.6742187,3.928125 C17.6742187,3.928125 19.1109375,3.928125 19.1109375,3.928125 C19.4460937,3.928125 19.6375,4.071875 19.6375,4.40703125 C19.6375,4.40703125 19.6375,4.40703125 19.6375,4.40703125 C19.6375,4.40703125 19.6375,11.9742187 19.6375,11.9742187 C19.6375,11.9742187 18.5835937,11.1125 18.5835937,11.1125 C18.2960938,10.8734375 18.0085937,10.7773437 17.6734375,10.7773437 C17.6734375,10.7773437 17.6734375,10.7773437 17.6734375,10.7773437 L17.6742187,10.7765625 Z M11.7828125,15.9492188 C11.7828125,15.9492188 11.7828125,15.9492188 11.7828125,15.9492188 C11.7828125,15.9492188 11.7828125,23.5164062 11.7828125,23.5164062 C11.7828125,23.5164062 9.81953125,23.5164062 9.81953125,23.5164062 C9.81953125,23.5164062 9.81953125,1.4859375 9.81953125,1.4859375 C9.81953125,1.15078125 9.96328125,0.959375 10.2984375,0.959375 C10.2984375,0.959375 10.2984375,0.959375 10.2984375,0.959375 C10.2984375,0.959375 16.1890625,0.959375 16.1890625,0.959375 C16.5242188,0.959375 16.6679688,1.15078125 16.6679688,1.4859375 C16.6679688,1.4859375 16.6679688,1.4859375 16.6679688,1.4859375 C16.6679688,1.4859375 16.6679688,11.1601562 16.6679688,11.1601562 C16.6679688,11.1601562 12.309375,14.8 12.309375,14.8 C11.9742188,15.0875 11.7828125,15.4703125 11.7828125,15.9492187 L11.7828125,15.9492188 Z M19.6375,18.63125 C19.6375,18.63125 19.6375,23.5164062 19.6375,23.5164062 C19.6375,23.5164062 15.7101563,23.5164062 15.7101563,23.5164062 C15.7101563,23.5164062 15.7101563,18.63125 15.7101563,18.63125 C15.7101563,18.63125 19.6375,18.63125 19.6375,18.63125 Z M22.559375,15.9492188 C22.559375,15.9492188 22.559375,23.5164063 22.559375,23.5164063 C22.559375,23.5164063 20.5960938,23.5164063 20.5960938,23.5164063 C20.5960938,23.5164063 20.5960938,18.63125 20.5960938,18.63125 C20.5960938,18.3921875 20.5,18.1523438 20.3085938,17.9609375 C20.1171875,17.7695312 19.8773438,17.6734375 19.6382813,17.6734375 C19.6382813,17.6734375 19.6382813,17.6734375 19.6382813,17.6734375 C19.6382813,17.6734375 15.7109375,17.6734375 15.7109375,17.6734375 C15.4234375,17.6734375 15.184375,17.7695312 14.9921875,17.9609375 C14.8,18.1523437 14.7046875,18.3921875 14.7046875,18.63125 C14.7046875,18.63125 14.7046875,18.63125 14.7046875,18.63125 C14.7046875,18.63125 14.7046875,23.5164063 14.7046875,23.5164063 C14.7046875,23.5164063 12.7414063,23.5164063 12.7414063,23.5164063 C12.7414063,23.5164063 12.7414063,15.9492188 12.7414063,15.9492188 C12.7414063,15.8054687 12.7890625,15.7101562 12.9328125,15.5664062 C12.9328125,15.5664062 12.9328125,15.5664062 12.9328125,15.5664062 C12.9328125,15.5664062 17.3390625,11.8789062 17.3390625,11.8789062 C17.4828125,11.83125 17.578125,11.7828125 17.6742188,11.7828125 C17.6742188,11.7828125 17.6742188,11.7828125 17.6742188,11.7828125 C17.721875,11.7828125 17.8179688,11.8304687 17.9617187,11.8789062 C17.9617187,11.8789062 17.9617187,11.8789062 17.9617187,11.8789062 C17.9617187,11.8789062 22.3679688,15.5664062 22.3679688,15.5664062 C22.5117188,15.6625 22.559375,15.8054688 22.559375,15.9492188 C22.559375,15.9492188 22.559375,15.9492188 22.559375,15.9492188 Z M14.2257812,3.928125 C14.5609375,3.928125 14.7046875,4.071875 14.7046875,4.40703125 C14.7046875,4.7421875 14.5609375,4.8859375 14.2257812,4.8859375 C14.2257812,4.8859375 14.2257812,4.8859375 14.2257812,4.8859375 C14.2257812,4.8859375 12.2625,4.8859375 12.2625,4.8859375 C11.9273438,4.8859375 11.7835937,4.7421875 11.7835937,4.40703125 C11.7835937,4.071875 11.9273438,3.928125 12.2625,3.928125 C12.2625,3.928125 12.2625,3.928125 12.2625,3.928125 C12.2625,3.928125 14.2257812,3.928125 14.2257812,3.928125 L14.2257812,3.928125 Z M14.7046875,7.3765625 C14.7046875,7.3765625 14.7046875,7.3765625 14.7046875,7.3765625 C14.7046875,7.71171875 14.5609375,7.85546875 14.2257812,7.85546875 C14.2257812,7.85546875 14.2257812,7.85546875 14.2257812,7.85546875 C14.2257812,7.85546875 12.2625,7.85546875 12.2625,7.85546875 C11.9273438,7.85546875 11.7835937,7.71171875 11.7835937,7.3765625 C11.7835937,7.3765625 11.7835937,7.3765625 11.7835937,7.3765625 C11.7835937,7.04140625 11.9273438,6.85 12.2625,6.85 C12.2625,6.85 12.2625,6.85 12.2625,6.85 C12.2625,6.85 14.2257812,6.85 14.2257812,6.85 C14.5609375,6.85 14.7046875,7.04140625 14.7046875,7.3765625 Z M14.2257812,9.81875 C14.5609375,9.81875 14.7046875,9.9625 14.7046875,10.2976562 C14.7046875,10.6328125 14.5609375,10.7765625 14.2257812,10.7765625 C14.2257812,10.7765625 14.2257812,10.7765625 14.2257812,10.7765625 C14.2257812,10.7765625 12.2625,10.7765625 12.2625,10.7765625 C11.9273438,10.7765625 11.7835937,10.6328125 11.7835937,10.2976562 C11.7835937,9.9625 11.9273438,9.81875 12.2625,9.81875 C12.2625,9.81875 12.2625,9.81875 12.2625,9.81875 C12.2625,9.81875 14.2257812,9.81875 14.2257812,9.81875 Z"/>
  <title>City</title>
</svg>