<svg xmlns="http://www.w3.org/2000/svg" viewBox="0 0 25 25" id="clipboard-solid">
  <path d="M6.928125,4.40625 C6.928125,4.40625 6.928125,4.40625 6.928125,4.40625 C6.928125,4.40625 6.928125,2.44296875 6.928125,2.44296875 C6.928125,2.1078125 7.11953125,1.9640625 7.4546875,1.9640625 C7.4546875,1.9640625 7.4546875,1.9640625 7.4546875,1.9640625 C7.4546875,1.9640625 7.93359375,1.9640625 7.93359375,1.9640625 C7.93359375,1.9640625 7.93359375,1.48515625 7.93359375,1.48515625 C7.93359375,1.05390625 8.07734375,0.71875 8.36484375,0.43125 C8.65234375,0.14375 8.9875,0 9.41875,0 C9.41875,0 9.41875,0 9.41875,0 C9.41875,0 15.2617188,0 15.2617188,0 C15.6929688,0 16.028125,0.14375 16.315625,0.43125 C16.603125,0.71875 16.746875,1.05390625 16.746875,1.48515625 C16.746875,1.48515625 16.746875,1.48515625 16.746875,1.48515625 C16.746875,1.48515625 16.746875,1.9640625 16.746875,1.9640625 C16.746875,1.9640625 17.2257813,1.9640625 17.2257813,1.9640625 C17.5609375,1.9640625 17.7523438,2.1078125 17.7523438,2.44296875 C17.7523438,2.44296875 17.7523438,2.44296875 17.7523438,2.44296875 C17.7523438,2.44296875 17.7523438,4.40625 17.7523438,4.40625 C17.7523438,4.74140625 17.5609375,4.88515625 17.2257813,4.88515625 C17.2257813,4.88515625 17.2257813,4.88515625 17.2257813,4.88515625 C17.2257813,4.88515625 7.45546875,4.88515625 7.45546875,4.88515625 C7.1203125,4.88515625 6.92890625,4.74140625 6.92890625,4.40625 L6.928125,4.40625 Z M20.1945313,2.921875 C20.1945313,2.921875 20.1945313,2.921875 20.1945313,2.921875 C20.1945313,2.921875 18.6140625,2.921875 18.6140625,2.921875 C18.6617187,3.11328125 18.7101563,3.3046875 18.7101563,3.4484375 C18.7101563,3.4484375 18.7101563,3.4484375 18.7101563,3.4484375 C18.7101563,3.4484375 18.7101563,4.40625 18.7101563,4.40625 C18.7101563,4.8375 18.5664062,5.17265625 18.2789063,5.46015625 C17.9914063,5.74765625 17.65625,5.89140625 17.225,5.89140625 C17.225,5.89140625 17.225,5.89140625 17.225,5.89140625 C17.225,5.89140625 7.4546875,5.89140625 7.4546875,5.89140625 C7.0234375,5.89140625 6.68828125,5.74765625 6.40078125,5.46015625 C6.11328125,5.17265625 5.96953125,4.8375 5.96953125,4.40625 C5.96953125,4.40625 5.96953125,4.40625 5.96953125,4.40625 C5.96953125,4.40625 5.96953125,3.4484375 5.96953125,3.4484375 C5.96953125,3.3046875 6.0171875,3.11328125 6.065625,2.921875 C6.065625,2.921875 6.065625,2.921875 6.065625,2.921875 C6.065625,2.921875 4.48515625,2.921875 4.48515625,2.921875 C4.05390625,2.921875 3.71875,3.065625 3.43125,3.353125 C3.14375,3.640625 3,3.97578125 3,4.40703125 C3,4.40703125 3,4.40703125 3,4.40703125 C3,4.40703125 3,23.0375 3,23.0375 C3,23.46875 3.14375,23.8039062 3.43125,24.0914062 C3.71875,24.3789062 4.05390625,24.5226562 4.48515625,24.5226562 C4.48515625,24.5226562 4.48515625,24.5226562 4.48515625,24.5226562 C4.48515625,24.5226562 20.19375,24.5226562 20.19375,24.5226562 C20.625,24.5226562 20.9601563,24.3789062 21.2476563,24.0914062 C21.5351563,23.8039062 21.6789063,23.46875 21.6789063,23.0375 C21.6789063,23.0375 21.6789063,23.0375 21.6789063,23.0375 C21.6789063,23.0375 21.6789063,4.40703125 21.6789063,4.40703125 C21.6789063,3.97578125 21.5351563,3.640625 21.2476563,3.353125 C20.9601563,3.065625 20.625,2.921875 20.19375,2.921875 L20.1945313,2.921875 Z"/>
  <title>Clipboard Solid</title>
</svg>