<svg xmlns="http://www.w3.org/2000/svg" viewBox="0 0 25 25" id="clipboard-plus">
  <path d="M20.1953125,2.921875 C20.1953125,2.921875 20.1953125,2.921875 20.1953125,2.921875 C20.1953125,2.921875 18.6148437,2.921875 18.6148437,2.921875 C18.3757812,2.29921875 17.9445312,1.9640625 17.2257812,1.9640625 C17.2257812,1.9640625 17.2257812,1.9640625 17.2257812,1.9640625 C17.2257812,1.9640625 16.746875,1.9640625 16.746875,1.9640625 C16.746875,1.9640625 16.746875,1.48515625 16.746875,1.48515625 C16.746875,1.05390625 16.603125,0.71875 16.315625,0.43125 C16.028125,0.14375 15.6929688,0 15.2617187,0 C15.2617187,0 15.2617187,0 15.2617187,0 C15.2617187,0 9.41875,0 9.41875,0 C8.9875,0 8.65234375,0.14375 8.36484375,0.43125 C8.07734375,0.71875 7.93359375,1.05390625 7.93359375,1.48515625 C7.93359375,1.48515625 7.93359375,1.48515625 7.93359375,1.48515625 C7.93359375,1.48515625 7.93359375,1.9640625 7.93359375,1.9640625 C7.93359375,1.9640625 7.4546875,1.9640625 7.4546875,1.9640625 C6.7359375,1.9640625 6.30546875,2.29921875 6.065625,2.921875 C6.065625,2.921875 6.065625,2.921875 6.065625,2.921875 C6.065625,2.921875 4.48515625,2.921875 4.48515625,2.921875 C4.05390625,2.921875 3.71875,3.065625 3.43125,3.353125 C3.14375,3.640625 3,3.97578125 3,4.40703125 C3,4.40703125 3,4.40703125 3,4.40703125 C3,4.40703125 3,23.0375 3,23.0375 C3,23.46875 3.14375,23.8039063 3.43125,24.0914062 C3.71875,24.3789062 4.05390625,24.5226563 4.48515625,24.5226563 C4.48515625,24.5226563 4.48515625,24.5226563 4.48515625,24.5226563 C4.48515625,24.5226563 20.19375,24.5226563 20.19375,24.5226563 C20.625,24.5226563 20.9601563,24.3789062 21.2476563,24.0914063 C21.5351563,23.8039063 21.6789063,23.46875 21.6789063,23.0375 C21.6789063,23.0375 21.6789063,23.0375 21.6789063,23.0375 C21.6789063,23.0375 21.6789063,4.40703125 21.6789063,4.40703125 C21.6789063,3.97578125 21.5351563,3.640625 21.2476563,3.353125 C20.9601563,3.065625 20.625,2.921875 20.19375,2.921875 L20.1953125,2.921875 Z M6.92890625,4.40625 C6.92890625,4.40625 6.92890625,3.4484375 6.92890625,3.4484375 C6.92890625,3.11328125 7.1203125,2.921875 7.45546875,2.921875 C7.45546875,2.921875 7.45546875,2.921875 7.45546875,2.921875 C7.45546875,2.921875 8.8921875,2.921875 8.8921875,2.921875 C8.8921875,2.921875 8.8921875,1.48515625 8.8921875,1.48515625 C8.8921875,1.15 9.08359375,0.95859375 9.41875,0.95859375 C9.41875,0.95859375 9.41875,0.95859375 9.41875,0.95859375 C9.41875,0.95859375 15.2617187,0.95859375 15.2617187,0.95859375 C15.596875,0.95859375 15.7882812,1.15 15.7882812,1.48515625 C15.7882812,1.48515625 15.7882812,1.48515625 15.7882812,1.48515625 C15.7882812,1.48515625 15.7882812,2.921875 15.7882812,2.921875 C15.7882812,2.921875 17.225,2.921875 17.225,2.921875 C17.5601562,2.921875 17.7515625,3.11328125 17.7515625,3.4484375 C17.7515625,3.4484375 17.7515625,3.4484375 17.7515625,3.4484375 C17.7515625,3.4484375 17.7515625,4.40625 17.7515625,4.40625 C17.7515625,4.74140625 17.5601562,4.88515625 17.225,4.88515625 C17.225,4.88515625 17.225,4.88515625 17.225,4.88515625 C17.225,4.88515625 7.4546875,4.88515625 7.4546875,4.88515625 C7.11953125,4.88515625 6.928125,4.74140625 6.928125,4.40625 C6.928125,4.40625 6.928125,4.40625 6.928125,4.40625 L6.92890625,4.40625 Z M20.6742188,4.40625 C20.6742188,4.40625 20.6742188,23.0367188 20.6742188,23.0367188 C20.6742188,23.371875 20.5304687,23.515625 20.1953125,23.515625 C20.1953125,23.515625 20.1953125,23.515625 20.1953125,23.515625 C20.1953125,23.515625 4.48671875,23.515625 4.48671875,23.515625 C4.1515625,23.515625 4.0078125,23.371875 4.0078125,23.0367188 C4.0078125,23.0367188 4.0078125,23.0367188 4.0078125,23.0367188 C4.0078125,23.0367188 4.0078125,4.40625 4.0078125,4.40625 C4.0078125,4.07109375 4.1515625,3.92734375 4.48671875,3.92734375 C4.48671875,3.92734375 4.48671875,3.92734375 4.48671875,3.92734375 C4.48671875,3.92734375 5.97109375,3.92734375 5.97109375,3.92734375 C5.97109375,3.92734375 5.97109375,4.40625 5.97109375,4.40625 C5.97109375,4.8375 6.11484375,5.17265625 6.40234375,5.46015625 C6.68984375,5.74765625 7.025,5.89140625 7.45625,5.89140625 C7.45625,5.89140625 7.45625,5.89140625 7.45625,5.89140625 C7.45625,5.89140625 17.2265625,5.89140625 17.2265625,5.89140625 C17.6578125,5.89140625 17.9929688,5.74765625 18.2804688,5.46015625 C18.5679688,5.17265625 18.7117187,4.8375 18.7117187,4.40625 C18.7117187,4.40625 18.7117187,4.40625 18.7117187,4.40625 C18.7117187,4.40625 18.7117187,3.92734375 18.7117187,3.92734375 C18.7117187,3.92734375 20.1960938,3.92734375 20.1960938,3.92734375 C20.53125,3.92734375 20.675,4.07109375 20.675,4.40625 C20.675,4.40625 20.675,4.40625 20.675,4.40625 L20.6742188,4.40625 Z M15.2625,13.7453125 C15.5976562,13.7453125 15.7890625,13.8890625 15.7890625,14.2242187 C15.7890625,14.559375 15.5976562,14.703125 15.2625,14.703125 C15.2625,14.703125 15.2625,14.703125 15.2625,14.703125 C15.2625,14.703125 12.8203125,14.703125 12.8203125,14.703125 C12.8203125,14.703125 12.8203125,17.1453125 12.8203125,17.1453125 C12.8203125,17.4804687 12.6765625,17.671875 12.3414062,17.671875 C12.00625,17.671875 11.8625,17.4804687 11.8625,17.1453125 C11.8625,17.1453125 11.8625,17.1453125 11.8625,17.1453125 C11.8625,17.1453125 11.8625,14.703125 11.8625,14.703125 C11.8625,14.703125 9.4203125,14.703125 9.4203125,14.703125 C9.08515625,14.703125 8.89375,14.559375 8.89375,14.2242187 C8.89375,13.8890625 9.08515625,13.7453125 9.4203125,13.7453125 C9.4203125,13.7453125 9.4203125,13.7453125 9.4203125,13.7453125 C9.4203125,13.7453125 11.8625,13.7453125 11.8625,13.7453125 C11.8625,13.7453125 11.8625,11.2546875 11.8625,11.2546875 C11.8625,10.9195312 12.00625,10.7757812 12.3414062,10.7757812 C12.6765625,10.7757812 12.8203125,10.9195312 12.8203125,11.2546875 C12.8203125,11.2546875 12.8203125,11.2546875 12.8203125,11.2546875 C12.8203125,11.2546875 12.8203125,13.7453125 12.8203125,13.7453125 C12.8203125,13.7453125 15.2625,13.7453125 15.2625,13.7453125 Z"/>
  <title>Clipboard Plus</title>
</svg>