<svg xmlns="http://www.w3.org/2000/svg" viewBox="0 0 25 25" id="clipboard-check-solid">
  <path d="M6.92734375,4.40625 C6.92734375,4.40625 6.92734375,4.40625 6.92734375,4.40625 C6.92734375,4.40625 6.92734375,2.44296875 6.92734375,2.44296875 C6.92734375,2.1078125 7.11875,1.9640625 7.45390625,1.9640625 C7.45390625,1.9640625 7.45390625,1.9640625 7.45390625,1.9640625 C7.45390625,1.9640625 7.9328125,1.9640625 7.9328125,1.9640625 C7.9328125,1.9640625 7.9328125,1.48515625 7.9328125,1.48515625 C7.9328125,1.05390625 8.0765625,0.71875 8.3640625,0.43125 C8.6515625,0.14375 8.98671875,0 9.41796875,0 C9.41796875,0 9.41796875,0 9.41796875,0 C9.41796875,0 15.2609375,0 15.2609375,0 C15.6921875,0 16.0273438,0.14375 16.3148438,0.43125 C16.6023438,0.71875 16.7460938,1.05390625 16.7460938,1.48515625 C16.7460938,1.48515625 16.7460938,1.48515625 16.7460938,1.48515625 C16.7460938,1.48515625 16.7460938,1.9640625 16.7460938,1.9640625 C16.7460938,1.9640625 17.225,1.9640625 17.225,1.9640625 C17.5601562,1.9640625 17.7515625,2.1078125 17.7515625,2.44296875 C17.7515625,2.44296875 17.7515625,2.44296875 17.7515625,2.44296875 C17.7515625,2.44296875 17.7515625,4.40625 17.7515625,4.40625 C17.7515625,4.74140625 17.5601562,4.88515625 17.225,4.88515625 C17.225,4.88515625 17.225,4.88515625 17.225,4.88515625 C17.225,4.88515625 7.4546875,4.88515625 7.4546875,4.88515625 C7.11953125,4.88515625 6.928125,4.74140625 6.928125,4.40625 L6.92734375,4.40625 Z M21.6789063,4.40625 C21.6789063,4.40625 21.6789063,4.40625 21.6789063,4.40625 C21.6789063,4.40625 21.6789063,23.0367187 21.6789063,23.0367187 C21.6789063,23.4679688 21.5351562,23.803125 21.2476562,24.090625 C20.9601563,24.378125 20.625,24.521875 20.19375,24.521875 C20.19375,24.521875 20.19375,24.521875 20.19375,24.521875 C20.19375,24.521875 4.48515625,24.521875 4.48515625,24.521875 C4.05390625,24.521875 3.71875,24.378125 3.43125,24.090625 C3.14375,23.803125 3,23.4679688 3,23.0367188 C3,23.0367188 3,23.0367188 3,23.0367188 C3,23.0367188 3,4.40625 3,4.40625 C3,3.975 3.14375,3.63984375 3.43125,3.35234375 C3.71875,3.06484375 4.05390625,2.92109375 4.48515625,2.92109375 C4.48515625,2.92109375 4.48515625,2.92109375 4.48515625,2.92109375 C4.48515625,2.92109375 6.065625,2.92109375 6.065625,2.92109375 C6.01796875,3.1125 5.96953125,3.30390625 5.96953125,3.44765625 C5.96953125,3.44765625 5.96953125,3.44765625 5.96953125,3.44765625 C5.96953125,3.44765625 5.96953125,4.40546875 5.96953125,4.40546875 C5.96953125,4.83671875 6.11328125,5.171875 6.40078125,5.459375 C6.68828125,5.746875 7.0234375,5.890625 7.4546875,5.890625 C7.4546875,5.890625 7.4546875,5.890625 7.4546875,5.890625 C7.4546875,5.890625 17.225,5.890625 17.225,5.890625 C17.65625,5.890625 17.9914063,5.746875 18.2789063,5.459375 C18.5664062,5.171875 18.7101563,4.83671875 18.7101563,4.40546875 C18.7101563,4.40546875 18.7101563,4.40546875 18.7101563,4.40546875 C18.7101563,4.40546875 18.7101563,3.44765625 18.7101563,3.44765625 C18.7101563,3.30390625 18.6625,3.1125 18.6140625,2.92109375 C18.6140625,2.92109375 18.6140625,2.92109375 18.6140625,2.92109375 C18.6140625,2.92109375 20.1945313,2.92109375 20.1945313,2.92109375 C20.6257812,2.92109375 20.9609375,3.06484375 21.2484375,3.35234375 C21.5359375,3.63984375 21.6796875,3.975 21.6796875,4.40625 L21.6789063,4.40625 Z M16.7453125,12.2601562 C16.7453125,12.1164062 16.6976562,12.0210937 16.6015625,11.925 C16.5054687,11.8289062 16.4101562,11.78125 16.2664062,11.78125 C16.1226562,11.78125 16.0273438,11.8289062 15.93125,11.925 C15.93125,11.925 15.93125,11.925 15.93125,11.925 C15.93125,11.925 11.3335938,16.5226563 11.3335938,16.5226563 C11.3335938,16.5226563 8.74765625,14.3195313 8.74765625,14.3195313 C8.60390625,14.271875 8.50859375,14.2234375 8.4125,14.2234375 C8.4125,14.2234375 8.4125,14.2234375 8.4125,14.2234375 C8.07734375,14.2234375 7.93359375,14.3671875 7.93359375,14.7023437 C7.93359375,14.7023437 7.93359375,14.7023437 7.93359375,14.7023437 C7.93359375,14.8460937 7.98125,14.9898437 8.125,15.0851562 C8.125,15.0851562 8.125,15.0851562 8.125,15.0851562 C8.125,15.0851562 11.0460938,17.5273438 11.0460938,17.5273438 C11.1421875,17.6234375 11.2375,17.6710938 11.38125,17.6710938 C11.38125,17.6710938 11.38125,17.6710938 11.38125,17.6710938 C11.4289063,17.6710938 11.525,17.6234375 11.7164063,17.5273438 C11.7164063,17.5273438 11.7164063,17.5273438 11.7164063,17.5273438 C11.7164063,17.5273438 16.6015625,12.5945312 16.6015625,12.5945312 C16.6976563,12.4984375 16.7453125,12.403125 16.7453125,12.259375 L16.7453125,12.2601562 Z"/>
  <title>Clipboard Check Solid</title>
</svg>