<svg xmlns="http://www.w3.org/2000/svg" viewBox="0 0 25 25" id="clipboard-medical">
  <path d="M19.1828125,2.9640625 C19.1828125,2.9640625 19.1828125,2.9640625 19.1828125,2.9640625 C19.1828125,2.9640625 16.740625,2.9640625 16.740625,2.9640625 C16.740625,2.9640625 16.740625,2.48515625 16.740625,2.48515625 C16.740625,2.05390625 16.596875,1.71875 16.309375,1.43125 C16.021875,1.14375 15.6867187,1 15.2554687,1 C15.2554687,1 15.2554687,1 15.2554687,1 C15.2554687,1 9.4125,1 9.4125,1 C8.98125,1 8.64609375,1.14375 8.35859375,1.43125 C8.07109375,1.71875 7.92734375,2.05390625 7.92734375,2.48515625 C7.92734375,2.48515625 7.92734375,2.48515625 7.92734375,2.48515625 C7.92734375,2.48515625 7.92734375,2.9640625 7.92734375,2.9640625 C7.92734375,2.9640625 5.48515625,2.9640625 5.48515625,2.9640625 C5.05390625,2.9640625 4.71875,3.1078125 4.43125,3.3953125 C4.14375,3.6828125 4,4.01796875 4,4.44921875 C4,4.44921875 4,4.44921875 4,4.44921875 C4,4.44921875 4,23.0796875 4,23.0796875 C4,23.5109375 4.14375,23.8460938 4.43125,24.0851563 C4.71875,24.3726562 5.05390625,24.5164062 5.48515625,24.5164062 C5.48515625,24.5164062 5.48515625,24.5164062 5.48515625,24.5164062 C5.48515625,24.5164062 19.1828125,24.5164062 19.1828125,24.5164062 C19.6140625,24.5164062 19.9492188,24.3726562 20.2367188,24.0851563 C20.5242187,23.8460937 20.6679688,23.5101563 20.6679688,23.0796875 C20.6679688,23.0796875 20.6679688,23.0796875 20.6679688,23.0796875 C20.6679688,23.0796875 20.6679688,4.44921875 20.6679688,4.44921875 C20.6679688,4.01796875 20.5242187,3.6828125 20.2367188,3.3953125 C19.9492188,3.1078125 19.6140625,2.9640625 19.1828125,2.9640625 Z M8.8859375,3.44296875 C8.8859375,3.44296875 8.8859375,2.48515625 8.8859375,2.48515625 C8.8859375,2.15 9.07734375,1.95859375 9.4125,1.95859375 C9.4125,1.95859375 9.4125,1.95859375 9.4125,1.95859375 C9.4125,1.95859375 15.2554687,1.95859375 15.2554687,1.95859375 C15.590625,1.95859375 15.7820312,2.15 15.7820312,2.48515625 C15.7820312,2.48515625 15.7820312,2.48515625 15.7820312,2.48515625 C15.7820312,2.48515625 15.7820312,3.44296875 15.7820312,3.44296875 C15.7820312,3.778125 15.590625,3.921875 15.2554687,3.921875 C15.2554687,3.921875 15.2554687,3.921875 15.2554687,3.921875 C15.2554687,3.921875 9.4125,3.921875 9.4125,3.921875 C9.07734375,3.921875 8.8859375,3.778125 8.8859375,3.44296875 C8.8859375,3.44296875 8.8859375,3.44296875 8.8859375,3.44296875 L8.8859375,3.44296875 Z M19.709375,4.44921875 C19.709375,4.44921875 19.709375,23.0796875 19.709375,23.0796875 C19.709375,23.4148438 19.5179688,23.5585938 19.1828125,23.5585938 C19.1828125,23.5585938 19.1828125,23.5585938 19.1828125,23.5585938 C19.1828125,23.5585938 5.48515625,23.5585938 5.48515625,23.5585938 C5.15,23.5585938 4.95859375,23.4148438 4.95859375,23.0796875 C4.95859375,23.0796875 4.95859375,23.0796875 4.95859375,23.0796875 C4.95859375,23.0796875 4.95859375,4.44921875 4.95859375,4.44921875 C4.95859375,4.1140625 5.15,3.92265625 5.48515625,3.92265625 C5.48515625,3.92265625 5.48515625,3.92265625 5.48515625,3.92265625 C5.48515625,3.92265625 8.0234375,3.92265625 8.0234375,3.92265625 C8.2625,4.59296875 8.69375,4.928125 9.4125,4.928125 C9.4125,4.928125 9.4125,4.928125 9.4125,4.928125 C9.4125,4.928125 15.2554687,4.928125 15.2554687,4.928125 C15.9742188,4.928125 16.4046875,4.59296875 16.6445312,3.9703125 C16.6445312,3.9703125 16.6445312,3.9703125 16.6445312,3.9703125 C16.6445312,3.9703125 19.1828125,3.92265625 19.1828125,3.92265625 C19.5179687,3.92265625 19.709375,4.1140625 19.709375,4.44921875 C19.709375,4.44921875 19.709375,4.44921875 19.709375,4.44921875 Z M18.225,14.7460938 C18.5601562,14.7460938 18.7039062,14.8898438 18.7039062,15.225 C18.7039062,15.5601563 18.5601562,15.7039063 18.225,15.7039063 C18.225,15.7039063 18.225,15.7039063 18.225,15.7039063 C18.225,15.7039063 15.5429687,15.7039063 15.5429687,15.7039063 C15.5429687,15.7039063 13.7234375,18.4335938 13.7234375,18.4335938 C13.6273437,18.5773438 13.484375,18.6726563 13.2921875,18.6726563 C13.2921875,18.6726563 13.2921875,18.6726563 13.2921875,18.6726563 C13.2921875,18.6726563 13.2445312,18.6726563 13.2445312,18.6726563 C13.053125,18.625 12.909375,18.48125 12.8617187,18.3375 C12.8617187,18.3375 12.8617187,18.3375 12.8617187,18.3375 C12.8617187,18.3375 10.85,12.734375 10.85,12.734375 C10.85,12.734375 9.84453125,15.4164063 9.84453125,15.4164063 C9.796875,15.6078125 9.653125,15.7039063 9.41328125,15.7039063 C9.41328125,15.7039063 9.41328125,15.7039063 9.41328125,15.7039063 C9.41328125,15.7039063 6.44375,15.7039063 6.44375,15.7039063 C6.10859375,15.7039063 5.96484375,15.5601563 5.96484375,15.225 C5.96484375,14.8898438 6.10859375,14.7460938 6.44375,14.7460938 C6.44375,14.7460938 6.44375,14.7460938 6.44375,14.7460938 C6.44375,14.7460938 9.0296875,14.7460938 9.0296875,14.7460938 C9.0296875,14.7460938 10.41875,11.10625 10.41875,11.10625 C10.4664063,10.9148438 10.6101563,10.81875 10.85,10.81875 C10.85,10.81875 10.85,10.81875 10.85,10.81875 C11.0414062,10.81875 11.1851563,10.9148438 11.3289062,11.10625 C11.3289062,11.10625 11.3289062,11.10625 11.3289062,11.10625 C11.3289062,11.10625 13.4359375,17.0929688 13.4359375,17.0929688 C13.4359375,17.0929688 14.8726562,14.9375 14.8726562,14.9375 C14.96875,14.79375 15.1117188,14.7460938 15.2554687,14.7460938 C15.2554687,14.7460938 15.2554687,14.7460938 15.2554687,14.7460938 C15.2554687,14.7460938 18.225,14.7460938 18.225,14.7460938 Z"/>
  <title>Clipboard Medical</title>
</svg>