<svg xmlns="http://www.w3.org/2000/svg" viewBox="0 0 25 25" id="clipboard-data-solid">
  <path d="M4.9640625,2.921875 C4.9640625,2.921875 4.9640625,2.921875 4.9640625,2.921875 C4.9640625,2.921875 4.9640625,5.89140625 4.9640625,5.89140625 C4.9640625,6.13046875 5.06015625,6.3703125 5.29921875,6.56171875 C5.490625,6.753125 5.73046875,6.84921875 5.96953125,6.84921875 C5.96953125,6.84921875 5.96953125,6.84921875 5.96953125,6.84921875 C5.96953125,6.84921875 18.7085937,6.84921875 18.7085937,6.84921875 C18.9476563,6.84921875 19.1875,6.753125 19.4273438,6.56171875 C19.61875,6.3703125 19.7148438,6.13046875 19.7148438,5.89140625 C19.7148438,5.89140625 19.7148438,5.89140625 19.7148438,5.89140625 C19.7148438,5.89140625 19.7148438,2.921875 19.7148438,2.921875 C20.2414063,2.921875 20.6726562,3.11328125 21.1039063,3.496875 C21.4867187,3.928125 21.6789063,4.35859375 21.6789063,4.8859375 C21.6789063,4.8859375 21.6789063,4.8859375 21.6789063,4.8859375 C21.6789063,4.8859375 21.6789063,22.5585938 21.6789063,22.5585938 C21.6789063,23.0851562 21.4875,23.5640625 21.1039063,23.9476562 C20.7203125,24.33125 20.2421875,24.5226563 19.7148438,24.5226563 C19.7148438,24.5226563 19.7148438,24.5226563 19.7148438,24.5226563 C19.7148438,24.5226563 4.9640625,24.5226563 4.9640625,24.5226563 C4.4375,24.5226563 3.95859375,24.33125 3.575,23.9476562 C3.19140625,23.5640625 3,23.0859375 3,22.5585938 C3,22.5585938 3,22.5585938 3,22.5585938 C3,22.5585938 3,4.8859375 3,4.8859375 C3,4.359375 3.19140625,3.928125 3.62265625,3.496875 C4.00546875,3.1140625 4.43671875,2.921875 4.96328125,2.921875 L4.9640625,2.921875 Z M4.9640625,2.921875 C4.9640625,2.921875 19.7148437,2.921875 19.7148437,2.921875 C19.7148437,2.921875 4.9640625,2.921875 4.9640625,2.921875 Z M10.3757812,10.7757812 C10.3757812,10.7757812 16.2664062,10.7757812 16.2664062,10.7757812 C16.6015625,10.7757812 16.7453125,10.6320313 16.7453125,10.296875 C16.7453125,9.96171875 16.6015625,9.81796875 16.2664062,9.81796875 C16.2664062,9.81796875 16.2664062,9.81796875 16.2664062,9.81796875 C16.2664062,9.81796875 10.3757812,9.81796875 10.3757812,9.81796875 C10.040625,9.81796875 9.896875,9.96171875 9.896875,10.296875 C9.896875,10.6320313 10.040625,10.7757812 10.3757812,10.7757812 C10.3757812,10.7757812 10.3757812,10.7757812 10.3757812,10.7757812 Z M7.93359375,10.296875 C7.93359375,10.6320313 8.07734375,10.7757812 8.4125,10.7757812 C8.74765625,10.7757812 8.89140625,10.6320313 8.89140625,10.296875 C8.89140625,9.96171875 8.74765625,9.81796875 8.4125,9.81796875 C8.07734375,9.81796875 7.93359375,9.96171875 7.93359375,10.296875 Z M10.3757812,14.703125 C10.3757812,14.703125 16.2664062,14.703125 16.2664062,14.703125 C16.6015625,14.703125 16.7453125,14.559375 16.7453125,14.2242188 C16.7453125,13.8890625 16.6015625,13.7453125 16.2664062,13.7453125 C16.2664062,13.7453125 16.2664062,13.7453125 16.2664062,13.7453125 C16.2664062,13.7453125 10.3757812,13.7453125 10.3757812,13.7453125 C10.040625,13.7453125 9.896875,13.8890625 9.896875,14.2242188 C9.896875,14.559375 10.040625,14.703125 10.3757812,14.703125 C10.3757812,14.703125 10.3757812,14.703125 10.3757812,14.703125 Z M7.93359375,14.2242188 C7.93359375,14.559375 8.07734375,14.703125 8.4125,14.703125 C8.74765625,14.703125 8.89140625,14.559375 8.89140625,14.2242188 C8.89140625,13.8890625 8.74765625,13.7453125 8.4125,13.7453125 C8.07734375,13.7453125 7.93359375,13.8890625 7.93359375,14.2242188 Z M10.3757812,18.6304687 C10.3757812,18.6304687 16.2664062,18.6304687 16.2664062,18.6304687 C16.6015625,18.6304687 16.7453125,18.4867187 16.7453125,18.1515625 C16.7453125,17.8164062 16.6015625,17.6726562 16.2664062,17.6726562 C16.2664062,17.6726562 16.2664062,17.6726562 16.2664062,17.6726562 C16.2664062,17.6726562 10.3757812,17.6726562 10.3757812,17.6726562 C10.040625,17.6726562 9.896875,17.8164062 9.896875,18.1515625 C9.896875,18.4867187 10.040625,18.6304687 10.3757812,18.6304687 C10.3757812,18.6304687 10.3757812,18.6304687 10.3757812,18.6304687 Z M7.93359375,18.1515625 C7.93359375,18.4867187 8.07734375,18.6304687 8.4125,18.6304687 C8.74765625,18.6304687 8.89140625,18.4867187 8.89140625,18.1515625 C8.89140625,17.8164062 8.74765625,17.6726562 8.4125,17.6726562 C8.07734375,17.6726562 7.93359375,17.8164062 7.93359375,18.1515625 Z M7.93359375,0.9578125 C7.93359375,0.9578125 7.93359375,1.96328125 7.93359375,1.96328125 C7.93359375,1.96328125 6.928125,1.96328125 6.928125,1.96328125 C6.6890625,1.96328125 6.44921875,2.059375 6.2578125,2.25078125 C6.06640625,2.4421875 5.9703125,2.68203125 5.9703125,2.92109375 C5.9703125,2.92109375 5.9703125,2.92109375 5.9703125,2.92109375 C5.9703125,2.92109375 5.9703125,4.884375 5.9703125,4.884375 C5.9703125,5.171875 6.06640625,5.4109375 6.2578125,5.603125 C6.44921875,5.7953125 6.6890625,5.890625 6.928125,5.890625 C6.928125,5.890625 6.928125,5.890625 6.928125,5.890625 C6.928125,5.890625 17.7515625,5.890625 17.7515625,5.890625 C17.990625,5.890625 18.2304687,5.79453125 18.421875,5.603125 C18.6132812,5.41171875 18.709375,5.171875 18.709375,4.884375 C18.709375,4.884375 18.709375,4.884375 18.709375,4.884375 C18.709375,4.884375 18.709375,2.92109375 18.709375,2.92109375 C18.709375,2.68203125 18.6132812,2.4421875 18.421875,2.25078125 C18.2304688,2.059375 17.990625,1.96328125 17.7515625,1.96328125 C17.7515625,1.96328125 17.7515625,1.96328125 17.7515625,1.96328125 C17.7515625,1.96328125 16.7460938,1.96328125 16.7460938,1.96328125 C16.7460938,1.96328125 16.7460938,0.9578125 16.7460938,0.9578125 C16.7460938,0.71875 16.65,0.47890625 16.4585937,0.2875 C16.2671875,0.09609375 16.0273438,0 15.7882812,0 C15.7882812,0 15.7882812,0 15.7882812,0 C15.7882812,0 8.89140625,0 8.89140625,0 C8.65234375,0 8.4125,0.09609375 8.22109375,0.2875 C8.0296875,0.47890625 7.93359375,0.71875 7.93359375,0.9578125 C7.93359375,0.9578125 7.93359375,0.9578125 7.93359375,0.9578125 Z"/>
  <title>Clipboard Data Solid</title>
</svg>