<svg xmlns="http://www.w3.org/2000/svg" viewBox="0 0 25 25" id="clipboard-check">
  <path d="M20.1953125,2.921875 C20.1953125,2.921875 20.1953125,2.921875 20.1953125,2.921875 C20.1953125,2.921875 18.6148437,2.921875 18.6148437,2.921875 C18.3757812,2.29921875 17.9445312,1.9640625 17.2257812,1.9640625 C17.2257812,1.9640625 17.2257812,1.9640625 17.2257812,1.9640625 C17.2257812,1.9640625 16.746875,1.9640625 16.746875,1.9640625 C16.746875,1.9640625 16.746875,1.48515625 16.746875,1.48515625 C16.746875,1.05390625 16.603125,0.71875 16.315625,0.43125 C16.028125,0.14375 15.6929688,0 15.2617187,0 C15.2617187,0 15.2617187,0 15.2617187,0 C15.2617187,0 9.41875,0 9.41875,0 C8.9875,0 8.65234375,0.14375 8.36484375,0.43125 C8.07734375,0.71875 7.93359375,1.05390625 7.93359375,1.48515625 C7.93359375,1.48515625 7.93359375,1.48515625 7.93359375,1.48515625 C7.93359375,1.48515625 7.93359375,1.9640625 7.93359375,1.9640625 C7.93359375,1.9640625 7.4546875,1.9640625 7.4546875,1.9640625 C6.7359375,1.9640625 6.30546875,2.29921875 6.065625,2.921875 C6.065625,2.921875 6.065625,2.921875 6.065625,2.921875 C6.065625,2.921875 4.48515625,2.921875 4.48515625,2.921875 C4.05390625,2.921875 3.71875,3.065625 3.43125,3.353125 C3.14375,3.640625 3,3.97578125 3,4.40703125 C3,4.40703125 3,4.40703125 3,4.40703125 C3,4.40703125 3,23.0375 3,23.0375 C3,23.46875 3.14375,23.8039063 3.43125,24.0914062 C3.71875,24.3789062 4.05390625,24.5226563 4.48515625,24.5226563 C4.48515625,24.5226563 4.48515625,24.5226563 4.48515625,24.5226563 C4.48515625,24.5226563 20.19375,24.5226563 20.19375,24.5226563 C20.625,24.5226563 20.9601563,24.3789062 21.2476563,24.0914063 C21.5351563,23.8039063 21.6789063,23.46875 21.6789063,23.0375 C21.6789063,23.0375 21.6789063,23.0375 21.6789063,23.0375 C21.6789063,23.0375 21.6789063,4.40703125 21.6789063,4.40703125 C21.6789063,3.97578125 21.5351563,3.640625 21.2476563,3.353125 C20.9601563,3.065625 20.625,2.921875 20.19375,2.921875 L20.1953125,2.921875 Z M6.92890625,4.40625 C6.92890625,4.40625 6.92890625,3.4484375 6.92890625,3.4484375 C6.92890625,3.11328125 7.1203125,2.921875 7.45546875,2.921875 C7.45546875,2.921875 7.45546875,2.921875 7.45546875,2.921875 C7.45546875,2.921875 8.8921875,2.921875 8.8921875,2.921875 C8.8921875,2.921875 8.8921875,1.48515625 8.8921875,1.48515625 C8.8921875,1.15 9.08359375,0.95859375 9.41875,0.95859375 C9.41875,0.95859375 9.41875,0.95859375 9.41875,0.95859375 C9.41875,0.95859375 15.2617187,0.95859375 15.2617187,0.95859375 C15.596875,0.95859375 15.7882812,1.15 15.7882812,1.48515625 C15.7882812,1.48515625 15.7882812,1.48515625 15.7882812,1.48515625 C15.7882812,1.48515625 15.7882812,2.921875 15.7882812,2.921875 C15.7882812,2.921875 17.225,2.921875 17.225,2.921875 C17.5601562,2.921875 17.7515625,3.11328125 17.7515625,3.4484375 C17.7515625,3.4484375 17.7515625,3.4484375 17.7515625,3.4484375 C17.7515625,3.4484375 17.7515625,4.40625 17.7515625,4.40625 C17.7515625,4.74140625 17.5601562,4.88515625 17.225,4.88515625 C17.225,4.88515625 17.225,4.88515625 17.225,4.88515625 C17.225,4.88515625 7.4546875,4.88515625 7.4546875,4.88515625 C7.11953125,4.88515625 6.928125,4.74140625 6.928125,4.40625 C6.928125,4.40625 6.928125,4.40625 6.928125,4.40625 L6.92890625,4.40625 Z M20.6742188,4.40625 C20.6742188,4.40625 20.6742188,23.0367188 20.6742188,23.0367188 C20.6742188,23.371875 20.5304687,23.515625 20.1953125,23.515625 C20.1953125,23.515625 20.1953125,23.515625 20.1953125,23.515625 C20.1953125,23.515625 4.48671875,23.515625 4.48671875,23.515625 C4.1515625,23.515625 4.0078125,23.371875 4.0078125,23.0367188 C4.0078125,23.0367188 4.0078125,23.0367188 4.0078125,23.0367188 C4.0078125,23.0367188 4.0078125,4.40625 4.0078125,4.40625 C4.0078125,4.07109375 4.1515625,3.92734375 4.48671875,3.92734375 C4.48671875,3.92734375 4.48671875,3.92734375 4.48671875,3.92734375 C4.48671875,3.92734375 5.97109375,3.92734375 5.97109375,3.92734375 C5.97109375,3.92734375 5.97109375,4.40625 5.97109375,4.40625 C5.97109375,4.8375 6.11484375,5.17265625 6.40234375,5.46015625 C6.68984375,5.74765625 7.025,5.89140625 7.45625,5.89140625 C7.45625,5.89140625 7.45625,5.89140625 7.45625,5.89140625 C7.45625,5.89140625 17.2265625,5.89140625 17.2265625,5.89140625 C17.6578125,5.89140625 17.9929688,5.74765625 18.2804688,5.46015625 C18.5679688,5.17265625 18.7117187,4.8375 18.7117187,4.40625 C18.7117187,4.40625 18.7117187,4.40625 18.7117187,4.40625 C18.7117187,4.40625 18.7117187,3.92734375 18.7117187,3.92734375 C18.7117187,3.92734375 20.1960938,3.92734375 20.1960938,3.92734375 C20.53125,3.92734375 20.675,4.07109375 20.675,4.40625 C20.675,4.40625 20.675,4.40625 20.675,4.40625 L20.6742188,4.40625 Z M16.2679687,11.7820312 C16.4117187,11.7820312 16.5070313,11.8296875 16.603125,11.9257812 C16.6992187,12.021875 16.746875,12.1171875 16.746875,12.2609375 C16.746875,12.4046875 16.6992187,12.5 16.603125,12.5960937 C16.603125,12.5960937 16.603125,12.5960937 16.603125,12.5960937 C16.603125,12.5960937 11.7179687,17.5289062 11.7179687,17.5289062 C11.5265625,17.625 11.4304687,17.6726562 11.3828125,17.6726562 C11.3828125,17.6726562 11.3828125,17.6726562 11.3828125,17.6726562 C11.2390625,17.6726562 11.14375,17.625 11.0476562,17.5289062 C11.0476562,17.5289062 11.0476562,17.5289062 11.0476562,17.5289062 C11.0476562,17.5289062 8.1265625,15.0867187 8.1265625,15.0867187 C7.9828125,14.990625 7.93515625,14.8476562 7.93515625,14.7039062 C7.93515625,14.7039062 7.93515625,14.7039062 7.93515625,14.7039062 C7.93515625,14.36875 8.07890625,14.225 8.4140625,14.225 C8.4140625,14.225 8.4140625,14.225 8.4140625,14.225 C8.51015625,14.225 8.60546875,14.2726562 8.74921875,14.3210937 C8.74921875,14.3210937 8.74921875,14.3210937 8.74921875,14.3210937 C8.74921875,14.3210937 11.3351562,16.5242187 11.3351562,16.5242187 C11.3351562,16.5242187 15.9328125,11.9265625 15.9328125,11.9265625 C16.0289062,11.8304687 16.1242188,11.7828125 16.2679687,11.7828125 L16.2679687,11.7820312 Z"/>
  <title>Clipboard Check</title>
</svg>