<svg xmlns="http://www.w3.org/2000/svg" viewBox="0 0 25 25" id="clipboard-data">
  <path d="M18.6132812,2.921875 C18.6132812,2.921875 20.19375,2.921875 20.19375,2.921875 C20.625,2.921875 20.9601563,3.065625 21.2476563,3.353125 C21.5351562,3.640625 21.6789063,3.97578125 21.6789063,4.40703125 C21.6789063,4.40703125 21.6789063,4.40703125 21.6789063,4.40703125 C21.6789063,4.40703125 21.6789063,23.0375 21.6789063,23.0375 C21.6789063,23.46875 21.5351562,23.8039063 21.2476563,24.0914063 C20.9601563,24.3789062 20.625,24.5226563 20.19375,24.5226563 C20.19375,24.5226563 20.19375,24.5226563 20.19375,24.5226563 C20.19375,24.5226563 4.48515625,24.5226563 4.48515625,24.5226563 C4.05390625,24.5226563 3.71875,24.3789062 3.43125,24.0914063 C3.14375,23.8039063 3,23.46875 3,23.0375 C3,23.0375 3,23.0375 3,23.0375 C3,23.0375 3,4.40703125 3,4.40703125 C3,3.97578125 3.14375,3.640625 3.43125,3.353125 C3.71875,3.065625 4.05390625,2.921875 4.48515625,2.921875 C4.48515625,2.921875 4.48515625,2.921875 4.48515625,2.921875 C4.48515625,2.921875 6.065625,2.921875 6.065625,2.921875 C6.3046875,2.29921875 6.784375,1.9640625 7.4546875,1.9640625 C7.4546875,1.9640625 7.4546875,1.9640625 7.4546875,1.9640625 C7.4546875,1.9640625 7.93359375,1.9640625 7.93359375,1.9640625 C7.93359375,1.9640625 7.93359375,1.48515625 7.93359375,1.48515625 C7.93359375,1.05390625 8.07734375,0.71875 8.36484375,0.43125 C8.65234375,0.14375 8.9875,0 9.41875,0 C9.41875,0 9.41875,0 9.41875,0 C9.41875,0 15.2617188,0 15.2617188,0 C15.6929688,0 16.028125,0.14375 16.315625,0.43125 C16.603125,0.71875 16.746875,1.05390625 16.746875,1.48515625 C16.746875,1.48515625 16.746875,1.48515625 16.746875,1.48515625 C16.746875,1.48515625 16.746875,1.9640625 16.746875,1.9640625 C16.746875,1.9640625 17.2257813,1.9640625 17.2257813,1.9640625 C17.9445313,1.9640625 18.4234375,2.29921875 18.6148437,2.921875 C18.6148437,2.921875 18.6148437,2.921875 18.6148437,2.921875 L18.6132812,2.921875 Z M6.92734375,3.4484375 C6.92734375,3.4484375 6.92734375,4.40625 6.92734375,4.40625 C6.92734375,4.74140625 7.11875,4.88515625 7.45390625,4.88515625 C7.45390625,4.88515625 7.45390625,4.88515625 7.45390625,4.88515625 C7.45390625,4.88515625 17.2242188,4.88515625 17.2242188,4.88515625 C17.559375,4.88515625 17.7507813,4.74140625 17.7507813,4.40625 C17.7507813,4.40625 17.7507813,4.40625 17.7507813,4.40625 C17.7507813,4.40625 17.7507813,3.4484375 17.7507813,3.4484375 C17.7507813,3.11328125 17.559375,2.921875 17.2242188,2.921875 C17.2242188,2.921875 17.2242188,2.921875 17.2242188,2.921875 C17.2242188,2.921875 15.7875,2.921875 15.7875,2.921875 C15.7875,2.921875 15.7875,1.48515625 15.7875,1.48515625 C15.7875,1.15 15.5960938,0.95859375 15.2609375,0.95859375 C15.2609375,0.95859375 15.2609375,0.95859375 15.2609375,0.95859375 C15.2609375,0.95859375 9.41796875,0.95859375 9.41796875,0.95859375 C9.0828125,0.95859375 8.89140625,1.15 8.89140625,1.48515625 C8.89140625,1.48515625 8.89140625,1.48515625 8.89140625,1.48515625 C8.89140625,1.48515625 8.89140625,2.921875 8.89140625,2.921875 C8.89140625,2.921875 7.4546875,2.921875 7.4546875,2.921875 C7.11953125,2.921875 6.928125,3.11328125 6.928125,3.4484375 C6.928125,3.4484375 6.928125,3.4484375 6.928125,3.4484375 L6.92734375,3.4484375 Z M20.6726563,23.0367188 C20.6726563,23.0367188 20.6726563,23.0367188 20.6726563,23.0367188 C20.6726563,23.0367188 20.6726563,4.40625 20.6726563,4.40625 C20.6726563,4.07109375 20.5289063,3.92734375 20.19375,3.92734375 C20.19375,3.92734375 20.19375,3.92734375 20.19375,3.92734375 C20.19375,3.92734375 18.709375,3.92734375 18.709375,3.92734375 C18.709375,3.92734375 18.709375,4.40625 18.709375,4.40625 C18.709375,4.8375 18.565625,5.17265625 18.278125,5.46015625 C17.990625,5.74765625 17.6554688,5.89140625 17.2242188,5.89140625 C17.2242188,5.89140625 17.2242188,5.89140625 17.2242188,5.89140625 C17.2242188,5.89140625 7.45390625,5.89140625 7.45390625,5.89140625 C7.02265625,5.89140625 6.6875,5.74765625 6.4,5.46015625 C6.1125,5.17265625 5.96875,4.8375 5.96875,4.40625 C5.96875,4.40625 5.96875,4.40625 5.96875,4.40625 C5.96875,4.40625 5.96875,3.92734375 5.96875,3.92734375 C5.96875,3.92734375 4.484375,3.92734375 4.484375,3.92734375 C4.14921875,3.92734375 4.00546875,4.07109375 4.00546875,4.40625 C4.00546875,4.40625 4.00546875,4.40625 4.00546875,4.40625 C4.00546875,4.40625 4.00546875,23.0367188 4.00546875,23.0367188 C4.00546875,23.371875 4.14921875,23.515625 4.484375,23.515625 C4.484375,23.515625 4.484375,23.515625 4.484375,23.515625 C4.484375,23.515625 20.1929688,23.515625 20.1929688,23.515625 C20.528125,23.515625 20.671875,23.371875 20.671875,23.0367188 L20.6726563,23.0367188 Z M16.2664063,10.7757812 C16.2664063,10.7757812 16.2664063,10.7757812 16.2664063,10.7757812 C16.2664063,10.7757812 10.3757813,10.7757812 10.3757813,10.7757812 C10.040625,10.7757812 9.896875,10.6320312 9.896875,10.296875 C9.896875,9.96171875 10.040625,9.81796875 10.3757813,9.81796875 C10.3757813,9.81796875 10.3757813,9.81796875 10.3757813,9.81796875 C10.3757813,9.81796875 16.2664063,9.81796875 16.2664063,9.81796875 C16.6015625,9.81796875 16.7453125,9.96171875 16.7453125,10.296875 C16.7453125,10.6320312 16.6015625,10.7757812 16.2664063,10.7757812 Z M8.89140625,10.296875 C8.89140625,10.6320312 8.74765625,10.7757812 8.4125,10.7757812 C8.07734375,10.7757812 7.93359375,10.6320312 7.93359375,10.296875 C7.93359375,9.96171875 8.07734375,9.81796875 8.4125,9.81796875 C8.74765625,9.81796875 8.89140625,9.96171875 8.89140625,10.296875 Z M16.2664063,14.703125 C16.2664063,14.703125 16.2664063,14.703125 16.2664063,14.703125 C16.2664063,14.703125 10.3757813,14.703125 10.3757813,14.703125 C10.040625,14.703125 9.896875,14.559375 9.896875,14.2242188 C9.896875,13.8890625 10.040625,13.7453125 10.3757813,13.7453125 C10.3757813,13.7453125 10.3757813,13.7453125 10.3757813,13.7453125 C10.3757813,13.7453125 16.2664063,13.7453125 16.2664063,13.7453125 C16.6015625,13.7453125 16.7453125,13.8890625 16.7453125,14.2242188 C16.7453125,14.559375 16.6015625,14.703125 16.2664063,14.703125 Z M8.89140625,14.2242188 C8.89140625,14.559375 8.74765625,14.703125 8.4125,14.703125 C8.07734375,14.703125 7.93359375,14.559375 7.93359375,14.2242188 C7.93359375,13.8890625 8.07734375,13.7453125 8.4125,13.7453125 C8.74765625,13.7453125 8.89140625,13.8890625 8.89140625,14.2242188 Z M16.2664063,18.6304688 C16.2664063,18.6304688 16.2664063,18.6304688 16.2664063,18.6304688 C16.2664063,18.6304688 10.3757813,18.6304688 10.3757813,18.6304688 C10.040625,18.6304688 9.896875,18.4867188 9.896875,18.1515625 C9.896875,17.8164063 10.040625,17.6726563 10.3757813,17.6726563 C10.3757813,17.6726563 10.3757813,17.6726563 10.3757813,17.6726563 C10.3757813,17.6726563 16.2664063,17.6726563 16.2664063,17.6726563 C16.6015625,17.6726563 16.7453125,17.8164063 16.7453125,18.1515625 C16.7453125,18.4867188 16.6015625,18.6304688 16.2664063,18.6304688 Z M8.89140625,18.1515625 C8.89140625,18.4867188 8.74765625,18.6304688 8.4125,18.6304688 C8.07734375,18.6304688 7.93359375,18.4867188 7.93359375,18.1515625 C7.93359375,17.8164063 8.07734375,17.6726563 8.4125,17.6726563 C8.74765625,17.6726563 8.89140625,17.8164063 8.89140625,18.1515625 Z"/>
  <title>Clipboard Data</title>
</svg>