<svg xmlns="http://www.w3.org/2000/svg" viewBox="0 0 25 25" id="clipboard-medical-solid">
  <path d="M8.93359375,3.4421875 C8.93359375,3.4421875 8.93359375,3.4421875 8.93359375,3.4421875 C8.93359375,3.4421875 8.93359375,1.47890625 8.93359375,1.47890625 C8.93359375,1.14375 9.07734375,1 9.4125,1 C9.4125,1 9.4125,1 9.4125,1 C9.4125,1 15.303125,1 15.303125,1 C15.6382813,1 15.7820313,1.14375 15.7820313,1.47890625 C15.7820313,1.47890625 15.7820313,1.47890625 15.7820313,1.47890625 C15.7820313,1.47890625 15.7820313,3.4421875 15.7820313,3.4421875 C15.7820313,3.77734375 15.6382813,3.92109375 15.303125,3.92109375 C15.303125,3.92109375 15.303125,3.92109375 15.303125,3.92109375 C15.303125,3.92109375 9.4125,3.92109375 9.4125,3.92109375 C9.07734375,3.92109375 8.93359375,3.77734375 8.93359375,3.4421875 L8.93359375,3.4421875 Z M20.715625,4.4484375 C20.715625,4.4484375 20.715625,4.4484375 20.715625,4.4484375 C20.715625,4.4484375 20.715625,23.0789063 20.715625,23.0789063 C20.715625,23.5101563 20.571875,23.8453125 20.284375,24.084375 C19.996875,24.371875 19.6617187,24.515625 19.2304688,24.515625 C19.2304688,24.515625 19.2304688,24.515625 19.2304688,24.515625 C19.2304688,24.515625 5.48515625,24.515625 5.48515625,24.515625 C5.05390625,24.515625 4.71875,24.371875 4.43125,24.084375 C4.14375,23.8453125 4,23.509375 4,23.0789063 C4,23.0789063 4,23.0789063 4,23.0789063 C4,23.0789063 4,4.4484375 4,4.4484375 C4,4.0171875 4.14375,3.68203125 4.43125,3.39453125 C4.71875,3.10703125 5.05390625,2.96328125 5.48515625,2.96328125 C5.48515625,2.96328125 5.48515625,2.96328125 5.48515625,2.96328125 C5.48515625,2.96328125 7.92734375,2.96328125 7.92734375,2.96328125 C7.92734375,2.96328125 7.92734375,3.4421875 7.92734375,3.4421875 C7.92734375,3.8734375 8.07109375,4.20859375 8.35859375,4.49609375 C8.64609375,4.78359375 8.98125,4.92734375 9.4125,4.92734375 C9.4125,4.92734375 9.4125,4.92734375 9.4125,4.92734375 C9.4125,4.92734375 15.303125,4.92734375 15.303125,4.92734375 C15.734375,4.92734375 16.0695313,4.78359375 16.3570312,4.49609375 C16.6445312,4.20859375 16.7882812,3.8734375 16.7882812,3.4421875 C16.7882812,3.4421875 16.7882812,3.4421875 16.7882812,3.4421875 C16.7882812,3.4421875 16.7882812,2.96328125 16.7882812,2.96328125 C16.7882812,2.96328125 19.2304688,2.96328125 19.2304688,2.96328125 C19.6617187,2.96328125 19.996875,3.10703125 20.284375,3.39453125 C20.571875,3.68203125 20.715625,4.0171875 20.715625,4.4484375 Z M18.225,15.703125 C18.5601563,15.703125 18.7515625,15.559375 18.7515625,15.2242187 C18.7515625,14.8890625 18.5601563,14.7453125 18.225,14.7453125 C18.225,14.7453125 18.225,14.7453125 18.225,14.7453125 C18.225,14.7453125 15.3039063,14.7453125 15.3039063,14.7453125 C15.1125,14.7453125 14.96875,14.7929687 14.8726563,14.9367187 C14.8726563,14.9367187 14.8726563,14.9367187 14.8726563,14.9367187 C14.8726563,14.9367187 13.4835938,17.0921875 13.4835938,17.0921875 C13.4835938,17.0921875 11.328125,11.153125 11.328125,11.153125 C11.2804688,10.9140625 11.1367188,10.8179687 10.896875,10.8179687 C10.6570313,10.8179687 10.5140625,10.9140625 10.4179688,11.1054687 C10.4179688,11.1054687 10.4179688,11.1054687 10.4179688,11.1054687 C10.4179688,11.1054687 9.07734375,14.7453125 9.07734375,14.7453125 C9.07734375,14.7453125 6.49140625,14.7453125 6.49140625,14.7453125 C6.15625,14.7453125 5.96484375,14.8890625 5.96484375,15.2242187 C5.96484375,15.559375 6.15625,15.703125 6.49140625,15.703125 C6.49140625,15.703125 6.49140625,15.703125 6.49140625,15.703125 C6.49140625,15.703125 9.4125,15.703125 9.4125,15.703125 C9.60390625,15.703125 9.74765625,15.6070312 9.89140625,15.415625 C9.89140625,15.415625 9.89140625,15.415625 9.89140625,15.415625 C9.89140625,15.415625 10.896875,12.7335937 10.896875,12.7335937 C10.896875,12.7335937 12.8601563,18.3367187 12.8601563,18.3367187 C13.0039063,18.528125 13.1476563,18.6242187 13.2914063,18.671875 C13.2914063,18.671875 13.2914063,18.671875 13.2914063,18.671875 C13.2914063,18.671875 13.3390625,18.671875 13.3390625,18.671875 C13.5304688,18.671875 13.6742188,18.5757812 13.721875,18.4328125 C13.721875,18.4328125 13.721875,18.4328125 13.721875,18.4328125 C13.721875,18.4328125 15.5414063,15.703125 15.5414063,15.703125 C15.5414063,15.703125 18.2234375,15.703125 18.2234375,15.703125 L18.225,15.703125 Z"/>
  <title>Clipboard Medical Solid</title>
</svg>