<svg xmlns="http://www.w3.org/2000/svg" viewBox="0 0 25 25" id="clipboard-plus-solid">
  <path d="M6.92734375,4.40625 C6.92734375,4.40625 6.92734375,4.40625 6.92734375,4.40625 C6.92734375,4.40625 6.92734375,2.44296875 6.92734375,2.44296875 C6.92734375,2.1078125 7.11875,1.9640625 7.45390625,1.9640625 C7.45390625,1.9640625 7.45390625,1.9640625 7.45390625,1.9640625 C7.45390625,1.9640625 7.9328125,1.9640625 7.9328125,1.9640625 C7.9328125,1.9640625 7.9328125,1.48515625 7.9328125,1.48515625 C7.9328125,1.05390625 8.0765625,0.71875 8.3640625,0.43125 C8.6515625,0.14375 8.98671875,0 9.41796875,0 C9.41796875,0 9.41796875,0 9.41796875,0 C9.41796875,0 15.2609375,0 15.2609375,0 C15.6921875,0 16.0273438,0.14375 16.3148438,0.43125 C16.6023438,0.71875 16.7460938,1.05390625 16.7460938,1.48515625 C16.7460938,1.48515625 16.7460938,1.48515625 16.7460938,1.48515625 C16.7460938,1.48515625 16.7460938,1.9640625 16.7460938,1.9640625 C16.7460938,1.9640625 17.225,1.9640625 17.225,1.9640625 C17.5601562,1.9640625 17.7515625,2.1078125 17.7515625,2.44296875 C17.7515625,2.44296875 17.7515625,2.44296875 17.7515625,2.44296875 C17.7515625,2.44296875 17.7515625,4.40625 17.7515625,4.40625 C17.7515625,4.74140625 17.5601562,4.88515625 17.225,4.88515625 C17.225,4.88515625 17.225,4.88515625 17.225,4.88515625 C17.225,4.88515625 7.4546875,4.88515625 7.4546875,4.88515625 C7.11953125,4.88515625 6.928125,4.74140625 6.928125,4.40625 L6.92734375,4.40625 Z M21.6789063,4.40625 C21.6789063,4.40625 21.6789063,4.40625 21.6789063,4.40625 C21.6789063,4.40625 21.6789063,23.0367187 21.6789063,23.0367187 C21.6789063,23.4679688 21.5351562,23.803125 21.2476562,24.090625 C20.9601563,24.378125 20.625,24.521875 20.19375,24.521875 C20.19375,24.521875 20.19375,24.521875 20.19375,24.521875 C20.19375,24.521875 4.48515625,24.521875 4.48515625,24.521875 C4.05390625,24.521875 3.71875,24.378125 3.43125,24.090625 C3.14375,23.803125 3,23.4679688 3,23.0367188 C3,23.0367188 3,23.0367188 3,23.0367188 C3,23.0367188 3,4.40625 3,4.40625 C3,3.975 3.14375,3.63984375 3.43125,3.35234375 C3.71875,3.06484375 4.05390625,2.92109375 4.48515625,2.92109375 C4.48515625,2.92109375 4.48515625,2.92109375 4.48515625,2.92109375 C4.48515625,2.92109375 6.065625,2.92109375 6.065625,2.92109375 C6.01796875,3.1125 5.96953125,3.30390625 5.96953125,3.44765625 C5.96953125,3.44765625 5.96953125,3.44765625 5.96953125,3.44765625 C5.96953125,3.44765625 5.96953125,4.40546875 5.96953125,4.40546875 C5.96953125,4.83671875 6.11328125,5.171875 6.40078125,5.459375 C6.68828125,5.746875 7.0234375,5.890625 7.4546875,5.890625 C7.4546875,5.890625 7.4546875,5.890625 7.4546875,5.890625 C7.4546875,5.890625 17.225,5.890625 17.225,5.890625 C17.65625,5.890625 17.9914063,5.746875 18.2789063,5.459375 C18.5664062,5.171875 18.7101563,4.83671875 18.7101563,4.40546875 C18.7101563,4.40546875 18.7101563,4.40546875 18.7101563,4.40546875 C18.7101563,4.40546875 18.7101563,3.44765625 18.7101563,3.44765625 C18.7101563,3.30390625 18.6625,3.1125 18.6140625,2.92109375 C18.6140625,2.92109375 18.6140625,2.92109375 18.6140625,2.92109375 C18.6140625,2.92109375 20.1945313,2.92109375 20.1945313,2.92109375 C20.6257812,2.92109375 20.9609375,3.06484375 21.2484375,3.35234375 C21.5359375,3.63984375 21.6796875,3.975 21.6796875,4.40625 L21.6789063,4.40625 Z M15.2609375,14.703125 C15.5960937,14.703125 15.7875,14.559375 15.7875,14.2242187 C15.7875,13.8890625 15.5960937,13.7453125 15.2609375,13.7453125 C15.2609375,13.7453125 15.2609375,13.7453125 15.2609375,13.7453125 C15.2609375,13.7453125 12.81875,13.7453125 12.81875,13.7453125 C12.81875,13.7453125 12.81875,11.2546875 12.81875,11.2546875 C12.81875,10.9195312 12.675,10.7757812 12.3398437,10.7757812 C12.0046875,10.7757812 11.8609375,10.9195312 11.8609375,11.2546875 C11.8609375,11.2546875 11.8609375,11.2546875 11.8609375,11.2546875 C11.8609375,11.2546875 11.8609375,13.7453125 11.8609375,13.7453125 C11.8609375,13.7453125 9.41875,13.7453125 9.41875,13.7453125 C9.08359375,13.7453125 8.8921875,13.8890625 8.8921875,14.2242187 C8.8921875,14.559375 9.08359375,14.703125 9.41875,14.703125 C9.41875,14.703125 9.41875,14.703125 9.41875,14.703125 C9.41875,14.703125 11.8609375,14.703125 11.8609375,14.703125 C11.8609375,14.703125 11.8609375,17.1453125 11.8609375,17.1453125 C11.8609375,17.4804687 12.0046875,17.671875 12.3398437,17.671875 C12.675,17.671875 12.81875,17.4804687 12.81875,17.1453125 C12.81875,17.1453125 12.81875,17.1453125 12.81875,17.1453125 C12.81875,17.1453125 12.81875,14.703125 12.81875,14.703125 C12.81875,14.703125 15.2609375,14.703125 15.2609375,14.703125 Z"/>
  <title>Clipboard Plus Solid</title>
</svg>