<svg xmlns="http://www.w3.org/2000/svg" viewBox="0 0 25 25" id="clock">
  <path d="M20.9296875,3.5921875 C18.5351562,1.19765625 15.6617188,0 12.2609375,0 C8.86015625,0 5.98671875,1.19765625 3.5921875,3.5921875 C1.19765625,5.98671875 0,8.86015625 0,12.2609375 C0,15.6617188 1.19765625,18.5351563 3.5921875,20.9296875 C5.98671875,23.3242188 8.86015625,24.521875 12.2609375,24.521875 C15.6617188,24.521875 18.5351563,23.3242188 20.9296875,20.9296875 C23.3242188,18.5351563 24.521875,15.6617188 24.521875,12.2609375 C24.521875,8.86015625 23.3242188,5.98671875 20.9296875,3.5921875 Z M12.2617188,23.515625 C12.2617188,23.515625 12.2617188,23.515625 12.2617188,23.515625 C9.1484375,23.515625 6.46640625,22.4140625 4.26328125,20.2109375 C2.06015625,18.0078125 0.95859375,15.3734375 0.95859375,12.2609375 C0.95859375,9.14765625 2.06015625,6.5140625 4.26328125,4.2625 C6.46640625,2.059375 9.1484375,0.9578125 12.2617188,0.9578125 C15.375,0.9578125 18.0570313,2.059375 20.2601563,4.2625 C22.4632813,6.51328125 23.5648438,9.14765625 23.5648438,12.2609375 C23.5648438,12.2609375 23.5648438,12.2609375 23.5648438,12.2609375 C23.5171875,15.3742188 22.415625,18.05625 20.2125,20.2109375 C18.009375,22.4140625 15.375,23.515625 12.2625,23.515625 L12.2617188,23.515625 Z M12.740625,12.06875 C12.740625,12.06875 16.5242187,15.8523437 16.5242187,15.8523437 C16.6203125,15.9 16.6679688,16.04375 16.6679688,16.1875 C16.6679688,16.1875 16.6679688,16.1875 16.6679688,16.1875 C16.6679688,16.5226562 16.5242187,16.6664062 16.1890625,16.6664062 C16.1890625,16.6664062 16.1890625,16.6664062 16.1890625,16.6664062 C16.0453125,16.6664062 15.95,16.61875 15.8539062,16.5226562 C15.8539062,16.5226562 15.8539062,16.5226562 15.8539062,16.5226562 C15.8539062,16.5226562 11.9265625,12.5953125 11.9265625,12.5953125 C11.8304687,12.4992187 11.7828125,12.4039062 11.7828125,12.2601562 C11.7828125,12.2601562 11.7828125,12.2601562 11.7828125,12.2601562 C11.7828125,12.2601562 11.7828125,6.36953125 11.7828125,6.36953125 C11.7828125,6.034375 11.9265625,5.890625 12.2617187,5.890625 C12.596875,5.890625 12.740625,6.034375 12.740625,6.36953125 C12.740625,6.36953125 12.740625,6.36953125 12.740625,6.36953125 C12.740625,6.36953125 12.740625,12.06875 12.740625,12.06875 Z"/>
  <title>Clock</title>
</svg>