<svg xmlns="http://www.w3.org/2000/svg" viewBox="0 0 25 25" id="clock-solid">
  <path d="M20.9296875,3.5921875 C18.5351562,1.19765625 15.6617188,0 12.2609375,0 C8.86015625,0 5.98671875,1.19765625 3.5921875,3.5921875 C1.19765625,5.98671875 0,8.86015625 0,12.2609375 C0,15.6617188 1.19765625,18.5351563 3.5921875,20.9296875 C5.98671875,23.3242188 8.86015625,24.521875 12.2609375,24.521875 C15.6617188,24.521875 18.5351563,23.3242188 20.9296875,20.9296875 C23.3242188,18.5351563 24.521875,15.6617188 24.521875,12.2609375 C24.521875,8.86015625 23.3242188,5.98671875 20.9296875,3.5921875 Z M16.6671875,16.1875 C16.6671875,16.33125 16.6195313,16.4265625 16.5234375,16.5226562 C16.4273437,16.61875 16.3320312,16.6664062 16.1882813,16.6664062 C16.0445312,16.6664062 15.9492188,16.61875 15.853125,16.5226562 C15.853125,16.5226562 15.853125,16.5226562 15.853125,16.5226562 C15.853125,16.5226562 11.9257812,12.5953125 11.9257812,12.5953125 C11.8296875,12.4992187 11.7820312,12.4039062 11.7820312,12.2601562 C11.7820312,12.2601562 11.7820312,12.2601562 11.7820312,12.2601562 C11.7820312,12.2601562 11.7820312,6.36953125 11.7820312,6.36953125 C11.7820312,6.034375 11.9257812,5.890625 12.2609375,5.890625 C12.5960937,5.890625 12.7398437,6.034375 12.7398437,6.36953125 C12.7398437,6.36953125 12.7398437,6.36953125 12.7398437,6.36953125 C12.7398437,6.36953125 12.7398437,12.06875 12.7398437,12.06875 C12.7398437,12.06875 16.5234375,15.8523437 16.5234375,15.8523437 C16.6195313,15.9 16.6671875,16.04375 16.6671875,16.1875 C16.6671875,16.1875 16.6671875,16.1875 16.6671875,16.1875 Z"/>
  <title>Clock Solid</title>
</svg>