<svg xmlns="http://www.w3.org/2000/svg" viewBox="0 0 25 25" id="cloud">
  <path d="M17.709375,7.92109375 C17.709375,7.92109375 17.709375,7.92109375 17.709375,7.92109375 C16.8953125,7.92109375 16.1765625,8.06484375 15.50625,8.35234375 C15.50625,8.35234375 15.50625,8.35234375 15.50625,8.35234375 C14.1171875,6.1015625 12.0578125,5 9.37578125,5 C9.37578125,5 9.37578125,5 9.37578125,5 C7.31640625,5 5.5921875,5.71875 4.15546875,7.10703125 C2.71875,8.54375 2,10.2679688 2,12.3273438 C2,12.3273438 2,12.3273438 2,12.3273438 C2,14.290625 2.6703125,15.9671875 4.01171875,17.35625 C5.3046875,18.7453125 6.9328125,19.559375 8.84921875,19.703125 C8.84921875,19.703125 8.84921875,19.703125 8.84921875,19.703125 C8.84921875,19.703125 17.709375,19.703125 17.709375,19.703125 C19.3375,19.703125 20.7265625,19.128125 21.8757812,17.9789063 C23.025,16.8296875 23.6,15.440625 23.6,13.8125 C23.6,12.184375 23.025,10.7953125 21.8757812,9.64609375 C20.7265625,8.496875 19.3375,7.921875 17.709375,7.921875 L17.709375,7.92109375 Z M17.709375,18.696875 C17.709375,18.696875 17.709375,18.696875 17.709375,18.696875 C17.709375,18.696875 8.9453125,18.696875 8.9453125,18.696875 C7.26875,18.553125 5.88046875,17.8828125 4.73046875,16.6851562 C3.58046875,15.4875 3.00625,14.003125 3.00625,12.3265625 C3.00625,12.3265625 3.00625,12.3265625 3.00625,12.3265625 C3.00625,10.5546875 3.62890625,9.06953125 4.87421875,7.825 C6.11953125,6.58046875 7.60390625,5.95703125 9.37578125,5.95703125 C9.37578125,5.95703125 9.37578125,5.95703125 9.37578125,5.95703125 C11.7226562,5.95703125 13.6382812,7.1546875 15.1710937,9.54921875 C15.1710937,9.54921875 15.1710937,9.54921875 15.1710937,9.54921875 C15.8898437,9.16640625 16.7515625,8.9265625 17.709375,8.87890625 C17.709375,8.87890625 17.709375,8.87890625 17.709375,8.87890625 C19.0984375,8.87890625 20.2476562,9.3578125 21.2054687,10.315625 C22.1632812,11.2734375 22.6421875,12.4226563 22.6421875,13.8117188 C22.6421875,13.8117188 22.6421875,13.8117188 22.6421875,13.8117188 C22.6421875,15.1523438 22.1632812,16.3023437 21.2054687,17.2601563 C20.2476562,18.2179688 19.0984375,18.696875 17.709375,18.696875 Z"/>
  <title>Cloud</title>
</svg>