<svg xmlns="http://www.w3.org/2000/svg" viewBox="0 0 25 25" id="cloudy-solid">
  <path d="M15.7039062,3.484375 C15.7039062,3.484375 15.7039062,3.484375 15.7039062,3.484375 C15.7039062,3.484375 15.7039062,2.47890625 15.7039062,2.47890625 C15.7039062,2.14375 15.8476562,2 16.1828125,2 C16.1828125,2 16.1828125,2 16.1828125,2 C16.5179687,2 16.709375,2.14375 16.709375,2.47890625 C16.709375,2.47890625 16.709375,2.47890625 16.709375,2.47890625 C16.709375,2.47890625 16.709375,3.484375 16.709375,3.484375 C16.709375,3.81953125 16.5179687,3.96328125 16.1828125,3.96328125 C16.1828125,3.96328125 16.1828125,3.96328125 16.1828125,3.96328125 C15.8476562,3.96328125 15.7039062,3.81953125 15.7039062,3.484375 Z M24.0375,9.8546875 C24.0375,9.8546875 24.0375,9.8546875 24.0375,9.8546875 C24.0375,9.8546875 23.0796875,9.8546875 23.0796875,9.8546875 C22.7445313,9.8546875 22.6007813,9.9984375 22.6007813,10.3335937 C22.6007813,10.66875 22.7445313,10.8125 23.0796875,10.8125 C23.0796875,10.8125 23.0796875,10.8125 23.0796875,10.8125 C23.0796875,10.8125 24.0375,10.8125 24.0375,10.8125 C24.3726562,10.8125 24.5640625,10.66875 24.5640625,10.3335937 C24.5640625,9.9984375 24.3726562,9.8546875 24.0375,9.8546875 Z M9.95703125,4.778125 C9.95703125,4.778125 10.6757812,5.496875 10.6757812,5.496875 C10.771875,5.59296875 10.8671875,5.640625 11.0109375,5.640625 C11.0109375,5.640625 11.0109375,5.640625 11.0109375,5.640625 C11.3460938,5.640625 11.4898438,5.496875 11.4898438,5.16171875 C11.4898438,5.16171875 11.4898438,5.16171875 11.4898438,5.16171875 C11.4898438,5.01796875 11.4421875,4.87421875 11.3460938,4.77890625 C11.3460938,4.77890625 11.3460938,4.77890625 11.3460938,4.77890625 C11.3460938,4.77890625 10.6757812,4.10859375 10.6757812,4.10859375 C10.5796875,4.0125 10.484375,3.96484375 10.340625,3.96484375 C10.340625,3.96484375 10.340625,3.96484375 10.340625,3.96484375 C10.0054688,3.96484375 9.8140625,4.10859375 9.8140625,4.44375 C9.8140625,4.44375 9.8140625,4.44375 9.8140625,4.44375 C9.8140625,4.63515625 9.86171875,4.73125 9.9578125,4.77890625 C9.9578125,4.77890625 9.9578125,4.77890625 9.9578125,4.77890625 L9.95703125,4.778125 Z M21.7382812,5.49609375 C21.7382812,5.49609375 21.7382812,5.49609375 21.7382812,5.49609375 C21.7382812,5.49609375 22.4570312,4.77734375 22.4570312,4.77734375 C22.553125,4.68125 22.6007813,4.5859375 22.6007813,4.4421875 C22.6007813,4.4421875 22.6007813,4.4421875 22.6007813,4.4421875 C22.6007813,4.10703125 22.409375,3.96328125 22.0742188,3.96328125 C22.0742188,3.96328125 22.0742188,3.96328125 22.0742188,3.96328125 C21.9304687,3.96328125 21.8351563,4.0109375 21.7390625,4.10703125 C21.7390625,4.10703125 21.7390625,4.10703125 21.7390625,4.10703125 C21.7390625,4.10703125 21.06875,4.77734375 21.06875,4.77734375 C20.9726562,4.8734375 20.925,5.01640625 20.925,5.16015625 C20.925,5.16015625 20.925,5.16015625 20.925,5.16015625 C20.925,5.4953125 21.06875,5.6390625 21.4039063,5.6390625 C21.4039063,5.6390625 21.4039063,5.6390625 21.4039063,5.6390625 C21.5476563,5.6390625 21.6429688,5.59140625 21.7390625,5.4953125 L21.7382812,5.49609375 Z M14.8898438,11.0515625 C14.8898438,11.0515625 14.8898438,11.0515625 14.8898438,11.0515625 C15.5125,10.9078125 16.1351563,10.8125 16.709375,10.8125 C16.709375,10.8125 16.709375,10.8125 16.709375,10.8125 C18.3859375,10.8125 19.8703125,11.3875 21.1632813,12.4890625 C21.1632813,12.4890625 21.1632813,12.4890625 21.1632813,12.4890625 C21.4507813,11.8664062 21.5945313,11.1484375 21.5945313,10.3335937 C21.5945313,10.3335937 21.5945313,10.3335937 21.5945313,10.3335937 C21.5945313,8.84921875 21.0679688,7.55546875 20.0140625,6.50234375 C18.9601563,5.44921875 17.7148438,4.921875 16.2304688,4.921875 C16.2304688,4.921875 16.2304688,4.921875 16.2304688,4.921875 C15.1289063,4.921875 14.075,5.25703125 13.165625,5.8796875 C12.25625,6.50234375 11.5851563,7.31640625 11.2023438,8.321875 C11.2023438,8.321875 11.2023438,8.321875 11.2023438,8.321875 C12.6867188,8.94453125 13.9320313,9.8546875 14.8898438,11.0515625 L14.8898438,11.0515625 Z M16.709375,11.8179688 C16.709375,11.8179688 16.709375,11.8179688 16.709375,11.8179688 C16.0867187,11.8179688 15.5601563,11.865625 15.1289063,12.009375 C15.1289063,12.009375 15.1289063,12.009375 15.1289063,12.009375 C15.1289063,12.009375 14.5539063,12.2007812 14.5539063,12.2007812 C14.5539063,12.2007812 14.1226563,11.6742187 14.1226563,11.6742187 C12.6382813,9.80625 10.7226562,8.8484375 8.37578125,8.8484375 C8.37578125,8.8484375 8.37578125,8.8484375 8.37578125,8.8484375 C6.31640625,8.8484375 4.5921875,9.5671875 3.15546875,11.0039062 C1.71875,12.440625 1,14.1648437 1,16.2242187 C1,16.2242187 1,16.2242187 1,16.2242187 C1,17.9960938 1.575,19.5765625 2.72421875,20.9179688 C3.8734375,22.3070312 5.31015625,23.1210938 7.034375,23.45625 C7.034375,23.45625 7.034375,23.45625 7.034375,23.45625 C7.034375,23.45625 7.753125,23.6 7.753125,23.6 C7.753125,23.6 16.709375,23.6 16.709375,23.6 C18.3375,23.6 19.7265625,23.025 20.8757812,21.8757812 C22.025,20.7265625 22.6,19.3375 22.6,17.709375 C22.6,16.08125 22.025,14.6921875 20.8757812,13.5429687 C19.7265625,12.39375 18.3375,11.81875 16.709375,11.81875 L16.709375,11.8179688 Z"/>
  <title>Cloudy Solid</title>
</svg>