<svg xmlns="http://www.w3.org/2000/svg" viewBox="0 0 25 25" id="cloud-issue">
  <path d="M23.6,11.8125 C23.6,11.8125 23.6,11.8125 23.6,11.8125 C23.6,13.153125 23.2171875,14.3507812 22.4507813,15.35625 C21.6367188,16.4101562 20.63125,17.128125 19.3859375,17.4632813 C19.3859375,17.4632813 19.3859375,17.4632813 19.3859375,17.4632813 C19.3382813,17.5109375 19.2421875,17.5109375 19.1945313,17.5109375 C19.1945313,17.5109375 19.1945313,17.5109375 19.1945313,17.5109375 C18.859375,17.5109375 18.715625,17.3671875 18.715625,17.0320313 C18.715625,17.0320313 18.715625,17.0320313 18.715625,17.0320313 C18.715625,16.7929687 18.8117188,16.6007813 19.0507813,16.553125 C19.0507813,16.553125 19.0507813,16.553125 19.0507813,16.553125 C20.1046875,16.2179688 20.9664062,15.6429688 21.6367188,14.78125 C22.3070313,13.9195312 22.6421875,12.9132812 22.6421875,11.8117188 C22.6421875,11.8117188 22.6421875,11.8117188 22.6421875,11.8117188 C22.6421875,10.4710938 22.1632813,9.32109375 21.2054688,8.36328125 C20.2476562,7.40546875 19.0984375,6.9265625 17.709375,6.9265625 C17.709375,6.9265625 17.709375,6.9265625 17.709375,6.9265625 C16.8953125,6.9265625 16.1765625,7.11796875 15.5539063,7.453125 C15.5539063,7.453125 15.5539063,7.453125 15.5539063,7.453125 C15.5539063,7.453125 15.3625,7.453125 15.3625,7.453125 C15.3625,7.453125 15.0273438,7.35703125 14.93125,7.2140625 C14.93125,7.2140625 14.93125,7.2140625 14.93125,7.2140625 C14.35625,6.20859375 13.590625,5.4421875 12.6320312,4.81953125 C11.6265625,4.24453125 10.5726562,3.9578125 9.375,3.9578125 C9.375,3.9578125 9.375,3.9578125 9.375,3.9578125 C7.603125,3.9578125 6.11796875,4.58046875 4.8734375,5.82578125 C3.628125,7.11875 3.00546875,8.60390625 3.00546875,10.3757813 C3.00546875,10.3757813 3.00546875,10.3757813 3.00546875,10.3757813 C3.00546875,11.7648438 3.43671875,13.0578125 4.2984375,14.159375 C5.1125,15.2609375 6.2140625,16.0273438 7.50703125,16.4585938 C7.50703125,16.4585938 7.50703125,16.4585938 7.50703125,16.4585938 C7.79453125,16.50625 7.93828125,16.6976563 7.93828125,16.9375 C7.93828125,16.9375 7.93828125,16.9375 7.93828125,16.9375 C7.93828125,17.2726563 7.746875,17.4164063 7.41171875,17.4164063 C7.41171875,17.4164063 7.41171875,17.4164063 7.41171875,17.4164063 C7.41171875,17.4164063 7.26796875,17.4164063 7.26796875,17.4164063 C5.6875,16.9375 4.4421875,16.0273438 3.484375,14.734375 C2.47890625,13.4414063 2,12.0046875 2,10.328125 C2,10.328125 2,10.328125 2,10.328125 C2,8.31640625 2.71875,6.5921875 4.15546875,5.15546875 C5.5921875,3.71875 7.31640625,3 9.37578125,3 C9.37578125,3 9.37578125,3 9.37578125,3 C12.0101563,3 14.0695313,4.1015625 15.5539063,6.3046875 C15.5539063,6.3046875 15.5539063,6.3046875 15.5539063,6.3046875 C16.3679688,6.065625 17.0867187,5.921875 17.709375,5.921875 C17.709375,5.921875 17.709375,5.921875 17.709375,5.921875 C19.3375,5.921875 20.7265625,6.496875 21.8757812,7.64609375 C23.025,8.7953125 23.6,10.184375 23.6,11.8125 L23.6,11.8125 Z M16.703125,16.696875 C16.703125,16.696875 16.703125,16.696875 16.703125,16.696875 C16.7507812,16.7445312 16.7507812,16.7929687 16.7507812,16.8882812 C16.7507812,16.8882812 16.7507812,16.8882812 16.7507812,16.8882812 C16.7507812,17.0796875 16.6546875,17.2710937 16.5117187,17.5109375 C16.5117187,17.5109375 16.5117187,17.5109375 16.5117187,17.5109375 C16.5117187,17.5109375 12.5367187,22.2523437 12.5367187,22.2523437 C12.3453125,22.4914062 12.1054687,22.5875 11.7703125,22.5875 C11.7703125,22.5875 11.7703125,22.5875 11.7703125,22.5875 C11.53125,22.5875 11.2914062,22.4914062 11.1,22.3 C10.9085937,22.1085937 10.8125,21.86875 10.8125,21.6296875 C10.8125,21.6296875 10.8125,21.6296875 10.8125,21.6296875 C10.8125,21.6296875 10.8125,21.3421875 10.8125,21.3421875 C10.8125,21.3421875 11.6742187,18.3726562 11.6742187,18.3726562 C11.6742187,18.3726562 10.4289062,17.75 10.4289062,17.75 C10.0460937,17.60625 9.85390625,17.31875 9.85390625,16.8882812 C9.85390625,16.8882812 9.85390625,16.8882812 9.85390625,16.8882812 C9.85390625,16.696875 9.95,16.5054687 10.0929687,16.265625 C10.0929687,16.265625 10.0929687,16.265625 10.0929687,16.265625 C10.3320312,15.978125 11.0507812,15.0679687 12.2960937,13.5359375 C13.49375,12.003125 14.1640625,11.1890625 14.259375,11.1414062 C14.259375,11.1414062 14.259375,11.1414062 14.259375,11.1414062 C14.3554687,11.0453125 14.4984375,10.9976562 14.690625,10.9976562 C14.690625,10.9976562 14.690625,10.9976562 14.690625,10.9976562 C14.690625,10.9976562 14.7867187,10.9976562 14.7867187,10.9976562 C15.0257812,10.9976562 15.265625,11.09375 15.4570312,11.2851562 C15.6484375,11.4765625 15.7445312,11.7164062 15.7445312,11.9554687 C15.7445312,11.9554687 15.7445312,11.9554687 15.7445312,11.9554687 C15.7445312,12.0515625 15.6007812,12.6257812 15.3617187,13.6320312 C15.1226562,14.6859375 14.9789062,15.2601562 14.9304687,15.35625 C14.9304687,15.35625 14.9304687,15.35625 14.9304687,15.35625 C14.9304687,15.35625 16.1757812,16.0265625 16.1757812,16.0265625 C16.4632812,16.1226562 16.6546875,16.3617187 16.7023437,16.696875 L16.703125,16.696875 Z M11.7703125,21.6304687 C11.7703125,21.6304687 15.7453125,16.8890625 15.7453125,16.8890625 C15.7453125,16.8890625 13.7820312,15.8835937 13.7820312,15.8835937 C13.7820312,15.8835937 14.7875,11.95625 14.7875,11.95625 C14.7875,11.95625 10.8601562,16.8890625 10.8601562,16.8890625 C10.8601562,16.8890625 12.8234375,17.846875 12.8234375,17.846875 C12.8234375,17.846875 11.7695312,21.6304687 11.7695312,21.6304687 L11.7703125,21.6304687 Z"/>
  <title>Cloud Issue</title>
</svg>