<svg xmlns="http://www.w3.org/2000/svg" viewBox="0 0 25 25" id="cloud-issue-solid">
  <path d="M23.6,11.8125 C23.6,11.8125 23.6,11.8125 23.6,11.8125 C23.6,13.153125 23.2171875,14.3507813 22.4507813,15.35625 C21.6367188,16.4101563 20.63125,17.128125 19.3859375,17.4632813 C19.3859375,17.4632813 19.3859375,17.4632813 19.3859375,17.4632813 C19.3382813,17.5109375 19.2421875,17.5109375 19.1945313,17.5109375 C19.1945313,17.5109375 19.1945313,17.5109375 19.1945313,17.5109375 C18.859375,17.5109375 18.715625,17.3671875 18.715625,17.0320313 C18.715625,17.0320313 18.715625,17.0320313 18.715625,17.0320313 C18.715625,16.7929688 18.8117188,16.6007813 19.0507813,16.553125 C19.0507813,16.553125 19.0507813,16.553125 19.0507813,16.553125 C20.1046875,16.2179688 20.9664062,15.6429688 21.6367188,14.78125 C22.3070313,13.9195313 22.6421875,12.9132813 22.6421875,11.8117188 C22.6421875,11.8117188 22.6421875,11.8117188 22.6421875,11.8117188 C22.6421875,10.4710938 22.1632813,9.32109375 21.2054688,8.36328125 C20.2476562,7.40546875 19.0984375,6.9265625 17.709375,6.9265625 C17.709375,6.9265625 17.709375,6.9265625 17.709375,6.9265625 C16.8953125,6.9265625 16.1765625,7.11796875 15.5539063,7.453125 C15.5539063,7.453125 15.5539063,7.453125 15.5539063,7.453125 C15.5539063,7.453125 15.3625,7.453125 15.3625,7.453125 C15.3625,7.453125 15.0273438,7.35703125 14.93125,7.2140625 C14.93125,7.2140625 14.93125,7.2140625 14.93125,7.2140625 C14.35625,6.20859375 13.590625,5.4421875 12.6320312,4.81953125 C11.6265625,4.24453125 10.5726562,3.9578125 9.375,3.9578125 C9.375,3.9578125 9.375,3.9578125 9.375,3.9578125 C7.603125,3.9578125 6.11796875,4.58046875 4.8734375,5.82578125 C3.628125,7.11875 3.00546875,8.60390625 3.00546875,10.3757813 C3.00546875,10.3757813 3.00546875,10.3757813 3.00546875,10.3757813 C3.00546875,11.7648438 3.43671875,13.0578125 4.2984375,14.159375 C5.1125,15.2609375 6.2140625,16.0273438 7.50703125,16.4585938 C7.50703125,16.4585938 7.50703125,16.4585938 7.50703125,16.4585938 C7.79453125,16.50625 7.93828125,16.6976563 7.93828125,16.9375 C7.93828125,16.9375 7.93828125,16.9375 7.93828125,16.9375 C7.93828125,17.2726563 7.746875,17.4164063 7.41171875,17.4164063 C7.41171875,17.4164063 7.41171875,17.4164063 7.41171875,17.4164063 C7.41171875,17.4164063 7.26796875,17.4164063 7.26796875,17.4164063 C5.6875,16.9375 4.4421875,16.0273438 3.484375,14.734375 C2.47890625,13.4414063 2,12.0046875 2,10.328125 C2,10.328125 2,10.328125 2,10.328125 C2,8.31640625 2.71875,6.5921875 4.15546875,5.15546875 C5.5921875,3.71875 7.31640625,3 9.37578125,3 C9.37578125,3 9.37578125,3 9.37578125,3 C12.0101563,3 14.0695313,4.1015625 15.5539063,6.3046875 C15.5539063,6.3046875 15.5539063,6.3046875 15.5539063,6.3046875 C16.3679688,6.065625 17.0867187,5.921875 17.709375,5.921875 C17.709375,5.921875 17.709375,5.921875 17.709375,5.921875 C19.3375,5.921875 20.7265625,6.496875 21.8757812,7.64609375 C23.025,8.7953125 23.6,10.184375 23.6,11.8125 L23.6,11.8125 Z M13.7820312,15.8828125 C13.7820312,15.8828125 14.7875,11.9554687 14.7875,11.9554687 C14.7875,11.9554687 10.8601562,16.8882812 10.8601562,16.8882812 C10.8601562,16.8882812 12.8234375,17.8460937 12.8234375,17.8460937 C12.8234375,17.8460937 11.7695312,21.6296875 11.7695312,21.6296875 C11.7695312,21.6296875 15.7445312,16.8882812 15.7445312,16.8882812 C15.7445312,16.8882812 13.78125,15.8828125 13.78125,15.8828125 L13.7820312,15.8828125 Z"/>
  <title>Cloud Issue Solid</title>
</svg>