<svg xmlns="http://www.w3.org/2000/svg" viewBox="0 0 25 25" id="cloudy">
  <path d="M20.3484375,12.1054688 C20.3484375,12.1054688 20.3484375,12.1054688 20.3484375,12.1054688 C20.5398438,11.5789062 20.6359375,11.0039062 20.6359375,10.3335938 C20.6359375,10.3335938 20.6359375,10.3335938 20.6359375,10.3335938 C20.6359375,8.84921875 20.109375,7.55546875 19.0554687,6.50234375 C18.0015625,5.496875 16.7085937,4.96953125 15.2242187,4.96953125 C15.2242187,4.96953125 15.2242187,4.96953125 15.2242187,4.96953125 C14.1703125,4.96953125 13.2125,5.25703125 12.3507813,5.83125 C11.440625,6.40625 10.7703125,7.171875 10.3390625,8.13046875 C10.3390625,8.13046875 10.3390625,8.13046875 10.3390625,8.13046875 C10.3390625,8.13046875 10.3390625,8.178125 10.3390625,8.178125 C9.71640625,7.98671875 9.04609375,7.890625 8.37578125,7.890625 C8.37578125,7.890625 8.37578125,7.890625 8.37578125,7.890625 C6.31640625,7.890625 4.5921875,8.609375 3.15546875,10.0460938 C1.71875,11.4828125 1,13.2070313 1,15.2664063 C1,15.2664063 1,15.2664063 1,15.2664063 C1,17.1820313 1.6703125,18.8585938 3.01171875,20.246875 C4.3046875,21.6835938 5.9328125,22.45 7.84921875,22.59375 C7.84921875,22.59375 7.84921875,22.59375 7.84921875,22.59375 C7.84921875,22.59375 16.709375,22.6414063 16.709375,22.6414063 C18.3375,22.6414063 19.7265625,22.0664062 20.8757812,20.9171875 C22.025,19.7679688 22.6,18.3789062 22.6,16.7507813 C22.6,16.7507813 22.6,16.7507813 22.6,16.7507813 C22.6,14.8351563 21.8335938,13.3023437 20.3492188,12.1054688 L20.3484375,12.1054688 Z M15.2242188,5.92734375 C15.2242188,5.92734375 15.2242188,5.92734375 15.2242188,5.92734375 C16.421875,5.92734375 17.475,6.35859375 18.3851563,7.2203125 C19.246875,8.13046875 19.678125,9.18359375 19.678125,10.38125 C19.678125,10.38125 19.678125,10.38125 19.678125,10.38125 C19.6304688,10.95625 19.534375,11.3390625 19.4867188,11.5789062 C19.4867188,11.5789062 19.4867188,11.5789062 19.4867188,11.5789062 C18.6726562,11.1 17.7148438,10.8601562 16.7085937,10.8601562 C16.7085937,10.8601562 16.7085937,10.8601562 16.7085937,10.8601562 C15.8945312,10.8601562 15.1757812,11.0039062 14.5054687,11.2914062 C14.5054687,11.2914062 14.5054687,11.2914062 14.5054687,11.2914062 C13.7390625,9.9984375 12.6859375,9.08828125 11.296875,8.51328125 C11.296875,8.51328125 11.296875,8.51328125 11.296875,8.51328125 C11.6320312,7.746875 12.1585938,7.12421875 12.8773437,6.6453125 C13.5960937,6.16640625 14.3617187,5.9265625 15.2242188,5.9265625 L15.2242188,5.92734375 Z M16.7085938,21.6359375 C16.7085938,21.6359375 16.7085938,21.6359375 16.7085938,21.6359375 C16.7085938,21.6359375 7.94453125,21.6359375 7.94453125,21.6359375 C6.26796875,21.4921875 4.8796875,20.821875 3.7296875,19.6242187 C2.5796875,18.4265625 2.00546875,16.9421875 2.00546875,15.265625 C2.00546875,15.265625 2.00546875,15.265625 2.00546875,15.265625 C2.00546875,13.49375 2.628125,12.0085937 3.8734375,10.7640625 C5.11875,9.51953125 6.603125,8.89609375 8.375,8.89609375 C8.375,8.89609375 8.375,8.89609375 8.375,8.89609375 C10.721875,8.89609375 12.6375,10.09375 14.1703125,12.4882812 C14.1703125,12.4882812 14.1703125,12.4882812 14.1703125,12.4882812 C14.8890625,12.1054687 15.7507813,11.865625 16.7085938,11.8179687 C16.7085938,11.8179687 16.7085938,11.8179687 16.7085938,11.8179687 C18.0976563,11.8179687 19.246875,12.296875 20.2046875,13.2546875 C21.1625,14.2125 21.6414063,15.3617187 21.6414063,16.7507812 C21.6414063,16.7507812 21.6414063,16.7507812 21.6414063,16.7507812 C21.6414063,18.0914062 21.1625,19.2414062 20.2046875,20.1992188 C19.246875,21.1570312 18.0976563,21.6359375 16.7085938,21.6359375 Z M14.7453125,3.484375 C14.7453125,3.484375 14.7453125,3.484375 14.7453125,3.484375 C14.7453125,3.484375 14.7453125,2.5265625 14.7453125,2.5265625 C14.7453125,2.19140625 14.8890625,2 15.2242188,2 C15.2242188,2 15.2242188,2 15.2242188,2 C15.559375,2 15.7507812,2.19140625 15.7507812,2.5265625 C15.7507812,2.5265625 15.7507812,2.5265625 15.7507812,2.5265625 C15.7507812,2.5265625 15.7507812,3.484375 15.7507812,3.484375 C15.7507812,3.81953125 15.559375,3.96328125 15.2242188,3.96328125 C15.2242188,3.96328125 15.2242188,3.96328125 15.2242188,3.96328125 C14.8890625,3.96328125 14.7453125,3.81953125 14.7453125,3.484375 L14.7453125,3.484375 Z M23.6054687,10.38125 C23.6054687,10.38125 23.6054687,10.38125 23.6054687,10.38125 C23.6054687,10.7164063 23.4140625,10.8601562 23.0789062,10.8601562 C23.0789062,10.8601562 23.0789062,10.8601562 23.0789062,10.8601562 C23.0789062,10.8601562 22.1210937,10.8601562 22.1210937,10.8601562 C21.7859375,10.8601562 21.6421875,10.7164063 21.6421875,10.38125 C21.6421875,10.38125 21.6421875,10.38125 21.6421875,10.38125 C21.6421875,10.0460938 21.7859375,9.8546875 22.1210937,9.8546875 C22.1210937,9.8546875 22.1210937,9.8546875 22.1210937,9.8546875 C22.1210937,9.8546875 23.0789062,9.8546875 23.0789062,9.8546875 C23.4140625,9.8546875 23.6054687,10.0460938 23.6054687,10.38125 Z M9.71640625,5.49609375 C9.71640625,5.49609375 8.99765625,4.82578125 8.99765625,4.82578125 C8.9015625,4.7296875 8.85390625,4.634375 8.85390625,4.490625 C8.85390625,4.490625 8.85390625,4.490625 8.85390625,4.490625 C8.85390625,4.15546875 9.0453125,3.9640625 9.38046875,3.9640625 C9.38046875,3.9640625 9.38046875,3.9640625 9.38046875,3.9640625 C9.428125,3.9640625 9.52421875,4.01171875 9.715625,4.1078125 C9.715625,4.1078125 9.715625,4.1078125 9.715625,4.1078125 C9.715625,4.1078125 10.3859375,4.8265625 10.3859375,4.8265625 C10.4820313,4.92265625 10.5296875,5.01796875 10.5296875,5.16171875 C10.5296875,5.16171875 10.5296875,5.16171875 10.5296875,5.16171875 C10.5296875,5.496875 10.3859375,5.640625 10.0507813,5.640625 C10.0507813,5.640625 10.0507813,5.640625 10.0507813,5.640625 C9.90703125,5.640625 9.81171875,5.59296875 9.715625,5.496875 C9.715625,5.496875 9.715625,5.496875 9.715625,5.496875 L9.71640625,5.49609375 Z M20.109375,5.49609375 C20.109375,5.49609375 20.109375,5.49609375 20.109375,5.49609375 C20.0132812,5.4484375 19.965625,5.3046875 19.965625,5.1609375 C19.965625,5.1609375 19.965625,5.1609375 19.965625,5.1609375 C19.965625,5.0171875 20.0132812,4.921875 20.109375,4.82578125 C20.109375,4.82578125 20.109375,4.82578125 20.109375,4.82578125 C20.109375,4.82578125 20.7796875,4.10703125 20.7796875,4.10703125 C20.9710938,4.0109375 21.0671875,3.96328125 21.1148437,3.96328125 C21.1148437,3.96328125 21.1148437,3.96328125 21.1148437,3.96328125 C21.45,3.96328125 21.6414062,4.1546875 21.6414062,4.48984375 C21.6414062,4.48984375 21.6414062,4.48984375 21.6414062,4.48984375 C21.6414062,4.5375 21.59375,4.63359375 21.4976562,4.825 C21.4976562,4.825 21.4976562,4.825 21.4976562,4.825 C21.4976562,4.825 20.7789062,5.4953125 20.7789062,5.4953125 C20.6828125,5.59140625 20.5875,5.6390625 20.44375,5.6390625 C20.44375,5.6390625 20.44375,5.6390625 20.44375,5.6390625 C20.2523437,5.6390625 20.15625,5.59140625 20.1085938,5.4953125 L20.109375,5.49609375 Z"/>
  <title>Cloudy</title>
</svg>