<svg xmlns="http://www.w3.org/2000/svg" viewBox="0 0 25 25" id="cloud-up">
  <path d="M16.6648438,15.2242187 C16.6648438,15.3679687 16.6171875,15.4632812 16.5210938,15.559375 C16.425,15.6554687 16.3296875,15.703125 16.1859375,15.703125 C16.0421875,15.703125 15.946875,15.6554687 15.8507813,15.559375 C15.8507813,15.559375 15.8507813,15.559375 15.8507813,15.559375 C15.8507813,15.559375 12.7375,12.4945312 12.7375,12.4945312 C12.7375,12.4945312 12.7375,24.0367187 12.7375,24.0367187 C12.7375,24.371875 12.59375,24.515625 12.2585938,24.515625 C11.9234375,24.515625 11.7796875,24.371875 11.7796875,24.0367187 C11.7796875,24.0367187 11.7796875,24.0367187 11.7796875,24.0367187 C11.7796875,24.0367187 11.7796875,12.4945312 11.7796875,12.4945312 C11.7796875,12.4945312 8.66640625,15.559375 8.66640625,15.559375 C8.5703125,15.6554687 8.475,15.703125 8.33125,15.703125 C8.33125,15.703125 8.33125,15.703125 8.33125,15.703125 C7.99609375,15.703125 7.85234375,15.559375 7.85234375,15.2242187 C7.85234375,15.2242187 7.85234375,15.2242187 7.85234375,15.2242187 C7.85234375,15.0804687 7.9,14.9851562 7.99609375,14.8890625 C7.99609375,14.8890625 7.99609375,14.8890625 7.99609375,14.8890625 C7.99609375,14.8890625 11.9234375,10.9617187 11.9234375,10.9617187 C12.0195313,10.865625 12.1148438,10.8179688 12.2585938,10.8179688 C12.4023438,10.8179688 12.4976563,10.865625 12.59375,10.9617187 C12.59375,10.9617187 12.59375,10.9617187 12.59375,10.9617187 C12.59375,10.9617187 16.5210938,14.8890625 16.5210938,14.8890625 C16.6171875,14.9851562 16.6648438,15.0804687 16.6648438,15.2242187 L16.6648438,15.2242187 Z M19.5867188,6.98671875 C19.5867188,6.98671875 19.5390625,6.9390625 19.5390625,6.9390625 C19.2039063,5.21484375 18.3898438,3.778125 17.096875,2.6765625 C15.75625,1.575 14.2234375,1 12.4515625,1 C12.4515625,1 12.4515625,1 12.4515625,1 C12.4515625,1 12.2601563,1 12.2601563,1 C12.2601563,1 12.06875,1 12.06875,1 C10.296875,1 8.7640625,1.575 7.47109375,2.6765625 C6.13046875,3.778125 5.315625,5.21484375 4.98046875,6.9390625 C4.98046875,6.9390625 4.98046875,6.9390625 4.98046875,6.9390625 C3.54375,7.178125 2.34609375,7.84921875 1.43671875,8.95078125 C0.47890625,10.0523437 0,11.3453125 0,12.7820312 C0,12.7820312 0,12.7820312 0,12.7820312 C0,14.4101562 0.575,15.7992187 1.72421875,16.9484375 C2.8734375,18.0976563 4.2625,18.6726562 5.890625,18.6726562 C5.890625,18.6726562 5.890625,18.6726562 5.890625,18.6726562 C5.890625,18.6726562 7.375,18.6726562 7.375,18.6726562 C7.71015625,18.6726562 7.85390625,18.48125 7.85390625,18.1460937 C7.85390625,18.1460937 7.85390625,18.1460937 7.85390625,18.1460937 C7.85390625,17.8109375 7.71015625,17.6671875 7.375,17.6671875 C7.375,17.6671875 7.375,17.6671875 7.375,17.6671875 C7.375,17.6671875 5.890625,17.6671875 5.890625,17.6671875 C4.5015625,17.6671875 3.35234375,17.1882812 2.39453125,16.2304688 C1.43671875,15.2726563 0.9578125,14.1234375 0.9578125,12.7820313 C0.9578125,12.7820313 0.9578125,12.7820313 0.9578125,12.7820313 C0.9578125,11.584375 1.340625,10.4828125 2.15546875,9.5734375 C2.9703125,8.6640625 3.92734375,8.13671875 5.0765625,7.9453125 C5.0765625,7.9453125 5.0765625,7.9453125 5.0765625,7.9453125 C5.0765625,7.9453125 5.84296875,7.8015625 5.84296875,7.8015625 C5.84296875,7.8015625 5.9390625,7.0828125 5.9390625,7.0828125 C6.2265625,5.5984375 6.94453125,4.40078125 8.09453125,3.3953125 C9.24375,2.4375 10.5851563,1.95859375 12.0695313,1.95859375 C12.0695313,1.95859375 12.0695313,1.95859375 12.0695313,1.95859375 C12.0695313,1.95859375 12.2609375,1.95859375 12.2609375,1.95859375 C12.2609375,1.95859375 12.4523438,1.95859375 12.4523438,1.95859375 C13.9367188,1.95859375 15.278125,2.4375 16.4273438,3.3953125 C17.5765625,4.40078125 18.2953125,5.5984375 18.5828125,7.0828125 C18.5828125,7.0828125 18.5828125,7.0828125 18.5828125,7.0828125 C18.5828125,7.0828125 18.6789063,7.8015625 18.6789063,7.8015625 C18.6789063,7.8015625 19.3976563,7.9453125 19.3976563,7.9453125 C20.5953125,8.13671875 21.553125,8.6640625 22.3671875,9.5734375 C23.18125,10.4828125 23.5648438,11.5851563 23.5648438,12.7820313 C23.5648438,12.7820313 23.5648438,12.7820313 23.5648438,12.7820313 C23.5648438,14.1226563 23.0859375,15.2726562 22.128125,16.2304688 C21.1703125,17.1882813 20.0210938,17.6671875 18.6320313,17.6671875 C18.6320313,17.6671875 18.6320313,17.6671875 18.6320313,17.6671875 C18.6320313,17.6671875 17.1476563,17.6671875 17.1476563,17.6671875 C16.8125,17.6671875 16.66875,17.8109375 16.66875,18.1460937 C16.66875,18.1460937 16.66875,18.1460937 16.66875,18.1460937 C16.66875,18.48125 16.8125,18.6726562 17.1476563,18.6726562 C17.1476563,18.6726562 17.1476563,18.6726562 17.1476563,18.6726562 C17.1476563,18.6726562 18.6320313,18.6726562 18.6320313,18.6726562 C20.2601563,18.6726562 21.6492188,18.0976562 22.7984375,16.9484375 C23.9476563,15.7992187 24.5226563,14.4101562 24.5226563,12.7820312 C24.5226563,12.7820312 24.5226563,12.7820312 24.5226563,12.7820312 C24.5226563,11.3453125 24.04375,10.0523437 23.1335938,8.95078125 C22.1757813,7.84921875 20.978125,7.2265625 19.5898438,6.9875 C19.5898438,6.9875 19.5898438,6.9875 19.5898438,6.9875 L19.5867188,6.98671875 Z"/>
  <title>Cloud Up</title>
</svg>