<svg xmlns="http://www.w3.org/2000/svg" viewBox="0 0 25 25" id="cloud-solid">
  <path d="M21.828125,9.646875 C22.9773437,10.7960938 23.5523437,12.1851563 23.5523437,13.8132813 C23.5523437,15.4414063 22.9773437,16.8304688 21.828125,17.9796875 C20.6789062,19.1289063 19.2898437,19.7039063 17.6617187,19.7039063 C17.6617187,19.7039063 17.6617187,19.7039063 17.6617187,19.7039063 C17.6617187,19.7039063 8.84921875,19.7039063 8.84921875,19.7039063 C6.93359375,19.5601563 5.30546875,18.7460938 4.01171875,17.3570313 C2.67109375,15.9679688 2,14.2921875 2,12.328125 C2,12.328125 2,12.328125 2,12.328125 C2,10.3164063 2.71875,8.5921875 4.15546875,7.15546875 C5.54453125,5.71875 7.26875,5 9.328125,5 C9.328125,5 9.328125,5 9.328125,5 C11.9625,5 14.021875,6.1015625 15.50625,8.3046875 C15.50625,8.3046875 15.50625,8.3046875 15.50625,8.3046875 C16.1765625,8.065625 16.8953125,7.921875 17.6617187,7.921875 C17.6617187,7.921875 17.6617187,7.921875 17.6617187,7.921875 C19.2898437,7.921875 20.6789063,8.496875 21.828125,9.64609375 L21.828125,9.646875 Z"/>
  <title>Cloud Solid</title>
</svg>