<svg xmlns="http://www.w3.org/2000/svg" viewBox="0 0 25 25" id="code">
  <path d="M6.89609375,17.559375 C6.89609375,17.559375 6.22578125,18.278125 6.22578125,18.278125 C6.22578125,18.278125 0,12.1476563 0,12.1476563 C0,12.1476563 6.22578125,5.82578125 6.22578125,5.82578125 C6.22578125,5.82578125 6.94453125,6.49609375 6.94453125,6.49609375 C6.94453125,6.49609375 1.3890625,12.1476563 1.3890625,12.1476563 C1.3890625,12.1476563 6.896875,17.559375 6.896875,17.559375 L6.89609375,17.559375 Z M8.23671875,21.0554687 C8.23671875,21.0554687 7.3265625,20.6242188 7.3265625,20.6242188 C7.3265625,20.6242188 15.18125,3 15.18125,3 C15.18125,3 16.0914063,3.43125 16.0914063,3.43125 C16.0914063,3.43125 8.23671875,21.0554687 8.23671875,21.0554687 Z M24.425,11.9554687 C24.425,11.9554687 18.1992188,18.2773438 18.1992188,18.2773438 C18.1992188,18.2773438 17.4804688,17.5585937 17.4804688,17.5585937 C17.4804688,17.5585937 23.0359375,11.9554687 23.0359375,11.9554687 C23.0359375,11.9554687 17.528125,6.4953125 17.528125,6.4953125 C17.528125,6.4953125 18.1984375,5.825 18.1984375,5.825 C18.1984375,5.825 24.4242187,11.9554687 24.4242187,11.9554687 L24.425,11.9554687 Z"/>
  <title>Code</title>
</svg>