<svg xmlns="http://www.w3.org/2000/svg" viewBox="0 0 25 25" id="columns">
  <path d="M22.0734375,1 C22.0734375,1 22.0734375,1 22.0734375,1 C22.0734375,1 2.48515625,1 2.48515625,1 C2.05390625,1 1.71875,1.14375 1.43125,1.43125 C1.14375,1.71875 1,2.05390625 1,2.48515625 C1,2.48515625 1,2.48515625 1,2.48515625 C1,2.48515625 1,22.0734375 1,22.0734375 C1,22.5046875 1.14375,22.8398438 1.43125,23.1273438 C1.71875,23.4148437 2.05390625,23.5585938 2.48515625,23.5585938 C2.48515625,23.5585938 2.48515625,23.5585938 2.48515625,23.5585938 C2.48515625,23.5585938 22.0734375,23.5585938 22.0734375,23.5585938 C22.5046875,23.5585938 22.8398438,23.4148437 23.1273438,23.1273438 C23.4148437,22.8398438 23.5585938,22.5046875 23.5585938,22.0734375 C23.5585938,22.0734375 23.5585938,22.0734375 23.5585938,22.0734375 C23.5585938,22.0734375 23.5585938,2.48515625 23.5585938,2.48515625 C23.5585938,2.05390625 23.4148438,1.71875 23.1273438,1.43125 C22.8398438,1.14375 22.5046875,1 22.0734375,1 Z M22.6,2.484375 C22.6,2.484375 22.6,22.0726562 22.6,22.0726562 C22.6,22.4078125 22.4085938,22.5992187 22.0734375,22.5992187 C22.0734375,22.5992187 22.0734375,22.5992187 22.0734375,22.5992187 C22.0734375,22.5992187 2.48515625,22.5992187 2.48515625,22.5992187 C2.15,22.5992187 1.95859375,22.4078125 1.95859375,22.0726562 C1.95859375,22.0726562 1.95859375,22.0726562 1.95859375,22.0726562 C1.95859375,22.0726562 1.95859375,2.484375 1.95859375,2.484375 C1.95859375,2.14921875 2.15,1.9578125 2.48515625,1.9578125 C2.48515625,1.9578125 2.48515625,1.9578125 2.48515625,1.9578125 C2.48515625,1.9578125 22.0734375,1.9578125 22.0734375,1.9578125 C22.4085938,1.9578125 22.6,2.14921875 22.6,2.484375 C22.6,2.484375 22.6,2.484375 22.6,2.484375 Z M10.8179688,6.41171875 C10.8179688,6.41171875 10.8179688,6.41171875 10.8179688,6.41171875 C10.8179688,6.746875 10.6742187,6.890625 10.3390625,6.890625 C10.3390625,6.890625 10.3390625,6.890625 10.3390625,6.890625 C10.3390625,6.890625 4.4484375,6.890625 4.4484375,6.890625 C4.11328125,6.890625 3.921875,6.746875 3.921875,6.41171875 C3.921875,6.41171875 3.921875,6.41171875 3.921875,6.41171875 C3.921875,6.0765625 4.11328125,5.88515625 4.4484375,5.88515625 C4.4484375,5.88515625 4.4484375,5.88515625 4.4484375,5.88515625 C4.4484375,5.88515625 10.3390625,5.88515625 10.3390625,5.88515625 C10.6742187,5.88515625 10.8179688,6.0765625 10.8179688,6.41171875 L10.8179688,6.41171875 Z M20.6367188,6.41171875 C20.6367188,6.41171875 20.6367188,6.41171875 20.6367188,6.41171875 C20.6367188,6.746875 20.4453125,6.890625 20.1101563,6.890625 C20.1101563,6.890625 20.1101563,6.890625 20.1101563,6.890625 C20.1101563,6.890625 14.2195313,6.890625 14.2195313,6.890625 C13.884375,6.890625 13.740625,6.746875 13.740625,6.41171875 C13.740625,6.41171875 13.740625,6.41171875 13.740625,6.41171875 C13.740625,6.0765625 13.884375,5.88515625 14.2195313,5.88515625 C14.2195313,5.88515625 14.2195313,5.88515625 14.2195313,5.88515625 C14.2195313,5.88515625 20.1101563,5.88515625 20.1101563,5.88515625 C20.4453125,5.88515625 20.6367188,6.0765625 20.6367188,6.41171875 L20.6367188,6.41171875 Z M10.8179688,10.3390625 C10.8179688,10.3390625 10.8179688,10.3390625 10.8179688,10.3390625 C10.8179688,10.6742187 10.6742187,10.8179688 10.3390625,10.8179688 C10.3390625,10.8179688 10.3390625,10.8179688 10.3390625,10.8179688 C10.3390625,10.8179688 4.4484375,10.8179688 4.4484375,10.8179688 C4.11328125,10.8179688 3.921875,10.6742187 3.921875,10.3390625 C3.921875,10.3390625 3.921875,10.3390625 3.921875,10.3390625 C3.921875,10.0039062 4.11328125,9.8125 4.4484375,9.8125 C4.4484375,9.8125 4.4484375,9.8125 4.4484375,9.8125 C4.4484375,9.8125 10.3390625,9.8125 10.3390625,9.8125 C10.6742187,9.8125 10.8179688,10.0039062 10.8179688,10.3390625 Z M20.6367188,10.3390625 C20.6367188,10.3390625 20.6367188,10.3390625 20.6367188,10.3390625 C20.6367188,10.6742187 20.4453125,10.8179688 20.1101563,10.8179688 C20.1101563,10.8179688 20.1101563,10.8179688 20.1101563,10.8179688 C20.1101563,10.8179688 14.2195313,10.8179688 14.2195313,10.8179688 C13.884375,10.8179688 13.740625,10.6742187 13.740625,10.3390625 C13.740625,10.3390625 13.740625,10.3390625 13.740625,10.3390625 C13.740625,10.0039062 13.884375,9.8125 14.2195313,9.8125 C14.2195313,9.8125 14.2195313,9.8125 14.2195313,9.8125 C14.2195313,9.8125 20.1101563,9.8125 20.1101563,9.8125 C20.4453125,9.8125 20.6367188,10.0039062 20.6367188,10.3390625 Z M10.8179688,14.21875 C10.8179688,14.21875 10.8179688,14.21875 10.8179688,14.21875 C10.8179688,14.5539062 10.6742187,14.7453125 10.3390625,14.7453125 C10.3390625,14.7453125 10.3390625,14.7453125 10.3390625,14.7453125 C10.3390625,14.7453125 4.4484375,14.7453125 4.4484375,14.7453125 C4.11328125,14.7453125 3.921875,14.5539062 3.921875,14.21875 C3.921875,14.21875 3.921875,14.21875 3.921875,14.21875 C3.921875,13.8835938 4.11328125,13.7398438 4.4484375,13.7398438 C4.4484375,13.7398438 4.4484375,13.7398438 4.4484375,13.7398438 C4.4484375,13.7398438 10.3390625,13.7398438 10.3390625,13.7398438 C10.6742187,13.7398438 10.8179688,13.8835938 10.8179688,14.21875 Z M20.6367188,14.21875 C20.6367188,14.21875 20.6367188,14.21875 20.6367188,14.21875 C20.6367188,14.5539062 20.4453125,14.7453125 20.1101563,14.7453125 C20.1101563,14.7453125 20.1101563,14.7453125 20.1101563,14.7453125 C20.1101563,14.7453125 14.2195313,14.7453125 14.2195313,14.7453125 C13.884375,14.7453125 13.740625,14.5539062 13.740625,14.21875 C13.740625,14.21875 13.740625,14.21875 13.740625,14.21875 C13.740625,13.8835938 13.884375,13.7398438 14.2195313,13.7398438 C14.2195313,13.7398438 14.2195313,13.7398438 14.2195313,13.7398438 C14.2195313,13.7398438 20.1101563,13.7398438 20.1101563,13.7398438 C20.4453125,13.7398438 20.6367188,13.8835938 20.6367188,14.21875 Z M10.8179688,18.1453125 C10.8179688,18.1453125 10.8179688,18.1453125 10.8179688,18.1453125 C10.8179688,18.4804688 10.6742187,18.671875 10.3390625,18.671875 C10.3390625,18.671875 10.3390625,18.671875 10.3390625,18.671875 C10.3390625,18.671875 4.4484375,18.671875 4.4484375,18.671875 C4.11328125,18.671875 3.921875,18.4804688 3.921875,18.1453125 C3.921875,18.1453125 3.921875,18.1453125 3.921875,18.1453125 C3.921875,17.8101563 4.11328125,17.6664063 4.4484375,17.6664063 C4.4484375,17.6664063 4.4484375,17.6664063 4.4484375,17.6664063 C4.4484375,17.6664063 10.3390625,17.6664063 10.3390625,17.6664063 C10.6742187,17.6664063 10.8179688,17.8101563 10.8179688,18.1453125 Z M20.6367188,18.1453125 C20.6367188,18.1453125 20.6367188,18.1453125 20.6367188,18.1453125 C20.6367188,18.4804688 20.4453125,18.671875 20.1101563,18.671875 C20.1101563,18.671875 20.1101563,18.671875 20.1101563,18.671875 C20.1101563,18.671875 14.2195313,18.671875 14.2195313,18.671875 C13.884375,18.671875 13.740625,18.4804688 13.740625,18.1453125 C13.740625,18.1453125 13.740625,18.1453125 13.740625,18.1453125 C13.740625,17.8101563 13.884375,17.6664063 14.2195313,17.6664063 C14.2195313,17.6664063 14.2195313,17.6664063 14.2195313,17.6664063 C14.2195313,17.6664063 20.1101563,17.6664063 20.1101563,17.6664063 C20.4453125,17.6664063 20.6367188,17.8101563 20.6367188,18.1453125 Z"/>
  <title>Columns</title>
</svg>