<svg xmlns="http://www.w3.org/2000/svg" viewBox="0 0 25 25" id="column-no-left">
  <path d="M5.890625,24.5210937 C5.890625,24.5210937 5.890625,0 5.890625,0 C5.890625,0 6.8484375,0 6.8484375,0 C6.8484375,0 6.8484375,24.5210937 6.8484375,24.5210937 C6.8484375,24.5210937 5.890625,24.5210937 5.890625,24.5210937 L5.890625,24.5210937 Z M14.703125,24.5210937 C14.703125,24.5210937 14.703125,0 14.703125,0 C14.703125,0 15.7085938,0 15.7085938,0 C15.7085938,0 15.7085938,24.5210937 15.7085938,24.5210937 C15.7085938,24.5210937 14.703125,24.5210937 14.703125,24.5210937 Z M19.2046875,24.5210937 C19.2046875,24.5210937 19.2046875,24.5210937 19.2046875,24.5210937 C19.2046875,24.5210937 0.47890625,24.5210937 0.47890625,24.5210937 C0.47890625,24.5210937 0.47890625,23.5632812 0.47890625,23.5632812 C0.47890625,23.5632812 19.2046875,23.5632812 19.2046875,23.5632812 C20.4023438,23.5632812 21.4078125,23.228125 22.2695312,22.509375 C23.13125,21.8390625 23.5625,21.025 23.5625,20.1148437 C23.5625,20.1148437 23.5625,20.1148437 23.5625,20.1148437 C23.5625,20.1148437 23.5625,4.40625 23.5625,4.40625 C23.5625,3.49609375 23.13125,2.68203125 22.2695312,1.9640625 C21.4078125,1.29375 20.4015625,0.95859375 19.2046875,0.95859375 C19.2046875,0.95859375 19.2046875,0.95859375 19.2046875,0.95859375 C19.2046875,0.95859375 0.47890625,0.95859375 0.47890625,0.95859375 C0.47890625,0.95859375 0.47890625,0.00078125 0.47890625,0.00078125 C0.47890625,0.00078125 19.2046875,0.00078125 19.2046875,0.00078125 C20.6890625,0.00078125 21.934375,0.43203125 22.9882812,1.29375 C23.99375,2.15546875 24.5210937,3.209375 24.5210937,4.40703125 C24.5210937,4.40703125 24.5210937,4.40703125 24.5210937,4.40703125 C24.5210937,4.40703125 24.5210937,20.115625 24.5210937,20.115625 C24.5210937,21.3132813 23.9945313,22.3664062 22.9882812,23.2289063 C21.934375,24.090625 20.6890625,24.521875 19.2046875,24.521875 L19.2046875,24.5210937 Z M0,0.9578125 C0,0.9578125 0,0 0,0 C0,0 2.15546875,0 2.15546875,0 C2.15546875,0 2.15546875,0.9578125 2.15546875,0.9578125 C2.15546875,0.9578125 0,0.9578125 0,0.9578125 Z M0,24.5210937 C0,24.5210937 0,23.5632812 0,23.5632812 C0,23.5632812 2.15546875,23.5632812 2.15546875,23.5632812 C2.15546875,23.5632812 2.15546875,24.5210937 2.15546875,24.5210937 C2.15546875,24.5210937 0,24.5210937 0,24.5210937 Z"/>
  <title>Column No Left</title>
</svg>