<svg xmlns="http://www.w3.org/2000/svg" viewBox="0 0 25 25" id="column-insert">
  <path d="M11.3453125,17.7757813 C11.3453125,17.7757813 10.81875,17.6 10.81875,17.2492187 C10.81875,17.2492187 10.81875,7.52734375 10.81875,7.52734375 C10.81875,7.17578125 10.9945312,7.00078125 11.3453125,7.00078125 C11.6648437,7.00078125 11.8242187,7.1765625 11.8242187,7.52734375 C11.8242187,7.52734375 11.8242187,17.2492187 11.8242187,17.2492187 C11.8242187,17.6007812 11.6648437,17.7757813 11.3453125,17.7757813 Z M12.8296875,7.5265625 C12.8296875,7.5265625 12.9890625,7 13.3085938,7 C13.628125,7 13.7875,7.17578125 13.7875,7.5265625 C13.7875,7.5265625 13.7875,17.2484375 13.7875,17.2484375 C13.7875,17.6 13.628125,17.775 13.3085938,17.775 C12.9890625,17.775 12.8296875,17.5992187 12.8296875,17.2484375 C12.8296875,17.2484375 12.8296875,7.5265625 12.8296875,7.5265625 Z M4.78359375,14.9976562 C4.78359375,14.9976562 4.92734375,15.2054687 4.92734375,15.3328125 C4.92734375,15.684375 4.76796875,15.859375 4.4484375,15.859375 C4.41640625,15.859375 4.3046875,15.8117187 4.11328125,15.715625 C4.11328125,15.715625 1.14375,12.7460937 1.14375,12.7460937 C1.04765625,12.65 1,12.5382812 1,12.4109375 C1,12.2835937 1.04765625,12.171875 1.14375,12.0757812 C1.14375,12.0757812 4.11328125,9.10625 4.11328125,9.10625 C4.3046875,9.01015625 4.41640625,8.9625 4.4484375,8.9625 C4.76796875,8.9625 4.92734375,9.13828125 4.92734375,9.4890625 C4.92734375,9.6171875 4.8796875,9.728125 4.78359375,9.82421875 C4.78359375,9.82421875 2.6765625,11.93125 2.6765625,11.93125 C2.6765625,11.93125 8.37578125,11.93125 8.37578125,11.93125 C8.6953125,11.93125 8.8546875,12.090625 8.8546875,12.4101562 C8.8546875,12.7296875 8.6953125,12.8890625 8.37578125,12.8890625 C8.37578125,12.8890625 2.6765625,12.8890625 2.6765625,12.8890625 C2.6765625,12.8890625 4.78359375,14.9960937 4.78359375,14.9960937 L4.78359375,14.9976562 Z M19.821875,9.82578125 C19.7257813,9.7296875 19.678125,9.61796875 19.678125,9.490625 C19.678125,9.1390625 19.8375,8.9640625 20.1570312,8.9640625 C20.2210938,8.9640625 20.3484375,9.01171875 20.5398437,9.1078125 C20.5398437,9.1078125 23.4609375,12.0773437 23.4609375,12.0773437 C23.5570313,12.1734375 23.6046875,12.2851562 23.6046875,12.4125 C23.6046875,12.5398437 23.5570313,12.6515625 23.4609375,12.7476562 C23.4609375,12.7476562 20.5398437,15.7171875 20.5398437,15.7171875 C20.44375,15.8132812 20.3164062,15.8609375 20.1570312,15.8609375 C19.8375,15.8609375 19.678125,15.7015625 19.678125,15.3820312 C19.678125,15.2226562 19.7257813,15.0945312 19.821875,14.9992188 C19.821875,14.9992188 21.9289063,12.8921875 21.9289063,12.8921875 C21.9289063,12.8921875 16.2296875,12.8921875 16.2296875,12.8921875 C15.9101562,12.8921875 15.7507812,12.7328125 15.7507812,12.4132813 C15.7507812,12.09375 15.9101562,11.934375 16.2296875,11.934375 C16.2296875,11.934375 21.9289063,11.934375 21.9289063,11.934375 C21.9289063,11.934375 19.821875,9.82734375 19.821875,9.82734375 L19.821875,9.82578125 Z"/>
  <title>Column Insert</title>
</svg>