<svg xmlns="http://www.w3.org/2000/svg" viewBox="0 0 25 25" id="columns-solid">
  <path d="M22.0734375,1 C22.0734375,1 22.0734375,1 22.0734375,1 C22.0734375,1 2.48515625,1 2.48515625,1 C2.05390625,1 1.71875,1.14375 1.43125,1.43125 C1.14375,1.71875 1,2.05390625 1,2.48515625 C1,2.48515625 1,2.48515625 1,2.48515625 C1,2.48515625 1,22.1210938 1,22.1210938 C1,22.5523438 1.14375,22.8875 1.43125,23.1265625 C1.71875,23.4140625 2.05390625,23.5578125 2.48515625,23.5578125 C2.48515625,23.5578125 2.48515625,23.5578125 2.48515625,23.5578125 C2.48515625,23.5578125 22.0734375,23.5578125 22.0734375,23.5578125 C22.5046875,23.5578125 22.8398438,23.4140625 23.1273438,23.1265625 C23.4148438,22.8875 23.5585938,22.5515625 23.5585938,22.1210938 C23.5585938,22.1210938 23.5585938,22.1210938 23.5585938,22.1210938 C23.5585938,22.1210938 23.5585938,2.48515625 23.5585938,2.48515625 C23.5585938,2.05390625 23.4148438,1.71875 23.1273438,1.43125 C22.8398438,1.14375 22.5046875,1 22.0734375,1 Z M10.3398438,18.6726562 C10.3398438,18.6726562 10.3398438,18.6726562 10.3398438,18.6726562 C10.3398438,18.6726562 4.44921875,18.6726562 4.44921875,18.6726562 C4.1140625,18.6726562 3.92265625,18.5289062 3.92265625,18.19375 C3.92265625,17.8585938 4.1140625,17.7148438 4.44921875,17.7148438 C4.44921875,17.7148438 4.44921875,17.7148438 4.44921875,17.7148438 C4.44921875,17.7148438 10.3398437,17.7148438 10.3398437,17.7148438 C10.675,17.7148438 10.81875,17.8585938 10.81875,18.19375 C10.81875,18.5289062 10.675,18.6726562 10.3398437,18.6726562 L10.3398438,18.6726562 Z M10.3398438,14.7453125 C10.3398438,14.7453125 10.3398438,14.7453125 10.3398438,14.7453125 C10.3398438,14.7453125 4.44921875,14.7453125 4.44921875,14.7453125 C4.1140625,14.7453125 3.92265625,14.6015625 3.92265625,14.2664062 C3.92265625,13.93125 4.1140625,13.7875 4.44921875,13.7875 C4.44921875,13.7875 4.44921875,13.7875 4.44921875,13.7875 C4.44921875,13.7875 10.3398437,13.7875 10.3398437,13.7875 C10.675,13.7875 10.81875,13.93125 10.81875,14.2664062 C10.81875,14.6015625 10.675,14.7453125 10.3398437,14.7453125 L10.3398438,14.7453125 Z M10.3398438,10.8179687 C10.3398438,10.8179687 10.3398438,10.8179687 10.3398438,10.8179687 C10.3398438,10.8179687 4.44921875,10.8179687 4.44921875,10.8179687 C4.1140625,10.8179687 3.92265625,10.6742187 3.92265625,10.3390625 C3.92265625,10.0039062 4.1140625,9.86015625 4.44921875,9.86015625 C4.44921875,9.86015625 4.44921875,9.86015625 4.44921875,9.86015625 C4.44921875,9.86015625 10.3398437,9.86015625 10.3398437,9.86015625 C10.675,9.86015625 10.81875,10.0039062 10.81875,10.3390625 C10.81875,10.6742187 10.675,10.8179687 10.3398437,10.8179687 L10.3398438,10.8179687 Z M10.3398438,6.890625 C10.3398438,6.890625 10.3398438,6.890625 10.3398438,6.890625 C10.3398438,6.890625 4.44921875,6.890625 4.44921875,6.890625 C4.1140625,6.890625 3.92265625,6.746875 3.92265625,6.41171875 C3.92265625,6.0765625 4.1140625,5.9328125 4.44921875,5.9328125 C4.44921875,5.9328125 4.44921875,5.9328125 4.44921875,5.9328125 C4.44921875,5.9328125 10.3398437,5.9328125 10.3398437,5.9328125 C10.675,5.9328125 10.81875,6.0765625 10.81875,6.41171875 C10.81875,6.746875 10.675,6.890625 10.3398437,6.890625 L10.3398438,6.890625 Z M20.109375,18.6726562 C20.109375,18.6726562 20.109375,18.6726562 20.109375,18.6726562 C20.109375,18.6726562 14.21875,18.6726562 14.21875,18.6726562 C13.8835938,18.6726562 13.7398438,18.5289062 13.7398438,18.19375 C13.7398438,17.8585938 13.8835938,17.7148438 14.21875,17.7148438 C14.21875,17.7148438 14.21875,17.7148438 14.21875,17.7148438 C14.21875,17.7148438 20.109375,17.7148438 20.109375,17.7148438 C20.4445313,17.7148438 20.6359375,17.8585938 20.6359375,18.19375 C20.6359375,18.5289062 20.4445313,18.6726562 20.109375,18.6726562 Z M20.109375,14.7453125 C20.109375,14.7453125 20.109375,14.7453125 20.109375,14.7453125 C20.109375,14.7453125 14.21875,14.7453125 14.21875,14.7453125 C13.8835938,14.7453125 13.7398438,14.6015625 13.7398438,14.2664062 C13.7398438,13.93125 13.8835938,13.7875 14.21875,13.7875 C14.21875,13.7875 14.21875,13.7875 14.21875,13.7875 C14.21875,13.7875 20.109375,13.7875 20.109375,13.7875 C20.4445313,13.7875 20.6359375,13.93125 20.6359375,14.2664062 C20.6359375,14.6015625 20.4445313,14.7453125 20.109375,14.7453125 Z M20.109375,10.8179687 C20.109375,10.8179687 20.109375,10.8179687 20.109375,10.8179687 C20.109375,10.8179687 14.21875,10.8179687 14.21875,10.8179687 C13.8835938,10.8179687 13.7398438,10.6742187 13.7398438,10.3390625 C13.7398438,10.0039062 13.8835938,9.86015625 14.21875,9.86015625 C14.21875,9.86015625 14.21875,9.86015625 14.21875,9.86015625 C14.21875,9.86015625 20.109375,9.86015625 20.109375,9.86015625 C20.4445313,9.86015625 20.6359375,10.0039062 20.6359375,10.3390625 C20.6359375,10.6742187 20.4445313,10.8179687 20.109375,10.8179687 Z M20.109375,6.890625 C20.109375,6.890625 20.109375,6.890625 20.109375,6.890625 C20.109375,6.890625 14.21875,6.890625 14.21875,6.890625 C13.8835938,6.890625 13.7398438,6.746875 13.7398438,6.41171875 C13.7398438,6.0765625 13.8835938,5.9328125 14.21875,5.9328125 C14.21875,5.9328125 14.21875,5.9328125 14.21875,5.9328125 C14.21875,5.9328125 20.109375,5.9328125 20.109375,5.9328125 C20.4445313,5.9328125 20.6359375,6.0765625 20.6359375,6.41171875 C20.6359375,6.746875 20.4445313,6.890625 20.109375,6.890625 Z"/>
  <title>Columns Solid</title>
</svg>