<svg xmlns="http://www.w3.org/2000/svg" viewBox="0 0 25 25" id="column-top-fill">
  <path d="M0,0.9578125 C0,0.9578125 0.09609375,0.47890625 0.2875,0.2875 C0.47890625,0.09609375 0.70234375,0 0.9578125,0 C0.9578125,0 23.5632812,0 23.5632812,0 C23.81875,0 24.0421875,0.09609375 24.2335937,0.2875 C24.425,0.47890625 24.5210937,0.70234375 24.5210937,0.9578125 C24.5210937,0.9578125 24.5210937,23.5632812 24.5210937,23.5632812 C24.5210937,23.81875 24.425,24.0421875 24.2335937,24.2335937 C24.0421875,24.425 23.81875,24.5210937 23.5632812,24.5210937 C23.5632812,24.5210937 0.9578125,24.5210937 0.9578125,24.5210937 C0.70234375,24.5210937 0.47890625,24.425 0.2875,24.2335937 C0.09609375,24.0421875 0,23.81875 0,23.5632812 C0,23.5632812 0,0.9578125 0,0.9578125 Z M7.8546875,23.5632813 C7.8546875,23.5632813 7.8546875,8.8125 7.8546875,8.8125 C7.8546875,8.8125 0.9578125,8.8125 0.9578125,8.8125 C0.9578125,8.8125 0.9578125,23.5632813 0.9578125,23.5632813 C0.9578125,23.5632813 7.8546875,23.5632813 7.8546875,23.5632813 Z M15.7085938,23.5632813 C15.7085938,23.5632813 15.7085938,8.8125 15.7085938,8.8125 C15.7085938,8.8125 8.81171875,8.8125 8.81171875,8.8125 C8.81171875,8.8125 8.81171875,23.5632813 8.81171875,23.5632813 C8.81171875,23.5632813 15.7085938,23.5632813 15.7085938,23.5632813 Z M23.5632813,8.8125 C23.5632813,8.8125 16.6664063,8.8125 16.6664063,8.8125 C16.6664063,8.8125 16.6664063,23.5632813 16.6664063,23.5632813 C16.6664063,23.5632813 23.5632813,23.5632813 23.5632813,23.5632813 C23.5632813,23.5632813 23.5632813,8.8125 23.5632813,8.8125 Z"/>
  <title>Column Top Fill</title>
</svg>