<svg xmlns="http://www.w3.org/2000/svg" viewBox="0 0 25 25" id="column-delete">
  <path d="M11.3445312,17.7757813 C11.3445312,17.7757813 10.8179688,17.6 10.8179688,17.2492187 C10.8179688,17.2492187 10.8179688,7.52734375 10.8179688,7.52734375 C10.8179688,7.17578125 10.99375,7.00078125 11.3445312,7.00078125 C11.6640625,7.00078125 11.8234375,7.1765625 11.8234375,7.52734375 C11.8234375,7.52734375 11.8234375,17.2492187 11.8234375,17.2492187 C11.8234375,17.6007812 11.6640625,17.7757813 11.3445312,17.7757813 Z M12.8289062,7.5265625 C12.8289062,7.5265625 12.9882812,7 13.3078125,7 C13.6273437,7 13.7867187,7.17578125 13.7867187,7.5265625 C13.7867187,7.5265625 13.7867187,17.2484375 13.7867187,17.2484375 C13.7867187,17.6 13.6273437,17.775 13.3078125,17.775 C12.9882812,17.775 12.8289062,17.5992187 12.8289062,17.2484375 C12.8289062,17.2484375 12.8289062,7.5265625 12.8289062,7.5265625 Z M5.11875,9.82578125 C5.11875,9.82578125 4.975,9.61796875 4.975,9.490625 C4.975,9.1390625 5.134375,8.9640625 5.45390625,8.9640625 C5.4859375,8.9640625 5.59765625,9.01171875 5.7890625,9.1078125 C5.7890625,9.1078125 8.71015625,12.0773437 8.71015625,12.0773437 C8.80625,12.1734375 8.85390625,12.2851562 8.85390625,12.4125 C8.85390625,12.5398437 8.80625,12.6515625 8.71015625,12.7476562 C8.71015625,12.7476562 5.7890625,15.7171875 5.7890625,15.7171875 C5.59765625,15.8132812 5.4859375,15.8609375 5.45390625,15.8609375 C5.134375,15.8609375 4.975,15.6851562 4.975,15.334375 C4.975,15.2070312 5.02265625,15.0953125 5.11875,14.9992188 C5.11875,14.9992188 7.22578125,12.8921875 7.22578125,12.8921875 C7.22578125,12.8921875 1.5265625,12.8921875 1.5265625,12.8921875 C1.175,12.8921875 1,12.7328125 1,12.4132813 C1,12.09375 1.17578125,11.934375 1.5265625,11.934375 C1.5265625,11.934375 7.22578125,11.934375 7.22578125,11.934375 C7.22578125,11.934375 5.11875,9.82734375 5.11875,9.82734375 L5.11875,9.82578125 Z M19.534375,14.9976562 C19.6304687,15.09375 19.678125,15.2054687 19.678125,15.3328125 C19.678125,15.684375 19.51875,15.859375 19.1992188,15.859375 C19.1351562,15.859375 19.0078125,15.8117187 18.8164062,15.715625 C18.8164062,15.715625 15.8953125,12.7460937 15.8953125,12.7460937 C15.7992187,12.65 15.7515625,12.5382812 15.7515625,12.4109375 C15.7515625,12.2835937 15.7992187,12.171875 15.8953125,12.0757812 C15.8953125,12.0757812 18.8164062,9.10625 18.8164062,9.10625 C18.9125,9.01015625 19.0398438,8.9625 19.1992188,8.9625 C19.51875,8.9625 19.678125,9.121875 19.678125,9.44140625 C19.678125,9.60078125 19.6304687,9.72890625 19.534375,9.82421875 C19.534375,9.82421875 17.4273437,11.93125 17.4273437,11.93125 C17.4273437,11.93125 23.1265625,11.93125 23.1265625,11.93125 C23.4460937,11.93125 23.6054688,12.090625 23.6054688,12.4101562 C23.6054688,12.7296875 23.4460937,12.8890625 23.1265625,12.8890625 C23.1265625,12.8890625 17.4273437,12.8890625 17.4273437,12.8890625 C17.4273437,12.8890625 19.534375,14.9960937 19.534375,14.9960937 L19.534375,14.9976562 Z"/>
  <title>Column Delete</title>
</svg>