<svg xmlns="http://www.w3.org/2000/svg" viewBox="0 0 25 25" id="column-no-right">
  <path d="M18.6296875,0.961374845 C18.6296875,0.961374845 22.365625,0.961374845 22.365625,0.961374845 C22.365625,0.961374845 24.5210937,0.961374845 24.5210937,0.961374845 C24.5210937,0.961374845 24.5210937,0.00356234492 24.5210937,0.00356234492 C24.5210937,0.00356234492 5.31640625,0.00356234492 5.31640625,0.00356234492 C3.83203125,-0.0440939051 2.58671875,0.386374845 1.58046875,1.29653109 C1.58046875,1.29653109 1.58046875,1.29653109 1.58046875,1.29653109 C0.5265625,2.06293734 0,3.11684359 0,4.40981234 C0,4.40981234 0,4.40981234 0,4.40981234 C0,4.40981234 0,20.1184061 0,20.1184061 C0,21.4113748 0.5265625,22.4652811 1.58046875,23.2316873 C1.58046875,23.2316873 1.58046875,23.2316873 1.58046875,23.2316873 C2.5859375,24.1418436 3.83125,24.5723123 5.31640625,24.5246561 C5.31640625,24.5246561 5.31640625,24.5246561 5.31640625,24.5246561 C5.31640625,24.5246561 24.5210937,24.5246561 24.5210937,24.5246561 C24.5210937,24.5246561 24.5210937,23.5668436 24.5210937,23.5668436 C24.5210937,23.5668436 18.6304687,23.5668436 18.6304687,23.5668436 C18.6304687,23.5668436 18.6304687,0.961374845 18.6304687,0.961374845 L18.6296875,0.961374845 Z M8.81171875,23.5668436 C8.81171875,23.5668436 5.315625,23.5668436 5.315625,23.5668436 C4.16640625,23.5191873 3.16015625,23.1840311 2.25078125,22.5613748 C2.25078125,22.5613748 2.25078125,22.5613748 2.25078125,22.5613748 C1.3890625,21.9387186 0.9578125,21.1246561 0.9578125,20.1191873 C0.9578125,20.1191873 0.9578125,20.1191873 0.9578125,20.1191873 C0.9578125,20.1191873 0.9578125,4.41059359 0.9578125,4.41059359 C0.9578125,3.40512484 1.3890625,2.59106234 2.25078125,1.96840609 C2.25078125,1.96840609 2.25078125,1.96840609 2.25078125,1.96840609 C3.1125,1.29809359 4.11875,0.962937345 5.315625,0.962937345 C5.315625,0.962937345 5.315625,0.962937345 5.315625,0.962937345 C5.315625,0.962937345 8.81171875,0.962937345 8.81171875,0.962937345 C8.81171875,0.962937345 8.81171875,23.5684061 8.81171875,23.5684061 L8.81171875,23.5668436 Z M17.671875,0.961374845 C17.671875,0.961374845 17.671875,23.5668436 17.671875,23.5668436 C17.671875,23.5668436 9.8171875,23.5668436 9.8171875,23.5668436 C9.8171875,23.5668436 9.8171875,0.961374845 9.8171875,0.961374845 C9.8171875,0.961374845 17.671875,0.961374845 17.671875,0.961374845 Z"/>
  <title>Column No Right</title>
</svg>