<svg xmlns="http://www.w3.org/2000/svg" viewBox="0 0 25 25" id="command">
  <path d="M20.6367187,16.709375 C20.6367187,16.709375 20.6367187,16.709375 20.6367187,16.709375 C20.6367187,16.709375 17.715625,16.709375 17.715625,16.709375 C17.715625,16.709375 17.715625,8.8546875 17.715625,8.8546875 C17.715625,8.8546875 20.6367187,8.8546875 20.6367187,8.8546875 C21.7382812,8.8546875 22.6484375,8.471875 23.4148437,7.70546875 C24.18125,6.9390625 24.5640625,6.02890625 24.5640625,4.92734375 C24.5640625,3.82578125 24.18125,2.915625 23.4148437,2.14921875 C22.6484375,1.3828125 21.7382812,1 20.6367187,1 C19.5351562,1 18.625,1.3828125 17.8585938,2.14921875 C17.0921875,2.915625 16.709375,3.82578125 16.709375,4.92734375 C16.709375,4.92734375 16.709375,4.92734375 16.709375,4.92734375 C16.709375,4.92734375 16.709375,7.896875 16.709375,7.896875 C16.709375,7.896875 8.8546875,7.896875 8.8546875,7.896875 C8.8546875,7.896875 8.8546875,4.92734375 8.8546875,4.92734375 C8.8546875,3.82578125 8.471875,2.915625 7.70546875,2.14921875 C6.9390625,1.3828125 6.02890625,1 4.92734375,1 C3.82578125,1 2.915625,1.3828125 2.14921875,2.14921875 C1.3828125,2.915625 1,3.82578125 1,4.92734375 C1,6.02890625 1.3828125,6.9390625 2.14921875,7.70546875 C2.915625,8.471875 3.82578125,8.8546875 4.92734375,8.8546875 C4.92734375,8.8546875 4.92734375,8.8546875 4.92734375,8.8546875 C4.92734375,8.8546875 7.896875,8.8546875 7.896875,8.8546875 C7.896875,8.8546875 7.896875,16.709375 7.896875,16.709375 C7.896875,16.709375 4.92734375,16.709375 4.92734375,16.709375 C3.82578125,16.709375 2.915625,17.0921875 2.14921875,17.8585937 C1.3828125,18.625 1,19.5351562 1,20.6367187 C1,21.7382812 1.3828125,22.6484375 2.14921875,23.4148437 C2.915625,24.18125 3.82578125,24.5640625 4.92734375,24.5640625 C6.02890625,24.5640625 6.9390625,24.18125 7.70546875,23.4148437 C8.471875,22.6484375 8.8546875,21.7382812 8.8546875,20.6367187 C8.8546875,20.6367187 8.8546875,20.6367187 8.8546875,20.6367187 C8.8546875,20.6367187 8.8546875,17.715625 8.8546875,17.715625 C8.8546875,17.715625 16.709375,17.715625 16.709375,17.715625 C16.709375,17.715625 16.709375,20.6367187 16.709375,20.6367187 C16.709375,21.7382812 17.0921875,22.6484375 17.8585938,23.4148437 C18.625,24.18125 19.5351562,24.5640625 20.6367187,24.5640625 C21.7382812,24.5640625 22.6484375,24.18125 23.4148437,23.4148437 C24.18125,22.6484375 24.5640625,21.7382812 24.5640625,20.6367187 C24.5640625,19.5351562 24.18125,18.625 23.4148437,17.8585937 C22.6484375,17.0921875 21.7382812,16.709375 20.6367187,16.709375 Z M17.715625,7.89765625 C17.715625,7.89765625 17.715625,4.928125 17.715625,4.928125 C17.715625,4.1140625 18.003125,3.44375 18.5773438,2.86875 C19.1039063,2.29375 19.8226563,2.00703125 20.6367188,2.00703125 C21.4507813,2.00703125 22.1695313,2.29453125 22.74375,2.86875 C23.31875,3.44375 23.6054688,4.1140625 23.6054688,4.928125 C23.6054688,5.7421875 23.3179688,6.4125 22.74375,6.9875 C22.16875,7.61015625 21.4507813,7.89765625 20.6367188,7.89765625 C20.6367188,7.89765625 20.6367188,7.89765625 20.6367188,7.89765625 C20.6367188,7.89765625 17.715625,7.89765625 17.715625,7.89765625 L17.715625,7.89765625 Z M7.89765625,17.715625 C7.89765625,17.715625 7.89765625,20.6367188 7.89765625,20.6367188 C7.89765625,21.4507813 7.61015625,22.1210938 7.0359375,22.6960937 C6.46171875,23.2710937 5.74296875,23.5578125 4.92890625,23.5578125 C4.11484375,23.5578125 3.39609375,23.2703125 2.86953125,22.6960937 C2.29453125,22.1210938 2.0078125,21.4507812 2.0078125,20.6367188 C2.0078125,19.8226563 2.2953125,19.1523438 2.86953125,18.5773438 C3.39609375,18.0023438 4.11484375,17.715625 4.92890625,17.715625 C4.92890625,17.715625 4.92890625,17.715625 4.92890625,17.715625 C4.92890625,17.715625 7.8984375,17.715625 7.8984375,17.715625 L7.89765625,17.715625 Z M7.89765625,4.928125 C7.89765625,4.928125 7.89765625,7.89765625 7.89765625,7.89765625 C7.89765625,7.89765625 4.928125,7.89765625 4.928125,7.89765625 C4.1140625,7.89765625 3.44375,7.61015625 2.86875,7.0359375 C2.29375,6.46171875 2.00703125,5.74296875 2.00703125,4.92890625 C2.00703125,4.92890625 2.00703125,4.92890625 2.00703125,4.92890625 C2.00703125,4.11484375 2.29453125,3.44453125 2.86875,2.86953125 C3.3953125,2.29453125 4.1140625,2.0078125 4.928125,2.0078125 C5.7421875,2.0078125 6.4609375,2.2953125 7.03515625,2.86953125 C7.61015625,3.44453125 7.896875,4.11484375 7.896875,4.92890625 C7.896875,4.92890625 7.896875,4.92890625 7.896875,4.92890625 L7.89765625,4.928125 Z M16.709375,8.85546875 C16.709375,8.85546875 16.709375,16.7101563 16.709375,16.7101563 C16.709375,16.7101563 8.8546875,16.7101563 8.8546875,16.7101563 C8.8546875,16.7101563 8.8546875,8.85546875 8.8546875,8.85546875 C8.8546875,8.85546875 16.709375,8.85546875 16.709375,8.85546875 L16.709375,8.85546875 Z M22.7445312,22.6960937 C22.1695312,23.2710937 21.4515625,23.5578125 20.6375,23.5578125 C19.8234375,23.5578125 19.1046875,23.2703125 18.578125,22.6960937 C18.003125,22.1210938 17.7164062,21.4507812 17.7164062,20.6367188 C17.7164062,20.6367188 17.7164062,20.6367188 17.7164062,20.6367188 C17.7164062,20.6367188 17.7164062,17.715625 17.7164062,17.715625 C17.7164062,17.715625 20.6375,17.715625 20.6375,17.715625 C21.4515625,17.715625 22.1703125,18.003125 22.7445312,18.5773438 C23.31875,19.1515625 23.60625,19.8226563 23.60625,20.6367188 C23.60625,21.4507813 23.31875,22.1210938 22.7445312,22.6960937 Z"/>
  <title>Command</title>
</svg>