<svg xmlns="http://www.w3.org/2000/svg" viewBox="0 0 25 25" id="compass">
  <path d="M20.9296875,3.5921875 C18.5351562,1.19765625 15.6617188,0 12.2609375,0 C8.86015625,0 5.98671875,1.19765625 3.5921875,3.5921875 C1.19765625,5.98671875 0,8.86015625 0,12.2609375 C0,15.6617188 1.19765625,18.5351563 3.5921875,20.9296875 C5.98671875,23.3242188 8.86015625,24.521875 12.2609375,24.521875 C15.6617188,24.521875 18.5351563,23.3242188 20.9296875,20.9296875 C23.3242188,18.5351563 24.521875,15.6617188 24.521875,12.2609375 C24.521875,8.86015625 23.3242188,5.98671875 20.9296875,3.5921875 Z M12.2617188,23.515625 C12.2617188,23.515625 12.2617188,23.515625 12.2617188,23.515625 C9.1484375,23.515625 6.46640625,22.4140625 4.26328125,20.2109375 C2.06015625,18.0078125 0.95859375,15.3734375 0.95859375,12.2609375 C0.95859375,9.14765625 2.06015625,6.5140625 4.26328125,4.2625 C6.46640625,2.059375 9.1484375,0.9578125 12.2617188,0.9578125 C15.375,0.9578125 18.0570313,2.059375 20.2601563,4.2625 C22.4632813,6.51328125 23.5648438,9.14765625 23.5648438,12.2609375 C23.5648438,12.2609375 23.5648438,12.2609375 23.5648438,12.2609375 C23.5171875,15.3742188 22.415625,18.05625 20.2125,20.2109375 C18.009375,22.4140625 15.375,23.515625 12.2625,23.515625 L12.2617188,23.515625 Z M22.0796875,11.7820312 C22.4148437,11.7820312 22.5585937,11.9257812 22.5585937,12.2609375 C22.5585937,12.5960938 22.4148437,12.7398438 22.0796875,12.7398438 C21.7445312,12.7398438 21.6007812,12.5960938 21.6007812,12.2609375 C21.6007812,11.9257813 21.7445312,11.7820312 22.0796875,11.7820312 L22.0796875,11.7820312 Z M2.44375,11.7820312 C2.77890625,11.7820312 2.92265625,11.9257812 2.92265625,12.2609375 C2.92265625,12.5960938 2.77890625,12.7398438 2.44375,12.7398438 C2.10859375,12.7398438 1.96484375,12.5960938 1.96484375,12.2609375 C1.96484375,11.9257813 2.10859375,11.7820312 2.44375,11.7820312 L2.44375,11.7820312 Z M12.2617188,2.921875 C11.9265625,2.921875 11.7828125,2.778125 11.7828125,2.44296875 C11.7828125,2.1078125 11.9265625,1.9640625 12.2617188,1.9640625 C12.596875,1.9640625 12.740625,2.1078125 12.740625,2.44296875 C12.740625,2.778125 12.596875,2.921875 12.2617188,2.921875 Z M12.2617188,21.6 C12.596875,21.6 12.740625,21.74375 12.740625,22.0789063 C12.740625,22.4140625 12.596875,22.5578125 12.2617188,22.5578125 C11.9265625,22.5578125 11.7828125,22.4140625 11.7828125,22.0789063 C11.7828125,21.74375 11.9265625,21.6 12.2617188,21.6 Z M8.4296875,8.42890625 C8.4296875,8.42890625 4.98125,19.5398438 4.98125,19.5398438 C4.98125,19.5398438 16.0921875,16.0914063 16.0921875,16.0914063 C16.0921875,16.0914063 19.540625,4.98046875 19.540625,4.98046875 C19.540625,4.98046875 8.4296875,8.42890625 8.4296875,8.42890625 L8.4296875,8.42890625 Z M9.24375,9.24296875 C9.24375,9.24296875 18.05625,6.46484375 18.05625,6.46484375 C18.05625,6.46484375 15.278125,15.2773438 15.278125,15.2773438 C15.278125,15.2773438 6.465625,18.0554688 6.465625,18.0554688 C6.465625,18.0554688 9.24375,9.24296875 9.24375,9.24296875 L9.24375,9.24296875 Z M10.5375,13.984375 C11.0164063,14.4632813 11.5914062,14.703125 12.2617188,14.703125 C12.9320312,14.703125 13.5070313,14.4640625 13.9859375,13.984375 C14.4648438,13.5054688 14.7046875,12.9304688 14.7046875,12.2601563 C14.7046875,11.5898438 14.465625,11.0148438 13.9859375,10.5359375 C13.5070313,10.0570313 12.9320312,9.8171875 12.2617188,9.8171875 C11.5914062,9.8171875 11.0164063,10.05625 10.5375,10.5359375 C10.0585937,11.0148438 9.81875,11.5898438 9.81875,12.2601563 C9.81875,12.9304688 10.0578125,13.5054688 10.5375,13.984375 L10.5375,13.984375 Z M11.2078125,11.2070312 C11.2078125,11.2070312 11.2078125,11.2070312 11.2078125,11.2070312 C11.5429688,10.9195313 11.9265625,10.7757812 12.2617188,10.7757812 C12.2617188,10.7757812 12.2617188,10.7757812 12.2617188,10.7757812 C12.6929688,10.7757812 13.028125,10.9195313 13.315625,11.2070312 C13.603125,11.4945313 13.746875,11.8296875 13.746875,12.2609375 C13.746875,12.6921875 13.603125,13.0273438 13.315625,13.3148437 C13.028125,13.6023437 12.6929688,13.7460938 12.2617188,13.7460938 C12.2617188,13.7460938 12.2617188,13.7460938 12.2617188,13.7460938 C11.9265625,13.7460938 11.5429688,13.6023437 11.2078125,13.3148437 C11.2078125,13.3148437 11.2078125,13.3148437 11.2078125,13.3148437 C10.9203125,12.9796875 10.7765625,12.5960937 10.7765625,12.2609375 C10.7765625,11.9257812 10.9203125,11.5421875 11.2078125,11.2070312 L11.2078125,11.2070312 Z"/>
  <title>Compass</title>
</svg>