<svg xmlns="http://www.w3.org/2000/svg" viewBox="0 0 25 25" id="compass-solid">
  <g fill="none" fill-rule="evenodd">
    <path fill="#000" fill-rule="nonzero" d="M20.9296875,3.5921875 C18.5351562,1.19765625 15.6617188,0 12.2609375,0 C8.86015625,0 5.98671875,1.19765625 3.5921875,3.5921875 C1.19765625,5.98671875 0,8.86015625 0,12.2609375 C0,15.6617188 1.19765625,18.5351563 3.5921875,20.9296875 C5.98671875,23.3242188 8.86015625,24.521875 12.2609375,24.521875 C15.6617188,24.521875 18.5351563,23.3242188 20.9296875,20.9296875 C23.3242188,18.5351563 24.521875,15.6617188 24.521875,12.2609375 C24.521875,8.86015625 23.3242188,5.98671875 20.9296875,3.5921875 Z M2.92265625,12.2601562 C2.92265625,12.5953125 2.77890625,12.7390625 2.44375,12.7390625 C2.10859375,12.7390625 1.96484375,12.5953125 1.96484375,12.2601562 C1.96484375,11.925 2.10859375,11.78125 2.44375,11.78125 C2.77890625,11.78125 2.92265625,11.925 2.92265625,12.2601562 L2.92265625,12.2601562 Z M11.7820312,2.4421875 C11.7820312,2.10703125 11.9257812,1.96328125 12.2609375,1.96328125 C12.5960937,1.96328125 12.7398437,2.10703125 12.7398437,2.4421875 C12.7398437,2.77734375 12.5960937,2.92109375 12.2609375,2.92109375 C11.9257812,2.92109375 11.7820312,2.77734375 11.7820312,2.4421875 L11.7820312,2.4421875 Z M12.740625,22.0789063 C12.740625,22.4140625 12.596875,22.5578125 12.2617188,22.5578125 C11.9265625,22.5578125 11.7828125,22.4140625 11.7828125,22.0789063 C11.7828125,21.74375 11.9265625,21.6 12.2617188,21.6 C12.596875,21.6 12.740625,21.74375 12.740625,22.0789063 Z M19.5414062,4.98125 C19.5414062,4.98125 16.0929687,16.0921875 16.0929687,16.0921875 C16.0929687,16.0921875 4.98203125,19.540625 4.98203125,19.540625 C4.98203125,19.540625 8.43046875,8.4296875 8.43046875,8.4296875 C8.43046875,8.4296875 19.5414062,4.98125 19.5414062,4.98125 Z M22.5585937,12.2601562 C22.5585937,12.5953125 22.4148437,12.7390625 22.0796875,12.7390625 C21.7445312,12.7390625 21.6007812,12.5953125 21.6007812,12.2601562 C21.6007812,11.925 21.7445312,11.78125 22.0796875,11.78125 C22.4148437,11.78125 22.5585937,11.925 22.5585937,12.2601562 Z"/>
    <path fill="#000" d="M10.5375,13.984375 C11.0164062,14.4632813 11.5914062,14.703125 12.2617187,14.703125 C12.9320312,14.703125 13.5070312,14.4640625 13.9859375,13.984375 C14.4648437,13.5054688 14.7046875,12.9304688 14.7046875,12.2601563 C14.7046875,11.5898438 14.465625,11.0148438 13.9859375,10.5359375 C13.5070312,10.0570313 12.9320312,9.8171875 12.2617187,9.8171875 C11.5914062,9.8171875 11.0164062,10.05625 10.5375,10.5359375 C10.0585937,11.0148438 9.81875,11.5898438 9.81875,12.2601563 C9.81875,12.9304688 10.0578125,13.5054688 10.5375,13.984375 L10.5375,13.984375 Z"/>
  </g>
  <title>Compass Solid</title>
</svg>