<svg xmlns="http://www.w3.org/2000/svg" viewBox="0 0 25 25" id="controller">
  <path d="M8.33203125,15.7453125 C8.6671875,15.7453125 8.8109375,15.8890625 8.8109375,16.2242187 C8.8109375,16.559375 8.6671875,16.703125 8.33203125,16.703125 C8.33203125,16.703125 8.33203125,16.703125 8.33203125,16.703125 C8.33203125,16.703125 6.84765625,16.703125 6.84765625,16.703125 C6.84765625,16.703125 6.84765625,18.1875 6.84765625,18.1875 C6.84765625,18.5226562 6.70390625,18.6664062 6.36875,18.6664062 C6.03359375,18.6664062 5.88984375,18.5226562 5.88984375,18.1875 C5.88984375,18.1875 5.88984375,18.1875 5.88984375,18.1875 C5.88984375,18.1875 5.88984375,16.703125 5.88984375,16.703125 C5.88984375,16.703125 4.40546875,16.703125 4.40546875,16.703125 C4.0703125,16.703125 3.9265625,16.559375 3.9265625,16.2242187 C3.9265625,15.8890625 4.0703125,15.7453125 4.40546875,15.7453125 C4.40546875,15.7453125 4.40546875,15.7453125 4.40546875,15.7453125 C4.40546875,15.7453125 5.88984375,15.7453125 5.88984375,15.7453125 C5.88984375,15.7453125 5.88984375,14.2609375 5.88984375,14.2609375 C5.88984375,13.9257812 6.03359375,13.7820312 6.36875,13.7820312 C6.70390625,13.7820312 6.84765625,13.9257812 6.84765625,14.2609375 C6.84765625,14.2609375 6.84765625,14.2609375 6.84765625,14.2609375 C6.84765625,14.2609375 6.84765625,15.7453125 6.84765625,15.7453125 C6.84765625,15.7453125 8.33203125,15.7453125 8.33203125,15.7453125 Z M19.346875,14.0695312 C19.1078125,13.878125 18.8679688,13.7820312 18.628125,13.7820312 C18.3882812,13.7820312 18.1492188,13.878125 17.9578125,14.0695312 C17.7664062,14.2609375 17.6703125,14.5007812 17.6703125,14.7398437 C17.6703125,14.9789062 17.7664063,15.21875 17.9578125,15.4101562 C18.1492188,15.6492188 18.3890625,15.7453125 18.628125,15.7453125 C18.8671875,15.7453125 19.1070313,15.6492187 19.346875,15.4101562 C19.5382813,15.21875 19.634375,14.9789062 19.634375,14.7398437 C19.634375,14.5007812 19.5382813,14.2609375 19.346875,14.0695312 Z M21.3109375,16.990625 C21.071875,16.7992187 20.8320313,16.703125 20.5921875,16.703125 C20.3523438,16.703125 20.1132813,16.7992188 19.921875,16.990625 C19.7304688,17.1820313 19.634375,17.421875 19.634375,17.709375 C19.634375,17.709375 19.634375,17.709375 19.634375,17.709375 C19.634375,17.9484375 19.7304688,18.1882812 19.921875,18.3796875 C20.1132813,18.5710938 20.353125,18.6671875 20.5921875,18.6671875 C20.83125,18.6671875 21.0710938,18.5710937 21.3109375,18.3796875 C21.5023438,18.1882812 21.5984375,17.9484375 21.5984375,17.709375 C21.5984375,17.709375 21.5984375,17.709375 21.5984375,17.709375 C21.5984375,17.421875 21.5023438,17.1828125 21.3109375,16.990625 Z M14.7015625,13.7820312 C14.7015625,13.7820312 14.7015625,13.7820312 14.7015625,13.7820312 C14.4625,13.7820312 14.2226562,13.878125 14.03125,14.0695312 C13.8398437,14.2609375 13.74375,14.5007812 13.74375,14.7398437 C13.74375,14.9789062 13.8398438,15.21875 14.03125,15.4101562 C14.2226562,15.6492188 14.4625,15.7453125 14.7015625,15.7453125 C14.7015625,15.7453125 14.7015625,15.7453125 14.7015625,15.7453125 C14.9890625,15.7453125 15.228125,15.6492187 15.4203125,15.4101562 C15.6117188,15.21875 15.7078125,14.9789062 15.7078125,14.7398437 C15.7078125,14.5007812 15.6117188,14.2609375 15.4203125,14.0695312 C15.2289063,13.878125 14.9890625,13.7820312 14.7015625,13.7820312 Z M17.3835937,16.990625 C17.1445312,16.7992187 16.9046875,16.703125 16.6648437,16.703125 C16.425,16.703125 16.1859375,16.7992188 15.9945312,16.990625 C15.803125,17.1820313 15.7070312,17.421875 15.7070312,17.709375 C15.7070312,17.709375 15.7070312,17.709375 15.7070312,17.709375 C15.7070312,17.9484375 15.803125,18.1882812 15.9945312,18.3796875 C16.1859375,18.5710938 16.4257812,18.6671875 16.6648437,18.6671875 C16.9039062,18.6671875 17.14375,18.5710937 17.3835937,18.3796875 C17.575,18.1882812 17.6710937,17.9484375 17.6710937,17.709375 C17.6710937,17.709375 17.6710937,17.709375 17.6710937,17.709375 C17.6710937,17.421875 17.575,17.1828125 17.3835937,16.990625 Z M24.5195312,13.2554688 C24.5195312,13.2554688 24.5195312,13.2554688 24.5195312,13.2554688 C24.5195312,13.2554688 24.5195312,19.1460937 24.5195312,19.1460937 C24.5195312,20.1039062 24.184375,20.9179688 23.5140625,21.5882813 C22.84375,22.2585937 22.0296875,22.59375 21.071875,22.59375 C21.071875,22.59375 21.071875,22.59375 21.071875,22.59375 C21.071875,22.59375 3.44765625,22.59375 3.44765625,22.59375 C2.48984375,22.59375 1.67578125,22.2585937 1.00546875,21.5882813 C0.33515625,20.9179688 0,20.1039063 0,19.1460937 C0,19.1460937 0,19.1460937 0,19.1460937 C0,19.1460937 0,13.2554688 0,13.2554688 C0,12.3453125 0.33515625,11.53125 1.00546875,10.8609375 C1.67578125,10.190625 2.48984375,9.85546875 3.44765625,9.85546875 C3.44765625,9.85546875 3.44765625,9.85546875 3.44765625,9.85546875 C3.44765625,9.85546875 10.775,9.85546875 10.775,9.85546875 C10.775,9.85546875 10.775,8.85 10.775,8.85 C10.775,8.3234375 10.9664062,7.84453125 11.3976563,7.4609375 C11.7804687,7.078125 12.2117187,6.8859375 12.7382812,6.8859375 C12.7382812,6.8859375 12.7382812,6.8859375 12.7382812,6.8859375 C13.0257812,6.8859375 13.2648437,6.78984375 13.4570313,6.5984375 C13.6492188,6.40703125 13.7445312,6.1671875 13.7445312,5.928125 C13.7445312,5.6890625 13.6484375,5.44921875 13.4570313,5.209375 C13.265625,5.01796875 13.0257812,4.921875 12.7382812,4.921875 C12.7382812,4.921875 12.7382812,4.921875 12.7382812,4.921875 C12.2117187,4.921875 11.7328125,4.73046875 11.3492187,4.346875 C10.965625,3.96328125 10.7742187,3.48515625 10.7742187,2.9578125 C10.7742187,2.9578125 10.7742187,2.9578125 10.7742187,2.9578125 C10.7742187,2.9578125 10.7742187,2.47890625 10.7742187,2.47890625 C10.7742187,2.14375 10.965625,2 11.3007812,2 C11.3007812,2 11.3007812,2 11.3007812,2 C11.6359375,2 11.7796875,2.14375 11.7796875,2.47890625 C11.7796875,2.47890625 11.7796875,2.47890625 11.7796875,2.47890625 C11.7796875,2.47890625 11.7796875,2.9578125 11.7796875,2.9578125 C11.7796875,3.2453125 11.8757812,3.484375 12.0671875,3.6765625 C12.2585937,3.86875 12.4984375,3.9640625 12.7375,3.9640625 C12.7375,3.9640625 12.7375,3.9640625 12.7375,3.9640625 C13.2640625,3.9640625 13.7429687,4.15546875 14.1265625,4.5390625 C14.5101562,4.92265625 14.7015625,5.40078125 14.7015625,5.928125 C14.7015625,6.4546875 14.5101562,6.93359375 14.1265625,7.3171875 C13.7429687,7.70078125 13.2648437,7.8921875 12.7375,7.8921875 C12.7375,7.8921875 12.7375,7.8921875 12.7375,7.8921875 C12.4984375,7.8921875 12.2585937,7.98828125 12.0671875,8.1796875 C11.8757812,8.37109375 11.7796875,8.6109375 11.7796875,8.85 C11.7796875,8.85 11.7796875,8.85 11.7796875,8.85 C11.7796875,8.85 11.7796875,9.85546875 11.7796875,9.85546875 C11.7796875,9.85546875 21.0710937,9.85546875 21.0710937,9.85546875 C22.0289062,9.85546875 22.8429688,10.190625 23.5132813,10.8609375 C24.1835938,11.53125 24.51875,12.3453125 24.51875,13.2554688 L24.5195312,13.2554688 Z M23.5617187,19.1460937 C23.5617187,19.1460937 23.5617187,13.2554687 23.5617187,13.2554687 C23.5140625,12.5851562 23.2742188,12.0101563 22.8429687,11.53125 C22.3640625,11.0523437 21.7890625,10.8125 21.0710937,10.8125 C21.0710937,10.8125 21.0710937,10.8125 21.0710937,10.8125 C21.0710937,10.8125 3.446875,10.8125 3.446875,10.8125 C2.728125,10.8125 2.15390625,11.0515625 1.72265625,11.53125 C1.24375,12.0101562 1.00390625,12.5851562 0.95625,13.2554687 C0.95625,13.2554687 0.95625,13.2554687 0.95625,13.2554687 C0.95625,13.2554687 0.95625,19.1460937 0.95625,19.1460937 C1.00390625,19.8648437 1.24375,20.4390625 1.72265625,20.8703125 C2.15390625,21.3492187 2.728125,21.5890625 3.446875,21.6367188 C3.446875,21.6367188 3.446875,21.6367188 3.446875,21.6367188 C3.446875,21.6367188 21.0710937,21.6367188 21.0710937,21.6367188 C21.7898438,21.5890625 22.3640625,21.3492188 22.8429687,20.8703125 C23.2742187,20.4390625 23.5132812,19.8648437 23.5617187,19.1460937 C23.5617187,19.1460937 23.5617187,19.1460937 23.5617187,19.1460937 Z"/>
  <title>Controller</title>
</svg>