<svg xmlns="http://www.w3.org/2000/svg" viewBox="0 0 25 25" id="controller-solid">
  <path d="M21.0710938,9.85546875 C21.0710938,9.85546875 21.0710938,9.85546875 21.0710938,9.85546875 C21.0710938,9.85546875 11.7796875,9.85546875 11.7796875,9.85546875 C11.7796875,9.85546875 11.7796875,8.85 11.7796875,8.85 C11.7796875,8.6109375 11.8757813,8.37109375 12.0671875,8.1796875 C12.2585937,7.98828125 12.4984375,7.8921875 12.7375,7.8921875 C12.7375,7.8921875 12.7375,7.8921875 12.7375,7.8921875 C13.2640625,7.8921875 13.7429688,7.70078125 14.1265625,7.3171875 C14.5101563,6.93359375 14.7015625,6.45546875 14.7015625,5.928125 C14.7015625,5.4015625 14.5101563,4.92265625 14.1265625,4.5390625 C13.7429688,4.15546875 13.2648438,3.9640625 12.7375,3.9640625 C12.7375,3.9640625 12.7375,3.9640625 12.7375,3.9640625 C12.4984375,3.9640625 12.2585938,3.86796875 12.0671875,3.6765625 C11.8757813,3.48515625 11.7796875,3.2453125 11.7796875,2.9578125 C11.7796875,2.9578125 11.7796875,2.9578125 11.7796875,2.9578125 C11.7796875,2.9578125 11.7796875,2.47890625 11.7796875,2.47890625 C11.7796875,2.14375 11.6359375,2 11.3007813,2 C11.3007813,2 11.3007813,2 11.3007813,2 C10.965625,2 10.7742188,2.14375 10.7742188,2.47890625 C10.7742188,2.47890625 10.7742188,2.47890625 10.7742188,2.47890625 C10.7742188,2.47890625 10.7742188,2.9578125 10.7742188,2.9578125 C10.7742188,3.484375 10.965625,3.96328125 11.3492188,4.346875 C11.7328125,4.73046875 12.2109375,4.921875 12.7382813,4.921875 C12.7382813,4.921875 12.7382813,4.921875 12.7382813,4.921875 C13.0257813,4.921875 13.2648438,5.01796875 13.4570313,5.209375 C13.6484375,5.4484375 13.7445313,5.68828125 13.7445313,5.928125 C13.7445313,6.16796875 13.6484375,6.40703125 13.4570313,6.5984375 C13.265625,6.78984375 13.0257813,6.8859375 12.7382813,6.8859375 C12.7382813,6.8859375 12.7382813,6.8859375 12.7382813,6.8859375 C12.2117188,6.8859375 11.7804688,7.07734375 11.3976563,7.4609375 C10.9664063,7.8921875 10.775,8.32265625 10.775,8.85 C10.775,8.85 10.775,8.85 10.775,8.85 C10.775,8.85 10.775,9.85546875 10.775,9.85546875 C10.775,9.85546875 3.44765625,9.85546875 3.44765625,9.85546875 C2.48984375,9.85546875 1.67578125,10.190625 1.00546875,10.8609375 C0.33515625,11.53125 0,12.3453125 0,13.2554687 C0,13.2554687 0,13.2554687 0,13.2554687 C0,13.2554687 0,19.1460937 0,19.1460937 C0,20.1039062 0.33515625,20.9179688 1.00546875,21.5882813 C1.67578125,22.2585937 2.48984375,22.59375 3.44765625,22.59375 C3.44765625,22.59375 3.44765625,22.59375 3.44765625,22.59375 C3.44765625,22.59375 21.071875,22.59375 21.071875,22.59375 C22.0296875,22.59375 22.84375,22.2585937 23.5140625,21.5882813 C24.184375,20.9179688 24.5195313,20.1039063 24.5195313,19.1460937 C24.5195313,19.1460937 24.5195313,19.1460937 24.5195313,19.1460937 C24.5195313,19.1460937 24.5195313,13.2554688 24.5195313,13.2554688 C24.5195313,12.3453125 24.184375,11.53125 23.5140625,10.8609375 C22.84375,10.190625 22.0296875,9.85546875 21.071875,9.85546875 L21.0710938,9.85546875 Z M8.33203125,16.7039062 C8.33203125,16.7039062 8.33203125,16.7039062 8.33203125,16.7039062 C8.33203125,16.7039062 6.84765625,16.7039062 6.84765625,16.7039062 C6.84765625,16.7039062 6.84765625,18.1882812 6.84765625,18.1882812 C6.84765625,18.5234375 6.70390625,18.6671875 6.36875,18.6671875 C6.03359375,18.6671875 5.88984375,18.5234375 5.88984375,18.1882812 C5.88984375,18.1882812 5.88984375,18.1882812 5.88984375,18.1882812 C5.88984375,18.1882812 5.88984375,16.7039062 5.88984375,16.7039062 C5.88984375,16.7039062 4.40546875,16.7039062 4.40546875,16.7039062 C4.0703125,16.7039062 3.9265625,16.5601562 3.9265625,16.225 C3.9265625,15.8898437 4.0703125,15.7460937 4.40546875,15.7460937 C4.40546875,15.7460937 4.40546875,15.7460937 4.40546875,15.7460937 C4.40546875,15.7460937 5.88984375,15.7460937 5.88984375,15.7460937 C5.88984375,15.7460937 5.88984375,14.2617187 5.88984375,14.2617187 C5.88984375,13.9265625 6.03359375,13.7828125 6.36875,13.7828125 C6.70390625,13.7828125 6.84765625,13.9265625 6.84765625,14.2617187 C6.84765625,14.2617187 6.84765625,14.2617187 6.84765625,14.2617187 C6.84765625,14.2617187 6.84765625,15.7460937 6.84765625,15.7460937 C6.84765625,15.7460937 8.33203125,15.7460937 8.33203125,15.7460937 C8.6671875,15.7460937 8.8109375,15.8898437 8.8109375,16.225 C8.8109375,16.5601562 8.6671875,16.7039062 8.33203125,16.7039062 Z M14.7015625,15.7460938 C14.7015625,15.7460938 14.7015625,15.7460938 14.7015625,15.7460938 C14.4625,15.7460938 14.2226562,15.65 14.03125,15.4585938 C13.8398437,15.2671875 13.74375,15.0273438 13.74375,14.7398438 C13.74375,14.7398438 13.74375,14.7398438 13.74375,14.7398438 C13.74375,14.5007812 13.8398438,14.2609375 14.03125,14.0695312 C14.2226562,13.878125 14.4625,13.7820312 14.7015625,13.7820312 C14.7015625,13.7820312 14.7015625,13.7820312 14.7015625,13.7820312 C14.9890625,13.7820312 15.228125,13.878125 15.4203125,14.0695312 C15.6125,14.2609375 15.7078125,14.5007812 15.7078125,14.7398438 C15.7078125,14.7398438 15.7078125,14.7398438 15.7078125,14.7398438 C15.7078125,15.0273437 15.6117188,15.2664062 15.4203125,15.4585938 C15.2289063,15.6507813 14.9890625,15.7460938 14.7015625,15.7460938 Z M17.3835938,18.3804687 C17.1445313,18.571875 16.9046875,18.6679688 16.6648438,18.6679688 C16.425,18.6679688 16.1859375,18.571875 15.9945313,18.3804687 C15.803125,18.1890625 15.7070313,17.9492188 15.7070313,17.7101562 C15.7070313,17.7101562 15.7070313,17.7101562 15.7070313,17.7101562 C15.7070313,17.4226563 15.803125,17.1835938 15.9945313,16.9914062 C16.1859375,16.7992187 16.4257812,16.7039062 16.6648438,16.7039062 C16.9039063,16.7039062 17.14375,16.8 17.3835938,16.9914062 C17.575,17.1828125 17.6710938,17.4226562 17.6710938,17.7101562 C17.6710938,17.7101562 17.6710938,17.7101562 17.6710938,17.7101562 C17.6710938,17.9492188 17.575,18.1890625 17.3835938,18.3804687 Z M19.346875,15.4585938 C19.1078125,15.65 18.8679688,15.7460938 18.628125,15.7460938 C18.3882812,15.7460938 18.1492188,15.65 17.9578125,15.4585938 C17.7664062,15.2671875 17.6703125,15.0273438 17.6703125,14.7398438 C17.6703125,14.7398438 17.6703125,14.7398438 17.6703125,14.7398438 C17.6703125,14.5007812 17.7664063,14.2609375 17.9578125,14.0695312 C18.1492187,13.878125 18.3890625,13.7820312 18.628125,13.7820312 C18.8671875,13.7820312 19.1070313,13.878125 19.346875,14.0695312 C19.5382813,14.2609375 19.634375,14.5007812 19.634375,14.7398438 C19.634375,14.7398438 19.634375,14.7398438 19.634375,14.7398438 C19.634375,15.0273437 19.5382813,15.2664062 19.346875,15.4585938 Z M21.3109375,18.3804687 C21.071875,18.571875 20.8320312,18.6679688 20.5921875,18.6679688 C20.3523437,18.6679688 20.1132812,18.571875 19.921875,18.3804687 C19.7304687,18.1890625 19.634375,17.9492188 19.634375,17.7101562 C19.634375,17.7101562 19.634375,17.7101562 19.634375,17.7101562 C19.634375,17.4226563 19.7304688,17.1835938 19.921875,16.9914062 C20.1132812,16.7992187 20.353125,16.7039062 20.5921875,16.7039062 C20.83125,16.7039062 21.0710937,16.8 21.3109375,16.9914062 C21.5023437,17.1828125 21.5984375,17.4226562 21.5984375,17.7101562 C21.5984375,17.7101562 21.5984375,17.7101562 21.5984375,17.7101562 C21.5984375,17.9492188 21.5023437,18.1890625 21.3109375,18.3804687 Z"/>
  <title>Controller Solid</title>
</svg>