<svg xmlns="http://www.w3.org/2000/svg" viewBox="0 0 25 25" id="copy">
  <path d="M22.5992188,5.92734375 C22.5992188,5.92734375 22.5992188,5.92734375 22.5992188,5.92734375 C22.5992188,5.92734375 18.671875,5.92734375 18.671875,5.92734375 C18.671875,5.92734375 18.671875,3.00625 18.671875,3.00625 C18.671875,2.76640625 18.5757812,2.52734375 18.384375,2.2875 C18.1929687,2.09609375 17.953125,2 17.7140625,2 C17.7140625,2 17.7140625,2 17.7140625,2 C17.7140625,2 2.00546875,2 2.00546875,2 C1.76640625,2 1.5265625,2.09609375 1.33515625,2.2875 C1.09609375,2.5265625 1,2.76640625 1,3.00625 C1,3.00625 1,3.00625 1,3.00625 C1,3.00625 1,17.709375 1,17.709375 C1,17.9484375 1.09609375,18.1882813 1.33515625,18.3796875 C1.5265625,18.61875 1.76640625,18.7148438 2.00546875,18.7148438 C2.00546875,18.7148438 2.00546875,18.7148438 2.00546875,18.7148438 C2.00546875,18.7148438 4.9265625,18.7148438 4.9265625,18.7148438 C4.9265625,18.7148438 4.9265625,22.6421875 4.9265625,22.6421875 C4.9265625,22.88125 5.02265625,23.1210938 5.26171875,23.3125 C5.453125,23.5039063 5.69296875,23.6 5.93203125,23.6 C5.93203125,23.6 5.93203125,23.6 5.93203125,23.6 C5.93203125,23.6 22.5984375,23.6 22.5984375,23.6 C22.8375,23.6 23.0773438,23.5039062 23.3171875,23.3125 C23.5085938,23.1210938 23.6046875,22.88125 23.6046875,22.6421875 C23.6046875,22.6421875 23.6046875,22.6421875 23.6046875,22.6421875 C23.6046875,22.6421875 23.6046875,6.93359375 23.6046875,6.93359375 C23.6046875,6.69453125 23.5085937,6.4546875 23.3171875,6.21484375 C23.078125,6.0234375 22.8382813,5.92734375 22.5984375,5.92734375 L22.5992188,5.92734375 Z M2.0046875,17.7085937 C2.0046875,17.7085937 2.0046875,3.00546875 2.0046875,3.00546875 C2.0046875,3.00546875 17.7132812,3.00546875 17.7132812,3.00546875 C17.7132812,3.00546875 17.7132812,17.7085937 17.7132812,17.7085937 C17.7132812,17.7085937 2.0046875,17.7085937 2.0046875,17.7085937 Z M22.5992188,6.9328125 C22.5992188,6.9328125 22.5992188,22.6414062 22.5992188,22.6414062 C22.5992188,22.6414062 5.9328125,22.6414062 5.9328125,22.6414062 C5.9328125,22.6414062 5.9328125,18.7140625 5.9328125,18.7140625 C5.9328125,18.7140625 17.7140625,18.7140625 17.7140625,18.7140625 C17.953125,18.7140625 18.1929687,18.6179687 18.384375,18.3789062 C18.5757813,18.1875 18.671875,17.9476563 18.671875,17.7085937 C18.671875,17.7085937 18.671875,17.7085937 18.671875,17.7085937 C18.671875,17.7085937 18.671875,6.9328125 18.671875,6.9328125 C18.671875,6.9328125 22.5992188,6.9328125 22.5992188,6.9328125 Z"/>
  <title>Copy</title>
</svg>