<svg xmlns="http://www.w3.org/2000/svg" viewBox="0 0 25 25" id="copy-solid">
  <path d="M23.6046875,6.93359375 C23.6046875,6.93359375 23.6046875,6.93359375 23.6046875,6.93359375 C23.6046875,6.93359375 23.6046875,21.6367188 23.6046875,21.6367188 C23.6046875,21.8757812 23.5085937,22.115625 23.3171875,22.3070313 C23.078125,22.5460938 22.8382813,22.6421875 22.5984375,22.6421875 C22.5984375,22.6421875 22.5984375,22.6421875 22.5984375,22.6421875 C22.5984375,22.6421875 6.88984375,22.6421875 6.88984375,22.6421875 C6.65078125,22.6421875 6.4109375,22.5460937 6.21953125,22.3070313 C6.028125,22.115625 5.93203125,21.8757812 5.93203125,21.6367188 C5.93203125,21.6367188 5.93203125,21.6367188 5.93203125,21.6367188 C5.93203125,21.6367188 5.93203125,19.6734375 5.93203125,19.6734375 C5.93203125,19.6734375 17.7132813,19.6734375 17.7132813,19.6734375 C18.2398437,19.6734375 18.71875,19.4820312 19.1023437,19.0984375 C19.4859375,18.7148438 19.6773437,18.2367188 19.6773437,17.709375 C19.6773437,17.709375 19.6773437,17.709375 19.6773437,17.709375 C19.6773437,17.709375 19.6773437,5.928125 19.6773437,5.928125 C19.6773437,5.928125 22.5984375,5.928125 22.5984375,5.928125 C22.8375,5.928125 23.0773437,6.02421875 23.3171875,6.215625 C23.5085938,6.4546875 23.6046875,6.69453125 23.6046875,6.934375 L23.6046875,6.93359375 Z M18.671875,17.709375 C18.671875,17.709375 18.671875,17.709375 18.671875,17.709375 C18.671875,17.709375 18.671875,3.00625 18.671875,3.00625 C18.671875,2.7671875 18.5757812,2.52734375 18.384375,2.2875 C18.1929687,2.09609375 17.953125,2 17.7140625,2 C17.7140625,2 17.7140625,2 17.7140625,2 C17.7140625,2 2.00546875,2 2.00546875,2 C1.76640625,2 1.5265625,2.09609375 1.33515625,2.2875 C1.09609375,2.52734375 1,2.76640625 1,3.00625 C1,3.00625 1,3.00625 1,3.00625 C1,3.00625 1,17.709375 1,17.709375 C1,17.9484375 1.09609375,18.1882813 1.33515625,18.3796875 C1.5265625,18.61875 1.76640625,18.7148438 2.00546875,18.7148438 C2.00546875,18.7148438 2.00546875,18.7148438 2.00546875,18.7148438 C2.00546875,18.7148438 17.7140625,18.7148438 17.7140625,18.7148438 C17.953125,18.7148438 18.1929687,18.61875 18.384375,18.3796875 C18.5757813,18.1882813 18.671875,17.9484375 18.671875,17.709375 Z"/>
  <title>Copy Solid</title>
</svg>