<svg xmlns="http://www.w3.org/2000/svg" viewBox="0 0 25 25" id="credit-solid">
  <path d="M23.0367187,2 C23.0367187,2 23.0367187,2 23.0367187,2 C23.0367187,2 1.48515625,2 1.48515625,2 C1.05390625,2 0.71875,2.14375 0.43125,2.43125 C0.14375,2.71875 0,3.05390625 0,3.48515625 C0,3.48515625 0,3.48515625 0,3.48515625 C0,3.48515625 0,20.1515625 0,20.1515625 C0,20.5828125 0.14375,20.9179688 0.43125,21.2054688 C0.71875,21.4929687 1.05390625,21.6367188 1.48515625,21.6367188 C1.48515625,21.6367188 1.48515625,21.6367188 1.48515625,21.6367188 C1.48515625,21.6367188 23.0367187,21.6367188 23.0367187,21.6367188 C23.4679687,21.6367188 23.803125,21.4929687 24.090625,21.2054688 C24.378125,20.9179688 24.521875,20.5828125 24.521875,20.1515625 C24.521875,20.1515625 24.521875,20.1515625 24.521875,20.1515625 C24.521875,20.1515625 24.521875,3.48515625 24.521875,3.48515625 C24.521875,3.05390625 24.378125,2.71875 24.090625,2.43125 C23.803125,2.14375 23.4679687,2 23.0367187,2 Z M7.37578125,17.709375 C7.37578125,17.709375 7.37578125,17.709375 7.37578125,17.709375 C7.37578125,17.709375 3.4484375,17.709375 3.4484375,17.709375 C3.11328125,17.709375 2.921875,17.5179687 2.921875,17.1828125 C2.921875,17.1828125 2.921875,17.1828125 2.921875,17.1828125 C2.921875,16.8476562 3.11328125,16.7039062 3.4484375,16.7039062 C3.4484375,16.7039062 3.4484375,16.7039062 3.4484375,16.7039062 C3.4484375,16.7039062 7.37578125,16.7039062 7.37578125,16.7039062 C7.7109375,16.7039062 7.8546875,16.8476562 7.8546875,17.1828125 C7.8546875,17.1828125 7.8546875,17.1828125 7.8546875,17.1828125 C7.8546875,17.5179687 7.7109375,17.709375 7.37578125,17.709375 Z M23.5632812,6.88515625 C23.5632812,6.88515625 23.5632812,9.8546875 23.5632812,9.8546875 C23.5632812,9.8546875 0.9578125,9.8546875 0.9578125,9.8546875 C0.9578125,9.8546875 0.9578125,6.88515625 0.9578125,6.88515625 C0.9578125,6.88515625 23.5632812,6.88515625 23.5632812,6.88515625 Z"/>
  <title>Credit Solid</title>
</svg>