<svg xmlns="http://www.w3.org/2000/svg" viewBox="0 0 25 25" id="credit">
  <path d="M23.0367187,2 C23.0367187,2 23.0367187,2 23.0367187,2 C23.0367187,2 1.48515625,2 1.48515625,2 C1.05390625,2 0.71875,2.14375 0.43125,2.43125 C0.14375,2.71875 0,3.05390625 0,3.48515625 C0,3.48515625 0,3.48515625 0,3.48515625 C0,3.48515625 0,20.1515625 0,20.1515625 C0,20.5828125 0.14375,20.9179688 0.43125,21.2054688 C0.71875,21.4929687 1.05390625,21.6367188 1.48515625,21.6367188 C1.48515625,21.6367188 1.48515625,21.6367188 1.48515625,21.6367188 C1.48515625,21.6367188 23.0367187,21.6367188 23.0367187,21.6367188 C23.4679687,21.6367188 23.803125,21.4929687 24.090625,21.2054688 C24.378125,20.9179688 24.521875,20.5828125 24.521875,20.1515625 C24.521875,20.1515625 24.521875,20.1515625 24.521875,20.1515625 C24.521875,20.1515625 24.521875,3.48515625 24.521875,3.48515625 C24.521875,3.05390625 24.378125,2.71875 24.090625,2.43125 C23.803125,2.14375 23.4679687,2 23.0367187,2 Z M23.5632813,10.8601562 C23.5632813,10.8601562 23.5632813,20.1515625 23.5632813,20.1515625 C23.5632813,20.4867188 23.371875,20.678125 23.0367187,20.678125 C23.0367187,20.678125 23.0367187,20.678125 23.0367187,20.678125 C23.0367187,20.678125 1.48515625,20.678125 1.48515625,20.678125 C1.15,20.678125 0.95859375,20.4867188 0.95859375,20.1515625 C0.95859375,20.1515625 0.95859375,20.1515625 0.95859375,20.1515625 C0.95859375,20.1515625 0.95859375,10.8601562 0.95859375,10.8601562 C0.95859375,10.8601562 23.5640625,10.8601562 23.5640625,10.8601562 L23.5632813,10.8601562 Z M23.5632812,6.9328125 C23.5632812,6.9328125 23.5632812,9.85390625 23.5632812,9.85390625 C23.5632812,9.85390625 0.9578125,9.85390625 0.9578125,9.85390625 C0.9578125,9.85390625 0.9578125,6.9328125 0.9578125,6.9328125 C0.9578125,6.9328125 23.5632812,6.9328125 23.5632812,6.9328125 L23.5632812,6.9328125 Z M23.5632812,3.484375 C23.5632812,3.484375 23.5632812,5.9265625 23.5632812,5.9265625 C23.5632812,5.9265625 0.9578125,5.9265625 0.9578125,5.9265625 C0.9578125,5.9265625 0.9578125,3.484375 0.9578125,3.484375 C0.9578125,3.14921875 1.14921875,3.00546875 1.484375,3.00546875 C1.484375,3.00546875 1.484375,3.00546875 1.484375,3.00546875 C1.484375,3.00546875 23.0359375,3.00546875 23.0359375,3.00546875 C23.3710937,3.00546875 23.5625,3.14921875 23.5625,3.484375 C23.5625,3.484375 23.5625,3.484375 23.5625,3.484375 L23.5632812,3.484375 Z M3.4484375,17.7085937 C3.11328125,17.7085937 2.921875,17.5648437 2.921875,17.2296875 C2.921875,16.8945312 3.11328125,16.7507812 3.4484375,16.7507812 C3.4484375,16.7507812 3.4484375,16.7507812 3.4484375,16.7507812 C3.4484375,16.7507812 7.37578125,16.7507812 7.37578125,16.7507812 C7.7109375,16.7507812 7.8546875,16.8945312 7.8546875,17.2296875 C7.8546875,17.5648437 7.7109375,17.7085937 7.37578125,17.7085937 C7.37578125,17.7085937 7.37578125,17.7085937 7.37578125,17.7085937 C7.37578125,17.7085937 3.4484375,17.7085937 3.4484375,17.7085937 Z"/>
  <title>Credit</title>
</svg>