<svg xmlns="http://www.w3.org/2000/svg" viewBox="0 0 25 25" id="crop">
  <path d="M24.0429688,19.6351562 C24.378125,19.6351562 24.521875,19.7789062 24.521875,20.1140625 C24.521875,20.4492187 24.378125,20.5929687 24.0429688,20.5929687 C24.0429688,20.5929687 24.0429688,20.5929687 24.0429688,20.5929687 C24.0429688,20.5929687 5.4125,20.5929687 5.4125,20.5929687 C4.98125,20.5929687 4.64609375,20.4492187 4.35859375,20.1617187 C4.07109375,19.8742188 3.92734375,19.5390625 3.92734375,19.1078125 C3.92734375,19.1078125 3.92734375,19.1078125 3.92734375,19.1078125 C3.92734375,19.1078125 3.92734375,5.8890625 3.92734375,5.8890625 C3.92734375,5.8890625 4.9328125,5.8890625 4.9328125,5.8890625 C4.9328125,5.8890625 4.9328125,18.915625 4.9328125,18.915625 C4.9328125,18.915625 18.965625,4.8828125 18.965625,4.8828125 C18.965625,4.8828125 0.5265625,4.8828125 0.5265625,4.8828125 C0.19140625,4.8828125 0,4.7390625 0,4.40390625 C0,4.06875 0.19140625,3.925 0.5265625,3.925 C0.5265625,3.925 0.5265625,3.925 0.5265625,3.925 C0.5265625,3.925 19.1570313,3.925 19.1570313,3.925 C19.3960938,3.925 19.5882812,3.97265625 19.7796875,4.06875 C19.7796875,4.06875 19.7796875,4.06875 19.7796875,4.06875 C19.7796875,4.06875 22.7492188,1.09921875 22.7492188,1.09921875 C22.8453125,1.003125 22.940625,0.95546875 23.084375,0.95546875 C23.084375,0.95546875 23.084375,0.95546875 23.084375,0.95546875 C23.4195313,0.95546875 23.5632813,1.146875 23.5632813,1.48203125 C23.5632813,1.48203125 23.5632813,1.48203125 23.5632813,1.48203125 C23.5632813,1.62578125 23.515625,1.721875 23.4195313,1.8171875 C23.4195313,1.8171875 23.4195313,1.8171875 23.4195313,1.8171875 C23.4195313,1.8171875 20.45,4.73828125 20.45,4.73828125 C20.59375,4.97734375 20.6414063,5.2171875 20.6414063,5.40859375 C20.6414063,5.40859375 20.6414063,5.40859375 20.6414063,5.40859375 C20.6414063,5.40859375 20.6414063,18.6273437 20.6414063,18.6273437 C20.6414063,18.6273437 19.6359375,18.6273437 19.6359375,18.6273437 C19.6359375,18.6273437 19.6359375,5.60078125 19.6359375,5.60078125 C19.6359375,5.60078125 5.603125,19.6335937 5.603125,19.6335937 C5.603125,19.6335937 24.0421875,19.6335937 24.0421875,19.6335937 L24.0429688,19.6351562 Z M19.6367188,21.5992187 C19.6367188,21.5992187 19.6367188,24.0414063 19.6367188,24.0414063 C19.6367188,24.3765625 19.7804688,24.5203125 20.115625,24.5203125 C20.115625,24.5203125 20.115625,24.5203125 20.115625,24.5203125 C20.4507813,24.5203125 20.6421875,24.3765625 20.6421875,24.0414063 C20.6421875,24.0414063 20.6421875,24.0414063 20.6421875,24.0414063 C20.6421875,24.0414063 20.6421875,21.5992187 20.6421875,21.5992187 C20.6421875,21.5992187 19.6367188,21.5992187 19.6367188,21.5992187 Z M4.93359375,2.92109375 C4.93359375,2.92109375 4.93359375,0.47890625 4.93359375,0.47890625 C4.93359375,0.14375 4.78984375,0 4.4546875,0 C4.4546875,0 4.4546875,0 4.4546875,0 C4.11953125,0 3.928125,0.14375 3.928125,0.47890625 C3.928125,0.47890625 3.928125,0.47890625 3.928125,0.47890625 C3.928125,0.47890625 3.928125,2.92109375 3.928125,2.92109375 C3.928125,2.92109375 4.93359375,2.92109375 4.93359375,2.92109375 Z"/>
  <title>Crop</title>
</svg>