<svg xmlns="http://www.w3.org/2000/svg" viewBox="0 0 25 25" id="cuppa">
  <path d="M21.6414062,7.89609375 C21.6414062,7.89609375 21.6414062,7.89609375 21.6414062,7.89609375 C21.6414062,7.89609375 2.00546875,7.89609375 2.00546875,7.89609375 C1.76640625,7.89609375 1.5265625,7.9921875 1.33515625,8.18359375 C1.09609375,8.375 1,8.61484375 1,8.85390625 C1,8.85390625 1,8.85390625 1,8.85390625 C1,8.85390625 1,13.7867188 1,13.7867188 C1,15.9421875 1.76640625,17.809375 3.29921875,19.3421875 C4.83203125,20.875 6.7,21.6414063 8.8546875,21.6414063 C8.8546875,21.6414063 8.8546875,21.6414063 8.8546875,21.6414063 C8.8546875,21.6414063 12.7820313,21.6414063 12.7820313,21.6414063 C14.9375,21.6414063 16.8046875,20.875 18.3375,19.3421875 C19.8703125,17.809375 20.6367188,15.9421875 20.6367188,13.7867188 C20.6367188,13.7867188 20.6367188,13.7867188 20.6367188,13.7867188 C20.6367188,13.7867188 21.6421875,13.7867188 21.6421875,13.7867188 C22.45625,13.7867188 23.1265625,13.4992188 23.7015625,12.8765625 C24.2765625,12.3015625 24.5632812,11.63125 24.5632812,10.8171875 C24.5632812,10.003125 24.2757812,9.3328125 23.7015625,8.7578125 C23.1265625,8.1828125 22.45625,7.89609375 21.6421875,7.89609375 L21.6414062,7.89609375 Z M19.6773437,8.85390625 C19.6773437,8.85390625 19.6773437,13.7867188 19.6773437,13.7867188 C19.6773437,15.6546875 19.0070312,17.2828125 17.665625,18.6242188 C16.2765625,19.9648438 14.6484375,20.6359375 12.7804687,20.6359375 C12.7804687,20.6359375 12.7804687,20.6359375 12.7804687,20.6359375 C12.7804687,20.6359375 8.853125,20.6359375 8.853125,20.6359375 C6.98515625,20.6359375 5.35703125,19.965625 4.015625,18.6242188 C2.67421875,17.2828125 2.00390625,15.6546875 2.00390625,13.7867188 C2.00390625,13.7867188 2.00390625,13.7867188 2.00390625,13.7867188 C2.00390625,13.7867188 2.00390625,11.8234375 2.00390625,11.8234375 C2.00390625,11.8234375 16.228125,11.8234375 16.228125,11.8234375 C16.5632812,11.8234375 16.7070312,11.6320313 16.7070312,11.296875 C16.7070312,11.296875 16.7070312,11.296875 16.7070312,11.296875 C16.7070312,10.9617188 16.5632812,10.8179688 16.228125,10.8179688 C16.228125,10.8179688 16.228125,10.8179688 16.228125,10.8179688 C16.228125,10.8179688 2.00390625,10.8179688 2.00390625,10.8179688 C2.00390625,10.8179688 2.00390625,8.8546875 2.00390625,8.8546875 C2.00390625,8.8546875 19.6765625,8.8546875 19.6765625,8.8546875 L19.6773437,8.85390625 Z M21.6414062,12.78125 C21.6414062,12.78125 21.6414062,12.78125 21.6414062,12.78125 C21.6414062,12.78125 20.6359375,12.78125 20.6359375,12.78125 C20.6359375,12.78125 20.6359375,8.85390625 20.6359375,8.85390625 C20.6359375,8.85390625 21.6414062,8.85390625 21.6414062,8.85390625 C22.1679688,8.85390625 22.646875,9.0453125 23.0304687,9.42890625 C23.4132812,9.86015625 23.6054688,10.290625 23.6054688,10.8179688 C23.6054688,10.8179688 23.6054688,10.8179688 23.6054688,10.8179688 C23.6054688,11.3445313 23.4140625,11.8234375 23.0304687,12.2070313 C22.646875,12.590625 22.16875,12.7820313 21.6414062,12.7820313 L21.6414062,12.78125 Z M17.1867188,22.5992187 C17.521875,22.5992187 17.7132813,22.7429687 17.7132813,23.078125 C17.7132813,23.4132812 17.521875,23.5570312 17.1867188,23.5570312 C17.1867188,23.5570312 17.1867188,23.5570312 17.1867188,23.5570312 C17.1867188,23.5570312 5.453125,23.5570312 5.453125,23.5570312 C5.11796875,23.5570312 4.9265625,23.4132812 4.9265625,23.078125 C4.9265625,22.7429687 5.11796875,22.5992187 5.453125,22.5992187 C5.453125,22.5992187 5.453125,22.5992187 5.453125,22.5992187 C5.453125,22.5992187 17.1867188,22.5992187 17.1867188,22.5992187 Z M13.834375,6.50703125 C13.834375,6.50703125 13.834375,6.50703125 13.834375,6.50703125 C13.7867188,6.36328125 13.7867188,6.171875 13.7867188,5.83671875 C13.7867188,5.83671875 13.7867188,5.83671875 13.7867188,5.83671875 C13.7867188,4.83125 14.2179688,4.0171875 15.0320313,3.39453125 C15.0320313,3.39453125 15.0320313,3.39453125 15.0320313,3.39453125 C15.6546875,2.86796875 15.8460938,2.29296875 15.7023438,1.6703125 C15.7023438,1.6703125 15.7023438,1.6703125 15.7023438,1.6703125 C15.7023438,1.6703125 15.7023438,1.5265625 15.7023438,1.5265625 C15.7023438,1.2390625 15.7984375,1.0953125 16.0375,1.04765625 C16.0375,1.04765625 16.0375,1.04765625 16.0375,1.04765625 C16.0851563,1 16.0851563,1 16.1335938,1 C16.1335938,1 16.1335938,1 16.1335938,1 C16.3726563,1 16.5648438,1.14375 16.6125,1.3828125 C16.6125,1.3828125 16.6125,1.3828125 16.6125,1.3828125 C16.6601562,1.71796875 16.7085938,1.9578125 16.7085938,2.14921875 C16.7085938,2.14921875 16.7085938,2.14921875 16.7085938,2.14921875 C16.7085938,3.0109375 16.3734375,3.68203125 15.6546875,4.1609375 C15.6546875,4.1609375 15.6546875,4.1609375 15.6546875,4.1609375 C15.0320313,4.54375 14.696875,5.11875 14.696875,5.8375 C14.696875,5.8375 14.696875,5.8375 14.696875,5.8375 C14.696875,6.0765625 14.696875,6.2203125 14.7445313,6.31640625 C14.7445313,6.31640625 14.7445313,6.31640625 14.7445313,6.31640625 C14.7445313,6.31640625 14.7445313,6.4125 14.7445313,6.4125 C14.7445313,6.6515625 14.6484375,6.84375 14.409375,6.89140625 C14.409375,6.89140625 14.409375,6.89140625 14.409375,6.89140625 C14.409375,6.89140625 14.3132813,6.89140625 14.3132813,6.89140625 C14.0742188,6.89140625 13.8820313,6.74765625 13.834375,6.50859375 L13.834375,6.50703125 Z M9.90703125,6.50703125 C9.90703125,6.50703125 9.90703125,6.50703125 9.90703125,6.50703125 C9.859375,6.36328125 9.859375,6.171875 9.859375,5.83671875 C9.859375,5.83671875 9.859375,5.83671875 9.859375,5.83671875 C9.859375,4.83125 10.290625,4.0171875 11.1046875,3.39453125 C11.1046875,3.39453125 11.1046875,3.39453125 11.1046875,3.39453125 C11.7273437,2.86796875 11.91875,2.29296875 11.775,1.6703125 C11.775,1.6703125 11.775,1.6703125 11.775,1.6703125 C11.775,1.6703125 11.775,1.5265625 11.775,1.5265625 C11.775,1.2875 11.8710938,1.0953125 12.1101562,1.04765625 C12.1101562,1.04765625 12.1101562,1.04765625 12.1101562,1.04765625 C12.1578125,1 12.1578125,1 12.20625,1 C12.20625,1 12.20625,1 12.20625,1 C12.4453125,1 12.6375,1.14375 12.6851562,1.3828125 C12.6851562,1.3828125 12.6851562,1.3828125 12.6851562,1.3828125 C12.7328125,1.71796875 12.78125,1.9578125 12.78125,2.14921875 C12.78125,2.14921875 12.78125,2.14921875 12.78125,2.14921875 C12.78125,3.0109375 12.4460938,3.68203125 11.7273437,4.1609375 C11.7273437,4.1609375 11.7273437,4.1609375 11.7273437,4.1609375 C11.1046875,4.54375 10.7695312,5.11875 10.7695312,5.8375 C10.7695312,5.8375 10.7695312,5.8375 10.7695312,5.8375 C10.7695312,6.0765625 10.7695312,6.2203125 10.8171875,6.31640625 C10.8171875,6.31640625 10.8171875,6.31640625 10.8171875,6.31640625 C10.8171875,6.31640625 10.8171875,6.4125 10.8171875,6.4125 C10.8171875,6.6515625 10.7210938,6.84375 10.4820313,6.89140625 C10.4820313,6.89140625 10.4820313,6.89140625 10.4820313,6.89140625 C10.4820313,6.89140625 10.3859375,6.89140625 10.3859375,6.89140625 C10.146875,6.89140625 9.9546875,6.74765625 9.90703125,6.50859375 L9.90703125,6.50703125 Z M5.98046875,6.50703125 C5.98046875,6.50703125 5.98046875,6.50703125 5.98046875,6.50703125 C5.9328125,6.36328125 5.9328125,6.171875 5.9328125,5.83671875 C5.9328125,5.83671875 5.9328125,5.83671875 5.9328125,5.83671875 C5.9328125,4.83125 6.3640625,4.0171875 7.178125,3.39453125 C7.178125,3.39453125 7.178125,3.39453125 7.178125,3.39453125 C7.4171875,3.15546875 7.609375,3.01171875 7.65703125,2.915625 C7.7046875,2.81953125 7.80078125,2.628125 7.94453125,2.3890625 C8.040625,2.15 7.9921875,1.91015625 7.8484375,1.6703125 C7.8484375,1.6703125 7.8484375,1.6703125 7.8484375,1.6703125 C7.8484375,1.6703125 7.8484375,1.5265625 7.8484375,1.5265625 C7.8484375,1.2875 7.94453125,1.0953125 8.18359375,1.04765625 C8.18359375,1.04765625 8.18359375,1.04765625 8.18359375,1.04765625 C8.18359375,1.04765625 8.23125,1.04765625 8.23125,1.04765625 C8.23125,1.04765625 8.27890625,1 8.27890625,1 C8.51796875,1 8.71015625,1.14375 8.7578125,1.3828125 C8.7578125,1.3828125 8.7578125,1.3828125 8.7578125,1.3828125 C8.80546875,1.71796875 8.85390625,1.9578125 8.85390625,2.14921875 C8.85390625,2.14921875 8.85390625,2.14921875 8.85390625,2.14921875 C8.85390625,3.0109375 8.51875,3.68203125 7.8,4.1609375 C7.8,4.1609375 7.8,4.1609375 7.8,4.1609375 C7.17734375,4.54375 6.8421875,5.11875 6.8421875,5.8375 C6.8421875,5.8375 6.8421875,5.8375 6.8421875,5.8375 C6.8421875,5.88515625 6.8421875,5.98125 6.88984375,6.0765625 C6.88984375,6.2203125 6.88984375,6.26796875 6.88984375,6.315625 C6.88984375,6.315625 6.88984375,6.315625 6.88984375,6.315625 C6.88984375,6.315625 6.9375,6.36328125 6.9375,6.36328125 C6.9375,6.36328125 6.9375,6.4109375 6.9375,6.4109375 C6.9375,6.65 6.79375,6.8421875 6.5546875,6.88984375 C6.5546875,6.88984375 6.5546875,6.88984375 6.5546875,6.88984375 C6.5546875,6.88984375 6.45859375,6.88984375 6.45859375,6.88984375 C6.21953125,6.88984375 6.02734375,6.74609375 5.9796875,6.50703125 L5.98046875,6.50703125 Z"/>
  <title>Cuppa</title>
</svg>