<svg xmlns="http://www.w3.org/2000/svg" viewBox="0 0 25 25" id="cuppa-solid">
  <path d="M13.8351562,6.5078125 C13.8351562,6.5078125 13.8351562,6.46015625 13.8351562,6.46015625 C13.7875,6.31640625 13.7875,6.125 13.7875,5.78984375 C13.7875,5.78984375 13.7875,5.78984375 13.7875,5.78984375 C13.7875,4.784375 14.21875,3.9703125 15.0328125,3.3953125 C15.0328125,3.3953125 15.0328125,3.3953125 15.0328125,3.3953125 C15.271875,3.15625 15.415625,3.0125 15.5117188,2.86875 C15.6078125,2.77265625 15.703125,2.58125 15.7992187,2.3421875 C15.846875,2.103125 15.846875,1.86328125 15.703125,1.6234375 C15.703125,1.6234375 15.703125,1.6234375 15.703125,1.6234375 C15.703125,1.6234375 15.703125,1.4796875 15.703125,1.4796875 C15.703125,1.240625 15.7992187,1.096875 16.0382812,1.00078125 C16.0382812,1.00078125 16.0382812,1.00078125 16.0382812,1.00078125 C16.0382812,1.00078125 16.134375,1.00078125 16.134375,1.00078125 C16.3734375,1.00078125 16.565625,1.096875 16.6132812,1.3359375 C16.6132812,1.3359375 16.6132812,1.3359375 16.6132812,1.3359375 C16.6609375,1.67109375 16.709375,1.9109375 16.709375,2.10234375 C16.709375,2.10234375 16.709375,2.10234375 16.709375,2.10234375 C16.709375,2.9640625 16.3742187,3.63515625 15.6554687,4.1140625 C15.6554687,4.1140625 15.6554687,4.1140625 15.6554687,4.1140625 C15.0328125,4.5453125 14.6976562,5.071875 14.6976562,5.790625 C14.6976562,5.790625 14.6976562,5.790625 14.6976562,5.790625 C14.6976562,6.0296875 14.6976562,6.221875 14.7453125,6.3171875 C14.7453125,6.3171875 14.7453125,6.3171875 14.7453125,6.3171875 C14.7453125,6.3171875 14.7453125,6.41328125 14.7453125,6.41328125 C14.7453125,6.65234375 14.6492187,6.84453125 14.4101562,6.8921875 C14.4101562,6.8921875 14.4101562,6.8921875 14.4101562,6.8921875 C14.4101562,6.8921875 14.3140625,6.8921875 14.3140625,6.8921875 C14.075,6.8921875 13.8828125,6.7484375 13.8351562,6.509375 C13.8351562,6.509375 13.8351562,6.509375 13.8351562,6.509375 L13.8351562,6.5078125 Z M17.1875,22.5523437 C17.1875,22.5523437 17.1875,22.5523437 17.1875,22.5523437 C17.1875,22.5523437 5.45390625,22.5523437 5.45390625,22.5523437 C5.11875,22.5523437 4.92734375,22.74375 4.92734375,23.0789062 C4.92734375,23.0789062 4.92734375,23.0789062 4.92734375,23.0789062 C4.92734375,23.4140625 5.11875,23.5578125 5.45390625,23.5578125 C5.45390625,23.5578125 5.45390625,23.5578125 5.45390625,23.5578125 C5.45390625,23.5578125 17.1875,23.5578125 17.1875,23.5578125 C17.5226563,23.5578125 17.7140625,23.4140625 17.7140625,23.0789062 C17.7140625,23.0789062 17.7140625,23.0789062 17.7140625,23.0789062 C17.7140625,22.74375 17.5226563,22.5523437 17.1875,22.5523437 Z M23.7015625,8.7109375 C24.2765625,9.33359375 24.5632812,10.0039062 24.5632812,10.8179687 C24.5632812,11.6320313 24.2757812,12.3023437 23.7015625,12.8773437 C23.1265625,13.4523437 22.45625,13.7390625 21.6421875,13.7390625 C21.6421875,13.7390625 21.6421875,13.7390625 21.6421875,13.7390625 C21.6421875,13.7390625 20.6367188,13.7390625 20.6367188,13.7390625 C20.6367188,15.8945312 19.8703125,17.7617188 18.3375,19.2945312 C16.8046875,20.8273438 14.9375,21.59375 12.7820313,21.59375 C12.7820313,21.59375 12.7820313,21.59375 12.7820313,21.59375 C12.7820313,21.59375 8.8546875,21.59375 8.8546875,21.59375 C6.69921875,21.59375 4.83203125,20.8273438 3.29921875,19.2945312 C1.76640625,17.7617188 1,15.8945312 1,13.7390625 C1,13.7390625 1,13.7390625 1,13.7390625 C1,13.7390625 1,11.7757813 1,11.7757813 C1,11.7757813 16.2296875,11.7757813 16.2296875,11.7757813 C16.5648437,11.7757813 16.7085937,11.6320313 16.7085937,11.296875 C16.7085937,10.9617188 16.5648437,10.8179688 16.2296875,10.8179688 C16.2296875,10.8179688 16.2296875,10.8179688 16.2296875,10.8179688 C16.2296875,10.8179688 1,10.8179688 1,10.8179688 C1,10.8179688 1,8.8546875 1,8.8546875 C1,8.5671875 1.09609375,8.328125 1.33515625,8.1359375 C1.5265625,7.94453125 1.76640625,7.8484375 2.00546875,7.8484375 C2.00546875,7.8484375 2.00546875,7.8484375 2.00546875,7.8484375 C2.00546875,7.8484375 21.6414062,7.8484375 21.6414062,7.8484375 C22.4554688,7.8484375 23.1257812,8.1359375 23.7007812,8.71015625 L23.7015625,8.7109375 Z M23.6054688,10.81875 C23.6054688,10.81875 23.6054688,10.81875 23.6054688,10.81875 C23.5578125,10.2921875 23.3664062,9.81328125 23.0304687,9.4296875 C22.6476563,9.046875 22.16875,8.8546875 21.6414062,8.8546875 C21.6414062,8.8546875 21.6414062,8.8546875 21.6414062,8.8546875 C21.6414062,8.8546875 20.6359375,8.8546875 20.6359375,8.8546875 C20.6359375,8.8546875 20.6359375,12.7820312 20.6359375,12.7820312 C20.6359375,12.7820312 21.6414062,12.7820312 21.6414062,12.7820312 C22.1679688,12.7820312 22.5992187,12.590625 22.9820313,12.2070312 C23.3648438,11.8234375 23.5570313,11.3453125 23.6046875,10.8179687 L23.6054688,10.81875 Z M10.3867188,6.89140625 C10.3867188,6.89140625 10.3867188,6.89140625 10.3867188,6.89140625 C10.3867188,6.89140625 10.4828125,6.89140625 10.4828125,6.89140625 C10.721875,6.84375 10.8179688,6.65234375 10.8179688,6.4125 C10.8179688,6.4125 10.8179688,6.4125 10.8179688,6.4125 C10.8179688,6.4125 10.8179688,6.31640625 10.8179688,6.31640625 C10.7703125,6.2203125 10.7703125,6.07734375 10.7703125,5.8375 C10.7703125,5.8375 10.7703125,5.8375 10.7703125,5.8375 C10.7703125,5.11875 11.0578125,4.54453125 11.6804688,4.11328125 C11.6804688,4.11328125 11.6804688,4.11328125 11.6804688,4.11328125 C12.3992188,3.634375 12.7820313,2.9640625 12.7820313,2.1015625 C12.7820313,2.1015625 12.7820313,2.1015625 12.7820313,2.1015625 C12.7820313,1.91015625 12.734375,1.6703125 12.6859375,1.33515625 C12.6859375,1.33515625 12.6859375,1.33515625 12.6859375,1.33515625 C12.6382813,1.09609375 12.446875,1 12.2070312,1 C12.2070312,1 12.2070312,1 12.2070312,1 C12.2070312,1 12.1109375,1 12.1109375,1 C11.871875,1.14375 11.7757813,1.2875 11.7757813,1.47890625 C11.7757813,1.47890625 11.7757813,1.47890625 11.7757813,1.47890625 C11.7757813,1.47890625 11.7757813,1.62265625 11.7757813,1.62265625 C11.871875,2.05390625 11.871875,2.34140625 11.7757813,2.58046875 C11.6796875,2.81953125 11.440625,3.059375 11.1054688,3.39453125 C11.1054688,3.39453125 11.1054688,3.39453125 11.1054688,3.39453125 C10.2914063,3.96953125 9.86015625,4.78359375 9.86015625,5.7890625 C9.86015625,5.7890625 9.86015625,5.7890625 9.86015625,5.7890625 C9.86015625,6.12421875 9.86015625,6.3640625 9.9078125,6.5078125 C9.9078125,6.5078125 9.9078125,6.5078125 9.9078125,6.5078125 C9.95546875,6.746875 10.146875,6.890625 10.3867188,6.890625 L10.3867188,6.89140625 Z M6.46015625,6.89140625 C6.46015625,6.89140625 6.46015625,6.89140625 6.46015625,6.89140625 C6.46015625,6.89140625 6.55625,6.89140625 6.55625,6.89140625 C6.7953125,6.84375 6.9390625,6.65234375 6.9390625,6.4125 C6.9390625,6.4125 6.9390625,6.4125 6.9390625,6.4125 C6.9390625,6.4125 6.89140625,6.31640625 6.89140625,6.31640625 C6.89140625,6.26875 6.89140625,6.2203125 6.89140625,6.07734375 C6.84375,5.93359375 6.84375,5.83828125 6.84375,5.78984375 C6.84375,5.78984375 6.84375,5.78984375 6.84375,5.78984375 C6.84375,5.11953125 7.13125,4.54453125 7.75390625,4.11328125 C7.75390625,4.11328125 7.75390625,4.11328125 7.75390625,4.11328125 C8.47265625,3.634375 8.85546875,2.9640625 8.85546875,2.1015625 C8.85546875,2.1015625 8.85546875,2.1015625 8.85546875,2.1015625 C8.85546875,1.91015625 8.8078125,1.6703125 8.759375,1.33515625 C8.759375,1.33515625 8.759375,1.33515625 8.759375,1.33515625 C8.71171875,1.09609375 8.5203125,1 8.28046875,1 C8.28046875,1 8.28046875,1 8.28046875,1 C8.28046875,1 8.184375,1 8.184375,1 C7.9453125,1.14375 7.84921875,1.2875 7.84921875,1.47890625 C7.84921875,1.47890625 7.84921875,1.47890625 7.84921875,1.47890625 C7.84921875,1.47890625 7.84921875,1.62265625 7.84921875,1.62265625 C8.040625,2.2453125 7.8015625,2.8203125 7.17890625,3.39453125 C7.17890625,3.39453125 7.17890625,3.39453125 7.17890625,3.39453125 C6.36484375,3.96953125 5.93359375,4.78359375 5.93359375,5.7890625 C5.93359375,5.7890625 5.93359375,5.7890625 5.93359375,5.7890625 C5.93359375,6.12421875 5.93359375,6.3640625 5.98125,6.5078125 C5.98125,6.5078125 5.98125,6.5078125 5.98125,6.5078125 C6.02890625,6.746875 6.2203125,6.890625 6.46015625,6.890625 L6.46015625,6.89140625 Z"/>
  <title>Cuppa Solid</title>
</svg>