<svg xmlns="http://www.w3.org/2000/svg" viewBox="0 0 25 25" id="dataviz-flip-counter">
  <path d="M9.2 18L6.93 18 6.93 13 2 13 2 22C2 22.5522847 2.44771525 23 3 23L11 23C11.5522847 23 12 22.5522847 12 22L12 13 9.2 13 9.2 18zM11 2L3 2C2.44771525 2 2 2.44771525 2 3L2 12 6.93 12 6.93 11.8 6.93 10.8 7 9.67C6.63 10.05 6.36 10.29 6.22 10.41L5 11.4 3.89 10 7.34 7.29 9.2 7.29 9.2 12 12 12 12 3C12 2.44771525 11.5522847 2 11 2zM22 2L14 2C13.4477153 2 13 2.44771525 13 3L13 12 18.86 12C19.0694236 11.7367686 19.2441855 11.4477393 19.38 11.14 19.4829781 10.8717759 19.5371642 10.5872989 19.54 10.3 19.5806524 9.92898404 19.4478075 9.5599704 19.18 9.3 18.9126769 9.08344048 18.5732131 8.97624137 18.23 9 17.8015889 9.00716493 17.380632 9.11325977 17 9.31 16.5615661 9.53281568 16.1518862 9.80817429 15.78 10.13L14.57 8.67C14.9710761 8.29245731 15.4100716 7.95734624 15.88 7.67 16.2358838 7.49677719 16.6121831 7.36910422 17 7.29 17.449098 7.18582242 17.9089995 7.13546825 18.37 7.14 18.9825166 7.12842884 19.5901196 7.25131484 20.15 7.5 20.6313788 7.7170821 21.0432585 8.06319953 21.34 8.5 21.6322065 8.94581981 21.7885468 9.46695419 21.79 10 21.7908307 10.4754983 21.7026454 10.9469505 21.53 11.39 21.4453531 11.5858798 21.348496 11.776254 21.24 11.96L23 11.96 23 3C23 2.44771525 22.5522847 2 22 2zM18.8 14.7L17.42 16 17.42 16.11 22.09 16.11 22.09 18 14.6 18 14.6 16.43 17.29 13.71 18 13 13 13 13 22C13 22.5522847 13.4477153 23 14 23L22 23C22.5522847 23 23 22.5522847 23 22L23 13 20.51 13C20.13 13.43 19.57 14 18.8 14.7z"/>
  <title>Dataviz Flip Counter</title>
</svg>