<svg xmlns="http://www.w3.org/2000/svg" viewBox="0 0 25 25" id="dataviz-pivot-table">
  <path d="M0,2 L0,23 L24,23 L24,2 L0,2 Z M23,7 L12.5,7 L12.5,5 L23,5 L23,7 Z M11.5,17 L4,17 L4,12 L20,12 L20,17 L11.5,17 Z M21,18 L21,9 L12.5,9 L12.5,8 L23,8 L23,19 L12.5,19 L12.5,18 L21,18 Z M1,5 L11.5,5 L11.5,7 L1,7 L1,5 Z M1,8 L11.5,8 L11.5,9 L3,9 L3,18 L11.5,18 L11.5,19 L1,19 L1,8 Z M1,20 L11.5,20 L11.5,22 L1,22 L1,20 Z M12.5,22 L12.5,20 L23,20 L23,22 L12.5,22 Z"/>
  <title>Dataviz Pivot Table</title>
</svg>