<svg xmlns="http://www.w3.org/2000/svg" viewBox="0 0 25 25" id="dataviz-multiple-line">
  <g fill="none" fill-rule="evenodd">
    <path fill="#000" fill-rule="nonzero" d="M22,5.5 C20.8954305,5.5 20,6.3954305 20,7.5 C20.000613,7.67635081 20.0275774,7.85161989 20.08,8.02 L15.91,11.66 L10.53,7.66 L6.53,11.16 C5.85571723,10.4151042 4.7334484,10.2860976 3.90773256,10.8585663 C3.08201672,11.4310351 2.80919779,12.5272558 3.27027017,13.4199704 C3.73134254,14.3126849 4.78316603,14.7247497 5.72793666,14.3827913 C6.67270729,14.0408329 7.2171205,13.0510126 7,12.07 L10.58,9 L16,13 L20.62,9 C21.2821605,9.58322015 22.2482871,9.6635826 22.9977055,9.19777763 C23.7471239,8.73197267 24.1027263,7.83008257 23.8728679,6.97816276 C23.6430096,6.12624295 22.8820122,5.52562508 22,5.5 Z M5,13.5 C4.44771525,13.5 4,13.0522847 4,12.5 C4,11.9477153 4.44771525,11.5 5,11.5 C5.55228475,11.5 6,11.9477153 6,12.5 C6,13.0522847 5.55228475,13.5 5,13.5 Z M22,8.5 C21.4477153,8.5 21,8.05228475 21,7.5 C21,6.94771525 21.4477153,6.5 22,6.5 C22.5522847,6.5 23,6.94771525 23,7.5 C23,8.05228475 22.5522847,8.5 22,8.5 Z"/>
    <path fill="#000" fill-rule="nonzero" d="M22,10.5 C20.8954305,10.5 20,11.3954305 20,12.5 C20.0025467,12.7039288 20.0362699,12.9062684 20.1,13.1 L15.7,17.1 L10,12.61 L5.73,17.61 C5.49613564,17.5262089 5.24817139,17.4888445 5,17.5 C4.06687652,17.4956981 3.25478178,18.1372427 3.04298022,19.046021 C2.83117866,19.9547993 3.27596327,20.8892746 4.11484074,21.2979585 C4.95371821,21.7066424 5.96373016,21.4809142 6.54880968,20.7539892 C7.1338892,20.0270643 7.13853279,18.992146 6.56,18.26 L10.17,14 L15.74,18.4 L20.64,14 C21.3039147,14.5852036 22.273498,14.6644832 23.0236587,14.1949037 C23.7738194,13.7253242 24.126164,12.8185551 23.8898754,11.9656696 C23.6535868,11.112784 22.8848561,10.5166044 22,10.5 Z M5,20.5 C4.44771525,20.5 4,20.0522847 4,19.5 C4,18.9477153 4.44771525,18.5 5,18.5 C5.55228475,18.5 6,18.9477153 6,19.5 C6,20.0522847 5.55228475,20.5 5,20.5 Z M22,13.5 C21.4477153,13.5 21,13.0522847 21,12.5 C21,11.9477153 21.4477153,11.5 22,11.5 C22.5522847,11.5 23,11.9477153 23,12.5 C23,13.0522847 22.5522847,13.5 22,13.5 Z"/>
    <polygon fill="#000" fill-rule="nonzero" points="2 23 2 1 1 1 1 23 1 24 2 24 24 24 24 23"/>
  </g>
  <title>Dataviz Multiple Line</title>
</svg>