<svg xmlns="http://www.w3.org/2000/svg" xmlns:xlink="http://www.w3.org/1999/xlink" viewBox="0 0 25 25" id="dataviz-simple-value">
  <defs>
    <path id="dataviz-simple-value-a" d="M5.24804688,16.6894531 L5.24804688,8.12304688 L3.75976562,8.12304688 L1,10.3203125 L1.87304688,11.4101562 L2.85742188,10.6191406 C2.97460938,10.5253906 3.18359375,10.328125 3.484375,10.0273438 L3.484375,10.0273438 L3.45507812,10.9179688 L3.4375,11.7324219 L3.4375,16.6894531 L5.24804688,16.6894531 Z M8.85742188,16.8476562 C9.17773438,16.8476562 9.42773438,16.7587891 9.60742188,16.5810547 C9.78710938,16.4033203 9.87695312,16.1601562 9.87695312,15.8515625 C9.87695312,15.53125 9.78808594,15.2851562 9.61035156,15.1132812 C9.43261719,14.9414062 9.18164062,14.8554688 8.85742188,14.8554688 C8.52148438,14.8554688 8.265625,14.9394531 8.08984375,15.1074219 C7.9140625,15.2753906 7.82617188,15.5234375 7.82617188,15.8515625 C7.82617188,16.1679688 7.91601562,16.4130859 8.09570312,16.5869141 C8.27539062,16.7607422 8.52929688,16.8476562 8.85742188,16.8476562 Z M17.03125,16.6894531 L17.03125,15.1660156 L13.2988281,15.1660156 L13.2988281,15.0839844 L14.4003906,14.046875 C15.1347656,13.375 15.6474609,12.8574219 15.9384766,12.4941406 C16.2294922,12.1308594 16.4443359,11.7763672 16.5830078,11.4306641 C16.7216797,11.0849609 16.7910156,10.7148438 16.7910156,10.3203125 C16.7910156,9.8671875 16.6777344,9.46484375 16.4511719,9.11328125 C16.2246094,8.76171875 15.90625,8.48828125 15.4960938,8.29296875 C15.0859375,8.09765625 14.6132812,8 14.078125,8 C13.671875,8 13.3046875,8.04003906 12.9765625,8.12011719 C12.6484375,8.20019531 12.3457031,8.31445312 12.0683594,8.46289062 C11.7910156,8.61132812 11.4414062,8.86523438 11.0195312,9.22460938 L11.0195312,9.22460938 L12.0039062,10.390625 C12.34375,10.109375 12.6699219,9.89257812 12.9824219,9.74023438 C13.2949219,9.58789062 13.6171875,9.51171875 13.9492188,9.51171875 C14.265625,9.51171875 14.5185547,9.59570312 14.7080078,9.76367188 C14.8974609,9.93164062 14.9921875,10.1875 14.9921875,10.53125 C14.9921875,10.7617188 14.9492188,10.984375 14.8632812,11.1992188 C14.7773438,11.4140625 14.6367188,11.6474609 14.4414062,11.8994141 C14.2460938,12.1513672 13.8300781,12.6035156 13.1933594,13.2558594 L13.1933594,13.2558594 L11.0429688,15.4296875 L11.0429688,16.6894531 L17.03125,16.6894531 Z M20.3417969,16.8066406 C21.4511719,16.8066406 22.3046875,16.5771484 22.9023438,16.1181641 C23.5,15.6591797 23.7988281,15.0175781 23.7988281,14.1933594 C23.7988281,13.6269531 23.6210938,13.1767578 23.265625,12.8427734 C22.9101562,12.5087891 22.3867188,12.2988281 21.6953125,12.2128906 L21.6953125,12.2128906 L21.6953125,12.1777344 C22.28125,12.0371094 22.7363281,11.7792969 23.0605469,11.4042969 C23.3847656,11.0292969 23.546875,10.5742188 23.546875,10.0390625 C23.546875,9.3984375 23.2900391,8.8984375 22.7763672,8.5390625 C22.2626953,8.1796875 21.5625,8 20.6757812,8 C19.59375,8 18.6621094,8.28125 17.8808594,8.84375 L17.8808594,8.84375 L18.71875,10.0917969 C19.0742188,9.86132812 19.3974609,9.69921875 19.6884766,9.60546875 C19.9794922,9.51171875 20.265625,9.46484375 20.546875,9.46484375 C21.359375,9.46484375 21.765625,9.7890625 21.765625,10.4375 C21.765625,10.859375 21.6123047,11.1572266 21.3056641,11.3310547 C20.9990234,11.5048828 20.5136719,11.5917969 19.8496094,11.5917969 L19.8496094,11.5917969 L19.1875,11.5917969 L19.1875,12.9804688 L19.8378906,12.9804688 C20.5566406,12.9804688 21.0800781,13.0644531 21.4082031,13.2324219 C21.7363281,13.4003906 21.9003906,13.6855469 21.9003906,14.0878906 C21.9003906,14.5371094 21.7578125,14.8632812 21.4726562,15.0664062 C21.1875,15.2695312 20.7460938,15.3710938 20.1484375,15.3710938 C19.7578125,15.3710938 19.3632812,15.3183594 18.9648438,15.2128906 C18.5664062,15.1074219 18.2011719,14.9707031 17.8691406,14.8027344 L17.8691406,14.8027344 L17.8691406,16.34375 C18.5878906,16.6523438 19.4121094,16.8066406 20.3417969,16.8066406 Z"/>
  </defs>
  <use xlink:href="#dataviz-simple-value-a"/>
  <use xlink:href="#dataviz-simple-value-a"/>
  <title>Dataviz Simple Value</title>
</svg>