<svg xmlns="http://www.w3.org/2000/svg" viewBox="0 0 25 25" id="dataviz-table-with-bars">
  <g fill="none" fill-rule="evenodd" transform="translate(1 2)">
    <rect width="6.04" height="5" x=".96" y="15"/>
    <rect width="6.04" height="5" x=".96" y="9"/>
    <rect width="6.04" height="5" x=".96" y="3"/>
    <rect width="12" height="3" x="9" y="4" fill="#000" fill-rule="nonzero"/>
    <rect width="12" height="3" x="9" y="10" fill="#000" fill-rule="nonzero"/>
    <rect width="12" height="3" x="9" y="16" fill="#000" fill-rule="nonzero"/>
    <path d="M8 20L22 20 22 15 8 15 8 20zM21 16L21 19 9 19 9 16 21 16zM8 14L22 14 22 9 8 9 8 14zM21 10L21 13 9 13 9 10 21 10zM8 8L22 8 22 3 8 3 8 8zM21 4L21 7 9 7 9 4 21 4z"/>
    <path fill="#000" fill-rule="nonzero" d="M0,0 L0,21 L23,21 L23,0 L0,0 Z M1,3 L7,3 L7,8 L1,8 L1,3 Z M1,9 L7,9 L7,14 L1,14 L1,9 Z M1,15 L7,15 L7,20 L1,20 L1,15 Z M22,20 L8,20 L8,15 L22,15 L22,20 Z M22,14 L8,14 L8,9 L22,9 L22,14 Z M22,8 L8,8 L8,3 L22,3 L22,8 Z"/>
  </g>
  <title>Dataviz Table With Bars</title>
</svg>