<svg xmlns="http://www.w3.org/2000/svg" viewBox="0 0 25 25" id="dataviz-clustered-bar">
  <g fill="none" fill-rule="evenodd">
    <polygon fill="#000" fill-rule="nonzero" points="8.5 -5.5 8.5 8.5 7.5 8.5 7.5 -5.5" transform="rotate(90 8 1.5)"/>
    <polygon fill="#000" fill-rule="nonzero" points="11.5 -6.5 11.5 13.5 10.5 13.5 10.5 -6.5" transform="rotate(90 11 3.5)"/>
    <polygon fill="#000" fill-rule="nonzero" points="7.5 -.5 7.5 11.5 6.5 11.5 6.5 -.5" transform="rotate(90 7 5.5)"/>
    <polygon fill="#000" fill-rule="nonzero" points="7.5 4.5 7.5 16.5 6.5 16.5 6.5 4.5" transform="rotate(90 7 10.5)"/>
    <polygon fill="#000" fill-rule="nonzero" points="13 1 13 24 12 24 12 1" transform="rotate(90 12.5 12.5)"/>
    <polygon fill="#000" fill-rule="nonzero" points="10.5 5.5 10.5 23.5 9.5 23.5 9.5 5.5" transform="rotate(90 10 14.5)"/>
    <polygon fill="#000" fill-rule="nonzero" points="11.5 9.5 11.5 29.5 10.5 29.5 10.5 9.5" transform="rotate(90 11 19.5)"/>
    <polygon fill="#000" fill-rule="nonzero" points="8.5 14.5 8.5 28.5 7.5 28.5 7.5 14.5" transform="rotate(90 8 21.5)"/>
    <polygon fill="#000" fill-rule="nonzero" points="12.5 12.5 12.5 34.5 11.5 34.5 11.5 12.5" transform="rotate(90 12 23.5)"/>
  </g>
  <title>Dataviz Clustered Bar</title>
</svg>