<svg xmlns="http://www.w3.org/2000/svg" viewBox="0 0 25 25" id="dataviz-clustered-column">
  <g fill="none" fill-rule="evenodd">
    <polygon fill="#000" fill-rule="nonzero" points="2 10 2 24 1 24 1 10"/>
    <polygon fill="#000" fill-rule="nonzero" points="4 4 4 24 3 24 3 4"/>
    <polygon fill="#000" fill-rule="nonzero" points="6 12 6 24 5 24 5 12"/>
    <polygon fill="#000" fill-rule="nonzero" points="11 12 11 24 10 24 10 12"/>
    <polygon fill="#000" fill-rule="nonzero" points="13 1 13 24 12 24 12 1"/>
    <polygon fill="#000" fill-rule="nonzero" points="15 6 15 24 14 24 14 6"/>
    <polygon fill="#000" fill-rule="nonzero" points="20 4 20 24 19 24 19 4"/>
    <polygon fill="#000" fill-rule="nonzero" points="22 10 22 24 21 24 21 10"/>
    <polygon fill="#000" fill-rule="nonzero" points="24 2 24 24 23 24 23 2"/>
  </g>
  <title>Dataviz Clustered Column</title>
</svg>