<svg xmlns="http://www.w3.org/2000/svg" viewBox="0 0 25 25" id="dataviz-geo-choropleth">
  <path d="M25,0 L25,6.906 L25.0013631,6.90635016 L25.0013631,7.40075871 L25,7.4 L25,25 L0,25 L0,0 L25,0 Z M10.6275157,4.88829549 L9.03832429,5.08819122 L8.7787561,5.42279149 L8.06292535,5.30707286 L7.70430798,5.60462938 L7.55112595,5.90332612 L7.29302969,6.07584341 L7.44520402,6.30824902 L8.15342605,6.3436999 L8.34536302,6.98329549 L7.13024319,6.31372972 L6.13686072,6.23725933 L5.5855368,6.49063335 L5.18220028,6.67483855 L5.00756174,6.25550834 L4.03858064,6.06091454 L3.4505465,6.06091454 L3.21507758,6.23725933 L3.79052165,6.52827815 L2.23945533,6.49063335 L1.48857232,6.43170631 L0.82928098,6.36297852 L0.20066442,6.64691129 L0.5510015,6.87619506 L0.42825913,6.94239916 L0.00136302,7.07740457 L0.23399998,7.5281413 L0.5510015,7.63825278 L0.15004455,8.04162736 L0.5510015,8.0991823 L1.53017147,7.5281413 L2.23945533,7.7422878 L2.81920425,8.31898873 L3.11822923,9.05818619 L3.49924108,10.4619974 L3.92289044,11.2330228 L3.95636302,10.7562955 L4.18392794,11.2923664 L4.4566272,11.7636602 L5.18220028,12.1121015 L5.6194348,12.4169785 L5.9543047,12.9654288 L6.18484143,13.0275411 L6.31677757,12.9654288 L6.39603877,13.2098106 L6.05909216,13.8861117 L5.9543047,14.50672 L6.18484143,15.1815755 L6.54634084,15.9149171 L6.47659791,16.945589 L5.9179406,19.1688413 L5.9543047,20.2184532 L6.31677757,20.7186527 L6.82446889,20.6270221 L7.00120579,20.4689556 L6.74168161,20.0269709 L6.88482335,19.0883281 L7.13024319,18.528754 L7.6214506,18.2023153 L8.22737475,17.5673244 L8.57678164,16.7851506 L9.18380905,16.4084341 L9.40140958,16.09579 L9.49724121,15.2870562 L9.89719636,14.7631813 L9.81445906,14.3974171 L8.88869954,13.7941806 L8.36649286,13.0797301 L6.82446889,12.28016 L6.31677757,12.6484234 L6.05909216,12.4718383 L5.9179406,12.1121015 L5.65547442,11.6613648 L5.74730405,11.4146553 L5.6194348,11.3574924 L5.18220028,11.4606208 L4.94927969,11.0303922 L5.13571221,10.5312152 L5.51583713,10.5312152 L5.81607352,10.8449129 L6.0217546,11.4146553 L6.18484143,11.5826157 L6.43456611,11.527315 L6.18484143,10.9883714 L6.63057749,10.217101 L7.43422199,9.10839056 L7.89434361,9.20264932 L8.15356493,9.10839056 L8.12520482,8.7935413 L7.6214506,8.58934257 L8.19946893,8.3549085 L8.36649286,8.70337435 L8.67027697,8.74049471 L8.88869954,8.58934257 L8.36649286,7.84186393 L7.6214506,7.32866802 L6.97523924,7.13383241 L6.66750404,7.7422878 L6.05909216,7.84186393 L5.74456159,7.59645256 L5.7002319,7.32866802 L6.0217546,7.13383241 L6.43456611,7.21574222 L6.74168161,7.07740457 L6.82446889,6.67483855 L7.05576276,7.03057862 L7.43422199,7.21574222 L7.89434361,7.29823061 L8.35136302,7.00529549 L8.53602446,7.61965571 L8.73494937,7.81984311 L9.25103999,7.55560475 L10.7444204,6.85712982 L10.809672,6.54660666 L11.0956782,6.47265174 L11.1403228,5.81047809 L11.4596964,5.49668012 L11.3836319,5.25852088 L10.9133521,5.37370918 L10.6275157,4.88829549 Z M22.3705008,13.6829384 L22.0011921,13.8870881 L22.205059,14.1631634 L22.9539201,14.8010176 L23.0553851,15.6003136 L22.6576131,15.125276 L21.7938691,15.403173 L20.8346964,16.5924273 L21.0285226,17.447121 L21.1608031,17.9716825 L21.7938691,17.8762088 L22.205059,17.5499812 L22.6754932,17.5499812 L23.5210382,18.3734146 L23.9001426,18.3734146 L24.3982407,18.2150536 L24.4805297,17.447121 L24.3227992,16.5924273 L23.4589796,15.6684693 L23.2173699,14.9767901 L23.391945,14.8010176 L23.9001426,14.9767901 L23.7745723,14.5816426 L22.3705008,13.6829384 Z M19.0118435,6.06091454 L17.2168271,6.73553478 L16.891709,6.40365279 L16.4805193,6.47467281 L16.0251964,6.90635016 L14.5328055,7.07532881 L14.5328055,6.73553478 L13.6973261,6.63964834 L12.6520759,7.07532881 L12.2072669,7.40075871 L12.2072669,7.71157931 L12.8097053,7.98675242 L12.9659761,7.77469698 L13.0631416,7.16167841 L13.215591,7.22347988 L13.5246622,7.62906137 L12.9659761,8.19967875 L12.6520759,8.28312364 L12.3976933,7.96052174 L11.9579416,8.28312364 L11.6496871,8.11278105 L11.573376,7.89413117 L11.2251854,7.71157931 L11.2251854,8.34690731 L11.5068512,8.55667348 L11.2251854,8.79309007 L11.2251854,9.23176515 L10.9388631,9.51332155 L11.1033631,9.81329547 L11.0884045,9.81726787 L10.6835286,10.7300075 L10.4180297,11.6933393 L10.5540652,12.7149038 L10.987917,13.2883609 L11.91216,13.040739 L12.3318833,13.1442762 L12.3318833,14.0857532 L12.6052177,14.7657337 L12.4361848,15.9349147 L12.6052177,16.8359917 L13.2804285,17.787105 L13.6264984,17.787105 L14.4048598,16.378127 L14.5492123,15.788989 L14.9654968,15.3277951 L14.8673464,14.2482047 L15.6263631,12.4037267 L15.0460938,12.245681 L14.3121302,10.809093 L14.2553631,10.6832955 L15.1277149,12.1381422 L16.3293809,11.469857 L16.3293809,11.0631403 L15.5961385,10.8721269 L15.3814777,10.6482408 L15.3258051,10.5335127 L16.2057993,10.8721269 L17.2168271,11.3085099 L17.5321288,12.0282213 L17.6461486,12.4507367 L17.8524234,12.5103193 L18.1162479,11.7171555 L18.6598797,11.3085099 L19.0118435,11.6205626 L19.0118435,11.8266139 L19.2667205,11.8266139 L19.7822785,12.4507367 L20.2106486,12.3129136 L20.2106486,11.8266139 L20.443991,11.3085099 L21.0234467,10.5621942 L20.8888,9.70428721 L20.8888,9.51332155 L21.3851189,10.1109493 L21.6094312,9.93096447 L21.6094312,9.322917 L22.2810113,8.79309007 L22.1883701,7.98675242 L23.4149944,7.54783803 L23.1775821,8.34690731 L23.6837367,8.65439382 L23.8949231,8.17275176 L24.0765269,7.71157931 L25,7.4 L25,6.906 L24.5582248,6.73553478 L22.9606142,6.55544159 L21.742094,6.1355147 L21.6723031,6.40365279 L19.0118435,6.06091454 Z M15.5443461,14.8555574 L15.1055297,15.4206556 L15.1520542,16.614486 L15.3407888,16.614486 L15.6263631,15.5913573 L15.5443461,14.8555574 Z M21.0990885,13.0966289 L20.6025489,13.5369394 L20.3138631,13.5369394 L20.5401928,14.1142396 L21.0990885,14.2692479 L21.3555297,14.1142396 L21.3555297,13.5871618 L21.0990885,13.0966289 Z M22.6101978,8.40615264 L22.4857274,9.85511107 L21.9440734,10.2689122 L21.8763631,10.7513908 L22.3371718,10.6545272 L22.6101978,10.1558921 L22.6716721,9.76088197 L22.9180297,9.4882606 L22.7411756,9.16588427 L22.8077815,8.48654198 L22.6101978,8.40615264 Z"/>
  <title>Dataviz Geo Choropleth</title>
</svg>