<svg xmlns="http://www.w3.org/2000/svg" viewBox="0 0 25 25" id="dataviz-pareto">
  <g fill="none" fill-rule="evenodd">
    <path fill="#000" fill-rule="nonzero" d="M4 7C2.8954305 7 2 7.8954305 2 9 2 10.1045695 2.8954305 11 4 11 5.1045695 11 6 10.1045695 6 9 6 7.8954305 5.1045695 7 4 7zM4 8C4.55228475 8 5 8.44771525 5 9 5 9.55228475 4.55228475 10 4 10 3.44771525 10 3 9.55228475 3 9 3 8.44771525 3.44771525 8 4 8zM22 1C20.8954305 1 20 1.8954305 20 3 20 4.1045695 20.8954305 5 22 5 23.1045695 5 24 4.1045695 24 3 24 1.8954305 23.1045695 1 22 1zM22 2C22.5522847 2 23 2.44771525 23 3 23 3.55228475 22.5522847 4 22 4 21.4477153 4 21 3.55228475 21 3 21 2.44771525 21.4477153 2 22 2zM16 3C14.8954305 3 14 3.8954305 14 5 14 6.1045695 14.8954305 7 16 7 17.1045695 7 18 6.1045695 18 5 18 3.8954305 17.1045695 3 16 3zM16 4C16.5522847 4 17 4.44771525 17 5 17 5.55228475 16.5522847 6 16 6 15.4477153 6 15 5.55228475 15 5 15 4.44771525 15.4477153 4 16 4zM10 5C8.8954305 5 8 5.8954305 8 7 8 8.1045695 8.8954305 9 10 9 11.1045695 9 12 8.1045695 12 7 12 5.8954305 11.1045695 5 10 5zM10 6C10.5522847 6 11 6.44771525 11 7 11 7.55228475 10.5522847 8 10 8 9.44771525 8 9 7.55228475 9 7 9 6.44771525 9.44771525 6 10 6z"/>
    <polygon fill="#000" fill-rule="nonzero" points="2 12 6 12 6 22 2 22" transform="matrix(-1 0 0 1 8 0)"/>
    <polygon fill="#000" fill-rule="nonzero" points="8 14 12 14 12 22 8 22" transform="matrix(-1 0 0 1 20 0)"/>
    <polygon fill="#000" fill-rule="nonzero" points="14 17 18 17 18 22 14 22" transform="matrix(-1 0 0 1 32 0)"/>
    <polygon fill="#000" fill-rule="nonzero" points="20 17 24 17 24 22 20 22" transform="matrix(-1 0 0 1 44 0)"/>
    <line x1="2" x2="24" y1="23.5" y2="23.5" stroke="#000"/>
  </g>
  <title>Dataviz Pareto</title>
</svg>