<svg xmlns="http://www.w3.org/2000/svg" viewBox="0 0 25 25" id="dataviz-combo">
  <g fill="none" fill-rule="evenodd">
    <polygon fill="#000" fill-rule="nonzero" points="24 23 24 24 1 24 1 23"/>
    <polygon fill="#000" fill-rule="nonzero" points="7 10 2 10 2 22 7 22"/>
    <polygon fill="#000" fill-rule="nonzero" points="15 12 10 12 10 22 15 22"/>
    <polygon fill="#000" fill-rule="nonzero" points="23 16 18 16 18 22 23 22"/>
    <path fill="#000" fill-rule="nonzero" d="M21,1 C20.3184787,1.00171923 19.6847423,1.35036514 19.3184563,1.9250901 C18.9521703,2.49981505 18.903758,3.22150206 19.19,3.84 L15.43,6.68 L10.03,2.68 L6,5.65 C5.36268273,4.92754959 4.30089026,4.76211044 3.4739883,5.25641911 C2.64708635,5.75072778 2.2900867,6.76429801 2.62468364,7.66770976 C2.95928059,8.57112151 3.89037915,9.10761833 4.83977361,8.94403944 C5.78916808,8.78046055 6.48703336,7.9632963 6.5,7 C6.5,6.89 6.5,6.79 6.5,6.68 L10.11,3.94 L15.47,7.94 L19.85,4.62 C20.1848447,4.86248111 20.5866051,4.99523674 21,5 C22.1045695,5 23,4.1045695 23,3 C23,1.8954305 22.1045695,1 21,1 Z M4.5,8 C3.94771525,8 3.5,7.55228475 3.5,7 C3.5,6.44771525 3.94771525,6 4.5,6 C5.05228475,6 5.5,6.44771525 5.5,7 C5.5,7.55228475 5.05228475,8 4.5,8 Z M21,4 C20.4477153,4 20,3.55228475 20,3 C20,2.44771525 20.4477153,2 21,2 C21.5522847,2 22,2.44771525 22,3 C22,3.26521649 21.8946432,3.5195704 21.7071068,3.70710678 C21.5195704,3.89464316 21.2652165,4 21,4 Z"/>
  </g>
  <title>Dataviz Combo</title>
</svg>