<svg xmlns="http://www.w3.org/2000/svg" viewBox="0 0 25 25" id="dataviz-cross-tab">
  <g fill="none" fill-rule="evenodd">
    <path fill="#000" fill-rule="nonzero" d="M0,2 L0,23 L24,23 L24,2 L0,2 Z M7.5,16.5 L1,16.5 L1,11.5 L7.5,11.5 L7.5,16.5 Z M1,10.5 L1,5.5 L7.5,5.5 L7.5,10.5 L1,10.5 Z M8.5,5.5 L15.25,5.5 L15.25,10.5 L8.5,10.5 L8.5,5.5 Z M16.25,5.5 L23,5.5 L23,10.5 L16.25,10.5 L16.25,5.5 Z M1,17.5 L7.5,17.5 L7.5,22 L1,22 L1,17.5 Z M8.5,22 L8.5,11.5 L23,11.5 L23,22 L8.5,22 Z"/>
    <polygon fill="#000" fill-rule="nonzero" points="19.28 13.95 17.25 13.95 15.97 16.04 14.7 13.95 12.67 13.95 14.78 17.15 12.56 20.5 14.59 20.5 15.97 18.26 17.35 20.5 19.38 20.5 17.15 17.15"/>
  </g>
  <title>Dataviz Cross Tab</title>
</svg>