<svg xmlns="http://www.w3.org/2000/svg" viewBox="0 0 25 25" id="desktop">
  <path d="M23.0367187,1 C23.0367187,1 23.0367187,1 23.0367187,1 C23.0367187,1 1.48515625,1 1.48515625,1 C1.05390625,1 0.71875,1.14375 0.43125,1.43125 C0.14375,1.71875 0,2.05390625 0,2.48515625 C0,2.48515625 0,2.48515625 0,2.48515625 C0,2.48515625 0,19.1515625 0,19.1515625 C0,19.5828125 0.14375,19.9179688 0.43125,20.2054688 C0.71875,20.4929687 1.05390625,20.6367188 1.48515625,20.6367188 C1.48515625,20.6367188 1.48515625,20.6367188 1.48515625,20.6367188 C1.48515625,20.6367188 9.6265625,20.6367188 9.6265625,20.6367188 C9.6265625,20.6367188 9.00390625,23.5578125 9.00390625,23.5578125 C9.00390625,23.5578125 7.37578125,23.5578125 7.37578125,23.5578125 C7.040625,23.5578125 6.84921875,23.7492188 6.84921875,24.084375 C6.84921875,24.084375 6.84921875,24.084375 6.84921875,24.084375 C6.84921875,24.4195312 7.040625,24.5632812 7.37578125,24.5632812 C7.37578125,24.5632812 7.37578125,24.5632812 7.37578125,24.5632812 C7.37578125,24.5632812 17.1460937,24.5632812 17.1460937,24.5632812 C17.48125,24.5632812 17.6726562,24.4195312 17.6726562,24.084375 C17.6726562,24.084375 17.6726562,24.084375 17.6726562,24.084375 C17.6726562,23.7492188 17.48125,23.5578125 17.1460937,23.5578125 C17.1460937,23.5578125 17.1460937,23.5578125 17.1460937,23.5578125 C17.1460937,23.5578125 15.5179687,23.5578125 15.5179687,23.5578125 C15.5179687,23.5578125 14.8953125,20.6367188 14.8953125,20.6367188 C14.8953125,20.6367188 23.0367187,20.6367188 23.0367187,20.6367188 C23.4679687,20.6367188 23.803125,20.4929687 24.090625,20.2054688 C24.378125,19.9179688 24.521875,19.5828125 24.521875,19.1515625 C24.521875,19.1515625 24.521875,19.1515625 24.521875,19.1515625 C24.521875,19.1515625 24.521875,2.48515625 24.521875,2.48515625 C24.521875,2.05390625 24.378125,1.71875 24.090625,1.43125 C23.803125,1.14375 23.4679687,1 23.0367187,1 Z M14.5117187,23.5578125 C14.5117187,23.5578125 10.0101562,23.5578125 10.0101562,23.5578125 C10.0101562,23.5578125 10.6328125,20.6367188 10.6328125,20.6367188 C10.6328125,20.6367188 13.8898437,20.6367188 13.8898437,20.6367188 C13.8898437,20.6367188 14.5125,23.5578125 14.5125,23.5578125 L14.5117187,23.5578125 Z M23.5632813,16.7085937 C23.5632813,16.7085937 23.5632813,19.1507813 23.5632813,19.1507813 C23.5632813,19.4859375 23.371875,19.6773438 23.0367187,19.6773438 C23.0367187,19.6773438 23.0367187,19.6773438 23.0367187,19.6773438 C23.0367187,19.6773438 1.48515625,19.6773438 1.48515625,19.6773438 C1.15,19.6773438 0.95859375,19.4859375 0.95859375,19.1507813 C0.95859375,19.1507813 0.95859375,19.1507813 0.95859375,19.1507813 C0.95859375,19.1507813 0.95859375,16.7085937 0.95859375,16.7085937 C0.95859375,16.7085937 23.5640625,16.7085937 23.5640625,16.7085937 L23.5632813,16.7085937 Z M23.5632812,2.484375 C23.5632812,2.484375 23.5632812,15.7507813 23.5632812,15.7507813 C23.5632812,15.7507813 0.9578125,15.7507813 0.9578125,15.7507813 C0.9578125,15.7507813 0.9578125,2.484375 0.9578125,2.484375 C0.9578125,2.14921875 1.14921875,2.00546875 1.484375,2.00546875 C1.484375,2.00546875 1.484375,2.00546875 1.484375,2.00546875 C1.484375,2.00546875 23.0359375,2.00546875 23.0359375,2.00546875 C23.3710937,2.00546875 23.5625,2.14921875 23.5625,2.484375 C23.5625,2.484375 23.5625,2.484375 23.5625,2.484375 L23.5632812,2.484375 Z"/>
  <title>Desktop</title>
</svg>