<svg xmlns="http://www.w3.org/2000/svg" viewBox="0 0 25 25" id="desktop-solid">
  <path d="M23.0367187,1 C23.0367187,1 23.0367187,1 23.0367187,1 C23.0367187,1 1.48515625,1 1.48515625,1 C1.05390625,1 0.71875,1.14375 0.43125,1.43125 C0.14375,1.71875 0,2.05390625 0,2.48515625 C0,2.48515625 0,2.48515625 0,2.48515625 C0,2.48515625 0,19.1515625 0,19.1515625 C0,19.5828125 0.14375,19.9179688 0.43125,20.2054688 C0.71875,20.4929687 1.05390625,20.6367188 1.48515625,20.6367188 C1.48515625,20.6367188 1.48515625,20.6367188 1.48515625,20.6367188 C1.48515625,20.6367188 23.0367187,20.6367188 23.0367187,20.6367188 C23.4679687,20.6367188 23.803125,20.4929687 24.090625,20.2054688 C24.378125,19.9179688 24.521875,19.5828125 24.521875,19.1515625 C24.521875,19.1515625 24.521875,19.1515625 24.521875,19.1515625 C24.521875,19.1515625 24.521875,2.48515625 24.521875,2.48515625 C24.521875,2.05390625 24.378125,1.71875 24.090625,1.43125 C23.803125,1.14375 23.4679687,1 23.0367187,1 Z M23.5632812,2.484375 C23.5632812,2.484375 23.5632812,15.703125 23.5632812,15.703125 C23.5632812,15.703125 0.9578125,15.703125 0.9578125,15.703125 C0.9578125,15.703125 0.9578125,2.484375 0.9578125,2.484375 C0.9578125,2.14921875 1.14921875,1.9578125 1.484375,1.9578125 C1.484375,1.9578125 1.484375,1.9578125 1.484375,1.9578125 C1.484375,1.9578125 23.0359375,1.9578125 23.0359375,1.9578125 C23.3710937,1.9578125 23.5625,2.14921875 23.5625,2.484375 C23.5625,2.484375 23.5625,2.484375 23.5625,2.484375 L23.5632812,2.484375 Z M17.1453125,23.5578125 C17.4804687,23.5578125 17.671875,23.7015625 17.671875,24.0367188 C17.671875,24.371875 17.4804687,24.515625 17.1453125,24.515625 C17.1453125,24.515625 17.1453125,24.515625 17.1453125,24.515625 C17.1453125,24.515625 7.375,24.515625 7.375,24.515625 C7.03984375,24.515625 6.8484375,24.371875 6.8484375,24.0367188 C6.8484375,23.7015625 7.03984375,23.5578125 7.375,23.5578125 C7.375,23.5578125 7.375,23.5578125 7.375,23.5578125 C7.375,23.5578125 9.003125,23.5578125 9.003125,23.5578125 C9.003125,23.5578125 9.434375,21.5945312 9.434375,21.5945312 C9.434375,21.5945312 15.0859375,21.5945312 15.0859375,21.5945312 C15.0859375,21.5945312 15.5171875,23.5578125 15.5171875,23.5578125 C15.5171875,23.5578125 17.1453125,23.5578125 17.1453125,23.5578125 L17.1453125,23.5578125 Z"/>
  <title>Desktop Solid</title>
</svg>