<svg xmlns="http://www.w3.org/2000/svg" viewBox="0 0 25 25" id="disc-stack">
  <path d="M22.59375,5.45390625 C22.59375,5.45390625 22.59375,5.45390625 22.59375,5.45390625 C22.59375,5.45390625 22.59375,19.1515625 22.59375,19.1515625 C22.59375,20.3492188 21.5882813,21.4023438 19.5765625,22.3125 C19.5765625,22.3125 19.5765625,22.3125 19.5765625,22.3125 C17.5648437,23.1742188 15.1226562,23.6054688 12.296875,23.6054688 C9.47109375,23.6054688 7.02890625,23.1742188 5.0171875,22.3125 C5.0171875,22.3125 5.0171875,22.3125 5.0171875,22.3125 C3.00546875,21.4023438 2,20.3492187 2,19.1515625 C2,19.1515625 2,19.1515625 2,19.1515625 C2,19.1515625 2,5.45390625 2,5.45390625 C2,4.25625 3.05390625,3.203125 5.1609375,2.340625 C5.1609375,2.340625 5.1609375,2.340625 5.1609375,2.340625 C7.2203125,1.43046875 9.61484375,1 12.296875,1 C12.296875,1 12.296875,1 12.296875,1 C15.1703125,1 17.6132812,1.43125 19.5765625,2.340625 C19.5765625,2.340625 19.5765625,2.340625 19.5765625,2.340625 C21.5882812,3.20234375 22.59375,4.25625 22.59375,5.45390625 Z M5.59140625,3.1546875 C5.59140625,3.1546875 5.59140625,3.1546875 5.59140625,3.1546875 C3.81953125,3.8734375 2.95703125,4.6390625 2.95703125,5.45390625 C2.95703125,6.26875 3.81875,7.034375 5.59140625,7.753125 C5.59140625,7.753125 5.59140625,7.753125 5.59140625,7.753125 C7.4109375,8.471875 9.6625,8.8546875 12.2960937,8.8546875 C14.9296875,8.8546875 17.18125,8.471875 19.0007813,7.753125 C19.0007813,7.753125 19.0007813,7.753125 19.0007813,7.753125 C20.7726563,7.034375 21.6351563,6.26875 21.6351563,5.45390625 C21.6351563,4.6390625 20.7734375,3.8734375 19.0007813,3.1546875 C19.0007813,3.1546875 19.0007813,3.1546875 19.0007813,3.1546875 C17.2289063,2.38828125 14.978125,2.00546875 12.2960937,2.00546875 C9.6140625,2.00546875 7.36328125,2.38828125 5.59140625,3.1546875 Z M2.9578125,7.4171875 C2.9578125,7.4171875 2.9578125,7.4171875 2.9578125,7.4171875 C2.9578125,7.4171875 2.9578125,10.3382812 2.9578125,10.3382812 C2.9578125,11.1046875 3.86796875,11.91875 5.63984375,12.7328125 C5.63984375,12.7328125 5.63984375,12.7328125 5.63984375,12.7328125 C7.41171875,13.4992188 9.6625,13.8820312 12.296875,13.8820312 C14.93125,13.8820312 17.1820313,13.4992188 19.0015625,12.7804687 C19.0015625,12.7804687 19.0015625,12.7804687 19.0015625,12.7804687 C20.7734375,12.0140625 21.6359375,11.2476562 21.6359375,10.4335938 C21.6359375,10.4335938 21.6359375,10.4335938 21.6359375,10.4335938 C21.6359375,10.4335938 21.6359375,7.41640625 21.6359375,7.41640625 C20.821875,8.1828125 19.5765625,8.80546875 17.9,9.284375 C17.9,9.284375 17.9,9.284375 17.9,9.284375 C16.1757812,9.715625 14.3078125,9.9546875 12.296875,9.9546875 C12.296875,9.9546875 12.296875,9.9546875 12.296875,9.9546875 C10.3335938,9.9546875 8.465625,9.715625 6.74140625,9.284375 C6.74140625,9.284375 6.74140625,9.284375 6.74140625,9.284375 C5.0171875,8.80546875 3.771875,8.1828125 2.9578125,7.41640625 L2.9578125,7.4171875 Z M21.6359375,19.1507813 C21.6359375,19.1507813 21.6359375,19.1507813 21.6359375,19.1507813 C21.6359375,19.1507813 21.6359375,16.6125 21.6359375,16.6125 C20.821875,17.3789063 19.5765625,18.0015625 17.9,18.4804688 C17.9,18.4804688 17.9,18.4804688 17.9,18.4804688 C16.1757812,18.9117188 14.3078125,19.1507813 12.296875,19.1507813 C12.296875,19.1507813 12.296875,19.1507813 12.296875,19.1507813 C10.3335937,19.1507813 8.465625,18.9117188 6.74140625,18.4804688 C6.74140625,18.4804688 6.74140625,18.4804688 6.74140625,18.4804688 C5.0171875,18.0015625 3.771875,17.3789063 2.9578125,16.6125 C2.9578125,16.6125 2.9578125,16.6125 2.9578125,16.6125 C2.9578125,16.6125 2.9578125,19.1507813 2.9578125,19.1507813 C2.9578125,19.9648438 3.86796875,20.73125 5.63984375,21.4976563 C5.63984375,21.4976563 5.63984375,21.4976563 5.63984375,21.4976563 C7.459375,22.2164063 9.6625,22.5992188 12.296875,22.5992188 C12.296875,22.5992188 12.296875,22.5992188 12.296875,22.5992188 C14.93125,22.5992188 17.1820313,22.2164063 19.0015625,21.4976563 C19.0015625,21.4976563 19.0015625,21.4976563 19.0015625,21.4976563 C20.7734375,20.73125 21.6359375,19.9648438 21.6359375,19.1507813 L21.6359375,19.1507813 Z M21.6359375,14.7445313 C21.6359375,14.7445313 21.6359375,14.7445313 21.6359375,14.7445313 C21.6359375,14.7445313 21.6359375,12.20625 21.6359375,12.20625 C20.821875,12.9726562 19.5765625,13.5953125 17.9,14.0742188 C17.9,14.0742188 17.9,14.0742188 17.9,14.0742188 C16.1757812,14.5054688 14.3078125,14.7445313 12.296875,14.7445313 C12.296875,14.7445313 12.296875,14.7445313 12.296875,14.7445313 C7.7953125,14.7445313 4.68203125,13.9304687 2.9578125,12.3023438 C2.9578125,12.3023438 2.9578125,12.3023438 2.9578125,12.3023438 C2.9578125,12.3023438 2.9578125,14.7445313 2.9578125,14.7445313 C2.9578125,15.5585938 3.86796875,16.325 5.63984375,17.0914063 C5.63984375,17.0914063 5.63984375,17.0914063 5.63984375,17.0914063 C7.459375,17.8101563 9.6625,18.1929688 12.296875,18.1929688 C12.296875,18.1929688 12.296875,18.1929688 12.296875,18.1929688 C14.93125,18.1929688 17.1820313,17.8101563 19.0015625,17.0914063 C19.0015625,17.0914063 19.0015625,17.0914063 19.0015625,17.0914063 C20.7734375,16.325 21.6359375,15.5585938 21.6359375,14.7445313 Z"/>
  <title>Disc Stack</title>
</svg>