<svg xmlns="http://www.w3.org/2000/svg" viewBox="0 0 25 25" id="disc-stack-solid">
  <path d="M19.625,7.70546875 C21.5882813,6.9390625 22.5945313,6.02890625 22.5945313,4.92734375 C22.5945313,3.82578125 21.5890625,2.915625 19.5773437,2.14921875 C17.565625,1.3828125 15.1234375,1 12.2976563,1 C9.471875,1 7.0296875,1.3828125 5.01796875,2.14921875 C3.00625,2.915625 2.00078125,3.82578125 2.00078125,4.92734375 C2.00078125,6.02890625 3.00625,6.9390625 5.01796875,7.70546875 C6.98125,8.471875 9.42421875,8.8546875 12.2976563,8.8546875 C15.1710938,8.8546875 17.6140625,8.471875 19.625,7.70546875 Z M19.625,7.70546875 C21.5882813,6.9390625 22.5945313,6.02890625 22.5945313,4.92734375 C22.5945313,3.82578125 21.5890625,2.915625 19.5773437,2.14921875 C17.565625,1.3828125 15.1234375,1 12.2976563,1 C9.471875,1 7.0296875,1.3828125 5.01796875,2.14921875 C3.00625,2.915625 2.00078125,3.82578125 2.00078125,4.92734375 C2.00078125,6.02890625 3.00625,6.9390625 5.01796875,7.70546875 C6.98125,8.471875 9.42421875,8.8546875 12.2976563,8.8546875 C15.1710938,8.8546875 17.6140625,8.471875 19.625,7.70546875 Z M22.5945313,11.584375 C22.5945313,11.584375 22.5945313,11.584375 22.5945313,11.584375 C22.5945313,11.584375 22.5945313,13.7875 22.5945313,13.7875 C22.5945313,13.7875 22.5945313,13.93125 22.5945313,13.93125 C22.5945313,15.1289063 21.5890625,16.134375 19.5773437,16.9484375 C17.565625,17.7625 15.1234375,18.19375 12.2976563,18.19375 C9.471875,18.19375 7.0296875,17.7625 5.01796875,16.9484375 C3.00625,16.134375 2.00078125,15.1289063 2.00078125,13.93125 C2.00078125,13.93125 2.00078125,13.93125 2.00078125,13.93125 C2.00078125,13.93125 2.00078125,13.7875 2.00078125,13.7875 C2.00078125,13.7875 2.00078125,11.584375 2.00078125,11.584375 C2.4796875,12.4945313 3.67734375,13.2609375 5.59296875,13.8351563 C7.50859375,14.4578125 9.759375,14.7453125 12.2976563,14.7453125 C14.8359375,14.7453125 17.0867188,14.4578125 19.0023438,13.8351563 C20.9179688,13.2601563 22.115625,12.4945313 22.5945313,11.584375 L22.5945313,11.584375 Z M22.5945313,6.69921875 C22.5945313,6.69921875 22.5945313,6.69921875 22.5945313,6.69921875 C22.5945313,6.69921875 22.5945313,9.7640625 22.5945313,9.7640625 C22.5945313,10.865625 21.5890625,11.8234375 19.5773437,12.6375 C17.565625,13.4515625 15.1234375,13.8351563 12.2976563,13.8351563 C9.471875,13.8351563 7.0296875,13.4523438 5.01796875,12.6375 C3.00625,11.8226562 2.00078125,10.865625 2.00078125,9.7640625 C2.00078125,9.7640625 2.00078125,9.7640625 2.00078125,9.7640625 C2.00078125,9.7640625 2.00078125,6.69921875 2.00078125,6.69921875 C2.4796875,7.609375 3.67734375,8.32734375 5.640625,8.95 C7.55625,9.57265625 9.759375,9.86015625 12.2976563,9.86015625 C14.8359375,9.86015625 17.0390625,9.57265625 19.0023438,8.95 C20.9179688,8.32734375 22.115625,7.609375 22.5945313,6.69921875 Z M22.5945312,15.7992187 C22.5945312,15.7992187 22.5945312,15.7992187 22.5945312,15.7992187 C22.5945312,15.7992187 22.5945312,19.965625 22.5945312,19.965625 C22.403125,20.9710937 21.3015625,21.8335937 19.3375,22.5515625 C17.3734375,23.2695312 15.0273438,23.6054687 12.296875,23.6054687 C9.5671875,23.6054687 7.2203125,23.2703125 5.25703125,22.5515625 C3.29375,21.8328125 2.1921875,20.9710937 2,19.965625 C2,19.965625 2,19.965625 2,19.965625 C2,19.965625 2,15.7992187 2,15.7992187 C2.47890625,16.7570312 3.6765625,17.5710937 5.63984375,18.19375 C7.55546875,18.8164062 9.75859375,19.1515625 12.296875,19.1515625 C14.8351563,19.1515625 17.0382813,18.8164062 19.0015625,18.19375 C20.9171875,17.5710937 22.1148438,16.7570313 22.59375,15.7992187 L22.5945312,15.7992187 Z"/>
  <title>Disc Stack Solid</title>
</svg>