<svg xmlns="http://www.w3.org/2000/svg" viewBox="0 0 25 25" id="distribute-item-vert-center">
  <path d="M20.1148438,7.890625 C20.1148438,7.890625 4.40625,7.890625 4.40625,7.890625 C3.975,7.890625 3.63984375,8.034375 3.35234375,8.321875 C3.06484375,8.609375 2.92109375,8.94453125 2.92109375,9.37578125 C2.92109375,9.37578125 2.92109375,9.37578125 2.92109375,9.37578125 C2.92109375,9.37578125 2.92109375,15.21875 2.92109375,15.21875 C2.92109375,15.65 3.06484375,15.9851563 3.35234375,16.2726563 C3.63984375,16.5601563 3.975,16.7039063 4.40625,16.7039063 C4.40625,16.7039063 4.40625,16.7039063 4.40625,16.7039063 C4.40625,16.7039063 20.1148438,16.7039063 20.1148438,16.7039063 C20.5460938,16.7039063 20.88125,16.5601563 21.16875,16.2726563 C21.45625,15.9851563 21.6,15.65 21.6,15.21875 C21.6,15.21875 21.6,15.21875 21.6,15.21875 C21.6,15.21875 21.6,9.37578125 21.6,9.37578125 C21.6,8.94453125 21.45625,8.609375 21.16875,8.321875 C20.88125,8.034375 20.5460938,7.890625 20.1148438,7.890625 C20.1148438,7.890625 20.1148438,7.890625 20.1148438,7.890625 Z M20.59375,9.375 C20.59375,9.375 20.59375,9.375 20.59375,9.375 C20.59375,9.375 20.59375,15.2179688 20.59375,15.2179688 C20.59375,15.553125 20.45,15.7445312 20.1148437,15.7445312 C20.1148437,15.7445312 20.1148437,15.7445312 20.1148437,15.7445312 C20.1148437,15.7445312 4.40625,15.7445312 4.40625,15.7445312 C4.07109375,15.7445312 3.92734375,15.553125 3.92734375,15.2179688 C3.92734375,15.2179688 3.92734375,15.2179688 3.92734375,15.2179688 C3.92734375,15.2179688 3.92734375,9.375 3.92734375,9.375 C3.92734375,9.03984375 4.07109375,8.8484375 4.40625,8.8484375 C4.40625,8.8484375 4.40625,8.8484375 4.40625,8.8484375 C4.40625,8.8484375 20.1148437,8.8484375 20.1148437,8.8484375 C20.45,8.8484375 20.59375,9.03984375 20.59375,9.375 Z M0.47890625,2.9578125 C0.14375,2.9578125 1.77635684e-15,2.8140625 1.77635684e-15,2.47890625 C1.77635684e-15,2.14375 0.14375,2 0.47890625,2 C0.47890625,2 0.47890625,2 0.47890625,2 C0.47890625,2 24.0421875,2 24.0421875,2 C24.3773438,2 24.5210937,2.14375 24.5210937,2.47890625 C24.5210937,2.8140625 24.3773438,2.9578125 24.0421875,2.9578125 C24.0421875,2.9578125 24.0421875,2.9578125 24.0421875,2.9578125 C24.0421875,2.9578125 0.47890625,2.9578125 0.47890625,2.9578125 Z M24.0421875,21.6359375 C24.3773438,21.6359375 24.5210937,21.7796875 24.5210937,22.1148437 C24.5210937,22.45 24.3773438,22.59375 24.0421875,22.59375 C24.0421875,22.59375 24.0421875,22.59375 24.0421875,22.59375 C24.0421875,22.59375 0.47890625,22.59375 0.47890625,22.59375 C0.14375,22.59375 0,22.45 0,22.1148437 C0,21.7796875 0.14375,21.6359375 0.47890625,21.6359375 C0.47890625,21.6359375 0.47890625,21.6359375 0.47890625,21.6359375 C0.47890625,21.6359375 24.0421875,21.6359375 24.0421875,21.6359375 Z"/>
  <title>Distribute Item Vert Center</title>
</svg>