<svg xmlns="http://www.w3.org/2000/svg" viewBox="0 0 25 25" id="distribute-item-vert-center-solid">
  <path d="M4.40625,7.890625 C4.40625,7.890625 20.1148438,7.890625 20.1148438,7.890625 C20.5460938,7.890625 20.88125,8.034375 21.16875,8.321875 C21.45625,8.609375 21.6,8.94453125 21.6,9.37578125 C21.6,9.37578125 21.6,9.37578125 21.6,9.37578125 C21.6,9.37578125 21.6,15.21875 21.6,15.21875 C21.6,15.65 21.45625,15.9851563 21.16875,16.2726563 C20.88125,16.5601563 20.5460938,16.7039063 20.1148438,16.7039063 C20.1148438,16.7039063 20.1148438,16.7039063 20.1148438,16.7039063 C20.1148438,16.7039063 4.40625,16.7039063 4.40625,16.7039063 C3.975,16.7039063 3.63984375,16.5601563 3.35234375,16.2726563 C3.06484375,15.9851563 2.92109375,15.65 2.92109375,15.21875 C2.92109375,15.21875 2.92109375,15.21875 2.92109375,15.21875 C2.92109375,15.21875 2.92109375,9.37578125 2.92109375,9.37578125 C2.92109375,8.94453125 3.06484375,8.609375 3.35234375,8.321875 C3.63984375,8.034375 3.975,7.890625 4.40625,7.890625 C4.40625,7.890625 4.40625,7.890625 4.40625,7.890625 Z M0.47890625,2.9578125 C0.47890625,2.9578125 0.47890625,2.9578125 0.47890625,2.9578125 C0.47890625,2.9578125 24.0421875,2.9578125 24.0421875,2.9578125 C24.3773438,2.9578125 24.5210937,2.8140625 24.5210937,2.47890625 C24.5210937,2.14375 24.3773438,2 24.0421875,2 C24.0421875,2 24.0421875,2 24.0421875,2 C24.0421875,2 0.47890625,2 0.47890625,2 C0.14375,2 0,2.14375 0,2.47890625 C0,2.8140625 0.14375,2.9578125 0.47890625,2.9578125 Z M24.0421875,21.6359375 C24.0421875,21.6359375 24.0421875,21.6359375 24.0421875,21.6359375 C24.0421875,21.6359375 0.47890625,21.6359375 0.47890625,21.6359375 C0.14375,21.6359375 0,21.7796875 0,22.1148437 C0,22.45 0.14375,22.59375 0.47890625,22.59375 C0.47890625,22.59375 0.47890625,22.59375 0.47890625,22.59375 C0.47890625,22.59375 24.0421875,22.59375 24.0421875,22.59375 C24.3773438,22.59375 24.5210937,22.45 24.5210937,22.1148437 C24.5210937,21.7796875 24.3773438,21.6359375 24.0421875,21.6359375 Z"/>
  <title>Distribute Item Vert Center Solid</title>
</svg>