<svg xmlns="http://www.w3.org/2000/svg" viewBox="0 0 25 25" id="distribute-item-center">
  <path d="M15.2179687,2.921875 C15.2179687,2.921875 15.2179687,2.921875 15.2179687,2.921875 C15.2179687,2.921875 9.375,2.921875 9.375,2.921875 C8.94375,2.921875 8.60859375,3.065625 8.32109375,3.353125 C8.03359375,3.640625 7.88984375,3.97578125 7.88984375,4.40703125 C7.88984375,4.40703125 7.88984375,4.40703125 7.88984375,4.40703125 C7.88984375,4.40703125 7.88984375,20.115625 7.88984375,20.115625 C7.88984375,20.546875 8.03359375,20.8820313 8.32109375,21.1695313 C8.60859375,21.4570312 8.94375,21.6007813 9.375,21.6007813 C9.375,21.6007813 9.375,21.6007813 9.375,21.6007813 C9.375,21.6007813 15.2179687,21.6007813 15.2179687,21.6007813 C15.6492187,21.6007813 15.984375,21.4570312 16.271875,21.1695313 C16.559375,20.8820313 16.703125,20.546875 16.703125,20.115625 C16.703125,20.115625 16.703125,20.115625 16.703125,20.115625 C16.703125,20.115625 16.703125,4.40703125 16.703125,4.40703125 C16.703125,3.97578125 16.559375,3.640625 16.271875,3.353125 C15.984375,3.065625 15.6492187,2.921875 15.2179687,2.921875 Z M15.7445312,4.40625 C15.7445312,4.40625 15.7445312,20.1148437 15.7445312,20.1148437 C15.7445312,20.45 15.553125,20.59375 15.2179687,20.59375 C15.2179687,20.59375 15.2179687,20.59375 15.2179687,20.59375 C15.2179687,20.59375 9.375,20.59375 9.375,20.59375 C9.03984375,20.59375 8.8484375,20.45 8.8484375,20.1148437 C8.8484375,20.1148437 8.8484375,20.1148437 8.8484375,20.1148437 C8.8484375,20.1148437 8.8484375,4.40625 8.8484375,4.40625 C8.8484375,4.07109375 9.03984375,3.92734375 9.375,3.92734375 C9.375,3.92734375 9.375,3.92734375 9.375,3.92734375 C9.375,3.92734375 15.2179687,3.92734375 15.2179687,3.92734375 C15.553125,3.92734375 15.7445312,4.07109375 15.7445312,4.40625 C15.7445312,4.40625 15.7445312,4.40625 15.7445312,4.40625 Z M2.9578125,0.47890625 C2.9578125,0.47890625 2.9578125,0.47890625 2.9578125,0.47890625 C2.9578125,0.47890625 2.9578125,24.0421875 2.9578125,24.0421875 C2.9578125,24.3773437 2.8140625,24.5210937 2.47890625,24.5210937 C2.14375,24.5210937 2,24.3773437 2,24.0421875 C2,24.0421875 2,24.0421875 2,24.0421875 C2,24.0421875 2,0.47890625 2,0.47890625 C2,0.14375 2.14375,0 2.47890625,0 C2.8140625,0 2.9578125,0.14375 2.9578125,0.47890625 L2.9578125,0.47890625 Z M22.59375,0.47890625 C22.59375,0.47890625 22.59375,0.47890625 22.59375,0.47890625 C22.59375,0.47890625 22.59375,24.0421875 22.59375,24.0421875 C22.59375,24.3773437 22.45,24.5210937 22.1148437,24.5210937 C21.7796875,24.5210937 21.6359375,24.3773437 21.6359375,24.0421875 C21.6359375,24.0421875 21.6359375,24.0421875 21.6359375,24.0421875 C21.6359375,24.0421875 21.6359375,0.47890625 21.6359375,0.47890625 C21.6359375,0.14375 21.7796875,0 22.1148437,0 C22.45,0 22.59375,0.14375 22.59375,0.47890625 Z"/>
  <title>Distribute Item Center</title>
</svg>