<svg xmlns="http://www.w3.org/2000/svg" viewBox="0 0 25 25" id="distribute-item-center-solid">
  <path d="M16.7023438,4.40625 C16.7023438,4.40625 16.7023438,4.40625 16.7023438,4.40625 C16.7023438,4.40625 16.7023438,20.1148437 16.7023438,20.1148437 C16.7023438,20.5460937 16.5585938,20.88125 16.2710938,21.16875 C15.9835938,21.45625 15.6484375,21.6 15.2171875,21.6 C15.2171875,21.6 15.2171875,21.6 15.2171875,21.6 C15.2171875,21.6 9.37421875,21.6 9.37421875,21.6 C8.94296875,21.6 8.6078125,21.45625 8.3203125,21.16875 C8.0328125,20.88125 7.8890625,20.5460937 7.8890625,20.1148437 C7.8890625,20.1148437 7.8890625,20.1148437 7.8890625,20.1148437 C7.8890625,20.1148437 7.8890625,4.40625 7.8890625,4.40625 C7.8890625,3.975 8.0328125,3.63984375 8.3203125,3.35234375 C8.6078125,3.06484375 8.94296875,2.92109375 9.37421875,2.92109375 C9.37421875,2.92109375 9.37421875,2.92109375 9.37421875,2.92109375 C9.37421875,2.92109375 15.2171875,2.92109375 15.2171875,2.92109375 C15.6484375,2.92109375 15.9835938,3.06484375 16.2710938,3.35234375 C16.5585938,3.63984375 16.7023438,3.975 16.7023438,4.40625 Z M2.9578125,0.47890625 C2.9578125,0.14375 2.8140625,0 2.47890625,0 C2.14375,0 2,0.14375 2,0.47890625 C2,0.47890625 2,0.47890625 2,0.47890625 C2,0.47890625 2,24.0421875 2,24.0421875 C2,24.3773437 2.14375,24.5210937 2.47890625,24.5210937 C2.8140625,24.5210937 2.9578125,24.3773437 2.9578125,24.0421875 C2.9578125,24.0421875 2.9578125,24.0421875 2.9578125,24.0421875 C2.9578125,24.0421875 2.9578125,0.47890625 2.9578125,0.47890625 L2.9578125,0.47890625 Z M22.59375,0.47890625 C22.59375,0.14375 22.45,0 22.1148437,0 C21.7796875,0 21.6359375,0.14375 21.6359375,0.47890625 C21.6359375,0.47890625 21.6359375,0.47890625 21.6359375,0.47890625 C21.6359375,0.47890625 21.6359375,24.0421875 21.6359375,24.0421875 C21.6359375,24.3773437 21.7796875,24.5210937 22.1148437,24.5210937 C22.45,24.5210937 22.59375,24.3773437 22.59375,24.0421875 C22.59375,24.0421875 22.59375,24.0421875 22.59375,24.0421875 C22.59375,24.0421875 22.59375,0.47890625 22.59375,0.47890625 Z"/>
  <title>Distribute Item Center Solid</title>
</svg>