<svg xmlns="http://www.w3.org/2000/svg" viewBox="0 0 25 25" id="dna">
  <path d="M17.5367187,15.5179687 C18.3507812,14.65625 18.7820312,13.5546875 18.7820312,12.2609375 C18.7820312,10.9671875 18.3507812,9.86640625 17.5367187,9.00390625 C16.675,8.1421875 15.4773437,7.2796875 13.896875,6.41796875 C13.896875,6.41796875 13.896875,6.41796875 13.896875,6.41796875 C15.4773437,5.55625 16.675,4.69375 17.5367187,3.78359375 C18.3507812,2.921875 18.7820312,1.8203125 18.7820312,0.47890625 C18.7820312,0.47890625 18.7820312,0.47890625 18.7820312,0.47890625 C18.7820312,0.14375 18.590625,0 18.2554687,0 C18.2554687,0 18.2554687,0 18.2554687,0 C17.9203125,0 17.7765625,0.14375 17.7765625,0.47890625 C17.7765625,0.47890625 17.7765625,0.47890625 17.7765625,0.47890625 C17.7765625,0.47890625 17.7765625,0.5265625 17.7765625,0.5265625 C17.7765625,1.053125 17.6804687,1.53203125 17.4890625,1.96328125 C17.4890625,1.96328125 17.4890625,1.96328125 17.4890625,1.96328125 C17.4890625,1.96328125 9.921875,1.96328125 9.921875,1.96328125 C9.58671875,1.96328125 9.44296875,2.10703125 9.44296875,2.4421875 C9.44296875,2.77734375 9.58671875,2.92109375 9.921875,2.92109375 C9.921875,2.92109375 9.921875,2.92109375 9.921875,2.92109375 C9.921875,2.92109375 16.9140625,2.92109375 16.9140625,2.92109375 C15.7648438,4.16640625 14.4234375,5.12421875 12.9390625,5.8421875 C12.9390625,5.8421875 12.9390625,5.8421875 12.9390625,5.8421875 C11.8375,5.2671875 11.0234375,4.78828125 10.4007812,4.3578125 C9.778125,3.975 9.2515625,3.44765625 8.72421875,2.7296875 C8.196875,2.01171875 7.9578125,1.29296875 7.9578125,0.47890625 C7.9578125,0.47890625 7.9578125,0.47890625 7.9578125,0.47890625 C7.9578125,0.14375 7.8140625,0 7.47890625,0 C7.14375,0 7,0.14375 7,0.47890625 C7,0.47890625 7,0.47890625 7,0.47890625 C7,1.81953125 7.43125,2.92109375 8.29296875,3.78359375 C9.10703125,4.69375 10.3046875,5.55546875 11.8851562,6.41796875 C11.8851562,6.41796875 11.8851562,6.41796875 11.8851562,6.41796875 C10.3046875,7.2796875 9.10703125,8.1421875 8.29296875,9.00390625 C7.43125,9.865625 7,10.9671875 7,12.2609375 C7,13.5546875 7.43125,14.6554688 8.29296875,15.5179687 C9.10703125,16.3796875 10.3046875,17.2421875 11.8851562,18.1039063 C11.8851562,18.1039063 11.8851562,18.1039063 11.8851562,18.1039063 C10.3046875,18.965625 9.10703125,19.828125 8.29296875,20.6898437 C7.43125,21.6 7,22.7015625 7,24.0421875 C7,24.0421875 7,24.0421875 7,24.0421875 C7,24.3773437 7.14375,24.5210937 7.47890625,24.5210937 C7.8140625,24.5210937 7.9578125,24.3773437 7.9578125,24.0421875 C7.9578125,24.0421875 7.9578125,24.0421875 7.9578125,24.0421875 C7.9578125,22.8929687 8.3890625,21.9351562 9.203125,21.1210937 C10.0171875,20.3546875 11.2625,19.540625 12.890625,18.6789062 C12.890625,18.6789062 12.890625,18.6789062 12.890625,18.6789062 C14.4710937,19.3976562 15.8117188,20.3554688 16.9132812,21.5523437 C16.9132812,21.5523437 16.9132812,21.5523437 16.9132812,21.5523437 C16.9132812,21.5523437 9.92109375,21.6 9.92109375,21.6 C9.5859375,21.6 9.4421875,21.74375 9.4421875,22.0789062 C9.4421875,22.4140625 9.5859375,22.5578125 9.92109375,22.5578125 C9.92109375,22.5578125 9.92109375,22.5578125 9.92109375,22.5578125 C9.92109375,22.5578125 17.4882812,22.5578125 17.4882812,22.5578125 C17.6796875,22.9890625 17.7757813,23.4679687 17.7757813,23.9945312 C17.7757813,23.9945312 17.7757813,23.9945312 17.7757813,23.9945312 C17.7757813,23.9945312 17.7757813,24.0421875 17.7757813,24.0421875 C17.7757813,24.3773437 17.9195312,24.5210937 18.2546875,24.5210937 C18.2546875,24.5210937 18.2546875,24.5210937 18.2546875,24.5210937 C18.5898438,24.5210937 18.78125,24.3773437 18.78125,24.0421875 C18.78125,24.0421875 18.78125,24.0421875 18.78125,24.0421875 C18.78125,22.7015625 18.35,21.6 17.5359375,20.6898437 C16.6742187,19.828125 15.4765625,18.965625 13.8960937,18.1039062 C13.8960937,18.1039062 13.8960937,18.1039062 13.8960937,18.1039062 C15.4765625,17.2421875 16.6742188,16.3796875 17.5359375,15.5179687 L17.5367187,15.5179687 Z M12.890625,17.5296875 C12.890625,17.5296875 12.890625,17.5296875 12.890625,17.5296875 C11.9804687,17.0507812 10.9273437,16.428125 9.82578125,15.6617188 C9.82578125,15.6617188 9.82578125,15.6617188 9.82578125,15.6617188 C9.82578125,15.6617188 13.8484375,15.709375 13.8484375,15.709375 C14.1835937,15.709375 14.3273437,15.5179687 14.3273437,15.1828125 C14.3273437,15.1828125 14.3273437,15.1828125 14.3273437,15.1828125 C14.3273437,14.8476563 14.1835937,14.7039063 13.8484375,14.7039063 C13.8484375,14.7039063 13.8484375,14.7039063 13.8484375,14.7039063 C13.8484375,14.7039063 8.96328125,14.7039063 8.96328125,14.7039063 C8.96328125,14.7039063 8.915625,14.7039063 8.915625,14.7039063 C8.3890625,14.1289062 8.1015625,13.50625 8.00546875,12.7882813 C8.00546875,12.7882813 8.00546875,12.7882813 8.00546875,12.7882813 C8.00546875,12.7882813 15.8117187,12.740625 15.8117187,12.740625 C16.146875,12.740625 16.290625,12.596875 16.290625,12.2617188 C16.290625,11.9265625 16.146875,11.7828125 15.8117187,11.7828125 C15.8117187,11.7828125 15.8117187,11.7828125 15.8117187,11.7828125 C15.8117187,11.7828125 8.00546875,11.7828125 8.00546875,11.7828125 C8.1015625,11.0640625 8.38828125,10.39375 8.915625,9.77109375 C8.915625,9.77109375 8.915625,9.77109375 8.915625,9.77109375 C8.915625,9.81875 8.915625,9.81875 8.96328125,9.81875 C8.96328125,9.81875 8.96328125,9.81875 8.96328125,9.81875 C8.96328125,9.81875 13.8484375,9.81875 13.8484375,9.81875 C14.1835937,9.81875 14.3273437,9.675 14.3273437,9.33984375 C14.3273437,9.33984375 14.3273437,9.33984375 14.3273437,9.33984375 C14.3273437,9.0046875 14.1835937,8.81328125 13.8484375,8.81328125 C13.8484375,8.81328125 13.8484375,8.81328125 13.8484375,8.81328125 C13.8484375,8.81328125 9.92109375,8.81328125 9.92109375,8.81328125 C10.9265625,8.09453125 11.8367187,7.5203125 12.746875,7.04140625 C12.746875,7.04140625 12.746875,7.04140625 12.746875,7.04140625 C14.4234375,7.85546875 15.6679687,8.66953125 16.5304687,9.38828125 C17.3445312,10.1546875 17.7757812,11.1125 17.7757812,12.2617188 C17.7757812,12.2617188 17.7757812,12.2617188 17.7757812,12.2617188 C17.7757812,12.884375 17.6796875,13.4109375 17.440625,13.9382813 C17.2015625,14.465625 16.7703125,14.94375 16.2429687,15.375 C15.7164062,15.80625 15.1890625,16.1890625 14.7585937,16.4289063 C14.3273437,16.7164063 13.7046875,17.0992188 12.890625,17.5304688 L12.890625,17.5296875 Z"/>
  <title>Dna</title>
</svg>