<svg xmlns="http://www.w3.org/2000/svg" viewBox="0 0 25 25" id="document-upload">
  <path d="M12.6328125,9.9625 C12.6328125,9.9625 15.6023437,12.8835937 15.6023437,12.8835937 C15.6984375,13.075 15.7460938,13.1710937 15.7460938,13.21875 C15.7460938,13.21875 15.7460938,13.21875 15.7460938,13.21875 C15.7460938,13.5539062 15.5546875,13.7453125 15.2195312,13.7453125 C15.2195312,13.7453125 15.2195312,13.7453125 15.2195312,13.7453125 C15.171875,13.7453125 15.0757812,13.6976562 14.884375,13.6015625 C14.884375,13.6015625 14.884375,13.6015625 14.884375,13.6015625 C14.884375,13.6015625 12.7773438,11.4945312 12.7773438,11.4945312 C12.7773438,11.4945312 12.7773438,19.109375 12.7773438,19.109375 C12.7773438,19.4445312 12.6335937,19.6359375 12.2984375,19.6359375 C11.9632813,19.6359375 11.8195313,19.4445312 11.8195313,19.109375 C11.8195313,19.109375 11.8195313,19.109375 11.8195313,19.109375 C11.8195313,19.109375 11.8195313,11.4945312 11.8195313,11.4945312 C11.8195313,11.4945312 9.7125,13.6015625 9.7125,13.6015625 C9.52109375,13.6976562 9.425,13.7453125 9.37734375,13.7453125 C9.37734375,13.7453125 9.37734375,13.7453125 9.37734375,13.7453125 C9.0421875,13.7453125 8.85078125,13.5539062 8.85078125,13.21875 C8.85078125,13.21875 8.85078125,13.21875 8.85078125,13.21875 C8.85078125,13.1710937 8.8984375,13.075 8.99453125,12.8835937 C8.99453125,12.8835937 8.99453125,12.8835937 8.99453125,12.8835937 C8.99453125,12.8835937 11.9640625,9.9625 11.9640625,9.9625 C12.0601563,9.86640625 12.1554688,9.81875 12.2992187,9.81875 C12.4429687,9.81875 12.5382812,9.86640625 12.634375,9.9625 C12.634375,9.9625 12.634375,9.9625 12.634375,9.9625 L12.6328125,9.9625 Z M22.5945312,7.80703125 C22.5945312,7.80703125 22.5945312,7.80703125 22.5945312,7.80703125 C22.5945312,7.80703125 22.5945312,23.0367188 22.5945312,23.0367188 C22.5945312,23.4679688 22.4507812,23.803125 22.1632813,24.090625 C21.8757812,24.378125 21.540625,24.521875 21.109375,24.521875 C21.109375,24.521875 21.109375,24.521875 21.109375,24.521875 C21.109375,24.521875 3.48515625,24.521875 3.48515625,24.521875 C3.05390625,24.521875 2.71875,24.378125 2.43125,24.090625 C2.14375,23.803125 2,23.4679688 2,23.0367188 C2,23.0367188 2,23.0367188 2,23.0367188 C2,23.0367188 2,1.48515625 2,1.48515625 C2,1.05390625 2.14375,0.71875 2.43125,0.43125 C2.71875,0.14375 3.05390625,0 3.48515625,0 C3.48515625,0 3.48515625,0 3.48515625,0 C3.48515625,0 14.7875,0 14.7875,0 C15.21875,0 15.6015625,0.14375 15.8414062,0.43125 C15.8414062,0.43125 15.8414062,0.43125 15.8414062,0.43125 C15.8414062,0.43125 22.1632813,6.753125 22.1632813,6.753125 C22.4507812,7.040625 22.5945312,7.37578125 22.5945312,7.80703125 Z M20.8703125,6.84921875 C20.8703125,6.84921875 15.6976563,1.6765625 15.6976563,1.6765625 C15.6976563,1.6765625 15.7453125,6.3703125 15.7453125,6.3703125 C15.7453125,6.70546875 15.8890625,6.84921875 16.2242187,6.84921875 C16.2242187,6.84921875 16.2242187,6.84921875 16.2242187,6.84921875 C16.2242187,6.84921875 20.8695313,6.84921875 20.8695313,6.84921875 L20.8703125,6.84921875 Z M21.6367188,23.0375 C21.6367188,23.0375 21.6367188,7.85546875 21.6367188,7.85546875 C21.6367188,7.85546875 16.225,7.85546875 16.225,7.85546875 C15.79375,7.85546875 15.4585937,7.71171875 15.1710937,7.42421875 C14.8835937,7.13671875 14.7398437,6.8015625 14.7398437,6.3703125 C14.7398437,6.3703125 14.7398437,6.3703125 14.7398437,6.3703125 C14.7398437,6.3703125 14.7398437,0.95859375 14.7398437,0.95859375 C14.7398437,0.95859375 3.48515625,0.95859375 3.48515625,0.95859375 C3.15,0.95859375 2.95859375,1.15 2.95859375,1.48515625 C2.95859375,1.48515625 2.95859375,1.48515625 2.95859375,1.48515625 C2.95859375,1.48515625 2.95859375,23.0367187 2.95859375,23.0367187 C2.95859375,23.371875 3.15,23.515625 3.48515625,23.515625 C3.48515625,23.515625 3.48515625,23.515625 3.48515625,23.515625 C3.48515625,23.515625 21.109375,23.515625 21.109375,23.515625 C21.4445312,23.515625 21.6359375,23.371875 21.6359375,23.0367187 C21.6359375,23.0367187 21.6359375,23.0367187 21.6359375,23.0367187 L21.6367188,23.0375 Z"/>
  <title>Document Upload</title>
</svg>