<svg xmlns="http://www.w3.org/2000/svg" viewBox="0 0 25 25" id="documents-data">
  <path d="M22.5945312,6.84921875 C22.5945312,6.84921875 22.5945312,20.115625 22.5945312,20.115625 C22.5945312,20.4507812 22.4507812,20.5945312 22.115625,20.5945312 C22.115625,20.5945312 22.115625,20.5945312 22.115625,20.5945312 C22.115625,20.5945312 6.40703125,20.5945312 6.40703125,20.5945312 C6.071875,20.5945312 5.928125,20.4507812 5.928125,20.115625 C5.928125,20.115625 5.928125,20.115625 5.928125,20.115625 C5.928125,20.115625 5.928125,1.48515625 5.928125,1.48515625 C5.928125,1.15 6.071875,0.95859375 6.40703125,0.95859375 C6.40703125,0.95859375 6.40703125,0.95859375 6.40703125,0.95859375 C6.40703125,0.95859375 16.65625,0.95859375 16.65625,0.95859375 C16.65625,0.95859375 16.7039062,5.4125 16.7039062,5.4125 C16.7039062,5.84375 16.8476562,6.17890625 17.1351562,6.41796875 C17.4226562,6.70546875 17.7578125,6.84921875 18.1890625,6.84921875 C18.1890625,6.84921875 18.1890625,6.84921875 18.1890625,6.84921875 C18.1890625,6.84921875 22.5953125,6.84921875 22.5953125,6.84921875 L22.5945312,6.84921875 Z M19.625,21.6 C19.625,21.6 19.625,23.0367187 19.625,23.0367187 C19.625,23.371875 19.48125,23.5632812 19.1460937,23.5632812 C19.1460937,23.5632812 19.1460937,23.5632812 19.1460937,23.5632812 C19.1460937,23.5632812 3.4375,23.5632812 3.4375,23.5632812 C3.10234375,23.5632812 2.95859375,23.371875 2.95859375,23.0367187 C2.95859375,23.0367187 2.95859375,23.0367187 2.95859375,23.0367187 C2.95859375,23.0367187 2.95859375,4.40625 2.95859375,4.40625 C2.95859375,4.07109375 3.10234375,3.92734375 3.4375,3.92734375 C3.4375,3.92734375 3.4375,3.92734375 3.4375,3.92734375 C3.4375,3.92734375 4.921875,3.92734375 4.921875,3.92734375 C4.921875,3.92734375 4.921875,20.1148437 4.921875,20.1148437 C4.921875,20.5460937 5.065625,20.88125 5.353125,21.16875 C5.640625,21.45625 5.97578125,21.6 6.40703125,21.6 C6.40703125,21.6 6.40703125,21.6 6.40703125,21.6 C6.40703125,21.6 19.6257813,21.6 19.6257813,21.6 L19.625,21.6 Z M17.6609375,1.6765625 C17.6609375,1.6765625 21.8757812,5.89140625 21.8757812,5.89140625 C21.8757812,5.89140625 18.1882812,5.89140625 18.1882812,5.89140625 C17.853125,5.89140625 17.6617187,5.74765625 17.6617187,5.4125 C17.6617187,5.4125 17.6617187,5.4125 17.6617187,5.4125 C17.6617187,5.4125 17.6617187,1.6765625 17.6617187,1.6765625 L17.6609375,1.6765625 Z M23.1210938,5.7953125 C23.1210938,5.7953125 23.1210938,5.7953125 23.1210938,5.7953125 C23.1210938,5.7953125 17.8046875,0.43125 17.8046875,0.43125 C17.5171875,0.14375 17.1820313,0 16.7507812,0 C16.7507812,0 16.7507812,0 16.7507812,0 C16.7507812,0 6.40625,0 6.40625,0 C5.975,0 5.63984375,0.14375 5.35234375,0.43125 C5.06484375,0.71875 4.92109375,1.05390625 4.92109375,1.48515625 C4.92109375,1.48515625 4.92109375,1.48515625 4.92109375,1.48515625 C4.92109375,1.48515625 4.92109375,2.921875 4.92109375,2.921875 C4.92109375,2.921875 3.43671875,2.921875 3.43671875,2.921875 C3.05390625,2.921875 2.71796875,3.065625 2.43125,3.353125 C2.14453125,3.640625 2,3.97578125 2,4.40703125 C2,4.40703125 2,4.40703125 2,4.40703125 C2,4.40703125 2,23.0375 2,23.0375 C2,23.46875 2.14375,23.8039063 2.43125,24.0914063 C2.71875,24.3789062 3.05390625,24.5226563 3.43671875,24.5226563 C3.43671875,24.5226563 3.43671875,24.5226563 3.43671875,24.5226563 C3.43671875,24.5226563 19.1453125,24.5226563 19.1453125,24.5226563 C19.5765625,24.5226563 19.9117188,24.3789062 20.1992188,24.0914063 C20.4867188,23.8039063 20.6304688,23.46875 20.6304688,23.0375 C20.6304688,23.0375 20.6304688,23.0375 20.6304688,23.0375 C20.6304688,23.0375 20.6304688,21.6007813 20.6304688,21.6007813 C20.6304688,21.6007813 22.1148438,21.6007813 22.1148438,21.6007813 C22.5460937,21.6007813 22.88125,21.4570312 23.16875,21.1695313 C23.4078125,20.8820313 23.5515625,20.546875 23.5515625,20.115625 C23.5515625,20.115625 23.5515625,20.115625 23.5515625,20.115625 C23.5515625,20.115625 23.5515625,6.8015625 23.5515625,6.8015625 C23.5515625,6.3703125 23.4078125,6.03515625 23.1203125,5.79609375 L23.1210938,5.7953125 Z M7.89140625,5.4125 C7.89140625,5.4125 7.89140625,5.4125 7.89140625,5.4125 C7.89140625,5.07734375 8.03515625,4.8859375 8.3703125,4.8859375 C8.3703125,4.8859375 8.3703125,4.8859375 8.3703125,4.8859375 C8.3703125,4.8859375 14.2609375,4.8859375 14.2609375,4.8859375 C14.5960937,4.8859375 14.7398437,5.07734375 14.7398437,5.4125 C14.7398437,5.4125 14.7398437,5.4125 14.7398437,5.4125 C14.7398437,5.74765625 14.5960937,5.89140625 14.2609375,5.89140625 C14.2609375,5.89140625 14.2609375,5.89140625 14.2609375,5.89140625 C14.2609375,5.89140625 8.3703125,5.89140625 8.3703125,5.89140625 C8.03515625,5.89140625 7.89140625,5.74765625 7.89140625,5.4125 L7.89140625,5.4125 Z M20.6304687,9.3390625 C20.6304687,9.3390625 20.6304687,9.3390625 20.6304687,9.3390625 C20.6304687,9.67421875 20.4867188,9.81796875 20.1515625,9.81796875 C20.1515625,9.81796875 20.1515625,9.81796875 20.1515625,9.81796875 C20.1515625,9.81796875 8.3703125,9.81796875 8.3703125,9.81796875 C8.03515625,9.81796875 7.89140625,9.67421875 7.89140625,9.3390625 C7.89140625,9.3390625 7.89140625,9.3390625 7.89140625,9.3390625 C7.89140625,9.00390625 8.03515625,8.8125 8.3703125,8.8125 C8.3703125,8.8125 8.3703125,8.8125 8.3703125,8.8125 C8.3703125,8.8125 20.1515625,8.8125 20.1515625,8.8125 C20.4867188,8.8125 20.6304687,9.00390625 20.6304687,9.3390625 Z M20.6304687,13.21875 C20.6304687,13.21875 20.6304687,13.21875 20.6304687,13.21875 C20.6304687,13.5539062 20.4867188,13.7453125 20.1515625,13.7453125 C20.1515625,13.7453125 20.1515625,13.7453125 20.1515625,13.7453125 C20.1515625,13.7453125 8.3703125,13.7453125 8.3703125,13.7453125 C8.03515625,13.7453125 7.89140625,13.5539062 7.89140625,13.21875 C7.89140625,13.21875 7.89140625,13.21875 7.89140625,13.21875 C7.89140625,12.8835938 8.03515625,12.7398438 8.3703125,12.7398438 C8.3703125,12.7398438 8.3703125,12.7398438 8.3703125,12.7398438 C8.3703125,12.7398438 20.1515625,12.7398438 20.1515625,12.7398438 C20.4867188,12.7398438 20.6304687,12.8835938 20.6304687,13.21875 Z M20.6304687,17.1460937 C20.6304687,17.1460937 20.6304687,17.1460937 20.6304687,17.1460937 C20.6304687,17.48125 20.4867188,17.6726562 20.1515625,17.6726562 C20.1515625,17.6726562 20.1515625,17.6726562 20.1515625,17.6726562 C20.1515625,17.6726562 8.3703125,17.6726562 8.3703125,17.6726562 C8.03515625,17.6726562 7.89140625,17.48125 7.89140625,17.1460937 C7.89140625,17.1460937 7.89140625,17.1460937 7.89140625,17.1460937 C7.89140625,16.8109375 8.03515625,16.6671875 8.3703125,16.6671875 C8.3703125,16.6671875 8.3703125,16.6671875 8.3703125,16.6671875 C8.3703125,16.6671875 20.1515625,16.6671875 20.1515625,16.6671875 C20.4867188,16.6671875 20.6304687,16.8109375 20.6304687,17.1460937 C20.6304687,17.1460937 20.6304687,17.1460937 20.6304687,17.1460937 Z"/>
  <title>Documents Data</title>
</svg>