<svg xmlns="http://www.w3.org/2000/svg" viewBox="0 0 25 25" id="document-upload-solid">
  <path d="M22.5945312,7.8546875 C22.5945312,7.8546875 16.225,7.8546875 16.225,7.8546875 C15.79375,7.8546875 15.4585937,7.7109375 15.1710937,7.4234375 C14.8835938,7.1359375 14.7398437,6.80078125 14.7398437,6.36953125 C14.7398437,6.36953125 14.7398437,6.36953125 14.7398437,6.36953125 C14.7398437,6.36953125 14.7398437,0 14.7398437,0 C14.7398437,0 3.48515625,0 3.48515625,0 C3.05390625,0 2.71875,0.14375 2.43125,0.43125 C2.14375,0.71875 2,1.05390625 2,1.48515625 C2,1.48515625 2,1.48515625 2,1.48515625 C2,1.48515625 2,23.0367188 2,23.0367188 C2,23.4679688 2.14375,23.803125 2.43125,24.090625 C2.71875,24.378125 3.05390625,24.521875 3.48515625,24.521875 C3.48515625,24.521875 3.48515625,24.521875 3.48515625,24.521875 C3.48515625,24.521875 21.109375,24.521875 21.109375,24.521875 C21.540625,24.521875 21.8757812,24.378125 22.1632813,24.090625 C22.4507812,23.803125 22.5945312,23.4679688 22.5945312,23.0367188 C22.5945312,23.0367188 22.5945312,23.0367188 22.5945312,23.0367188 C22.5945312,23.0367188 22.5945312,7.8546875 22.5945312,7.8546875 Z M15.7453125,13.21875 C15.7453125,13.3625 15.6976562,13.50625 15.6015625,13.6015625 C15.5054687,13.696875 15.3625,13.7453125 15.21875,13.7453125 C15.21875,13.7453125 15.21875,13.7453125 15.21875,13.7453125 C15.075,13.7453125 14.9796875,13.6976562 14.8835937,13.6015625 C14.8835937,13.6015625 14.8835937,13.6015625 14.8835937,13.6015625 C14.8835937,13.6015625 12.7765625,11.4945312 12.7765625,11.4945312 C12.7765625,11.4945312 12.7765625,19.109375 12.7765625,19.109375 C12.7765625,19.4445312 12.6328125,19.6359375 12.2976563,19.6359375 C11.9625,19.6359375 11.81875,19.4445312 11.81875,19.109375 C11.81875,19.109375 11.81875,19.109375 11.81875,19.109375 C11.81875,19.109375 11.81875,11.4945312 11.81875,11.4945312 C11.81875,11.4945312 9.71171875,13.6015625 9.71171875,13.6015625 C9.5203125,13.6976562 9.42421875,13.7453125 9.3765625,13.7453125 C9.3765625,13.7453125 9.3765625,13.7453125 9.3765625,13.7453125 C9.04140625,13.7453125 8.85,13.5539062 8.85,13.21875 C8.85,13.21875 8.85,13.21875 8.85,13.21875 C8.85,13.1710937 8.89765625,13.075 8.99375,12.8835937 C8.99375,12.8835937 8.99375,12.8835937 8.99375,12.8835937 C8.99375,12.8835937 11.9632813,9.9625 11.9632813,9.9625 C12.059375,9.86640625 12.1546875,9.81875 12.2984375,9.81875 C12.4421875,9.81875 12.5375,9.86640625 12.6335937,9.9625 C12.6335937,9.9625 12.6335937,9.9625 12.6335937,9.9625 C12.6335937,9.9625 15.603125,12.8835937 15.603125,12.8835937 C15.6992188,12.9796875 15.746875,13.075 15.746875,13.21875 C15.746875,13.21875 15.746875,13.21875 15.746875,13.21875 L15.7453125,13.21875 Z M15.7453125,6.36953125 C15.7453125,6.36953125 15.7453125,6.36953125 15.7453125,6.36953125 C15.7453125,6.36953125 15.6976562,0.2875 15.6976562,0.2875 C15.6976562,0.2875 22.1632813,6.753125 22.1632813,6.753125 C22.1632813,6.753125 22.259375,6.84921875 22.259375,6.84921875 C22.259375,6.84921875 16.225,6.84921875 16.225,6.84921875 C15.8898438,6.84921875 15.7460938,6.70546875 15.7460938,6.3703125 L15.7453125,6.36953125 Z"/>
  <title>Document Upload Solid</title>
</svg>