<svg xmlns="http://www.w3.org/2000/svg" viewBox="0 0 25 25" id="document-plus">
  <path d="M22.1632813,6.753125 C22.1632813,6.753125 22.1632813,6.753125 22.1632813,6.753125 C22.1632813,6.753125 15.8414062,0.43125 15.8414062,0.43125 C15.6023437,0.14375 15.21875,0 14.7875,0 C14.7875,0 14.7875,0 14.7875,0 C14.7875,0 3.48515625,0 3.48515625,0 C3.05390625,0 2.71875,0.14375 2.43125,0.43125 C2.14375,0.71875 2,1.05390625 2,1.48515625 C2,1.48515625 2,1.48515625 2,1.48515625 C2,1.48515625 2,23.0367188 2,23.0367188 C2,23.4679688 2.14375,23.803125 2.43125,24.090625 C2.71875,24.378125 3.05390625,24.521875 3.48515625,24.521875 C3.48515625,24.521875 3.48515625,24.521875 3.48515625,24.521875 C3.48515625,24.521875 21.109375,24.521875 21.109375,24.521875 C21.540625,24.521875 21.8757812,24.378125 22.1632813,24.090625 C22.4507812,23.803125 22.5945312,23.4679688 22.5945312,23.0367188 C22.5945312,23.0367188 22.5945312,23.0367188 22.5945312,23.0367188 C22.5945312,23.0367188 22.5945312,7.80703125 22.5945312,7.80703125 C22.5945312,7.37578125 22.4507812,7.040625 22.1632813,6.753125 Z M15.6976563,1.6765625 C15.6976563,1.6765625 20.8703125,6.84921875 20.8703125,6.84921875 C20.8703125,6.84921875 16.225,6.84921875 16.225,6.84921875 C15.8898438,6.84921875 15.7460938,6.70546875 15.7460938,6.3703125 C15.7460938,6.3703125 15.7460938,6.3703125 15.7460938,6.3703125 C15.7460938,6.3703125 15.6984375,1.6765625 15.6984375,1.6765625 L15.6976563,1.6765625 Z M21.6367188,7.8546875 C21.6367188,7.8546875 21.6367188,23.0367188 21.6367188,23.0367188 C21.6367188,23.371875 21.4453125,23.515625 21.1101563,23.515625 C21.1101563,23.515625 21.1101563,23.515625 21.1101563,23.515625 C21.1101563,23.515625 3.4859375,23.515625 3.4859375,23.515625 C3.15078125,23.515625 2.959375,23.371875 2.959375,23.0367188 C2.959375,23.0367188 2.959375,23.0367188 2.959375,23.0367188 C2.959375,23.0367188 2.959375,1.48515625 2.959375,1.48515625 C2.959375,1.15 3.15078125,0.95859375 3.4859375,0.95859375 C3.4859375,0.95859375 3.4859375,0.95859375 3.4859375,0.95859375 C3.4859375,0.95859375 14.740625,0.95859375 14.740625,0.95859375 C14.740625,0.95859375 14.740625,6.3703125 14.740625,6.3703125 C14.740625,6.8015625 14.884375,7.13671875 15.171875,7.42421875 C15.459375,7.71171875 15.7945313,7.85546875 16.2257813,7.85546875 C16.2257813,7.85546875 16.2257813,7.85546875 16.2257813,7.85546875 C16.2257813,7.85546875 21.6375,7.85546875 21.6375,7.85546875 L21.6367188,7.8546875 Z M12.7765625,11.2546875 C12.7765625,11.2546875 12.7765625,14.703125 12.7765625,14.703125 C12.7765625,14.703125 16.225,14.703125 16.225,14.703125 C16.5601563,14.703125 16.7039063,14.846875 16.7039063,15.1820312 C16.7039063,15.1820312 16.7039063,15.1820312 16.7039063,15.1820312 C16.7039063,15.5171875 16.5601563,15.7085937 16.225,15.7085937 C16.225,15.7085937 16.225,15.7085937 16.225,15.7085937 C16.225,15.7085937 12.7765625,15.7085937 12.7765625,15.7085937 C12.7765625,15.7085937 12.7765625,19.1085937 12.7765625,19.1085937 C12.7765625,19.44375 12.6328125,19.6351562 12.2976563,19.6351562 C11.9625,19.6351562 11.81875,19.44375 11.81875,19.1085937 C11.81875,19.1085937 11.81875,19.1085937 11.81875,19.1085937 C11.81875,19.1085937 11.81875,15.7085937 11.81875,15.7085937 C11.81875,15.7085937 8.3703125,15.7085937 8.3703125,15.7085937 C8.03515625,15.7085937 7.89140625,15.5171875 7.89140625,15.1820312 C7.89140625,15.1820312 7.89140625,15.1820312 7.89140625,15.1820312 C7.89140625,14.846875 8.03515625,14.703125 8.3703125,14.703125 C8.3703125,14.703125 8.3703125,14.703125 8.3703125,14.703125 C8.3703125,14.703125 11.81875,14.703125 11.81875,14.703125 C11.81875,14.703125 11.81875,11.2546875 11.81875,11.2546875 C11.81875,10.9195312 11.9625,10.7757812 12.2976563,10.7757812 C12.6328125,10.7757812 12.7765625,10.9195312 12.7765625,11.2546875 C12.7765625,11.2546875 12.7765625,11.2546875 12.7765625,11.2546875 Z"/>
  <title>Document Plus</title>
</svg>