<svg xmlns="http://www.w3.org/2000/svg" viewBox="0 0 25 25" id="documents-data-solid">
  <path d="M5.928125,22.5578125 C5.928125,22.5578125 5.928125,22.5578125 5.928125,22.5578125 C5.928125,22.5578125 19.6734375,22.5578125 19.6734375,22.5578125 C19.6734375,22.5578125 19.6734375,23.0367187 19.6734375,23.0367187 C19.6734375,23.4679687 19.5296875,23.803125 19.2421875,24.090625 C18.9546875,24.378125 18.6195312,24.521875 18.1882812,24.521875 C18.1882812,24.521875 18.1882812,24.521875 18.1882812,24.521875 C18.1882812,24.521875 3.48515625,24.521875 3.48515625,24.521875 C3.05390625,24.521875 2.71875,24.378125 2.43125,24.090625 C2.14375,23.803125 2,23.4679687 2,23.0367187 C2,23.0367187 2,23.0367187 2,23.0367187 C2,23.0367187 2,4.40625 2,4.40625 C2,3.975 2.14375,3.63984375 2.43125,3.35234375 C2.71875,3.06484375 3.05390625,2.92109375 3.48515625,2.92109375 C3.48515625,2.92109375 3.48515625,2.92109375 3.48515625,2.92109375 C3.48515625,2.92109375 3.9640625,2.92109375 3.9640625,2.92109375 C3.9640625,2.92109375 3.9640625,20.59375 3.9640625,20.59375 C3.9640625,21.1203125 4.15546875,21.5992187 4.5390625,21.9828125 C4.92265625,22.3664062 5.40078125,22.5578125 5.928125,22.5578125 Z M22.2601563,5.89140625 C22.2601563,5.89140625 17.1835938,5.89140625 17.1835938,5.89140625 C16.8484375,5.89140625 16.7046875,5.74765625 16.7046875,5.4125 C16.7046875,5.4125 16.7046875,5.4125 16.7046875,5.4125 C16.7046875,5.4125 16.7046875,0.28828125 16.7046875,0.28828125 C16.7046875,0.28828125 22.2601563,5.89140625 22.2601563,5.89140625 Z M17.1828125,6.84921875 C17.1828125,6.84921875 22.5945312,6.84921875 22.5945312,6.84921875 C22.5945312,6.84921875 22.5945312,20.115625 22.5945312,20.115625 C22.5945312,20.546875 22.4507812,20.8820313 22.1632813,21.1695313 C21.8757813,21.4570312 21.540625,21.6007813 21.109375,21.6007813 C21.109375,21.6007813 21.109375,21.6007813 21.109375,21.6007813 C21.109375,21.6007813 6.40625,21.6007813 6.40625,21.6007813 C5.975,21.6007813 5.63984375,21.4570312 5.35234375,21.1695313 C5.06484375,20.8820313 4.92109375,20.546875 4.92109375,20.115625 C4.92109375,20.115625 4.92109375,20.115625 4.92109375,20.115625 C4.92109375,20.115625 4.92109375,1.48515625 4.92109375,1.48515625 C4.92109375,1.05390625 5.06484375,0.71875 5.35234375,0.43125 C5.63984375,0.14375 5.975,0 6.40625,0 C6.40625,0 6.40625,0 6.40625,0 C6.40625,0 15.6976562,0 15.6976562,0 C15.6976562,0 15.7453125,5.41171875 15.7453125,5.41171875 C15.7453125,5.84296875 15.8890625,6.178125 16.1765625,6.465625 C16.1765625,6.465625 16.1765625,6.465625 16.1765625,6.465625 C16.415625,6.7046875 16.7515625,6.8484375 17.1820313,6.8484375 C17.1820313,6.8484375 17.1820313,6.8484375 17.1820313,6.8484375 L17.1828125,6.84921875 Z M7.41328125,5.4125 C7.41328125,5.4125 7.41328125,5.4125 7.41328125,5.4125 C7.41328125,5.74765625 7.55703125,5.89140625 7.8921875,5.89140625 C7.8921875,5.89140625 7.8921875,5.89140625 7.8921875,5.89140625 C7.8921875,5.89140625 13.7828125,5.89140625 13.7828125,5.89140625 C14.1179688,5.89140625 14.2617188,5.74765625 14.2617188,5.4125 C14.2617188,5.4125 14.2617188,5.4125 14.2617188,5.4125 C14.2617188,5.07734375 14.1179688,4.8859375 13.7828125,4.8859375 C13.7828125,4.8859375 13.7828125,4.8859375 13.7828125,4.8859375 C13.7828125,4.8859375 7.8921875,4.8859375 7.8921875,4.8859375 C7.55703125,4.8859375 7.41328125,5.07734375 7.41328125,5.4125 L7.41328125,5.4125 Z M20.1523438,9.3390625 C20.1523438,9.3390625 20.1523438,9.3390625 20.1523438,9.3390625 C20.1523438,9.00390625 20.0085938,8.8125 19.6734375,8.8125 C19.6734375,8.8125 19.6734375,8.8125 19.6734375,8.8125 C19.6734375,8.8125 7.8921875,8.8125 7.8921875,8.8125 C7.55703125,8.8125 7.41328125,9.00390625 7.41328125,9.3390625 C7.41328125,9.3390625 7.41328125,9.3390625 7.41328125,9.3390625 C7.41328125,9.67421875 7.55703125,9.81796875 7.8921875,9.81796875 C7.8921875,9.81796875 7.8921875,9.81796875 7.8921875,9.81796875 C7.8921875,9.81796875 19.6734375,9.81796875 19.6734375,9.81796875 C20.0085938,9.81796875 20.1523438,9.67421875 20.1523438,9.3390625 Z M20.1523438,13.21875 C20.1523438,13.21875 20.1523438,13.21875 20.1523438,13.21875 C20.1523438,12.8835938 20.0085938,12.7398438 19.6734375,12.7398438 C19.6734375,12.7398438 19.6734375,12.7398438 19.6734375,12.7398438 C19.6734375,12.7398438 7.8921875,12.7398438 7.8921875,12.7398438 C7.55703125,12.7398438 7.41328125,12.8835938 7.41328125,13.21875 C7.41328125,13.21875 7.41328125,13.21875 7.41328125,13.21875 C7.41328125,13.5539062 7.55703125,13.7453125 7.8921875,13.7453125 C7.8921875,13.7453125 7.8921875,13.7453125 7.8921875,13.7453125 C7.8921875,13.7453125 19.6734375,13.7453125 19.6734375,13.7453125 C20.0085938,13.7453125 20.1523438,13.5539062 20.1523438,13.21875 Z M20.1523438,17.1460937 C20.1523438,17.1460937 20.1523438,17.1460937 20.1523438,17.1460937 C20.1523438,16.8109375 20.0085938,16.6671875 19.6734375,16.6671875 C19.6734375,16.6671875 19.6734375,16.6671875 19.6734375,16.6671875 C19.6734375,16.6671875 7.8921875,16.6671875 7.8921875,16.6671875 C7.55703125,16.6671875 7.41328125,16.8109375 7.41328125,17.1460937 C7.41328125,17.1460937 7.41328125,17.1460937 7.41328125,17.1460937 C7.41328125,17.48125 7.55703125,17.6726562 7.8921875,17.6726562 C7.8921875,17.6726562 7.8921875,17.6726562 7.8921875,17.6726562 C7.8921875,17.6726562 19.6734375,17.6726562 19.6734375,17.6726562 C20.0085938,17.6726562 20.1523438,17.48125 20.1523438,17.1460937 Z"/>
  <title>Documents Data Solid</title>
</svg>