<svg xmlns="http://www.w3.org/2000/svg" viewBox="0 0 25 25" id="document-compress">
  <path d="M22.2054688,6.753125 C22.2054688,6.753125 22.2054688,6.753125 22.2054688,6.753125 C22.2054688,6.753125 15.4523438,0 15.4523438,0 C15.4523438,0 4.48515625,0 4.48515625,0 C4.05390625,0 3.71875,0.14375 3.43125,0.43125 C3.14375,0.71875 3,1.05390625 3,1.48515625 C3,1.48515625 3,1.48515625 3,1.48515625 C3,1.48515625 3,23.0367188 3,23.0367188 C3,23.4679688 3.14375,23.803125 3.43125,24.090625 C3.71875,24.378125 4.05390625,24.521875 4.48515625,24.521875 C4.48515625,24.521875 4.48515625,24.521875 4.48515625,24.521875 C4.48515625,24.521875 21.1515625,24.521875 21.1515625,24.521875 C21.5828125,24.521875 21.9179688,24.378125 22.2054688,24.090625 C22.4929687,23.803125 22.6367188,23.4679688 22.6367188,23.0367188 C22.6367188,23.0367188 22.6367188,23.0367188 22.6367188,23.0367188 C22.6367188,23.0367188 22.6367188,7.80703125 22.6367188,7.80703125 C22.6367188,7.37578125 22.4929687,6.99296875 22.2054688,6.753125 Z M15.7398437,1.6765625 C15.7398437,1.6765625 20.9125,6.84921875 20.9125,6.84921875 C20.9125,6.84921875 16.2671875,6.84921875 16.2671875,6.84921875 C15.9320313,6.84921875 15.7882813,6.70546875 15.7882813,6.3703125 C15.7882813,6.3703125 15.7882813,6.3703125 15.7882813,6.3703125 C15.7882813,6.3703125 15.740625,1.6765625 15.740625,1.6765625 L15.7398437,1.6765625 Z M21.6789063,7.8546875 C21.6789063,7.8546875 21.6789063,23.0367188 21.6789063,23.0367188 C21.6789063,23.371875 21.4875,23.515625 21.1523438,23.515625 C21.1523438,23.515625 21.1523438,23.515625 21.1523438,23.515625 C21.1523438,23.515625 12.81875,23.515625 12.81875,23.515625 C12.81875,23.515625 12.81875,21.6 12.81875,21.6 C12.81875,21.6 10.8554688,21.6 10.8554688,21.6 C10.8554688,21.6 10.8554688,23.515625 10.8554688,23.515625 C10.8554688,23.515625 4.4859375,23.515625 4.4859375,23.515625 C4.15078125,23.515625 4.00703125,23.371875 4.00703125,23.0367188 C4.00703125,23.0367188 4.00703125,23.0367188 4.00703125,23.0367188 C4.00703125,23.0367188 4.00703125,1.48515625 4.00703125,1.48515625 C4.00703125,1.15 4.15078125,0.95859375 4.4859375,0.95859375 C4.4859375,0.95859375 4.4859375,0.95859375 4.4859375,0.95859375 C4.4859375,0.95859375 14.7828125,0.95859375 14.7828125,0.95859375 C14.7828125,0.95859375 14.7828125,6.3703125 14.7828125,6.3703125 C14.7828125,6.8015625 14.9265625,7.13671875 15.2140625,7.42421875 C15.5015625,7.71171875 15.8367188,7.85546875 16.2679688,7.85546875 C16.2679688,7.85546875 16.2679688,7.85546875 16.2679688,7.85546875 C16.2679688,7.85546875 21.6796875,7.85546875 21.6796875,7.85546875 L21.6789063,7.8546875 Z M10.8546875,17.6726562 C10.8546875,17.6726562 12.8179688,17.6726562 12.8179688,17.6726562 C12.8179688,17.6726562 12.8179688,19.6359375 12.8179688,19.6359375 C12.8179688,19.6359375 10.8546875,19.6359375 10.8546875,19.6359375 C10.8546875,19.6359375 10.8546875,17.6726562 10.8546875,17.6726562 Z M14.7820312,19.6359375 C14.7820312,19.6359375 14.7820312,21.5992187 14.7820312,21.5992187 C14.7820312,21.5992187 12.81875,21.5992187 12.81875,21.5992187 C12.81875,21.5992187 12.81875,19.6359375 12.81875,19.6359375 C12.81875,19.6359375 14.7820312,19.6359375 14.7820312,19.6359375 Z M10.8546875,13.7453125 C10.8546875,13.7453125 12.8179688,13.7453125 12.8179688,13.7453125 C12.8179688,13.7453125 12.8179688,15.7085937 12.8179688,15.7085937 C12.8179688,15.7085937 10.8546875,15.7085937 10.8546875,15.7085937 C10.8546875,15.7085937 10.8546875,13.7453125 10.8546875,13.7453125 Z M14.7820312,15.7085938 C14.7820312,15.7085938 14.7820312,17.671875 14.7820312,17.671875 C14.7820312,17.671875 12.81875,17.671875 12.81875,17.671875 C12.81875,17.671875 12.81875,15.7085938 12.81875,15.7085938 C12.81875,15.7085938 14.7820312,15.7085938 14.7820312,15.7085938 Z"/>
  <title>Document Compress</title>
</svg>