<svg xmlns="http://www.w3.org/2000/svg" viewBox="0 0 25 25" id="document-compress-solid">
  <path d="M15.7882812,6.36953125 C15.7882812,6.36953125 15.7882812,6.36953125 15.7882812,6.36953125 C15.7882812,6.36953125 15.740625,0.2875 15.740625,0.2875 C15.740625,0.2875 22.20625,6.753125 22.20625,6.753125 C22.20625,6.753125 22.3023437,6.84921875 22.3023437,6.84921875 C22.3023437,6.84921875 16.2679687,6.84921875 16.2679687,6.84921875 C15.9328125,6.84921875 15.7890625,6.70546875 15.7890625,6.3703125 L15.7882812,6.36953125 Z M16.2671875,7.8546875 C16.2671875,7.8546875 22.6367188,7.8546875 22.6367188,7.8546875 C22.6367188,7.8546875 22.6367188,23.0367187 22.6367188,23.0367187 C22.6367188,23.4679687 22.4929687,23.803125 22.2054688,24.090625 C21.9179688,24.378125 21.5828125,24.521875 21.1515625,24.521875 C21.1515625,24.521875 21.1515625,24.521875 21.1515625,24.521875 C21.1515625,24.521875 4.48515625,24.521875 4.48515625,24.521875 C4.05390625,24.521875 3.71875,24.378125 3.43125,24.090625 C3.14375,23.803125 3,23.4679688 3,23.0367188 C3,23.0367188 3,23.0367188 3,23.0367188 C3,23.0367188 3,1.48515625 3,1.48515625 C3,1.05390625 3.14375,0.71875 3.43125,0.43125 C3.71875,0.14375 4.05390625,0 4.48515625,0 C4.48515625,0 4.48515625,0 4.48515625,0 C4.48515625,0 14.7820312,0 14.7820312,0 C14.7820312,0 14.7820312,6.36953125 14.7820312,6.36953125 C14.7820312,6.80078125 14.9257813,7.1359375 15.2132813,7.4234375 C15.5007812,7.7109375 15.8359375,7.8546875 16.2671875,7.8546875 C16.2671875,7.8546875 16.2671875,7.8546875 16.2671875,7.8546875 L16.2671875,7.8546875 Z M14.7828125,17.6726562 C14.7828125,17.6726562 14.7828125,15.709375 14.7828125,15.709375 C14.7828125,15.709375 12.8195312,15.709375 12.8195312,15.709375 C12.8195312,15.709375 12.8195312,13.7460938 12.8195312,13.7460938 C12.8195312,13.7460938 10.85625,13.7460938 10.85625,13.7460938 C10.85625,13.7460938 10.85625,15.709375 10.85625,15.709375 C10.85625,15.709375 12.8195312,15.709375 12.8195312,15.709375 C12.8195312,15.709375 12.8195312,17.6726562 12.8195312,17.6726562 C12.8195312,17.6726562 10.85625,17.6726562 10.85625,17.6726562 C10.85625,17.6726562 10.85625,19.6359375 10.85625,19.6359375 C10.85625,19.6359375 12.8195312,19.6359375 12.8195312,19.6359375 C12.8195312,19.6359375 12.8195312,21.5992187 12.8195312,21.5992187 C12.8195312,21.5992187 10.85625,21.5992187 10.85625,21.5992187 C10.85625,21.5992187 10.85625,23.5148437 10.85625,23.5148437 C10.85625,23.5148437 12.8195312,23.5148437 12.8195312,23.5148437 C12.8195312,23.5148437 12.8195312,21.5992187 12.8195312,21.5992187 C12.8195312,21.5992187 14.7828125,21.5992187 14.7828125,21.5992187 C14.7828125,21.5992187 14.7828125,19.6359375 14.7828125,19.6359375 C14.7828125,19.6359375 12.8195312,19.6359375 12.8195312,19.6359375 C12.8195312,19.6359375 12.8195312,17.6726562 12.8195312,17.6726562 C12.8195312,17.6726562 14.7828125,17.6726562 14.7828125,17.6726562 Z"/>
  <title>Document Compress Solid</title>
</svg>