<svg xmlns="http://www.w3.org/2000/svg" viewBox="0 0 25 25" id="document-download">
  <path d="M15.6015625,15.853125 C15.6015625,15.853125 15.6015625,15.853125 15.6015625,15.853125 C15.6976563,15.9007812 15.7453125,16.0445312 15.7453125,16.1882812 C15.7453125,16.1882812 15.7453125,16.1882812 15.7453125,16.1882812 C15.7453125,16.3320312 15.6976563,16.4273437 15.6015625,16.5234375 C15.6015625,16.5234375 15.6015625,16.5234375 15.6015625,16.5234375 C15.6015625,16.5234375 12.6320312,19.4929687 12.6320312,19.4929687 C12.440625,19.5890625 12.3445312,19.6367187 12.296875,19.6367187 C12.2492187,19.6367187 12.153125,19.5890625 11.9617187,19.4929687 C11.9617187,19.4929687 11.9617187,19.4929687 11.9617187,19.4929687 C11.9617187,19.4929687 8.9921875,16.5234375 8.9921875,16.5234375 C8.89609375,16.3320312 8.8484375,16.2359375 8.8484375,16.1882812 C8.8484375,16.1882812 8.8484375,16.1882812 8.8484375,16.1882812 C8.8484375,15.853125 9.03984375,15.709375 9.375,15.709375 C9.375,15.709375 9.375,15.709375 9.375,15.709375 C9.51875,15.709375 9.6140625,15.7570312 9.71015625,15.853125 C9.71015625,15.853125 9.71015625,15.853125 9.71015625,15.853125 C9.71015625,15.853125 11.8171875,17.9601562 11.8171875,17.9601562 C11.8171875,17.9601562 11.8171875,10.2976562 11.8171875,10.2976562 C11.8171875,9.9625 11.9609375,9.81875 12.2960938,9.81875 C12.63125,9.81875 12.775,9.9625 12.775,10.2976562 C12.775,10.2976562 12.775,10.2976562 12.775,10.2976562 C12.775,10.2976562 12.775,17.9601562 12.775,17.9601562 C12.775,17.9601562 14.8820312,15.853125 14.8820312,15.853125 C14.978125,15.7570312 15.0734375,15.709375 15.2171875,15.709375 C15.2171875,15.709375 15.2171875,15.709375 15.2171875,15.709375 C15.3609375,15.709375 15.5046875,15.7570312 15.6,15.853125 L15.6015625,15.853125 Z M22.5945312,7.80703125 C22.5945312,7.80703125 22.5945312,7.80703125 22.5945312,7.80703125 C22.5945312,7.80703125 22.5945312,23.0367188 22.5945312,23.0367188 C22.5945312,23.4679688 22.4507812,23.803125 22.1632813,24.090625 C21.8757812,24.378125 21.540625,24.521875 21.109375,24.521875 C21.109375,24.521875 21.109375,24.521875 21.109375,24.521875 C21.109375,24.521875 3.48515625,24.521875 3.48515625,24.521875 C3.05390625,24.521875 2.71875,24.378125 2.43125,24.090625 C2.14375,23.803125 2,23.4679688 2,23.0367188 C2,23.0367188 2,23.0367188 2,23.0367188 C2,23.0367188 2,1.48515625 2,1.48515625 C2,1.05390625 2.14375,0.71875 2.43125,0.43125 C2.71875,0.14375 3.05390625,0 3.48515625,0 C3.48515625,0 3.48515625,0 3.48515625,0 C3.48515625,0 14.7875,0 14.7875,0 C15.21875,0 15.6015625,0.14375 15.8414062,0.43125 C15.8414062,0.43125 15.8414062,0.43125 15.8414062,0.43125 C15.8414062,0.43125 22.1632813,6.753125 22.1632813,6.753125 C22.4507812,7.040625 22.5945312,7.37578125 22.5945312,7.80703125 Z M20.8703125,6.84921875 C20.8703125,6.84921875 15.6976563,1.6765625 15.6976563,1.6765625 C15.6976563,1.6765625 15.7453125,6.3703125 15.7453125,6.3703125 C15.7453125,6.70546875 15.8890625,6.84921875 16.2242187,6.84921875 C16.2242187,6.84921875 16.2242187,6.84921875 16.2242187,6.84921875 C16.2242187,6.84921875 20.8695313,6.84921875 20.8695313,6.84921875 L20.8703125,6.84921875 Z M21.6367188,23.0375 C21.6367188,23.0375 21.6367188,7.85546875 21.6367188,7.85546875 C21.6367188,7.85546875 16.225,7.85546875 16.225,7.85546875 C15.79375,7.85546875 15.4585937,7.71171875 15.1710937,7.42421875 C14.8835937,7.13671875 14.7398437,6.8015625 14.7398437,6.3703125 C14.7398437,6.3703125 14.7398437,6.3703125 14.7398437,6.3703125 C14.7398437,6.3703125 14.7398437,0.95859375 14.7398437,0.95859375 C14.7398437,0.95859375 3.48515625,0.95859375 3.48515625,0.95859375 C3.15,0.95859375 2.95859375,1.15 2.95859375,1.48515625 C2.95859375,1.48515625 2.95859375,1.48515625 2.95859375,1.48515625 C2.95859375,1.48515625 2.95859375,23.0367187 2.95859375,23.0367187 C2.95859375,23.371875 3.15,23.515625 3.48515625,23.515625 C3.48515625,23.515625 3.48515625,23.515625 3.48515625,23.515625 C3.48515625,23.515625 21.109375,23.515625 21.109375,23.515625 C21.4445312,23.515625 21.6359375,23.371875 21.6359375,23.0367187 C21.6359375,23.0367187 21.6359375,23.0367187 21.6359375,23.0367187 L21.6367188,23.0375 Z"/>
  <title>Document Download</title>
</svg>