<svg xmlns="http://www.w3.org/2000/svg" viewBox="0 0 25 25" id="document-download-solid">
  <path d="M15.7460938,6.36953125 C15.7460938,6.36953125 15.7460938,6.36953125 15.7460938,6.36953125 C15.7460938,6.36953125 15.6984375,0.2875 15.6984375,0.2875 C15.6984375,0.2875 22.1640625,6.753125 22.1640625,6.753125 C22.1640625,6.753125 22.2601563,6.84921875 22.2601563,6.84921875 C22.2601563,6.84921875 16.2257813,6.84921875 16.2257813,6.84921875 C15.890625,6.84921875 15.746875,6.70546875 15.746875,6.3703125 L15.7460938,6.36953125 Z M16.225,7.8546875 C16.225,7.8546875 22.5945312,7.8546875 22.5945312,7.8546875 C22.5945312,7.8546875 22.5945312,23.0367187 22.5945312,23.0367187 C22.5945312,23.4679687 22.4507812,23.803125 22.1632813,24.090625 C21.8757812,24.378125 21.540625,24.521875 21.109375,24.521875 C21.109375,24.521875 21.109375,24.521875 21.109375,24.521875 C21.109375,24.521875 3.48515625,24.521875 3.48515625,24.521875 C3.05390625,24.521875 2.71875,24.378125 2.43125,24.090625 C2.14375,23.803125 2,23.4679688 2,23.0367188 C2,23.0367188 2,23.0367188 2,23.0367188 C2,23.0367188 2,1.48515625 2,1.48515625 C2,1.05390625 2.14375,0.71875 2.43125,0.43125 C2.71875,0.14375 3.05390625,0 3.48515625,0 C3.48515625,0 3.48515625,0 3.48515625,0 C3.48515625,0 14.7398437,0 14.7398437,0 C14.7398437,0 14.7398437,6.36953125 14.7398437,6.36953125 C14.7398437,6.80078125 14.8835937,7.1359375 15.1710937,7.4234375 C15.4585937,7.7109375 15.79375,7.8546875 16.225,7.8546875 C16.225,7.8546875 16.225,7.8546875 16.225,7.8546875 L16.225,7.8546875 Z M15.6023437,15.8523437 C15.6023437,15.8523437 15.6023437,15.8523437 15.6023437,15.8523437 C15.50625,15.75625 15.3632812,15.7085937 15.2195312,15.7085937 C15.2195312,15.7085937 15.2195312,15.7085937 15.2195312,15.7085937 C15.0757812,15.7085937 14.9804688,15.75625 14.884375,15.8523437 C14.884375,15.8523437 14.884375,15.8523437 14.884375,15.8523437 C14.884375,15.8523437 12.7773438,17.959375 12.7773438,17.959375 C12.7773438,17.959375 12.7773438,10.296875 12.7773438,10.296875 C12.7773438,9.96171875 12.6335938,9.81796875 12.2984375,9.81796875 C11.9632813,9.81796875 11.8195313,9.96171875 11.8195313,10.296875 C11.8195313,10.296875 11.8195313,10.296875 11.8195313,10.296875 C11.8195313,10.296875 11.8195313,17.959375 11.8195313,17.959375 C11.8195313,17.959375 9.7125,15.8523437 9.7125,15.8523437 C9.61640625,15.75625 9.52109375,15.7085937 9.37734375,15.7085937 C9.37734375,15.7085937 9.37734375,15.7085937 9.37734375,15.7085937 C9.0421875,15.7085937 8.85078125,15.8523437 8.85078125,16.1875 C8.85078125,16.1875 8.85078125,16.1875 8.85078125,16.1875 C8.85078125,16.2351562 8.8984375,16.33125 8.99453125,16.5226562 C8.99453125,16.5226562 8.99453125,16.5226562 8.99453125,16.5226562 C8.99453125,16.5226562 11.9640625,19.4921875 11.9640625,19.4921875 C12.1554688,19.5882812 12.2515625,19.6359375 12.2992188,19.6359375 C12.346875,19.6359375 12.4429688,19.5882812 12.634375,19.4921875 C12.634375,19.4921875 12.634375,19.4921875 12.634375,19.4921875 C12.634375,19.4921875 15.6039063,16.5226562 15.6039063,16.5226562 C15.7,16.4265625 15.7476563,16.33125 15.7476563,16.1875 C15.7476563,16.1875 15.7476563,16.1875 15.7476563,16.1875 C15.7476563,16.04375 15.7,15.9 15.6039063,15.8523437 L15.6023437,15.8523437 Z"/>
  <title>Document Download Solid</title>
</svg>