<svg xmlns="http://www.w3.org/2000/svg" viewBox="0 0 25 25" id="documents-check">
  <path d="M23.16875,5.74765625 C23.16875,5.74765625 23.16875,5.74765625 23.16875,5.74765625 C23.16875,5.74765625 17.8523438,0.43125 17.8523438,0.43125 C17.5648438,0.14375 17.2296875,0 16.7984375,0 C16.7984375,0 16.7984375,0 16.7984375,0 C16.7984375,0 6.45390625,0 6.45390625,0 C6.02265625,0 5.6875,0.14375 5.4,0.43125 C5.1125,0.71875 4.96875,1.05390625 4.96875,1.48515625 C4.96875,1.48515625 4.96875,1.48515625 4.96875,1.48515625 C4.96875,1.48515625 4.96875,2.921875 4.96875,2.921875 C4.96875,2.921875 3.484375,2.921875 3.484375,2.921875 C3.053125,2.921875 2.71796875,3.065625 2.47890625,3.353125 C2.19140625,3.640625 2.04765625,3.97578125 2,4.40703125 C2,4.40703125 2,4.40703125 2,4.40703125 C2,4.40703125 2,23.0375 2,23.0375 C2.04765625,23.46875 2.19140625,23.8039063 2.47890625,24.0914062 C2.71796875,24.3789062 3.05390625,24.5226563 3.484375,24.5226563 C3.484375,24.5226563 3.484375,24.5226563 3.484375,24.5226563 C3.484375,24.5226563 19.1929688,24.5226563 19.1929688,24.5226563 C19.6242188,24.5226563 19.959375,24.3789062 20.246875,24.0914063 C20.534375,23.8039063 20.678125,23.46875 20.678125,23.0375 C20.678125,23.0375 20.678125,23.0375 20.678125,23.0375 C20.678125,23.0375 20.678125,21.6007813 20.678125,21.6007813 C20.678125,21.6007813 22.1148438,21.6007813 22.1148438,21.6007813 C22.5460938,21.6007813 22.88125,21.4570312 23.16875,21.1695313 C23.45625,20.8820313 23.6,20.546875 23.6,20.115625 C23.6,20.115625 23.6,20.115625 23.6,20.115625 C23.6,20.115625 23.6,6.8015625 23.6,6.8015625 C23.6,6.3703125 23.45625,6.03515625 23.16875,5.74765625 Z M17.7085938,1.67734375 C17.7085938,1.67734375 21.875,5.8921875 21.875,5.8921875 C21.875,5.8921875 18.1875,5.8921875 18.1875,5.8921875 C17.8523438,5.8921875 17.7085938,5.7484375 17.7085938,5.41328125 C17.7085938,5.41328125 17.7085938,5.41328125 17.7085938,5.41328125 C17.7085938,5.41328125 17.7085938,1.67734375 17.7085938,1.67734375 L17.7085938,1.67734375 Z M19.6726563,21.6007813 C19.6726563,21.6007813 19.6726563,23.0375 19.6726563,23.0375 C19.6726563,23.3726562 19.5289062,23.5164062 19.19375,23.5164062 C19.19375,23.5164062 19.19375,23.5164062 19.19375,23.5164062 C19.19375,23.5164062 3.48515625,23.5164062 3.48515625,23.5164062 C3.15,23.5164062 3.00625,23.3726562 3.00625,23.0375 C3.00625,23.0375 3.00625,23.0375 3.00625,23.0375 C3.00625,23.0375 3.00625,4.40703125 3.00625,4.40703125 C3.00625,4.071875 3.15,3.928125 3.48515625,3.928125 C3.48515625,3.928125 3.48515625,3.928125 3.48515625,3.928125 C3.48515625,3.928125 4.96953125,3.928125 4.96953125,3.928125 C4.96953125,3.928125 4.96953125,20.115625 4.96953125,20.115625 C4.96953125,20.546875 5.11328125,20.8820312 5.40078125,21.1695312 C5.68828125,21.4570312 6.0234375,21.6007812 6.4546875,21.6007812 C6.4546875,21.6007812 6.4546875,21.6007812 6.4546875,21.6007812 C6.4546875,21.6007812 19.6734375,21.6007812 19.6734375,21.6007812 L19.6726563,21.6007813 Z M22.6421875,6.84921875 C22.6421875,6.84921875 22.6421875,20.115625 22.6421875,20.115625 C22.6421875,20.4507812 22.4507812,20.5945312 22.115625,20.5945312 C22.115625,20.5945312 22.115625,20.5945312 22.115625,20.5945312 C22.115625,20.5945312 6.4546875,20.5945312 6.4546875,20.5945312 C6.11953125,20.5945312 5.928125,20.4507812 5.928125,20.115625 C5.928125,20.115625 5.928125,20.115625 5.928125,20.115625 C5.928125,20.115625 5.928125,1.48515625 5.928125,1.48515625 C5.928125,1.15 6.11953125,0.95859375 6.4546875,0.95859375 C6.4546875,0.95859375 6.4546875,0.95859375 6.4546875,0.95859375 C6.4546875,0.95859375 16.7039063,0.95859375 16.7039063,0.95859375 C16.7039063,0.95859375 16.7515625,5.4125 16.7515625,5.4125 C16.7515625,5.84375 16.8953125,6.17890625 17.1828125,6.41796875 C17.421875,6.70546875 17.7578125,6.84921875 18.1882813,6.84921875 C18.1882813,6.84921875 18.1882813,6.84921875 18.1882813,6.84921875 C18.1882813,6.84921875 22.6421875,6.84921875 22.6421875,6.84921875 Z M13.2546875,14.5601562 C13.2546875,14.5601562 17.8523438,9.9625 17.8523438,9.9625 C17.9484375,9.86640625 18.04375,9.81875 18.1875,9.81875 C18.1875,9.81875 18.1875,9.81875 18.1875,9.81875 C18.5226563,9.81875 18.7140625,9.9625 18.7140625,10.2976562 C18.7140625,10.2976562 18.7140625,10.2976562 18.7140625,10.2976562 C18.7140625,10.3453125 18.6664063,10.4414062 18.5703125,10.6328125 C18.5703125,10.6328125 18.5703125,10.6328125 18.5703125,10.6328125 C18.5703125,10.6328125 13.6375,15.565625 13.6375,15.565625 C13.4460937,15.6617187 13.35,15.709375 13.3023438,15.709375 C13.3023438,15.709375 13.3023438,15.709375 13.3023438,15.709375 C13.1585937,15.709375 13.0632812,15.6617187 12.9671875,15.565625 C12.9671875,15.565625 12.9671875,15.565625 12.9671875,15.565625 C12.9671875,15.565625 10.0460938,13.1234375 10.0460938,13.1234375 C9.90234375,12.9796875 9.8546875,12.884375 9.8546875,12.740625 C9.8546875,12.740625 9.8546875,12.740625 9.8546875,12.740625 C9.8546875,12.4054688 10.0460938,12.2617188 10.38125,12.2617188 C10.38125,12.2617188 10.38125,12.2617188 10.38125,12.2617188 C10.4289063,12.2617188 10.525,12.309375 10.66875,12.3578125 C10.66875,12.3578125 10.66875,12.3578125 10.66875,12.3578125 C10.66875,12.3578125 13.2546875,14.5609375 13.2546875,14.5609375 L13.2546875,14.5601562 Z"/>
  <title>Documents Check</title>
</svg>