<svg xmlns="http://www.w3.org/2000/svg" viewBox="0 0 25 25" id="document-check">
  <path d="M22.1632813,6.753125 C22.1632813,6.753125 22.1632813,6.753125 22.1632813,6.753125 C22.1632813,6.753125 15.8414062,0.43125 15.8414062,0.43125 C15.6023437,0.14375 15.21875,0 14.7875,0 C14.7875,0 14.7875,0 14.7875,0 C14.7875,0 3.48515625,0 3.48515625,0 C3.05390625,0 2.71875,0.14375 2.43125,0.43125 C2.14375,0.71875 2,1.05390625 2,1.48515625 C2,1.48515625 2,1.48515625 2,1.48515625 C2,1.48515625 2,23.0367188 2,23.0367188 C2,23.4679688 2.14375,23.803125 2.43125,24.090625 C2.71875,24.378125 3.05390625,24.521875 3.48515625,24.521875 C3.48515625,24.521875 3.48515625,24.521875 3.48515625,24.521875 C3.48515625,24.521875 21.109375,24.521875 21.109375,24.521875 C21.540625,24.521875 21.8757812,24.378125 22.1632813,24.090625 C22.4507812,23.803125 22.5945312,23.4679688 22.5945312,23.0367188 C22.5945312,23.0367188 22.5945312,23.0367188 22.5945312,23.0367188 C22.5945312,23.0367188 22.5945312,7.80703125 22.5945312,7.80703125 C22.5945312,7.37578125 22.4507812,7.040625 22.1632813,6.753125 Z M15.6976563,1.6765625 C15.6976563,1.6765625 20.8703125,6.84921875 20.8703125,6.84921875 C20.8703125,6.84921875 16.225,6.84921875 16.225,6.84921875 C15.8898438,6.84921875 15.7460938,6.70546875 15.7460938,6.3703125 C15.7460938,6.3703125 15.7460938,6.3703125 15.7460938,6.3703125 C15.7460938,6.3703125 15.6984375,1.6765625 15.6984375,1.6765625 L15.6976563,1.6765625 Z M21.6367188,7.8546875 C21.6367188,7.8546875 21.6367188,23.0367188 21.6367188,23.0367188 C21.6367188,23.371875 21.4453125,23.515625 21.1101563,23.515625 C21.1101563,23.515625 21.1101563,23.515625 21.1101563,23.515625 C21.1101563,23.515625 3.4859375,23.515625 3.4859375,23.515625 C3.15078125,23.515625 2.959375,23.371875 2.959375,23.0367188 C2.959375,23.0367188 2.959375,23.0367188 2.959375,23.0367188 C2.959375,23.0367188 2.959375,1.48515625 2.959375,1.48515625 C2.959375,1.15 3.15078125,0.95859375 3.4859375,0.95859375 C3.4859375,0.95859375 3.4859375,0.95859375 3.4859375,0.95859375 C3.4859375,0.95859375 14.740625,0.95859375 14.740625,0.95859375 C14.740625,0.95859375 14.740625,6.3703125 14.740625,6.3703125 C14.740625,6.8015625 14.884375,7.13671875 15.171875,7.42421875 C15.459375,7.71171875 15.7945313,7.85546875 16.2257813,7.85546875 C16.2257813,7.85546875 16.2257813,7.85546875 16.2257813,7.85546875 C16.2257813,7.85546875 21.6375,7.85546875 21.6375,7.85546875 L21.6367188,7.8546875 Z M8.70546875,15.3257813 C8.70546875,15.3257813 11.2914063,17.48125 11.2914063,17.48125 C11.2914063,17.48125 16.846875,11.9257812 16.846875,11.9257812 C16.9429688,11.8296875 17.0382813,11.7820312 17.1820313,11.7820312 C17.1820313,11.7820312 17.1820313,11.7820312 17.1820313,11.7820312 C17.5171875,11.7820312 17.7085937,11.9257812 17.7085937,12.2609375 C17.7085937,12.2609375 17.7085937,12.2609375 17.7085937,12.2609375 C17.7085937,12.3085938 17.6609375,12.4046875 17.5648438,12.5960937 C17.5648438,12.5960937 17.5648438,12.5960937 17.5648438,12.5960937 C17.5648438,12.5960937 11.6742188,18.4867188 11.6742188,18.4867188 C11.578125,18.5828125 11.4828125,18.6304688 11.3390625,18.6304688 C11.3390625,18.6304688 11.3390625,18.6304688 11.3390625,18.6304688 C11.2429688,18.6304688 11.1476563,18.5828125 11.0039062,18.534375 C11.0039062,18.534375 11.0039062,18.534375 11.0039062,18.534375 C11.0039062,18.534375 8.0828125,16.0921875 8.0828125,16.0921875 C7.9390625,15.9960937 7.89140625,15.853125 7.89140625,15.709375 C7.89140625,15.709375 7.89140625,15.709375 7.89140625,15.709375 C7.89140625,15.3742188 8.03515625,15.1828125 8.3703125,15.1828125 C8.3703125,15.1828125 8.3703125,15.1828125 8.3703125,15.1828125 C8.5140625,15.1828125 8.609375,15.2304688 8.70546875,15.3265625 C8.70546875,15.3265625 8.70546875,15.3265625 8.70546875,15.3265625 L8.70546875,15.3257813 Z"/>
  <title>Document Check</title>
</svg>