<svg xmlns="http://www.w3.org/2000/svg" viewBox="0 0 25 25" id="document-check-solid">
  <path d="M15.7453125,6.36953125 C15.7453125,6.36953125 15.7453125,6.36953125 15.7453125,6.36953125 C15.7453125,6.36953125 15.7453125,0.2875 15.7453125,0.2875 C15.7453125,0.2875 22.2109375,6.753125 22.2109375,6.753125 C22.2109375,6.753125 22.2109375,6.80078125 22.2109375,6.80078125 C22.2109375,6.80078125 22.2585938,6.8484375 22.2585938,6.8484375 C22.2585938,6.8484375 16.2242187,6.8484375 16.2242187,6.8484375 C15.8890625,6.8484375 15.7453125,6.7046875 15.7453125,6.36953125 Z M16.2242187,7.8546875 C16.2242187,7.8546875 22.6421875,7.8546875 22.6421875,7.8546875 C22.6421875,7.8546875 22.6421875,23.0367187 22.6421875,23.0367187 C22.6421875,23.4679687 22.4984375,23.803125 22.2109375,24.090625 C21.9234375,24.378125 21.5882812,24.521875 21.1570312,24.521875 C21.1570312,24.521875 21.1570312,24.521875 21.1570312,24.521875 C21.1570312,24.521875 3.484375,24.521875 3.484375,24.521875 C3.053125,24.521875 2.71796875,24.378125 2.47890625,24.090625 C2.19140625,23.803125 2.04765625,23.4679688 2,23.0367188 C2,23.0367188 2,23.0367188 2,23.0367188 C2,23.0367188 2,1.48515625 2,1.48515625 C2.04765625,1.05390625 2.19140625,0.71875 2.47890625,0.43125 C2.71796875,0.14375 3.05390625,0 3.484375,0 C3.484375,0 3.484375,0 3.484375,0 C3.484375,0 14.7390625,0 14.7390625,0 C14.7390625,0 14.7867188,6.36953125 14.7867188,6.36953125 C14.7867188,6.80078125 14.9304688,7.1359375 15.2179688,7.4234375 C15.4570313,7.7109375 15.7929688,7.8546875 16.2234375,7.8546875 C16.2234375,7.8546875 16.2234375,7.8546875 16.2234375,7.8546875 L16.2242187,7.8546875 Z M17.7085938,12.2601562 C17.7085938,12.1164062 17.6609375,12.0210937 17.5648438,11.925 C17.46875,11.8289062 17.3734375,11.78125 17.2296875,11.78125 C17.0859375,11.78125 16.990625,11.8289062 16.8945313,11.925 C16.8945313,11.925 16.8945313,11.925 16.8945313,11.925 C16.8945313,11.925 11.2914063,17.4804687 11.2914063,17.4804687 C11.2914063,17.4804687 8.70546875,15.325 8.70546875,15.325 C8.609375,15.2289062 8.5140625,15.18125 8.41796875,15.18125 C8.41796875,15.18125 8.41796875,15.18125 8.41796875,15.18125 C8.0828125,15.18125 7.89140625,15.3726562 7.89140625,15.7078125 C7.89140625,15.7078125 7.89140625,15.7078125 7.89140625,15.7078125 C7.89140625,15.8515625 7.9390625,15.9953125 8.0828125,16.0429687 C8.0828125,16.0429687 8.0828125,16.0429687 8.0828125,16.0429687 C8.0828125,16.0429687 11.0039063,18.5335937 11.0039063,18.5335937 C11.1476563,18.58125 11.2429688,18.6296875 11.3390625,18.6296875 C11.3390625,18.6296875 11.3390625,18.6296875 11.3390625,18.6296875 C11.4828125,18.6296875 11.578125,18.5820312 11.6742188,18.4859375 C11.6742188,18.4859375 11.6742188,18.4859375 11.6742188,18.4859375 C11.6742188,18.4859375 17.5648438,12.5953125 17.5648438,12.5953125 C17.6609375,12.4992187 17.7085938,12.4039062 17.7085938,12.2601562 L17.7085938,12.2601562 Z"/>
  <title>Document Check Solid</title>
</svg>