<svg xmlns="http://www.w3.org/2000/svg" viewBox="0 0 25 25" id="documents-solid">
  <path d="M5.928125,22.5578125 C5.928125,22.5578125 5.928125,22.5578125 5.928125,22.5578125 C5.928125,22.5578125 19.6734375,22.5578125 19.6734375,22.5578125 C19.6734375,22.5578125 19.6734375,23.0367187 19.6734375,23.0367187 C19.6734375,23.4679687 19.5296875,23.803125 19.2421875,24.090625 C18.9546875,24.378125 18.6195312,24.521875 18.1882812,24.521875 C18.1882812,24.521875 18.1882812,24.521875 18.1882812,24.521875 C18.1882812,24.521875 3.48515625,24.521875 3.48515625,24.521875 C3.05390625,24.521875 2.71875,24.378125 2.43125,24.090625 C2.14375,23.803125 2,23.4679687 2,23.0367187 C2,23.0367187 2,23.0367187 2,23.0367187 C2,23.0367187 2,4.40625 2,4.40625 C2,3.975 2.14375,3.63984375 2.43125,3.35234375 C2.71875,3.06484375 3.05390625,2.92109375 3.48515625,2.92109375 C3.48515625,2.92109375 3.48515625,2.92109375 3.48515625,2.92109375 C3.48515625,2.92109375 3.9640625,2.92109375 3.9640625,2.92109375 C3.9640625,2.92109375 3.9640625,20.59375 3.9640625,20.59375 C3.9640625,21.1203125 4.15546875,21.5992187 4.5390625,21.9828125 C4.92265625,22.3664062 5.40078125,22.5578125 5.928125,22.5578125 Z M22.2601563,5.89140625 C22.2601563,5.89140625 17.1835938,5.89140625 17.1835938,5.89140625 C16.8484375,5.89140625 16.7046875,5.74765625 16.7046875,5.4125 C16.7046875,5.4125 16.7046875,5.4125 16.7046875,5.4125 C16.7046875,5.4125 16.7046875,0.28828125 16.7046875,0.28828125 C16.7046875,0.28828125 22.2601563,5.89140625 22.2601563,5.89140625 Z M17.1828125,6.84921875 C17.1828125,6.84921875 22.5945312,6.84921875 22.5945312,6.84921875 C22.5945312,6.84921875 22.5945312,20.115625 22.5945312,20.115625 C22.5945312,20.546875 22.4507812,20.8820313 22.1632813,21.1695313 C21.8757813,21.4570312 21.540625,21.6007813 21.109375,21.6007813 C21.109375,21.6007813 21.109375,21.6007813 21.109375,21.6007813 C21.109375,21.6007813 6.40625,21.6007813 6.40625,21.6007813 C5.975,21.6007813 5.63984375,21.4570312 5.35234375,21.1695313 C5.06484375,20.8820313 4.92109375,20.546875 4.92109375,20.115625 C4.92109375,20.115625 4.92109375,20.115625 4.92109375,20.115625 C4.92109375,20.115625 4.92109375,1.48515625 4.92109375,1.48515625 C4.92109375,1.05390625 5.06484375,0.71875 5.35234375,0.43125 C5.63984375,0.14375 5.975,0 6.40625,0 C6.40625,0 6.40625,0 6.40625,0 C6.40625,0 15.6976562,0 15.6976562,0 C15.6976562,0 15.7453125,5.41171875 15.7453125,5.41171875 C15.7453125,5.79453125 15.8890625,6.13046875 16.128125,6.465625 C16.128125,6.465625 16.128125,6.465625 16.128125,6.465625 C16.4632812,6.7046875 16.7984375,6.8484375 17.1820313,6.8484375 C17.1820313,6.8484375 17.1820313,6.8484375 17.1820313,6.8484375 L17.1828125,6.84921875 Z"/>
  <title>Documents Solid</title>
</svg>