<svg xmlns="http://www.w3.org/2000/svg" viewBox="0 0 25 25" id="document-solid">
  <path d="M16.225,7.8546875 C16.225,7.8546875 22.5945312,7.8546875 22.5945312,7.8546875 C22.5945312,7.8546875 22.5945312,23.0367187 22.5945312,23.0367187 C22.5945312,23.4679687 22.4507812,23.803125 22.1632813,24.090625 C21.8757812,24.378125 21.540625,24.521875 21.109375,24.521875 C21.109375,24.521875 21.109375,24.521875 21.109375,24.521875 C21.109375,24.521875 3.48515625,24.521875 3.48515625,24.521875 C3.05390625,24.521875 2.71875,24.378125 2.43125,24.090625 C2.14375,23.803125 2,23.4679688 2,23.0367188 C2,23.0367188 2,23.0367188 2,23.0367188 C2,23.0367188 2,1.48515625 2,1.48515625 C2,1.05390625 2.14375,0.71875 2.43125,0.43125 C2.71875,0.14375 3.05390625,0 3.48515625,0 C3.48515625,0 3.48515625,0 3.48515625,0 C3.48515625,0 14.7398437,0 14.7398437,0 C14.7398437,0 14.7398437,6.36953125 14.7398437,6.36953125 C14.7398437,6.80078125 14.8835937,7.1359375 15.1710937,7.4234375 C15.4585937,7.7109375 15.79375,7.8546875 16.225,7.8546875 C16.225,7.8546875 16.225,7.8546875 16.225,7.8546875 L16.225,7.8546875 Z M16.225,6.8484375 C16.225,6.8484375 16.225,6.8484375 16.225,6.8484375 C16.225,6.8484375 22.259375,6.8484375 22.259375,6.8484375 C22.259375,6.8484375 22.1632813,6.75234375 22.1632813,6.75234375 C22.1632813,6.75234375 15.6976562,0.28671875 15.6976562,0.28671875 C15.6976562,0.28671875 15.7453125,6.36875 15.7453125,6.36875 C15.7453125,6.70390625 15.8890625,6.84765625 16.2242187,6.84765625 L16.225,6.8484375 Z"/>
  <title>Document Solid</title>
</svg>