<svg xmlns="http://www.w3.org/2000/svg" viewBox="0 0 25 25" id="docusign">
  <path d="M10.728125,9.2086375 C10.728125,9.2086375 12.3085938,7.7242625 13.1703125,7.05316875 C13.2976563,7.78754375 13.4414062,8.50629375 13.6015625,9.2086375 C13.6015625,9.2086375 10.728125,9.2086375 10.728125,9.2086375 L10.728125,9.2086375 Z M13.2664062,14.2852 C13.2664062,14.2852 9.38671875,18.97895 4.88515625,18.97895 C4.88515625,18.97895 0,18.97895 0,18.97895 C0,18.97895 0,2.21645 0,2.21645 C0,2.21645 6.5609375,2.21645 6.5609375,2.21645 C7.77421875,2.2805125 8.89140625,2.5992625 9.91328125,3.1742625 C8.89140625,3.9727 8.0296875,4.7227 7.32734375,5.42504375 C6.94453125,5.32895 6.5453125,5.28129375 6.1296875,5.28129375 C6.1296875,5.28129375 3.06484375,5.28129375 3.06484375,5.28129375 C3.06484375,5.28129375 3.06484375,15.913325 3.06484375,15.913325 C3.06484375,15.913325 6.08203125,15.913325 6.08203125,15.913325 C7.5828125,15.8492625 8.86015625,15.194575 9.91328125,13.9500438 C11.3179687,14.1734813 12.4359375,14.2852 13.265625,14.2852 L13.2664062,14.2852 Z M10.3929688,4.8023875 C11.6382813,3.6852 12.93125,2.8227 14.2726563,2.21645 C15.6773438,1.60941875 16.9867188,1.2430125 18.2,1.1148875 C19.4773438,0.923481253 20.5945313,0.971137503 21.5523438,1.2586375 C22.5742188,1.51410625 23.35625,1.9773875 23.8992188,2.6477 C24.0585938,2.90316875 24.1546875,3.12660625 24.1867188,3.3180125 C24.21875,3.382075 24.2828125,3.6055125 24.378125,3.988325 C24.378125,3.988325 24.378125,4.61098125 24.378125,4.61098125 C24.3140625,4.8023875 24.2507813,4.96254375 24.1867188,5.0898875 C24.1867188,5.2492625 24.1226563,5.3930125 23.9953125,5.5211375 C23.9953125,5.5211375 23.6601563,5.85629375 23.6601563,5.85629375 C23.628125,5.888325 23.4367188,5.93598125 23.0851563,6.00004375 C22.6382813,6.0961375 22.3664063,6.0477 22.2710938,5.85629375 C22.175,5.7602 22.1117188,5.6805125 22.0796875,5.61723125 C22.0476563,5.5211375 22.0320313,5.40941875 22.0320313,5.282075 C22.0960938,5.15473125 22.1757813,5.0430125 22.2710938,4.94691875 C22.303125,4.88285625 22.3507813,4.819575 22.4148438,4.7555125 C22.4148438,4.7555125 22.60625,4.56410625 22.60625,4.56410625 C22.6382813,4.532075 22.6859375,4.4523875 22.75,4.32504375 C22.7820313,4.2930125 22.7976563,4.1977 22.7976563,4.03754375 C22.7015625,3.87816875 22.5101563,3.7180125 22.2226563,3.5586375 C21.9351563,3.43129375 21.5359375,3.3352 21.025,3.2711375 C20.3546875,3.207075 19.7960938,3.19145 19.3484375,3.22348125 C18.4546875,3.28754375 17.7835938,3.38285625 17.3367188,3.51098125 C16.7617188,3.7023875 16.0914063,3.95785625 15.325,4.2773875 C14.5265625,4.6602 13.7765625,5.04379375 13.0742188,5.42660625 C12.371875,5.77816875 11.6210938,6.2727 10.8234375,6.91098125 C9.99296875,7.58129375 9.3546875,8.23598125 8.9078125,8.8742625 C8.525,9.4492625 8.540625,9.8961375 8.95546875,10.2148875 C9.30703125,10.438325 9.99296875,10.582075 11.0148438,10.6461375 C11.653125,10.6781688 12.6914063,10.6937938 14.128125,10.6937938 C15.5328125,10.6937938 16.5390625,10.725825 17.1453125,10.7898875 C17.7203125,10.85395 18.11875,10.9492625 18.3429688,11.0773875 C18.7898438,11.2367625 19.125,11.4125438 19.3484375,11.60395 C19.6359375,11.7953563 19.875,12.0352 20.0671875,12.3227 C20.259375,12.6102 20.3546875,12.913325 20.3546875,13.2328563 C20.3867188,13.7437938 20.3070313,14.2867625 20.115625,14.8609813 C19.9242188,15.3719188 19.6523438,15.8828563 19.3015625,16.3937938 C18.8867188,16.9047313 18.4554688,17.3672313 18.0085938,17.7828563 C17.7210938,18.0703563 17.2265625,18.5016063 16.5242188,19.075825 C15.98125,19.4906688 15.3585938,19.9219188 14.65625,20.3687938 C13.8257813,20.8797313 12.9640625,21.3742625 12.0703125,21.8531688 C10.9210938,22.49145 10.1070313,22.907075 9.628125,23.0984813 C8.86171875,23.4180125 8.31875,23.5617625 8,23.5297313 C7.74453125,23.4656688 7.58515625,23.3859813 7.52109375,23.2906688 C7.36171875,23.1312938 7.265625,23.0031688 7.23359375,22.9078563 C7.23359375,22.71645 7.265625,22.5562938 7.3296875,22.42895 C7.553125,22.2055125 7.7125,22.0773875 7.80859375,22.0461375 C8.575,21.5352 9.0859375,21.2156688 9.34140625,21.088325 C9.4375,21.0242625 9.62890625,20.9203563 9.91640625,20.7773875 C10.2039063,20.6344188 10.4273438,20.5141063 10.5867188,20.4180125 C10.7460938,20.3219188 10.9859375,20.17895 11.3054688,19.9867625 C11.625,19.794575 11.8320313,19.6672313 11.928125,19.60395 C12.1195313,19.5078563 12.3992188,19.3328563 12.7664063,19.0773875 C13.1335938,18.8219188 13.4132813,18.6305125 13.6046875,18.5023875 C16.190625,16.5867625 17.4039063,15.2617625 17.2445313,14.5273875 C17.1804688,13.9523875 16.2226563,13.5219188 14.3710938,13.2344188 C11.465625,12.8828563 9.80546875,12.6437938 9.390625,12.5156688 C7.57109375,12.0687938 6.64453125,11.2703563 6.6125,10.1211375 C6.58046875,9.8977 6.6125,9.57816875 6.70859375,9.163325 C6.93203125,8.6523875 7.15546875,8.25316875 7.37890625,7.96566875 C7.9859375,7.1992625 8.384375,6.70473125 8.5765625,6.48129375 C9.0875,6.0023875 9.69375,5.44379375 10.3960938,4.80473125 L10.3929688,4.8023875 Z"/>
  <title>Docusign</title>
</svg>