<svg xmlns="http://www.w3.org/2000/svg" viewBox="0 0 25 25" id="documents-check-solid">
  <path d="M5.928125,22.5585938 C5.928125,22.5585938 5.928125,22.5585938 5.928125,22.5585938 C5.928125,22.5585938 19.6734375,22.5585938 19.6734375,22.5585938 C19.6734375,22.5585938 19.6734375,23.0375 19.6734375,23.0375 C19.6734375,23.46875 19.5296875,23.8039062 19.2421875,24.0914062 C18.9546875,24.3789062 18.6195312,24.5226562 18.1882812,24.5226562 C18.1882812,24.5226562 18.1882812,24.5226562 18.1882812,24.5226562 C18.1882812,24.5226562 3.48515625,24.5226562 3.48515625,24.5226562 C3.05390625,24.5226562 2.71875,24.3789062 2.43125,24.0914062 C2.14375,23.8039062 2,23.46875 2,23.0375 C2,23.0375 2,23.0375 2,23.0375 C2,23.0375 2,4.40703125 2,4.40703125 C2,3.97578125 2.14375,3.640625 2.43125,3.353125 C2.71875,3.065625 3.05390625,2.921875 3.48515625,2.921875 C3.48515625,2.921875 3.48515625,2.921875 3.48515625,2.921875 C3.48515625,2.921875 3.9640625,2.921875 3.9640625,2.921875 C3.9640625,2.921875 3.9640625,20.5945312 3.9640625,20.5945312 C3.9640625,21.1210937 4.15546875,21.6 4.5390625,21.9835937 C4.92265625,22.3671875 5.40078125,22.5585938 5.928125,22.5585938 Z M17.1828125,5.89140625 C17.1828125,5.89140625 17.1828125,5.89140625 17.1828125,5.89140625 C17.1828125,5.89140625 22.259375,5.89140625 22.259375,5.89140625 C22.259375,5.89140625 16.7039062,0.28828125 16.7039062,0.28828125 C16.7039062,0.28828125 16.7039062,5.4125 16.7039062,5.4125 C16.7039062,5.74765625 16.8476562,5.89140625 17.1828125,5.89140625 Z M17.1828125,6.84921875 C17.1828125,6.84921875 22.5945312,6.84921875 22.5945312,6.84921875 C22.5945312,6.84921875 22.5945312,20.115625 22.5945312,20.115625 C22.5945312,20.546875 22.4507812,20.8820313 22.1632813,21.1695313 C21.8757813,21.4570312 21.540625,21.6007813 21.109375,21.6007813 C21.109375,21.6007813 21.109375,21.6007813 21.109375,21.6007813 C21.109375,21.6007813 6.40625,21.6007813 6.40625,21.6007813 C5.975,21.6007813 5.63984375,21.4570312 5.35234375,21.1695313 C5.06484375,20.8820313 4.92109375,20.546875 4.92109375,20.115625 C4.92109375,20.115625 4.92109375,20.115625 4.92109375,20.115625 C4.92109375,20.115625 4.92109375,1.48515625 4.92109375,1.48515625 C4.92109375,1.05390625 5.06484375,0.71875 5.35234375,0.43125 C5.63984375,0.14375 5.975,0 6.40625,0 C6.40625,0 6.40625,0 6.40625,0 C6.40625,0 15.6976562,0 15.6976562,0 C15.6976562,0 15.7453125,5.41171875 15.7453125,5.41171875 C15.7453125,5.84296875 15.8890625,6.178125 16.1765625,6.4171875 C16.415625,6.7046875 16.7515625,6.8484375 17.1820313,6.8484375 C17.1820313,6.8484375 17.1820313,6.8484375 17.1820313,6.8484375 L17.1828125,6.84921875 Z M17.5664063,9.9625 C17.5664063,9.9625 17.5664063,9.9625 17.5664063,9.9625 C17.4703125,9.86640625 17.3273438,9.81875 17.1835938,9.81875 C17.1835938,9.81875 17.1835938,9.81875 17.1835938,9.81875 C17.0398438,9.81875 16.9445313,9.86640625 16.8484375,9.9625 C16.8484375,9.9625 16.8484375,9.9625 16.8484375,9.9625 C16.8484375,9.9625 12.2507813,14.5601563 12.2507813,14.5601563 C12.2507813,14.5601563 9.66484375,12.3570313 9.66484375,12.3570313 C9.52109375,12.309375 9.42578125,12.2609375 9.37734375,12.2609375 C9.37734375,12.2609375 9.37734375,12.2609375 9.37734375,12.2609375 C9.0421875,12.2609375 8.85078125,12.4046875 8.85078125,12.7398438 C8.85078125,12.7398438 8.85078125,12.7398438 8.85078125,12.7398438 C8.85078125,12.8835938 8.8984375,12.9789063 9.0421875,13.1226562 C9.0421875,13.1226562 9.0421875,13.1226562 9.0421875,13.1226562 C9.0421875,13.1226562 11.9632813,15.5648437 11.9632813,15.5648437 C12.059375,15.6609375 12.1546875,15.7085938 12.2984375,15.7085938 C12.2984375,15.7085938 12.2984375,15.7085938 12.2984375,15.7085938 C12.3460938,15.7085938 12.4421875,15.6609375 12.6335937,15.5648437 C12.6335937,15.5648437 12.6335937,15.5648437 12.6335937,15.5648437 C12.6335937,15.5648437 17.5664063,10.6320313 17.5664063,10.6320313 C17.6625,10.440625 17.7101563,10.3445312 17.7101563,10.296875 C17.7101563,10.2492188 17.6625,10.153125 17.5664063,9.96171875 L17.5664063,9.9625 Z"/>
  <title>Documents Check Solid</title>
</svg>