<svg xmlns="http://www.w3.org/2000/svg" viewBox="0 0 25 25" id="documents">
  <path d="M17.8523437,0.43125 C17.8523437,0.43125 23.16875,5.74765625 23.16875,5.74765625 C23.45625,6.03515625 23.6,6.3703125 23.6,6.8015625 C23.6,6.8015625 23.6,6.8015625 23.6,6.8015625 C23.6,6.8015625 23.6,20.115625 23.6,20.115625 C23.6,20.546875 23.45625,20.8820313 23.16875,21.1695313 C22.88125,21.4570312 22.5460938,21.6007813 22.1148438,21.6007813 C22.1148438,21.6007813 22.1148438,21.6007813 22.1148438,21.6007813 C22.1148438,21.6007813 20.678125,21.6007813 20.678125,21.6007813 C20.678125,21.6007813 20.678125,23.0375 20.678125,23.0375 C20.678125,23.46875 20.534375,23.8039063 20.246875,24.0914063 C19.959375,24.3789062 19.6242188,24.5226563 19.1929688,24.5226563 C19.1929688,24.5226563 19.1929688,24.5226563 19.1929688,24.5226563 C19.1929688,24.5226563 3.484375,24.5226563 3.484375,24.5226563 C3.1015625,24.5226563 2.765625,24.3789062 2.47890625,24.0914063 C2.47890625,24.0914063 2.47890625,24.0914063 2.47890625,24.0914063 C2.23984375,23.8039063 2.04765625,23.46875 2,23.0375 C2,23.0375 2,23.0375 2,23.0375 C2,23.0375 2,4.40703125 2,4.40703125 C2.04765625,3.97578125 2.23984375,3.59296875 2.47890625,3.353125 C2.47890625,3.353125 2.47890625,3.353125 2.47890625,3.353125 C2.76640625,3.065625 3.1015625,2.921875 3.484375,2.921875 C3.484375,2.921875 3.484375,2.921875 3.484375,2.921875 C3.484375,2.921875 4.96875,2.921875 4.96875,2.921875 C4.96875,2.921875 4.96875,1.48515625 4.96875,1.48515625 C4.96875,1.05390625 5.1125,0.71875 5.4,0.43125 C5.6875,0.14375 6.02265625,0 6.45390625,0 C6.45390625,0 6.45390625,0 6.45390625,0 C6.45390625,0 16.7984375,0 16.7984375,0 C17.2296875,0 17.5648438,0.14375 17.8523437,0.43125 C17.8523437,0.43125 17.8523437,0.43125 17.8523437,0.43125 Z M18.1875,5.89140625 C18.1875,5.89140625 21.875,5.89140625 21.875,5.89140625 C21.875,5.89140625 17.7085938,1.6765625 17.7085938,1.6765625 C17.7085938,1.6765625 17.7085938,5.4125 17.7085938,5.4125 C17.7085938,5.74765625 17.8523438,5.89140625 18.1875,5.89140625 C18.1875,5.89140625 18.1875,5.89140625 18.1875,5.89140625 L18.1875,5.89140625 Z M19.6726562,23.0367187 C19.6726562,23.0367187 19.6726562,23.0367187 19.6726562,23.0367187 C19.6726562,23.0367187 19.6726562,21.6 19.6726562,21.6 C19.6726562,21.6 6.45390625,21.6 6.45390625,21.6 C6.02265625,21.6 5.6875,21.45625 5.4,21.16875 C5.1125,20.88125 4.96875,20.5460937 4.96875,20.1148437 C4.96875,20.1148437 4.96875,20.1148437 4.96875,20.1148437 C4.96875,20.1148437 4.96875,3.92734375 4.96875,3.92734375 C4.96875,3.92734375 3.484375,3.92734375 3.484375,3.92734375 C3.14921875,3.92734375 3.00546875,4.07109375 3.00546875,4.40625 C3.00546875,4.40625 3.00546875,4.40625 3.00546875,4.40625 C3.00546875,4.40625 3.00546875,23.0367187 3.00546875,23.0367187 C3.00546875,23.371875 3.14921875,23.515625 3.484375,23.515625 C3.484375,23.515625 3.484375,23.515625 3.484375,23.515625 C3.484375,23.515625 19.1929687,23.515625 19.1929687,23.515625 C19.528125,23.515625 19.671875,23.371875 19.671875,23.0367187 L19.6726562,23.0367187 Z M22.6421875,20.1148438 C22.6421875,20.1148438 22.6421875,20.1148438 22.6421875,20.1148438 C22.6421875,20.1148438 22.6421875,6.8484375 22.6421875,6.8484375 C22.6421875,6.8484375 18.1882812,6.8484375 18.1882812,6.8484375 C17.853125,6.8484375 17.5179687,6.7046875 17.1828125,6.465625 C17.1828125,6.465625 17.1828125,6.465625 17.1828125,6.465625 C16.8953125,6.178125 16.7515625,5.84296875 16.7515625,5.41171875 C16.7515625,5.41171875 16.7515625,5.41171875 16.7515625,5.41171875 C16.7515625,5.41171875 16.7039063,0.9578125 16.7039063,0.9578125 C16.7039063,0.9578125 6.4546875,0.9578125 6.4546875,0.9578125 C6.11953125,0.9578125 5.928125,1.14921875 5.928125,1.484375 C5.928125,1.484375 5.928125,1.484375 5.928125,1.484375 C5.928125,1.484375 5.928125,20.1148438 5.928125,20.1148438 C5.928125,20.45 6.11953125,20.59375 6.4546875,20.59375 C6.4546875,20.59375 6.4546875,20.59375 6.4546875,20.59375 C6.4546875,20.59375 22.115625,20.59375 22.115625,20.59375 C22.4507812,20.59375 22.6421875,20.45 22.6421875,20.1148438 Z"/>
  <title>Documents</title>
</svg>