<svg xmlns="http://www.w3.org/2000/svg" viewBox="0 0 25 25" id="document-data-solid">
  <path d="M15.7460938,6.36953125 C15.7460938,6.36953125 15.7460938,6.36953125 15.7460938,6.36953125 C15.7460938,6.36953125 15.6984375,0.2875 15.6984375,0.2875 C15.6984375,0.2875 22.1640625,6.753125 22.1640625,6.753125 C22.1640625,6.753125 22.2601563,6.84921875 22.2601563,6.84921875 C22.2601563,6.84921875 16.2257813,6.84921875 16.2257813,6.84921875 C15.890625,6.84921875 15.746875,6.70546875 15.746875,6.3703125 L15.7460938,6.36953125 Z M16.225,7.8546875 C16.225,7.8546875 22.5945312,7.8546875 22.5945312,7.8546875 C22.5945312,7.8546875 22.5945312,23.0367187 22.5945312,23.0367187 C22.5945312,23.4679687 22.4507812,23.803125 22.1632813,24.090625 C21.8757812,24.378125 21.540625,24.521875 21.109375,24.521875 C21.109375,24.521875 21.109375,24.521875 21.109375,24.521875 C21.109375,24.521875 3.48515625,24.521875 3.48515625,24.521875 C3.05390625,24.521875 2.71875,24.378125 2.43125,24.090625 C2.14375,23.803125 2,23.4679688 2,23.0367188 C2,23.0367188 2,23.0367188 2,23.0367188 C2,23.0367188 2,1.48515625 2,1.48515625 C2,1.05390625 2.14375,0.71875 2.43125,0.43125 C2.71875,0.14375 3.05390625,0 3.48515625,0 C3.48515625,0 3.48515625,0 3.48515625,0 C3.48515625,0 14.7398437,0 14.7398437,0 C14.7398437,0 14.7398437,6.36953125 14.7398437,6.36953125 C14.7398437,6.80078125 14.8835937,7.1359375 15.1710937,7.4234375 C15.4585937,7.7109375 15.79375,7.8546875 16.225,7.8546875 C16.225,7.8546875 16.225,7.8546875 16.225,7.8546875 L16.225,7.8546875 Z M6.8859375,11.2546875 C6.8859375,11.2546875 6.8859375,11.2546875 6.8859375,11.2546875 C6.8859375,11.5898437 7.07734375,11.78125 7.4125,11.78125 C7.4125,11.78125 7.4125,11.78125 7.4125,11.78125 C7.4125,11.78125 13.2554688,11.78125 13.2554688,11.78125 C13.590625,11.78125 13.7820312,11.5898437 13.7820312,11.2546875 C13.7820312,11.2546875 13.7820312,11.2546875 13.7820312,11.2546875 C13.7820312,10.9195312 13.590625,10.7757812 13.2554688,10.7757812 C13.2554688,10.7757812 13.2554688,10.7757812 13.2554688,10.7757812 C13.2554688,10.7757812 7.4125,10.7757812 7.4125,10.7757812 C7.07734375,10.7757812 6.8859375,10.9195312 6.8859375,11.2546875 Z M17.7101563,19.109375 C17.7101563,19.109375 17.7101563,19.109375 17.7101563,19.109375 C17.7101563,18.7742187 17.51875,18.6304687 17.1835938,18.6304687 C17.1835938,18.6304687 17.1835938,18.6304687 17.1835938,18.6304687 C17.1835938,18.6304687 7.41328125,18.6304687 7.41328125,18.6304687 C7.078125,18.6304687 6.88671875,18.7742187 6.88671875,19.109375 C6.88671875,19.109375 6.88671875,19.109375 6.88671875,19.109375 C6.88671875,19.4445312 7.078125,19.6359375 7.41328125,19.6359375 C7.41328125,19.6359375 7.41328125,19.6359375 7.41328125,19.6359375 C7.41328125,19.6359375 17.1835938,19.6359375 17.1835938,19.6359375 C17.51875,19.6359375 17.7101563,19.4445312 17.7101563,19.109375 Z M17.7101563,15.1820312 C17.7101563,15.1820312 17.7101563,15.1820312 17.7101563,15.1820312 C17.7101563,14.846875 17.51875,14.703125 17.1835938,14.703125 C17.1835938,14.703125 17.1835938,14.703125 17.1835938,14.703125 C17.1835938,14.703125 7.41328125,14.703125 7.41328125,14.703125 C7.078125,14.703125 6.88671875,14.846875 6.88671875,15.1820312 C6.88671875,15.1820312 6.88671875,15.1820312 6.88671875,15.1820312 C6.88671875,15.5171875 7.078125,15.7085937 7.41328125,15.7085937 C7.41328125,15.7085937 7.41328125,15.7085937 7.41328125,15.7085937 C7.41328125,15.7085937 17.1835938,15.7085937 17.1835938,15.7085937 C17.51875,15.7085937 17.7101563,15.5171875 17.7101563,15.1820312 Z"/>
  <title>Document Data Solid</title>
</svg>