<svg xmlns="http://www.w3.org/2000/svg" viewBox="0 0 25 25" id="document-plus-solid">
  <path d="M15.7460938,6.36953125 C15.7460938,6.36953125 15.7460938,6.36953125 15.7460938,6.36953125 C15.7460938,6.36953125 15.6984375,0.2875 15.6984375,0.2875 C15.6984375,0.2875 22.1640625,6.753125 22.1640625,6.753125 C22.1640625,6.753125 22.2601563,6.84921875 22.2601563,6.84921875 C22.2601563,6.84921875 16.2257813,6.84921875 16.2257813,6.84921875 C15.890625,6.84921875 15.746875,6.70546875 15.746875,6.3703125 L15.7460938,6.36953125 Z M16.225,7.8546875 C16.225,7.8546875 22.5945312,7.8546875 22.5945312,7.8546875 C22.5945312,7.8546875 22.5945312,23.0367187 22.5945312,23.0367187 C22.5945312,23.4679687 22.4507812,23.803125 22.1632813,24.090625 C21.8757812,24.378125 21.540625,24.521875 21.109375,24.521875 C21.109375,24.521875 21.109375,24.521875 21.109375,24.521875 C21.109375,24.521875 3.48515625,24.521875 3.48515625,24.521875 C3.05390625,24.521875 2.71875,24.378125 2.43125,24.090625 C2.14375,23.803125 2,23.4679688 2,23.0367188 C2,23.0367188 2,23.0367188 2,23.0367188 C2,23.0367188 2,1.48515625 2,1.48515625 C2,1.05390625 2.14375,0.71875 2.43125,0.43125 C2.71875,0.14375 3.05390625,0 3.48515625,0 C3.48515625,0 3.48515625,0 3.48515625,0 C3.48515625,0 14.7398437,0 14.7398437,0 C14.7398437,0 14.7398437,6.36953125 14.7398437,6.36953125 C14.7398437,6.80078125 14.8835937,7.1359375 15.1710937,7.4234375 C15.4585937,7.7109375 15.79375,7.8546875 16.225,7.8546875 C16.225,7.8546875 16.225,7.8546875 16.225,7.8546875 L16.225,7.8546875 Z M17.7101563,15.1820312 C17.7101563,15.1820312 17.7101563,15.1820312 17.7101563,15.1820312 C17.7101563,14.846875 17.51875,14.703125 17.1835938,14.703125 C17.1835938,14.703125 17.1835938,14.703125 17.1835938,14.703125 C17.1835938,14.703125 12.7773438,14.703125 12.7773438,14.703125 C12.7773438,14.703125 12.7773438,10.296875 12.7773438,10.296875 C12.7773438,9.96171875 12.6335937,9.81796875 12.2984375,9.81796875 C11.9632813,9.81796875 11.8195313,9.96171875 11.8195313,10.296875 C11.8195313,10.296875 11.8195313,10.296875 11.8195313,10.296875 C11.8195313,10.296875 11.8195313,14.703125 11.8195313,14.703125 C11.8195313,14.703125 7.41328125,14.703125 7.41328125,14.703125 C7.078125,14.703125 6.88671875,14.846875 6.88671875,15.1820312 C6.88671875,15.1820312 6.88671875,15.1820312 6.88671875,15.1820312 C6.88671875,15.5171875 7.078125,15.7085937 7.41328125,15.7085937 C7.41328125,15.7085937 7.41328125,15.7085937 7.41328125,15.7085937 C7.41328125,15.7085937 11.8195313,15.7085937 11.8195313,15.7085937 C11.8195313,15.7085937 11.8195313,20.1148437 11.8195313,20.1148437 C11.8195313,20.45 11.9632813,20.59375 12.2984375,20.59375 C12.6335937,20.59375 12.7773438,20.45 12.7773438,20.1148437 C12.7773438,20.1148437 12.7773438,20.1148437 12.7773438,20.1148437 C12.7773438,20.1148437 12.7773438,15.7085937 12.7773438,15.7085937 C12.7773438,15.7085937 17.1835938,15.7085937 17.1835938,15.7085937 C17.51875,15.7085937 17.7101563,15.5171875 17.7101563,15.1820312 Z"/>
  <title>Document Plus Solid</title>
</svg>