<svg xmlns="http://www.w3.org/2000/svg" viewBox="0 0 25 25" id="dollar-sign-solid">
  <path d="M20.9296875,3.5921875 C18.5351562,1.19765625 15.6617188,0 12.2609375,0 C8.86015625,0 5.98671875,1.19765625 3.5921875,3.5921875 C1.19765625,5.98671875 0,8.86015625 0,12.2609375 C0,15.6617188 1.19765625,18.5351563 3.5921875,20.9296875 C5.98671875,23.3242188 8.86015625,24.521875 12.2609375,24.521875 C15.6617188,24.521875 18.5351563,23.3242188 20.9296875,20.9296875 C23.3242188,18.5351563 24.521875,15.6617188 24.521875,12.2609375 C24.521875,8.86015625 23.3242188,5.98671875 20.9296875,3.5921875 Z M15.709375,8.8125 C15.709375,8.8125 15.709375,9.3390625 15.709375,9.3390625 C15.709375,9.67421875 15.5179687,9.81796875 15.1828125,9.81796875 C15.1828125,9.81796875 15.1828125,9.81796875 15.1828125,9.81796875 C14.8476562,9.81796875 14.7039062,9.67421875 14.7039062,9.3390625 C14.7039062,9.3390625 14.7039062,9.3390625 14.7039062,9.3390625 C14.7039062,9.3390625 14.7039062,8.8125 14.7039062,8.8125 C14.7039062,8.5734375 14.6078125,8.33359375 14.4164062,8.1421875 C14.225,7.95078125 13.9851562,7.8546875 13.7460937,7.8546875 C13.7460937,7.8546875 13.7460937,7.8546875 13.7460937,7.8546875 C13.7460937,7.8546875 11.590625,7.8546875 11.590625,7.8546875 C11.0640625,7.8546875 10.6804687,8.04609375 10.3453125,8.38125 C10.0101562,8.71640625 9.81875,9.14765625 9.81875,9.6265625 C9.81875,9.6265625 9.81875,9.6265625 9.81875,9.6265625 C9.81875,10.440625 10.2015625,11.015625 11.0164062,11.3507813 C11.0164062,11.3507813 11.0164062,11.3507813 11.0164062,11.3507813 C11.0164062,11.3507813 13.7945312,12.2609375 13.7945312,12.2609375 C15.0875,12.6921875 15.7101562,13.6015625 15.7101562,14.8953125 C15.7101562,14.8953125 15.7101562,14.8953125 15.7101562,14.8953125 C15.7101562,15.6617188 15.4226562,16.3320312 14.8960937,16.8585938 C14.3695312,17.3851563 13.6984375,17.6726563 12.9328125,17.6726563 C12.9328125,17.6726563 12.9328125,17.6726563 12.9328125,17.6726563 C12.9328125,17.6726563 12.7414062,17.6726563 12.7414062,17.6726563 C12.7414062,17.6726563 12.7414062,18.1515625 12.7414062,18.1515625 C12.7414062,18.4867188 12.5976562,18.6304688 12.2625,18.6304688 C11.9273438,18.6304688 11.7835937,18.4867188 11.7835937,18.1515625 C11.7835937,18.1515625 11.7835937,18.1515625 11.7835937,18.1515625 C11.7835937,18.1515625 11.7835937,17.6726563 11.7835937,17.6726563 C11.7835937,17.6726563 10.778125,17.6726563 10.778125,17.6726563 C10.2515625,17.6726563 9.77265625,17.48125 9.3890625,17.0976563 C9.00546875,16.7140625 8.8140625,16.2359375 8.8140625,15.7085938 C8.8140625,15.7085938 8.8140625,15.7085938 8.8140625,15.7085938 C8.8140625,15.7085938 8.8140625,15.1820313 8.8140625,15.1820313 C8.8140625,14.846875 9.00546875,14.703125 9.340625,14.703125 C9.340625,14.703125 9.340625,14.703125 9.340625,14.703125 C9.67578125,14.703125 9.81953125,14.846875 9.81953125,15.1820313 C9.81953125,15.1820313 9.81953125,15.1820313 9.81953125,15.1820313 C9.81953125,15.1820313 9.81953125,15.7085938 9.81953125,15.7085938 C9.81953125,15.9476563 9.915625,16.1875 10.1070312,16.3789063 C10.2984375,16.5703125 10.5382812,16.6664063 10.7773437,16.6664063 C10.7773437,16.6664063 10.7773437,16.6664063 10.7773437,16.6664063 C10.7773437,16.6664063 12.9328125,16.6664063 12.9328125,16.6664063 C13.459375,16.6664063 13.890625,16.475 14.2257813,16.1398438 C14.5609375,15.8046875 14.7046875,15.3734375 14.7046875,14.8945313 C14.7046875,14.8945313 14.7046875,14.8945313 14.7046875,14.8945313 C14.7046875,13.984375 14.321875,13.4101563 13.5070312,13.1703125 C13.5070312,13.1703125 13.5070312,13.1703125 13.5070312,13.1703125 C13.5070312,13.1703125 10.7289062,12.2601563 10.7289062,12.2601563 C9.4359375,11.8289063 8.81328125,10.9195313 8.81328125,9.62578125 C8.81328125,9.62578125 8.81328125,9.62578125 8.81328125,9.62578125 C8.81328125,8.859375 9.10078125,8.1890625 9.62734375,7.6625 C10.1539062,7.1359375 10.825,6.8484375 11.590625,6.8484375 C11.590625,6.8484375 11.590625,6.8484375 11.590625,6.8484375 C11.590625,6.8484375 11.7820312,6.8484375 11.7820312,6.8484375 C11.7820312,6.8484375 11.7820312,6.36953125 11.7820312,6.36953125 C11.7820312,6.034375 11.9257812,5.890625 12.2609375,5.890625 C12.5960937,5.890625 12.7398437,6.034375 12.7398437,6.36953125 C12.7398437,6.36953125 12.7398437,6.36953125 12.7398437,6.36953125 C12.7398437,6.36953125 12.7398437,6.8484375 12.7398437,6.8484375 C12.7398437,6.8484375 13.7453125,6.8484375 13.7453125,6.8484375 C14.271875,6.8484375 14.7507812,7.03984375 15.134375,7.4234375 C15.5179687,7.80703125 15.709375,8.28515625 15.709375,8.8125 C15.709375,8.8125 15.709375,8.8125 15.709375,8.8125 Z"/>
  <title>Dollar Sign Solid</title>
</svg>