<svg xmlns="http://www.w3.org/2000/svg" viewBox="0 0 25 25" id="dot-9-solid">
  <path d="M5.9640625,4.00078125 C6.490625,4.00078125 6.96953125,4.1921875 7.353125,4.57578125 C7.73671875,4.959375 7.928125,5.4375 7.928125,5.96484375 C7.928125,6.49140625 7.73671875,6.9703125 7.353125,7.35390625 C6.96953125,7.7375 6.49140625,7.92890625 5.9640625,7.92890625 C5.4375,7.92890625 4.95859375,7.7375 4.575,7.35390625 C4.19140625,6.9703125 4,6.4921875 4,5.96484375 C4,5.43828125 4.19140625,4.959375 4.575,4.57578125 C4.95859375,4.1921875 5.43671875,4.00078125 5.9640625,4.00078125 Z M12.8132813,4.00078125 C13.3398438,4.00078125 13.81875,4.1921875 14.2023437,4.57578125 C14.5859375,4.959375 14.7773438,5.4375 14.7773438,5.96484375 C14.7773438,6.49140625 14.5859375,6.9703125 14.2023437,7.35390625 C13.81875,7.7375 13.340625,7.92890625 12.8132813,7.92890625 C12.8132813,7.92890625 12.8132813,7.92890625 12.8132813,7.92890625 C12.334375,7.92890625 11.8554688,7.7375 11.4242187,7.35390625 C11.4242187,7.35390625 11.4242187,7.35390625 11.4242187,7.35390625 C11.0414063,6.97109375 10.8492187,6.4921875 10.8492187,5.96484375 C10.8492187,5.4375 11.040625,4.959375 11.4242187,4.57578125 C11.8070313,4.19296875 12.2859375,4.00078125 12.8132813,4.00078125 Z M19.709375,7.928125 C19.709375,7.928125 19.709375,7.928125 19.709375,7.928125 C19.1828125,7.928125 18.7039063,7.73671875 18.3203125,7.353125 C17.9367188,6.96953125 17.7453125,6.49140625 17.7453125,5.9640625 C17.7453125,5.4375 17.9367188,4.95859375 18.3203125,4.575 C18.7039063,4.19140625 19.1820313,4 19.709375,4 C20.2359375,4 20.7148438,4.19140625 21.0984375,4.575 C21.4820312,4.95859375 21.6734375,5.43671875 21.6734375,5.9640625 C21.6734375,6.490625 21.4820312,6.96953125 21.0507812,7.353125 C21.0507812,7.353125 21.0507812,7.353125 21.0507812,7.353125 C20.6679688,7.7359375 20.2367187,7.928125 19.7101562,7.928125 L19.709375,7.928125 Z M5.9640625,10.8492187 C6.490625,10.8492187 6.96953125,11.040625 7.353125,11.4242187 C7.73671875,11.8078125 7.928125,12.2859375 7.928125,12.8132813 C7.928125,13.3398438 7.73671875,13.81875 7.353125,14.2023438 C6.96953125,14.5859375 6.49140625,14.7773438 5.9640625,14.7773438 C5.4375,14.7773438 4.95859375,14.5859375 4.575,14.2023438 C4.19140625,13.81875 4,13.340625 4,12.8132813 C4,12.2867188 4.19140625,11.8078125 4.575,11.4242187 C4.95859375,11.040625 5.43671875,10.8492187 5.9640625,10.8492187 Z M12.8132813,10.8492187 C13.3398438,10.8492187 13.81875,11.040625 14.2023437,11.4242187 C14.5859375,11.8078125 14.7773438,12.2859375 14.7773438,12.8132813 C14.7773438,13.3398438 14.5859375,13.81875 14.2023437,14.2023438 C13.81875,14.5859375 13.340625,14.7773438 12.8132813,14.7773438 C12.2867188,14.7773438 11.8078125,14.5859375 11.4242187,14.2023438 C11.040625,13.81875 10.8492187,13.340625 10.8492187,12.8132813 C10.8492187,12.2867188 11.040625,11.8078125 11.4242187,11.4242187 C11.8078125,11.040625 12.2859375,10.8492187 12.8132813,10.8492187 Z M19.709375,10.8492187 C20.2359375,10.8492187 20.7148438,11.040625 21.0984375,11.4242187 C21.4820312,11.8078125 21.6734375,12.2859375 21.6734375,12.8132813 C21.6734375,13.3398438 21.4820312,13.81875 21.0984375,14.2023438 C20.7148438,14.5859375 20.2367187,14.7773438 19.709375,14.7773438 C19.1828125,14.7773438 18.7039063,14.5859375 18.3203125,14.2023438 C17.9367188,13.81875 17.7453125,13.340625 17.7453125,12.8132813 C17.7453125,12.2867188 17.9367188,11.8078125 18.3203125,11.4242187 C18.7039063,11.040625 19.1820313,10.8492187 19.709375,10.8492187 Z M5.9640625,17.6984375 C6.490625,17.6984375 6.96953125,17.8898438 7.353125,18.2734375 C7.73671875,18.6570313 7.928125,19.1351563 7.928125,19.6625 C7.928125,20.1890625 7.73671875,20.6679688 7.353125,21.0515625 C6.96953125,21.4351562 6.49140625,21.6265625 5.9640625,21.6265625 C5.4375,21.6265625 4.95859375,21.4351562 4.575,21.0515625 C4.19140625,20.6679688 4,20.1898437 4,19.6625 C4,19.1359375 4.19140625,18.6570313 4.575,18.2734375 C4.95859375,17.8898438 5.43671875,17.6984375 5.9640625,17.6984375 Z M12.8132813,17.6984375 C12.8132813,17.6984375 12.8132813,17.6984375 12.8132813,17.6984375 C13.3398438,17.6984375 13.81875,17.8898438 14.2023437,18.2734375 C14.5859375,18.6570313 14.7773438,19.1351563 14.7773438,19.6625 C14.7773438,20.1890625 14.5859375,20.6679688 14.2023437,21.0515625 C13.81875,21.4351562 13.340625,21.6265625 12.8132813,21.6265625 C12.2867188,21.6265625 11.8078125,21.4351562 11.4242187,21.0515625 C11.040625,20.6679688 10.8492187,20.1898437 10.8492187,19.6625 C10.8492187,19.1359375 11.040625,18.6570313 11.4242187,18.2734375 C11.4242187,18.2734375 11.4242187,18.2734375 11.4242187,18.2734375 C11.8554687,17.890625 12.334375,17.6984375 12.8132813,17.6984375 Z M19.709375,17.6984375 C19.709375,17.6984375 19.709375,17.6984375 19.709375,17.6984375 C20.2359375,17.6984375 20.6671875,17.8898438 21.05,18.2734375 C21.05,18.2734375 21.05,18.2734375 21.05,18.2734375 C21.48125,18.65625 21.6726562,19.1351563 21.6726562,19.6625 C21.6726562,20.1898437 21.48125,20.6679688 21.0976562,21.0515625 C20.7148438,21.434375 20.2359375,21.6265625 19.7085937,21.6265625 C19.18125,21.6265625 18.703125,21.4351562 18.3195313,21.0515625 C17.9367188,20.66875 17.7445313,20.1898437 17.7445313,19.6625 C17.7445313,19.1351563 17.9359375,18.6570313 18.3195313,18.2734375 C18.7023437,17.890625 19.18125,17.6984375 19.7085937,17.6984375 L19.709375,17.6984375 Z"/>
  <title>Dot 9 Solid</title>
</svg>