<svg xmlns="http://www.w3.org/2000/svg" viewBox="0 0 25 25" id="dot-9">
  <path d="M5.9640625,4.00078125 C6.490625,4.00078125 6.96953125,4.1921875 7.353125,4.57578125 C7.73671875,4.959375 7.928125,5.4375 7.928125,5.96484375 C7.928125,6.49140625 7.73671875,6.9703125 7.353125,7.35390625 C6.96953125,7.7375 6.49140625,7.92890625 5.9640625,7.92890625 C5.4375,7.92890625 4.95859375,7.7375 4.575,7.35390625 C4.19140625,6.9703125 4,6.4921875 4,5.96484375 C4,5.43828125 4.19140625,4.959375 4.575,4.57578125 C4.95859375,4.1921875 5.43671875,4.00078125 5.9640625,4.00078125 Z M5.9640625,6.9703125 C6.203125,6.9703125 6.44296875,6.87421875 6.634375,6.6828125 C6.82578125,6.49140625 6.921875,6.2515625 6.921875,5.9640625 C6.921875,5.9640625 6.921875,5.9640625 6.921875,5.9640625 C6.921875,5.725 6.82578125,5.48515625 6.634375,5.29375 C6.44296875,5.10234375 6.203125,5.00625 5.9640625,5.00625 C5.9640625,5.00625 5.9640625,5.00625 5.9640625,5.00625 C5.6765625,5.00625 5.4375,5.10234375 5.2453125,5.29375 C5.053125,5.48515625 4.9578125,5.725 4.9578125,5.9640625 C4.9578125,5.9640625 4.9578125,5.9640625 4.9578125,5.9640625 C4.9578125,6.2515625 5.05390625,6.490625 5.2453125,6.6828125 C5.43671875,6.875 5.6765625,6.9703125 5.9640625,6.9703125 C5.9640625,6.9703125 5.9640625,6.9703125 5.9640625,6.9703125 Z M12.8132812,4.00078125 C12.8132812,4.00078125 12.8132812,4.00078125 12.8132812,4.00078125 C13.3398438,4.00078125 13.7710937,4.1921875 14.1539063,4.57578125 C14.5367188,4.959375 14.7289063,5.4375 14.7289063,5.96484375 C14.7289063,6.49140625 14.5375,6.9703125 14.1539063,7.35390625 C13.7703125,7.7375 13.3398438,7.92890625 12.8132812,7.92890625 C12.8132812,7.92890625 12.8132812,7.92890625 12.8132812,7.92890625 C12.2867188,7.92890625 11.8078125,7.7375 11.4242187,7.35390625 C11.040625,6.9703125 10.8492187,6.4921875 10.8492187,5.96484375 C10.8492187,5.43828125 11.040625,4.959375 11.4242187,4.57578125 C11.8078125,4.1921875 12.2859375,4.00078125 12.8132812,4.00078125 Z M12.1421875,6.6828125 C12.3335938,6.87421875 12.5734375,6.9703125 12.8125,6.9703125 C13.0515625,6.9703125 13.2914063,6.87421875 13.4828125,6.6828125 C13.6742188,6.49140625 13.7703125,6.2515625 13.7703125,5.9640625 C13.7703125,5.9640625 13.7703125,5.9640625 13.7703125,5.9640625 C13.7703125,5.725 13.6742187,5.48515625 13.4828125,5.29375 C13.2914063,5.10234375 13.0515625,5.00625 12.8125,5.00625 C12.5734375,5.00625 12.3335938,5.10234375 12.1421875,5.29375 C11.9507813,5.48515625 11.8546875,5.725 11.8546875,5.9640625 C11.8546875,5.9640625 11.8546875,5.9640625 11.8546875,5.9640625 C11.8546875,6.2515625 11.9507813,6.490625 12.1421875,6.6828125 L12.1421875,6.6828125 Z M19.6617187,7.928125 C19.1351563,7.928125 18.65625,7.73671875 18.2726563,7.353125 C17.8890625,6.96953125 17.6976563,6.49140625 17.6976563,5.9640625 C17.6976563,5.4375 17.8890625,4.95859375 18.2726563,4.575 C18.65625,4.19140625 19.134375,4 19.6617187,4 C20.1882812,4 20.6671875,4.19140625 21.0507812,4.575 C21.434375,4.95859375 21.6257812,5.43671875 21.6257812,5.9640625 C21.6257812,6.490625 21.434375,6.96953125 21.0507812,7.353125 C20.6671875,7.73671875 20.1890625,7.928125 19.6617187,7.928125 Z M19.6617188,5.00625 C19.6617188,5.00625 19.6617188,5.00625 19.6617188,5.00625 C19.3742188,5.00625 19.1351563,5.10234375 18.9429687,5.29375 C18.7507812,5.48515625 18.6554688,5.725 18.6554688,5.9640625 C18.6554688,5.9640625 18.6554688,5.9640625 18.6554688,5.9640625 C18.6554688,6.2515625 18.7515625,6.490625 18.9429687,6.6828125 C19.134375,6.875 19.3742188,6.9703125 19.6617188,6.9703125 C19.6617188,6.9703125 19.6617188,6.9703125 19.6617188,6.9703125 C19.9007813,6.9703125 20.140625,6.87421875 20.3320313,6.6828125 C20.5234375,6.49140625 20.6195313,6.2515625 20.6195313,5.9640625 C20.6195313,5.9640625 20.6195313,5.9640625 20.6195313,5.9640625 C20.6195313,5.725 20.5234375,5.48515625 20.3320313,5.29375 C20.140625,5.10234375 19.9007813,5.00625 19.6617188,5.00625 Z M5.9640625,10.8976563 C6.490625,10.8976563 6.96953125,11.0890625 7.353125,11.4726563 C7.73671875,11.85625 7.928125,12.334375 7.928125,12.8617188 C7.928125,12.8617188 7.928125,12.8617188 7.928125,12.8617188 C7.928125,13.3882813 7.73671875,13.8195313 7.353125,14.2023438 C6.96953125,14.5851563 6.49140625,14.7773438 5.9640625,14.7773438 C5.4375,14.7773438 4.95859375,14.5859375 4.575,14.2023438 C4.19140625,13.81875 4,13.3882813 4,12.8617188 C4,12.8617188 4,12.8617188 4,12.8617188 C4,12.3351563 4.19140625,11.85625 4.575,11.4726563 C4.95859375,11.0890625 5.43671875,10.8976563 5.9640625,10.8976563 Z M5.9640625,13.7710938 C6.203125,13.7710938 6.44296875,13.675 6.634375,13.4835938 C6.82578125,13.2921875 6.921875,13.1007813 6.921875,12.8609375 C6.921875,12.8609375 6.921875,12.8609375 6.921875,12.8609375 C6.921875,12.5734375 6.82578125,12.334375 6.634375,12.1421875 C6.44296875,11.95 6.203125,11.8546875 5.9640625,11.8546875 C5.9640625,11.8546875 5.9640625,11.8546875 5.9640625,11.8546875 C5.6765625,11.8546875 5.4375,11.9507812 5.2453125,12.1421875 C5.053125,12.3335938 4.9578125,12.5734375 4.9578125,12.8609375 C4.9578125,12.8609375 4.9578125,12.8609375 4.9578125,12.8609375 C4.9578125,13.1007812 5.05390625,13.2921875 5.2453125,13.4835938 C5.43671875,13.675 5.6765625,13.7710938 5.9640625,13.7710938 C5.9640625,13.7710938 5.9640625,13.7710938 5.9640625,13.7710938 Z M12.8132812,10.8976563 C13.3398438,10.8976563 13.7710937,11.0890625 14.1539063,11.4726563 C14.5367188,11.85625 14.7289063,12.334375 14.7289063,12.8617188 C14.7289063,12.8617188 14.7289063,12.8617188 14.7289063,12.8617188 C14.7289063,13.3882813 14.5375,13.8195313 14.1539063,14.2023438 C13.7703125,14.5851563 13.3398438,14.7773438 12.8132812,14.7773438 C12.8132812,14.7773438 12.8132812,14.7773438 12.8132812,14.7773438 C12.2867188,14.7773438 11.8078125,14.5859375 11.4242187,14.2023438 C11.040625,13.81875 10.8492187,13.3882813 10.8492187,12.8617188 C10.8492187,12.8617188 10.8492187,12.8617188 10.8492187,12.8617188 C10.8492187,12.3351563 11.040625,11.85625 11.4242187,11.4726563 C11.8078125,11.0890625 12.2859375,10.8976563 12.8132812,10.8976563 C12.8132812,10.8976563 12.8132812,10.8976563 12.8132812,10.8976563 Z M12.1421875,13.4835938 C12.3335938,13.675 12.5734375,13.7710938 12.8125,13.7710938 C13.0515625,13.7710938 13.2914063,13.675 13.4828125,13.4835938 C13.6742188,13.2921875 13.7703125,13.1007813 13.7703125,12.8609375 C13.7703125,12.8609375 13.7703125,12.8609375 13.7703125,12.8609375 C13.7703125,12.5734375 13.6742187,12.334375 13.4828125,12.1421875 C13.2914063,11.95 13.0515625,11.8546875 12.8125,11.8546875 C12.5734375,11.8546875 12.3335938,11.9507812 12.1421875,12.1421875 C11.9507813,12.3335938 11.8546875,12.5734375 11.8546875,12.8609375 C11.8546875,12.8609375 11.8546875,12.8609375 11.8546875,12.8609375 C11.8546875,13.1007812 11.9507813,13.2921875 12.1421875,13.4835938 Z M19.6617187,10.8976563 C20.1882812,10.8976563 20.6671875,11.0890625 21.0507812,11.4726563 C21.434375,11.85625 21.6257812,12.334375 21.6257812,12.8617188 C21.6257812,12.8617188 21.6257812,12.8617188 21.6257812,12.8617188 C21.6257812,13.3882813 21.434375,13.8195313 21.0507812,14.2023438 C20.6671875,14.5851563 20.1890625,14.7773438 19.6617187,14.7773438 C19.1351563,14.7773438 18.65625,14.5859375 18.2726563,14.2023438 C17.8890625,13.81875 17.6976563,13.3882813 17.6976563,12.8617188 C17.6976563,12.8617188 17.6976563,12.8617188 17.6976563,12.8617188 C17.6976563,12.3351563 17.8890625,11.85625 18.2726563,11.4726563 C18.65625,11.0890625 19.134375,10.8976563 19.6617187,10.8976563 Z M19.6617188,13.7710938 C19.6617188,13.7710938 19.6617188,13.7710938 19.6617188,13.7710938 C19.9007813,13.7710938 20.140625,13.675 20.3320313,13.4835938 C20.5234375,13.2921875 20.6195313,13.1007813 20.6195313,12.8609375 C20.6195313,12.8609375 20.6195313,12.8609375 20.6195313,12.8609375 C20.6195313,12.5734375 20.5234375,12.334375 20.3320313,12.1421875 C20.140625,11.95 19.9007813,11.8546875 19.6617188,11.8546875 C19.6617188,11.8546875 19.6617188,11.8546875 19.6617188,11.8546875 C19.3742188,11.8546875 19.1351563,11.9507812 18.9429687,12.1421875 C18.7507812,12.3335938 18.6554688,12.5734375 18.6554688,12.8609375 C18.6554688,12.8609375 18.6554688,12.8609375 18.6554688,12.8609375 C18.6554688,13.1007812 18.7515625,13.2921875 18.9429687,13.4835938 C19.134375,13.675 19.3742188,13.7710938 19.6617188,13.7710938 Z M5.9640625,17.6984375 C6.490625,17.6984375 6.96953125,17.8898438 7.353125,18.2734375 C7.73671875,18.6570313 7.928125,19.1351563 7.928125,19.6625 C7.928125,20.1890625 7.73671875,20.6679688 7.353125,21.0515625 C6.96953125,21.4351562 6.49140625,21.6265625 5.9640625,21.6265625 C5.4375,21.6265625 4.95859375,21.4351562 4.575,21.0515625 C4.19140625,20.6679688 4,20.1898437 4,19.6625 C4,19.1359375 4.19140625,18.6570313 4.575,18.2734375 C4.95859375,17.8898438 5.43671875,17.6984375 5.9640625,17.6984375 Z M5.9640625,20.6671875 C6.203125,20.6671875 6.44296875,20.5710937 6.634375,20.3796875 C6.82578125,20.1882813 6.921875,19.9484375 6.921875,19.6609375 C6.921875,19.6609375 6.921875,19.6609375 6.921875,19.6609375 C6.921875,19.421875 6.82578125,19.1820313 6.634375,18.990625 C6.44296875,18.7992187 6.203125,18.703125 5.9640625,18.703125 C5.9640625,18.703125 5.9640625,18.703125 5.9640625,18.703125 C5.6765625,18.703125 5.4375,18.7992188 5.2453125,18.990625 C5.053125,19.1820312 4.9578125,19.421875 4.9578125,19.6609375 C4.9578125,19.6609375 4.9578125,19.6609375 4.9578125,19.6609375 C4.9578125,19.9484375 5.05390625,20.1875 5.2453125,20.3796875 C5.43671875,20.571875 5.6765625,20.6671875 5.9640625,20.6671875 C5.9640625,20.6671875 5.9640625,20.6671875 5.9640625,20.6671875 Z M11.4242187,18.3210938 C11.8554688,17.8898438 12.2859375,17.6984375 12.8132812,17.6984375 C13.340625,17.6984375 13.7710937,17.8898438 14.1539062,18.2734375 C14.5367187,18.65625 14.7289062,19.1351563 14.7289062,19.6625 C14.7289062,20.1898437 14.5375,20.6679688 14.1539062,21.0515625 C13.7710938,21.434375 13.3398437,21.6265625 12.8132812,21.6265625 C12.8132812,21.6265625 12.8132812,21.6265625 12.8132812,21.6265625 C12.2867187,21.6265625 11.8078125,21.4351562 11.4242187,21.0515625 C11.040625,20.6679688 10.8492187,20.1898437 10.8492187,19.6625 C10.8492187,19.6625 10.8492187,19.6625 10.8492187,19.6625 C10.8492187,19.1359375 11.040625,18.7046875 11.4242187,18.321875 C11.4242187,18.321875 11.4242187,18.321875 11.4242187,18.321875 L11.4242187,18.3210938 Z M12.1421875,20.3804687 C12.3335938,20.571875 12.5734375,20.6679688 12.8125,20.6679688 C13.0515625,20.6679688 13.2914063,20.571875 13.4828125,20.3804687 C13.6742188,20.1890625 13.7703125,19.9492188 13.7703125,19.6617187 C13.7703125,19.6617187 13.7703125,19.6617187 13.7703125,19.6617187 C13.7703125,19.4226562 13.6742187,19.1828125 13.4828125,18.9914062 C13.2914063,18.8 13.0515625,18.7039062 12.8125,18.7039062 C12.5734375,18.7039062 12.3335938,18.8 12.1421875,18.9914062 C11.9507813,19.1828125 11.8546875,19.4226562 11.8546875,19.6617187 C11.8546875,19.6617187 11.8546875,19.6617187 11.8546875,19.6617187 C11.8546875,19.9492187 11.9507813,20.1882812 12.1421875,20.3804687 Z M19.6617187,17.6984375 C19.6617187,17.6984375 19.6617187,17.6984375 19.6617187,17.6984375 C20.1882812,17.6984375 20.6195312,17.8898437 21.0507812,18.3210937 C21.0507812,18.3210937 21.0507812,18.3210937 21.0507812,18.3210937 C21.4335937,18.7039062 21.6257812,19.1351563 21.6257812,19.6617187 C21.6257812,19.6617187 21.6257812,19.6617187 21.6257812,19.6617187 C21.6257812,20.1882812 21.434375,20.6671875 21.0507812,21.0507812 C20.6671875,21.434375 20.1890625,21.6257812 19.6617187,21.6257812 C19.1351563,21.6257812 18.65625,21.434375 18.2726563,21.0507812 C17.8890625,20.6671875 17.6976563,20.1890625 17.6976563,19.6617187 C17.6976563,19.1351563 17.8890625,18.65625 18.2726563,18.2726563 C18.65625,17.8890625 19.134375,17.6976563 19.6617187,17.6976563 L19.6617187,17.6984375 Z M19.6617188,20.6671875 C19.6617188,20.6671875 19.6617188,20.6671875 19.6617188,20.6671875 C19.9007813,20.6671875 20.140625,20.5710937 20.3320313,20.3796875 C20.5234375,20.1882813 20.6195313,19.9484375 20.6195313,19.6609375 C20.6195313,19.6609375 20.6195313,19.6609375 20.6195313,19.6609375 C20.6195313,19.421875 20.5234375,19.1820313 20.3320313,18.990625 C20.140625,18.7992187 19.9007813,18.703125 19.6617188,18.703125 C19.6617188,18.703125 19.6617188,18.703125 19.6617188,18.703125 C19.3742188,18.703125 19.1351563,18.7992188 18.9429687,18.990625 C18.7507812,19.1820312 18.6554688,19.421875 18.6554688,19.6609375 C18.6554688,19.6609375 18.6554688,19.6609375 18.6554688,19.6609375 C18.6554688,19.9484375 18.7515625,20.1875 18.9429687,20.3796875 C19.134375,20.571875 19.3742188,20.6671875 19.6617188,20.6671875 Z"/>
  <title>Dot 9</title>
</svg>