<svg xmlns="http://www.w3.org/2000/svg" viewBox="0 0 25 25" id="drag">
  <path d="M9,3.96328125 C9,3.96328125 9,2 9,2 C9,2 10.9632812,2 10.9632812,2 C10.9632812,2 10.9632812,3.96328125 10.9632812,3.96328125 C10.9632812,3.96328125 9,3.96328125 9,3.96328125 Z M9,8.89609375 C9,8.89609375 9,6.9328125 9,6.9328125 C9,6.9328125 10.9632812,6.9328125 10.9632812,6.9328125 C10.9632812,6.9328125 10.9632812,8.89609375 10.9632812,8.89609375 C10.9632812,8.89609375 9,8.89609375 9,8.89609375 Z M9,13.78125 C9,13.78125 9,11.8179687 9,11.8179687 C9,11.8179687 10.9632812,11.8179687 10.9632812,11.8179687 C10.9632812,11.8179687 10.9632812,13.78125 10.9632812,13.78125 C10.9632812,13.78125 9,13.78125 9,13.78125 Z M9,18.7140625 C9,18.7140625 9,16.7507812 9,16.7507812 C9,16.7507812 10.9632812,16.7507812 10.9632812,16.7507812 C10.9632812,16.7507812 10.9632812,18.7140625 10.9632812,18.7140625 C10.9632812,18.7140625 9,18.7140625 9,18.7140625 L9,18.7140625 Z M9,23.5992188 C9,23.5992188 9,21.6359375 9,21.6359375 C9,21.6359375 10.9632812,21.6359375 10.9632812,21.6359375 C10.9632812,21.6359375 10.9632812,23.5992188 10.9632812,23.5992188 C10.9632812,23.5992188 9,23.5992188 9,23.5992188 L9,23.5992188 Z M13.9328125,3.96328125 C13.9328125,3.96328125 13.9328125,2 13.9328125,2 C13.9328125,2 15.8960937,2 15.8960937,2 C15.8960937,2 15.8960937,3.96328125 15.8960937,3.96328125 C15.8960937,3.96328125 13.9328125,3.96328125 13.9328125,3.96328125 Z M13.9328125,8.89609375 C13.9328125,8.89609375 13.9328125,6.9328125 13.9328125,6.9328125 C13.9328125,6.9328125 15.8960937,6.9328125 15.8960937,6.9328125 C15.8960937,6.9328125 15.8960937,8.89609375 15.8960937,8.89609375 C15.8960937,8.89609375 13.9328125,8.89609375 13.9328125,8.89609375 Z M13.9328125,13.78125 C13.9328125,13.78125 13.9328125,11.8179687 13.9328125,11.8179687 C13.9328125,11.8179687 15.8960937,11.8179687 15.8960937,11.8179687 C15.8960937,11.8179687 15.8960937,13.78125 15.8960937,13.78125 C15.8960937,13.78125 13.9328125,13.78125 13.9328125,13.78125 Z M13.9328125,18.7140625 C13.9328125,18.7140625 13.9328125,16.7507812 13.9328125,16.7507812 C13.9328125,16.7507812 15.8960937,16.7507812 15.8960937,16.7507812 C15.8960937,16.7507812 15.8960937,18.7140625 15.8960937,18.7140625 C15.8960937,18.7140625 13.9328125,18.7140625 13.9328125,18.7140625 L13.9328125,18.7140625 Z M13.9328125,23.5992188 C13.9328125,23.5992188 13.9328125,21.6359375 13.9328125,21.6359375 C13.9328125,21.6359375 15.8960937,21.6359375 15.8960937,21.6359375 C15.8960937,21.6359375 15.8960937,23.5992188 15.8960937,23.5992188 C15.8960937,23.5992188 13.9328125,23.5992188 13.9328125,23.5992188 L13.9328125,23.5992188 Z"/>
  <title>Drag</title>
</svg>