<svg xmlns="http://www.w3.org/2000/svg" viewBox="0 0 25 25" id="drink">
  <path d="M21.3429687,2.29296875 C20.4328125,1.43125 19.3796875,1 18.1820312,1 C16.984375,1 15.93125,1.43125 15.06875,2.29296875 C14.2070312,3.203125 13.7757812,4.25625 13.7757812,5.45390625 C13.7757812,5.45390625 13.7757812,5.45390625 13.7757812,5.45390625 C13.7757812,5.69296875 13.7757812,5.83671875 13.8234375,5.9328125 C13.8234375,5.9328125 13.8234375,5.9328125 13.8234375,5.9328125 C13.8234375,5.9328125 3.47890625,5.9328125 3.47890625,5.9328125 C3.14375,5.9328125 3,6.0765625 3,6.41171875 C3,6.41171875 3,6.41171875 3,6.41171875 C3,6.459375 3.04765625,6.55546875 3.09609375,6.69921875 C3.09609375,6.69921875 3.09609375,6.69921875 3.09609375,6.69921875 C3.09609375,6.69921875 10.8546875,18.3375 10.8546875,18.3375 C10.8546875,18.3375 10.8546875,23.5578125 10.8546875,23.5578125 C10.8546875,23.5578125 8.4125,23.5578125 8.4125,23.5578125 C8.07734375,23.5578125 7.8859375,23.7492188 7.8859375,24.084375 C7.8859375,24.084375 7.8859375,24.084375 7.8859375,24.084375 C7.8859375,24.4195312 8.07734375,24.5632812 8.4125,24.5632812 C8.4125,24.5632812 8.4125,24.5632812 8.4125,24.5632812 C8.4125,24.5632812 14.2554687,24.5632812 14.2554687,24.5632812 C14.590625,24.5632812 14.7820312,24.4195312 14.7820312,24.084375 C14.7820312,24.084375 14.7820312,24.084375 14.7820312,24.084375 C14.7820312,23.7492188 14.590625,23.5578125 14.2554687,23.5578125 C14.2554687,23.5578125 14.2554687,23.5578125 14.2554687,23.5578125 C14.2554687,23.5578125 11.8132812,23.5578125 11.8132812,23.5578125 C11.8132812,23.5578125 11.8132812,18.3375 11.8132812,18.3375 C11.8132812,18.3375 17.5125,9.76484375 17.5125,9.76484375 C17.7515625,9.8125 17.9914063,9.8609375 18.1828125,9.8609375 C18.1828125,9.8609375 18.1828125,9.8609375 18.1828125,9.8609375 C19.3804688,9.8609375 20.4335938,9.4296875 21.34375,8.56796875 C22.2054688,7.70625 22.6367188,6.65234375 22.6367188,5.4546875 C22.6367188,4.25703125 22.2054688,3.20390625 21.34375,2.29375 L21.3429687,2.29296875 Z M14.9734375,11.728125 C14.9734375,11.728125 11.3335938,17.2835938 11.3335938,17.2835938 C11.3335938,17.2835938 7.64609375,11.728125 7.64609375,11.728125 C8.17265625,11.6320312 8.6515625,11.4890625 9.13046875,11.296875 C9.13046875,11.296875 9.13046875,11.296875 9.13046875,11.296875 C9.753125,10.9617187 10.4710938,10.8179687 11.1898438,10.8179687 C11.1898438,10.8179687 11.1898438,10.8179687 11.1898438,10.8179687 C12.1,10.865625 12.9140625,11.0570312 13.6804688,11.3929687 C13.6804688,11.3929687 13.6804688,11.3929687 13.6804688,11.3929687 C13.9195313,11.4890625 14.3507813,11.584375 14.9734375,11.728125 C14.9734375,11.728125 14.9734375,11.728125 14.9734375,11.728125 L14.9734375,11.728125 Z M18.2773438,6.890625 C18.2773438,6.890625 15.6429687,10.8179687 15.6429687,10.8179687 C15.0203125,10.7703125 14.49375,10.6742187 13.9664063,10.4351562 C13.9664063,10.4351562 13.9664063,10.4351562 13.9664063,10.4351562 C13.05625,10.0523437 12.146875,9.86015625 11.2367187,9.86015625 C10.3265625,9.86015625 9.5125,10.0515625 8.6984375,10.3867187 C8.6984375,10.3867187 8.6984375,10.3867187 8.6984375,10.3867187 C8.21953125,10.6257812 7.64453125,10.7695312 7.021875,10.8179687 C7.021875,10.8179687 7.021875,10.8179687 7.021875,10.8179687 C7.021875,10.8179687 4.3875,6.890625 4.3875,6.890625 C4.3875,6.890625 18.2765625,6.890625 18.2765625,6.890625 L18.2773438,6.890625 Z M18.1820313,8.8546875 C18.1820313,8.8546875 18.1820313,8.8546875 18.1820313,8.8546875 C18.1820313,8.8546875 18.134375,8.8546875 18.134375,8.8546875 C18.134375,8.8546875 19.5710937,6.69921875 19.5710937,6.69921875 C19.61875,6.55546875 19.6671875,6.46015625 19.6671875,6.41171875 C19.6671875,6.41171875 19.6671875,6.41171875 19.6671875,6.41171875 C19.6671875,6.0765625 19.5234375,5.9328125 19.1882812,5.9328125 C19.1882812,5.9328125 19.1882812,5.9328125 19.1882812,5.9328125 C19.1882812,5.9328125 14.8296875,5.9328125 14.8296875,5.9328125 C14.7820312,5.83671875 14.7820312,5.69375 14.7820312,5.45390625 C14.7820312,5.45390625 14.7820312,5.45390625 14.7820312,5.45390625 C14.7820312,4.49609375 15.1171875,3.68203125 15.7875,3.01171875 C16.4578125,2.34140625 17.271875,2.00625 18.1820313,2.00625 C18.1820313,2.00625 18.1820313,2.00625 18.1820313,2.00625 C19.1398437,2.00625 19.9539062,2.34140625 20.6242188,3.01171875 C21.2945312,3.68203125 21.6296875,4.49609375 21.6296875,5.45390625 C21.6296875,5.45390625 21.6296875,5.45390625 21.6296875,5.45390625 C21.6296875,6.3640625 21.2945312,7.178125 20.6242188,7.8484375 C19.9539062,8.51875 19.1398438,8.85390625 18.1820313,8.85390625 L18.1820313,8.8546875 Z"/>
  <title>Drink</title>
</svg>