<svg xmlns="http://www.w3.org/2000/svg" viewBox="0 0 25 25" id="earth-solid">
  <path d="M8.18984375,6.034375 C8.18984375,6.034375 8.18984375,6.034375 8.18984375,6.034375 C7.37578125,5.17265625 7.184375,3.49609375 7.51953125,0.9578125 C7.51953125,0.9578125 7.51953125,0.9578125 7.51953125,0.9578125 C8.95625,0.33515625 10.5367187,0 12.2609375,0 C12.2609375,0 12.2609375,0 12.2609375,0 C14.7515625,0 17.0984375,0.71875 19.253125,2.15546875 C19.253125,2.15546875 19.253125,2.15546875 19.253125,2.15546875 C18.6304687,2.68203125 18.2953125,3.3046875 18.2476562,4.11875 C18.2476562,4.11875 18.2476562,4.11875 18.2476562,4.11875 C18.2,4.16640625 18.2,4.31015625 18.2,4.5015625 C18.2,4.5015625 18.2,4.5015625 18.2,4.5015625 C18.2,5.50703125 18.5351562,6.4171875 19.2539062,7.23125 C19.2539062,7.23125 19.2539062,7.23125 19.2539062,7.23125 C19.4453125,7.375 19.5414062,7.85390625 19.5414062,8.66796875 C19.49375,9.5296875 19.35,10.3921875 19.0625,11.2539063 C19.0625,11.2539063 19.0625,11.2539063 19.0625,11.2539063 C18.7273437,12.259375 18.0570312,12.7382812 17.0507812,12.7382812 C17.0507812,12.7382812 17.0507812,12.7382812 17.0507812,12.7382812 C16.5242187,12.7382812 16.0929688,12.5945312 15.7101562,12.259375 C15.2789062,11.9242188 15.0398437,11.540625 14.94375,11.0617188 C14.94375,11.0617188 14.94375,11.0617188 14.94375,11.0617188 C14.4171875,8.3796875 13.7945312,6.703125 13.0757812,6.0328125 C13.0757812,6.0328125 13.0757812,6.0328125 13.0757812,6.0328125 C12.6445312,5.55390625 11.7828125,5.55390625 10.4898437,5.98515625 C10.4898437,5.98515625 10.4898437,5.98515625 10.4898437,5.98515625 C9.2921875,6.3203125 8.5265625,6.36796875 8.190625,6.0328125 L8.18984375,6.034375 Z M20.0195312,2.778125 C20.0195312,2.778125 20.0195312,2.73046875 20.0195312,2.73046875 C19.540625,3.11328125 19.253125,3.5921875 19.2054688,4.21484375 C19.2054688,4.21484375 19.2054688,4.21484375 19.2054688,4.21484375 C19.2054688,4.21484375 19.2054688,4.50234375 19.2054688,4.50234375 C19.2054688,5.26875 19.4445313,5.9390625 19.971875,6.5140625 C19.971875,6.5140625 19.971875,6.5140625 19.971875,6.5140625 C20.3546875,7.13671875 20.546875,7.8546875 20.4984375,8.76484375 C20.45,9.675 20.3070313,10.6328125 20.0195312,11.5429688 C20.0195312,11.5429688 20.0195312,11.5429688 20.0195312,11.5429688 C19.7804688,12.2132813 19.396875,12.740625 18.8703125,13.1234375 C18.34375,13.5546875 17.7210938,13.7460938 17.0507812,13.7460938 C17.0507812,13.7460938 17.0507812,13.7460938 17.0507812,13.7460938 C16.284375,13.7460938 15.6140625,13.5070313 15.0390625,13.0273438 C14.4640625,12.5476563 14.08125,11.9734375 13.9375,11.2554688 C13.9375,11.2554688 13.9375,11.2554688 13.9375,11.2554688 C13.7460938,9.62734375 13.21875,8.09453125 12.3570313,6.6578125 C12.3570313,6.6578125 12.3570313,6.6578125 12.3570313,6.6578125 C12.2609375,6.56171875 11.734375,6.6578125 10.7765625,6.896875 C10.7765625,6.896875 10.7765625,6.896875 10.7765625,6.896875 C9.19609375,7.37578125 8.1421875,7.328125 7.51953125,6.70546875 C7.51953125,6.70546875 7.51953125,6.70546875 7.51953125,6.70546875 C6.609375,5.7953125 6.2265625,4.0234375 6.465625,1.4375 C6.465625,1.4375 6.465625,1.4375 6.465625,1.4375 C4.50234375,2.49140625 2.921875,3.97578125 1.771875,5.89140625 C0.57421875,7.8546875 0,9.9625 0,12.2609375 C0,12.2609375 0,12.2609375 0,12.2609375 C0,15.853125 1.340625,18.8703125 3.975,21.2648438 C3.975,21.2648438 3.975,21.2648438 3.975,21.2648438 C4.31015625,16.7148438 5.41171875,14.1765625 7.23203125,13.7453125 C7.23203125,13.7453125 7.23203125,13.7453125 7.23203125,13.7453125 C7.66328125,13.6015625 8.04609375,13.5539063 8.33359375,13.5539063 C8.33359375,13.5539063 8.33359375,13.5539063 8.33359375,13.5539063 C8.95625,13.5539063 9.57890625,13.6976563 10.153125,14.0328125 C10.153125,14.0328125 10.153125,14.0328125 10.153125,14.0328125 C11.0632813,14.7515625 11.6375,15.7570313 11.78125,17.05 C11.78125,17.05 11.78125,17.05 11.78125,17.05 C11.925,18.0078125 12.2601563,18.7742187 12.7390625,19.3007812 C13.2179688,19.8273437 13.696875,20.1148438 14.2234375,20.1148438 C14.2234375,20.1148438 14.2234375,20.1148438 14.2234375,20.1148438 C14.6546875,20.1148438 15.3726563,19.4445313 16.2828125,18.103125 C16.2828125,18.103125 16.2828125,18.103125 16.2828125,18.103125 C17.384375,16.5226563 18.2945313,15.7085938 19.1085938,15.7085938 C19.1085938,15.7085938 19.1085938,15.7085938 19.1085938,15.7085938 C20.7851563,15.7085938 21.8382813,16.9539062 22.1734375,19.4445313 C22.1734375,19.4445313 22.1734375,19.4445313 22.1734375,19.4445313 C23.7539062,17.3375 24.5203125,14.9429687 24.5203125,12.2609375 C24.5203125,12.2609375 24.5203125,12.2609375 24.5203125,12.2609375 C24.5203125,8.4296875 23.0359375,5.26875 20.01875,2.778125 C20.01875,2.778125 20.01875,2.778125 20.01875,2.778125 L20.0195312,2.778125 Z M19.109375,16.6664062 C19.109375,16.6664062 19.109375,16.6664062 19.109375,16.6664062 C18.6304687,16.6664062 17.9601562,17.3367187 17.0976562,18.678125 C17.0976562,18.678125 17.0976562,18.678125 17.0976562,18.678125 C16.7148438,19.2046875 16.4273437,19.6359375 16.1875,19.8757812 C15.9476562,20.115625 15.6609375,20.4023437 15.3257812,20.6421875 C14.9429687,20.9296875 14.559375,21.0734375 14.2242187,21.0734375 C14.2242187,21.0734375 14.2242187,21.0734375 14.2242187,21.0734375 C13.4101562,21.0734375 12.6914062,20.690625 12.06875,19.971875 C11.4460937,19.253125 11.0148437,18.34375 10.7757812,17.2421875 C10.7757812,17.2421875 10.7757812,17.2421875 10.7757812,17.2421875 C10.728125,16.3320312 10.3445312,15.5179687 9.6265625,14.8476562 C9.6265625,14.8476562 9.6265625,14.8476562 9.6265625,14.8476562 C9.24375,14.65625 8.8125,14.5601562 8.33359375,14.5601562 C8.33359375,14.5601562 8.33359375,14.5601562 8.33359375,14.5601562 C7.9984375,14.5601562 7.7109375,14.6078125 7.4234375,14.7039062 C7.4234375,14.7039062 7.4234375,14.7039062 7.4234375,14.7039062 C6.65703125,14.8476562 6.0828125,15.6617187 5.6515625,17.1460937 C5.2203125,18.6304688 4.98125,20.3070312 4.9328125,22.0789062 C4.9328125,22.0789062 4.9328125,22.0789062 4.9328125,22.0789062 C7.08828125,23.7070312 9.53046875,24.5210937 12.2601562,24.5210937 C12.2601562,24.5210937 12.2601562,24.5210937 12.2601562,24.5210937 C15.8523437,24.5210937 18.8695312,23.1804687 21.3117188,20.4984375 C21.3117188,20.4984375 21.3117188,20.4984375 21.3117188,20.4984375 C21.1679687,17.9601563 20.45,16.6671875 19.1085938,16.6671875 L19.109375,16.6664062 Z"/>
  <title>Earth Solid</title>
</svg>