<svg xmlns="http://www.w3.org/2000/svg" viewBox="0 0 25 25" id="earth">
  <path d="M20.9296875,3.5921875 C18.5351562,1.19765625 15.6617188,0 12.2609375,0 C8.86015625,0 5.98671875,1.19765625 3.5921875,3.5921875 C1.19765625,5.98671875 0,8.86015625 0,12.2609375 C0,15.6617188 1.19765625,18.5351563 3.5921875,20.9296875 C5.98671875,23.3242188 8.86015625,24.521875 12.2609375,24.521875 C15.6617188,24.521875 18.5351563,23.3242188 20.9296875,20.9296875 C23.3242188,18.5351563 24.521875,15.6617188 24.521875,12.2609375 C24.521875,8.86015625 23.3242188,5.98671875 20.9296875,3.5921875 Z M18.5835937,2.921875 C18.5835937,2.921875 18.5359375,2.921875 18.5359375,2.921875 C18.153125,3.5921875 18.0570312,4.35859375 18.2484375,5.17265625 C18.4398437,6.034375 18.775,6.70546875 19.2539062,7.23203125 C19.2539062,7.23203125 19.2539062,7.23203125 19.2539062,7.23203125 C19.4453125,7.37578125 19.5414062,7.8546875 19.5414062,8.66875 C19.49375,9.53046875 19.35,10.3929688 19.0625,11.2546875 C19.0625,11.2546875 19.0625,11.2546875 19.0625,11.2546875 C18.7273437,12.2601563 18.0570312,12.7390625 17.0507812,12.7390625 C17.0507812,12.7390625 17.0507812,12.7390625 17.0507812,12.7390625 C16.5242187,12.7390625 16.0929687,12.5953125 15.7101562,12.2601563 C15.2789062,11.925 15.0398437,11.5414062 14.8960937,11.0625 C14.8960937,11.0625 14.8960937,11.0625 14.8960937,11.0625 C14.8,10.4398437 14.6085937,9.5296875 14.2734375,8.38046875 C13.9382812,7.23125 13.5070312,6.46484375 13.0757812,6.03359375 C13.0757812,6.03359375 13.0757812,6.03359375 13.0757812,6.03359375 C12.6445312,5.5546875 11.7828125,5.5546875 10.4898437,5.9859375 C10.4898437,5.9859375 10.4898437,5.9859375 10.4898437,5.9859375 C9.2921875,6.32109375 8.5265625,6.36875 8.190625,6.03359375 C8.190625,6.03359375 8.190625,6.03359375 8.190625,6.03359375 C7.5203125,5.31484375 7.2328125,4.11796875 7.32890625,2.34609375 C7.32890625,2.34609375 7.32890625,2.34609375 7.32890625,2.34609375 C7.32890625,2.34609375 7.32890625,2.10703125 7.32890625,2.10703125 C8.86171875,1.340625 10.4898437,0.9578125 12.2617187,0.9578125 C12.2617187,0.9578125 12.2617187,0.9578125 12.2617187,0.9578125 C14.6085937,0.9578125 16.715625,1.628125 18.5835937,2.92109375 C18.5835937,2.92109375 18.5835937,2.92109375 18.5835937,2.92109375 L18.5835937,2.921875 Z M0.95859375,12.2601562 C0.95859375,12.2601562 0.95859375,12.2601562 0.95859375,12.2601562 C1.00625,10.296875 1.48515625,8.42890625 2.44296875,6.75234375 C3.40078125,5.07578125 4.69375,3.6875 6.32265625,2.68125 C6.32265625,2.68125 6.32265625,2.68125 6.32265625,2.68125 C6.32265625,4.54921875 6.70546875,5.88984375 7.5203125,6.70390625 C7.5203125,6.70390625 7.5203125,6.70390625 7.5203125,6.70390625 C8.14296875,7.3265625 9.196875,7.37421875 10.7773437,6.8953125 C10.7773437,6.8953125 10.7773437,6.8953125 10.7773437,6.8953125 C11.7351562,6.65625 12.2617187,6.56015625 12.4054687,6.70390625 C12.4054687,6.70390625 12.4054687,6.70390625 12.4054687,6.70390625 C13.171875,7.996875 13.6984375,9.48203125 13.9382812,11.1578125 C13.9382812,11.1578125 13.9382812,11.1578125 13.9382812,11.1578125 C14.0820312,11.9242187 14.4648437,12.546875 15.0398437,13.0257813 C15.6148437,13.5046875 16.2851562,13.7445313 17.0515625,13.7445313 C17.0515625,13.7445313 17.0515625,13.7445313 17.0515625,13.7445313 C17.721875,13.7445313 18.3445312,13.553125 18.8710937,13.121875 C19.3976562,12.7390625 19.78125,12.2117188 20.0203125,11.5414063 C20.0203125,11.5414063 20.0203125,11.5414063 20.0203125,11.5414063 C20.3078125,10.63125 20.4515625,9.6734375 20.4992187,8.76328125 C20.546875,7.853125 20.3554687,7.13515625 19.9726562,6.5125 C19.9726562,6.5125 19.9726562,6.5125 19.9726562,6.5125 C19.5414062,6.08125 19.2539062,5.50703125 19.1585937,4.8359375 C19.1585937,4.8359375 19.1585937,4.8359375 19.1585937,4.8359375 C19.1585937,4.78828125 19.1585937,4.6921875 19.1585937,4.596875 C19.1109375,4.50078125 19.1109375,4.453125 19.1109375,4.40546875 C19.1109375,4.40546875 19.1109375,4.40546875 19.1109375,4.40546875 C19.1109375,4.0703125 19.2070312,3.73515625 19.35,3.4953125 C19.35,3.4953125 19.35,3.4953125 19.35,3.4953125 C22.1757812,5.74609375 23.5648437,8.66796875 23.5648437,12.259375 C23.5648437,12.259375 23.5648437,12.259375 23.5648437,12.259375 C23.5648437,14.3664063 22.9898437,16.3304687 21.8882812,18.1023438 C21.8882812,18.1023438 21.8882812,18.1023438 21.8882812,18.1023438 C21.7445312,17.3835937 21.4570312,16.809375 20.9304687,16.378125 C20.4039062,15.946875 19.8289062,15.7554687 19.1109375,15.7078125 C19.1109375,15.7078125 19.1109375,15.7078125 19.1109375,15.7078125 C18.296875,15.7078125 17.3867187,16.521875 16.2851562,18.1023438 C16.2851562,18.1023438 16.2851562,18.1023438 16.2851562,18.1023438 C15.375,19.4429687 14.6570312,20.1140625 14.2257812,20.1140625 C14.2257812,20.1140625 14.2257812,20.1140625 14.2257812,20.1140625 C13.6992187,20.1140625 13.2203125,19.8265625 12.7414062,19.3 C12.2625,18.7734375 11.9273437,18.0070312 11.7835937,17.0492187 C11.7835937,17.0492187 11.7835937,17.0492187 11.7835937,17.0492187 C11.5445312,15.6601562 11.0648437,14.7023437 10.346875,14.1757812 C9.62890625,13.6492187 8.575,13.5054687 7.28203125,13.7445312 C7.28203125,13.7445312 7.28203125,13.7445312 7.28203125,13.7445312 C6.2765625,13.9359375 5.51015625,14.6546875 4.9828125,15.9476562 C4.45546875,17.240625 4.12109375,18.5335937 3.97734375,19.875 C3.97734375,19.875 3.97734375,19.875 3.97734375,19.875 C2.0140625,17.7679688 1.0078125,15.2296875 0.96015625,12.2601562 L0.95859375,12.2601562 Z M12.2617188,23.515625 C12.2617188,23.515625 12.2617188,23.515625 12.2617188,23.515625 C9.48359375,23.515625 6.99375,22.6054687 4.83828125,20.7375 C4.83828125,20.7375 4.83828125,20.7375 4.83828125,20.7375 C4.8859375,20.6898437 4.8859375,20.6414062 4.8859375,20.59375 C4.8859375,20.59375 4.8859375,20.59375 4.8859375,20.59375 C4.8859375,19.5882812 5.125,18.390625 5.6046875,17.0015625 C6.0359375,15.6125 6.65859375,14.8460937 7.42421875,14.7023437 C7.42421875,14.7023437 7.42421875,14.7023437 7.42421875,14.7023437 C8.478125,14.5109375 9.24375,14.60625 9.77109375,14.9898437 C10.25,15.3726562 10.5851563,16.1390625 10.7765625,17.240625 C10.7765625,17.240625 10.7765625,17.240625 10.7765625,17.240625 C11.015625,18.3421875 11.446875,19.2523437 12.0695313,19.9703125 C12.6921875,20.6882812 13.4101563,21.071875 14.225,21.071875 C14.225,21.071875 14.225,21.071875 14.225,21.071875 C14.5601563,21.071875 14.94375,20.928125 15.3265625,20.640625 C15.6617188,20.4015625 15.9492188,20.1140625 16.1882813,19.8742187 C16.4273438,19.634375 16.7148438,19.2039062 17.0984375,18.6765625 C17.0984375,18.6765625 17.0984375,18.6765625 17.0984375,18.6765625 C17.9601563,17.3359375 18.63125,16.6648437 19.1101563,16.6648437 C19.1101563,16.6648437 19.1101563,16.6648437 19.1101563,16.6648437 C19.8289063,16.6648437 20.3078125,16.9523437 20.6429688,17.5265625 C20.9304688,18.1492187 21.0742188,18.6757812 21.0742188,19.1070312 C21.0742188,19.1070312 21.0742188,19.1070312 21.0742188,19.1070312 C21.0742188,19.1070312 21.0742188,19.1546875 21.0742188,19.1546875 C21.121875,19.2023437 21.121875,19.2023437 21.121875,19.2507812 C21.121875,19.2507812 21.121875,19.2507812 21.121875,19.2507812 C18.775,22.0765625 15.8539062,23.5132812 12.2617188,23.5132812 L12.2617188,23.515625 Z"/>
  <title>Earth</title>
</svg>