<svg xmlns="http://www.w3.org/2000/svg" viewBox="0 0 25 25" id="edit-shape-solid">
  <path d="M22.5578125,3.92734375 C22.5578125,3.92734375 23.5632812,3.92734375 23.5632812,3.92734375 C23.8023438,3.92734375 24.0421875,3.83125 24.2335937,3.63984375 C24.425,3.4484375 24.5210937,3.20859375 24.5210937,2.92109375 C24.5210937,2.92109375 24.5210937,2.92109375 24.5210937,2.92109375 C24.5210937,2.92109375 24.5210937,0.9578125 24.5210937,0.9578125 C24.5210937,0.71875 24.425,0.47890625 24.2335937,0.2875 C24.0421875,0.09609375 23.8023437,0 23.5632812,0 C23.5632812,0 23.5632812,0 23.5632812,0 C23.5632812,0 21.6,0 21.6,0 C21.3125,0 21.0734375,0.09609375 20.88125,0.2875 C20.6890625,0.47890625 20.59375,0.71875 20.59375,0.9578125 C20.59375,0.9578125 20.59375,0.9578125 20.59375,0.9578125 C20.59375,0.9578125 20.59375,1.96328125 20.59375,1.96328125 C20.59375,1.96328125 3.92734375,1.96328125 3.92734375,1.96328125 C3.92734375,1.96328125 3.92734375,0.9578125 3.92734375,0.9578125 C3.92734375,0.71875 3.83125,0.47890625 3.63984375,0.2875 C3.4484375,0.09609375 3.20859375,0 2.92109375,0 C2.92109375,0 2.92109375,0 2.92109375,0 C2.92109375,0 0.9578125,0 0.9578125,0 C0.71875,0 0.47890625,0.09609375 0.2875,0.2875 C0.09609375,0.47890625 0,0.71875 0,0.9578125 C0,0.9578125 0,0.9578125 0,0.9578125 C0,0.9578125 0,2.92109375 0,2.92109375 C0,3.20859375 0.09609375,3.44765625 0.2875,3.63984375 C0.47890625,3.83203125 0.71875,3.92734375 0.9578125,3.92734375 C0.9578125,3.92734375 0.9578125,3.92734375 0.9578125,3.92734375 C0.9578125,3.92734375 1.96328125,3.92734375 1.96328125,3.92734375 C1.96328125,3.92734375 1.96328125,20.59375 1.96328125,20.59375 C1.96328125,20.59375 0.9578125,20.59375 0.9578125,20.59375 C0.71875,20.59375 0.47890625,20.6898437 0.2875,20.88125 C0.09609375,21.0726562 0,21.3125 0,21.6 C0,21.6 0,21.6 0,21.6 C0,21.6 0,23.515625 0,23.515625 C0,23.803125 0.09609375,24.0421875 0.2875,24.234375 C0.47890625,24.4265625 0.71875,24.521875 0.9578125,24.521875 C0.9578125,24.521875 0.9578125,24.521875 0.9578125,24.521875 C0.9578125,24.521875 2.92109375,24.521875 2.92109375,24.521875 C3.20859375,24.521875 3.44765625,24.4257812 3.63984375,24.234375 C3.83203125,24.0429688 3.92734375,23.803125 3.92734375,23.515625 C3.92734375,23.515625 3.92734375,23.515625 3.92734375,23.515625 C3.92734375,23.515625 3.92734375,22.5578125 3.92734375,22.5578125 C3.92734375,22.5578125 20.59375,22.5578125 20.59375,22.5578125 C20.59375,22.5578125 20.59375,23.515625 20.59375,23.515625 C20.59375,23.803125 20.6898437,24.0421875 20.88125,24.234375 C21.0726562,24.4265625 21.3125,24.521875 21.6,24.521875 C21.6,24.521875 21.6,24.521875 21.6,24.521875 C21.6,24.521875 23.5632812,24.521875 23.5632812,24.521875 C23.8023437,24.521875 24.0421875,24.4257812 24.2335937,24.234375 C24.425,24.0429688 24.5210937,23.803125 24.5210937,23.515625 C24.5210937,23.515625 24.5210937,23.515625 24.5210937,23.515625 C24.5210937,23.515625 24.5210937,21.6 24.5210937,21.6 C24.5210937,21.3125 24.425,21.0734375 24.2335937,20.88125 C24.0421875,20.6890625 23.8023437,20.59375 23.5632812,20.59375 C23.5632812,20.59375 23.5632812,20.59375 23.5632812,20.59375 C23.5632812,20.59375 22.5578125,20.59375 22.5578125,20.59375 C22.5578125,20.59375 22.5578125,3.92734375 22.5578125,3.92734375 L22.5578125,3.92734375 Z M21.6,3.92734375 C21.6,3.92734375 21.6,20.59375 21.6,20.59375 C21.3125,20.59375 21.0734375,20.6898437 20.88125,20.88125 C20.6890625,21.0726562 20.59375,21.3125 20.59375,21.6 C20.59375,21.6 20.59375,21.6 20.59375,21.6 C20.59375,21.6 3.92734375,21.6 3.92734375,21.6 C3.92734375,21.3125 3.83125,21.0734375 3.63984375,20.88125 C3.4484375,20.6890625 3.20859375,20.59375 2.92109375,20.59375 C2.92109375,20.59375 2.92109375,20.59375 2.92109375,20.59375 C2.92109375,20.59375 2.92109375,3.92734375 2.92109375,3.92734375 C3.20859375,3.92734375 3.44765625,3.83125 3.63984375,3.63984375 C3.83203125,3.4484375 3.92734375,3.20859375 3.92734375,2.92109375 C3.92734375,2.92109375 3.92734375,2.92109375 3.92734375,2.92109375 C3.92734375,2.92109375 20.59375,2.92109375 20.59375,2.92109375 C20.59375,3.20859375 20.6898438,3.44765625 20.88125,3.63984375 C21.0726563,3.83203125 21.3125,3.92734375 21.6,3.92734375 C21.6,3.92734375 21.6,3.92734375 21.6,3.92734375 Z M14.703125,13.7453125 C14.703125,13.7453125 14.703125,13.7453125 14.703125,13.7453125 C14.703125,13.7453125 14.703125,6.8484375 14.703125,6.8484375 C14.703125,6.609375 14.6070313,6.36953125 14.415625,6.178125 C14.2242188,5.98671875 13.984375,5.890625 13.7453125,5.890625 C13.7453125,5.890625 13.7453125,5.890625 13.7453125,5.890625 C13.7453125,5.890625 6.8484375,5.890625 6.8484375,5.890625 C6.609375,5.890625 6.36953125,5.98671875 6.178125,6.178125 C5.98671875,6.36953125 5.890625,6.609375 5.890625,6.8484375 C5.890625,6.8484375 5.890625,6.8484375 5.890625,6.8484375 C5.890625,6.8484375 5.890625,13.7453125 5.890625,13.7453125 C5.890625,13.984375 5.98671875,14.2242187 6.178125,14.415625 C6.36953125,14.6070312 6.609375,14.703125 6.8484375,14.703125 C6.8484375,14.703125 6.8484375,14.703125 6.8484375,14.703125 C6.8484375,14.703125 13.7453125,14.703125 13.7453125,14.703125 C13.984375,14.703125 14.2242188,14.6070312 14.415625,14.415625 C14.6070313,14.2242187 14.703125,13.984375 14.703125,13.7453125 Z M17.6726563,9.81796875 C17.6726563,9.81796875 17.6726563,9.81796875 17.6726563,9.81796875 C17.6726563,9.81796875 15.709375,9.81796875 15.709375,9.81796875 C15.709375,9.81796875 15.709375,14.2242187 15.709375,14.2242187 C15.709375,14.6554687 15.565625,14.990625 15.278125,15.278125 C14.990625,15.565625 14.6554688,15.709375 14.2242188,15.709375 C14.2242188,15.709375 14.2242188,15.709375 14.2242188,15.709375 C14.2242188,15.709375 9.81796875,15.709375 9.81796875,15.709375 C9.81796875,15.709375 9.81796875,17.6726562 9.81796875,17.6726562 C9.81796875,17.9117187 9.9140625,18.1515625 10.1054688,18.3429687 C10.296875,18.534375 10.5367188,18.6304687 10.7757813,18.6304687 C10.7757813,18.6304687 10.7757813,18.6304687 10.7757813,18.6304687 C10.7757813,18.6304687 17.6726563,18.6304687 17.6726563,18.6304687 C17.9117188,18.6304687 18.1515625,18.534375 18.3429688,18.3429687 C18.534375,18.1515625 18.6304688,17.9117187 18.6304688,17.6726562 C18.6304688,17.6726562 18.6304688,17.6726562 18.6304688,17.6726562 C18.6304688,17.6726562 18.6304688,10.7757812 18.6304688,10.7757812 C18.6304688,10.5367187 18.534375,10.296875 18.3429688,10.1054687 C18.1515625,9.9140625 17.9117188,9.81796875 17.6726563,9.81796875 Z"/>
  <title>Edit Shape Solid</title>
</svg>