<svg xmlns="http://www.w3.org/2000/svg" viewBox="0 0 25 25" id="erase-solid">
  <path d="M24.090625,7.321875 C24.090625,7.321875 24.090625,7.321875 24.090625,7.321875 C24.090625,7.321875 18.2,1.43125 18.2,1.43125 C17.9125,1.14375 17.5773438,1 17.1460938,1 C16.7148438,1 16.3796875,1.14375 16.0921875,1.43125 C16.0921875,1.43125 16.0921875,1.43125 16.0921875,1.43125 C16.0921875,1.43125 0.43125,17.0921875 0.43125,17.0921875 C0.14375,17.3796875 0,17.7148438 0,18.1460938 C0,18.5773438 0.14375,18.9125 0.43125,19.2 C0.43125,19.2 0.43125,19.2 0.43125,19.2 C0.43125,19.2 4.78984375,23.5585938 4.78984375,23.5585938 C4.78984375,23.5585938 21.0734375,23.5585938 21.0734375,23.5585938 C21.4085938,23.5585938 21.6,23.4148437 21.6,23.0796875 C21.6,23.0796875 21.6,23.0796875 21.6,23.0796875 C21.6,22.7445313 21.4085938,22.553125 21.0734375,22.553125 C21.0734375,22.553125 21.0734375,22.553125 21.0734375,22.553125 C21.0734375,22.553125 10.9203125,22.553125 10.9203125,22.553125 C10.9203125,22.553125 24.090625,9.3828125 24.090625,9.3828125 C24.378125,9.14375 24.521875,8.8078125 24.521875,8.37734375 C24.521875,8.37734375 24.521875,8.37734375 24.521875,8.37734375 C24.521875,7.94609375 24.378125,7.6109375 24.090625,7.3234375 L24.090625,7.321875 Z M16.3804687,15.703125 C16.3804687,15.703125 9.53203125,22.5515625 9.53203125,22.5515625 C9.53203125,22.5515625 5.41328125,22.5515625 5.41328125,22.5515625 C5.365625,22.5992187 5.26953125,22.5992187 5.221875,22.5992187 C5.221875,22.5992187 5.221875,22.5992187 5.221875,22.5992187 C5.221875,22.5992187 1.103125,18.4804688 1.103125,18.4804688 C1.00703125,18.2890625 0.959375,18.1929688 0.959375,18.1453125 C0.959375,18.0976563 1.00703125,18.0015625 1.103125,17.8101563 C1.103125,17.8101563 1.103125,17.8101563 1.103125,17.8101563 C1.103125,17.8101563 9.81953125,9.14140625 9.81953125,9.14140625 C9.81953125,9.14140625 16.3804687,15.7023438 16.3804687,15.7023438 L16.3804687,15.703125 Z"/>
  <title>Erase Solid</title>
</svg>