<svg xmlns="http://www.w3.org/2000/svg" viewBox="0 0 25 25" id="erase">
  <path d="M24.090625,7.321875 C24.090625,7.321875 24.090625,7.321875 24.090625,7.321875 C24.090625,7.321875 18.2,1.43125 18.2,1.43125 C17.9125,1.14375 17.5773438,1 17.1460938,1 C16.7148438,1 16.3796875,1.14375 16.0921875,1.43125 C16.0921875,1.43125 16.0921875,1.43125 16.0921875,1.43125 C16.0921875,1.43125 0.43125,17.0921875 0.43125,17.0921875 C0.14375,17.3796875 0,17.7148438 0,18.1460938 C0,18.5773438 0.14375,18.9125 0.43125,19.2 C0.43125,19.2 0.43125,19.2 0.43125,19.2 C0.43125,19.2 4.78984375,23.5585938 4.78984375,23.5585938 C4.78984375,23.5585938 21.0734375,23.5585938 21.0734375,23.5585938 C21.4085938,23.5585938 21.6,23.4148437 21.6,23.0796875 C21.6,23.0796875 21.6,23.0796875 21.6,23.0796875 C21.6,22.7445313 21.4085938,22.553125 21.0734375,22.553125 C21.0734375,22.553125 21.0734375,22.553125 21.0734375,22.553125 C21.0734375,22.553125 10.9203125,22.553125 10.9203125,22.553125 C10.9203125,22.553125 24.090625,9.3828125 24.090625,9.3828125 C24.378125,9.14375 24.521875,8.8078125 24.521875,8.37734375 C24.521875,8.37734375 24.521875,8.37734375 24.521875,8.37734375 C24.521875,7.94609375 24.378125,7.6109375 24.090625,7.3234375 L24.090625,7.321875 Z M9.53125,22.5523437 C9.53125,22.5523437 5.4125,22.5523437 5.4125,22.5523437 C5.36484375,22.6 5.26875,22.6 5.22109375,22.6 C5.22109375,22.6 5.22109375,22.6 5.22109375,22.6 C5.22109375,22.6 1.10234375,18.48125 1.10234375,18.48125 C1.00625,18.2898438 0.95859375,18.19375 0.95859375,18.1460938 C0.95859375,18.0984375 1.00625,18.0023438 1.10234375,17.8109375 C1.10234375,17.8109375 1.10234375,17.8109375 1.10234375,17.8109375 C1.10234375,17.8109375 9.81875,9.1421875 9.81875,9.1421875 C9.81875,9.1421875 16.3796875,15.703125 16.3796875,15.703125 C16.3796875,15.703125 9.53125,22.5515625 9.53125,22.5515625 L9.53125,22.5523437 Z M23.4203125,8.7109375 C23.4203125,8.7109375 23.4203125,8.7109375 23.4203125,8.7109375 C23.4203125,8.7109375 17.0984375,15.0328125 17.0984375,15.0328125 C17.0984375,15.0328125 10.4890625,8.4234375 10.4890625,8.4234375 C10.4890625,8.4234375 16.8109375,2.1015625 16.8109375,2.1015625 C17.0023437,2.00546875 17.0984375,1.9578125 17.1460937,1.9578125 C17.1460937,1.9578125 17.1460937,1.9578125 17.1460937,1.9578125 C17.2898437,1.9578125 17.3851562,2.00546875 17.48125,2.1015625 C17.48125,2.1015625 17.48125,2.1015625 17.48125,2.1015625 C17.48125,2.1015625 23.4203125,7.9921875 23.4203125,7.9921875 C23.5164062,8.18359375 23.5640625,8.32734375 23.5640625,8.375 C23.5640625,8.375 23.5640625,8.375 23.5640625,8.375 C23.5640625,8.42265625 23.5164062,8.51875 23.4203125,8.71015625 L23.4203125,8.7109375 Z"/>
  <title>Erase</title>
</svg>