<svg xmlns="http://www.w3.org/2000/svg" viewBox="0 0 25 25" id="eye-off-solid">
  <path d="M22.4132812,2.8140625 C22.4132812,2.8140625 22.4132812,2.8140625 22.4132812,2.8140625 C22.4132812,2.8140625 2.77734375,22.45 2.77734375,22.45 C2.7296875,22.5460938 2.5859375,22.59375 2.4421875,22.59375 C2.4421875,22.59375 2.4421875,22.59375 2.4421875,22.59375 C2.10703125,22.59375 1.96328125,22.45 1.96328125,22.1148437 C1.96328125,22.1148437 1.96328125,22.1148437 1.96328125,22.1148437 C1.96328125,21.9710938 2.0109375,21.8273438 2.10703125,21.7320313 C2.10703125,21.7320313 2.10703125,21.7320313 2.10703125,21.7320313 C2.10703125,21.7320313 21.7429687,2.14375 21.7429687,2.14375 C21.790625,2.04765625 21.934375,2 22.078125,2 C22.078125,2 22.078125,2 22.078125,2 C22.4132812,2 22.5570312,2.14375 22.5570312,2.47890625 C22.5570312,2.47890625 22.5570312,2.47890625 22.5570312,2.47890625 C22.5570312,2.62265625 22.509375,2.71796875 22.4132812,2.8140625 Z M5.1234375,17.3734375 C5.1234375,17.3734375 5.1234375,17.3734375 5.1234375,17.3734375 C5.1234375,17.3734375 9.05078125,13.4460937 9.05078125,13.4460937 C8.90703125,13.0148438 8.81171875,12.6320312 8.81171875,12.2484375 C8.81171875,12.2484375 8.81171875,12.2484375 8.81171875,12.2484375 C8.81171875,11.3382812 9.146875,10.5242187 9.8171875,9.85390625 C10.4875,9.18359375 11.3015625,8.8484375 12.2117188,8.8484375 C12.2117188,8.8484375 12.2117188,8.8484375 12.2117188,8.8484375 C12.6429687,8.8484375 13.0257813,8.94453125 13.409375,9.0875 C13.409375,9.0875 13.409375,9.0875 13.409375,9.0875 C13.409375,9.0875 16.6664063,5.83046875 16.6664063,5.83046875 C15.4210938,5.30390625 13.9367188,4.96875 12.2601563,4.9203125 C12.2601563,4.9203125 12.2601563,4.9203125 12.2601563,4.9203125 C10.6796875,4.9203125 9.09921875,5.25546875 7.51875,5.92578125 C5.93828125,6.64453125 4.59765625,7.41015625 3.59140625,8.27265625 C2.5375,9.1828125 1.67578125,9.996875 1.00546875,10.7632812 C0.33515625,11.5296875 0,12.05625 0,12.2960937 C0,12.2960937 0,12.2960937 0,12.2960937 C0,12.63125 0.5265625,13.3015625 1.5328125,14.403125 C2.5390625,15.5046875 3.7359375,16.4625 5.125,17.3726562 L5.1234375,17.3734375 Z M19.3960937,7.2203125 C19.3960937,7.2203125 19.3960937,7.2203125 19.3960937,7.2203125 C19.3960937,7.2203125 15.46875,11.1476563 15.46875,11.1476563 C15.6125,11.5304687 15.7078125,11.9140625 15.7078125,12.3453125 C15.7078125,12.3453125 15.7078125,12.3453125 15.7078125,12.3453125 C15.7078125,13.2554688 15.3726562,14.0695313 14.7023437,14.7398438 C14.0320312,15.4101563 13.2179687,15.7453125 12.3078125,15.7453125 C12.3078125,15.7453125 12.3078125,15.7453125 12.3078125,15.7453125 C11.8765625,15.7453125 11.49375,15.6492187 11.1101562,15.50625 C11.1101562,15.50625 11.1101562,15.50625 11.1101562,15.50625 C11.1101562,15.50625 7.853125,18.7632812 7.853125,18.7632812 C9.2421875,19.3382813 10.6789062,19.625 12.259375,19.6734375 C12.259375,19.6734375 12.259375,19.6734375 12.259375,19.6734375 C14.31875,19.6734375 16.3304687,19.0984375 18.3414062,17.9492188 C20.353125,16.8476562 21.8851562,15.6984375 22.9390625,14.5492187 C23.9929687,13.4476562 24.5195312,12.68125 24.5195312,12.2984375 C24.5195312,12.2984375 24.5195312,12.2984375 24.5195312,12.2984375 C24.5195312,11.9632812 24.040625,11.2445312 23.0351562,10.1429687 C22.0296875,9.0890625 20.784375,8.13125 19.3953125,7.221875 L19.3960937,7.2203125 Z"/>
  <title>Eye Off Solid</title>
</svg>