<svg xmlns="http://www.w3.org/2000/svg" viewBox="0 0 25 25" id="eye-off">
  <path d="M0.00078125,12.296875 C0.00078125,12.296875 0.00078125,12.296875 0.00078125,12.296875 C0.00078125,12.0578125 0.3359375,11.5304688 1.00625,10.7640625 C1.6765625,9.99765625 2.5390625,9.18359375 3.5921875,8.2734375 C4.59765625,7.41171875 5.9390625,6.6453125 7.51953125,5.9265625 C9.1,5.25625 10.6804688,4.92109375 12.2609375,4.92109375 C12.2609375,4.92109375 12.2609375,4.92109375 12.2609375,4.92109375 C13.9375,4.96875 15.421875,5.30390625 16.7148438,5.83125 C16.7148438,5.83125 16.7148438,5.83125 16.7148438,5.83125 C16.7148438,5.83125 15.9007812,6.59765625 15.9007812,6.59765625 C14.7515625,6.16640625 13.5539062,5.92734375 12.2609375,5.92734375 C12.2609375,5.92734375 12.2609375,5.92734375 12.2609375,5.92734375 C9.7703125,5.92734375 7.471875,6.69375 5.31640625,8.2265625 C3.1609375,9.80703125 1.77265625,11.1476563 1.05390625,12.2976563 C1.05390625,12.2976563 1.05390625,12.2976563 1.05390625,12.2976563 C2.39453125,14.0695313 3.975,15.50625 5.74765625,16.6078125 C5.74765625,16.6078125 5.74765625,16.6078125 5.74765625,16.6078125 C5.74765625,16.6078125 5.125,17.3742188 5.125,17.3742188 C3.7359375,16.4640625 2.5390625,15.50625 1.5328125,14.4046875 C0.5265625,13.303125 0,12.6328125 0,12.2976563 L0.00078125,12.296875 Z M19.3976563,7.2203125 C19.3976563,7.2203125 19.3976563,7.2203125 19.3976563,7.2203125 C19.3976563,7.2203125 18.6789063,7.9390625 18.6789063,7.9390625 C20.6421875,9.13671875 22.2710938,10.5734375 23.4679688,12.2492187 C23.4679688,12.2492187 23.4679688,12.2492187 23.4679688,12.2492187 C22.9414063,13.3507812 21.5523438,14.6914062 19.3015625,16.271875 C17.0507813,17.8523437 14.7039063,18.6664063 12.2609375,18.6664063 C12.2609375,18.6664063 12.2609375,18.6664063 12.2609375,18.6664063 C10.9679688,18.6664063 9.7703125,18.4273437 8.5734375,17.9960938 C8.5734375,17.9960938 8.5734375,17.9960938 8.5734375,17.9960938 C8.5734375,17.9960938 7.8546875,18.7625 7.8546875,18.7625 C9.24375,19.3375 10.6804688,19.6242188 12.2609375,19.6726562 C12.2609375,19.6726562 12.2609375,19.6726562 12.2609375,19.6726562 C14.3203125,19.6726562 16.3320312,19.0976562 18.3429688,17.9484375 C20.3546875,16.846875 21.8867188,15.6976562 22.940625,14.5484375 C23.9945313,13.446875 24.5210938,12.6804687 24.5210938,12.2976562 C24.5210938,12.2976562 24.5210938,12.2976562 24.5210938,12.2976562 C24.5210938,11.9625 24.0421875,11.24375 23.0367188,10.1421875 C22.03125,9.08828125 20.7859375,8.13046875 19.396875,7.22109375 L19.3976563,7.2203125 Z M12.2617188,9.8546875 C12.2617188,9.8546875 12.2617188,9.8546875 12.2617188,9.8546875 C12.2617188,9.8546875 12.596875,9.8546875 12.596875,9.8546875 C12.596875,9.8546875 13.4109375,9.08828125 13.4109375,9.08828125 C13.028125,8.94453125 12.6445313,8.84921875 12.2132813,8.84921875 C12.2132813,8.84921875 12.2132813,8.84921875 12.2132813,8.84921875 C11.303125,8.84921875 10.4890625,9.184375 9.81875,9.8546875 C9.1484375,10.525 8.81328125,11.3390625 8.81328125,12.2492188 C8.81328125,12.2492188 8.81328125,12.2492188 8.81328125,12.2492188 C8.81328125,12.6320313 8.909375,13.015625 9.05234375,13.446875 C9.05234375,13.446875 9.05234375,13.446875 9.05234375,13.446875 C9.05234375,13.446875 9.86640625,12.6328125 9.86640625,12.6328125 C9.81875,12.5851563 9.81875,12.4414062 9.81875,12.2976563 C9.81875,12.2976563 9.81875,12.2976563 9.81875,12.2976563 C9.81875,11.6273438 10.0578125,11.0523438 10.5375,10.5734375 C11.0171875,10.0945313 11.5914063,9.8546875 12.2617188,9.8546875 L12.2617188,9.8546875 Z M12.2617188,14.7390625 C12.2617188,14.7390625 12.2617188,14.7390625 12.2617188,14.7390625 C12.1179687,14.7390625 11.9742188,14.7390625 11.9265625,14.6914063 C11.9265625,14.6914063 11.9265625,14.6914063 11.9265625,14.6914063 C11.9265625,14.6914063 11.1125,15.5054688 11.1125,15.5054688 C11.4953125,15.6492188 11.8789062,15.7445313 12.3101563,15.7445313 C12.3101563,15.7445313 12.3101563,15.7445313 12.3101563,15.7445313 C13.2203125,15.7445313 14.034375,15.409375 14.7046875,14.7390625 C15.375,14.06875 15.7101563,13.2546875 15.7101563,12.3445313 C15.7101563,12.3445313 15.7101563,12.3445313 15.7101563,12.3445313 C15.7101563,11.9132813 15.6140625,11.5304687 15.4710938,11.146875 C15.4710938,11.146875 15.4710938,11.146875 15.4710938,11.146875 C15.4710938,11.146875 14.6570312,11.9609375 14.6570312,11.9609375 C14.7046875,12.0085938 14.7046875,12.1523438 14.7046875,12.2960938 C14.7046875,12.2960938 14.7046875,12.2960938 14.7046875,12.2960938 C14.7046875,12.9664063 14.465625,13.5414063 13.9859375,14.0203125 C13.50625,14.4992188 12.9320312,14.7390625 12.2617187,14.7390625 L12.2617188,14.7390625 Z M22.5585938,2.47890625 C22.5585938,2.33515625 22.5109375,2.23984375 22.4148437,2.14375 C22.31875,2.04765625 22.2234375,2 22.0796875,2 C22.0796875,2 22.0796875,2 22.0796875,2 C21.9359375,2 21.7921875,2.04765625 21.7445313,2.14375 C21.7445313,2.14375 21.7445313,2.14375 21.7445313,2.14375 C21.7445313,2.14375 2.10859375,21.7320313 2.10859375,21.7320313 C2.0125,21.828125 1.96484375,21.9710938 1.96484375,22.1148437 C1.96484375,22.1148437 1.96484375,22.1148437 1.96484375,22.1148437 C1.96484375,22.45 2.10859375,22.59375 2.44375,22.59375 C2.44375,22.59375 2.44375,22.59375 2.44375,22.59375 C2.5875,22.59375 2.73125,22.5460938 2.77890625,22.45 C2.77890625,22.45 2.77890625,22.45 2.77890625,22.45 C2.77890625,22.45 22.4148438,2.8140625 22.4148438,2.8140625 C22.5109375,2.76640625 22.5585938,2.62265625 22.5585938,2.47890625 C22.5585938,2.47890625 22.5585938,2.47890625 22.5585938,2.47890625 L22.5585938,2.47890625 Z"/>
  <title>Eye Off</title>
</svg>