<svg xmlns="http://www.w3.org/2000/svg" viewBox="0 0 25 25" id="eye-solid">
  <path d="M17.0015625,6.00546875 C15.4210937,5.33515625 13.840625,5 12.2601562,5 C10.6796875,5 9.09921875,5.33515625 7.51875,6.00546875 C5.93828125,6.67578125 4.59765625,7.4421875 3.59140625,8.35234375 C2.5375,9.2625 1.67578125,10.0765625 1.00546875,10.7945312 C0.33515625,11.5609375 0,12.0875 0,12.3273437 C0,12.5671875 0.33515625,13.09375 1.00546875,13.8601562 C1.67578125,14.6265625 2.53828125,15.440625 3.59140625,16.3023437 C4.596875,17.2125 5.93828125,17.9789063 7.51875,18.6492188 C9.09921875,19.3679688 10.6796875,19.703125 12.2601562,19.703125 C13.840625,19.703125 15.4210937,19.3679688 17.0015625,18.6976563 C18.5820312,18.0273438 19.9226562,17.2609375 20.9765625,16.3507812 C21.9820312,15.4890625 22.8445312,14.6742187 23.5148437,13.9085937 C24.1851562,13.1429687 24.5203125,12.615625 24.5203125,12.328125 C24.5203125,12.328125 24.5203125,12.328125 24.5203125,12.328125 C24.5203125,12.0890625 24.1851562,11.5617187 23.5148438,10.7953125 C22.8445313,10.0289063 21.9820312,9.21484375 20.9765625,8.3046875 C19.9226562,7.44296875 18.5820312,6.6765625 17.0015625,6.00546875 Z M14.703125,14.7695312 C14.0328125,15.4398437 13.21875,15.775 12.2609375,15.775 C11.303125,15.775 10.4890625,15.4398437 9.81875,14.7695312 C9.1484375,14.0992187 8.81328125,13.2851562 8.81328125,12.3273437 C8.81328125,12.3273437 8.81328125,12.3273437 8.81328125,12.3273437 C8.81328125,11.4171875 9.1484375,10.603125 9.81875,9.9328125 C10.4890625,9.2625 11.303125,8.92734375 12.2609375,8.92734375 C13.21875,8.92734375 14.0328125,9.2625 14.703125,9.9328125 C15.3734375,10.603125 15.7085938,11.4171875 15.7085938,12.3273437 C15.7085938,12.3273437 15.7085938,12.3273437 15.7085938,12.3273437 C15.7085938,13.2851562 15.3734375,14.0992187 14.703125,14.7695312 Z"/>
  <title>Eye Solid</title>
</svg>