<svg xmlns="http://www.w3.org/2000/svg" viewBox="0 0 25 25" id="eye">
  <path d="M12.2601562,5 C12.2601562,5 12.2601562,5 12.2601562,5 C10.6796875,5 9.09921875,5.33515625 7.51875,6.00546875 C5.93828125,6.72421875 4.59765625,7.48984375 3.59140625,8.35234375 C2.5375,9.2625 1.67578125,10.0765625 1.00546875,10.8429688 C0.33515625,11.609375 0,12.1359375 0,12.3757813 C0,12.6148438 0.33515625,13.1421875 1.00546875,13.9085938 C1.67578125,14.675 2.53828125,15.4890625 3.59140625,16.3507813 C4.596875,17.2609375 5.93828125,18.0273438 7.51875,18.6976563 C9.09921875,19.4164063 10.6796875,19.7515625 12.2601562,19.7515625 C12.2601562,19.7515625 12.2601562,19.7515625 12.2601562,19.7515625 C14.3195312,19.7515625 16.33125,19.1765625 18.3421875,18.0273438 C20.3539062,16.9257813 21.8859375,15.7765625 22.9398437,14.6273438 C23.99375,13.5257813 24.5203125,12.759375 24.5203125,12.3765625 C24.5203125,11.99375 23.99375,11.2273438 22.9398438,10.0773438 C21.8859375,8.97578125 20.3539063,7.8265625 18.3421875,6.6765625 C16.3304687,5.575 14.3195312,5 12.2601562,5 Z M12.2601563,18.7453125 C12.2601563,18.7453125 12.2601563,18.7453125 12.2601563,18.7453125 C9.76953125,18.7453125 7.47109375,17.9789062 5.315625,16.3984375 C3.16015625,14.865625 1.771875,13.525 1.053125,12.3757812 C1.053125,12.3757812 1.053125,12.3757812 1.053125,12.3757812 C1.771875,11.2265625 3.16015625,9.88515625 5.315625,8.3046875 C7.47109375,6.771875 9.76953125,6.00546875 12.2601563,6.00546875 C12.2601563,6.00546875 12.2601563,6.00546875 12.2601563,6.00546875 C14.7023438,6.00546875 17.0015625,6.771875 19.2523438,8.35234375 C21.503125,9.9328125 22.8921875,11.2734375 23.4671875,12.375 C23.4671875,12.375 23.4671875,12.375 23.4671875,12.375 C22.8921875,13.4765625 21.5039062,14.7695312 19.2523438,16.35 C17.0007812,17.9304687 14.7023437,18.7445312 12.2601563,18.7445312 L12.2601563,18.7453125 Z M14.7023438,9.93359375 C14.0320312,9.26328125 13.2179688,8.928125 12.2601563,8.928125 C11.3023437,8.928125 10.4882812,9.26328125 9.81796875,9.93359375 C9.14765625,10.6039063 8.8125,11.4179687 8.8125,12.3757813 C8.8125,13.3335938 9.14765625,14.1476563 9.81796875,14.8179688 C10.4882812,15.4882813 11.3023437,15.8234375 12.2601563,15.8234375 C13.2179688,15.8234375 14.0320312,15.4882813 14.7023438,14.8179688 C15.3726563,14.1476563 15.7078125,13.3335938 15.7078125,12.3757813 C15.7078125,11.4179687 15.3726563,10.6039063 14.7023438,9.93359375 Z M13.9835938,14.1 C13.5046875,14.5789062 12.9296875,14.81875 12.259375,14.81875 C11.5890625,14.81875 11.0140625,14.5796875 10.5351562,14.1 C10.05625,13.6210938 9.81640625,13.0460938 9.81640625,12.3757813 C9.81640625,11.7054688 10.0554687,11.1304688 10.5351562,10.6515625 C11.0140625,10.1726563 11.5890625,9.9328125 12.259375,9.9328125 C12.9296875,9.9328125 13.5046875,10.171875 13.9835938,10.6515625 C14.4625,11.1304688 14.7023438,11.7054688 14.7023438,12.3757813 C14.7023438,13.0460938 14.4632813,13.6210938 13.9835938,14.1 Z"/>
  <title>Eye</title>
</svg>