<svg xmlns="http://www.w3.org/2000/svg" viewBox="0 0 25 25" id="face-blank">
  <path d="M20.9296875,3.5921875 C23.3242188,5.98671875 24.521875,8.86015625 24.521875,12.2609375 C24.521875,15.6617188 23.3242188,18.5351563 20.9296875,20.9296875 C18.5351562,23.3242188 15.6617188,24.521875 12.2609375,24.521875 C8.86015625,24.521875 5.98671875,23.3242188 3.5921875,20.9296875 C1.19765625,18.5351562 0,15.6617188 0,12.2609375 C0,8.86015625 1.19765625,5.98671875 3.5921875,3.5921875 C5.98671875,1.19765625 8.86015625,0 12.2609375,0 C15.6617188,0 18.5351563,1.19765625 20.9296875,3.5921875 Z M23.5640625,12.2609375 C23.5640625,12.2609375 23.5640625,12.2609375 23.5640625,12.2609375 C23.5640625,9.96171875 22.9414062,7.8546875 21.6960938,5.9390625 C20.403125,4.07109375 18.7265625,2.68203125 16.6195313,1.77265625 C14.5125,0.86328125 12.3570313,0.67109375 10.10625,1.10234375 C7.85546875,1.53359375 5.89140625,2.58671875 4.26328125,4.215625 C4.26328125,4.215625 4.26328125,4.215625 4.26328125,4.215625 C2.6828125,5.79609375 1.62890625,7.71171875 1.1984375,9.9625 C0.71953125,12.2132812 0.9109375,14.4164062 1.82109375,16.5234375 C1.82109375,16.5234375 1.82109375,16.5234375 1.82109375,16.5234375 C2.6828125,18.6304687 4.071875,20.3070312 5.9875,21.6 C7.85546875,22.8929687 9.9625,23.515625 12.2617188,23.515625 C12.2617188,23.515625 12.2617188,23.515625 12.2617188,23.515625 C15.375,23.515625 18.0085938,22.4140625 20.2117188,20.2109375 C22.4148438,18.0554687 23.5164063,15.3734375 23.5640625,12.2609375 Z M8.81328125,11.7820312 C8.81328125,11.7820312 8.81328125,8.8125 8.81328125,8.8125 C8.81328125,8.8125 9.81875,8.8125 9.81875,8.8125 C9.81875,8.8125 9.81875,11.7820312 9.81875,11.7820312 C9.81875,11.7820312 8.81328125,11.7820312 8.81328125,11.7820312 Z M14.7039062,11.7820312 C14.7039062,11.7820312 14.7039062,8.8125 14.7039062,8.8125 C14.7039062,8.8125 15.709375,8.8125 15.709375,8.8125 C15.709375,8.8125 15.709375,11.7820312 15.709375,11.7820312 C15.709375,11.7820312 14.7039062,11.7820312 14.7039062,11.7820312 Z M6.9453125,17.6726562 C6.9453125,17.6726562 6.8015625,16.6671875 6.8015625,16.6671875 C6.8015625,16.6671875 18.5351562,14.7039062 18.5351562,14.7039062 C18.5351562,14.7039062 18.7265625,15.709375 18.7265625,15.709375 C18.7265625,15.709375 6.9453125,17.6726562 6.9453125,17.6726562 L6.9453125,17.6726562 Z"/>
  <title>Face Blank</title>
</svg>