<svg xmlns="http://www.w3.org/2000/svg" viewBox="0 0 25 25" id="face-happy">
  <path d="M20.9296875,3.5921875 C23.3242188,5.98671875 24.521875,8.86015625 24.521875,12.2609375 C24.521875,15.6617188 23.3242188,18.5351563 20.9296875,20.9296875 C18.5351562,23.3242188 15.6617188,24.521875 12.2609375,24.521875 C8.86015625,24.521875 5.98671875,23.3242188 3.5921875,20.9296875 C1.19765625,18.5351562 0,15.6617188 0,12.2609375 C0,8.86015625 1.19765625,5.98671875 3.5921875,3.5921875 C5.98671875,1.19765625 8.86015625,0 12.2609375,0 C15.6617188,0 18.5351563,1.19765625 20.9296875,3.5921875 Z M23.5640625,12.2609375 C23.5640625,12.2609375 23.5640625,12.2609375 23.5640625,12.2609375 C23.5640625,9.96171875 22.9414062,7.8546875 21.6960938,5.9390625 C20.403125,4.07109375 18.7265625,2.68203125 16.6195313,1.77265625 C14.5125,0.86328125 12.3570313,0.67109375 10.10625,1.10234375 C7.85546875,1.53359375 5.89140625,2.58671875 4.26328125,4.215625 C4.26328125,4.215625 4.26328125,4.215625 4.26328125,4.215625 C2.6828125,5.79609375 1.62890625,7.71171875 1.1984375,9.9625 C0.71953125,12.2132812 0.9109375,14.4164062 1.82109375,16.5234375 C1.82109375,16.5234375 1.82109375,16.5234375 1.82109375,16.5234375 C2.6828125,18.6304687 4.071875,20.3070312 5.9875,21.6 C7.85546875,22.8929687 9.9625,23.515625 12.2617188,23.515625 C12.2617188,23.515625 12.2617188,23.515625 12.2617188,23.515625 C15.375,23.515625 18.0085938,22.4140625 20.2117188,20.2109375 C22.4148438,18.0554687 23.5164063,15.3734375 23.5640625,12.2609375 Z M8.81328125,11.7820313 C8.81328125,11.7820313 8.81328125,7.8546875 8.81328125,7.8546875 C8.81328125,7.8546875 9.81875,7.8546875 9.81875,7.8546875 C9.81875,7.8546875 9.81875,11.7820313 9.81875,11.7820313 C9.81875,11.7820313 8.81328125,11.7820313 8.81328125,11.7820313 Z M14.7039062,11.7820313 C14.7039062,11.7820313 14.7039062,7.8546875 14.7039062,7.8546875 C14.7039062,7.8546875 15.709375,7.8546875 15.709375,7.8546875 C15.709375,7.8546875 15.709375,11.7820313 15.709375,11.7820313 C15.709375,11.7820313 14.7039062,11.7820313 14.7039062,11.7820313 Z M5.0296875,15.3734375 C5.0296875,15.3734375 5.0296875,15.3734375 5.0296875,15.3734375 C9.8671875,15.8046875 14.65625,15.8046875 19.4929688,15.3734375 C19.4929688,15.3734375 19.4929688,15.3734375 19.4929688,15.3734375 C18.63125,17.3367187 17.19375,18.7257812 15.2304688,19.4921875 C13.2671875,20.2585938 11.2554688,20.2585938 9.29140625,19.4921875 C7.328125,18.7734375 5.89140625,17.3851563 5.02890625,15.3734375 L5.0296875,15.3734375 Z M20.8820313,14.2242188 C20.8820313,14.2242188 20.8820313,14.2242188 20.8820313,14.2242188 C15.1351562,14.8945312 9.3875,14.8945312 3.640625,14.2242188 C3.640625,14.2242188 3.640625,14.2242188 3.640625,14.2242188 C4.11953125,16.2359375 5.1734375,17.8640625 6.8015625,19.1570312 C8.38203125,20.45 10.2015625,21.0726562 12.2609375,21.0726562 C14.3203125,21.0726562 16.140625,20.45 17.76875,19.1570312 C19.3492188,17.8640625 20.403125,16.2359375 20.8820313,14.2242188 Z"/>
  <title>Face Happy</title>
</svg>