<svg xmlns="http://www.w3.org/2000/svg" viewBox="0 0 25 25" id="face-blank-solid">
  <path d="M20.9296875,3.5921875 C18.5351562,1.19765625 15.6617188,0 12.2609375,0 C8.86015625,0 5.98671875,1.19765625 3.5921875,3.5921875 C1.19765625,5.98671875 0,8.86015625 0,12.2609375 C0,15.6617188 1.19765625,18.5351563 3.5921875,20.9296875 C5.98671875,23.3242188 8.86015625,24.521875 12.2609375,24.521875 C15.6617188,24.521875 18.5351563,23.3242188 20.9296875,20.9296875 C23.3242188,18.5351562 24.521875,15.6617188 24.521875,12.2609375 C24.521875,8.86015625 23.3242188,5.98671875 20.9296875,3.5921875 Z M14.7039062,11.7820312 C14.7039062,11.7820312 14.7039062,8.8125 14.7039062,8.8125 C14.7039062,8.8125 15.709375,8.8125 15.709375,8.8125 C15.709375,8.8125 15.709375,11.7820312 15.709375,11.7820312 C15.709375,11.7820312 14.7039062,11.7820312 14.7039062,11.7820312 Z M8.81328125,11.7820312 C8.81328125,11.7820312 8.81328125,8.8125 8.81328125,8.8125 C8.81328125,8.8125 9.81875,8.8125 9.81875,8.8125 C9.81875,8.8125 9.81875,11.7820312 9.81875,11.7820312 C9.81875,11.7820312 8.81328125,11.7820312 8.81328125,11.7820312 Z M18.7265625,15.709375 C18.7265625,15.709375 6.9453125,17.6726563 6.9453125,17.6726563 C6.9453125,17.6726563 6.8015625,16.6671875 6.8015625,16.6671875 C6.8015625,16.6671875 18.5351562,14.7039063 18.5351562,14.7039063 C18.5351562,14.7039063 18.7265625,15.709375 18.7265625,15.709375 L18.7265625,15.709375 Z"/>
  <title>Face Blank Solid</title>
</svg>