<svg xmlns="http://www.w3.org/2000/svg" viewBox="0 0 25 25" id="face-happy-solid">
  <path d="M20.9296875,3.5921875 C18.5351562,1.19765625 15.6617188,0 12.2609375,0 C8.86015625,0 5.98671875,1.19765625 3.5921875,3.5921875 C1.19765625,5.98671875 0,8.86015625 0,12.2609375 C0,15.6617188 1.19765625,18.5351563 3.5921875,20.9296875 C5.98671875,23.3242188 8.86015625,24.521875 12.2609375,24.521875 C15.6617188,24.521875 18.5351563,23.3242188 20.9296875,20.9296875 C23.3242188,18.5351562 24.521875,15.6617188 24.521875,12.2609375 C24.521875,8.86015625 23.3242188,5.98671875 20.9296875,3.5921875 Z M14.7039062,11.7820313 C14.7039062,11.7820313 14.7039062,7.8546875 14.7039062,7.8546875 C14.7039062,7.8546875 15.709375,7.8546875 15.709375,7.8546875 C15.709375,7.8546875 15.709375,11.7820313 15.709375,11.7820313 C15.709375,11.7820313 14.7039062,11.7820313 14.7039062,11.7820313 Z M8.81328125,11.7820313 C8.81328125,11.7820313 8.81328125,7.8546875 8.81328125,7.8546875 C8.81328125,7.8546875 9.81875,7.8546875 9.81875,7.8546875 C9.81875,7.8546875 9.81875,11.7820313 9.81875,11.7820313 C9.81875,11.7820313 8.81328125,11.7820313 8.81328125,11.7820313 Z M17.76875,19.1570312 C16.140625,20.45 14.3203125,21.0726562 12.2609375,21.0726562 C10.2015625,21.0726562 8.38125,20.45 6.80078125,19.1570312 C5.17265625,17.8640625 4.11875,16.2359375 3.63984375,14.2242188 C3.63984375,14.2242188 3.63984375,14.2242188 3.63984375,14.2242188 C9.38671875,14.8945312 15.134375,14.8945312 20.88125,14.2242188 C20.88125,14.2242188 20.88125,14.2242188 20.88125,14.2242188 C20.4023438,16.2359375 19.3484375,17.8640625 17.7679688,19.1570312 L17.76875,19.1570312 Z"/>
  <title>Face Happy Solid</title>
</svg>