<svg xmlns="http://www.w3.org/2000/svg" viewBox="0 0 25 25" id="facebook">
  <path d="M20.4398437,2.0015625 C20.4398437,2.0015625 20.4398437,2.0015625 20.4398437,2.0015625 C21.1585938,2.0015625 21.7804688,2.24140625 22.3078125,2.76796875 C22.3078125,2.76796875 22.3078125,2.76796875 22.3078125,2.76796875 C22.834375,3.246875 23.0742188,3.86953125 23.0742188,4.5875 C23.0742188,4.5875 23.0742188,4.5875 23.0742188,4.5875 C23.0742188,4.5875 23.0742188,20.4398437 23.0742188,20.4398437 C23.0742188,21.1585938 22.8351563,21.7804688 22.3078125,22.3078125 C21.7804687,22.8351562 21.1585937,23.0742188 20.4398437,23.0742188 C20.4398437,23.0742188 20.4398437,23.0742188 20.4398437,23.0742188 C20.4398437,23.0742188 16.4648438,23.0742188 16.4648438,23.0742188 C16.4648438,23.0742188 16.4648438,15.5070313 16.4648438,15.5070313 C16.4648438,15.5070313 19.2429687,15.5070313 19.2429687,15.5070313 C19.2429687,15.5070313 19.2429687,12.2023438 19.2429687,12.2023438 C19.2429687,12.2023438 16.4648438,12.2023438 16.4648438,12.2023438 C16.4648438,12.2023438 16.4648438,10.478125 16.4648438,10.478125 C16.4648438,9.99921875 16.7039063,9.759375 17.1351563,9.759375 C17.1351563,9.759375 17.1351563,9.759375 17.1351563,9.759375 C17.1351563,9.759375 19.2421875,9.759375 19.2421875,9.759375 C19.2421875,9.759375 19.2421875,6.0234375 19.2421875,6.0234375 C19.2421875,6.0234375 16.8953125,6.0234375 16.8953125,6.0234375 C15.6976562,6.0234375 14.6921875,6.4546875 13.878125,7.3640625 C13.878125,7.3640625 13.878125,7.3640625 13.878125,7.3640625 C13.0640625,8.27421875 12.6328125,9.32734375 12.6328125,10.5726563 C12.6328125,10.5726563 12.6328125,10.5726563 12.6328125,10.5726563 C12.6328125,10.5726563 12.6328125,12.2007813 12.6328125,12.2007813 C12.6328125,12.2007813 10.0945312,12.2007813 10.0945312,12.2007813 C10.0945312,12.2007813 10.0945312,15.5054687 10.0945312,15.5054687 C10.0945312,15.5054687 12.6328125,15.5054687 12.6328125,15.5054687 C12.6328125,15.5054687 12.6328125,23.0726562 12.6328125,23.0726562 C12.6328125,23.0726562 4.634375,23.0726562 4.634375,23.0726562 C3.915625,23.0726562 3.29375,22.8335937 2.76640625,22.30625 C2.2390625,21.7789062 2,21.1570312 2,20.4382812 C2,20.4382812 2,20.4382812 2,20.4382812 C2,20.4382812 2,4.5859375 2,4.5859375 C2,3.8671875 2.2390625,3.2453125 2.76640625,2.76640625 C2.76640625,2.76640625 2.76640625,2.76640625 2.76640625,2.76640625 C3.29296875,2.23984375 3.915625,2 4.634375,2 C4.634375,2 4.634375,2 4.634375,2 C4.634375,2 20.4390625,2 20.4390625,2 L20.4398437,2.0015625 Z"/>
  <title>Facebook</title>
</svg>