<svg xmlns="http://www.w3.org/2000/svg" viewBox="0 0 25 25" id="face-sad-solid">
  <path d="M20.9296875,3.5921875 C18.5351562,1.19765625 15.6617188,0 12.2609375,0 C8.86015625,0 5.98671875,1.19765625 3.5921875,3.5921875 C1.19765625,5.98671875 0,8.86015625 0,12.2609375 C0,15.6617188 1.19765625,18.5351563 3.5921875,20.9296875 C5.98671875,23.3242188 8.86015625,24.521875 12.2609375,24.521875 C15.6617188,24.521875 18.5351563,23.3242188 20.9296875,20.9296875 C23.3242188,18.5351562 24.521875,15.6617188 24.521875,12.2609375 C24.521875,8.86015625 23.3242188,5.98671875 20.9296875,3.5921875 Z M14.7039062,12.7398438 C14.7039062,12.7398438 14.7039062,10.7765625 14.7039062,10.7765625 C14.7039062,10.7765625 15.709375,10.7765625 15.709375,10.7765625 C15.709375,10.7765625 15.709375,12.7398438 15.709375,12.7398438 C15.709375,12.7398438 14.7039062,12.7398438 14.7039062,12.7398438 Z M8.81328125,12.7398438 C8.81328125,12.7398438 8.81328125,10.7765625 8.81328125,10.7765625 C8.81328125,10.7765625 9.81875,10.7765625 9.81875,10.7765625 C9.81875,10.7765625 9.81875,12.7398438 9.81875,12.7398438 C9.81875,12.7398438 8.81328125,12.7398438 8.81328125,12.7398438 Z M17.8171875,17.6726562 C17.8171875,17.6726562 17.4820312,18.6304687 17.4820312,18.6304687 C15.4226562,17.9601562 13.6984375,17.625 12.309375,17.625 C10.8726563,17.625 9.10078125,17.9601562 7.04140625,18.6304687 C7.04140625,18.6304687 7.04140625,18.6304687 7.04140625,18.6304687 C7.04140625,18.6304687 6.70625,17.6726562 6.70625,17.6726562 C8.86171875,16.9539062 10.7289062,16.61875 12.2617188,16.61875 C13.7945313,16.61875 15.6617187,16.9539062 17.8171875,17.6726562 C17.8171875,17.6726562 17.8171875,17.6726562 17.8171875,17.6726562 L17.8171875,17.6726562 Z"/>
  <title>Face Sad Solid</title>
</svg>