<svg xmlns="http://www.w3.org/2000/svg" viewBox="0 0 25 25" id="farm-solid">
  <path d="M4.55,23.5992188 C4.55,23.5992188 6.84921875,20.9171875 6.84921875,20.9171875 C6.84921875,20.9171875 9.1484375,23.5992188 9.1484375,23.5992188 C9.1484375,23.5992188 4.55078125,23.5992188 4.55078125,23.5992188 L4.55,23.5992188 Z M3.92734375,17.46875 C3.92734375,17.46875 3.92734375,22.8328125 3.92734375,22.8328125 C3.92734375,22.8328125 6.2265625,20.1507813 6.2265625,20.1507813 C6.2265625,20.1507813 3.92734375,17.46875 3.92734375,17.46875 Z M6.8484375,19.4328125 C6.8484375,19.4328125 9.14765625,16.7507812 9.14765625,16.7507812 C9.14765625,16.7507812 4.55,16.7507812 4.55,16.7507812 C4.55,16.7507812 6.84921875,19.4328125 6.84921875,19.4328125 L6.8484375,19.4328125 Z M6.8484375,6.11875 C6.8484375,6.11875 0.47890625,10.1414063 0.47890625,10.1414063 C0.14375,10.2851563 0,10.5726563 0,10.9554688 C0,10.9554688 0,10.9554688 0,10.9554688 C0,10.9554688 0,23.5992188 0,23.5992188 C0,23.5992188 2.92109375,23.5992188 2.92109375,23.5992188 C2.92109375,23.5992188 2.92109375,16.2234375 2.92109375,16.2234375 C2.92109375,15.8882813 3.1125,15.7445313 3.44765625,15.7445313 C3.44765625,15.7445313 3.44765625,15.7445313 3.44765625,15.7445313 C3.44765625,15.7445313 10.2960937,15.7445313 10.2960937,15.7445313 C10.63125,15.7445313 10.775,15.8882813 10.775,16.2234375 C10.775,16.2234375 10.775,16.2234375 10.775,16.2234375 C10.775,16.2234375 10.775,23.5992188 10.775,23.5992188 C10.775,23.5992188 13.7445312,23.5992188 13.7445312,23.5992188 C13.7445312,23.5992188 13.7445312,10.4289063 13.7445312,10.4289063 C13.7445312,10.4289063 6.84765625,6.11875 6.84765625,6.11875 L6.8484375,6.11875 Z M7.51953125,20.1507813 C7.51953125,20.1507813 9.81875,22.8328125 9.81875,22.8328125 C9.81875,22.8328125 9.81875,17.46875 9.81875,17.46875 C9.81875,17.46875 7.51953125,20.1507813 7.51953125,20.1507813 Z M21.8390625,2 C21.8390625,2 21.8390625,2 21.8390625,2 C21.8390625,2 21.3125,2 21.3125,2 C20.59375,2 19.971875,2.2390625 19.4445313,2.76640625 C18.9171875,3.29375 18.6304687,3.9640625 18.6304687,4.68203125 C18.6304687,4.68203125 18.6304687,4.68203125 18.6304687,4.68203125 C18.6304687,4.68203125 18.6304687,5.92734375 18.6304687,5.92734375 C18.6304687,5.92734375 24.5210937,5.92734375 24.5210937,5.92734375 C24.5210937,5.92734375 24.5210937,4.68203125 24.5210937,4.68203125 C24.5210937,3.96328125 24.2820312,3.29296875 23.7546875,2.76640625 C23.2273437,2.23984375 22.5570312,2 21.8390625,2 Z M18.6304687,6.9328125 C18.6304687,6.9328125 18.6304687,23.5992188 18.6304687,23.5992188 C18.6304687,23.5992188 24.5210937,23.5992188 24.5210937,23.5992188 C24.5210937,23.5992188 24.5210937,18.7140625 24.5210937,18.7140625 C24.5210937,18.7140625 22.5578125,18.7140625 22.5578125,18.7140625 C22.5578125,18.7140625 22.5578125,17.7085938 22.5578125,17.7085938 C22.5578125,17.7085938 24.5210937,17.7085938 24.5210937,17.7085938 C24.5210937,17.7085938 24.5210937,15.7453125 24.5210937,15.7453125 C24.5210937,15.7453125 22.5578125,15.7453125 22.5578125,15.7453125 C22.5578125,15.7453125 22.5578125,14.7875 22.5578125,14.7875 C22.5578125,14.7875 24.5210937,14.7875 24.5210937,14.7875 C24.5210937,14.7875 24.5210937,12.8242188 24.5210937,12.8242188 C24.5210937,12.8242188 22.5578125,12.8242188 22.5578125,12.8242188 C22.5578125,12.8242188 22.5578125,11.81875 22.5578125,11.81875 C22.5578125,11.81875 24.5210937,11.81875 24.5210937,11.81875 C24.5210937,11.81875 24.5210937,9.85546875 24.5210937,9.85546875 C24.5210937,9.85546875 22.5578125,9.85546875 22.5578125,9.85546875 C22.5578125,9.85546875 22.5578125,8.89765625 22.5578125,8.89765625 C22.5578125,8.89765625 24.5210937,8.89765625 24.5210937,8.89765625 C24.5210937,8.89765625 24.5210937,6.934375 24.5210937,6.934375 C24.5210937,6.934375 18.6304687,6.934375 18.6304687,6.934375 L18.6304687,6.9328125 Z M14.703125,10.8601563 C14.703125,10.8601563 14.703125,23.5992187 14.703125,23.5992187 C14.703125,23.5992187 17.6726563,23.5992187 17.6726563,23.5992187 C17.6726563,23.5992187 17.6726563,10.8601563 17.6726563,10.8601563 C17.6726563,10.8601563 14.703125,10.8601563 14.703125,10.8601563 Z M8.42890625,5.9265625 C8.42890625,5.9265625 14.703125,9.85390625 14.703125,9.85390625 C14.703125,9.85390625 17.6726563,9.85390625 17.6726563,9.85390625 C17.6726563,9.85390625 17.6726563,5.9265625 17.6726563,5.9265625 C17.6726563,5.9265625 8.4296875,5.9265625 8.4296875,5.9265625 L8.42890625,5.9265625 Z"/>
  <title>Farm Solid</title>
</svg>