<svg xmlns="http://www.w3.org/2000/svg" viewBox="0 0 25 25" id="farm">
  <path d="M21.8390625,2 C21.8390625,2 21.8390625,2 21.8390625,2 C21.8390625,2 21.3125,2 21.3125,2 C20.59375,2 19.971875,2.2875 19.4445313,2.8140625 C18.9171875,3.340625 18.6304688,4.01171875 18.6304688,4.7296875 C18.6304688,4.7296875 18.6304688,4.7296875 18.6304688,4.7296875 C18.6304688,4.7296875 18.6304688,22.6414062 18.6304688,22.6414062 C18.6304688,22.6414062 13.7453125,22.6414062 13.7453125,22.6414062 C13.7453125,22.6414062 13.7453125,11.8179687 13.7453125,11.8179687 C13.7453125,11.8179687 17.1453125,11.8179687 17.1453125,11.8179687 C17.4804688,11.8179687 17.671875,11.6742187 17.671875,11.3390625 C17.671875,11.0039062 17.4804688,10.8601562 17.1453125,10.8601562 C17.1453125,10.8601562 17.1453125,10.8601562 17.1453125,10.8601562 C17.1453125,10.8601562 13.7453125,10.8601562 13.7453125,10.8601562 C13.7453125,10.8601562 8.28515625,6.9328125 8.28515625,6.9328125 C8.28515625,6.9328125 17.1453125,6.9328125 17.1453125,6.9328125 C17.4804687,6.9328125 17.671875,6.7890625 17.671875,6.45390625 C17.671875,6.45390625 17.671875,6.45390625 17.671875,6.45390625 C17.671875,6.11875 17.4804687,5.92734375 17.1453125,5.92734375 C17.1453125,5.92734375 17.1453125,5.92734375 17.1453125,5.92734375 C17.1453125,5.92734375 6.8484375,5.92734375 6.8484375,5.92734375 C6.8484375,5.92734375 6.8484375,6.0234375 6.8484375,6.0234375 C6.8484375,6.0234375 0.62265625,10.4296875 0.62265625,10.4296875 C0.19140625,10.66875 0,11.1 0,11.6273437 C0,11.6273437 0,11.6273437 0,11.6273437 C0,11.6273437 0,23.6007813 0,23.6007813 C0,23.6007813 23.5632812,23.6007813 23.5632812,23.6007813 C23.8023437,23.6007813 24.0421875,23.5046875 24.2335937,23.3132813 C24.425,23.121875 24.5210937,22.8820313 24.5210937,22.6429688 C24.5210937,22.6429688 24.5210937,22.6429688 24.5210937,22.6429688 C24.5210937,22.6429688 24.5210937,4.73125 24.5210937,4.73125 C24.5210937,4.0125 24.2820312,3.3421875 23.7546875,2.815625 C23.2273437,2.2890625 22.5570312,2.0015625 21.8390625,2.0015625 L21.8390625,2 Z M9.81796875,15.7453125 C9.81796875,15.7453125 9.81796875,22.6421875 9.81796875,22.6421875 C9.81796875,22.6421875 3.92734375,22.6421875 3.92734375,22.6421875 C3.92734375,22.6421875 3.92734375,15.7453125 3.92734375,15.7453125 C3.92734375,15.7453125 9.81796875,15.7453125 9.81796875,15.7453125 Z M12.7398438,11.3390625 C12.7398438,11.3390625 12.7398438,11.8179687 12.7398438,11.8179687 C12.7398438,11.8179687 12.7398438,22.6414062 12.7398438,22.6414062 C12.7398438,22.6414062 10.7765625,22.6414062 10.7765625,22.6414062 C10.7765625,22.6414062 10.7765625,15.265625 10.7765625,15.265625 C10.7765625,14.9304687 10.6328125,14.7867187 10.2976563,14.7867187 C10.2976563,14.7867187 10.2976563,14.7867187 10.2976563,14.7867187 C10.2976563,14.7867187 3.44921875,14.7867187 3.44921875,14.7867187 C3.1140625,14.7867187 2.92265625,14.9304687 2.92265625,15.265625 C2.92265625,15.265625 2.92265625,15.265625 2.92265625,15.265625 C2.92265625,15.265625 2.92265625,22.6414062 2.92265625,22.6414062 C2.92265625,22.6414062 0.959375,22.6414062 0.959375,22.6414062 C0.959375,22.6414062 0.959375,11.6257812 0.959375,11.6257812 C0.959375,11.434375 1.05546875,11.290625 1.1984375,11.1945312 C1.1984375,11.1945312 1.1984375,11.1945312 1.1984375,11.1945312 C1.1984375,11.1945312 6.9453125,7.171875 6.9453125,7.171875 C6.9453125,7.171875 12.740625,11.3382812 12.740625,11.3382812 L12.7398438,11.3390625 Z M23.5632812,6.9328125 C23.5632812,6.9328125 23.5632812,8.89609375 23.5632812,8.89609375 C23.5632812,8.89609375 22.0789062,8.89609375 22.0789062,8.89609375 C21.74375,8.89609375 21.6,9.03984375 21.6,9.375 C21.6,9.71015625 21.74375,9.85390625 22.0789062,9.85390625 C22.0789062,9.85390625 22.0789062,9.85390625 22.0789062,9.85390625 C22.0789062,9.85390625 23.5632812,9.85390625 23.5632812,9.85390625 C23.5632812,9.85390625 23.5632812,11.8171875 23.5632812,11.8171875 C23.5632812,11.8171875 22.0789062,11.8171875 22.0789062,11.8171875 C21.74375,11.8171875 21.6,11.9609375 21.6,12.2960938 C21.6,12.2960938 21.6,12.2960938 21.6,12.2960938 C21.6,12.63125 21.74375,12.8226563 22.0789062,12.8226563 C22.0789062,12.8226563 22.0789062,12.8226563 22.0789062,12.8226563 C22.0789062,12.8226563 23.5632812,12.8226563 23.5632812,12.8226563 C23.5632812,12.8226563 23.5632812,14.7859375 23.5632812,14.7859375 C23.5632812,14.7859375 22.0789062,14.7859375 22.0789062,14.7859375 C21.74375,14.7859375 21.6,14.9296875 21.6,15.2648438 C21.6,15.6 21.74375,15.74375 22.0789062,15.74375 C22.0789062,15.74375 22.0789062,15.74375 22.0789062,15.74375 C22.0789062,15.74375 23.5632812,15.74375 23.5632812,15.74375 C23.5632812,15.74375 23.5632812,17.7070312 23.5632812,17.7070312 C23.5632812,17.7070312 22.0789062,17.7070312 22.0789062,17.7070312 C21.74375,17.7070312 21.6,17.8507813 21.6,18.1859375 C21.6,18.1859375 21.6,18.1859375 21.6,18.1859375 C21.6,18.5210937 21.74375,18.7125 22.0789062,18.7125 C22.0789062,18.7125 22.0789062,18.7125 22.0789062,18.7125 C22.0789062,18.7125 23.5632812,18.7125 23.5632812,18.7125 C23.5632812,18.7125 23.5632812,22.6398437 23.5632812,22.6398437 C23.5632812,22.6398437 19.6359375,22.6398437 19.6359375,22.6398437 C19.6359375,22.6398437 19.6359375,6.93125 19.6359375,6.93125 C19.6359375,6.93125 23.5632812,6.93125 23.5632812,6.93125 L23.5632812,6.9328125 Z M23.5632812,4.7296875 C23.5632812,4.7296875 23.5632812,5.92734375 23.5632812,5.92734375 C23.5632812,5.92734375 19.6359375,5.92734375 19.6359375,5.92734375 C19.6359375,5.92734375 19.6359375,4.7296875 19.6359375,4.7296875 C19.6359375,4.25078125 19.8273437,3.81953125 20.1625,3.484375 C20.4976562,3.14921875 20.88125,3.00546875 21.3117187,3.00546875 C21.3117187,3.00546875 21.3117187,3.00546875 21.3117187,3.00546875 C21.3117187,3.00546875 21.8382812,3.00546875 21.8382812,3.00546875 C22.3171875,3.00546875 22.7484375,3.14921875 23.0835937,3.484375 C23.41875,3.81953125 23.5625,4.25078125 23.5625,4.7296875 C23.5625,4.7296875 23.5625,4.7296875 23.5625,4.7296875 L23.5632812,4.7296875 Z"/>
  <title>Farm</title>
</svg>