<svg xmlns="http://www.w3.org/2000/svg" viewBox="0 0 25 25" id="fast-forward">
  <path d="M2.484375,3.14375 C2.484375,3.14375 17.2351563,11.525 17.2351563,11.525 C17.5226563,11.7640625 17.6664063,12.0515625 17.6664063,12.3390625 C17.6664063,12.3390625 17.6664063,12.3390625 17.6664063,12.3390625 C17.6664063,12.6742187 17.5226563,12.9140625 17.2351563,13.153125 C17.2351563,13.153125 17.2351563,13.153125 17.2351563,13.153125 C17.2351563,13.153125 2.484375,21.4867187 2.484375,21.4867187 C2.38828125,21.5828125 2.196875,21.6304687 1.9578125,21.6304687 C1.71875,21.6304687 1.47890625,21.534375 1.2875,21.3429688 C1.09609375,21.1515625 1,20.9117187 1,20.6726562 C1,20.6726562 1,20.6726562 1,20.6726562 C1,20.6726562 1,3.9578125 1,3.9578125 C1,3.71875 1.09609375,3.47890625 1.2875,3.2875 C1.47890625,3.09609375 1.71875,3 1.9578125,3 C2.196875,3 2.3890625,3.04765625 2.484375,3.14375 C2.484375,3.14375 2.484375,3.14375 2.484375,3.14375 Z M1.95703125,3.9578125 C1.95703125,3.9578125 1.95703125,20.6726562 1.95703125,20.6726562 C1.95703125,20.6726562 16.7078125,12.3390625 16.7078125,12.3390625 C16.7078125,12.3390625 1.95703125,3.9578125 1.95703125,3.9578125 Z M8.375,3.14375 C8.375,3.14375 23.1257813,11.525 23.1257813,11.525 C23.4132813,11.7640625 23.5570313,12.0515625 23.5570313,12.3390625 C23.5570313,12.3390625 23.5570313,12.3390625 23.5570313,12.3390625 C23.5570313,12.6742187 23.4132813,12.9140625 23.1257813,13.153125 C23.1257813,13.153125 23.1257813,13.153125 23.1257813,13.153125 C23.1257813,13.153125 8.375,21.4867187 8.375,21.4867187 C8.27890625,21.5828125 8.0875,21.6304687 7.8484375,21.6304687 C7.609375,21.6304687 7.36953125,21.534375 7.178125,21.3429688 C6.98671875,21.1515625 6.890625,20.9117187 6.890625,20.6726562 C6.890625,20.6726562 6.890625,20.6726562 6.890625,20.6726562 C6.890625,20.6726562 6.890625,3.9578125 6.890625,3.9578125 C6.890625,3.71875 6.98671875,3.47890625 7.178125,3.2875 C7.36953125,3.09609375 7.609375,3 7.8484375,3 C8.0875,3 8.2796875,3.04765625 8.375,3.14375 C8.375,3.14375 8.375,3.14375 8.375,3.14375 Z M7.84765625,3.9578125 C7.84765625,3.9578125 7.84765625,20.6726562 7.84765625,20.6726562 C7.84765625,20.6726562 22.5984375,12.3390625 22.5984375,12.3390625 C22.5984375,12.3390625 7.84765625,3.9578125 7.84765625,3.9578125 Z"/>
  <title>Fast Forward</title>
</svg>