<svg xmlns="http://www.w3.org/2000/svg" viewBox="0 0 25 25" id="filter-on">
  <path d="M10.8601563,19.665625 C10.8601563,19.665625 12.7757813,19.665625 12.7757813,19.665625 C13.4460938,19.665625 13.78125,20.0007812 13.78125,20.6234375 C13.78125,20.6234375 13.78125,20.6234375 13.78125,20.6234375 C13.78125,21.29375 13.4460938,21.6289062 12.7757813,21.6289062 C12.7757813,21.6289062 12.7757813,21.6289062 12.7757813,21.6289062 C12.7757813,21.6289062 10.8601563,21.6289062 10.8601563,21.6289062 C10.1898438,21.6289062 9.8546875,21.29375 9.8546875,20.6234375 C9.8546875,20.6234375 9.8546875,20.6234375 9.8546875,20.6234375 C9.8546875,20.0007812 10.1898438,19.665625 10.8601563,19.665625 C10.8601563,19.665625 10.8601563,19.665625 10.8601563,19.665625 L10.8601563,19.665625 Z M6.9328125,14.7804688 C6.9328125,14.7804688 16.703125,14.7804688 16.703125,14.7804688 C17.3734375,14.7804688 17.7085938,15.115625 17.7085938,15.7382812 C17.7085938,15.7382812 17.7085938,15.7382812 17.7085938,15.7382812 C17.7085938,16.4085937 17.3734375,16.74375 16.703125,16.74375 C16.703125,16.74375 16.703125,16.74375 16.703125,16.74375 C16.703125,16.74375 6.9328125,16.74375 6.9328125,16.74375 C6.2625,16.74375 5.92734375,16.4085937 5.92734375,15.7382812 C5.92734375,15.7382812 5.92734375,15.7382812 5.92734375,15.7382812 C5.92734375,15.115625 6.2625,14.7804688 6.9328125,14.7804688 C6.9328125,14.7804688 6.9328125,14.7804688 6.9328125,14.7804688 Z M4.8734375,9.8953125 C4.8734375,9.8953125 15.3617188,9.8953125 15.3617188,9.8953125 C15.9367188,9.8953125 16.2234375,10.2304687 16.2234375,10.9007812 C16.2234375,10.9007812 16.2234375,10.9007812 16.2234375,10.9007812 C16.2234375,11.5234375 15.9359375,11.8585937 15.3617188,11.8585937 C15.3617188,11.8585937 15.3617188,11.8585937 15.3617188,11.8585937 C15.3617188,11.8585937 4.8734375,11.8585937 4.8734375,11.8585937 C4.25078125,11.8585937 3.96328125,11.5234375 3.96328125,10.9007812 C3.96328125,10.9007812 3.96328125,10.9007812 3.96328125,10.9007812 C3.96328125,10.2304687 4.25078125,9.8953125 4.8734375,9.8953125 C4.8734375,9.8953125 4.8734375,9.8953125 4.8734375,9.8953125 L4.8734375,9.8953125 Z M13.78125,5.96796875 C13.78125,5.96796875 13.78125,5.96796875 13.78125,5.96796875 C13.78125,6.590625 13.49375,6.92578125 12.9671875,6.92578125 C12.9671875,6.92578125 12.9671875,6.92578125 12.9671875,6.92578125 C12.9671875,6.92578125 2.8140625,6.92578125 2.8140625,6.92578125 C2.2875,6.92578125 2,6.590625 2,5.96796875 C2,5.96796875 2,5.96796875 2,5.96796875 C2,5.29765625 2.2875,4.9625 2.8140625,4.9625 C2.8140625,4.9625 2.8140625,4.9625 2.8140625,4.9625 C2.8140625,4.9625 12.9671875,4.9625 12.9671875,4.9625 C13.49375,4.9625 13.78125,5.29765625 13.78125,5.96796875 Z M23.1203125,6.44765625 C23.1203125,6.44765625 23.1203125,6.44765625 23.1203125,6.44765625 C23.1203125,7.3578125 22.7851562,8.171875 22.1148437,8.8421875 C21.3960937,9.5125 20.5820312,9.84765625 19.6726562,9.84765625 C19.6726562,9.84765625 19.6726562,9.84765625 19.6726562,9.84765625 C18.7148438,9.84765625 17.9007813,9.5125 17.2304688,8.8421875 C16.5601562,8.171875 16.225,7.3578125 16.225,6.44765625 C16.225,6.44765625 16.225,6.44765625 16.225,6.44765625 C16.225,5.48984375 16.5601562,4.67578125 17.2304688,4.00546875 C17.9007813,3.33515625 18.7148437,3 19.6726562,3 C19.6726562,3 19.6726562,3 19.6726562,3 C20.5828125,3 21.396875,3.33515625 22.1148437,4.00546875 C22.7851562,4.67578125 23.1203125,5.48984375 23.1203125,6.44765625 L23.1203125,6.44765625 Z"/>
  <title>Filter On</title>
</svg>