<svg xmlns="http://www.w3.org/2000/svg" viewBox="0 0 25 25" id="filter">
  <path d="M11.859375,18.703125 C11.859375,18.703125 13.775,18.703125 13.775,18.703125 C14.4453125,18.703125 14.7804688,19.0382812 14.7804688,19.6609375 C14.7804688,19.6609375 14.7804688,19.6609375 14.7804688,19.6609375 C14.7804688,20.33125 14.4453125,20.6664062 13.775,20.6664062 C13.775,20.6664062 13.775,20.6664062 13.775,20.6664062 C13.775,20.6664062 11.859375,20.6664062 11.859375,20.6664062 C11.1890625,20.6664062 10.8539063,20.33125 10.8539063,19.6609375 C10.8539063,19.6609375 10.8539063,19.6609375 10.8539063,19.6609375 C10.8539063,19.0382812 11.1890625,18.703125 11.859375,18.703125 C11.859375,18.703125 11.859375,18.703125 11.859375,18.703125 L11.859375,18.703125 Z M7.93203125,13.8179688 C7.93203125,13.8179688 17.7023438,13.8179688 17.7023438,13.8179688 C18.3726563,13.8179688 18.7078125,14.153125 18.7078125,14.7757812 C18.7078125,14.7757812 18.7078125,14.7757812 18.7078125,14.7757812 C18.7078125,15.4460937 18.3726563,15.78125 17.7023438,15.78125 C17.7023438,15.78125 17.7023438,15.78125 17.7023438,15.78125 C17.7023438,15.78125 7.93203125,15.78125 7.93203125,15.78125 C7.26171875,15.78125 6.9265625,15.4460937 6.9265625,14.7757812 C6.9265625,14.7757812 6.9265625,14.7757812 6.9265625,14.7757812 C6.9265625,14.153125 7.26171875,13.8179688 7.93203125,13.8179688 C7.93203125,13.8179688 7.93203125,13.8179688 7.93203125,13.8179688 Z M5.96796875,8.88515625 C5.96796875,8.88515625 19.665625,8.88515625 19.665625,8.88515625 C20.3359375,8.88515625 20.6710938,9.2203125 20.6710938,9.890625 C20.6710938,9.890625 20.6710938,9.890625 20.6710938,9.890625 C20.6710938,10.5132812 20.3359375,10.8484375 19.665625,10.8484375 C19.665625,10.8484375 19.665625,10.8484375 19.665625,10.8484375 C19.665625,10.8484375 5.96796875,10.8484375 5.96796875,10.8484375 C5.29765625,10.8484375 4.9625,10.5132812 4.9625,9.890625 C4.9625,9.890625 4.9625,9.890625 4.9625,9.890625 C4.9625,9.2203125 5.29765625,8.88515625 5.96796875,8.88515625 C5.96796875,8.88515625 5.96796875,8.88515625 5.96796875,8.88515625 L5.96796875,8.88515625 Z M22.6351563,5.00546875 C22.6351563,5.00546875 22.6351563,5.00546875 22.6351563,5.00546875 C22.6351563,5.628125 22.3,5.96328125 21.6296875,5.96328125 C21.6296875,5.96328125 21.6296875,5.96328125 21.6296875,5.96328125 C21.6296875,5.96328125 4.00546875,5.96328125 4.00546875,5.96328125 C3.33515625,5.96328125 3,5.628125 3,5.00546875 C3,5.00546875 3,5.00546875 3,5.00546875 C3,4.33515625 3.33515625,4 4.00546875,4 C4.00546875,4 4.00546875,4 4.00546875,4 C4.00546875,4 21.6296875,4 21.6296875,4 C22.3,4 22.6351563,4.33515625 22.6351563,5.00546875 Z"/>
  <title>Filter</title>
</svg>