<svg xmlns="http://www.w3.org/2000/svg" viewBox="0 0 25 25" id="fire-solid">
  <path d="M21.6296875,16.665625 C21.6296875,16.665625 21.6296875,16.665625 21.6296875,16.665625 C21.6296875,18.6289063 20.7195312,20.4015625 18.9,22.0296875 C17.0320313,23.70625 15.0203125,24.5203125 12.8179688,24.5203125 C12.8179688,24.5203125 12.8179688,24.5203125 12.8179688,24.5203125 C12.8179688,24.5203125 12.5789062,24.5203125 12.5789062,24.5203125 C14.0632812,24.4726562 15.2609375,23.85 16.2664062,22.7484375 C17.2242187,21.646875 17.703125,20.30625 17.703125,18.6296875 C17.703125,18.6296875 17.703125,18.6296875 17.703125,18.6296875 C17.703125,18.0070312 17.4640625,17.3367187 16.9367187,16.6179687 C16.4101562,15.9476562 15.8828125,15.325 15.3085937,14.7984375 C14.734375,14.271875 14.2546875,13.6007812 13.9195312,12.6914062 C13.584375,11.78125 13.5367187,10.8234375 13.7757812,9.81796875 C13.7757812,9.81796875 13.7757812,9.81796875 13.7757812,9.81796875 C11.9078125,9.81796875 10.3273437,10.6320312 8.98671875,12.2601562 C7.59765625,13.8882813 6.92734375,15.7085938 6.92734375,17.671875 C6.92734375,17.671875 6.92734375,17.671875 6.92734375,17.671875 C6.92734375,19.2523438 7.35859375,20.6414063 8.26796875,21.934375 C9.17734375,23.2273437 10.1835938,24.0414062 11.38125,24.3765625 C11.38125,24.3765625 11.38125,24.3765625 11.38125,24.3765625 C9.034375,23.99375 7.02265625,22.7484375 5.4421875,20.6890625 C3.8140625,18.6296875 3,16.3304688 3,13.7445313 C3,13.7445313 3,13.7445313 3,13.7445313 C3,9.9609375 4.43671875,6.7046875 7.35859375,4.02265625 C10.2804687,1.340625 13.3929687,0 16.7453125,0 C16.7453125,0 16.7453125,0 16.7453125,0 C16.1703125,1.43671875 15.93125,2.634375 16.0265625,3.54375 C16.121875,4.453125 16.4578125,5.459375 17.0804687,6.5609375 C17.703125,7.6625 18.3257812,8.6203125 18.9960938,9.434375 C19.6664062,10.2960938 20.2890625,11.3976563 20.815625,12.6914063 C21.3421875,13.9851563 21.6296875,15.3257813 21.6296875,16.6664063 L21.6296875,16.665625 Z"/>
  <title>Fire Solid</title>
</svg>