<svg xmlns="http://www.w3.org/2000/svg" viewBox="0 0 25 25" id="fire">
  <path d="M16.7453125,0 C16.7453125,0 16.7453125,0 16.7453125,0 C13.440625,0 10.3273438,1.340625 7.40625,4.02265625 C4.48515625,6.7046875 3,9.96171875 3,13.7445313 C3,13.7445313 3,13.7445313 3,13.7445313 C3,16.3304687 3.8140625,18.6296875 5.4421875,20.6890625 C7.02265625,22.7484375 9.034375,23.99375 11.4289062,24.3765625 C11.4289062,24.3765625 11.4289062,24.3765625 11.4289062,24.3765625 C11.7164062,24.4726562 12.0039062,24.5203125 12.3390625,24.5203125 C12.3390625,24.5203125 12.3390625,24.5203125 12.3390625,24.5203125 C12.3390625,24.5203125 12.578125,24.5203125 12.578125,24.5203125 C12.578125,24.5203125 12.8171875,24.5203125 12.8171875,24.5203125 C15.0203125,24.5203125 17.0320312,23.70625 18.8992187,22.0296875 C20.7671875,20.4015625 21.6773437,18.6296875 21.6773437,16.665625 C21.6773437,16.665625 21.6773437,16.665625 21.6773437,16.665625 C21.6773437,15.325 21.3898438,13.9835938 20.8632812,12.690625 C20.3367187,11.3976563 19.7140625,10.34375 19.04375,9.48203125 C18.3734375,8.6203125 17.7507812,7.6625 17.128125,6.5609375 C16.5054687,5.459375 16.1703125,4.45390625 16.0742188,3.54375 C15.9304687,2.63359375 16.1703125,1.43671875 16.7445312,0 L16.7453125,0 Z M12.53125,23.515625 C12.53125,23.515625 12.53125,23.515625 12.53125,23.515625 C12.3398437,23.515625 12.0046875,23.4679687 11.5734375,23.4195312 C11.5734375,23.4195312 11.5734375,23.4195312 11.5734375,23.4195312 C10.6632812,23.1804687 9.8015625,22.4617187 9.0828125,21.3601562 C8.31640625,20.2585937 7.93359375,19.0609375 7.93359375,17.6726562 C7.93359375,17.6726562 7.93359375,17.6726562 7.93359375,17.6726562 C7.93359375,16.1882812 8.4125,14.7992187 9.32265625,13.4578125 C10.2328125,12.1164063 11.334375,11.2546875 12.675,10.9195312 C12.675,10.9195312 12.675,10.9195312 12.675,10.9195312 C12.675,11.6382812 12.81875,12.35625 13.10625,13.075 C13.39375,13.79375 13.68125,14.3203125 13.9679687,14.703125 C14.2554687,15.0859375 14.6867187,15.5648437 15.2132812,16.1398437 C15.2132812,16.1398437 15.2132812,16.1398437 15.2132812,16.1398437 C16.21875,17.2414062 16.7460937,18.0554687 16.7460937,18.6304687 C16.7460937,18.6304687 16.7460937,18.6304687 16.7460937,18.6304687 C16.7460937,20.0195312 16.3632812,21.1210937 15.5484375,22.0304687 C14.7335937,22.9398437 13.7289062,23.4671875 12.53125,23.5148437 L12.53125,23.515625 Z M16.3625,22.6054688 C16.3625,22.6054688 16.3625,22.6054688 16.3625,22.6054688 C17.2726562,21.5039062 17.7515625,20.2585937 17.7515625,18.7742188 C17.7515625,18.7742188 17.7515625,18.7742188 17.7515625,18.7742188 C17.7515625,18.7742188 17.7515625,18.6304687 17.7515625,18.6304687 C17.7515625,18.0078125 17.5125,17.3375 16.9851562,16.61875 C16.4585937,15.9484375 15.93125,15.3257812 15.3570312,14.7992187 C14.7828125,14.2726562 14.303125,13.6015625 13.9679687,12.6921875 C13.6328125,11.7820312 13.5851562,10.8242187 13.8242187,9.81875 C13.8242187,9.81875 13.8242187,9.81875 13.8242187,9.81875 C11.95625,9.81875 10.3757812,10.6328125 8.98671875,12.2609375 C7.59765625,13.8890625 6.92734375,15.709375 6.92734375,17.6726562 C6.92734375,17.6726562 6.92734375,17.6726562 6.92734375,17.6726562 C6.975,19.396875 7.50234375,20.9296875 8.46015625,22.2226562 C8.46015625,22.2226562 8.46015625,22.2226562 8.46015625,22.2226562 C5.490625,20.1632813 4.00625,17.3851563 4.00625,13.79375 C4.00625,13.79375 4.00625,13.79375 4.00625,13.79375 C4.00625,13.79375 4.00625,13.7460937 4.00625,13.7460937 C4.00625,10.5851562 5.15546875,7.80703125 7.50234375,5.36484375 C9.8015625,2.92265625 12.3875,1.53359375 15.3085937,1.10234375 C15.3085937,1.10234375 15.3085937,1.10234375 15.3085937,1.10234375 C15.1648437,1.62890625 15.0695312,2.15625 15.0210937,2.6828125 C14.9726562,3.209375 15.0210937,3.68828125 15.1648437,4.215625 C15.3085938,4.7421875 15.4039062,5.1734375 15.5476562,5.50859375 C15.64375,5.89140625 15.8351562,6.32265625 16.1703125,6.84921875 C16.5054687,7.37578125 16.7453125,7.80703125 16.8890625,8.046875 C17.0328125,8.2859375 17.3203125,8.7171875 17.703125,9.2921875 C17.703125,9.2921875 17.703125,9.2921875 17.703125,9.2921875 C18.3734375,10.25 18.8523437,11.0164062 19.1875,11.5429687 C19.5226562,12.0695312 19.8578125,12.8359375 20.1929687,13.79375 C20.528125,14.7515625 20.671875,15.709375 20.671875,16.6671875 C20.671875,16.6671875 20.671875,16.6671875 20.671875,16.6671875 C20.671875,17.8164062 20.2890625,18.9179688 19.4742187,20.0195312 C18.659375,21.1210938 17.60625,21.9828125 16.3609375,22.6054688 L16.3625,22.6054688 Z"/>
  <title>Fire</title>
</svg>