<svg xmlns="http://www.w3.org/2000/svg" viewBox="0 0 25 25" id="flag-wave-solid">
  <path d="M13.8179687,1.96328125 C13.8179687,1.96328125 13.8179687,1.96328125 13.8179687,1.96328125 C13.8179687,1.96328125 13.8179687,10.7757812 13.8179687,10.7757812 C13.8179687,10.7757812 5.96328125,10.7757812 5.96328125,10.7757812 C5.96328125,10.7757812 5.96328125,0.9578125 5.96328125,0.9578125 C5.96328125,0.9578125 12.8117188,0.9578125 12.8117188,0.9578125 C13.0992187,0.9578125 13.3382812,1.05390625 13.5304688,1.2453125 C13.721875,1.48515625 13.8179687,1.72421875 13.8179687,1.9640625 L13.8179687,1.96328125 Z M20.1875,1.96328125 C20.1875,1.96328125 20.1875,1.96328125 20.1875,1.96328125 C20.1875,1.96328125 14.7757812,1.96328125 14.7757812,1.96328125 C14.7757812,1.96328125 14.7757812,11.78125 14.7757812,11.78125 C14.7757812,12.0203125 14.871875,12.2601562 15.0632812,12.4515625 C15.2546875,12.6429687 15.4945312,12.7390625 15.7820312,12.7390625 C15.7820312,12.7390625 15.7820312,12.7390625 15.7820312,12.7390625 C15.7820312,12.7390625 20.1882812,12.7390625 20.1882812,12.7390625 C20.6195313,12.7390625 20.9546875,12.5953125 21.2421875,12.3078125 C21.5296875,12.0203125 21.6734375,11.6851562 21.6734375,11.2539062 C21.6734375,11.2539062 21.6734375,11.2539062 21.6734375,11.2539062 C21.6734375,11.2539062 21.6734375,3.44765625 21.6734375,3.44765625 C21.6734375,3.01640625 21.5296875,2.68125 21.2421875,2.39375 C20.9546875,2.10625 20.6195313,1.9625 20.1882812,1.9625 L20.1875,1.96328125 Z M4.9578125,0.47890625 C4.9578125,0.14375 4.8140625,0 4.47890625,0 C4.14375,0 4,0.14375 4,0.47890625 C4,0.47890625 4,0.47890625 4,0.47890625 C4,0.47890625 4,24.0421875 4,24.0421875 C4,24.3773437 4.14375,24.5210937 4.47890625,24.5210937 C4.8140625,24.5210937 4.9578125,24.3773437 4.9578125,24.0421875 C4.9578125,24.0421875 4.9578125,24.0421875 4.9578125,24.0421875 C4.9578125,24.0421875 4.9578125,0.47890625 4.9578125,0.47890625 L4.9578125,0.47890625 Z"/>
  <title>Flag Wave Solid</title>
</svg>