<svg xmlns="http://www.w3.org/2000/svg" viewBox="0 0 25 25" id="flag-finish">
  <path d="M20.19375,0.9578125 C20.19375,0.9578125 20.19375,0.9578125 20.19375,0.9578125 C20.19375,0.9578125 5.87421875,0.9578125 5.87421875,0.9578125 C5.63515625,0.33515625 5.15546875,0 4.48515625,0 C4.48515625,0 4.48515625,0 4.48515625,0 C4.05390625,0 3.71875,0.14375 3.43125,0.43125 C3.14375,0.71875 3,1.05390625 3,1.48515625 C3,1.48515625 3,1.48515625 3,1.48515625 C3,1.48515625 3,23.0367188 3,23.0367188 C3,23.4679688 3.14375,23.803125 3.43125,24.090625 C3.71875,24.378125 4.05390625,24.521875 4.48515625,24.521875 C4.91640625,24.521875 5.2515625,24.378125 5.5390625,24.090625 C5.8265625,23.803125 5.9703125,23.4679688 5.9703125,23.0367188 C5.9703125,23.0367188 5.9703125,23.0367188 5.9703125,23.0367188 C5.9703125,23.0367188 5.9703125,14.703125 5.9703125,14.703125 C5.9703125,14.703125 20.1945313,14.703125 20.1945313,14.703125 C20.6257813,14.703125 20.9609375,14.559375 21.2484375,14.271875 C21.4875,13.984375 21.63125,13.6492188 21.63125,13.2179688 C21.63125,13.2179688 21.63125,13.2179688 21.63125,13.2179688 C21.63125,13.2179688 21.63125,2.4421875 21.63125,2.4421875 C21.63125,2.0109375 21.4875,1.67578125 21.2484375,1.38828125 C20.9609375,1.10078125 20.6257813,0.95703125 20.1945313,0.95703125 L20.19375,0.9578125 Z M4.9640625,1.484375 C4.9640625,1.484375 4.9640625,14.703125 4.9640625,14.703125 C4.9640625,14.703125 4.9640625,23.0367188 4.9640625,23.0367188 C4.9640625,23.371875 4.8203125,23.515625 4.48515625,23.515625 C4.15,23.515625 4.00625,23.371875 4.00625,23.0367188 C4.00625,23.0367188 4.00625,23.0367188 4.00625,23.0367188 C4.00625,23.0367188 4.00625,1.48515625 4.00625,1.48515625 C4.00625,1.15 4.15,0.95859375 4.48515625,0.95859375 C4.8203125,0.95859375 4.9640625,1.15 4.9640625,1.48515625 C4.9640625,1.48515625 4.9640625,1.48515625 4.9640625,1.48515625 L4.9640625,1.484375 Z M20.6726563,2.4421875 C20.6726563,2.4421875 20.6726563,4.884375 20.6726563,4.884375 C20.6726563,4.884375 17.703125,4.884375 17.703125,4.884375 C17.703125,4.884375 17.703125,7.85390625 17.703125,7.85390625 C17.703125,7.85390625 20.6726563,7.85390625 20.6726563,7.85390625 C20.6726563,7.85390625 20.6726563,10.775 20.6726563,10.775 C20.6726563,10.775 17.703125,10.775 17.703125,10.775 C17.703125,10.775 17.703125,13.7445313 17.703125,13.7445313 C17.703125,13.7445313 14.7820313,13.7445313 14.7820313,13.7445313 C14.7820313,13.7445313 14.7820313,10.775 14.7820313,10.775 C14.7820313,10.775 11.8609375,10.775 11.8609375,10.775 C11.8609375,10.775 11.8609375,13.7445313 11.8609375,13.7445313 C11.8609375,13.7445313 8.89140625,13.7445313 8.89140625,13.7445313 C8.89140625,13.7445313 8.89140625,10.775 8.89140625,10.775 C8.89140625,10.775 5.9703125,10.775 5.9703125,10.775 C5.9703125,10.775 5.9703125,7.85390625 5.9703125,7.85390625 C5.9703125,7.85390625 8.89140625,7.85390625 8.89140625,7.85390625 C8.89140625,7.85390625 8.89140625,4.884375 8.89140625,4.884375 C8.89140625,4.884375 5.9703125,4.884375 5.9703125,4.884375 C5.9703125,4.884375 5.9703125,1.96328125 5.9703125,1.96328125 C5.9703125,1.96328125 8.89140625,1.96328125 8.89140625,1.96328125 C8.89140625,1.96328125 8.89140625,4.884375 8.89140625,4.884375 C8.89140625,4.884375 11.8609375,4.884375 11.8609375,4.884375 C11.8609375,4.884375 11.8609375,1.96328125 11.8609375,1.96328125 C11.8609375,1.96328125 14.7820313,1.96328125 14.7820313,1.96328125 C14.7820313,1.96328125 14.7820313,4.884375 14.7820313,4.884375 C14.7820313,4.884375 17.703125,4.884375 17.703125,4.884375 C17.703125,4.884375 17.703125,1.96328125 17.703125,1.96328125 C17.703125,1.96328125 20.19375,1.96328125 20.19375,1.96328125 C20.5289063,1.96328125 20.6726563,2.10703125 20.6726563,2.4421875 C20.6726563,2.4421875 20.6726563,2.4421875 20.6726563,2.4421875 L20.6726563,2.4421875 Z M14.7820313,7.8546875 C14.7820313,7.8546875 11.8609375,7.8546875 11.8609375,7.8546875 C11.8609375,7.8546875 11.8609375,4.88515625 11.8609375,4.88515625 C11.8609375,4.88515625 14.7820313,4.88515625 14.7820313,4.88515625 C14.7820313,4.88515625 14.7820313,7.8546875 14.7820313,7.8546875 Z M14.7820312,10.7757813 C14.7820312,10.7757813 14.7820312,7.8546875 14.7820312,7.8546875 C14.7820312,7.8546875 17.703125,7.8546875 17.703125,7.8546875 C17.703125,7.8546875 17.703125,10.7757813 17.703125,10.7757813 C17.703125,10.7757813 14.7820312,10.7757813 14.7820312,10.7757813 L14.7820312,10.7757813 Z M8.89140625,7.8546875 C8.89140625,7.8546875 11.8609375,7.8546875 11.8609375,7.8546875 C11.8609375,7.8546875 11.8609375,10.7757813 11.8609375,10.7757813 C11.8609375,10.7757813 8.89140625,10.7757813 8.89140625,10.7757813 C8.89140625,10.7757813 8.89140625,7.8546875 8.89140625,7.8546875 L8.89140625,7.8546875 Z"/>
  <title>Flag Finish</title>
</svg>