<svg xmlns="http://www.w3.org/2000/svg" viewBox="0 0 25 25" id="flag">
  <path d="M20.1875,0.0015625 C20.1875,0.0015625 20.1875,0.0015625 20.1875,0.0015625 C20.1875,0.0015625 4.9578125,0.0015625 4.9578125,0.0015625 C4.71875,0.0015625 4.47890625,0.09765625 4.2875,0.2890625 C4.09609375,0.48046875 4,0.7203125 4,0.959375 C4,0.959375 4,0.959375 4,0.959375 C4,0.959375 4,24.04375 4,24.04375 C4,24.3789062 4.14375,24.5226563 4.47890625,24.5226563 C4.8140625,24.5226563 4.9578125,24.3789062 4.9578125,24.04375 C4.9578125,24.04375 4.9578125,24.04375 4.9578125,24.04375 C4.9578125,24.04375 4.9578125,11.7828125 4.9578125,11.7828125 C4.9578125,11.7828125 20.1875,11.7828125 20.1875,11.7828125 C20.61875,11.7828125 20.9539063,11.6390625 21.2414062,11.3515625 C21.5289062,11.0640625 21.6726562,10.7289062 21.6726562,10.2976562 C21.6726562,10.2976562 21.6726562,10.2976562 21.6726562,10.2976562 C21.6726562,10.2976562 21.6726562,1.48515625 21.6726562,1.48515625 C21.6726562,1.05390625 21.5289062,0.71875 21.2414062,0.43125 C20.9539063,0.14375 20.61875,0 20.1875,0 L20.1875,0.0015625 Z M20.6664063,1.4859375 C20.6664063,1.4859375 20.6664063,10.2984375 20.6664063,10.2984375 C20.6664063,10.6335938 20.5226563,10.7773438 20.1875,10.7773438 C20.1875,10.7773438 20.1875,10.7773438 20.1875,10.7773438 C20.1875,10.7773438 4.9578125,10.7773438 4.9578125,10.7773438 C4.9578125,10.7773438 4.9578125,0.959375 4.9578125,0.959375 C4.9578125,0.959375 20.1875,0.959375 20.1875,0.959375 C20.5226563,0.959375 20.6664063,1.15078125 20.6664063,1.4859375 C20.6664063,1.4859375 20.6664063,1.4859375 20.6664063,1.4859375 Z"/>
  <title>Flag</title>
</svg>