<svg xmlns="http://www.w3.org/2000/svg" viewBox="0 0 25 25" id="flag-wave">
  <path d="M20.1875,1.96328125 C20.1875,1.96328125 20.1875,1.96328125 20.1875,1.96328125 C20.1875,1.96328125 13.8179688,1.96328125 13.8179688,1.96328125 C13.8179688,1.7234375 13.721875,1.484375 13.5304688,1.24453125 C13.3390625,1.053125 13.0992188,0.95703125 12.8117188,0.95703125 C12.8117188,0.95703125 12.8117188,0.95703125 12.8117188,0.95703125 C12.8117188,0.95703125 5.96328125,0.95703125 5.96328125,0.95703125 C5.96328125,0.95703125 5.96328125,11.7804688 5.96328125,11.7804688 C5.96328125,11.7804688 12.8117188,11.7804688 12.8117188,11.7804688 C12.8117188,12.0195312 12.9078125,12.259375 13.0992188,12.4507813 C13.290625,12.6421875 13.5304688,12.7382812 13.8179688,12.7382812 C13.8179688,12.7382812 13.8179688,12.7382812 13.8179688,12.7382812 C13.8179688,12.7382812 20.1875,12.7382812 20.1875,12.7382812 C20.61875,12.7382812 20.9539063,12.5945312 21.2414063,12.3070313 C21.5289063,12.0195313 21.6726562,11.684375 21.6726562,11.253125 C21.6726562,11.253125 21.6726562,11.253125 21.6726562,11.253125 C21.6726562,11.253125 21.6726562,3.446875 21.6726562,3.446875 C21.6726562,3.015625 21.5289063,2.68046875 21.2414063,2.39296875 C20.9539063,2.10546875 20.61875,1.96171875 20.1875,1.96171875 L20.1875,1.96328125 Z M12.8125,1.96328125 C12.8125,1.96328125 12.8125,10.7757813 12.8125,10.7757813 C12.8125,10.7757813 6.921875,10.7757813 6.921875,10.7757813 C6.921875,10.7757813 6.921875,1.96328125 6.921875,1.96328125 C6.921875,1.96328125 12.8125,1.96328125 12.8125,1.96328125 Z M20.6664062,3.4484375 C20.6664062,3.4484375 20.6664062,11.2546875 20.6664062,11.2546875 C20.6664062,11.5898438 20.5226562,11.78125 20.1875,11.78125 C20.1875,11.78125 20.1875,11.78125 20.1875,11.78125 C20.1875,11.78125 13.8179688,11.78125 13.8179688,11.78125 C13.8179688,11.78125 13.8179688,2.92109375 13.8179688,2.92109375 C13.8179688,2.92109375 20.1875,2.92109375 20.1875,2.92109375 C20.5226562,2.92109375 20.6664062,3.1125 20.6664062,3.44765625 C20.6664062,3.44765625 20.6664062,3.44765625 20.6664062,3.44765625 L20.6664062,3.4484375 Z M4.9578125,0.47890625 C4.9578125,0.47890625 4.9578125,0.47890625 4.9578125,0.47890625 C4.9578125,0.47890625 4.9578125,24.0421875 4.9578125,24.0421875 C4.9578125,24.3773437 4.8140625,24.5210937 4.47890625,24.5210937 C4.14375,24.5210937 4,24.3773437 4,24.0421875 C4,24.0421875 4,24.0421875 4,24.0421875 C4,24.0421875 4,0.47890625 4,0.47890625 C4,0.14375 4.14375,0 4.47890625,0 C4.8140625,0 4.9578125,0.14375 4.9578125,0.47890625 L4.9578125,0.47890625 Z"/>
  <title>Flag Wave</title>
</svg>