<svg xmlns="http://www.w3.org/2000/svg" viewBox="0 0 25 25" id="flashlight-solid">
  <path d="M17.8265625,2.48515625 C17.8265625,2.48515625 17.8265625,3.96953125 17.8265625,3.96953125 C17.8265625,3.96953125 7.003125,3.96953125 7.003125,3.96953125 C7.003125,3.96953125 7.003125,2.48515625 7.003125,2.48515625 C7.003125,2.05390625 7.146875,1.71875 7.434375,1.43125 C7.721875,1.14375 8.05703125,1 8.48828125,1 C8.48828125,1 8.48828125,1 8.48828125,1 C8.48828125,1 16.3429688,1 16.3429688,1 C16.7742187,1 17.109375,1.14375 17.396875,1.43125 C17.684375,1.71875 17.828125,2.05390625 17.828125,2.48515625 C17.828125,2.48515625 17.828125,2.48515625 17.828125,2.48515625 L17.8265625,2.48515625 Z M7.00234375,4.92734375 C7.00234375,4.92734375 17.8257812,4.92734375 17.8257812,4.92734375 C17.8257812,4.92734375 17.8257812,7.465625 17.8257812,7.465625 C17.8257812,7.80078125 17.7296875,8.040625 17.5382813,8.1359375 C17.5382813,8.1359375 17.5382813,8.1359375 17.5382813,8.1359375 C17.5382813,8.1359375 16.1492188,9.525 16.1492188,9.525 C15.9578125,9.71640625 15.8617188,9.95625 15.8617188,10.24375 C15.8617188,10.24375 15.8617188,10.24375 15.8617188,10.24375 C15.8617188,10.24375 15.8617188,11.871875 15.8617188,11.871875 C16.5320313,12.1109375 16.8671875,12.5421875 16.8671875,13.2609375 C16.8671875,13.2609375 16.8671875,13.2609375 16.8671875,13.2609375 C16.8671875,13.2609375 16.8671875,15.2242188 16.8671875,15.2242188 C16.8671875,15.846875 16.5320313,16.3257812 15.8617188,16.6132812 C15.8617188,16.6132812 15.8617188,16.6132812 15.8617188,16.6132812 C15.8617188,16.6132812 15.8617188,22.0726563 15.8617188,22.0726563 C15.8617188,22.5039062 15.7179688,22.8390625 15.4304688,23.1265625 C15.1429688,23.4140625 14.8078125,23.5578125 14.3765625,23.5578125 C14.3765625,23.5578125 14.3765625,23.5578125 14.3765625,23.5578125 C14.3765625,23.5578125 10.4492188,23.5578125 10.4492188,23.5578125 C10.0179688,23.5578125 9.6828125,23.4140625 9.3953125,23.1265625 C9.1078125,22.8390625 8.9640625,22.5039062 8.9640625,22.0726563 C8.9640625,22.0726563 8.9640625,22.0726563 8.9640625,22.0726563 C8.9640625,22.0726563 8.9640625,10.2429687 8.9640625,10.2429687 C8.9640625,9.95546875 8.86796875,9.71640625 8.6765625,9.52421875 C8.6765625,9.52421875 8.6765625,9.52421875 8.6765625,9.52421875 C8.6765625,9.52421875 7.2875,8.13515625 7.2875,8.13515625 C7.09609375,7.94375 7,7.70390625 7,7.46484375 C7,7.46484375 7,7.46484375 7,7.46484375 C7,7.46484375 7,4.9265625 7,4.9265625 L7.00234375,4.92734375 Z M15.8625,15.2242188 C15.8625,15.2242188 15.8625,15.2242188 15.8625,15.2242188 C15.8625,15.2242188 15.8625,13.2609375 15.8625,13.2609375 C15.8625,12.9257812 15.71875,12.7820312 15.3835937,12.7820312 C15.0484375,12.7820312 14.9046875,12.9257812 14.9046875,13.2609375 C14.9046875,13.2609375 14.9046875,13.2609375 14.9046875,13.2609375 C14.9046875,13.2609375 14.9046875,15.2242188 14.9046875,15.2242188 C14.9046875,15.559375 15.0484375,15.703125 15.3835937,15.703125 C15.71875,15.703125 15.8625,15.559375 15.8625,15.2242188 Z"/>
  <title>Flashlight Solid</title>
</svg>