<svg xmlns="http://www.w3.org/2000/svg" viewBox="0 0 25 25" id="flashlight">
  <path d="M8.4859375,1 C8.4859375,1 16.340625,1 16.340625,1 C16.771875,1 17.1070313,1.14375 17.3945312,1.43125 C17.6820313,1.71875 17.8257812,2.05390625 17.8257812,2.48515625 C17.8257812,2.48515625 17.8257812,2.48515625 17.8257812,2.48515625 C17.8257812,2.48515625 17.8257812,7.465625 17.8257812,7.465625 C17.8257812,7.80078125 17.7296875,8.040625 17.5382813,8.1359375 C17.5382813,8.1359375 17.5382813,8.1359375 17.5382813,8.1359375 C17.5382813,8.1359375 16.1492188,9.525 16.1492188,9.525 C15.9578125,9.71640625 15.8617188,9.95625 15.8617188,10.24375 C15.8617188,10.24375 15.8617188,10.24375 15.8617188,10.24375 C15.8617188,10.24375 15.8617188,11.871875 15.8617188,11.871875 C16.5320313,12.1109375 16.8671875,12.5421875 16.8671875,13.2609375 C16.8671875,13.2609375 16.8671875,13.2609375 16.8671875,13.2609375 C16.8671875,13.2609375 16.8671875,15.2242187 16.8671875,15.2242187 C16.8671875,15.846875 16.5320313,16.3257812 15.8617188,16.6132812 C15.8617188,16.6132812 15.8617188,16.6132812 15.8617188,16.6132812 C15.8617188,16.6132812 15.8617188,22.0734375 15.8617188,22.0734375 C15.8617188,22.5046875 15.7179688,22.8398438 15.4304688,23.1273438 C15.1429688,23.4148437 14.8078125,23.5585938 14.3765625,23.5585938 C14.3765625,23.5585938 14.3765625,23.5585938 14.3765625,23.5585938 C14.3765625,23.5585938 10.4492188,23.5585938 10.4492188,23.5585938 C10.0179688,23.5585938 9.6828125,23.4148437 9.3953125,23.1273438 C9.1078125,22.8398438 8.9640625,22.5046875 8.9640625,22.0734375 C8.9640625,22.0734375 8.9640625,22.0734375 8.9640625,22.0734375 C8.9640625,22.0734375 8.9640625,10.24375 8.9640625,10.24375 C8.9640625,9.95625 8.86796875,9.7171875 8.6765625,9.525 C8.6765625,9.525 8.6765625,9.525 8.6765625,9.525 C8.6765625,9.525 7.2875,8.1359375 7.2875,8.1359375 C7.09609375,7.94453125 7,7.7046875 7,7.465625 C7,7.465625 7,7.465625 7,7.465625 C7,7.465625 7,2.48515625 7,2.48515625 C7,2.05390625 7.14375,1.71875 7.43125,1.43125 C7.71875,1.14375 8.05390625,1 8.48515625,1 C8.48515625,1 8.48515625,1 8.48515625,1 L8.4859375,1 Z M15.8609375,15.2242187 C15.8609375,15.2242187 15.8609375,15.2242187 15.8609375,15.2242187 C15.8609375,15.2242187 15.8609375,13.2609375 15.8609375,13.2609375 C15.8609375,12.9257812 15.7171875,12.7820312 15.3820312,12.7820312 C15.046875,12.7820312 14.903125,12.9257812 14.903125,13.2609375 C14.903125,13.2609375 14.903125,13.2609375 14.903125,13.2609375 C14.903125,13.2609375 14.903125,15.2242187 14.903125,15.2242187 C14.903125,15.559375 15.046875,15.703125 15.3820312,15.703125 C15.7171875,15.703125 15.8609375,15.559375 15.8609375,15.2242187 Z M15.478125,8.8546875 C15.478125,8.8546875 15.478125,8.8546875 15.478125,8.8546875 C15.478125,8.8546875 16.8671875,7.465625 16.8671875,7.465625 C16.8671875,7.465625 16.8671875,4.92734375 16.8671875,4.92734375 C16.8671875,4.92734375 10.4492187,4.92734375 10.4492187,4.92734375 C10.1140625,4.92734375 9.9703125,4.78359375 9.9703125,4.4484375 C9.9703125,4.4484375 9.9703125,4.4484375 9.9703125,4.4484375 C9.9703125,4.11328125 10.1140625,3.921875 10.4492187,3.921875 C10.4492187,3.921875 10.4492187,3.921875 10.4492187,3.921875 C10.4492187,3.921875 16.8671875,3.921875 16.8671875,3.921875 C16.8671875,3.921875 16.8671875,2.48515625 16.8671875,2.48515625 C16.8671875,2.15 16.6757812,1.95859375 16.340625,1.95859375 C16.340625,1.95859375 16.340625,1.95859375 16.340625,1.95859375 C16.340625,1.95859375 8.4859375,1.95859375 8.4859375,1.95859375 C8.15078125,1.95859375 8.00703125,2.15 8.00703125,2.48515625 C8.00703125,2.48515625 8.00703125,2.48515625 8.00703125,2.48515625 C8.00703125,2.48515625 8.00703125,7.465625 8.00703125,7.465625 C8.00703125,7.465625 9.39609375,8.8546875 9.39609375,8.8546875 C9.77890625,9.2375 9.97109375,9.71640625 9.97109375,10.24375 C9.97109375,10.24375 9.97109375,10.24375 9.97109375,10.24375 C9.97109375,10.24375 9.97109375,22.0734375 9.97109375,22.0734375 C9.97109375,22.4085938 10.1148437,22.5523437 10.45,22.5523437 C10.45,22.5523437 10.45,22.5523437 10.45,22.5523437 C10.45,22.5523437 14.3773437,22.5523437 14.3773437,22.5523437 C14.7125,22.5523437 14.9039062,22.4085938 14.9039062,22.0734375 C14.9039062,22.0734375 14.9039062,22.0734375 14.9039062,22.0734375 C14.9039062,22.0734375 14.9039062,16.6132812 14.9039062,16.6132812 C14.2335937,16.3257813 13.8984375,15.846875 13.8984375,15.2242188 C13.8984375,15.2242188 13.8984375,15.2242188 13.8984375,15.2242188 C13.8984375,15.2242188 13.8984375,13.2609375 13.8984375,13.2609375 C13.8984375,12.5421875 14.2335937,12.1117188 14.9039062,11.871875 C14.9039062,11.871875 14.9039062,11.871875 14.9039062,11.871875 C14.9039062,11.871875 14.9039062,10.24375 14.9039062,10.24375 C14.9039062,9.7171875 15.0953125,9.23828125 15.4789062,8.8546875 L15.478125,8.8546875 Z"/>
  <title>Flashlight</title>
</svg>