<svg xmlns="http://www.w3.org/2000/svg" viewBox="0 0 25 25" id="folder-hierarchy-solid">
  <path d="M9.09921875,2 C9.09921875,2 9.09921875,2 9.09921875,2 C9.09921875,2 0.9578125,2 0.9578125,2 C0.71875,2 0.47890625,2.09609375 0.2875,2.2875 C0.09609375,2.52734375 0,2.76640625 0,3.00625 C0,3.00625 0,3.00625 0,3.00625 C0,3.00625 0,22.6421875 0,22.6421875 C0,22.88125 0.09609375,23.1210938 0.2875,23.3125 C0.47890625,23.5039063 0.71875,23.6 0.9578125,23.6 C0.9578125,23.6 0.9578125,23.6 0.9578125,23.6 C0.9578125,23.6 23.5632812,23.6 23.5632812,23.6 C23.8023438,23.6 24.0421875,23.5039062 24.2335937,23.3125 C24.425,23.1210938 24.5210937,22.88125 24.5210937,22.6421875 C24.5210937,22.6421875 24.5210937,22.6421875 24.5210937,22.6421875 C24.5210937,22.6421875 24.5210937,5.92734375 24.5210937,5.92734375 C24.5210937,5.68828125 24.425,5.4484375 24.2335937,5.25703125 C24.0421875,5.065625 23.8023437,4.96953125 23.5632812,4.96953125 C23.5632812,4.96953125 23.5632812,4.96953125 23.5632812,4.96953125 C23.5632812,4.96953125 10.7757812,4.96953125 10.7757812,4.96953125 C10.7757812,4.96953125 10.009375,2.6703125 10.009375,2.6703125 C9.91328125,2.2390625 9.6265625,2 9.09921875,2 Z M16.6734375,12.3445312 C16.6734375,12.3445312 12.3398437,17.2484375 12.3398437,17.2484375 C12.3398437,17.2484375 7.8453125,12.3445312 7.8453125,12.3445312 C7.8453125,12.3445312 16.6726562,12.3445312 16.6726562,12.3445312 L16.6734375,12.3445312 Z"/>
  <title>Folder Hierarchy Solid</title>
</svg>