<svg xmlns="http://www.w3.org/2000/svg" viewBox="0 0 25 25" id="folder-plus-solid">
  <path d="M23.5632812,4.96953125 C23.5632812,4.96953125 23.5632812,4.96953125 23.5632812,4.96953125 C23.5632812,4.96953125 10.7757812,4.96953125 10.7757812,4.96953125 C10.7757812,4.96953125 10.009375,2.6703125 10.009375,2.6703125 C9.91328125,2.2390625 9.6265625,2 9.09921875,2 C9.09921875,2 9.09921875,2 9.09921875,2 C9.09921875,2 0.9578125,2 0.9578125,2 C0.71875,2 0.47890625,2.09609375 0.2875,2.2875 C0.09609375,2.52734375 0,2.76640625 0,3.00625 C0,3.00625 0,3.00625 0,3.00625 C0,3.00625 0,22.6421875 0,22.6421875 C0,22.88125 0.09609375,23.1210938 0.2875,23.3125 C0.47890625,23.5039063 0.71875,23.6 0.9578125,23.6 C0.9578125,23.6 0.9578125,23.6 0.9578125,23.6 C0.9578125,23.6 23.5632812,23.6 23.5632812,23.6 C23.8023438,23.6 24.0421875,23.5039062 24.2335937,23.3125 C24.425,23.1210938 24.5210937,22.88125 24.5210937,22.6421875 C24.5210937,22.6421875 24.5210937,22.6421875 24.5210937,22.6421875 C24.5210937,22.6421875 24.5210937,5.92734375 24.5210937,5.92734375 C24.5210937,5.68828125 24.425,5.4484375 24.2335937,5.25703125 C24.0421875,5.065625 23.8023437,4.96953125 23.5632812,4.96953125 Z M16.1875,14.7875 C16.1875,14.7875 16.1875,14.7875 16.1875,14.7875 C16.1875,14.7875 12.7390625,14.7875 12.7390625,14.7875 C12.7390625,14.7875 12.7390625,18.1875 12.7390625,18.1875 C12.7390625,18.5226562 12.5953125,18.7140625 12.2601562,18.7140625 C11.925,18.7140625 11.78125,18.5226562 11.78125,18.1875 C11.78125,18.1875 11.78125,18.1875 11.78125,18.1875 C11.78125,18.1875 11.78125,14.7875 11.78125,14.7875 C11.78125,14.7875 8.3328125,14.7875 8.3328125,14.7875 C7.99765625,14.7875 7.85390625,14.5960937 7.85390625,14.2609375 C7.85390625,14.2609375 7.85390625,14.2609375 7.85390625,14.2609375 C7.85390625,13.9257812 7.99765625,13.7820312 8.3328125,13.7820312 C8.3328125,13.7820312 8.3328125,13.7820312 8.3328125,13.7820312 C8.3328125,13.7820312 11.78125,13.7820312 11.78125,13.7820312 C11.78125,13.7820312 11.78125,10.3820312 11.78125,10.3820312 C11.78125,10.046875 11.925,9.85546875 12.2601562,9.85546875 C12.5953125,9.85546875 12.7390625,10.046875 12.7390625,10.3820312 C12.7390625,10.3820312 12.7390625,10.3820312 12.7390625,10.3820312 C12.7390625,10.3820312 12.7390625,13.7820312 12.7390625,13.7820312 C12.7390625,13.7820312 16.1875,13.7820312 16.1875,13.7820312 C16.5226562,13.7820312 16.6664062,13.9257812 16.6664062,14.2609375 C16.6664062,14.2609375 16.6664062,14.2609375 16.6664062,14.2609375 C16.6664062,14.5960937 16.5226562,14.7875 16.1875,14.7875 L16.1875,14.7875 Z"/>
  <title>Folder Plus Solid</title>
</svg>