<svg xmlns="http://www.w3.org/2000/svg" viewBox="0 0 25 25" id="folder-nested">
  <path d="M10.8601563,12.7390625 C10.8601563,12.7390625 10.8601563,12.7390625 10.8601563,12.7390625 C10.8601563,12.7390625 21.6359375,12.7390625 21.6359375,12.7390625 C21.875,12.7390625 22.1148437,12.6429687 22.3546875,12.4515625 C22.5460938,12.2601562 22.6421875,12.0203125 22.6421875,11.78125 C22.6421875,11.78125 22.6421875,11.78125 22.6421875,11.78125 C22.6421875,11.78125 22.6421875,4.884375 22.6421875,4.884375 C22.6421875,4.6453125 22.5460937,4.40546875 22.3546875,4.2140625 C22.115625,4.02265625 21.8757812,3.9265625 21.6359375,3.9265625 C21.6359375,3.9265625 21.6359375,3.9265625 21.6359375,3.9265625 C21.6359375,3.9265625 16.7507812,3.9265625 16.7507812,3.9265625 C16.7507812,3.9265625 16.0320312,2.48984375 16.0320312,2.48984375 C15.840625,2.1546875 15.553125,1.96328125 15.1703125,1.96328125 C15.1703125,1.96328125 15.1703125,1.96328125 15.1703125,1.96328125 C15.1703125,1.96328125 10.8601562,1.96328125 10.8601562,1.96328125 C10.5726562,1.96328125 10.3335937,2.059375 10.1414062,2.25078125 C9.94921875,2.4421875 9.85390625,2.68203125 9.85390625,2.92109375 C9.85390625,2.92109375 9.85390625,2.92109375 9.85390625,2.92109375 C9.85390625,2.92109375 9.85390625,6.8484375 9.85390625,6.8484375 C9.85390625,6.8484375 3.00546875,6.8484375 3.00546875,6.8484375 C3.00546875,6.8484375 3.00546875,0.47890625 3.00546875,0.47890625 C3.00546875,0.14375 2.86171875,0 2.5265625,0 C2.5265625,0 2.5265625,0 2.5265625,0 C2.19140625,0 2,0.14375 2,0.47890625 C2,0.47890625 2,0.47890625 2,0.47890625 C2,0.47890625 2,18.6304688 2,18.6304688 C2,18.8695313 2.09609375,19.109375 2.33515625,19.3007812 C2.5265625,19.5398437 2.76640625,19.6359375 3.00546875,19.6359375 C3.00546875,19.6359375 3.00546875,19.6359375 3.00546875,19.6359375 C3.00546875,19.6359375 9.85390625,19.6359375 9.85390625,19.6359375 C9.85390625,19.6359375 9.85390625,23.515625 9.85390625,23.515625 C9.85390625,23.803125 9.95,24.0421875 10.1414062,24.234375 C10.3328125,24.4265625 10.5726562,24.521875 10.8601562,24.521875 C10.8601562,24.521875 10.8601562,24.521875 10.8601562,24.521875 C10.8601562,24.521875 21.6359375,24.521875 21.6359375,24.521875 C21.875,24.521875 22.1148437,24.4257812 22.3546875,24.234375 C22.5460937,24.0429688 22.6421875,23.803125 22.6421875,23.515625 C22.6421875,23.515625 22.6421875,23.515625 22.6421875,23.515625 C22.6421875,23.515625 22.6421875,16.6671875 22.6421875,16.6671875 C22.6421875,16.428125 22.5460937,16.1882813 22.3546875,15.996875 C22.115625,15.8054688 21.8757812,15.709375 21.6359375,15.709375 C21.6359375,15.709375 21.6359375,15.709375 21.6359375,15.709375 C21.6359375,15.709375 16.7507812,15.709375 16.7507812,15.709375 C16.7507812,15.709375 16.0320312,14.2726563 16.0320312,14.2726563 C15.840625,13.9375 15.553125,13.7460938 15.1703125,13.7460938 C15.1703125,13.7460938 15.1703125,13.7460938 15.1703125,13.7460938 C15.1703125,13.7460938 10.8601562,13.7460938 10.8601562,13.7460938 C10.5726562,13.7460938 10.3335937,13.8421875 10.1414062,14.0335938 C9.94921875,14.225 9.85390625,14.4648438 9.85390625,14.7039063 C9.85390625,14.7039063 9.85390625,14.7039063 9.85390625,14.7039063 C9.85390625,14.7039063 9.85390625,18.63125 9.85390625,18.63125 C9.85390625,18.63125 3.00546875,18.63125 3.00546875,18.63125 C3.00546875,18.63125 3.00546875,7.85546875 3.00546875,7.85546875 C3.00546875,7.85546875 9.85390625,7.85546875 9.85390625,7.85546875 C9.85390625,7.85546875 9.85390625,11.7828125 9.85390625,11.7828125 C9.85390625,12.021875 9.95,12.2617188 10.1414062,12.453125 C10.3328125,12.6445313 10.5726562,12.740625 10.8601562,12.740625 L10.8601563,12.7390625 Z M10.8601562,11.78125 C10.8601562,11.78125 10.8601562,2.92109375 10.8601562,2.92109375 C10.8601562,2.92109375 15.1703125,2.92109375 15.1703125,2.92109375 C15.1703125,2.92109375 16.128125,4.884375 16.128125,4.884375 C16.128125,4.884375 21.6359375,4.884375 21.6359375,4.884375 C21.6359375,4.884375 21.6359375,11.78125 21.6359375,11.78125 C21.6359375,11.78125 10.8601562,11.78125 10.8601562,11.78125 Z M10.8601562,23.5148437 C10.8601562,23.5148437 10.8601562,14.7023437 10.8601562,14.7023437 C10.8601562,14.7023437 15.1703125,14.7023437 15.1703125,14.7023437 C15.1703125,14.7023437 16.128125,16.665625 16.128125,16.665625 C16.128125,16.665625 21.6359375,16.665625 21.6359375,16.665625 C21.6359375,16.665625 21.6359375,23.5140625 21.6359375,23.5140625 C21.6359375,23.5140625 10.8601562,23.5140625 10.8601562,23.5140625 L10.8601562,23.5148437 Z"/>
  <title>Folder Nested</title>
</svg>