<svg xmlns="http://www.w3.org/2000/svg" viewBox="0 0 25 25" id="folder-dollar">
  <g fill="none" fill-rule="evenodd">
    <path fill="#000" fill-rule="nonzero" d="M9.09921875,2 L9.23711143,2.00589195 C9.67711777,2.04505424 9.92201705,2.27826705 10.009375,2.6703125 C10.009375,2.6703125 10.7757812,4.96953125 10.7757812,4.96953125 L10.7757812,4.96953125 L23.5632812,4.96953125 L23.5632812,4.96953125 L23.6826497,4.97753545 C23.8809462,5.00421007 24.0740885,5.09752604 24.2335937,5.25703125 C24.425,5.4484375 24.5210937,5.68828125 24.5210937,5.92734375 L24.5210937,5.92734375 L24.5210937,22.6421875 L24.5210937,22.6421875 L24.5130896,22.761556 C24.4864149,22.9598524 24.393099,23.1529948 24.2335937,23.3125 C24.0421875,23.5039062 23.8023437,23.6 23.5632812,23.6 L23.5632812,23.6 L0.9578125,23.6 L0.9578125,23.6 L0.83844401,23.5919958 C0.640147569,23.5653212 0.447005208,23.4720052 0.2875,23.3125 C0.09609375,23.1210938 0,22.88125 0,22.6421875 L0,22.6421875 L0,3.00625 L0,3.00625 L0.0080041956,2.886386 C0.0346788194,2.68669705 0.127994792,2.48736979 0.2875,2.2875 C0.47890625,2.09609375 0.71875,2 0.9578125,2 L0.9578125,2 L9.09921875,2 L9.09921875,2 Z M9.14140625,3 L1,3 L1,3 L1,22.6359375 L1,22.6359375 L23.6054688,22.6359375 L23.6054688,22.6359375 L23.6054688,5.92109375 L23.6054688,5.92109375 L10.8179688,5.92109375 L10.8179688,5.92109375 L10.6915719,5.91396875 C10.3216016,5.87135938 10.0371875,5.63890625 9.9078125,5.25078125 C9.9078125,5.25078125 9.14140625,3 9.14140625,3 L9.14140625,3 Z"/>
    <path fill="#000" fill-rule="nonzero" d="M12.988325,8 C13.3234813,8 13.4672313,8.19140625 13.4672313,8.5265625 L13.4672313,8.5265625 L13.4672313,9.484375 L13.4672313,9.484375 L13.5148875,9.484375 L13.5148875,9.484375 L13.797102,9.49149091 C14.5357594,9.52943673 15.1645403,9.71909722 15.7180125,10.059375 L15.7180125,10.059375 L15.8049638,10.1249035 C16.0131514,10.3040702 16.0319014,10.5171875 15.8617625,10.7296875 L15.8617625,10.7296875 L15.81038,10.8167042 C15.6642895,11.0254147 15.4470056,11.0488715 15.19145,10.9210938 L15.19145,10.9210938 L15.0074504,10.8200195 C14.5680491,10.5999023 14.0597117,10.4898438 13.5148875,10.4898438 L13.5148875,10.4898438 L13.4672313,10.4898438 L13.4672313,10.4898438 L13.4672313,14.0335938 L13.4672313,14.0335938 L13.7435125,14.1148063 C14.0976375,14.2174063 14.3967625,14.3014063 14.6648875,14.4164063 C14.9516063,14.5601563 15.2391063,14.8476563 15.5266063,15.2304688 C15.7656688,15.6140625 15.9094188,16.0929688 15.9094188,16.6195313 L15.9094188,16.6195313 L15.9006289,16.8235254 C15.8539211,17.3580247 15.6224396,17.8166667 15.2391063,18.2 C14.8078563,18.6789063 14.1859813,19.0140625 13.4672313,19.1578125 L13.4672313,19.1578125 L13.4672313,20.259375 L13.4672313,20.259375 L13.4618418,20.3657043 C13.4329238,20.6347029 13.2862417,20.7859375 12.988325,20.7859375 C12.6531688,20.7859375 12.5094188,20.5945313 12.5094188,20.259375 L12.5094188,20.259375 L12.5094188,19.3015625 L12.5094188,19.3015625 L12.4617625,19.3015625 L12.4617625,19.3015625 L12.179548,19.2944466 C11.4408906,19.2565008 10.8121097,19.0668403 10.2586375,18.7265625 L10.2586375,18.7265625 L10.1716862,18.661034 C9.96349861,18.4818673 9.94474861,18.26875 10.1148875,18.05625 L10.1148875,18.05625 L10.16627,17.9692333 C10.3123605,17.7605228 10.5296444,17.737066 10.7852,17.8648438 L10.7852,17.8648438 L10.9691996,17.965918 C11.4086009,18.1860352 11.9169383,18.2960938 12.4617625,18.2960938 L12.4617625,18.2960938 L12.5094188,18.2960938 L12.5094188,18.2960938 L12.5094188,14.753125 C12.0305125,14.609375 11.6477,14.465625 11.3602,14.321875 C11.0250438,14.178125 10.7375438,13.9382813 10.4984813,13.5554688 C10.2109813,13.171875 10.0672313,12.6929688 10.0672313,12.1664063 L10.0672313,12.1664063 L10.0760211,11.9623468 C10.1227289,11.4273245 10.3542104,10.9639757 10.7375438,10.5382813 C11.1687938,10.1070313 11.7906688,9.771875 12.5094188,9.628125 L12.5094188,9.628125 L12.5094188,8.5265625 L12.5094188,8.5265625 L12.5148082,8.4202332 C12.5437262,8.15123457 12.6904083,8 12.988325,8 Z M13.5555125,15.0398438 L13.5555125,18.153125 C14.5609813,17.8179688 15.0398875,17.3390625 15.0398875,16.6203125 L15.0398875,16.6203125 L15.0342637,16.4794218 C14.9779673,15.7890198 14.4981395,15.309375 13.5555125,15.0398438 L13.5555125,15.0398438 Z M12.4578563,10.6335938 L12.2637692,10.7025701 C11.3906618,11.0336701 10.9734813,11.4955729 10.9734813,12.1664063 L10.9734813,12.1664063 L10.9791051,12.3072969 C11.0354014,12.997699 11.5152293,13.4773438 12.4578563,13.746875 L12.4578563,13.746875 L12.4578563,10.6335938 L12.4578563,10.6335938 Z"/>
  </g>
  <title>Folder Dollar</title>
</svg>