<svg xmlns="http://www.w3.org/2000/svg" viewBox="0 0 25 25" id="folders">
  <path d="M23.5632812,8.8125 C23.5632812,8.8125 23.5632812,8.8125 23.5632812,8.8125 C23.5632812,8.8125 21.6,8.8125 21.6,8.8125 C21.6,8.8125 21.6,3.92734375 21.6,3.92734375 C21.6,3.68828125 21.5039062,3.4484375 21.3125,3.20859375 C21.0734375,3.0171875 20.8335938,2.92109375 20.59375,2.92109375 C20.59375,2.92109375 20.59375,2.92109375 20.59375,2.92109375 C20.59375,2.92109375 9.81796875,2.92109375 9.81796875,2.92109375 C9.81796875,2.92109375 9.0515625,0.6703125 9.0515625,0.6703125 C8.9078125,0.2390625 8.57265625,0 8.14140625,0 C8.14140625,0 8.14140625,0 8.14140625,0 C8.14140625,0 0.9578125,0 0.9578125,0 C0.71875,0 0.47890625,0.09609375 0.2875,0.2875 C0.09609375,0.47890625 0,0.71875 0,0.9578125 C0,0.9578125 0,0.9578125 0,0.9578125 C0,0.9578125 0,17.6726563 0,17.6726563 C0,17.9117188 0.09609375,18.1515625 0.2875,18.3429688 C0.47890625,18.534375 0.71875,18.6304688 0.9578125,18.6304688 C0.9578125,18.6304688 0.9578125,18.6304688 0.9578125,18.6304688 C0.9578125,18.6304688 2.92109375,18.6304688 2.92109375,18.6304688 C2.92109375,18.6304688 2.92109375,23.515625 2.92109375,23.515625 C2.92109375,23.803125 3.0171875,24.0421875 3.25625,24.234375 C3.44765625,24.4257813 3.6875,24.521875 3.9265625,24.521875 C3.9265625,24.521875 3.9265625,24.521875 3.9265625,24.521875 C3.9265625,24.521875 23.5625,24.521875 23.5625,24.521875 C23.8015625,24.521875 24.0414062,24.4257813 24.2328125,24.234375 C24.4242187,24.0429688 24.5203125,23.803125 24.5203125,23.515625 C24.5203125,23.515625 24.5203125,23.515625 24.5203125,23.515625 C24.5203125,23.515625 24.5203125,9.81796875 24.5203125,9.81796875 C24.5203125,9.53046875 24.4242188,9.29140625 24.2328125,9.09921875 C24.0414062,8.90703125 23.8015625,8.81171875 23.5625,8.81171875 L23.5632812,8.8125 Z M2.921875,6.8484375 C2.921875,6.8484375 2.921875,6.8484375 2.921875,6.8484375 C2.921875,6.8484375 2.921875,17.671875 2.921875,17.671875 C2.921875,17.671875 0.95859375,17.671875 0.95859375,17.671875 C0.95859375,17.671875 0.95859375,0.95703125 0.95859375,0.95703125 C0.95859375,0.95703125 8.1421875,0.95703125 8.1421875,0.95703125 C8.1421875,0.95703125 9.1,3.9265625 9.1,3.9265625 C9.1,3.9265625 20.5945312,3.9265625 20.5945312,3.9265625 C20.5945312,3.9265625 20.5945312,8.81171875 20.5945312,8.81171875 C20.5945312,8.81171875 12.7398437,8.81171875 12.7398437,8.81171875 C12.7398437,8.81171875 11.9734375,6.5609375 11.9734375,6.5609375 C11.8296875,6.1296875 11.5421875,5.890625 11.0632812,5.890625 C11.0632812,5.890625 11.0632812,5.890625 11.0632812,5.890625 C11.0632812,5.890625 3.92734375,5.890625 3.92734375,5.890625 C3.68828125,5.890625 3.4484375,5.98671875 3.25703125,6.178125 C3.01796875,6.36953125 2.921875,6.609375 2.921875,6.8484375 L2.921875,6.8484375 Z M23.5632812,9.81796875 C23.5632812,9.81796875 23.5632812,23.515625 23.5632812,23.515625 C23.5632812,23.515625 3.92734375,23.515625 3.92734375,23.515625 C3.92734375,23.515625 3.92734375,6.84921875 3.92734375,6.84921875 C3.92734375,6.84921875 11.0632812,6.84921875 11.0632812,6.84921875 C11.0632812,6.84921875 12.0210937,9.81875 12.0210937,9.81875 C12.0210937,9.81875 23.5632812,9.81875 23.5632812,9.81875 L23.5632812,9.81796875 Z"/>
  <title>Folders</title>
</svg>