<svg xmlns="http://www.w3.org/2000/svg" viewBox="0 0 25 25" id="folders-solid">
  <path d="M23.5632812,8.8125 C23.5632812,8.8125 23.5632812,8.8125 23.5632812,8.8125 C23.5632812,8.8125 21.6,8.8125 21.6,8.8125 C21.6,8.8125 21.6,3.92734375 21.6,3.92734375 C21.6,3.68828125 21.5039062,3.4484375 21.3125,3.20859375 C21.0734375,3.0171875 20.8335938,2.92109375 20.59375,2.92109375 C20.59375,2.92109375 20.59375,2.92109375 20.59375,2.92109375 C20.59375,2.92109375 9.81796875,2.92109375 9.81796875,2.92109375 C9.81796875,2.92109375 9.0515625,0.6703125 9.0515625,0.6703125 C8.9078125,0.2390625 8.57265625,0 8.14140625,0 C8.14140625,0 8.14140625,0 8.14140625,0 C8.14140625,0 0.9578125,0 0.9578125,0 C0.71875,0 0.47890625,0.09609375 0.2875,0.2875 C0.09609375,0.47890625 0,0.71875 0,0.9578125 C0,0.9578125 0,0.9578125 0,0.9578125 C0,0.9578125 0,17.6726563 0,17.6726563 C0,17.9117188 0.09609375,18.1515625 0.2875,18.3429688 C0.47890625,18.534375 0.71875,18.6304688 0.9578125,18.6304688 C0.9578125,18.6304688 0.9578125,18.6304688 0.9578125,18.6304688 C0.9578125,18.6304688 2.92109375,18.6304688 2.92109375,18.6304688 C2.92109375,18.6304688 2.92109375,23.515625 2.92109375,23.515625 C2.92109375,23.803125 3.0171875,24.0421875 3.25625,24.234375 C3.44765625,24.4257813 3.6875,24.521875 3.9265625,24.521875 C3.9265625,24.521875 3.9265625,24.521875 3.9265625,24.521875 C3.9265625,24.521875 23.5625,24.521875 23.5625,24.521875 C23.8015625,24.521875 24.0414062,24.4257813 24.2328125,24.234375 C24.4242187,24.0429688 24.5203125,23.803125 24.5203125,23.515625 C24.5203125,23.515625 24.5203125,23.515625 24.5203125,23.515625 C24.5203125,23.515625 24.5203125,9.81796875 24.5203125,9.81796875 C24.5203125,9.53046875 24.4242188,9.29140625 24.2328125,9.09921875 C24.0414062,8.90703125 23.8015625,8.81171875 23.5625,8.81171875 L23.5632812,8.8125 Z M20.59375,3.92734375 C20.59375,3.92734375 20.59375,8.8125 20.59375,8.8125 C20.59375,8.8125 12.7390625,8.8125 12.7390625,8.8125 C12.7390625,8.8125 11.9726562,6.56171875 11.9726562,6.56171875 C11.8289062,6.13046875 11.5414062,5.89140625 11.0625,5.89140625 C11.0625,5.89140625 11.0625,5.89140625 11.0625,5.89140625 C11.0625,5.89140625 3.9265625,5.89140625 3.9265625,5.89140625 C3.6875,5.89140625 3.44765625,5.9875 3.25625,6.17890625 C3.0171875,6.3703125 2.92109375,6.61015625 2.92109375,6.84921875 C2.92109375,6.84921875 2.92109375,6.84921875 2.92109375,6.84921875 C2.92109375,6.84921875 2.92109375,17.6726563 2.92109375,17.6726563 C2.92109375,17.6726563 0.9578125,17.6726563 0.9578125,17.6726563 C0.9578125,17.6726563 0.9578125,0.9578125 0.9578125,0.9578125 C0.9578125,0.9578125 8.14140625,0.9578125 8.14140625,0.9578125 C8.14140625,0.9578125 9.09921875,3.92734375 9.09921875,3.92734375 C9.09921875,3.92734375 20.59375,3.92734375 20.59375,3.92734375 L20.59375,3.92734375 Z"/>
  <title>Folders Solid</title>
</svg>