<svg xmlns="http://www.w3.org/2000/svg" viewBox="0 0 25 25" id="folder-plus">
  <path d="M8.33359375,13.7820312 C8.33359375,13.7820312 8.33359375,13.7820312 8.33359375,13.7820312 C8.33359375,13.7820312 11.7820313,13.7820312 11.7820313,13.7820312 C11.7820313,13.7820312 11.7820313,10.3820312 11.7820313,10.3820312 C11.7820313,10.046875 11.9257813,9.85546875 12.2609375,9.85546875 C12.5960938,9.85546875 12.7398438,10.046875 12.7398438,10.3820312 C12.7398438,10.3820312 12.7398438,10.3820312 12.7398438,10.3820312 C12.7398438,10.3820312 12.7398438,13.7820312 12.7398438,13.7820312 C12.7398438,13.7820312 16.1882813,13.7820312 16.1882813,13.7820312 C16.5234375,13.7820312 16.6671875,13.9257812 16.6671875,14.2609375 C16.6671875,14.2609375 16.6671875,14.2609375 16.6671875,14.2609375 C16.6671875,14.5960937 16.5234375,14.7875 16.1882813,14.7875 C16.1882813,14.7875 16.1882813,14.7875 16.1882813,14.7875 C16.1882813,14.7875 12.7398438,14.7875 12.7398438,14.7875 C12.7398438,14.7875 12.7398438,18.1875 12.7398438,18.1875 C12.7398438,18.5226562 12.5960938,18.7140625 12.2609375,18.7140625 C11.9257813,18.7140625 11.7820313,18.5226562 11.7820313,18.1875 C11.7820313,18.1875 11.7820313,18.1875 11.7820313,18.1875 C11.7820313,18.1875 11.7820313,14.7875 11.7820313,14.7875 C11.7820313,14.7875 8.33359375,14.7875 8.33359375,14.7875 C7.9984375,14.7875 7.8546875,14.5960937 7.8546875,14.2609375 C7.8546875,14.2609375 7.8546875,14.2609375 7.8546875,14.2609375 C7.8546875,13.9257812 7.9984375,13.7820312 8.33359375,13.7820312 L8.33359375,13.7820312 Z M24.5210937,5.92734375 C24.5210937,5.92734375 24.5210937,5.92734375 24.5210937,5.92734375 C24.5210937,5.92734375 24.5210937,22.6421875 24.5210937,22.6421875 C24.5210937,22.88125 24.425,23.1210938 24.2335937,23.3125 C24.0421875,23.5039063 23.8023437,23.6 23.5632812,23.6 C23.5632812,23.6 23.5632812,23.6 23.5632812,23.6 C23.5632812,23.6 0.9578125,23.6 0.9578125,23.6 C0.71875,23.6 0.47890625,23.5039062 0.2875,23.3125 C0.09609375,23.1210938 0,22.88125 0,22.6421875 C0,22.6421875 0,22.6421875 0,22.6421875 C0,22.6421875 0,3.00625 0,3.00625 C0,2.7671875 0.09609375,2.52734375 0.2875,2.2875 C0.47890625,2.09609375 0.71875,2 0.9578125,2 C0.9578125,2 0.9578125,2 0.9578125,2 C0.9578125,2 9.09921875,2 9.09921875,2 C9.62578125,2 9.91328125,2.2390625 10.009375,2.6703125 C10.009375,2.6703125 10.009375,2.6703125 10.009375,2.6703125 C10.009375,2.6703125 10.7757812,4.96953125 10.7757812,4.96953125 C10.7757812,4.96953125 23.5632812,4.96953125 23.5632812,4.96953125 C23.8023437,4.96953125 24.0421875,5.065625 24.2335937,5.25703125 C24.425,5.4484375 24.5210937,5.68828125 24.5210937,5.92734375 L24.5210937,5.92734375 Z M23.5632813,22.6421875 C23.5632813,22.6421875 23.5632813,5.92734375 23.5632813,5.92734375 C23.5632813,5.92734375 10.1054688,5.92734375 10.1054688,5.92734375 C10.1054688,5.92734375 9.1,3.00625 9.1,3.00625 C9.1,3.00625 0.95859375,3.00625 0.95859375,3.00625 C0.95859375,3.00625 0.95859375,22.6421875 0.95859375,22.6421875 C0.95859375,22.6421875 23.5640625,22.6421875 23.5640625,22.6421875 L23.5632813,22.6421875 Z"/>
  <title>Folder Plus</title>
</svg>