<svg xmlns="http://www.w3.org/2000/svg" viewBox="0 0 25 25" id="folder-solid">
  <path d="M24.5210937,5.92734375 C24.5210937,5.92734375 24.5210937,5.92734375 24.5210937,5.92734375 C24.5210937,5.92734375 24.5210937,22.6421875 24.5210937,22.6421875 C24.5210937,22.88125 24.425,23.1210938 24.2335937,23.3125 C24.0421875,23.5039063 23.8023437,23.6 23.5632812,23.6 C23.5632812,23.6 23.5632812,23.6 23.5632812,23.6 C23.5632812,23.6 0.9578125,23.6 0.9578125,23.6 C0.71875,23.6 0.47890625,23.5039062 0.2875,23.3125 C0.09609375,23.1210938 0,22.88125 0,22.6421875 C0,22.6421875 0,22.6421875 0,22.6421875 C0,22.6421875 0,3.00625 0,3.00625 C0,2.7671875 0.09609375,2.52734375 0.2875,2.2875 C0.47890625,2.09609375 0.71875,2 0.9578125,2 C0.9578125,2 0.9578125,2 0.9578125,2 C0.9578125,2 9.09921875,2 9.09921875,2 C9.62578125,2 9.91328125,2.2390625 10.009375,2.6703125 C10.009375,2.6703125 10.009375,2.6703125 10.009375,2.6703125 C10.009375,2.6703125 10.7757812,4.96953125 10.7757812,4.96953125 C10.7757812,4.96953125 23.5632812,4.96953125 23.5632812,4.96953125 C23.8023437,4.96953125 24.0421875,5.065625 24.2335937,5.25703125 C24.425,5.4484375 24.5210937,5.68828125 24.5210937,5.92734375 L24.5210937,5.92734375 Z"/>
  <title>Folder Solid</title>
</svg>