<svg xmlns="http://www.w3.org/2000/svg" viewBox="0 0 25 25" id="folder-closed">
  <path d="M23.5632812,4.92109375 C23.5632812,4.92109375 23.5632812,4.92109375 23.5632812,4.92109375 C23.5632812,4.92109375 10.7757812,4.92109375 10.7757812,4.92109375 C10.7757812,4.92109375 10.009375,2.6703125 10.009375,2.6703125 C9.91328125,2.2390625 9.6265625,2 9.09921875,2 C9.09921875,2 9.09921875,2 9.09921875,2 C9.09921875,2 0.9578125,2 0.9578125,2 C0.71875,2 0.47890625,2.09609375 0.2875,2.2875 C0.09609375,2.47890625 0,2.71875 0,2.9578125 C0,2.9578125 0,2.9578125 0,2.9578125 C0,2.9578125 0,21.6359375 0,21.6359375 C0,21.875 0.09609375,22.1148437 0.2875,22.30625 C0.47890625,22.4976563 0.71875,22.59375 0.9578125,22.59375 C0.9578125,22.59375 0.9578125,22.59375 0.9578125,22.59375 C0.9578125,22.59375 23.5632812,22.59375 23.5632812,22.59375 C23.8023438,22.59375 24.0421875,22.4976562 24.2335937,22.30625 C24.425,22.1148438 24.5210937,21.875 24.5210937,21.6359375 C24.5210937,21.6359375 24.5210937,21.6359375 24.5210937,21.6359375 C24.5210937,21.6359375 24.5210937,5.92734375 24.5210937,5.92734375 C24.5210937,5.68828125 24.425,5.4484375 24.2335937,5.20859375 C24.0421875,5.0171875 23.8023437,4.92109375 23.5632812,4.92109375 Z M23.5632812,9.85390625 C23.5632812,9.85390625 23.5632812,21.6351563 23.5632812,21.6351563 C23.5632812,21.6351563 0.9578125,21.6351563 0.9578125,21.6351563 C0.9578125,21.6351563 0.9578125,9.85390625 0.9578125,9.85390625 C0.9578125,9.85390625 23.5632812,9.85390625 23.5632812,9.85390625 L23.5632812,9.85390625 Z M23.5632812,5.9265625 C23.5632812,5.9265625 23.5632812,8.84765625 23.5632812,8.84765625 C23.5632812,8.84765625 0.9578125,8.84765625 0.9578125,8.84765625 C0.9578125,8.84765625 0.9578125,2.95703125 0.9578125,2.95703125 C0.9578125,2.95703125 9.09921875,2.95703125 9.09921875,2.95703125 C9.09921875,2.95703125 9.865625,5.25625 9.865625,5.25625 C10.009375,5.6875 10.3445312,5.9265625 10.7757812,5.9265625 C10.7757812,5.9265625 10.7757812,5.9265625 10.7757812,5.9265625 C10.7757812,5.9265625 23.5632812,5.9265625 23.5632812,5.9265625 Z"/>
  <title>Folder Closed</title>
</svg>