<svg xmlns="http://www.w3.org/2000/svg" viewBox="0 0 25 25" id="folder-close">
  <path d="M9.67421875,11.0039062 C9.67421875,11.0039062 9.67421875,11.0039062 9.67421875,11.0039062 C9.67421875,11.0039062 12.2601563,13.5898437 12.2601563,13.5898437 C12.2601563,13.5898437 14.8460937,11.0039062 14.8460937,11.0039062 C14.9421875,10.9078125 15.0375,10.8601562 15.18125,10.8601562 C15.18125,10.8601562 15.18125,10.8601562 15.18125,10.8601562 C15.5164062,10.8601562 15.7078125,11.0039062 15.7078125,11.3390625 C15.7078125,11.3390625 15.7078125,11.3390625 15.7078125,11.3390625 C15.7078125,11.3867187 15.6601562,11.4828125 15.5640625,11.6742187 C15.5640625,11.6742187 15.5640625,11.6742187 15.5640625,11.6742187 C15.5640625,11.6742187 12.9296875,14.2601562 12.9296875,14.2601562 C12.9296875,14.2601562 15.5640625,16.8945312 15.5640625,16.8945312 C15.6601562,16.990625 15.7078125,17.0859375 15.7078125,17.2296875 C15.7078125,17.2296875 15.7078125,17.2296875 15.7078125,17.2296875 C15.7078125,17.5648437 15.5164062,17.7085937 15.18125,17.7085937 C15.18125,17.7085937 15.18125,17.7085937 15.18125,17.7085937 C15.0375,17.7085937 14.9421875,17.6609375 14.8460937,17.5648437 C14.8460937,17.5648437 14.8460937,17.5648437 14.8460937,17.5648437 C14.8460937,17.5648437 12.2601563,14.9789062 12.2601563,14.9789062 C12.2601563,14.9789062 9.67421875,17.5648437 9.67421875,17.5648437 C9.578125,17.6609375 9.4828125,17.7085937 9.3390625,17.7085937 C9.3390625,17.7085937 9.3390625,17.7085937 9.3390625,17.7085937 C9.00390625,17.7085937 8.8125,17.5648437 8.8125,17.2296875 C8.8125,17.2296875 8.8125,17.2296875 8.8125,17.2296875 C8.8125,17.0859375 8.86015625,16.990625 8.95625,16.8945312 C8.95625,16.8945312 8.95625,16.8945312 8.95625,16.8945312 C8.95625,16.8945312 11.590625,14.2601562 11.590625,14.2601562 C11.590625,14.2601562 8.95625,11.6742187 8.95625,11.6742187 C8.86015625,11.578125 8.8125,11.4828125 8.8125,11.3390625 C8.8125,11.3390625 8.8125,11.3390625 8.8125,11.3390625 C8.8125,11.0039062 8.95625,10.8601562 9.29140625,10.8601562 C9.29140625,10.8601562 9.29140625,10.8601562 9.29140625,10.8601562 C9.43515625,10.8601562 9.57890625,10.9078125 9.67421875,11.0039062 L9.67421875,11.0039062 Z M24.5210937,5.92734375 C24.5210937,5.92734375 24.5210937,5.92734375 24.5210937,5.92734375 C24.5210937,5.92734375 24.5210937,22.6421875 24.5210937,22.6421875 C24.5210937,22.88125 24.425,23.1210938 24.2335937,23.3125 C24.0421875,23.5039063 23.8023437,23.6 23.5632812,23.6 C23.5632812,23.6 23.5632812,23.6 23.5632812,23.6 C23.5632812,23.6 0.9578125,23.6 0.9578125,23.6 C0.71875,23.6 0.47890625,23.5039062 0.2875,23.3125 C0.09609375,23.1210938 0,22.88125 0,22.6421875 C0,22.6421875 0,22.6421875 0,22.6421875 C0,22.6421875 0,3.00625 0,3.00625 C0,2.7671875 0.09609375,2.52734375 0.2875,2.2875 C0.47890625,2.09609375 0.71875,2 0.9578125,2 C0.9578125,2 0.9578125,2 0.9578125,2 C0.9578125,2 9.09921875,2 9.09921875,2 C9.62578125,2 9.91328125,2.2390625 10.009375,2.6703125 C10.009375,2.6703125 10.009375,2.6703125 10.009375,2.6703125 C10.009375,2.6703125 10.7757812,4.96953125 10.7757812,4.96953125 C10.7757812,4.96953125 23.5632812,4.96953125 23.5632812,4.96953125 C23.8023437,4.96953125 24.0421875,5.065625 24.2335937,5.25703125 C24.425,5.4484375 24.5210937,5.68828125 24.5210937,5.92734375 L24.5210937,5.92734375 Z M23.5632813,22.6421875 C23.5632813,22.6421875 23.5632813,5.92734375 23.5632813,5.92734375 C23.5632813,5.92734375 10.1054688,5.92734375 10.1054688,5.92734375 C10.1054688,5.92734375 9.1,3.00625 9.1,3.00625 C9.1,3.00625 0.95859375,3.00625 0.95859375,3.00625 C0.95859375,3.00625 0.95859375,22.6421875 0.95859375,22.6421875 C0.95859375,22.6421875 23.5640625,22.6421875 23.5640625,22.6421875 L23.5632813,22.6421875 Z"/>
  <title>Folder Close</title>
</svg>