<svg xmlns="http://www.w3.org/2000/svg" viewBox="0 0 25 25" id="folder-nested-solid">
  <path d="M9.8546875,10.7773438 C9.8546875,10.7773438 9.8546875,10.7773438 9.8546875,10.7773438 C9.8546875,10.7773438 9.8546875,6.85 9.8546875,6.85 C9.8546875,6.85 2.9578125,6.85 2.9578125,6.85 C2.9578125,6.85 2.9578125,18.63125 2.9578125,18.63125 C2.9578125,18.63125 9.8546875,18.63125 9.8546875,18.63125 C9.8546875,18.63125 9.8546875,14.7039063 9.8546875,14.7039063 C9.8546875,14.4648438 9.95078125,14.225 10.1421875,14.0335938 C10.3335937,13.8421875 10.5734375,13.7460938 10.8125,13.7460938 C10.8125,13.7460938 10.8125,13.7460938 10.8125,13.7460938 C10.8125,13.7460938 15.1226562,13.7460938 15.1226562,13.7460938 C15.5539062,13.7460938 15.8414062,13.9375 15.984375,14.2726563 C15.984375,14.2726563 15.984375,14.2726563 15.984375,14.2726563 C15.984375,14.2726563 16.703125,15.709375 16.703125,15.709375 C16.703125,15.709375 21.6359375,15.709375 21.6359375,15.709375 C21.875,15.709375 22.1148437,15.8054688 22.30625,15.996875 C22.4976562,16.1882812 22.59375,16.428125 22.59375,16.6671875 C22.59375,16.6671875 22.59375,16.6671875 22.59375,16.6671875 C22.59375,16.6671875 22.59375,23.515625 22.59375,23.515625 C22.59375,23.803125 22.4976562,24.0421875 22.30625,24.234375 C22.1148437,24.4265625 21.875,24.521875 21.6359375,24.521875 C21.6359375,24.521875 21.6359375,24.521875 21.6359375,24.521875 C21.6359375,24.521875 10.8125,24.521875 10.8125,24.521875 C10.5734375,24.521875 10.3335937,24.4257812 10.1421875,24.234375 C9.95078125,24.0429688 9.8546875,23.803125 9.8546875,23.515625 C9.8546875,23.515625 9.8546875,23.515625 9.8546875,23.515625 C9.8546875,23.515625 9.8546875,19.6359375 9.8546875,19.6359375 C9.8546875,19.6359375 2.9578125,19.6359375 2.9578125,19.6359375 C2.71875,19.6359375 2.47890625,19.5398437 2.2875,19.3007812 C2.09609375,19.109375 2,18.8695313 2,18.6304688 C2,18.6304688 2,18.6304688 2,18.6304688 C2,18.6304688 2,0.47890625 2,0.47890625 C2,0.14375 2.14375,0 2.47890625,0 C2.8140625,0 2.9578125,0.14375 2.9578125,0.47890625 C2.9578125,0.47890625 2.9578125,0.47890625 2.9578125,0.47890625 C2.9578125,0.47890625 2.9578125,5.890625 2.9578125,5.890625 C2.9578125,5.890625 9.8546875,5.890625 9.8546875,5.890625 C9.8546875,5.890625 9.8546875,1.96328125 9.8546875,1.96328125 C9.8546875,1.72421875 9.95078125,1.484375 10.1421875,1.24453125 C10.3335937,1.053125 10.5734375,0.95703125 10.8125,0.95703125 C10.8125,0.95703125 10.8125,0.95703125 10.8125,0.95703125 C10.8125,0.95703125 15.1226563,0.95703125 15.1226563,0.95703125 C15.5539062,0.95703125 15.8414062,1.1484375 15.984375,1.53203125 C15.984375,1.53203125 15.984375,1.53203125 15.984375,1.53203125 C15.984375,1.53203125 16.703125,2.92109375 16.703125,2.92109375 C16.703125,2.92109375 21.6359375,2.92109375 21.6359375,2.92109375 C21.875,2.92109375 22.1148437,3.0171875 22.30625,3.20859375 C22.4976563,3.44765625 22.59375,3.6875 22.59375,3.92734375 C22.59375,3.92734375 22.59375,3.92734375 22.59375,3.92734375 C22.59375,3.92734375 22.59375,10.7757812 22.59375,10.7757812 C22.59375,11.0632812 22.4976562,11.3023438 22.30625,11.4945312 C22.1148438,11.6867187 21.875,11.7820312 21.6359375,11.7820312 C21.6359375,11.7820312 21.6359375,11.7820312 21.6359375,11.7820312 C21.6359375,11.7820312 10.8125,11.7820312 10.8125,11.7820312 C10.5734375,11.7820312 10.3335938,11.6859375 10.1421875,11.4945312 C9.95078125,11.303125 9.8546875,11.0632812 9.8546875,10.7757812 L9.8546875,10.7773438 Z"/>
  <title>Folder Nested Solid</title>
</svg>