<svg xmlns="http://www.w3.org/2000/svg" viewBox="0 0 25 25" id="folder-dollar-solid">
  <path d="M24.5210937,5.92734375 C24.5210937,5.92734375 24.5210937,5.92734375 24.5210937,5.92734375 C24.5210937,5.92734375 24.5210937,22.6421875 24.5210937,22.6421875 C24.5210937,22.88125 24.425,23.1210938 24.2335937,23.3125 C24.0421875,23.5039063 23.8023437,23.6 23.5632812,23.6 C23.5632812,23.6 23.5632812,23.6 23.5632812,23.6 C23.5632812,23.6 0.9578125,23.6 0.9578125,23.6 C0.71875,23.6 0.47890625,23.5039062 0.2875,23.3125 C0.09609375,23.1210938 0,22.88125 0,22.6421875 C0,22.6421875 0,22.6421875 0,22.6421875 C0,22.6421875 0,3.00625 0,3.00625 C0,2.7671875 0.09609375,2.52734375 0.2875,2.2875 C0.47890625,2.09609375 0.71875,2 0.9578125,2 C0.9578125,2 0.9578125,2 0.9578125,2 C0.9578125,2 9.09921875,2 9.09921875,2 C9.62578125,2 9.91328125,2.2390625 10.009375,2.6703125 C10.009375,2.6703125 10.009375,2.6703125 10.009375,2.6703125 C10.009375,2.6703125 10.7757812,4.96953125 10.7757812,4.96953125 C10.7757812,4.96953125 23.5632812,4.96953125 23.5632812,4.96953125 C23.8023437,4.96953125 24.0421875,5.065625 24.2335937,5.25703125 C24.425,5.4484375 24.5210937,5.68828125 24.5210937,5.92734375 L24.5210937,5.92734375 Z M12.5094188,14.753125 C12.5094188,14.753125 12.5094188,14.753125 12.5094188,14.753125 C12.5094188,14.753125 12.5094188,18.296875 12.5094188,18.296875 C12.5094188,18.296875 12.4617625,18.296875 12.4617625,18.296875 C11.8391063,18.296875 11.2641063,18.153125 10.7852,17.865625 C10.7852,17.865625 10.7852,17.865625 10.7852,17.865625 C10.4500438,17.721875 10.2586375,17.7695312 10.1148875,18.0570312 C10.1148875,18.0570312 10.1148875,18.0570312 10.1148875,18.0570312 C9.92348125,18.2960937 9.9711375,18.5359375 10.2586375,18.7273437 C10.2586375,18.7273437 10.2586375,18.7273437 10.2586375,18.7273437 C10.8812938,19.1101562 11.5992625,19.3023437 12.4617625,19.3023437 C12.4617625,19.3023437 12.4617625,19.3023437 12.4617625,19.3023437 C12.4617625,19.3023437 12.5094188,19.3023437 12.5094188,19.3023437 C12.5094188,19.3023437 12.5094188,20.2601562 12.5094188,20.2601562 C12.5094188,20.5953125 12.6531688,20.7867187 12.988325,20.7867187 C13.3234813,20.7867187 13.4672313,20.5953125 13.4672313,20.2601562 C13.4672313,20.2601562 13.4672313,20.2601562 13.4672313,20.2601562 C13.4672313,20.2601562 13.4672313,19.1585937 13.4672313,19.1585937 C14.1859813,19.0148437 14.7602,18.7273437 15.2391063,18.2484375 C15.2391063,18.2484375 15.2391063,18.2484375 15.2391063,18.2484375 C15.6703563,17.721875 15.9094188,17.1945312 15.9094188,16.6203125 C15.9094188,16.6203125 15.9094188,16.6203125 15.9094188,16.6203125 C15.9094188,16.09375 15.7656688,15.6625 15.5266063,15.23125 C15.5266063,15.23125 15.5266063,15.23125 15.5266063,15.23125 C15.2875438,14.8960937 15.0000438,14.6085937 14.6648875,14.4648437 C14.6648875,14.4648437 14.6648875,14.4648437 14.6648875,14.4648437 C14.282075,14.3210937 13.8984813,14.1773437 13.4672313,14.0335937 C13.4672313,14.0335937 13.4672313,14.0335937 13.4672313,14.0335937 C13.4672313,14.0335937 13.4672313,10.4898437 13.4672313,10.4898437 C13.4672313,10.4898437 13.5148875,10.4898437 13.5148875,10.4898437 C14.1375438,10.4898437 14.7125438,10.6335937 15.19145,10.9210937 C15.19145,10.9210937 15.19145,10.9210937 15.19145,10.9210937 C15.5266063,11.0648437 15.7180125,11.0171875 15.8617625,10.7296875 C15.8617625,10.7296875 15.8617625,10.7296875 15.8617625,10.7296875 C16.0531688,10.490625 16.0055125,10.2507812 15.7180125,10.059375 C15.7180125,10.059375 15.7180125,10.059375 15.7180125,10.059375 C15.0953563,9.6765625 14.3773875,9.484375 13.5148875,9.484375 C13.5148875,9.484375 13.5148875,9.484375 13.5148875,9.484375 C13.5148875,9.484375 13.4672313,9.484375 13.4672313,9.484375 C13.4672313,9.484375 13.4672313,8.5265625 13.4672313,8.5265625 C13.4672313,8.19140625 13.3234813,8 12.988325,8 C12.6531688,8 12.5094188,8.19140625 12.5094188,8.5265625 C12.5094188,8.5265625 12.5094188,8.5265625 12.5094188,8.5265625 C12.5094188,8.5265625 12.5094188,9.628125 12.5094188,9.628125 C11.7906688,9.771875 11.1687938,10.1070312 10.7375438,10.5859375 C10.7375438,10.5859375 10.7375438,10.5859375 10.7375438,10.5859375 C10.3062938,11.0171875 10.0672313,11.54375 10.0672313,12.1664062 C10.0672313,12.1664062 10.0672313,12.1664062 10.0672313,12.1664062 C10.0672313,12.6929687 10.2109813,13.171875 10.4984813,13.5554687 C10.4984813,13.5554687 10.4984813,13.5554687 10.4984813,13.5554687 C10.7375438,13.9867187 11.0250438,14.2257812 11.3602,14.3695312 C11.3602,14.3695312 11.3602,14.3695312 11.3602,14.3695312 C11.50395,14.4171875 11.8867625,14.5609375 12.5094188,14.7523437 L12.5094188,14.753125 Z M12.484375,10.5 C12.484375,10.5 12.484375,10.5 12.484375,10.5 C12.484375,10.5 12.484375,13.6132813 12.484375,13.6132813 C11.4789063,13.3257813 11,12.7992188 11,12.0328125 C11,12.0328125 11,12.0328125 11,12.0328125 C11,11.3140625 11.4789062,10.8351563 12.484375,10.5 L12.484375,10.5 Z M13.5,18.1132812 C13.5,18.1132812 13.5,15 13.5,15 C14.5054688,15.2875 14.984375,15.8140625 14.984375,16.5804688 C14.984375,16.5804688 14.984375,16.5804688 14.984375,16.5804688 C14.984375,17.2992188 14.5054688,17.778125 13.5,18.1132812 C13.5,18.1132812 13.5,18.1132812 13.5,18.1132812 Z"/>
  <title>Folder Dollar Solid</title>
</svg>