<svg xmlns="http://www.w3.org/2000/svg" viewBox="0 0 25 25" id="folder-closed-solid">
  <path d="M0,21.6359375 C0,21.6359375 0,9.8546875 0,9.8546875 C0,9.8546875 24.5210937,9.8546875 24.5210937,9.8546875 C24.5210937,9.8546875 24.5210937,21.6359375 24.5210937,21.6359375 C24.5210937,21.875 24.425,22.1148438 24.2335937,22.30625 C24.0421875,22.5453125 23.8023437,22.6414062 23.5632812,22.6414062 C23.5632812,22.6414062 23.5632812,22.6414062 23.5632812,22.6414062 C23.5632812,22.6414062 0.9578125,22.6414062 0.9578125,22.6414062 C0.71875,22.6414062 0.47890625,22.5453125 0.2875,22.30625 C0.09609375,22.1148438 0,21.875 0,21.6359375 C0,21.6359375 0,21.6359375 0,21.6359375 Z M23.5632813,4.96953125 C23.5632813,4.96953125 23.5632813,4.96953125 23.5632813,4.96953125 C23.5632813,4.96953125 10.7757813,4.96953125 10.7757813,4.96953125 C10.7757813,4.96953125 10.009375,2.6703125 10.009375,2.6703125 C9.91328125,2.2390625 9.6265625,2 9.09921875,2 C9.09921875,2 9.09921875,2 9.09921875,2 C9.09921875,2 0.9578125,2 0.9578125,2 C0.71875,2 0.47890625,2.09609375 0.2875,2.2875 C0.09609375,2.52734375 3.55271368e-15,2.76640625 3.55271368e-15,3.00625 C3.55271368e-15,3.00625 3.55271368e-15,3.00625 3.55271368e-15,3.00625 C3.55271368e-15,3.00625 3.55271368e-15,8.896875 3.55271368e-15,8.896875 C3.55271368e-15,8.896875 24.5210938,8.896875 24.5210938,8.896875 C24.5210938,8.896875 24.5210938,5.92734375 24.5210938,5.92734375 C24.5210938,5.68828125 24.425,5.4484375 24.2335938,5.25703125 C24.0421875,5.065625 23.8023438,4.96953125 23.5632813,4.96953125 Z"/>
  <title>Folder Closed Solid</title>
</svg>