<svg xmlns="http://www.w3.org/2000/svg" viewBox="0 0 25 25" id="folder-close-solid">
  <path d="M23.5632812,4.96953125 C23.5632812,4.96953125 23.5632812,4.96953125 23.5632812,4.96953125 C23.5632812,4.96953125 10.7757812,4.96953125 10.7757812,4.96953125 C10.7757812,4.96953125 10.009375,2.6703125 10.009375,2.6703125 C9.91328125,2.2390625 9.6265625,2 9.09921875,2 C9.09921875,2 9.09921875,2 9.09921875,2 C9.09921875,2 0.9578125,2 0.9578125,2 C0.71875,2 0.47890625,2.09609375 0.2875,2.2875 C0.09609375,2.52734375 0,2.76640625 0,3.00625 C0,3.00625 0,3.00625 0,3.00625 C0,3.00625 0,22.6421875 0,22.6421875 C0,22.88125 0.09609375,23.1210938 0.2875,23.3125 C0.47890625,23.5039063 0.71875,23.6 0.9578125,23.6 C0.9578125,23.6 0.9578125,23.6 0.9578125,23.6 C0.9578125,23.6 23.5632812,23.6 23.5632812,23.6 C23.8023438,23.6 24.0421875,23.5039062 24.2335937,23.3125 C24.425,23.1210938 24.5210937,22.88125 24.5210937,22.6421875 C24.5210937,22.6421875 24.5210937,22.6421875 24.5210937,22.6421875 C24.5210937,22.6421875 24.5210937,5.92734375 24.5210937,5.92734375 C24.5210937,5.68828125 24.425,5.4484375 24.2335937,5.25703125 C24.0421875,5.065625 23.8023437,4.96953125 23.5632812,4.96953125 Z M12.93125,14.2609375 C12.93125,14.2609375 15.565625,16.8953125 15.565625,16.8953125 C15.6617187,16.9914063 15.709375,17.0867187 15.709375,17.2304687 C15.709375,17.2304687 15.709375,17.2304687 15.709375,17.2304687 C15.709375,17.565625 15.5179687,17.709375 15.1828125,17.709375 C15.1828125,17.709375 15.1828125,17.709375 15.1828125,17.709375 C15.0390625,17.709375 14.94375,17.6617187 14.8476562,17.565625 C14.8476562,17.565625 14.8476562,17.565625 14.8476562,17.565625 C14.8476562,17.565625 12.2617188,14.9796875 12.2617188,14.9796875 C12.2617188,14.9796875 9.67578125,17.565625 9.67578125,17.565625 C9.5796875,17.6617187 9.484375,17.709375 9.340625,17.709375 C9.340625,17.709375 9.340625,17.709375 9.340625,17.709375 C9.00546875,17.709375 8.8140625,17.565625 8.8140625,17.2304687 C8.8140625,17.2304687 8.8140625,17.2304687 8.8140625,17.2304687 C8.8140625,17.0867187 8.86171875,16.9914062 8.9578125,16.8953125 C8.9578125,16.8953125 8.9578125,16.8953125 8.9578125,16.8953125 C8.9578125,16.8953125 11.5921875,14.2609375 11.5921875,14.2609375 C11.5921875,14.2609375 8.9578125,11.675 8.9578125,11.675 C8.86171875,11.5789062 8.8140625,11.4835937 8.8140625,11.3398437 C8.8140625,11.3398437 8.8140625,11.3398437 8.8140625,11.3398437 C8.8140625,11.0046875 8.9578125,10.8609375 9.29296875,10.8609375 C9.29296875,10.8609375 9.29296875,10.8609375 9.29296875,10.8609375 C9.43671875,10.8609375 9.58046875,10.9085937 9.67578125,11.0046875 C9.67578125,11.0046875 9.67578125,11.0046875 9.67578125,11.0046875 C9.67578125,11.0046875 12.2617187,13.590625 12.2617187,13.590625 C12.2617187,13.590625 14.8476562,11.0046875 14.8476562,11.0046875 C14.94375,10.9085937 15.0390625,10.8609375 15.1828125,10.8609375 C15.1828125,10.8609375 15.1828125,10.8609375 15.1828125,10.8609375 C15.5179687,10.8609375 15.709375,11.0046875 15.709375,11.3398437 C15.709375,11.3398437 15.709375,11.3398437 15.709375,11.3398437 C15.709375,11.3875 15.6617187,11.4835937 15.565625,11.675 C15.565625,11.675 15.565625,11.675 15.565625,11.675 C15.565625,11.675 12.93125,14.2609375 12.93125,14.2609375 L12.93125,14.2609375 Z"/>
  <title>Folder Close Solid</title>
</svg>