<svg xmlns="http://www.w3.org/2000/svg" viewBox="0 0 25 25" id="forward-solid">
  <path d="M24.2335937,11.1960937 C24.2335937,11.1960937 24.2335937,11.1960937 24.2335937,11.1960937 C24.2335937,11.1960937 16.5226562,18.5234375 16.5226562,18.5234375 C16.4265625,18.6195312 16.33125,18.6671875 16.1875,18.6671875 C16.1875,18.6671875 16.1875,18.6671875 16.1875,18.6671875 C15.8523438,18.6671875 15.7085937,18.5234375 15.7085937,18.1882812 C15.7085937,18.1882812 15.7085937,18.1882812 15.7085937,18.1882812 C15.7085937,18.1882812 15.7085937,13.7820312 15.7085937,13.7820312 C13.2664062,13.7820312 10.6320312,14.5484375 7.75859375,16.1289062 C4.88515625,17.709375 2.5859375,19.76875 0.91015625,22.3546875 C0.91015625,22.3546875 0.91015625,22.3546875 0.91015625,22.3546875 C0.8140625,22.4984375 0.67109375,22.59375 0.47890625,22.59375 C0.47890625,22.59375 0.47890625,22.59375 0.47890625,22.59375 C0.14375,22.59375 0,22.45 0,22.1148437 C0,22.1148437 0,22.1148437 0,22.1148437 C0,22.1148437 0,22.0671875 0,22.0671875 C0.2390625,17.5171875 1.915625,13.8296875 4.9328125,11.0515625 C7.95,8.2734375 11.5421875,6.88515625 15.7085937,6.88515625 C15.7085937,6.88515625 15.7085937,6.88515625 15.7085937,6.88515625 C15.7085937,6.88515625 15.7085937,2.47890625 15.7085937,2.47890625 C15.7085937,2.14375 15.8523438,2 16.1875,2 C16.1875,2 16.1875,2 16.1875,2 C16.33125,2 16.4265625,2.04765625 16.5226562,2.14375 C16.5226562,2.14375 16.5226562,2.14375 16.5226562,2.14375 C16.5226562,2.14375 24.2335937,9.8546875 24.2335937,9.8546875 C24.425,9.9984375 24.5210937,10.2375 24.5210937,10.525 C24.5210937,10.8125 24.425,11.0515625 24.2335937,11.1953125 L24.2335937,11.1960937 Z"/>
  <title>Forward Solid</title>
</svg>