<svg xmlns="http://www.w3.org/2000/svg" viewBox="0 0 25 25" id="forward-all-solid">
  <path d="M24.0890625,12.5789062 C24.0890625,12.5789062 24.0890625,12.5789062 24.0890625,12.5789062 C24.0890625,12.5789062 16.521875,19.5710937 16.521875,19.5710937 C16.4257812,19.6671875 16.3304687,19.7148438 16.1867188,19.7148438 C16.1867188,19.7148438 16.1867188,19.7148438 16.1867188,19.7148438 C15.8515625,19.7148438 15.7078125,19.5234375 15.7078125,19.1882813 C15.7078125,19.1882813 15.7078125,19.1882813 15.7078125,19.1882813 C15.7078125,19.0445312 15.7554687,18.9492188 15.8515625,18.853125 C15.8515625,18.853125 15.8515625,18.853125 15.8515625,18.853125 C15.8515625,18.853125 23.41875,11.8609375 23.41875,11.8609375 C23.5148438,11.8132813 23.5625,11.7171875 23.5625,11.5734375 C23.5625,11.5734375 23.5625,11.5734375 23.5625,11.5734375 C23.5625,11.5257812 23.5148438,11.3820313 23.41875,11.190625 C23.41875,11.190625 23.41875,11.190625 23.41875,11.190625 C23.41875,11.190625 15.8515625,3.86328125 15.8515625,3.86328125 C15.7554687,3.7671875 15.7078125,3.671875 15.7078125,3.528125 C15.7078125,3.528125 15.7078125,3.528125 15.7078125,3.528125 C15.7078125,3.19296875 15.8515625,3.0015625 16.1867188,3.0015625 C16.1867188,3.0015625 16.1867188,3.0015625 16.1867188,3.0015625 C16.234375,3.0015625 16.3304688,3.04921875 16.521875,3.1453125 C16.521875,3.1453125 16.521875,3.1453125 16.521875,3.1453125 C16.521875,3.1453125 24.0890625,10.5210938 24.0890625,10.5210938 C24.3765625,10.7601562 24.5203125,11.0960938 24.5203125,11.575 C24.5203125,11.575 24.5203125,11.575 24.5203125,11.575 C24.5203125,11.9578125 24.3765625,12.29375 24.0890625,12.5804688 L24.0890625,12.5789062 Z M21.3117187,10.8546875 C21.3117187,10.8546875 21.3117187,10.8546875 21.3117187,10.8546875 C21.3117187,10.8546875 13.6007812,3.14375 13.6007812,3.14375 C13.5046875,3.04765625 13.3617187,3 13.2179687,3 C13.2179687,3 13.2179687,3 13.2179687,3 C12.8828125,3 12.7390625,3.19140625 12.7390625,3.5265625 C12.7390625,3.5265625 12.7390625,3.5265625 12.7390625,3.5265625 C12.7390625,3.5265625 12.7390625,7.9328125 12.7390625,7.9328125 C4.740625,7.9328125 0.478125,12.3390625 0,21.1515625 C0,21.1515625 0,21.1515625 0,21.1515625 C0,21.4867188 0.14375,21.678125 0.47890625,21.678125 C0.47890625,21.678125 0.47890625,21.678125 0.47890625,21.678125 C0.6703125,21.678125 0.8140625,21.5820312 0.91015625,21.4390625 C0.91015625,21.4390625 0.91015625,21.4390625 0.91015625,21.4390625 C2.58671875,18.9007813 4.35859375,17.1289062 6.2265625,16.1710937 C8.09453125,15.2609375 10.2492187,14.7820312 12.7398437,14.7820312 C12.7398437,14.7820312 12.7398437,14.7820312 12.7398437,14.7820312 C12.7398437,14.7820312 12.7398437,19.1882812 12.7398437,19.1882812 C12.7398437,19.5234375 12.8835937,19.7148438 13.21875,19.7148438 C13.21875,19.7148438 13.21875,19.7148438 13.21875,19.7148438 C13.2664062,19.7148438 13.4101562,19.6671875 13.6015625,19.5710937 C13.6015625,19.5710937 13.6015625,19.5710937 13.6015625,19.5710937 C13.6015625,19.5710937 21.3125,12.24375 21.3125,12.24375 C21.5039062,12.0046875 21.6,11.7648437 21.6,11.5734375 C21.6,11.5734375 21.6,11.5734375 21.6,11.5734375 C21.6,11.334375 21.5039062,11.0945312 21.3125,10.8546875 L21.3117187,10.8546875 Z"/>
  <title>Forward All Solid</title>
</svg>