<svg xmlns="http://www.w3.org/2000/svg" viewBox="0 0 25 25" id="forward">
  <path d="M24.2335937,9.8546875 C24.2335937,9.8546875 24.2335937,9.8546875 24.2335937,9.8546875 C24.2335937,9.8546875 16.5226562,2.14375 16.5226562,2.14375 C16.33125,2.04765625 16.2351562,2 16.1875,2 C16.1875,2 16.1875,2 16.1875,2 C15.8523438,2 15.7085937,2.19140625 15.7085937,2.5265625 C15.7085937,2.5265625 15.7085937,2.5265625 15.7085937,2.5265625 C15.7085937,2.5265625 15.7085937,6.9328125 15.7085937,6.9328125 C11.5421875,6.9328125 7.95,8.321875 4.9328125,11.0992188 C1.915625,13.8765625 0.2390625,17.5648437 0,22.1148437 C0,22.1148437 0,22.1148437 0,22.1148437 C0,22.45 0.14375,22.6414062 0.47890625,22.6414062 C0.47890625,22.6414062 0.47890625,22.6414062 0.47890625,22.6414062 C0.47890625,22.6414062 0.47890625,22.6414062 0.47890625,22.6414062 C0.6703125,22.6414062 0.8140625,22.5453125 0.91015625,22.4023437 C0.91015625,22.4023437 0.91015625,22.4023437 0.91015625,22.4023437 C2.58671875,19.8164062 4.88515625,17.7085937 7.80703125,16.128125 C10.6804687,14.5476563 13.3148437,13.78125 15.709375,13.78125 C15.709375,13.78125 15.709375,13.78125 15.709375,13.78125 C15.709375,13.78125 15.709375,18.1875 15.709375,18.1875 C15.709375,18.5226562 15.853125,18.7140625 16.1882812,18.7140625 C16.1882812,18.7140625 16.1882812,18.7140625 16.1882812,18.7140625 C16.3320313,18.7140625 16.4273437,18.6664062 16.5234375,18.5703125 C16.5234375,18.5703125 16.5234375,18.5703125 16.5234375,18.5703125 C16.5234375,18.5703125 24.234375,11.2429687 24.234375,11.2429687 C24.4257812,11.0515625 24.521875,10.8117187 24.521875,10.5726562 C24.521875,10.5726562 24.521875,10.5726562 24.521875,10.5726562 C24.521875,10.2851562 24.4257813,10.0460937 24.234375,9.85390625 L24.2335937,9.8546875 Z M23.5632813,10.525 C23.5632813,10.525 16.6664063,17.0859375 16.6664063,17.0859375 C16.6664063,17.0859375 16.6664063,12.8234375 16.6664063,12.8234375 C16.6664063,12.8234375 15.7085938,12.8234375 15.7085938,12.8234375 C13.4578125,12.8234375 10.9195313,13.49375 8.1890625,14.8351562 C5.4109375,16.2242187 3.06484375,18.04375 1.196875,20.390625 C1.196875,20.390625 1.196875,20.390625 1.196875,20.390625 C1.7234375,16.7984375 3.30390625,13.8296875 6.034375,11.434375 C8.7640625,9.0875 11.925,7.890625 15.5171875,7.890625 C15.5171875,7.890625 15.5171875,7.890625 15.5171875,7.890625 C15.5171875,7.890625 15.7085938,7.890625 15.7085938,7.890625 C15.7085938,7.890625 16.6664063,7.890625 16.6664063,7.890625 C16.6664063,7.890625 16.6664063,3.67578125 16.6664063,3.67578125 C16.6664063,3.67578125 23.5632813,10.5242187 23.5632813,10.5242187 L23.5632813,10.525 Z"/>
  <title>Forward</title>
</svg>