<svg xmlns="http://www.w3.org/2000/svg" viewBox="0 0 25 25" id="forward-all">
  <path d="M24.0898438,12.5789062 C24.0898438,12.5789062 24.0898438,12.5789062 24.0898438,12.5789062 C24.0898438,12.5789062 16.5226562,19.5710938 16.5226562,19.5710938 C16.4265625,19.6671875 16.33125,19.7148438 16.1875,19.7148438 C16.1875,19.7148438 16.1875,19.7148438 16.1875,19.7148438 C15.8523437,19.7148438 15.7085937,19.5234375 15.7085937,19.1882813 C15.7085937,19.1882813 15.7085937,19.1882813 15.7085937,19.1882813 C15.7085937,19.0445312 15.75625,18.9492188 15.8523437,18.853125 C15.8523437,18.853125 15.8523437,18.853125 15.8523437,18.853125 C15.8523437,18.853125 23.4195312,11.8609375 23.4195312,11.8609375 C23.515625,11.8132813 23.5632813,11.7171875 23.5632813,11.5734375 C23.5632813,11.4296875 23.515625,11.2859375 23.4195312,11.190625 C23.4195312,11.190625 23.4195312,11.190625 23.4195312,11.190625 C23.4195312,11.190625 15.8523437,3.86328125 15.8523437,3.86328125 C15.75625,3.7671875 15.7085937,3.671875 15.7085937,3.528125 C15.7085937,3.528125 15.7085937,3.528125 15.7085937,3.528125 C15.7085937,3.19296875 15.8523437,3.0015625 16.1875,3.0015625 C16.1875,3.0015625 16.1875,3.0015625 16.1875,3.0015625 C16.2351562,3.0015625 16.33125,3.04921875 16.5226562,3.1453125 C16.5226562,3.1453125 16.5226562,3.1453125 16.5226562,3.1453125 C16.5226562,3.1453125 24.0898438,10.5210938 24.0898438,10.5210938 C24.3773438,10.7601563 24.5210937,11.0960938 24.5210937,11.575 C24.5210937,11.575 24.5210937,11.575 24.5210937,11.575 C24.5210937,11.9578125 24.3773438,12.29375 24.0898438,12.5804688 L24.0898438,12.5789062 Z M21.3125,12.24375 C21.3125,12.24375 21.3125,12.24375 21.3125,12.24375 C21.3125,12.24375 13.6015625,19.5710938 13.6015625,19.5710938 C13.4101562,19.6671875 13.3140625,19.7148438 13.2664063,19.7148438 C13.2664063,19.7148438 13.2664063,19.7148438 13.2664063,19.7148438 C13.2664063,19.7148438 13.21875,19.7148438 13.21875,19.7148438 C12.8835938,19.7148438 12.7398438,19.5234375 12.7398438,19.1882813 C12.7398438,19.1882813 12.7398438,19.1882813 12.7398438,19.1882813 C12.7398438,19.1882813 12.7398438,14.7820313 12.7398438,14.7820313 C10.2492188,14.7820313 8.09453125,15.2609375 6.2265625,16.1710938 C4.35859375,17.1289062 2.58671875,18.9007813 0.91015625,21.4390625 C0.91015625,21.4390625 0.91015625,21.4390625 0.91015625,21.4390625 C0.8140625,21.5828125 0.67109375,21.678125 0.47890625,21.678125 C0.47890625,21.678125 0.47890625,21.678125 0.47890625,21.678125 C0.47890625,21.678125 0.47890625,21.678125 0.47890625,21.678125 C0.14375,21.678125 0,21.4867188 0,21.1515625 C0,21.1515625 0,21.1515625 0,21.1515625 C0.47890625,12.3390625 4.74140625,7.9328125 12.7390625,7.9328125 C12.7390625,7.9328125 12.7390625,7.9328125 12.7390625,7.9328125 C12.7390625,7.9328125 12.7390625,3.5265625 12.7390625,3.5265625 C12.7390625,3.19140625 12.8828125,3 13.2179688,3 C13.2179688,3 13.2179688,3 13.2179688,3 C13.2179688,3 13.265625,3 13.265625,3 C13.409375,3 13.5046875,3.04765625 13.6007813,3.14375 C13.6007813,3.14375 13.6007813,3.14375 13.6007813,3.14375 C13.6007813,3.14375 21.3117187,10.8546875 21.3117187,10.8546875 C21.503125,11.09375 21.5992187,11.3335937 21.5992187,11.5734375 C21.5992187,11.5734375 21.5992187,11.5734375 21.5992187,11.5734375 C21.5992187,11.7648437 21.503125,12.0046875 21.3117187,12.24375 L21.3125,12.24375 Z M13.7453125,18.0390625 C13.7453125,18.0390625 20.6421875,11.5257813 20.6421875,11.5257813 C20.6421875,11.5257813 13.7453125,4.67734375 13.7453125,4.67734375 C13.7453125,4.67734375 13.7453125,8.8921875 13.7453125,8.8921875 C13.7453125,8.8921875 12.7398437,8.8921875 12.7398437,8.8921875 C5.89140625,8.8921875 2.059375,12.3882813 1.15,19.4289063 C1.15,19.4289063 1.15,19.4289063 1.15,19.4289063 C2.3953125,17.6570312 3.97578125,16.2679688 5.84375,15.2625 C7.71171875,14.2570313 9.77109375,13.778125 11.9742187,13.778125 C11.9742187,13.778125 11.9742187,13.778125 11.9742187,13.778125 C12.309375,13.778125 12.596875,13.778125 12.7882812,13.8257813 C12.7882812,13.8257813 12.7882812,13.8257813 12.7882812,13.8257813 C12.7882812,13.8257813 13.7460937,13.8257813 13.7460937,13.8257813 C13.7460937,13.8257813 13.7460937,18.040625 13.7460937,18.040625 L13.7453125,18.0390625 Z"/>
  <title>Forward All</title>
</svg>