<svg xmlns="http://www.w3.org/2000/svg" viewBox="0 0 25 25" id="freeze-column">
  <path d="m8 16.5c.24545989 0 .44960837.1768752.49194433.4101244l.00805567.0898756v5c0 .2454599-.17687516.4496084-.41012437.4919443l-.08987563.0080557h-5c-.24545989 0-.44960837-.1768752-.49194433-.4101244l-.00805567-.0898756v-5c0-.2454599.17687516-.4496084.41012437-.4919443l.08987563-.0080557zm7 0c.2454599 0 .4496084.1768752.4919443.4101244l.0080557.0898756v5c0 .2454599-.1768752.4496084-.4101244.4919443l-.0898756.0080557h-5c-.24545989 0-.44960837-.1768752-.49194433-.4101244l-.00805567-.0898756v-5c0-.2454599.17687516-.4496084.41012437-.4919443l.08987563-.0080557zm-7-7c.24545989 0 .44960837.17687516.49194433.41012437l.00805567.08987563v5c0 .2454599-.17687516.4496084-.41012437.4919443l-.08987563.0080557h-5c-.24545989 0-.44960837-.1768752-.49194433-.4101244l-.00805567-.0898756v-5c0-.24545989.17687516-.44960837.41012437-.49194433l.08987563-.00805567zm7 0c.2454599 0 .4496084.17687516.4919443.41012437l.0080557.08987563v5c0 .2454599-.1768752.4496084-.4101244.4919443l-.0898756.0080557h-5c-.24545989 0-.44960837-.1768752-.49194433-.4101244l-.00805567-.0898756v-5c0-.24545989.17687516-.44960837.41012437-.49194433l.08987563-.00805567zm-7-7c.24545989 0 .44960837.17687516.49194433.41012437l.00805567.08987563v5c0 .24545989-.17687516.44960837-.41012437.49194433l-.08987563.00805567h-5c-.24545989 0-.44960837-.17687516-.49194433-.41012437l-.00805567-.08987563v-5c0-.24545989.17687516-.44960837.41012437-.49194433l.08987563-.00805567zm7 0c.2454599 0 .4496084.17687516.4919443.41012437l.0080557.08987563v5c0 .24545989-.1768752.44960837-.4101244.49194433l-.0898756.00805567h-5c-.24545989 0-.44960837-.17687516-.49194433-.41012437l-.00805567-.08987563v-5c0-.24545989.17687516-.44960837.41012437-.49194433l.08987563-.00805567z"/>
  <path d="m22 16.5c.2454599 0 .4496084.1768752.4919443.4101244l.0080557.0898756v5c0 .2454599-.1768752.4496084-.4101244.4919443l-.0898756.0080557h-5c-.2454599 0-.4496084-.1768752-.4919443-.4101244l-.0080557-.0898756v-5c0-.2454599.1768752-.4496084.4101244-.4919443l.0898756-.0080557zm-.5 1h-4v4h4zm.5-8c.2454599 0 .4496084.17687516.4919443.41012437l.0080557.08987563v5c0 .2454599-.1768752.4496084-.4101244.4919443l-.0898756.0080557h-5c-.2454599 0-.4496084-.1768752-.4919443-.4101244l-.0080557-.0898756v-5c0-.24545989.1768752-.44960837.4101244-.49194433l.0898756-.00805567zm-.5 1h-4v4h4zm.5-8c.2454599 0 .4496084.17687516.4919443.41012437l.0080557.08987563v5c0 .24545989-.1768752.44960837-.4101244.49194433l-.0898756.00805567h-5c-.2454599 0-.4496084-.17687516-.4919443-.41012437l-.0080557-.08987563v-5c0-.24545989.1768752-.44960837.4101244-.49194433l.0898756-.00805567zm-.5 1h-4v4h4z"/>
  <title>Freeze Column</title>
</svg>