<svg xmlns="http://www.w3.org/2000/svg" viewBox="0 0 25 25" id="function">
  <path d="M24.4257813,18.6304688 C24.4257813,18.6304688 23.7554688,19.3492188 23.7554688,19.3492188 C23.7554688,19.3492188 13.21875,8.8125 13.21875,8.8125 C13.21875,8.8125 13.9375,8.1421875 13.9375,8.1421875 C13.9375,8.1421875 24.4257813,18.6304688 24.4257813,18.6304688 L24.4257813,18.6304688 Z M24.4257812,8.8125 C24.4257812,8.8125 13.9375,19.3492187 13.9375,19.3492187 C13.9375,19.3492187 13.21875,18.6304687 13.21875,18.6304687 C13.21875,18.6304687 23.7554687,8.1421875 23.7554687,8.1421875 C23.7554687,8.1421875 24.4257812,8.8125 24.4257812,8.8125 L24.4257812,8.8125 Z M1.00625,24.1859375 C1.00625,24.1859375 0.43125,24.4734375 0.43125,24.4734375 C0.43125,24.4734375 0,23.5632812 0,23.5632812 C0,23.5632812 0.62265625,23.3242188 0.62265625,23.3242188 C2.5859375,22.4140625 3.83125,21.6476563 4.45390625,21.025 C4.45390625,21.025 4.45390625,21.025 4.45390625,21.025 C5.3640625,20.1632812 6.178125,18.821875 6.94453125,17.05 C6.94453125,17.05 6.94453125,17.05 6.94453125,17.05 C7.75859375,15.0867187 8.71640625,11.9734375 9.81796875,7.61484375 C9.81796875,7.61484375 9.81796875,7.61484375 9.81796875,7.61484375 C10.0570312,6.7046875 10.2492187,5.98671875 10.440625,5.41171875 C10.440625,5.41171875 10.440625,5.41171875 10.440625,5.41171875 C11.015625,3.83125 11.78125,2.63359375 12.7398438,1.771875 C12.7398438,1.771875 12.7398438,1.771875 12.7398438,1.771875 C13.9375,0.6703125 15.2304687,0.0953125 16.7148438,0 C16.7148438,0 16.7148438,0 16.7148438,0 C16.7148438,0 16.7625,0.9578125 16.7625,0.9578125 C15.4695312,1.05390625 14.3679687,1.58046875 13.4101562,2.490625 C13.4101562,2.490625 13.4101562,2.490625 13.4101562,2.490625 C12.5484375,3.3046875 11.8773438,4.40625 11.3507813,5.74765625 C11.3507813,5.74765625 11.3507813,5.74765625 11.3507813,5.74765625 C11.303125,5.9390625 11.1117188,6.609375 10.7757813,7.80703125 C10.7757813,7.80703125 10.7757813,7.80703125 10.7757813,7.80703125 C9.67421875,12.2132812 8.71640625,15.421875 7.8546875,17.4335938 C7.8546875,17.4335938 7.8546875,17.4335938 7.8546875,17.4335938 C7.040625,19.3492188 6.13046875,20.7859375 5.17265625,21.74375 C5.17265625,21.74375 5.17265625,21.74375 5.17265625,21.74375 C4.35859375,22.5101563 2.96953125,23.3242187 1.00625,24.1859375 C1.00625,24.1859375 1.00625,24.1859375 1.00625,24.1859375 L1.00625,24.1859375 Z"/>
  <title>Function</title>
</svg>