<svg xmlns="http://www.w3.org/2000/svg" viewBox="0 0 25 25" id="gauge-solid">
  <path d="M14.6546875,17.675 C14.6546875,17.675 14.6546875,17.675 14.6546875,17.675 C14.6546875,17.675 23.275,17.675 23.275,17.675 C22.2210937,19.734375 20.7367187,21.4109375 18.7734375,22.6554688 C16.8101562,23.9 14.6070312,24.5234375 12.2601562,24.5234375 C9.91328125,24.5234375 7.75859375,23.9007813 5.79453125,22.6554688 C3.83046875,21.4101563 2.2984375,19.7820313 1.29296875,17.7226563 C1.29296875,17.7226563 1.29296875,17.7226563 1.29296875,17.7226563 C1.29296875,17.7226563 9.865625,17.675 9.865625,17.675 C10.009375,18.25 10.296875,18.7289063 10.7273437,19.0640625 C11.1585937,19.446875 11.6851562,19.6390625 12.2601562,19.6390625 C12.8351562,19.6390625 13.3617187,19.4476563 13.7929687,19.0640625 C14.2242187,18.7289063 14.5117187,18.25 14.6546875,17.675 Z M13.3132812,18.2015625 C13.6007812,17.9140625 13.7445312,17.5789063 13.7445312,17.1476563 C13.7445312,16.7164063 13.6007812,16.38125 13.3132812,16.09375 C13.0257812,15.8546875 12.690625,15.7109375 12.259375,15.7109375 C11.828125,15.7109375 11.4929687,15.8546875 11.2054687,16.09375 C10.9179687,16.38125 10.7742187,16.7164063 10.7742187,17.1476563 C10.7742187,17.5789063 10.9179687,17.9140625 11.2054687,18.2015625 C11.4929687,18.4890625 11.828125,18.6328125 12.259375,18.6328125 C12.690625,18.6328125 13.0257812,18.4890625 13.3132812,18.2015625 Z M24.5203125,12.2625 C24.5203125,12.2625 24.5203125,12.2625 24.5203125,12.2625 C24.5203125,13.890625 24.2328125,15.3757813 23.6585937,16.7640625 C23.6585937,16.7640625 23.6585937,16.7640625 23.6585937,16.7640625 C23.6585937,16.7640625 14.6546875,16.6679688 14.6546875,16.6679688 C14.5585938,16.1890625 14.3671875,15.80625 14.0320312,15.4703125 C14.0320312,15.4703125 14.0320312,15.4703125 14.0320312,15.4703125 C14.0320312,15.4703125 14.0796875,15.4703125 14.0796875,15.4703125 C14.0796875,15.4703125 20.01875,7.13671875 20.01875,7.13671875 C20.0664062,7.0890625 20.1148437,6.99296875 20.1148437,6.84921875 C20.1148437,6.84921875 20.1148437,6.84921875 20.1148437,6.84921875 C20.1148437,6.5140625 19.9710937,6.3703125 19.6359375,6.3703125 C19.6359375,6.3703125 19.6359375,6.3703125 19.6359375,6.3703125 C19.4921875,6.3703125 19.3484375,6.41796875 19.2046875,6.56171875 C19.2046875,6.56171875 19.2046875,6.56171875 19.2046875,6.56171875 C19.2046875,6.56171875 13.265625,14.8953125 13.265625,14.8953125 C13.265625,14.8953125 13.265625,14.9429688 13.265625,14.9429688 C12.9304688,14.7992188 12.5953125,14.7039063 12.2601562,14.7039063 C12.2601562,14.7039063 12.2601562,14.7039063 12.2601562,14.7039063 C11.6851563,14.7039063 11.1585937,14.8953125 10.7273437,15.2304688 C10.2960937,15.6132813 10.0085937,16.0921875 9.865625,16.6671875 C9.865625,16.6671875 9.865625,16.6671875 9.865625,16.6671875 C9.865625,16.6671875 0.8140625,16.6671875 0.8140625,16.6671875 C0.2875,15.3265625 0,13.8414063 0,12.2609375 C0,12.2609375 0,12.2609375 0,12.2609375 C0,8.8609375 1.19765625,5.98671875 3.5921875,3.5921875 C5.98671875,1.19765625 8.86015625,0 12.2609375,0 C15.6609375,0 18.5351563,1.19765625 20.9296875,3.5921875 C23.3242188,5.98671875 24.521875,8.86015625 24.521875,12.2609375 L24.5203125,12.2625 Z M17.4320312,4.50390625 C17.4320312,4.50390625 17.4320312,4.50390625 17.4320312,4.50390625 C15.8515625,3.45 14.1273437,2.9234375 12.259375,2.9234375 C12.259375,2.9234375 12.259375,2.9234375 12.259375,2.9234375 C9.72109375,2.9234375 7.51796875,3.83359375 5.6984375,5.653125 C3.83046875,7.52109375 2.9203125,9.72421875 2.9203125,12.2625 C2.9203125,12.2625 2.9203125,12.2625 2.9203125,12.2625 C2.9203125,12.5976563 3.11171875,12.7414063 3.446875,12.7414063 C3.446875,12.7414063 3.446875,12.7414063 3.446875,12.7414063 C3.78203125,12.7414063 3.92578125,12.5976563 3.92578125,12.2625 C3.92578125,12.2625 3.92578125,12.2625 3.92578125,12.2625 C3.92578125,9.96328125 4.73984375,8 6.36796875,6.371875 C7.99609375,4.74375 9.96015625,3.9296875 12.2585937,3.9296875 C12.2585937,3.9296875 12.2585937,3.9296875 12.2585937,3.9296875 C13.9828125,3.9296875 15.515625,4.40859375 16.9039062,5.36640625 C16.9039062,5.36640625 16.9039062,5.36640625 16.9039062,5.36640625 C16.9039062,5.36640625 17,5.4140625 17,5.4140625 C17.0476562,5.4140625 17.0960937,5.4140625 17.14375,5.4140625 C17.14375,5.4140625 17.14375,5.4140625 17.14375,5.4140625 C17.4789062,5.4140625 17.6703125,5.2703125 17.6703125,4.93515625 C17.6703125,4.93515625 17.6703125,4.93515625 17.6703125,4.93515625 C17.6703125,4.74375 17.5742187,4.6 17.43125,4.50390625 L17.4320312,4.50390625 Z"/>
  <title>Gauge Solid</title>
</svg>