<svg xmlns="http://www.w3.org/2000/svg" viewBox="0 0 25 25" id="gauge">
  <path d="M17.4820313,4.55 C17.4820313,4.55 17.434375,4.50234375 17.434375,4.50234375 C17.578125,4.5984375 17.6734375,4.74140625 17.6734375,4.93359375 C17.6734375,4.93359375 17.6734375,4.93359375 17.6734375,4.93359375 C17.6734375,5.26875 17.4820313,5.4125 17.146875,5.4125 C17.146875,5.4125 17.146875,5.4125 17.146875,5.4125 C17.0507813,5.4125 16.9554688,5.36484375 16.9078125,5.31640625 C16.9078125,5.31640625 16.9078125,5.31640625 16.9078125,5.31640625 C15.51875,4.40625 13.9867188,3.92734375 12.2625,3.92734375 C12.2625,3.92734375 12.2625,3.92734375 12.2625,3.92734375 C9.96328125,3.92734375 8,4.74140625 6.371875,6.36953125 C4.74375,7.99765625 3.9296875,9.96171875 3.9296875,12.2601562 C3.9296875,12.2601562 3.9296875,12.2601562 3.9296875,12.2601562 C3.9296875,12.5953125 3.7859375,12.7390625 3.45078125,12.7390625 C3.45078125,12.7390625 3.45078125,12.7390625 3.45078125,12.7390625 C3.115625,12.7390625 2.92421875,12.5953125 2.92421875,12.2601562 C2.92421875,12.2601562 2.92421875,12.2601562 2.92421875,12.2601562 C2.92421875,9.721875 3.834375,7.51875 5.70234375,5.65078125 C7.521875,3.83125 9.725,2.92109375 12.2632813,2.92109375 C12.2632813,2.92109375 12.2632813,2.92109375 12.2632813,2.92109375 C14.13125,2.92109375 15.903125,3.44765625 17.4835937,4.54921875 C17.4835937,4.54921875 17.4835937,4.54921875 17.4835937,4.54921875 L17.4820313,4.55 Z M20.9296875,3.5921875 C23.3242188,5.98671875 24.521875,8.86015625 24.521875,12.2609375 C24.521875,15.6617188 23.3242188,18.5351562 20.9296875,20.9296875 C18.5351562,23.3242188 15.6617188,24.521875 12.2609375,24.521875 C8.86015625,24.521875 5.98671875,23.3242188 3.5921875,20.9296875 C1.19765625,18.5351562 0,15.6617188 0,12.2609375 C0,8.86015625 1.19765625,5.98671875 3.5921875,3.5921875 C5.98671875,1.19765625 8.86015625,0 12.2609375,0 C15.6617188,0 18.5351563,1.19765625 20.9296875,3.5921875 Z M22.1273437,17.7203125 C22.1273437,17.7203125 22.175,17.6726563 22.175,17.6726563 C22.175,17.6726563 14.6554687,17.6726563 14.6554687,17.6726563 C14.5117187,18.2476563 14.2242187,18.7265625 13.79375,19.0617188 C13.3625,19.4445313 12.8359375,19.6367188 12.2609375,19.6367188 C11.6859375,19.6367188 11.159375,19.4453125 10.728125,19.0617188 C10.296875,18.7265625 10.009375,18.2476563 9.86640625,17.6726563 C9.86640625,17.6726563 9.86640625,17.6726563 9.86640625,17.6726563 C9.86640625,17.6726563 2.346875,17.6726563 2.346875,17.6726563 C3.35234375,19.4445313 4.69375,20.88125 6.465625,21.9351563 C8.2375,22.9890625 10.153125,23.515625 12.2609375,23.515625 C14.3679687,23.515625 16.2835937,22.9890625 18.05625,21.9351563 C19.7804687,20.88125 21.1210937,19.4929688 22.1273437,17.7203125 C22.1273437,17.7203125 22.1273437,17.7203125 22.1273437,17.7203125 Z M11.2078125,18.1992188 C11.4953125,18.4867187 11.8304688,18.6304687 12.2617188,18.6304687 C12.6929688,18.6304687 13.028125,18.4867187 13.315625,18.1992188 C13.603125,17.9117187 13.746875,17.5765625 13.746875,17.1453125 C13.746875,16.7140625 13.603125,16.3789062 13.315625,16.0914062 C13.028125,15.8523437 12.6929688,15.7085938 12.2617188,15.7085938 C11.8304688,15.7085938 11.4953125,15.8523438 11.2078125,16.0914062 C10.9203125,16.3789062 10.7765625,16.7140625 10.7765625,17.1453125 C10.7765625,17.5765625 10.9203125,17.9117187 11.2078125,18.1992188 L11.2078125,18.1992188 Z M14.65625,16.6664062 C14.65625,16.6664062 22.6546875,16.6664062 22.6546875,16.6664062 C23.2296875,15.3734375 23.5164063,13.9367187 23.5164063,12.2601562 C23.5164063,12.2601562 23.5164063,12.2601562 23.5164063,12.2601562 C23.5164063,9.146875 22.4148438,6.46484375 20.2117188,4.26171875 C18.0085938,2.05859375 15.3742187,0.95703125 12.2617188,0.95703125 C12.2617188,0.95703125 12.2617188,0.95703125 12.2617188,0.95703125 C9.1484375,0.95703125 6.46640625,2.05859375 4.26328125,4.26171875 C2.06015625,6.5125 0.95859375,9.146875 0.95859375,12.2601562 C0.95859375,12.2601562 0.95859375,12.2601562 0.95859375,12.2601562 C0.95859375,12.2601562 0.95859375,12.2601562 0.95859375,12.2601562 C0.95859375,13.840625 1.29375,15.325 1.91640625,16.7617187 C1.91640625,16.7617187 1.91640625,16.7617187 1.91640625,16.7617187 C1.91640625,16.7617187 9.86640625,16.665625 9.86640625,16.665625 C10.0101563,16.090625 10.2976563,15.6117187 10.728125,15.2289062 C11.159375,14.89375 11.6859375,14.7023437 12.2609375,14.7023437 C12.2609375,14.7023437 12.2609375,14.7023437 12.2609375,14.7023437 C12.5960938,14.7023437 12.93125,14.7984375 13.2664063,14.9414062 C13.2664063,14.9414062 13.2664063,14.9414062 13.2664063,14.9414062 C13.2664063,14.9414062 13.2664063,14.89375 13.2664063,14.89375 C13.2664063,14.89375 19.2054688,6.56015625 19.2054688,6.56015625 C19.3492188,6.41640625 19.4929688,6.36875 19.6367188,6.36875 C19.6367188,6.36875 19.6367188,6.36875 19.6367188,6.36875 C19.971875,6.36875 20.115625,6.5125 20.115625,6.84765625 C20.115625,6.84765625 20.115625,6.84765625 20.115625,6.84765625 C20.115625,6.99140625 20.0679687,7.08671875 20.0195312,7.13515625 C20.0195312,7.13515625 20.0195312,7.13515625 20.0195312,7.13515625 C20.0195312,7.13515625 14.0804687,15.46875 14.0804687,15.46875 C14.0804687,15.46875 14.0328125,15.46875 14.0328125,15.46875 C14.3679688,15.8039062 14.559375,16.1875 14.6554688,16.6664062 C14.6554688,16.6664062 14.6554688,16.6664062 14.6554688,16.6664062 L14.65625,16.6664062 Z"/>
  <title>Gauge</title>
</svg>