<svg xmlns="http://www.w3.org/2000/svg" viewBox="0 0 25 25" id="gear">
  <path d="M23.8007813,10.3445312 C23.8007813,10.3445312 23.8007813,10.3445312 23.8007813,10.3445312 C23.8007813,10.3445312 21.7890625,9.76953125 21.7890625,9.76953125 C21.5976562,9.721875 21.5015625,9.578125 21.4539063,9.434375 C21.4539063,9.434375 21.4539063,9.434375 21.4539063,9.434375 C21.3101563,8.9078125 21.0710938,8.3328125 20.7351563,7.6625 C20.7351563,7.6625 20.7351563,7.6625 20.7351563,7.6625 C20.6875,7.61484375 20.6875,7.56640625 20.6875,7.51875 C20.6875,7.51875 20.6875,7.51875 20.6875,7.51875 C20.6875,7.42265625 20.7351563,7.32734375 20.7835938,7.2796875 C20.7835938,7.2796875 20.7835938,7.2796875 20.7835938,7.2796875 C20.7835938,7.2796875 21.7890625,5.46015625 21.7890625,5.46015625 C21.8367188,5.26875 21.8851563,5.125 21.8851563,4.98125 C21.8851563,4.98125 21.8851563,4.98125 21.8851563,4.98125 C21.8851563,4.69375 21.7890625,4.4546875 21.5976563,4.2625 C21.5976563,4.2625 21.5976563,4.2625 21.5976563,4.2625 C21.5976563,4.2625 20.2570313,2.921875 20.2570313,2.921875 C20.065625,2.73046875 19.8257813,2.634375 19.5382813,2.634375 C19.5382813,2.634375 19.5382813,2.634375 19.5382813,2.634375 C19.3945312,2.634375 19.2507813,2.68203125 19.059375,2.73046875 C19.059375,2.73046875 19.059375,2.73046875 19.059375,2.73046875 C19.059375,2.73046875 17.2398437,3.7359375 17.2398437,3.7359375 C17.1921875,3.78359375 17.0960937,3.83203125 17.0007813,3.83203125 C17.0007813,3.83203125 17.0007813,3.83203125 17.0007813,3.83203125 C16.953125,3.83203125 16.9046875,3.784375 16.7617188,3.7359375 C16.7617188,3.7359375 16.7617188,3.7359375 16.7617188,3.7359375 C16.1867188,3.4484375 15.6601562,3.209375 15.1335937,3.065625 C15.1335937,3.065625 15.1335937,3.065625 15.1335937,3.065625 C14.9421875,3.01796875 14.7984375,2.921875 14.7507813,2.73046875 C14.7507813,2.73046875 14.7507813,2.73046875 14.7507813,2.73046875 C14.7507813,2.73046875 14.1757812,0.71875 14.1757812,0.71875 C14.0320312,0.23984375 13.696875,0 13.2179688,0 C13.2179688,0 13.2179688,0 13.2179688,0 C13.2179688,0 11.3023438,0 11.3023438,0 C10.8234375,0 10.4882812,0.2390625 10.3445312,0.71875 C10.3445312,0.71875 10.3445312,0.71875 10.3445312,0.71875 C10.3445312,0.71875 9.76953125,2.73046875 9.76953125,2.73046875 C9.721875,2.921875 9.578125,3.01796875 9.434375,3.065625 C9.434375,3.065625 9.434375,3.065625 9.434375,3.065625 C8.9078125,3.209375 8.3328125,3.4484375 7.6625,3.784375 C7.6625,3.784375 7.6625,3.784375 7.6625,3.784375 C7.61484375,3.83203125 7.56640625,3.83203125 7.51875,3.83203125 C7.51875,3.83203125 7.51875,3.83203125 7.51875,3.83203125 C7.42265625,3.83203125 7.32734375,3.784375 7.2796875,3.7359375 C7.2796875,3.7359375 7.2796875,3.7359375 7.2796875,3.7359375 C7.2796875,3.7359375 5.46015625,2.73046875 5.46015625,2.73046875 C5.26875,2.6828125 5.125,2.634375 4.98125,2.634375 C4.98125,2.634375 4.98125,2.634375 4.98125,2.634375 C4.69375,2.634375 4.4546875,2.73046875 4.2625,2.921875 C4.2625,2.921875 4.2625,2.921875 4.2625,2.921875 C4.2625,2.921875 2.921875,4.2625 2.921875,4.2625 C2.73046875,4.45390625 2.634375,4.69375 2.634375,4.98125 C2.634375,4.98125 2.634375,4.98125 2.634375,4.98125 C2.634375,5.125 2.68203125,5.26875 2.73046875,5.46015625 C2.73046875,5.46015625 2.73046875,5.46015625 2.73046875,5.46015625 C2.73046875,5.46015625 3.7359375,7.2796875 3.7359375,7.2796875 C3.78359375,7.32734375 3.83203125,7.4234375 3.83203125,7.51875 C3.83203125,7.51875 3.83203125,7.51875 3.83203125,7.51875 C3.83203125,7.56640625 3.784375,7.61484375 3.7359375,7.7578125 C3.7359375,7.7578125 3.7359375,7.7578125 3.7359375,7.7578125 C3.4484375,8.3328125 3.209375,8.859375 3.065625,9.3859375 C3.065625,9.3859375 3.065625,9.3859375 3.065625,9.3859375 C3.01796875,9.57734375 2.921875,9.72109375 2.73046875,9.76875 C2.73046875,9.76875 2.73046875,9.76875 2.73046875,9.76875 C2.73046875,9.76875 0.71875,10.34375 0.71875,10.34375 C0.23984375,10.4875 0,10.8226562 0,11.3015625 C0,11.3015625 0,11.3015625 0,11.3015625 C0,11.3015625 0,13.2171875 0,13.2171875 C0,13.6960937 0.2390625,14.03125 0.71875,14.175 C0.71875,14.175 0.71875,14.175 0.71875,14.175 C0.71875,14.175 2.73046875,14.75 2.73046875,14.75 C2.921875,14.7976562 3.01796875,14.9414062 3.065625,15.0851562 C3.065625,15.0851562 3.065625,15.0851562 3.065625,15.0851562 C3.25703125,15.6601562 3.496875,16.234375 3.784375,16.8570312 C3.784375,16.8570312 3.784375,16.8570312 3.784375,16.8570312 C3.83203125,16.9046875 3.83203125,16.953125 3.83203125,17.0007812 C3.83203125,17.0007812 3.83203125,17.0007812 3.83203125,17.0007812 C3.83203125,17.096875 3.784375,17.1921875 3.7359375,17.2398437 C3.7359375,17.2398437 3.7359375,17.2398437 3.7359375,17.2398437 C3.7359375,17.2398437 2.73046875,19.059375 2.73046875,19.059375 C2.6828125,19.2507812 2.634375,19.3945312 2.634375,19.5382812 C2.634375,19.5382812 2.634375,19.5382812 2.634375,19.5382812 C2.634375,19.8257812 2.73046875,20.0648437 2.921875,20.2570313 C2.921875,20.2570313 2.921875,20.2570313 2.921875,20.2570313 C2.921875,20.2570313 4.2625,21.5976562 4.2625,21.5976562 C4.45390625,21.7890625 4.69375,21.8851563 4.98125,21.8851563 C4.98125,21.8851563 4.98125,21.8851563 4.98125,21.8851563 C5.125,21.8851563 5.26875,21.8375 5.46015625,21.7890625 C5.46015625,21.7890625 5.46015625,21.7890625 5.46015625,21.7890625 C5.46015625,21.7890625 7.2796875,20.7835938 7.2796875,20.7835938 C7.32734375,20.7359375 7.4234375,20.6875 7.51875,20.6875 C7.51875,20.6875 7.51875,20.6875 7.51875,20.6875 C7.56640625,20.6875 7.61484375,20.7351562 7.7578125,20.7835938 C7.7578125,20.7835938 7.7578125,20.7835938 7.7578125,20.7835938 C8.3328125,21.0710937 8.859375,21.3101562 9.3859375,21.4539062 C9.3859375,21.4539062 9.3859375,21.4539062 9.3859375,21.4539062 C9.57734375,21.5015625 9.72109375,21.5976562 9.76875,21.7890625 C9.76875,21.7890625 9.76875,21.7890625 9.76875,21.7890625 C9.76875,21.7890625 10.34375,23.8007812 10.34375,23.8007812 C10.4875,24.2796875 10.8226562,24.5195312 11.3015625,24.5195312 C11.3015625,24.5195312 11.3015625,24.5195312 11.3015625,24.5195312 C11.3015625,24.5195312 13.2171875,24.5195312 13.2171875,24.5195312 C13.6960938,24.5195312 14.03125,24.2804687 14.175,23.8007812 C14.175,23.8007812 14.175,23.8007812 14.175,23.8007812 C14.175,23.8007812 14.75,21.7890625 14.75,21.7890625 C14.7976563,21.5976562 14.9414063,21.5015625 15.0851562,21.4539062 C15.0851562,21.4539062 15.0851562,21.4539062 15.0851562,21.4539062 C15.6117187,21.3101562 16.1867188,21.0710938 16.8570313,20.7351562 C16.8570313,20.7351562 16.8570313,20.7351562 16.8570313,20.7351562 C16.9046875,20.6875 16.953125,20.6875 17.0007813,20.6875 C17.0007813,20.6875 17.0007813,20.6875 17.0007813,20.6875 C17.096875,20.6875 17.1921875,20.7351562 17.2398437,20.7835938 C17.2398437,20.7835938 17.2398437,20.7835938 17.2398437,20.7835938 C17.2398437,20.7835938 19.059375,21.7890625 19.059375,21.7890625 C19.2507813,21.8367187 19.3945312,21.8851563 19.5382813,21.8851563 C19.5382813,21.8851563 19.5382813,21.8851563 19.5382813,21.8851563 C19.8257812,21.8851563 20.0648438,21.7890625 20.2570313,21.5976562 C20.2570313,21.5976562 20.2570313,21.5976562 20.2570313,21.5976562 C20.2570313,21.5976562 21.5976563,20.2570313 21.5976563,20.2570313 C21.7890625,20.065625 21.8851563,19.8257812 21.8851563,19.5382812 C21.8851563,19.5382812 21.8851563,19.5382812 21.8851563,19.5382812 C21.8851563,19.3945312 21.8375,19.2507812 21.7890625,19.059375 C21.7890625,19.059375 21.7890625,19.059375 21.7890625,19.059375 C21.7890625,19.059375 20.7835938,17.2398437 20.7835938,17.2398437 C20.7359375,17.1921875 20.6875,17.0960937 20.6875,17.0007812 C20.6875,17.0007812 20.6875,17.0007812 20.6875,17.0007812 C20.6875,16.953125 20.7351563,16.9046875 20.7835938,16.7617187 C20.7835938,16.7617187 20.7835938,16.7617187 20.7835938,16.7617187 C21.0226563,16.2351562 21.2625,15.7078125 21.4539063,15.1335937 C21.4539063,15.1335937 21.4539063,15.1335937 21.4539063,15.1335937 C21.5015625,14.9421875 21.5976563,14.7984375 21.7890625,14.7507812 C21.7890625,14.7507812 21.7890625,14.7507812 21.7890625,14.7507812 C21.7890625,14.7507812 23.8007813,14.1757812 23.8007813,14.1757812 C24.2796875,14.0320312 24.5195312,13.696875 24.5195312,13.2179688 C24.5195312,13.2179688 24.5195312,13.2179688 24.5195312,13.2179688 C24.5195312,13.2179688 24.5195312,11.3023438 24.5195312,11.3023438 C24.5195312,10.8234375 24.2804688,10.4882812 23.8007813,10.3445312 Z M23.5609375,11.3023438 C23.5609375,11.3023438 23.5609375,13.2179687 23.5609375,13.2179687 C23.5609375,13.2179687 21.5015625,13.7929688 21.5015625,13.7929688 C21.0226562,13.9367187 20.6875,14.271875 20.54375,14.7984375 C20.54375,14.7984375 20.54375,14.7984375 20.54375,14.7984375 C20.4,15.2773437 20.1609375,15.8039062 19.8734375,16.3789062 C19.8734375,16.3789062 19.8734375,16.3789062 19.8734375,16.3789062 C19.7773437,16.5226562 19.7296875,16.7140625 19.7296875,17.0015625 C19.7296875,17.0015625 19.7296875,17.0015625 19.7296875,17.0015625 C19.7296875,17.3367187 19.7773437,17.5765625 19.9210937,17.7203125 C19.9210937,17.7203125 19.9210937,17.7203125 19.9210937,17.7203125 C19.9210937,17.7203125 20.9265625,19.5398437 20.9265625,19.5398437 C20.9265625,19.5398437 19.5375,20.9289062 19.5375,20.9289062 C19.5375,20.9289062 17.7179687,19.9234375 17.7179687,19.9234375 C17.5742187,19.7796875 17.3351563,19.7320312 16.9992187,19.7320312 C16.9992187,19.7320312 16.9992187,19.7320312 16.9992187,19.7320312 C16.7117187,19.7320312 16.4726562,19.7796875 16.3289062,19.9234375 C16.3289062,19.9234375 16.3289062,19.9234375 16.3289062,19.9234375 C15.6585937,20.2109375 15.1796875,20.4023438 14.8445312,20.4984375 C14.8445312,20.4984375 14.8445312,20.4984375 14.8445312,20.4984375 C14.2695312,20.6898438 13.934375,21.025 13.790625,21.5039062 C13.790625,21.5039062 13.790625,21.5039062 13.790625,21.5039062 C13.790625,21.5039062 13.215625,23.515625 13.215625,23.515625 C13.215625,23.515625 11.3,23.515625 11.3,23.515625 C11.3,23.515625 10.725,21.5039062 10.725,21.5039062 C10.58125,21.025 10.2460937,20.6898437 9.71953125,20.5460937 C9.71953125,20.5460937 9.71953125,20.5460937 9.71953125,20.5460937 C9.240625,20.4023438 8.7140625,20.1632812 8.1390625,19.8757813 C8.1390625,19.8757813 8.1390625,19.8757813 8.1390625,19.8757813 C7.9953125,19.7796875 7.80390625,19.7320312 7.51640625,19.7320312 C7.51640625,19.7320312 7.51640625,19.7320312 7.51640625,19.7320312 C7.18125,19.7320312 6.94140625,19.7796875 6.79765625,19.9234375 C6.79765625,19.9234375 6.79765625,19.9234375 6.79765625,19.9234375 C6.79765625,19.9234375 4.978125,20.9289062 4.978125,20.9289062 C4.978125,20.9289062 3.5890625,19.5398437 3.5890625,19.5398437 C3.5890625,19.5398437 4.59453125,17.7203125 4.59453125,17.7203125 C4.73828125,17.5765625 4.7859375,17.3375 4.7859375,17.0015625 C4.7859375,17.0015625 4.7859375,17.0015625 4.7859375,17.0015625 C4.7859375,16.7140625 4.73828125,16.475 4.59453125,16.33125 C4.59453125,16.33125 4.59453125,16.33125 4.59453125,16.33125 C4.30703125,15.6609375 4.115625,15.1820312 4.01953125,14.846875 C4.01953125,14.846875 4.01953125,14.846875 4.01953125,14.846875 C3.828125,14.271875 3.49296875,13.9367187 3.0140625,13.7929688 C3.0140625,13.7929688 3.0140625,13.7929688 3.0140625,13.7929688 C3.0140625,13.7929688 0.9546875,13.2179687 0.9546875,13.2179687 C0.9546875,13.2179687 0.9546875,11.3023438 0.9546875,11.3023438 C0.9546875,11.3023438 3.0140625,10.7273437 3.0140625,10.7273437 C3.49296875,10.5835938 3.828125,10.2484375 3.971875,9.721875 C3.971875,9.721875 3.971875,9.721875 3.971875,9.721875 C4.115625,9.24296875 4.3546875,8.71640625 4.6421875,8.14140625 C4.6421875,8.14140625 4.6421875,8.14140625 4.6421875,8.14140625 C4.73828125,7.99765625 4.7859375,7.75859375 4.7859375,7.51875 C4.7859375,7.51875 4.7859375,7.51875 4.7859375,7.51875 C4.7859375,7.18359375 4.73828125,6.94375 4.59453125,6.8 C4.59453125,6.8 4.59453125,6.8 4.59453125,6.8 C4.59453125,6.8 3.5890625,4.98046875 3.5890625,4.98046875 C3.5890625,4.98046875 4.978125,3.59140625 4.978125,3.59140625 C4.978125,3.59140625 6.7984375,4.596875 6.7984375,4.596875 C6.9421875,4.740625 7.18125,4.78828125 7.5171875,4.78828125 C7.5171875,4.78828125 7.5171875,4.78828125 7.5171875,4.78828125 C7.8046875,4.78828125 8.04375,4.740625 8.1875,4.596875 C8.1875,4.596875 8.1875,4.596875 8.1875,4.596875 C8.8578125,4.309375 9.33671875,4.11796875 9.671875,4.021875 C9.671875,4.021875 9.671875,4.021875 9.671875,4.021875 C10.246875,3.83046875 10.5820312,3.4953125 10.7257812,3.01640625 C10.7257812,3.01640625 10.7257812,3.01640625 10.7257812,3.01640625 C10.7257812,3.01640625 11.3007812,0.95703125 11.3007812,0.95703125 C11.3007812,0.95703125 13.2164062,0.95703125 13.2164062,0.95703125 C13.2164062,0.95703125 13.7914062,3.01640625 13.7914062,3.01640625 C13.9351563,3.4953125 14.2703125,3.83046875 14.796875,3.97421875 C14.796875,3.97421875 14.796875,3.97421875 14.796875,3.97421875 C15.2757812,4.11796875 15.8023437,4.35703125 16.3773437,4.64453125 C16.3773437,4.64453125 16.3773437,4.64453125 16.3773437,4.64453125 C16.5210937,4.740625 16.7125,4.78828125 17,4.78828125 C17,4.78828125 17,4.78828125 17,4.78828125 C17.3351562,4.78828125 17.575,4.740625 17.71875,4.596875 C17.71875,4.596875 17.71875,4.596875 17.71875,4.596875 C17.71875,4.596875 19.5382813,3.59140625 19.5382813,3.59140625 C19.5382813,3.59140625 20.9273437,4.98046875 20.9273437,4.98046875 C20.9273437,4.98046875 19.921875,6.80078125 19.921875,6.80078125 C19.778125,6.94453125 19.7304687,7.18359375 19.7304687,7.51953125 C19.7304687,7.51953125 19.7304687,7.51953125 19.7304687,7.51953125 C19.7304687,7.80703125 19.778125,8.04609375 19.921875,8.18984375 C19.921875,8.18984375 19.921875,8.18984375 19.921875,8.18984375 C20.209375,8.86015625 20.4007812,9.3390625 20.496875,9.67421875 C20.496875,9.67421875 20.496875,9.67421875 20.496875,9.67421875 C20.6882812,10.2492187 21.0234375,10.584375 21.5023437,10.728125 C21.5023437,10.728125 21.5023437,10.728125 21.5023437,10.728125 C21.5023437,10.728125 23.5617187,11.303125 23.5617187,11.303125 L23.5609375,11.3023438 Z M16.0898438,8.42890625 C14.9882813,7.375 13.7429688,6.8484375 12.2585938,6.8484375 C10.7742188,6.8484375 9.52890625,7.375 8.475,8.42890625 C7.3734375,9.4828125 6.846875,10.7757813 6.846875,12.2601563 C6.846875,13.7445313 7.3734375,15.0382813 8.475,16.0914062 C9.52890625,17.1453125 10.7742188,17.671875 12.2585938,17.671875 C13.7429688,17.671875 14.9882813,17.1453125 16.0898438,16.0914062 C17.14375,15.0375 17.6703125,13.7445313 17.6703125,12.2601563 C17.6703125,10.7757813 17.14375,9.48203125 16.0898438,8.42890625 Z M15.3710938,15.3734375 C14.509375,16.2351562 13.4554687,16.6664062 12.2578125,16.6664062 C11.0601563,16.6664062 10.0070313,16.2351562 9.14453125,15.3734375 C8.2828125,14.5117187 7.8515625,13.4578125 7.8515625,12.2601562 C7.8515625,11.0625 8.2828125,10.009375 9.14453125,9.146875 C10.00625,8.28515625 11.0601562,7.85390625 12.2578125,7.85390625 C13.4554687,7.85390625 14.5085937,8.28515625 15.3710938,9.146875 C16.2328125,10.0085937 16.6640625,11.0625 16.6640625,12.2601562 C16.6640625,13.4578125 16.2328125,14.5109375 15.3710938,15.3734375 Z"/>
  <title>Gear</title>
</svg>