<svg xmlns="http://www.w3.org/2000/svg" viewBox="0 0 25 25" id="glasses-solid">
  <path d="M24.5625,13.8234375 C24.5625,13.8234375 24.5625,13.8234375 24.5625,13.8234375 C24.5625,13.8234375 24.5625,16.7445313 24.5625,16.7445313 C24.5625,18.1335938 24.0835938,19.2828125 23.1257812,20.1929687 C22.1679688,21.1507812 21.01875,21.6296875 19.6296875,21.6296875 C19.6296875,21.6296875 19.6296875,21.6296875 19.6296875,21.6296875 C18.2890625,21.6296875 17.1390625,21.1507812 16.18125,20.1929687 C15.2234375,19.2828125 14.7445312,18.1335938 14.7445312,16.7445313 C14.7445312,16.7445313 14.7445312,16.7445313 14.7445312,16.7445313 C14.7445312,16.3132812 14.7921875,15.978125 14.840625,15.7390625 C14.840625,15.7390625 14.840625,15.7390625 14.840625,15.7390625 C14.840625,15.7390625 10.721875,15.7867188 10.721875,15.7867188 C10.7695312,16.1695312 10.8179688,16.5054688 10.8179688,16.7445313 C10.8179688,16.7445313 10.8179688,16.7445313 10.8179688,16.7445313 C10.8179688,18.1335937 10.3390625,19.2828125 9.38125,20.240625 C8.4234375,21.1984375 7.27421875,21.6773437 5.88515625,21.6773437 C5.88515625,21.6773437 5.88515625,21.6773437 5.88515625,21.6773437 C4.54453125,21.6773437 3.39453125,21.1984375 2.43671875,20.240625 C1.47890625,19.2828125 1,18.1335938 1,16.7445313 C1,16.7445313 1,16.7445313 1,16.7445313 C1,16.7445313 1,13.8234375 1,13.8234375 C1,13.7757812 1,13.7273437 1.04765625,13.6796875 C1.04765625,13.6320312 1.04765625,13.5835937 1.04765625,13.5359375 C1.04765625,13.5359375 1.04765625,13.5359375 1.04765625,13.5359375 C1.04765625,13.5359375 6.93828125,3.2390625 6.93828125,3.2390625 C7.034375,3.0953125 7.17734375,3 7.36953125,3 C7.36953125,3 7.36953125,3 7.36953125,3 C7.7046875,3 7.89609375,3.14375 7.89609375,3.47890625 C7.89609375,3.47890625 7.89609375,3.47890625 7.89609375,3.47890625 C7.89609375,3.5265625 7.8484375,3.62265625 7.8,3.76640625 C7.8,3.76640625 7.8,3.76640625 7.8,3.76640625 C7.8,3.76640625 2.196875,13.584375 2.196875,13.584375 C3.20234375,12.4351563 4.44765625,11.8601562 5.9328125,11.8601562 C5.9328125,11.8601562 5.9328125,11.8601562 5.9328125,11.8601562 C6.890625,11.8601562 7.80078125,12.1476562 8.61484375,12.6742187 C9.42890625,13.2007813 10.0039062,13.9195313 10.3867188,14.78125 C10.3867188,14.78125 10.3867188,14.78125 10.3867188,14.78125 C10.3867188,14.78125 15.128125,14.78125 15.128125,14.78125 C15.5109375,13.9195312 16.1335937,13.2007813 16.9476563,12.6742187 C17.7617188,12.1476563 18.6242188,11.8601562 19.6296875,11.8601562 C19.6296875,11.8601562 19.6296875,11.8601562 19.6296875,11.8601562 C21.1140625,11.8601562 22.359375,12.4351563 23.365625,13.584375 C23.365625,13.584375 23.365625,13.584375 23.365625,13.584375 C23.365625,13.584375 17.7625,3.76640625 17.7625,3.76640625 C17.7148438,3.62265625 17.6664062,3.575 17.6664062,3.52734375 C17.6664062,3.52734375 17.6664062,3.52734375 17.6664062,3.52734375 C17.6664062,3.1921875 17.8578125,3.0484375 18.1929687,3.0484375 C18.1929687,3.0484375 18.1929687,3.0484375 18.1929687,3.0484375 C18.3367187,3.0484375 18.4320312,3.09609375 18.5757812,3.23984375 C18.5757812,3.23984375 18.5757812,3.23984375 18.5757812,3.23984375 C18.5757812,3.23984375 24.4664062,13.5367188 24.4664062,13.5367188 C24.5140625,13.6804688 24.5625,13.7757812 24.5625,13.8242187 L24.5625,13.8234375 Z"/>
  <title>Glasses Solid</title>
</svg>