<svg xmlns="http://www.w3.org/2000/svg" viewBox="0 0 25 25" id="glasses">
  <path d="M24.5640625,13.6320313 C24.5640625,13.6320313 24.5164062,13.5359375 24.5164062,13.5359375 C24.5164062,13.5359375 18.6257812,3.2390625 18.6257812,3.2390625 C18.5296875,3.0953125 18.3867187,3 18.1945313,3 C18.1945313,3 18.1945313,3 18.1945313,3 C17.859375,3 17.715625,3.14375 17.715625,3.47890625 C17.715625,3.47890625 17.715625,3.47890625 17.715625,3.47890625 C17.715625,3.62265625 17.715625,3.71796875 17.7632813,3.76640625 C17.7632813,3.76640625 17.7632813,3.76640625 17.7632813,3.76640625 C17.7632813,3.76640625 23.3664062,13.584375 23.3664062,13.584375 C22.3609375,12.3867188 21.115625,11.8125 19.6304688,11.8125 C19.6304688,11.8125 19.6304688,11.8125 19.6304688,11.8125 C18.6726562,11.8125 17.8109375,12.1 16.9960938,12.6265625 C16.18125,13.153125 15.559375,13.871875 15.1765625,14.7335938 C15.1765625,14.7335938 15.1765625,14.7335938 15.1765625,14.7335938 C15.1765625,14.7335938 10.4351563,14.78125 10.4351563,14.78125 C10.0523438,13.8710938 9.47734375,13.153125 8.66328125,12.6257813 C7.84921875,12.0984375 6.9390625,11.8117188 5.93359375,11.8117188 C5.93359375,11.8117188 5.93359375,11.8117188 5.93359375,11.8117188 C4.44921875,11.8117188 3.20390625,12.3867188 2.19765625,13.5835938 C2.19765625,13.5835938 2.19765625,13.5835938 2.19765625,13.5835938 C2.19765625,13.5835938 7.80078125,3.71796875 7.80078125,3.71796875 C7.8484375,3.6703125 7.896875,3.57421875 7.896875,3.47890625 C7.896875,3.47890625 7.896875,3.47890625 7.896875,3.47890625 C7.896875,3.14375 7.753125,3 7.41796875,3 C7.41796875,3 7.41796875,3 7.41796875,3 C7.2265625,3 7.0828125,3.09609375 6.98671875,3.2390625 C6.98671875,3.2390625 6.98671875,3.2390625 6.98671875,3.2390625 C6.98671875,3.2390625 1.09609375,13.5359375 1.09609375,13.5359375 C1.0484375,13.5835938 1,13.6796875 1,13.775 C1,13.775 1,13.775 1,13.775 C1,13.775 1,16.7445313 1,16.7445313 C1,18.0851563 1.47890625,19.2351563 2.43671875,20.1929687 C3.39453125,21.1507812 4.54375,21.6296875 5.9328125,21.6296875 C5.9328125,21.6296875 5.9328125,21.6296875 5.9328125,21.6296875 C7.2734375,21.6296875 8.4234375,21.1507812 9.38125,20.1929687 C10.3390625,19.2351563 10.8179688,18.0859375 10.8179688,16.7445313 C10.8179688,16.7445313 10.8179688,16.7445313 10.8179688,16.7445313 C10.8179688,16.265625 10.7703125,15.9304687 10.721875,15.7390625 C10.721875,15.7390625 10.721875,15.7390625 10.721875,15.7390625 C10.721875,15.7390625 14.840625,15.7390625 14.840625,15.7390625 C14.7929688,16.121875 14.7445312,16.4578125 14.7445312,16.7445313 C14.7445312,16.7445313 14.7445312,16.7445313 14.7445312,16.7445313 C14.7445312,18.0851562 15.2234375,19.2351562 16.18125,20.1929687 C17.1390625,21.1507813 18.2882812,21.6296875 19.6773437,21.6296875 C19.6773437,21.6296875 19.6773437,21.6296875 19.6773437,21.6296875 C21.0179687,21.6296875 22.1679687,21.1507812 23.1257812,20.1929687 C24.0835937,19.2351563 24.5625,18.0859375 24.5625,16.7445313 C24.5625,16.7445313 24.5625,16.7445313 24.5625,16.7445313 C24.5625,16.7445313 24.5625,13.775 24.5625,13.775 C24.5625,13.7273437 24.5625,13.6789062 24.5625,13.63125 C24.5625,13.63125 24.5625,13.63125 24.5625,13.63125 L24.5640625,13.6320313 Z M8.71171875,19.5226563 C7.9453125,20.2890625 7.03515625,20.671875 5.93359375,20.671875 C4.83203125,20.671875 3.921875,20.2890625 3.15546875,19.5226563 C2.3890625,18.75625 2.00625,17.8460938 2.00625,16.7445313 C2.00625,15.6429688 2.3890625,14.7328125 3.15546875,13.9664063 C3.921875,13.2 4.83203125,12.8171875 5.93359375,12.8171875 C7.03515625,12.8171875 7.9453125,13.2 8.71171875,13.9664063 C9.478125,14.7328125 9.8609375,15.6429688 9.8609375,16.7445313 C9.8609375,17.8460938 9.478125,18.75625 8.71171875,19.5226563 Z M22.4570312,19.5226563 C21.690625,20.2890625 20.7804687,20.671875 19.6789063,20.671875 C18.5773437,20.671875 17.6671875,20.2890625 16.9007813,19.5226563 C16.134375,18.75625 15.7515625,17.8460938 15.7515625,16.7445313 C15.7515625,15.6429688 16.134375,14.7328125 16.9007813,13.9664063 C17.6671875,13.2 18.5773437,12.8171875 19.6789063,12.8171875 C20.7804687,12.8171875 21.690625,13.2 22.4570312,13.9664063 C23.2234375,14.7328125 23.60625,15.6429688 23.60625,16.7445313 C23.60625,16.7445313 23.60625,16.7445313 23.60625,16.7445313 C23.5585938,17.8460938 23.175,18.75625 22.4570312,19.5226563 Z"/>
  <title>Glasses</title>
</svg>