<svg xmlns="http://www.w3.org/2000/svg" viewBox="0 0 25 25" id="globe">
  <path d="M24.521875,11.7820313 C24.521875,11.7820313 24.4742188,11.7820313 24.4742188,11.7820313 C24.3304688,8.47734375 23.0851563,5.7 20.7382813,3.40078125 C18.3914063,1.15 15.565625,0 12.2609375,0 C8.95625,0 6.13046875,1.14921875 3.78359375,3.40078125 C1.43671875,5.7 0.19140625,8.47734375 0.04765625,11.734375 C0.04765625,11.734375 0.04765625,11.734375 0.04765625,11.734375 C0.04765625,11.734375 0,11.7820313 0,11.7820313 C0,11.7820313 0,12.7398438 0,12.7398438 C0,12.7398438 0.04765625,12.7398438 0.04765625,12.7398438 C0.19140625,16.0445313 1.43671875,18.821875 3.78359375,21.0734375 C6.13046875,23.3726563 8.95625,24.521875 12.2609375,24.521875 C12.2609375,24.521875 12.2609375,24.521875 12.2609375,24.521875 C12.2609375,24.521875 12.2609375,24.521875 12.2609375,24.521875 C15.565625,24.521875 18.3914063,23.3726563 20.7382813,21.0734375 C23.0851563,18.8226563 24.3304688,16.0445313 24.4742188,12.7882813 C24.4742188,12.7882813 24.4742188,12.7882813 24.4742188,12.7882813 C24.4742188,12.7882813 24.521875,12.740625 24.521875,12.740625 C24.521875,12.740625 24.521875,11.7828125 24.521875,11.7828125 L24.521875,11.7820313 Z M20.978125,5.12421875 C20.978125,5.12421875 20.978125,5.171875 20.978125,5.171875 C19.49375,5.746875 17.9132813,6.17734375 16.284375,6.5125 C16.284375,6.5125 16.284375,6.5125 16.284375,6.5125 C15.853125,4.453125 15.0867188,2.6328125 14.08125,1.10078125 C14.08125,1.10078125 14.08125,1.10078125 14.08125,1.10078125 C16.9070313,1.62734375 19.2054688,2.96875 20.978125,5.1234375 C20.978125,5.1234375 20.978125,5.1234375 20.978125,5.1234375 L20.978125,5.12421875 Z M15.6617188,11.7335937 C15.6617188,11.7335937 8.8609375,11.78125 8.8609375,11.78125 C8.8609375,10.2007812 8.95703125,8.7640625 9.19609375,7.42265625 C9.19609375,7.42265625 9.19609375,7.42265625 9.19609375,7.42265625 C9.9625,7.71015625 10.9679688,7.85390625 12.2609375,7.85390625 C12.2609375,7.85390625 12.2609375,7.85390625 12.2609375,7.85390625 C13.21875,7.85390625 14.2726562,7.7578125 15.4695313,7.61484375 C15.4695313,7.61484375 15.4695313,7.61484375 15.4695313,7.61484375 C15.6132813,9.29140625 15.6609375,10.6320312 15.6609375,11.7335937 C15.6609375,11.7335937 15.6609375,11.7335937 15.6609375,11.7335937 L15.6617188,11.7335937 Z M8.8609375,12.7875 C8.8609375,12.7875 15.6617188,12.7398438 15.6617188,12.7398438 C15.6617188,14.3203125 15.565625,15.7570313 15.3265625,17.05 C15.3265625,17.05 15.3265625,17.05 15.3265625,17.05 C14.5125,16.8109375 13.5070312,16.6671875 12.2617188,16.6671875 C12.2617188,16.6671875 12.2617188,16.6671875 12.2617188,16.6671875 C11.3039063,16.6671875 10.25,16.7632812 9.053125,16.90625 C9.053125,16.90625 9.053125,16.90625 9.053125,16.90625 C8.909375,15.2296875 8.86171875,13.8890625 8.86171875,12.7875 C8.86171875,12.7875 8.86171875,12.7875 8.86171875,12.7875 L8.8609375,12.7875 Z M10.68125,2.490625 C11.2078125,1.48515625 11.7351563,0.9578125 12.2617188,0.9578125 C12.7882813,0.9578125 13.315625,1.484375 13.8898438,2.53828125 C14.4164063,3.5921875 14.8476563,4.98046875 15.1828125,6.65703125 C15.1828125,6.65703125 15.1828125,6.65703125 15.1828125,6.65703125 C14.4164063,6.80078125 13.4585938,6.8484375 12.309375,6.8484375 C12.309375,6.8484375 12.309375,6.8484375 12.309375,6.8484375 C11.1117188,6.8484375 10.10625,6.80078125 9.24453125,6.65703125 C9.24453125,6.65703125 9.24453125,6.65703125 9.24453125,6.65703125 C9.62734375,4.9328125 10.10625,3.54375 10.68125,2.490625 L10.68125,2.490625 Z M10.3453125,1.14921875 C10.3453125,1.14921875 10.3929688,1.14921875 10.3929688,1.14921875 C9.3390625,2.7296875 8.66875,4.5015625 8.38125,6.4171875 C8.38125,6.4171875 8.38125,6.4171875 8.38125,6.4171875 C6.753125,6.178125 5.0765625,5.746875 3.35234375,5.0765625 C3.35234375,5.0765625 3.35234375,5.0765625 3.35234375,5.0765625 C5.3640625,2.92109375 7.7109375,1.628125 10.3445313,1.14921875 C10.3445313,1.14921875 10.3445313,1.14921875 10.3445313,1.14921875 L10.3453125,1.14921875 Z M3.01796875,5.84296875 C3.01796875,5.84296875 2.9703125,5.890625 2.9703125,5.890625 C4.55078125,6.609375 6.275,7.08828125 8.09453125,7.4234375 C8.09453125,7.4234375 8.09453125,7.4234375 8.09453125,7.4234375 C7.95078125,9.00390625 7.903125,10.440625 7.85546875,11.7335938 C7.85546875,11.7335938 7.85546875,11.7335938 7.85546875,11.7335938 C7.85546875,11.7335938 1.00703125,11.78125 1.00703125,11.78125 C1.103125,9.578125 1.7734375,7.61484375 3.01875,5.8421875 C3.01875,5.8421875 3.01875,5.8421875 3.01875,5.8421875 L3.01796875,5.84296875 Z M1.00625,12.7875 C1.00625,12.7875 1.00625,12.7398438 1.00625,12.7398438 C1.00625,12.7398438 7.8546875,12.7398438 7.8546875,12.7398438 C7.90234375,14.5117188 8.04609375,15.996875 8.2375,17.2414063 C8.2375,17.2414063 8.2375,17.2414063 8.2375,17.2414063 C6.465625,17.3851562 4.69375,17.8640625 2.82578125,18.678125 C2.82578125,18.678125 2.82578125,18.678125 2.82578125,18.678125 C1.72421875,16.7625 1.1015625,14.7984375 1.00625,12.7875 C1.00625,12.7875 1.00625,12.7875 1.00625,12.7875 Z M3.54453125,19.396875 C3.54453125,19.396875 3.54453125,19.3492187 3.54453125,19.3492187 C5.125,18.7265625 6.6578125,18.2953125 8.23828125,18.05625 C8.23828125,18.05625 8.23828125,18.05625 8.23828125,18.05625 C8.66953125,20.115625 9.4359375,21.8875 10.4414063,23.4203125 C10.4414063,23.4203125 10.4414063,23.4203125 10.4414063,23.4203125 C7.615625,22.89375 5.3171875,21.5523437 3.54453125,19.3976562 C3.54453125,19.3976562 3.54453125,19.3976562 3.54453125,19.3976562 L3.54453125,19.396875 Z M13.8898438,21.9828125 C13.3148438,22.9882812 12.7882813,23.515625 12.2617188,23.515625 C11.7351563,23.515625 11.2078125,22.9890625 10.68125,21.9351563 C10.10625,20.9296875 9.67578125,19.540625 9.340625,17.8640625 C9.340625,17.8640625 9.340625,17.8640625 9.340625,17.8640625 C10.1070313,17.7203125 11.1125,17.6726562 12.3101563,17.6726562 C12.3101563,17.6726562 12.3101563,17.6726562 12.3101563,17.6726562 C13.4117188,17.6726562 14.4171875,17.7203125 15.2796875,17.8640625 C15.2796875,17.8640625 15.2796875,17.8640625 15.2796875,17.8640625 C14.896875,19.5882813 14.4179688,20.9773438 13.890625,21.9828125 L13.8898438,21.9828125 Z M14.1773438,23.371875 C14.1773438,23.371875 14.1296875,23.371875 14.1296875,23.371875 C15.1835938,21.74375 15.8539063,19.971875 16.1414063,18.0554687 C16.1414063,18.0554687 16.1414063,18.0554687 16.1414063,18.0554687 C17.8179688,18.2945313 19.49375,18.7742187 21.1703125,19.4445312 C21.1703125,19.4445312 21.1703125,19.4445312 21.1703125,19.4445312 C19.1585938,21.6 16.8117188,22.8929688 14.178125,23.371875 C14.178125,23.371875 14.178125,23.371875 14.178125,23.371875 L14.1773438,23.371875 Z M21.5046875,18.678125 C21.5046875,18.678125 21.5523438,18.6304688 21.5523438,18.6304688 C19.971875,17.9117187 18.2476563,17.4328125 16.428125,17.0976562 C16.428125,17.0976562 16.428125,17.0976562 16.428125,17.0976562 C16.571875,15.3734375 16.6195313,13.9367187 16.6671875,12.7875 C16.6671875,12.7875 16.6671875,12.7875 16.6671875,12.7875 C16.6671875,12.7875 23.515625,12.7398438 23.515625,12.7398438 C23.4195313,14.8953125 22.7492188,16.90625 21.5039063,18.6789062 C21.5039063,18.6789062 21.5039063,18.6789062 21.5039063,18.6789062 L21.5046875,18.678125 Z M23.5164063,11.7335937 C23.5164063,11.7335937 16.6679688,11.78125 16.6679688,11.78125 C16.6203125,10.009375 16.4765625,8.52421875 16.2851563,7.2796875 C16.2851563,7.2796875 16.2851563,7.2796875 16.2851563,7.2796875 C18.0570313,7.1359375 19.8289063,6.65703125 21.696875,5.84296875 C21.696875,5.84296875 21.696875,5.84296875 21.696875,5.84296875 C22.7984375,7.7109375 23.4210938,9.67421875 23.5164063,11.7335938 C23.5164063,11.7335938 23.5164063,11.7335938 23.5164063,11.7335938 L23.5164063,11.7335937 Z"/>
  <title>Globe</title>
</svg>