<svg xmlns="http://www.w3.org/2000/svg" viewBox="0 0 25 25" id="globe-solid">
  <path d="M15.6609375,11.7328125 C15.6609375,11.7328125 15.6609375,11.7804688 15.6609375,11.7804688 C15.6609375,11.7804688 8.8125,11.7804688 8.8125,11.7804688 C8.8125,10.2960938 8.90859375,8.8109375 9.1,7.421875 C9.1,7.421875 9.1,7.421875 9.1,7.421875 C9.96171875,7.6609375 11.015625,7.8046875 12.2132812,7.8046875 C12.2132812,7.8046875 12.2132812,7.8046875 12.2132812,7.8046875 C13.21875,7.8046875 14.3203125,7.70859375 15.5179687,7.565625 C15.5179687,7.565625 15.5179687,7.565625 15.5179687,7.565625 C15.6140625,10.05625 15.6617188,11.4453125 15.6617188,11.7320313 C15.6617188,11.7320313 15.6617188,11.7320313 15.6617188,11.7320313 L15.6609375,11.7328125 Z M8.1421875,7.27890625 C8.1421875,7.27890625 8.1421875,7.4703125 8.1421875,7.4703125 C5.84296875,7.0390625 3.7359375,6.36875 1.86796875,5.4109375 C1.86796875,5.4109375 1.86796875,5.4109375 1.86796875,5.4109375 C0.71875,7.37421875 0.09609375,9.48203125 0,11.7328125 C0,11.7328125 0,11.7328125 0,11.7328125 C0,11.7328125 7.80625,11.7804687 7.80625,11.7804687 C7.85390625,10.05625 7.99765625,8.571875 8.14140625,7.27890625 C8.14140625,7.27890625 8.14140625,7.27890625 8.14140625,7.27890625 L8.1421875,7.27890625 Z M9.1,17.0492188 C9.1,17.0492188 9.1,16.9054687 9.1,16.9054687 C10.1054688,16.7617188 11.159375,16.6664062 12.2132812,16.6664062 C12.2132812,16.6664062 12.2132812,16.6664062 12.2132812,16.6664062 C13.21875,16.6664062 14.3203125,16.7625 15.5179687,16.9054687 C15.5179687,16.9054687 15.5179687,16.9054687 15.5179687,16.9054687 C15.6140625,14.4148437 15.6617188,13.0257812 15.6617188,12.7867187 C15.6617188,12.7867187 15.6617188,12.7867187 15.6617188,12.7867187 C15.6617188,12.7867187 8.81328125,12.7390625 8.81328125,12.7390625 C8.81328125,14.2234375 8.909375,15.6601562 9.10078125,17.0492188 C9.10078125,17.0492188 9.10078125,17.0492188 9.10078125,17.0492188 L9.1,17.0492188 Z M7.8546875,12.7867187 C7.8546875,12.7867187 7.80703125,12.7390625 7.80703125,12.7390625 C7.80703125,12.7390625 0.00078125,12.7390625 0.00078125,12.7390625 C0.096875,15.0859375 0.7671875,17.1929688 2.0125,19.0609375 C2.0125,19.0609375 2.0125,19.0609375 2.0125,19.0609375 C3.88046875,18.103125 5.8921875,17.4328125 7.99921875,17.0492188 C7.99921875,17.0492188 7.99921875,17.0492188 7.99921875,17.0492188 C7.903125,14.4632812 7.85546875,13.0265625 7.85546875,12.7867187 C7.85546875,12.7867187 7.85546875,12.7867187 7.85546875,12.7867187 L7.8546875,12.7867187 Z M15.2296875,18.0070313 C15.2296875,18.0070313 15.2296875,17.8632812 15.2296875,17.8632812 C14.415625,17.7195312 13.4101563,17.671875 12.2125,17.671875 C12.2125,17.671875 12.2125,17.671875 12.2125,17.671875 C11.0632813,17.671875 10.009375,17.7195312 9.09921875,17.8632812 C9.09921875,17.8632812 9.09921875,17.8632812 9.09921875,17.8632812 C9.53046875,19.5398438 9.865625,20.7367188 10.1046875,21.4554688 C10.1046875,21.4554688 10.1046875,21.4554688 10.1046875,21.4554688 C10.4398438,22.4132813 10.775,23.1796875 11.20625,23.70625 C11.5890625,24.2328125 11.925,24.5203125 12.2117188,24.5203125 C12.2117188,24.5203125 12.2117188,24.5203125 12.2117188,24.5203125 C12.546875,24.5203125 12.8820313,24.2328125 13.3132812,23.6585938 C13.6960937,23.1320313 14.0796875,22.3179687 14.4148437,21.3117188 C14.4148437,21.3117188 14.4148437,21.3117188 14.4148437,21.3117188 C14.75,20.30625 15.0375,19.2046875 15.2289063,18.0070312 C15.2289063,18.0070312 15.2289063,18.0070312 15.2289063,18.0070312 L15.2296875,18.0070313 Z M9.24296875,6.5125 C9.24296875,6.5125 9.24296875,6.60859375 9.24296875,6.60859375 C10.0570312,6.75234375 11.0148437,6.8 12.2125,6.8 C13.4101563,6.8 14.4632813,6.75234375 15.3734375,6.60859375 C15.3734375,6.60859375 15.3734375,6.60859375 15.3734375,6.60859375 C14.9421875,4.884375 14.6070313,3.6875 14.3679688,3.06484375 C14.3679688,3.06484375 14.3679688,3.06484375 14.3679688,3.06484375 C14.0328125,2.10703125 13.6976563,1.340625 13.3140625,0.8140625 C12.8828125,0.2875 12.5476562,0 12.2125,0 C12.2125,0 12.2125,0 12.2125,0 C11.925,0 11.5898438,0.2875 11.1585937,0.8140625 C10.7273437,1.3890625 10.3921875,2.203125 10.0570312,3.20859375 C10.0570312,3.20859375 10.0570312,3.20859375 10.0570312,3.20859375 C9.721875,4.2140625 9.434375,5.315625 9.24296875,6.51328125 C9.24296875,6.51328125 9.24296875,6.51328125 9.24296875,6.51328125 L9.24296875,6.5125 Z M16.33125,17.240625 C16.33125,17.240625 16.33125,17.0492187 16.33125,17.0492187 C18.4382812,17.384375 20.5460938,18.0546875 22.6054688,19.0609375 C22.6054688,19.0609375 22.6054688,19.0609375 22.6054688,19.0609375 C23.7546875,17.0976562 24.3773438,14.9898437 24.4734375,12.7867187 C24.4734375,12.7867187 24.4734375,12.7867187 24.4734375,12.7867187 C24.4734375,12.7867187 16.61875,12.7390625 16.61875,12.7390625 C16.61875,14.2234375 16.5226562,15.75625 16.33125,17.240625 C16.33125,17.240625 16.33125,17.240625 16.33125,17.240625 L16.33125,17.240625 Z M10.4882812,0.0953125 C10.4882812,0.0953125 10.440625,0.14296875 10.440625,0.14296875 C7.23203125,0.621875 4.6453125,2.10625 2.634375,4.64453125 C2.634375,4.64453125 2.634375,4.64453125 2.634375,4.64453125 C4.3109375,5.45859375 6.13046875,6.08125 8.1421875,6.46484375 C8.1421875,6.46484375 8.1421875,6.46484375 8.1421875,6.46484375 C8.525,4.11796875 9.29140625,2.0109375 10.4890625,0.0953125 C10.4890625,0.0953125 10.4890625,0.0953125 10.4890625,0.0953125 L10.4882812,0.0953125 Z M13.984375,24.4242188 C13.984375,24.4242188 14.0320313,24.3765625 14.0320313,24.3765625 C17.240625,23.8976563 19.875,22.3648438 21.8382813,19.8265625 C21.8382813,19.8265625 21.8382813,19.8265625 21.8382813,19.8265625 C20.2578125,19.0125 18.3898438,18.3898438 16.3304688,18.0070313 C16.3304688,18.0070313 16.3304688,18.0070313 16.3304688,18.0070313 C15.9476563,20.4492188 15.18125,22.6046875 13.9835938,24.425 C13.9835938,24.425 13.9835938,24.425 13.9835938,24.425 L13.984375,24.4242188 Z M2.44296875,19.875 C2.44296875,19.875 2.58671875,19.8273437 2.58671875,19.8273437 C4.64609375,22.365625 7.23203125,23.8984375 10.3929688,24.3773437 C10.3929688,24.3773437 10.3929688,24.3773437 10.3929688,24.3773437 C9.1953125,22.4140625 8.525,20.30625 8.2859375,18.0554687 C8.2859375,18.0554687 8.2859375,18.0554687 8.2859375,18.0554687 C6.2265625,18.390625 4.26328125,18.965625 2.44296875,19.875 C2.44296875,19.875 2.44296875,19.875 2.44296875,19.875 L2.44296875,19.875 Z M21.9828125,4.596875 C21.9828125,4.596875 21.8390625,4.69296875 21.8390625,4.69296875 C19.8757812,2.1546875 17.2890625,0.621875 14.0804687,0.14296875 C14.0804687,0.14296875 14.0804687,0.14296875 14.0804687,0.14296875 C15.278125,2.20234375 15.9484375,4.26171875 16.1875,6.4171875 C16.1875,6.4171875 16.1875,6.4171875 16.1875,6.4171875 C18.1992187,6.08203125 20.1148437,5.50703125 21.9828125,4.59765625 C21.9828125,4.59765625 21.9828125,4.59765625 21.9828125,4.59765625 L21.9828125,4.596875 Z M16.61875,11.7328125 C16.61875,11.7328125 16.61875,11.7804688 16.61875,11.7804688 C16.61875,11.7804688 24.4734375,11.7804688 24.4734375,11.7804688 C24.3773438,9.3859375 23.7070312,7.27890625 22.4140625,5.45859375 C22.4140625,5.45859375 22.4140625,5.45859375 22.4140625,5.45859375 C20.6898438,6.36875 18.7265625,7.0390625 16.475,7.421875 C16.475,7.421875 16.475,7.421875 16.475,7.421875 C16.5710938,10.0078125 16.61875,11.4445313 16.61875,11.7320313 C16.61875,11.7320313 16.61875,11.7320313 16.61875,11.7320313 L16.61875,11.7328125 Z"/>
  <title>Globe Solid</title>
</svg>