<svg xmlns="http://www.w3.org/2000/svg" viewBox="0 0 25 25" id="google">
  <path d="M19.9898438,12.8539063 C19.9898438,12.8539063 19.9898438,12.8539063 19.9898438,12.8539063 C19.9898438,14.3382812 19.7023437,15.5835938 19.0796875,16.6851562 C19.0796875,16.6851562 19.0796875,16.6851562 19.0796875,16.6851562 C18.5046875,17.7867187 17.6429688,18.696875 16.49375,19.3671875 C16.49375,19.3671875 16.49375,19.3671875 16.49375,19.3671875 C15.3921875,19.9898437 14.0992187,20.325 12.6625,20.325 C12.6625,20.325 12.6625,20.325 12.6625,20.325 C11.7046875,20.325 10.6992188,20.1335937 9.69296875,19.7023437 C9.69296875,19.7023437 9.69296875,19.7023437 9.69296875,19.7023437 C8.83125,19.3671875 8.01640625,18.7921875 7.25078125,18.0742188 C7.25078125,18.0742188 7.25078125,18.0742188 7.25078125,18.0742188 C6.58046875,17.4515625 6.00546875,16.6375 5.62265625,15.6320312 C5.62265625,15.6320312 5.62265625,15.6320312 5.62265625,15.6320312 C5.23984375,14.721875 5,13.7164063 5,12.6625 C5,11.6085937 5.2390625,10.603125 5.62265625,9.69296875 C5.62265625,9.69296875 5.62265625,9.69296875 5.62265625,9.69296875 C6.00546875,8.7828125 6.5328125,7.96875 7.25078125,7.25078125 C7.96875,6.5328125 8.83125,5.9578125 9.69296875,5.62265625 C9.69296875,5.62265625 9.69296875,5.62265625 9.69296875,5.62265625 C10.6984375,5.19140625 11.7046875,5 12.6625,5 C12.6625,5 12.6625,5 12.6625,5 C14.6742187,5 16.35,5.6703125 17.7867187,7.01171875 C17.7867187,7.01171875 17.7867187,7.01171875 17.7867187,7.01171875 C17.7867187,7.01171875 15.6796875,9.0234375 15.6796875,9.0234375 C14.9132813,8.209375 13.9078125,7.82578125 12.6625,7.82578125 C12.6625,7.82578125 12.6625,7.82578125 12.6625,7.82578125 C11.8007812,7.82578125 11.034375,8.06484375 10.2679688,8.49609375 C10.2679688,8.49609375 10.2679688,8.49609375 10.2679688,8.49609375 C9.54921875,8.92734375 8.975,9.5015625 8.54375,10.2203125 C8.54375,10.2203125 8.54375,10.2203125 8.54375,10.2203125 C8.1609375,10.9390625 7.92109375,11.753125 7.92109375,12.6625 C7.92109375,13.571875 8.16015625,14.3867187 8.54375,15.1046875 C8.54375,15.1046875 8.54375,15.1046875 8.54375,15.1046875 C8.975,15.8234375 9.54921875,16.3976562 10.2679688,16.8289062 C10.2679688,16.8289062 10.2679688,16.8289062 10.2679688,16.8289062 C11.034375,17.2601562 11.8007813,17.4992187 12.6625,17.4992187 C12.6625,17.4992187 12.6625,17.4992187 12.6625,17.4992187 C13.1890625,17.4992187 13.7164063,17.403125 14.2429688,17.2601562 C14.2429688,17.2601562 14.2429688,17.2601562 14.2429688,17.2601562 C14.6257813,17.1164062 15.0570313,16.925 15.440625,16.6375 C15.440625,16.6375 15.440625,16.6375 15.440625,16.6375 C15.8234375,16.3023437 16.1109375,16.0625 16.2546875,15.8234375 C16.2546875,15.8234375 16.2546875,15.8234375 16.2546875,15.8234375 C16.4460938,15.6320312 16.5898438,15.3445312 16.78125,14.9617187 C16.78125,14.9617187 16.78125,14.9617187 16.78125,14.9617187 C16.8773438,14.7703125 16.925,14.5304687 16.9726563,14.1953125 C16.9726563,14.1953125 16.9726563,14.1953125 16.9726563,14.1953125 C16.9726563,14.1953125 12.6625,14.1953125 12.6625,14.1953125 C12.6625,14.1953125 12.6625,11.5609375 12.6625,11.5609375 C12.6625,11.5609375 19.8460938,11.5609375 19.8460938,11.5609375 C19.9421875,11.9921875 19.9898438,12.4226562 19.9898438,12.8539062 L19.9898438,12.8539063 Z"/>
  <title>Google</title>
</svg>