<svg xmlns="http://www.w3.org/2000/svg" viewBox="0 0 25 25" id="government-solid">
  <path d="M1.29296875,21.2640625 C1.053125,21.0726562 0.9578125,20.8328125 0.9578125,20.59375 C0.9578125,20.3546875 1.05390625,20.1148437 1.29296875,19.9234375 C1.484375,19.7320312 1.72421875,19.6359375 1.96328125,19.6359375 C1.96328125,19.6359375 1.96328125,19.6359375 1.96328125,19.6359375 C1.96328125,19.6359375 1.96328125,12.7390625 1.96328125,12.7390625 C1.96328125,12.7390625 4.884375,12.7390625 4.884375,12.7390625 C4.884375,12.7390625 4.884375,19.6359375 4.884375,19.6359375 C4.884375,19.6359375 7.85390625,19.6359375 7.85390625,19.6359375 C7.85390625,19.6359375 7.85390625,12.7390625 7.85390625,12.7390625 C7.85390625,12.7390625 10.775,12.7390625 10.775,12.7390625 C10.775,12.7390625 10.775,19.6359375 10.775,19.6359375 C10.775,19.6359375 13.7445312,19.6359375 13.7445312,19.6359375 C13.7445312,19.6359375 13.7445312,12.7390625 13.7445312,12.7390625 C13.7445312,12.7390625 16.665625,12.7390625 16.665625,12.7390625 C16.665625,12.7390625 16.665625,19.6359375 16.665625,19.6359375 C16.665625,19.6359375 19.6351562,19.6359375 19.6351562,19.6359375 C19.6351562,19.6359375 19.6351562,12.7390625 19.6351562,12.7390625 C19.6351562,12.7390625 22.55625,12.7390625 22.55625,12.7390625 C22.55625,12.7390625 22.55625,19.6359375 22.55625,19.6359375 C22.7953125,19.6359375 23.0351562,19.7320312 23.275,19.9234375 C23.4664062,20.1148437 23.5625,20.3546875 23.5625,20.59375 C23.5625,20.8328125 23.4664062,21.0726562 23.275,21.2640625 C23.0359375,21.503125 22.7960937,21.5992187 22.55625,21.5992187 C22.55625,21.5992187 22.55625,21.5992187 22.55625,21.5992187 C22.55625,21.5992187 1.9625,21.5992187 1.9625,21.5992187 C1.7234375,21.5992187 1.48359375,21.503125 1.2921875,21.2640625 L1.29296875,21.2640625 Z M23.5632812,22.5578125 C23.5632812,22.5578125 23.5632812,22.5578125 23.5632812,22.5578125 C23.5632812,22.5578125 0.9578125,22.5578125 0.9578125,22.5578125 C0.71875,22.5578125 0.47890625,22.6539063 0.2875,22.8453125 C0.09609375,23.0367187 0,23.2765625 0,23.515625 C0,23.515625 0,23.515625 0,23.515625 C0,23.803125 0.09609375,24.0421875 0.2875,24.234375 C0.47890625,24.4265625 0.71875,24.521875 0.9578125,24.521875 C0.9578125,24.521875 0.9578125,24.521875 0.9578125,24.521875 C0.9578125,24.521875 23.5632812,24.521875 23.5632812,24.521875 C23.8023438,24.521875 24.0421875,24.4257812 24.2335937,24.234375 C24.425,24.0429688 24.5210937,23.803125 24.5210937,23.515625 C24.5210937,23.515625 24.5210937,23.515625 24.5210937,23.515625 C24.5210937,23.2765625 24.425,23.0367187 24.2335937,22.8453125 C24.0421875,22.6539062 23.8023437,22.5578125 23.5632812,22.5578125 Z M1.484375,11.7820312 C1.484375,11.7820312 1.484375,11.7820312 1.484375,11.7820312 C1.484375,11.7820312 23.0359375,11.7820312 23.0359375,11.7820312 C23.3710938,11.7820312 23.5625,11.590625 23.5625,11.2554688 C23.5625,11.2554688 23.5625,11.2554688 23.5625,11.2554688 C23.5625,11.2554688 23.5625,10.2976562 23.5625,10.2976562 C23.5625,9.9625 23.3710938,9.81875 23.0359375,9.81875 C23.0359375,9.81875 23.0359375,9.81875 23.0359375,9.81875 C23.0359375,9.81875 1.484375,9.81875 1.484375,9.81875 C1.14921875,9.81875 0.9578125,9.9625 0.9578125,10.2976562 C0.9578125,10.2976562 0.9578125,10.2976562 0.9578125,10.2976562 C0.9578125,10.2976562 0.9578125,11.2554687 0.9578125,11.2554687 C0.9578125,11.590625 1.14921875,11.7820312 1.484375,11.7820312 L1.484375,11.7820312 Z M12.7875,1.96328125 C12.7875,1.96328125 12.7398437,1.96328125 12.7398437,1.96328125 C12.7398437,1.96328125 12.7398437,0.47890625 12.7398437,0.47890625 C12.7398437,0.14375 12.5960937,0 12.2609375,0 C11.9257812,0 11.7820312,0.14375 11.7820312,0.47890625 C11.7820312,0.47890625 11.7820312,0.47890625 11.7820312,0.47890625 C11.7820312,0.47890625 11.7820312,1.96328125 11.7820312,1.96328125 C9.7703125,2.10703125 7.9984375,2.77734375 6.465625,4.02265625 C4.88515625,5.26796875 3.83125,6.8484375 3.3046875,8.7640625 C3.3046875,8.7640625 3.3046875,8.7640625 3.3046875,8.7640625 C3.3046875,8.7640625 21.2164062,8.81171875 21.2164062,8.81171875 C20.6898437,6.89609375 19.6359375,5.315625 18.103125,4.02265625 C16.5703125,2.77734375 14.7984375,2.10703125 12.7867187,1.96328125 C12.7867187,1.96328125 12.7867187,1.96328125 12.7867187,1.96328125 L12.7875,1.96328125 Z"/>
  <title>Government Solid</title>
</svg>