<svg xmlns="http://www.w3.org/2000/svg" viewBox="0 0 25 25" id="government">
  <path d="M23.5632812,21.5992187 C23.5632812,21.5992187 23.5632812,21.5992187 23.5632812,21.5992187 C23.5632812,21.5992187 23.5632812,20.59375 23.5632812,20.59375 C23.5632812,20.3546875 23.4671875,20.1148437 23.2757813,19.9234375 C23.0367187,19.7320312 22.796875,19.6359375 22.5570313,19.6359375 C22.5570313,19.6359375 22.5570313,19.6359375 22.5570313,19.6359375 C22.5570313,19.6359375 22.5570313,12.7390625 22.5570313,12.7390625 C22.7960938,12.7390625 23.0359375,12.6429687 23.2757813,12.4515625 C23.4671875,12.2601563 23.5632812,12.0203125 23.5632812,11.78125 C23.5632812,11.78125 23.5632812,11.78125 23.5632812,11.78125 C23.5632812,11.78125 23.5632812,10.7757813 23.5632812,10.7757813 C23.5632812,10.5367188 23.4671875,10.296875 23.2757813,10.1054688 C23.0367187,9.9140625 22.796875,9.81796875 22.5570313,9.81796875 C22.5570313,9.81796875 22.5570313,9.81796875 22.5570313,9.81796875 C22.5570313,9.81796875 21.4554687,9.81796875 21.4554687,9.81796875 C21.1203125,7.6625 20.1148437,5.84296875 18.4859375,4.3578125 C16.8570312,2.87265625 14.9421875,2.10703125 12.7867187,1.96328125 C12.7867187,1.96328125 12.7867187,1.96328125 12.7867187,1.96328125 C12.7867187,1.96328125 12.7390625,0.47890625 12.7390625,0.47890625 C12.7390625,0.14375 12.5953125,0 12.2601562,0 C11.925,0 11.78125,0.14375 11.78125,0.47890625 C11.78125,0.47890625 11.78125,0.47890625 11.78125,0.47890625 C11.78125,0.47890625 11.78125,1.96328125 11.78125,1.96328125 C9.578125,2.10703125 7.6625,2.8734375 6.034375,4.3578125 C4.40625,5.8421875 3.4,7.61484375 3.06484375,9.76953125 C3.06484375,9.76953125 3.06484375,9.76953125 3.06484375,9.76953125 C3.06484375,9.76953125 1.96328125,9.8171875 1.96328125,9.8171875 C1.72421875,9.8171875 1.484375,9.91328125 1.29296875,10.1046875 C1.05390625,10.2960938 0.9578125,10.5359375 0.9578125,10.775 C0.9578125,10.775 0.9578125,10.775 0.9578125,10.775 C0.9578125,10.775 0.9578125,11.7804688 0.9578125,11.7804688 C0.9578125,12.0195313 1.05390625,12.259375 1.29296875,12.4507813 C1.484375,12.6421875 1.72421875,12.7382812 1.96328125,12.7382812 C1.96328125,12.7382812 1.96328125,12.7382812 1.96328125,12.7382812 C1.96328125,12.7382812 1.96328125,19.6351563 1.96328125,19.6351563 C1.72421875,19.6351563 1.484375,19.73125 1.29296875,19.9226562 C1.05390625,20.1140625 0.9578125,20.3539063 0.9578125,20.5929688 C0.9578125,20.5929688 0.9578125,20.5929688 0.9578125,20.5929688 C0.9578125,20.5929688 0.9578125,21.5984375 0.9578125,21.5984375 C0.71875,21.5984375 0.47890625,21.6945313 0.2875,21.8859375 C0.09609375,22.0773437 0,22.3171875 0,22.55625 C0,22.55625 0,22.55625 0,22.55625 C0,22.55625 0,23.5140625 0,23.5140625 C0,23.8015625 0.09609375,24.040625 0.2875,24.2328125 C0.47890625,24.425 0.71875,24.5203125 0.9578125,24.5203125 C0.9578125,24.5203125 0.9578125,24.5203125 0.9578125,24.5203125 C0.9578125,24.5203125 23.5632812,24.5203125 23.5632812,24.5203125 C23.8023437,24.5203125 24.0421875,24.4242187 24.2335937,24.2328125 C24.425,24.0414063 24.5210937,23.8015625 24.5210937,23.5140625 C24.5210937,23.5140625 24.5210937,23.5140625 24.5210937,23.5140625 C24.5210937,23.5140625 24.5210937,22.55625 24.5210937,22.55625 C24.5210937,22.3171875 24.425,22.0773438 24.2335937,21.8859375 C24.0421875,21.6945312 23.8023437,21.5984375 23.5632812,21.5984375 L23.5632812,21.5992187 Z M6.94453125,4.884375 C8.47734375,3.59140625 10.2492188,2.92109375 12.2609375,2.92109375 C14.2726563,2.92109375 16.0445313,3.59140625 17.625,4.884375 C19.1578125,6.17734375 20.115625,7.80546875 20.4507813,9.76953125 C20.4507813,9.76953125 20.4507813,9.76953125 20.4507813,9.76953125 C20.4507813,9.76953125 4.07109375,9.8171875 4.07109375,9.8171875 C4.40625,7.85390625 5.3640625,6.17734375 6.94453125,4.884375 Z M1.96328125,11.78125 C1.96328125,11.78125 1.96328125,10.7757812 1.96328125,10.7757812 C1.96328125,10.7757812 22.5570313,10.7757812 22.5570313,10.7757812 C22.5570313,10.7757812 22.5570313,11.78125 22.5570313,11.78125 C22.5570313,11.78125 1.96328125,11.78125 1.96328125,11.78125 L1.96328125,11.78125 Z M20.59375,12.7390625 C20.59375,12.7390625 21.5992187,12.7390625 21.5992187,12.7390625 C21.5992187,12.7390625 21.5992187,19.6359375 21.5992187,19.6359375 C21.5992187,19.6359375 20.59375,19.6359375 20.59375,19.6359375 C20.59375,19.6359375 20.59375,12.7390625 20.59375,12.7390625 Z M16.6664063,12.7390625 C16.6664063,12.7390625 19.6359375,12.7390625 19.6359375,12.7390625 C19.6359375,12.7390625 19.6359375,19.6359375 19.6359375,19.6359375 C19.6359375,19.6359375 16.6664063,19.6359375 16.6664063,19.6359375 C16.6664063,19.6359375 16.6664063,12.7390625 16.6664063,12.7390625 L16.6664063,12.7390625 Z M14.703125,12.7390625 C14.703125,12.7390625 15.7085937,12.7390625 15.7085937,12.7390625 C15.7085937,12.7390625 15.7085937,19.6359375 15.7085937,19.6359375 C15.7085937,19.6359375 14.703125,19.6359375 14.703125,19.6359375 C14.703125,19.6359375 14.703125,12.7390625 14.703125,12.7390625 Z M10.7757812,12.7390625 C10.7757812,12.7390625 13.7453125,12.7390625 13.7453125,12.7390625 C13.7453125,12.7390625 13.7453125,19.6359375 13.7453125,19.6359375 C13.7453125,19.6359375 10.7757812,19.6359375 10.7757812,19.6359375 C10.7757812,19.6359375 10.7757812,12.7390625 10.7757812,12.7390625 Z M8.8125,12.7390625 C8.8125,12.7390625 9.81796875,12.7390625 9.81796875,12.7390625 C9.81796875,12.7390625 9.81796875,19.6359375 9.81796875,19.6359375 C9.81796875,19.6359375 8.8125,19.6359375 8.8125,19.6359375 C8.8125,19.6359375 8.8125,12.7390625 8.8125,12.7390625 Z M4.88515625,12.7390625 C4.88515625,12.7390625 7.8546875,12.7390625 7.8546875,12.7390625 C7.8546875,12.7390625 7.8546875,19.6359375 7.8546875,19.6359375 C7.8546875,19.6359375 4.88515625,19.6359375 4.88515625,19.6359375 C4.88515625,19.6359375 4.88515625,12.7390625 4.88515625,12.7390625 L4.88515625,12.7390625 Z M2.921875,12.7390625 C2.921875,12.7390625 3.92734375,12.7390625 3.92734375,12.7390625 C3.92734375,12.7390625 3.92734375,19.6359375 3.92734375,19.6359375 C3.92734375,19.6359375 2.921875,19.6359375 2.921875,19.6359375 C2.921875,19.6359375 2.921875,12.7390625 2.921875,12.7390625 Z M1.96328125,21.5992187 C1.96328125,21.5992187 1.96328125,20.59375 1.96328125,20.59375 C1.96328125,20.59375 22.5570313,20.59375 22.5570313,20.59375 C22.5570313,20.59375 22.5570313,21.5992187 22.5570313,21.5992187 C22.5570313,21.5992187 1.96328125,21.5992187 1.96328125,21.5992187 Z M23.5632813,22.5570312 C23.5632813,22.5570312 23.5632813,23.5148437 23.5632813,23.5148437 C23.5632813,23.5148437 0.9578125,23.5148437 0.9578125,23.5148437 C0.9578125,23.5148437 0.9578125,22.5570312 0.9578125,22.5570312 C0.9578125,22.5570312 23.5632813,22.5570312 23.5632813,22.5570312 Z"/>
  <title>Government</title>
</svg>