<svg xmlns="http://www.w3.org/2000/svg" viewBox="0 0 25 25" id="grad-solid">
  <g fill="none" fill-rule="evenodd">
    <path fill="#000" fill-rule="nonzero" d="M13.3625,10.1726562 C13.3625,10.1726562 13.3625,10.1726562 13.3625,10.1726562 C13.3625,10.1726562 20.115625,11.6570312 20.115625,11.6570312 C20.115625,11.6570312 12.2609375,14.8179688 12.2609375,14.8179688 C12.2609375,14.8179688 0,9.88515625 0,9.88515625 C0,9.88515625 12.2609375,5 12.2609375,5 C12.2609375,5 24.5210937,9.88515625 24.5210937,9.88515625 C24.5210937,9.88515625 21.5039062,11.1304687 21.5039062,11.1304687 C21.45625,11.0828125 21.3601562,10.9867188 21.2164062,10.8914062 C21.2164062,10.8914062 21.2164062,10.8914062 21.2164062,10.8914062 C21.2164062,10.8914062 14.3679687,9.35859375 14.3679687,9.35859375 C14.0804687,9.07109375 13.4578125,8.92734375 12.5,8.92734375 C12.5,8.92734375 12.5,8.92734375 12.5,8.92734375 C12.5,8.92734375 12.3085937,8.92734375 12.3085937,8.92734375 C12.3085937,8.92734375 12.1648437,8.92734375 12.1648437,8.92734375 C11.0632812,8.975 10.5367187,9.21484375 10.5367187,9.55 C10.5367187,9.55 10.5367187,9.55 10.5367187,9.55 C10.5367187,9.98125 11.2070312,10.2203125 12.5,10.2203125 C12.5,10.2203125 12.5,10.2203125 12.5,10.2203125 C12.93125,10.2203125 13.21875,10.2203125 13.3617187,10.1726563 L13.3625,10.1726562 Z M12.2617188,15.8242188 C12.2617188,15.8242188 18.63125,13.2859375 18.63125,13.2859375 C18.63125,13.2859375 18.63125,16.2554687 18.63125,16.2554687 C18.63125,16.2554687 5.8921875,16.2554687 5.8921875,16.2554687 C5.8921875,16.2554687 5.8921875,13.2859375 5.8921875,13.2859375 C5.8921875,13.2859375 12.2617188,15.8242188 12.2617188,15.8242188 Z M5.89140625,16.2546875 C5.89140625,16.2546875 6.84921875,16.2546875 6.84921875,16.2546875 C6.84921875,16.2546875 18.6304687,16.2546875 18.6304687,16.2546875 C18.6304687,16.9734375 18.0078125,17.5476562 16.8109375,18.0265625 C15.565625,18.5054687 14.0328125,18.7453125 12.2609375,18.7453125 C10.4890625,18.7453125 8.95625,18.50625 7.759375,18.0265625 C6.5140625,17.5476562 5.89140625,16.9726562 5.89140625,16.2546875 C5.89140625,16.2546875 5.89140625,16.2546875 5.89140625,16.2546875 Z M21.6007812,15.7757813 C21.6007812,15.7757813 20.5953125,15.7757813 20.5953125,15.7757813 C20.5953125,15.7757813 20.5953125,16.2546875 20.5953125,16.2546875 C20.5953125,16.2546875 21.6007812,16.2546875 21.6007812,16.2546875 C21.6007812,16.2546875 21.6007812,15.7757813 21.6007812,15.7757813 Z"/>
    <path fill="#000" fill-rule="nonzero" d="M21.0742188,11.8492187 L21.1805481,11.8562425 C21.4495467,11.8935282 21.6007813,12.0778646 21.6007813,12.3757812 L21.6007813,12.3757812 L21.6007188,14.8172187 L21.7193685,14.8259729 C21.9176649,14.8526476 22.1108073,14.9459635 22.2703125,15.1054688 C22.4298177,15.264974 22.5231337,15.4581163 22.5498083,15.6564128 L22.5578125,15.7757813 L22.5578125,15.7757813 L22.5578125,17.2601563 L22.5578125,17.2601563 C22.5578125,17.5580729 22.4442323,17.704755 22.1836013,17.7336731 L22.0789063,17.7390625 L22.0789063,17.7390625 L20.115625,17.7390625 L20.115625,17.7390625 C19.8177083,17.7390625 19.6710262,17.6254823 19.6421082,17.3648513 L19.6367188,17.2601563 L19.6367188,17.2601563 L19.6367188,15.7757813 L19.6367188,15.7757813 C19.6367188,15.5367188 19.7328125,15.296875 19.9242188,15.1054688 C20.083724,14.9459635 20.2768663,14.8526476 20.4751628,14.8259729 L20.5945313,14.8179688 L20.5945313,14.8179688 L20.5947188,14.8172187 L20.5953125,12.3757812 L20.5953125,12.3757812 L20.6007019,12.2694519 C20.62962,12.0004533 20.7763021,11.8492187 21.0742188,11.8492187 L21.0742188,11.8492187 Z"/>
  </g>
  <title>Grad Solid</title>
</svg>