<svg xmlns="http://www.w3.org/2000/svg" viewBox="0 0 25 25" id="grad">
  <g fill="none" fill-rule="evenodd">
    <path fill="#000" fill-rule="nonzero" d="M12.2609375,5 C12.2609375,5 24.521875,9.88515625 24.521875,9.88515625 C24.521875,9.88515625 12.2609375,14.8179688 12.2609375,14.8179688 C12.2609375,14.8179688 -2.48689958e-13,9.88515625 -2.48689958e-13,9.88515625 C-2.48689958e-13,9.88515625 12.2609375,5 12.2609375,5 Z M12.2609375,6.05390625 C12.2609375,6.05390625 2.634375,9.88515625 2.634375,9.88515625 C2.634375,9.88515625 12.2609375,13.7648438 12.2609375,13.7648438 C12.2609375,13.7648438 21.8875,9.88515625 21.8875,9.88515625 C21.8875,9.88515625 12.2609375,6.05390625 12.2609375,6.05390625 Z"/>
    <path fill="#000" fill-rule="nonzero" d="M6.8484375 11.8484375C6.8484375 11.8484375 5.890625 11.8484375 5.890625 11.8484375 5.890625 11.8484375 5.890625 16.2546875 5.890625 16.2546875 5.890625 16.2546875 6.8484375 16.2546875 6.8484375 16.2546875 6.8484375 16.2546875 6.8484375 11.8484375 6.8484375 11.8484375zM18.6304687 11.8484375C18.6304687 11.8484375 17.6726562 11.8484375 17.6726562 11.8484375 17.6726562 11.8484375 17.6726562 16.2546875 17.6726562 16.2546875 17.6726562 16.2546875 18.6304687 16.2546875 18.6304687 16.2546875 18.6304687 16.2546875 18.6304687 11.8484375 18.6304687 11.8484375zM14.990625 17.4523438C14.1289062 17.64375 13.21875 17.7398437 12.2609375 17.7398437 11.303125 17.7398437 10.3929688 17.64375 9.53125 17.4523438 8.66953125 17.3085938 7.9984375 17.1171875 7.56796875 16.8773437 7.0890625 16.6382812 6.84921875 16.4460937 6.84921875 16.2546875 6.84921875 16.2546875 6.84921875 16.2546875 6.84921875 16.2546875 6.84921875 16.2546875 5.89140625 16.2546875 5.89140625 16.2546875 5.89140625 16.9734375 6.5140625 17.5476562 7.759375 18.0265625 8.95703125 18.5054687 10.4890625 18.7453125 12.2609375 18.7453125 14.0328125 18.7453125 15.565625 18.50625 16.8109375 18.0265625 18.0085938 17.5476562 18.6304687 16.9726562 18.6304687 16.2546875 18.6304687 16.2546875 18.6304687 16.2546875 18.6304687 16.2546875 18.6304687 16.2546875 17.6726563 16.2546875 17.6726563 16.2546875 17.6726563 16.4460937 17.4335938 16.6375 17.0023438 16.8773437 16.5234375 17.1164063 15.853125 17.3085938 14.990625 17.4523438zM12.1648437 9.88515625C12.1648437 9.88515625 12.1648437 9.88515625 12.1648437 9.88515625 12.1648437 9.88515625 20.9773438 11.8484375 20.9773438 11.8484375 21.3125 11.8960937 21.5039062 11.8007812 21.5523437 11.465625 21.5523437 11.465625 21.5523437 11.465625 21.5523437 11.465625 21.6960938 11.1304687 21.5523437 10.9390625 21.2171875 10.890625 21.2171875 10.890625 21.2171875 10.890625 21.2171875 10.890625 21.2171875 10.890625 12.3570312 8.92734375 12.3570312 8.92734375 12.021875 8.8796875 11.8304687 8.975 11.7820312 9.31015625 11.7335937 9.6453125 11.8296875 9.83671875 12.1648437 9.88515625L12.1648437 9.88515625z"/>
    <path fill="#000" fill-rule="nonzero" d="M21.6 15.296875C21.6 15.296875 21.6 15.296875 21.6 15.296875 21.6 15.296875 21.6 11.3695312 21.6 11.3695312 21.6 11.034375 21.4085938 10.890625 21.0734375 10.890625 21.0734375 10.890625 21.0734375 10.890625 21.0734375 10.890625 20.7382813 10.890625 20.5945312 11.034375 20.5945312 11.3695312 20.5945312 11.3695312 20.5945312 11.3695312 20.5945312 11.3695312 20.5945312 11.3695312 20.5945312 15.296875 20.5945312 15.296875 20.5945312 15.6320313 20.7382813 15.7757813 21.0734375 15.7757813 21.0734375 15.7757813 21.0734375 15.7757813 21.0734375 15.7757813 21.4085938 15.7757813 21.6 15.6320313 21.6 15.296875zM21.6 15.7757813C21.6 15.7757813 20.5945312 15.7757813 20.5945312 15.7757813 20.5945312 15.7757813 20.5945312 16.2546875 20.5945312 16.2546875 20.5945312 16.2546875 21.6 16.2546875 21.6 16.2546875 21.6 16.2546875 21.6 15.7757813 21.6 15.7757813z"/>
    <path fill="#000" fill-rule="nonzero" d="M20.59375 14.8179688C20.59375 14.8179688 20.59375 14.8179688 20.59375 14.8179688 20.59375 14.8179688 21.5992187 14.8179688 21.5992187 14.8179688 21.8382812 14.8179688 22.078125 14.9140625 22.2695312 15.1054688 22.4609375 15.296875 22.5570312 15.5367187 22.5570312 15.7757812 22.5570312 15.7757812 22.5570312 15.7757812 22.5570312 15.7757812 22.5570312 15.7757812 22.5570312 16.2546875 22.5570312 16.2546875 22.5570312 16.5421875 22.4609375 16.78125 22.2695312 16.9734375 22.078125 17.165625 21.8382812 17.2609375 21.5992187 17.2609375 21.5992187 17.2609375 21.5992187 17.2609375 21.5992187 17.2609375 21.5992187 17.2609375 20.59375 17.2609375 20.59375 17.2609375 20.3546875 17.2609375 20.1148437 17.1648437 19.9234375 16.9734375 19.7320312 16.7820313 19.6359375 16.5421875 19.6359375 16.2546875 19.6359375 16.2546875 19.6359375 16.2546875 19.6359375 16.2546875 19.6359375 16.2546875 19.6359375 15.7757812 19.6359375 15.7757812 19.6359375 15.5367187 19.7320312 15.296875 19.9234375 15.1054688 20.1148437 14.9140625 20.3546875 14.8179688 20.59375 14.8179688zM14.4632812 9.55C14.4632812 9.55 14.4632812 9.55 14.4632812 9.55 14.4632812 9.3109375 14.271875 9.07109375 13.8882813 8.8796875 13.5046875 8.68828125 13.0265625 8.5921875 12.4992188 8.5921875 11.9726562 8.5921875 11.49375 8.68828125 11.1101563 8.8796875 10.7265625 9.07109375 10.5351562 9.3109375 10.5351562 9.55 10.5351562 9.55 10.5351562 9.55 10.5351562 9.55 10.5351562 9.8375 10.7265625 10.0765625 11.1101563 10.26875 11.49375 10.4609375 11.971875 10.55625 12.4992188 10.55625 13.0257813 10.55625 13.5046875 10.4601563 13.8882813 10.26875 14.271875 10.0773437 14.4632812 9.8375 14.4632812 9.55z"/>
    <path fill="#000" fill-rule="nonzero" d="M20.1148437,15.7757812 C20.1148437,15.7757812 20.1148437,15.7757812 20.1148437,15.7757812 C20.1148437,15.7757812 22.078125,15.7757812 22.078125,15.7757812 C22.4132812,15.7757812 22.5570312,15.9195313 22.5570312,16.2546875 C22.5570312,16.2546875 22.5570312,16.2546875 22.5570312,16.2546875 C22.5570312,16.2546875 22.5570312,17.2601562 22.5570312,17.2601562 C22.5570312,17.5953125 22.4132812,17.7390625 22.078125,17.7390625 C22.078125,17.7390625 22.078125,17.7390625 22.078125,17.7390625 C22.078125,17.7390625 20.1148437,17.7390625 20.1148437,17.7390625 C19.7796875,17.7390625 19.6359375,17.5953125 19.6359375,17.2601562 C19.6359375,17.2601562 19.6359375,17.2601562 19.6359375,17.2601562 C19.6359375,17.2601562 19.6359375,16.2546875 19.6359375,16.2546875 C19.6359375,15.9195313 19.7796875,15.7757812 20.1148437,15.7757812 Z"/>
  </g>
  <title>Grad</title>
</svg>