<svg xmlns="http://www.w3.org/2000/svg" viewBox="0 0 25 25" id="grid">
  <path d="M5.51785657,3 C5.51785657,3 5.51785657,3 5.51785657,3 C5.51785657,3 1.51406544,3 1.51406544,3 C1.07442098,3 0.732740769,3.14654815 0.439644461,3.43964446 C0.146548154,3.73274077 0,4.07442098 0,4.51406544 C0,4.51406544 0,4.51406544 0,4.51406544 C0,4.51406544 0,9.54289719 0,9.54289719 C0,9.9331613 0.146548154,10.275638 0.439644461,10.5679378 C0.732740769,10.8602377 1.07442098,11.0075823 1.51406544,11.0075823 C1.51406544,11.0075823 1.51406544,11.0075823 1.51406544,11.0075823 C1.51406544,11.0075823 5.51785657,11.0075823 5.51785657,11.0075823 C5.95750104,11.0075823 6.29918124,10.8610341 6.59227755,10.5679378 C6.8359935,10.2748415 6.98254165,9.9331613 6.98254165,9.54289719 C6.98254165,9.54289719 6.98254165,9.54289719 6.98254165,9.54289719 C6.98254165,9.54289719 6.98254165,4.51406544 6.98254165,4.51406544 C6.98254165,4.07442098 6.8359935,3.73274077 6.59227755,3.43964446 C6.29918124,3.14654815 5.95750104,3 5.51785657,3 Z M6.00608493,4.51326898 C6.00608493,4.51326898 6.00608493,9.54210074 6.00608493,9.54210074 C6.00608493,9.88378094 5.85953678,10.0303291 5.51785657,10.0303291 C5.51785657,10.0303291 5.51785657,10.0303291 5.51785657,10.0303291 C5.51785657,10.0303291 1.51406544,10.0303291 1.51406544,10.0303291 C1.17238523,10.0303291 0.977253178,9.88378094 0.977253178,9.54210074 C0.977253178,9.54210074 0.977253178,9.54210074 0.977253178,9.54210074 C0.977253178,9.54210074 0.977253178,4.51326898 0.977253178,4.51326898 C0.977253178,4.17158877 1.17238523,4.02504062 1.51406544,4.02504062 C1.51406544,4.02504062 1.51406544,4.02504062 1.51406544,4.02504062 C1.51406544,4.02504062 5.51785657,4.02504062 5.51785657,4.02504062 C5.85953678,4.02504062 6.00608493,4.17158877 6.00608493,4.51326898 C6.00608493,4.51326898 6.00608493,4.51326898 6.00608493,4.51326898 Z M14.5018956,3 C14.5018956,3 14.5018956,3 14.5018956,3 C14.5018956,3 10.4981044,3 10.4981044,3 C10.05846,3 9.71677976,3.14654815 9.42368346,3.43964446 C9.13058715,3.73274077 8.98403899,4.07442098 8.98403899,4.51406544 C8.98403899,4.51406544 8.98403899,4.51406544 8.98403899,4.51406544 C8.98403899,4.51406544 8.98403899,9.54289719 8.98403899,9.54289719 C8.98403899,9.9331613 9.13058715,10.275638 9.42368346,10.5679378 C9.71677976,10.8602377 10.05846,11.0075823 10.4981044,11.0075823 C10.4981044,11.0075823 10.4981044,11.0075823 10.4981044,11.0075823 C10.4981044,11.0075823 14.5018956,11.0075823 14.5018956,11.0075823 C14.94154,11.0075823 15.2832202,10.8610341 15.5763165,10.5679378 C15.8694129,10.2748415 16.015961,9.9331613 16.015961,9.54289719 C16.015961,9.54289719 16.015961,9.54289719 16.015961,9.54289719 C16.015961,9.54289719 16.015961,4.51406544 16.015961,4.51406544 C16.015961,4.07442098 15.8694129,3.73274077 15.5763165,3.43964446 C15.2832202,3.14654815 14.94154,3 14.5018956,3 Z M14.9901239,4.51326898 C14.9901239,4.51326898 14.9901239,9.54210074 14.9901239,9.54210074 C14.9901239,9.88378094 14.8435758,10.0303291 14.5018956,10.0303291 C14.5018956,10.0303291 14.5018956,10.0303291 14.5018956,10.0303291 C14.5018956,10.0303291 10.4981044,10.0303291 10.4981044,10.0303291 C10.1564242,10.0303291 10.0098761,9.88378094 10.0098761,9.54210074 C10.0098761,9.54210074 10.0098761,9.54210074 10.0098761,9.54210074 C10.0098761,9.54210074 10.0098761,4.51326898 10.0098761,4.51326898 C10.0098761,4.17158877 10.1564242,4.02504062 10.4981044,4.02504062 C10.4981044,4.02504062 10.4981044,4.02504062 10.4981044,4.02504062 C10.4981044,4.02504062 14.5018956,4.02504062 14.5018956,4.02504062 C14.8435758,4.02504062 14.9901239,4.17158877 14.9901239,4.51326898 C14.9901239,4.51326898 14.9901239,4.51326898 14.9901239,4.51326898 Z M23.4859346,3 C23.4859346,3 23.4859346,3 23.4859346,3 C23.4859346,3 19.4821434,3 19.4821434,3 C19.042499,3 18.7008188,3.14654815 18.4571028,3.43964446 C18.1640065,3.73274077 18.0174583,4.07442098 18.0174583,4.51406544 C18.0174583,4.51406544 18.0174583,4.51406544 18.0174583,4.51406544 C18.0174583,4.51406544 18.0174583,9.54289719 18.0174583,9.54289719 C18.0174583,9.9331613 18.1640065,10.275638 18.4571028,10.5679378 C18.7008188,10.8610341 19.0432954,11.0075823 19.4821434,11.0075823 C19.4821434,11.0075823 19.4821434,11.0075823 19.4821434,11.0075823 C19.4821434,11.0075823 23.4859346,11.0075823 23.4859346,11.0075823 C23.925579,11.0075823 24.2672592,10.8610341 24.5603555,10.5679378 C24.8534518,10.2748415 25,9.9331613 25,9.54289719 C25,9.54289719 25,9.54289719 25,9.54289719 C25,9.54289719 25,4.51406544 25,4.51406544 C25,4.07442098 24.8534518,3.73274077 24.5603555,3.43964446 C24.2672592,3.14654815 23.925579,3 23.4859346,3 L23.4859346,3 Z M24.0227468,4.51326898 C24.0227468,4.51326898 24.0227468,9.54210074 24.0227468,9.54210074 C24.0227468,9.88378094 23.8276148,10.0303291 23.4859346,10.0303291 C23.4859346,10.0303291 23.4859346,10.0303291 23.4859346,10.0303291 C23.4859346,10.0303291 19.4821434,10.0303291 19.4821434,10.0303291 C19.1404632,10.0303291 18.9939151,9.88378094 18.9939151,9.54210074 C18.9939151,9.54210074 18.9939151,9.54210074 18.9939151,9.54210074 C18.9939151,9.54210074 18.9939151,4.51326898 18.9939151,4.51326898 C18.9939151,4.17158877 19.1404632,4.02504062 19.4821434,4.02504062 C19.4821434,4.02504062 19.4821434,4.02504062 19.4821434,4.02504062 C19.4821434,4.02504062 23.4859346,4.02504062 23.4859346,4.02504062 C23.8276148,4.02504062 24.0227468,4.17158877 24.0227468,4.51326898 C24.0227468,4.51326898 24.0227468,4.51326898 24.0227468,4.51326898 Z M5.51785657,14.0341202 C5.51785657,14.0341202 5.51785657,14.0341202 5.51785657,14.0341202 C5.51785657,14.0341202 1.51406544,14.0341202 1.51406544,14.0341202 C1.07442098,14.0341202 0.732740769,14.1806684 0.439644461,14.4243843 C0.146548154,14.7174806 0,15.0591609 0,15.4988053 C0,15.4988053 0,15.4988053 0,15.4988053 C0,15.4988053 0,20.5276371 0,20.5276371 C0,20.9672815 0.146548154,21.3089617 0.439644461,21.602058 C0.732740769,21.8951544 1.07442098,22.0417025 1.51406544,22.0417025 C1.51406544,22.0417025 1.51406544,22.0417025 1.51406544,22.0417025 C1.51406544,22.0417025 5.51785657,22.0417025 5.51785657,22.0417025 C5.95750104,22.0417025 6.29918124,21.8951544 6.59227755,21.602058 C6.8359935,21.3089617 6.98254165,20.9672815 6.98254165,20.5276371 C6.98254165,20.5276371 6.98254165,20.5276371 6.98254165,20.5276371 C6.98254165,20.5276371 6.98254165,15.4988053 6.98254165,15.4988053 C6.98254165,15.0591609 6.8359935,14.7174806 6.59227755,14.4243843 C6.29918124,14.1806684 5.95750104,14.0341202 5.51785657,14.0341202 Z M6.00608493,15.4988053 C6.00608493,15.4988053 6.00608493,20.5276371 6.00608493,20.5276371 C6.00608493,20.8693173 5.85953678,21.0158654 5.51785657,21.0158654 C5.51785657,21.0158654 5.51785657,21.0158654 5.51785657,21.0158654 C5.51785657,21.0158654 1.51406544,21.0158654 1.51406544,21.0158654 C1.17238523,21.0158654 0.977253178,20.8693173 0.977253178,20.5276371 C0.977253178,20.5276371 0.977253178,20.5276371 0.977253178,20.5276371 C0.977253178,20.5276371 0.977253178,15.4988053 0.977253178,15.4988053 C0.977253178,15.1571251 1.17238523,15.010577 1.51406544,15.010577 C1.51406544,15.010577 1.51406544,15.010577 1.51406544,15.010577 C1.51406544,15.010577 5.51785657,15.010577 5.51785657,15.010577 C5.85953678,15.010577 6.00608493,15.1571251 6.00608493,15.4988053 C6.00608493,15.4988053 6.00608493,15.4988053 6.00608493,15.4988053 Z M14.5018956,14.0341202 C14.5018956,14.0341202 14.5018956,14.0341202 14.5018956,14.0341202 C14.5018956,14.0341202 10.4981044,14.0341202 10.4981044,14.0341202 C10.05846,14.0341202 9.71677976,14.1806684 9.42368346,14.4243843 C9.13058715,14.7174806 8.98403899,15.0591609 8.98403899,15.4988053 C8.98403899,15.4988053 8.98403899,15.4988053 8.98403899,15.4988053 C8.98403899,15.4988053 8.98403899,20.5276371 8.98403899,20.5276371 C8.98403899,20.9672815 9.13058715,21.3089617 9.42368346,21.602058 C9.71677976,21.8951544 10.05846,22.0417025 10.4981044,22.0417025 C10.4981044,22.0417025 10.4981044,22.0417025 10.4981044,22.0417025 C10.4981044,22.0417025 14.5018956,22.0417025 14.5018956,22.0417025 C14.94154,22.0417025 15.2832202,21.8951544 15.5763165,21.602058 C15.8694129,21.3089617 16.015961,20.9672815 16.015961,20.5276371 C16.015961,20.5276371 16.015961,20.5276371 16.015961,20.5276371 C16.015961,20.5276371 16.015961,15.4988053 16.015961,15.4988053 C16.015961,15.0591609 15.8694129,14.7174806 15.5763165,14.4243843 C15.2832202,14.1806684 14.94154,14.0341202 14.5018956,14.0341202 Z M14.9901239,15.4988053 C14.9901239,15.4988053 14.9901239,20.5276371 14.9901239,20.5276371 C14.9901239,20.8693173 14.8435758,21.0158654 14.5018956,21.0158654 C14.5018956,21.0158654 14.5018956,21.0158654 14.5018956,21.0158654 C14.5018956,21.0158654 10.4981044,21.0158654 10.4981044,21.0158654 C10.1564242,21.0158654 10.0098761,20.8693173 10.0098761,20.5276371 C10.0098761,20.5276371 10.0098761,20.5276371 10.0098761,20.5276371 C10.0098761,20.5276371 10.0098761,15.4988053 10.0098761,15.4988053 C10.0098761,15.1571251 10.1564242,15.010577 10.4981044,15.010577 C10.4981044,15.010577 10.4981044,15.010577 10.4981044,15.010577 C10.4981044,15.010577 14.5018956,15.010577 14.5018956,15.010577 C14.8435758,15.010577 14.9901239,15.1571251 14.9901239,15.4988053 C14.9901239,15.4988053 14.9901239,15.4988053 14.9901239,15.4988053 Z M23.4859346,14.0341202 C23.4859346,14.0341202 23.4859346,14.0341202 23.4859346,14.0341202 C23.4859346,14.0341202 19.4821434,14.0341202 19.4821434,14.0341202 C19.042499,14.0341202 18.7008188,14.1806684 18.4571028,14.4243843 C18.1640065,14.7174806 18.0174583,15.0591609 18.0174583,15.4988053 C18.0174583,15.4988053 18.0174583,15.4988053 18.0174583,15.4988053 C18.0174583,15.4988053 18.0174583,20.5276371 18.0174583,20.5276371 C18.0174583,20.9672815 18.1640065,21.3089617 18.4571028,21.602058 C18.7008188,21.8951544 19.0432954,22.0417025 19.4821434,22.0417025 C19.4821434,22.0417025 19.4821434,22.0417025 19.4821434,22.0417025 C19.4821434,22.0417025 23.4859346,22.0417025 23.4859346,22.0417025 C23.925579,22.0417025 24.2672592,21.8951544 24.5603555,21.602058 C24.8534518,21.3089617 25,20.9672815 25,20.5276371 C25,20.5276371 25,20.5276371 25,20.5276371 C25,20.5276371 25,15.4988053 25,15.4988053 C25,15.0591609 24.8534518,14.7174806 24.5603555,14.4243843 C24.2672592,14.1806684 23.925579,14.0341202 23.4859346,14.0341202 L23.4859346,14.0341202 Z M24.0227468,15.4988053 C24.0227468,15.4988053 24.0227468,20.5276371 24.0227468,20.5276371 C24.0227468,20.8693173 23.8276148,21.0158654 23.4859346,21.0158654 C23.4859346,21.0158654 23.4859346,21.0158654 23.4859346,21.0158654 C23.4859346,21.0158654 19.4821434,21.0158654 19.4821434,21.0158654 C19.1404632,21.0158654 18.9939151,20.8693173 18.9939151,20.5276371 C18.9939151,20.5276371 18.9939151,20.5276371 18.9939151,20.5276371 C18.9939151,20.5276371 18.9939151,15.4988053 18.9939151,15.4988053 C18.9939151,15.1571251 19.1404632,15.010577 19.4821434,15.010577 C19.4821434,15.010577 19.4821434,15.010577 19.4821434,15.010577 C19.4821434,15.010577 23.4859346,15.010577 23.4859346,15.010577 C23.8276148,15.010577 24.0227468,15.1571251 24.0227468,15.4988053 C24.0227468,15.4988053 24.0227468,15.4988053 24.0227468,15.4988053 Z"/>
  <title>Grid</title>
</svg>