<svg xmlns="http://www.w3.org/2000/svg" viewBox="0 0 25 25" id="grid-solid">
  <path d="M6.98254165,4.51406544 C6.98254165,4.51406544 6.98254165,4.51406544 6.98254165,4.51406544 C6.98254165,4.51406544 6.98254165,9.54289719 6.98254165,9.54289719 C6.98254165,9.9331613 6.8359935,10.275638 6.59227755,10.5679378 C6.29918124,10.8610341 5.95750104,11.0075823 5.51785657,11.0075823 C5.51785657,11.0075823 5.51785657,11.0075823 5.51785657,11.0075823 C5.51785657,11.0075823 1.51406544,11.0075823 1.51406544,11.0075823 C1.07442098,11.0075823 0.732740769,10.8610341 0.439644461,10.5679378 C0.146548154,10.2748415 0,9.9331613 0,9.54289719 C0,9.54289719 0,9.54289719 0,9.54289719 C0,9.54289719 0,4.51406544 0,4.51406544 C0,4.07442098 0.146548154,3.73274077 0.439644461,3.43964446 C0.732740769,3.14654815 1.07442098,3 1.51406544,3 C1.51406544,3 1.51406544,3 1.51406544,3 C1.51406544,3 5.51785657,3 5.51785657,3 C5.95750104,3 6.29918124,3.14654815 6.59227755,3.43964446 C6.8359935,3.73274077 6.98254165,4.07442098 6.98254165,4.51406544 Z M14.5018956,3.00079646 C14.5018956,3.00079646 14.5018956,3.00079646 14.5018956,3.00079646 C14.5018956,3.00079646 10.4981044,3.00079646 10.4981044,3.00079646 C10.05846,3.00079646 9.71677976,3.14734461 9.42368346,3.44044092 C9.13058715,3.73353723 8.98403899,4.07521743 8.98403899,4.51486189 C8.98403899,4.51486189 8.98403899,4.51486189 8.98403899,4.51486189 C8.98403899,4.51486189 8.98403899,9.54369365 8.98403899,9.54369365 C8.98403899,9.93395776 9.13058715,10.2764344 9.42368346,10.5687343 C9.71677976,10.8610341 10.05846,11.0083787 10.4981044,11.0083787 C10.4981044,11.0083787 10.4981044,11.0083787 10.4981044,11.0083787 C10.4981044,11.0083787 14.5018956,11.0083787 14.5018956,11.0083787 C14.94154,11.0083787 15.2832202,10.8618306 15.5763165,10.5687343 C15.8694129,10.275638 16.015961,9.93395776 16.015961,9.54369365 C16.015961,9.54369365 16.015961,9.54369365 16.015961,9.54369365 C16.015961,9.54369365 16.015961,4.51486189 16.015961,4.51486189 C16.015961,4.07521743 15.8694129,3.73353723 15.5763165,3.44044092 C15.2832202,3.14734461 14.94154,3.00079646 14.5018956,3.00079646 Z M23.4859346,3.00079646 C23.4859346,3.00079646 23.4859346,3.00079646 23.4859346,3.00079646 C23.4859346,3.00079646 19.4821434,3.00079646 19.4821434,3.00079646 C19.042499,3.00079646 18.7008188,3.14734461 18.4571028,3.44044092 C18.1640065,3.73353723 18.0174583,4.07521743 18.0174583,4.51486189 C18.0174583,4.51486189 18.0174583,4.51486189 18.0174583,4.51486189 C18.0174583,4.51486189 18.0174583,9.54369365 18.0174583,9.54369365 C18.0174583,9.93395776 18.1640065,10.2764344 18.4571028,10.5687343 C18.7008188,10.8618306 19.0432954,11.0083787 19.4821434,11.0083787 C19.4821434,11.0083787 19.4821434,11.0083787 19.4821434,11.0083787 C19.4821434,11.0083787 23.4859346,11.0083787 23.4859346,11.0083787 C23.925579,11.0083787 24.2672592,10.8618306 24.5603555,10.5687343 C24.8534518,10.275638 25,9.93395776 25,9.54369365 C25,9.54369365 25,9.54369365 25,9.54369365 C25,9.54369365 25,4.51486189 25,4.51486189 C25,4.07521743 24.8534518,3.73353723 24.5603555,3.44044092 C24.2672592,3.14734461 23.925579,3.00079646 23.4859346,3.00079646 L23.4859346,3.00079646 Z M5.51785657,14.0349167 C5.51785657,14.0349167 5.51785657,14.0349167 5.51785657,14.0349167 C5.51785657,14.0349167 1.51406544,14.0349167 1.51406544,14.0349167 C1.07442098,14.0349167 0.732740769,14.1814648 0.439644461,14.4251808 C0.146548154,14.7182771 0,15.0599573 0,15.4996018 C0,15.4996018 0,15.4996018 0,15.4996018 C0,15.4996018 0,20.5284335 0,20.5284335 C0,20.968078 0.146548154,21.3097582 0.439644461,21.6028545 C0.732740769,21.8959508 1.07442098,22.042499 1.51406544,22.042499 C1.51406544,22.042499 1.51406544,22.042499 1.51406544,22.042499 C1.51406544,22.042499 5.51785657,22.042499 5.51785657,22.042499 C5.95750104,22.042499 6.29918124,21.8959508 6.59227755,21.6028545 C6.8359935,21.3097582 6.98254165,20.968078 6.98254165,20.5284335 C6.98254165,20.5284335 6.98254165,20.5284335 6.98254165,20.5284335 C6.98254165,20.5284335 6.98254165,15.4996018 6.98254165,15.4996018 C6.98254165,15.0599573 6.8359935,14.7182771 6.59227755,14.4251808 C6.29918124,14.1814648 5.95750104,14.0349167 5.51785657,14.0349167 Z M14.5018956,14.0349167 C14.5018956,14.0349167 14.5018956,14.0349167 14.5018956,14.0349167 C14.5018956,14.0349167 10.4981044,14.0349167 10.4981044,14.0349167 C10.05846,14.0349167 9.71677976,14.1814648 9.42368346,14.4251808 C9.13058715,14.7182771 8.98403899,15.0599573 8.98403899,15.4996018 C8.98403899,15.4996018 8.98403899,15.4996018 8.98403899,15.4996018 C8.98403899,15.4996018 8.98403899,20.5284335 8.98403899,20.5284335 C8.98403899,20.968078 9.13058715,21.3097582 9.42368346,21.6028545 C9.71677976,21.8959508 10.05846,22.042499 10.4981044,22.042499 C10.4981044,22.042499 10.4981044,22.042499 10.4981044,22.042499 C10.4981044,22.042499 14.5018956,22.042499 14.5018956,22.042499 C14.94154,22.042499 15.2832202,21.8959508 15.5763165,21.6028545 C15.8694129,21.3097582 16.015961,20.968078 16.015961,20.5284335 C16.015961,20.5284335 16.015961,20.5284335 16.015961,20.5284335 C16.015961,20.5284335 16.015961,15.4996018 16.015961,15.4996018 C16.015961,15.0599573 15.8694129,14.7182771 15.5763165,14.4251808 C15.2832202,14.1814648 14.94154,14.0349167 14.5018956,14.0349167 Z M23.4859346,14.0349167 C23.4859346,14.0349167 23.4859346,14.0349167 23.4859346,14.0349167 C23.4859346,14.0349167 19.4821434,14.0349167 19.4821434,14.0349167 C19.042499,14.0349167 18.7008188,14.1814648 18.4571028,14.4251808 C18.1640065,14.7182771 18.0174583,15.0599573 18.0174583,15.4996018 C18.0174583,15.4996018 18.0174583,15.4996018 18.0174583,15.4996018 C18.0174583,15.4996018 18.0174583,20.5284335 18.0174583,20.5284335 C18.0174583,20.968078 18.1640065,21.3097582 18.4571028,21.6028545 C18.7008188,21.8959508 19.0432954,22.042499 19.4821434,22.042499 C19.4821434,22.042499 19.4821434,22.042499 19.4821434,22.042499 C19.4821434,22.042499 23.4859346,22.042499 23.4859346,22.042499 C23.925579,22.042499 24.2672592,21.8959508 24.5603555,21.6028545 C24.8534518,21.3097582 25,20.968078 25,20.5284335 C25,20.5284335 25,20.5284335 25,20.5284335 C25,20.5284335 25,15.4996018 25,15.4996018 C25,15.0599573 24.8534518,14.7182771 24.5603555,14.4251808 C24.2672592,14.1814648 23.925579,14.0349167 23.4859346,14.0349167 L23.4859346,14.0349167 Z"/>
  <title>Grid Solid</title>
</svg>