<svg xmlns="http://www.w3.org/2000/svg" viewBox="0 0 25 25" id="hand">
  <path d="M15.9277726,23.5570313 C15.9277726,23.5570313 15.9277726,23.5570313 15.9277726,23.5570313 C15.9277726,23.5570313 15.7363664,23.5570313 15.7363664,23.5570313 C14.7308976,23.5570313 14.0121476,23.5570313 13.4855851,23.509375 C13.4855851,23.509375 13.4855851,23.509375 13.4855851,23.509375 C12.4801164,23.4617188 11.7137101,23.365625 11.1863664,23.1265625 C11.1863664,23.1265625 11.1863664,23.1265625 11.1863664,23.1265625 C10.8512101,22.9351563 9.50980385,21.6898438 7.21136635,19.3429688 C7.21136635,19.3429688 7.21136635,19.3429688 7.21136635,19.3429688 C7.1152726,19.2953125 7.0199601,19.1992188 6.92386635,19.1039063 C6.92386635,19.1039063 6.92386635,19.1039063 6.92386635,19.1039063 C6.8762101,19.05625 6.49261635,18.6726562 5.8699601,17.9546875 C5.1996476,17.284375 4.67230385,16.7570313 4.3371476,16.3742187 C4.3371476,16.3742187 4.3371476,16.3742187 4.3371476,16.3742187 C4.24105385,16.278125 4.0980851,16.1351563 3.9058976,15.8953125 C3.71449135,15.7039063 3.57074135,15.5601563 3.5230851,15.5125 C3.5230851,15.5125 3.5230851,15.5125 3.5230851,15.5125 C3.5230851,15.5125 3.18792885,15.1773438 3.18792885,15.1773438 C3.18792885,15.1773438 3.04417885,14.8898438 3.04417885,14.8898438 C2.8527726,13.4054688 3.28324135,12.4953125 4.3371476,12.2078125 C4.3371476,12.2078125 4.3371476,12.2078125 4.3371476,12.2078125 C4.6246476,12.1117188 4.95980385,12.1117188 5.34261635,12.1601563 C5.34261635,12.1601563 5.34261635,12.1601563 5.34261635,12.1601563 C5.4387101,12.1601563 5.48636635,12.1601563 5.5340226,12.2078125 C5.5340226,12.2078125 5.5340226,12.2078125 5.5340226,12.2078125 C5.5340226,12.2078125 5.6777726,12.2554688 5.6777726,12.2554688 C5.6777726,12.2554688 8.3121476,13.7398438 8.3121476,13.7398438 C8.3121476,13.7398438 8.3121476,5.88515625 8.3121476,5.88515625 C8.3121476,5.0234375 8.50355385,4.3046875 8.93480385,3.778125 C9.31761635,3.2515625 9.8449601,2.9640625 10.4676164,2.9640625 C10.4676164,2.9640625 10.4676164,2.9640625 10.4676164,2.9640625 C10.8027726,2.9640625 11.1379289,3.01171875 11.5215226,3.06015625 C11.5215226,3.06015625 11.5215226,3.06015625 11.5215226,3.06015625 C11.4738664,2.9640625 11.4738664,2.82109375 11.4738664,2.67734375 C11.4738664,2.67734375 11.4738664,2.67734375 11.4738664,2.67734375 C11.4738664,2.6296875 11.4738664,2.58125 11.5215226,2.53359375 C11.5215226,2.4859375 11.5215226,2.4859375 11.5215226,2.4375 C11.5215226,2.4375 11.5215226,2.4375 11.5215226,2.4375 C11.5691789,2.29375 11.7605851,2.0546875 12.0480851,1.71875 C12.0480851,1.71875 12.0480851,1.71875 12.0480851,1.71875 C12.5269914,1.23984375 13.0535539,1 13.6762101,1 C13.6762101,1 13.6762101,1 13.6762101,1 C14.2988664,1 14.8738664,1.19140625 15.3527726,1.62265625 C15.3527726,1.62265625 15.3527726,1.62265625 15.3527726,1.62265625 C15.5441789,1.8140625 15.6879289,2.05390625 15.8316789,2.29296875 C15.8316789,2.29296875 15.8316789,2.29296875 15.8316789,2.29296875 C15.8316789,2.29296875 15.8316789,2.484375 15.8316789,2.484375 C15.8316789,2.484375 15.8316789,2.771875 15.8316789,2.771875 C16.0230851,2.72421875 16.3105851,2.628125 16.6933976,2.58046875 C16.6933976,2.58046875 16.6933976,2.58046875 16.6933976,2.58046875 C16.6933976,2.58046875 17.0285539,2.58046875 17.0285539,2.58046875 C17.6988664,2.58046875 18.2262101,2.915625 18.6566789,3.5859375 C18.6566789,3.5859375 18.6566789,3.5859375 18.6566789,3.5859375 C18.7043351,3.63359375 18.8004289,3.96875 19.0394914,4.49609375 C19.0394914,4.49609375 19.0394914,4.49609375 19.0394914,4.49609375 C19.0394914,4.49609375 19.0394914,4.63984375 19.0394914,4.63984375 C19.0394914,4.63984375 19.0394914,5.02265625 19.0394914,5.02265625 C19.4223039,4.975 19.7582414,4.9265625 20.0449601,4.9265625 C20.0449601,4.9265625 20.0449601,4.9265625 20.0449601,4.9265625 C20.8590226,4.9265625 21.4816789,5.26171875 21.8168351,5.98046875 C21.8168351,5.98046875 21.8168351,5.98046875 21.8168351,5.98046875 C21.9605851,6.41171875 22.0558976,6.746875 22.0558976,6.9859375 C22.0558976,6.9859375 22.0558976,6.9859375 22.0558976,6.9859375 C22.0558976,6.9859375 22.0558976,18.815625 22.0558976,18.815625 C22.0558976,20.875 21.0019914,22.2640625 18.8949601,23.0304688 C18.8949601,23.0304688 18.8949601,23.0304688 18.8949601,23.0304688 C17.8894914,23.365625 16.8832414,23.5570313 15.9254289,23.5570313 L15.9277726,23.5570313 Z M15.8316789,3.77734375 C15.8316789,3.77734375 15.8316789,3.4421875 15.8316789,3.4421875 C15.8316789,3.4421875 15.5441789,3.8734375 15.5441789,3.8734375 C15.5918351,3.8734375 15.6879289,3.82578125 15.8316789,3.77734375 C15.8316789,3.77734375 15.8316789,3.77734375 15.8316789,3.77734375 L15.8316789,3.77734375 Z M19.0410539,6.0765625 C19.0410539,6.0765625 19.0410539,5.98046875 19.0410539,5.98046875 C19.0410539,5.98046875 19.0410539,6.0765625 19.0410539,6.0765625 Z M10.4676164,3.92109375 C10.4676164,3.92109375 10.4676164,3.92109375 10.4676164,3.92109375 C9.65355385,3.92109375 9.2699601,4.59140625 9.2699601,5.884375 C9.2699601,5.884375 9.2699601,5.884375 9.2699601,5.884375 C9.2699601,5.884375 9.2699601,14.1695312 9.2699601,14.1695312 C9.2699601,14.1695312 10.5629289,14.9835937 10.5629289,14.9835937 C10.8019914,15.175 10.8504289,15.4148437 10.7066789,15.6539063 C10.5629289,15.9414062 10.3238664,15.9890625 10.0363664,15.8453125 C10.0363664,15.8453125 10.0363664,15.8453125 10.0363664,15.8453125 C10.0363664,15.8453125 5.24730385,13.115625 5.24730385,13.115625 C5.0558976,13.0679687 4.81605385,13.115625 4.57699135,13.1632812 C4.57699135,13.1632812 4.57699135,13.1632812 4.57699135,13.1632812 C4.0980851,13.259375 3.90667885,13.7382813 4.00199135,14.6 C4.00199135,14.6 4.00199135,14.6 4.00199135,14.6 C4.0980851,14.6960938 4.14574135,14.7914062 4.1933976,14.8390625 C4.1933976,14.8390625 4.1933976,14.8390625 4.1933976,14.8390625 C4.28949135,14.8867188 4.38480385,14.9828125 4.4808976,15.078125 C4.57699135,15.1734375 4.67230385,15.2695313 4.81605385,15.4132812 C4.9121476,15.5570312 5.0074601,15.6523437 5.05511635,15.7007812 C5.05511635,15.7007812 5.05511635,15.7007812 5.05511635,15.7007812 C5.3902726,16.0835937 5.9168351,16.6109375 6.58792885,17.28125 C7.2105851,18 7.5933976,18.3828125 7.6418351,18.4304687 C7.6418351,18.4304687 7.6418351,18.4304687 7.6418351,18.4304687 C7.73792885,18.478125 7.83324135,18.5742188 7.8808976,18.6695312 C7.8808976,18.6695312 7.8808976,18.6695312 7.8808976,18.6695312 C10.0363664,20.9203125 11.2816789,22.0695312 11.6168351,22.2132813 C11.6168351,22.2132813 11.6168351,22.2132813 11.6168351,22.2132813 C12.0480851,22.4046875 12.6707414,22.5007812 13.5801164,22.5484375 C13.5801164,22.5484375 13.5801164,22.5484375 13.5801164,22.5484375 C14.0590226,22.5960937 14.7777726,22.5960937 15.7355851,22.5960937 C15.7355851,22.5960937 15.7355851,22.5960937 15.7355851,22.5960937 C15.8316789,22.5960937 15.8793351,22.5960937 15.9269914,22.5484375 C15.9269914,22.5484375 15.9269914,22.5484375 15.9269914,22.5484375 C16.6933976,22.5960937 17.5551164,22.4523437 18.5613664,22.1171875 C18.5613664,22.1171875 18.5613664,22.1171875 18.5613664,22.1171875 C20.2379289,21.4945313 21.0519914,20.3929687 21.0519914,18.8125 C21.0519914,18.8125 21.0519914,18.8125 21.0519914,18.8125 C21.0519914,18.8125 21.0519914,6.9828125 21.0519914,6.9828125 C21.0519914,6.79140625 21.0043351,6.6 20.9082414,6.4078125 C20.9082414,6.4078125 20.9082414,6.4078125 20.9082414,6.4078125 C20.7644914,6.07265625 20.4769914,5.88125 20.0465226,5.88125 C20.0465226,5.88125 20.0465226,5.88125 20.0465226,5.88125 C19.5676164,5.88125 19.2324601,5.92890625 19.0410539,6.07265625 C19.0410539,6.07265625 19.0410539,6.07265625 19.0410539,6.07265625 C19.0410539,6.07265625 19.0410539,13.0648437 19.0410539,13.0648437 C19.0410539,13.4 18.8973039,13.54375 18.5621476,13.54375 C18.2269914,13.54375 18.0355851,13.4 18.0355851,13.0648437 C18.0355851,13.0648437 18.0355851,13.0648437 18.0355851,13.0648437 C18.0355851,13.0648437 18.0355851,4.68359375 18.0355851,4.68359375 C18.0355851,4.53984375 17.9394914,4.30078125 17.7965226,4.0609375 C17.7965226,4.0609375 17.7965226,4.0609375 17.7965226,4.0609375 C17.6051164,3.72578125 17.3176164,3.534375 16.9824601,3.534375 C16.9824601,3.534375 16.9824601,3.534375 16.9824601,3.534375 C16.8863664,3.534375 16.7910539,3.534375 16.6473039,3.534375 C16.5035539,3.58203125 16.3598039,3.678125 16.1683976,3.86953125 C15.9293351,4.10859375 15.8332414,4.39609375 15.8332414,4.7796875 C15.8332414,4.7796875 15.8332414,4.7796875 15.8332414,4.7796875 C15.8332414,4.7796875 15.8332414,13.0648437 15.8332414,13.0648437 C15.8332414,13.4 15.6894914,13.54375 15.3543351,13.54375 C15.0191789,13.54375 14.8754289,13.4 14.8754289,13.0648437 C14.8754289,13.0648437 14.8754289,13.0648437 14.8754289,13.0648437 C14.8754289,13.0648437 14.8754289,2.5765625 14.8754289,2.5765625 C14.8277726,2.52890625 14.7793351,2.4328125 14.6840226,2.3375 C14.6840226,2.3375 14.6840226,2.3375 14.6840226,2.3375 C14.4449601,2.0984375 14.1090226,1.9546875 13.6785539,1.9546875 C13.6785539,1.9546875 13.6785539,1.9546875 13.6785539,1.9546875 C13.3433976,1.9546875 13.0558976,2.0984375 12.7683976,2.3859375 C12.7683976,2.3859375 12.7683976,2.3859375 12.7683976,2.3859375 C12.6246476,2.5296875 12.5293351,2.62578125 12.4808976,2.76875 C12.4808976,2.76875 12.4808976,2.76875 12.4808976,2.76875 C12.4808976,3.10390625 12.4808976,3.91796875 12.5285539,5.2109375 C12.5285539,5.2109375 12.5285539,5.2109375 12.5285539,5.2109375 C12.5285539,5.2109375 12.6723039,12.8257812 12.6723039,12.8257812 C12.6723039,13.1609375 12.5285539,13.3523437 12.1933976,13.3523437 C11.8582414,13.3523437 11.7144914,13.2085937 11.6668351,12.8734375 C11.6668351,12.8734375 11.6668351,12.8734375 11.6668351,12.8734375 C11.6668351,12.8734375 11.4754289,4.109375 11.4754289,4.109375 C11.3316789,3.965625 10.9965226,3.91796875 10.4699601,3.91796875 L10.4676164,3.92109375 Z M15.1613664,3.92109375 C15.1613664,3.92109375 15.1613664,2.915625 15.1613664,2.915625 C15.1613664,2.915625 16.1668351,2.915625 16.1668351,2.915625 C16.1668351,2.915625 16.1668351,3.92109375 16.1668351,3.92109375 C16.1668351,3.92109375 15.1613664,3.92109375 15.1613664,3.92109375 Z"/>
  <title>Hand</title>
</svg>