<svg xmlns="http://www.w3.org/2000/svg" viewBox="0 0 25 25" id="handshake">
  <path d="M23.078125,5.9640625 C23.078125,5.9640625 23.078125,5.9640625 23.078125,5.9640625 C23.078125,5.9640625 19.9171875,5.9640625 19.9171875,5.9640625 C19.8210937,5.9640625 19.7257813,5.91640625 19.678125,5.86796875 C19.678125,5.86796875 19.678125,5.86796875 19.678125,5.86796875 C19.678125,5.86796875 16.9484375,4.09609375 16.9484375,4.09609375 C16.9007813,4.0484375 16.8046875,4 16.709375,4 C16.709375,4 16.709375,4 16.709375,4 C16.709375,4 13.7398438,4 13.7398438,4 C13.5960938,4 13.5007813,4.04765625 13.4046875,4.14375 C13.4046875,4.14375 13.4046875,4.14375 13.4046875,4.14375 C13.4046875,4.14375 11.728125,5.96328125 11.728125,5.96328125 C11.728125,5.96328125 7.178125,5.96328125 7.178125,5.96328125 C6.890625,5.96328125 6.603125,6.059375 6.3640625,6.20234375 C6.3640625,6.20234375 6.3640625,6.20234375 6.3640625,6.20234375 C6.3640625,6.20234375 3.921875,7.83046875 3.921875,7.83046875 C3.778125,7.878125 3.6828125,7.9265625 3.634375,7.9265625 C3.634375,7.9265625 3.634375,7.9265625 3.634375,7.9265625 C3.634375,7.9265625 1.47890625,7.9265625 1.47890625,7.9265625 C1.14375,7.9265625 1,8.0703125 1,8.40546875 C1,8.40546875 1,8.40546875 1,8.40546875 C1,8.40546875 1,15.2539062 1,15.2539062 C1,15.5890625 1.14375,15.7804687 1.47890625,15.7804687 C1.47890625,15.7804687 1.47890625,15.7804687 1.47890625,15.7804687 C1.47890625,15.7804687 5.55,15.7804687 5.55,15.7804687 C5.69375,15.7804687 5.7890625,15.828125 5.8375,15.8765625 C5.8375,15.8765625 5.8375,15.8765625 5.8375,15.8765625 C5.88515625,15.9242187 5.93359375,15.9726562 6.0765625,16.0679687 C6.2203125,16.2117187 6.31640625,16.3070312 6.41171875,16.403125 C6.41171875,16.403125 6.41171875,16.403125 6.41171875,16.403125 C7.4171875,17.4085937 8.6625,18.3664062 10.1476563,19.2765625 C10.1476563,19.2765625 10.1476563,19.2765625 10.1476563,19.2765625 C10.6742187,19.5640625 11.2492188,19.7078125 11.7757813,19.7078125 C11.7757813,19.7078125 11.7757813,19.7078125 11.7757813,19.7078125 C11.7757813,19.7078125 11.7757813,19.7078125 11.7757813,19.7078125 C12.78125,19.7078125 13.64375,19.325 14.3617188,18.5585937 C14.3617188,18.5585937 14.3617188,18.5585937 14.3617188,18.5585937 C14.3617188,18.5585937 17.5703125,14.775 17.5703125,14.775 C17.5703125,14.775 17.6664063,14.775 17.6664063,14.775 C17.6664063,14.775 23.078125,14.775 23.078125,14.775 C23.4132813,14.775 23.5570313,14.63125 23.5570313,14.2960937 C23.5570313,14.2960937 23.5570313,14.2960937 23.5570313,14.2960937 C23.5570313,14.2960937 23.5570313,6.44140625 23.5570313,6.44140625 C23.5570313,6.10625 23.4132813,5.9625 23.078125,5.9625 L23.078125,5.9640625 Z M17.4265625,13.4351563 C17.4265625,13.4351563 17.4265625,13.4351563 17.4265625,13.4351563 C17.4265625,13.4351563 13.5953125,17.9367188 13.5953125,17.9367188 C13.1640625,18.4632813 12.5414063,18.703125 11.7757813,18.703125 C11.7757813,18.703125 11.7757813,18.703125 11.7757813,18.703125 C11.440625,18.703125 11.0570313,18.6070313 10.6742188,18.4640625 C10.6742188,18.4640625 10.6742188,18.4640625 10.6742188,18.4640625 C9.38125,17.65 8.18359375,16.7398438 7.08203125,15.6382813 C7.08203125,15.6382813 7.08203125,15.6382813 7.08203125,15.6382813 C6.93828125,15.4945313 6.746875,15.3507813 6.50703125,15.1117188 C6.50703125,15.1117188 6.50703125,15.1117188 6.50703125,15.1117188 C6.171875,14.8726563 5.884375,14.7765625 5.54921875,14.7765625 C5.54921875,14.7765625 5.54921875,14.7765625 5.54921875,14.7765625 C5.54921875,14.7765625 1.95703125,14.7765625 1.95703125,14.7765625 C1.95703125,14.7765625 1.95703125,8.8859375 1.95703125,8.8859375 C1.95703125,8.8859375 3.63359375,8.8859375 3.63359375,8.8859375 C3.96875,8.8859375 4.20859375,8.78984375 4.44765625,8.646875 C4.44765625,8.646875 4.44765625,8.646875 4.44765625,8.646875 C4.44765625,8.646875 6.88984375,7.01875 6.88984375,7.01875 C7.03359375,6.97109375 7.12890625,6.92265625 7.17734375,6.92265625 C7.17734375,6.92265625 7.17734375,6.92265625 7.17734375,6.92265625 C7.17734375,6.92265625 10.8648438,6.92265625 10.8648438,6.92265625 C10.8648438,6.92265625 9.38046875,8.55078125 9.38046875,8.55078125 C9.0453125,8.93359375 8.9015625,9.36484375 8.9015625,9.84375 C8.9015625,9.84375 8.9015625,9.84375 8.9015625,9.84375 C8.9015625,10.3703125 9.09296875,10.8492188 9.4765625,11.184375 C9.81171875,11.5671875 10.290625,11.759375 10.8171875,11.759375 C10.8171875,11.759375 10.8171875,11.759375 10.8171875,11.759375 C11.34375,11.759375 11.775,11.5679688 12.1578125,11.184375 C12.1578125,11.184375 12.1578125,11.184375 12.1578125,11.184375 C12.1578125,11.184375 14.6960937,8.64609375 14.6960937,8.64609375 C14.6960937,8.64609375 17.4742188,12.1421875 17.4742188,12.1421875 C17.6179688,12.38125 17.7132813,12.5734375 17.7132813,12.7648438 C17.7132813,12.95625 17.6171875,13.1960938 17.4257813,13.4351563 L17.4265625,13.4351563 Z M22.5992187,6.921875 C22.5992187,6.921875 22.5992187,13.81875 22.5992187,13.81875 C22.5992187,13.81875 18.384375,13.81875 18.384375,13.81875 C18.5757812,13.53125 18.671875,13.1960937 18.671875,12.7648437 C18.671875,12.7648437 18.671875,12.7648437 18.671875,12.7648437 C18.671875,12.2382812 18.528125,11.8546875 18.240625,11.5195312 C18.240625,11.5195312 18.240625,11.5195312 18.240625,11.5195312 C18.240625,11.5195312 15.1273437,7.5921875 15.1273437,7.5921875 C15.03125,7.49609375 14.8882812,7.4484375 14.7445313,7.4484375 C14.7445313,7.4484375 14.7445313,7.4484375 14.7445313,7.4484375 C14.7445313,7.4484375 14.6484375,7.4484375 14.6484375,7.4484375 C14.6484375,7.4484375 14.4570312,7.49609375 14.3609375,7.5921875 C14.3609375,7.5921875 14.3609375,7.5921875 14.3609375,7.5921875 C14.3609375,7.5921875 11.4875,10.5132813 11.4875,10.5132813 C11.2484375,10.6570313 11.05625,10.7523438 10.8171875,10.7523438 C10.8171875,10.7523438 10.8171875,10.7523438 10.8171875,10.7523438 C10.578125,10.7523438 10.3382813,10.65625 10.146875,10.4648438 C9.95546875,10.3210937 9.859375,10.0820312 9.859375,9.8421875 C9.859375,9.60234375 9.95546875,9.36328125 10.0984375,9.21953125 C10.0984375,9.21953125 10.0984375,9.21953125 10.0984375,9.21953125 C10.0984375,9.21953125 13.978125,4.95703125 13.978125,4.95703125 C13.978125,4.95703125 16.5640625,4.95703125 16.5640625,4.95703125 C16.5640625,4.95703125 19.1023437,6.68125 19.1023437,6.68125 C19.3414062,6.825 19.6289062,6.9203125 19.9164062,6.9203125 C19.9164062,6.9203125 19.9164062,6.9203125 19.9164062,6.9203125 C19.9164062,6.9203125 22.5984375,6.9203125 22.5984375,6.9203125 L22.5992187,6.921875 Z"/>
  <title>Handshake</title>
</svg>