<svg xmlns="http://www.w3.org/2000/svg" viewBox="0 0 25 25" id="handshake-solid">
  <path d="M19.9234375,5.9625 C19.9234375,5.9625 24.5210937,5.9625 24.5210937,5.9625 C24.5210937,5.9625 24.5210937,14.775 24.5210937,14.775 C24.5210937,14.775 18.821875,14.775 18.821875,14.775 C18.821875,14.775 18.8695312,14.7273438 18.8695312,14.7273438 C19.3960937,14.2007813 19.6359375,13.578125 19.6359375,12.7640625 C19.6359375,12.7640625 19.6359375,12.7640625 19.6359375,12.7640625 C19.6359375,12.0453125 19.396875,11.4234375 18.965625,10.8960938 C18.965625,10.8960938 18.965625,10.8960938 18.965625,10.8960938 C18.965625,10.8960938 16.3796875,7.6875 16.3796875,7.6875 C16.2835937,7.59140625 16.1882812,7.54375 16.0445312,7.54375 C16.0445312,7.54375 16.0445312,7.54375 16.0445312,7.54375 C16.0445312,7.54375 15.996875,7.54375 15.996875,7.54375 C15.853125,7.54375 15.7578125,7.59140625 15.6617187,7.6875 C15.6617187,7.6875 15.6617187,7.6875 15.6617187,7.6875 C15.6617187,7.6875 12.1179687,11.1835938 12.1179687,11.1835938 C11.7828125,11.51875 11.3515625,11.7101563 10.825,11.7101563 C10.825,11.7101563 10.825,11.7101563 10.825,11.7101563 C9.8671875,11.7101563 9.24453125,11.2789063 9.00546875,10.4171875 C9.00546875,10.4171875 9.00546875,10.4171875 9.00546875,10.4171875 C8.9578125,10.2257813 8.909375,10.034375 8.909375,9.890625 C8.909375,9.890625 8.909375,9.890625 8.909375,9.890625 C8.909375,9.315625 9.10078125,8.83671875 9.53203125,8.40625 C9.53203125,8.40625 9.53203125,8.40625 9.53203125,8.40625 C9.53203125,8.40625 13.5070312,4 13.5070312,4 C13.5070312,4 16.5242187,4 16.5242187,4 C16.7632812,4 16.9070312,4.04765625 17.0507812,4.14375 C17.0507812,4.14375 17.0507812,4.14375 17.0507812,4.14375 C17.0507812,4.14375 19.6367187,5.86796875 19.6367187,5.86796875 C19.7804687,5.915625 19.8757812,5.9640625 19.9242187,5.9640625 C19.9242187,5.9640625 19.9242187,5.9640625 19.9242187,5.9640625 L19.9234375,5.9625 Z M18.246875,11.5179687 C18.246875,11.5179687 15.9476562,8.73984375 15.9476562,8.73984375 C15.9476562,8.73984375 12.834375,11.853125 12.834375,11.853125 C12.259375,12.428125 11.5890625,12.7148438 10.775,12.7148438 C10.775,12.7148438 10.775,12.7148438 10.775,12.7148438 C10.0085937,12.7148438 9.33828125,12.4273438 8.76328125,11.853125 C8.76328125,11.853125 8.76328125,11.853125 8.76328125,11.853125 C8.18828125,11.3265625 7.9015625,10.6554688 7.9015625,9.84140625 C7.9015625,9.84140625 7.9015625,9.84140625 7.9015625,9.84140625 C7.9015625,9.12265625 8.140625,8.45234375 8.66796875,7.878125 C8.66796875,7.878125 8.66796875,7.878125 8.66796875,7.878125 C8.66796875,7.878125 10.3921875,5.9625 10.3921875,5.9625 C10.3921875,5.9625 7.18359375,5.9625 7.18359375,5.9625 C6.8484375,5.9625 6.5609375,6.05859375 6.321875,6.2015625 C6.321875,6.2015625 6.321875,6.2015625 6.321875,6.2015625 C6.321875,6.2015625 2.92109375,7.8296875 2.92109375,7.8296875 C2.77734375,7.87734375 2.68203125,7.92578125 2.63359375,7.92578125 C2.63359375,7.92578125 2.63359375,7.92578125 2.63359375,7.92578125 C2.63359375,7.92578125 0.04765625,7.92578125 0.04765625,7.92578125 C0.04765625,7.92578125 0,7.92578125 0,7.92578125 C0,7.92578125 0,15.7320312 0,15.7320312 C0,15.7320312 0.04765625,15.7796875 0.04765625,15.7796875 C0.04765625,15.7796875 5.5078125,15.7796875 5.5078125,15.7796875 C5.60390625,15.7796875 5.69921875,15.8273437 5.84296875,15.8757812 C5.84296875,15.8757812 5.84296875,15.8757812 5.84296875,15.8757812 C5.890625,15.9234375 5.9390625,15.971875 6.08203125,16.0671875 C6.22578125,16.2109375 6.32109375,16.30625 6.36953125,16.3546875 C6.36953125,16.3546875 6.36953125,16.3546875 6.36953125,16.3546875 C7.47109375,17.45625 8.7640625,18.4617187 10.153125,19.2757812 C10.153125,19.2757812 10.153125,19.2757812 10.153125,19.2757812 C10.6796875,19.5632812 11.2070312,19.7070312 11.78125,19.7070312 C11.78125,19.7070312 11.78125,19.7070312 11.78125,19.7070312 C12.7867188,19.7070312 13.6492188,19.3242188 14.3195313,18.5578125 C14.3195313,18.5578125 14.3195313,18.5578125 14.3195313,18.5578125 C14.3195313,18.5578125 18.103125,14.1039062 18.103125,14.1039062 C18.4859375,13.7210938 18.678125,13.2898437 18.678125,12.7632812 C18.678125,12.7632812 18.678125,12.7632812 18.678125,12.7632812 C18.678125,12.3320312 18.534375,11.9492188 18.246875,11.5179687 C18.246875,11.5179687 18.246875,11.5179687 18.246875,11.5179687 L18.246875,11.5179687 Z"/>
  <title>Handshake Solid</title>
</svg>