<svg xmlns="http://www.w3.org/2000/svg" viewBox="0 0 25 25" id="hand-solid">
  <path d="M15.2552017,13.2601563 C15.2552017,13.2601563 15.2552017,1.33515625 15.2552017,1.33515625 C14.8239517,1.09609375 14.3934829,1 13.9622329,1 C13.9622329,1 13.9622329,1 13.9622329,1 C13.5794204,1 13.1958267,1.09609375 12.8130142,1.33515625 C12.8130142,1.33515625 12.8130142,1.33515625 12.8130142,1.33515625 C12.8130142,1.33515625 12.8130142,13.2601563 12.8130142,13.2601563 C12.8130142,13.5953125 12.6692642,13.7867187 12.3341079,13.7867187 C12.3341079,13.7867187 12.3341079,13.7867187 12.3341079,13.7867187 C11.9989517,13.7867187 11.8075454,13.5953125 11.8075454,13.2601563 C11.8075454,13.2601563 11.8075454,13.2601563 11.8075454,13.2601563 C11.8075454,13.2601563 11.8075454,3.059375 11.8075454,3.059375 C11.8075454,3.059375 11.7598892,3.059375 11.7598892,3.059375 C11.2333267,3.01171875 10.8981704,2.96328125 10.6583267,2.96328125 C10.6583267,2.96328125 10.6583267,2.96328125 10.6583267,2.96328125 C10.0356704,2.96328125 9.5091079,3.25078125 9.0778579,3.77734375 C9.0778579,3.77734375 9.0778579,3.77734375 9.0778579,3.77734375 C8.6466079,4.30390625 8.45520165,5.02265625 8.45520165,5.884375 C8.45520165,5.884375 8.45520165,5.884375 8.45520165,5.884375 C8.45520165,5.884375 8.45520165,13.7867187 8.45520165,13.7867187 C8.45520165,13.7867187 5.7731704,12.3023438 5.7731704,12.3023438 C5.7731704,12.3023438 5.58176415,12.2546875 5.58176415,12.2546875 C5.58176415,12.2070313 5.5341079,12.2070313 5.3903579,12.2070313 C5.3903579,12.2070313 5.3903579,12.2070313 5.3903579,12.2070313 C4.9591079,12.1109375 4.62395165,12.1109375 4.38488915,12.2546875 C4.38488915,12.2546875 4.38488915,12.2546875 4.38488915,12.2546875 C3.28332665,12.5421875 2.85207665,13.4523438 3.04426415,14.9367188 C3.04426415,14.9367188 3.04426415,14.9367188 3.04426415,14.9367188 C3.04426415,14.9367188 3.18801415,15.1757813 3.18801415,15.1757813 C3.18801415,15.1757813 3.5231704,15.5585938 3.5231704,15.5585938 C3.5231704,15.5585938 3.9059829,15.9414062 3.9059829,15.9414062 C3.9059829,15.9414062 4.38488915,16.4203125 4.38488915,16.4203125 C4.62395165,16.659375 5.10363915,17.1867188 5.91770165,18.0007812 C5.91770165,18.0007812 5.91770165,18.0007812 5.91770165,18.0007812 C6.63645165,18.7195312 6.9716079,19.1023437 7.01926415,19.15 C7.01926415,19.15 7.01926415,19.15 7.01926415,19.15 C7.0669204,19.1976562 7.1153579,19.1976562 7.16301415,19.2460938 C7.2106704,19.2945313 7.2591079,19.3421875 7.30676415,19.3898438 C7.30676415,19.3898438 7.30676415,19.3898438 7.30676415,19.3898438 C9.79738915,21.784375 11.1864517,23.0296875 11.4255142,23.1734375 C11.4255142,23.1734375 11.4255142,23.1734375 11.4255142,23.1734375 C12.0005142,23.4125 12.7661392,23.5085938 13.7723892,23.55625 C13.7723892,23.55625 13.7723892,23.55625 13.7723892,23.55625 C13.9161392,23.55625 14.2512954,23.55625 14.7778579,23.55625 C15.3044204,23.6039063 15.7356704,23.6039063 16.1184829,23.6039063 C16.1184829,23.6039063 16.1184829,23.6039063 16.1184829,23.6039063 C16.1184829,23.6039063 16.3098892,23.6039063 16.3098892,23.6039063 C17.2200454,23.6039063 18.2731704,23.4125 19.3747329,23.0773438 C19.3747329,23.0773438 19.3747329,23.0773438 19.3747329,23.0773438 C21.5302017,22.3109375 22.6317642,20.921875 22.6317642,18.8625 C22.6317642,18.8625 22.6317642,18.8625 22.6317642,18.8625 C22.6317642,18.8625 22.6317642,6.98515625 22.6317642,6.98515625 C22.6317642,6.74609375 22.5356704,6.41015625 22.3442642,5.9796875 C22.3442642,5.9796875 22.3442642,5.9796875 22.3442642,5.9796875 C22.0091079,5.309375 21.3864517,4.97421875 20.5247329,4.97421875 C20.5247329,4.97421875 20.5247329,4.97421875 20.5247329,4.97421875 C20.1895767,4.97421875 19.9020767,4.97421875 19.6630142,5.021875 C19.6630142,5.021875 19.6630142,5.021875 19.6630142,5.021875 C19.6630142,5.021875 19.6630142,13.259375 19.6630142,13.259375 C19.6630142,13.5945313 19.5192642,13.7859375 19.1841079,13.7859375 C18.8489517,13.7859375 18.7052017,13.5945313 18.7052017,13.259375 C18.7052017,13.259375 18.7052017,13.259375 18.7052017,13.259375 C18.7052017,13.259375 18.7052017,3.10625 18.7052017,3.10625 C18.2739517,2.77109375 17.8434829,2.5796875 17.4122329,2.5796875 C17.4122329,2.5796875 17.4122329,2.5796875 17.4122329,2.5796875 C17.4122329,2.5796875 17.0770767,2.5796875 17.0770767,2.5796875 C16.8380142,2.62734375 16.5505142,2.7234375 16.2153579,2.77109375 C16.2153579,2.77109375 16.2153579,2.77109375 16.2153579,2.77109375 C16.2153579,2.77109375 16.2153579,13.259375 16.2153579,13.259375 C16.2153579,13.5945313 16.0716079,13.7859375 15.7364517,13.7859375 C15.4012954,13.7859375 15.2575454,13.5945313 15.2575454,13.259375 C15.2575454,13.259375 15.2575454,13.259375 15.2575454,13.259375 L15.2552017,13.2601563 Z"/>
  <title>Hand Solid</title>
</svg>