<svg xmlns="http://www.w3.org/2000/svg" viewBox="0 0 25 25" id="hanger">
  <path d="M24.1109085,19.587012 C24.1109085,19.587012 24.1109085,19.587012 24.1109085,19.587012 C24.1109085,19.587012 13.4788773,10.630762 13.4788773,10.630762 C13.4788773,10.630762 13.431221,10.487012 13.431221,10.487012 C13.431221,10.4393557 13.4788773,10.3909182 13.5273148,10.343262 C13.5273148,10.343262 13.5273148,10.343262 13.5273148,10.343262 C14.3413773,10.0081057 15.0116898,9.38544947 15.4429398,8.57138697 C15.8741898,7.75732447 15.9695023,6.89482447 15.778096,5.98544947 C15.778096,5.98544947 15.778096,5.98544947 15.778096,5.98544947 C15.634346,5.26669947 15.346846,4.59638697 14.8202835,4.06982447 C14.293721,3.54326197 13.6710648,3.20810572 12.9523148,3.06435572 C12.9523148,3.06435572 12.9523148,3.06435572 12.9523148,3.06435572 C11.8507523,2.87294947 10.8929398,3.11201197 10.0788773,3.73466822 C10.0788773,3.73466822 10.0788773,3.73466822 10.0788773,3.73466822 C9.12106478,4.50107447 8.64215853,5.50654322 8.64215853,6.79951197 C8.64215853,6.79951197 8.64215853,6.79951197 8.64215853,6.79951197 C8.64215853,7.13466822 8.78590853,7.27841822 9.12106478,7.27841822 C9.12106478,7.27841822 9.12106478,7.27841822 9.12106478,7.27841822 C9.45622103,7.27841822 9.64762728,7.13466822 9.64762728,6.79951197 C9.64762728,6.79951197 9.64762728,6.79951197 9.64762728,6.79951197 C9.64762728,5.84169947 10.0304398,5.07529322 10.7491898,4.50029322 C10.7491898,4.50029322 10.7491898,4.50029322 10.7491898,4.50029322 C11.371846,4.06904322 11.9945023,3.87763697 12.712471,4.02138697 C12.712471,4.02138697 12.712471,4.02138697 12.712471,4.02138697 C13.2390335,4.11748072 13.6702835,4.35654322 14.053096,4.74013697 C14.4359085,5.17138697 14.6757523,5.65029322 14.771846,6.17685572 C14.771846,6.17685572 14.771846,6.17685572 14.771846,6.17685572 C14.915596,6.89560572 14.8195023,7.51748072 14.5327835,8.14013697 C14.1976273,8.76279322 13.7663773,9.19404322 13.143721,9.43310572 C13.143721,9.43310572 13.143721,9.43310572 13.143721,9.43310572 C12.7609085,9.57685572 12.5210648,9.86435572 12.424971,10.2948245 C12.424971,10.2948245 12.424971,10.2948245 12.424971,10.2948245 C12.3773148,10.7260745 12.4726273,11.0612307 12.7601273,11.3487307 C12.7601273,11.3487307 12.7601273,11.3487307 12.7601273,11.3487307 C12.7601273,11.3487307 23.440596,20.352637 23.440596,20.352637 C23.440596,20.352637 23.4882523,20.5440432 23.4882523,20.5440432 C23.4882523,20.5916995 23.440596,20.640137 23.3921585,20.640137 C23.3921585,20.640137 23.3921585,20.640137 23.3921585,20.640137 C23.3921585,20.640137 1.12184603,20.640137 1.12184603,20.640137 C1.07418978,20.640137 1.07418978,20.5924807 1.07418978,20.5440432 C1.07418978,20.5440432 1.07418978,20.5440432 1.07418978,20.5440432 C1.02653353,20.4479495 1.07418978,20.4002932 1.12184603,20.352637 C1.12184603,20.352637 1.12184603,20.352637 1.12184603,20.352637 C1.12184603,20.352637 9.55075228,13.5518557 9.55075228,13.5518557 C9.83825228,13.3604495 9.83825228,13.1206057 9.59840853,12.8815432 C9.59840853,12.8815432 9.59840853,12.8815432 9.59840853,12.8815432 C9.35934603,12.6424807 9.11950228,12.6424807 8.87965853,12.833887 C8.87965853,12.833887 8.87965853,12.833887 8.87965853,12.833887 C8.87965853,12.833887 0.450752276,19.587012 0.450752276,19.587012 C0.0195022758,19.9221682 -0.124247724,20.3534182 0.115596026,20.8799807 C0.115596026,20.8799807 0.115596026,20.8799807 0.115596026,20.8799807 C0.259346026,21.4065432 0.594502276,21.646387 1.12106478,21.646387 C1.12106478,21.646387 1.12106478,21.646387 1.12106478,21.646387 C1.12106478,21.646387 23.3913773,21.646387 23.3913773,21.646387 C23.9179398,21.646387 24.3015335,21.4073245 24.4452835,20.927637 C24.4452835,20.927637 24.4452835,20.927637 24.4452835,20.927637 C24.6366898,20.4010745 24.5413773,19.9698245 24.1101273,19.587012 C24.1101273,19.587012 24.1101273,19.587012 24.1101273,19.587012 L24.1109085,19.587012 Z"/>
  <title>Hanger</title>
</svg>