<svg xmlns="http://www.w3.org/2000/svg" viewBox="0 0 25 25" id="header">
  <path d="M2.95859375,2 C2.95859375,2 2.95859375,2 2.95859375,2 C2.95859375,2 21.6367188,2 21.6367188,2 C21.8757813,2 22.115625,2.09609375 22.3070313,2.2875 C22.4984375,2.47890625 22.5945313,2.71875 22.5945313,2.9578125 C22.5945313,2.9578125 22.5945313,2.9578125 22.5945313,2.9578125 C22.5945313,2.9578125 22.5945313,7.890625 22.5945313,7.890625 C22.5945313,7.890625 2.00078125,7.890625 2.00078125,7.890625 C2.00078125,7.890625 2.00078125,2.9578125 2.00078125,2.9578125 C2.00078125,2.71875 2.096875,2.47890625 2.28828125,2.2875 C2.4796875,2.09609375 2.71953125,2 2.95859375,2 Z M21.6367188,11.8179687 C21.6367188,11.8179687 21.6367188,8.8484375 21.6367188,8.8484375 C21.6367188,8.8484375 22.5945312,8.8484375 22.5945312,8.8484375 C22.5945312,8.8484375 22.5945312,11.8179687 22.5945312,11.8179687 C22.5945312,11.8179687 21.6367188,11.8179687 21.6367188,11.8179687 Z M21.6367188,15.7453125 C21.6367188,15.7453125 21.6367188,12.7757812 21.6367188,12.7757812 C21.6367188,12.7757812 22.5945312,12.7757812 22.5945312,12.7757812 C22.5945312,12.7757812 22.5945312,15.7453125 22.5945312,15.7453125 C22.5945312,15.7453125 21.6367188,15.7453125 21.6367188,15.7453125 L21.6367188,15.7453125 Z M21.6367188,19.671875 C21.6367188,19.671875 21.6367188,16.7023438 21.6367188,16.7023438 C21.6367188,16.7023438 22.5945312,16.7023438 22.5945312,16.7023438 C22.5945312,16.7023438 22.5945312,19.671875 22.5945312,19.671875 C22.5945312,19.671875 21.6367188,19.671875 21.6367188,19.671875 Z M21.6367188,21.6359375 C21.6367188,21.6359375 21.6367188,20.6304687 21.6367188,20.6304687 C21.6367188,20.6304687 22.5945312,20.6304687 22.5945312,20.6304687 C22.5945312,20.6304687 22.5945312,21.6359375 22.5945312,21.6359375 C22.5945312,21.6359375 21.6367188,21.6359375 21.6367188,21.6359375 Z M2,11.8179687 C2,11.8179687 2,8.8484375 2,8.8484375 C2,8.8484375 2.9578125,8.8484375 2.9578125,8.8484375 C2.9578125,8.8484375 2.9578125,11.8179687 2.9578125,11.8179687 C2.9578125,11.8179687 2,11.8179687 2,11.8179687 Z M2,15.7453125 C2,15.7453125 2,12.7757812 2,12.7757812 C2,12.7757812 2.9578125,12.7757812 2.9578125,12.7757812 C2.9578125,12.7757812 2.9578125,15.7453125 2.9578125,15.7453125 C2.9578125,15.7453125 2,15.7453125 2,15.7453125 L2,15.7453125 Z M2,19.671875 C2,19.671875 2,16.7023438 2,16.7023438 C2,16.7023438 2.9578125,16.7023438 2.9578125,16.7023438 C2.9578125,16.7023438 2.9578125,19.671875 2.9578125,19.671875 C2.9578125,19.671875 2,19.671875 2,19.671875 Z M2,21.6359375 C2,21.6359375 2,20.6304687 2,20.6304687 C2,20.6304687 2.9578125,20.6304687 2.9578125,20.6304687 C2.9578125,20.6304687 2.9578125,21.6359375 2.9578125,21.6359375 C2.9578125,21.6359375 2,21.6359375 2,21.6359375 Z M2.95859375,22.59375 C2.95859375,22.59375 2.95859375,21.6359375 2.95859375,21.6359375 C2.95859375,21.6359375 5.928125,21.6359375 5.928125,21.6359375 C5.928125,21.6359375 5.928125,22.59375 5.928125,22.59375 C5.928125,22.59375 2.95859375,22.59375 2.95859375,22.59375 L2.95859375,22.59375 Z M6.88515625,22.59375 C6.88515625,22.59375 6.88515625,21.6359375 6.88515625,21.6359375 C6.88515625,21.6359375 9.8546875,21.6359375 9.8546875,21.6359375 C9.8546875,21.6359375 9.8546875,22.59375 9.8546875,22.59375 C9.8546875,22.59375 6.88515625,22.59375 6.88515625,22.59375 Z M10.8125,22.59375 C10.8125,22.59375 10.8125,21.6359375 10.8125,21.6359375 C10.8125,21.6359375 13.7820312,21.6359375 13.7820312,21.6359375 C13.7820312,21.6359375 13.7820312,22.59375 13.7820312,22.59375 C13.7820312,22.59375 10.8125,22.59375 10.8125,22.59375 Z M14.7398437,22.59375 C14.7398437,22.59375 14.7398437,21.6359375 14.7398437,21.6359375 C14.7398437,21.6359375 17.709375,21.6359375 17.709375,21.6359375 C17.709375,21.6359375 17.709375,22.59375 17.709375,22.59375 C17.709375,22.59375 14.7398437,22.59375 14.7398437,22.59375 Z M18.6671875,22.59375 C18.6671875,22.59375 18.6671875,21.6359375 18.6671875,21.6359375 C18.6671875,21.6359375 21.6367188,21.6359375 21.6367188,21.6359375 C21.6367188,21.6359375 21.6367188,22.59375 21.6367188,22.59375 C21.6367188,22.59375 18.6671875,22.59375 18.6671875,22.59375 Z"/>
  <title>Header</title>
</svg>