<svg xmlns="http://www.w3.org/2000/svg" viewBox="0 0 25 25" id="headphone">
  <path d="M23.5640625,14.8414062 C23.5640625,14.8414062 23.5640625,14.8414062 23.5640625,14.8414062 C23.5640625,14.8414062 23.5640625,12.303125 23.5640625,12.303125 C23.5640625,9.18984375 22.4625,6.55625 20.259375,4.3046875 C18.05625,2.1015625 15.3742188,1 12.2609375,1 C9.14765625,1 6.465625,2.1015625 4.2625,4.3046875 C2.059375,6.55546875 0.9578125,9.18984375 0.9578125,12.303125 C0.9578125,12.303125 0.9578125,12.303125 0.9578125,12.303125 C0.9578125,12.303125 0.9578125,14.8414062 0.9578125,14.8414062 C0.33515625,15.0804687 0,15.5117187 0,16.2304687 C0,16.2304687 0,16.2304687 0,16.2304687 C0,16.2304687 0,23.0789062 0,23.0789062 C0,23.5101562 0.14375,23.8453125 0.43125,24.1328125 C0.71875,24.4203125 1.05390625,24.5640625 1.48515625,24.5640625 C1.48515625,24.5640625 1.48515625,24.5640625 1.48515625,24.5640625 C1.48515625,24.5640625 5.4125,24.5640625 5.4125,24.5640625 C5.84375,24.5640625 6.17890625,24.4203125 6.46640625,24.1328125 C6.70546875,23.8453125 6.84921875,23.5101562 6.84921875,23.0789062 C6.84921875,23.0789062 6.84921875,23.0789062 6.84921875,23.0789062 C6.84921875,23.0789062 6.84921875,16.2304688 6.84921875,16.2304688 C6.84921875,15.7992187 6.70546875,15.4640625 6.46640625,15.1765625 C6.17890625,14.8890625 5.84375,14.7453125 5.4125,14.7453125 C5.4125,14.7453125 5.4125,14.7453125 5.4125,14.7453125 C5.4125,14.7453125 1.9640625,14.7453125 1.9640625,14.7453125 C1.9640625,14.7453125 1.9640625,12.303125 1.9640625,12.303125 C1.9640625,9.38203125 3.01796875,6.9390625 5.07734375,4.92734375 C5.07734375,4.92734375 5.07734375,4.92734375 5.07734375,4.92734375 C5.07734375,4.92734375 19.4453125,4.92734375 19.4453125,4.92734375 C21.5046875,6.9390625 22.5585938,9.38125 22.5585938,12.303125 C22.5585938,12.303125 22.5585938,12.303125 22.5585938,12.303125 C22.5585938,12.303125 22.5585938,14.7453125 22.5585938,14.7453125 C22.5585938,14.7453125 19.1101563,14.7453125 19.1101563,14.7453125 C18.6789063,14.7453125 18.34375,14.8890625 18.1046875,15.1765625 C17.8171875,15.4640625 17.6734375,15.7992187 17.6734375,16.2304688 C17.6734375,16.2304688 17.6734375,16.2304688 17.6734375,16.2304688 C17.6734375,16.2304688 17.6734375,23.0789062 17.6734375,23.0789062 C17.6734375,23.5101562 17.8171875,23.8453125 18.1046875,24.1328125 C18.34375,24.4203125 18.6796875,24.5640625 19.1101563,24.5640625 C19.1101563,24.5640625 19.1101563,24.5640625 19.1101563,24.5640625 C19.1101563,24.5640625 23.0375,24.5640625 23.0375,24.5640625 C23.46875,24.5640625 23.8039063,24.4203125 24.0914063,24.1328125 C24.3789062,23.8453125 24.5226563,23.5101562 24.5226563,23.0789062 C24.5226563,23.0789062 24.5226563,23.0789062 24.5226563,23.0789062 C24.5226563,23.0789062 24.5226563,16.2304688 24.5226563,16.2304688 C24.5226563,15.5117187 24.1875,15.08125 23.5648438,14.8414063 L23.5640625,14.8414062 Z M1.48515625,15.7507812 C1.48515625,15.7507812 5.4125,15.7507812 5.4125,15.7507812 C5.74765625,15.7507812 5.89140625,15.8945312 5.89140625,16.2296875 C5.89140625,16.2296875 5.89140625,16.2296875 5.89140625,16.2296875 C5.89140625,16.2296875 5.89140625,23.078125 5.89140625,23.078125 C5.89140625,23.4132812 5.74765625,23.5570312 5.4125,23.5570312 C5.4125,23.5570312 5.4125,23.5570312 5.4125,23.5570312 C5.4125,23.5570312 1.48515625,23.5570312 1.48515625,23.5570312 C1.15,23.5570312 0.95859375,23.4132812 0.95859375,23.078125 C0.95859375,23.078125 0.95859375,23.078125 0.95859375,23.078125 C0.95859375,23.078125 0.95859375,16.2296875 0.95859375,16.2296875 C0.95859375,15.8945312 1.15,15.7507812 1.48515625,15.7507812 C1.48515625,15.7507812 1.48515625,15.7507812 1.48515625,15.7507812 Z M18.2960937,3.96953125 C18.2960937,3.96953125 6.22734375,3.96953125 6.22734375,3.96953125 C7.99921875,2.6765625 10.0109375,2.00625 12.2617187,2.00625 C14.5125,2.00625 16.5242187,2.6765625 18.2960937,3.96953125 C18.2960937,3.96953125 18.2960937,3.96953125 18.2960937,3.96953125 Z M23.5640625,16.2296875 C23.5640625,16.2296875 23.5640625,23.078125 23.5640625,23.078125 C23.5640625,23.4132812 23.3726563,23.5570312 23.0375,23.5570312 C23.0375,23.5570312 23.0375,23.5570312 23.0375,23.5570312 C23.0375,23.5570312 19.1101563,23.5570312 19.1101563,23.5570312 C18.775,23.5570312 18.63125,23.4132812 18.63125,23.078125 C18.63125,23.078125 18.63125,23.078125 18.63125,23.078125 C18.63125,23.078125 18.63125,16.2296875 18.63125,16.2296875 C18.63125,15.8945312 18.775,15.7507812 19.1101563,15.7507812 C19.1101563,15.7507812 19.1101563,15.7507812 19.1101563,15.7507812 C19.1101563,15.7507812 23.0375,15.7507812 23.0375,15.7507812 C23.3726563,15.7507812 23.5640625,15.8945312 23.5640625,16.2296875 C23.5640625,16.2296875 23.5640625,16.2296875 23.5640625,16.2296875 Z M8.81328125,17.1875 C8.81328125,17.1875 8.81328125,17.1875 8.81328125,17.1875 C8.81328125,17.1875 8.81328125,22.1203125 8.81328125,22.1203125 C8.81328125,22.4554687 8.66953125,22.5992187 8.334375,22.5992187 C7.99921875,22.5992187 7.85546875,22.4554687 7.85546875,22.1203125 C7.85546875,22.1203125 7.85546875,22.1203125 7.85546875,22.1203125 C7.85546875,22.1203125 7.85546875,17.1875 7.85546875,17.1875 C7.85546875,16.8523437 7.99921875,16.7085937 8.334375,16.7085937 C8.66953125,16.7085937 8.81328125,16.8523437 8.81328125,17.1875 Z M16.6671875,17.1875 C16.6671875,17.1875 16.6671875,17.1875 16.6671875,17.1875 C16.6671875,17.1875 16.6671875,22.1203125 16.6671875,22.1203125 C16.6671875,22.4554687 16.5234375,22.5992187 16.1882812,22.5992187 C15.853125,22.5992187 15.709375,22.4554687 15.709375,22.1203125 C15.709375,22.1203125 15.709375,22.1203125 15.709375,22.1203125 C15.709375,22.1203125 15.709375,17.1875 15.709375,17.1875 C15.709375,16.8523437 15.853125,16.7085937 16.1882812,16.7085937 C16.5234375,16.7085937 16.6671875,16.8523437 16.6671875,17.1875 Z"/>
  <title>Headphone</title>
</svg>