<svg xmlns="http://www.w3.org/2000/svg" viewBox="0 0 25 25" id="headline-solid">
  <path d="M22.0734375,1 C22.0734375,1 22.0734375,1 22.0734375,1 C22.0734375,1 2.48515625,1 2.48515625,1 C2.05390625,1 1.71875,1.14375 1.43125,1.43125 C1.14375,1.71875 1,2.05390625 1,2.48515625 C1,2.48515625 1,2.48515625 1,2.48515625 C1,2.48515625 1,23.0789062 1,23.0789062 C1,23.5101562 1.14375,23.8453125 1.43125,24.084375 C1.71875,24.371875 2.05390625,24.515625 2.48515625,24.515625 C2.48515625,24.515625 2.48515625,24.515625 2.48515625,24.515625 C2.48515625,24.515625 22.0734375,24.515625 22.0734375,24.515625 C22.5046875,24.515625 22.8398438,24.371875 23.1273438,24.084375 C23.4148437,23.8453125 23.5585938,23.509375 23.5585938,23.0789062 C23.5585938,23.0789062 23.5585938,23.0789062 23.5585938,23.0789062 C23.5585938,23.0789062 23.5585938,2.48515625 23.5585938,2.48515625 C23.5585938,2.05390625 23.4148437,1.71875 23.1273438,1.43125 C22.8398438,1.14375 22.5046875,1 22.0734375,1 Z M3.92265625,10.8179688 C3.92265625,10.8179688 3.92265625,5.88515625 3.92265625,5.88515625 C3.92265625,5.64609375 4.01875,5.40625 4.2578125,5.21484375 C4.44921875,5.0234375 4.6890625,4.92734375 4.928125,4.92734375 C4.928125,4.92734375 4.928125,4.92734375 4.928125,4.92734375 C4.928125,4.92734375 10.81875,4.92734375 10.81875,4.92734375 C11.0578125,4.92734375 11.2976562,5.0234375 11.4890625,5.21484375 C11.6804687,5.40625 11.7765625,5.64609375 11.7765625,5.88515625 C11.7765625,5.88515625 11.7765625,5.88515625 11.7765625,5.88515625 C11.7765625,5.88515625 11.7765625,10.8179688 11.7765625,10.8179688 C11.7765625,11.0570313 11.6804687,11.296875 11.4890625,11.4882813 C11.2976562,11.6796875 11.0578125,11.7757813 10.81875,11.7757813 C10.81875,11.7757813 10.81875,11.7757813 10.81875,11.7757813 C10.81875,11.7757813 4.928125,11.7757813 4.928125,11.7757813 C4.6890625,11.7757813 4.44921875,11.6796875 4.2578125,11.4882813 C4.01875,11.296875 3.92265625,11.0570313 3.92265625,10.8179688 C3.92265625,10.8179688 3.92265625,10.8179688 3.92265625,10.8179688 Z M20.1101562,20.6359375 C20.1101562,20.6359375 20.1101562,20.6359375 20.1101562,20.6359375 C20.1101562,20.6359375 4.44921875,20.6359375 4.44921875,20.6359375 C4.1140625,20.6359375 3.92265625,20.4445313 3.92265625,20.109375 C3.92265625,20.109375 3.92265625,20.109375 3.92265625,20.109375 C3.92265625,19.7742187 4.1140625,19.6304687 4.44921875,19.6304687 C4.44921875,19.6304687 4.44921875,19.6304687 4.44921875,19.6304687 C4.44921875,19.6304687 20.1101562,19.6304687 20.1101562,19.6304687 C20.4453125,19.6304687 20.6367188,19.7742187 20.6367188,20.109375 C20.6367188,20.109375 20.6367188,20.109375 20.6367188,20.109375 C20.6367188,20.4445313 20.4453125,20.6359375 20.1101562,20.6359375 Z M20.1101562,17.6664063 C20.1101562,17.6664063 20.1101562,17.6664063 20.1101562,17.6664063 C20.1101562,17.6664063 4.44921875,17.6664063 4.44921875,17.6664063 C4.1140625,17.6664063 3.92265625,17.5226562 3.92265625,17.1875 C3.92265625,16.8523438 4.1140625,16.7085937 4.44921875,16.7085937 C4.44921875,16.7085937 4.44921875,16.7085937 4.44921875,16.7085937 C4.44921875,16.7085937 20.1101562,16.7085937 20.1101562,16.7085937 C20.4453125,16.7085937 20.6367188,16.8523438 20.6367188,17.1875 C20.6367188,17.5226562 20.4453125,17.6664063 20.1101562,17.6664063 Z M20.1101562,14.7453125 C20.1101562,14.7453125 20.1101562,14.7453125 20.1101562,14.7453125 C20.1101562,14.7453125 4.44921875,14.7453125 4.44921875,14.7453125 C4.1140625,14.7453125 3.92265625,14.5539062 3.92265625,14.21875 C3.92265625,14.21875 3.92265625,14.21875 3.92265625,14.21875 C3.92265625,13.8835938 4.1140625,13.7398438 4.44921875,13.7398438 C4.44921875,13.7398438 4.44921875,13.7398438 4.44921875,13.7398438 C4.44921875,13.7398438 20.1101562,13.7398438 20.1101562,13.7398438 C20.4453125,13.7398438 20.6367188,13.8835938 20.6367188,14.21875 C20.6367188,14.21875 20.6367188,14.21875 20.6367188,14.21875 C20.6367188,14.5539062 20.4453125,14.7453125 20.1101562,14.7453125 Z M20.1101563,11.7757813 C20.1101563,11.7757813 20.1101563,11.7757813 20.1101563,11.7757813 C20.1101563,11.7757813 14.2195313,11.7757813 14.2195313,11.7757813 C13.884375,11.7757813 13.740625,11.6320313 13.740625,11.296875 C13.740625,10.9617188 13.884375,10.8179688 14.2195313,10.8179688 C14.2195313,10.8179688 14.2195313,10.8179688 14.2195313,10.8179688 C14.2195313,10.8179688 20.1101563,10.8179688 20.1101563,10.8179688 C20.4453125,10.8179688 20.6367188,10.9617188 20.6367188,11.296875 C20.6367188,11.6320313 20.4453125,11.7757813 20.1101563,11.7757813 Z M20.1101563,8.8546875 C20.1101563,8.8546875 20.1101563,8.8546875 20.1101563,8.8546875 C20.1101563,8.8546875 14.2195313,8.8546875 14.2195313,8.8546875 C13.884375,8.8546875 13.740625,8.7109375 13.740625,8.37578125 C13.740625,8.37578125 13.740625,8.37578125 13.740625,8.37578125 C13.740625,8.040625 13.884375,7.84921875 14.2195313,7.84921875 C14.2195313,7.84921875 14.2195313,7.84921875 14.2195313,7.84921875 C14.2195313,7.84921875 20.1101563,7.84921875 20.1101563,7.84921875 C20.4453125,7.84921875 20.6367188,8.040625 20.6367188,8.37578125 C20.6367188,8.37578125 20.6367188,8.37578125 20.6367188,8.37578125 C20.6367188,8.7109375 20.4453125,8.8546875 20.1101563,8.8546875 Z M20.1101563,5.88515625 C20.1101563,5.88515625 20.1101563,5.88515625 20.1101563,5.88515625 C20.1101563,5.88515625 14.2195313,5.88515625 14.2195313,5.88515625 C13.884375,5.88515625 13.740625,5.74140625 13.740625,5.40625 C13.740625,5.07109375 13.884375,4.92734375 14.2195313,4.92734375 C14.2195313,4.92734375 14.2195313,4.92734375 14.2195313,4.92734375 C14.2195313,4.92734375 20.1101563,4.92734375 20.1101563,4.92734375 C20.4453125,4.92734375 20.6367188,5.07109375 20.6367188,5.40625 C20.6367188,5.74140625 20.4453125,5.88515625 20.1101563,5.88515625 Z"/>
  <title>Headline Solid</title>
</svg>