<svg xmlns="http://www.w3.org/2000/svg" viewBox="0 0 25 25" id="headset">
  <path d="M10.2960938,21.4507812 C10.2960938,21.4507812 10.2960938,23.5101562 10.2960938,23.5101562 C10.2960938,23.5101562 15.4203125,23.5101562 15.4203125,23.5101562 C15.4203125,23.5101562 15.4203125,21.4507812 15.4203125,21.4507812 C15.4203125,21.4507812 10.2960938,21.4507812 10.2960938,21.4507812 L10.2960938,21.4507812 Z M4.0703125,12.2546875 C4.0703125,12.2546875 4.0703125,17.3789062 4.0703125,17.3789062 C4.0703125,17.7140625 3.9265625,17.8578125 3.59140625,17.8578125 C3.59140625,17.8578125 3.59140625,17.8578125 3.59140625,17.8578125 C3.59140625,17.8578125 1.53203125,17.8578125 1.53203125,17.8578125 C1.196875,17.8578125 1.00546875,17.7140625 1.00546875,17.3789062 C1.00546875,17.3789062 1.00546875,17.3789062 1.00546875,17.3789062 C1.00546875,17.3789062 1.00546875,12.2546875 1.00546875,12.2546875 C1.00546875,11.9195313 1.196875,11.728125 1.53203125,11.728125 C1.53203125,11.728125 1.53203125,11.728125 1.53203125,11.728125 C1.53203125,11.728125 3.59140625,11.728125 3.59140625,11.728125 C3.9265625,11.728125 4.0703125,11.9195313 4.0703125,12.2546875 C4.0703125,12.2546875 4.0703125,12.2546875 4.0703125,12.2546875 L4.0703125,12.2546875 Z M4.0703125,10.8179687 C4.0703125,10.8179687 4.0703125,10.8179687 4.0703125,10.8179687 C4.0703125,10.8179687 1.00546875,10.8179687 1.00546875,10.8179687 C0.33515625,11.0570312 0,11.5367188 0,12.2546875 C0,12.2546875 0,12.2546875 0,12.2546875 C0,12.2546875 0,17.3789062 0,17.3789062 C0,17.8101562 0.14375,18.1453125 0.47890625,18.4328125 C0.76640625,18.7679687 1.1015625,18.9117187 1.5328125,18.9117187 C1.5328125,18.9117187 1.5328125,18.9117187 1.5328125,18.9117187 C1.5328125,18.9117187 3.5921875,18.9117187 3.5921875,18.9117187 C4.0234375,18.9117187 4.35859375,18.7679687 4.69375,18.4328125 C4.98125,18.1453125 5.125,17.8101562 5.125,17.3789062 C5.125,17.3789062 5.125,17.3789062 5.125,17.3789062 C5.125,17.3789062 5.125,12.2546875 5.125,12.2546875 C5.125,11.5359375 4.78984375,11.0570312 4.07109375,10.8179687 L4.0703125,10.8179687 Z M22.4609375,12.2546875 C22.4609375,12.2546875 22.4609375,17.3789062 22.4609375,17.3789062 C22.4609375,17.7140625 22.3171875,17.8578125 21.9820313,17.8578125 C21.9820313,17.8578125 21.9820313,17.8578125 21.9820313,17.8578125 C21.9820313,17.8578125 19.9226563,17.8578125 19.9226563,17.8578125 C19.5875,17.8578125 19.3960938,17.7140625 19.3960938,17.3789062 C19.3960938,17.3789062 19.3960938,17.3789062 19.3960938,17.3789062 C19.3960938,17.3789062 19.3960938,12.2546875 19.3960938,12.2546875 C19.3960938,11.9195313 19.5875,11.728125 19.9226563,11.728125 C19.9226563,11.728125 19.9226563,11.728125 19.9226563,11.728125 C19.9226563,11.728125 21.9820313,11.728125 21.9820313,11.728125 C22.3171875,11.728125 22.4609375,11.9195313 22.4609375,12.2546875 C22.4609375,12.2546875 22.4609375,12.2546875 22.4609375,12.2546875 L22.4609375,12.2546875 Z M22.5085937,10.8179687 C22.5085937,10.8179687 22.5085937,10.8179687 22.5085937,10.8179687 C22.5085937,10.8179687 19.44375,10.8179687 19.44375,10.8179687 C18.725,11.0570312 18.3898438,11.5367188 18.3898438,12.2546875 C18.3898438,12.2546875 18.3898438,12.2546875 18.3898438,12.2546875 C18.3898438,12.2546875 18.3898438,17.3789062 18.3898438,17.3789062 C18.3898438,17.8101562 18.5335938,18.1453125 18.86875,18.4328125 C19.15625,18.7679687 19.4914063,18.9117187 19.9226562,18.9117187 C19.9226562,18.9117187 19.9226562,18.9117187 19.9226562,18.9117187 C19.9226562,18.9117187 21.9820313,18.9117187 21.9820313,18.9117187 C22.4132813,18.9117187 22.7484375,18.7679687 23.0835938,18.4328125 C23.3710938,18.1453125 23.5148438,17.8101562 23.5148438,17.3789062 C23.5148438,17.3789062 23.5148438,17.3789062 23.5148438,17.3789062 C23.5148438,17.3789062 23.5148438,12.2546875 23.5148438,12.2546875 C23.5148438,11.584375 23.1796875,11.1054687 22.509375,10.8179687 L22.5085937,10.8179687 Z M1.0046875,11.2015625 C1.0046875,11.2015625 2.05859375,11.2015625 2.05859375,11.2015625 C2.20234375,8.66328125 3.2078125,6.46015625 5.07578125,4.68828125 C6.94375,2.91640625 9.146875,2.05390625 11.7328125,2.05390625 C14.31875,2.05390625 16.521875,2.915625 18.3898438,4.68828125 C20.2578125,6.4609375 21.2632812,8.66328125 21.4070313,11.2015625 C21.4070313,11.2015625 21.4070313,11.2015625 21.4070313,11.2015625 C21.4070313,11.2015625 22.4125,11.2015625 22.4125,11.2015625 C22.26875,8.37578125 21.1671875,5.93359375 19.1078125,3.96953125 C17.0484375,2.00546875 14.5578125,1 11.7320312,1 C11.7320312,1 11.7320312,1 11.7320312,1 C8.85859375,1 6.415625,2.00546875 4.35625,3.96953125 C2.296875,5.93359375 1.14765625,8.37578125 1.00390625,11.2015625 C1.00390625,11.2015625 1.00390625,11.2015625 1.00390625,11.2015625 L1.0046875,11.2015625 Z M14.5585938,24.515625 C14.5585938,24.515625 14.5585938,24.515625 14.5585938,24.515625 C14.5585938,24.515625 14.3195312,24.515625 14.3195312,24.515625 C14.3195312,24.515625 12.2601562,24.515625 12.2601562,24.515625 C11.925,24.515625 11.7335938,24.3242188 11.7335938,23.9890625 C11.7335938,23.6539062 11.925,23.4625 12.2601562,23.4625 C12.2601562,23.4625 12.2601562,23.4625 12.2601562,23.4625 C12.2601562,23.4625 14.3195312,23.4625 14.3195312,23.4625 C18.8695312,23.4625 21.646875,22.9359375 22.7484375,21.834375 C22.7484375,21.834375 22.7484375,21.834375 22.7484375,21.834375 C23.275,21.3554688 23.5148438,20.7328125 23.5148438,19.91875 C23.5148438,19.91875 23.5148438,19.91875 23.5148438,19.91875 C23.5148438,19.91875 23.5148438,14.7945312 23.5148438,14.7945312 C23.5148438,14.459375 23.6585938,14.2679687 23.99375,14.2679687 C23.99375,14.2679687 23.99375,14.2679687 23.99375,14.2679687 C24.3289063,14.2679687 24.5203125,14.459375 24.5203125,14.7945312 C24.5203125,14.7945312 24.5203125,14.7945312 24.5203125,14.7945312 C24.5203125,14.7945312 24.5203125,19.91875 24.5203125,19.91875 C24.5203125,21.0203125 24.1851562,21.8820312 23.5148438,22.553125 C23.5148438,22.553125 23.5148438,22.553125 23.5148438,22.553125 C22.1742188,23.8460938 19.2046875,24.5164062 14.5585938,24.5164062 C14.5585938,24.5164062 14.5585938,24.5164062 14.5585938,24.5164062 L14.5585938,24.515625 Z"/>
  <title>Headset</title>
</svg>