<svg xmlns="http://www.w3.org/2000/svg" viewBox="0 0 25 25" id="heart-pulse">
  <path d="M18.1507812,1.00078125 C18.1507812,1.00078125 18.1507812,1.00078125 18.1507812,1.00078125 C16.04375,1.00078125 14.0796875,2.10234375 12.2601562,4.30546875 C12.2601562,4.30546875 12.2601562,4.30546875 12.2601562,4.30546875 C10.440625,2.10234375 8.4765625,1.00078125 6.36953125,1.00078125 C6.36953125,1.00078125 6.36953125,1.00078125 6.36953125,1.00078125 C4.45390625,1.00078125 2.92109375,1.6234375 1.771875,2.86875 C0.57421875,4.16171875 0,5.78984375 0,7.84921875 C0,7.84921875 0,7.84921875 0,7.84921875 C0,9.23828125 0.43125,10.675 1.2453125,12.2554688 C2.059375,13.8359375 2.921875,15.1765625 3.92734375,16.278125 C4.88515625,17.3796875 6.034375,18.5773438 7.4234375,19.7742187 C8.8125,20.9710937 9.72265625,21.7859375 10.2492188,22.1210938 C10.728125,22.45625 11.2070312,22.8398438 11.6859375,23.175 C11.6859375,23.175 11.6859375,23.175 11.6859375,23.175 C11.6859375,23.175 12.2609375,23.5578125 12.2609375,23.5578125 C12.2609375,23.5578125 12.8359375,23.2226562 12.8359375,23.2226562 C13.3148438,22.8875 13.79375,22.5039062 14.3203125,22.16875 C14.7992187,21.8335938 15.709375,21.0195312 17.0984375,19.821875 C18.4875,18.6242187 19.6367188,17.4273437 20.6421875,16.3257812 C21.6,15.2242188 22.5101562,13.8351563 23.3242188,12.2546875 C24.1382813,10.6742187 24.521875,9.2375 24.521875,7.8484375 C24.521875,7.8484375 24.521875,7.8484375 24.521875,7.8484375 C24.521875,5.7890625 23.946875,4.1609375 22.7976562,2.86796875 C21.6,1.62265625 20.0679688,1 18.1523438,1 L18.1507812,1.00078125 Z M7.375,9.81328125 C7.375,9.81328125 7.375,9.81328125 7.375,9.81328125 C7.375,9.81328125 11.925,9.81328125 11.925,9.81328125 C11.925,9.81328125 13.7445312,14.4109375 13.7445312,14.4109375 C13.840625,14.6023437 13.9835937,14.6984375 14.2234375,14.7460937 C14.2234375,14.7460937 14.2234375,14.7460937 14.2234375,14.7460937 C14.3671875,14.7460937 14.5109375,14.65 14.6546875,14.4585938 C14.6546875,14.4585938 14.6546875,14.4585938 14.6546875,14.4585938 C14.6546875,14.4585938 18.1984375,7.3703125 18.1984375,7.3703125 C18.1984375,7.3703125 19.6828125,9.62109375 19.6828125,9.62109375 C19.8265625,9.76484375 19.9703125,9.8125 20.1140625,9.8125 C20.1140625,9.8125 20.1140625,9.8125 20.1140625,9.8125 C20.1140625,9.8125 23.275,9.8125 23.275,9.8125 C22.9398437,11.0101562 22.3648437,12.2546875 21.503125,13.5484375 C20.5929687,14.8414062 19.6351562,15.990625 18.6296875,16.996875 C17.6242187,18.003125 16.6179687,18.9601562 15.6601562,19.775 C14.6546875,20.5890625 13.840625,21.259375 13.2179687,21.690625 C13.2179687,21.690625 13.2179687,21.690625 13.2179687,21.690625 C13.2179687,21.690625 12.2601562,22.3609375 12.2601562,22.3609375 C11.925,22.1695312 11.5414062,21.8820313 11.0625,21.4992187 C10.5359375,21.1164062 9.62578125,20.35 8.3328125,19.2484375 C7.03984375,18.146875 5.890625,16.9976562 4.884375,15.8960937 C3.87890625,14.7945312 3.01640625,13.5015625 2.20234375,12.0164062 C1.38828125,10.53125 0.95703125,9.14296875 0.95703125,7.85 C0.95703125,7.85 0.95703125,7.85 0.95703125,7.85 C0.95703125,6.078125 1.4359375,4.6890625 2.39375,3.5875 C3.3515625,2.4859375 4.69296875,1.959375 6.36875,1.959375 C6.36875,1.959375 6.36875,1.959375 6.36875,1.959375 C7.37421875,1.959375 8.38046875,2.29453125 9.3859375,2.9171875 C10.34375,3.5875 11.0625,4.2578125 11.5414062,4.92890625 C11.5414062,4.92890625 11.5414062,4.92890625 11.5414062,4.92890625 C11.5414062,4.92890625 12.2601562,5.88671875 12.2601562,5.88671875 C12.4515625,5.59921875 12.7390625,5.21640625 13.0742187,4.78515625 C13.409375,4.35390625 14.0796875,3.7796875 15.1335937,3.0609375 C16.1390625,2.3421875 17.1453125,1.959375 18.1507812,1.959375 C18.1507812,1.959375 18.1507812,1.959375 18.1507812,1.959375 C19.8273437,1.959375 21.1679687,2.4859375 22.1257812,3.5875 C23.0835937,4.6890625 23.5625,6.078125 23.5625,7.85 C23.5625,7.85 23.5625,7.85 23.5625,7.85 C23.5625,7.99375 23.5625,8.1375 23.5625,8.3765625 C23.5148437,8.615625 23.5148437,8.759375 23.4664062,8.903125 C23.4664062,8.903125 23.4664062,8.903125 23.4664062,8.903125 C23.4664062,8.903125 20.353125,8.85546875 20.353125,8.85546875 C20.353125,8.85546875 18.5335937,6.12578125 18.5335937,6.12578125 C18.4375,5.98203125 18.2945312,5.88671875 18.1507812,5.88671875 C18.1507812,5.88671875 18.1507812,5.88671875 18.1507812,5.88671875 C18.1507812,5.88671875 18.103125,5.88671875 18.103125,5.88671875 C17.8640625,5.934375 17.7679687,6.03046875 17.7203125,6.17421875 C17.7203125,6.17421875 17.7203125,6.17421875 17.7203125,6.17421875 C17.7203125,6.17421875 14.271875,13.0226563 14.271875,13.0226563 C14.271875,13.0226563 12.7390625,9.14296875 12.7390625,9.14296875 C12.6429687,8.9515625 12.5,8.85546875 12.2601562,8.85546875 C12.2601562,8.85546875 12.2601562,8.85546875 12.2601562,8.85546875 C12.2601562,8.85546875 7.375,8.85546875 7.375,8.85546875 C7.03984375,8.85546875 6.8484375,8.99921875 6.8484375,9.334375 C6.8484375,9.66953125 7.03984375,9.81328125 7.375,9.81328125 Z"/>
  <title>Heart Pulse</title>
</svg>