<svg xmlns="http://www.w3.org/2000/svg" viewBox="0 0 25 25" id="heart-mixed">
  <path d="M18.1523438,1 C18.1523438,1 18.1523438,1 18.1523438,1 C20.0203125,1 21.6007813,1.62265625 22.7976562,2.915625 C22.7976562,2.915625 22.7976562,2.915625 22.7976562,2.915625 C23.946875,4.1609375 24.521875,5.83671875 24.521875,7.89609375 C24.521875,7.89609375 24.521875,7.89609375 24.521875,7.89609375 C24.521875,9.28515625 24.1390625,10.7695313 23.3242188,12.35 C23.3242188,12.35 23.3242188,12.35 23.3242188,12.35 C22.5101562,13.8828125 21.6476563,15.2234375 20.6421875,16.3726563 C20.6421875,16.3726563 20.6421875,16.3726563 20.6421875,16.3726563 C19.5882812,17.5703125 18.3914063,18.7195312 17.0984375,19.86875 C17.0984375,19.86875 17.0984375,19.86875 17.0984375,19.86875 C15.709375,21.0664062 14.7992187,21.8804688 14.3203125,22.215625 C14.3203125,22.215625 14.3203125,22.215625 14.3203125,22.215625 C13.9851562,22.4546875 13.4585937,22.8382813 12.8359375,23.2695312 C12.8359375,23.2695312 12.8359375,23.2695312 12.8359375,23.2695312 C12.8359375,23.2695312 12.2609375,23.5570313 12.2609375,23.5570313 C12.2609375,23.5570313 11.6859375,23.1742188 11.6859375,23.1742188 C11.159375,22.8390625 10.6320312,22.4554687 10.2015625,22.1203125 C10.2015625,22.1203125 10.2015625,22.1203125 10.2015625,22.1203125 C9.72265625,21.7851562 8.8125,20.9710938 7.4234375,19.7734375 C7.4234375,19.7734375 7.4234375,19.7734375 7.4234375,19.7734375 C6.034375,18.5757812 4.88515625,17.4265625 3.92734375,16.2773438 C3.92734375,16.2773438 3.92734375,16.2773438 3.92734375,16.2773438 C3.0171875,15.271875 2.15546875,13.978125 1.2453125,12.3023437 C1.2453125,12.3023437 1.2453125,12.3023437 1.2453125,12.3023437 C0.43125,10.721875 0,9.28515625 0,7.89609375 C0,7.89609375 0,7.89609375 0,7.89609375 C0,5.7890625 0.575,4.1125 1.771875,2.915625 C1.771875,2.915625 1.771875,2.915625 1.771875,2.915625 C2.96953125,1.62265625 4.5015625,1 6.36953125,1 C6.36953125,1 6.36953125,1 6.36953125,1 C8.42890625,1 10.3921875,2.1015625 12.2601562,4.3046875 C12.2601562,4.3046875 12.2601562,4.3046875 12.2601562,4.3046875 C14.128125,2.1015625 16.0914062,1 18.1507812,1 L18.1523438,1 Z M12.2617188,22.4085938 C12.2617188,22.4085938 12.2617188,22.4085938 12.2617188,22.4085938 C12.2617188,22.4085938 13.4109375,21.5945313 13.4109375,21.5945313 C14.225,21.0679688 15.1828125,20.3015625 16.284375,19.2953125 C16.284375,19.2953125 16.284375,19.2953125 16.284375,19.2953125 C17.2898438,18.3851563 18.3914063,17.3320313 19.5890625,16.0382813 C19.5890625,16.0382813 19.5890625,16.0382813 19.5890625,16.0382813 C20.5945313,14.984375 21.5523438,13.64375 22.4148438,12.0632813 C22.4148438,12.0632813 22.4148438,12.0632813 22.4148438,12.0632813 C23.18125,10.6265625 23.5640625,9.2375 23.5640625,7.896875 C23.5640625,7.896875 23.5640625,7.896875 23.5640625,7.896875 C23.5640625,6.17265625 23.0851563,4.7359375 22.1273438,3.634375 C22.1273438,3.634375 22.1273438,3.634375 22.1273438,3.634375 C21.121875,2.5328125 19.828125,2.00625 18.1523438,2.00625 C18.1523438,2.00625 18.1523438,2.00625 18.1523438,2.00625 C17.146875,2.00625 16.140625,2.3890625 15.1351563,3.1078125 C15.1351563,3.1078125 15.1351563,3.1078125 15.1351563,3.1078125 C14.08125,3.87421875 13.4109375,4.4484375 13.0757813,4.8796875 C13.0757813,4.8796875 13.0757813,4.8796875 13.0757813,4.8796875 C12.5492188,5.55 12.309375,5.88515625 12.2617188,5.93359375 C12.2617188,5.93359375 12.2617188,5.93359375 12.2617188,5.93359375 C12.2617188,5.93359375 11.5429688,4.97578125 11.5429688,4.97578125 C11.1117188,4.353125 10.39375,3.73046875 9.3875,3.0125 C9.3875,3.0125 9.3875,3.0125 9.3875,3.0125 C8.38203125,2.3421875 7.37578125,2.00703125 6.3703125,2.00703125 C6.3703125,2.00703125 6.3703125,2.00703125 6.3703125,2.00703125 C4.69375,2.00703125 3.40078125,2.53359375 2.3953125,3.63515625 C2.3953125,3.63515625 2.3953125,3.63515625 2.3953125,3.63515625 C1.4375,4.73671875 0.95859375,6.1734375 0.95859375,7.89765625 C0.95859375,7.89765625 0.95859375,7.89765625 0.95859375,7.89765625 C0.95859375,9.190625 1.38984375,10.5796875 2.20390625,12.0640625 C2.20390625,12.0640625 2.20390625,12.0640625 2.20390625,12.0640625 C3.01796875,13.6445313 3.928125,14.9375 4.8859375,15.9914063 C4.8859375,15.9914063 4.8859375,15.9914063 4.8859375,15.9914063 C5.89140625,17.0929688 7.04140625,18.1945313 8.334375,19.2960938 C8.334375,19.2960938 8.334375,19.2960938 8.334375,19.2960938 C9.4359375,20.2539062 10.3460938,21.0203125 11.0640625,21.546875 C11.0640625,21.546875 11.0640625,21.546875 11.0640625,21.546875 C11.590625,21.978125 11.9742188,22.265625 12.2617188,22.4085938 L12.2617188,22.4085938 Z M12.2617188,4.3046875 C12.2617188,4.3046875 12.2617188,23.5578125 12.2617188,23.5578125 C12.2617188,23.5578125 11.6867188,23.175 11.6867188,23.175 C11.0640625,22.74375 10.5851563,22.3609375 10.25,22.1210938 C10.25,22.1210938 10.25,22.1210938 10.25,22.1210938 C9.77109375,21.7859375 8.81328125,21.0195312 7.42421875,19.7742187 C7.42421875,19.7742187 7.42421875,19.7742187 7.42421875,19.7742187 C6.03515625,18.5765625 4.8859375,17.4273437 3.928125,16.278125 C3.928125,16.278125 3.928125,16.278125 3.928125,16.278125 C3.01796875,15.2726562 2.10859375,13.93125 1.24609375,12.2554687 C1.24609375,12.2554687 1.24609375,12.2554687 1.24609375,12.2554687 C0.43203125,10.675 0.00078125,9.23828125 0.00078125,7.84921875 C0.00078125,7.84921875 0.00078125,7.84921875 0.00078125,7.84921875 C0.00078125,5.78984375 0.57578125,4.11328125 1.77265625,2.91640625 C1.77265625,2.91640625 1.77265625,2.91640625 1.77265625,2.91640625 C2.9703125,1.6234375 4.50234375,1.00078125 6.3703125,1.00078125 C6.3703125,1.00078125 6.3703125,1.00078125 6.3703125,1.00078125 C8.47734375,1.00078125 10.4414063,2.10234375 12.2609375,4.30546875 C12.2609375,4.30546875 12.2609375,4.30546875 12.2609375,4.30546875 L12.2617188,4.3046875 Z"/>
  <title>Heart Mixed</title>
</svg>