<svg xmlns="http://www.w3.org/2000/svg" viewBox="0 0 25 25" id="heart-solid">
  <path d="M24.521875,7.84765625 C24.521875,7.84765625 24.521875,7.84765625 24.521875,7.84765625 C24.521875,9.23671875 24.1390625,10.6734375 23.3242188,12.2539063 C22.509375,13.834375 21.6,15.2234375 20.6421875,16.325 C19.6367188,17.4265625 18.4867188,18.6242188 17.0984375,19.8210937 C15.7101562,21.0179688 14.7992187,21.8328125 14.3203125,22.1679688 C13.79375,22.503125 13.3148437,22.8867188 12.8359375,23.221875 C12.8359375,23.221875 12.8359375,23.221875 12.8359375,23.221875 C12.8359375,23.221875 12.2609375,23.5570313 12.2609375,23.5570313 C12.2609375,23.5570313 11.6859375,23.1742188 11.6859375,23.1742188 C11.2070312,22.8390625 10.728125,22.4554687 10.2492187,22.1203125 C9.72265625,21.7851562 8.8125,20.9710938 7.4234375,19.7734375 C6.034375,18.5757812 4.88515625,17.3789062 3.92734375,16.2773438 C2.921875,15.1757813 2.059375,13.8351563 1.2453125,12.2546875 C0.43125,10.6742187 0,9.2375 0,7.8484375 C0,7.8484375 0,7.8484375 0,7.8484375 C0,5.7890625 0.575,4.1609375 1.771875,2.86796875 C2.92109375,1.62265625 4.45390625,1 6.36953125,1 C6.36953125,1 6.36953125,1 6.36953125,1 C8.4765625,1 10.440625,2.1015625 12.2601562,4.3046875 C12.2601562,4.3046875 12.2601562,4.3046875 12.2601562,4.3046875 C14.0796875,2.1015625 16.04375,1 18.1507812,1 C18.1507812,1 18.1507812,1 18.1507812,1 C20.0664062,1 21.5992187,1.62265625 22.7960938,2.86796875 C23.9453125,4.1609375 24.5203125,5.7890625 24.5203125,7.8484375 L24.521875,7.84765625 Z"/>
  <title>Heart Solid</title>
</svg>