<svg xmlns="http://www.w3.org/2000/svg" viewBox="0 0 25 25" id="heart-pulse-solid">
  <path d="M7.37734375,8.8546875 C7.0421875,8.8546875 6.85078125,8.9984375 6.85078125,9.33359375 C6.85078125,9.66875 7.0421875,9.8125 7.37734375,9.8125 C7.37734375,9.8125 7.37734375,9.8125 7.37734375,9.8125 C7.37734375,9.8125 11.9273438,9.8125 11.9273438,9.8125 C11.9273438,9.8125 13.746875,14.4101563 13.746875,14.4101563 C13.8429688,14.6015625 13.9859375,14.6976563 14.2257813,14.7453125 C14.2257813,14.7453125 14.2257813,14.7453125 14.2257813,14.7453125 C14.3695313,14.7453125 14.5132813,14.6492187 14.6570313,14.4578125 C14.6570313,14.4578125 14.6570313,14.4578125 14.6570313,14.4578125 C14.6570313,14.4578125 18.2007813,7.36953125 18.2007813,7.36953125 C18.2007813,7.36953125 19.6851563,9.6203125 19.6851563,9.6203125 C19.8289063,9.7640625 19.9726563,9.81171875 20.1164063,9.81171875 C20.1164063,9.81171875 20.1164063,9.81171875 20.1164063,9.81171875 C20.1164063,9.81171875 24.2828125,9.81171875 24.2828125,9.81171875 C23.9476563,11.0570313 23.3726563,12.35 22.4632813,13.7390625 C21.5539063,15.128125 20.64375,16.325 19.6851563,17.33125 C18.7273438,18.3367187 17.6734375,19.3429688 16.571875,20.3007813 C15.4226563,21.30625 14.6085937,21.9773438 14.08125,22.3601563 C13.5539063,22.7429687 13.1234375,23.0304688 12.8359375,23.221875 C12.8359375,23.221875 12.8359375,23.221875 12.8359375,23.221875 C12.8359375,23.221875 12.2609375,23.5570313 12.2609375,23.5570313 C12.2609375,23.5570313 11.6859375,23.1742188 11.6859375,23.1742188 C11.2070312,22.8390625 10.728125,22.4554688 10.2492187,22.1203125 C9.72265625,21.7851563 8.8125,20.9710938 7.4234375,19.7734375 C6.034375,18.5757813 4.88515625,17.3789062 3.92734375,16.2773438 C2.921875,15.1757813 2.059375,13.8351563 1.2453125,12.2546875 C0.43125,10.6742188 0,9.2375 0,7.8484375 C0,7.8484375 0,7.8484375 0,7.8484375 C0,5.7890625 0.575,4.1609375 1.771875,2.86796875 C2.92109375,1.62265625 4.45390625,1 6.36953125,1 C6.36953125,1 6.36953125,1 6.36953125,1 C8.4765625,1 10.440625,2.1015625 12.2601562,4.3046875 C12.2601562,4.3046875 12.2601562,4.3046875 12.2601562,4.3046875 C14.0796875,2.1015625 16.04375,1 18.1507813,1 C18.1507813,1 18.1507813,1 18.1507813,1 C20.0664062,1 21.5992188,1.62265625 22.7960937,2.86796875 C23.9453125,4.1609375 24.5203125,5.7890625 24.5203125,7.8484375 C24.5203125,7.8484375 24.5203125,7.8484375 24.5203125,7.8484375 C24.5203125,8.0875 24.4726562,8.47109375 24.4242188,8.90234375 C24.4242188,8.90234375 24.4242188,8.90234375 24.4242188,8.90234375 C24.4242188,8.90234375 20.353125,8.8546875 20.353125,8.8546875 C20.353125,8.8546875 18.5335938,6.125 18.5335938,6.125 C18.4375,5.98125 18.2945313,5.8859375 18.1507813,5.8859375 C18.1507813,5.8859375 18.1507813,5.8859375 18.1507813,5.8859375 C18.1507813,5.8859375 18.103125,5.8859375 18.103125,5.8859375 C17.8640625,5.93359375 17.7679688,6.0296875 17.7203125,6.1734375 C17.7203125,6.1734375 17.7203125,6.1734375 17.7203125,6.1734375 C17.7203125,6.1734375 14.271875,13.021875 14.271875,13.021875 C14.271875,13.021875 12.7390625,9.1421875 12.7390625,9.1421875 C12.6429687,8.95078125 12.5,8.8546875 12.2601563,8.8546875 C12.2601563,8.8546875 12.2601563,8.8546875 12.2601563,8.8546875 C12.2601563,8.8546875 7.375,8.8546875 7.375,8.8546875 L7.37734375,8.8546875 Z"/>
  <title>Heart Pulse Solid</title>
</svg>