<svg xmlns="http://www.w3.org/2000/svg" viewBox="0 0 25 25" id="heart">
  <path d="M18.1507812,1.00078125 C18.1507812,1.00078125 18.1507812,1.00078125 18.1507812,1.00078125 C16.0914062,1.00078125 14.128125,2.10234375 12.2601562,4.30546875 C12.2601562,4.30546875 12.2601562,4.30546875 12.2601562,4.30546875 C10.3921875,2.10234375 8.42890625,1.00078125 6.36953125,1.00078125 C6.36953125,1.00078125 6.36953125,1.00078125 6.36953125,1.00078125 C4.45390625,1.00078125 2.92109375,1.6234375 1.771875,2.86875 C0.57421875,4.16171875 0,5.83828125 0,7.89765625 C0,7.89765625 0,7.89765625 0,7.89765625 C0,9.28671875 0.43125,10.7234375 1.2453125,12.25625 C2.059375,13.8367187 2.921875,15.1773437 3.92734375,16.2789062 C4.88515625,17.3804687 6.034375,18.578125 7.4234375,19.775 C8.8125,20.971875 9.72265625,21.7867187 10.2015625,22.121875 C10.6804688,22.4570312 11.159375,22.840625 11.6859375,23.1757812 C11.6859375,23.1757812 11.6859375,23.1757812 11.6859375,23.1757812 C11.6859375,23.1757812 12.2609375,23.5585938 12.2609375,23.5585938 C12.2609375,23.5585938 12.8359375,23.2710938 12.8359375,23.2710938 C13.3148438,22.9359375 13.79375,22.5523437 14.3203125,22.2171875 C14.7992187,21.8820313 15.709375,21.0679687 17.0984375,19.8703125 C18.4875,18.6726562 19.6367188,17.4757813 20.6421875,16.3742187 C21.6,15.2726562 22.5101562,13.8835938 23.3242188,12.303125 C24.1382813,10.7226562 24.521875,9.2859375 24.521875,7.896875 C24.521875,7.896875 24.521875,7.896875 24.521875,7.896875 C24.521875,5.8375 23.946875,4.1609375 22.7976562,2.86796875 C21.6,1.62265625 20.0679688,1 18.1523438,1 L18.1507812,1.00078125 Z M13.409375,21.5945312 C13.409375,21.5945312 12.2601562,22.4085938 12.2601562,22.4085938 C11.925,22.1695312 11.5414062,21.8820313 11.0625,21.4984375 C10.5359375,21.1632813 9.62578125,20.396875 8.3328125,19.2953125 C7.03984375,18.19375 5.890625,17.0445312 4.884375,15.9429688 C3.87890625,14.8414063 3.01640625,13.5484375 2.20234375,12.0632812 C1.38828125,10.578125 0.95703125,9.18984375 0.95703125,7.896875 C0.95703125,7.896875 0.95703125,7.896875 0.95703125,7.896875 C0.95703125,6.125 1.4359375,4.7359375 2.39375,3.634375 C3.3515625,2.5328125 4.69296875,2.00625 6.36875,2.00625 C6.36875,2.00625 6.36875,2.00625 6.36875,2.00625 C7.37421875,2.00625 8.38046875,2.34140625 9.3859375,2.9640625 C10.34375,3.634375 11.0625,4.3046875 11.5414062,4.97578125 C11.5414062,4.97578125 11.5414062,4.97578125 11.5414062,4.97578125 C11.5414062,4.97578125 12.2601562,5.93359375 12.2601562,5.93359375 C12.4515625,5.64609375 12.7390625,5.26328125 13.0742187,4.83203125 C13.409375,4.40078125 14.0796875,3.8265625 15.1335937,3.1078125 C16.1390625,2.3890625 17.1453125,2.00625 18.1507812,2.00625 C18.1507812,2.00625 18.1507812,2.00625 18.1507812,2.00625 C19.8273437,2.00625 21.1679687,2.5328125 22.1257812,3.634375 C23.0835937,4.7359375 23.5625,6.125 23.5625,7.896875 C23.5625,7.896875 23.5625,7.896875 23.5625,7.896875 C23.5625,9.18984375 23.1796875,10.5789062 22.4132812,12.0632813 C21.5992187,13.5476563 20.6890625,14.8414063 19.5875,16.0382812 C18.4859375,17.2351562 17.384375,18.2890625 16.2828125,19.2953125 C15.18125,20.3007812 14.2234375,21.0671875 13.409375,21.5945313 C13.409375,21.5945313 13.409375,21.5945313 13.409375,21.5945312 Z"/>
  <title>Heart</title>
</svg>