<svg xmlns="http://www.w3.org/2000/svg" viewBox="0 0 25 25" id="help">
  <path d="M6.2140625,19.3367188 C8.03359375,21.2046875 10.2367188,22.1148437 12.775,22.1148437 C15.3132812,22.1148437 17.5164062,21.2046875 19.384375,19.3367188 C21.2039063,17.5171875 22.1140625,15.3140625 22.1140625,12.7757812 C22.1140625,10.2375 21.2039063,8.034375 19.384375,6.16640625 C17.5164062,4.346875 15.3132812,3.43671875 12.775,3.43671875 C10.2367188,3.43671875 8.03359375,4.346875 6.2140625,6.16640625 C4.34609375,8.034375 3.4359375,10.2375 3.4359375,12.7757812 C3.4359375,15.3140625 4.34609375,17.5171875 6.2140625,19.3367188 Z M20.390625,20.390625 C18.2835938,22.4976562 15.7453125,23.5515625 12.7757812,23.5515625 C9.80625,23.5515625 7.26796875,22.4976562 5.1609375,20.390625 C3.05390625,18.2835938 2,15.7453125 2,12.7757812 C2,9.80625 3.05390625,7.26796875 5.1609375,5.1609375 C7.26796875,3.05390625 9.80625,2 12.7757812,2 C15.7453125,2 18.2835938,3.05390625 20.390625,5.1609375 C22.4976562,7.26796875 23.5515625,9.80625 23.5515625,12.7757812 C23.5515625,15.7453125 22.4976562,18.2835938 20.390625,20.390625 Z M13.7335937,14.6914062 C13.7335937,14.6914062 11.578125,14.6914062 11.578125,14.6914062 C11.578125,14.6914062 11.578125,14.1164062 11.578125,14.1164062 C11.578125,13.6851562 11.6742187,13.2546875 11.9132813,12.7273437 C11.9132813,12.7273437 11.9132813,12.7273437 11.9132813,12.7273437 C12.1523437,12.3445312 12.5835937,11.9609375 13.1585937,11.5296875 C13.1585937,11.5296875 13.1585937,11.5296875 13.1585937,11.5296875 C13.6851562,11.146875 14.0203125,10.8109375 14.2601562,10.5242188 C14.2601562,10.5242188 14.2601562,10.5242188 14.2601562,10.5242188 C14.4515625,10.2851563 14.5476562,9.99765625 14.5476562,9.6625 C14.5476562,9.6625 14.5476562,9.6625 14.5476562,9.6625 C14.5476562,9.32734375 14.4039062,9.03984375 14.1648437,8.8484375 C14.1648437,8.8484375 14.1648437,8.8484375 14.1648437,8.8484375 C13.8296875,8.7046875 13.4945312,8.609375 13.0632812,8.609375 C13.0632812,8.609375 13.0632812,8.609375 13.0632812,8.609375 C12.2492187,8.609375 11.2914062,8.8484375 10.2851562,9.37578125 C10.2851562,9.37578125 10.2851562,9.37578125 10.2851562,9.37578125 C10.2851562,9.37578125 9.375,7.60390625 9.375,7.60390625 C10.6203125,6.93359375 11.9132813,6.5984375 13.2546875,6.5984375 C13.2546875,6.5984375 13.2546875,6.5984375 13.2546875,6.5984375 C14.4523438,6.5984375 15.3140625,6.8859375 15.8890625,7.4125 C15.8890625,7.4125 15.8890625,7.4125 15.8890625,7.4125 C16.559375,7.9390625 16.8945312,8.61015625 16.8945312,9.51953125 C16.8945312,9.51953125 16.8945312,9.51953125 16.8945312,9.51953125 C16.8945312,10.1421875 16.7507812,10.66875 16.5117188,11.1 C16.5117188,11.1 16.5117188,11.1 16.5117188,11.1 C16.2242187,11.53125 15.6976562,12.0101563 14.93125,12.5367188 C14.93125,12.5367188 14.93125,12.5367188 14.93125,12.5367188 C14.5,12.8242188 14.2125,13.1117188 13.9734375,13.446875 C13.9734375,13.446875 13.9734375,13.446875 13.9734375,13.446875 C13.8296875,13.6859375 13.734375,13.9257813 13.734375,14.2132813 C13.734375,14.2132813 13.734375,14.2132813 13.734375,14.2132813 C13.734375,14.2132813 13.734375,14.6921875 13.734375,14.6921875 L13.7335937,14.6914062 Z M11.3382812,17.5171875 C11.3382812,17.5171875 11.3382812,17.5171875 11.3382812,17.5171875 C11.3382812,17.0382813 11.434375,16.703125 11.6734375,16.4632813 C11.6734375,16.4632813 11.6734375,16.4632813 11.6734375,16.4632813 C11.9125,16.2242187 12.2960937,16.128125 12.775,16.128125 C12.775,16.128125 12.775,16.128125 12.775,16.128125 C13.20625,16.128125 13.5890625,16.2242188 13.8289062,16.4632813 C13.8289062,16.4632813 13.8289062,16.4632813 13.8289062,16.4632813 C14.0679688,16.7023438 14.1640625,17.0382813 14.1640625,17.5171875 C14.1640625,17.5171875 14.1640625,17.5171875 14.1640625,17.5171875 C14.1640625,17.9484375 14.0203125,18.2835938 13.78125,18.5226563 C13.78125,18.5226563 13.78125,18.5226563 13.78125,18.5226563 C13.5421875,18.7617188 13.20625,18.8578125 12.7757812,18.8578125 C12.7757812,18.8578125 12.7757812,18.8578125 12.7757812,18.8578125 C12.296875,18.8578125 11.9617188,18.7617188 11.721875,18.5226563 C11.721875,18.5226563 11.721875,18.5226563 11.721875,18.5226563 C11.4828125,18.2835938 11.3390625,17.9476563 11.3390625,17.5171875 L11.3382812,17.5171875 Z"/>
  <title>Help</title>
</svg>