<svg xmlns="http://www.w3.org/2000/svg" viewBox="0 0 25 25" id="help-solid">
  <path d="M19.5765625,19.5765625 C17.5648437,21.5882813 15.1226562,22.59375 12.296875,22.59375 C9.47109375,22.59375 7.02890625,21.5882813 5.0171875,19.5765625 C3.00546875,17.5648438 2,15.1226562 2,12.296875 C2,9.47109375 3.00546875,7.02890625 5.0171875,5.0171875 C7.02890625,3.00546875 9.47109375,2 12.296875,2 C15.1226563,2 17.5648438,3.00546875 19.5765625,5.0171875 C21.5882812,7.02890625 22.59375,9.47109375 22.59375,12.296875 C22.59375,15.1226562 21.5882813,17.5648438 19.5765625,19.5765625 Z M11.0992188,13.6375 C11.0992188,13.6375 11.0992188,14.2125 11.0992188,14.2125 C11.0992188,14.2125 13.2546875,14.2125 13.2546875,14.2125 C13.2546875,14.2125 13.2546875,13.7335937 13.2546875,13.7335937 C13.2546875,13.4460937 13.3507813,13.2070312 13.49375,12.9671875 C13.49375,12.9671875 13.49375,12.9671875 13.49375,12.9671875 C13.7328125,12.6320312 14.0203125,12.3445312 14.4515625,12.0570312 C14.4515625,12.0570312 14.4515625,12.0570312 14.4515625,12.0570312 C15.2179688,11.5304687 15.7445313,11.0515625 16.0320312,10.6203125 C16.0320312,10.6203125 16.0320312,10.6203125 16.0320312,10.6203125 C16.2710938,10.1890625 16.4148437,9.6625 16.4148437,9.03984375 C16.4148437,9.03984375 16.4148437,9.03984375 16.4148437,9.03984375 C16.4148437,8.1296875 16.0796875,7.459375 15.409375,6.9328125 C15.409375,6.9328125 15.409375,6.9328125 15.409375,6.9328125 C14.834375,6.40625 13.9726563,6.11875 12.775,6.11875 C12.775,6.11875 12.775,6.11875 12.775,6.11875 C11.434375,6.11875 10.140625,6.45390625 8.8953125,7.12421875 C8.8953125,7.12421875 8.8953125,7.12421875 8.8953125,7.12421875 C8.8953125,7.12421875 9.80546875,8.89609375 9.80546875,8.89609375 C10.8109375,8.36953125 11.76875,8.1296875 12.5835937,8.1296875 C12.5835937,8.1296875 12.5835937,8.1296875 12.5835937,8.1296875 C13.0148437,8.1296875 13.35,8.22578125 13.6851562,8.36875 C13.6851562,8.36875 13.6851562,8.36875 13.6851562,8.36875 C13.9242188,8.56015625 14.0679687,8.84765625 14.0679687,9.1828125 C14.0679687,9.1828125 14.0679687,9.1828125 14.0679687,9.1828125 C14.0679687,9.51796875 13.971875,9.80546875 13.7804688,10.0445312 C13.7804688,10.0445312 13.7804688,10.0445312 13.7804688,10.0445312 C13.5414062,10.3320312 13.2054687,10.6671875 12.6789062,11.05 C12.6789062,11.05 12.6789062,11.05 12.6789062,11.05 C12.1039062,11.48125 11.6734375,11.8640625 11.4335938,12.2476562 C11.4335938,12.2476562 11.4335938,12.2476562 11.4335938,12.2476562 C11.1945313,12.7742187 11.0984375,13.2054687 11.0984375,13.6367187 C11.0984375,13.6367187 11.0984375,13.6367187 11.0984375,13.6367187 L11.0992188,13.6375 Z M10.859375,17.0382812 C10.859375,17.0382812 10.859375,17.0382812 10.859375,17.0382812 C10.859375,17.4695312 11.003125,17.8046875 11.2421875,18.04375 C11.2421875,18.04375 11.2421875,18.04375 11.2421875,18.04375 C11.48125,18.2828125 11.8171875,18.3789062 12.2960938,18.3789062 C12.2960938,18.3789062 12.2960938,18.3789062 12.2960938,18.3789062 C12.7273438,18.3789062 13.0625,18.2828125 13.3015625,18.04375 C13.3015625,18.04375 13.3015625,18.04375 13.3015625,18.04375 C13.540625,17.8046875 13.684375,17.46875 13.684375,17.0382812 C13.684375,17.0382812 13.684375,17.0382812 13.684375,17.0382812 C13.684375,16.559375 13.5882812,16.2242187 13.3492188,15.984375 C13.3492188,15.984375 13.3492188,15.984375 13.3492188,15.984375 C13.1101562,15.7453125 12.7265625,15.6492187 12.2953125,15.6492187 C12.2953125,15.6492187 12.2953125,15.6492187 12.2953125,15.6492187 C11.8164063,15.6492187 11.4335938,15.7453125 11.19375,15.984375 C11.19375,15.984375 11.19375,15.984375 11.19375,15.984375 C10.9546875,16.2234375 10.8585938,16.559375 10.8585938,17.0382812 L10.859375,17.0382812 Z"/>
  <title>Help Solid</title>
</svg>