<svg xmlns="http://www.w3.org/2000/svg" viewBox="0 0 25 25" id="history-solid">
  <path d="M20.9302734,20.9302734 C16.1419922,25.7185547 8.37949219,25.7185547 3.59121094,20.9302734 C-1.19707031,16.1419922 -1.19707031,8.37949219 3.59121094,3.59121094 C8.37949219,-1.19707031 16.1419922,-1.19707031 20.9302734,3.59121094 C25.7185547,8.37949219 25.7185547,16.1419922 20.9302734,20.9302734 Z M11.6099609,12.4529297 C11.6099609,12.4529297 11.6099609,12.8326172 11.8927734,13.0693359 C11.8927734,13.0693359 14.4607422,15.2240234 14.4607422,15.2240234 C14.6732422,15.4029297 14.9904297,15.3748047 15.1693359,15.1623047 C15.3482422,14.9498047 15.3201172,14.6326172 15.1076172,14.4537109 C15.1076172,14.4537109 12.6162109,12.3630859 12.6162109,12.3630859 C12.6162109,12.3630859 12.6162109,7.66308594 12.6162109,7.66308594 C12.6162109,7.38574219 12.3912109,7.15996094 12.1130859,7.15996094 C11.8349609,7.15996094 11.6099609,7.38496094 11.6099609,7.66308594 C11.6099609,7.66308594 11.6099609,12.4521484 11.6099609,12.4521484 L11.6099609,12.4529297 Z M5.15449219,14.2404297 C4.84199219,13.1138672 4.80136719,11.9271484 5.03339844,10.7849609 C5.18183594,10.0552734 5.44121094,9.34433594 5.81152344,8.67792969 C6.13730469,8.09277344 6.54824219,7.54199219 7.04511719,7.04511719 C9.92558594,4.16464844 14.5951172,4.16464844 17.4755859,7.04511719 C20.3560547,9.92558594 20.3560547,14.5951172 17.4755859,17.4755859 C16.2576172,18.6935547 14.7193359,19.3966797 13.1318359,19.5841797 C12.8568359,19.6958984 12.6873047,19.8654297 12.6224609,20.0935547 C12.5248047,20.4365234 12.9615234,20.6638672 13.1802734,20.6513672 C15.1654297,20.5396484 16.6708984,19.7029297 18.1873047,18.1865234 C21.4599609,14.9130859 21.4599609,9.60683594 18.1873047,6.33339844 C14.9146484,3.05996094 9.60761719,3.06074219 6.33417969,6.33339844 C5.74355469,6.92402344 5.25917969,7.58105469 4.88183594,8.28105469 C4.45761719,9.06699219 4.16777344,9.90683594 4.01308594,10.7654297 C3.81933594,11.8419922 3.83652344,12.9498047 4.06542969,14.0208984 C4.06542969,14.0208984 2.69355469,12.6490234 2.69355469,12.6490234 C2.49746094,12.4529297 2.17871094,12.4529297 1.98261719,12.6490234 C1.78652344,12.8451172 1.78652344,13.1638672 1.98261719,13.3599609 C1.98261719,13.3599609 4.35292969,15.7302734 4.35292969,15.7302734 C4.45527344,15.8326172 4.59121094,15.8818359 4.72558594,15.8771484 C4.86152344,15.8818359 4.99824219,15.8318359 5.10136719,15.7271484 C5.10136719,15.7271484 7.45214844,13.3365234 7.45214844,13.3365234 C7.64667969,13.1388672 7.64433594,12.8201172 7.44589844,12.6255859 C7.24746094,12.4310547 6.92949219,12.4333984 6.73496094,12.6318359 C6.73496094,12.6318359 5.15449219,14.2388672 5.15449219,14.2388672 L5.15449219,14.2404297 Z"/>
  <title>History Solid</title>
</svg>