<svg xmlns="http://www.w3.org/2000/svg" viewBox="0 0 25 25" id="history">
  <path d="M12.7744141,12.5743164 C12.7744141,12.5743164 12.7744141,12.9540039 13.0572266,13.1907227 C13.0572266,13.1907227 15.6251953,15.3454102 15.6251953,15.3454102 C15.8376953,15.5243164 16.1548828,15.4961914 16.3337891,15.2836914 C16.5126953,15.0711914 16.4845703,14.7540039 16.2720703,14.5750977 C16.2720703,14.5750977 13.7806641,12.4844727 13.7806641,12.4844727 C13.7806641,12.4844727 13.7806641,7.78447266 13.7806641,7.78447266 C13.7806641,7.50712891 13.5556641,7.28134766 13.2775391,7.28134766 C12.9994141,7.28134766 12.7744141,7.50634766 12.7744141,7.78447266 C12.7744141,7.78447266 12.7744141,12.5735352 12.7744141,12.5735352 L12.7744141,12.5743164 Z M6.31894531,14.3618164 C6.00644531,13.2352539 5.96582031,12.0485352 6.19785156,10.9063477 C6.34628906,10.1766602 6.60566406,9.46572266 6.97597656,8.79931641 C7.30175781,8.21416016 7.71269531,7.66337891 8.20957031,7.16650391 C11.0900391,4.28603516 15.7595703,4.28603516 18.6400391,7.16650391 C21.5205078,10.0469727 21.5205078,14.7165039 18.6400391,17.5969727 C17.4220703,18.8149414 15.8837891,19.5180664 14.2962891,19.7055664 C14.0212891,19.8172852 13.8517578,19.9868164 13.7869141,20.2149414 C13.6892578,20.5579102 14.1259766,20.7852539 14.3447266,20.7727539 C16.3298828,20.6610352 17.8353516,19.8243164 19.3517578,18.3079102 C22.6244141,15.0344727 22.6244141,9.72822266 19.3517578,6.45478516 C16.0791016,3.18134766 10.7720703,3.18212891 7.49863281,6.45478516 C6.90800781,7.04541016 6.42363281,7.70244141 6.04628906,8.40244141 C5.62207031,9.18837891 5.33222656,10.0282227 5.17753906,10.8868164 C4.98378906,11.9633789 5.00097656,13.0711914 5.22988281,14.1422852 C5.22988281,14.1422852 3.85800781,12.7704102 3.85800781,12.7704102 C3.66191406,12.5743164 3.34316406,12.5743164 3.14707031,12.7704102 C2.95097656,12.9665039 2.95097656,13.2852539 3.14707031,13.4813477 C3.14707031,13.4813477 5.51738281,15.8516602 5.51738281,15.8516602 C5.61972656,15.9540039 5.75566406,16.0032227 5.89003906,15.9985352 C6.02597656,16.0032227 6.16269531,15.9532227 6.26582031,15.8485352 C6.26582031,15.8485352 8.61660156,13.4579102 8.61660156,13.4579102 C8.81113281,13.2602539 8.80878906,12.9415039 8.61035156,12.7469727 C8.41191406,12.5524414 8.09394531,12.5547852 7.89941406,12.7532227 C7.89941406,12.7532227 6.31894531,14.3602539 6.31894531,14.3602539 L6.31894531,14.3618164 Z"/>
  <title>History</title>
</svg>