<svg xmlns="http://www.w3.org/2000/svg" viewBox="0 0 25 25" id="home-alt-solid">
  <path d="M24.3765625,11.9195313 C24.3765625,11.9195313 24.3765625,11.9195313 24.3765625,11.9195313 C24.3765625,11.9195313 12.5953125,1.14375 12.5953125,1.14375 C12.4992187,1.04765625 12.4039062,1 12.2601562,1 C12.1164063,1 12.0210937,1.04765625 11.925,1.14375 C11.925,1.14375 11.925,1.14375 11.925,1.14375 C11.925,1.14375 0.14375,11.9195313 0.14375,11.9195313 C0.04765625,12.015625 0,12.1109375 0,12.2546875 C0,12.2546875 0,12.2546875 0,12.2546875 C0,12.5898437 0.14375,12.78125 0.47890625,12.78125 C0.47890625,12.78125 0.47890625,12.78125 0.47890625,12.78125 C0.62265625,12.78125 0.71796875,12.7335938 0.8140625,12.6375 C0.8140625,12.6375 0.8140625,12.6375 0.8140625,12.6375 C0.8140625,12.6375 2.92109375,10.6742187 2.92109375,10.6742187 C2.92109375,10.6742187 2.92109375,22.0726562 2.92109375,22.0726562 C2.92109375,22.5039062 3.06484375,22.8390625 3.35234375,23.1265625 C3.63984375,23.4140625 3.975,23.5578125 4.40625,23.5578125 C4.40625,23.5578125 4.40625,23.5578125 4.40625,23.5578125 C4.40625,23.5578125 11.7820312,23.5578125 11.7820312,23.5578125 C11.7820312,23.5578125 11.7820312,15.703125 11.7820312,15.703125 C11.7820312,15.4640625 11.878125,15.2242187 12.0695312,15.0328125 C12.2609375,14.8414062 12.5007812,14.7453125 12.7398438,14.7453125 C12.7398438,14.7453125 12.7398438,14.7453125 12.7398438,14.7453125 C12.7398438,14.7453125 16.6671875,14.7453125 16.6671875,14.7453125 C16.90625,14.7453125 17.1460937,14.8414063 17.3859375,15.0328125 C17.5773438,15.2242187 17.6734375,15.4640625 17.6734375,15.703125 C17.6734375,15.703125 17.6734375,15.703125 17.6734375,15.703125 C17.6734375,15.703125 17.6734375,23.5578125 17.6734375,23.5578125 C17.6734375,23.5578125 20.115625,23.5578125 20.115625,23.5578125 C20.546875,23.5578125 20.8820313,23.4140625 21.1695313,23.1265625 C21.4570312,22.8390625 21.6007813,22.5039062 21.6007813,22.0726562 C21.6007813,22.0726562 21.6007813,22.0726562 21.6007813,22.0726562 C21.6007813,22.0726562 21.6007813,10.6742187 21.6007813,10.6742187 C21.6007813,10.6742187 23.7078125,12.6375 23.7078125,12.6375 C23.8039063,12.7335938 23.8992187,12.78125 24.0429688,12.78125 C24.0429688,12.78125 24.0429688,12.78125 24.0429688,12.78125 C24.378125,12.78125 24.521875,12.5898437 24.521875,12.2546875 C24.521875,12.2546875 24.521875,12.2546875 24.521875,12.2546875 C24.521875,12.1109375 24.4742188,12.015625 24.378125,11.9195313 L24.3765625,11.9195313 Z M9.8171875,15.703125 C9.8171875,15.703125 9.8171875,17.6664062 9.8171875,17.6664062 C9.8171875,17.9054688 9.72109375,18.1453125 9.5296875,18.3367187 C9.33828125,18.5757813 9.0984375,18.671875 8.8109375,18.671875 C8.8109375,18.671875 8.8109375,18.671875 8.8109375,18.671875 C8.8109375,18.671875 6.84765625,18.671875 6.84765625,18.671875 C6.60859375,18.671875 6.36875,18.5757812 6.17734375,18.3367187 C5.9859375,18.1453125 5.88984375,17.9054688 5.88984375,17.6664062 C5.88984375,17.6664062 5.88984375,17.6664062 5.88984375,17.6664062 C5.88984375,17.6664062 5.88984375,15.703125 5.88984375,15.703125 C5.88984375,15.4640625 5.9859375,15.2242188 6.17734375,15.0328125 C6.36875,14.8414062 6.60859375,14.7453125 6.84765625,14.7453125 C6.84765625,14.7453125 6.84765625,14.7453125 6.84765625,14.7453125 C6.84765625,14.7453125 8.8109375,14.7453125 8.8109375,14.7453125 C9.0984375,14.7453125 9.3375,14.8414063 9.5296875,15.0328125 C9.721875,15.2242187 9.8171875,15.4640625 9.8171875,15.703125 C9.8171875,15.703125 9.8171875,15.703125 9.8171875,15.703125 L9.8171875,15.703125 Z"/>
  <title>Home Alt Solid</title>
</svg>