<svg xmlns="http://www.w3.org/2000/svg" viewBox="0 0 25 25" id="home-alt">
  <path d="M24.3765625,11.9195312 C24.3765625,11.9195312 24.3765625,11.9195312 24.3765625,11.9195312 C24.3765625,11.9195312 12.5953125,1.14375 12.5953125,1.14375 C12.4992187,1.04765625 12.4039062,1 12.2601562,1 C12.1164063,1 12.0210937,1.04765625 11.925,1.14375 C11.925,1.14375 11.925,1.14375 11.925,1.14375 C11.925,1.14375 0.14375,11.9195312 0.14375,11.9195312 C0.04765625,12.015625 0,12.1585937 0,12.3023437 C0,12.3023437 0,12.3023437 0,12.3023437 C0,12.6375 0.14375,12.78125 0.47890625,12.78125 C0.47890625,12.78125 0.47890625,12.78125 0.47890625,12.78125 C0.575,12.78125 0.6703125,12.7335937 0.8140625,12.6851562 C0.8140625,12.6851562 0.8140625,12.6851562 0.8140625,12.6851562 C0.8140625,12.6851562 2.92109375,10.721875 2.92109375,10.721875 C2.92109375,10.721875 2.92109375,22.1203125 2.92109375,22.1203125 C2.92109375,22.5515625 3.06484375,22.8867187 3.35234375,23.1257812 C3.63984375,23.4132812 3.975,23.5570312 4.40625,23.5570312 C4.40625,23.5570312 4.40625,23.5570312 4.40625,23.5570312 C4.40625,23.5570312 20.1148437,23.5570312 20.1148437,23.5570312 C20.5460937,23.5570312 20.88125,23.4132812 21.16875,23.1257812 C21.45625,22.8867187 21.6,22.5507812 21.6,22.1203125 C21.6,22.1203125 21.6,22.1203125 21.6,22.1203125 C21.6,22.1203125 21.6,10.721875 21.6,10.721875 C21.6,10.721875 23.7070312,12.6851562 23.7070312,12.6851562 C23.8507812,12.7328125 23.9460937,12.78125 24.0421875,12.78125 C24.0421875,12.78125 24.0421875,12.78125 24.0421875,12.78125 C24.3773438,12.78125 24.5210937,12.6375 24.5210937,12.3023437 C24.5210937,12.3023437 24.5210937,12.3023437 24.5210937,12.3023437 C24.5210937,12.1585937 24.4734375,12.0148437 24.3773438,11.9195312 L24.3765625,11.9195312 Z M16.665625,15.7507812 C16.665625,15.7507812 16.665625,22.5992187 16.665625,22.5992187 C16.665625,22.5992187 12.7382812,22.5992187 12.7382812,22.5992187 C12.7382812,22.5992187 12.7382812,15.7507812 12.7382812,15.7507812 C12.7382812,15.7507812 16.665625,15.7507812 16.665625,15.7507812 Z M20.6414062,9.86015625 C20.6414062,9.86015625 20.59375,9.86015625 20.59375,9.86015625 C20.59375,9.86015625 20.59375,22.1203125 20.59375,22.1203125 C20.59375,22.4554687 20.45,22.5992187 20.1148437,22.5992187 C20.1148437,22.5992187 20.1148437,22.5992187 20.1148437,22.5992187 C20.1148437,22.5992187 17.6726562,22.5992187 17.6726562,22.5992187 C17.6726562,22.5992187 17.6726562,15.7507812 17.6726562,15.7507812 C17.6726562,15.4632812 17.5765625,15.2242187 17.3851562,15.0320312 C17.1460937,14.840625 16.90625,14.7445312 16.6664062,14.7445312 C16.6664062,14.7445312 16.6664062,14.7445312 16.6664062,14.7445312 C16.6664062,14.7445312 12.7390625,14.7445312 12.7390625,14.7445312 C12.5,14.7445312 12.2601562,14.840625 12.06875,15.0320312 C11.8773437,15.2234375 11.78125,15.4632812 11.78125,15.7507812 C11.78125,15.7507812 11.78125,15.7507812 11.78125,15.7507812 C11.78125,15.7507812 11.78125,22.5992187 11.78125,22.5992187 C11.78125,22.5992187 4.40546875,22.5992187 4.40546875,22.5992187 C4.0703125,22.5992187 3.9265625,22.4554687 3.9265625,22.1203125 C3.9265625,22.1203125 3.9265625,22.1203125 3.9265625,22.1203125 C3.9265625,22.1203125 3.9265625,9.859375 3.9265625,9.859375 C3.9265625,9.859375 3.87890625,9.859375 3.87890625,9.859375 C3.87890625,9.859375 12.2601562,2.196875 12.2601562,2.196875 C12.2601562,2.196875 20.6414062,9.859375 20.6414062,9.859375 L20.6414062,9.86015625 Z M8.81171875,14.7453125 C8.81171875,14.7453125 8.81171875,14.7453125 8.81171875,14.7453125 C8.81171875,14.7453125 6.8484375,14.7453125 6.8484375,14.7453125 C6.609375,14.7453125 6.36953125,14.8414063 6.178125,15.0328125 C5.98671875,15.2242187 5.890625,15.4640625 5.890625,15.7515625 C5.890625,15.7515625 5.890625,15.7515625 5.890625,15.7515625 C5.890625,15.7515625 5.890625,17.7148438 5.890625,17.7148438 C5.890625,17.9539063 5.98671875,18.19375 6.178125,18.3851563 C6.36953125,18.5765625 6.609375,18.6726562 6.8484375,18.6726562 C6.8484375,18.6726562 6.8484375,18.6726562 6.8484375,18.6726562 C6.8484375,18.6726562 8.81171875,18.6726562 8.81171875,18.6726562 C9.09921875,18.6726562 9.33828125,18.5765625 9.53046875,18.3851563 C9.72265625,18.19375 9.81796875,17.9539063 9.81796875,17.7148438 C9.81796875,17.7148438 9.81796875,17.7148438 9.81796875,17.7148438 C9.81796875,17.7148438 9.81796875,15.7515625 9.81796875,15.7515625 C9.81796875,15.4640625 9.721875,15.225 9.53046875,15.0328125 C9.3390625,14.840625 9.09921875,14.7453125 8.81171875,14.7453125 L8.81171875,14.7453125 Z M8.81171875,15.7507812 C8.81171875,15.7507812 8.81171875,17.7140625 8.81171875,17.7140625 C8.81171875,17.7140625 6.8484375,17.7140625 6.8484375,17.7140625 C6.8484375,17.7140625 6.8484375,15.7507812 6.8484375,15.7507812 C6.8484375,15.7507812 8.81171875,15.7507812 8.81171875,15.7507812 Z"/>
  <title>Home Alt</title>
</svg>