<svg xmlns="http://www.w3.org/2000/svg" viewBox="0 0 25 25" id="inbox-solid">
  <path d="M23.4671875,13.7335937 C23.4671875,13.7335937 15.9960938,13.7335937 15.9960938,13.7335937 C15.9960938,13.7335937 15.9960938,14.2601562 15.9960938,14.2601562 C15.9960938,15.265625 15.6132813,16.1757812 14.8945313,16.8945312 C14.1757812,17.6132812 13.2664063,17.9960938 12.2601563,17.9960938 C11.2546875,17.9960938 10.3445313,17.6132812 9.62578125,16.8945312 C8.90703125,16.1757812 8.52421875,15.2664063 8.52421875,14.2601562 C8.52421875,14.2601562 8.52421875,14.2601562 8.52421875,14.2601562 C8.52421875,14.2601562 8.52421875,13.7335937 8.52421875,13.7335937 C8.52421875,13.7335937 1.053125,13.7335937 1.053125,13.7335937 C1.053125,13.7335937 4.7890625,3.1015625 4.7890625,3.1015625 C4.7890625,3.1015625 19.73125,3.1015625 19.73125,3.1015625 C19.73125,3.1015625 23.4671875,13.7335937 23.4671875,13.7335937 Z M24.5210937,13.7335937 C24.5210937,13.7335937 20.2585937,2 20.2585937,2 C20.2585937,2 4.2625,2 4.2625,2 C4.2625,2 0,13.7335937 0,13.7335937 C0,13.7335937 0,23.3601562 0,23.3601562 C0,23.3601562 24.5210937,23.3601562 24.5210937,23.3601562 C24.5210937,23.3601562 24.5210937,13.7335937 24.5210937,13.7335937 Z"/>
  <title>Inbox Solid</title>
</svg>