<svg xmlns="http://www.w3.org/2000/svg" viewBox="0 0 25 25" id="indent">
  <path d="M1,2.5265625 C1,2.5265625 1,2.5265625 1,2.5265625 C1,2.19140625 1.19140625,2 1.5265625,2 C1.5265625,2 1.5265625,2 1.5265625,2 C1.5265625,2 24.084375,2 24.084375,2 C24.4195313,2 24.5632812,2.19140625 24.5632812,2.5265625 C24.5632812,2.5265625 24.5632812,2.5265625 24.5632812,2.5265625 C24.5632812,2.86171875 24.4195313,3.00546875 24.084375,3.00546875 C24.084375,3.00546875 24.084375,3.00546875 24.084375,3.00546875 C24.084375,3.00546875 1.5265625,3.00546875 1.5265625,3.00546875 C1.19140625,3.00546875 1,2.86171875 1,2.5265625 Z M1.5265625,7.890625 C1.5265625,7.890625 1.5265625,7.890625 1.5265625,7.890625 C1.5265625,7.890625 12.3023438,7.890625 12.3023438,7.890625 C12.6375,7.890625 12.78125,7.746875 12.78125,7.41171875 C12.78125,7.0765625 12.6375,6.9328125 12.3023438,6.9328125 C12.3023438,6.9328125 12.3023438,6.9328125 12.3023438,6.9328125 C12.3023438,6.9328125 1.5265625,6.9328125 1.5265625,6.9328125 C1.19140625,6.9328125 1,7.0765625 1,7.41171875 C1,7.746875 1.19140625,7.890625 1.5265625,7.890625 Z M1.5265625,12.8242187 C1.5265625,12.8242187 1.5265625,12.8242187 1.5265625,12.8242187 C1.5265625,12.8242187 12.3023438,12.8242187 12.3023438,12.8242187 C12.6375,12.8242187 12.78125,12.6328125 12.78125,12.2976562 C12.78125,12.2976562 12.78125,12.2976562 12.78125,12.2976562 C12.78125,11.9625 12.6375,11.81875 12.3023438,11.81875 C12.3023438,11.81875 12.3023438,11.81875 12.3023438,11.81875 C12.3023438,11.81875 1.5265625,11.81875 1.5265625,11.81875 C1.19140625,11.81875 1,11.9625 1,12.2976562 C1,12.2976562 1,12.2976562 1,12.2976562 C1,12.6328125 1.19140625,12.8242187 1.5265625,12.8242187 Z M1.5265625,17.7085937 C1.5265625,17.7085937 1.5265625,17.7085937 1.5265625,17.7085937 C1.5265625,17.7085937 12.3023438,17.7085937 12.3023438,17.7085937 C12.6375,17.7085937 12.78125,17.5648437 12.78125,17.2296875 C12.78125,16.8945312 12.6375,16.7507812 12.3023438,16.7507812 C12.3023438,16.7507812 12.3023438,16.7507812 12.3023438,16.7507812 C12.3023438,16.7507812 1.5265625,16.7507812 1.5265625,16.7507812 C1.19140625,16.7507812 1,16.8945312 1,17.2296875 C1,17.5648437 1.19140625,17.7085937 1.5265625,17.7085937 Z M24.084375,21.6359375 C24.084375,21.6359375 24.084375,21.6359375 24.084375,21.6359375 C24.084375,21.6359375 1.5265625,21.6359375 1.5265625,21.6359375 C1.19140625,21.6359375 1,21.7796875 1,22.1148437 C1,22.1148437 1,22.1148437 1,22.1148437 C1,22.45 1.19140625,22.6414062 1.5265625,22.6414062 C1.5265625,22.6414062 1.5265625,22.6414062 1.5265625,22.6414062 C1.5265625,22.6414062 24.084375,22.6414062 24.084375,22.6414062 C24.4195313,22.6414062 24.5632813,22.45 24.5632813,22.1148437 C24.5632813,22.1148437 24.5632813,22.1148437 24.5632813,22.1148437 C24.5632813,21.7796875 24.4195313,21.6359375 24.084375,21.6359375 Z M24.4195313,11.9617187 C24.4195313,11.9617187 21.4984375,9.040625 21.4984375,9.040625 C21.4023438,8.94453125 21.259375,8.896875 21.115625,8.896875 C21.115625,8.896875 21.115625,8.896875 21.115625,8.896875 C20.7804688,8.896875 20.6367188,9.040625 20.6367188,9.37578125 C20.6367188,9.37578125 20.6367188,9.37578125 20.6367188,9.37578125 C20.6367188,9.51953125 20.684375,9.61484375 20.7804688,9.7109375 C20.7804688,9.7109375 20.7804688,9.7109375 20.7804688,9.7109375 C20.7804688,9.7109375 22.8875,11.8179687 22.8875,11.8179687 C22.8875,11.8179687 15.7515625,11.8179687 15.7515625,11.8179687 C15.4164063,11.8179687 15.225,11.9617187 15.225,12.296875 C15.225,12.296875 15.225,12.296875 15.225,12.296875 C15.225,12.6320312 15.4164063,12.8234375 15.7515625,12.8234375 C15.7515625,12.8234375 15.7515625,12.8234375 15.7515625,12.8234375 C15.7515625,12.8234375 22.8875,12.8234375 22.8875,12.8234375 C22.8875,12.8234375 20.7804688,14.9304687 20.7804688,14.9304687 C20.684375,15.0265625 20.6367188,15.121875 20.6367188,15.265625 C20.6367188,15.265625 20.6367188,15.265625 20.6367188,15.265625 C20.6367188,15.6007812 20.7804688,15.7445312 21.115625,15.7445312 C21.115625,15.7445312 21.115625,15.7445312 21.115625,15.7445312 C21.259375,15.7445312 21.403125,15.696875 21.4984375,15.6007812 C21.4984375,15.6007812 21.4984375,15.6007812 21.4984375,15.6007812 C21.4984375,15.6007812 24.4195313,12.6796875 24.4195313,12.6796875 C24.515625,12.5835937 24.5632813,12.440625 24.5632813,12.296875 C24.5632813,12.296875 24.5632813,12.296875 24.5632813,12.296875 C24.5632813,12.153125 24.515625,12.0578125 24.4195313,11.9617187 C24.4195313,11.9617187 24.4195313,11.9617187 24.4195313,11.9617187 L24.4195313,11.9617187 Z"/>
  <title>Indent</title>
</svg>