<svg xmlns="http://www.w3.org/2000/svg" viewBox="0 0 25 25" id="infinity">
  <path d="M12.2609375,8.0234375 C12.2609375,8.0234375 8.18984375,4.00078125 8.18984375,4.00078125 C8.18984375,4.00078125 0,12.190625 0,12.190625 C0,12.190625 8.18984375,20.3804688 8.18984375,20.3804688 C8.18984375,20.3804688 12.2609375,16.3578125 12.2609375,16.3578125 C12.2609375,16.3578125 8.09453125,12.1914063 8.09453125,12.1914063 C8.09453125,12.1914063 12.2609375,8.025 12.2609375,8.025 L12.2609375,8.0234375 Z M24.5210937,12.1898438 C24.5210937,12.1898438 16.2835938,4 16.2835938,4 C16.2835938,4 12.2609375,8.02265625 12.2609375,8.02265625 C12.2609375,8.02265625 16.3796875,12.1890625 16.3796875,12.1890625 C16.3796875,12.1890625 12.2609375,16.3554688 12.2609375,16.3554688 C12.2609375,16.3554688 16.2835938,20.378125 16.2835938,20.378125 C16.2835938,20.378125 24.5210937,12.1882813 24.5210937,12.1882813 L24.5210937,12.1898438 Z"/>
  <title>Infinity</title>
</svg>