<svg xmlns="http://www.w3.org/2000/svg" viewBox="0 0 25 25" id="information">
  <path d="M3.5921875,20.9296875 C1.19765625,18.5351562 0,15.6617188 0,12.2609375 C0,8.86015625 1.19765625,5.98671875 3.5921875,3.5921875 C5.98671875,1.19765625 8.86015625,0 12.2609375,0 C15.6617188,0 18.5351563,1.19765625 20.9296875,3.5921875 C23.3242188,5.98671875 24.521875,8.86015625 24.521875,12.2609375 C24.521875,15.6617188 23.3242188,18.5351563 20.9296875,20.9296875 C18.5351563,23.3242188 15.6617188,24.521875 12.2609375,24.521875 C8.86015625,24.521875 5.98671875,23.3242188 3.5921875,20.9296875 Z M0.9578125,12.2609375 C0.9578125,12.2609375 0.9578125,12.2609375 0.9578125,12.2609375 C0.9578125,14.5601563 1.58046875,16.6671875 2.8734375,18.5351562 C4.11875,20.4507812 5.79453125,21.8398438 7.90234375,22.75 C10.0101563,23.6601562 12.2125,23.8515625 14.4632813,23.4203125 C16.7140625,22.9890625 18.6296875,21.9359375 20.2585938,20.3070313 C20.2585938,20.3070313 20.2585938,20.3070313 20.2585938,20.3070313 C21.8390625,18.7265625 22.8929688,16.7632812 23.371875,14.5117188 C23.803125,12.2609375 23.6109375,10.1054688 22.7015625,7.9984375 C22.7015625,7.9984375 22.7015625,7.9984375 22.7015625,7.9984375 C21.8398438,5.89140625 20.4507813,4.21484375 18.5828125,2.921875 C16.6671875,1.62890625 14.5601563,1.00625 12.2609375,1.00625 C12.2609375,1.00625 12.2609375,1.00625 12.2609375,1.00625 C9.14765625,1.00625 6.5140625,2.1078125 4.3109375,4.26328125 C2.1078125,6.46640625 1.00625,9.1484375 0.95859375,12.2617188 L0.9578125,12.2609375 Z M11.78125,6.84921875 C11.78125,6.84921875 11.78125,4.8859375 11.78125,4.8859375 C11.78125,4.8859375 12.7390625,4.8859375 12.7390625,4.8859375 C12.7390625,4.8859375 12.7390625,6.84921875 12.7390625,6.84921875 C12.7390625,6.84921875 11.78125,6.84921875 11.78125,6.84921875 Z M11.78125,19.684375 C11.78125,19.684375 12.7390625,19.6367188 12.7390625,19.6367188 C12.7390625,19.6367188 12.7390625,8.81328125 12.7390625,8.81328125 C12.7390625,8.81328125 11.78125,8.81328125 11.78125,8.81328125 C11.78125,8.81328125 11.78125,19.6851562 11.78125,19.6851562 L11.78125,19.684375 Z"/>
  <title>Information</title>
</svg>