<svg xmlns="http://www.w3.org/2000/svg" viewBox="0 0 25 25" id="information-solid">
  <path d="M20.9296875,20.9296875 C18.5351562,23.3242188 15.6617188,24.521875 12.2609375,24.521875 C8.86015625,24.521875 5.98671875,23.3242188 3.5921875,20.9296875 C1.19765625,18.5351562 0,15.6617188 0,12.2609375 C0,8.86015625 1.19765625,5.98671875 3.5921875,3.5921875 C5.98671875,1.19765625 8.86015625,0 12.2609375,0 C15.6617188,0 18.5351563,1.19765625 20.9296875,3.5921875 C23.3242188,5.98671875 24.521875,8.86015625 24.521875,12.2609375 C24.521875,15.6617188 23.3242188,18.5351563 20.9296875,20.9296875 Z M12.740625,4.88515625 C12.740625,4.88515625 11.7828125,4.88515625 11.7828125,4.88515625 C11.7828125,4.88515625 11.7828125,6.8484375 11.7828125,6.8484375 C11.7828125,6.8484375 12.740625,6.8484375 12.740625,6.8484375 C12.740625,6.8484375 12.740625,4.88515625 12.740625,4.88515625 Z M11.7820312,8.8125 C11.7820312,8.8125 11.7820312,19.684375 11.7820312,19.684375 C11.7820312,19.684375 12.7398437,19.6367188 12.7398437,19.6367188 C12.7398437,19.6367188 12.7398437,8.81328125 12.7398437,8.81328125 C12.7398437,8.81328125 11.7820312,8.81328125 11.7820312,8.81328125 L11.7820312,8.8125 Z"/>
  <title>Information Solid</title>
</svg>