<svg xmlns="http://www.w3.org/2000/svg" viewBox="0 0 25 25" id="ink-solid">
  <path d="M11.9726562,17.7992188 C11.9726562,17.7992188 11.9726562,17.7992188 11.9726562,17.7992188 C10.9671875,18.421875 9.8171875,18.709375 8.57265625,18.709375 C8.57265625,18.709375 8.57265625,18.709375 8.57265625,18.709375 C8.57265625,18.709375 8.33359375,18.709375 8.33359375,18.709375 C7.8546875,18.6617187 7.4234375,18.5179687 7.040625,18.278125 C7.040625,18.278125 7.040625,18.278125 7.040625,18.278125 C8.04609375,17.1765625 8.66875,15.8835937 8.8125,14.303125 C8.8125,14.303125 8.8125,14.303125 8.8125,14.303125 C8.8125,14.303125 8.8125,14.159375 8.8125,14.159375 C8.8125,13.5367187 8.5734375,12.9617187 8.1421875,12.4828125 C7.66328125,12.0515625 7.08828125,11.8125 6.465625,11.8125 C6.465625,11.8125 6.465625,11.8125 6.465625,11.8125 C6.465625,11.8125 6.36953125,11.8125 6.36953125,11.8125 C6.36953125,11.8125 6.22578125,11.8125 6.22578125,11.8125 C5.603125,11.8125 5.028125,12.0515625 4.59765625,12.4828125 C4.1671875,12.9140625 3.92734375,13.4882812 3.92734375,14.1109375 C3.92734375,14.1109375 3.92734375,14.1109375 3.92734375,14.1109375 C3.92734375,14.1109375 3.92734375,14.3023437 3.92734375,14.3023437 C3.92734375,14.3023437 3.92734375,14.35 3.92734375,14.35 C3.92734375,15.9304687 4.45390625,17.2710937 5.55546875,18.3726562 C5.55546875,18.3726562 5.55546875,18.3726562 5.55546875,18.3726562 C4.16640625,19.809375 2.490625,20.5757812 0.5265625,20.671875 C0.5265625,20.671875 0.5265625,20.671875 0.5265625,20.671875 C0.19140625,20.671875 0,20.815625 0,21.1507813 C0,21.4859375 0.14375,21.6296875 0.47890625,21.6296875 C0.47890625,21.6296875 0.47890625,21.6296875 0.47890625,21.6296875 C2.82578125,21.5335937 4.74140625,20.671875 6.321875,19.04375 C6.321875,19.04375 6.321875,19.04375 6.321875,19.04375 C6.94453125,19.475 7.61484375,19.6664063 8.33359375,19.6664063 C8.33359375,19.6664063 8.33359375,19.6664063 8.33359375,19.6664063 C8.33359375,19.6664063 8.62109375,19.6664063 8.62109375,19.6664063 C10.1054688,19.6664063 11.3992188,19.2835938 12.5960937,18.5648438 C12.5960937,18.5648438 12.5960937,18.5648438 12.5960937,18.5648438 C12.6921875,18.5171875 12.7398438,18.3734375 12.7398438,18.1820313 C12.7398438,18.1820313 12.7398438,18.1820313 12.7398438,18.1820313 C12.7398438,17.846875 12.5960937,17.703125 12.2609375,17.703125 C12.2609375,17.703125 12.2609375,17.703125 12.2609375,17.703125 C12.2132813,17.703125 12.1171875,17.7507813 11.9734375,17.7992188 L11.9726562,17.7992188 Z M6.225,17.6554688 C6.225,17.6554688 6.225,17.6554688 6.225,17.6554688 C5.31484375,16.6976563 4.884375,15.5960938 4.884375,14.3507813 C4.884375,14.3507813 4.884375,14.3507813 4.884375,14.3507813 C4.884375,14.3507813 4.884375,14.2546875 4.884375,14.2546875 C4.884375,14.2546875 4.884375,14.1109375 4.884375,14.1109375 C4.884375,13.7757813 5.028125,13.440625 5.315625,13.2007813 C5.5546875,12.9617188 5.890625,12.8179688 6.22578125,12.8179688 C6.22578125,12.8179688 6.22578125,12.8179688 6.22578125,12.8179688 C6.22578125,12.8179688 6.36953125,12.8179688 6.36953125,12.8179688 C6.36953125,12.8179688 6.465625,12.8179688 6.465625,12.8179688 C6.8484375,12.8179688 7.184375,12.9617188 7.47109375,13.2007813 C7.71015625,13.4398438 7.85390625,13.7757813 7.85390625,14.1585938 C7.85390625,14.1585938 7.85390625,14.1585938 7.85390625,14.1585938 C7.85390625,14.1585938 7.85390625,14.3023438 7.85390625,14.3023438 C7.6625,15.6429688 7.13515625,16.7445313 6.22578125,17.6546875 L6.225,17.6554688 Z M24.0890625,7.59765625 C24.0890625,7.59765625 24.0890625,7.59765625 24.0890625,7.59765625 C24.0890625,7.59765625 23.0351562,8.6515625 23.0351562,8.6515625 C23.0351562,8.6515625 18.86875,4.48515625 18.86875,4.48515625 C18.86875,4.48515625 19.9226562,3.43125 19.9226562,3.43125 C20.2101562,3.14375 20.5453125,3 20.9765625,3 C21.4078125,3 21.7429687,3.14375 22.0304687,3.43125 C22.0304687,3.43125 22.0304687,3.43125 22.0304687,3.43125 C22.0304687,3.43125 24.0898437,5.490625 24.0898437,5.490625 C24.3773437,5.778125 24.5210937,6.11328125 24.5210937,6.54453125 C24.5210937,6.97578125 24.3773437,7.3109375 24.0898437,7.5984375 L24.0890625,7.59765625 Z M12.2117188,11.1414063 C12.2117188,11.1414063 18.1984375,5.1546875 18.1984375,5.1546875 C18.1984375,5.1546875 22.3648437,9.32109375 22.3648437,9.32109375 C22.3648437,9.32109375 16.378125,15.3078125 16.378125,15.3078125 C16.090625,15.5953125 15.7554687,15.7390625 15.3242187,15.7390625 C15.3242187,15.7390625 15.3242187,15.7390625 15.3242187,15.7390625 C15.3242187,15.7390625 12.7382812,15.7390625 12.7382812,15.7390625 C12.4992187,15.7390625 12.259375,15.6429687 12.0679688,15.4515625 C11.8765625,15.2601563 11.7804688,15.0203125 11.7804688,14.78125 C11.7804688,14.78125 11.7804688,14.78125 11.7804688,14.78125 C11.7804688,14.78125 11.7804688,12.1953125 11.7804688,12.1953125 C11.7804688,11.7640625 11.9242188,11.4289063 12.2117188,11.1414063 C12.2117188,11.1414063 12.2117188,11.1414063 12.2117188,11.1414063 Z"/>
  <title>Ink Solid</title>
</svg>