<svg xmlns="http://www.w3.org/2000/svg" viewBox="0 0 25 25" id="ink">
  <path d="M24.0890625,5.490625 C24.0890625,5.490625 24.0890625,5.490625 24.0890625,5.490625 C24.0890625,5.490625 22.0296875,3.43125 22.0296875,3.43125 C21.7421875,3.14375 21.4070313,3 20.9757813,3 C20.5445313,3 20.209375,3.14375 19.921875,3.43125 C19.921875,3.43125 19.921875,3.43125 19.921875,3.43125 C19.921875,3.43125 12.2109375,11.1421875 12.2109375,11.1421875 C11.9234375,11.4296875 11.7796875,11.7648438 11.7796875,12.1960938 C11.7796875,12.1960938 11.7796875,12.1960938 11.7796875,12.1960938 C11.7796875,12.1960938 11.7796875,14.7820313 11.7796875,14.7820313 C11.7796875,15.0210938 11.8757813,15.2609375 12.0671875,15.4523438 C12.2585937,15.64375 12.4984375,15.7398438 12.7375,15.7398438 C12.7375,15.7398438 12.7375,15.7398438 12.7375,15.7398438 C12.7375,15.7398438 15.3234375,15.7398438 15.3234375,15.7398438 C15.7546875,15.7398438 16.0898438,15.5960937 16.3773438,15.3085938 C16.3773438,15.3085938 16.3773438,15.3085938 16.3773438,15.3085938 C16.3773438,15.3085938 24.0882813,7.59765625 24.0882813,7.59765625 C24.3757813,7.31015625 24.5195312,6.975 24.5195312,6.54375 C24.5195312,6.1125 24.3757813,5.77734375 24.0882813,5.48984375 L24.0890625,5.490625 Z M21.646875,8.6515625 C21.646875,8.6515625 15.6601562,14.6382812 15.6601562,14.6382812 C15.5640625,14.734375 15.46875,14.7820312 15.325,14.7820312 C15.325,14.7820312 15.325,14.7820312 15.325,14.7820312 C15.325,14.7820312 12.7390625,14.7820312 12.7390625,14.7820312 C12.7390625,14.7820312 12.7390625,12.1960937 12.7390625,12.1960937 C12.7390625,12.0523437 12.7867187,11.9570312 12.8828125,11.8609375 C12.8828125,11.8609375 12.8828125,11.8609375 12.8828125,11.8609375 C12.8828125,11.8609375 18.8695313,5.87421875 18.8695313,5.87421875 C18.8695313,5.87421875 21.6476563,8.65234375 21.6476563,8.65234375 L21.646875,8.6515625 Z M23.41875,6.8796875 C23.41875,6.8796875 23.41875,6.8796875 23.41875,6.8796875 C23.41875,6.8796875 22.3648437,7.93359375 22.3648437,7.93359375 C22.3648437,7.93359375 19.5867187,5.15546875 19.5867187,5.15546875 C19.5867187,5.15546875 20.640625,4.1015625 20.640625,4.1015625 C20.7367187,4.00546875 20.8320312,3.9578125 20.9757812,3.9578125 C20.9757812,3.9578125 20.9757812,3.9578125 20.9757812,3.9578125 C21.0234375,3.9578125 21.1195312,4.00546875 21.3109375,4.1015625 C21.3109375,4.1015625 21.3109375,4.1015625 21.3109375,4.1015625 C21.3109375,4.1015625 23.4179687,6.20859375 23.4179687,6.20859375 C23.5140625,6.4 23.5617187,6.49609375 23.5617187,6.54375 C23.5617187,6.54375 23.5617187,6.54375 23.5617187,6.54375 C23.5617187,6.6875 23.5140625,6.7828125 23.4179687,6.87890625 L23.41875,6.8796875 Z M11.9726562,17.7992188 C11.9726562,17.7992188 11.9726562,17.7992188 11.9726562,17.7992188 C10.9671875,18.421875 9.8171875,18.709375 8.57265625,18.709375 C8.57265625,18.709375 8.57265625,18.709375 8.57265625,18.709375 C8.57265625,18.709375 8.33359375,18.709375 8.33359375,18.709375 C7.8546875,18.6617187 7.4234375,18.5179687 7.040625,18.278125 C7.040625,18.278125 7.040625,18.278125 7.040625,18.278125 C8.04609375,17.1765625 8.66875,15.8835937 8.8125,14.303125 C8.8125,14.303125 8.8125,14.303125 8.8125,14.303125 C8.8125,14.303125 8.8125,14.159375 8.8125,14.159375 C8.8125,13.5367187 8.5734375,12.9617187 8.1421875,12.4828125 C7.66328125,12.0515625 7.08828125,11.8125 6.465625,11.8125 C6.465625,11.8125 6.465625,11.8125 6.465625,11.8125 C6.465625,11.8125 6.36953125,11.8125 6.36953125,11.8125 C6.36953125,11.8125 6.22578125,11.8125 6.22578125,11.8125 C5.603125,11.8125 5.028125,12.0515625 4.59765625,12.4828125 C4.1671875,12.9140625 3.92734375,13.4882812 3.92734375,14.1109375 C3.92734375,14.1109375 3.92734375,14.1109375 3.92734375,14.1109375 C3.92734375,14.1109375 3.92734375,14.3023437 3.92734375,14.3023437 C3.92734375,14.3023437 3.92734375,14.35 3.92734375,14.35 C3.92734375,15.9304687 4.45390625,17.2710937 5.55546875,18.3726562 C5.55546875,18.3726562 5.55546875,18.3726562 5.55546875,18.3726562 C4.16640625,19.809375 2.490625,20.5757812 0.5265625,20.671875 C0.5265625,20.671875 0.5265625,20.671875 0.5265625,20.671875 C0.19140625,20.671875 0,20.815625 0,21.1507813 C0,21.4859375 0.14375,21.6296875 0.47890625,21.6296875 C0.47890625,21.6296875 0.47890625,21.6296875 0.47890625,21.6296875 C2.82578125,21.5335937 4.74140625,20.671875 6.321875,19.04375 C6.321875,19.04375 6.321875,19.04375 6.321875,19.04375 C6.94453125,19.475 7.61484375,19.6664063 8.33359375,19.6664063 C8.33359375,19.6664063 8.33359375,19.6664063 8.33359375,19.6664063 C8.33359375,19.6664063 8.62109375,19.6664063 8.62109375,19.6664063 C10.1054688,19.6664063 11.3992188,19.2835938 12.5960937,18.5648438 C12.5960937,18.5648438 12.5960937,18.5648438 12.5960937,18.5648438 C12.6921875,18.5171875 12.7398438,18.3734375 12.7398438,18.1820313 C12.7398438,18.1820313 12.7398438,18.1820313 12.7398438,18.1820313 C12.7398438,17.846875 12.5960937,17.703125 12.2609375,17.703125 C12.2609375,17.703125 12.2609375,17.703125 12.2609375,17.703125 C12.2132813,17.703125 12.1171875,17.7507813 11.9734375,17.7992188 L11.9726562,17.7992188 Z M6.225,17.6554688 C6.225,17.6554688 6.225,17.6554688 6.225,17.6554688 C5.31484375,16.6976563 4.884375,15.5960938 4.884375,14.3507813 C4.884375,14.3507813 4.884375,14.3507813 4.884375,14.3507813 C4.884375,14.3507813 4.884375,14.2546875 4.884375,14.2546875 C4.884375,14.2546875 4.884375,14.1109375 4.884375,14.1109375 C4.884375,13.7757813 5.028125,13.440625 5.315625,13.2007813 C5.5546875,12.9617188 5.890625,12.8179688 6.22578125,12.8179688 C6.22578125,12.8179688 6.22578125,12.8179688 6.22578125,12.8179688 C6.22578125,12.8179688 6.36953125,12.8179688 6.36953125,12.8179688 C6.36953125,12.8179688 6.465625,12.8179688 6.465625,12.8179688 C6.8484375,12.8179688 7.184375,12.9617188 7.47109375,13.2007813 C7.71015625,13.4398438 7.85390625,13.7757813 7.85390625,14.1585938 C7.85390625,14.1585938 7.85390625,14.1585938 7.85390625,14.1585938 C7.85390625,14.1585938 7.85390625,14.3023438 7.85390625,14.3023438 C7.6625,15.6429688 7.13515625,16.7445313 6.22578125,17.6546875 L6.225,17.6554688 Z"/>
  <title>Ink</title>
</svg>