<svg xmlns="http://www.w3.org/2000/svg" viewBox="0 0 25 25" id="inspect">
  <path d="M24.3296875,2 C24.3296875,2 2.15546875,2 2.15546875,2 C2.15546875,2 2.15546875,14.5476563 2.15546875,14.5476563 C2.15546875,14.5476563 3.3046875,13.925 3.3046875,13.925 C3.3046875,13.925 3.3046875,3.14921875 3.3046875,3.14921875 C3.3046875,3.14921875 23.1804688,3.14921875 23.1804688,3.14921875 C23.1804688,3.14921875 23.1804688,18.33125 23.1804688,18.33125 C23.1804688,18.33125 9.72265625,18.33125 9.72265625,18.33125 C9.72265625,18.33125 9.14765625,19.4804688 9.14765625,19.4804688 C9.14765625,19.4804688 24.3296875,19.4804688 24.3296875,19.4804688 C24.3296875,19.4804688 24.3296875,2 24.3296875,2 Z M10.296875,12.6804687 C10.296875,12.6804687 0.8140625,16.4164063 0.8140625,16.4164063 C0.8140625,16.4164063 2.490625,18.0445312 2.490625,18.0445312 C2.490625,18.0445312 0,20.5351562 0,20.5351562 C0,20.5351562 2.490625,22.9773437 2.490625,22.9773437 C2.490625,22.9773437 4.9328125,20.5351562 4.9328125,20.5351562 C4.9328125,20.5351562 6.609375,22.1632812 6.609375,22.1632812 C6.609375,22.1632812 10.296875,12.6804687 10.296875,12.6804687 Z M2.490625,21.3492188 C2.490625,21.3492188 1.62890625,20.5351562 1.62890625,20.5351562 C1.62890625,20.5351562 3.11328125,19.0984375 3.11328125,19.0984375 C3.11328125,19.0984375 3.25703125,18.9070312 3.25703125,18.9070312 C3.25703125,18.9070312 4.11875,18.0453125 4.11875,18.0453125 C4.11875,18.0453125 2.92109375,16.8476562 2.92109375,16.8476562 C2.92109375,16.8476562 8.2375,14.740625 8.2375,14.740625 C8.2375,14.740625 6.178125,20.1046875 6.178125,20.1046875 C6.178125,20.1046875 4.9328125,18.859375 4.9328125,18.859375 C4.9328125,18.859375 4.07109375,19.7210937 4.07109375,19.7210937 C4.07109375,19.7210937 3.92734375,19.9125 3.92734375,19.9125 C3.92734375,19.9125 2.490625,21.3492188 2.490625,21.3492188 L2.490625,21.3492188 Z"/>
  <title>Inspect</title>
</svg>