<svg xmlns="http://www.w3.org/2000/svg" viewBox="0 0 25 25" id="interact">
  <path d="M24.56875,1.00625 C24.56875,1.00625 24.56875,0.00078125 24.56875,0.00078125 C24.56875,0.00078125 24.5210937,0.00078125 24.5210937,0.00078125 C24.5210937,0.00078125 23.5632812,0.00078125 23.5632812,0.00078125 C23.5632812,0.00078125 14.7507812,0.00078125 14.7507812,0.00078125 C14.7507812,0.00078125 14.7507812,1.00625 14.7507812,1.00625 C14.7507812,1.00625 23.5632812,1.00625 23.5632812,1.00625 C23.5632812,1.00625 23.5632812,9.81875 23.5632812,9.81875 C23.5632812,9.81875 24.5210937,9.81875 24.5210937,9.81875 C24.5210937,9.81875 24.5210937,1.00625 24.5210937,1.00625 C24.5210937,1.00625 24.56875,1.00625 24.56875,1.00625 Z M11.5421875,10.871875 C11.5421875,10.871875 19.6359375,10.871875 19.6359375,10.871875 C19.6359375,10.871875 19.6359375,9.86640625 19.6359375,9.86640625 C19.6359375,9.86640625 10.871875,9.86640625 10.871875,9.86640625 C10.871875,9.86640625 9.86640625,9.86640625 9.86640625,9.86640625 C9.86640625,9.86640625 9.86640625,9.86640625 9.86640625,9.86640625 C9.86640625,9.86640625 9.86640625,10.871875 9.86640625,10.871875 C9.86640625,10.871875 9.86640625,19.6359375 9.86640625,19.6359375 C9.86640625,19.6359375 10.871875,19.6359375 10.871875,19.6359375 C10.871875,19.6359375 10.871875,11.5421875 10.871875,11.5421875 C10.871875,11.5421875 23.4679687,24.1859375 23.4679687,24.1859375 C23.4679687,24.1859375 24.1382812,23.4671875 24.1382812,23.4671875 C24.1382812,23.4671875 11.5421875,10.8710937 11.5421875,10.8710937 L11.5421875,10.871875 Z M9.81796875,0 C9.81796875,0 1.00546875,0 1.00546875,0 C1.00546875,0 0,0 0,0 C0,0 0,0 0,0 C0,0 0,1.00546875 0,1.00546875 C0,1.00546875 0,9.81796875 0,9.81796875 C0,9.81796875 1.00546875,9.81796875 1.00546875,9.81796875 C1.00546875,9.81796875 1.00546875,1.00546875 1.00546875,1.00546875 C1.00546875,1.00546875 9.81796875,1.00546875 9.81796875,1.00546875 C9.81796875,1.00546875 9.81796875,0 9.81796875,0 Z M1.00546875,23.5632812 C1.00546875,23.5632812 1.00546875,14.7507812 1.00546875,14.7507812 C1.00546875,14.7507812 0,14.7507812 0,14.7507812 C0,14.7507812 0,23.5632812 0,23.5632812 C0,23.5632812 0,24.5210937 0,24.5210937 C0,24.5210937 0,24.56875 0,24.56875 C0,24.56875 1.00546875,24.56875 1.00546875,24.56875 C1.00546875,24.56875 1.00546875,24.5210937 1.00546875,24.5210937 C1.00546875,24.5210937 9.81796875,24.5210937 9.81796875,24.5210937 C9.81796875,24.5210937 9.81796875,23.5632812 9.81796875,23.5632812 C9.81796875,23.5632812 1.00546875,23.5632812 1.00546875,23.5632812 Z"/>
  <title>Interact</title>
</svg>