<svg xmlns="http://www.w3.org/2000/svg" viewBox="0 0 25 25" id="ios-face-id">
  <path d="M2,7.60390625 C2,7.60390625 2,7.60390625 2,7.60390625 C2,7.60390625 2,5.209375 2,5.209375 C2,4.29921875 2.33515625,3.5328125 2.9578125,2.91015625 C3.58046875,2.2875 4.2984375,2 5.20859375,2 C5.20859375,2 5.20859375,2 5.20859375,2 C5.20859375,2 7.603125,2 7.603125,2 C7.93828125,2 8.08203125,2.14375 8.08203125,2.47890625 C8.08203125,2.47890625 8.08203125,2.47890625 8.08203125,2.47890625 C8.08203125,2.8140625 7.93828125,3.00546875 7.603125,3.00546875 C7.603125,3.00546875 7.603125,3.00546875 7.603125,3.00546875 C7.603125,3.00546875 5.20859375,3.00546875 5.20859375,3.00546875 C4.5859375,3.00546875 4.059375,3.196875 3.628125,3.628125 C3.196875,4.059375 3.00546875,4.5859375 3.00546875,5.20859375 C3.00546875,5.20859375 3.00546875,5.20859375 3.00546875,5.20859375 C3.00546875,5.20859375 3.00546875,7.603125 3.00546875,7.603125 C3.00546875,7.93828125 2.8140625,8.08203125 2.47890625,8.08203125 C2.47890625,8.08203125 2.47890625,8.08203125 2.47890625,8.08203125 C2.14375,8.08203125 2,7.93828125 2,7.603125 L2,7.60390625 Z M2,19.3859375 C2,19.3859375 2,16.9914062 2,16.9914062 C2,16.65625 2.14375,16.5125 2.47890625,16.5125 C2.47890625,16.5125 2.47890625,16.5125 2.47890625,16.5125 C2.8140625,16.5125 3.00546875,16.65625 3.00546875,16.9914062 C3.00546875,16.9914062 3.00546875,16.9914062 3.00546875,16.9914062 C3.00546875,16.9914062 3.00546875,19.3859375 3.00546875,19.3859375 C3.00546875,20.0085937 3.196875,20.5351562 3.628125,20.9664062 C4.059375,21.3976562 4.5859375,21.5890625 5.20859375,21.5890625 C5.20859375,21.5890625 5.20859375,21.5890625 5.20859375,21.5890625 C5.20859375,21.5890625 7.603125,21.5890625 7.603125,21.5890625 C7.93828125,21.5890625 8.08203125,21.7804688 8.08203125,22.115625 C8.08203125,22.115625 8.08203125,22.115625 8.08203125,22.115625 C8.08203125,22.4507812 7.93828125,22.5945312 7.603125,22.5945312 C7.603125,22.5945312 7.603125,22.5945312 7.603125,22.5945312 C7.603125,22.5945312 5.20859375,22.5945312 5.20859375,22.5945312 C4.2984375,22.5945312 3.58046875,22.259375 2.9578125,21.6367188 C2.33515625,21.0140625 2,20.2960937 2,19.3859375 C2,19.3859375 2,19.3859375 2,19.3859375 Z M22.5945312,5.209375 C22.5945312,5.209375 22.5945312,7.60390625 22.5945312,7.60390625 C22.5945312,7.9390625 22.4507812,8.0828125 22.115625,8.0828125 C22.115625,8.0828125 22.115625,8.0828125 22.115625,8.0828125 C21.7804688,8.0828125 21.5890625,7.9390625 21.5890625,7.60390625 C21.5890625,7.60390625 21.5890625,7.60390625 21.5890625,7.60390625 C21.5890625,7.60390625 21.5890625,5.209375 21.5890625,5.209375 C21.5890625,4.58671875 21.3976563,4.06015625 20.9664062,3.62890625 C20.5351562,3.19765625 20.0085937,3.00625 19.3859375,3.00625 C19.3859375,3.00625 19.3859375,3.00625 19.3859375,3.00625 C19.3859375,3.00625 16.9914062,3.00625 16.9914062,3.00625 C16.65625,3.00625 16.5125,2.81484375 16.5125,2.4796875 C16.5125,2.4796875 16.5125,2.4796875 16.5125,2.4796875 C16.5125,2.14453125 16.65625,2.00078125 16.9914062,2.00078125 C16.9914062,2.00078125 16.9914062,2.00078125 16.9914062,2.00078125 C16.9914062,2.00078125 19.3859375,2.00078125 19.3859375,2.00078125 C20.2960938,2.00078125 21.0625,2.28828125 21.6851563,2.9109375 C22.3078125,3.53359375 22.5953125,4.3 22.5953125,5.21015625 C22.5953125,5.21015625 22.5953125,5.21015625 22.5953125,5.21015625 L22.5945312,5.209375 Z M22.5945313,16.990625 C22.5945313,16.990625 22.5945313,16.990625 22.5945313,16.990625 C22.5945313,16.990625 22.5945313,19.3851563 22.5945313,19.3851563 C22.5945313,20.2953125 22.3070313,21.0132812 21.684375,21.6359375 C21.0617188,22.2585938 20.2953125,22.59375 19.3851563,22.59375 C19.3851563,22.59375 19.3851563,22.59375 19.3851563,22.59375 C19.3851563,22.59375 16.990625,22.59375 16.990625,22.59375 C16.6554688,22.59375 16.5117188,22.45 16.5117188,22.1148437 C16.5117188,22.1148437 16.5117188,22.1148437 16.5117188,22.1148437 C16.5117188,21.7796875 16.6554688,21.5882813 16.990625,21.5882813 C16.990625,21.5882813 16.990625,21.5882813 16.990625,21.5882813 C16.990625,21.5882813 19.3851563,21.5882813 19.3851563,21.5882813 C20.0078125,21.5882813 20.534375,21.396875 20.965625,20.965625 C21.396875,20.534375 21.5882813,20.0078125 21.5882813,19.3851563 C21.5882813,19.3851563 21.5882813,19.3851563 21.5882813,19.3851563 C21.5882813,19.3851563 21.5882813,16.990625 21.5882813,16.990625 C21.5882813,16.6554688 21.7796875,16.5117188 22.1148437,16.5117188 C22.1148437,16.5117188 22.1148437,16.5117188 22.1148437,16.5117188 C22.45,16.5117188 22.59375,16.6554688 22.59375,16.990625 L22.5945313,16.990625 Z M7.55625,9.8546875 C7.55625,9.51953125 7.7,9.328125 8.03515625,9.328125 C8.3703125,9.328125 8.5140625,9.51953125 8.5140625,9.8546875 C8.5140625,9.8546875 8.5140625,9.8546875 8.5140625,9.8546875 C8.5140625,9.8546875 8.5140625,11.3390625 8.5140625,11.3390625 C8.5140625,11.6742188 8.3703125,11.865625 8.03515625,11.865625 C7.7,11.865625 7.55625,11.6742188 7.55625,11.3390625 C7.55625,11.3390625 7.55625,11.3390625 7.55625,11.3390625 C7.55625,11.3390625 7.55625,9.8546875 7.55625,9.8546875 Z M16.6554688,9.328125 C16.6554688,9.328125 16.6554688,9.328125 16.6554688,9.328125 C16.990625,9.328125 17.134375,9.51953125 17.134375,9.8546875 C17.134375,9.8546875 17.134375,9.8546875 17.134375,9.8546875 C17.134375,9.8546875 17.134375,11.3390625 17.134375,11.3390625 C17.134375,11.6742188 16.990625,11.865625 16.6554688,11.865625 C16.6554688,11.865625 16.6554688,11.865625 16.6554688,11.865625 C16.3203125,11.865625 16.1289062,11.6742188 16.1289062,11.3390625 C16.1289062,11.3390625 16.1289062,11.3390625 16.1289062,11.3390625 C16.1289062,11.3390625 16.1289062,9.8546875 16.1289062,9.8546875 C16.1289062,9.51953125 16.3203125,9.328125 16.6554688,9.328125 Z M12.8242187,9.328125 C12.8242187,9.328125 12.8242187,9.328125 12.8242187,9.328125 C13.159375,9.328125 13.303125,9.471875 13.303125,9.80703125 C13.303125,9.80703125 13.303125,9.80703125 13.303125,9.80703125 C13.303125,9.80703125 13.303125,13.5429688 13.303125,13.5429688 C13.303125,14.5007812 12.8242187,14.9796875 11.8664062,14.9796875 C11.8664062,14.9796875 11.8664062,14.9796875 11.8664062,14.9796875 C11.8664062,14.9796875 11.3875,14.9796875 11.3875,14.9796875 C11.1,14.9796875 10.95625,14.8359375 10.95625,14.5484375 C10.95625,14.5484375 10.95625,14.5484375 10.95625,14.5484375 C10.95625,14.2132812 11.1,14.0695312 11.3875,14.0695312 C11.3875,14.0695312 11.3875,14.0695312 11.3875,14.0695312 C11.3875,14.0695312 11.5789063,14.0695312 11.5789063,14.0695312 C11.9140625,14.0695312 12.1054688,14.021875 12.2015625,13.878125 C12.2492188,13.7820312 12.2976563,13.5429688 12.2976563,13.2078125 C12.2976563,13.2078125 12.2976563,13.2078125 12.2976563,13.2078125 C12.2976563,13.2078125 12.2976563,9.8078125 12.2976563,9.8078125 C12.2976563,9.47265625 12.4890625,9.32890625 12.8242188,9.32890625 L12.8242187,9.328125 Z M15.9375,17.1828125 C15.9375,17.1828125 15.9375,17.1828125 15.9375,17.1828125 C14.8359375,18.1882812 13.6867187,18.6671875 12.39375,18.6671875 C12.39375,18.6671875 12.39375,18.6671875 12.39375,18.6671875 C11.1484375,18.6195312 9.99921875,18.0921875 8.99375,17.1828125 C8.99375,17.1828125 8.99375,17.1828125 8.99375,17.1828125 C8.7546875,16.94375 8.7546875,16.7039062 8.94609375,16.4640625 C8.94609375,16.4640625 8.94609375,16.4640625 8.94609375,16.4640625 C9.1375,16.225 9.32890625,16.225 9.56875,16.4640625 C9.56875,16.4640625 9.56875,16.4640625 9.56875,16.4640625 C10.4789062,17.3257812 11.3882812,17.7570312 12.3945312,17.7570312 C12.3945312,17.7570312 12.3945312,17.7570312 12.3945312,17.7570312 C13.4,17.709375 14.40625,17.278125 15.3640625,16.4640625 C15.3640625,16.4640625 15.3640625,16.4640625 15.3640625,16.4640625 C15.603125,16.225 15.7953125,16.225 15.9867187,16.4640625 C15.9867187,16.4640625 15.9867187,16.4640625 15.9867187,16.4640625 C16.2257812,16.7515625 16.178125,16.990625 15.9390625,17.1828125 L15.9375,17.1828125 Z"/>
  <title>Ios Face Id</title>
</svg>