<svg xmlns="http://www.w3.org/2000/svg" viewBox="0 0 25 25" id="ios-finger-id">
  <path d="M11.4,2.03737563 C11.4,2.03737563 11.4,2.03737563 11.4,2.03737563 C10.5859375,2.13346938 9.771875,2.32487563 8.9578125,2.56393813 C8.9578125,2.56393813 8.9578125,2.56393813 8.9578125,2.56393813 C8.3828125,2.75534438 7.80859375,3.04284438 7.1859375,3.37800063 C6.56328125,3.71315688 6.18046875,4.00065688 6.13203125,4.14440688 C6.13203125,4.14440688 6.13203125,4.14440688 6.13203125,4.14440688 C6.084375,4.28815688 6.13203125,4.38346938 6.1796875,4.52721938 C6.22734375,4.67096938 6.37109375,4.71862563 6.51484375,4.71862563 C6.51484375,4.71862563 6.51484375,4.71862563 6.51484375,4.71862563 C6.6109375,4.71862563 6.80234375,4.62253188 7.08984375,4.47956313 C7.08984375,4.47956313 7.08984375,4.47956313 7.08984375,4.47956313 C9.14921875,3.09050063 11.3523438,2.56393813 13.6992188,2.99518813 C13.6992188,2.99518813 13.6992188,2.99518813 13.6992188,2.99518813 C16.2375,3.33034438 18.296875,4.52800063 19.8296875,6.58737563 C19.8296875,6.58737563 19.8296875,6.58737563 19.8296875,6.58737563 C21.1226563,8.26393813 21.7453125,10.1795631 21.7453125,12.2389381 C21.7453125,12.2389381 21.7453125,12.2389381 21.7453125,12.2389381 C21.7453125,12.6217506 21.8414063,12.8615944 22.0328125,12.9092506 C22.0328125,12.9092506 22.0328125,12.9092506 22.0328125,12.9092506 C22.271875,12.9569069 22.4640625,12.9092506 22.559375,12.7178444 C22.559375,12.7178444 22.559375,12.7178444 22.559375,12.7178444 C22.6070313,12.6701881 22.6070313,12.3826881 22.6070313,11.9037819 C22.6070313,11.9037819 22.6070313,11.9037819 22.6070313,11.9037819 C22.559375,11.0897194 22.4632813,10.4194069 22.3195313,9.89206313 C22.3195313,9.89206313 22.3195313,9.89206313 22.3195313,9.89206313 C21.9367188,8.40768813 21.3140625,7.16237563 20.5,6.10846938 C20.5,6.10846938 20.5,6.10846938 20.5,6.10846938 C19.78125,5.10300063 18.9195313,4.28893813 17.9140625,3.66628188 C17.9140625,3.66628188 17.9140625,3.66628188 17.9140625,3.66628188 C15.8546875,2.37331313 13.6992188,1.84675063 11.4007813,2.03815688 L11.4,2.03737563 Z M11.1125,4.57565688 C11.1125,4.57565688 11.1125,4.57565688 11.1125,4.57565688 C8.478125,5.00690688 6.51484375,6.39518813 5.3171875,8.83815688 C5.3171875,8.83815688 5.3171875,8.83815688 5.3171875,8.83815688 C4.8859375,9.65221938 4.69453125,10.2748756 4.69453125,10.6100319 C4.69453125,10.6100319 4.69453125,10.6100319 4.69453125,10.6100319 C4.646875,10.7537819 4.69453125,10.8975319 4.790625,10.9451881 C4.790625,10.9451881 4.790625,10.9451881 4.790625,10.9451881 C4.88671875,11.0412819 4.98203125,11.0889381 5.078125,11.0889381 C5.078125,11.0889381 5.078125,11.0889381 5.078125,11.0889381 C5.3171875,11.0889381 5.4609375,10.8975319 5.6046875,10.4662819 C5.6046875,10.4662819 5.6046875,10.4662819 5.6046875,10.4662819 C5.93984375,9.31706313 6.51484375,8.26315688 7.3765625,7.35300063 C7.3765625,7.35300063 7.3765625,7.35300063 7.3765625,7.35300063 C8.28671875,6.44284438 9.33984375,5.86862563 10.5851563,5.58112563 C10.5851563,5.58112563 10.5851563,5.58112563 10.5851563,5.58112563 C11.2078125,5.43737563 11.8304688,5.34206313 12.5484375,5.38971938 C12.5484375,5.38971938 12.5484375,5.38971938 12.5484375,5.38971938 C13.075,5.38971938 13.3625,5.38971938 13.4101563,5.43737563 C13.4101563,5.43737563 13.4101563,5.43737563 13.4101563,5.43737563 C13.5539063,5.43737563 13.6492188,5.38971938 13.7453125,5.29362563 C13.7453125,5.29362563 13.7453125,5.29362563 13.7453125,5.29362563 C13.8890625,5.14987563 13.9367188,4.95846938 13.8414063,4.81471938 C13.8414063,4.81471938 13.8414063,4.81471938 13.8414063,4.81471938 C13.79375,4.67096938 13.6023438,4.57565688 13.2664063,4.52721938 C13.2664063,4.52721938 13.2664063,4.52721938 13.2664063,4.52721938 C13.075,4.47956313 12.7398438,4.47956313 12.2125,4.47956313 C11.6859375,4.52721938 11.3023438,4.52721938 11.1109375,4.57565688 L11.1125,4.57565688 Z M5.1734375,4.91081313 C5.1734375,4.91081313 5.1734375,4.91081313 5.1734375,4.91081313 C4.934375,5.05456313 4.55078125,5.43737563 4.11953125,6.06003188 C4.11953125,6.06003188 4.11953125,6.06003188 4.11953125,6.06003188 C3.1140625,7.44909438 2.44296875,9.02956313 2.1078125,10.7537819 C2.1078125,10.7537819 2.1078125,10.7537819 2.1078125,10.7537819 C1.9640625,11.7592506 1.9640625,12.7655006 2.1078125,13.8186256 C2.1078125,13.8186256 2.1078125,13.8186256 2.1078125,13.8186256 C2.20390625,14.4889381 2.34765625,14.8725319 2.490625,15.0162819 C2.490625,15.0162819 2.490625,15.0162819 2.490625,15.0162819 C2.53828125,15.0639381 2.634375,15.1123756 2.778125,15.1123756 C2.778125,15.1123756 2.778125,15.1123756 2.778125,15.1123756 C3.0171875,15.0647194 3.1609375,14.9209694 3.1609375,14.7295631 C3.1609375,14.7295631 3.1609375,14.7295631 3.1609375,14.7295631 C3.1609375,14.7295631 3.06484375,14.1545631 3.06484375,14.1545631 C2.4421875,10.9936256 3.20859375,8.26393813 5.3640625,5.91706313 C5.3640625,5.91706313 5.3640625,5.91706313 5.3640625,5.91706313 C5.6515625,5.62956313 5.7953125,5.43815688 5.7953125,5.29440688 C5.7953125,5.29440688 5.7953125,5.29440688 5.7953125,5.29440688 C5.7953125,5.15065688 5.74765625,5.00690688 5.60390625,4.91159438 C5.46015625,4.86393813 5.31640625,4.86393813 5.17265625,4.91159438 L5.1734375,4.91081313 Z M14.94375,4.95846938 C14.94375,4.95846938 14.8476563,4.95846938 14.8476563,4.95846938 C14.5601563,5.10221938 14.4648438,5.29362563 14.5601563,5.58112563 C14.5601563,5.58112563 14.5601563,5.58112563 14.5601563,5.58112563 C14.6078125,5.72487563 14.7039063,5.77253188 14.8476563,5.82018813 C14.8476563,5.82018813 14.8476563,5.82018813 14.8476563,5.82018813 C15.8054688,6.25143813 16.6195313,6.77800063 17.2421875,7.40065688 C17.2421875,7.40065688 17.2421875,7.40065688 17.2421875,7.40065688 C18.2,8.35846938 18.8226563,9.60378188 19.1578125,11.0881569 C19.1578125,11.0881569 19.1578125,11.0881569 19.1578125,11.0881569 C19.6367188,13.5303444 19.5890625,15.9733131 19.0617188,18.4155006 C19.0617188,18.4155006 19.0617188,18.4155006 19.0617188,18.4155006 C18.9179688,18.9905006 18.8703125,19.3256569 18.9179688,19.4209694 C18.9179688,19.4209694 18.9179688,19.4209694 18.9179688,19.4209694 C18.965625,19.5647194 19.109375,19.6600319 19.3492188,19.6600319 C19.540625,19.6600319 19.684375,19.5639381 19.7320313,19.4209694 C19.7320313,19.4209694 19.7320313,19.4209694 19.7320313,19.4209694 C19.9710938,18.7983131 20.1148438,17.8405006 20.2585938,16.4514381 C20.2585938,16.4514381 20.2585938,16.4514381 20.2585938,16.4514381 C20.4023438,15.1584694 20.4023438,13.8655006 20.2585938,12.5717506 C20.2585938,12.5717506 20.2585938,12.5717506 20.2585938,12.5717506 C20.1148438,11.5662819 20.0195313,10.7998756 19.8757813,10.3209694 C19.8757813,10.3209694 19.8757813,10.3209694 19.8757813,10.3209694 C19.253125,8.02175063 17.9125,6.34596938 15.8046875,5.29206313 C15.8046875,5.29206313 15.8046875,5.29206313 15.8046875,5.29206313 C15.3734375,5.05300063 15.0859375,4.95690688 14.9429688,4.95690688 C14.9429688,4.95690688 14.9429688,4.95690688 14.9429688,4.95690688 L14.94375,4.95846938 Z M11.6875,6.97018813 C11.6875,6.97018813 11.6875,6.97018813 11.6875,6.97018813 C10.4898437,7.11393813 9.484375,7.64050063 8.62265625,8.45456313 C8.62265625,8.45456313 8.62265625,8.45456313 8.62265625,8.45456313 C7.90390625,9.12487563 7.37734375,9.98737563 7.08984375,11.0889381 C7.08984375,11.0889381 7.08984375,11.0889381 7.08984375,11.0889381 C6.8984375,11.8553444 6.8984375,12.6217506 7.0421875,13.3397194 C7.0421875,13.3397194 7.0421875,13.3397194 7.0421875,13.3397194 C7.1859375,14.2014381 7.1859375,14.9678444 7.0421875,15.6865944 C7.0421875,15.6865944 7.0421875,15.6865944 7.0421875,15.6865944 C6.803125,16.8358131 6.27578125,17.8420631 5.365625,18.6561256 C5.365625,18.6561256 5.365625,18.6561256 5.365625,18.6561256 C5.31796875,18.7037819 5.221875,18.7998756 5.17421875,18.8475319 C5.078125,18.9436256 4.9828125,19.0389381 4.93515625,19.0865944 C4.93515625,19.0865944 4.93515625,19.0865944 4.93515625,19.0865944 C4.93515625,19.0865944 4.8875,19.1826881 4.8875,19.1826881 C4.83984375,19.3740944 4.93515625,19.5178444 5.1265625,19.6615944 C5.1265625,19.6615944 5.1265625,19.6615944 5.1265625,19.6615944 C5.36640625,19.7576881 5.653125,19.6139381 6.03671875,19.2303444 C6.03671875,19.2303444 6.03671875,19.2303444 6.03671875,19.2303444 C7.0421875,18.2248756 7.66484375,17.0272194 7.95234375,15.5428444 C7.95234375,15.5428444 7.95234375,15.5428444 7.95234375,15.5428444 C8.09609375,14.8240944 8.09609375,14.0584694 7.95234375,13.3397194 C7.95234375,13.3397194 7.95234375,13.3397194 7.95234375,13.3397194 C7.6171875,11.6631569 7.95234375,10.3225319 9.00625,9.22096938 C9.00625,9.22096938 9.00625,9.22096938 9.00625,9.22096938 C9.91640625,8.21550063 11.1132812,7.78425063 12.55,7.83190688 C12.55,7.83190688 12.55,7.83190688 12.55,7.83190688 C13.6515625,7.87956313 14.609375,8.26315688 15.3757813,8.98112563 C15.3757813,8.98112563 15.3757813,8.98112563 15.3757813,8.98112563 C16.4296875,9.98659438 16.95625,11.6631569 17.0039062,14.0100319 C17.0039062,14.0100319 17.0039062,14.0100319 17.0039062,14.0100319 C17.0039062,14.1537819 17.0039062,14.3451881 17.0039062,14.4889381 C17.0039062,14.6803444 17.0039062,14.8240944 17.0515625,14.9201881 C17.0515625,15.0639381 17.0515625,15.1115944 17.0515625,15.1592506 C17.0515625,15.1592506 17.0515625,15.1592506 17.0515625,15.1592506 C17.0992187,15.3030006 17.2429687,15.3983131 17.4828125,15.3983131 C17.4828125,15.3983131 17.4828125,15.3983131 17.4828125,15.3983131 C17.721875,15.3983131 17.865625,15.2545631 17.9140625,14.9194069 C17.9140625,14.9194069 17.9140625,14.9194069 17.9140625,14.9194069 C17.9617187,14.1053444 17.8664062,13.0514381 17.6265625,11.6623756 C17.6265625,11.6623756 17.6265625,11.6623756 17.6265625,11.6623756 C17.4828125,10.4647194 17.0039062,9.50690688 16.2375,8.69284438 C16.2375,8.69284438 16.2375,8.69284438 16.2375,8.69284438 C15.4234375,7.87878188 14.5132813,7.30378188 13.4117188,7.06471938 C13.4117188,7.06471938 13.4117188,7.06471938 13.4117188,7.06471938 C13.2203125,7.01706313 12.9328125,7.01706313 12.5015625,6.96862563 C12.0703125,6.92018813 11.83125,6.92096938 11.6875,6.96862563 L11.6875,6.97018813 Z M11.8304688,9.41315688 C11.8304688,9.41315688 11.8304688,9.41315688 11.8304688,9.41315688 C11.1601563,9.55690688 10.5851563,9.84440688 10.1539063,10.3709694 C9.72265625,10.8975319 9.48359375,11.4725319 9.43515625,12.1905006 C9.43515625,12.1905006 9.43515625,12.1905006 9.43515625,12.1905006 C9.3875,12.9092506 9.53125,13.2920631 9.9140625,13.2920631 C9.9140625,13.2920631 9.9140625,13.2920631 9.9140625,13.2920631 C10.0101563,13.2920631 10.1054688,13.2444069 10.2015625,13.1483131 C10.2015625,13.1483131 10.2015625,13.1483131 10.2015625,13.1483131 C10.2976562,13.1006569 10.3453125,12.8131569 10.2976562,12.3819069 C10.2976562,12.3819069 10.2976562,12.3819069 10.2976562,12.3819069 C10.25,11.7592506 10.4414062,11.2803444 10.8726563,10.8490944 C10.8726563,10.8490944 10.8726563,10.8490944 10.8726563,10.8490944 C11.2554688,10.4662819 11.734375,10.2740944 12.309375,10.2740944 C12.8359375,10.2740944 13.3148438,10.4655006 13.6984375,10.8006569 C13.6984375,10.8006569 13.6984375,10.8006569 13.6984375,10.8006569 C14.0335938,11.0881569 14.3210938,11.7584694 14.4648438,12.8600319 C14.4648438,12.8600319 14.4648438,12.8600319 14.4648438,12.8600319 C14.5125,13.2428444 14.5125,13.8178444 14.5125,14.5365944 C14.5125,15.3030006 14.5125,15.8772194 14.4648438,16.2131569 C14.4648438,16.2131569 14.4648438,16.2131569 14.4648438,16.2131569 C14.1773438,18.1287819 13.5070313,19.9006569 12.5015625,21.5295631 C12.5015625,21.5295631 12.5015625,21.5295631 12.5015625,21.5295631 C12.2625,21.9123756 12.1664063,22.1045631 12.1664063,22.1522194 C12.1664063,22.1522194 12.1664063,22.1522194 12.1664063,22.1522194 C12.1664063,22.4397194 12.3101563,22.5834694 12.6453125,22.5834694 C12.6453125,22.5834694 12.6453125,22.5834694 12.6453125,22.5834694 C12.7890625,22.5834694 13.028125,22.3444069 13.315625,21.9131569 C13.315625,21.9131569 13.315625,21.9131569 13.315625,21.9131569 C14.3695313,20.1889381 15.0398438,18.2733131 15.3273438,16.2139381 C15.3273438,16.2139381 15.3273438,16.2139381 15.3273438,16.2139381 C15.4710938,15.2084694 15.51875,14.2506569 15.375,13.3881569 C15.375,13.3881569 15.375,13.3881569 15.375,13.3881569 C15.3273438,12.4303444 15.1835938,11.7600319 15.0398438,11.3764381 C15.0398438,11.3764381 15.0398438,11.3764381 15.0398438,11.3764381 C14.7046875,10.3709694 14.034375,9.74831313 12.9804688,9.50846938 C12.9804688,9.50846938 12.9804688,9.50846938 12.9804688,9.50846938 C12.5976563,9.36471938 12.2140625,9.36471938 11.83125,9.41237563 L11.8304688,9.41315688 Z M4.74296875,11.8076881 C4.74296875,11.8076881 4.74296875,11.8076881 4.74296875,11.8076881 C4.5515625,11.8553444 4.45546875,12.1428444 4.50390625,12.6694069 C4.50390625,12.6694069 4.50390625,12.6694069 4.50390625,12.6694069 C4.50390625,13.0045631 4.5515625,13.2920631 4.6,13.6272194 C4.6,13.6272194 4.6,13.6272194 4.6,13.6272194 C4.74375,14.5850319 4.64765625,15.3514381 4.3609375,15.9740944 C4.3609375,15.9740944 4.3609375,15.9740944 4.3609375,15.9740944 C4.02578125,16.5967506 3.73828125,16.9319069 3.59453125,16.9319069 C3.59453125,16.9319069 3.59453125,16.9319069 3.59453125,16.9319069 C3.45078125,16.9319069 3.403125,17.0756569 3.403125,17.3631569 C3.403125,17.3631569 3.403125,17.3631569 3.403125,17.3631569 C3.403125,17.5069069 3.45078125,17.6022194 3.59453125,17.6506569 C3.73828125,17.7467506 3.83359375,17.7944069 3.97734375,17.7467506 C3.97734375,17.7467506 3.97734375,17.7467506 3.97734375,17.7467506 C4.16875,17.6990944 4.45625,17.4115944 4.79140625,16.9326881 C4.79140625,16.9326881 4.79140625,16.9326881 4.79140625,16.9326881 C5.1265625,16.5014381 5.31796875,16.0709694 5.4140625,15.5436256 C5.4140625,15.5436256 5.4140625,15.5436256 5.4140625,15.5436256 C5.5578125,14.9686256 5.60546875,14.2506569 5.46171875,13.4365944 C5.46171875,13.4365944 5.46171875,13.4365944 5.46171875,13.4365944 C5.4140625,13.1014381 5.365625,12.8139381 5.365625,12.5264381 C5.365625,12.5264381 5.365625,12.5264381 5.365625,12.5264381 C5.31796875,12.1912819 5.26953125,11.9514381 5.221875,11.9037819 C5.221875,11.9037819 5.221875,11.9037819 5.221875,11.9037819 C5.078125,11.7600319 4.88671875,11.7123756 4.74296875,11.8076881 L4.74296875,11.8076881 Z M12.0226563,11.9990944 C12.0226563,11.9990944 12.0226563,11.9990944 12.0226563,11.9990944 C11.8789062,12.0951881 11.8789062,12.3342506 11.9265625,12.7178444 C11.9265625,12.7178444 11.9265625,12.7178444 11.9265625,12.7178444 C12.453125,15.9264381 11.7351562,18.7522194 9.67578125,21.2428444 C9.67578125,21.2428444 9.67578125,21.2428444 9.67578125,21.2428444 C9.43671875,21.5780006 9.340625,21.8655006 9.38828125,22.0569069 C9.38828125,22.0569069 9.38828125,22.0569069 9.38828125,22.0569069 C9.484375,22.2006569 9.62734375,22.2483131 9.77109375,22.2483131 C9.77109375,22.2483131 9.77109375,22.2483131 9.77109375,22.2483131 C9.91484375,22.2483131 10.0101562,22.2006569 10.1539062,22.0569069 C10.1539062,22.0569069 10.1539062,22.0569069 10.1539062,22.0569069 C10.6328125,21.5303444 11.1117187,20.8115944 11.6382812,19.9014381 C11.6382812,19.9014381 11.6382812,19.9014381 11.6382812,19.9014381 C12.3570313,18.6084694 12.7398437,17.2194069 12.8835937,15.7826881 C12.8835937,15.7826881 12.8835937,15.7826881 12.8835937,15.7826881 C13.0273438,14.7772194 13.0273438,13.6272194 12.7875,12.3342506 C12.7875,12.3342506 12.7875,12.3342506 12.7875,12.3342506 C12.7398437,12.0951881 12.64375,11.9514381 12.5,11.9030006 C12.3085938,11.8553444 12.1648438,11.8553444 12.0210938,11.9990944 L12.0226563,11.9990944 Z M9.771875,14.1061256 C9.771875,14.1061256 9.771875,14.1061256 9.771875,14.1061256 C9.67578125,14.2022194 9.628125,14.4889381 9.58046875,14.9678444 C9.58046875,14.9678444 9.58046875,14.9678444 9.58046875,14.9678444 C9.5328125,16.9311256 8.76640625,18.7037819 7.28125,20.2358131 C7.28125,20.2358131 7.28125,20.2358131 7.28125,20.2358131 C6.94609375,20.6186256 6.85,20.8584694 6.94609375,21.0022194 C6.94609375,21.0022194 6.94609375,21.0022194 6.94609375,21.0022194 C7.0421875,21.2412819 7.18515625,21.2897194 7.425,21.2412819 C7.425,21.2412819 7.425,21.2412819 7.425,21.2412819 C7.47265625,21.2412819 7.6640625,21.0975319 7.90390625,20.8100319 C7.90390625,20.8100319 7.90390625,20.8100319 7.90390625,20.8100319 C9.53203125,19.1819069 10.3945313,17.2178444 10.4898438,14.9194069 C10.4898438,14.9194069 10.4898438,14.9194069 10.4898438,14.9194069 C10.4898438,14.9194069 10.4898438,14.2490944 10.4898438,14.2490944 C10.4898438,14.2490944 10.3460938,14.1053444 10.3460938,14.1053444 C10.1546875,13.9139381 9.96328125,13.9139381 9.77109375,14.1053444 L9.771875,14.1061256 Z M17.0507813,16.2139381 C17.0507813,16.2139381 17.0507813,16.2139381 17.0507813,16.2139381 C16.9546875,16.3100319 16.859375,16.5490944 16.8117188,16.9803444 C16.8117188,16.9803444 16.8117188,16.9803444 16.8117188,16.9803444 C16.5726563,18.3694069 16.1890625,19.6623756 15.6140625,20.9553444 C15.6140625,20.9553444 15.6140625,20.9553444 15.6140625,20.9553444 C15.4226563,21.3865944 15.4226563,21.6740944 15.5664063,21.8170631 C15.5664063,21.8170631 15.5664063,21.8170631 15.5664063,21.8170631 C15.6140625,21.9131569 15.7101563,21.9608131 15.8054688,21.9608131 C15.8054688,21.9608131 15.8054688,21.9608131 15.8054688,21.9608131 C16.0445313,21.9608131 16.2367188,21.7217506 16.428125,21.2905006 C16.428125,21.2905006 16.428125,21.2905006 16.428125,21.2905006 C17.0984375,19.8061256 17.5296875,18.3209694 17.7210938,16.9319069 C17.7210938,16.9319069 17.7210938,16.9319069 17.7210938,16.9319069 C17.76875,16.6928444 17.76875,16.5006569 17.7210938,16.3569069 C17.7210938,16.3569069 17.7210938,16.3569069 17.7210938,16.3569069 C17.5773438,16.0217506 17.3859375,15.9740944 17.0507813,16.2131569 L17.0507813,16.2139381 Z"/>
  <title>Ios Finger Id</title>
</svg>