<svg xmlns="http://www.w3.org/2000/svg" viewBox="0 0 25 25" id="key">
  <path d="M22.88125,7.28222861 C22.88125,5.31894736 22.2109375,3.59472861 20.821875,2.20566611 C19.4328125,0.816603611 17.8046875,0.0501973612 15.8414062,0.00254111123 C13.878125,-0.0451151388 12.1539063,0.577541111 10.66875,1.87050986 C9.18359375,3.16347861 8.41796875,4.79160361 8.27421875,6.75566611 C8.13046875,8.71894736 8.65703125,10.4916036 9.90234375,12.0236349 C9.90234375,12.0236349 9.90234375,12.0236349 9.90234375,12.0236349 C9.90234375,12.0236349 2,19.6861349 2,19.6861349 C2,19.6861349 6.6453125,24.5712911 6.6453125,24.5712911 C6.6453125,24.5712911 7.41171875,23.8048849 7.41171875,23.8048849 C7.41171875,23.8048849 3.2453125,19.6861349 3.2453125,19.6861349 C3.2453125,19.6861349 6.16640625,16.9564474 6.16640625,16.9564474 C6.16640625,16.9564474 10.09375,20.8837911 10.09375,20.8837911 C10.09375,20.8837911 10.8125,20.1650411 10.8125,20.1650411 C10.8125,20.1650411 6.88515625,16.2376974 6.88515625,16.2376974 C6.88515625,16.2376974 10.5726562,12.6939474 10.5726562,12.6939474 C12.0570312,13.9869161 13.78125,14.6095724 15.7453125,14.5619161 C17.709375,14.5142599 19.3851563,13.7478536 20.7742187,12.3587911 C22.1632813,10.9697286 22.8335938,9.24550986 22.88125,7.28222861 Z M20.1039063,11.8798849 C20.1039063,11.8798849 20.1039063,11.8798849 20.1039063,11.8798849 C18.90625,13.1251974 17.421875,13.7478536 15.65,13.7478536 C15.65,13.7478536 15.65,13.7478536 15.65,13.7478536 C13.878125,13.7478536 12.3929687,13.1251974 11.1484375,11.8798849 C9.90390625,10.6345724 9.28046875,9.15019736 9.28046875,7.37832236 C9.28046875,5.60644736 9.903125,4.12129111 11.1484375,2.92441611 C11.1484375,2.92441611 11.1484375,2.92441611 11.1484375,2.92441611 C12.39375,1.67910361 13.878125,1.05644736 15.65,1.05644736 C17.421875,1.05644736 18.9070312,1.67910361 20.1039063,2.92441611 C20.1039063,2.92441611 20.1039063,2.92441611 20.1039063,2.92441611 C21.3492187,4.12207236 21.971875,5.60644736 21.971875,7.37832236 C21.971875,9.15019736 21.3492187,10.6353536 20.1039063,11.8798849 L20.1039063,11.8798849 Z"/>
  <title>Key</title>
</svg>