<svg xmlns="http://www.w3.org/2000/svg" viewBox="0 0 25 25" id="keyboard-solid">
  <path d="M23.0367187,3 C23.0367187,3 23.0367187,3 23.0367187,3 C23.0367187,3 1.48515625,3 1.48515625,3 C1.05390625,3 0.71875,3.14375 0.43125,3.43125 C0.14375,3.71875 0,4.05390625 0,4.48515625 C0,4.48515625 0,4.48515625 0,4.48515625 C0,4.48515625 0,19.1882812 0,19.1882812 C0,19.6195312 0.14375,19.9546875 0.43125,20.2421875 C0.71875,20.5296875 1.05390625,20.6734375 1.48515625,20.6734375 C1.48515625,20.6734375 1.48515625,20.6734375 1.48515625,20.6734375 C1.48515625,20.6734375 23.0367187,20.6734375 23.0367187,20.6734375 C23.4679687,20.6734375 23.803125,20.5296875 24.090625,20.2421875 C24.378125,19.9546875 24.521875,19.6195312 24.521875,19.1882812 C24.521875,19.1882812 24.521875,19.1882812 24.521875,19.1882812 C24.521875,19.1882812 24.521875,4.48515625 24.521875,4.48515625 C24.521875,4.05390625 24.378125,3.71875 24.090625,3.43125 C23.803125,3.14375 23.4679687,3 23.0367187,3 Z M14.2242188,6.92734375 C14.2242188,6.92734375 14.2242188,6.92734375 14.2242188,6.92734375 C14.2242188,6.92734375 15.1820312,6.92734375 15.1820312,6.92734375 C15.5171875,6.92734375 15.7085937,7.07109375 15.7085937,7.40625 C15.7085937,7.74140625 15.5171875,7.88515625 15.1820312,7.88515625 C15.1820312,7.88515625 15.1820312,7.88515625 15.1820312,7.88515625 C15.1820312,7.88515625 14.2242188,7.88515625 14.2242188,7.88515625 C13.8890625,7.88515625 13.7453125,7.74140625 13.7453125,7.40625 C13.7453125,7.07109375 13.8890625,6.92734375 14.2242188,6.92734375 Z M14.2242188,9.8484375 C14.2242188,9.8484375 14.2242188,9.8484375 14.2242188,9.8484375 C14.2242188,9.8484375 15.1820312,9.8484375 15.1820312,9.8484375 C15.5171875,9.8484375 15.7085937,9.9921875 15.7085937,10.3273438 C15.7085937,10.3273438 15.7085937,10.3273438 15.7085937,10.3273438 C15.7085937,10.6625 15.5171875,10.8539062 15.1820312,10.8539062 C15.1820312,10.8539062 15.1820312,10.8539062 15.1820312,10.8539062 C15.1820312,10.8539062 14.2242188,10.8539062 14.2242188,10.8539062 C13.8890625,10.8539062 13.7453125,10.6625 13.7453125,10.3273438 C13.7453125,10.3273438 13.7453125,10.3273438 13.7453125,10.3273438 C13.7453125,9.9921875 13.8890625,9.8484375 14.2242188,9.8484375 Z M14.2242188,12.8179687 C14.2242188,12.8179687 14.2242188,12.8179687 14.2242188,12.8179687 C14.2242188,12.8179687 15.1820312,12.8179687 15.1820312,12.8179687 C15.5171875,12.8179687 15.7085937,12.9617187 15.7085937,13.296875 C15.7085937,13.6320312 15.5171875,13.7757812 15.1820312,13.7757812 C15.1820312,13.7757812 15.1820312,13.7757812 15.1820312,13.7757812 C15.1820312,13.7757812 14.2242188,13.7757812 14.2242188,13.7757812 C13.8890625,13.7757812 13.7453125,13.6320312 13.7453125,13.296875 C13.7453125,12.9617187 13.8890625,12.8179687 14.2242188,12.8179687 Z M9.3390625,6.92734375 C9.3390625,6.92734375 9.3390625,6.92734375 9.3390625,6.92734375 C9.3390625,6.92734375 10.296875,6.92734375 10.296875,6.92734375 C10.6320312,6.92734375 10.7757812,7.07109375 10.7757812,7.40625 C10.7757812,7.74140625 10.6320312,7.88515625 10.296875,7.88515625 C10.296875,7.88515625 10.296875,7.88515625 10.296875,7.88515625 C10.296875,7.88515625 9.3390625,7.88515625 9.3390625,7.88515625 C9.00390625,7.88515625 8.8125,7.74140625 8.8125,7.40625 C8.8125,7.07109375 9.00390625,6.92734375 9.3390625,6.92734375 Z M9.3390625,9.8484375 C9.3390625,9.8484375 9.3390625,9.8484375 9.3390625,9.8484375 C9.3390625,9.8484375 10.296875,9.8484375 10.296875,9.8484375 C10.6320312,9.8484375 10.7757812,9.9921875 10.7757812,10.3273438 C10.7757812,10.3273438 10.7757812,10.3273438 10.7757812,10.3273438 C10.7757812,10.6625 10.6320312,10.8539062 10.296875,10.8539062 C10.296875,10.8539062 10.296875,10.8539062 10.296875,10.8539062 C10.296875,10.8539062 9.3390625,10.8539062 9.3390625,10.8539062 C9.00390625,10.8539062 8.8125,10.6625 8.8125,10.3273438 C8.8125,10.3273438 8.8125,10.3273438 8.8125,10.3273438 C8.8125,9.9921875 9.00390625,9.8484375 9.3390625,9.8484375 Z M9.3390625,12.8179687 C9.3390625,12.8179687 9.3390625,12.8179687 9.3390625,12.8179687 C9.3390625,12.8179687 10.296875,12.8179687 10.296875,12.8179687 C10.6320312,12.8179687 10.7757812,12.9617187 10.7757812,13.296875 C10.7757812,13.6320312 10.6320312,13.7757812 10.296875,13.7757812 C10.296875,13.7757812 10.296875,13.7757812 10.296875,13.7757812 C10.296875,13.7757812 9.3390625,13.7757812 9.3390625,13.7757812 C9.00390625,13.7757812 8.8125,13.6320312 8.8125,13.296875 C8.8125,12.9617187 9.00390625,12.8179687 9.3390625,12.8179687 Z M5.41171875,16.7453125 C5.41171875,16.7453125 5.41171875,16.7453125 5.41171875,16.7453125 C5.41171875,16.7453125 4.40625,16.7453125 4.40625,16.7453125 C4.07109375,16.7453125 3.92734375,16.5539062 3.92734375,16.21875 C3.92734375,16.21875 3.92734375,16.21875 3.92734375,16.21875 C3.92734375,15.8835938 4.07109375,15.7398438 4.40625,15.7398438 C4.40625,15.7398438 4.40625,15.7398438 4.40625,15.7398438 C4.40625,15.7398438 5.41171875,15.7398438 5.41171875,15.7398438 C5.746875,15.7398438 5.890625,15.8835938 5.890625,16.21875 C5.890625,16.21875 5.890625,16.21875 5.890625,16.21875 C5.890625,16.5539062 5.746875,16.7453125 5.41171875,16.7453125 L5.41171875,16.7453125 Z M5.41171875,13.7757812 C5.41171875,13.7757812 5.41171875,13.7757812 5.41171875,13.7757812 C5.41171875,13.7757812 4.40625,13.7757812 4.40625,13.7757812 C4.07109375,13.7757812 3.92734375,13.6320312 3.92734375,13.296875 C3.92734375,12.9617187 4.07109375,12.8179687 4.40625,12.8179687 C4.40625,12.8179687 4.40625,12.8179687 4.40625,12.8179687 C4.40625,12.8179687 5.41171875,12.8179687 5.41171875,12.8179687 C5.746875,12.8179687 5.890625,12.9617187 5.890625,13.296875 C5.890625,13.6320312 5.746875,13.7757812 5.41171875,13.7757812 L5.41171875,13.7757812 Z M5.41171875,10.8546875 C5.41171875,10.8546875 5.41171875,10.8546875 5.41171875,10.8546875 C5.41171875,10.8546875 4.40625,10.8546875 4.40625,10.8546875 C4.07109375,10.8546875 3.92734375,10.6632813 3.92734375,10.328125 C3.92734375,10.328125 3.92734375,10.328125 3.92734375,10.328125 C3.92734375,9.99296875 4.07109375,9.84921875 4.40625,9.84921875 C4.40625,9.84921875 4.40625,9.84921875 4.40625,9.84921875 C4.40625,9.84921875 5.41171875,9.84921875 5.41171875,9.84921875 C5.746875,9.84921875 5.890625,9.99296875 5.890625,10.328125 C5.890625,10.328125 5.890625,10.328125 5.890625,10.328125 C5.890625,10.6632813 5.746875,10.8546875 5.41171875,10.8546875 L5.41171875,10.8546875 Z M5.41171875,7.88515625 C5.41171875,7.88515625 5.41171875,7.88515625 5.41171875,7.88515625 C5.41171875,7.88515625 4.40625,7.88515625 4.40625,7.88515625 C4.07109375,7.88515625 3.92734375,7.74140625 3.92734375,7.40625 C3.92734375,7.07109375 4.07109375,6.92734375 4.40625,6.92734375 C4.40625,6.92734375 4.40625,6.92734375 4.40625,6.92734375 C4.40625,6.92734375 5.41171875,6.92734375 5.41171875,6.92734375 C5.746875,6.92734375 5.890625,7.07109375 5.890625,7.40625 C5.890625,7.74140625 5.746875,7.88515625 5.41171875,7.88515625 L5.41171875,7.88515625 Z M16.1875,16.7453125 C16.1875,16.7453125 16.1875,16.7453125 16.1875,16.7453125 C16.1875,16.7453125 8.3328125,16.7453125 8.3328125,16.7453125 C7.99765625,16.7453125 7.85390625,16.5539062 7.85390625,16.21875 C7.85390625,16.21875 7.85390625,16.21875 7.85390625,16.21875 C7.85390625,15.8835938 7.99765625,15.7398438 8.3328125,15.7398438 C8.3328125,15.7398438 8.3328125,15.7398438 8.3328125,15.7398438 C8.3328125,15.7398438 16.1875,15.7398438 16.1875,15.7398438 C16.5226562,15.7398438 16.6664062,15.8835938 16.6664062,16.21875 C16.6664062,16.21875 16.6664062,16.21875 16.6664062,16.21875 C16.6664062,16.5539062 16.5226562,16.7453125 16.1875,16.7453125 Z M20.1148437,16.7453125 C20.1148437,16.7453125 20.1148437,16.7453125 20.1148437,16.7453125 C20.1148437,16.7453125 19.109375,16.7453125 19.109375,16.7453125 C18.7742187,16.7453125 18.6304687,16.5539062 18.6304687,16.21875 C18.6304687,16.21875 18.6304687,16.21875 18.6304687,16.21875 C18.6304687,15.8835938 18.7742187,15.7398438 19.109375,15.7398438 C19.109375,15.7398438 19.109375,15.7398438 19.109375,15.7398438 C19.109375,15.7398438 20.1148437,15.7398438 20.1148437,15.7398438 C20.45,15.7398438 20.59375,15.8835938 20.59375,16.21875 C20.59375,16.21875 20.59375,16.21875 20.59375,16.21875 C20.59375,16.5539062 20.45,16.7453125 20.1148437,16.7453125 Z M20.1148437,13.7757812 C20.1148437,13.7757812 20.1148437,13.7757812 20.1148437,13.7757812 C20.1148437,13.7757812 19.109375,13.7757812 19.109375,13.7757812 C18.7742187,13.7757812 18.6304687,13.6320312 18.6304687,13.296875 C18.6304687,12.9617187 18.7742187,12.8179687 19.109375,12.8179687 C19.109375,12.8179687 19.109375,12.8179687 19.109375,12.8179687 C19.109375,12.8179687 20.1148437,12.8179687 20.1148437,12.8179687 C20.45,12.8179687 20.59375,12.9617187 20.59375,13.296875 C20.59375,13.6320312 20.45,13.7757812 20.1148437,13.7757812 Z M20.1148437,10.8546875 C20.1148437,10.8546875 20.1148437,10.8546875 20.1148437,10.8546875 C20.1148437,10.8546875 19.109375,10.8546875 19.109375,10.8546875 C18.7742187,10.8546875 18.6304687,10.6632813 18.6304687,10.328125 C18.6304687,10.328125 18.6304687,10.328125 18.6304687,10.328125 C18.6304687,9.99296875 18.7742187,9.84921875 19.109375,9.84921875 C19.109375,9.84921875 19.109375,9.84921875 19.109375,9.84921875 C19.109375,9.84921875 20.1148437,9.84921875 20.1148437,9.84921875 C20.45,9.84921875 20.59375,9.99296875 20.59375,10.328125 C20.59375,10.328125 20.59375,10.328125 20.59375,10.328125 C20.59375,10.6632813 20.45,10.8546875 20.1148437,10.8546875 Z M20.1148437,7.88515625 C20.1148437,7.88515625 20.1148437,7.88515625 20.1148437,7.88515625 C20.1148437,7.88515625 19.109375,7.88515625 19.109375,7.88515625 C18.7742187,7.88515625 18.6304687,7.74140625 18.6304687,7.40625 C18.6304687,7.07109375 18.7742187,6.92734375 19.109375,6.92734375 C19.109375,6.92734375 19.109375,6.92734375 19.109375,6.92734375 C19.109375,6.92734375 20.1148437,6.92734375 20.1148437,6.92734375 C20.45,6.92734375 20.59375,7.07109375 20.59375,7.40625 C20.59375,7.74140625 20.45,7.88515625 20.1148437,7.88515625 Z"/>
  <title>Keyboard Solid</title>
</svg>