<svg xmlns="http://www.w3.org/2000/svg" viewBox="0 0 25 25" id="knight">
  <path d="M19.4695313,6.41171875 C19.4695313,6.41171875 19.4695313,6.41171875 19.4695313,6.41171875 C19.4695313,6.41171875 13.8179687,3.203125 13.8179687,3.203125 C13.8179687,3.203125 13.8179687,1.5265625 13.8179687,1.5265625 C13.8179687,1.19140625 13.6742187,1 13.3390625,1 C13.3390625,1 13.3390625,1 13.3390625,1 C11.0882813,1 9.17265625,1.71875 7.49609375,3.203125 C5.81953125,4.6875 5.00546875,6.41171875 5.00546875,8.37578125 C5.00546875,8.37578125 5.00546875,8.37578125 5.00546875,8.37578125 C5.00546875,9.95625 5.38828125,11.3929687 6.203125,12.734375 C6.203125,12.734375 6.203125,12.734375 6.203125,12.734375 C6.634375,13.453125 6.8734375,14.3148438 6.96953125,15.225 C6.96953125,15.225 6.96953125,15.225 6.96953125,15.225 C6.82578125,16.3742188 6.346875,17.3320312 5.62890625,18.0507812 C5.62890625,18.0507812 5.62890625,18.0507812 5.62890625,18.0507812 C5.19765625,18.5773438 5.00625,18.9125 5.00625,19.1523438 C5.00625,19.1523438 5.00625,19.1523438 5.00625,19.1523438 C5.00625,19.4875 5.15,19.6789063 5.48515625,19.6789063 C5.48515625,19.6789063 5.48515625,19.6789063 5.48515625,19.6789063 C5.48515625,19.6789063 18.2242188,19.6789063 18.2242188,19.6789063 C18.559375,19.6789063 18.7507812,19.4875 18.7507812,19.1523438 C18.7507812,19.1523438 18.7507812,19.1523438 18.7507812,19.1523438 C18.6070312,18.0984375 18.128125,17.2367188 17.3140625,16.5179688 C17.3140625,16.5179688 17.3140625,16.5179688 17.3140625,16.5179688 C15.7335938,15.1289063 14.9195312,13.3570313 14.8234375,11.2015625 C14.8234375,11.2015625 14.8234375,11.2015625 14.8234375,11.2015625 C15.7335938,11.440625 16.4039063,11.584375 16.8828125,11.6328125 C16.8828125,11.6328125 16.8828125,11.6328125 16.8828125,11.6328125 C17.0265625,11.6804687 17.2179688,11.6804687 17.409375,11.6804687 C17.409375,11.6804687 17.409375,11.6804687 17.409375,11.6804687 C18.1757813,11.6804687 18.7984375,11.3929687 19.325,10.7703125 C19.325,10.7703125 19.325,10.7703125 19.325,10.7703125 C19.325,10.7703125 20.5703125,9.1421875 20.5703125,9.1421875 C20.6664063,9.04609375 20.7140625,8.95078125 20.7140625,8.8546875 C20.7140625,8.8546875 20.7140625,8.8546875 20.7140625,8.8546875 C20.7140625,8.8546875 20.7140625,8.51953125 20.7140625,8.51953125 C20.7140625,7.609375 20.2828125,6.9390625 19.46875,6.4125 L19.4695313,6.41171875 Z M19.7085937,8.51953125 C19.7085937,8.51953125 19.7085937,8.66328125 19.7085937,8.66328125 C19.7085937,8.66328125 18.559375,10.1476563 18.559375,10.1476563 C18.2242188,10.5304688 17.840625,10.7226563 17.4101562,10.7226563 C17.4101562,10.7226563 17.4101562,10.7226563 17.4101562,10.7226563 C17.3625,10.7226563 17.3140625,10.7226563 17.2664062,10.7226563 C17.2664062,10.7226563 17.2664062,10.7226563 17.2664062,10.7226563 C17.2664062,10.7226563 17.1703125,10.675 17.1703125,10.675 C14.9195312,10.3398438 13.434375,9.76484375 12.7164062,8.9984375 C12.7164062,8.9984375 12.7164062,8.9984375 12.7164062,8.9984375 C12.6203125,8.90234375 12.525,8.8546875 12.38125,8.8546875 C12.38125,8.8546875 12.38125,8.8546875 12.38125,8.8546875 C12.0460938,8.8546875 11.8546875,9.04609375 11.8546875,9.38125 C11.8546875,9.38125 11.8546875,9.38125 11.8546875,9.38125 C11.8546875,9.525 11.9023438,9.6203125 11.9984375,9.71640625 C11.9984375,9.71640625 11.9984375,9.71640625 11.9984375,9.71640625 C12.525,10.1953125 13.1476563,10.578125 13.7703125,10.8179688 C13.7703125,10.8179688 13.7703125,10.8179688 13.7703125,10.8179688 C13.7703125,10.8179688 13.8179688,10.865625 13.8179688,10.865625 C13.8179688,13.35625 14.728125,15.4632813 16.5476563,17.1875 C16.5476563,17.1875 16.5476563,17.1875 16.5476563,17.1875 C16.9789063,17.5703125 17.3140625,18.0492188 17.6492188,18.6242188 C17.6492188,18.6242188 17.6492188,18.6242188 17.6492188,18.6242188 C17.6492188,18.6242188 6.39453125,18.671875 6.39453125,18.671875 C7.3046875,17.6664063 7.83125,16.5648438 7.92734375,15.271875 C7.92734375,15.271875 7.92734375,15.271875 7.92734375,15.271875 C7.8796875,14.1703125 7.5921875,13.1648438 7.0171875,12.2070313 C7.0171875,12.2070313 7.0171875,12.2070313 7.0171875,12.2070313 C6.39453125,11.1054688 6.01171875,9.8125 5.96328125,8.37578125 C5.96328125,8.37578125 5.96328125,8.37578125 5.96328125,8.37578125 C5.96328125,6.69921875 6.63359375,5.2625 8.02265625,4.0171875 C9.36328125,2.81953125 10.9921875,2.14921875 12.8601562,2.00546875 C12.8601562,2.00546875 12.8601562,2.00546875 12.8601562,2.00546875 C12.8601562,2.00546875 12.8601562,3.48984375 12.8601562,3.48984375 C12.8601562,3.68125 12.95625,3.825 13.0992188,3.92109375 C13.0992188,3.92109375 13.0992188,3.92109375 13.0992188,3.92109375 C13.0992188,3.92109375 18.9898437,7.2734375 18.9898437,7.2734375 C19.46875,7.5125 19.7085937,7.94375 19.7085937,8.51875 C19.7085937,8.51875 19.7085937,8.51875 19.7085937,8.51875 L19.7085937,8.51953125 Z M14.296875,5.9328125 C14.6320313,5.9328125 14.8234375,6.0765625 14.8234375,6.41171875 C14.8234375,6.746875 14.6320313,6.890625 14.296875,6.890625 C14.296875,6.890625 14.296875,6.890625 14.296875,6.890625 C13.9617188,6.890625 13.8179688,6.746875 13.8179688,6.41171875 C13.8179688,6.0765625 13.9617188,5.9328125 14.296875,5.9328125 C14.296875,5.9328125 14.296875,5.9328125 14.296875,5.9328125 Z M19.7085937,22.9351562 C19.7085937,22.9351562 19.1335938,21.3070313 19.1335938,21.3070313 C18.9898437,20.8757812 18.6546875,20.6367188 18.2234375,20.6367188 C18.2234375,20.6367188 18.2234375,20.6367188 18.2234375,20.6367188 C18.2234375,20.6367188 5.53203125,20.6367188 5.53203125,20.6367188 C5.053125,20.6367188 4.71796875,20.8757812 4.57421875,21.3070313 C4.57421875,21.3070313 4.57421875,21.3070313 4.57421875,21.3070313 C4.57421875,21.3070313 4.04765625,22.9351562 4.04765625,22.9351562 C4.04765625,22.9828125 4.04765625,23.03125 4,23.0789062 C4,23.0789062 4,23.0789062 4,23.0789062 C4,23.4140625 4.19140625,23.5578125 4.5265625,23.5578125 C4.5265625,23.5578125 4.5265625,23.5578125 4.5265625,23.5578125 C4.5265625,23.5578125 19.2296875,23.5578125 19.2296875,23.5578125 C19.5648438,23.5578125 19.7085937,23.4140625 19.7085937,23.0789062 C19.7085937,23.0789062 19.7085937,23.0789062 19.7085937,23.0789062 C19.7085937,23.0789062 19.7085937,22.9351562 19.7085937,22.9351562 Z M18.559375,22.6 C18.559375,22.6 5.19765625,22.6 5.19765625,22.6 C5.19765625,22.6 5.5328125,21.6421875 5.5328125,21.6421875 C5.5328125,21.6421875 18.2242187,21.6421875 18.2242187,21.6421875 C18.2242187,21.6421875 18.559375,22.6 18.559375,22.6 Z"/>
  <title>Knight</title>
</svg>