<svg xmlns="http://www.w3.org/2000/svg" viewBox="0 0 25 25" id="knight-solid">
  <path d="M19.134375,21.3070313 C19.134375,21.3070313 19.6609375,22.9351562 19.6609375,22.9351562 C19.6609375,22.9828125 19.6609375,23.03125 19.7085937,23.0789062 C19.7085937,23.0789062 19.7085937,23.0789062 19.7085937,23.0789062 C19.7085937,23.4140625 19.5171875,23.5578125 19.1820313,23.5578125 C19.1820313,23.5578125 19.1820313,23.5578125 19.1820313,23.5578125 C19.1820313,23.5578125 4.47890625,23.5578125 4.47890625,23.5578125 C4.14375,23.5578125 4,23.4140625 4,23.0789062 C4,23.0789062 4,23.0789062 4,23.0789062 C4,23.0789062 4,22.9351562 4,22.9351562 C4,22.9351562 4.575,21.3070313 4.575,21.3070313 C4.71875,20.8757812 5.05390625,20.6367188 5.48515625,20.6367188 C5.48515625,20.6367188 5.48515625,20.6367188 5.48515625,20.6367188 C5.48515625,20.6367188 18.1765625,20.6367188 18.1765625,20.6367188 C18.6554688,20.6367188 18.990625,20.8757812 19.134375,21.3070313 C19.134375,21.3070313 19.134375,21.3070313 19.134375,21.3070313 Z M20.6664062,8.5203125 C20.6664062,8.5203125 20.6664062,8.5203125 20.6664062,8.5203125 C20.6664062,8.5203125 20.6664062,8.85546875 20.6664062,8.85546875 C20.6664062,8.903125 20.61875,8.99921875 20.5703125,9.14296875 C20.5703125,9.14296875 20.5703125,9.14296875 20.5703125,9.14296875 C20.5703125,9.14296875 19.2773438,10.7710938 19.2773438,10.7710938 C18.8460938,11.39375 18.1757812,11.68125 17.3617187,11.68125 C17.3617187,11.68125 17.3617187,11.68125 17.3617187,11.68125 C17.2179687,11.68125 17.0742187,11.68125 16.9789062,11.6335938 C16.9789062,11.6335938 16.9789062,11.6335938 16.9789062,11.6335938 C16.4039062,11.5859375 15.6382812,11.3945313 14.6796875,11.1546875 C14.6796875,11.1546875 14.6796875,11.1546875 14.6796875,11.1546875 C14.6796875,11.1546875 14.8234375,11.1546875 14.8234375,11.1546875 C14.0570312,11.0109375 13.3390625,10.628125 12.6203125,10.0054688 C12.6203125,10.0054688 12.6203125,10.0054688 12.6203125,10.0054688 C12.4765625,9.9578125 12.38125,9.909375 12.2851562,9.909375 C12.2851562,9.909375 12.2851562,9.909375 12.2851562,9.909375 C11.95,9.909375 11.80625,10.053125 11.80625,10.3882813 C11.80625,10.3882813 11.80625,10.3882813 11.80625,10.3882813 C11.80625,10.484375 11.8539062,10.5796875 11.9023438,10.7234375 C11.9023438,10.7234375 11.9023438,10.7234375 11.9023438,10.7234375 C12.8125,11.4898438 13.7703125,11.96875 14.871875,12.2078125 C14.871875,12.2078125 14.871875,12.2078125 14.871875,12.2078125 C15.2546875,13.9796875 16.0695312,15.4164063 17.2664062,16.5179688 C17.2664062,16.5179688 17.2664062,16.5179688 17.2664062,16.5179688 C18.128125,17.284375 18.6070313,18.1460938 18.703125,19.1523438 C18.703125,19.1523438 18.703125,19.1523438 18.703125,19.1523438 C18.703125,19.4875 18.559375,19.6789063 18.2242187,19.6789063 C18.2242187,19.6789063 18.2242187,19.6789063 18.2242187,19.6789063 C18.2242187,19.6789063 5.48515625,19.6789063 5.48515625,19.6789063 C5.15,19.6789063 4.95859375,19.4875 4.95859375,19.1523438 C4.95859375,19.1523438 4.95859375,19.1523438 4.95859375,19.1523438 C4.95859375,18.9132813 5.15,18.5773438 5.58125,18.0507812 C5.58125,18.0507812 5.58125,18.0507812 5.58125,18.0507812 C6.3,17.3320312 6.77890625,16.3742188 6.921875,15.2726563 C6.921875,15.2726563 6.921875,15.2726563 6.921875,15.2726563 C6.87421875,14.3148438 6.58671875,13.453125 6.1078125,12.6382813 C6.1078125,12.6382813 6.1078125,12.6382813 6.1078125,12.6382813 C5.3890625,11.3453125 5.00625,9.95625 4.95859375,8.37578125 C4.95859375,8.37578125 4.95859375,8.37578125 4.95859375,8.37578125 C4.95859375,6.4125 5.77265625,4.68828125 7.44921875,3.203125 C9.12578125,1.71796875 11.0414062,1 13.2921875,1 C13.2921875,1 13.2921875,1 13.2921875,1 C13.6273437,1 13.81875,1.19140625 13.81875,1.5265625 C13.81875,1.5265625 13.81875,1.5265625 13.81875,1.5265625 C13.81875,1.5265625 13.81875,3.203125 13.81875,3.203125 C13.81875,3.203125 19.421875,6.41171875 19.421875,6.41171875 C20.2359375,6.890625 20.6671875,7.609375 20.6671875,8.51875 L20.6664062,8.5203125 Z M14.296875,6.89140625 C14.6320312,6.89140625 14.7757812,6.74765625 14.7757812,6.4125 C14.7757812,6.07734375 14.6320312,5.93359375 14.296875,5.93359375 C13.9617187,5.93359375 13.8179687,6.07734375 13.8179687,6.4125 C13.8179687,6.74765625 13.9617187,6.89140625 14.296875,6.89140625 Z"/>
  <title>Knight Solid</title>
</svg>