<svg xmlns="http://www.w3.org/2000/svg" viewBox="0 0 25 25" id="knobs">
  <path d="M3.96953125,14.7929688 C3.96953125,14.7929688 3.96953125,14.7929688 3.96953125,14.7929688 C3.96953125,14.7929688 3.96953125,1.47890625 3.96953125,1.47890625 C3.96953125,1.14375 3.82578125,1 3.490625,1 C3.490625,1 3.490625,1 3.490625,1 C3.15546875,1 2.9640625,1.14375 2.9640625,1.47890625 C2.9640625,1.47890625 2.9640625,1.47890625 2.9640625,1.47890625 C2.9640625,1.47890625 2.9640625,14.7929688 2.9640625,14.7929688 C2.3890625,14.9367188 1.91015625,15.2242187 1.575,15.6546875 C1.1921875,16.0859375 1,16.6125 1,17.1875 C1,17.7625 1.19140625,18.2890625 1.575,18.7203125 C1.91015625,19.1515625 2.3890625,19.4390625 2.9640625,19.5820312 C2.9640625,19.5820312 2.9640625,19.5820312 2.9640625,19.5820312 C2.9640625,19.5820312 2.9640625,23.078125 2.9640625,23.078125 C2.9640625,23.4132813 3.15546875,23.5570313 3.490625,23.5570313 C3.490625,23.5570313 3.490625,23.5570313 3.490625,23.5570313 C3.82578125,23.5570313 3.96953125,23.4132813 3.96953125,23.078125 C3.96953125,23.078125 3.96953125,23.078125 3.96953125,23.078125 C3.96953125,23.078125 3.96953125,19.5820312 3.96953125,19.5820312 C4.54453125,19.4382813 5.0234375,19.1507813 5.40625,18.7203125 C5.74140625,18.2890625 5.9328125,17.7625 5.9328125,17.1875 C5.9328125,16.6125 5.74140625,16.0859375 5.40625,15.6546875 C5.0234375,15.2234375 4.54453125,14.9359375 3.96953125,14.7929688 Z M4.54453125,18.2414063 C4.25703125,18.5289062 3.921875,18.6726562 3.490625,18.6726562 C3.059375,18.6726562 2.72421875,18.5289062 2.43671875,18.2414063 C2.14921875,17.9539063 2.00546875,17.61875 2.00546875,17.1875 C2.00546875,16.75625 2.14921875,16.4210937 2.43671875,16.1335938 C2.72421875,15.8460938 3.059375,15.7023438 3.490625,15.7023438 C3.921875,15.7023438 4.25703125,15.8460938 4.54453125,16.1335938 C4.78359375,16.4210937 4.92734375,16.75625 4.92734375,17.1875 C4.92734375,17.61875 4.78359375,17.9539063 4.54453125,18.2414063 Z M21.6421875,10.865625 C21.6421875,10.865625 21.6421875,10.865625 21.6421875,10.865625 C21.6421875,10.865625 21.6421875,1.47890625 21.6421875,1.47890625 C21.6421875,1.14375 21.4507812,1 21.115625,1 C21.115625,1 21.115625,1 21.115625,1 C20.7804687,1 20.6367187,1.14375 20.6367187,1.47890625 C20.6367187,1.47890625 20.6367187,1.47890625 20.6367187,1.47890625 C20.6367187,1.47890625 20.6367187,10.865625 20.6367187,10.865625 C20.0617187,11.009375 19.5828125,11.296875 19.2476562,11.7273437 C18.8648437,12.1585937 18.6726562,12.6851563 18.6726562,13.2601562 C18.6726562,13.8351563 18.8640625,14.3617187 19.2476562,14.7929688 C19.5828125,15.2242187 20.0617187,15.5117188 20.6367187,15.6546875 C20.6367187,15.6546875 20.6367187,15.6546875 20.6367187,15.6546875 C20.6367187,15.6546875 20.6367187,23.078125 20.6367187,23.078125 C20.6367187,23.4132813 20.7804687,23.5570313 21.115625,23.5570313 C21.115625,23.5570313 21.115625,23.5570313 21.115625,23.5570313 C21.4507812,23.5570313 21.6421875,23.4132813 21.6421875,23.078125 C21.6421875,23.078125 21.6421875,23.078125 21.6421875,23.078125 C21.6421875,23.078125 21.6421875,15.6546875 21.6421875,15.6546875 C22.2171875,15.5109375 22.6960937,15.2234375 23.0789062,14.7929688 C23.4140625,14.3617187 23.6054687,13.8351563 23.6054687,13.2601562 C23.6054687,12.6851563 23.4140625,12.1585937 23.0789062,11.7273438 C22.6960937,11.2960938 22.2171875,11.0085938 21.6421875,10.865625 Z M22.16875,14.3140625 C21.88125,14.6015625 21.5460938,14.7453125 21.1148437,14.7453125 C20.6835938,14.7453125 20.3484375,14.6015625 20.109375,14.3140625 C19.821875,14.0265625 19.678125,13.6914062 19.678125,13.2601562 C19.678125,12.8289063 19.821875,12.49375 20.109375,12.20625 C20.3484375,11.91875 20.684375,11.775 21.1148437,11.775 C21.5453125,11.775 21.88125,11.91875 22.16875,12.20625 C22.45625,12.49375 22.6,12.8289063 22.6,13.2601562 C22.6,13.6914062 22.45625,14.0265625 22.16875,14.3140625 Z M12.8296875,4.975 C12.8296875,4.975 12.7820313,4.975 12.7820313,4.975 C12.7820313,4.975 12.7820313,1.47890625 12.7820313,1.47890625 C12.7820313,1.14375 12.6382812,1 12.303125,1 C11.9679688,1 11.8242188,1.14375 11.8242188,1.47890625 C11.8242188,1.47890625 11.8242188,1.47890625 11.8242188,1.47890625 C11.8242188,1.47890625 11.8242188,4.975 11.8242188,4.975 C11.2492188,5.11875 10.7703125,5.3578125 10.4351563,5.7890625 C10.0523438,6.2203125 9.86015625,6.746875 9.86015625,7.36953125 C9.86015625,7.9921875 10.0515625,8.47109375 10.4351563,8.90234375 C10.7703125,9.33359375 11.2492188,9.62109375 11.7757812,9.7640625 C11.7757812,9.7640625 11.7757812,9.7640625 11.7757812,9.7640625 C11.7757812,9.7640625 11.8234375,23.078125 11.8234375,23.078125 C11.8234375,23.4132813 11.9671875,23.5570313 12.3023438,23.5570313 C12.6375,23.5570313 12.78125,23.4132813 12.78125,23.078125 C12.78125,23.078125 12.78125,23.078125 12.78125,23.078125 C12.78125,23.078125 12.78125,9.7640625 12.78125,9.7640625 C13.35625,9.6203125 13.8351563,9.3328125 14.2179687,8.90234375 C14.553125,8.47109375 14.7445312,7.9921875 14.7445312,7.36953125 C14.7445312,6.746875 14.553125,6.2203125 14.2179687,5.7890625 C13.8351563,5.3578125 13.35625,5.11875 12.8289062,4.975 C12.8289062,4.975 12.8289062,4.975 12.8289062,4.975 L12.8296875,4.975 Z M13.35625,8.4234375 C13.06875,8.7109375 12.7335938,8.8546875 12.3023438,8.8546875 C11.8710938,8.8546875 11.5359375,8.7109375 11.2484375,8.4234375 C10.9609375,8.1359375 10.8171875,7.80078125 10.8171875,7.36953125 C10.8171875,6.93828125 10.9609375,6.603125 11.2484375,6.315625 C11.5359375,6.028125 11.8710938,5.884375 12.3023438,5.884375 C12.7335938,5.884375 13.06875,6.028125 13.35625,6.315625 C13.64375,6.603125 13.7875,6.93828125 13.7875,7.36953125 C13.7875,7.80078125 13.64375,8.1359375 13.35625,8.4234375 Z"/>
  <title>Knobs</title>
</svg>