<svg xmlns="http://www.w3.org/2000/svg" viewBox="0 0 25 25" id="knobs-alt">
  <path d="M9.7640625,3.96875 C9.7640625,3.96875 9.34921875,5.0140625 8.90234375,5.38125 C8.45546875,5.7484375 7.94453125,5.93203125 7.36953125,5.93203125 C6.79453125,5.93203125 6.28359375,5.7484375 5.83671875,5.38125 C5.38984375,5.0140625 5.10234375,4.54296875 4.975,3.96875 C4.975,3.96875 1.47890625,3.96875 1.47890625,3.96875 C1.159375,3.96875 1,3.809375 1,3.48984375 C1,3.13828125 1.159375,2.96328125 1.47890625,2.96328125 C1.47890625,2.96328125 4.975,2.96328125 4.975,2.96328125 C5.10234375,2.38828125 5.38984375,1.91796875 5.83671875,1.55078125 C6.28359375,1.18359375 6.79453125,1 7.36953125,1 C7.94453125,1 8.45546875,1.18359375 8.90234375,1.55078125 C9.34921875,1.91796875 9.63671875,2.3890625 9.7640625,2.96328125 C9.7640625,2.96328125 23.078125,2.96328125 23.078125,2.96328125 C23.3976563,2.96328125 23.5570313,3.1390625 23.5570313,3.48984375 C23.5570313,3.809375 23.3976563,3.96875 23.078125,3.96875 C23.078125,3.96875 9.7640625,3.96875 9.7640625,3.96875 L9.7640625,3.96875 Z M6.315625,4.49609375 C6.315625,4.49609375 6.95390625,4.92734375 7.36953125,4.92734375 C7.78515625,4.92734375 8.1359375,4.79140625 8.4234375,4.5203125 C8.7109375,4.24921875 8.8546875,3.90546875 8.8546875,3.490625 C8.8546875,3.07578125 8.7109375,2.72421875 8.4234375,2.43671875 C8.1359375,2.14921875 7.78515625,2.00546875 7.36953125,2.00546875 C6.95390625,2.00546875 6.603125,2.14921875 6.315625,2.43671875 C6.028125,2.72421875 5.884375,3.075 5.884375,3.490625 C5.884375,3.90625 6.028125,4.240625 6.315625,4.49609375 Z M13.6914063,21.6414062 C13.6914063,21.6414062 13.2765625,22.6867187 12.8296875,23.0539062 C12.3828125,23.4210937 11.871875,23.6046875 11.296875,23.6046875 C10.721875,23.6046875 10.2109375,23.4210937 9.7640625,23.0539062 C9.3171875,22.6867187 9.0296875,22.215625 8.90234375,21.6414062 C8.90234375,21.6414062 1.47890625,21.6414062 1.47890625,21.6414062 C1.159375,21.6414062 1,21.465625 1,21.1148437 C1,20.7953125 1.159375,20.6359375 1.47890625,20.6359375 C1.47890625,20.6359375 8.90234375,20.6359375 8.90234375,20.6359375 C9.03046875,20.0609375 9.3171875,19.590625 9.7640625,19.2234375 C10.2109375,18.85625 10.721875,18.6726562 11.296875,18.6726562 C11.871875,18.6726562 12.3828125,18.85625 12.8296875,19.2234375 C13.2765625,19.590625 13.5640625,20.0617187 13.6914063,20.6359375 C13.6914063,20.6359375 23.078125,20.6359375 23.078125,20.6359375 C23.3976563,20.6359375 23.5570313,20.7953125 23.5570313,21.1148437 C23.5570313,21.4664062 23.3976563,21.6414062 23.078125,21.6414062 C23.078125,21.6414062 13.6914063,21.6414062 13.6914063,21.6414062 Z M10.2429688,22.1679688 C10.5304688,22.4554688 10.88125,22.5992188 11.296875,22.5992188 C11.7125,22.5992188 12.0632813,22.4554688 12.3507813,22.1679688 C12.6382812,21.8804688 12.7820312,21.5296875 12.7820312,21.1140625 C12.7820312,20.6984375 12.6382812,20.3554688 12.3507813,20.084375 C12.0632813,19.8132812 11.7125,19.6773437 11.296875,19.6773437 C10.88125,19.6773437 10.5304688,19.8132812 10.2429688,20.084375 C9.95546875,20.3554688 9.81171875,20.6992188 9.81171875,21.1140625 C9.81171875,21.5289063 9.95546875,21.8804688 10.2429688,22.1679688 Z M19.5820312,12.78125 C19.5820312,12.78125 19.5820312,12.8289062 19.5820312,12.8289062 C19.4546875,13.371875 19.175,13.8265625 18.74375,14.19375 C18.3125,14.5609375 17.79375,14.7445312 17.1875,14.7445312 C16.5804688,14.7445312 16.0617188,14.5609375 15.63125,14.19375 C15.2007812,13.8265625 14.9210938,13.3554687 14.7929688,12.78125 C14.7929688,12.78125 1.47890625,12.78125 1.47890625,12.78125 C1.159375,12.78125 1,12.621875 1,12.3023437 C1,11.9828125 1.159375,11.8234375 1.47890625,11.8234375 C1.47890625,11.8234375 14.7929688,11.7757812 14.7929688,11.7757812 C14.9203125,11.2328125 15.2,10.778125 15.63125,10.4109375 C16.0625,10.04375 16.58125,9.86015625 17.1875,9.86015625 C17.7945313,9.86015625 18.3132812,10.04375 18.74375,10.4109375 C19.1742188,10.778125 19.4539062,11.2492188 19.5820312,11.8234375 C19.5820312,11.8234375 23.078125,11.8234375 23.078125,11.8234375 C23.3976563,11.8234375 23.5570313,11.9828125 23.5570313,12.3023437 C23.5570313,12.621875 23.3976563,12.78125 23.078125,12.78125 C23.078125,12.78125 19.5820312,12.78125 19.5820312,12.78125 Z M16.1335938,13.35625 C16.4210937,13.64375 16.771875,13.7875 17.1875,13.7875 C17.603125,13.7875 17.9539063,13.64375 18.2414063,13.35625 C18.5289062,13.06875 18.6726562,12.7179688 18.6726562,12.3023438 C18.6726562,11.8867188 18.5289062,11.5359375 18.2414063,11.2484375 C17.9539063,10.9609375 17.603125,10.8171875 17.1875,10.8171875 C16.771875,10.8171875 16.4210937,10.9609375 16.1335938,11.2484375 C15.8460938,11.5359375 15.7023438,11.8867188 15.7023438,12.3023438 C15.7023438,12.7179688 15.8460938,13.06875 16.1335938,13.35625 Z"/>
  <title>Knobs Alt</title>
</svg>