<svg xmlns="http://www.w3.org/2000/svg" viewBox="0 0 25 25" id="knobs-alt-solid">
  <path d="M8.90234375,5.35703125 C8.90234375,5.35703125 7.94453125,5.93203125 7.36953125,5.93203125 C6.79453125,5.93203125 6.28359375,5.7484375 5.83671875,5.38125 C5.38984375,5.0140625 5.10234375,4.54296875 4.975,3.96875 C4.975,3.96875 1.47890625,3.96875 1.47890625,3.96875 C1.159375,3.96875 1,3.809375 1,3.48984375 C1,3.13828125 1.159375,2.96328125 1.47890625,2.96328125 C1.47890625,2.96328125 4.975,2.96328125 4.975,2.96328125 C5.10234375,2.38828125 5.38984375,1.91796875 5.83671875,1.55078125 C6.28359375,1.18359375 6.79453125,1 7.36953125,1 C7.94453125,1 8.45546875,1.18359375 8.90234375,1.55078125 C9.34921875,1.91796875 9.63671875,2.3890625 9.7640625,2.96328125 C9.7640625,2.96328125 23.078125,2.96328125 23.078125,2.96328125 C23.3976563,2.96328125 23.5570313,3.1390625 23.5570313,3.48984375 C23.5570313,3.809375 23.3976563,3.96875 23.078125,3.96875 C23.078125,3.96875 9.7640625,3.96875 9.7640625,3.96875 C9.6359375,4.54375 9.34921875,5.00625 8.90234375,5.3578125 L8.90234375,5.35703125 Z M13.6921875,21.640625 C13.6921875,21.640625 13.2773438,22.6859375 12.8304687,23.053125 C12.3835937,23.4203125 11.8726562,23.6039062 11.2976562,23.6039062 C10.7226562,23.6039062 10.2117187,23.4203125 9.76484375,23.053125 C9.31796875,22.6859375 9.03046875,22.2148437 8.903125,21.640625 C8.903125,21.640625 1.4796875,21.640625 1.4796875,21.640625 C1.16015625,21.640625 1.00078125,21.4648437 1.00078125,21.1140625 C1.00078125,20.7945312 1.16015625,20.6351562 1.4796875,20.6351562 C1.4796875,20.6351562 8.903125,20.6351562 8.903125,20.6351562 C9.03125,20.0601562 9.31796875,19.5898437 9.76484375,19.2226562 C10.2117187,18.8554688 10.7226562,18.671875 11.2976562,18.671875 C11.8726562,18.671875 12.3835937,18.8554688 12.8304687,19.2226562 C13.2773437,19.5898437 13.5648437,20.0609375 13.6921875,20.6351562 C13.6921875,20.6351562 23.0789062,20.6351562 23.0789062,20.6351562 C23.3984375,20.6351562 23.5578125,20.7945312 23.5578125,21.1140625 C23.5578125,21.465625 23.3984375,21.640625 23.0789062,21.640625 C23.0789062,21.640625 13.6921875,21.640625 13.6921875,21.640625 Z M19.5828125,12.7804687 C19.5828125,12.7804687 19.5828125,12.828125 19.5828125,12.828125 C19.4554687,13.3710937 19.1757812,13.8257812 18.7445312,14.1929687 C18.3132812,14.5601562 17.7945312,14.74375 17.1882812,14.74375 C16.58125,14.74375 16.0625,14.5601562 15.6320312,14.1929687 C15.2015625,13.8257812 14.921875,13.3546875 14.79375,12.7804687 C14.79375,12.7804687 1.4796875,12.7804687 1.4796875,12.7804687 C1.16015625,12.7804687 1.00078125,12.6210937 1.00078125,12.3015625 C1.00078125,11.9820312 1.16015625,11.8226562 1.4796875,11.8226562 C1.4796875,11.8226562 14.79375,11.775 14.79375,11.775 C14.9210937,11.2320312 15.2007812,10.7773437 15.6320312,10.4101562 C16.0632812,10.0429687 16.5820312,9.859375 17.1882812,9.859375 C17.7953125,9.859375 18.3140625,10.0429687 18.7445312,10.4101562 C19.175,10.7773437 19.4546875,11.2484375 19.5828125,11.8226562 C19.5828125,11.8226562 23.0789062,11.8226562 23.0789062,11.8226562 C23.3984375,11.8226562 23.5578125,11.9820312 23.5578125,12.3015625 C23.5578125,12.6210937 23.3984375,12.7804687 23.0789062,12.7804687 C23.0789062,12.7804687 19.5828125,12.7804687 19.5828125,12.7804687 Z"/>
  <title>Knobs Alt Solid</title>
</svg>