<svg xmlns="http://www.w3.org/2000/svg" viewBox="0 0 25 25" id="knobs-solid">
  <path d="M5.40625,15.6554687 C5.74140625,16.0867187 5.9328125,16.6132812 5.9328125,17.1882812 C5.9328125,17.7632812 5.74140625,18.2898437 5.40625,18.7210937 C5.0234375,19.1523437 4.54453125,19.4398437 3.96953125,19.5828125 C3.96953125,19.5828125 3.96953125,19.5828125 3.96953125,19.5828125 C3.96953125,19.5828125 3.96953125,23.0789062 3.96953125,23.0789062 C3.96953125,23.4140625 3.82578125,23.5578125 3.490625,23.5578125 C3.490625,23.5578125 3.490625,23.5578125 3.490625,23.5578125 C3.15546875,23.5578125 2.9640625,23.4140625 2.9640625,23.0789062 C2.9640625,23.0789062 2.9640625,23.0789062 2.9640625,23.0789062 C2.9640625,23.0789062 2.9640625,19.5828125 2.9640625,19.5828125 C2.3890625,19.4390625 1.91015625,19.1515625 1.575,18.7210937 C1.1921875,18.2898437 1,17.7632812 1,17.1882812 C1,16.6132812 1.19140625,16.0867187 1.575,15.6554687 C1.91015625,15.2242187 2.3890625,14.9367187 2.9640625,14.79375 C2.9640625,14.79375 2.9640625,14.79375 2.9640625,14.79375 C2.9640625,14.79375 2.9640625,1.4796875 2.9640625,1.4796875 C2.9640625,1.14453125 3.15546875,1.00078125 3.490625,1.00078125 C3.490625,1.00078125 3.490625,1.00078125 3.490625,1.00078125 C3.82578125,1.00078125 3.96953125,1.14453125 3.96953125,1.4796875 C3.96953125,1.4796875 3.96953125,1.4796875 3.96953125,1.4796875 C3.96953125,1.4796875 3.96953125,14.79375 3.96953125,14.79375 C4.54453125,14.9375 5.0234375,15.225 5.40625,15.6554687 Z M21.6421875,10.865625 C21.6421875,10.865625 21.6421875,10.865625 21.6421875,10.865625 C21.6421875,10.865625 21.6421875,1.47890625 21.6421875,1.47890625 C21.6421875,1.14375 21.4507812,1 21.115625,1 C21.115625,1 21.115625,1 21.115625,1 C20.7804687,1 20.6367187,1.14375 20.6367187,1.47890625 C20.6367187,1.47890625 20.6367187,1.47890625 20.6367187,1.47890625 C20.6367187,1.47890625 20.6367187,10.865625 20.6367187,10.865625 C20.0617187,11.009375 19.5828125,11.296875 19.2476562,11.7273437 C18.8648437,12.1585937 18.6726562,12.6851563 18.6726562,13.2601562 C18.6726562,13.8351563 18.8640625,14.3617187 19.2476562,14.7929688 C19.5828125,15.2242187 20.0617187,15.5117188 20.6367187,15.6546875 C20.6367187,15.6546875 20.6367187,15.6546875 20.6367187,15.6546875 C20.6367187,15.6546875 20.6367187,23.078125 20.6367187,23.078125 C20.6367187,23.4132813 20.7804687,23.5570313 21.115625,23.5570313 C21.115625,23.5570313 21.115625,23.5570313 21.115625,23.5570313 C21.4507812,23.5570313 21.6421875,23.4132813 21.6421875,23.078125 C21.6421875,23.078125 21.6421875,23.078125 21.6421875,23.078125 C21.6421875,23.078125 21.6421875,15.6546875 21.6421875,15.6546875 C22.2171875,15.5109375 22.6960937,15.2234375 23.0789062,14.7929688 C23.4140625,14.3617187 23.6054687,13.8351563 23.6054687,13.2601562 C23.6054687,12.6851563 23.4140625,12.1585937 23.0789062,11.7273438 C22.6960937,11.2960938 22.2171875,11.0085938 21.6421875,10.865625 Z M12.8296875,4.975 C12.8296875,4.975 12.7820313,4.975 12.7820313,4.975 C12.7820313,4.975 12.7820313,1.47890625 12.7820313,1.47890625 C12.7820313,1.14375 12.6382812,1 12.303125,1 C11.9679688,1 11.8242188,1.14375 11.8242188,1.47890625 C11.8242188,1.47890625 11.8242188,1.47890625 11.8242188,1.47890625 C11.8242188,1.47890625 11.8242188,4.975 11.8242188,4.975 C11.2492188,5.11875 10.7703125,5.3578125 10.4351563,5.7890625 C10.0523438,6.2203125 9.86015625,6.746875 9.86015625,7.36953125 C9.86015625,7.9921875 10.0515625,8.47109375 10.4351563,8.90234375 C10.7703125,9.33359375 11.2492188,9.62109375 11.7757812,9.7640625 C11.7757812,9.7640625 11.7757812,9.7640625 11.7757812,9.7640625 C11.7757812,9.7640625 11.8234375,23.078125 11.8234375,23.078125 C11.8234375,23.4132813 11.9671875,23.5570313 12.3023438,23.5570313 C12.6375,23.5570313 12.78125,23.4132813 12.78125,23.078125 C12.78125,23.078125 12.78125,23.078125 12.78125,23.078125 C12.78125,23.078125 12.78125,9.7640625 12.78125,9.7640625 C13.35625,9.6203125 13.8351563,9.3328125 14.2179687,8.90234375 C14.553125,8.47109375 14.7445312,7.9921875 14.7445312,7.36953125 C14.7445312,6.746875 14.553125,6.2203125 14.2179687,5.7890625 C13.8351563,5.3578125 13.35625,5.11875 12.8289062,4.975 C12.8289062,4.975 12.8289062,4.975 12.8289062,4.975 L12.8296875,4.975 Z"/>
  <title>Knobs Solid</title>
</svg>