<svg xmlns="http://www.w3.org/2000/svg" viewBox="0 0 25 25" id="laptop-solid">
  <path d="M24.5210938,17.7515625 C24.5210938,17.7515625 23.5632813,17.7515625 23.5632813,17.7515625 C23.5632813,17.7515625 23.5632813,4.48515625 23.5632813,4.48515625 C23.5632813,4.05390625 23.4195313,3.71875 23.1320313,3.43125 C22.8445313,3.14375 22.509375,3 22.078125,3 C22.078125,3 22.078125,3 22.078125,3 C22.078125,3 2.4421875,3 2.4421875,3 C2.0109375,3 1.67578125,3.14375 1.43671875,3.43125 C1.14921875,3.71875 1.00546875,4.05390625 0.9578125,4.48515625 C0.9578125,4.48515625 0.9578125,4.48515625 0.9578125,4.48515625 C0.9578125,4.48515625 0.9578125,17.7515625 0.9578125,17.7515625 C0.9578125,17.7515625 0,17.7515625 0,17.7515625 C0,17.7515625 0,18.2304687 0,18.2304687 C0,18.9007812 0.2390625,19.4757812 0.71875,19.9546875 C1.1984375,20.4335937 1.77265625,20.6734375 2.44296875,20.6734375 C2.44296875,20.6734375 2.44296875,20.6734375 2.44296875,20.6734375 C2.44296875,20.6734375 22.0789063,20.6734375 22.0789063,20.6734375 C22.7492188,20.6734375 23.3242188,20.434375 23.803125,19.9546875 C24.2820313,19.475 24.521875,18.9007812 24.521875,18.2304687 C24.521875,18.2304687 24.521875,18.2304687 24.521875,18.2304687 C24.521875,18.2304687 24.521875,17.7515625 24.521875,17.7515625 L24.5210938,17.7515625 Z M22.5578125,4.48515625 C22.5578125,4.48515625 22.5578125,17.7515625 22.5578125,17.7515625 C22.5578125,17.7515625 14.703125,17.7515625 14.703125,17.7515625 C14.703125,17.7515625 14.703125,18.709375 14.703125,18.709375 C14.703125,18.709375 9.81796875,18.709375 9.81796875,18.709375 C9.81796875,18.709375 9.81796875,17.7515625 9.81796875,17.7515625 C9.81796875,17.7515625 1.96328125,17.7515625 1.96328125,17.7515625 C1.96328125,17.7515625 1.96328125,4.48515625 1.96328125,4.48515625 C1.96328125,4.15 2.10703125,4.00625 2.4421875,4.00625 C2.4421875,4.00625 2.4421875,4.00625 2.4421875,4.00625 C2.4421875,4.00625 22.078125,4.00625 22.078125,4.00625 C22.4132812,4.00625 22.5570312,4.15 22.5570312,4.48515625 C22.5570312,4.48515625 22.5570312,4.48515625 22.5570312,4.48515625 L22.5578125,4.48515625 Z"/>
  <title>Laptop Solid</title>
</svg>