<svg xmlns="http://www.w3.org/2000/svg" viewBox="0 0 25 25" id="laptop">
  <path d="M24.5210938,17.7515625 C24.5210938,17.7515625 23.5632813,17.7515625 23.5632813,17.7515625 C23.5632813,17.7515625 23.5632813,4.48515625 23.5632813,4.48515625 C23.5632813,4.05390625 23.4195313,3.71875 23.1320313,3.43125 C22.8445313,3.14375 22.509375,3 22.078125,3 C22.078125,3 22.078125,3 22.078125,3 C22.078125,3 2.4421875,3 2.4421875,3 C2.0109375,3 1.67578125,3.14375 1.43671875,3.43125 C1.14921875,3.71875 1.00546875,4.05390625 0.9578125,4.48515625 C0.9578125,4.48515625 0.9578125,4.48515625 0.9578125,4.48515625 C0.9578125,4.48515625 0.9578125,17.7515625 0.9578125,17.7515625 C0.9578125,17.7515625 0,17.7515625 0,17.7515625 C0,17.7515625 0,19.1882812 0,19.1882812 C0,19.9070312 0.2390625,20.48125 0.71875,20.9125 C1.19765625,21.3914062 1.77265625,21.63125 2.44296875,21.6789063 C2.44296875,21.6789063 2.44296875,21.6789063 2.44296875,21.6789063 C2.44296875,21.6789063 22.0789063,21.6789063 22.0789063,21.6789063 C22.7492188,21.63125 23.3242188,21.3914063 23.803125,20.9125 C24.2820313,20.48125 24.521875,19.9070312 24.521875,19.1882812 C24.521875,19.1882812 24.521875,19.1882812 24.521875,19.1882812 C24.521875,19.1882812 24.521875,17.7515625 24.521875,17.7515625 L24.5210938,17.7515625 Z M1.96328125,17.7515625 C1.96328125,17.7515625 1.96328125,4.48515625 1.96328125,4.48515625 C1.96328125,4.15 2.10703125,4.00625 2.4421875,4.00625 C2.4421875,4.00625 2.4421875,4.00625 2.4421875,4.00625 C2.4421875,4.00625 22.078125,4.00625 22.078125,4.00625 C22.4132812,4.00625 22.5570313,4.15 22.5570313,4.48515625 C22.5570313,4.48515625 22.5570313,4.48515625 22.5570313,4.48515625 C22.5570313,4.48515625 22.5570313,17.7515625 22.5570313,17.7515625 C22.5570313,17.7515625 1.96328125,17.7515625 1.96328125,17.7515625 Z M23.5632812,18.709375 C23.5632812,18.709375 23.5632812,19.1882812 23.5632812,19.1882812 C23.5632812,19.6195313 23.4195312,19.9546875 23.1320313,20.2421875 C22.8445312,20.5296875 22.509375,20.6734375 22.078125,20.6734375 C22.078125,20.6734375 22.078125,20.6734375 22.078125,20.6734375 C22.078125,20.6734375 2.4421875,20.6734375 2.4421875,20.6734375 C2.0109375,20.6734375 1.67578125,20.5296875 1.43671875,20.2421875 C1.14921875,19.9546875 1.00546875,19.6195313 0.9578125,19.1882812 C0.9578125,19.1882812 0.9578125,19.1882812 0.9578125,19.1882812 C0.9578125,19.1882812 0.9578125,18.709375 0.9578125,18.709375 C0.9578125,18.709375 9.81796875,18.709375 9.81796875,18.709375 C9.81796875,18.709375 9.81796875,19.7148438 9.81796875,19.7148438 C9.81796875,19.7148438 14.703125,19.7148438 14.703125,19.7148438 C14.703125,19.7148438 14.703125,18.709375 14.703125,18.709375 C14.703125,18.709375 23.5632812,18.709375 23.5632812,18.709375 Z"/>
  <title>Laptop</title>
</svg>