<svg xmlns="http://www.w3.org/2000/svg" viewBox="0 0 25 25" id="layers">
  <path d="M2.5390625,8.40625 C2.5390625,8.40625 12.2609375,4.91015625 12.2609375,4.91015625 C12.2609375,4.91015625 21.9828125,8.40625 21.9828125,8.40625 C21.9828125,8.40625 12.2609375,11.9023438 12.2609375,11.9023438 C12.2609375,11.9023438 2.5390625,8.40625 2.5390625,8.40625 Z M24.521875,8.40625 C24.521875,8.40625 12.2609375,4 12.2609375,4 C12.2609375,4 0,8.40625 0,8.40625 C0,8.40625 12.2609375,12.8125 12.2609375,12.8125 C12.2609375,12.8125 24.521875,8.40625 24.521875,8.40625 Z M20.4507813,10.8484375 C20.4507813,10.8484375 19.1578125,11.3273437 19.1578125,11.3273437 C19.1578125,11.3273437 21.9835938,12.3328125 21.9835938,12.3328125 C21.9835938,12.3328125 12.2617188,15.8289062 12.2617188,15.8289062 C12.2617188,15.8289062 2.53984375,12.3328125 2.53984375,12.3328125 C2.53984375,12.3328125 5.365625,11.3273437 5.365625,11.3273437 C5.365625,11.3273437 4.07265625,10.8484375 4.07265625,10.8484375 C4.07265625,10.8484375 0.0015625,12.3328125 0.0015625,12.3328125 C0.0015625,12.3328125 12.2625,16.7390625 12.2625,16.7390625 C12.2625,16.7390625 24.5234375,12.3328125 24.5234375,12.3328125 C24.5234375,12.3328125 20.4523438,10.8484375 20.4523438,10.8484375 L20.4507813,10.8484375 Z M20.4507813,14.7757812 C20.4507813,14.7757812 19.1578125,15.2546875 19.1578125,15.2546875 C19.1578125,15.2546875 21.9835938,16.2601562 21.9835938,16.2601562 C21.9835938,16.2601562 12.2617188,19.75625 12.2617188,19.75625 C12.2617188,19.75625 2.53984375,16.2601562 2.53984375,16.2601562 C2.53984375,16.2601562 5.365625,15.2546875 5.365625,15.2546875 C5.365625,15.2546875 4.07265625,14.7757812 4.07265625,14.7757812 C4.07265625,14.7757812 0.0015625,16.2601562 0.0015625,16.2601562 C0.0015625,16.2601562 12.2625,20.6664062 12.2625,20.6664062 C12.2625,20.6664062 24.5234375,16.2601562 24.5234375,16.2601562 C24.5234375,16.2601562 20.4523438,14.7757812 20.4523438,14.7757812 L20.4507813,14.7757812 Z"/>
  <title>Layers</title>
</svg>