<svg xmlns="http://www.w3.org/2000/svg" viewBox="0 0 25 25" id="layers-solid">
  <path d="M12.2609375,12.8125 C12.2609375,12.8125 0,8.40625 0,8.40625 C0,8.40625 12.2609375,4 12.2609375,4 C12.2609375,4 24.521875,8.40625 24.521875,8.40625 C24.521875,8.40625 12.2609375,12.8125 12.2609375,12.8125 Z M12.2609375,17.6976563 C12.2609375,17.6976563 4.11953125,14.7765625 4.11953125,14.7765625 C4.11953125,14.7765625 0.00078125,16.2609375 0.00078125,16.2609375 C0.00078125,16.2609375 12.2617188,20.6671875 12.2617188,20.6671875 C12.2617188,20.6671875 24.5226563,16.2609375 24.5226563,16.2609375 C24.5226563,16.2609375 20.4039063,14.7765625 20.4039063,14.7765625 C20.4039063,14.7765625 12.2625,17.6976563 12.2625,17.6976563 L12.2609375,17.6976563 Z M12.2609375,13.7703125 C12.2609375,13.7703125 4.11953125,10.8492187 4.11953125,10.8492187 C4.11953125,10.8492187 0.00078125,12.3335938 0.00078125,12.3335938 C0.00078125,12.3335938 12.2617188,16.7398438 12.2617188,16.7398438 C12.2617188,16.7398438 24.5226563,12.3335938 24.5226563,12.3335938 C24.5226563,12.3335938 20.4039063,10.8492187 20.4039063,10.8492187 C20.4039063,10.8492187 12.2625,13.7703125 12.2625,13.7703125 L12.2609375,13.7703125 Z"/>
  <title>Layers Solid</title>
</svg>