<svg xmlns="http://www.w3.org/2000/svg" viewBox="0 0 25 25" id="layout-solid">
  <path d="M22.115625,2 C22.115625,2 22.115625,2 22.115625,2 C22.115625,2 3.48515625,2 3.48515625,2 C3.05390625,2 2.71875,2.14375 2.43125,2.43125 C2.14375,2.71875 2,3.05390625 2,3.48515625 C2,3.48515625 2,3.48515625 2,3.48515625 C2,3.48515625 2,21.109375 2,21.109375 C2,21.540625 2.14375,21.8757812 2.43125,22.1632813 C2.71875,22.4507812 3.05390625,22.5945312 3.48515625,22.5945312 C3.48515625,22.5945312 3.48515625,22.5945312 3.48515625,22.5945312 C3.48515625,22.5945312 22.115625,22.5945312 22.115625,22.5945312 C22.546875,22.5945312 22.8820313,22.4507812 23.1695313,22.1632813 C23.4570312,21.8757812 23.6007813,21.540625 23.6007813,21.109375 C23.6007813,21.109375 23.6007813,21.109375 23.6007813,21.109375 C23.6007813,21.109375 23.6007813,3.48515625 23.6007813,3.48515625 C23.6007813,3.05390625 23.4570312,2.71875 23.1695313,2.43125 C22.8820313,2.14375 22.546875,2 22.115625,2 Z M11.8179688,11.81875 C11.8179688,11.81875 11.8179688,18.6671875 11.8179688,18.6671875 C11.8179688,18.90625 11.721875,19.1460938 11.5304688,19.3375 C11.3390625,19.5765625 11.0992188,19.6726563 10.8117188,19.6726563 C10.8117188,19.6726563 10.8117188,19.6726563 10.8117188,19.6726563 C10.8117188,19.6726563 7.890625,19.6726563 7.890625,19.6726563 C7.6515625,19.6726563 7.41171875,19.5765625 7.2203125,19.3375 C6.98125,19.1460938 6.88515625,18.90625 6.88515625,18.6671875 C6.88515625,18.6671875 6.88515625,18.6671875 6.88515625,18.6671875 C6.88515625,18.6671875 6.88515625,11.81875 6.88515625,11.81875 C6.88515625,11.53125 6.98125,11.2921875 7.2203125,11.1 C7.41171875,10.9085938 7.6515625,10.8125 7.890625,10.8125 C7.890625,10.8125 7.890625,10.8125 7.890625,10.8125 C7.890625,10.8125 10.8117188,10.8125 10.8117188,10.8125 C11.0992188,10.8125 11.3382813,10.9085937 11.5304688,11.1 C11.7226563,11.2914063 11.8179688,11.53125 11.8179688,11.81875 C11.8179688,11.81875 11.8179688,11.81875 11.8179688,11.81875 Z M18.6671875,11.81875 C18.6671875,11.81875 18.6671875,16.7039062 18.6671875,16.7039062 C18.6671875,16.9429688 18.5710937,17.1828125 18.3796875,17.3742188 C18.1882813,17.6132812 17.9484375,17.709375 17.709375,17.709375 C17.709375,17.709375 17.709375,17.709375 17.709375,17.709375 C17.709375,17.709375 14.7398437,17.709375 14.7398437,17.709375 C14.5007812,17.709375 14.2609375,17.6132812 14.0695312,17.3742188 C13.878125,17.1828125 13.7820312,16.9429688 13.7820312,16.7039062 C13.7820312,16.7039062 13.7820312,16.7039062 13.7820312,16.7039062 C13.7820312,16.7039062 13.7820312,11.81875 13.7820312,11.81875 C13.7820312,11.53125 13.878125,11.2921875 14.0695312,11.1 C14.2609375,10.9078125 14.5007812,10.8125 14.7398437,10.8125 C14.7398437,10.8125 14.7398437,10.8125 14.7398437,10.8125 C14.7398437,10.8125 17.709375,10.8125 17.709375,10.8125 C17.9484375,10.8125 18.1882813,10.9085937 18.3796875,11.1 C18.5710938,11.2914063 18.6671875,11.53125 18.6671875,11.81875 C18.6671875,11.81875 18.6671875,11.81875 18.6671875,11.81875 Z M19.6726563,5.92734375 C19.6726563,5.92734375 19.6726563,7.890625 19.6726563,7.890625 C19.6726563,8.1296875 19.5765625,8.36953125 19.3851563,8.5609375 C19.1460938,8.75234375 18.90625,8.8484375 18.6664063,8.8484375 C18.6664063,8.8484375 18.6664063,8.8484375 18.6664063,8.8484375 C18.6664063,8.8484375 6.88515625,8.8484375 6.88515625,8.8484375 C6.64609375,8.8484375 6.40625,8.75234375 6.21484375,8.5609375 C6.0234375,8.36953125 5.92734375,8.1296875 5.92734375,7.890625 C5.92734375,7.890625 5.92734375,7.890625 5.92734375,7.890625 C5.92734375,7.890625 5.92734375,5.92734375 5.92734375,5.92734375 C5.92734375,5.68828125 6.0234375,5.4484375 6.21484375,5.20859375 C6.40625,5.0171875 6.64609375,4.92109375 6.88515625,4.92109375 C6.88515625,4.92109375 6.88515625,4.92109375 6.88515625,4.92109375 C6.88515625,4.92109375 18.6664063,4.92109375 18.6664063,4.92109375 C18.9054688,4.92109375 19.1453125,5.0171875 19.3851563,5.20859375 C19.5765625,5.44765625 19.6726563,5.6875 19.6726563,5.92734375 C19.6726563,5.92734375 19.6726563,5.92734375 19.6726563,5.92734375 Z"/>
  <title>Layout Solid</title>
</svg>