<svg xmlns="http://www.w3.org/2000/svg" viewBox="0 0 25 25" id="layout">
  <path d="M22.115625,2 C22.115625,2 22.115625,2 22.115625,2 C22.115625,2 3.48515625,2 3.48515625,2 C3.05390625,2 2.71875,2.14375 2.43125,2.43125 C2.14375,2.71875 2,3.05390625 2,3.48515625 C2,3.48515625 2,3.48515625 2,3.48515625 C2,3.48515625 2,21.109375 2,21.109375 C2,21.540625 2.14375,21.8757812 2.43125,22.1632813 C2.71875,22.4507812 3.05390625,22.5945312 3.48515625,22.5945312 C3.48515625,22.5945312 3.48515625,22.5945312 3.48515625,22.5945312 C3.48515625,22.5945312 22.115625,22.5945312 22.115625,22.5945312 C22.546875,22.5945312 22.8820313,22.4507812 23.1695313,22.1632813 C23.4570312,21.8757812 23.6007813,21.540625 23.6007813,21.109375 C23.6007813,21.109375 23.6007813,21.109375 23.6007813,21.109375 C23.6007813,21.109375 23.6007813,3.48515625 23.6007813,3.48515625 C23.6007813,3.05390625 23.4570312,2.71875 23.1695313,2.43125 C22.8820313,2.14375 22.546875,2 22.115625,2 Z M22.6429688,3.48515625 C22.6429688,3.48515625 22.6429688,21.109375 22.6429688,21.109375 C22.6429688,21.4445312 22.4515625,21.6359375 22.1164062,21.6359375 C22.1164062,21.6359375 22.1164062,21.6359375 22.1164062,21.6359375 C22.1164062,21.6359375 3.4859375,21.6359375 3.4859375,21.6359375 C3.15078125,21.6359375 3.00703125,21.4445312 3.00703125,21.109375 C3.00703125,21.109375 3.00703125,21.109375 3.00703125,21.109375 C3.00703125,21.109375 3.00703125,3.48515625 3.00703125,3.48515625 C3.00703125,3.15 3.15078125,2.95859375 3.4859375,2.95859375 C3.4859375,2.95859375 3.4859375,2.95859375 3.4859375,2.95859375 C3.4859375,2.95859375 22.1164062,2.95859375 22.1164062,2.95859375 C22.4515625,2.95859375 22.6429688,3.15 22.6429688,3.48515625 C22.6429688,3.48515625 22.6429688,3.48515625 22.6429688,3.48515625 Z M5.928125,4.921875 C5.928125,4.921875 5.928125,8.84921875 5.928125,8.84921875 C5.928125,8.84921875 19.6734375,8.84921875 19.6734375,8.84921875 C19.6734375,8.84921875 19.6734375,4.921875 19.6734375,4.921875 C19.6734375,4.921875 5.928125,4.921875 5.928125,4.921875 Z M6.93359375,7.89140625 C6.93359375,7.89140625 6.93359375,5.928125 6.93359375,5.928125 C6.93359375,5.928125 18.7148438,5.928125 18.7148438,5.928125 C18.7148438,5.928125 18.7148438,7.89140625 18.7148438,7.89140625 C18.7148438,7.89140625 6.93359375,7.89140625 6.93359375,7.89140625 Z M6.93359375,10.8125 C6.93359375,10.8125 6.93359375,19.6726563 6.93359375,19.6726563 C6.93359375,19.6726563 11.81875,19.6726563 11.81875,19.6726563 C11.81875,19.6726563 11.81875,10.8125 11.81875,10.8125 C11.81875,10.8125 6.93359375,10.8125 6.93359375,10.8125 Z M7.89140625,18.6671875 C7.89140625,18.6671875 7.89140625,11.81875 7.89140625,11.81875 C7.89140625,11.81875 10.8609375,11.81875 10.8609375,11.81875 C10.8609375,11.81875 10.8609375,18.6671875 10.8609375,18.6671875 C10.8609375,18.6671875 7.89140625,18.6671875 7.89140625,18.6671875 Z M13.7828125,10.8125 C13.7828125,10.8125 13.7828125,17.709375 13.7828125,17.709375 C13.7828125,17.709375 18.715625,17.709375 18.715625,17.709375 C18.715625,17.709375 18.715625,10.8125 18.715625,10.8125 C18.715625,10.8125 13.7828125,10.8125 13.7828125,10.8125 Z M14.7882813,16.703125 C14.7882813,16.703125 14.7882813,11.8179688 14.7882813,11.8179688 C14.7882813,11.8179688 17.709375,11.8179688 17.709375,11.8179688 C17.709375,11.8179688 17.709375,16.703125 17.709375,16.703125 C17.709375,16.703125 14.7882813,16.703125 14.7882813,16.703125 Z"/>
  <title>Layout</title>
</svg>