<svg xmlns="http://www.w3.org/2000/svg" viewBox="0 0 25 25" id="leaf">
  <path d="M24.4257812,2.23984375 C24.4257812,2.23984375 24.4257812,2.23984375 24.4257812,2.23984375 C24.3296875,2.09609375 24.1867188,2 23.9945312,2 C23.9945312,2 23.9945312,2 23.9945312,2 C16.475,2.04765625 10.6328125,3.81953125 6.465625,7.31640625 C2.25078125,10.8125 0.09609375,16.0328125 0,23.0734375 C0,23.0734375 0,23.0734375 0,23.0734375 C0,23.4085937 0.19140625,23.5523437 0.5265625,23.5523437 C0.5265625,23.5523437 0.5265625,23.5523437 0.5265625,23.5523437 C8.04609375,23.5046875 13.8882813,21.7328125 18.103125,18.2359375 C22.2695312,14.7875 24.425,9.5671875 24.5210937,2.52734375 C24.5210937,2.52734375 24.5210937,2.52734375 24.5210937,2.52734375 C24.5210937,2.4796875 24.4734375,2.38359375 24.425,2.23984375 L24.4257812,2.23984375 Z M22.03125,3.05390625 C22.03125,3.05390625 22.0789063,3.05390625 22.0789063,3.05390625 C17.8164063,5.40078125 13.9851563,7.98671875 10.584375,10.8601563 C10.584375,10.8601563 10.584375,10.8601563 10.584375,10.8601563 C10.584375,10.8601563 9.7703125,6.2625 9.7703125,6.2625 C13.6015625,4.203125 17.6726563,3.14921875 22.03125,3.05390625 C22.03125,3.05390625 22.03125,3.05390625 22.03125,3.05390625 L22.03125,3.05390625 Z M8.90859375,6.78984375 C8.90859375,6.78984375 8.90859375,6.78984375 8.90859375,6.78984375 C8.90859375,6.78984375 9.81875,11.4835938 9.81875,11.4835938 C6.41875,14.2617188 3.54453125,17.3742187 1.1984375,20.8703125 C1.1984375,20.8703125 1.1984375,20.8703125 1.1984375,20.8703125 C1.6296875,14.5007813 4.215625,9.80703125 8.909375,6.78984375 L8.90859375,6.78984375 Z M1.3421875,22.5945313 C1.3421875,22.5945313 1.3421875,22.5945313 1.3421875,22.5945313 C2.25234375,20.775 3.49765625,19.0507812 5.0296875,17.421875 C5.0296875,17.421875 5.0296875,17.421875 5.0296875,17.421875 C5.0296875,17.421875 15.0875,19.1460937 15.0875,19.1460937 C11.54375,21.3015625 6.94609375,22.4507812 1.3421875,22.5945313 L1.3421875,22.5945313 Z M16.3320312,18.2835938 C16.3320312,18.2835938 16.284375,18.33125 16.284375,18.33125 C16.284375,18.33125 5.79609375,16.559375 5.79609375,16.559375 C8.38203125,13.925 11.0164062,11.5789063 13.7460938,9.5671875 C13.7460938,9.5671875 13.7460938,9.5671875 13.7460938,9.5671875 C13.7460938,9.5671875 21.8398438,11.4351563 21.8398438,11.4351563 C20.546875,14.3085938 18.7265625,16.6078125 16.3320312,18.2835938 C16.3320312,18.2835938 16.3320312,18.2835938 16.3320312,18.2835938 Z M22.1273438,10.66875 C22.1273438,10.66875 22.175,10.4773438 22.175,10.4773438 C22.175,10.4773438 14.9429688,8.6578125 14.9429688,8.6578125 C17.625,6.64609375 20.3546875,4.921875 23.1804688,3.53359375 C23.1804688,3.53359375 23.1804688,3.53359375 23.1804688,3.53359375 C23.4195313,5.6890625 23.0367187,8.08359375 22.1265625,10.6695313 C22.1265625,10.6695313 22.1265625,10.6695313 22.1265625,10.6695313 L22.1273438,10.66875 Z"/>
  <title>Leaf</title>
</svg>