<svg xmlns="http://www.w3.org/2000/svg" viewBox="0 0 25 25" id="leaf-solid">
  <path d="M10.7289063,10.7640625 C10.7289063,10.7640625 10.7289063,10.7640625 10.7289063,10.7640625 C10.7289063,10.7640625 9.5796875,5.20859375 9.5796875,5.20859375 C13.459375,3.14921875 18.2484375,2.04765625 24.0429688,2 C24.0429688,2 24.0429688,2 24.0429688,2 C24.1390625,2 24.234375,2 24.2820313,2.04765625 C24.2820313,2.04765625 24.2820313,2.04765625 24.2820313,2.04765625 C22.6054688,2.71796875 20.4984375,3.81953125 18.05625,5.4 C15.565625,6.98046875 13.1234375,8.80078125 10.7289063,10.7640625 Z M14.8476562,8.75234375 C14.8476562,8.75234375 14.94375,8.65625 14.94375,8.65625 C14.94375,8.65625 23.18125,10.7632813 23.18125,10.7632813 C24.0429687,8.32109375 24.4742187,5.734375 24.521875,3.0046875 C24.521875,3.0046875 24.521875,3.0046875 24.521875,3.0046875 C20.8820312,4.6328125 17.6734375,6.5484375 14.8476562,8.7515625 C14.8476562,8.7515625 14.8476562,8.7515625 14.8476562,8.7515625 L14.8476562,8.75234375 Z M9.86640625,11.4820312 C9.86640625,11.4820312 9.86640625,11.4820312 9.86640625,11.4820312 C9.86640625,11.4820312 8.66875,5.73515625 8.66875,5.73515625 C3.0171875,9.23125 0.14375,14.978125 0,23.0726562 C0,23.0726562 0,23.0726562 0,23.0726562 C0,23.0726562 0,23.16875 0,23.16875 C1.29296875,19.8164062 4.59765625,15.9367187 9.865625,11.4828125 L9.86640625,11.4820312 Z M5.79609375,16.5585938 C5.79609375,16.5585938 5.79609375,16.60625 5.79609375,16.60625 C5.79609375,16.60625 17.6734375,18.5695312 17.6734375,18.5695312 C20.0203125,16.7015625 21.6960937,14.403125 22.7976562,11.76875 C22.7976562,11.76875 22.7976562,11.76875 22.7976562,11.76875 C22.7976562,11.76875 13.9375,9.421875 13.9375,9.421875 C11.1117188,11.5289062 8.38203125,13.9234375 5.79609375,16.5578125 C5.79609375,16.5578125 5.79609375,16.5578125 5.79609375,16.5578125 L5.79609375,16.5585938 Z M0.95859375,23.4554687 C0.95859375,23.4554687 0.9109375,23.5515625 0.9109375,23.5515625 C7.471875,23.4554687 12.6921875,22.0671875 16.571875,19.3851562 C16.571875,19.3851562 16.571875,19.3851562 16.571875,19.3851562 C16.571875,19.3851562 4.98203125,17.4695312 4.98203125,17.4695312 C3.21015625,19.2414062 1.86875,21.253125 0.959375,23.45625 C0.959375,23.45625 0.959375,23.45625 0.959375,23.45625 L0.95859375,23.4554687 Z"/>
  <title>Leaf Solid</title>
</svg>