<svg xmlns="http://www.w3.org/2000/svg" viewBox="0 0 25 25" id="legal">
  <path d="M22.3664063,13.8421875 C21.74375,14.4171875 20.9773438,14.7039063 20.115625,14.7039063 C19.2539062,14.7039063 18.4875,14.4164063 17.8648437,13.8421875 C17.2421875,13.315625 16.859375,12.596875 16.715625,11.7828125 C16.715625,11.7828125 16.715625,11.7828125 16.715625,11.7828125 C16.715625,11.7828125 23.5164063,11.7828125 23.5164063,11.7828125 C23.3726563,12.596875 22.9898438,13.315625 22.3671875,13.8421875 L22.3664063,13.8421875 Z M13.3148437,3.496875 C13.0273438,3.784375 12.6921875,3.928125 12.2609375,3.928125 C11.8296875,3.928125 11.4945313,3.784375 11.2070312,3.496875 C10.9195313,3.209375 10.7757812,2.87421875 10.7757812,2.44296875 C10.7757812,2.01171875 10.9195313,1.6765625 11.2070312,1.3890625 C11.4945313,1.1015625 11.8296875,0.9578125 12.2609375,0.9578125 C12.6921875,0.9578125 13.0273438,1.1015625 13.3148437,1.3890625 C13.6023437,1.6765625 13.7460938,2.01171875 13.7460938,2.44296875 C13.7460938,2.87421875 13.6023437,3.209375 13.3148437,3.496875 Z M6.6578125,13.8421875 C6.03515625,14.4171875 5.26875,14.7039063 4.40703125,14.7039063 C3.5453125,14.7039063 2.77890625,14.4164063 2.15625,13.8421875 C1.53359375,13.315625 1.15078125,12.596875 1.00703125,11.7828125 C1.00703125,11.7828125 1.00703125,11.7828125 1.00703125,11.7828125 C1.00703125,11.7828125 7.8078125,11.7828125 7.8078125,11.7828125 C7.6640625,12.596875 7.28125,13.315625 6.65859375,13.8421875 L6.6578125,13.8421875 Z M1.24609375,10.7765625 C1.24609375,10.7765625 4.40703125,3.640625 4.40703125,3.640625 C4.40703125,3.640625 7.56796875,10.7765625 7.56796875,10.7765625 C7.56796875,10.7765625 1.24609375,10.7765625 1.24609375,10.7765625 Z M20.115625,3.640625 C20.115625,3.640625 23.2765625,10.7765625 23.2765625,10.7765625 C23.2765625,10.7765625 16.9546875,10.7765625 16.9546875,10.7765625 C16.9546875,10.7765625 20.115625,3.640625 20.115625,3.640625 Z M24.521875,11.2554687 C24.521875,11.2554687 24.521875,11.159375 24.521875,11.159375 C24.4742188,11.159375 24.4742188,11.1117187 24.4742188,11.0632812 C24.4742188,11.0632812 24.4742188,11.0632812 24.4742188,11.0632812 C24.4742188,11.0632812 20.546875,2.25078125 20.546875,2.25078125 C20.4507812,2.059375 20.3078125,1.96328125 20.115625,1.96328125 C20.115625,1.96328125 20.115625,1.96328125 20.115625,1.96328125 C20.115625,1.96328125 14.6554687,1.96328125 14.6554687,1.96328125 C14.5117188,1.38828125 14.2242188,0.909375 13.79375,0.5265625 C13.3625,0.19140625 12.8359375,0 12.2609375,0 C11.6859375,0 11.159375,0.19140625 10.728125,0.5265625 C10.296875,0.909375 10.009375,1.38828125 9.86640625,1.96328125 C9.86640625,1.96328125 9.86640625,1.96328125 9.86640625,1.96328125 C9.86640625,1.96328125 4.40625,1.96328125 4.40625,1.96328125 C4.21484375,1.96328125 4.07109375,2.059375 3.975,2.25078125 C3.975,2.25078125 3.975,2.25078125 3.975,2.25078125 C3.975,2.25078125 0.04765625,11.0632812 0.04765625,11.0632812 C0.04765625,11.1109375 0.04765625,11.159375 0,11.159375 C0,11.159375 0,11.159375 0,11.159375 C0,11.159375 0,11.2554687 0,11.2554687 C0,11.2554687 0,11.303125 0,11.303125 C0,12.5007812 0.43125,13.5539062 1.29296875,14.4164062 C2.1546875,15.2789063 3.20859375,15.709375 4.40625,15.709375 C5.60390625,15.709375 6.65703125,15.278125 7.51953125,14.4164062 C8.38203125,13.5546875 8.8125,12.5007812 8.8125,11.303125 C8.8125,11.303125 8.8125,11.303125 8.8125,11.303125 C8.8125,11.303125 8.8125,11.2554687 8.8125,11.2554687 C8.8125,11.2554687 8.8125,11.159375 8.8125,11.159375 C8.8125,11.1117187 8.8125,11.1117187 8.76484375,11.0632813 C8.76484375,11.0632813 8.76484375,11.0632813 8.76484375,11.0632813 C8.76484375,11.0632813 5.17265625,2.921875 5.17265625,2.921875 C5.17265625,2.921875 9.86640625,2.921875 9.86640625,2.921875 C10.1054687,3.97578125 10.728125,4.5984375 11.7820312,4.8375 C11.7820312,4.8375 11.7820312,4.8375 11.7820312,4.8375 C11.7820312,4.8375 11.7820312,23.5632812 11.7820312,23.5632812 C11.7820312,23.5632812 5.89140625,23.5632812 5.89140625,23.5632812 C5.55625,23.5632812 5.4125,23.7070312 5.4125,24.0421875 C5.4125,24.3773437 5.55625,24.5210937 5.89140625,24.5210937 C5.89140625,24.5210937 5.89140625,24.5210937 5.89140625,24.5210937 C5.89140625,24.5210937 18.6304688,24.5210937 18.6304688,24.5210937 C18.965625,24.5210937 19.109375,24.3773437 19.109375,24.0421875 C19.109375,23.7070312 18.965625,23.5632812 18.6304688,23.5632812 C18.6304688,23.5632812 18.6304688,23.5632812 18.6304688,23.5632812 C18.6304688,23.5632812 12.7398438,23.5632812 12.7398438,23.5632812 C12.7398438,23.5632812 12.7398438,4.8375 12.7398438,4.8375 C13.79375,4.5984375 14.4164063,3.97578125 14.6554688,2.921875 C14.6554688,2.921875 14.6554688,2.921875 14.6554688,2.921875 C14.6554688,2.921875 19.3492188,2.921875 19.3492188,2.921875 C19.3492188,2.921875 15.7570313,11.0632812 15.7570313,11.0632812 C15.7570313,11.0632812 15.709375,11.159375 15.709375,11.159375 C15.709375,11.159375 15.709375,11.2554687 15.709375,11.2554687 C15.709375,11.2554687 15.709375,11.303125 15.709375,11.303125 C15.709375,12.5007812 16.140625,13.5539062 17.0023438,14.4164062 C17.8640625,15.2789063 18.9179688,15.709375 20.115625,15.709375 C21.3132813,15.709375 22.3664063,15.278125 23.2289063,14.4164062 C24.0914063,13.5546875 24.521875,12.5007812 24.521875,11.303125 C24.521875,11.303125 24.521875,11.303125 24.521875,11.303125 C24.521875,11.303125 24.521875,11.2554687 24.521875,11.2554687 Z"/>
  <title>Legal</title>
</svg>