<svg xmlns="http://www.w3.org/2000/svg" viewBox="0 0 25 25" id="letter">
  <path d="M23.0367187,2 C23.0367187,2 23.0367187,2 23.0367187,2 C23.0367187,2 1.48515625,2 1.48515625,2 C1.05390625,2 0.71875,2.14375 0.43125,2.43125 C0.14375,2.71875 0,3.05390625 0,3.48515625 C0,3.48515625 0,3.48515625 0,3.48515625 C0,3.48515625 0,20.1515625 0,20.1515625 C0,20.5828125 0.14375,20.9179688 0.43125,21.2054688 C0.71875,21.4929687 1.05390625,21.6367188 1.48515625,21.6367188 C1.48515625,21.6367188 1.48515625,21.6367188 1.48515625,21.6367188 C1.48515625,21.6367188 23.0367187,21.6367188 23.0367187,21.6367188 C23.4679687,21.6367188 23.803125,21.4929687 24.090625,21.2054688 C24.378125,20.9179688 24.521875,20.5828125 24.521875,20.1515625 C24.521875,20.1515625 24.521875,20.1515625 24.521875,20.1515625 C24.521875,20.1515625 24.521875,3.48515625 24.521875,3.48515625 C24.521875,3.05390625 24.378125,2.71875 24.090625,2.43125 C23.803125,2.14375 23.4679687,2 23.0367187,2 Z M23.5632813,3.48515625 C23.5632813,3.48515625 23.5632813,20.1515625 23.5632813,20.1515625 C23.5632813,20.4867188 23.371875,20.6304687 23.0367188,20.6304687 C23.0367188,20.6304687 23.0367188,20.6304687 23.0367188,20.6304687 C23.0367188,20.6304687 1.48515625,20.6304687 1.48515625,20.6304687 C1.15,20.6304687 0.95859375,20.4867188 0.95859375,20.1515625 C0.95859375,20.1515625 0.95859375,20.1515625 0.95859375,20.1515625 C0.95859375,20.1515625 0.95859375,3.48515625 0.95859375,3.48515625 C0.95859375,3.15 1.15,2.95859375 1.48515625,2.95859375 C1.48515625,2.95859375 1.48515625,2.95859375 1.48515625,2.95859375 C1.48515625,2.95859375 23.0367188,2.95859375 23.0367188,2.95859375 C23.371875,2.95859375 23.5632813,3.15 23.5632813,3.48515625 C23.5632813,3.48515625 23.5632813,3.48515625 23.5632813,3.48515625 Z M20.59375,4.921875 C20.59375,4.921875 20.59375,4.921875 20.59375,4.921875 C20.59375,4.921875 16.6664062,4.921875 16.6664062,4.921875 C16.4273437,4.921875 16.1875,5.01796875 15.9960937,5.209375 C15.8046875,5.4484375 15.7085937,5.68828125 15.7085937,5.928125 C15.7085937,5.928125 15.7085937,5.928125 15.7085937,5.928125 C15.7085937,5.928125 15.7085937,9.85546875 15.7085937,9.85546875 C15.7085937,10.0945313 15.8046875,10.334375 15.9960937,10.5257813 C16.1875,10.7171875 16.4273437,10.8132813 16.6664062,10.8132813 C16.6664062,10.8132813 16.6664062,10.8132813 16.6664062,10.8132813 C16.6664062,10.8132813 20.59375,10.8132813 20.59375,10.8132813 C20.8328125,10.8132813 21.0726562,10.7171875 21.3125,10.5257813 C21.5039062,10.334375 21.6,10.0945313 21.6,9.85546875 C21.6,9.85546875 21.6,9.85546875 21.6,9.85546875 C21.6,9.85546875 21.6,5.928125 21.6,5.928125 C21.6,5.6890625 21.5039062,5.44921875 21.3125,5.209375 C21.0734375,5.01796875 20.8335938,4.921875 20.59375,4.921875 Z M20.59375,5.92734375 C20.59375,5.92734375 20.59375,9.8546875 20.59375,9.8546875 C20.59375,9.8546875 16.6664062,9.8546875 16.6664062,9.8546875 C16.6664062,9.8546875 16.6664062,5.92734375 16.6664062,5.92734375 C16.6664062,5.92734375 20.59375,5.92734375 20.59375,5.92734375 L20.59375,5.92734375 Z M4.40625,14.7398437 C4.07109375,14.7398437 3.92734375,14.5960937 3.92734375,14.2609375 C3.92734375,13.9257812 4.07109375,13.7820312 4.40625,13.7820312 C4.40625,13.7820312 4.40625,13.7820312 4.40625,13.7820312 C4.40625,13.7820312 11.303125,13.7820312 11.303125,13.7820312 C11.6382812,13.7820312 11.7820312,13.9257812 11.7820312,14.2609375 C11.7820312,14.5960937 11.6382812,14.7398437 11.303125,14.7398437 C11.303125,14.7398437 11.303125,14.7398437 11.303125,14.7398437 C11.303125,14.7398437 4.40625,14.7398437 4.40625,14.7398437 Z M14.703125,17.1820313 C14.703125,17.1820313 14.703125,17.1820313 14.703125,17.1820313 C14.703125,17.5171875 14.559375,17.7085937 14.2242187,17.7085937 C14.2242187,17.7085937 14.2242187,17.7085937 14.2242187,17.7085937 C14.2242187,17.7085937 4.40625,17.7085937 4.40625,17.7085937 C4.07109375,17.7085937 3.92734375,17.5171875 3.92734375,17.1820313 C3.92734375,17.1820313 3.92734375,17.1820313 3.92734375,17.1820313 C3.92734375,16.846875 4.07109375,16.703125 4.40625,16.703125 C4.40625,16.703125 4.40625,16.703125 4.40625,16.703125 C4.40625,16.703125 14.2242187,16.703125 14.2242187,16.703125 C14.559375,16.703125 14.703125,16.846875 14.703125,17.1820313 Z"/>
  <title>Letter</title>
</svg>