<svg xmlns="http://www.w3.org/2000/svg" viewBox="0 0 25 25" id="letter-solid">
  <path d="M23.0367187,2 C23.0367187,2 23.0367187,2 23.0367187,2 C23.0367187,2 1.48515625,2 1.48515625,2 C1.05390625,2 0.71875,2.14375 0.43125,2.43125 C0.14375,2.71875 0,3.05390625 0,3.48515625 C0,3.48515625 0,3.48515625 0,3.48515625 C0,3.48515625 0,20.1515625 0,20.1515625 C0,20.5828125 0.14375,20.9179688 0.43125,21.2054688 C0.71875,21.4929687 1.05390625,21.6367188 1.48515625,21.6367188 C1.48515625,21.6367188 1.48515625,21.6367188 1.48515625,21.6367188 C1.48515625,21.6367188 23.0367187,21.6367188 23.0367187,21.6367188 C23.4679687,21.6367188 23.803125,21.4929687 24.090625,21.2054688 C24.378125,20.9179688 24.521875,20.5828125 24.521875,20.1515625 C24.521875,20.1515625 24.521875,20.1515625 24.521875,20.1515625 C24.521875,20.1515625 24.521875,3.48515625 24.521875,3.48515625 C24.521875,3.05390625 24.378125,2.71875 24.090625,2.43125 C23.803125,2.14375 23.4679687,2 23.0367187,2 Z M4.40625,13.78125 C4.40625,13.78125 4.40625,13.78125 4.40625,13.78125 C4.40625,13.78125 11.303125,13.78125 11.303125,13.78125 C11.6382812,13.78125 11.7820312,13.925 11.7820312,14.2601562 C11.7820312,14.2601562 11.7820312,14.2601562 11.7820312,14.2601562 C11.7820312,14.5953125 11.6382812,14.7867187 11.303125,14.7867187 C11.303125,14.7867187 11.303125,14.7867187 11.303125,14.7867187 C11.303125,14.7867187 4.40625,14.7867187 4.40625,14.7867187 C4.07109375,14.7867187 3.92734375,14.5953125 3.92734375,14.2601562 C3.92734375,14.2601562 3.92734375,14.2601562 3.92734375,14.2601562 C3.92734375,13.925 4.07109375,13.78125 4.40625,13.78125 Z M14.2242187,17.7085937 C14.2242187,17.7085937 14.2242187,17.7085937 14.2242187,17.7085937 C14.2242187,17.7085937 4.40625,17.7085937 4.40625,17.7085937 C4.07109375,17.7085937 3.92734375,17.5648437 3.92734375,17.2296875 C3.92734375,16.8945312 4.07109375,16.7507812 4.40625,16.7507812 C4.40625,16.7507812 4.40625,16.7507812 4.40625,16.7507812 C4.40625,16.7507812 14.2242187,16.7507812 14.2242187,16.7507812 C14.559375,16.7507812 14.703125,16.8945312 14.703125,17.2296875 C14.703125,17.5648437 14.559375,17.7085937 14.2242187,17.7085937 Z M21.6,5.92734375 C21.6,5.92734375 21.6,9.8546875 21.6,9.8546875 C21.6,10.1421875 21.5039062,10.38125 21.3125,10.5734375 C21.0734375,10.7648438 20.8335938,10.8609375 20.59375,10.8609375 C20.59375,10.8609375 20.59375,10.8609375 20.59375,10.8609375 C20.59375,10.8609375 16.6664062,10.8609375 16.6664062,10.8609375 C16.4273437,10.8609375 16.1875,10.7648438 15.9960937,10.5734375 C15.8046875,10.3820313 15.7085937,10.1421875 15.7085937,9.8546875 C15.7085937,9.8546875 15.7085937,9.8546875 15.7085937,9.8546875 C15.7085937,9.8546875 15.7085937,5.92734375 15.7085937,5.92734375 C15.7085937,5.68828125 15.8046875,5.4484375 15.9960937,5.25703125 C16.1875,5.065625 16.4273437,4.96953125 16.6664062,4.96953125 C16.6664062,4.96953125 16.6664062,4.96953125 16.6664062,4.96953125 C16.6664062,4.96953125 20.59375,4.96953125 20.59375,4.96953125 C20.8328125,4.96953125 21.0726562,5.065625 21.3125,5.25703125 C21.5039062,5.4484375 21.6,5.68828125 21.6,5.92734375 C21.6,5.92734375 21.6,5.92734375 21.6,5.92734375 Z"/>
  <title>Letter Solid</title>
</svg>