<svg xmlns="http://www.w3.org/2000/svg" viewBox="0 0 25 25" id="life-ring-solid">
  <path d="M20.9296875,3.5921875 C18.5351562,1.19765625 15.6617188,0 12.2609375,0 C8.86015625,0 5.98671875,1.19765625 3.5921875,3.5921875 C1.19765625,5.98671875 0,8.86015625 0,12.2609375 C0,15.6617188 1.19765625,18.5351563 3.5921875,20.9296875 C5.98671875,23.3242188 8.86015625,24.521875 12.2609375,24.521875 C15.6617188,24.521875 18.5351563,23.3242188 20.9296875,20.9296875 C23.3242188,18.5351563 24.521875,15.6617188 24.521875,12.2609375 C24.521875,8.86015625 23.3242188,5.98671875 20.9296875,3.5921875 Z M14.7515625,7.47109375 C14.7515625,7.47109375 14.7039062,7.47109375 14.7039062,7.47109375 C14.7039062,7.47109375 14.7039062,1.2453125 14.7039062,1.2453125 C16.859375,1.771875 18.6789063,2.778125 20.2117188,4.31015625 C21.7445313,5.8421875 22.75,7.6625 23.2289063,9.721875 C23.2289063,9.721875 23.2289063,9.721875 23.2289063,9.721875 C23.2289063,9.721875 17.0507812,9.81796875 17.0507812,9.81796875 C16.5242187,8.8125 15.7578125,7.9984375 14.7515625,7.47109375 C14.7515625,7.47109375 14.7515625,7.47109375 14.7515625,7.47109375 L14.7515625,7.47109375 Z M9.7234375,1.29296875 C9.7234375,1.29296875 9.81953125,1.2453125 9.81953125,1.2453125 C9.81953125,1.2453125 9.81953125,7.47109375 9.81953125,7.47109375 C8.8140625,7.99765625 8,8.7640625 7.47265625,9.7703125 C7.47265625,9.7703125 7.47265625,9.7703125 7.47265625,9.7703125 C7.47265625,9.7703125 7.47265625,9.81796875 7.47265625,9.81796875 C7.47265625,9.81796875 1.246875,9.81796875 1.246875,9.81796875 C1.7734375,7.6625 2.7796875,5.84296875 4.31171875,4.31015625 C5.84375,2.77734375 7.6640625,1.771875 9.7234375,1.29296875 C9.7234375,1.29296875 9.7234375,1.29296875 9.7234375,1.29296875 Z M9.77109375,17.05 C9.77109375,17.05 9.81875,17.05 9.81875,17.05 C9.81875,17.05 9.81875,23.2757812 9.81875,23.2757812 C7.66328125,22.7492187 5.84375,21.7429687 4.3109375,20.2109375 C2.778125,18.6789063 1.77265625,16.8585937 1.29375,14.7992187 C1.29375,14.7992187 1.29375,14.7992187 1.29375,14.7992187 C1.29375,14.7992187 7.471875,14.703125 7.471875,14.703125 C7.9984375,15.7085937 8.76484375,16.5226562 9.77109375,17.05 C9.77109375,17.05 9.77109375,17.05 9.77109375,17.05 L9.77109375,17.05 Z M9.1484375,15.3734375 C8.28671875,14.5117187 7.85546875,13.4578125 7.85546875,12.2601562 C7.85546875,11.0625 8.28671875,10.009375 9.1484375,9.146875 C10.0101562,8.28515625 11.0640625,7.85390625 12.2617188,7.85390625 C13.459375,7.85390625 14.5125,8.28515625 15.375,9.146875 C16.2367188,10.0085937 16.6679688,11.0625 16.6679688,12.2601562 C16.6679688,13.4578125 16.2367188,14.5109375 15.375,15.3734375 C14.5132812,16.2351562 13.459375,16.6664062 12.2617188,16.6664062 C11.0640625,16.6664062 10.0109375,16.2351562 9.1484375,15.3734375 Z M14.8,23.228125 C14.8,23.228125 14.7039062,23.2757812 14.7039062,23.2757812 C14.7039062,23.2757812 14.7039062,17.05 14.7039062,17.05 C15.709375,16.5234375 16.5234375,15.7570312 17.0507812,14.7507812 C17.0507812,14.7507812 17.0507812,14.7507812 17.0507812,14.7507812 C17.0507812,14.7507812 17.0507812,14.703125 17.0507812,14.703125 C17.0507812,14.703125 23.2765625,14.703125 23.2765625,14.703125 C22.75,16.8585937 21.74375,18.678125 20.2117188,20.2109375 C18.6796875,21.74375 16.859375,22.7492187 14.8,23.228125 C14.8,23.228125 14.8,23.228125 14.8,23.228125 L14.8,23.228125 Z"/>
  <title>Life Ring Solid</title>
</svg>