<svg xmlns="http://www.w3.org/2000/svg" viewBox="0 0 25 25" id="life-ring">
  <path d="M20.9296875,3.5921875 C18.5351562,1.19765625 15.6617188,0 12.2609375,0 C8.86015625,0 5.98671875,1.19765625 3.5921875,3.5921875 C1.19765625,5.98671875 0,8.86015625 0,12.2609375 C0,15.6617188 1.19765625,18.5351563 3.5921875,20.9296875 C5.98671875,23.3242188 8.86015625,24.521875 12.2609375,24.521875 C15.6617188,24.521875 18.5351563,23.3242188 20.9296875,20.9296875 C23.3242188,18.5351563 24.521875,15.6617188 24.521875,12.2609375 C24.521875,8.86015625 23.3242188,5.98671875 20.9296875,3.5921875 Z M14.7515625,7.47109375 C14.7515625,7.47109375 14.7039062,7.47109375 14.7039062,7.47109375 C14.7039062,7.47109375 14.7039062,1.2453125 14.7039062,1.2453125 C16.859375,1.771875 18.6789063,2.778125 20.2117188,4.31015625 C21.7445313,5.8421875 22.75,7.6625 23.2289063,9.721875 C23.2289063,9.721875 23.2289063,9.721875 23.2289063,9.721875 C23.2289063,9.721875 17.0507812,9.81796875 17.0507812,9.81796875 C16.5242187,8.8125 15.7578125,7.9984375 14.7515625,7.47109375 C14.7515625,7.47109375 14.7515625,7.47109375 14.7515625,7.47109375 L14.7515625,7.47109375 Z M15.3742188,9.14765625 C16.2359375,10.009375 16.6671875,11.0632812 16.6671875,12.2609375 C16.6671875,13.4585937 16.2359375,14.5117188 15.3742188,15.3742188 C14.5125,16.2359375 13.4585937,16.6671875 12.2609375,16.6671875 C11.0632813,16.6671875 10.0101562,16.2359375 9.14765625,15.3742188 C8.2859375,14.5125 7.8546875,13.4585937 7.8546875,12.2609375 C7.8546875,11.0632813 8.2859375,10.0101563 9.14765625,9.14765625 C10.009375,8.2859375 11.0632813,7.8546875 12.2609375,7.8546875 C13.4585937,7.8546875 14.5117188,8.2859375 15.3742188,9.14765625 Z M10.728125,7.08828125 C10.728125,7.08828125 10.7757812,1.1015625 10.7757812,1.1015625 C10.8234375,1.1015625 11.3023438,1.05390625 12.2601562,0.9578125 C12.2601562,0.9578125 12.2601562,0.9578125 12.2601562,0.9578125 C13.265625,1.05390625 13.7445312,1.1015625 13.7929688,1.1015625 C13.7929688,1.1015625 13.7929688,1.1015625 13.7929688,1.1015625 C13.7929688,1.1015625 13.7453125,7.08828125 13.7453125,7.08828125 C13.21875,6.94453125 12.6914062,6.84921875 12.2609375,6.84921875 C12.2609375,6.84921875 12.2609375,6.84921875 12.2609375,6.84921875 C11.7820313,6.84921875 11.2554688,6.9453125 10.728125,7.08828125 C10.728125,7.08828125 10.728125,7.08828125 10.728125,7.08828125 Z M9.72265625,1.29296875 C9.72265625,1.29296875 9.81875,1.2453125 9.81875,1.2453125 C9.81875,1.2453125 9.81875,7.47109375 9.81875,7.47109375 C8.81328125,7.99765625 7.99921875,8.7640625 7.471875,9.7703125 C7.471875,9.7703125 7.471875,9.7703125 7.471875,9.7703125 C7.471875,9.7703125 7.471875,9.81796875 7.471875,9.81796875 C7.471875,9.81796875 1.24609375,9.81796875 1.24609375,9.81796875 C1.77265625,7.6625 2.77890625,5.84296875 4.3109375,4.31015625 C5.84296875,2.77734375 7.66328125,1.771875 9.72265625,1.29296875 C9.72265625,1.29296875 9.72265625,1.29296875 9.72265625,1.29296875 L9.72265625,1.29296875 Z M0.9578125,12.2601562 C0.9578125,12.2601562 0.9578125,12.2601562 0.9578125,12.2601562 C1.05390625,11.2546875 1.1015625,10.7757812 1.1015625,10.7273437 C1.1015625,10.7273437 1.1015625,10.7273437 1.1015625,10.7273437 C1.1015625,10.7273437 7.08828125,10.775 7.08828125,10.775 C6.94453125,11.2539062 6.84921875,11.7328125 6.84921875,12.259375 C6.84921875,12.259375 6.84921875,12.259375 6.84921875,12.259375 C6.84921875,12.690625 6.9453125,13.2171875 7.08828125,13.74375 C7.08828125,13.74375 7.08828125,13.74375 7.08828125,13.74375 C7.08828125,13.74375 1.1015625,13.74375 1.1015625,13.74375 C1.1015625,13.6960937 1.05390625,13.2171875 0.9578125,12.259375 L0.9578125,12.2601562 Z M9.7703125,17.05 C9.7703125,17.05 9.81796875,17.05 9.81796875,17.05 C9.81796875,17.05 9.81796875,23.2757812 9.81796875,23.2757812 C7.6625,22.7492187 5.84296875,21.7429687 4.31015625,20.2109375 C2.77734375,18.6789063 1.771875,16.8585937 1.29296875,14.7992187 C1.29296875,14.7992187 1.29296875,14.7992187 1.29296875,14.7992187 C1.29296875,14.7992187 7.47109375,14.703125 7.47109375,14.703125 C7.99765625,15.7085937 8.7640625,16.5226562 9.7703125,17.05 C9.7703125,17.05 9.7703125,17.05 9.7703125,17.05 L9.7703125,17.05 Z M13.7453125,17.4328125 C13.7453125,17.4328125 13.7453125,23.4195312 13.7453125,23.4195312 C13.4578125,23.4671875 12.9789062,23.515625 12.2609375,23.515625 C11.5429688,23.515625 11.0632813,23.4679687 10.728125,23.4195312 C10.728125,23.4195312 10.728125,23.4195312 10.728125,23.4195312 C10.728125,23.4195312 10.7757812,17.4328125 10.7757812,17.4328125 C11.2546875,17.5765625 11.7335938,17.671875 12.2601562,17.671875 C12.2601562,17.671875 12.2601562,17.671875 12.2601562,17.671875 C12.6914062,17.671875 13.2179687,17.5757812 13.7445312,17.4328125 C13.7445312,17.4328125 13.7445312,17.4328125 13.7445312,17.4328125 L13.7453125,17.4328125 Z M14.7992187,23.228125 C14.7992187,23.228125 14.703125,23.2757812 14.703125,23.2757812 C14.703125,23.2757812 14.703125,17.05 14.703125,17.05 C15.7085937,16.5234375 16.5226562,15.7570312 17.05,14.7507812 C17.05,14.7507812 17.05,14.7507812 17.05,14.7507812 C17.05,14.7507812 17.05,14.703125 17.05,14.703125 C17.05,14.703125 23.2757812,14.703125 23.2757812,14.703125 C22.7492187,16.8585937 21.7429687,18.678125 20.2109375,20.2109375 C18.6789062,21.74375 16.8585937,22.7492187 14.7992187,23.228125 C14.7992187,23.228125 14.7992187,23.228125 14.7992187,23.228125 Z M23.4195312,13.7929688 C23.4195312,13.7929688 17.4328125,13.7453125 17.4328125,13.7453125 C17.5765625,13.21875 17.671875,12.6914062 17.671875,12.2609375 C17.671875,12.2609375 17.671875,12.2609375 17.671875,12.2609375 C17.671875,11.7820313 17.5757812,11.2554688 17.4328125,10.728125 C17.4328125,10.728125 17.4328125,10.728125 17.4328125,10.728125 C17.4328125,10.728125 23.4195312,10.7757812 23.4195312,10.7757812 C23.4671875,11.0632812 23.515625,11.5421875 23.515625,12.2601562 C23.515625,12.978125 23.4679687,13.4578125 23.4195312,13.7929688 C23.4195312,13.7929688 23.4195312,13.7929688 23.4195312,13.7929688 Z"/>
  <title>Life Ring</title>
</svg>