<svg xmlns="http://www.w3.org/2000/svg" viewBox="0 0 25 25" id="linkedin">
  <path d="M5.98046875,3.346875 C5.98046875,3.346875 5.98046875,3.346875 5.98046875,3.346875 C5.98046875,3.96953125 5.74140625,4.54453125 5.26171875,5.0234375 C5.26171875,5.0234375 5.26171875,5.0234375 5.26171875,5.0234375 C4.73515625,5.4546875 4.16015625,5.69375 3.4421875,5.69375 C3.4421875,5.69375 3.4421875,5.69375 3.4421875,5.69375 C2.7234375,5.69375 2.1015625,5.4546875 1.6703125,5.0234375 C1.2390625,4.5921875 1,4.01796875 1,3.346875 C1,3.346875 1,3.346875 1,3.346875 C1,2.628125 1.2390625,2.05390625 1.6703125,1.62265625 C1.6703125,1.62265625 1.6703125,1.62265625 1.6703125,1.62265625 C2.1015625,1.19140625 2.67578125,1 3.48984375,1 C3.48984375,1 3.48984375,1 3.48984375,1 C4.25625,1 4.83046875,1.19140625 5.26171875,1.62265625 C5.26171875,1.62265625 5.26171875,1.62265625 5.26171875,1.62265625 C5.69296875,2.1015625 5.93203125,2.6765625 5.98046875,3.346875 L5.98046875,3.346875 Z M5.83671875,22.6953125 C5.83671875,22.6953125 1.14296875,22.6953125 1.14296875,22.6953125 C1.14296875,22.6953125 1.14296875,7.5609375 1.14296875,7.5609375 C1.14296875,7.5609375 5.83671875,7.5609375 5.83671875,7.5609375 C5.83671875,7.5609375 5.83671875,22.6953125 5.83671875,22.6953125 Z M8.61484375,12.3984375 C8.61484375,12.3984375 8.61484375,12.3984375 8.61484375,12.3984375 C8.61484375,10.3867187 8.5671875,8.75859375 8.51875,7.5609375 C8.51875,7.5609375 8.51875,7.5609375 8.51875,7.5609375 C8.51875,7.5609375 12.5898438,7.5609375 12.5898438,7.5609375 C12.5898438,7.5609375 12.8289063,9.66796875 12.8289063,9.66796875 C12.8289063,9.66796875 12.925,9.66796875 12.925,9.66796875 C13.9304688,8.03984375 15.4632813,7.22578125 17.61875,7.22578125 C17.61875,7.22578125 17.61875,7.22578125 17.61875,7.22578125 C19.246875,7.22578125 20.5398437,7.75234375 21.5460938,8.85390625 C22.5523437,9.95546875 23.0304688,11.5835937 23.0304688,13.7390625 C23.0304688,13.7390625 23.0304688,13.7390625 23.0304688,13.7390625 C23.0304688,13.7390625 23.0304688,22.6953125 23.0304688,22.6953125 C23.0304688,22.6953125 18.3367188,22.6953125 18.3367188,22.6953125 C18.3367188,22.6953125 18.3367188,14.3140625 18.3367188,14.3140625 C18.3367188,12.1585937 17.5226563,11.0570312 15.9421875,11.0570312 C15.9421875,11.0570312 15.9421875,11.0570312 15.9421875,11.0570312 C14.7929688,11.0570312 13.9789062,11.6320312 13.5476562,12.78125 C13.5476562,12.78125 13.5476562,12.78125 13.5476562,12.78125 C13.4515625,13.0203125 13.4039062,13.4039062 13.4039062,13.9789062 C13.4039062,13.9789062 13.4039062,13.9789062 13.4039062,13.9789062 C13.4039062,13.9789062 13.4039062,22.6953125 13.4039062,22.6953125 C13.4039062,22.6953125 8.61484375,22.6953125 8.61484375,22.6953125 C8.61484375,22.6953125 8.61484375,12.3984375 8.61484375,12.3984375 Z"/>
  <title>Linkedin</title>
</svg>