<svg xmlns="http://www.w3.org/2000/svg" viewBox="0 0 25 25" id="list">
  <path d="M5.26796875,7.00546875 C5.26796875,7.00546875 5.26796875,6 5.26796875,6 C5.26796875,6 24.5210938,6 24.5210938,6 C24.5210938,6 24.5210938,7.00546875 24.5210938,7.00546875 C24.5210938,7.00546875 5.26796875,7.00546875 5.26796875,7.00546875 Z M0,7.00546875 C0,7.00546875 0,6 0,6 C0,6 1.771875,6 1.771875,6 C1.771875,6 1.771875,7.00546875 1.771875,7.00546875 C1.771875,7.00546875 0,7.00546875 0,7.00546875 Z M5.26796875,12.8484375 C5.26796875,12.8484375 5.26796875,11.890625 5.26796875,11.890625 C5.26796875,11.890625 24.5210938,11.890625 24.5210938,11.890625 C24.5210938,11.890625 24.5210938,12.8484375 24.5210938,12.8484375 C24.5210938,12.8484375 5.26796875,12.8484375 5.26796875,12.8484375 Z M0,12.8484375 C0,12.8484375 0,11.890625 0,11.890625 C0,11.890625 1.771875,11.890625 1.771875,11.890625 C1.771875,11.890625 1.771875,12.8484375 1.771875,12.8484375 C1.771875,12.8484375 0,12.8484375 0,12.8484375 Z M5.26796875,18.7390625 C5.26796875,18.7390625 5.26796875,17.78125 5.26796875,17.78125 C5.26796875,17.78125 24.5210938,17.78125 24.5210938,17.78125 C24.5210938,17.78125 24.5210938,18.7390625 24.5210938,18.7390625 C24.5210938,18.7390625 5.26796875,18.7390625 5.26796875,18.7390625 Z M0,18.7390625 C0,18.7390625 0,17.78125 0,17.78125 C0,17.78125 1.771875,17.78125 1.771875,17.78125 C1.771875,17.78125 1.771875,18.7390625 1.771875,18.7390625 C1.771875,18.7390625 0,18.7390625 0,18.7390625 Z"/>
  <title>List</title>
</svg>