<svg xmlns="http://www.w3.org/2000/svg" viewBox="0 0 25 25" id="locations">
  <path d="M17.7078125,20.6359375 C17.7078125,20.6359375 17.7078125,20.6359375 17.7078125,20.6359375 C16.9890625,20.6359375 16.4625,20.9234375 16.1273438,21.4976562 C16.1273438,21.4976562 16.1273438,21.4976562 16.1273438,21.4976562 C16.1273438,21.4976562 8.84765625,18.8632812 8.84765625,18.8632812 C8.8953125,18.815625 8.8953125,18.7671875 8.8953125,18.671875 C8.8953125,18.671875 8.8953125,18.671875 8.8953125,18.671875 C8.8953125,18.1453125 8.70390625,17.6664062 8.3203125,17.2828125 C7.93671875,16.8992187 7.45859375,16.7078125 6.93125,16.7078125 C6.4046875,16.7078125 5.92578125,16.8992187 5.5421875,17.2828125 C5.15859375,17.6664062 4.9671875,18.1445312 4.9671875,18.671875 C4.9671875,19.1984375 5.15859375,19.6773437 5.5421875,20.0609375 C5.92578125,20.4445312 6.40390625,20.6359375 6.93125,20.6359375 C6.93125,20.6359375 6.93125,20.6359375 6.93125,20.6359375 C7.6015625,20.6359375 8.12890625,20.3484375 8.559375,19.7742187 C8.559375,19.7742187 8.559375,19.7742187 8.559375,19.7742187 C8.559375,19.7742187 15.7914063,22.4085937 15.7914063,22.4085937 C15.74375,22.45625 15.74375,22.5046875 15.74375,22.6 C15.74375,22.6 15.74375,22.6 15.74375,22.6 C15.74375,23.1265625 15.9351563,23.6054687 16.31875,23.9890625 C16.7023438,24.3726562 17.1804688,24.5640625 17.7078125,24.5640625 C18.234375,24.5640625 18.7132813,24.3726562 19.096875,23.9890625 C19.4804688,23.6054687 19.671875,23.1273437 19.671875,22.6 C19.671875,22.0734375 19.4804688,21.5945312 19.096875,21.2109375 C18.7132813,20.8273437 18.2351562,20.6359375 17.7078125,20.6359375 Z M7.603125,19.3429688 C7.41171875,19.5820312 7.171875,19.678125 6.9328125,19.678125 C6.69375,19.678125 6.45390625,19.5820312 6.2625,19.3429688 C6.0234375,19.1515625 5.92734375,18.9117187 5.92734375,18.6726562 C5.92734375,18.4335938 6.0234375,18.19375 6.2625,18.0023437 C6.45390625,17.8109375 6.69375,17.7148438 6.9328125,17.7148438 C7.171875,17.7148438 7.41171875,17.8109375 7.603125,18.0023437 C7.79453125,18.19375 7.890625,18.4335938 7.890625,18.6726562 C7.890625,18.9117187 7.79453125,19.1515625 7.603125,19.3429688 Z M18.4265625,23.2703125 C18.1875,23.4617187 17.9476563,23.5578125 17.7078125,23.5578125 C17.4679687,23.5578125 17.2289063,23.4617187 17.0375,23.2703125 C16.8460937,23.0789062 16.75,22.8390625 16.75,22.6 C16.75,22.3609375 16.8460938,22.1210938 17.0375,21.9296875 C17.2289063,21.7382812 17.46875,21.6421875 17.7078125,21.6421875 C17.946875,21.6421875 18.1867187,21.7382812 18.4265625,21.9296875 C18.6179687,22.1210938 18.7140625,22.3609375 18.7140625,22.6 C18.7140625,22.8390625 18.6179687,23.0789062 18.4265625,23.2703125 Z M17.7078125,18.6726562 C17.7078125,18.6726562 17.7078125,18.6726562 17.7078125,18.6726562 C18.1390625,18.6726562 19.0484375,17.5234375 20.4859375,15.1765625 C21.9234375,12.8296875 22.6414063,11.0578125 22.6414063,9.86015625 C22.6414063,9.86015625 22.6414063,9.86015625 22.6414063,9.86015625 C22.6414063,8.47109375 22.1625,7.321875 21.2046875,6.3640625 C20.246875,5.40625 19.0976563,4.92734375 17.7085938,4.92734375 C17.7085938,4.92734375 17.7085938,4.92734375 17.7085938,4.92734375 C16.3679687,4.92734375 15.2179688,5.40625 14.2601562,6.3640625 C13.3023437,7.321875 12.8234375,8.47109375 12.8234375,9.86015625 C12.8234375,9.86015625 12.8234375,9.86015625 12.8234375,9.86015625 C12.8234375,11.0578125 13.5421875,12.8296875 14.9789063,15.1765625 C16.415625,17.5234375 17.3257813,18.6726562 17.7085938,18.6726562 L17.7078125,18.6726562 Z M14.9304688,7.0828125 C15.696875,6.31640625 16.6070313,5.93359375 17.7085938,5.93359375 C18.8101563,5.93359375 19.7203125,6.31640625 20.4867188,7.0828125 C21.253125,7.84921875 21.6359375,8.759375 21.6359375,9.8609375 C21.6359375,9.8609375 21.6359375,9.8609375 21.6359375,9.8609375 C21.6359375,10.7226563 21.1570313,11.9679688 20.246875,13.596875 C19.3367188,15.2734375 18.475,16.5179688 17.7085938,17.428125 C17.7085938,17.428125 17.7085938,17.428125 17.7085938,17.428125 C16.9421875,16.5179688 16.0804688,15.225 15.1703125,13.596875 C14.2601563,11.96875 13.78125,10.7234375 13.78125,9.8609375 C13.78125,9.8609375 13.78125,9.8609375 13.78125,9.8609375 C13.78125,8.759375 14.1640625,7.84921875 14.9304688,7.0828125 L14.9304688,7.0828125 Z M19.096875,11.2492187 C19.4796875,10.8664062 19.671875,10.3875 19.671875,9.86015625 C19.671875,9.3328125 19.4804687,8.8546875 19.096875,8.47109375 C18.7140625,8.08828125 18.2351562,7.89609375 17.7078125,7.89609375 C17.1804688,7.89609375 16.7023438,8.0875 16.31875,8.47109375 C15.9359375,8.85390625 15.74375,9.3328125 15.74375,9.86015625 C15.74375,9.86015625 15.74375,9.86015625 15.74375,9.86015625 C15.74375,10.3867187 15.9351563,10.8179687 16.3664063,11.2007812 C16.7492187,11.6320312 17.1804688,11.8234375 17.7070312,11.8234375 C17.7070312,11.8234375 17.7070312,11.8234375 17.7070312,11.8234375 C18.2335938,11.8234375 18.7125,11.6320312 19.0960938,11.2484375 L19.096875,11.2492187 Z M16.75,9.86015625 C16.75,9.86015625 16.75,9.86015625 16.75,9.86015625 C16.75,9.57265625 16.8460938,9.33359375 17.0375,9.14140625 C17.2289062,8.94921875 17.46875,8.85390625 17.7078125,8.85390625 C17.946875,8.85390625 18.1867187,8.95 18.4265625,9.14140625 C18.6179687,9.3328125 18.7140625,9.57265625 18.7140625,9.86015625 C18.7140625,9.86015625 18.7140625,9.86015625 18.7140625,9.86015625 C18.7140625,10.0992188 18.6179687,10.3390625 18.4265625,10.5304688 C18.1875,10.721875 17.9476563,10.8179688 17.7078125,10.8179688 C17.4679687,10.8179688 17.2289063,10.721875 17.0375,10.5304688 C16.8460937,10.3390625 16.75,10.0992188 16.75,9.86015625 Z M4.1546875,11.2492188 C5.59140625,13.5960938 6.5015625,14.7453125 6.9328125,14.7453125 C7.3640625,14.7453125 8.2734375,13.5960938 9.7109375,11.2492188 C11.1,8.90234375 11.8179688,7.13046875 11.8179688,5.9328125 C11.8179688,5.9328125 11.8179688,5.9328125 11.8179688,5.9328125 C11.8179688,4.54375 11.3390625,3.39453125 10.38125,2.43671875 C9.4234375,1.47890625 8.27421875,1 6.9328125,1 C6.9328125,1 6.9328125,1 6.9328125,1 C5.54375,1 4.39453125,1.47890625 3.43671875,2.43671875 C2.47890625,3.39453125 2,4.54375 2,5.9328125 C2,5.9328125 2,5.9328125 2,5.9328125 C2,7.13046875 2.71875,8.90234375 4.15546875,11.2492188 L4.1546875,11.2492188 Z M4.1546875,3.15546875 C4.92109375,2.3890625 5.83125,2.00625 6.9328125,2.00625 C8.034375,2.00625 8.94453125,2.3890625 9.7109375,3.15546875 C10.4773437,3.921875 10.8601562,4.83203125 10.8601562,5.93359375 C10.8601562,5.93359375 10.8601562,5.93359375 10.8601562,5.93359375 C10.8601562,6.84375 10.38125,8.0890625 9.47109375,9.7171875 C8.5609375,11.3453125 7.69921875,12.590625 6.9328125,13.5007812 C6.9328125,13.5007812 6.9328125,13.5007812 6.9328125,13.5007812 C6.16640625,12.590625 5.3046875,11.3453125 4.39453125,9.7171875 C3.484375,8.0890625 3.00546875,6.84375 3.00546875,5.93359375 C3.00546875,5.93359375 3.00546875,5.93359375 3.00546875,5.93359375 C3.00546875,4.83203125 3.38828125,3.921875 4.1546875,3.15546875 Z M8.32109375,7.321875 C8.70390625,6.9390625 8.89609375,6.46015625 8.89609375,5.9328125 C8.89609375,5.40546875 8.7046875,4.92734375 8.32109375,4.54375 C7.93828125,4.1609375 7.459375,3.96875 6.93203125,3.96875 C6.4046875,3.96875 5.9265625,4.16015625 5.54296875,4.54375 C5.16015625,4.9265625 4.96796875,5.40546875 4.96796875,5.9328125 C4.96796875,6.46015625 5.159375,6.93828125 5.54296875,7.321875 C5.92578125,7.7046875 6.4046875,7.896875 6.93203125,7.896875 C7.459375,7.896875 7.9375,7.70546875 8.32109375,7.321875 Z M6.26171875,6.603125 C6.02265625,6.41171875 5.9265625,6.171875 5.9265625,5.9328125 C5.9265625,5.69375 6.02265625,5.45390625 6.26171875,5.2140625 C6.453125,5.02265625 6.69296875,4.9265625 6.93203125,4.9265625 C7.17109375,4.9265625 7.4109375,5.02265625 7.60234375,5.2140625 C7.79375,5.453125 7.88984375,5.69296875 7.88984375,5.9328125 C7.88984375,6.17265625 7.79375,6.41171875 7.60234375,6.603125 C7.4109375,6.79453125 7.17109375,6.890625 6.93203125,6.890625 C6.69296875,6.890625 6.453125,6.79453125 6.26171875,6.603125 Z"/>
  <title>Locations</title>
</svg>