<svg xmlns="http://www.w3.org/2000/svg" viewBox="0 0 25 25" id="location-check">
  <path d="M18.2234375,2.4421875 C16.5953125,0.8140625 14.63125,0 12.3328125,0 C10.034375,0 8.0703125,0.8140625 6.4421875,2.4421875 C4.8140625,4.0703125 4,6.034375 4,8.3328125 C4,8.3328125 4,8.3328125 4,8.3328125 C4,10.4882813 4.8140625,13.121875 6.39453125,16.2351562 C7.975,19.3484375 9.603125,21.8867188 11.1835937,23.9460937 C11.1835937,23.9460937 11.1835937,23.9460937 11.1835937,23.9460937 C11.4710937,24.3289062 11.8539062,24.5210937 12.3328125,24.5210937 C12.8117187,24.5210937 13.1945312,24.3296875 13.4820312,23.9460937 C13.4820312,23.9460937 13.4820312,23.9460937 13.4820312,23.9460937 C15.0625,21.8867188 16.690625,19.3007812 18.2710937,16.1875 C19.8515625,13.1226562 20.665625,10.4882812 20.665625,8.3328125 C20.665625,8.3328125 20.665625,8.3328125 20.665625,8.3328125 C20.665625,6.03359375 19.8515625,4.0703125 18.2234375,2.4421875 Z M12.715625,23.371875 C12.715625,23.371875 12.715625,23.371875 12.715625,23.371875 C12.6195312,23.4679688 12.4765625,23.515625 12.3328125,23.515625 C12.1890625,23.515625 12.0453125,23.4679688 11.95,23.371875 C11.95,23.371875 11.95,23.371875 11.95,23.371875 C10.3695313,21.3125 8.83671875,18.7742187 7.3046875,15.8046875 C5.72421875,12.8351563 4.9578125,10.3445312 4.9578125,8.33359375 C4.9578125,8.33359375 4.9578125,8.33359375 4.9578125,8.33359375 C4.9578125,6.27421875 5.6765625,4.55 7.11328125,3.11328125 C8.55,1.6765625 10.2742188,0.9578125 12.3335938,0.9578125 C14.3929688,0.9578125 16.1171875,1.6765625 17.5539063,3.11328125 C18.990625,4.55 19.709375,6.27421875 19.709375,8.33359375 C19.709375,8.33359375 19.709375,8.33359375 19.709375,8.33359375 C19.709375,10.3453125 18.9429688,12.8351562 17.4101563,15.853125 C15.8296875,18.8703125 14.296875,21.3609375 12.7164063,23.3726563 L12.715625,23.371875 Z M16.259375,5.890625 C16.403125,5.890625 16.4984375,5.93828125 16.5945312,6.034375 C16.690625,6.13046875 16.7382812,6.22578125 16.7382812,6.36953125 C16.7382812,6.51328125 16.690625,6.60859375 16.5945312,6.7046875 C16.5945312,6.7046875 16.5945312,6.7046875 16.5945312,6.7046875 C16.5945312,6.7046875 11.709375,11.6375 11.709375,11.6375 C11.6132812,11.7335938 11.5179687,11.78125 11.3742187,11.78125 C11.2304687,11.78125 11.1351562,11.7335938 11.0390625,11.6375 C11.0390625,11.6375 11.0390625,11.6375 11.0390625,11.6375 C11.0390625,11.6375 8.11796875,9.1953125 8.11796875,9.1953125 C7.97421875,9.09921875 7.9265625,8.95625 7.9265625,8.8125 C7.9265625,8.8125 7.9265625,8.8125 7.9265625,8.8125 C7.9265625,8.47734375 8.0703125,8.33359375 8.40546875,8.33359375 C8.40546875,8.33359375 8.40546875,8.33359375 8.40546875,8.33359375 C8.5015625,8.33359375 8.596875,8.38125 8.740625,8.4296875 C8.740625,8.4296875 8.740625,8.4296875 8.740625,8.4296875 C8.740625,8.4296875 11.3265625,10.6328125 11.3265625,10.6328125 C11.3265625,10.6328125 15.9242187,6.03515625 15.9242187,6.03515625 C16.0203125,5.9390625 16.115625,5.89140625 16.259375,5.89140625 L16.259375,5.890625 Z"/>
  <title>Location Check</title>
</svg>