<svg xmlns="http://www.w3.org/2000/svg" viewBox="0 0 25 25" id="locations-solid">
  <path d="M19.0984375,21.2109375 C19.48125,21.59375 19.6734375,22.0726563 19.6734375,22.6 C19.6734375,23.1273437 19.4820312,23.6054687 19.0984375,23.940625 C18.715625,24.3234375 18.2367187,24.515625 17.709375,24.515625 C17.1820313,24.515625 16.7039063,24.3242188 16.3203125,23.940625 C15.9375,23.5578125 15.7453125,23.1265625 15.7453125,22.6 C15.7453125,22.6 15.7453125,22.6 15.7453125,22.6 C15.7453125,22.0734375 15.9367188,21.5945312 16.3203125,21.2109375 C16.7039063,20.8273438 17.1820313,20.6359375 17.709375,20.6359375 C18.2359375,20.6359375 18.7148438,20.8273438 19.0984375,21.2109375 Z M9.471875,20.109375 C9.471875,20.109375 9.471875,20.109375 9.471875,20.109375 C9.471875,20.109375 14.8359375,22.025 14.8359375,22.025 C14.8835937,21.7859375 14.9796875,21.4984375 15.1710937,21.1148437 C15.1710937,21.1148437 15.1710937,21.1148437 15.1710937,21.1148437 C15.1710937,21.1148437 9.80703125,19.1992188 9.80703125,19.1992188 C9.759375,19.4382812 9.66328125,19.7257813 9.471875,20.109375 L9.471875,20.109375 Z M8.32265625,17.2835937 C7.93984375,16.9007813 7.4609375,16.7085937 6.93359375,16.7085937 C6.40625,16.7085937 5.928125,16.9 5.54453125,17.2835937 C5.16171875,17.6664062 4.96953125,18.1453125 4.96953125,18.6726562 C4.96953125,19.2 5.1609375,19.678125 5.54453125,20.0617187 C5.92734375,20.4445312 6.40625,20.6367188 6.93359375,20.6367188 C7.4609375,20.6367188 7.9390625,20.4453125 8.32265625,20.0617187 C8.70546875,19.6789063 8.89765625,19.2 8.89765625,18.6726562 C8.89765625,18.1453125 8.70625,17.6671875 8.32265625,17.2835937 Z M12.8242188,9.8125 C12.8242188,9.8125 12.8242188,9.8125 12.8242188,9.8125 C12.8242188,8.471875 13.303125,7.321875 14.2609375,6.3640625 C15.21875,5.40625 16.3679688,4.92734375 17.709375,4.92734375 C17.709375,4.92734375 17.709375,4.92734375 17.709375,4.92734375 C19.0984375,4.92734375 20.2476562,5.40625 21.2054688,6.3640625 C22.1632813,7.321875 22.6421875,8.47109375 22.6421875,9.8125 C22.6421875,9.8125 22.6421875,9.8125 22.6421875,9.8125 C22.6421875,11.0101562 21.9234375,12.7820313 20.4867188,15.1289062 C19.05,17.4757812 18.1398438,18.6726563 17.7085937,18.6726563 C17.7085937,18.6726563 17.7085937,18.6726563 17.7085937,18.6726563 C17.3257813,18.6726563 16.415625,17.475 14.9789063,15.1289062 C13.5421875,12.7828125 12.8234375,11.0101562 12.8234375,9.8125 L12.8242188,9.8125 Z M16.3210938,11.2015625 C16.7039062,11.584375 17.1828125,11.7765625 17.7101563,11.7765625 C18.2375,11.7765625 18.715625,11.5851563 19.0992187,11.2015625 C19.4820312,10.81875 19.6742187,10.3398438 19.6742187,9.8125 C19.6742187,9.28515625 19.4828125,8.80703125 19.0992187,8.4234375 C18.7164062,8.040625 18.2375,7.8484375 17.7101563,7.8484375 C17.7101563,7.8484375 17.7101563,7.8484375 17.7101563,7.8484375 C17.1835938,7.8484375 16.7523438,8.03984375 16.3695313,8.4234375 C15.9382812,8.80625 15.746875,9.28515625 15.746875,9.8125 C15.746875,10.3398438 15.9382812,10.8179688 16.321875,11.2015625 L16.3210938,11.2015625 Z M2.00078125,5.88515625 C2.00078125,5.88515625 2.00078125,5.88515625 2.00078125,5.88515625 C2.00078125,4.54453125 2.4796875,3.39453125 3.4375,2.43671875 C4.3953125,1.47890625 5.54453125,1 6.93359375,1 C6.93359375,1 6.93359375,1 6.93359375,1 C8.27421875,1 9.42421875,1.47890625 10.3820312,2.43671875 C11.3398437,3.39453125 11.81875,4.54375 11.81875,5.88515625 C11.81875,5.88515625 11.81875,5.88515625 11.81875,5.88515625 C11.81875,7.13046875 11.1,8.90234375 9.71171875,11.2492187 C8.275,13.5960938 7.36484375,14.7453125 6.93359375,14.7453125 C6.50234375,14.7453125 5.59296875,13.5476562 4.15546875,11.2015625 C2.71875,8.8546875 2,7.0828125 2,5.88515625 L2.00078125,5.88515625 Z M5.5453125,7.27421875 C5.928125,7.65703125 6.40703125,7.84921875 6.934375,7.84921875 C7.46171875,7.84921875 7.93984375,7.6578125 8.3234375,7.27421875 C8.70625,6.89140625 8.8984375,6.4125 8.8984375,5.88515625 C8.8984375,5.3578125 8.70703125,4.8796875 8.3234375,4.49609375 C7.940625,4.11328125 7.46171875,3.92109375 6.934375,3.92109375 C6.40703125,3.92109375 5.92890625,4.1125 5.5453125,4.49609375 C5.1625,4.87890625 4.9703125,5.3578125 4.9703125,5.88515625 C4.9703125,6.4125 5.16171875,6.890625 5.5453125,7.27421875 L5.5453125,7.27421875 Z"/>
  <title>Locations Solid</title>
</svg>