<svg xmlns="http://www.w3.org/2000/svg" viewBox="0 0 25 25" id="location-check-solid">
  <path d="M18.2234375,2.4421875 C16.5953125,0.8140625 14.63125,0 12.3328125,0 C10.034375,0 8.0703125,0.8140625 6.4421875,2.4421875 C4.8140625,4.0703125 4,6.034375 4,8.3328125 C4,8.3328125 4,8.3328125 4,8.3328125 C4,10.4882813 4.8140625,13.121875 6.39453125,16.2351562 C7.975,19.3484375 9.603125,21.8867188 11.1835937,23.9460937 C11.1835937,23.9460937 11.1835937,23.9460937 11.1835937,23.9460937 C11.4710937,24.3289062 11.8539062,24.5210937 12.3328125,24.5210937 C12.8117187,24.5210937 13.1945312,24.3296875 13.4820312,23.9460937 C13.4820312,23.9460937 13.4820312,23.9460937 13.4820312,23.9460937 C15.0625,21.8867188 16.690625,19.3007812 18.2710937,16.1875 C19.8515625,13.1226562 20.665625,10.4882812 20.665625,8.3328125 C20.665625,8.3328125 20.665625,8.3328125 20.665625,8.3328125 C20.665625,6.03359375 19.8515625,4.0703125 18.2234375,2.4421875 Z M16.5945313,6.7046875 C16.5945313,6.7046875 16.5945313,6.7046875 16.5945313,6.7046875 C16.5945313,6.7046875 11.709375,11.6375 11.709375,11.6375 C11.6132812,11.7335937 11.5179687,11.78125 11.3742187,11.78125 C11.2304687,11.78125 11.1351562,11.7335937 11.0390625,11.6375 C11.0390625,11.6375 11.0390625,11.6375 11.0390625,11.6375 C11.0390625,11.6375 8.11796875,9.1953125 8.11796875,9.1953125 C7.97421875,9.09921875 7.9265625,8.95625 7.9265625,8.8125 C7.9265625,8.8125 7.9265625,8.8125 7.9265625,8.8125 C7.9265625,8.47734375 8.0703125,8.33359375 8.40546875,8.33359375 C8.40546875,8.33359375 8.40546875,8.33359375 8.40546875,8.33359375 C8.5015625,8.33359375 8.596875,8.38125 8.740625,8.4296875 C8.740625,8.4296875 8.740625,8.4296875 8.740625,8.4296875 C8.740625,8.4296875 11.3265625,10.6328125 11.3265625,10.6328125 C11.3265625,10.6328125 15.9242188,6.03515625 15.9242188,6.03515625 C16.0203125,5.9390625 16.115625,5.89140625 16.259375,5.89140625 C16.259375,5.89140625 16.259375,5.89140625 16.259375,5.89140625 C16.5945313,5.89140625 16.7382812,6.03515625 16.7382812,6.3703125 C16.7382812,6.3703125 16.7382812,6.3703125 16.7382812,6.3703125 C16.7382812,6.5140625 16.690625,6.609375 16.5945313,6.70546875 L16.5945313,6.7046875 Z"/>
  <title>Location Check Solid</title>
</svg>