<svg xmlns="http://www.w3.org/2000/svg" viewBox="0 0 25 25" id="location">
  <path d="M18.2234375,2.4421875 C16.5953125,0.8140625 14.63125,0 12.3328125,0 C10.034375,0 8.0703125,0.8140625 6.4421875,2.4421875 C4.8140625,4.0703125 4,6.034375 4,8.3328125 C4,8.3328125 4,8.3328125 4,8.3328125 C4,10.4882813 4.8140625,13.121875 6.39453125,16.2351562 C7.975,19.3484375 9.603125,21.8867188 11.1835937,23.9460937 C11.1835937,23.9460937 11.1835937,23.9460937 11.1835937,23.9460937 C11.4710937,24.3289062 11.8539062,24.5210937 12.3328125,24.5210937 C12.8117187,24.5210937 13.1945312,24.3296875 13.4820312,23.9460937 C13.4820312,23.9460937 13.4820312,23.9460937 13.4820312,23.9460937 C15.0625,21.8867188 16.690625,19.3007812 18.2710937,16.1875 C19.8515625,13.1226562 20.665625,10.4882812 20.665625,8.3328125 C20.665625,8.3328125 20.665625,8.3328125 20.665625,8.3328125 C20.665625,6.03359375 19.8515625,4.0703125 18.2234375,2.4421875 Z M12.715625,23.371875 C12.715625,23.371875 12.715625,23.371875 12.715625,23.371875 C12.6195312,23.4679688 12.4765625,23.515625 12.3328125,23.515625 C12.1890625,23.515625 12.0453125,23.4679688 11.95,23.371875 C11.95,23.371875 11.95,23.371875 11.95,23.371875 C10.3695313,21.3125 8.83671875,18.7742187 7.3046875,15.8046875 C5.72421875,12.8351563 4.9578125,10.3445312 4.9578125,8.33359375 C4.9578125,8.33359375 4.9578125,8.33359375 4.9578125,8.33359375 C4.9578125,6.27421875 5.6765625,4.55 7.11328125,3.11328125 C8.55,1.6765625 10.2742188,0.9578125 12.3335938,0.9578125 C14.3929688,0.9578125 16.1171875,1.6765625 17.5539063,3.11328125 C18.990625,4.55 19.709375,6.27421875 19.709375,8.33359375 C19.709375,8.33359375 19.709375,8.33359375 19.709375,8.33359375 C19.709375,10.3453125 18.9429688,12.8351562 17.4101563,15.853125 C15.8296875,18.8703125 14.296875,21.3609375 12.7164063,23.3726563 L12.715625,23.371875 Z M14.775,4.9328125 C14.1046875,4.2625 13.290625,3.92734375 12.3328125,3.92734375 C11.375,3.92734375 10.5609375,4.2625 9.890625,4.9328125 C9.2203125,5.603125 8.88515625,6.4171875 8.88515625,7.375 C8.88515625,7.375 8.88515625,7.375 8.88515625,7.375 C8.88515625,8.28515625 9.2203125,9.09921875 9.890625,9.76953125 C10.5609375,10.4398437 11.375,10.775 12.3328125,10.775 C13.290625,10.775 14.1046875,10.4398437 14.775,9.76953125 C15.4453125,9.09921875 15.7804687,8.28515625 15.7804687,7.375 C15.7804687,7.375 15.7804687,7.375 15.7804687,7.375 C15.7804687,6.4171875 15.4453125,5.603125 14.775,4.9328125 Z M14.05625,9.1 C13.5773438,9.57890625 13.0023437,9.81875 12.3320312,9.81875 C11.6617187,9.81875 11.0867187,9.5796875 10.6078125,9.1 C10.1289062,8.62109375 9.8890625,8.04609375 9.8890625,7.37578125 C9.8890625,7.37578125 9.8890625,7.37578125 9.8890625,7.37578125 C9.8890625,6.65703125 10.128125,6.0828125 10.6078125,5.60390625 C11.0875,5.125 11.6617187,4.88515625 12.3320312,4.88515625 C13.0023437,4.88515625 13.5773438,5.12421875 14.05625,5.60390625 C14.5351562,6.08359375 14.775,6.6578125 14.775,7.37578125 C14.775,7.37578125 14.775,7.37578125 14.775,7.37578125 C14.775,8.04609375 14.5359375,8.62109375 14.05625,9.1 Z"/>
  <title>Location</title>
</svg>