<svg xmlns="http://www.w3.org/2000/svg" viewBox="0 0 25 25" id="location-solid">
  <path d="M18.2234375,2.4421875 C16.5953125,0.8140625 14.63125,0 12.3328125,0 C10.034375,0 8.0703125,0.8140625 6.4421875,2.4421875 C4.8140625,4.0703125 4,6.034375 4,8.3328125 C4,8.3328125 4,8.3328125 4,8.3328125 C4,10.4882813 4.8140625,13.121875 6.39453125,16.2351562 C7.975,19.3484375 9.603125,21.8867188 11.1835937,23.9460937 C11.1835937,23.9460937 11.1835937,23.9460937 11.1835937,23.9460937 C11.4710937,24.3289062 11.8539062,24.5210937 12.3328125,24.5210937 C12.8117187,24.5210937 13.1945312,24.3296875 13.4820312,23.9460937 C13.4820312,23.9460937 13.4820312,23.9460937 13.4820312,23.9460937 C15.0625,21.8867188 16.690625,19.3007812 18.2710937,16.1875 C19.8515625,13.1226562 20.665625,10.4882812 20.665625,8.3328125 C20.665625,8.3328125 20.665625,8.3328125 20.665625,8.3328125 C20.665625,6.03359375 19.8515625,4.0703125 18.2234375,2.4421875 Z M14.775,9.7703125 C14.1046875,10.440625 13.290625,10.7757812 12.3328125,10.7757812 C11.375,10.7757812 10.5609375,10.440625 9.890625,9.7703125 C9.2203125,9.1 8.88515625,8.2859375 8.88515625,7.37578125 C8.88515625,7.37578125 8.88515625,7.37578125 8.88515625,7.37578125 C8.88515625,6.41796875 9.2203125,5.60390625 9.890625,4.93359375 C10.5609375,4.26328125 11.375,3.928125 12.3328125,3.928125 C13.290625,3.928125 14.1046875,4.26328125 14.775,4.93359375 C15.4453125,5.60390625 15.7804687,6.41796875 15.7804687,7.37578125 C15.7804687,7.37578125 15.7804687,7.37578125 15.7804687,7.37578125 C15.7804687,8.2859375 15.4453125,9.1 14.775,9.7703125 Z"/>
  <title>Location Solid</title>
</svg>