<svg xmlns="http://www.w3.org/2000/svg" viewBox="0 0 25 25" id="lock-closed-solid">
  <path d="M17.7460938,10.8179688 C17.7460938,10.8179688 19.2304688,10.8179688 19.2304688,10.8179688 C19.6617187,10.8179688 19.996875,10.9617187 20.284375,11.2492187 C20.571875,11.5367188 20.715625,11.871875 20.715625,12.2546875 C20.715625,12.2546875 20.715625,12.2546875 20.715625,12.2546875 C20.715625,12.2546875 20.715625,22.1203125 20.715625,22.1203125 C20.715625,22.5515625 20.571875,22.8867188 20.284375,23.1742188 C19.996875,23.4617187 19.6617187,23.6054688 19.2304688,23.6054688 C19.2304688,23.6054688 19.2304688,23.6054688 19.2304688,23.6054688 C19.2304688,23.6054688 5.48515625,23.6054688 5.48515625,23.6054688 C5.05390625,23.6054688 4.71875,23.4617187 4.43125,23.1742188 C4.14375,22.8867188 4,22.5515625 4,22.1203125 C4,22.1203125 4,22.1203125 4,22.1203125 C4,22.1203125 4,12.2546875 4,12.2546875 C4,11.871875 4.14375,11.5359375 4.43125,11.2492187 C4.71875,10.9625 5.05390625,10.8179688 5.48515625,10.8179688 C5.48515625,10.8179688 5.48515625,10.8179688 5.48515625,10.8179688 C5.48515625,10.8179688 6.96953125,10.8179688 6.96953125,10.8179688 C6.96953125,10.8179688 6.96953125,6.41171875 6.96953125,6.41171875 C6.96953125,4.92734375 7.49609375,3.68203125 8.50234375,2.58046875 C8.50234375,2.58046875 8.50234375,2.58046875 8.50234375,2.58046875 C9.55625,1.5265625 10.8492187,1 12.3335937,1 C13.8179687,1 15.1117187,1.5265625 16.1648437,2.58046875 C17.21875,3.634375 17.7453125,4.92734375 17.7453125,6.41171875 C17.7453125,6.41171875 17.7453125,6.41171875 17.7453125,6.41171875 C17.7453125,6.41171875 17.7453125,10.8179688 17.7453125,10.8179688 L17.7460938,10.8179688 Z M7.928125,6.4125 C7.928125,6.4125 7.928125,6.4125 7.928125,6.4125 C7.928125,6.4125 7.928125,10.81875 7.928125,10.81875 C7.928125,10.81875 16.7882813,10.81875 16.7882813,10.81875 C16.7882813,10.81875 16.7882813,6.4125 16.7882813,6.4125 C16.7882813,5.21484375 16.3570313,4.16171875 15.4476563,3.29921875 C15.4476563,3.29921875 15.4476563,3.29921875 15.4476563,3.29921875 C14.5375,2.3890625 13.5320312,1.95859375 12.334375,1.95859375 C11.1367188,1.95859375 10.13125,2.38984375 9.22109375,3.29921875 C9.22109375,3.29921875 9.22109375,3.29921875 9.22109375,3.29921875 C8.359375,4.1609375 7.928125,5.21484375 7.928125,6.4125 Z M13.0046875,16.9960938 C12.8132813,16.8046875 12.5734375,16.7085938 12.334375,16.7085938 C12.0953125,16.7085938 11.8554688,16.8046875 11.6640625,16.9960938 C11.4726562,17.1875 11.3765625,17.4273438 11.3765625,17.7148438 C11.3765625,17.7148438 11.3765625,17.7148438 11.3765625,17.7148438 C11.3765625,17.7148438 11.3765625,19.678125 11.3765625,19.678125 C11.3765625,19.9171875 11.4726562,20.1570313 11.6640625,20.3484375 C11.8554688,20.5398438 12.0953125,20.6359375 12.334375,20.6359375 C12.5734375,20.6359375 12.8132813,20.5398437 13.0046875,20.3484375 C13.1960938,20.1570313 13.2921875,19.9171875 13.2921875,19.678125 C13.2921875,19.678125 13.2921875,19.678125 13.2921875,19.678125 C13.2921875,19.678125 13.2921875,17.7148438 13.2921875,17.7148438 C13.2921875,17.4273438 13.1960937,17.1882813 13.0046875,16.9960938 Z"/>
  <title>Lock Closed Solid</title>
</svg>