<svg xmlns="http://www.w3.org/2000/svg" viewBox="0 0 25 25" id="lock-open">
  <path d="M7.928125,10.8179688 C7.928125,10.8179688 19.1828125,10.8179688 19.1828125,10.8179688 C19.6140625,10.8179688 19.9492188,10.9617187 20.2367188,11.2492187 C20.5242187,11.5367188 20.6679688,11.871875 20.6679688,12.2546875 C20.6679688,12.2546875 20.6679688,12.2546875 20.6679688,12.2546875 C20.6679688,12.2546875 20.6679688,22.1203125 20.6679688,22.1203125 C20.6679688,22.5515625 20.5242187,22.8867188 20.2367188,23.1742188 C19.9492188,23.4617187 19.6140625,23.6054688 19.1828125,23.6054688 C19.1828125,23.6054688 19.1828125,23.6054688 19.1828125,23.6054688 C19.1828125,23.6054688 5.48515625,23.6054688 5.48515625,23.6054688 C5.05390625,23.6054688 4.71875,23.4617187 4.43125,23.1742188 C4.14375,22.8867188 4,22.5515625 4,22.1203125 C4,22.1203125 4,22.1203125 4,22.1203125 C4,22.1203125 4,12.2546875 4,12.2546875 C4,11.871875 4.14375,11.5359375 4.43125,11.2492187 C4.71875,10.9625 5.05390625,10.8179688 5.48515625,10.8179688 C5.48515625,10.8179688 5.48515625,10.8179688 5.48515625,10.8179688 C5.48515625,10.8179688 6.921875,10.8179688 6.921875,10.8179688 C6.921875,10.8179688 6.921875,6.41171875 6.921875,6.41171875 C6.921875,4.92734375 7.4484375,3.63359375 8.50234375,2.58046875 C9.55625,1.52734375 10.8492187,1 12.3335937,1 C13.8179687,1 15.1117187,1.5265625 16.1648437,2.58046875 C17.2179687,3.634375 17.7453125,4.92734375 17.7453125,6.41171875 C17.7453125,6.41171875 17.7453125,6.41171875 17.7453125,6.41171875 C17.7453125,6.41171875 17.7453125,7.36953125 17.7453125,7.36953125 C17.7453125,7.7046875 17.5539062,7.8484375 17.21875,7.8484375 C17.21875,7.8484375 17.21875,7.8484375 17.21875,7.8484375 C16.8835937,7.8484375 16.7398437,7.7046875 16.7398437,7.36953125 C16.7398437,7.36953125 16.7398437,7.36953125 16.7398437,7.36953125 C16.7398437,7.36953125 16.7398437,6.41171875 16.7398437,6.41171875 C16.7398437,5.2140625 16.3085938,4.1609375 15.446875,3.2984375 C15.446875,3.2984375 15.446875,3.2984375 15.446875,3.2984375 C14.5367187,2.38828125 13.53125,1.9578125 12.3335937,1.9578125 C11.1359375,1.9578125 10.1304687,2.3890625 9.2203125,3.2984375 C9.2203125,3.2984375 9.2203125,3.2984375 9.2203125,3.2984375 C8.35859375,4.16015625 7.92734375,5.2140625 7.92734375,6.41171875 C7.92734375,6.41171875 7.92734375,6.41171875 7.92734375,6.41171875 C7.92734375,6.41171875 7.92734375,10.8179688 7.92734375,10.8179688 L7.928125,10.8179688 Z M19.709375,22.1210938 C19.709375,22.1210938 19.709375,22.1210938 19.709375,22.1210938 C19.709375,22.1210938 19.709375,12.2554688 19.709375,12.2554688 C19.709375,11.9203125 19.5179687,11.7765625 19.1828125,11.7765625 C19.1828125,11.7765625 19.1828125,11.7765625 19.1828125,11.7765625 C19.1828125,11.7765625 5.48515625,11.7765625 5.48515625,11.7765625 C5.15,11.7765625 4.95859375,11.9203125 4.95859375,12.2554688 C4.95859375,12.2554688 4.95859375,12.2554688 4.95859375,12.2554688 C4.95859375,12.2554688 4.95859375,22.1210938 4.95859375,22.1210938 C4.95859375,22.45625 5.15,22.6 5.48515625,22.6 C5.48515625,22.6 5.48515625,22.6 5.48515625,22.6 C5.48515625,22.6 19.1828125,22.6 19.1828125,22.6 C19.5179687,22.6 19.709375,22.45625 19.709375,22.1210938 Z M14.2976563,19.678125 C14.2976563,19.678125 14.2976563,19.678125 14.2976563,19.678125 C14.2976563,19.9171875 14.2015625,20.1570312 14.0101563,20.3484375 C13.81875,20.5398438 13.5789063,20.6359375 13.2914063,20.6359375 C13.2914063,20.6359375 13.2914063,20.6359375 13.2914063,20.6359375 C13.2914063,20.6359375 11.3757813,20.6359375 11.3757813,20.6359375 C11.0882813,20.6359375 10.8492188,20.5398437 10.6570313,20.3484375 C10.4648438,20.1570313 10.3695313,19.9171875 10.3695313,19.678125 C10.3695313,19.678125 10.3695313,19.678125 10.3695313,19.678125 C10.3695313,19.390625 10.465625,19.1515625 10.6570313,18.959375 C10.8484375,18.7671875 11.0882813,18.671875 11.3757813,18.671875 C11.3757813,18.671875 11.3757813,18.671875 11.3757813,18.671875 C11.3757813,18.671875 13.2914063,18.671875 13.2914063,18.671875 C13.5789063,18.671875 13.8179688,18.7679688 14.0101563,18.959375 C14.2023438,19.1507812 14.2976563,19.390625 14.2976563,19.678125 Z"/>
  <title>Lock Open</title>
</svg>