<svg xmlns="http://www.w3.org/2000/svg" viewBox="0 0 25 25" id="magnet-solid">
  <path d="M22.59375,1 C22.59375,1 16.703125,1 16.703125,1 C16.703125,1 16.703125,14.21875 16.703125,14.21875 C16.703125,15.4164062 16.271875,16.4695313 15.4101562,17.3320312 C14.5484375,18.2421875 13.4945313,18.6726563 12.296875,18.6726563 C11.0992187,18.6726563 10.0460938,18.2414063 9.18359375,17.3320312 C8.321875,16.4703125 7.890625,15.4164062 7.890625,14.21875 C7.890625,14.21875 7.890625,14.21875 7.890625,14.21875 C7.890625,14.21875 7.890625,1 7.890625,1 C7.890625,1 2,1 2,1 C2,1 2,14.21875 2,14.21875 C2,17.0445313 3.00546875,19.4867188 5.0171875,21.4984375 C7.02890625,23.5101562 9.47109375,24.515625 12.296875,24.515625 C15.1226563,24.515625 17.5648438,23.5101562 19.5765625,21.4984375 C21.5882812,19.4867187 22.59375,17.0445312 22.59375,14.21875 C22.59375,14.21875 22.59375,14.21875 22.59375,14.21875 C22.59375,14.21875 22.59375,1 22.59375,1 Z M6.884375,1.9578125 C6.884375,1.9578125 6.884375,3.92109375 6.884375,3.92109375 C6.884375,3.92109375 2.95703125,3.92109375 2.95703125,3.92109375 C2.95703125,3.92109375 2.95703125,1.9578125 2.95703125,1.9578125 C2.95703125,1.9578125 6.884375,1.9578125 6.884375,1.9578125 Z M21.6359375,1.9578125 C21.6359375,1.9578125 21.6359375,3.92109375 21.6359375,3.92109375 C21.6359375,3.92109375 17.7085938,3.92109375 17.7085938,3.92109375 C17.7085938,3.92109375 17.7085938,1.9578125 17.7085938,1.9578125 C17.7085938,1.9578125 21.6359375,1.9578125 21.6359375,1.9578125 Z"/>
  <title>Magnet Solid</title>
</svg>