<svg xmlns="http://www.w3.org/2000/svg" viewBox="0 0 25 25" id="magnet">
  <path d="M22.59375,1 C22.59375,1 16.703125,1 16.703125,1 C16.703125,1 16.703125,14.21875 16.703125,14.21875 C16.703125,15.4164062 16.271875,16.4695313 15.4101562,17.3320312 C14.5484375,18.2421875 13.4945313,18.6726563 12.296875,18.6726563 C11.0992187,18.6726563 10.0460938,18.2414063 9.18359375,17.3320312 C8.321875,16.4703125 7.890625,15.4164062 7.890625,14.21875 C7.890625,14.21875 7.890625,14.21875 7.890625,14.21875 C7.890625,14.21875 7.890625,1 7.890625,1 C7.890625,1 2,1 2,1 C2,1 2,14.21875 2,14.21875 C2,17.0445313 3.00546875,19.4867188 5.0171875,21.4984375 C7.02890625,23.5101562 9.47109375,24.515625 12.296875,24.515625 C15.1226563,24.515625 17.5648438,23.5101562 19.5765625,21.4984375 C21.5882812,19.4867187 22.59375,17.0445312 22.59375,14.21875 C22.59375,14.21875 22.59375,14.21875 22.59375,14.21875 C22.59375,14.21875 22.59375,1 22.59375,1 Z M2.9578125,3.921875 C2.9578125,3.921875 2.9578125,1.95859375 2.9578125,1.95859375 C2.9578125,1.95859375 6.88515625,1.95859375 6.88515625,1.95859375 C6.88515625,1.95859375 6.88515625,3.921875 6.88515625,3.921875 C6.88515625,3.921875 2.9578125,3.921875 2.9578125,3.921875 Z M21.6359375,4.92734375 C21.6359375,4.92734375 21.6359375,14.21875 21.6359375,14.21875 C21.6359375,16.8046875 20.7257812,19.0078125 18.90625,20.828125 C17.0382812,22.6476562 14.8351562,23.5578125 12.296875,23.5578125 C9.75859375,23.5578125 7.55546875,22.6476562 5.7359375,20.828125 C3.86796875,19.0085937 2.9578125,16.8054687 2.9578125,14.21875 C2.9578125,14.21875 2.9578125,14.21875 2.9578125,14.21875 C2.9578125,14.21875 2.9578125,4.92734375 2.9578125,4.92734375 C2.9578125,4.92734375 6.88515625,4.92734375 6.88515625,4.92734375 C6.88515625,4.92734375 6.88515625,14.21875 6.88515625,14.21875 C6.88515625,15.703125 7.41171875,16.996875 8.465625,18.05 C9.51953125,19.103125 10.8125,19.6304687 12.296875,19.6304687 C13.78125,19.6304687 15.075,19.1039063 16.128125,18.05 C17.18125,16.9960938 17.7085937,15.703125 17.7085937,14.21875 C17.7085937,14.21875 17.7085937,14.21875 17.7085937,14.21875 C17.7085937,14.21875 17.7085937,4.92734375 17.7085937,4.92734375 C17.7085937,4.92734375 21.6359375,4.92734375 21.6359375,4.92734375 Z M21.6359375,1.9578125 C21.6359375,1.9578125 21.6359375,3.92109375 21.6359375,3.92109375 C21.6359375,3.92109375 17.7085938,3.92109375 17.7085938,3.92109375 C17.7085938,3.92109375 17.7085938,1.9578125 17.7085938,1.9578125 C17.7085938,1.9578125 21.6359375,1.9578125 21.6359375,1.9578125 Z"/>
  <title>Magnet</title>
</svg>