<svg xmlns="http://www.w3.org/2000/svg" viewBox="0 0 25 25" id="mailbox-solid">
  <path d="M20.6367187,3.96875 C20.6367187,3.96875 20.6367187,3.96875 20.6367187,3.96875 C20.6367187,3.96875 16.709375,3.96875 16.709375,3.96875 C16.709375,3.96875 16.709375,8.375 16.709375,8.375 C16.709375,8.71015625 16.565625,8.85390625 16.2304687,8.85390625 C15.8953125,8.85390625 15.7515625,8.71015625 15.7515625,8.375 C15.7515625,8.375 15.7515625,8.375 15.7515625,8.375 C15.7515625,8.375 15.7515625,2.484375 15.7515625,2.484375 C15.7515625,2.14921875 15.8953125,2.00546875 16.2304687,2.00546875 C16.2304687,2.00546875 16.2304687,2.00546875 16.2304687,2.00546875 C16.2304687,2.00546875 18.19375,2.00546875 18.19375,2.00546875 C18.5289062,2.00546875 18.6726562,1.86171875 18.6726562,1.5265625 C18.6726562,1.5265625 18.6726562,1.5265625 18.6726562,1.5265625 C18.6726562,1.19140625 18.5289062,1 18.19375,1 C18.19375,1 18.19375,1 18.19375,1 C18.19375,1 16.2304687,1 16.2304687,1 C15.7992187,1 15.4640625,1.14375 15.1765625,1.43125 C14.8890625,1.71875 14.7453125,2.05390625 14.7453125,2.48515625 C14.7453125,2.48515625 14.7453125,2.48515625 14.7453125,2.48515625 C14.7453125,2.48515625 14.7453125,3.96953125 14.7453125,3.96953125 C14.7453125,3.96953125 5.9328125,3.96953125 5.9328125,3.96953125 C4.54375,3.96953125 3.39453125,4.4484375 2.43671875,5.40625 C1.47890625,6.3640625 1,7.51328125 1,8.8546875 C1,8.8546875 1,8.8546875 1,8.8546875 C1,8.8546875 1,15.2242188 1,15.2242188 C1,15.6554688 1.14375,15.990625 1.43125,16.278125 C1.71875,16.565625 2.05390625,16.709375 2.48515625,16.709375 C2.48515625,16.709375 2.48515625,16.709375 2.48515625,16.709375 C2.48515625,16.709375 13.7875,16.709375 13.7875,16.709375 C13.7875,16.709375 13.7875,23.5578125 13.7875,23.5578125 C13.7875,23.5578125 12.303125,23.5578125 12.303125,23.5578125 C11.9679688,23.5578125 11.8242188,23.7492188 11.8242188,24.084375 C11.8242188,24.084375 11.8242188,24.084375 11.8242188,24.084375 C11.8242188,24.4195312 11.9679688,24.5632812 12.303125,24.5632812 C12.303125,24.5632812 12.303125,24.5632812 12.303125,24.5632812 C12.303125,24.5632812 17.1882812,24.5632812 17.1882812,24.5632812 C17.5234375,24.5632812 17.7148437,24.4195312 17.7148437,24.084375 C17.7148437,24.084375 17.7148437,24.084375 17.7148437,24.084375 C17.7148437,23.7492188 17.5234375,23.5578125 17.1882812,23.5578125 C17.1882812,23.5578125 17.1882812,23.5578125 17.1882812,23.5578125 C17.1882812,23.5578125 15.7515625,23.5578125 15.7515625,23.5578125 C15.7515625,23.5578125 15.7515625,16.709375 15.7515625,16.709375 C15.7515625,16.709375 22.1210938,16.709375 22.1210938,16.709375 C22.5523438,16.709375 22.8875,16.565625 23.175,16.278125 C23.4625,15.990625 23.60625,15.6554688 23.60625,15.2242188 C23.60625,15.2242188 23.60625,15.2242188 23.60625,15.2242188 C23.60625,15.2242188 23.60625,6.890625 23.60625,6.890625 C23.60625,6.0765625 23.31875,5.40625 22.7445312,4.83125 C22.1703125,4.25625 21.4515625,3.96953125 20.6375,3.96953125 L20.6367187,3.96875 Z M9.8609375,8.85390625 C9.8609375,8.85390625 9.8609375,15.7507813 9.8609375,15.7507813 C9.8609375,15.7507813 2.48515625,15.7507813 2.48515625,15.7507813 C2.15,15.7507813 2.00625,15.559375 2.00625,15.2242188 C2.00625,15.2242188 2.00625,15.2242188 2.00625,15.2242188 C2.00625,15.2242188 2.00625,8.8546875 2.00625,8.8546875 C2.00625,7.753125 2.3890625,6.84296875 3.15546875,6.0765625 C3.921875,5.31015625 4.83203125,4.92734375 5.93359375,4.92734375 C7.03515625,4.92734375 7.9453125,5.31015625 8.71171875,6.0765625 C9.478125,6.84296875 9.8609375,7.753125 9.8609375,8.8546875 C9.8609375,8.8546875 9.8609375,8.8546875 9.8609375,8.8546875 L9.8609375,8.85390625 Z M3.49140625,12.78125 C3.49140625,12.78125 8.3765625,12.78125 8.3765625,12.78125 C8.71171875,12.78125 8.85546875,12.925 8.85546875,13.2601562 C8.85546875,13.2601562 8.85546875,13.2601562 8.85546875,13.2601562 C8.85546875,13.5953125 8.71171875,13.7867187 8.3765625,13.7867187 C8.3765625,13.7867187 8.3765625,13.7867187 8.3765625,13.7867187 C8.3765625,13.7867187 3.49140625,13.7867187 3.49140625,13.7867187 C3.15625,13.7867187 2.96484375,13.5953125 2.96484375,13.2601562 C2.96484375,13.2601562 2.96484375,13.2601562 2.96484375,13.2601562 C2.96484375,12.925 3.15625,12.78125 3.49140625,12.78125 C3.49140625,12.78125 3.49140625,12.78125 3.49140625,12.78125 Z"/>
  <title>Mailbox Solid</title>
</svg>