<svg xmlns="http://www.w3.org/2000/svg" viewBox="0 0 25 25" id="mail-plus-solid">
  <path d="M24.0421875,4.96875 C24.3773438,4.96875 24.5210937,5.1125 24.5210937,5.44765625 C24.5210937,5.7828125 24.3773438,5.9265625 24.0421875,5.9265625 C24.0421875,5.9265625 24.0421875,5.9265625 24.0421875,5.9265625 C24.0421875,5.9265625 21.6,5.9265625 21.6,5.9265625 C21.6,5.9265625 21.6,8.36875 21.6,8.36875 C21.6,8.70390625 21.4085937,8.8953125 21.0734375,8.8953125 C21.0734375,8.8953125 21.0734375,8.8953125 21.0734375,8.8953125 C20.7382812,8.8953125 20.5945312,8.70390625 20.5945312,8.36875 C20.5945312,8.36875 20.5945312,8.36875 20.5945312,8.36875 C20.5945312,8.36875 20.5945312,5.9265625 20.5945312,5.9265625 C20.5945312,5.9265625 18.1523438,5.9265625 18.1523438,5.9265625 C17.8171875,5.9265625 17.6734375,5.7828125 17.6734375,5.44765625 C17.6734375,5.1125 17.8171875,4.96875 18.1523438,4.96875 C18.1523438,4.96875 18.1523438,4.96875 18.1523438,4.96875 C18.1523438,4.96875 20.5945312,4.96875 20.5945312,4.96875 C20.5945312,4.96875 20.5945312,2.5265625 20.5945312,2.5265625 C20.5945312,2.19140625 20.7382812,2 21.0734375,2 C21.0734375,2 21.0734375,2 21.0734375,2 C21.4085937,2 21.6,2.19140625 21.6,2.5265625 C21.6,2.5265625 21.6,2.5265625 21.6,2.5265625 C21.6,2.5265625 21.6,4.96875 21.6,4.96875 C21.6,4.96875 24.0421875,4.96875 24.0421875,4.96875 Z M18.1515625,6.93203125 C18.1515625,6.93203125 18.1515625,6.93203125 18.1515625,6.93203125 C18.1515625,6.93203125 1.48515625,6.93203125 1.48515625,6.93203125 C1.05390625,6.93203125 0.71875,7.07578125 0.43125,7.36328125 C0.14375,7.65078125 1.77635684e-15,7.9859375 1.77635684e-15,8.36875 C1.77635684e-15,8.36875 1.77635684e-15,8.36875 1.77635684e-15,8.36875 C1.77635684e-15,8.36875 1.77635684e-15,8.70390625 1.77635684e-15,8.70390625 C1.77635684e-15,8.70390625 9.0515625,14.546875 9.0515625,14.546875 C9.290625,14.690625 9.578125,14.7859375 9.81796875,14.7859375 C10.0578125,14.7859375 10.3445313,14.6898437 10.584375,14.546875 C10.584375,14.546875 10.584375,14.546875 10.584375,14.546875 C10.584375,14.546875 19.6359375,8.70390625 19.6359375,8.70390625 C19.6359375,8.70390625 19.6359375,8.36875 19.6359375,8.36875 C19.6359375,7.9859375 19.4921875,7.65 19.2046875,7.36328125 C18.9171875,7.0765625 18.5820312,6.93203125 18.1507813,6.93203125 L18.1515625,6.93203125 Z M9.81796875,15.7445312 C9.81796875,15.7445312 9.81796875,15.7445312 9.81796875,15.7445312 C9.38671875,15.7445312 8.95625,15.6484375 8.525,15.409375 C8.525,15.409375 8.525,15.409375 8.525,15.409375 C8.525,15.409375 0,9.85390625 0,9.85390625 C0,9.85390625 0,20.1507813 0,20.1507813 C0,20.5820312 0.14375,20.9171875 0.43125,21.2046875 C0.71875,21.4921875 1.05390625,21.6359375 1.48515625,21.6359375 C1.48515625,21.6359375 1.48515625,21.6359375 1.48515625,21.6359375 C1.48515625,21.6359375 18.1515625,21.6359375 18.1515625,21.6359375 C18.5828125,21.6359375 18.9179688,21.4921875 19.2054688,21.2046875 C19.4929687,20.9171875 19.6367188,20.5820312 19.6367188,20.1507813 C19.6367188,20.1507813 19.6367188,20.1507813 19.6367188,20.1507813 C19.6367188,20.1507813 19.6367188,9.85390625 19.6367188,9.85390625 C19.6367188,9.85390625 11.0640625,15.409375 11.0640625,15.409375 C10.6328125,15.6484375 10.2023437,15.7445313 9.81875,15.7445313 L9.81796875,15.7445312 Z"/>
  <title>Mail Plus Solid</title>
</svg>