<svg xmlns="http://www.w3.org/2000/svg" viewBox="0 0 25 25" id="mail-check-solid">
  <path d="M24.3773438,2.8609375 C24.3773438,2.8609375 24.3773438,2.8609375 24.3773438,2.8609375 C24.3773438,2.8609375 20.45,6.78828125 20.45,6.78828125 C20.3539063,6.884375 20.2585938,6.93203125 20.1148438,6.93203125 C19.9710938,6.93203125 19.8757813,6.884375 19.7796875,6.78828125 C19.7796875,6.78828125 19.7796875,6.78828125 19.7796875,6.78828125 C19.7796875,6.78828125 17.8164063,5.3515625 17.8164063,5.3515625 C17.7203125,5.25546875 17.6726563,5.1125 17.6726563,4.96875 C17.6726563,4.96875 17.6726563,4.96875 17.6726563,4.96875 C17.6726563,4.63359375 17.8164063,4.48984375 18.1515625,4.48984375 C18.1515625,4.48984375 18.1515625,4.48984375 18.1515625,4.48984375 C18.2953125,4.48984375 18.390625,4.5375 18.4390625,4.5859375 C18.4390625,4.5859375 18.4390625,4.5859375 18.4390625,4.5859375 C18.4390625,4.5859375 20.0671875,5.78359375 20.0671875,5.78359375 C20.0671875,5.78359375 23.7070313,2.14375 23.7070313,2.14375 C23.7546875,2.04765625 23.8507813,2 24.0421875,2 C24.0421875,2 24.0421875,2 24.0421875,2 C24.3773438,2 24.5210938,2.14375 24.5210938,2.47890625 C24.5210938,2.47890625 24.5210938,2.47890625 24.5210938,2.47890625 C24.5210938,2.62265625 24.4734375,2.76640625 24.3773438,2.86171875 L24.3773438,2.8609375 Z M18.1515625,6.93203125 C18.1515625,6.93203125 18.1515625,6.93203125 18.1515625,6.93203125 C18.1515625,6.93203125 1.48515625,6.93203125 1.48515625,6.93203125 C1.05390625,6.93203125 0.71875,7.07578125 0.43125,7.36328125 C0.14375,7.65078125 1.77635684e-15,7.9859375 1.77635684e-15,8.36875 C1.77635684e-15,8.36875 1.77635684e-15,8.36875 1.77635684e-15,8.36875 C1.77635684e-15,8.36875 1.77635684e-15,8.70390625 1.77635684e-15,8.70390625 C1.77635684e-15,8.70390625 9.0515625,14.546875 9.0515625,14.546875 C9.290625,14.690625 9.578125,14.7859375 9.81796875,14.7859375 C10.0578125,14.7859375 10.3445313,14.6898438 10.584375,14.546875 C10.584375,14.546875 10.584375,14.546875 10.584375,14.546875 C10.584375,14.546875 19.6359375,8.70390625 19.6359375,8.70390625 C19.6359375,8.70390625 19.6359375,8.36875 19.6359375,8.36875 C19.6359375,7.9859375 19.4921875,7.65 19.2046875,7.36328125 C18.9171875,7.0765625 18.5820312,6.93203125 18.1507813,6.93203125 L18.1515625,6.93203125 Z M9.81796875,15.7445313 C9.81796875,15.7445313 9.81796875,15.7445313 9.81796875,15.7445313 C9.38671875,15.7445313 8.95625,15.6484375 8.525,15.409375 C8.525,15.409375 8.525,15.409375 8.525,15.409375 C8.525,15.409375 0,9.85390625 0,9.85390625 C0,9.85390625 0,20.1507813 0,20.1507813 C0,20.5820312 0.14375,20.9171875 0.43125,21.2046875 C0.71875,21.4921875 1.05390625,21.6359375 1.48515625,21.6359375 C1.48515625,21.6359375 1.48515625,21.6359375 1.48515625,21.6359375 C1.48515625,21.6359375 18.1515625,21.6359375 18.1515625,21.6359375 C18.5828125,21.6359375 18.9179688,21.4921875 19.2054688,21.2046875 C19.4929687,20.9171875 19.6367188,20.5820312 19.6367188,20.1507813 C19.6367188,20.1507813 19.6367188,20.1507813 19.6367188,20.1507813 C19.6367188,20.1507813 19.6367188,9.85390625 19.6367188,9.85390625 C19.6367188,9.85390625 11.0640625,15.409375 11.0640625,15.409375 C10.6328125,15.6484375 10.2023437,15.7445313 9.81875,15.7445313 L9.81796875,15.7445313 Z"/>
  <title>Mail Check Solid</title>
</svg>