<svg xmlns="http://www.w3.org/2000/svg" viewBox="0 0 25 25" id="mail-check">
  <path d="M18.1515625,7.8890625 C18.1515625,7.8890625 18.1515625,7.8890625 18.1515625,7.8890625 C18.1515625,7.8890625 1.48515625,7.8890625 1.48515625,7.8890625 C1.05390625,7.8890625 0.71875,8.0328125 0.43125,8.3203125 C0.14375,8.6078125 0,8.94296875 0,9.37421875 C0,9.37421875 0,9.37421875 0,9.37421875 C0,9.37421875 0,21.1554688 0,21.1554688 C0,21.5867187 0.14375,21.921875 0.43125,22.209375 C0.71875,22.496875 1.05390625,22.640625 1.48515625,22.640625 C1.48515625,22.640625 1.48515625,22.640625 1.48515625,22.640625 C1.48515625,22.640625 18.1515625,22.640625 18.1515625,22.640625 C18.5828125,22.640625 18.9179688,22.496875 19.2054688,22.209375 C19.4929687,21.921875 19.6367188,21.5867187 19.6367188,21.1554688 C19.6367188,21.1554688 19.6367188,21.1554688 19.6367188,21.1554688 C19.6367188,21.1554688 19.6367188,9.37421875 19.6367188,9.37421875 C19.6367188,8.94296875 19.4929687,8.6078125 19.2054688,8.3203125 C18.9179688,8.0328125 18.5828125,7.8890625 18.1515625,7.8890625 Z M18.6304687,11.48125 C18.6304687,11.48125 18.6304687,21.1554687 18.6304687,21.1554687 C18.6304687,21.490625 18.4867187,21.634375 18.1515625,21.634375 C18.1515625,21.634375 18.1515625,21.634375 18.1515625,21.634375 C18.1515625,21.634375 1.48515625,21.634375 1.48515625,21.634375 C1.15,21.634375 0.95859375,21.490625 0.95859375,21.1554687 C0.95859375,21.1554687 0.95859375,21.1554687 0.95859375,21.1554687 C0.95859375,21.1554687 0.95859375,11.48125 0.95859375,11.48125 C0.95859375,11.48125 8.76484375,16.4617187 8.76484375,16.4617187 C9.05234375,16.653125 9.3875,16.7492187 9.81875,16.7492187 C10.25,16.7492187 10.5851563,16.653125 10.8726563,16.4617187 C10.8726563,16.4617187 10.8726563,16.4617187 10.8726563,16.4617187 C10.8726563,16.4617187 18.63125,11.48125 18.63125,11.48125 L18.6304687,11.48125 Z M18.6304687,9.37421875 C18.6304687,9.37421875 18.6304687,10.3320312 18.6304687,10.3320312 C18.6304687,10.3320312 10.3453125,15.6484375 10.3453125,15.6484375 C10.2015625,15.7445313 10.0578125,15.7921875 9.81875,15.7921875 C9.81875,15.7921875 9.81875,15.7921875 9.81875,15.7921875 C9.62734375,15.7921875 9.4359375,15.7445313 9.2921875,15.6484375 C9.2921875,15.6484375 9.2921875,15.6484375 9.2921875,15.6484375 C9.2921875,15.6484375 0.95859375,10.3320312 0.95859375,10.3320312 C0.95859375,10.3320312 0.95859375,9.37421875 0.95859375,9.37421875 C0.95859375,9.0390625 1.15,8.8953125 1.48515625,8.8953125 C1.48515625,8.8953125 1.48515625,8.8953125 1.48515625,8.8953125 C1.48515625,8.8953125 18.1515625,8.8953125 18.1515625,8.8953125 C18.4867187,8.8953125 18.6304687,9.0390625 18.6304687,9.37421875 C18.6304687,9.37421875 18.6304687,9.37421875 18.6304687,9.37421875 Z M24.3773437,2.8609375 C24.3773437,2.8609375 24.3773437,2.8609375 24.3773437,2.8609375 C24.3773437,2.8609375 20.45,6.78828125 20.45,6.78828125 C20.3539062,6.884375 20.2585937,6.93203125 20.1148437,6.93203125 C19.9710938,6.93203125 19.8757812,6.884375 19.7796875,6.78828125 C19.7796875,6.78828125 19.7796875,6.78828125 19.7796875,6.78828125 C19.7796875,6.78828125 17.8164062,5.3515625 17.8164062,5.3515625 C17.7203125,5.25546875 17.6726562,5.1125 17.6726562,4.96875 C17.6726562,4.96875 17.6726562,4.96875 17.6726562,4.96875 C17.6726562,4.63359375 17.8164062,4.48984375 18.1515625,4.48984375 C18.1515625,4.48984375 18.1515625,4.48984375 18.1515625,4.48984375 C18.2953125,4.48984375 18.390625,4.5375 18.4390625,4.5859375 C18.4390625,4.5859375 18.4390625,4.5859375 18.4390625,4.5859375 C18.4390625,4.5859375 20.0671875,5.78359375 20.0671875,5.78359375 C20.0671875,5.78359375 23.7070312,2.14375 23.7070312,2.14375 C23.803125,2.04765625 23.8984375,2 24.0421875,2 C24.0421875,2 24.0421875,2 24.0421875,2 C24.3773437,2 24.5210937,2.19140625 24.5210937,2.5265625 C24.5210937,2.5265625 24.5210937,2.5265625 24.5210937,2.5265625 C24.5210937,2.6703125 24.4734375,2.76640625 24.3773437,2.86171875 L24.3773437,2.8609375 Z"/>
  <title>Mail Check</title>
</svg>