<svg xmlns="http://www.w3.org/2000/svg" viewBox="0 0 25 25" id="mail-plus">
  <path d="M18.1515625,7.88984375 C18.1515625,7.88984375 18.1515625,7.88984375 18.1515625,7.88984375 C18.1515625,7.88984375 1.48515625,7.88984375 1.48515625,7.88984375 C0.8625,7.88984375 0.38359375,8.17734375 0.09609375,8.8 C0.09609375,8.8 0.09609375,8.8 0.09609375,8.8 C0.0484375,8.99140625 0,13.1101562 0,21.15625 C0,21.15625 0,21.15625 0,21.15625 C0,21.5875 0.14375,21.9226562 0.43125,22.2101562 C0.71875,22.4976562 1.05390625,22.6414062 1.48515625,22.6414062 C1.48515625,22.6414062 1.48515625,22.6414062 1.48515625,22.6414062 C1.48515625,22.6414062 18.1515625,22.6414062 18.1515625,22.6414062 C18.5828125,22.6414062 18.9179688,22.4976562 19.2054688,22.2101562 C19.4929687,21.9226562 19.6367188,21.5875 19.6367188,21.15625 C19.6367188,21.15625 19.6367188,21.15625 19.6367188,21.15625 C19.6367188,13.1578125 19.5890625,9.0390625 19.4929687,8.8 C19.4929687,8.8 19.4929687,8.8 19.4929687,8.8 C19.2054688,8.17734375 18.7742187,7.88984375 18.1523438,7.88984375 L18.1515625,7.88984375 Z M18.6304687,11.4820313 C18.6304687,11.4820313 18.6304687,21.15625 18.6304687,21.15625 C18.6304687,21.4914062 18.4867187,21.6351563 18.1515625,21.6351563 C18.1515625,21.6351563 18.1515625,21.6351563 18.1515625,21.6351563 C18.1515625,21.6351563 1.48515625,21.6351563 1.48515625,21.6351563 C1.15,21.6351563 0.95859375,21.4914062 0.95859375,21.15625 C0.95859375,21.15625 0.95859375,21.15625 0.95859375,21.15625 C0.95859375,21.15625 0.95859375,11.4820313 0.95859375,11.4820313 C0.95859375,11.4820313 8.76484375,16.4625 8.76484375,16.4625 C9.05234375,16.6539063 9.3875,16.75 9.81875,16.75 C10.25,16.75 10.5851563,16.6539062 10.8726563,16.4625 C10.8726563,16.4625 10.8726563,16.4625 10.8726563,16.4625 C10.8726563,16.4625 18.63125,11.4820313 18.63125,11.4820313 L18.6304687,11.4820313 Z M18.6304687,9.375 C18.6304687,9.375 18.6304687,10.3328125 18.6304687,10.3328125 C18.6304687,10.3328125 10.3453125,15.6492187 10.3453125,15.6492187 C10.2015625,15.7453125 10.0578125,15.7929688 9.81875,15.7929688 C9.81875,15.7929688 9.81875,15.7929688 9.81875,15.7929688 C9.62734375,15.7929688 9.4359375,15.7453125 9.2921875,15.6492187 C9.2921875,15.6492187 9.2921875,15.6492187 9.2921875,15.6492187 C9.2921875,15.6492187 0.95859375,10.3328125 0.95859375,10.3328125 C0.95859375,10.3328125 0.95859375,9.375 0.95859375,9.375 C0.95859375,9.03984375 1.15,8.89609375 1.48515625,8.89609375 C1.48515625,8.89609375 1.48515625,8.89609375 1.48515625,8.89609375 C1.48515625,8.89609375 18.1515625,8.89609375 18.1515625,8.89609375 C18.4867187,8.89609375 18.6304687,9.03984375 18.6304687,9.375 C18.6304687,9.375 18.6304687,9.375 18.6304687,9.375 L18.6304687,9.375 Z M24.0421875,4.96875 C24.3773438,4.96875 24.5210937,5.1125 24.5210937,5.44765625 C24.5210937,5.7828125 24.3773438,5.9265625 24.0421875,5.9265625 C24.0421875,5.9265625 24.0421875,5.9265625 24.0421875,5.9265625 C24.0421875,5.9265625 21.6,5.9265625 21.6,5.9265625 C21.6,5.9265625 21.6,8.4171875 21.6,8.4171875 C21.6,8.75234375 21.4085937,8.89609375 21.0734375,8.89609375 C21.0734375,8.89609375 21.0734375,8.89609375 21.0734375,8.89609375 C20.7382812,8.89609375 20.5945312,8.75234375 20.5945312,8.4171875 C20.5945312,8.4171875 20.5945312,8.4171875 20.5945312,8.4171875 C20.5945312,8.4171875 20.5945312,5.9265625 20.5945312,5.9265625 C20.5945312,5.9265625 18.1523438,5.9265625 18.1523438,5.9265625 C17.8171875,5.9265625 17.6734375,5.7828125 17.6734375,5.44765625 C17.6734375,5.1125 17.8171875,4.96875 18.1523438,4.96875 C18.1523438,4.96875 18.1523438,4.96875 18.1523438,4.96875 C18.1523438,4.96875 20.5945312,4.96875 20.5945312,4.96875 C20.5945312,4.96875 20.5945312,2.5265625 20.5945312,2.5265625 C20.5945312,2.19140625 20.7382812,2 21.0734375,2 C21.0734375,2 21.0734375,2 21.0734375,2 C21.4085937,2 21.6,2.19140625 21.6,2.5265625 C21.6,2.5265625 21.6,2.5265625 21.6,2.5265625 C21.6,2.5265625 21.6,4.96875 21.6,4.96875 C21.6,4.96875 24.0421875,4.96875 24.0421875,4.96875 Z"/>
  <title>Mail Plus</title>
</svg>