<svg xmlns="http://www.w3.org/2000/svg" viewBox="0 0 25 25" id="mailbox">
  <path d="M20.6351563,3.9203125 C20.6351563,3.9203125 20.6351563,3.9203125 20.6351563,3.9203125 C20.6351563,3.9203125 16.7078125,3.9203125 16.7078125,3.9203125 C16.7078125,3.9203125 16.7078125,4.92578125 16.7078125,4.92578125 C16.7078125,4.92578125 20.6351563,4.92578125 20.6351563,4.92578125 C21.1617187,4.92578125 21.640625,5.1171875 22.0242187,5.50078125 C22.4078125,5.884375 22.5992187,6.3625 22.5992187,6.88984375 C22.5992187,6.88984375 22.5992187,6.88984375 22.5992187,6.88984375 C22.5992187,6.88984375 22.5992187,15.2234375 22.5992187,15.2234375 C22.5992187,15.5585938 22.4078125,15.7023437 22.0726563,15.7023437 C22.0726563,15.7023437 22.0726563,15.7023437 22.0726563,15.7023437 C22.0726563,15.7023437 10.8179688,15.7023437 10.8179688,15.7023437 C10.8179688,15.7023437 10.8179688,8.85390625 10.8179688,8.85390625 C10.8179688,7.22578125 10.1476562,5.9328125 8.8546875,4.9265625 C8.8546875,4.9265625 8.8546875,4.9265625 8.8546875,4.9265625 C8.8546875,4.9265625 14.7453125,4.9265625 14.7453125,4.9265625 C14.7453125,4.9265625 14.7453125,8.375 14.7453125,8.375 C14.7453125,8.71015625 14.8890625,8.85390625 15.2242187,8.85390625 C15.559375,8.85390625 15.703125,8.71015625 15.703125,8.375 C15.703125,8.375 15.703125,8.375 15.703125,8.375 C15.703125,8.375 15.703125,2.484375 15.703125,2.484375 C15.703125,2.14921875 15.846875,1.9578125 16.1820312,1.9578125 C16.1820312,1.9578125 16.1820312,1.9578125 16.1820312,1.9578125 C16.1820312,1.9578125 18.1453125,1.9578125 18.1453125,1.9578125 C18.4804687,1.9578125 18.671875,1.8140625 18.671875,1.47890625 C18.671875,1.14375 18.4804687,1 18.1453125,1 C18.1453125,1 18.1453125,1 18.1453125,1 C18.1453125,1 16.1820312,1 16.1820312,1 C15.7507812,1 15.415625,1.14375 15.1765625,1.43125 C14.8890625,1.71875 14.7453125,2.05390625 14.7453125,2.48515625 C14.7453125,2.48515625 14.7453125,2.48515625 14.7453125,2.48515625 C14.7453125,2.48515625 14.7453125,3.921875 14.7453125,3.921875 C14.7453125,3.921875 5.88515625,3.921875 5.88515625,3.921875 C4.54453125,3.921875 3.39453125,4.40078125 2.43671875,5.35859375 C1.47890625,6.31640625 1,7.465625 1,8.8546875 C1,8.8546875 1,8.8546875 1,8.8546875 C1,8.8546875 1,15.2242187 1,15.2242187 C1,15.6554687 1.14375,15.990625 1.43125,16.278125 C1.71875,16.565625 2.05390625,16.709375 2.48515625,16.709375 C2.48515625,16.709375 2.48515625,16.709375 2.48515625,16.709375 C2.48515625,16.709375 12.7820313,16.709375 12.7820313,16.709375 C12.7820313,16.709375 12.7820313,23.5578125 12.7820313,23.5578125 C12.7820313,23.5578125 12.303125,23.5578125 12.303125,23.5578125 C11.9679688,23.5578125 11.7765625,23.7015625 11.7765625,24.0367187 C11.7765625,24.0367187 11.7765625,24.0367187 11.7765625,24.0367187 C11.7765625,24.371875 11.9679688,24.5632812 12.303125,24.5632812 C12.303125,24.5632812 12.303125,24.5632812 12.303125,24.5632812 C12.303125,24.5632812 17.1882812,24.5632812 17.1882812,24.5632812 C17.5234375,24.5632812 17.6671875,24.371875 17.6671875,24.0367187 C17.6671875,24.0367187 17.6671875,24.0367187 17.6671875,24.0367187 C17.6671875,23.7015625 17.5234375,23.5578125 17.1882812,23.5578125 C17.1882812,23.5578125 17.1882812,23.5578125 17.1882812,23.5578125 C17.1882812,23.5578125 16.709375,23.5578125 16.709375,23.5578125 C16.709375,23.5578125 16.709375,16.709375 16.709375,16.709375 C16.709375,16.709375 22.0734375,16.709375 22.0734375,16.709375 C22.5046875,16.709375 22.8398438,16.565625 23.1273438,16.278125 C23.4148437,15.990625 23.5585938,15.6554688 23.5585938,15.2242188 C23.5585938,15.2242188 23.5585938,15.2242188 23.5585938,15.2242188 C23.5585938,15.2242188 23.5585938,6.890625 23.5585938,6.890625 C23.5585938,6.0765625 23.2710938,5.3578125 22.696875,4.78359375 C22.1226562,4.209375 21.4515625,3.921875 20.6375,3.921875 L20.6351563,3.9203125 Z M9.81171875,8.853125 C9.81171875,8.853125 9.81171875,15.7015625 9.81171875,15.7015625 C9.81171875,15.7015625 2.484375,15.7015625 2.484375,15.7015625 C2.14921875,15.7015625 1.9578125,15.5578125 1.9578125,15.2226563 C1.9578125,15.2226563 1.9578125,15.2226563 1.9578125,15.2226563 C1.9578125,15.2226563 1.9578125,8.853125 1.9578125,8.853125 C1.9578125,7.7515625 2.340625,6.84140625 3.10703125,6.075 C3.8734375,5.30859375 4.78359375,4.92578125 5.88515625,4.92578125 C6.98671875,4.92578125 7.896875,5.30859375 8.66328125,6.075 C9.4296875,6.84140625 9.8125,7.7515625 9.8125,8.853125 C9.8125,8.853125 9.8125,8.853125 9.8125,8.853125 L9.81171875,8.853125 Z M15.7023437,16.7070312 C15.7023437,16.7070312 15.7023437,23.5554687 15.7023437,23.5554687 C15.7023437,23.5554687 13.7390625,23.5554687 13.7390625,23.5554687 C13.7390625,23.5554687 13.7390625,16.7070312 13.7390625,16.7070312 C13.7390625,16.7070312 15.7023437,16.7070312 15.7023437,16.7070312 Z M3.4421875,12.7804688 C3.4421875,12.7804688 8.375,12.7804688 8.375,12.7804688 C8.71015625,12.7804688 8.85390625,12.9242187 8.85390625,13.259375 C8.85390625,13.5945313 8.71015625,13.7382813 8.375,13.7382813 C8.375,13.7382813 8.375,13.7382813 8.375,13.7382813 C8.375,13.7382813 3.4421875,13.7382813 3.4421875,13.7382813 C3.10703125,13.7382813 2.96328125,13.5945313 2.96328125,13.259375 C2.96328125,12.9242188 3.10703125,12.7804688 3.4421875,12.7804688 C3.4421875,12.7804688 3.4421875,12.7804688 3.4421875,12.7804688 L3.4421875,12.7804688 Z"/>
  <title>Mailbox</title>
</svg>