<svg xmlns="http://www.w3.org/2000/svg" viewBox="0 0 25 25" id="mail-solid">
  <path d="M24.521875,4.48515625 C24.521875,4.48515625 24.521875,4.48515625 24.521875,4.48515625 C24.521875,4.48515625 24.521875,5.778125 24.521875,5.778125 C24.521875,5.778125 13.0273438,12.5789062 13.0273438,12.5789062 C12.7882812,12.7226562 12.5007813,12.8179687 12.2609375,12.8179687 C12.0210937,12.8179687 11.734375,12.721875 11.4945312,12.5789062 C11.4945312,12.5789062 11.4945312,12.5789062 11.4945312,12.5789062 C11.4945312,12.5789062 0,5.778125 0,5.778125 C0,5.778125 0,4.48515625 0,4.48515625 C0,4.05390625 0.14375,3.71875 0.43125,3.43125 C0.71875,3.14375 1.05390625,3 1.48515625,3 C1.48515625,3 1.48515625,3 1.48515625,3 C1.48515625,3 23.0367187,3 23.0367187,3 C23.4679687,3 23.803125,3.14375 24.090625,3.43125 C24.378125,3.71875 24.521875,4.05390625 24.521875,4.48515625 L24.521875,4.48515625 Z M13.50625,13.440625 C13.1234375,13.6796875 12.6921875,13.7757812 12.2609375,13.7757812 C11.8296875,13.7757812 11.3992188,13.6796875 11.015625,13.440625 C11.015625,13.440625 11.015625,13.440625 11.015625,13.440625 C11.015625,13.440625 3.55271368e-15,6.92734375 3.55271368e-15,6.92734375 C3.55271368e-15,6.92734375 3.55271368e-15,20.1460937 3.55271368e-15,20.1460937 C3.55271368e-15,20.5773437 0.14375,20.9125 0.43125,21.2 C0.71875,21.4875 1.05390625,21.63125 1.48515625,21.63125 C1.48515625,21.63125 1.48515625,21.63125 1.48515625,21.63125 C1.48515625,21.63125 23.0367188,21.63125 23.0367188,21.63125 C23.4679688,21.63125 23.803125,21.4875 24.090625,21.2 C24.378125,20.9125 24.521875,20.5773437 24.521875,20.1460937 C24.521875,20.1460937 24.521875,20.1460937 24.521875,20.1460937 C24.521875,20.1460937 24.521875,6.92734375 24.521875,6.92734375 C24.521875,6.92734375 13.50625,13.440625 13.50625,13.440625 L13.50625,13.440625 Z"/>
  <title>Mail Solid</title>
</svg>