<svg xmlns="http://www.w3.org/2000/svg" viewBox="0 0 25 25" id="mail">
  <path d="M23.0367187,3 C23.0367187,3 23.0367187,3 23.0367187,3 C23.0367187,3 1.48515625,3 1.48515625,3 C1.05390625,3 0.71875,3.14375 0.43125,3.43125 C0.14375,3.71875 0,4.05390625 0,4.48515625 C0,4.48515625 0,4.48515625 0,4.48515625 C0,4.48515625 0,20.1460938 0,20.1460938 C0,20.5773438 0.14375,20.9125 0.43125,21.2 C0.71875,21.4875 1.05390625,21.63125 1.48515625,21.63125 C1.48515625,21.63125 1.48515625,21.63125 1.48515625,21.63125 C1.48515625,21.63125 23.0367187,21.63125 23.0367187,21.63125 C23.4679687,21.63125 23.803125,21.4875 24.090625,21.2 C24.378125,20.9125 24.521875,20.5773438 24.521875,20.1460938 C24.521875,20.1460938 24.521875,20.1460938 24.521875,20.1460938 C24.521875,20.1460938 24.521875,4.48515625 24.521875,4.48515625 C24.521875,4.05390625 24.378125,3.71875 24.090625,3.43125 C23.803125,3.14375 23.4679687,3 23.0367187,3 Z M23.5632813,7.5015625 C23.5632813,7.5015625 23.5632813,20.1453125 23.5632813,20.1453125 C23.5632813,20.4804688 23.371875,20.671875 23.0367188,20.671875 C23.0367188,20.671875 23.0367188,20.671875 23.0367188,20.671875 C23.0367188,20.671875 1.48515625,20.671875 1.48515625,20.671875 C1.15,20.671875 0.95859375,20.4804688 0.95859375,20.1453125 C0.95859375,20.1453125 0.95859375,20.1453125 0.95859375,20.1453125 C0.95859375,20.1453125 0.95859375,7.5015625 0.95859375,7.5015625 C0.95859375,7.5015625 11.2554688,13.5835937 11.2554688,13.5835937 C11.5429688,13.775 11.878125,13.8710937 12.2609375,13.8710937 C12.64375,13.8710937 12.9796875,13.775 13.2664062,13.5835937 C13.2664062,13.5835937 13.2664062,13.5835937 13.2664062,13.5835937 C13.2664062,13.5835937 23.5632813,7.5015625 23.5632813,7.5015625 Z M23.5632813,4.484375 C23.5632813,4.484375 23.5632813,6.35234375 23.5632813,6.35234375 C23.5632813,6.35234375 12.7398438,12.7703125 12.7398438,12.7703125 C12.5484375,12.8179688 12.4046875,12.8664063 12.2609375,12.8664063 C12.2609375,12.8664063 12.2609375,12.8664063 12.2609375,12.8664063 C12.1648437,12.8664063 11.9734375,12.81875 11.734375,12.7703125 C11.734375,12.7703125 11.734375,12.7703125 11.734375,12.7703125 C11.734375,12.7703125 0.95859375,6.35234375 0.95859375,6.35234375 C0.95859375,6.35234375 0.95859375,4.484375 0.95859375,4.484375 C0.95859375,4.14921875 1.15,3.9578125 1.48515625,3.9578125 C1.48515625,3.9578125 1.48515625,3.9578125 1.48515625,3.9578125 C1.48515625,3.9578125 23.0367188,3.9578125 23.0367188,3.9578125 C23.371875,3.9578125 23.5632813,4.14921875 23.5632813,4.484375 C23.5632813,4.484375 23.5632813,4.484375 23.5632813,4.484375 Z"/>
  <title>Mail</title>
</svg>