<svg xmlns="http://www.w3.org/2000/svg" viewBox="0 0 25 25" id="map-sigma-solid">
  <path d="M7.8546875,1.6765625 C7.8546875,1.6765625 7.8546875,23.515625 7.8546875,23.515625 C7.8546875,23.515625 13.7453125,21.8390625 13.7453125,21.8390625 C13.7453125,21.8390625 13.7453125,0 13.7453125,0 C13.7453125,0 7.8546875,1.6765625 7.8546875,1.6765625 L7.8546875,1.6765625 Z M0,1.771875 C0,1.771875 0,1.771875 0,1.771875 C0,1.771875 0,20.59375 0,20.59375 C0,21.3601563 0.3828125,21.8390625 1.1015625,21.9828125 C1.1015625,21.9828125 1.1015625,21.9828125 1.1015625,21.9828125 C1.1015625,21.9828125 6.8484375,23.515625 6.8484375,23.515625 C6.8484375,23.515625 6.8484375,1.6765625 6.8484375,1.6765625 C6.8484375,1.6765625 1.86796875,0.38359375 1.86796875,0.38359375 C1.8203125,0.3359375 1.6765625,0.3359375 1.48515625,0.3359375 C1.48515625,0.3359375 1.48515625,0.3359375 1.48515625,0.3359375 C1.05390625,0.3359375 0.71875,0.4796875 0.43125,0.7671875 C0.43125,0.7671875 0.43125,0.7671875 0.43125,0.7671875 C0.14375,1.00625 0,1.3421875 0,1.77265625 L0,1.771875 Z M16.6664063,14.703125 C16.6664063,14.703125 21.5992187,14.703125 21.5992187,14.703125 C21.5992187,14.703125 21.5992187,2.96953125 21.5992187,2.96953125 C21.5992187,2.25078125 21.2164063,1.771875 20.4976562,1.5328125 C20.4976562,1.5328125 20.4976562,1.5328125 20.4976562,1.5328125 C20.4976562,1.5328125 14.7023438,0 14.7023438,0 C14.7023438,0 14.7023438,21.8390625 14.7023438,21.8390625 C14.7023438,21.8390625 16.809375,22.4140625 16.809375,22.4140625 C16.809375,22.4140625 19.1085938,20.1148437 19.1085938,20.1148437 C19.1085938,20.1148437 15.7085938,17.0015625 15.7085938,17.0015625 C15.7085938,17.0015625 16.6664063,14.7023437 16.6664063,14.7023437 L16.6664063,14.703125 Z M19.3484375,23.5632812 C19.3484375,23.5632812 24.0421875,23.5632812 24.0421875,23.5632812 C24.3773438,23.5632812 24.5210937,23.7070312 24.5210937,24.0421875 C24.5210937,24.3773437 24.3773438,24.5210937 24.0421875,24.5210937 C24.0421875,24.5210937 24.0421875,24.5210937 24.0421875,24.5210937 C24.0421875,24.5210937 18.1515625,24.5210937 18.1515625,24.5210937 C18.0554687,24.5210937 18.0078125,24.5210937 17.9601562,24.4734375 C17.9601562,24.4734375 17.9601562,24.4734375 17.9601562,24.4734375 C17.8164062,24.4257812 17.7210937,24.3296875 17.6726562,24.234375 C17.6726562,24.234375 17.6726562,24.234375 17.6726562,24.234375 C17.625,24.090625 17.625,23.946875 17.6726562,23.8515625 C17.6726562,23.8515625 17.6726562,23.8515625 17.6726562,23.8515625 C17.6726562,23.8515625 17.8164062,23.7078125 17.8164062,23.7078125 C17.8164062,23.7078125 21.3601562,20.115625 21.3601562,20.115625 C21.3601562,20.115625 17.8164062,17.0507812 17.8164062,17.0507812 C17.76875,17.003125 17.76875,17.003125 17.76875,16.9546875 C17.76875,16.9546875 17.76875,16.9546875 17.76875,16.9546875 C17.7210937,16.9070312 17.7210937,16.9070312 17.7210937,16.8585937 C17.7210937,16.8585937 17.7210937,16.8585937 17.7210937,16.8585937 C17.6734375,16.8585937 17.6734375,16.8585937 17.6734375,16.8109375 C17.6734375,16.8109375 17.6734375,16.8109375 17.6734375,16.8109375 C17.6734375,16.8109375 17.6734375,16.5234375 17.6734375,16.5234375 C17.6734375,16.5234375 17.7695312,16.4273437 17.7695312,16.4273437 C17.7695312,16.4273437 17.7695312,16.33125 17.7695312,16.33125 C17.8171875,16.33125 17.8171875,16.33125 17.865625,16.2835937 C17.9140625,16.2359375 17.9132813,16.2359375 17.9617187,16.2359375 C17.9617187,16.2359375 17.9617187,16.2359375 17.9617187,16.2359375 C17.9617187,16.2359375 18.009375,16.1882812 18.009375,16.1882812 C18.009375,16.1882812 24.04375,16.1882812 24.04375,16.1882812 C24.3789063,16.1882812 24.5226563,16.3320312 24.5226563,16.6671875 C24.5226563,17.0023437 24.3789063,17.1460937 24.04375,17.1460937 C24.04375,17.1460937 24.04375,17.1460937 24.04375,17.1460937 C24.04375,17.1460937 19.4460938,17.1460937 19.4460938,17.1460937 C19.4460938,17.1460937 22.415625,19.7320312 22.415625,19.7320312 C22.415625,19.7320312 22.415625,19.7796875 22.415625,19.7796875 C22.415625,19.7796875 22.5117188,19.8757812 22.5117188,19.8757812 C22.5117188,19.8757812 22.5117188,19.9234375 22.5117188,19.9234375 C22.5117188,19.9234375 22.559375,20.0195312 22.559375,20.0195312 C22.559375,20.0195312 22.559375,20.1632812 22.559375,20.1632812 C22.559375,20.2109375 22.559375,20.259375 22.5117188,20.259375 C22.5117188,20.259375 22.5117188,20.259375 22.5117188,20.259375 C22.5117188,20.3070312 22.5117188,20.3554687 22.4640625,20.3554687 C22.4640625,20.3554687 22.4640625,20.3554687 22.4640625,20.3554687 C22.4640625,20.3554687 22.4640625,20.4515625 22.4640625,20.4515625 C22.4640625,20.4515625 22.4164063,20.4515625 22.4164063,20.4515625 C22.4164063,20.4515625 19.3515625,23.5648437 19.3515625,23.5648437 L19.3484375,23.5632812 Z"/>
  <title>Map Sigma Solid</title>
</svg>