<svg xmlns="http://www.w3.org/2000/svg" viewBox="0 0 25 25" id="map-solid">
  <path d="M9.8546875,24.515625 C9.8546875,24.515625 9.8546875,2.6765625 9.8546875,2.6765625 C9.8546875,2.6765625 15.7453125,1 15.7453125,1 C15.7453125,1 15.7453125,22.8390625 15.7453125,22.8390625 C15.7453125,22.8390625 9.8546875,24.515625 9.8546875,24.515625 Z M2,2.771875 C2,2.771875 2,2.771875 2,2.771875 C2,2.771875 2,21.59375 2,21.59375 C2,22.3601562 2.3828125,22.8390625 3.1015625,22.9828125 C3.1015625,22.9828125 3.1015625,22.9828125 3.1015625,22.9828125 C3.1015625,22.9828125 8.8484375,24.515625 8.8484375,24.515625 C8.8484375,24.515625 8.8484375,2.6765625 8.8484375,2.6765625 C8.8484375,2.6765625 3.86796875,1.38359375 3.86796875,1.38359375 C3.771875,1.3359375 3.62890625,1.3359375 3.48515625,1.3359375 C3.48515625,1.3359375 3.48515625,1.3359375 3.48515625,1.3359375 C3.05390625,1.3359375 2.71875,1.4796875 2.43125,1.71875 C2.14375,2.00625 2,2.34140625 2,2.77265625 L2,2.771875 Z M22.4984375,2.5328125 C22.4984375,2.5328125 22.4984375,2.5328125 22.4984375,2.5328125 C22.4984375,2.5328125 16.703125,1 16.703125,1 C16.703125,1 16.703125,22.8390625 16.703125,22.8390625 C16.703125,22.8390625 21.7320313,24.1796875 21.7320313,24.1796875 C21.7796875,24.2273437 21.9234375,24.2273437 22.1148437,24.2273437 C22.1148437,24.2273437 22.1148437,24.2273437 22.1148437,24.2273437 C22.5460938,24.2273437 22.88125,24.0835937 23.16875,23.7960938 C23.45625,23.5085937 23.6,23.1734375 23.6,22.7421875 C23.6,22.7421875 23.6,22.7421875 23.6,22.7421875 C23.6,22.7421875 23.6,3.96796875 23.6,3.96796875 C23.6,3.24921875 23.2171875,2.7703125 22.4984375,2.53125 L22.4984375,2.5328125 Z"/>
  <title>Map Solid</title>
</svg>