<svg xmlns="http://www.w3.org/2000/svg" viewBox="0 0 25 25" id="map-sigma">
  <path d="M13.7445313,1.10078125 C13.7445313,1.10078125 13.7445313,20.784375 13.7445313,20.784375 C13.7445313,20.784375 13.553125,20.784375 13.553125,20.784375 C13.553125,20.784375 7.85390625,22.4125 7.85390625,22.4125 C7.85390625,22.4125 7.85390625,2.7765625 7.85390625,2.7765625 C7.9015625,2.72890625 7.95,2.72890625 7.99765625,2.72890625 C7.99765625,2.72890625 7.99765625,2.72890625 7.99765625,2.72890625 C7.99765625,2.72890625 13.7445313,1.10078125 13.7445313,1.10078125 Z M6.84765625,2.77734375 C6.84765625,2.77734375 6.84765625,22.4609375 6.84765625,22.4609375 C6.84765625,22.4609375 1.33984375,20.9765625 1.33984375,20.9765625 C1.10078125,20.9289063 0.95703125,20.7375 0.95703125,20.4976562 C0.95703125,20.4976562 0.95703125,20.4976562 0.95703125,20.4976562 C0.95703125,20.4976562 0.95703125,1.8671875 0.95703125,1.8671875 C0.95703125,1.7234375 1.0046875,1.5796875 1.1484375,1.53203125 C1.1484375,1.53203125 1.1484375,1.53203125 1.1484375,1.53203125 C1.19609375,1.4359375 1.33984375,1.38828125 1.48359375,1.38828125 C1.48359375,1.38828125 1.48359375,1.38828125 1.48359375,1.38828125 C1.48359375,1.38828125 1.5796875,1.38828125 1.5796875,1.38828125 C1.5796875,1.38828125 6.70390625,2.72890625 6.70390625,2.72890625 C6.7515625,2.7765625 6.8,2.7765625 6.84765625,2.7765625 C6.84765625,2.7765625 6.84765625,2.7765625 6.84765625,2.7765625 L6.84765625,2.77734375 Z M14.8460937,20.7851562 C14.8460937,20.7851562 14.7023437,20.7851562 14.7023437,20.7851562 C14.7023437,20.7851562 14.7023437,1.1015625 14.7023437,1.1015625 C14.7023437,1.1015625 20.2101562,2.5859375 20.2101562,2.5859375 C20.4492187,2.63359375 20.5929687,2.77734375 20.5929687,3.0171875 C20.5929687,3.0171875 20.5929687,3.0171875 20.5929687,3.0171875 C20.5929687,3.0171875 20.5929687,14.2242188 20.5929687,14.2242188 C20.5929687,14.2242188 21.5984375,14.2242188 21.5984375,14.2242188 C21.5984375,14.2242188 21.5984375,3.0171875 21.5984375,3.0171875 C21.5984375,2.25078125 21.215625,1.771875 20.496875,1.628125 C20.496875,1.628125 20.496875,1.628125 20.496875,1.628125 C20.496875,1.628125 14.60625,0.04765625 14.60625,0.04765625 C14.5585937,0 14.4148437,0 14.2234375,0 C14.2234375,0 14.2234375,0 14.2234375,0 C14.0796875,0 13.9359375,0 13.840625,0.04765625 C13.840625,0.04765625 13.840625,0.04765625 13.840625,0.04765625 C13.840625,0.04765625 7.75859375,1.771875 7.75859375,1.771875 C7.5671875,1.81953125 7.4234375,1.86796875 7.32734375,1.86796875 C7.32734375,1.86796875 7.32734375,1.86796875 7.32734375,1.86796875 C7.2796875,1.86796875 7.23125,1.86796875 7.18359375,1.8203125 C7.0875,1.8203125 6.9921875,1.8203125 6.94453125,1.8203125 C6.94453125,1.8203125 6.94453125,1.8203125 6.94453125,1.8203125 C6.94453125,1.8203125 1.86796875,0.43125 1.86796875,0.43125 C1.771875,0.38359375 1.62890625,0.38359375 1.48515625,0.38359375 C1.48515625,0.38359375 1.48515625,0.38359375 1.48515625,0.38359375 C1.05390625,0.38359375 0.71875,0.52734375 0.43125,0.81484375 C0.14375,1.10234375 0,1.4375 0,1.86875 C0,1.86875 0,1.86875 0,1.86875 C0,1.86875 0,20.4992188 0,20.4992188 C0,21.2179688 0.3828125,21.696875 1.1015625,21.9359375 C1.1015625,21.9359375 1.1015625,21.9359375 1.1015625,21.9359375 C1.1015625,21.9359375 6.94453125,23.46875 6.94453125,23.46875 C7.1359375,23.5164063 7.2796875,23.5648438 7.32734375,23.5648438 C7.32734375,23.5648438 7.32734375,23.5648438 7.32734375,23.5648438 C7.4234375,23.5648438 7.56640625,23.5171875 7.75859375,23.46875 C7.75859375,23.46875 7.75859375,23.46875 7.75859375,23.46875 C7.75859375,23.46875 13.840625,21.7445313 13.840625,21.7445313 C13.9367187,21.696875 14.0796875,21.696875 14.2234375,21.696875 C14.2234375,21.696875 14.2234375,21.696875 14.2234375,21.696875 C14.4148437,21.696875 14.5585937,21.696875 14.60625,21.7445313 C14.60625,21.7445313 14.60625,21.7445313 14.60625,21.7445313 C14.60625,21.7445313 16.4742187,22.2234375 16.4742187,22.2234375 C16.4742187,22.2234375 17.2882812,21.4570312 17.2882812,21.4570312 C17.2882812,21.4570312 14.8460937,20.7867187 14.8460937,20.7867187 L14.8460937,20.7851562 Z M24.0414062,23.5625 C24.0414062,23.5625 24.0414062,23.5625 24.0414062,23.5625 C24.0414062,23.5625 19.3476562,23.5625 19.3476562,23.5625 C19.3476562,23.5625 22.4125,20.4492188 22.4125,20.4492188 C22.4125,20.4492188 22.4601562,20.4492188 22.4601562,20.4492188 C22.4601562,20.4492188 22.4601562,20.353125 22.4601562,20.353125 C22.5078125,20.353125 22.5078125,20.3054688 22.5078125,20.2570313 C22.5078125,20.2570313 22.5078125,20.2570313 22.5078125,20.2570313 C22.5554687,20.2570313 22.5554687,20.209375 22.5554687,20.1609375 C22.5554687,20.1609375 22.5554687,20.1609375 22.5554687,20.1609375 C22.5554687,20.1609375 22.5554687,20.0648438 22.5554687,20.0648438 C22.5554687,20.0648438 22.5554687,20.0171875 22.5554687,20.0171875 C22.5554687,20.0171875 22.5078125,19.9210938 22.5078125,19.9210938 C22.5078125,19.9210938 22.5078125,19.8734375 22.5078125,19.8734375 C22.5078125,19.8734375 22.4601562,19.8257812 22.4601562,19.8257812 C22.4601562,19.8257812 22.4125,19.778125 22.4125,19.778125 C22.4125,19.778125 22.4125,19.7304688 22.4125,19.7304688 C22.4125,19.7304688 19.4429687,17.1445312 19.4429687,17.1445312 C19.4429687,17.1445312 24.040625,17.1445312 24.040625,17.1445312 C24.3757812,17.1445312 24.5195312,17.0007812 24.5195312,16.665625 C24.5195312,16.3304688 24.3757812,16.1867188 24.040625,16.1867188 C24.040625,16.1867188 24.040625,16.1867188 24.040625,16.1867188 C24.040625,16.1867188 18.15,16.1867188 18.15,16.1867188 C18.15,16.1867188 18.00625,16.1867188 18.00625,16.1867188 C18.00625,16.1867188 17.9585937,16.234375 17.9585937,16.234375 C17.9109375,16.234375 17.9109375,16.234375 17.8625,16.2820312 C17.8140625,16.3296875 17.8148437,16.3296875 17.7664062,16.3296875 C17.7664062,16.3296875 17.7664062,16.3296875 17.7664062,16.3296875 C17.7664062,16.3296875 17.7664062,16.4257812 17.7664062,16.4257812 C17.7664062,16.4257812 17.6703125,16.521875 17.6703125,16.521875 C17.6703125,16.521875 17.6703125,16.6179688 17.6703125,16.6179688 C17.6703125,16.6179688 17.6703125,16.665625 17.6703125,16.665625 C17.6703125,16.665625 17.6703125,16.809375 17.6703125,16.809375 C17.6703125,16.8570313 17.6703125,16.8570313 17.7179687,16.8570313 C17.7179687,16.8570313 17.7179687,16.8570313 17.7179687,16.8570313 C17.7179687,16.9046875 17.7179687,16.9046875 17.765625,16.953125 C17.765625,16.953125 17.765625,16.953125 17.765625,16.953125 C17.765625,17.0007813 17.765625,17.0007813 17.8132812,17.0492188 C17.8132812,17.0492188 17.8132812,17.0492188 17.8132812,17.0492188 C17.8132812,17.0492188 21.3570312,20.1140625 21.3570312,20.1140625 C21.3570312,20.1140625 17.8132812,23.70625 17.8132812,23.70625 C17.8132812,23.70625 17.6695312,23.85 17.6695312,23.85 C17.621875,23.9460938 17.621875,24.0890625 17.6695312,24.2328125 C17.6695312,24.2328125 17.6695312,24.2328125 17.6695312,24.2328125 C17.7171875,24.3765625 17.8132812,24.4242188 17.9570312,24.471875 C17.9570312,24.471875 17.9570312,24.471875 17.9570312,24.471875 C18.0046875,24.5195313 18.053125,24.5195313 18.1484375,24.5195313 C18.1484375,24.5195313 18.1484375,24.5195313 18.1484375,24.5195313 C18.1484375,24.5195313 24.0390625,24.5195313 24.0390625,24.5195313 C24.3742187,24.5195313 24.5179687,24.3757813 24.5179687,24.040625 C24.5179687,23.7054688 24.3742187,23.5617188 24.0390625,23.5617188 C24.0390625,23.5617188 24.0390625,23.5617188 24.0390625,23.5617188 L24.0414062,23.5625 Z"/>
  <title>Map Sigma</title>
</svg>