<svg xmlns="http://www.w3.org/2000/svg" viewBox="0 0 25 25" id="map">
  <path d="M22.496875,2.628125 C22.496875,2.628125 22.496875,2.628125 22.496875,2.628125 C22.496875,2.628125 16.6539063,1.04765625 16.6539063,1.04765625 C16.60625,1.04765625 16.5101563,1.04765625 16.4625,1 C16.4148438,1 16.31875,1 16.2710938,1 C16.2710938,1 16.2710938,1 16.2710938,1 C16.175,1 16.0320313,1.04765625 15.8398438,1.09609375 C15.8398438,1.09609375 15.8398438,1.09609375 15.8398438,1.09609375 C15.8398438,1.09609375 9.7578125,2.8203125 9.7578125,2.8203125 C9.71015625,2.86796875 9.56640625,2.86796875 9.375,2.86796875 C9.18359375,2.86796875 9.03984375,2.86796875 8.9921875,2.8203125 C8.9921875,2.8203125 8.9921875,2.8203125 8.9921875,2.8203125 C8.9921875,2.8203125 3.86796875,1.4796875 3.86796875,1.4796875 C3.8203125,1.43203125 3.6765625,1.43203125 3.48515625,1.43203125 C3.48515625,1.43203125 3.48515625,1.43203125 3.48515625,1.43203125 C3.05390625,1.43203125 2.71875,1.57578125 2.43125,1.81484375 C2.14375,2.10234375 2,2.4375 2,2.86875 C2,2.86875 2,2.86875 2,2.86875 C2,2.86875 2,21.546875 2,21.546875 C2,22.3132813 2.3828125,22.7921875 3.1015625,22.9359375 C3.1015625,22.9359375 3.1015625,22.9359375 3.1015625,22.9359375 C3.1015625,22.9359375 8.9921875,24.5164063 8.9921875,24.5164063 C9.03984375,24.5640625 9.18359375,24.5640625 9.375,24.5640625 C9.56640625,24.5640625 9.71015625,24.5640625 9.7578125,24.5164063 C9.7578125,24.5164063 9.7578125,24.5164063 9.7578125,24.5164063 C9.7578125,24.5164063 15.8398438,22.7445313 15.8398438,22.7445313 C15.8875,22.7445313 15.9359375,22.7445313 16.03125,22.696875 C16.1273438,22.696875 16.2226563,22.696875 16.2703125,22.696875 C16.3179688,22.696875 16.4140625,22.696875 16.4617188,22.696875 C16.509375,22.7445313 16.6054688,22.7445313 16.653125,22.7445313 C16.653125,22.7445313 16.653125,22.7445313 16.653125,22.7445313 C16.653125,22.7445313 21.7296875,24.1335938 21.7296875,24.1335938 C21.7773438,24.1335938 21.8734375,24.1335938 21.96875,24.1335938 C22.0164063,24.18125 22.0648438,24.18125 22.1125,24.18125 C22.1125,24.18125 22.1125,24.18125 22.1125,24.18125 C22.54375,24.18125 22.8789063,24.0375 23.1664063,23.75 C23.4539063,23.4625 23.5976563,23.1273438 23.5976563,22.6960938 C23.5976563,22.6960938 23.5976563,22.6960938 23.5976563,22.6960938 C23.5976563,22.6960938 23.5976563,4.065625 23.5976563,4.065625 C23.5976563,3.346875 23.2148438,2.86796875 22.4960938,2.62890625 L22.496875,2.628125 Z M8.8953125,3.778125 C8.8953125,3.778125 8.8953125,23.4617187 8.8953125,23.4617187 C8.8953125,23.4617187 3.3875,21.9773437 3.3875,21.9773437 C3.1484375,21.9296875 3.0046875,21.7859375 3.0046875,21.5460937 C3.0046875,21.5460937 3.0046875,21.5460937 3.0046875,21.5460937 C3.0046875,21.5460937 3.0046875,2.86796875 3.0046875,2.86796875 C3.0046875,2.72421875 3.05234375,2.62890625 3.1484375,2.5328125 C3.24453125,2.43671875 3.33984375,2.3890625 3.48359375,2.3890625 C3.48359375,2.3890625 3.48359375,2.3890625 3.48359375,2.3890625 C3.48359375,2.3890625 3.62734375,2.3890625 3.62734375,2.3890625 C3.62734375,2.3890625 8.7515625,3.778125 8.7515625,3.778125 C8.7515625,3.778125 8.8953125,3.778125 8.8953125,3.778125 Z M15.74375,2.14921875 C15.74375,2.14921875 15.74375,21.7851562 15.74375,21.7851562 C15.6960937,21.8328125 15.6960937,21.8328125 15.6960937,21.8328125 C15.6960937,21.8328125 15.6960937,21.8328125 15.6960937,21.8328125 C15.6960937,21.8328125 15.6,21.8328125 15.6,21.8328125 C15.6,21.8328125 9.853125,23.4609375 9.853125,23.4609375 C9.853125,23.4609375 9.853125,3.77734375 9.853125,3.77734375 C9.853125,3.77734375 10.0445312,3.77734375 10.0445312,3.77734375 C10.0445312,3.77734375 15.74375,2.14921875 15.74375,2.14921875 Z M22.640625,4.06484375 C22.640625,4.06484375 22.640625,22.6953125 22.640625,22.6953125 C22.640625,23.0304687 22.4492188,23.1742187 22.1140625,23.1742187 C22.1140625,23.1742187 22.1140625,23.1742187 22.1140625,23.1742187 C22.1140625,23.1742187 22.0179688,23.1742187 22.0179688,23.1742187 C22.0179688,23.1742187 16.89375,21.8335937 16.89375,21.8335937 C16.8460938,21.7859375 16.7976562,21.7859375 16.75,21.7859375 C16.75,21.7859375 16.75,21.7859375 16.75,21.7859375 C16.75,21.7859375 16.75,2.10234375 16.75,2.10234375 C16.75,2.10234375 22.2578125,3.58671875 22.2578125,3.58671875 C22.496875,3.634375 22.640625,3.82578125 22.640625,4.065625 C22.640625,4.065625 22.640625,4.065625 22.640625,4.065625 L22.640625,4.06484375 Z"/>
  <title>Map</title>
</svg>