<svg xmlns="http://www.w3.org/2000/svg" viewBox="0 0 25 25" id="material-finger">
  <path d="M18.2492625,4.53828125 C18.2492625,4.53828125 18.2492625,4.53828125 18.2492625,4.53828125 C18.2016063,4.53828125 18.1531688,4.53828125 18.1055125,4.490625 C18.0578563,4.490625 18.0094188,4.490625 18.0094188,4.490625 C18.0094188,4.490625 18.0094188,4.490625 18.0094188,4.490625 C16.14145,3.5328125 14.225825,3.05390625 12.3102,3.05390625 C12.3102,3.05390625 12.3102,3.05390625 12.3102,3.05390625 C10.2031688,3.05390625 8.28754375,3.5328125 6.563325,4.490625 C6.563325,4.490625 6.563325,4.490625 6.563325,4.490625 C6.275825,4.634375 6.0367625,4.58671875 5.8930125,4.29921875 C5.8930125,4.29921875 5.8930125,4.29921875 5.8930125,4.29921875 C5.70160625,4.01171875 5.7492625,3.77265625 6.08441875,3.58046875 C6.08441875,3.58046875 6.08441875,3.58046875 6.08441875,3.58046875 C8.0961375,2.5265625 10.1555125,2 12.3102,2 C12.3102,2 12.3102,2 12.3102,2 C14.369575,2 16.42895,2.5265625 18.488325,3.5328125 C18.488325,3.5328125 18.488325,3.5328125 18.488325,3.5328125 C18.8234813,3.72421875 18.8711375,3.9640625 18.7273875,4.2515625 C18.7273875,4.2515625 18.7273875,4.2515625 18.7273875,4.2515625 C18.6312938,4.44296875 18.488325,4.5390625 18.2484813,4.5390625 L18.2492625,4.53828125 Z M3.5461375,9.95 C3.5461375,9.95 3.5461375,9.95 3.5461375,9.95 C3.4023875,9.95 3.307075,9.90234375 3.2586375,9.85390625 C3.2586375,9.85390625 3.2586375,9.85390625 3.2586375,9.85390625 C2.9711375,9.71015625 2.92348125,9.47109375 3.1148875,9.13515625 C3.1148875,9.13515625 3.1148875,9.13515625 3.1148875,9.13515625 C4.12035625,7.74609375 5.41410625,6.596875 6.9461375,5.7828125 C6.9461375,5.7828125 6.9461375,5.7828125 6.9461375,5.7828125 C8.5742625,4.96875 10.3461375,4.5375 12.2625438,4.5375 C14.17895,4.5375 15.9500438,4.96875 17.57895,5.7828125 C17.57895,5.7828125 17.57895,5.7828125 17.57895,5.7828125 C19.1117625,6.596875 20.4047313,7.6984375 21.4102,9.13515625 C21.4102,9.13515625 21.4102,9.13515625 21.4102,9.13515625 C21.6492625,9.4703125 21.6016063,9.71015625 21.26645,9.85390625 C21.26645,9.85390625 21.26645,9.85390625 21.26645,9.85390625 C21.0273875,10.0929688 20.7875438,10.0453125 20.5961375,9.71015625 C20.5961375,9.71015625 20.5961375,9.71015625 20.5961375,9.71015625 C19.6859813,8.4171875 18.5367625,7.4109375 17.1000438,6.69296875 C17.1000438,6.69296875 17.1000438,6.69296875 17.1000438,6.69296875 C15.6156688,5.9265625 14.0352,5.54375 12.2625438,5.54375 C10.4898875,5.54375 8.9102,5.9265625 7.42504375,6.69296875 C7.42504375,6.69296875 7.42504375,6.69296875 7.42504375,6.69296875 C6.03598125,7.41171875 4.8867625,8.4171875 3.92895,9.71015625 C3.92895,9.71015625 3.92895,9.71015625 3.92895,9.71015625 C3.88129375,9.85390625 3.73754375,9.94921875 3.5461375,9.94921875 L3.5461375,9.95 Z M9.963325,22.4023438 C9.963325,22.4023438 9.963325,22.4023438 9.963325,22.4023438 C9.77191875,22.4023438 9.675825,22.3546875 9.62816875,22.2585937 C9.62816875,22.2585937 9.62816875,22.2585937 9.62816875,22.2585937 C8.81410625,21.4445312 8.09535625,20.534375 7.5211375,19.5289062 C7.5211375,19.5289062 7.5211375,19.5289062 7.5211375,19.5289062 C6.8023875,18.2359375 6.419575,16.703125 6.419575,15.0273438 C6.419575,15.0273438 6.419575,15.0273438 6.419575,15.0273438 C6.46723125,13.4945312 7.04223125,12.2015625 8.19145,11.1 C9.34066875,9.9984375 10.7297313,9.471875 12.3102,9.471875 C13.8906688,9.471875 15.2797313,9.9984375 16.42895,11.1 C17.5305125,12.2015625 18.1055125,13.4945312 18.1055125,15.0273438 C18.1055125,15.0273438 18.1055125,15.0273438 18.1055125,15.0273438 C18.1055125,15.3625 17.9141063,15.5539062 17.57895,15.5539062 C17.2437938,15.5539062 17.0523875,15.3625 17.0523875,15.0273438 C17.0523875,15.0273438 17.0523875,15.0273438 17.0523875,15.0273438 C17.1000438,13.7820312 16.6211375,12.728125 15.7117625,11.81875 C14.75395,10.9570312 13.6047313,10.5257813 12.3117625,10.5257813 C12.3117625,10.5257813 12.3117625,10.5257813 12.3117625,10.5257813 C10.9711375,10.5257813 9.8211375,10.9570312 8.9117625,11.81875 C7.95395,12.7289062 7.47504375,13.7820312 7.47504375,15.0273438 C7.47504375,15.0273438 7.47504375,15.0273438 7.47504375,15.0273438 C7.47504375,16.5601562 7.8102,17.9007812 8.43285625,19.0023438 C8.43285625,19.0023438 8.43285625,19.0023438 8.43285625,19.0023438 C8.9117625,19.8640625 9.53441875,20.6789063 10.3484813,21.4929687 C10.3484813,21.4929687 10.3484813,21.4929687 10.3484813,21.4929687 C10.5875438,21.7320312 10.5875438,22.0195312 10.3484813,22.259375 C10.3484813,22.259375 10.3484813,22.259375 10.3484813,22.259375 C10.157075,22.3554688 10.013325,22.403125 9.96566875,22.403125 L9.963325,22.4023438 Z M17.3867625,20.4867187 C17.3867625,20.4867187 17.3867625,20.4867187 17.3867625,20.4867187 C16.1891063,20.4867187 15.1359813,20.1992188 14.1781688,19.5765625 C14.1781688,19.5765625 14.1781688,19.5765625 14.1781688,19.5765625 C12.5977,18.475 11.7836375,16.9421875 11.7836375,15.0265625 C11.7836375,15.0265625 11.7836375,15.0265625 11.7836375,15.0265625 C11.7836375,14.6914062 11.9750438,14.5 12.3102,14.5 C12.6453563,14.5 12.8367625,14.6914062 12.8367625,15.0265625 C12.8367625,15.0265625 12.8367625,15.0265625 12.8367625,15.0265625 C12.8367625,16.6070312 13.507075,17.8046875 14.8484813,18.7140625 C14.8484813,18.7140625 14.8484813,18.7140625 14.8484813,18.7140625 C15.5672313,19.1929687 16.42895,19.4328125 17.4344188,19.4328125 C17.4344188,19.4328125 17.4344188,19.4328125 17.4344188,19.4328125 C17.8656688,19.4328125 18.2484813,19.3851563 18.488325,19.3367187 C18.488325,19.3367187 18.488325,19.3367187 18.488325,19.3367187 C18.8234813,19.3367187 19.0148875,19.4804688 19.1109813,19.7679688 C19.1109813,19.7679688 19.1109813,19.7679688 19.1109813,19.7679688 C19.1586375,20.0554687 19.0148875,20.246875 18.6797313,20.390625 C18.6797313,20.390625 18.6797313,20.390625 18.6797313,20.390625 C18.488325,20.390625 18.2969188,20.390625 18.1047313,20.390625 C17.8656688,20.4382812 17.7219188,20.4382812 17.625825,20.4382812 C17.482075,20.4859375 17.4344188,20.4859375 17.3867625,20.4859375 L17.3867625,20.4867187 Z M15.2797313,22.59375 C15.2797313,22.59375 15.2797313,22.59375 15.2797313,22.59375 C15.232075,22.59375 15.1836375,22.59375 15.1359813,22.5460938 C15.1359813,22.5460938 15.1359813,22.5460938 15.1359813,22.5460938 C13.6516063,22.1632813 12.4062938,21.4445313 11.3047313,20.390625 C11.3047313,20.390625 11.3047313,20.390625 11.3047313,20.390625 C9.82035625,18.90625 9.10160625,17.1335937 9.10160625,15.0265625 C9.10160625,15.0265625 9.10160625,15.0265625 9.10160625,15.0265625 C9.10160625,14.2125 9.38910625,13.49375 10.0117625,12.8710938 C10.6344188,12.2960937 11.3523875,12.009375 12.2625438,12.009375 C13.1727,12.009375 13.8906688,12.296875 14.513325,12.8710938 C15.1359813,13.49375 15.4234813,14.2117188 15.4234813,15.0265625 C15.4234813,15.0265625 15.4234813,15.0265625 15.4234813,15.0265625 C15.4234813,15.553125 15.6148875,16.0320312 16.0461375,16.415625 C16.4773875,16.846875 16.9562938,17.0382813 17.57895,17.0382813 C18.2016063,17.0382813 18.6805125,16.846875 19.1117625,16.4632812 C19.5430125,16.0804688 19.7344188,15.6015625 19.7344188,15.0265625 C19.7344188,15.0265625 19.7344188,15.0265625 19.7344188,15.0265625 C19.7344188,13.0632812 19.0156688,11.434375 17.57895,10.0460937 C16.094575,8.70546875 14.3703563,8.034375 12.3109813,8.034375 C12.3109813,8.034375 12.3109813,8.034375 12.3109813,8.034375 C10.8266063,8.034375 9.4852,8.4171875 8.288325,9.1359375 C7.0430125,9.90234375 6.13285625,10.9078125 5.5102,12.2007813 C5.5102,12.2007813 5.5102,12.2007813 5.5102,12.2007813 C5.07895,13.0148438 4.88754375,13.9726562 4.88754375,15.0742188 C4.88754375,15.0742188 4.88754375,15.0742188 4.88754375,15.0742188 C4.88754375,16.4148437 5.12660625,17.6601562 5.60629375,18.8101562 C5.60629375,18.8101562 5.60629375,18.8101562 5.60629375,18.8101562 C5.75004375,19.0976562 5.65395,19.2890625 5.31879375,19.4328125 C5.31879375,19.4328125 5.31879375,19.4328125 5.31879375,19.4328125 C4.9836375,19.5765625 4.79223125,19.5289063 4.64848125,19.19375 C4.64848125,19.19375 4.64848125,19.19375 4.64848125,19.19375 C4.12191875,17.7570313 3.882075,16.415625 3.882075,15.1226563 C3.882075,15.1226563 3.882075,15.1226563 3.882075,15.1226563 C3.882075,13.9734375 4.1211375,12.871875 4.600825,11.8179688 C4.600825,11.8179688 4.600825,11.8179688 4.600825,11.8179688 C5.319575,10.38125 6.3727,9.23203125 7.7617625,8.36953125 C9.150825,7.50703125 10.6352,7.0765625 12.3117625,7.0765625 C12.3117625,7.0765625 12.3117625,7.0765625 12.3117625,7.0765625 C14.6586375,7.0765625 16.6703563,7.84296875 18.3461375,9.4234375 C20.0219188,11.0039062 20.8367625,12.871875 20.8367625,15.1226563 C20.8367625,15.1226563 20.8367625,15.1226563 20.8367625,15.1226563 C20.8367625,15.9367188 20.5492625,16.6554688 19.9266063,17.2296875 C19.30395,17.8523437 18.5375438,18.1398438 17.675825,18.1398438 C17.675825,18.1398438 17.675825,18.1398438 17.675825,18.1398438 C16.7656688,18.1398438 16.0477,17.8523437 15.4250438,17.2296875 C14.8023875,16.6546875 14.4672313,15.9367188 14.4672313,15.1226563 C14.4672313,15.1226563 14.4672313,15.1226563 14.4672313,15.1226563 C14.4672313,14.5960938 14.275825,14.1171875 13.844575,13.6859375 C13.413325,13.303125 12.9344188,13.1109375 12.3117625,13.1109375 C11.6891063,13.1109375 11.2102,13.3023438 10.77895,13.6859375 C10.3477,14.06875 10.1562938,14.5476563 10.1562938,15.1226563 C10.1562938,15.1226563 10.1562938,15.1226563 10.1562938,15.1226563 C10.1562938,16.990625 10.8266063,18.5226563 12.119575,19.7679687 C12.119575,19.7679687 12.119575,19.7679687 12.119575,19.7679687 C13.1250438,20.7257813 14.2266063,21.3484375 15.4719188,21.6835938 C15.4719188,21.6835938 15.4719188,21.6835938 15.4719188,21.6835938 C15.807075,21.73125 15.950825,21.9710937 15.807075,22.30625 C15.807075,22.30625 15.807075,22.30625 15.807075,22.30625 C15.6156688,22.4976563 15.4242625,22.59375 15.2805125,22.59375 L15.2797313,22.59375 Z"/>
  <title>Material Finger</title>
</svg>