<svg xmlns="http://www.w3.org/2000/svg" viewBox="0 0 25 25" id="medal">
  <path d="M10.9015625,15.565625 C10.9015625,15.565625 8.459375,21.9835937 8.459375,21.9835937 C8.459375,21.9835937 7.69296875,20.3070312 7.69296875,20.3070312 C7.69296875,20.3070312 7.26171875,19.4453125 7.26171875,19.4453125 C7.26171875,19.4453125 6.4,19.828125 6.4,19.828125 C6.4,19.828125 4.771875,20.5945312 4.771875,20.5945312 C4.771875,20.5945312 7.2625,13.9851562 7.2625,13.9851562 C6.92734375,13.65 6.63984375,13.4101562 6.49609375,13.2664062 C6.49609375,13.2664062 6.49609375,13.2664062 6.49609375,13.2664062 C6.49609375,13.2664062 3,22.509375 3,22.509375 C3,22.509375 6.78359375,20.7375 6.78359375,20.7375 C6.78359375,20.7375 8.55546875,24.5210937 8.55546875,24.5210937 C8.55546875,24.5210937 11.9078125,15.6609375 11.9078125,15.6609375 C11.6203125,15.6609375 11.2851562,15.6132812 10.9023438,15.5648437 C10.9023438,15.5648437 10.9023438,15.5648437 10.9023438,15.5648437 L10.9015625,15.565625 Z M21.678125,22.5101563 C21.678125,22.5101563 18.1820313,13.2671875 18.1820313,13.2671875 C18.0382812,13.4109375 17.7507813,13.65 17.415625,13.9859375 C17.415625,13.9859375 17.415625,13.9859375 17.415625,13.9859375 C17.415625,13.9859375 19.90625,20.5953125 19.90625,20.5953125 C19.90625,20.5953125 18.278125,19.8289063 18.278125,19.8289063 C18.278125,19.8289063 17.4164062,19.4460938 17.4164062,19.4460938 C17.4164062,19.4460938 16.9851562,20.3078125 16.9851562,20.3078125 C16.9851562,20.3078125 16.21875,21.984375 16.21875,21.984375 C16.21875,21.984375 13.7765625,15.5664063 13.7765625,15.5664063 C13.39375,15.6140625 13.0578125,15.6625 12.7710937,15.6625 C12.7710937,15.6625 12.7710937,15.6625 12.7710937,15.6625 C12.7710937,15.6625 16.1234375,24.5226563 16.1234375,24.5226563 C16.1234375,24.5226563 17.8953125,20.7390625 17.8953125,20.7390625 C17.8953125,20.7390625 21.6789062,22.5109375 21.6789062,22.5109375 L21.678125,22.5101563 Z M16.840625,11.8773438 C15.5953125,13.1226563 14.1109375,13.7453125 12.3390625,13.7453125 C10.5671875,13.7453125 9.08203125,13.1226563 7.8375,11.8773438 C6.5921875,10.6320313 5.96953125,9.14765625 5.96953125,7.37578125 C5.96953125,5.60390625 6.5921875,4.11875 7.8375,2.82578125 C9.0828125,1.58046875 10.5671875,0.9578125 12.3390625,0.9578125 C14.1109375,0.9578125 15.5960937,1.58046875 16.840625,2.82578125 C18.0859375,4.11875 18.7085937,5.60390625 18.7085937,7.37578125 C18.7085937,9.14765625 18.0859375,10.6328125 16.840625,11.8773438 L16.840625,11.8773438 Z M19.7140625,7.37578125 C19.7140625,7.37578125 19.7140625,7.37578125 19.7140625,7.37578125 C19.7140625,5.31640625 18.9953125,3.5921875 17.5585938,2.15546875 C16.121875,0.71875 14.3976562,0 12.3382812,0 C10.2789062,0 8.5546875,0.71875 7.11796875,2.15546875 C5.68125,3.5921875 4.9625,5.31640625 4.9625,7.37578125 C4.9625,7.37578125 4.9625,7.37578125 4.9625,7.37578125 C4.9625,9.3875 5.68125,11.1117187 7.11796875,12.5484375 C8.5546875,13.9851562 10.2789062,14.7039062 12.3382812,14.7039062 C14.3976562,14.7039062 16.121875,13.9851562 17.5585938,12.5484375 C18.9953125,11.1117187 19.7140625,9.3875 19.7140625,7.37578125 Z M15.1164063,10.153125 C14.35,10.9195313 13.4398437,11.3023438 12.3382812,11.3023438 C11.2367187,11.3023438 10.3265625,10.9195313 9.56015625,10.153125 C8.79375,9.38671875 8.4109375,8.4765625 8.4109375,7.375 C8.4109375,6.2734375 8.79375,5.36328125 9.56015625,4.596875 C10.3265625,3.83046875 11.2367187,3.44765625 12.3382812,3.44765625 C13.4398437,3.44765625 14.35,3.83046875 15.1164063,4.596875 C15.8828125,5.36328125 16.265625,6.2734375 16.265625,7.375 C16.265625,8.4765625 15.8828125,9.38671875 15.1164063,10.153125 L15.1164063,10.153125 Z M12.3390625,2.44296875 C12.3390625,2.44296875 12.3390625,2.44296875 12.3390625,2.44296875 C10.95,2.44296875 9.80078125,2.921875 8.890625,3.8796875 C7.9328125,4.8375 7.45390625,5.98671875 7.45390625,7.37578125 C7.45390625,7.37578125 7.45390625,7.37578125 7.45390625,7.37578125 C7.45390625,8.71640625 7.9328125,9.86640625 8.890625,10.8242188 C9.80078125,11.7820312 10.95,12.2609375 12.3390625,12.2609375 C13.728125,12.2609375 14.8773437,11.7820312 15.8351563,10.8242188 C16.7453125,9.86640625 17.2242188,8.7171875 17.2242188,7.37578125 C17.2242188,7.37578125 17.2242188,7.37578125 17.2242188,7.37578125 C17.2242188,5.98671875 16.7453125,4.8375 15.8351563,3.8796875 C14.8773438,2.921875 13.728125,2.44296875 12.3390625,2.44296875 C12.3390625,2.44296875 12.3390625,2.44296875 12.3390625,2.44296875 Z"/>
  <title>Medal</title>
</svg>