<svg xmlns="http://www.w3.org/2000/svg" viewBox="0 0 25 25" id="megaphone-solid">
  <path d="M23.5578125,3.47890625 C23.5578125,3.47890625 23.5578125,3.47890625 23.5578125,3.47890625 C23.5578125,3.47890625 23.5578125,20.1453125 23.5578125,20.1453125 C23.5578125,20.4804688 23.4140625,20.6242188 23.0789063,20.6242188 C22.74375,20.6242188 22.6,20.4804688 22.6,20.1453125 C22.6,20.1453125 22.6,20.1453125 22.6,20.1453125 C22.6,20.1453125 22.6,19.5226563 22.6,19.5226563 C22.6,19.5226563 18.6726562,19.04375 18.6726562,19.04375 C18.6726562,19.04375 18.6726562,4.628125 18.6726562,4.628125 C18.6726562,4.628125 22.6,4.1015625 22.6,4.1015625 C22.6,4.1015625 22.6,3.47890625 22.6,3.47890625 C22.6,3.14375 22.74375,3 23.0789063,3 C23.4140625,3 23.5578125,3.14375 23.5578125,3.47890625 L23.5578125,3.47890625 Z M2.29296875,6.7359375 C2.29296875,6.7359375 2.29296875,6.7359375 2.29296875,6.7359375 C2.29296875,6.7359375 17.6664063,4.72421875 17.6664063,4.72421875 C17.6664063,4.72421875 17.6664063,18.9007813 17.6664063,18.9007813 C17.6664063,18.9007813 12.78125,18.278125 12.78125,18.278125 C12.78125,18.278125 12.78125,21.1515625 12.78125,21.1515625 C12.78125,21.4867188 12.6375,21.6304688 12.3023438,21.6304688 C12.3023438,21.6304688 12.3023438,21.6304688 12.3023438,21.6304688 C12.3023438,21.6304688 12.1585938,21.6304688 12.1585938,21.6304688 C12.1585938,21.6304688 7.2734375,20.625 7.2734375,20.625 C7.034375,20.5773438 6.890625,20.3859375 6.890625,20.1460938 C6.890625,20.1460938 6.890625,20.1460938 6.890625,20.1460938 C6.890625,20.1460938 6.890625,17.5117188 6.890625,17.5117188 C6.890625,17.5117188 2.29296875,16.8890625 2.29296875,16.8890625 C1.9578125,16.8414063 1.62265625,16.65 1.3828125,16.3625 C1.14375,16.1234375 1,15.7875 1,15.4523438 C1,15.4523438 1,15.4523438 1,15.4523438 C1,15.4523438 1,8.2203125 1,8.2203125 C1,7.8375 1.14375,7.5015625 1.3828125,7.21484375 C1.621875,6.97578125 1.9578125,6.78359375 2.29296875,6.7359375 Z M7.8484375,17.6078125 C7.8484375,17.6078125 7.8484375,19.7632813 7.8484375,19.7632813 C7.8484375,19.7632813 11.7757812,20.5296875 11.7757812,20.5296875 C11.7757812,20.5296875 11.7757812,18.1351563 11.7757812,18.1351563 C11.7757812,18.1351563 7.8484375,17.6085938 7.8484375,17.6085938 L7.8484375,17.6078125 Z"/>
  <title>Megaphone Solid</title>
</svg>