<svg xmlns="http://www.w3.org/2000/svg" viewBox="0 0 25 25" id="megaphone">
  <path d="M23.078125,3 C23.078125,3 23.078125,3 23.078125,3 C22.7429687,3 22.5992188,3.14375 22.5992188,3.47890625 C22.5992188,3.47890625 22.5992188,3.47890625 22.5992188,3.47890625 C22.5992188,3.47890625 22.5992188,4.1015625 22.5992188,4.1015625 C22.5992188,4.1015625 2.29296875,6.7359375 2.29296875,6.7359375 C1.9578125,6.78359375 1.62265625,6.975 1.3828125,7.21484375 C1.14375,7.50234375 1,7.8375 1,8.2203125 C1,8.2203125 1,8.2203125 1,8.2203125 C1,8.2203125 1,15.4523437 1,15.4523437 C1,15.7875 1.14375,16.1226562 1.3828125,16.3625 C1.621875,16.65 1.9578125,16.8414062 2.29296875,16.8890625 C2.29296875,16.8890625 2.29296875,16.8890625 2.29296875,16.8890625 C2.29296875,16.8890625 6.890625,17.5117188 6.890625,17.5117188 C6.890625,17.5117188 6.890625,20.1460937 6.890625,20.1460937 C6.890625,20.3851563 7.034375,20.5773438 7.321875,20.625 C7.321875,20.625 7.321875,20.625 7.321875,20.625 C7.321875,20.625 12.2070313,21.6304687 12.2070313,21.6304687 C12.2070313,21.6304687 12.303125,21.6304687 12.303125,21.6304687 C12.6382813,21.6304687 12.7820313,21.4867187 12.7820313,21.1515625 C12.7820313,21.1515625 12.7820313,21.1515625 12.7820313,21.1515625 C12.7820313,21.1515625 12.7820313,18.278125 12.7820313,18.278125 C12.7820313,18.278125 22.6,19.5234375 22.6,19.5234375 C22.6,19.5234375 22.6,20.1460937 22.6,20.1460937 C22.6,20.48125 22.74375,20.6726562 23.0789063,20.6726562 C23.0789063,20.6726562 23.0789063,20.6726562 23.0789063,20.6726562 C23.4140625,20.6726562 23.6054688,20.48125 23.6054688,20.1460937 C23.6054688,20.1460937 23.6054688,20.1460937 23.6054688,20.1460937 C23.6054688,20.1460937 23.6054688,3.4796875 23.6054688,3.4796875 C23.6054688,3.14453125 23.4140625,3.00078125 23.0789063,3.00078125 L23.078125,3 Z M11.8226562,18.134375 C11.8226562,18.134375 11.8226562,20.5289063 11.8226562,20.5289063 C11.8226562,20.5289063 7.8953125,19.7625 7.8953125,19.7625 C7.8953125,19.7625 7.8953125,17.6070312 7.8953125,17.6070312 C7.8953125,17.6070312 11.8226562,18.1335938 11.8226562,18.1335938 L11.8226562,18.134375 Z M17.7140625,5.7296875 C17.7140625,5.7296875 17.7140625,17.8945312 17.7140625,17.8945312 C17.7140625,17.8945312 2.4359375,15.93125 2.4359375,15.93125 C2.1484375,15.8835938 2.0046875,15.6921875 2.0046875,15.4523438 C2.0046875,15.4523438 2.0046875,15.4523438 2.0046875,15.4523438 C2.0046875,15.4523438 2.0046875,8.2203125 2.0046875,8.2203125 C2.0046875,7.88515625 2.1484375,7.74140625 2.4359375,7.74140625 C2.4359375,7.74140625 2.4359375,7.74140625 2.4359375,7.74140625 C2.4359375,7.74140625 17.7140625,5.7296875 17.7140625,5.7296875 Z M22.5992187,5.10703125 C22.5992187,5.10703125 22.5992187,18.5648438 22.5992187,18.5648438 C22.5992187,18.5648438 18.671875,18.0382812 18.671875,18.0382812 C18.671875,18.0382812 18.671875,5.5859375 18.671875,5.5859375 C18.671875,5.5859375 22.5992187,5.10703125 22.5992187,5.10703125 Z"/>
  <title>Megaphone</title>
</svg>