<svg xmlns="http://www.w3.org/2000/svg" viewBox="0 0 25 25" id="mic-off-solid">
  <path d="M16.2070313,4.2515625 C16.2070313,4.2515625 8.20859375,15.6976562 8.20859375,15.6976562 C8.06484375,15.21875 7.96953125,14.7398437 7.96953125,14.2132812 C7.96953125,14.2132812 7.96953125,14.2132812 7.96953125,14.2132812 C7.96953125,14.2132812 7.96953125,6.40703125 7.96953125,6.40703125 C7.96953125,5.209375 8.40078125,4.15625 9.2625,3.29375 C10.1242188,2.43125 11.178125,2.00078125 12.3757813,2.00078125 C13.5734375,2.00078125 14.6265625,2.43203125 15.4890625,3.29375 C15.4890625,3.29375 15.4890625,3.29375 15.4890625,3.29375 C15.728125,3.5328125 15.9679688,3.86875 16.2078125,4.2515625 C16.2078125,4.2515625 16.2078125,4.2515625 16.2078125,4.2515625 L16.2070313,4.2515625 Z M10.1242188,18.0921875 C10.1242188,18.0921875 16.78125,8.56171875 16.78125,8.56171875 C16.78125,8.56171875 16.78125,14.2132812 16.78125,14.2132812 C16.78125,15.4585937 16.35,16.5125 15.4882812,17.3742187 C14.6265625,18.2359375 13.5726563,18.6671875 12.375,18.6671875 C12.375,18.6671875 12.375,18.6671875 12.375,18.6671875 C11.5609375,18.6671875 10.7945313,18.4757812 10.1242188,18.0921875 C10.1242188,18.0921875 10.1242188,18.0921875 10.1242188,18.0921875 Z M8.975,19.6726562 C8.975,19.6726562 8.975,19.6726562 8.975,19.6726562 C8.975,19.6726562 9.55,18.8585937 9.55,18.8585937 C10.3640625,19.3851562 11.2742188,19.625 12.3757813,19.625 C12.3757813,19.625 12.3757813,19.625 12.3757813,19.625 C13.8601563,19.625 15.1539063,19.0984375 16.2070313,18.0445312 C17.2601563,16.990625 17.7875,15.6976562 17.7875,14.2132812 C17.7875,14.2132812 17.7875,14.2132812 17.7875,14.2132812 C17.7875,14.2132812 17.7875,11.2921875 17.7875,11.2921875 C17.7875,10.9570312 17.93125,10.8132812 18.2664063,10.8132812 C18.6015625,10.8132812 18.7453125,10.9570312 18.7453125,11.2921875 C18.7453125,11.2921875 18.7453125,11.2921875 18.7453125,11.2921875 C18.7453125,11.2921875 18.7453125,14.2132812 18.7453125,14.2132812 C18.7453125,15.9851562 18.1226563,17.5179688 16.8773438,18.7632812 C15.6320313,20.0085937 14.1476563,20.63125 12.3757813,20.63125 C12.3757813,20.63125 12.3757813,20.63125 12.3757813,20.63125 C11.0828125,20.63125 9.93359375,20.2960937 8.97578125,19.6734375 L8.975,19.6726562 Z M7.53828125,16.7039062 C7.53828125,16.7039062 6.915625,17.565625 6.915625,17.565625 C6.29296875,16.6554688 6.00546875,15.50625 6.00546875,14.2132812 C6.00546875,14.2132812 6.00546875,14.2132812 6.00546875,14.2132812 C6.00546875,14.2132812 6.00546875,11.2921875 6.00546875,11.2921875 C6.00546875,10.9570312 6.14921875,10.8132813 6.484375,10.8132813 C6.81953125,10.8132813 6.96328125,10.9570312 6.96328125,11.2921875 C6.96328125,11.2921875 6.96328125,11.2921875 6.96328125,11.2921875 C6.96328125,11.2921875 6.96328125,14.2132812 6.96328125,14.2132812 C6.96328125,15.1234375 7.1546875,15.9375 7.53828125,16.7039062 C7.53828125,16.7039062 7.53828125,16.7039062 7.53828125,16.7039062 L7.53828125,16.7039062 Z M8.4484375,21.5890625 C8.4484375,21.5890625 8.4484375,21.5890625 8.4484375,21.5890625 C8.4484375,21.5890625 16.303125,21.5890625 16.303125,21.5890625 C16.6382813,21.5890625 16.7820313,21.7328125 16.7820313,22.0679687 C16.7820313,22.403125 16.6382813,22.546875 16.303125,22.546875 C16.303125,22.546875 16.303125,22.546875 16.303125,22.546875 C16.303125,22.546875 8.4484375,22.546875 8.4484375,22.546875 C8.11328125,22.546875 7.96953125,22.403125 7.96953125,22.0679687 C7.96953125,21.7328125 8.11328125,21.5890625 8.4484375,21.5890625 Z M19.559375,2.09609375 C19.559375,2.09609375 19.559375,2.09609375 19.559375,2.09609375 C19.703125,2.23984375 19.7507812,2.33515625 19.7507812,2.47890625 C19.7507812,2.62265625 19.703125,2.71875 19.6546875,2.76640625 C19.6546875,2.76640625 19.6546875,2.76640625 19.6546875,2.76640625 C19.6546875,2.76640625 5.86171875,22.4023438 5.86171875,22.4023438 C5.765625,22.5460938 5.62265625,22.59375 5.47890625,22.59375 C5.47890625,22.59375 5.47890625,22.59375 5.47890625,22.59375 C5.14375,22.59375 5,22.45 5,22.1148437 C5,22.1148437 5,22.1148437 5,22.1148437 C5,21.9710938 5.04765625,21.8757812 5.09609375,21.8273438 C5.09609375,21.8273438 5.09609375,21.8273438 5.09609375,21.8273438 C5.09609375,21.8273438 18.8414062,2.19140625 18.8414062,2.19140625 C18.9375,2.04765625 19.0804688,2 19.2242187,2 C19.2242187,2 19.2242187,2 19.2242187,2 C19.271875,2 19.3679687,2.04765625 19.559375,2.09609375 L19.559375,2.09609375 Z"/>
  <title>Mic Off Solid</title>
</svg>