<svg xmlns="http://www.w3.org/2000/svg" viewBox="0 0 25 25" id="mic-off">
  <path d="M16.2070312,4.2515625 C16.2070312,4.2515625 16.2070312,4.2515625 16.2070312,4.2515625 C16.2070312,4.2515625 15.584375,5.11328125 15.584375,5.11328125 C15.440625,4.73046875 15.2015625,4.346875 14.8179687,3.9640625 C14.8179687,3.9640625 14.8179687,3.9640625 14.8179687,3.9640625 C14.1476562,3.29375 13.3335938,2.95859375 12.3757812,2.95859375 C11.4179687,2.95859375 10.6039062,3.29375 9.93359375,3.9640625 C9.26328125,4.634375 8.928125,5.4484375 8.928125,6.40625 C8.928125,6.40625 8.928125,6.40625 8.928125,6.40625 C8.928125,6.40625 8.928125,14.2125 8.928125,14.2125 C8.928125,14.2125 8.928125,14.64375 8.928125,14.64375 C8.928125,14.64375 8.209375,15.6976563 8.209375,15.6976563 C8.065625,15.21875 7.9703125,14.7398438 7.9703125,14.2132813 C7.9703125,14.2132813 7.9703125,14.2132813 7.9703125,14.2132813 C7.9703125,14.2132813 7.9703125,6.40703125 7.9703125,6.40703125 C7.9703125,5.209375 8.4015625,4.15625 9.26328125,3.29375 C10.125,2.43125 11.1789062,2.00078125 12.3765625,2.00078125 C13.5742188,2.00078125 14.6273438,2.43203125 15.4898437,3.29375 C15.4898437,3.29375 15.4898437,3.29375 15.4898437,3.29375 C15.7289063,3.5328125 15.96875,3.86875 16.2085937,4.2515625 L16.2070312,4.2515625 Z M15.8234375,9.95078125 C15.8234375,9.95078125 16.78125,8.56171875 16.78125,8.56171875 C16.78125,8.56171875 16.78125,14.2132812 16.78125,14.2132812 C16.78125,15.4585937 16.35,16.5125 15.4882812,17.3742187 C14.6265625,18.2359375 13.5726563,18.6671875 12.375,18.6671875 C12.375,18.6671875 12.375,18.6671875 12.375,18.6671875 C11.5609375,18.6671875 10.7945313,18.4757812 10.1242188,18.0921875 C10.1242188,18.0921875 10.1242188,18.0921875 10.1242188,18.0921875 C10.1242188,18.0921875 10.6992188,17.278125 10.6992188,17.278125 C11.2257813,17.5171875 11.753125,17.6609375 12.3757813,17.6609375 C12.3757813,17.6609375 12.3757813,17.6609375 12.3757813,17.6609375 C13.3335938,17.6609375 14.1476563,17.3257812 14.8179688,16.6554687 C15.4882813,15.9851562 15.8234375,15.1710937 15.8234375,14.2132812 C15.8234375,14.2132812 15.8234375,14.2132812 15.8234375,14.2132812 C15.8234375,14.2132812 15.8234375,9.95078125 15.8234375,9.95078125 Z M8.975,19.6726562 C8.975,19.6726562 8.975,19.6726562 8.975,19.6726562 C8.975,19.6726562 9.55,18.8585937 9.55,18.8585937 C10.3640625,19.3851562 11.2742188,19.625 12.3757813,19.625 C12.3757813,19.625 12.3757813,19.625 12.3757813,19.625 C13.8601563,19.625 15.1539063,19.0984375 16.2070313,18.0445312 C17.2601563,16.990625 17.7875,15.6976562 17.7875,14.2132812 C17.7875,14.2132812 17.7875,14.2132812 17.7875,14.2132812 C17.7875,14.2132812 17.7875,11.2921875 17.7875,11.2921875 C17.7875,10.9570312 17.93125,10.8132812 18.2664063,10.8132812 C18.6015625,10.8132812 18.7453125,10.9570312 18.7453125,11.2921875 C18.7453125,11.2921875 18.7453125,11.2921875 18.7453125,11.2921875 C18.7453125,11.2921875 18.7453125,14.2132812 18.7453125,14.2132812 C18.7453125,15.9851562 18.1226563,17.5179688 16.8773438,18.7632812 C15.6320313,20.0085937 14.1476563,20.63125 12.3757813,20.63125 C12.3757813,20.63125 12.3757813,20.63125 12.3757813,20.63125 C11.0828125,20.63125 9.93359375,20.2960937 8.97578125,19.6734375 L8.975,19.6726562 Z M7.53828125,16.6554688 C7.53828125,16.6554688 6.915625,17.565625 6.915625,17.565625 C6.29296875,16.6554688 6.00546875,15.50625 6.00546875,14.2132812 C6.00546875,14.2132812 6.00546875,14.2132812 6.00546875,14.2132812 C6.00546875,14.2132812 6.00546875,11.2921875 6.00546875,11.2921875 C6.00546875,10.9570312 6.14921875,10.8132813 6.484375,10.8132813 C6.81953125,10.8132813 6.96328125,10.9570312 6.96328125,11.2921875 C6.96328125,11.2921875 6.96328125,11.2921875 6.96328125,11.2921875 C6.96328125,11.2921875 6.96328125,14.2132812 6.96328125,14.2132812 C6.96328125,15.1234375 7.1546875,15.9375 7.53828125,16.6554688 C7.53828125,16.6554688 7.53828125,16.6554688 7.53828125,16.6554688 L7.53828125,16.6554688 Z M16.78125,22.0679687 C16.78125,22.0679687 16.78125,22.0679687 16.78125,22.0679687 C16.78125,22.403125 16.6375,22.5945312 16.3023438,22.5945312 C16.3023438,22.5945312 16.3023438,22.5945312 16.3023438,22.5945312 C16.3023438,22.5945312 8.44765625,22.5945312 8.44765625,22.5945312 C8.1125,22.5945312 7.96875,22.403125 7.96875,22.0679687 C7.96875,22.0679687 7.96875,22.0679687 7.96875,22.0679687 C7.96875,21.7328125 8.1125,21.5890625 8.44765625,21.5890625 C8.44765625,21.5890625 8.44765625,21.5890625 8.44765625,21.5890625 C8.44765625,21.5890625 16.3023438,21.5890625 16.3023438,21.5890625 C16.6375,21.5890625 16.78125,21.7328125 16.78125,22.0679687 Z M19.559375,2.09609375 C19.559375,2.09609375 19.559375,2.09609375 19.559375,2.09609375 C19.703125,2.23984375 19.7507812,2.33515625 19.7507812,2.47890625 C19.7507812,2.62265625 19.703125,2.71875 19.6546875,2.76640625 C19.6546875,2.76640625 19.6546875,2.76640625 19.6546875,2.76640625 C19.6546875,2.76640625 5.86171875,22.4023438 5.86171875,22.4023438 C5.765625,22.5460938 5.62265625,22.59375 5.47890625,22.59375 C5.47890625,22.59375 5.47890625,22.59375 5.47890625,22.59375 C5.14375,22.59375 5,22.45 5,22.1148437 C5,22.1148437 5,22.1148437 5,22.1148437 C5,21.9710938 5.04765625,21.8757812 5.09609375,21.8273438 C5.09609375,21.8273438 5.09609375,21.8273438 5.09609375,21.8273438 C5.09609375,21.8273438 18.8414062,2.19140625 18.8414062,2.19140625 C18.9375,2.04765625 19.0804688,2 19.2242187,2 C19.2242187,2 19.2242187,2 19.2242187,2 C19.271875,2 19.3679687,2.04765625 19.559375,2.09609375 L19.559375,2.09609375 Z"/>
  <title>Mic Off</title>
</svg>