<svg xmlns="http://www.w3.org/2000/svg" viewBox="0 0 25 25" id="mic">
  <path d="M16.775,22.0671875 C16.775,22.0671875 16.775,22.0671875 16.775,22.0671875 C16.775,22.4023438 16.63125,22.59375 16.2960937,22.59375 C16.2960937,22.59375 16.2960937,22.59375 16.2960937,22.59375 C16.2960937,22.59375 8.44140625,22.59375 8.44140625,22.59375 C8.10625,22.59375 7.9625,22.4023438 7.9625,22.0671875 C7.9625,22.0671875 7.9625,22.0671875 7.9625,22.0671875 C7.9625,21.7320313 8.10625,21.5882813 8.44140625,21.5882813 C8.44140625,21.5882813 8.44140625,21.5882813 8.44140625,21.5882813 C8.44140625,21.5882813 16.2960937,21.5882813 16.2960937,21.5882813 C16.63125,21.5882813 16.775,21.7320313 16.775,22.0671875 Z M7.96328125,14.2125 C7.96328125,14.2125 7.96328125,14.2125 7.96328125,14.2125 C7.96328125,14.2125 7.96328125,6.40625 7.96328125,6.40625 C7.96328125,5.20859375 8.39453125,4.15546875 9.25625,3.29296875 C10.1179687,2.43046875 11.171875,2 12.3695312,2 C13.5671875,2 14.6203125,2.43125 15.4828125,3.29296875 C16.3453125,4.1546875 16.7757812,5.20859375 16.7757812,6.40625 C16.7757812,6.40625 16.7757812,6.40625 16.7757812,6.40625 C16.7757812,6.40625 16.7757812,14.2125 16.7757812,14.2125 C16.7757812,15.4578125 16.3445312,16.5117188 15.4828125,17.3734375 C14.6210937,18.2351562 13.5671875,18.6664063 12.3695312,18.6664063 C11.171875,18.6664063 10.11875,18.2351563 9.25625,17.3734375 C8.39375,16.5117188 7.96328125,15.4578125 7.96328125,14.2125 Z M8.92109375,6.40625 C8.92109375,6.40625 8.92109375,14.2125 8.92109375,14.2125 C8.92109375,15.1703125 9.25625,15.984375 9.9265625,16.6546875 C10.596875,17.325 11.4109375,17.6601562 12.36875,17.6601562 C13.3265625,17.6601562 14.140625,17.325 14.8109375,16.6546875 C15.48125,15.984375 15.8164062,15.1703125 15.8164062,14.2125 C15.8164062,14.2125 15.8164062,14.2125 15.8164062,14.2125 C15.8164062,14.2125 15.8164062,6.40625 15.8164062,6.40625 C15.8164062,5.4484375 15.48125,4.634375 14.8109375,3.9640625 C14.140625,3.29375 13.3265625,2.95859375 12.36875,2.95859375 C11.4109375,2.95859375 10.596875,3.29375 9.9265625,3.9640625 C9.25625,4.634375 8.92109375,5.4484375 8.92109375,6.40625 C8.92109375,6.40625 8.92109375,6.40625 8.92109375,6.40625 Z M18.7390625,11.290625 C18.7390625,11.290625 18.7390625,14.2117187 18.7390625,14.2117187 C18.7390625,15.9835937 18.1164063,17.5164062 16.8710938,18.7617188 C15.6257813,20.0070313 14.1414063,20.6296875 12.3695313,20.6296875 C10.5976562,20.6296875 9.1125,20.0070312 7.86796875,18.7617188 C6.6234375,17.5164063 6,15.9835937 6,14.2117188 C6,14.2117188 6,14.2117188 6,14.2117188 C6,14.2117188 6,11.290625 6,11.290625 C6,10.9554687 6.14375,10.8117188 6.47890625,10.8117188 C6.8140625,10.8117188 6.9578125,10.9554687 6.9578125,11.290625 C6.9578125,11.290625 6.9578125,11.290625 6.9578125,11.290625 C6.9578125,11.290625 6.9578125,14.2117188 6.9578125,14.2117188 C6.9578125,15.6960937 7.484375,16.9898438 8.53828125,18.0429688 C9.5921875,19.0960938 10.8851562,19.6234375 12.3695313,19.6234375 C13.8539063,19.6234375 15.1476563,19.096875 16.2007813,18.0429688 C17.2539062,16.9890625 17.78125,15.6960937 17.78125,14.2117188 C17.78125,14.2117188 17.78125,14.2117188 17.78125,14.2117188 C17.78125,14.2117188 17.78125,11.290625 17.78125,11.290625 C17.78125,10.9554687 17.925,10.8117188 18.2601563,10.8117188 C18.5953125,10.8117188 18.7390625,10.9554687 18.7390625,11.290625 C18.7390625,11.290625 18.7390625,11.290625 18.7390625,11.290625 L18.7390625,11.290625 Z"/>
  <title>Mic</title>
</svg>