<svg xmlns="http://www.w3.org/2000/svg" viewBox="0 0 25 25" id="mobile-phone-solid">
  <path d="M7.38828125,2 C7.38828125,2 17.35,2 17.35,2 C17.78125,2 18.1164063,2.14375 18.3554688,2.3828125 C18.5945312,2.621875 18.7382812,2.909375 18.7382812,3.24453125 C18.7382812,3.24453125 18.7382812,3.24453125 18.7382812,3.24453125 C18.7382812,3.24453125 18.7382812,21.3476563 18.7382812,21.3476563 C18.7382812,21.6828125 18.5945312,21.9703125 18.3554688,22.209375 C18.1164063,22.4484375 17.7804688,22.5921875 17.35,22.5921875 C17.35,22.5921875 17.35,22.5921875 17.35,22.5921875 C17.35,22.5921875 7.38828125,22.5921875 7.38828125,22.5921875 C6.95703125,22.5921875 6.621875,22.4484375 6.3828125,22.209375 C6.14375,21.9703125 6,21.6828125 6,21.3476563 C6,21.3476563 6,21.3476563 6,21.3476563 C6,21.3476563 6,3.24453125 6,3.24453125 C6,2.909375 6.14375,2.621875 6.3828125,2.3828125 C6.621875,2.14375 6.9578125,2 7.38828125,2 C7.38828125,2 7.38828125,2 7.38828125,2 Z M16.775,3.96328125 C16.775,3.96328125 14.8117188,4.0109375 14.8117188,4.0109375 C14.8117188,4.25 14.715625,4.48984375 14.5242188,4.63359375 C14.3328125,4.825 14.0929688,4.92109375 13.8539063,4.92109375 C13.8539063,4.92109375 13.8539063,4.92109375 13.8539063,4.92109375 C13.8539063,4.92109375 10.884375,4.92109375 10.884375,4.92109375 C10.6453125,4.92109375 10.4054688,4.825 10.2140625,4.63359375 C10.0226563,4.48984375 9.9265625,4.25078125 9.9265625,4.0109375 C9.9265625,4.0109375 9.9265625,4.0109375 9.9265625,4.0109375 C9.9265625,4.0109375 7.96328125,3.96328125 7.96328125,3.96328125 C7.628125,3.96328125 7.484375,4.10703125 7.484375,4.4421875 C7.484375,4.4421875 7.484375,4.4421875 7.484375,4.4421875 C7.484375,4.4421875 7.484375,20.6296875 7.484375,20.6296875 C7.484375,20.9648438 7.628125,21.1085938 7.96328125,21.1085938 C7.96328125,21.1085938 7.96328125,21.1085938 7.96328125,21.1085938 C7.96328125,21.1085938 16.7757813,21.1085938 16.7757813,21.1085938 C17.1109375,21.1085938 17.2546875,20.9648438 17.2546875,20.6296875 C17.2546875,20.6296875 17.2546875,20.6296875 17.2546875,20.6296875 C17.2546875,20.6296875 17.2546875,4.4421875 17.2546875,4.4421875 C17.2546875,4.10703125 17.1109375,3.96328125 16.7757813,3.96328125 C16.7757813,3.96328125 16.7757813,3.96328125 16.7757813,3.96328125 L16.775,3.96328125 Z M13.375,17.7085937 C13.375,17.7085937 11.3632812,17.7085937 11.3632812,17.7085937 C11.028125,17.7085937 10.884375,17.8523438 10.884375,18.1398438 C10.884375,18.1398438 10.884375,18.1398438 10.884375,18.1398438 C10.884375,18.1398438 10.884375,18.1875 10.884375,18.1875 C10.884375,18.5226562 11.028125,18.6664063 11.3632812,18.6664063 C11.3632812,18.6664063 11.3632812,18.6664063 11.3632812,18.6664063 C11.3632812,18.6664063 13.375,18.6664063 13.375,18.6664063 C13.7101562,18.6664063 13.8539062,18.5226562 13.8539062,18.1875 C13.8539062,18.1875 13.8539062,18.1875 13.8539062,18.1875 C13.8539062,18.1875 13.8539062,18.1398438 13.8539062,18.1398438 C13.8539062,17.8523438 13.7101562,17.7085937 13.375,17.7085937 C13.375,17.7085937 13.375,17.7085937 13.375,17.7085937 Z"/>
  <title>Mobile Phone Solid</title>
</svg>