<svg xmlns="http://www.w3.org/2000/svg" viewBox="0 0 25 25" id="mobile-phone">
  <path d="M7.38828125,2 C7.38828125,2 17.35,2 17.35,2 C17.78125,2 18.1164063,2.14375 18.3554688,2.3828125 C18.5945312,2.621875 18.7382812,2.909375 18.7382812,3.24453125 C18.7382812,3.24453125 18.7382812,3.24453125 18.7382812,3.24453125 C18.7382812,3.24453125 18.7382812,21.3476563 18.7382812,21.3476563 C18.7382812,21.6828125 18.5945312,21.9703125 18.3554688,22.209375 C18.1164063,22.4484375 17.7804688,22.5921875 17.35,22.5921875 C17.35,22.5921875 17.35,22.5921875 17.35,22.5921875 C17.35,22.5921875 7.38828125,22.5921875 7.38828125,22.5921875 C6.95703125,22.5921875 6.621875,22.4484375 6.3828125,22.209375 C6.14375,21.9703125 6,21.6828125 6,21.3476563 C6,21.3476563 6,21.3476563 6,21.3476563 C6,21.3476563 6,3.24453125 6,3.24453125 C6,2.909375 6.14375,2.621875 6.3828125,2.3828125 C6.621875,2.14375 6.9578125,2 7.38828125,2 C7.38828125,2 7.38828125,2 7.38828125,2 Z M17.35,2.9578125 C17.35,2.9578125 17.35,2.9578125 17.35,2.9578125 C17.35,2.9578125 7.38828125,2.9578125 7.38828125,2.9578125 C7.24453125,2.9578125 7.14921875,3.00546875 7.053125,3.1015625 C7.053125,3.1015625 7.053125,3.1015625 7.053125,3.1015625 C7.00546875,3.14921875 6.95703125,3.19765625 6.95703125,3.2453125 C6.95703125,3.2453125 6.95703125,3.2453125 6.95703125,3.2453125 C6.95703125,3.2453125 6.95703125,21.3484375 6.95703125,21.3484375 C6.95703125,21.3960937 7.0046875,21.4445313 7.053125,21.4921875 C7.053125,21.4921875 7.053125,21.4921875 7.053125,21.4921875 C7.14921875,21.5882813 7.24453125,21.6359375 7.38828125,21.6359375 C7.38828125,21.6359375 7.38828125,21.6359375 7.38828125,21.6359375 C7.38828125,21.6359375 17.35,21.6359375 17.35,21.6359375 C17.49375,21.6359375 17.5890625,21.5882813 17.6851562,21.4921875 C17.6851562,21.4921875 17.6851562,21.4921875 17.6851562,21.4921875 C17.7328125,21.4445313 17.78125,21.3960937 17.78125,21.3484375 C17.78125,21.3484375 17.78125,21.3484375 17.78125,21.3484375 C17.78125,21.3484375 17.78125,3.2453125 17.78125,3.2453125 C17.78125,3.19765625 17.7335938,3.14921875 17.6851562,3.1015625 C17.6851562,3.1015625 17.6851562,3.1015625 17.6851562,3.1015625 C17.5890625,3.00546875 17.49375,2.9578125 17.35,2.9578125 Z M16.2960938,3.96328125 C16.2960938,3.96328125 16.2960938,3.96328125 16.2960938,3.96328125 C16.2960938,3.96328125 13.8539063,4.0109375 13.8539063,4.0109375 C13.8539063,4.25 13.7578125,4.48984375 13.5664063,4.63359375 C13.375,4.825 13.1351563,4.92109375 12.8960938,4.92109375 C12.8960938,4.92109375 12.8960938,4.92109375 12.8960938,4.92109375 C12.8960938,4.92109375 11.8421875,4.92109375 11.8421875,4.92109375 C11.603125,4.92109375 11.3632813,4.825 11.171875,4.63359375 C10.9804688,4.48984375 10.884375,4.25078125 10.884375,4.0109375 C10.884375,4.0109375 10.884375,4.0109375 10.884375,4.0109375 C10.884375,4.0109375 10.884375,3.96328125 10.884375,3.96328125 C10.884375,3.96328125 8.4421875,3.96328125 8.4421875,3.96328125 C8.10703125,3.96328125 7.96328125,4.10703125 7.96328125,4.4421875 C7.96328125,4.4421875 7.96328125,4.4421875 7.96328125,4.4421875 C7.96328125,4.4421875 7.96328125,20.1507813 7.96328125,20.1507813 C7.96328125,20.4859375 8.10703125,20.6296875 8.4421875,20.6296875 C8.4421875,20.6296875 8.4421875,20.6296875 8.4421875,20.6296875 C8.4421875,20.6296875 16.296875,20.6296875 16.296875,20.6296875 C16.6320313,20.6296875 16.7757813,20.4859375 16.7757813,20.1507813 C16.7757813,20.1507813 16.7757813,20.1507813 16.7757813,20.1507813 C16.7757813,20.1507813 16.7757813,4.4421875 16.7757813,4.4421875 C16.7757813,4.10703125 16.6320313,3.96328125 16.296875,3.96328125 L16.2960938,3.96328125 Z M8.92109375,4.92109375 C8.92109375,4.92109375 10.1664062,4.92109375 10.1664062,4.92109375 C10.5015625,5.59140625 11.0765625,5.9265625 11.8429687,5.9265625 C11.8429687,5.9265625 11.8429687,5.9265625 11.8429687,5.9265625 C11.8429687,5.9265625 12.896875,5.9265625 12.896875,5.9265625 C13.615625,5.9265625 14.1898438,5.59140625 14.5734375,4.96875 C14.5734375,4.96875 14.5734375,4.96875 14.5734375,4.96875 C14.5734375,4.96875 15.81875,4.96875 15.81875,4.96875 C15.81875,4.96875 15.81875,19.671875 15.81875,19.671875 C15.81875,19.671875 8.921875,19.671875 8.921875,19.671875 C8.921875,19.671875 8.921875,4.92109375 8.921875,4.92109375 L8.92109375,4.92109375 Z M13.375,17.7085937 C13.375,17.7085937 13.375,17.7085937 13.375,17.7085937 C13.375,17.7085937 11.3632812,17.7085937 11.3632812,17.7085937 C11.028125,17.7085937 10.884375,17.8523438 10.884375,18.1398438 C10.884375,18.1398438 10.884375,18.1398438 10.884375,18.1398438 C10.884375,18.1398438 10.884375,18.1875 10.884375,18.1875 C10.884375,18.5226562 11.028125,18.6664063 11.3632812,18.6664063 C11.3632812,18.6664063 11.3632812,18.6664063 11.3632812,18.6664063 C11.3632812,18.6664063 13.375,18.6664063 13.375,18.6664063 C13.7101562,18.6664063 13.8539062,18.5226562 13.8539062,18.1875 C13.8539062,18.1875 13.8539062,18.1875 13.8539062,18.1875 C13.8539062,18.1875 13.8539062,18.1398438 13.8539062,18.1398438 C13.8539062,17.8523438 13.7101562,17.7085937 13.375,17.7085937 C13.375,17.7085937 13.375,17.7085937 13.375,17.7085937 Z"/>
  <title>Mobile Phone</title>
</svg>