<svg xmlns="http://www.w3.org/2000/svg" viewBox="0 0 25 25" id="money">
  <path d="M11.2539063,16.7460938 C11.2539063,16.7460938 11.3015625,16.7460938 11.3015625,16.7460938 C12.259375,16.6984375 13.0734375,16.2671875 13.74375,15.5484375 C14.3664063,14.8296875 14.7015625,14.015625 14.7015625,13.0101563 C14.7015625,13.0101563 14.7015625,13.0101563 14.7015625,13.0101563 C14.7015625,13.0101563 14.7015625,12.7710938 14.7015625,12.7710938 C14.7015625,12.7710938 14.7015625,12.5796875 14.7015625,12.5796875 C14.7015625,11.5742188 14.3664063,10.7601562 13.74375,10.0414062 C13.0734375,9.32265625 12.259375,8.93984375 11.3015625,8.8921875 C11.3015625,8.8921875 11.3015625,8.8921875 11.3015625,8.8921875 C10.2960938,8.93984375 9.48203125,9.3234375 8.859375,10.0414062 C8.1890625,10.7601562 7.85390625,11.5742188 7.85390625,12.5796875 C7.85390625,12.5796875 7.85390625,12.5796875 7.85390625,12.5796875 C7.85390625,12.5796875 7.85390625,12.81875 7.85390625,12.81875 C7.85390625,12.81875 7.85390625,13.0101563 7.85390625,13.0101563 C7.85390625,14.015625 8.1890625,14.8296875 8.859375,15.5484375 C9.48203125,16.2671875 10.2960938,16.6976563 11.2539063,16.7460938 C11.2539063,16.7460938 11.2539063,16.7460938 11.2539063,16.7460938 Z M11.2539063,9.84921875 C11.2539063,9.84921875 11.3015625,9.84921875 11.3015625,9.84921875 C12.0203125,9.896875 12.5945313,10.184375 13.0734375,10.7109375 C13.5046875,11.2375 13.74375,11.8601562 13.74375,12.5789062 C13.74375,12.5789062 13.74375,12.5789062 13.74375,12.5789062 C13.74375,12.5789062 13.74375,12.8179687 13.74375,12.8179687 C13.74375,12.8179687 13.74375,13.009375 13.74375,13.009375 C13.74375,13.728125 13.5046875,14.3023438 13.0734375,14.8289063 C12.5945313,15.3554688 12.0195312,15.690625 11.3015625,15.7390625 C11.3015625,15.7390625 11.3015625,15.7390625 11.3015625,15.7390625 C10.5828125,15.6914062 10.0085938,15.35625 9.5296875,14.8289063 C9.05078125,14.3015625 8.8109375,13.7273438 8.8109375,13.009375 C8.8109375,13.009375 8.8109375,13.009375 8.8109375,13.009375 C8.8109375,13.009375 8.8109375,12.7703125 8.8109375,12.7703125 C8.8109375,12.7703125 8.8109375,12.5789062 8.8109375,12.5789062 C8.8109375,11.8601562 9.05,11.2382812 9.5296875,10.7109375 C10.009375,10.1835938 10.5835938,9.896875 11.2539062,9.84921875 C11.2539062,9.84921875 11.2539062,9.84921875 11.2539062,9.84921875 L11.2539063,9.84921875 Z M18.1507812,17.7039062 C17.815625,17.7039062 17.671875,17.5601562 17.671875,17.225 C17.671875,16.8898438 17.815625,16.7460938 18.1507812,16.7460938 C18.1507812,16.7460938 18.1507812,16.7460938 18.1507812,16.7460938 C18.1507812,16.7460938 20.1140625,16.7460938 20.1140625,16.7460938 C20.4492187,16.7460938 20.5929687,16.8898438 20.5929687,17.225 C20.5929687,17.5601562 20.4492187,17.7039062 20.1140625,17.7039062 C20.1140625,17.7039062 20.1140625,17.7039062 20.1140625,17.7039062 C20.1140625,17.7039062 18.1507812,17.7039062 18.1507812,17.7039062 Z M1.9625,8.4125 C1.9625,8.4125 1.9625,8.4125 1.9625,8.4125 C1.9625,8.07734375 2.10625,7.8859375 2.44140625,7.8859375 C2.44140625,7.8859375 2.44140625,7.8859375 2.44140625,7.8859375 C2.44140625,7.8859375 4.4046875,7.8859375 4.4046875,7.8859375 C4.73984375,7.8859375 4.88359375,8.07734375 4.88359375,8.4125 C4.88359375,8.4125 4.88359375,8.4125 4.88359375,8.4125 C4.88359375,8.74765625 4.73984375,8.89140625 4.4046875,8.89140625 C4.4046875,8.89140625 4.4046875,8.89140625 4.4046875,8.89140625 C4.4046875,8.89140625 2.44140625,8.89140625 2.44140625,8.89140625 C2.10625,8.89140625 1.9625,8.74765625 1.9625,8.4125 Z M21.5992188,4.9640625 C21.5992188,4.9640625 21.5992188,4.9640625 21.5992188,4.9640625 C21.5992188,4.9640625 0.9578125,4.9640625 0.9578125,4.9640625 C0.71875,4.9640625 0.47890625,5.06015625 0.2875,5.2515625 C0.09609375,5.44296875 0,5.6828125 0,5.921875 C0,5.921875 0,5.921875 0,5.921875 C0,5.921875 0,19.6671875 0,19.6671875 C0,19.90625 0.09609375,20.1460938 0.2875,20.3375 C0.47890625,20.5765625 0.71875,20.6726563 0.9578125,20.6726563 C0.9578125,20.6726563 0.9578125,20.6726563 0.9578125,20.6726563 C0.9578125,20.6726563 21.5992188,20.6726563 21.5992188,20.6726563 C21.8382813,20.6726563 22.078125,20.5765625 22.2695313,20.3375 C22.4609375,20.1460938 22.5570313,19.90625 22.5570313,19.6671875 C22.5570313,19.6671875 22.5570313,19.6671875 22.5570313,19.6671875 C22.5570313,19.6671875 22.5570313,5.921875 22.5570313,5.921875 C22.5570313,5.6828125 22.4609375,5.44296875 22.2695313,5.2515625 C22.078125,5.06015625 21.8382813,4.9640625 21.5992188,4.9640625 Z M21.5992187,5.921875 C21.5992187,5.921875 21.5992187,19.6671875 21.5992187,19.6671875 C21.5992187,19.6671875 0.9578125,19.6671875 0.9578125,19.6671875 C0.9578125,19.6671875 0.9578125,5.921875 0.9578125,5.921875 C0.9578125,5.921875 21.5992187,5.921875 21.5992187,5.921875 Z M24.5203125,4.9640625 C24.5203125,4.9640625 24.5203125,4.9640625 24.5203125,4.9640625 C24.5203125,4.9640625 24.5203125,18.1828125 24.5203125,18.1828125 C24.5203125,18.5179687 24.3765625,18.709375 24.0414063,18.709375 C23.70625,18.709375 23.5625,18.5179687 23.5625,18.1828125 C23.5625,18.1828125 23.5625,18.1828125 23.5625,18.1828125 C23.5625,18.1828125 23.5625,4.9640625 23.5625,4.9640625 C23.5625,4.725 23.4664062,4.48515625 23.275,4.2453125 C23.0359375,4.05390625 22.7960938,3.9578125 22.55625,3.9578125 C22.55625,3.9578125 22.55625,3.9578125 22.55625,3.9578125 C22.55625,3.9578125 2.44140625,3.9578125 2.44140625,3.9578125 C2.10625,3.9578125 1.9625,3.8140625 1.9625,3.47890625 C1.9625,3.14375 2.10625,3 2.44140625,3 C2.44140625,3 2.44140625,3 2.44140625,3 C2.44140625,3 22.55625,3 22.55625,3 C23.0828125,3 23.5617188,3.19140625 23.9453125,3.575 C24.3289062,3.95859375 24.5203125,4.43671875 24.5203125,4.9640625 Z"/>
  <title>Money</title>
</svg>