<svg xmlns="http://www.w3.org/2000/svg" viewBox="0 0 25 25" id="money-send">
  <path d="M8.8125,15.4640625 C8.8125,15.4640625 8.8125,15.703125 8.8125,15.703125 C8.8125,15.703125 8.8125,15.9421875 8.8125,15.9421875 C8.8125,16.9476563 9.14765625,17.7617188 9.81796875,18.4804688 C10.4882812,19.1992187 11.3023438,19.5820312 12.2601563,19.6296875 C12.2601563,19.6296875 12.2601563,19.6296875 12.2601563,19.6296875 C13.2179688,19.5820312 14.0320313,19.1984375 14.7023438,18.4804688 C15.3726563,17.7625 15.7078125,16.9476563 15.7078125,15.9421875 C15.7078125,15.9421875 15.7078125,15.9421875 15.7078125,15.9421875 C15.7078125,15.9421875 15.7078125,15.703125 15.7078125,15.703125 C15.7078125,15.703125 15.7078125,15.4640625 15.7078125,15.4640625 C15.7078125,14.50625 15.3726563,13.6445312 14.7023438,12.9257812 C14.0320313,12.2070313 13.2179688,11.8242188 12.2601563,11.7765625 C12.2601563,11.7765625 12.2601563,11.7765625 12.2601563,11.7765625 C11.3023438,11.8242188 10.4882812,12.2078125 9.81796875,12.9257812 C9.14765625,13.64375 8.8125,14.50625 8.8125,15.4640625 C8.8125,15.4640625 8.8125,15.4640625 8.8125,15.4640625 Z M12.2609375,12.7820312 C12.2609375,12.7820312 12.2609375,12.7820312 12.2609375,12.7820312 C12.9796875,12.8296875 13.5539062,13.1171875 14.0328125,13.64375 C14.4640625,14.1703125 14.703125,14.7453125 14.703125,15.4632813 C14.703125,15.4632813 14.703125,15.4632813 14.703125,15.4632813 C14.703125,15.4632813 14.703125,15.7023438 14.703125,15.7023438 C14.703125,15.7023438 14.703125,15.9414063 14.703125,15.9414063 C14.703125,16.6601563 14.4640625,17.234375 14.0328125,17.7609375 C13.5539062,18.2875 12.9789062,18.6226563 12.2609375,18.6710938 C12.2609375,18.6710938 12.2609375,18.6710938 12.2609375,18.6710938 C11.5421875,18.6234375 10.9679687,18.2882813 10.5367187,17.7609375 C10.0578125,17.234375 9.81796875,16.659375 9.81796875,15.9414063 C9.81796875,15.9414063 9.81796875,15.9414063 9.81796875,15.9414063 C9.81796875,15.9414063 9.81796875,15.7023438 9.81796875,15.7023438 C9.81796875,15.7023438 9.81796875,15.4632813 9.81796875,15.4632813 C9.81796875,14.7445312 10.0570312,14.1703125 10.5367187,13.64375 C10.9679687,13.1171875 11.5421875,12.8296875 12.2609375,12.7820312 Z M21.0726562,11.7765625 C21.0726562,11.7765625 19.109375,11.7765625 19.109375,11.7765625 C18.7742187,11.7765625 18.6304687,11.6328125 18.6304687,11.2976562 C18.6304687,10.9625 18.7742187,10.81875 19.109375,10.81875 C19.109375,10.81875 19.109375,10.81875 19.109375,10.81875 C19.109375,10.81875 21.0726562,10.81875 21.0726562,10.81875 C21.4078125,10.81875 21.5992187,10.9625 21.5992187,11.2976562 C21.5992187,11.6328125 21.4078125,11.7765625 21.0726562,11.7765625 C21.0726562,11.7765625 21.0726562,11.7765625 21.0726562,11.7765625 L21.0726562,11.7765625 Z M3.4484375,19.6304687 C3.4484375,19.6304687 5.41171875,19.6304687 5.41171875,19.6304687 C5.746875,19.6304687 5.890625,19.7742187 5.890625,20.109375 C5.890625,20.109375 5.890625,20.109375 5.890625,20.109375 C5.890625,20.4445312 5.746875,20.6359375 5.41171875,20.6359375 C5.41171875,20.6359375 5.41171875,20.6359375 5.41171875,20.6359375 C5.41171875,20.6359375 3.4484375,20.6359375 3.4484375,20.6359375 C3.11328125,20.6359375 2.921875,20.4445312 2.921875,20.109375 C2.921875,20.109375 2.921875,20.109375 2.921875,20.109375 C2.921875,19.7742187 3.11328125,19.6304687 3.4484375,19.6304687 C3.4484375,19.6304687 3.4484375,19.6304687 3.4484375,19.6304687 L3.4484375,19.6304687 Z M24.5210937,8.8546875 C24.5210937,8.8546875 24.5210937,8.8546875 24.5210937,8.8546875 C24.5210937,8.8546875 24.5210937,22.5523437 24.5210937,22.5523437 C24.5210937,22.8398437 24.425,23.0789062 24.2335937,23.2710937 C24.0421875,23.4632812 23.8023437,23.5585938 23.5632812,23.5585938 C23.5632812,23.5585938 23.5632812,23.5585938 23.5632812,23.5585938 C23.5632812,23.5585938 0.9578125,23.5585938 0.9578125,23.5585938 C0.71875,23.5585938 0.47890625,23.4625 0.2875,23.2710938 C0.09609375,23.0796875 0,22.8398438 0,22.5523437 C0,22.5523437 0,22.5523437 0,22.5523437 C0,22.5523437 0,8.8546875 0,8.8546875 C0,8.5671875 0.09609375,8.328125 0.2875,8.1359375 C0.47890625,7.94375 0.71875,7.8484375 0.9578125,7.8484375 C0.9578125,7.8484375 0.9578125,7.8484375 0.9578125,7.8484375 C0.9578125,7.8484375 10.296875,7.8484375 10.296875,7.8484375 C10.6320313,7.8484375 10.7757812,8.03984375 10.7757812,8.375 C10.7757812,8.375 10.7757812,8.375 10.7757812,8.375 C10.7757812,8.71015625 10.6320313,8.85390625 10.296875,8.85390625 C10.296875,8.85390625 10.296875,8.85390625 10.296875,8.85390625 C10.296875,8.85390625 0.9578125,8.85390625 0.9578125,8.85390625 C0.9578125,8.85390625 0.9578125,22.5515625 0.9578125,22.5515625 C0.9578125,22.5515625 23.5632812,22.5515625 23.5632812,22.5515625 C23.5632812,22.5515625 23.5632812,8.85390625 23.5632812,8.85390625 C23.5632812,8.85390625 11.7820312,8.85390625 11.7820312,8.85390625 C11.7820312,8.85390625 11.7820312,2.67578125 11.7820312,2.67578125 C11.7820312,2.67578125 9.675,4.7828125 9.675,4.7828125 C9.57890625,4.87890625 9.48359375,4.9265625 9.33984375,4.9265625 C9.33984375,4.9265625 9.33984375,4.9265625 9.33984375,4.9265625 C9.0046875,4.9265625 8.81328125,4.73515625 8.81328125,4.4 C8.81328125,4.4 8.81328125,4.4 8.81328125,4.4 C8.81328125,4.35234375 8.8609375,4.25625 8.95703125,4.06484375 C8.95703125,4.06484375 8.95703125,4.06484375 8.95703125,4.06484375 C8.95703125,4.06484375 11.9265625,1.14375 11.9265625,1.14375 C12.0226562,1.04765625 12.1179687,1 12.2617187,1 C12.4054687,1 12.5007812,1.04765625 12.596875,1.14375 C12.596875,1.14375 12.596875,1.14375 12.596875,1.14375 C12.596875,1.14375 15.5664062,4.06484375 15.5664062,4.06484375 C15.6625,4.1609375 15.7101562,4.30390625 15.7101562,4.44765625 C15.7101562,4.44765625 15.7101562,4.44765625 15.7101562,4.44765625 C15.7101562,4.7828125 15.5664062,4.9265625 15.23125,4.9265625 C15.23125,4.9265625 15.23125,4.9265625 15.23125,4.9265625 C15.0875,4.9265625 14.94375,4.87890625 14.8484375,4.7828125 C14.8484375,4.7828125 14.8484375,4.7828125 14.8484375,4.7828125 C14.8484375,4.7828125 12.7414063,2.67578125 12.7414063,2.67578125 C12.7414063,2.67578125 12.7414063,7.8484375 12.7414063,7.8484375 C12.7414063,7.8484375 23.5648438,7.8484375 23.5648438,7.8484375 C23.8039063,7.8484375 24.04375,7.94453125 24.2351562,8.1359375 C24.4265625,8.32734375 24.5226563,8.5671875 24.5226563,8.8546875 L24.5210937,8.8546875 Z"/>
  <title>Money Send</title>
</svg>