<svg xmlns="http://www.w3.org/2000/svg" viewBox="0 0 25 25" id="money-solid">
  <path d="M24.5203125,4.9640625 C24.5203125,4.9640625 24.5203125,4.9640625 24.5203125,4.9640625 C24.5203125,4.9640625 24.5203125,18.1828125 24.5203125,18.1828125 C24.5203125,18.5179687 24.3765625,18.709375 24.0414062,18.709375 C23.70625,18.709375 23.5625,18.5179687 23.5625,18.1828125 C23.5625,18.1828125 23.5625,18.1828125 23.5625,18.1828125 C23.5625,18.1828125 23.5625,4.9640625 23.5625,4.9640625 C23.5625,4.725 23.4664062,4.48515625 23.275,4.2453125 C23.0359375,4.05390625 22.7960938,3.9578125 22.55625,3.9578125 C22.55625,3.9578125 22.55625,3.9578125 22.55625,3.9578125 C22.55625,3.9578125 2.44140625,3.9578125 2.44140625,3.9578125 C2.10625,3.9578125 1.9625,3.8140625 1.9625,3.47890625 C1.9625,3.14375 2.10625,3 2.44140625,3 C2.44140625,3 2.44140625,3 2.44140625,3 C2.44140625,3 22.55625,3 22.55625,3 C23.0828125,3 23.5617188,3.19140625 23.9453125,3.575 C24.3289062,3.95859375 24.5203125,4.43671875 24.5203125,4.9640625 Z M22.5570313,5.921875 C22.5570313,5.921875 22.5570313,5.921875 22.5570313,5.921875 C22.5570313,5.921875 22.5570313,19.6671875 22.5570313,19.6671875 C22.5570313,19.90625 22.4609375,20.1460937 22.2695313,20.3375 C22.078125,20.5765625 21.8382813,20.6726562 21.5992188,20.6726562 C21.5992188,20.6726562 21.5992188,20.6726562 21.5992188,20.6726562 C21.5992188,20.6726562 0.9578125,20.6726562 0.9578125,20.6726562 C0.71875,20.6726562 0.47890625,20.5765625 0.2875,20.3375 C0.09609375,20.1460937 0,19.90625 0,19.6671875 C0,19.6671875 0,19.6671875 0,19.6671875 C0,19.6671875 0,5.921875 0,5.921875 C0,5.6828125 0.09609375,5.44296875 0.2875,5.2515625 C0.47890625,5.06015625 0.71875,4.9640625 0.9578125,4.9640625 C0.9578125,4.9640625 0.9578125,4.9640625 0.9578125,4.9640625 C0.9578125,4.9640625 21.5992188,4.9640625 21.5992188,4.9640625 C21.8382813,4.9640625 22.078125,5.06015625 22.2695313,5.2515625 C22.4609375,5.44296875 22.5570313,5.6828125 22.5570313,5.921875 Z M4.884375,8.4125 C4.884375,8.4125 4.884375,8.4125 4.884375,8.4125 C4.884375,8.07734375 4.740625,7.8859375 4.40546875,7.8859375 C4.40546875,7.8859375 4.40546875,7.8859375 4.40546875,7.8859375 C4.40546875,7.8859375 2.4421875,7.8859375 2.4421875,7.8859375 C2.10703125,7.8859375 1.96328125,8.07734375 1.96328125,8.4125 C1.96328125,8.4125 1.96328125,8.4125 1.96328125,8.4125 C1.96328125,8.74765625 2.10703125,8.89140625 2.4421875,8.89140625 C2.4421875,8.89140625 2.4421875,8.89140625 2.4421875,8.89140625 C2.4421875,8.89140625 4.40546875,8.89140625 4.40546875,8.89140625 C4.740625,8.89140625 4.884375,8.74765625 4.884375,8.4125 L4.884375,8.4125 Z M14.7023438,12.7710938 C14.7023438,12.7710938 14.7023438,12.81875 14.7023438,12.81875 C14.7023438,12.81875 14.7023438,12.5796875 14.7023438,12.5796875 C14.7023438,11.5742188 14.3671875,10.7601562 13.7445313,10.0414062 C13.0742188,9.32265625 12.2601563,8.93984375 11.3023438,8.8921875 C11.3023438,8.8921875 11.3023438,8.8921875 11.3023438,8.8921875 C10.296875,8.93984375 9.4828125,9.3234375 8.86015625,10.0414062 C8.18984375,10.7601562 7.8546875,11.5742188 7.8546875,12.5796875 C7.8546875,12.5796875 7.8546875,12.5796875 7.8546875,12.5796875 C7.8546875,12.5796875 7.8546875,12.81875 7.8546875,12.81875 C7.8546875,12.81875 7.8546875,13.0101563 7.8546875,13.0101563 C7.8546875,14.015625 8.18984375,14.8296875 8.86015625,15.5484375 C9.4828125,16.2671875 10.296875,16.6976563 11.2546875,16.7460938 C11.2546875,16.7460938 11.2546875,16.7460938 11.2546875,16.7460938 C12.2601563,16.6984375 13.075,16.2671875 13.7453125,15.5484375 C14.3679688,14.8296875 14.703125,14.015625 14.703125,13.0101563 C14.703125,13.0101563 14.703125,13.0101563 14.703125,13.0101563 C14.703125,13.0101563 14.703125,12.7710938 14.703125,12.7710938 L14.7023438,12.7710938 Z M20.1140625,17.7039062 C20.4492187,17.7039062 20.5929687,17.5601562 20.5929687,17.225 C20.5929687,16.8898438 20.4492187,16.7460938 20.1140625,16.7460938 C20.1140625,16.7460938 20.1140625,16.7460938 20.1140625,16.7460938 C20.1140625,16.7460938 18.1507812,16.7460938 18.1507812,16.7460938 C17.815625,16.7460938 17.671875,16.8898438 17.671875,17.225 C17.671875,17.5601562 17.815625,17.7039062 18.1507812,17.7039062 C18.1507812,17.7039062 18.1507812,17.7039062 18.1507812,17.7039062 C18.1507812,17.7039062 20.1140625,17.7039062 20.1140625,17.7039062 Z"/>
  <title>Money Solid</title>
</svg>