<svg xmlns="http://www.w3.org/2000/svg" viewBox="0 0 25 25" id="money-send-solid">
  <path d="M23.5632812,7.8484375 C23.5632812,7.8484375 23.5632812,7.8484375 23.5632812,7.8484375 C23.5632812,7.8484375 12.7398437,7.8484375 12.7398437,7.8484375 C12.7398437,7.8484375 12.7398437,2.67578125 12.7398437,2.67578125 C12.7398437,2.67578125 14.846875,4.7828125 14.846875,4.7828125 C14.9429688,4.87890625 15.0859375,4.9265625 15.2296875,4.9265625 C15.2296875,4.9265625 15.2296875,4.9265625 15.2296875,4.9265625 C15.5648437,4.9265625 15.7085937,4.7828125 15.7085937,4.44765625 C15.7085937,4.44765625 15.7085937,4.44765625 15.7085937,4.44765625 C15.7085937,4.30390625 15.6609375,4.16015625 15.5648437,4.06484375 C15.5648437,4.06484375 15.5648437,4.06484375 15.5648437,4.06484375 C15.5648437,4.06484375 12.5953125,1.14375 12.5953125,1.14375 C12.4992187,1.04765625 12.4039062,1 12.2601562,1 C12.1164063,1 12.0210937,1.04765625 11.925,1.14375 C11.925,1.14375 11.925,1.14375 11.925,1.14375 C11.925,1.14375 8.95546875,4.06484375 8.95546875,4.06484375 C8.859375,4.25625 8.81171875,4.4 8.81171875,4.44765625 C8.81171875,4.44765625 8.81171875,4.44765625 8.81171875,4.44765625 C8.81171875,4.7828125 9.003125,4.9265625 9.33828125,4.9265625 C9.33828125,4.9265625 9.33828125,4.9265625 9.33828125,4.9265625 C9.48203125,4.9265625 9.57734375,4.87890625 9.6734375,4.7828125 C9.6734375,4.7828125 9.6734375,4.7828125 9.6734375,4.7828125 C9.6734375,4.7828125 11.7804688,2.67578125 11.7804688,2.67578125 C11.7804688,2.67578125 11.7804688,9.4765625 11.7804688,9.4765625 C11.7804688,9.715625 11.6367188,9.81171875 11.3976562,9.81171875 C11.3976562,9.81171875 11.3976562,9.81171875 11.3976562,9.81171875 C11.3976562,9.81171875 11.1585938,9.81171875 11.1585938,9.81171875 C11.1585938,9.81171875 10.7757812,9.715625 10.7757812,9.4765625 C10.7757812,9.4765625 10.7757812,9.4765625 10.7757812,9.4765625 C10.7757812,9.4765625 10.7757812,7.8484375 10.7757812,7.8484375 C10.7757812,7.8484375 0.9578125,7.8484375 0.9578125,7.8484375 C0.71875,7.8484375 0.47890625,7.94453125 0.2875,8.1359375 C0.09609375,8.32734375 0,8.5671875 0,8.8546875 C0,8.8546875 0,8.8546875 0,8.8546875 C0,8.8546875 0,22.6 0,22.6 C0,22.8390625 0.09609375,23.0789062 0.2875,23.2703125 C0.47890625,23.4617188 0.71875,23.5578125 0.9578125,23.5578125 C0.9578125,23.5578125 0.9578125,23.5578125 0.9578125,23.5578125 C0.9578125,23.5578125 23.5632812,23.5578125 23.5632812,23.5578125 C23.8023438,23.5578125 24.0421875,23.4617187 24.2335937,23.2703125 C24.425,23.0789063 24.5210937,22.8390625 24.5210937,22.6 C24.5210937,22.6 24.5210937,22.6 24.5210937,22.6 C24.5210937,22.6 24.5210937,8.8546875 24.5210937,8.8546875 C24.5210937,8.5671875 24.425,8.328125 24.2335937,8.1359375 C24.0421875,7.94375 23.8023437,7.8484375 23.5632812,7.8484375 Z M5.41171875,20.6359375 C5.41171875,20.6359375 5.41171875,20.6359375 5.41171875,20.6359375 C5.41171875,20.6359375 3.4484375,20.6359375 3.4484375,20.6359375 C3.11328125,20.6359375 2.921875,20.4445312 2.921875,20.109375 C2.921875,20.109375 2.921875,20.109375 2.921875,20.109375 C2.921875,19.7742187 3.11328125,19.6304687 3.4484375,19.6304687 C3.4484375,19.6304687 3.4484375,19.6304687 3.4484375,19.6304687 C3.4484375,19.6304687 5.41171875,19.6304687 5.41171875,19.6304687 C5.746875,19.6304687 5.890625,19.7742187 5.890625,20.109375 C5.890625,20.109375 5.890625,20.109375 5.890625,20.109375 C5.890625,20.4445312 5.746875,20.6359375 5.41171875,20.6359375 Z M12.2609375,19.6304687 C12.2609375,19.6304687 12.2609375,19.6304687 12.2609375,19.6304687 C11.303125,19.5828125 10.4890625,19.1992188 9.81875,18.48125 C9.1484375,17.7632812 8.81328125,16.9484375 8.81328125,15.9429688 C8.81328125,15.9429688 8.81328125,15.9429688 8.81328125,15.9429688 C8.81328125,15.9429688 8.81328125,15.7039063 8.81328125,15.7039063 C8.81328125,15.7039063 8.81328125,15.4648438 8.81328125,15.4648438 C8.81328125,14.5070313 9.1484375,13.6453125 9.81875,12.9265625 C10.4890625,12.2078125 11.303125,11.825 12.2609375,11.7773438 C12.2609375,11.7773438 12.2609375,11.7773438 12.2609375,11.7773438 C13.21875,11.825 14.0328125,12.2085938 14.703125,12.9265625 C15.3734375,13.6445313 15.7085937,14.5070313 15.7085937,15.4648438 C15.7085937,15.4648438 15.7085937,15.4648438 15.7085937,15.4648438 C15.7085937,15.4648438 15.7085937,15.7039063 15.7085937,15.7039063 C15.7085937,15.7039063 15.7085937,15.9429688 15.7085937,15.9429688 C15.7085937,16.9484375 15.3734375,17.7625 14.703125,18.48125 C14.0328125,19.2 13.21875,19.5828125 12.2609375,19.6304687 Z M21.0726562,11.7757812 C21.0726562,11.7757812 21.0726562,11.7757812 21.0726562,11.7757812 C21.0726562,11.7757812 19.109375,11.7757812 19.109375,11.7757812 C18.7742187,11.7757812 18.6304687,11.6320312 18.6304687,11.296875 C18.6304687,10.9617187 18.7742187,10.8179687 19.109375,10.8179687 C19.109375,10.8179687 19.109375,10.8179687 19.109375,10.8179687 C19.109375,10.8179687 21.0726562,10.8179687 21.0726562,10.8179687 C21.4078125,10.8179687 21.5992187,10.9617187 21.5992187,11.296875 C21.5992187,11.6320312 21.4078125,11.7757812 21.0726562,11.7757812 L21.0726562,11.7757812 Z"/>
  <title>Money Send Solid</title>
</svg>