<svg xmlns="http://www.w3.org/2000/svg" viewBox="0 0 25 25" id="monkey">
  <path d="M21.0710937,11.78125 C21.0710937,11.78125 21.0710937,11.78125 21.0710937,11.78125 C22.0289062,11.78125 22.8429688,11.4460937 23.5132813,10.7757812 C24.1835938,10.1054688 24.51875,9.29140625 24.51875,8.33359375 C24.51875,7.37578125 24.1835938,6.56171875 23.5132813,5.89140625 C22.8429688,5.22109375 22.0289063,4.8859375 21.0710937,4.8859375 C21.0710937,4.8859375 21.0710937,4.8859375 21.0710937,4.8859375 C20.7359375,4.8859375 20.3523437,4.98203125 19.921875,5.125 C19.921875,5.125 19.921875,5.125 19.921875,5.125 C19.2992188,3.5921875 18.29375,2.346875 16.9046875,1.3890625 C15.515625,0.47890625 13.9835937,0 12.259375,0 C12.259375,0 12.259375,0 12.259375,0 C10.5828125,0 9.05078125,0.47890625 7.66171875,1.3890625 C6.27265625,2.29921875 5.21953125,3.54453125 4.596875,5.0765625 C4.596875,5.0765625 4.596875,5.0765625 4.596875,5.0765625 C4.0703125,4.9328125 3.68671875,4.88515625 3.44765625,4.88515625 C3.44765625,4.88515625 3.44765625,4.88515625 3.44765625,4.88515625 C2.48984375,4.88515625 1.67578125,5.2203125 1.00546875,5.890625 C0.33515625,6.5609375 0,7.375 0,8.3328125 C0,9.290625 0.33515625,10.1046875 1.00546875,10.775 C1.67578125,11.4453125 2.48984375,11.7804687 3.44765625,11.7804687 C3.44765625,11.7804687 3.44765625,11.7804687 3.44765625,11.7804687 C3.4953125,11.7804687 3.59140625,11.7804687 3.68671875,11.7328125 C3.7828125,11.7328125 3.878125,11.7328125 3.92578125,11.7328125 C3.92578125,11.7328125 3.92578125,11.7328125 3.92578125,11.7328125 C3.92578125,11.7328125 3.92578125,15.325 3.92578125,15.325 C3.303125,16.0914062 2.96796875,17.0492187 2.9203125,18.1507812 C2.9203125,18.1507812 2.9203125,18.1507812 2.9203125,18.1507812 C2.9203125,19.9226562 3.83046875,21.4078125 5.6984375,22.6523437 C7.51796875,23.8976563 9.72109375,24.5203125 12.259375,24.5203125 C14.7976562,24.5203125 17.0007812,23.8976563 18.86875,22.6523438 C20.6882812,21.4070312 21.5984375,19.9226562 21.5984375,18.1507813 C21.5984375,18.1507813 21.5984375,18.1507813 21.5984375,18.1507813 C21.5507812,17.0492188 21.215625,16.0914063 20.5929688,15.325 C20.5929688,15.325 20.5929688,15.325 20.5929688,15.325 C20.5929688,15.325 20.5929688,11.7328125 20.5929688,11.7328125 C20.640625,11.7328125 20.7367188,11.7328125 20.8320313,11.7328125 C20.928125,11.7804688 21.0234375,11.7804688 21.0710938,11.7804688 L21.0710937,11.78125 Z M4.88359375,14.2710937 C4.88359375,14.2710937 4.88359375,8.33203125 4.88359375,8.33203125 C4.88359375,6.27265625 5.60234375,4.5484375 7.0390625,3.11171875 C8.47578125,1.675 10.2,0.95625 12.259375,0.95625 C14.31875,0.95625 16.0429688,1.675 17.4796875,3.11171875 C18.9164063,4.5484375 19.6351563,6.27265625 19.6351563,8.33203125 C19.6351563,8.33203125 19.6351563,8.33203125 19.6351563,8.33203125 C19.6351563,8.33203125 19.6351563,14.2226562 19.6351563,14.2226562 C18.86875,13.6 18.1507813,13.16875 17.4796875,12.8820312 C17.4796875,12.8820312 17.4796875,12.8820312 17.4796875,12.8820312 C17.9109375,11.0140625 18.1023438,9.00234375 18.15,6.8953125 C18.15,6.8953125 18.15,6.8953125 18.15,6.8953125 C18.15,6.56015625 17.9109375,6.225 17.3835937,5.88984375 C16.85625,5.5546875 16.2820313,5.4109375 15.7070313,5.4109375 C15.7070313,5.4109375 15.7070313,5.4109375 15.7070313,5.4109375 C14.509375,5.5546875 13.3125,5.8421875 12.1632813,6.36875 C12.1632813,6.36875 12.1632813,6.36875 12.1632813,6.36875 C11.253125,5.88984375 10.1515625,5.5546875 8.90625,5.4109375 C8.90625,5.4109375 8.90625,5.4109375 8.90625,5.4109375 C8.28359375,5.4109375 7.70859375,5.5546875 7.18203125,5.88984375 C6.65546875,6.225 6.36796875,6.5125 6.36796875,6.84765625 C6.36796875,6.84765625 6.36796875,6.84765625 6.36796875,6.84765625 C6.415625,9.0984375 6.703125,11.1578125 7.134375,13.0257812 C7.134375,13.0257812 7.134375,13.0257812 7.134375,13.0257812 C6.415625,13.1695312 5.65,13.6007813 4.88359375,14.2710937 C4.88359375,14.2710937 4.88359375,14.2710937 4.88359375,14.2710937 Z M3.446875,10.775 C3.446875,10.775 3.446875,10.775 3.446875,10.775 C2.728125,10.775 2.15390625,10.5359375 1.675,10.05625 C1.19609375,9.5765625 0.95625,9.00234375 0.95625,8.33203125 C0.95625,7.66171875 1.19609375,7.08671875 1.675,6.6078125 C2.15390625,6.12890625 2.72890625,5.8890625 3.446875,5.8890625 C3.446875,5.8890625 3.446875,5.8890625 3.446875,5.8890625 C3.78203125,5.8890625 4.021875,5.93671875 4.2609375,6.0328125 C4.2609375,6.0328125 4.2609375,6.0328125 4.2609375,6.0328125 C4.021875,6.703125 3.92578125,7.46953125 3.92578125,8.33203125 C3.92578125,8.33203125 3.92578125,8.33203125 3.92578125,8.33203125 C3.92578125,8.33203125 3.92578125,10.7265625 3.92578125,10.7265625 C3.8296875,10.7742187 3.68671875,10.7742187 3.446875,10.7742187 L3.446875,10.775 Z M18.15,21.934375 C16.4734375,22.9882812 14.5101562,23.5148437 12.259375,23.5148437 C10.0085937,23.5148437 8.04453125,22.9882812 6.41640625,21.934375 C4.73984375,20.8804687 3.92578125,19.6351562 3.92578125,18.1507813 C3.92578125,18.1507813 3.92578125,18.1507813 3.92578125,18.1507813 C4.021875,16.953125 4.50078125,15.9 5.31484375,15.0375 C6.12890625,14.2234375 7.08671875,13.7445312 8.284375,13.6007813 C8.284375,13.6007813 8.284375,13.6007813 8.284375,13.6007813 C7.709375,11.5414063 7.42265625,9.33828125 7.37421875,6.99140625 C7.37421875,6.99140625 7.37421875,6.99140625 7.37421875,6.99140625 C7.80546875,6.56015625 8.284375,6.36875 8.8109375,6.36875 C8.8109375,6.36875 8.8109375,6.36875 8.8109375,6.36875 C9.9125,6.5125 11.0140625,6.84765625 12.1632813,7.3265625 C12.1632813,7.3265625 12.1632813,7.3265625 12.1632813,7.3265625 C12.1632813,7.3265625 12.259375,7.37421875 12.259375,7.37421875 C12.259375,7.37421875 12.4507813,7.3265625 12.4507813,7.3265625 C13.45625,6.8953125 14.5101563,6.56015625 15.6117188,6.36875 C15.6117188,6.36875 15.6117188,6.36875 15.6117188,6.36875 C16.234375,6.36875 16.7132813,6.56015625 17.1445312,6.99140625 C17.1445312,6.99140625 17.1445312,6.99140625 17.1445312,6.99140625 C17.096875,9.3859375 16.7617188,11.6367188 16.1390625,13.7921875 C16.1390625,13.7921875 16.1390625,13.7921875 16.1390625,13.7921875 C17.1445312,13.6960937 18.1507813,14.1273437 19.15625,15.1328125 C20.1140625,16.1382812 20.5929688,17.1445312 20.5929688,18.15 C20.5929688,18.15 20.5929688,18.15 20.5929688,18.15 C20.5929688,19.634375 19.7789062,20.8796875 18.1507812,21.9335938 L18.15,21.934375 Z M20.2570313,5.9859375 C20.2570313,5.9859375 20.2570313,6.03359375 20.2570313,6.03359375 C20.4960938,5.9375 20.7359375,5.88984375 21.0710938,5.88984375 C21.0710938,5.88984375 21.0710938,5.88984375 21.0710938,5.88984375 C21.7898438,5.88984375 22.3640625,6.12890625 22.8429688,6.60859375 C23.321875,7.08828125 23.5617188,7.6625 23.5617188,8.3328125 C23.5617188,9.003125 23.3226563,9.578125 22.8429688,10.0570313 C22.3632813,10.5359375 21.7890625,10.7757813 21.0710938,10.7757813 C21.0710938,10.7757813 21.0710938,10.7757813 21.0710938,10.7757813 C20.8320312,10.7757813 20.6882813,10.7757813 20.5921875,10.728125 C20.5921875,10.728125 20.5921875,10.728125 20.5921875,10.728125 C20.5921875,10.728125 20.5921875,8.33359375 20.5921875,8.33359375 C20.5921875,7.471875 20.4960938,6.70546875 20.2570313,5.98671875 C20.2570313,5.98671875 20.2570313,5.98671875 20.2570313,5.98671875 L20.2570313,5.9859375 Z"/>
  <title>Monkey</title>
</svg>