<svg xmlns="http://www.w3.org/2000/svg" viewBox="0 0 25 25" id="monkey-solid">
  <path d="M21.071875,11.78125 C21.071875,11.78125 21.071875,11.78125 21.071875,11.78125 C21.071875,11.78125 21.1195313,11.78125 21.1195313,11.78125 C22.0773437,11.78125 22.8914062,11.4460937 23.5617187,10.7757812 C24.2320312,10.1054688 24.5671875,9.29140625 24.5671875,8.33359375 C24.5671875,7.37578125 24.2320312,6.56171875 23.5617187,5.89140625 C22.8914063,5.22109375 22.0773438,4.8859375 21.1195313,4.8859375 C21.1195313,4.8859375 21.1195313,4.8859375 21.1195313,4.8859375 C20.7367188,4.8859375 20.353125,4.98203125 19.921875,5.125 C19.921875,5.125 19.921875,5.125 19.921875,5.125 C19.2992187,3.5921875 18.29375,2.346875 16.9046875,1.3890625 C15.515625,0.47890625 13.9835937,0 12.259375,0 C12.259375,0 12.259375,0 12.259375,0 C10.5828125,0 9.05078125,0.47890625 7.66171875,1.3890625 C6.27265625,2.29921875 5.21953125,3.54453125 4.596875,5.0765625 C4.596875,5.0765625 4.596875,5.0765625 4.596875,5.0765625 C4.0703125,4.9328125 3.68671875,4.88515625 3.44765625,4.88515625 C3.44765625,4.88515625 3.44765625,4.88515625 3.44765625,4.88515625 C2.48984375,4.88515625 1.67578125,5.2203125 1.00546875,5.890625 C0.33515625,6.5609375 0,7.375 0,8.3328125 C0,9.290625 0.33515625,10.1046875 1.00546875,10.775 C1.67578125,11.4453125 2.48984375,11.7804687 3.44765625,11.7804687 C3.44765625,11.7804687 3.44765625,11.7804687 3.44765625,11.7804687 C3.4953125,11.7804687 3.59140625,11.7804687 3.68671875,11.7328125 C3.7828125,11.7328125 3.878125,11.7328125 3.92578125,11.7328125 C3.92578125,11.7328125 3.92578125,11.7328125 3.92578125,11.7328125 C3.92578125,11.7328125 3.92578125,15.325 3.92578125,15.325 C3.303125,16.0914062 2.96796875,17.0492187 2.9203125,18.1507812 C2.9203125,18.1507812 2.9203125,18.1507812 2.9203125,18.1507812 C2.9203125,19.9226562 3.83046875,21.4078125 5.6984375,22.6523437 C7.51796875,23.8976563 9.72109375,24.5203125 12.259375,24.5203125 C14.7976563,24.5203125 17.0007812,23.8976563 18.86875,22.6523438 C20.6882813,21.4070312 21.5984375,19.9226562 21.5984375,18.1507813 C21.5984375,18.1507813 21.5984375,18.1507813 21.5984375,18.1507813 C21.5507812,17.0492188 21.215625,16.0914063 20.5929688,15.325 C20.5929688,15.325 20.5929688,15.325 20.5929688,15.325 C20.5929688,15.325 20.5929688,11.7328125 20.5929688,11.7328125 C20.640625,11.7328125 20.7367188,11.7328125 20.8320313,11.7328125 C20.928125,11.7804688 21.0234375,11.7804688 21.0710938,11.7804688 L21.071875,11.78125 Z M3.44765625,10.775 C3.44765625,10.775 3.44765625,10.775 3.44765625,10.775 C2.72890625,10.775 2.1546875,10.5359375 1.67578125,10.05625 C1.196875,9.5765625 0.95703125,9.00234375 0.95703125,8.33203125 C0.95703125,7.66171875 1.196875,7.08671875 1.67578125,6.6078125 C2.1546875,6.12890625 2.7296875,5.8890625 3.44765625,5.8890625 C3.44765625,5.8890625 3.44765625,5.8890625 3.44765625,5.8890625 C3.7828125,5.8890625 4.02265625,5.93671875 4.26171875,6.0328125 C4.26171875,6.0328125 4.26171875,6.0328125 4.26171875,6.0328125 C4.02265625,6.65546875 3.9265625,7.421875 3.9265625,8.33203125 C3.9265625,8.33203125 3.9265625,8.33203125 3.9265625,8.33203125 C3.9265625,8.33203125 3.9265625,10.7265625 3.9265625,10.7265625 C3.83046875,10.7742187 3.6875,10.7742187 3.44765625,10.7742187 L3.44765625,10.775 Z M18.1507812,21.934375 C16.5226562,22.9882812 14.5585937,23.5148437 12.2601562,23.5148437 C9.96171875,23.5148437 7.99765625,22.9882812 6.36953125,21.934375 C4.74140625,20.8804687 3.92734375,19.6351562 3.92734375,18.1507812 C3.92734375,18.1507812 3.92734375,18.1507812 3.92734375,18.1507812 C3.92734375,17.0492187 4.35859375,16.0914062 5.17265625,15.2773437 C5.98671875,14.4632812 7.040625,13.840625 8.2859375,13.409375 C8.2859375,13.409375 8.2859375,13.409375 8.2859375,13.409375 C8.18984375,13.0742187 8.09453125,12.7867187 8.046875,12.4515625 C8.046875,12.4515625 8.046875,12.4515625 8.046875,12.4515625 C7.615625,10.775 7.3765625,8.95546875 7.3765625,6.99140625 C7.3765625,6.99140625 7.3765625,6.99140625 7.3765625,6.99140625 C7.8078125,6.56015625 8.28671875,6.36875 8.81328125,6.36875 C8.81328125,6.36875 8.81328125,6.36875 8.81328125,6.36875 C9.91484375,6.5125 11.0164062,6.84765625 12.165625,7.3265625 C12.165625,7.3265625 12.165625,7.3265625 12.165625,7.3265625 C12.165625,7.3265625 12.2617188,7.37421875 12.2617188,7.37421875 C12.2617188,7.37421875 12.453125,7.3265625 12.453125,7.3265625 C13.4585938,6.8953125 14.5125,6.56015625 15.6140625,6.36875 C15.6140625,6.36875 15.6140625,6.36875 15.6140625,6.36875 C16.2367188,6.36875 16.715625,6.56015625 17.146875,6.99140625 C17.146875,6.99140625 17.146875,6.99140625 17.146875,6.99140625 C17.146875,8.859375 16.9078125,10.775 16.4765625,12.6429687 C16.4765625,12.6429687 16.4765625,12.6429687 16.4765625,12.6429687 C16.4765625,12.690625 16.4765625,12.7390625 16.4289062,12.7867187 C16.38125,12.8828125 16.38125,12.978125 16.3328125,13.121875 C16.284375,13.265625 16.2851562,13.3609375 16.2367188,13.409375 C16.2367188,13.409375 16.2367188,13.409375 16.2367188,13.409375 C17.4820312,13.840625 18.5359375,14.4632812 19.35,15.2773437 C20.1640625,16.0914062 20.5953125,17.0492187 20.5953125,18.1507812 C20.5953125,18.1507812 20.5953125,18.1507812 20.5953125,18.1507812 C20.5953125,19.6351562 19.78125,20.8804687 18.153125,21.934375 L18.1507812,21.934375 Z M20.2578125,5.9859375 C20.2578125,5.9859375 20.2578125,6.03359375 20.2578125,6.03359375 C20.496875,5.9375 20.7367188,5.88984375 21.071875,5.88984375 C21.071875,5.88984375 21.071875,5.88984375 21.071875,5.88984375 C21.790625,5.88984375 22.3648438,6.12890625 22.84375,6.60859375 C23.3226563,7.08828125 23.5625,7.6625 23.5625,8.3328125 C23.5625,9.003125 23.3234375,9.578125 22.84375,10.0570313 C22.3640625,10.5359375 21.7898438,10.7757813 21.071875,10.7757813 C21.071875,10.7757813 21.071875,10.7757813 21.071875,10.7757813 C20.8328125,10.7757813 20.6890625,10.7757813 20.5929688,10.728125 C20.5929688,10.728125 20.5929688,10.728125 20.5929688,10.728125 C20.5929688,10.728125 20.5929688,8.33359375 20.5929688,8.33359375 C20.5929688,7.4234375 20.496875,6.65703125 20.2578125,5.98671875 C20.2578125,5.98671875 20.2578125,5.98671875 20.2578125,5.98671875 L20.2578125,5.9859375 Z"/>
  <title>Monkey Solid</title>
</svg>