<svg xmlns="http://www.w3.org/2000/svg" viewBox="0 0 25 25" id="moon-solid">
  <path d="M17.6664063,14.7445312 C17.6664063,14.7445312 17.6664063,14.7445312 17.6664063,14.7445312 C19.4382812,14.7445312 21.0664062,14.2179688 22.5992187,13.2117188 C22.5992187,13.2117188 22.5992187,13.2117188 22.5992187,13.2117188 C22.4554687,16.1328125 21.30625,18.5757812 19.246875,20.5390625 C17.1875,22.5507812 14.696875,23.55625 11.7757812,23.55625 C11.7757812,23.55625 11.7757812,23.55625 11.7757812,23.55625 C8.80625,23.55625 6.26796875,22.5023438 4.1609375,20.3953125 C2.05390625,18.2882813 1,15.75 1,12.7804688 C1,12.7804688 1,12.7804688 1,12.7804688 C1,10.1945313 1.8140625,7.8953125 3.4421875,5.93203125 C5.0703125,3.96875 7.1296875,2.7234375 9.6203125,2.19609375 C9.6203125,2.19609375 9.6203125,2.19609375 9.6203125,2.19609375 C9.09375,3.39375 8.85390625,4.63828125 8.85390625,5.93203125 C8.85390625,5.93203125 8.85390625,5.93203125 8.85390625,5.93203125 C8.85390625,8.37421875 9.715625,10.4335938 11.4398438,12.1578125 C13.1640625,13.8820313 15.2234375,14.74375 17.665625,14.74375 L17.6664063,14.7445312 Z M23.2703125,7.03359375 C23.2703125,7.03359375 23.2703125,7.03359375 23.2703125,7.03359375 C22.5039062,6.9859375 21.88125,6.6984375 21.3546875,6.171875 C20.828125,5.6453125 20.4929688,5.02265625 20.4445313,4.25625 C20.4445313,4.25625 20.4445313,4.25625 20.4445313,4.25625 C20.4445313,4.0171875 20.3484375,3.92109375 20.1570313,3.92109375 C20.1570313,3.92109375 20.1570313,3.92109375 20.1570313,3.92109375 C20.1570313,3.92109375 20.109375,3.92109375 20.109375,3.92109375 C20.109375,3.92109375 20.109375,3.92109375 20.109375,3.92109375 C19.9179688,3.92109375 19.821875,4.0171875 19.821875,4.20859375 C19.821875,4.20859375 19.821875,4.20859375 19.821875,4.20859375 C19.7742188,4.975 19.4867188,5.6453125 18.9601563,6.171875 C18.3851563,6.6984375 17.7148438,6.9859375 16.996875,7.03359375 C16.996875,7.03359375 16.996875,7.03359375 16.996875,7.03359375 C16.8054688,7.08125 16.709375,7.17734375 16.709375,7.36875 C16.709375,7.36875 16.709375,7.36875 16.709375,7.36875 C16.709375,7.36875 16.709375,7.36875 16.709375,7.36875 C16.709375,7.56015625 16.8054688,7.65625 16.996875,7.70390625 C16.996875,7.70390625 16.996875,7.70390625 16.996875,7.70390625 C17.715625,7.7515625 18.3859375,8.0390625 18.9601563,8.565625 C19.4867188,9.0921875 19.7742188,9.76328125 19.821875,10.5289063 C19.821875,10.5289063 19.821875,10.5289063 19.821875,10.5289063 C19.821875,10.7203125 19.9179688,10.8164063 20.109375,10.8164063 C20.109375,10.8164063 20.109375,10.8164063 20.109375,10.8164063 C20.109375,10.8164063 20.109375,10.8164063 20.109375,10.8164063 C20.109375,10.8164063 20.1570313,10.8164063 20.1570313,10.8164063 C20.3484375,10.8164063 20.4445313,10.7203125 20.4445313,10.5289063 C20.4445313,10.5289063 20.4445313,10.5289063 20.4445313,10.5289063 C20.4921875,9.7625 20.8273438,9.0921875 21.3546875,8.565625 C21.8820313,8.0390625 22.5039063,7.7515625 23.2703125,7.70390625 C23.2703125,7.70390625 23.2703125,7.70390625 23.2703125,7.70390625 C23.4617188,7.65625 23.5578125,7.5125 23.5578125,7.36875 C23.5578125,7.36875 23.5578125,7.36875 23.5578125,7.36875 C23.5578125,7.36875 23.5578125,7.36875 23.5578125,7.36875 C23.5578125,7.225 23.4617188,7.08125 23.2703125,7.03359375 Z M12.015625,3.68125 C12.015625,3.68125 12.015625,3.68125 12.015625,3.68125 C12.5421875,3.72890625 12.9734375,3.9203125 13.35625,4.30390625 C13.7390625,4.6875 13.9789062,5.165625 14.0265625,5.69296875 C14.0265625,5.69296875 14.0265625,5.69296875 14.0265625,5.69296875 C14.0265625,5.83671875 14.0742188,5.884375 14.2179688,5.884375 C14.2179688,5.884375 14.2179688,5.884375 14.2179688,5.884375 C14.2179688,5.884375 14.265625,5.884375 14.265625,5.884375 C14.409375,5.884375 14.4570312,5.83671875 14.4570312,5.69296875 C14.4570312,5.69296875 14.4570312,5.69296875 14.4570312,5.69296875 C14.5046875,5.16640625 14.6960938,4.6875 15.0796875,4.30390625 C15.4632813,3.9203125 15.9414063,3.72890625 16.46875,3.68125 C16.46875,3.68125 16.46875,3.68125 16.46875,3.68125 C16.6125,3.68125 16.7078125,3.58515625 16.7078125,3.4421875 C16.7078125,3.4421875 16.7078125,3.4421875 16.7078125,3.4421875 C16.7078125,3.4421875 16.7078125,3.4421875 16.7078125,3.4421875 C16.7078125,3.34609375 16.6117188,3.25078125 16.46875,3.203125 C16.46875,3.203125 16.46875,3.203125 16.46875,3.203125 C15.9421875,3.15546875 15.4632813,2.9640625 15.0796875,2.58046875 C14.6960938,2.196875 14.5046875,1.71875 14.4570312,1.19140625 C14.4570312,1.19140625 14.4570312,1.19140625 14.4570312,1.19140625 C14.4570312,1.04765625 14.409375,1 14.265625,1 C14.265625,1 14.265625,1 14.265625,1 C14.265625,1 14.2179688,1 14.2179688,1 C14.0742188,1 14.0265625,1.04765625 14.0265625,1.19140625 C14.0265625,1.19140625 14.0265625,1.19140625 14.0265625,1.19140625 C13.9789062,1.71796875 13.7390625,2.196875 13.35625,2.58046875 C12.9734375,2.9640625 12.5421875,3.15546875 12.015625,3.203125 C12.015625,3.203125 12.015625,3.203125 12.015625,3.203125 C11.871875,3.25078125 11.7765625,3.346875 11.7765625,3.4421875 C11.7765625,3.4421875 11.7765625,3.4421875 11.7765625,3.4421875 C11.7765625,3.4421875 11.7765625,3.4421875 11.7765625,3.4421875 C11.7765625,3.5859375 11.8726562,3.68125 12.015625,3.68125 Z"/>
  <title>Moon Solid</title>
</svg>