<svg xmlns="http://www.w3.org/2000/svg" viewBox="0 0 25 25" id="moon">
  <path d="M8.8546875,5.8859375 C8.8546875,5.8859375 8.8546875,5.8859375 8.8546875,5.8859375 C8.8546875,4.5453125 9.1421875,3.3 9.71640625,2.15 C9.71640625,2.15 9.71640625,2.15 9.71640625,2.15 C7.178125,2.6765625 5.11875,3.9703125 3.490625,5.93359375 C1.8140625,7.896875 1,10.1960938 1,12.7820313 C1,12.7820313 1,12.7820313 1,12.7820313 C1,15.7515625 2.05390625,18.2898438 4.1609375,20.396875 C6.26796875,22.5039063 8.80625,23.5578125 11.7757812,23.5578125 C11.7757812,23.5578125 11.7757812,23.5578125 11.7757812,23.5578125 C14.696875,23.5578125 17.1875,22.5523438 19.246875,20.540625 C21.30625,18.5773438 22.4078125,16.134375 22.5515625,13.2609375 C22.5515625,13.2609375 22.5515625,13.2609375 22.5515625,13.2609375 C21.0671875,14.2664063 19.4382812,14.7453125 17.6664063,14.7453125 C17.6664063,14.7453125 17.6664063,14.7453125 17.6664063,14.7453125 C15.2242187,14.7453125 13.1648437,13.8835938 11.440625,12.159375 C9.71640625,10.4351563 8.8546875,8.328125 8.8546875,5.88515625 L8.8546875,5.8859375 Z M11.8234375,22.6007812 C11.8234375,22.6007812 11.7757813,22.6007812 11.7757813,22.6007812 C9.04609375,22.6007812 6.746875,21.6429688 4.83125,19.7273437 C2.915625,17.8117187 1.9578125,15.5125 1.9578125,12.7828125 C1.9578125,12.7828125 1.9578125,12.7828125 1.9578125,12.7828125 C1.9578125,10.7710937 2.5328125,8.9515625 3.634375,7.275 C4.7359375,5.646875 6.2203125,4.44921875 8.040625,3.6828125 C8.040625,3.6828125 8.040625,3.6828125 8.040625,3.6828125 C7.896875,4.59296875 7.84921875,5.3109375 7.84921875,5.8859375 C7.84921875,5.8859375 7.84921875,5.8859375 7.84921875,5.8859375 C7.84921875,8.615625 8.80703125,10.9148437 10.7226562,12.8304687 C12.6382812,14.7460937 14.9375,15.7039062 17.6671875,15.7039062 C17.6671875,15.7039062 17.6671875,15.7039062 17.6671875,15.7039062 C19.0078125,15.7039062 20.253125,15.4648437 21.403125,14.9851562 C21.403125,14.9851562 21.403125,14.9851562 21.403125,14.9851562 C20.8765625,17.2359375 19.6789062,19.05625 17.9070313,20.4453125 C16.1351562,21.8820312 14.0757812,22.6007812 11.825,22.6007812 C11.825,22.6007812 11.825,22.6007812 11.825,22.6007812 L11.8234375,22.6007812 Z M23.2703125,7.03515625 C23.2703125,7.03515625 23.2703125,7.03515625 23.2703125,7.03515625 C22.5039062,6.9875 21.88125,6.7 21.3546875,6.1734375 C20.828125,5.646875 20.4929688,5.02421875 20.4445313,4.2578125 C20.4445313,4.2578125 20.4445313,4.2578125 20.4445313,4.2578125 C20.4445313,4.01875 20.3484375,3.92265625 20.1570313,3.92265625 C20.1570313,3.92265625 20.1570313,3.92265625 20.1570313,3.92265625 C20.1570313,3.92265625 20.109375,3.92265625 20.109375,3.92265625 C20.109375,3.92265625 20.109375,3.92265625 20.109375,3.92265625 C19.9179688,3.92265625 19.821875,4.01875 19.821875,4.21015625 C19.821875,4.21015625 19.821875,4.21015625 19.821875,4.21015625 C19.7742188,4.9765625 19.4867188,5.646875 18.9601563,6.1734375 C18.3851563,6.7 17.7148438,6.9875 16.996875,7.03515625 C16.996875,7.03515625 16.996875,7.03515625 16.996875,7.03515625 C16.8054688,7.0828125 16.709375,7.17890625 16.709375,7.3703125 C16.709375,7.3703125 16.709375,7.3703125 16.709375,7.3703125 C16.709375,7.3703125 16.709375,7.3703125 16.709375,7.3703125 C16.709375,7.56171875 16.8054688,7.6578125 16.996875,7.70546875 C16.996875,7.70546875 16.996875,7.70546875 16.996875,7.70546875 C17.715625,7.753125 18.3859375,8.040625 18.9601563,8.5671875 C19.4867188,9.09375 19.7742188,9.76484375 19.821875,10.5304688 C19.821875,10.5304688 19.821875,10.5304688 19.821875,10.5304688 C19.821875,10.721875 19.9179688,10.8179688 20.109375,10.8179688 C20.109375,10.8179688 20.109375,10.8179688 20.109375,10.8179688 C20.109375,10.8179688 20.109375,10.8179688 20.109375,10.8179688 C20.109375,10.8179688 20.1570313,10.8179688 20.1570313,10.8179688 C20.3484375,10.8179688 20.4445313,10.721875 20.4445313,10.5304688 C20.4445313,10.5304688 20.4445313,10.5304688 20.4445313,10.5304688 C20.4921875,9.7640625 20.8273438,9.09375 21.3546875,8.5671875 C21.8820313,8.040625 22.5039063,7.753125 23.2703125,7.70546875 C23.2703125,7.70546875 23.2703125,7.70546875 23.2703125,7.70546875 C23.4617188,7.6578125 23.5578125,7.5140625 23.5578125,7.3703125 C23.5578125,7.3703125 23.5578125,7.3703125 23.5578125,7.3703125 C23.5578125,7.3703125 23.5578125,7.3703125 23.5578125,7.3703125 C23.5578125,7.2265625 23.4617188,7.0828125 23.2703125,7.03515625 Z M20.1570312,8.471875 C20.1570312,8.471875 20.109375,8.51953125 20.109375,8.51953125 C19.821875,8.08828125 19.4390625,7.70546875 19.0078125,7.3703125 C19.0078125,7.3703125 19.0078125,7.3703125 19.0078125,7.3703125 C19.4390625,7.0828125 19.821875,6.7 20.109375,6.26875 C20.109375,6.26875 20.109375,6.26875 20.109375,6.26875 C20.540625,6.7953125 20.9234375,7.13046875 21.2585937,7.3703125 C21.2585937,7.3703125 21.2585937,7.3703125 21.2585937,7.3703125 C20.8273438,7.609375 20.4921875,7.99296875 20.1570312,8.471875 C20.1570312,8.471875 20.1570312,8.471875 20.1570312,8.471875 Z M11.7757812,3.44296875 C11.7757812,3.44296875 11.7757812,3.44296875 11.7757812,3.44296875 C11.7757812,3.44296875 11.7757812,3.44296875 11.7757812,3.44296875 C11.7757812,3.346875 11.871875,3.2515625 12.0148437,3.203125 C12.0148437,3.203125 12.0148437,3.203125 12.0148437,3.203125 C12.5414062,3.15546875 12.9726562,2.9640625 13.3554687,2.58046875 C13.7382812,2.196875 13.978125,1.71875 14.0257812,1.19140625 C14.0257812,1.19140625 14.0257812,1.19140625 14.0257812,1.19140625 C14.0257812,1.04765625 14.0734375,1 14.2171875,1 C14.2171875,1 14.2171875,1 14.2171875,1 C14.2171875,1 14.2648438,1 14.2648438,1 C14.4085938,1 14.45625,1.04765625 14.45625,1.19140625 C14.45625,1.19140625 14.45625,1.19140625 14.45625,1.19140625 C14.5039062,1.71796875 14.6953125,2.196875 15.0789063,2.58046875 C15.4625,2.9640625 15.940625,3.15546875 16.4679688,3.203125 C16.4679688,3.203125 16.4679688,3.203125 16.4679688,3.203125 C16.6117188,3.25078125 16.7070312,3.346875 16.7070312,3.4421875 C16.7070312,3.4421875 16.7070312,3.4421875 16.7070312,3.4421875 C16.7070312,3.4421875 16.7070312,3.4421875 16.7070312,3.4421875 C16.7070312,3.5859375 16.6109375,3.68125 16.4679688,3.68125 C16.4679688,3.68125 16.4679688,3.68125 16.4679688,3.68125 C15.9414062,3.72890625 15.4625,3.9203125 15.0789063,4.30390625 C14.6953125,4.6875 14.5039062,5.165625 14.45625,5.69296875 C14.45625,5.69296875 14.45625,5.69296875 14.45625,5.69296875 C14.45625,5.83671875 14.4085938,5.884375 14.2648438,5.884375 C14.2648438,5.884375 14.2648438,5.884375 14.2648438,5.884375 C14.2648438,5.884375 14.2171875,5.884375 14.2171875,5.884375 C14.0734375,5.884375 14.0257812,5.83671875 14.0257812,5.69296875 C14.0257812,5.69296875 14.0257812,5.69296875 14.0257812,5.69296875 C13.978125,5.16640625 13.7382812,4.6875 13.3554687,4.30390625 C12.9726562,3.9203125 12.5414062,3.72890625 12.0148437,3.68125 C12.0148437,3.68125 12.0148437,3.68125 12.0148437,3.68125 C11.8710938,3.68125 11.7757812,3.58515625 11.7757812,3.4421875 L11.7757812,3.44296875 Z"/>
  <title>Moon</title>
</svg>