<svg xmlns="http://www.w3.org/2000/svg" viewBox="0 0 25 25" id="more-alt">
  <path d="M6.353125,11.575 C6.7359375,11.9578125 6.928125,12.4367188 6.928125,12.9640625 C6.928125,13.4914063 6.73671875,13.9695313 6.353125,14.353125 C5.9703125,14.7359375 5.49140625,14.928125 4.9640625,14.928125 C4.43671875,14.928125 3.95859375,14.7367188 3.575,14.353125 C3.1921875,13.9703125 3,13.4914063 3,12.9640625 C3,12.4367188 3.19140625,11.9585938 3.575,11.575 C3.9578125,11.1921875 4.43671875,11 4.9640625,11 C5.49140625,11 5.96953125,11.1914062 6.353125,11.575 Z M13.728125,11.575 C14.1109375,11.9578125 14.303125,12.4367188 14.303125,12.9640625 C14.303125,13.4914063 14.1117188,13.9695313 13.728125,14.353125 C13.3453125,14.7359375 12.8664063,14.928125 12.3390625,14.928125 C11.8117188,14.928125 11.3335938,14.7367188 10.95,14.353125 C10.5671875,13.9703125 10.375,13.4914063 10.375,12.9640625 C10.375,12.4367188 10.5664062,11.9585938 10.95,11.575 C11.3328125,11.1921875 11.8117188,11 12.3390625,11 C12.8664063,11 13.3445313,11.1914062 13.728125,11.575 Z M21.1039062,11.575 C21.4867187,11.9578125 21.6789062,12.4367188 21.6789062,12.9640625 C21.6789062,13.4914063 21.4875,13.9695313 21.1039062,14.353125 C20.7210938,14.7359375 20.2421875,14.928125 19.7148438,14.928125 C19.1875,14.928125 18.709375,14.7367188 18.3257813,14.353125 C17.9429688,13.9703125 17.7507813,13.4914063 17.7507813,12.9640625 C17.7507813,12.4367188 17.9421875,11.9585938 18.3257813,11.575 C18.7085937,11.1921875 19.1875,11 19.7148438,11 C20.2421875,11 20.7203125,11.1914062 21.1039062,11.575 Z"/>
  <title>More Alt</title>
</svg>