<svg xmlns="http://www.w3.org/2000/svg" viewBox="0 0 25 25" id="move-left-solid">
  <path d="M20.8609375,2.04765625 C20.8609375,2.04765625 20.8820313,2 20.9085937,2 C20.9085937,2 22.728125,2 22.728125,2 C22.7546875,2 22.7757813,2.02109375 22.7757813,2.04765625 C22.7757813,2.04765625 22.7757813,22.5460938 22.7757813,22.5460938 C22.7757813,22.5726562 22.7546875,22.59375 22.728125,22.59375 C22.728125,22.59375 20.9085937,22.59375 20.9085937,22.59375 C20.8820313,22.59375 20.8609375,22.5726562 20.8609375,22.5460938 C20.8609375,22.5460938 20.8609375,2.04765625 20.8609375,2.04765625 Z M8.49921875,16.4632813 C8.74609375,16.628125 8.8609375,16.896875 8.8609375,17.2078125 C8.8609375,17.7992188 8.4828125,18.1789063 7.89296875,18.1789063 C7.63359375,18.1789063 7.3984375,18.0773438 7.21328125,17.8921875 C7.21328125,17.8921875 2.28828125,12.9960938 2.28828125,12.9960938 C2.28828125,12.9960938 2.1953125,12.8671875 2.1953125,12.8671875 C2.0421875,12.559375 2,12.4617188 2,12.3117188 C2,12.1421875 2.0640625,11.971875 2.1953125,11.7085938 C2.1953125,11.7085938 2.28828125,11.5796875 2.28828125,11.5796875 C2.28828125,11.5796875 7.21171875,6.68515625 7.21171875,6.68515625 C7.39765625,6.4984375 7.6328125,6.39765625 7.8921875,6.39765625 C8.48125,6.39765625 8.86015625,6.77734375 8.86015625,7.36875 C8.86015625,7.69609375 8.76328125,7.96875 8.51328125,8.11171875 C8.51328125,8.11171875 5.34453125,11.2929688 5.34453125,11.2929688 C5.34453125,11.2929688 17.6992188,11.2929688 17.6992188,11.2929688 C18.2992188,11.2929688 18.6671875,11.6984375 18.6671875,12.3117188 C18.6671875,12.903125 18.2882813,13.2828125 17.6992188,13.2828125 C17.6992188,13.2828125 5.34296875,13.2828125 5.34296875,13.2828125 C5.34296875,13.2828125 8.4984375,16.4632813 8.4984375,16.4632813 L8.49921875,16.4632813 Z"/>
  <title>Move Left Solid</title>
</svg>