<svg xmlns="http://www.w3.org/2000/svg" viewBox="0 0 25 25" id="move-right-solid">
  <path d="M3.91484375,2.04765625 C3.91484375,2.04765625 3.91484375,22.5460938 3.91484375,22.5460938 C3.91484375,22.5726562 3.89375,22.59375 3.8671875,22.59375 C3.8671875,22.59375 2.04765625,22.59375 2.04765625,22.59375 C2.02109375,22.59375 2,22.5726562 2,22.5460938 C2,22.5460938 2,2.04765625 2,2.04765625 C2,2.02109375 2.02109375,2 2.04765625,2 C2.04765625,2 3.8671875,2 3.8671875,2 C3.89375,2 3.91484375,2.02109375 3.91484375,2.04765625 Z M16.2765625,16.4632813 C16.2765625,16.4632813 19.4320313,13.2828125 19.4320313,13.2828125 C19.4320313,13.2828125 7.07578125,13.2828125 7.07578125,13.2828125 C6.48671875,13.2828125 6.1078125,12.903125 6.1078125,12.3117188 C6.1078125,11.6984375 6.475,11.2929688 7.07578125,11.2929688 C7.07578125,11.2929688 19.4304687,11.2929688 19.4304687,11.2929688 C19.4304687,11.2929688 16.2617188,8.11171875 16.2617188,8.11171875 C16.0125,7.96796875 15.9148437,7.6953125 15.9148437,7.36875 C15.9148437,6.77734375 16.2929688,6.39765625 16.8820312,6.39765625 C17.1414062,6.39765625 17.3765625,6.49921875 17.5625,6.68515625 C17.5625,6.68515625 22.4859375,11.5796875 22.4859375,11.5796875 C22.4859375,11.5796875 22.5789062,11.7085938 22.5789062,11.7085938 C22.7101562,11.971875 22.7742187,12.1429688 22.7742187,12.3117188 C22.7742187,12.4617187 22.7328125,12.559375 22.5789062,12.8671875 C22.5789062,12.8671875 22.4859375,12.9960938 22.4859375,12.9960938 C22.4859375,12.9960938 17.5609375,17.8921875 17.5609375,17.8921875 C17.3765625,18.0773437 17.140625,18.1789063 16.88125,18.1789063 C16.2921875,18.1789063 15.9140625,17.7992188 15.9140625,17.2078125 C15.9140625,16.896875 16.028125,16.628125 16.2757812,16.4632813 L16.2765625,16.4632813 Z"/>
  <title>Move Right Solid</title>
</svg>