<svg xmlns="http://www.w3.org/2000/svg" viewBox="0 0 25 25" id="move-up-solid">
  <path d="M2.04765625,3.91484375 C2.04765625,3.91484375 2,3.89375 2,3.8671875 C2,3.8671875 2,2.04765625 2,2.04765625 C2,2.02109375 2.02109375,2 2.04765625,2 C2.04765625,2 22.5460938,2 22.5460938,2 C22.5726562,2 22.59375,2.02109375 22.59375,2.04765625 C22.59375,2.04765625 22.59375,3.8671875 22.59375,3.8671875 C22.59375,3.89375 22.5726562,3.91484375 22.5460938,3.91484375 C22.5460938,3.91484375 2.04765625,3.91484375 2.04765625,3.91484375 Z M16.4625,12.6078125 C16.4625,12.6078125 13.2820312,9.45234375 13.2820312,9.45234375 C13.2820312,9.45234375 13.2820312,21.8085937 13.2820312,21.8085937 C13.2820312,22.3976563 12.9023437,22.7765625 12.3109375,22.7765625 C11.6976562,22.7765625 11.2921875,22.4085937 11.2921875,21.8085937 C11.2921875,21.8085937 11.2921875,9.45390625 11.2921875,9.45390625 C11.2921875,9.45390625 8.1109375,12.6226563 8.1109375,12.6226563 C7.9671875,12.871875 7.69453125,12.9695312 7.36796875,12.9695312 C6.7765625,12.9695312 6.396875,12.5914063 6.396875,12.0015625 C6.396875,11.7421875 6.4984375,11.5070313 6.684375,11.3210937 C6.684375,11.3210937 11.5789062,6.39765625 11.5789062,6.39765625 C11.5789062,6.39765625 11.7078125,6.3046875 11.7078125,6.3046875 C11.9710937,6.1734375 12.1421875,6.109375 12.3109375,6.109375 C12.4609375,6.109375 12.5585937,6.15078125 12.8664062,6.3046875 C12.8664062,6.3046875 12.9953125,6.39765625 12.9953125,6.39765625 C12.9953125,6.39765625 17.8914062,11.3226562 17.8914062,11.3226562 C18.0765625,11.5070313 18.178125,11.7429687 18.178125,12.0023437 C18.178125,12.5914062 17.7984375,12.9703125 17.2070312,12.9703125 C16.8960937,12.9703125 16.6273437,12.85625 16.4625,12.6085937 L16.4625,12.6078125 Z"/>
  <title>Move Up Solid</title>
</svg>