<svg xmlns="http://www.w3.org/2000/svg" viewBox="0 0 25 25" id="moving">
  <path d="M14.415625,8.9328125 C14.415625,8.9328125 7.23203125,4 7.23203125,4 C7.23203125,4 0,8.9328125 0,8.9328125 C0,8.9328125 0.575,9.69921875 0.575,9.69921875 C0.575,9.69921875 1.77265625,8.88515625 1.77265625,8.88515625 C1.77265625,8.88515625 1.77265625,14.5367188 1.77265625,14.5367188 C1.77265625,14.5367188 3.7359375,14.5367188 3.7359375,14.5367188 C3.7359375,14.5367188 3.7359375,13.5789063 3.7359375,13.5789063 C3.7359375,13.5789063 2.778125,13.5789063 2.778125,13.5789063 C2.778125,13.5789063 2.778125,8.21484375 2.778125,8.21484375 C2.778125,8.21484375 7.23203125,5.15 7.23203125,5.15 C7.23203125,5.15 11.6859375,8.21484375 11.6859375,8.21484375 C11.6859375,8.21484375 11.6859375,11.6632813 11.6859375,11.6632813 C11.6859375,11.6632813 12.64375,11.6632813 12.64375,11.6632813 C12.64375,11.6632813 12.64375,8.88515625 12.64375,8.88515625 C12.64375,8.88515625 13.8414062,9.69921875 13.8414062,9.69921875 C13.8414062,9.69921875 14.4164062,8.9328125 14.4164062,8.9328125 L14.415625,8.9328125 Z M23.515625,17.8414062 C23.515625,17.8414062 23.515625,19.7570312 23.515625,19.7570312 C23.515625,19.7570312 21.45625,19.7570312 21.45625,19.7570312 C21.2171875,19.134375 20.7859375,18.7992187 20.0671875,18.7992187 C19.3484375,18.7992187 18.9179688,19.134375 18.678125,19.7570312 C18.678125,19.7570312 18.678125,19.7570312 18.678125,19.7570312 C18.678125,19.7570312 17.5765625,19.7570312 17.5765625,19.7570312 C17.5765625,19.7570312 17.5765625,15.015625 17.5765625,15.015625 C17.5765625,15.015625 18.5820312,15.015625 18.5820312,15.015625 C18.5820312,15.015625 18.5820312,16.5960937 18.5820312,16.5960937 C18.5820312,16.93125 18.7257812,17.21875 18.9648437,17.4578125 C19.2039062,17.696875 19.5398437,17.840625 19.875,17.840625 C19.875,17.840625 19.875,17.840625 19.875,17.840625 C19.875,17.840625 23.5148437,17.840625 23.5148437,17.840625 L23.515625,17.8414062 Z M20.5460938,20.2359375 C20.5460938,20.5710937 20.4023438,20.7148438 20.0671875,20.7148438 C19.7320312,20.7148438 19.5882813,20.5710937 19.5882813,20.2359375 C19.5882813,19.9007812 19.7320312,19.7570312 20.0671875,19.7570312 C20.4023438,19.7570312 20.5460938,19.9007812 20.5460938,20.2359375 Z M16.61875,13.7226562 C16.61875,13.7226562 16.61875,19.7570313 16.61875,19.7570313 C16.61875,19.7570313 11.0632813,19.7570313 11.0632813,19.7570313 C10.8242188,19.134375 10.3929688,18.7992188 9.67421875,18.7992188 C8.95546875,18.7992188 8.525,19.134375 8.28515625,19.7570313 C8.28515625,19.7570313 8.28515625,19.7570313 8.28515625,19.7570313 C8.28515625,19.7570313 6.7046875,19.7570313 6.7046875,19.7570313 C6.7046875,19.7570313 6.7046875,13.7226562 6.7046875,13.7226562 C6.7046875,13.7226562 16.61875,13.7226562 16.61875,13.7226562 Z M9.67421875,20.7148438 C9.67421875,20.7148438 9.67421875,20.7148438 9.67421875,20.7148438 C9.3390625,20.7148438 9.1953125,20.5710937 9.1953125,20.2359375 C9.1953125,19.9007812 9.3390625,19.7570312 9.67421875,19.7570312 C9.67421875,19.7570312 9.67421875,19.7570312 9.67421875,19.7570312 C10.009375,19.7570312 10.2007813,19.9007812 10.2007813,20.2359375 C10.2007813,20.5710937 10.009375,20.7148438 9.67421875,20.7148438 Z M19.5882813,16.5960937 C19.5882813,16.5960937 19.5882813,15.015625 19.5882813,15.015625 C19.5882813,15.015625 19.6359375,15.015625 19.6359375,15.015625 C19.7796875,15.015625 19.9234375,15.0632812 20.0671875,15.2070312 C20.0671875,15.2070312 20.0671875,15.2070312 20.0671875,15.2070312 C20.0671875,15.2070312 22.6054688,16.8835937 22.6054688,16.8835937 C22.6054688,16.8835937 19.8757812,16.8835937 19.8757812,16.8835937 C19.684375,16.8835937 19.5882813,16.7875 19.5882813,16.5960938 C19.5882813,16.5960938 19.5882813,16.5960938 19.5882813,16.5960938 L19.5882813,16.5960937 Z M24.0421875,16.6914062 C24.0421875,16.6914062 24.0421875,16.6914062 24.0421875,16.6914062 C24.0421875,16.6914062 20.6898437,14.4882812 20.6898437,14.4882812 C20.4507812,14.2007813 20.0671875,14.0570313 19.6359375,14.0570313 C19.6359375,14.0570313 19.6359375,14.0570313 19.6359375,14.0570313 C19.6359375,14.0570313 17.5765625,14.0570313 17.5765625,14.0570313 C17.5765625,14.0570313 17.5765625,12.7640625 17.5765625,12.7640625 C17.5765625,12.7640625 5.746875,12.7640625 5.746875,12.7640625 C5.746875,12.7640625 5.746875,20.7140625 5.746875,20.7140625 C5.746875,20.7140625 8.28515625,20.7140625 8.28515625,20.7140625 C8.52421875,21.3367188 8.95546875,21.6242187 9.67421875,21.6242187 C10.3929688,21.6242187 10.8234375,21.3367188 11.0632813,20.7140625 C11.0632813,20.7140625 11.0632813,20.7140625 11.0632813,20.7140625 C11.0632813,20.7140625 18.678125,20.7140625 18.678125,20.7140625 C18.9171875,21.3367188 19.3484375,21.6242187 20.0671875,21.6242187 C20.7859375,21.6242187 21.2164062,21.3367188 21.45625,20.7140625 C21.45625,20.7140625 21.45625,20.7140625 21.45625,20.7140625 C21.45625,20.7140625 24.5210937,20.7140625 24.5210937,20.7140625 C24.5210937,20.7140625 24.5210937,17.7445312 24.5210937,17.7445312 C24.5210937,17.3617188 24.3773438,17.0257812 24.0421875,16.690625 L24.0421875,16.6914062 Z"/>
  <title>Moving</title>
</svg>