<svg xmlns="http://www.w3.org/2000/svg" viewBox="0 0 25 25" id="multi-device">
  <path d="M15.1828125,23.5570313 C15.1828125,23.5570313 15.1828125,23.5570313 15.1828125,23.5570313 C15.1828125,23.5570313 13.7460938,23.5570313 13.7460938,23.5570313 C13.7460938,23.5570313 13.7460938,20.6359375 13.7460938,20.6359375 C13.7460938,20.6359375 14.225,20.6359375 14.225,20.6359375 C14.5601563,20.6359375 14.7039063,20.4445313 14.7039063,20.109375 C14.7039063,20.109375 14.7039063,20.109375 14.7039063,20.109375 C14.7039063,19.7742188 14.5601563,19.6304688 14.225,19.6304688 C14.225,19.6304688 14.225,19.6304688 14.225,19.6304688 C14.225,19.6304688 1.4859375,19.6304688 1.4859375,19.6304688 C1.15078125,19.6304688 0.959375,19.4867188 0.959375,19.1515625 C0.959375,19.1515625 0.959375,19.1515625 0.959375,19.1515625 C0.959375,19.1515625 0.959375,16.709375 0.959375,16.709375 C0.959375,16.709375 14.2257813,16.709375 14.2257813,16.709375 C14.5609375,16.709375 14.7046875,16.5179688 14.7046875,16.1828125 C14.7046875,16.1828125 14.7046875,16.1828125 14.7046875,16.1828125 C14.7046875,15.8476563 14.5609375,15.7039063 14.2257813,15.7039063 C14.2257813,15.7039063 14.2257813,15.7039063 14.2257813,15.7039063 C14.2257813,15.7039063 0.959375,15.7039063 0.959375,15.7039063 C0.959375,15.7039063 0.959375,2.48515625 0.959375,2.48515625 C0.959375,2.15 1.15078125,1.95859375 1.4859375,1.95859375 C1.4859375,1.95859375 1.4859375,1.95859375 1.4859375,1.95859375 C1.4859375,1.95859375 21.0742188,1.95859375 21.0742188,1.95859375 C21.409375,1.95859375 21.6007813,2.15 21.6007813,2.48515625 C21.6007813,2.48515625 21.6007813,2.48515625 21.6007813,2.48515625 C21.6007813,2.48515625 21.6007813,10.3398438 21.6007813,10.3398438 C21.6007813,10.675 21.7445313,10.81875 22.0796875,10.81875 C22.4148437,10.81875 22.5585938,10.675 22.5585938,10.3398438 C22.5585938,10.3398438 22.5585938,10.3398438 22.5585938,10.3398438 C22.5585938,10.3398438 22.5585938,2.48515625 22.5585938,2.48515625 C22.5585938,2.05390625 22.4148437,1.71875 22.1273438,1.43125 C21.8398438,1.14375 21.5046875,1 21.0734375,1 C21.0734375,1 21.0734375,1 21.0734375,1 C21.0734375,1 1.48515625,1 1.48515625,1 C1.05390625,1 0.71875,1.14375 0.43125,1.43125 C0.14375,1.71875 0,2.05390625 0,2.48515625 C0,2.48515625 0,2.48515625 0,2.48515625 C0,2.48515625 0,19.1515625 0,19.1515625 C0,19.5828125 0.14375,19.9179688 0.43125,20.2054687 C0.71875,20.4929687 1.05390625,20.6367188 1.48515625,20.6367188 C1.48515625,20.6367188 1.48515625,20.6367188 1.48515625,20.6367188 C1.48515625,20.6367188 8.8125,20.6367188 8.8125,20.6367188 C8.8125,20.6367188 8.8125,23.5578125 8.8125,23.5578125 C8.8125,23.5578125 7.37578125,23.5578125 7.37578125,23.5578125 C7.040625,23.5578125 6.84921875,23.7015625 6.84921875,24.0367188 C6.84921875,24.371875 7.040625,24.515625 7.37578125,24.515625 C7.37578125,24.515625 7.37578125,24.515625 7.37578125,24.515625 C7.37578125,24.515625 15.1820313,24.515625 15.1820313,24.515625 C15.5171875,24.515625 15.7085937,24.371875 15.7085937,24.0367188 C15.7085937,23.7015625 15.5171875,23.5578125 15.1820313,23.5578125 L15.1828125,23.5570313 Z M12.740625,20.6351563 C12.740625,20.6351563 12.740625,23.55625 12.740625,23.55625 C12.740625,23.55625 9.81953125,23.55625 9.81953125,23.55625 C9.81953125,23.55625 9.81953125,20.6351563 9.81953125,20.6351563 C9.81953125,20.6351563 12.740625,20.6351563 12.740625,20.6351563 Z M23.5640625,12.78125 C23.5640625,12.78125 23.5640625,12.78125 23.5640625,12.78125 C23.5640625,12.78125 17.6734375,12.78125 17.6734375,12.78125 C17.3859375,12.78125 17.146875,12.8773437 16.9546875,13.06875 C16.7625,13.2601562 16.6671875,13.5 16.6671875,13.7390625 C16.6671875,13.7390625 16.6671875,13.7390625 16.6671875,13.7390625 C16.6671875,13.7390625 16.6671875,23.5570313 16.6671875,23.5570313 C16.6671875,23.7960938 16.7632813,24.0359375 16.9546875,24.2273437 C17.1460938,24.41875 17.3859375,24.5148437 17.6734375,24.5148437 C17.6734375,24.5148437 17.6734375,24.5148437 17.6734375,24.5148437 C17.6734375,24.5148437 23.5640625,24.5148437 23.5640625,24.5148437 C23.803125,24.5148437 24.0429688,24.41875 24.234375,24.2273437 C24.4257812,24.0359375 24.521875,23.7960938 24.521875,23.5570313 C24.521875,23.5570313 24.521875,23.5570313 24.521875,23.5570313 C24.521875,23.5570313 24.521875,13.7390625 24.521875,13.7390625 C24.521875,13.5 24.4257813,13.2601562 24.234375,13.06875 C24.0429688,12.8773437 23.803125,12.78125 23.5640625,12.78125 L23.5640625,12.78125 Z M23.5640625,13.7390625 C23.5640625,13.7390625 23.5640625,23.5570313 23.5640625,23.5570313 C23.5640625,23.5570313 17.6734375,23.5570313 17.6734375,23.5570313 C17.6734375,23.5570313 17.6734375,13.7390625 17.6734375,13.7390625 C17.6734375,13.7390625 23.5640625,13.7390625 23.5640625,13.7390625 Z M19.6367188,22.071875 C19.6367188,22.071875 19.6367188,22.071875 19.6367188,22.071875 C19.6367188,21.7367188 19.7804688,21.5929688 20.115625,21.5929688 C20.115625,21.5929688 20.115625,21.5929688 20.115625,21.5929688 C20.115625,21.5929688 21.0734375,21.5929688 21.0734375,21.5929688 C21.4085937,21.5929688 21.6,21.7367188 21.6,22.071875 C21.6,22.071875 21.6,22.071875 21.6,22.071875 C21.6,22.4070312 21.4085937,22.5984375 21.0734375,22.5984375 C21.0734375,22.5984375 21.0734375,22.5984375 21.0734375,22.5984375 C21.0734375,22.5984375 20.115625,22.5984375 20.115625,22.5984375 C19.7804688,22.5984375 19.6367188,22.4070312 19.6367188,22.071875 Z"/>
  <title>Multi Device</title>
</svg>