<svg xmlns="http://www.w3.org/2000/svg" viewBox="0 0 25 25" id="multi-device-solid">
  <path d="M23.5648438,12.7828125 C23.5648438,12.7828125 23.5648438,12.7828125 23.5648438,12.7828125 C23.5648438,12.7828125 17.6742188,12.7828125 17.6742188,12.7828125 C17.3867188,12.7828125 17.1476563,12.8789062 16.9554687,13.0703125 C16.7632812,13.2617188 16.6679688,13.5015625 16.6679688,13.740625 C16.6679688,13.740625 16.6679688,13.740625 16.6679688,13.740625 C16.6679688,13.740625 16.6679688,23.5585938 16.6679688,23.5585938 C16.6679688,23.7976563 16.7640625,24.0375 16.9554687,24.2289063 C17.146875,24.4203125 17.3867188,24.5164063 17.6742188,24.5164063 C17.6742188,24.5164063 17.6742188,24.5164063 17.6742188,24.5164063 C17.6742188,24.5164063 23.5648438,24.5164063 23.5648438,24.5164063 C23.8039063,24.5164063 24.04375,24.4203125 24.2351562,24.2289063 C24.4265625,24.0375 24.5226563,23.7976563 24.5226563,23.5585938 C24.5226563,23.5585938 24.5226563,23.5585938 24.5226563,23.5585938 C24.5226563,23.5585938 24.5226563,13.740625 24.5226563,13.740625 C24.5226563,13.5015625 24.4265625,13.2617188 24.2351562,13.0703125 C24.04375,12.8789062 23.8039062,12.7828125 23.5648437,12.7828125 L23.5648438,12.7828125 Z M21.0742187,22.6007812 C21.0742187,22.6007812 21.0742187,22.6007812 21.0742187,22.6007812 C21.0742187,22.6007812 20.1164062,22.6007812 20.1164062,22.6007812 C19.78125,22.6007812 19.6375,22.409375 19.6375,22.0742187 C19.6375,22.0742187 19.6375,22.0742187 19.6375,22.0742187 C19.6375,21.7390625 19.78125,21.5953125 20.1164062,21.5953125 C20.1164062,21.5953125 20.1164062,21.5953125 20.1164062,21.5953125 C20.1164062,21.5953125 21.0742187,21.5953125 21.0742187,21.5953125 C21.409375,21.5953125 21.6007812,21.7390625 21.6007812,22.0742187 C21.6007812,22.0742187 21.6007812,22.0742187 21.6007812,22.0742187 C21.6007812,22.409375 21.409375,22.6007812 21.0742187,22.6007812 Z M0.959375,15.7039063 C0.959375,15.7039063 0.959375,2.48515625 0.959375,2.48515625 C0.959375,2.15 1.15078125,1.95859375 1.4859375,1.95859375 C1.4859375,1.95859375 1.4859375,1.95859375 1.4859375,1.95859375 C1.4859375,1.95859375 21.0742188,1.95859375 21.0742188,1.95859375 C21.409375,1.95859375 21.6007813,2.15 21.6007813,2.48515625 C21.6007813,2.48515625 21.6007813,2.48515625 21.6007813,2.48515625 C21.6007813,2.48515625 21.6007813,11.2976562 21.6007813,11.2976562 C21.6007813,11.6328125 21.7445313,11.7765625 22.0796875,11.7765625 C22.4148437,11.7765625 22.5585938,11.6328125 22.5585938,11.2976562 C22.5585938,11.2976562 22.5585938,11.2976562 22.5585938,11.2976562 C22.5585938,11.2976562 22.5585938,2.48515625 22.5585938,2.48515625 C22.5585938,2.05390625 22.4148437,1.71875 22.1273438,1.43125 C21.8398438,1.14375 21.5046875,1 21.0734375,1 C21.0734375,1 21.0734375,1 21.0734375,1 C21.0734375,1 1.48515625,1 1.48515625,1 C1.05390625,1 0.71875,1.14375 0.43125,1.43125 C0.14375,1.71875 0,2.05390625 0,2.48515625 C0,2.48515625 0,2.48515625 0,2.48515625 C0,2.48515625 0,19.1515625 0,19.1515625 C0,19.5828125 0.14375,19.9179688 0.43125,20.2054687 C0.71875,20.4929687 1.05390625,20.6367188 1.48515625,20.6367188 C1.48515625,20.6367188 1.48515625,20.6367188 1.48515625,20.6367188 C1.48515625,20.6367188 8.8125,20.6367188 8.8125,20.6367188 C8.8125,20.6367188 8.8125,23.5578125 8.8125,23.5578125 C8.8125,23.5578125 7.37578125,23.5578125 7.37578125,23.5578125 C7.040625,23.5578125 6.84921875,23.7015625 6.84921875,24.0367188 C6.84921875,24.371875 7.040625,24.515625 7.37578125,24.515625 C7.37578125,24.515625 7.37578125,24.515625 7.37578125,24.515625 C7.37578125,24.515625 15.1820313,24.515625 15.1820313,24.515625 C15.5171875,24.515625 15.7085937,24.371875 15.7085937,24.0367188 C15.7085937,23.7015625 15.5171875,23.5578125 15.1820313,23.5578125 C15.1820313,23.5578125 15.1820313,23.5578125 15.1820313,23.5578125 C15.1820313,23.5578125 13.7453125,23.5578125 13.7453125,23.5578125 C13.7453125,23.5578125 13.7453125,20.6367188 13.7453125,20.6367188 C13.7453125,20.6367188 15.7085938,20.6367188 15.7085938,20.6367188 C15.7085938,20.6367188 15.7085938,15.7039063 15.7085938,15.7039063 C15.7085938,15.7039063 0.9578125,15.7039063 0.9578125,15.7039063 L0.959375,15.7039063 Z M9.81953125,23.5585938 C9.81953125,23.5585938 9.81953125,20.6375 9.81953125,20.6375 C9.81953125,20.6375 12.740625,20.6375 12.740625,20.6375 C12.740625,20.6375 12.740625,23.5585938 12.740625,23.5585938 C12.740625,23.5585938 9.81953125,23.5585938 9.81953125,23.5585938 Z"/>
  <title>Multi Device Solid</title>
</svg>