<svg xmlns="http://www.w3.org/2000/svg" viewBox="0 0 25 25" id="music">
  <path d="M24.3242188,0.09609375 C24.3242188,0.09609375 24.3242188,0.09609375 24.3242188,0.09609375 C24.2765625,0.0484375 24.1804687,0 24.0367188,0 C24.0367188,0 24.0367188,0 24.0367188,0 C24.0367188,0 23.8929687,0 23.8929687,0 C23.8929687,0 10.1953125,3.92734375 10.1953125,3.92734375 C9.95625,4.0234375 9.8125,4.16640625 9.8125,4.40625 C9.8125,4.40625 9.8125,4.40625 9.8125,4.40625 C9.8125,4.40625 9.8125,17.48125 9.8125,17.48125 C8.80703125,16.2835938 7.56171875,15.709375 5.98125,15.709375 C5.98125,15.709375 5.98125,15.709375 5.98125,15.709375 C5.98125,15.709375 5.88515625,15.709375 5.88515625,15.709375 C5.88515625,15.709375 5.69375,15.709375 5.69375,15.709375 C4.40078125,15.709375 3.346875,16.140625 2.43671875,16.9546875 C1.5265625,17.8164063 1.04765625,18.8703125 1,20.115625 C1,20.115625 1,20.115625 1,20.115625 C1.04765625,21.3609375 1.575,22.4148438 2.484375,23.2289063 C3.39453125,24.090625 4.44765625,24.521875 5.69296875,24.521875 C5.69296875,24.521875 5.69296875,24.521875 5.69296875,24.521875 C5.69296875,24.521875 5.93203125,24.521875 5.93203125,24.521875 C5.93203125,24.521875 6.1234375,24.521875 6.1234375,24.521875 C7.36875,24.521875 8.4703125,24.090625 9.38046875,23.2289063 C10.290625,22.3671875 10.7695312,21.3132812 10.8171875,20.115625 C10.8171875,20.115625 10.8171875,20.115625 10.8171875,20.115625 C10.8171875,20.115625 10.8171875,8.7171875 10.8171875,8.7171875 C10.8171875,8.7171875 23.55625,5.07734375 23.55625,5.07734375 C23.55625,5.07734375 23.55625,13.5546875 23.55625,13.5546875 C22.5507813,12.3570312 21.2570313,11.7828125 19.6765625,11.7828125 C19.6765625,11.7828125 19.6765625,11.7828125 19.6765625,11.7828125 C19.6765625,11.7828125 19.6289062,11.7828125 19.6289062,11.7828125 C19.6289062,11.7828125 19.3898438,11.7828125 19.3898438,11.7828125 C18.1445312,11.7828125 17.090625,12.2140625 16.18125,13.028125 C15.2710938,13.8898438 14.7921875,14.94375 14.7445313,16.1890625 C14.7445313,16.1890625 14.7445313,16.1890625 14.7445313,16.1890625 C14.7921875,17.3867188 15.2710938,18.4398438 16.18125,19.3023438 C17.0914062,20.1648437 18.1445313,20.5953125 19.3898438,20.5953125 C19.3898438,20.5953125 19.3898438,20.5953125 19.3898438,20.5953125 C19.3898438,20.5953125 19.6289062,20.5953125 19.6289062,20.5953125 C19.6289062,20.5953125 19.8679688,20.5953125 19.8679688,20.5953125 C21.1132813,20.5953125 22.2148438,20.1640625 23.125,19.3023438 C24.0351562,18.440625 24.5140625,17.3867188 24.5617188,16.1890625 C24.5617188,16.1890625 24.5617188,16.1890625 24.5617188,16.1890625 C24.5617188,16.1890625 24.5617188,0.48046875 24.5617188,0.48046875 C24.5617188,0.33671875 24.465625,0.19296875 24.3226562,0.09765625 L24.3242188,0.09609375 Z M5.8859375,23.515625 C5.8859375,23.515625 5.8859375,23.515625 5.8859375,23.515625 C5.83828125,23.5632813 5.78984375,23.5632813 5.69453125,23.5632813 C5.69453125,23.5632813 5.69453125,23.5632813 5.69453125,23.5632813 C4.6890625,23.5632813 3.875,23.228125 3.15625,22.5578125 C2.4375,21.8875 2.00703125,21.0734375 1.95859375,20.115625 C1.95859375,20.115625 1.95859375,20.115625 1.95859375,20.115625 C2.00625,19.1578125 2.4375,18.34375 3.15625,17.6734375 C3.875,17.003125 4.6890625,16.6679688 5.69453125,16.6679688 C5.69453125,16.6679688 5.69453125,16.6679688 5.69453125,16.6679688 C5.69453125,16.6679688 5.93359375,16.6679688 5.93359375,16.6679688 C5.93359375,16.6679688 6.125,16.6679688 6.125,16.6679688 C7.13046875,16.6679688 7.9453125,17.003125 8.66328125,17.6734375 C9.38125,18.34375 9.76484375,19.1578125 9.8125,20.115625 C9.8125,20.115625 9.8125,20.115625 9.8125,20.115625 C9.76484375,21.0734375 9.38125,21.8875 8.66328125,22.5578125 C7.9453125,23.228125 7.13046875,23.5632813 6.125,23.5632813 C6.125,23.5632813 6.125,23.5632813 6.125,23.5632813 C6.02890625,23.5632813 5.93359375,23.5632813 5.8859375,23.515625 Z M19.8703125,19.6359375 C19.8703125,19.6359375 19.63125,19.6359375 19.63125,19.6359375 C19.63125,19.6359375 19.3921875,19.6359375 19.3921875,19.6359375 C18.434375,19.6359375 17.6203125,19.3007812 16.9015625,18.6304687 C16.1828125,17.9601562 15.7523437,17.1460937 15.7039062,16.1882812 C15.7039062,16.1882812 15.7039062,16.1882812 15.7039062,16.1882812 C15.7515625,15.2304688 16.1828125,14.4164062 16.9015625,13.7460937 C17.6203125,13.0757812 18.434375,12.740625 19.3921875,12.740625 C19.3921875,12.740625 19.3921875,12.740625 19.3921875,12.740625 C19.3921875,12.740625 19.63125,12.740625 19.63125,12.740625 C19.63125,12.740625 19.8703125,12.740625 19.8703125,12.740625 C20.8757812,12.740625 21.6898438,13.0757812 22.4085937,13.7460937 C23.1273437,14.4164062 23.5101562,15.2304687 23.5578125,16.1882812 C23.5578125,16.1882812 23.5578125,16.1882812 23.5578125,16.1882812 C23.5101562,17.1460937 23.1265625,17.9601562 22.4085937,18.6304687 C21.690625,19.3007812 20.8757812,19.6359375 19.8703125,19.6359375 C19.8703125,19.6359375 19.8703125,19.6359375 19.8703125,19.6359375 Z M23.5585938,1.14921875 C23.5585938,1.14921875 23.5585938,4.02265625 23.5585938,4.02265625 C23.5585938,4.02265625 10.8195312,7.6625 10.8195312,7.6625 C10.8195312,7.6625 10.8195312,4.7890625 10.8195312,4.7890625 C10.8195312,4.7890625 23.5585938,1.14921875 23.5585938,1.14921875 Z"/>
  <title>Music</title>
</svg>