<svg xmlns="http://www.w3.org/2000/svg" viewBox="0 0 25 25" id="music-solid">
  <path d="M24.1320313,0.19140625 C24.1320313,0.19140625 24.1320313,0.19140625 24.1320313,0.19140625 C23.9882813,0.04765625 23.796875,0 23.5570313,0 C23.5570313,0 23.5570313,0 23.5570313,0 C23.4132813,0 23.2695313,0 23.221875,0.04765625 C23.221875,0.04765625 23.221875,0.04765625 23.221875,0.04765625 C23.221875,0.04765625 9.4765625,4.98046875 9.4765625,4.98046875 C9.0453125,5.0765625 8.85390625,5.36328125 8.85390625,5.890625 C8.85390625,5.890625 8.85390625,5.890625 8.85390625,5.890625 C8.85390625,5.890625 8.85390625,16.5710938 8.85390625,16.5710938 C7.94375,15.9960938 6.9859375,15.709375 5.9328125,15.709375 C5.9328125,15.709375 5.9328125,15.709375 5.9328125,15.709375 C5.9328125,15.709375 5.88515625,15.709375 5.88515625,15.709375 C5.88515625,15.709375 5.69375,15.709375 5.69375,15.709375 C4.40078125,15.709375 3.346875,16.140625 2.43671875,16.9546875 C1.5265625,17.8164062 1.04765625,18.8703125 1,20.115625 C1,20.115625 1,20.115625 1,20.115625 C1.04765625,21.3609375 1.575,22.4148437 2.484375,23.2289063 C3.39453125,24.090625 4.44765625,24.521875 5.69296875,24.521875 C5.69296875,24.521875 5.69296875,24.521875 5.69296875,24.521875 C5.69296875,24.521875 5.93203125,24.521875 5.93203125,24.521875 C5.93203125,24.521875 6.1234375,24.521875 6.1234375,24.521875 C7.36875,24.521875 8.4703125,24.090625 9.38046875,23.2289063 C10.290625,22.3671875 10.7695312,21.3132812 10.8171875,20.115625 C10.8171875,20.115625 10.8171875,20.115625 10.8171875,20.115625 C10.8171875,20.115625 10.8171875,11.4953125 10.8171875,11.4953125 C10.8171875,11.4953125 22.5984375,7.28046875 22.5984375,7.28046875 C22.5984375,7.28046875 22.5984375,12.6921875 22.5984375,12.6921875 C21.6882813,12.0695312 20.7304688,11.7820312 19.6289062,11.7820312 C19.6289062,11.7820312 19.6289062,11.7820312 19.6289062,11.7820312 C19.6289062,11.7820312 19.3898437,11.7820312 19.3898437,11.7820312 C18.1445312,11.7820312 17.090625,12.2132812 16.18125,13.0273437 C15.2710937,13.8890625 14.7921875,14.9429687 14.7445313,16.1882812 C14.7445313,16.1882812 14.7445313,16.1882812 14.7445313,16.1882812 C14.7921875,17.3859375 15.2710937,18.4390625 16.18125,19.3015625 C17.0914062,20.1640625 18.1445313,20.5945312 19.3898437,20.5945312 C19.3898437,20.5945312 19.3898437,20.5945312 19.3898437,20.5945312 C19.3898437,20.5945312 19.6289062,20.5945312 19.6289062,20.5945312 C19.6289062,20.5945312 19.8679688,20.5945312 19.8679688,20.5945312 C21.1132812,20.5945312 22.2148438,20.1632813 23.125,19.3015625 C24.0351562,18.4398437 24.5140625,17.3859375 24.5617188,16.1882812 C24.5617188,16.1882812 24.5617188,16.1882812 24.5617188,16.1882812 C24.5617188,16.1882812 24.5617188,0.95859375 24.5617188,0.95859375 C24.5617188,0.6234375 24.4179688,0.3359375 24.1304688,0.1921875 L24.1320313,0.19140625 Z M22.6,2.346875 C22.6,2.346875 22.6,5.17265625 22.6,5.17265625 C22.6,5.17265625 10.81875,9.3875 10.81875,9.3875 C10.81875,9.3875 10.81875,6.56171875 10.81875,6.56171875 C10.81875,6.56171875 22.6,2.346875 22.6,2.346875 Z"/>
  <title>Music Solid</title>
</svg>