<svg xmlns="http://www.w3.org/2000/svg" viewBox="0 0 25 25" id="navigation">
  <path d="M22.1210938,4.92734375 C22.1210938,4.92734375 22.1210938,4.92734375 22.1210938,4.92734375 C22.1210938,4.92734375 20.540625,4.92734375 20.540625,4.92734375 C20.3015625,3.778125 19.7265625,2.8203125 18.8164063,2.1015625 C17.90625,1.3828125 16.9007813,1 15.7515625,1 C15.7515625,1 15.7515625,1 15.7515625,1 C14.5539063,1 13.5484375,1.3828125 12.6382813,2.1015625 C11.728125,2.8203125 11.1539062,3.778125 10.9140625,4.8796875 C10.9140625,4.8796875 10.9140625,4.8796875 10.9140625,4.8796875 C10.9140625,4.8796875 2.48515625,4.92734375 2.48515625,4.92734375 C2.05390625,4.92734375 1.71875,5.07109375 1.43125,5.35859375 C1.14375,5.64609375 1,5.98125 1,6.4125 C1,6.4125 1,6.4125 1,6.4125 C1,6.4125 1,22.0734375 1,22.0734375 C1,22.5046875 1.14375,22.8398438 1.43125,23.1273438 C1.71875,23.4148437 2.05390625,23.5585938 2.48515625,23.5585938 C2.48515625,23.5585938 2.48515625,23.5585938 2.48515625,23.5585938 C2.48515625,23.5585938 22.1210938,23.5585938 22.1210938,23.5585938 C22.5523437,23.5585938 22.8875,23.4148437 23.175,23.1273438 C23.4625,22.8398438 23.60625,22.5046875 23.60625,22.0734375 C23.60625,22.0734375 23.60625,22.0734375 23.60625,22.0734375 C23.60625,22.0734375 23.60625,6.4125 23.60625,6.4125 C23.60625,5.98125 23.4625,5.64609375 23.175,5.35859375 C22.8875,5.07109375 22.5523437,4.92734375 22.1210938,4.92734375 Z M6.890625,17.6664063 C6.890625,17.6664063 6.890625,22.5992188 6.890625,22.5992188 C6.890625,22.5992188 2.484375,22.5992188 2.484375,22.5992188 C2.14921875,22.5992188 2.00546875,22.4078125 2.00546875,22.0726563 C2.00546875,22.0726563 2.00546875,22.0726563 2.00546875,22.0726563 C2.00546875,22.0726563 2.00546875,17.6664063 2.00546875,17.6664063 C2.00546875,17.6664063 6.890625,17.6664063 6.890625,17.6664063 Z M6.890625,5.88515625 C6.890625,5.88515625 6.890625,16.7085937 6.890625,16.7085937 C6.890625,16.7085937 2.00546875,16.7085937 2.00546875,16.7085937 C2.00546875,16.7085937 2.00546875,6.41171875 2.00546875,6.41171875 C2.00546875,6.0765625 2.14921875,5.88515625 2.484375,5.88515625 C2.484375,5.88515625 2.484375,5.88515625 2.484375,5.88515625 C2.484375,5.88515625 6.890625,5.88515625 6.890625,5.88515625 Z M12.9734375,3.10703125 C13.7398438,2.340625 14.65,1.9578125 15.7515625,1.9578125 C16.853125,1.9578125 17.7632813,2.340625 18.5296875,3.10703125 C19.2960938,3.8734375 19.6789063,4.78359375 19.6789063,5.88515625 C19.6789063,5.88515625 19.6789063,5.88515625 19.6789063,5.88515625 C19.6789063,6.746875 19.2,7.9921875 18.2898438,9.62109375 C17.3796875,11.2976562 16.5179688,12.5421875 15.7515625,13.4523438 C15.7515625,13.4523438 15.7515625,13.4523438 15.7515625,13.4523438 C15.0328125,12.6382812 14.1710938,11.3929688 13.2609375,9.71640625 C12.303125,8.03984375 11.8242188,6.7953125 11.8242188,5.88515625 C11.8242188,5.88515625 11.8242188,5.88515625 11.8242188,5.88515625 C11.8242188,4.78359375 12.2070313,3.8734375 12.9734375,3.10703125 L12.9734375,3.10703125 Z M22.6,17.6664063 C22.6,17.6664063 22.6,22.0726563 22.6,22.0726563 C22.6,22.4078125 22.45625,22.5992188 22.1210938,22.5992188 C22.1210938,22.5992188 22.1210938,22.5992188 22.1210938,22.5992188 C22.1210938,22.5992188 7.896875,22.5992188 7.896875,22.5992188 C7.896875,22.5992188 7.896875,17.6664063 7.896875,17.6664063 C7.896875,17.6664063 22.6,17.6664063 22.6,17.6664063 Z M22.6,6.41171875 C22.6,6.41171875 22.6,16.7085937 22.6,16.7085937 C22.6,16.7085937 7.896875,16.7085937 7.896875,16.7085937 C7.896875,16.7085937 7.896875,5.88515625 7.896875,5.88515625 C7.896875,5.88515625 10.8179688,5.88515625 10.8179688,5.88515625 C10.8179688,7.0828125 11.5367188,8.8546875 12.9734375,11.2015625 C14.4101563,13.5484375 15.3203125,14.7453125 15.7515625,14.7453125 C15.7515625,14.7453125 15.7515625,14.7453125 15.7515625,14.7453125 C16.134375,14.7453125 17.0445313,13.5476562 18.48125,11.2015625 C19.9179688,8.85546875 20.6367188,7.0828125 20.6367188,5.88515625 C20.6367188,5.88515625 20.6367188,5.88515625 20.6367188,5.88515625 C20.6367188,5.88515625 22.1210938,5.88515625 22.1210938,5.88515625 C22.45625,5.88515625 22.6,6.0765625 22.6,6.41171875 C22.6,6.41171875 22.6,6.41171875 22.6,6.41171875 Z M17.1398438,7.27421875 C17.5226563,6.89140625 17.7148438,6.4125 17.7148438,5.88515625 C17.7148438,5.3578125 17.5234375,4.8796875 17.1398438,4.49609375 C16.7085938,4.11328125 16.278125,3.92109375 15.7507813,3.92109375 C15.7507813,3.92109375 15.7507813,3.92109375 15.7507813,3.92109375 C15.2242188,3.92109375 14.7453125,4.1125 14.3617188,4.49609375 C13.978125,4.8796875 13.7867188,5.3578125 13.7867188,5.88515625 C13.7867188,6.41171875 13.978125,6.890625 14.3617188,7.27421875 C14.7453125,7.6578125 15.2234375,7.84921875 15.7507813,7.84921875 C16.2773438,7.84921875 16.75625,7.6578125 17.1398438,7.27421875 Z M14.7453125,5.88515625 C14.7453125,5.88515625 14.7453125,5.88515625 14.7453125,5.88515625 C14.7453125,5.64609375 14.8414063,5.40625 15.0328125,5.21484375 C15.2242187,5.0234375 15.4640625,4.92734375 15.7515625,4.92734375 C15.7515625,4.92734375 15.7515625,4.92734375 15.7515625,4.92734375 C15.990625,4.92734375 16.2304688,5.0234375 16.421875,5.21484375 C16.6132812,5.40625 16.709375,5.64609375 16.709375,5.88515625 C16.709375,5.88515625 16.709375,5.88515625 16.709375,5.88515625 C16.709375,6.17265625 16.6132812,6.41171875 16.421875,6.60390625 C16.2304688,6.79609375 15.990625,6.89140625 15.7515625,6.89140625 C15.7515625,6.89140625 15.7515625,6.89140625 15.7515625,6.89140625 C15.4640625,6.89140625 15.225,6.7953125 15.0328125,6.60390625 C14.840625,6.4125 14.7453125,6.17265625 14.7453125,5.88515625 Z"/>
  <title>Navigation</title>
</svg>