<svg xmlns="http://www.w3.org/2000/svg" viewBox="0 0 25 25" id="navigation-solid">
  <path d="M15.7039062,14.7453125 C15.7039062,14.7453125 15.7039062,14.7453125 15.7039062,14.7453125 C16.1351562,14.7453125 17.0445312,13.5476562 18.4820312,11.2015625 C19.9195312,8.85546875 20.6375,7.0828125 20.6375,5.88515625 C20.6375,5.88515625 20.6375,5.88515625 20.6375,5.88515625 C20.6375,4.54453125 20.1585937,3.39453125 19.2007812,2.43671875 C18.2429687,1.47890625 17.09375,1 15.7046875,1 C15.7046875,1 15.7046875,1 15.7046875,1 C14.3640625,1 13.2140625,1.47890625 12.25625,2.43671875 C11.2984375,3.39453125 10.8195313,4.54375 10.8195313,5.88515625 C10.8195313,5.88515625 10.8195313,5.88515625 10.8195313,5.88515625 C10.8195313,7.0828125 11.5382813,8.8546875 12.975,11.2015625 C14.4117187,13.5484375 15.321875,14.7453125 15.7046875,14.7453125 L15.7039062,14.7453125 Z M14.3148438,7.27421875 C13.9320313,6.89140625 13.7398438,6.4125 13.7398438,5.88515625 C13.7398438,5.3578125 13.93125,4.8796875 14.3148438,4.49609375 C14.6976562,4.11328125 15.1765625,3.92109375 15.7039062,3.92109375 C16.23125,3.92109375 16.709375,4.1125 17.0929687,4.49609375 C17.4757812,4.87890625 17.6679688,5.3578125 17.6679688,5.88515625 C17.6679688,6.4125 17.4765625,6.890625 17.0929687,7.27421875 C16.7101562,7.65703125 16.23125,7.84921875 15.7039062,7.84921875 C15.1765625,7.84921875 14.6984375,7.6578125 14.3148438,7.27421875 Z M1.00078125,17.6664062 C1.00078125,17.6664062 1.4796875,17.6664062 1.4796875,17.6664062 C1.4796875,17.6664062 6.89140625,17.6664062 6.89140625,17.6664062 C6.89140625,17.6664062 6.89140625,23.5570313 6.89140625,23.5570313 C6.89140625,23.5570313 2.48515625,23.5570313 2.48515625,23.5570313 C2.05390625,23.5570313 1.71875,23.4132813 1.43125,23.1257813 C1.14375,22.8382813 1,22.503125 1,22.071875 C1,22.071875 1,22.071875 1,22.071875 C1,22.071875 1,17.665625 1,17.665625 L1.00078125,17.6664062 Z M2.48515625,4.92734375 C2.48515625,4.92734375 2.48515625,4.92734375 2.48515625,4.92734375 C2.48515625,4.92734375 6.89140625,4.92734375 6.89140625,4.92734375 C6.89140625,4.92734375 6.89140625,16.7085937 6.89140625,16.7085937 C6.89140625,16.7085937 1.00078125,16.7085937 1.00078125,16.7085937 C1.00078125,16.7085937 1.00078125,6.41171875 1.00078125,6.41171875 C1.00078125,5.98046875 1.14453125,5.6453125 1.43203125,5.3578125 C1.71953125,5.0703125 2.0546875,4.9265625 2.4859375,4.9265625 L2.48515625,4.92734375 Z M23.5585938,6.41171875 C23.5585938,6.41171875 23.5585938,6.41171875 23.5585938,6.41171875 C23.5585938,6.41171875 23.5585938,16.7085937 23.5585938,16.7085937 C23.5585938,16.7085937 7.85,16.7085937 7.85,16.7085937 C7.85,16.7085937 7.85,4.92734375 7.85,4.92734375 C7.85,4.92734375 9.909375,4.92734375 9.909375,4.92734375 C9.86171875,5.31015625 9.81328125,5.64609375 9.81328125,5.88515625 C9.81328125,5.88515625 9.81328125,5.88515625 9.81328125,5.88515625 C9.81328125,7.22578125 10.5796875,9.18984375 12.1601563,11.7757812 C13.740625,14.4101562 14.8898438,15.703125 15.7039062,15.703125 C16.5179687,15.703125 17.6671875,14.4101562 19.2476562,11.7757812 C20.828125,9.18984375 21.5945312,7.22578125 21.5945312,5.88515625 C21.5945312,5.88515625 21.5945312,5.88515625 21.5945312,5.88515625 C21.5945312,5.64609375 21.546875,5.31015625 21.4984375,4.8796875 C21.4984375,4.8796875 21.4984375,4.8796875 21.4984375,4.8796875 C21.4984375,4.8796875 22.0734375,4.92734375 22.0734375,4.92734375 C22.5046875,4.92734375 22.8398438,5.07109375 23.1273438,5.35859375 C23.4148437,5.64609375 23.5585938,5.98125 23.5585938,6.4125 L23.5585938,6.41171875 Z M7.84921875,17.6664063 C7.84921875,17.6664063 23.0789062,17.6664063 23.0789062,17.6664063 C23.0789062,17.6664063 23.5578125,17.6664063 23.5578125,17.6664063 C23.5578125,17.6664063 23.5578125,22.0726563 23.5578125,22.0726563 C23.5578125,22.5039062 23.4140625,22.8390625 23.1265625,23.1265625 C22.8390625,23.4140625 22.5039063,23.5578125 22.0726563,23.5578125 C22.0726563,23.5578125 22.0726563,23.5578125 22.0726563,23.5578125 C22.0726563,23.5578125 7.8484375,23.5578125 7.8484375,23.5578125 C7.8484375,23.5578125 7.8484375,17.6671875 7.8484375,17.6671875 L7.84921875,17.6664063 Z"/>
  <title>Navigation Solid</title>
</svg>