<svg xmlns="http://www.w3.org/2000/svg" viewBox="0 0 25 25" id="nodes-left">
  <path d="M5.496875,4.496875 C5.784375,4.209375 5.928125,3.87421875 5.928125,3.44296875 C5.928125,3.01171875 5.784375,2.6765625 5.496875,2.3890625 C5.496875,2.3890625 5.496875,2.3890625 5.496875,2.3890625 C5.2578125,2.1015625 4.921875,1.9578125 4.49140625,1.9578125 C4.49140625,1.9578125 4.49140625,1.9578125 4.49140625,1.9578125 C4.06015625,1.9578125 3.725,2.1015625 3.4375,2.3890625 C3.15,2.6765625 3.00625,3.01171875 3.00625,3.44296875 C3.00625,3.87421875 3.15,4.209375 3.4375,4.496875 C3.725,4.784375 4.06015625,4.928125 4.49140625,4.928125 C4.49140625,4.928125 4.49140625,4.928125 4.49140625,4.928125 C4.92265625,4.928125 5.2578125,4.784375 5.496875,4.496875 C5.496875,4.496875 5.496875,4.496875 5.496875,4.496875 L5.496875,4.496875 Z M5.496875,13.3570313 C5.784375,13.0695313 5.928125,12.734375 5.928125,12.303125 C5.928125,11.871875 5.784375,11.5367188 5.496875,11.2492188 C5.496875,11.2492188 5.496875,11.2492188 5.496875,11.2492188 C5.2578125,11.0101563 4.921875,10.8664063 4.49140625,10.8664063 C4.0609375,10.8664063 3.67734375,11.0101563 3.4375,11.2492188 C3.4375,11.2492188 3.4375,11.2492188 3.4375,11.2492188 C3.15,11.5367188 3.00625,11.871875 3.00625,12.303125 C3.00625,12.734375 3.15,13.0695313 3.4375,13.3570313 C3.4375,13.3570313 3.4375,13.3570313 3.4375,13.3570313 C3.6765625,13.5960938 4.06015625,13.7398438 4.49140625,13.7398438 C4.92265625,13.7398438 5.2578125,13.5960938 5.496875,13.3570313 C5.496875,13.3570313 5.496875,13.3570313 5.496875,13.3570313 Z M4.490625,22.6484375 C4.490625,22.6484375 4.490625,22.6484375 4.490625,22.6484375 C4.921875,22.6484375 5.25703125,22.5046875 5.49609375,22.2171875 C5.49609375,22.2171875 5.49609375,22.2171875 5.49609375,22.2171875 C5.78359375,21.9296875 5.92734375,21.5945313 5.92734375,21.1632813 C5.92734375,20.7320313 5.78359375,20.396875 5.49609375,20.109375 C5.49609375,20.109375 5.49609375,20.109375 5.49609375,20.109375 C5.25703125,19.7742188 4.92109375,19.6304688 4.490625,19.6304688 C4.490625,19.6304688 4.490625,19.6304688 4.490625,19.6304688 C4.1078125,19.6304688 3.771875,19.7742188 3.43671875,20.109375 C3.43671875,20.109375 3.43671875,20.109375 3.43671875,20.109375 C3.14921875,20.396875 3.00546875,20.7320313 3.00546875,21.1632813 C3.00546875,21.5945313 3.14921875,21.9296875 3.43671875,22.2171875 C3.72421875,22.5046875 4.059375,22.6484375 4.490625,22.6484375 L4.490625,22.6484375 Z M19.0984375,13.3570313 C19.0984375,13.3570313 19.0984375,13.3570313 19.0984375,13.3570313 C19.3375,13.5960938 19.7210937,13.7398438 20.1523438,13.7398438 C20.5835937,13.7398438 20.9664062,13.5960938 21.20625,13.3570313 C21.20625,13.3570313 21.20625,13.3570313 21.20625,13.3570313 C21.49375,13.0695313 21.6375,12.734375 21.6375,12.303125 C21.6375,11.871875 21.49375,11.5367188 21.20625,11.2492188 C21.20625,11.2492188 21.20625,11.2492188 21.20625,11.2492188 C20.9671875,11.0101563 20.5835937,10.8664063 20.1523438,10.8664063 C19.7210937,10.8664063 19.3382812,11.0101563 19.0984375,11.2492188 C19.0984375,11.2492188 19.0984375,11.2492188 19.0984375,11.2492188 C18.859375,11.584375 18.715625,11.9195313 18.715625,12.303125 C18.715625,12.6867188 18.859375,13.021875 19.0984375,13.3570313 Z M6.0234375,23.0320313 C6.0234375,23.0320313 6.0234375,23.0320313 6.0234375,23.0320313 C5.5921875,23.4148438 5.11328125,23.6070313 4.490625,23.6070313 C4.490625,23.6070313 4.490625,23.6070313 4.490625,23.6070313 C3.771875,23.6070313 3.19765625,23.3679688 2.71875,22.8882813 C2.23984375,22.4085938 2,21.834375 2,21.1640625 C2,20.49375 2.23984375,19.91875 2.71875,19.4398438 C3.19765625,18.9609375 3.77265625,18.7210938 4.490625,18.7210938 C4.490625,18.7210938 4.490625,18.7210938 4.490625,18.7210938 C5.11328125,18.7210938 5.63984375,18.9125 6.0234375,19.2476563 C6.0234375,19.2476563 6.0234375,19.2476563 6.0234375,19.2476563 C6.4546875,19.6304688 6.7421875,20.109375 6.88515625,20.684375 C6.88515625,20.684375 6.88515625,20.684375 6.88515625,20.684375 C6.88515625,20.684375 11.3390625,20.684375 11.3390625,20.684375 C11.6742187,20.684375 11.8179687,20.4929688 11.8179687,20.1578125 C11.8179687,20.1578125 11.8179687,20.1578125 11.8179687,20.1578125 C11.8179687,20.1578125 11.8179687,12.8304688 11.8179687,12.8304688 C11.8179687,12.8304688 6.88515625,12.8304688 6.88515625,12.8304688 C6.74140625,13.3570313 6.45390625,13.8359375 6.0234375,14.2195313 C6.0234375,14.2195313 6.0234375,14.2195313 6.0234375,14.2195313 C5.640625,14.5546875 5.11328125,14.7460938 4.490625,14.7460938 C4.490625,14.7460938 4.490625,14.7460938 4.490625,14.7460938 C3.771875,14.7460938 3.15,14.5070313 2.71875,14.0273438 C2.71875,14.0273438 2.71875,14.0273438 2.71875,14.0273438 C2.23984375,13.5960938 2,13.021875 2,12.303125 C2,12.303125 2,12.303125 2,12.303125 C2,11.6328125 2.23984375,11.0578125 2.71875,10.5789063 C2.71875,10.5789063 2.71875,10.5789063 2.71875,10.5789063 C3.19765625,10.0523438 3.77265625,9.8125 4.490625,9.8125 C4.490625,9.8125 4.490625,9.8125 4.490625,9.8125 C5.11328125,9.8125 5.5921875,10.0039062 6.0234375,10.3875 C6.4546875,10.7710938 6.7421875,11.2492188 6.88515625,11.7765625 C6.88515625,11.7765625 6.88515625,11.7765625 6.88515625,11.7765625 C6.88515625,11.7765625 11.8179687,11.7765625 11.8179687,11.7765625 C11.8179687,11.7765625 11.8179687,4.44921875 11.8179687,4.44921875 C11.8179687,4.1140625 11.6742187,3.92265625 11.3390625,3.92265625 C11.3390625,3.92265625 11.3390625,3.92265625 11.3390625,3.92265625 C11.3390625,3.92265625 6.88515625,3.9703125 6.88515625,3.9703125 C6.74140625,4.496875 6.45390625,4.97578125 6.0234375,5.359375 C6.0234375,5.359375 6.0234375,5.359375 6.0234375,5.359375 C5.640625,5.69453125 5.11328125,5.8859375 4.490625,5.8859375 C4.490625,5.8859375 4.490625,5.8859375 4.490625,5.8859375 C3.771875,5.8859375 3.19765625,5.646875 2.71875,5.1671875 C2.23984375,4.6875 2,4.11328125 2,3.44296875 C2,2.77265625 2.23984375,2.19765625 2.71875,1.71875 C3.19765625,1.23984375 3.77265625,1 4.490625,1 C4.490625,1 4.490625,1 4.490625,1 C5.11328125,1 5.5921875,1.19140625 6.0234375,1.575 C6.0234375,1.575 6.0234375,1.575 6.0234375,1.575 C6.4546875,1.9578125 6.7421875,2.43671875 6.88515625,2.9640625 C6.88515625,2.9640625 6.88515625,2.9640625 6.88515625,2.9640625 C6.88515625,2.9640625 11.3390625,2.9640625 11.3390625,2.9640625 C11.7703125,2.9640625 12.1054688,3.1078125 12.3929687,3.3953125 C12.6804687,3.6828125 12.8242187,4.01796875 12.8242187,4.44921875 C12.8242187,4.44921875 12.8242187,4.44921875 12.8242187,4.44921875 C12.8242187,4.44921875 12.8242187,11.7765625 12.8242187,11.7765625 C12.8242187,11.7765625 17.7570312,11.7765625 17.7570312,11.7765625 C17.9007812,11.25 18.1882812,10.7710938 18.61875,10.3875 C18.61875,10.3875 18.61875,10.3875 18.61875,10.3875 C19.05,10.0046875 19.5765625,9.8125 20.1515625,9.8125 C20.1515625,9.8125 20.1515625,9.8125 20.1515625,9.8125 C20.8703125,9.8125 21.4445312,10.0515625 21.9234375,10.5789063 C21.9234375,10.5789063 21.9234375,10.5789063 21.9234375,10.5789063 C22.4023437,11.0578125 22.6421875,11.6328125 22.6421875,12.303125 C22.6421875,12.303125 22.6421875,12.303125 22.6421875,12.303125 C22.6421875,13.021875 22.403125,13.5960938 21.9234375,14.0273438 C21.9234375,14.0273438 21.9234375,14.0273438 21.9234375,14.0273438 C21.4921875,14.50625 20.8695312,14.7460938 20.1515625,14.7460938 C20.1515625,14.7460938 20.1515625,14.7460938 20.1515625,14.7460938 C19.5289062,14.7460938 19.0023437,14.5546875 18.61875,14.2195313 C18.61875,14.2195313 18.61875,14.2195313 18.61875,14.2195313 C18.1875,13.8367188 17.9,13.3578125 17.7570312,12.8304688 C17.7570312,12.8304688 17.7570312,12.8304688 17.7570312,12.8304688 C17.7570312,12.8304688 12.8242187,12.8304688 12.8242187,12.8304688 C12.8242187,12.8304688 12.8242187,20.1578125 12.8242187,20.1578125 C12.8242187,20.5890625 12.6804687,20.9242188 12.3929687,21.2117188 C12.1054688,21.4992188 11.7703125,21.6429688 11.3390625,21.6429688 C11.3390625,21.6429688 11.3390625,21.6429688 11.3390625,21.6429688 C11.3390625,21.6429688 6.88515625,21.6429688 6.88515625,21.6429688 C6.74140625,22.1695313 6.45390625,22.6484375 6.0234375,23.0320313 C6.0234375,23.0320313 6.0234375,23.0320313 6.0234375,23.0320313 L6.0234375,23.0320313 Z"/>
  <title>Nodes Left</title>
</svg>