<svg xmlns="http://www.w3.org/2000/svg" viewBox="0 0 25 25" id="nodes-up">
  <path d="M20.109375,5.496875 C20.396875,5.784375 20.7320312,5.928125 21.1632812,5.928125 C21.5945312,5.928125 21.9296875,5.784375 22.2171875,5.496875 C22.2171875,5.496875 22.2171875,5.496875 22.2171875,5.496875 C22.5046875,5.2578125 22.6484375,4.921875 22.6484375,4.49140625 C22.6484375,4.49140625 22.6484375,4.49140625 22.6484375,4.49140625 C22.6484375,4.06015625 22.5046875,3.725 22.2171875,3.4375 C21.9296875,3.15 21.5945312,3.00625 21.1632812,3.00625 C20.7320312,3.00625 20.396875,3.15 20.109375,3.4375 C20.109375,3.4375 20.109375,3.4375 20.109375,3.4375 C19.7742187,3.77265625 19.6304687,4.1078125 19.6304687,4.49140625 C19.6304687,4.49140625 19.6304687,4.49140625 19.6304687,4.49140625 C19.6304687,4.92265625 19.7742187,5.2578125 20.109375,5.496875 C20.109375,5.496875 20.109375,5.496875 20.109375,5.496875 L20.109375,5.496875 Z M11.2492188,5.496875 C11.5367188,5.784375 11.871875,5.928125 12.303125,5.928125 C12.734375,5.928125 13.0695313,5.784375 13.3570313,5.496875 C13.3570313,5.496875 13.3570313,5.496875 13.3570313,5.496875 C13.5960938,5.2578125 13.7398437,4.921875 13.7398437,4.49140625 C13.7398437,4.0609375 13.5960938,3.67734375 13.3570313,3.4375 C13.3570313,3.4375 13.3570313,3.4375 13.3570313,3.4375 C13.0695313,3.15 12.734375,3.00625 12.303125,3.00625 C11.871875,3.00625 11.5367188,3.15 11.2492188,3.4375 C11.2492188,3.4375 11.2492188,3.4375 11.2492188,3.4375 C11.0101563,3.6765625 10.8664063,4.06015625 10.8664063,4.49140625 C10.8664063,4.92265625 11.0101562,5.2578125 11.2492188,5.496875 C11.2492188,5.496875 11.2492188,5.496875 11.2492188,5.496875 L11.2492188,5.496875 Z M1.9578125,4.490625 C1.9578125,4.490625 1.9578125,4.490625 1.9578125,4.490625 C1.9578125,4.921875 2.1015625,5.25703125 2.3890625,5.49609375 C2.3890625,5.49609375 2.3890625,5.49609375 2.3890625,5.49609375 C2.6765625,5.78359375 3.01171875,5.92734375 3.44296875,5.92734375 C3.87421875,5.92734375 4.209375,5.78359375 4.496875,5.49609375 C4.496875,5.49609375 4.496875,5.49609375 4.496875,5.49609375 C4.784375,5.25703125 4.928125,4.92109375 4.928125,4.490625 C4.928125,4.490625 4.928125,4.490625 4.928125,4.490625 C4.928125,4.059375 4.784375,3.72421875 4.496875,3.43671875 C4.209375,3.14921875 3.87421875,3.00546875 3.44296875,3.00546875 C3.01171875,3.00546875 2.6765625,3.14921875 2.3890625,3.43671875 C2.1015625,3.72421875 1.9578125,4.059375 1.9578125,4.490625 Z M11.2492188,19.0984375 C11.2492188,19.0984375 11.2492188,19.0984375 11.2492188,19.0984375 C11.0101563,19.3375 10.8664063,19.7210937 10.8664063,20.1523437 C10.8664063,20.5835937 11.0101562,20.9664062 11.2492188,21.20625 C11.2492188,21.20625 11.2492188,21.20625 11.2492188,21.20625 C11.5367188,21.49375 11.871875,21.6375 12.303125,21.6375 C12.734375,21.6375 13.0695313,21.49375 13.3570313,21.20625 C13.3570313,21.20625 13.3570313,21.20625 13.3570313,21.20625 C13.5960938,20.9671875 13.7398437,20.5835937 13.7398437,20.1523437 C13.7398437,19.7210937 13.5960938,19.3382812 13.3570313,19.0984375 C13.3570313,19.0984375 13.3570313,19.0984375 13.3570313,19.0984375 C13.021875,18.859375 12.6867188,18.715625 12.303125,18.715625 C11.9195313,18.715625 11.584375,18.859375 11.2492187,19.0984375 L11.2492188,19.0984375 Z M1.575,6.0234375 C1.575,6.0234375 1.575,6.0234375 1.575,6.0234375 C1.1921875,5.5921875 1,5.11328125 1,4.490625 C1,4.490625 1,4.490625 1,4.490625 C1,3.771875 1.2390625,3.19765625 1.71875,2.71875 C2.1984375,2.23984375 2.77265625,2 3.44296875,2 C4.11328125,2 4.68828125,2.23984375 5.1671875,2.71875 C5.64609375,3.19765625 5.8859375,3.77265625 5.8859375,4.490625 C5.8859375,4.490625 5.8859375,4.490625 5.8859375,4.490625 C5.8859375,5.11328125 5.69453125,5.63984375 5.359375,6.0234375 C5.359375,6.0234375 5.359375,6.0234375 5.359375,6.0234375 C4.9765625,6.4546875 4.49765625,6.7421875 3.92265625,6.88515625 C3.92265625,6.88515625 3.92265625,6.88515625 3.92265625,6.88515625 C3.92265625,6.88515625 3.92265625,11.3390625 3.92265625,11.3390625 C3.92265625,11.6742187 4.1140625,11.8179687 4.44921875,11.8179687 C4.44921875,11.8179687 4.44921875,11.8179687 4.44921875,11.8179687 C4.44921875,11.8179687 11.825,11.8179687 11.825,11.8179687 C11.825,11.8179687 11.825,6.88515625 11.825,6.88515625 C11.2023437,6.74140625 10.7710938,6.45390625 10.4359375,6.0234375 C10.4359375,6.0234375 10.4359375,6.0234375 10.4359375,6.0234375 C10.053125,5.5921875 9.8609375,5.11328125 9.8609375,4.490625 C9.8609375,4.490625 9.8609375,4.490625 9.8609375,4.490625 C9.8609375,3.771875 10.1,3.19765625 10.5796875,2.71875 C11.059375,2.23984375 11.6335937,2 12.3039062,2 C12.3039062,2 12.3039062,2 12.3039062,2 C13.0226563,2 13.596875,2.23984375 14.028125,2.71875 C14.028125,2.71875 14.028125,2.71875 14.028125,2.71875 C14.5546875,3.19765625 14.7945313,3.77265625 14.7945313,4.490625 C14.7945313,4.490625 14.7945313,4.490625 14.7945313,4.490625 C14.7945313,5.11328125 14.603125,5.5921875 14.2195312,6.0234375 C13.8359375,6.4546875 13.3578125,6.7421875 12.8304688,6.88515625 C12.8304688,6.88515625 12.8304688,6.88515625 12.8304688,6.88515625 C12.8304688,6.88515625 12.8304688,11.8179687 12.8304688,11.8179687 C12.8304688,11.8179687 20.1578125,11.8179687 20.1578125,11.8179687 C20.4929687,11.8179687 20.684375,11.6742187 20.684375,11.3390625 C20.684375,11.3390625 20.684375,11.3390625 20.684375,11.3390625 C20.684375,11.3390625 20.6367188,6.88515625 20.6367188,6.88515625 C20.1101563,6.74140625 19.63125,6.45390625 19.2476563,6.0234375 C19.2476563,6.0234375 19.2476563,6.0234375 19.2476563,6.0234375 C18.9125,5.640625 18.7210938,5.11328125 18.7210938,4.490625 C18.7210938,4.490625 18.7210938,4.490625 18.7210938,4.490625 C18.7210938,3.771875 18.9601563,3.19765625 19.4398438,2.71875 C19.9195313,2.23984375 20.49375,2 21.1640625,2 C21.834375,2 22.409375,2.23984375 22.8882813,2.71875 C23.3671875,3.19765625 23.6070313,3.77265625 23.6070313,4.490625 C23.6070313,4.490625 23.6070313,4.490625 23.6070313,4.490625 C23.6070313,5.11328125 23.415625,5.5921875 23.0320313,6.0234375 C23.0320313,6.0234375 23.0320313,6.0234375 23.0320313,6.0234375 C22.6492188,6.4546875 22.1703125,6.7421875 21.6429688,6.88515625 C21.6429688,6.88515625 21.6429688,6.88515625 21.6429688,6.88515625 C21.6429688,6.88515625 21.6429688,11.3390625 21.6429688,11.3390625 C21.6429688,11.7703125 21.4992188,12.1054687 21.2117188,12.3929687 C20.9242188,12.6804687 20.5890625,12.8242187 20.1578125,12.8242187 C20.1578125,12.8242187 20.1578125,12.8242187 20.1578125,12.8242187 C20.1578125,12.8242187 12.8304688,12.8242187 12.8304688,12.8242187 C12.8304688,12.8242187 12.8304688,17.7570312 12.8304688,17.7570312 C13.3570313,17.9007812 13.8359375,18.1882812 14.2195313,18.61875 C14.603125,19.0492188 14.7945313,19.5289062 14.7945313,20.1515625 C14.7945313,20.1515625 14.7945313,20.1515625 14.7945313,20.1515625 C14.7945313,20.8703125 14.5554688,21.4445312 14.028125,21.9234375 C14.028125,21.9234375 14.028125,21.9234375 14.028125,21.9234375 C13.596875,22.4023437 13.0226563,22.6421875 12.3039063,22.6421875 C12.3039063,22.6421875 12.3039063,22.6421875 12.3039063,22.6421875 C11.6335938,22.6421875 11.0585938,22.403125 10.5796875,21.9234375 C10.1007813,21.44375 9.8609375,20.8695312 9.8609375,20.1515625 C9.8609375,20.1515625 9.8609375,20.1515625 9.8609375,20.1515625 C9.8609375,19.5765625 10.0523438,19.05 10.4359375,18.61875 C10.4359375,18.61875 10.4359375,18.61875 10.4359375,18.61875 C10.7710938,18.1875 11.2023438,17.9 11.825,17.7570312 C11.825,17.7570312 11.825,17.7570312 11.825,17.7570312 C11.825,17.7570312 11.825,12.8242187 11.825,12.8242187 C11.825,12.8242187 4.44921875,12.8242187 4.44921875,12.8242187 C4.01796875,12.8242187 3.6828125,12.6804687 3.3953125,12.3929687 C3.1078125,12.1054688 2.9640625,11.7703125 2.9640625,11.3390625 C2.9640625,11.3390625 2.9640625,11.3390625 2.9640625,11.3390625 C2.9640625,11.3390625 2.9640625,6.88515625 2.9640625,6.88515625 C2.4375,6.74140625 1.95859375,6.45390625 1.575,6.0234375 C1.575,6.0234375 1.575,6.0234375 1.575,6.0234375 L1.575,6.0234375 Z"/>
  <title>Nodes Up</title>
</svg>