<svg xmlns="http://www.w3.org/2000/svg" viewBox="0 0 25 25" id="nodes-left-solid">
  <path d="M6.0234375,23.0320313 C6.0234375,23.0320313 6.0234375,23.0320313 6.0234375,23.0320313 C5.5921875,23.4148438 5.11328125,23.6070313 4.490625,23.6070313 C4.490625,23.6070313 4.490625,23.6070313 4.490625,23.6070313 C3.771875,23.6070313 3.19765625,23.3679688 2.71875,22.8882813 C2.23984375,22.4085938 2,21.834375 2,21.1640625 C2,21.1640625 2,21.1640625 2,21.1640625 C2,20.4453125 2.23984375,19.8710938 2.71875,19.4398438 C2.71875,19.4398438 2.71875,19.4398438 2.71875,19.4398438 C3.19765625,18.9609375 3.77265625,18.7210938 4.490625,18.7210938 C4.490625,18.7210938 4.490625,18.7210938 4.490625,18.7210938 C5.11328125,18.7210938 5.63984375,18.9125 6.0234375,19.2476563 C6.0234375,19.2476563 6.0234375,19.2476563 6.0234375,19.2476563 C6.4546875,19.6304688 6.7421875,20.109375 6.88515625,20.684375 C6.88515625,20.684375 6.88515625,20.684375 6.88515625,20.684375 C6.88515625,20.684375 11.3390625,20.684375 11.3390625,20.684375 C11.6742187,20.684375 11.8179687,20.4929688 11.8179687,20.1578125 C11.8179687,20.1578125 11.8179687,20.1578125 11.8179687,20.1578125 C11.8179687,20.1578125 11.8179687,12.8304688 11.8179687,12.8304688 C11.8179687,12.8304688 6.88515625,12.8304688 6.88515625,12.8304688 C6.74140625,13.3570313 6.45390625,13.8359375 6.0234375,14.2195313 C6.0234375,14.2195313 6.0234375,14.2195313 6.0234375,14.2195313 C5.5921875,14.5546875 5.065625,14.7460938 4.490625,14.7460938 C4.490625,14.7460938 4.490625,14.7460938 4.490625,14.7460938 C3.771875,14.7460938 3.15,14.5070313 2.71875,14.0273438 C2.71875,14.0273438 2.71875,14.0273438 2.71875,14.0273438 C2.23984375,13.5484375 2,12.9734375 2,12.303125 C2,12.303125 2,12.303125 2,12.303125 C2,11.6804688 2.23984375,11.0578125 2.71875,10.53125 C2.71875,10.53125 2.71875,10.53125 2.71875,10.53125 C3.19765625,10.0523438 3.77265625,9.8125 4.490625,9.8125 C4.490625,9.8125 4.490625,9.8125 4.490625,9.8125 C5.11328125,9.8125 5.5921875,10.0039062 6.0234375,10.3875 C6.4546875,10.7710938 6.7421875,11.2492188 6.88515625,11.7765625 C6.88515625,11.7765625 6.88515625,11.7765625 6.88515625,11.7765625 C6.88515625,11.7765625 11.8179687,11.7765625 11.8179687,11.7765625 C11.8179687,11.7765625 11.8179687,4.44921875 11.8179687,4.44921875 C11.8179687,4.1140625 11.6742187,3.92265625 11.3390625,3.92265625 C11.3390625,3.92265625 11.3390625,3.92265625 11.3390625,3.92265625 C11.3390625,3.92265625 6.88515625,3.9703125 6.88515625,3.9703125 C6.74140625,4.496875 6.45390625,4.97578125 6.0234375,5.359375 C6.0234375,5.359375 6.0234375,5.359375 6.0234375,5.359375 C5.640625,5.69453125 5.11328125,5.8859375 4.490625,5.8859375 C4.490625,5.8859375 4.490625,5.8859375 4.490625,5.8859375 C3.771875,5.8859375 3.19765625,5.646875 2.71875,5.1671875 C2.23984375,4.6875 2,4.11328125 2,3.44296875 C2,2.77265625 2.23984375,2.19765625 2.71875,1.71875 C3.19765625,1.23984375 3.77265625,1 4.490625,1 C4.490625,1 4.490625,1 4.490625,1 C5.11328125,1 5.5921875,1.19140625 6.0234375,1.575 C6.0234375,1.575 6.0234375,1.575 6.0234375,1.575 C6.4546875,1.9578125 6.7421875,2.43671875 6.88515625,2.9640625 C6.88515625,2.9640625 6.88515625,2.9640625 6.88515625,2.9640625 C6.88515625,2.9640625 11.3390625,2.9640625 11.3390625,2.9640625 C11.7703125,2.9640625 12.1054688,3.1078125 12.3929687,3.3953125 C12.6804687,3.6828125 12.8242187,4.01796875 12.8242187,4.44921875 C12.8242187,4.44921875 12.8242187,4.44921875 12.8242187,4.44921875 C12.8242187,4.44921875 12.8242187,11.7765625 12.8242187,11.7765625 C12.8242187,11.7765625 17.7570312,11.7765625 17.7570312,11.7765625 C17.9007812,11.25 18.1882812,10.7710938 18.61875,10.3875 C18.61875,10.3875 18.61875,10.3875 18.61875,10.3875 C19.05,10.0046875 19.5765625,9.8125 20.1515625,9.8125 C20.1515625,9.8125 20.1515625,9.8125 20.1515625,9.8125 C20.8703125,9.8125 21.4445312,10.0515625 21.9234375,10.53125 C21.9234375,10.53125 21.9234375,10.53125 21.9234375,10.53125 C22.4023437,11.0578125 22.6421875,11.6804688 22.6421875,12.303125 C22.6421875,12.303125 22.6421875,12.303125 22.6421875,12.303125 C22.6421875,12.9734375 22.403125,13.5484375 21.9234375,14.0273438 C21.9234375,14.0273438 21.9234375,14.0273438 21.9234375,14.0273438 C21.4921875,14.50625 20.8695312,14.7460938 20.1515625,14.7460938 C20.1515625,14.7460938 20.1515625,14.7460938 20.1515625,14.7460938 C19.5765625,14.7460938 19.05,14.5546875 18.61875,14.2195313 C18.61875,14.2195313 18.61875,14.2195313 18.61875,14.2195313 C18.1875,13.8367188 17.9,13.3578125 17.7570312,12.8304688 C17.7570312,12.8304688 17.7570312,12.8304688 17.7570312,12.8304688 C17.7570312,12.8304688 12.8242187,12.8304688 12.8242187,12.8304688 C12.8242187,12.8304688 12.8242187,20.1578125 12.8242187,20.1578125 C12.8242187,20.5890625 12.6804687,20.9242188 12.3929687,21.2117188 C12.1054688,21.4992188 11.7703125,21.6429688 11.3390625,21.6429688 C11.3390625,21.6429688 11.3390625,21.6429688 11.3390625,21.6429688 C11.3390625,21.6429688 6.88515625,21.6429688 6.88515625,21.6429688 C6.74140625,22.1695313 6.45390625,22.6484375 6.0234375,23.0320313 C6.0234375,23.0320313 6.0234375,23.0320313 6.0234375,23.0320313 L6.0234375,23.0320313 Z"/>
  <title>Nodes Left Solid</title>
</svg>