<svg xmlns="http://www.w3.org/2000/svg" viewBox="0 0 25 25" id="node-solid">
  <path d="M24.5226563,3.4859375 C24.5226563,3.4859375 24.5226563,3.4859375 24.5226563,3.4859375 C24.5226563,3.4859375 24.5226563,17.1835938 24.5226563,17.1835938 C24.5226563,17.6148437 24.3789063,17.95 24.0914063,18.2375 C23.8039062,18.525 23.46875,18.66875 23.0375,18.66875 C23.0375,18.66875 23.0375,18.66875 23.0375,18.66875 C23.0375,18.66875 18.1523438,18.66875 18.1523438,18.66875 C17.7210938,18.66875 17.3859375,18.525 17.0984375,18.2375 C16.8109375,17.95 16.6671875,17.6148437 16.6671875,17.1835938 C16.6671875,17.1835938 16.6671875,17.1835938 16.6671875,17.1835938 C16.6671875,17.1835938 16.6671875,12.7296875 16.6671875,12.7296875 C16.7632813,12.7773438 16.90625,12.7773438 17.1460938,12.7773438 C17.1460938,12.7773438 17.1460938,12.7773438 17.1460938,12.7773438 C17.8648438,12.7773438 18.4390625,12.5382813 18.9179688,12.0585938 C19.396875,11.5789062 19.6367188,11.0046875 19.6367188,10.334375 C19.6367188,9.6640625 19.3976563,9.0890625 18.9179688,8.61015625 C18.4382812,8.13125 17.8640625,7.89140625 17.1460938,7.89140625 C17.1460938,7.89140625 17.1460938,7.89140625 17.1460938,7.89140625 C16.9070312,7.89140625 16.7632813,7.89140625 16.6671875,7.9390625 C16.6671875,7.9390625 16.6671875,7.9390625 16.6671875,7.9390625 C16.6671875,7.9390625 16.6671875,3.48515625 16.6671875,3.48515625 C16.6671875,3.05390625 16.8109375,2.71875 17.0984375,2.43125 C17.3859375,2.14375 17.7210938,2 18.1523438,2 C18.1523438,2 18.1523438,2 18.1523438,2 C18.1523438,2 23.0375,2 23.0375,2 C23.46875,2 23.8039063,2.14375 24.0914063,2.43125 C24.3789063,2.71875 24.5226563,3.05390625 24.5226563,3.48515625 L24.5226563,3.4859375 Z M4.88671875,15.2195313 C4.88671875,15.2195313 4.88671875,15.2195313 4.88671875,15.2195313 C4.88671875,14.5492188 5.12578125,13.9742188 5.60546875,13.4953125 C6.08515625,13.0164063 6.659375,12.7765625 7.37734375,12.7765625 C7.37734375,12.7765625 7.37734375,12.7765625 7.37734375,12.7765625 C7.425,12.7765625 7.52109375,12.7765625 7.61640625,12.7765625 C7.7125,12.8242188 7.8078125,12.8242188 7.85546875,12.8242188 C7.85546875,12.8242188 7.85546875,12.8242188 7.85546875,12.8242188 C7.85546875,12.8242188 7.85546875,8.3703125 7.85546875,8.3703125 C7.85546875,7.9390625 7.71171875,7.60390625 7.42421875,7.31640625 C7.13671875,7.02890625 6.8015625,6.88515625 6.3703125,6.88515625 C6.3703125,6.88515625 6.3703125,6.88515625 6.3703125,6.88515625 C6.3703125,6.88515625 1.48515625,6.88515625 1.48515625,6.88515625 C1.05390625,6.88515625 0.71875,7.02890625 0.43125,7.31640625 C0.14375,7.60390625 0,7.9390625 0,8.3703125 C0,8.3703125 0,8.3703125 0,8.3703125 C0,8.3703125 0,22.115625 0,22.115625 C0,22.546875 0.14375,22.8820313 0.43125,23.1210938 C0.71875,23.4085938 1.05390625,23.5523437 1.48515625,23.5523437 C1.48515625,23.5523437 1.48515625,23.5523437 1.48515625,23.5523437 C1.48515625,23.5523437 6.3703125,23.5523437 6.3703125,23.5523437 C6.8015625,23.5523437 7.13671875,23.4085938 7.42421875,23.1210938 C7.71171875,22.8820313 7.85546875,22.5460938 7.85546875,22.115625 C7.85546875,22.115625 7.85546875,22.115625 7.85546875,22.115625 C7.85546875,22.115625 7.85546875,17.6617187 7.85546875,17.6617187 C7.8078125,17.6617187 7.71171875,17.6617187 7.61640625,17.6617187 C7.5203125,17.709375 7.425,17.709375 7.37734375,17.709375 C7.37734375,17.709375 7.37734375,17.709375 7.37734375,17.709375 C6.65859375,17.709375 6.084375,17.4703125 5.60546875,16.990625 C5.1265625,16.5109375 4.88671875,15.9367187 4.88671875,15.21875 L4.88671875,15.2195313 Z M17.146875,11.8195313 C17.146875,11.8195313 17.146875,11.8195313 17.146875,11.8195313 C17.146875,11.8195313 17.1945312,11.8195313 17.1945312,11.8195313 C17.5773437,11.8195313 17.9132812,11.6757813 18.2,11.3882813 C18.4867187,11.1007813 18.63125,10.765625 18.63125,10.334375 C18.63125,9.903125 18.4875,9.56796875 18.2,9.28046875 C17.9125,8.99296875 17.5773437,8.84921875 17.1945312,8.84921875 C17.1945312,8.84921875 17.1945312,8.84921875 17.1945312,8.84921875 C16.4757812,8.84921875 16.0453125,9.184375 15.8054687,9.8546875 C15.8054687,9.8546875 15.8054687,9.8546875 15.8054687,9.8546875 C15.8054687,9.8546875 12.740625,9.8546875 12.740625,9.8546875 C12.5015625,9.8546875 12.2617188,9.95078125 12.0703125,10.1421875 C11.8789062,10.3335938 11.7828125,10.5734375 11.7828125,10.8125 C11.7828125,10.8125 11.7828125,10.8125 11.7828125,10.8125 C11.7828125,10.8125 11.7828125,14.7398438 11.7828125,14.7398438 C11.7828125,14.7398438 8.71796875,14.7398438 8.71796875,14.7398438 C8.47890625,14.1171875 8.04765625,13.7820313 7.32890625,13.7820313 C7.32890625,13.7820313 7.32890625,13.7820313 7.32890625,13.7820313 C6.94609375,13.7820313 6.61015625,13.9257813 6.3234375,14.1648438 C6.0359375,14.4523438 5.8921875,14.7875 5.8921875,15.21875 C5.8921875,15.65 6.0359375,15.9851563 6.3234375,16.2726563 C6.6109375,16.5601563 6.94609375,16.7039063 7.32890625,16.7039063 C7.32890625,16.7039063 7.32890625,16.7039063 7.32890625,16.7039063 C8.04765625,16.7039063 8.478125,16.36875 8.71796875,15.7460938 C8.71796875,15.7460938 8.71796875,15.7460938 8.71796875,15.7460938 C8.71796875,15.7460938 11.7828125,15.7460938 11.7828125,15.7460938 C12.021875,15.7460938 12.2617188,15.65 12.453125,15.4109375 C12.6445313,15.2195313 12.740625,14.9796875 12.740625,14.740625 C12.740625,14.740625 12.740625,14.740625 12.740625,14.740625 C12.740625,14.740625 12.740625,10.8132813 12.740625,10.8132813 C12.740625,10.8132813 15.8054688,10.8132813 15.8054688,10.8132813 C16.0445313,11.4835938 16.4757813,11.81875 17.1460938,11.81875 L17.146875,11.8195313 Z"/>
  <title>Node Solid</title>
</svg>