<svg xmlns="http://www.w3.org/2000/svg" viewBox="0 0 25 25" id="nodes-up-solid">
  <path d="M1.575,6.0234375 C1.575,6.0234375 1.575,6.0234375 1.575,6.0234375 C1.1921875,5.5921875 1,5.11328125 1,4.490625 C1,4.490625 1,4.490625 1,4.490625 C1,3.771875 1.2390625,3.19765625 1.71875,2.71875 C2.1984375,2.23984375 2.77265625,2 3.44296875,2 C4.11328125,2 4.68828125,2.23984375 5.21484375,2.71875 C5.21484375,2.71875 5.21484375,2.71875 5.21484375,2.71875 C5.69375,3.2453125 5.93359375,3.86796875 5.93359375,4.490625 C5.93359375,4.490625 5.93359375,4.490625 5.93359375,4.490625 C5.93359375,5.11328125 5.7421875,5.5921875 5.35859375,6.0234375 C5.35859375,6.0234375 5.35859375,6.0234375 5.35859375,6.0234375 C4.97578125,6.4546875 4.496875,6.7421875 3.921875,6.88515625 C3.921875,6.88515625 3.921875,6.88515625 3.921875,6.88515625 C3.921875,6.88515625 3.921875,11.3390625 3.921875,11.3390625 C3.921875,11.6742187 4.11328125,11.8179687 4.4484375,11.8179687 C4.4484375,11.8179687 4.4484375,11.8179687 4.4484375,11.8179687 C4.4484375,11.8179687 11.8242188,11.8179687 11.8242188,11.8179687 C11.8242188,11.8179687 11.8242188,6.88515625 11.8242188,6.88515625 C11.2976563,6.74140625 10.81875,6.45390625 10.4351563,6.0234375 C10.4351563,6.0234375 10.4351563,6.0234375 10.4351563,6.0234375 C10.0523438,5.5921875 9.86015625,5.11328125 9.86015625,4.490625 C9.86015625,4.490625 9.86015625,4.490625 9.86015625,4.490625 C9.86015625,3.771875 10.0992188,3.19765625 10.5789062,2.71875 C11.0585938,2.23984375 11.6328125,2 12.303125,2 C12.303125,2 12.303125,2 12.303125,2 C13.021875,2 13.5960938,2.23984375 14.075,2.71875 C14.5539062,3.19765625 14.79375,3.77265625 14.79375,4.490625 C14.79375,4.490625 14.79375,4.490625 14.79375,4.490625 C14.79375,5.11328125 14.6023438,5.5921875 14.21875,6.0234375 C13.8351563,6.4546875 13.3570313,6.7421875 12.8296875,6.88515625 C12.8296875,6.88515625 12.8296875,6.88515625 12.8296875,6.88515625 C12.8296875,6.88515625 12.8296875,11.8179687 12.8296875,11.8179687 C12.8296875,11.8179687 20.1570313,11.8179687 20.1570313,11.8179687 C20.4921875,11.8179687 20.6835938,11.6742187 20.6835938,11.3390625 C20.6835938,11.3390625 20.6835938,11.3390625 20.6835938,11.3390625 C20.6835938,11.3390625 20.6359375,6.88515625 20.6359375,6.88515625 C20.109375,6.74140625 19.6304688,6.45390625 19.246875,6.0234375 C19.246875,6.0234375 19.246875,6.0234375 19.246875,6.0234375 C18.9117188,5.640625 18.7203125,5.11328125 18.7203125,4.490625 C18.7203125,4.490625 18.7203125,4.490625 18.7203125,4.490625 C18.7203125,3.771875 18.959375,3.19765625 19.4390625,2.71875 C19.91875,2.23984375 20.4929688,2 21.1632813,2 C21.8335938,2 22.4085938,2.23984375 22.8875,2.71875 C23.3664063,3.19765625 23.60625,3.77265625 23.60625,4.490625 C23.60625,4.490625 23.60625,4.490625 23.60625,4.490625 C23.60625,5.11328125 23.4148438,5.5921875 23.03125,6.0234375 C23.03125,6.0234375 23.03125,6.0234375 23.03125,6.0234375 C22.6484375,6.4546875 22.1695313,6.7421875 21.6421875,6.88515625 C21.6421875,6.88515625 21.6421875,6.88515625 21.6421875,6.88515625 C21.6421875,6.88515625 21.6421875,11.3390625 21.6421875,11.3390625 C21.6421875,11.7703125 21.4984375,12.1054687 21.2109375,12.3929687 C20.9234375,12.6804687 20.5882813,12.8242187 20.1570313,12.8242187 C20.1570313,12.8242187 20.1570313,12.8242187 20.1570313,12.8242187 C20.1570313,12.8242187 12.8296875,12.8242187 12.8296875,12.8242187 C12.8296875,12.8242187 12.8296875,17.7570312 12.8296875,17.7570312 C13.35625,17.9007812 13.8351563,18.1882812 14.21875,18.61875 C14.6023438,19.0492188 14.79375,19.5289062 14.79375,20.1515625 C14.79375,20.1515625 14.79375,20.1515625 14.79375,20.1515625 C14.79375,20.8703125 14.5546875,21.4445312 14.075,21.9234375 C13.5953125,22.4023437 13.0210938,22.6421875 12.303125,22.6421875 C12.303125,22.6421875 12.303125,22.6421875 12.303125,22.6421875 C11.6328125,22.6421875 11.0578125,22.403125 10.5789063,21.9234375 C10.1,21.44375 9.86015625,20.8695312 9.86015625,20.1515625 C9.86015625,20.1515625 9.86015625,20.1515625 9.86015625,20.1515625 C9.86015625,19.5765625 10.0515625,19.05 10.4351563,18.61875 C10.81875,18.1875 11.296875,17.9 11.8242188,17.7570312 C11.8242188,17.7570312 11.8242188,17.7570312 11.8242188,17.7570312 C11.8242188,17.7570312 11.8242188,12.8242187 11.8242188,12.8242187 C11.8242188,12.8242187 4.4484375,12.8242187 4.4484375,12.8242187 C4.0171875,12.8242187 3.68203125,12.6804687 3.39453125,12.3929687 C3.10703125,12.1054688 2.96328125,11.7703125 2.96328125,11.3390625 C2.96328125,11.3390625 2.96328125,11.3390625 2.96328125,11.3390625 C2.96328125,11.3390625 2.96328125,6.88515625 2.96328125,6.88515625 C2.43671875,6.74140625 1.9578125,6.45390625 1.57421875,6.0234375 C1.57421875,6.0234375 1.57421875,6.0234375 1.57421875,6.0234375 L1.575,6.0234375 Z"/>
  <title>Nodes Up Solid</title>
</svg>