<svg xmlns="http://www.w3.org/2000/svg" viewBox="0 0 25 25" id="nodes-down-solid">
  <path d="M23.6085938,20.1507812 C23.6085938,20.1507812 23.6085938,20.1507812 23.6085938,20.1507812 C23.6085938,20.8210937 23.3695313,21.3960937 22.8898438,21.875 C22.4101562,22.3539062 21.8359375,22.59375 21.1179687,22.59375 C21.1179687,22.59375 21.1179687,22.59375 21.1179687,22.59375 C20.4476563,22.59375 19.8726562,22.3546875 19.39375,21.875 C18.9148437,21.3953125 18.675,20.8210937 18.675,20.1507812 C18.675,20.1507812 18.675,20.1507812 18.675,20.1507812 C18.675,19.5757812 18.8664063,19.0492187 19.25,18.6179687 C19.5851562,18.1867188 20.0640625,17.8992187 20.6390625,17.75625 C20.6390625,17.75625 20.6390625,17.75625 20.6390625,17.75625 C20.6390625,17.75625 20.6390625,13.2546875 20.6390625,13.2546875 C20.6390625,12.9195313 20.4953125,12.7757812 20.1601562,12.7757812 C20.1601562,12.7757812 20.1601562,12.7757812 20.1601562,12.7757812 C20.1601562,12.7757812 12.784375,12.7757812 12.784375,12.7757812 C12.784375,12.7757812 12.784375,17.75625 12.784375,17.75625 C13.359375,17.9 13.8382813,18.1390625 14.2210937,18.5703125 C14.55625,19.0015625 14.7476562,19.528125 14.7476562,20.1507812 C14.7476562,20.1507812 14.7476562,20.1507812 14.7476562,20.1507812 C14.7476562,20.8210937 14.5085937,21.3960937 14.0289062,21.875 C13.5492187,22.3539062 12.975,22.59375 12.3046875,22.59375 C11.634375,22.59375 11.059375,22.3546875 10.5804687,21.875 C10.1015625,21.3953125 9.86171875,20.8210937 9.86171875,20.1507812 C9.86171875,20.1507812 9.86171875,20.1507812 9.86171875,20.1507812 C9.86171875,19.528125 10.053125,19.0015625 10.4367187,18.5703125 C10.771875,18.1390625 11.2507812,17.9 11.7773437,17.75625 C11.7773437,17.75625 11.7773437,17.75625 11.7773437,17.75625 C11.7773437,17.75625 11.825,12.7757812 11.825,12.7757812 C11.825,12.7757812 4.44921875,12.7757812 4.44921875,12.7757812 C4.1140625,12.7757812 3.9703125,12.9195313 3.9703125,13.2546875 C3.9703125,13.2546875 3.9703125,13.2546875 3.9703125,13.2546875 C3.9703125,13.2546875 3.9703125,17.75625 3.9703125,17.75625 C4.5453125,17.9 5.02421875,18.1875 5.40703125,18.6179687 C5.7421875,19.0492187 5.93359375,19.5757812 5.93359375,20.1507812 C5.93359375,20.1507812 5.93359375,20.1507812 5.93359375,20.1507812 C5.93359375,20.8210937 5.69453125,21.3960937 5.21484375,21.875 C4.73515625,22.3539062 4.1609375,22.59375 3.490625,22.59375 C3.490625,22.59375 3.490625,22.59375 3.490625,22.59375 C2.771875,22.59375 2.19765625,22.3546875 1.71875,21.875 C1.23984375,21.3953125 1,20.8210937 1,20.1507812 C1,20.1507812 1,20.1507812 1,20.1507812 C1,19.5757812 1.19140625,19.0492187 1.575,18.6179687 C1.91015625,18.1867188 2.3890625,17.8992187 2.9640625,17.75625 C2.9640625,17.75625 2.9640625,17.75625 2.9640625,17.75625 C2.9640625,17.75625 2.9640625,13.2546875 2.9640625,13.2546875 C2.9640625,12.8234375 3.1078125,12.4882812 3.3953125,12.2007812 C3.6828125,11.9617187 4.01796875,11.8179687 4.44921875,11.8179687 C4.44921875,11.8179687 4.44921875,11.8179687 4.44921875,11.8179687 C4.44921875,11.8179687 11.825,11.8179687 11.825,11.8179687 C11.825,11.8179687 11.825,6.8375 11.825,6.8375 C11.25,6.69375 10.7710937,6.40625 10.4359375,5.97578125 C10.053125,5.54453125 9.8609375,5.065625 9.8609375,4.44296875 C9.8609375,4.44296875 9.8609375,4.44296875 9.8609375,4.44296875 C9.8609375,3.77265625 10.1,3.19765625 10.5796875,2.71875 C11.059375,2.23984375 11.6335937,2 12.3039062,2 C12.9742187,2 13.5492187,2.23984375 14.028125,2.71875 C14.5070312,3.19765625 14.746875,3.77265625 14.746875,4.44296875 C14.746875,4.44296875 14.746875,4.44296875 14.746875,4.44296875 C14.746875,5.065625 14.5554687,5.54453125 14.2203125,5.97578125 C13.8375,6.40703125 13.3585937,6.69453125 12.83125,6.8375 C12.83125,6.8375 12.83125,6.8375 12.83125,6.8375 C12.83125,6.8375 12.7835938,11.8179687 12.7835938,11.8179687 C12.7835938,11.8179687 20.159375,11.8179687 20.159375,11.8179687 C20.590625,11.8179687 20.9257812,11.9617187 21.2132812,12.2007812 C21.5007812,12.4882812 21.6445312,12.8234375 21.6445312,13.2546875 C21.6445312,13.2546875 21.6445312,13.2546875 21.6445312,13.2546875 C21.6445312,13.2546875 21.6445312,17.75625 21.6445312,17.75625 C22.2195312,17.9 22.6984375,18.1875 23.08125,18.6179687 C23.4164062,19.0492187 23.6078125,19.5757812 23.6078125,20.1507812 L23.6085938,20.1507812 Z"/>
  <title>Nodes Down Solid</title>
</svg>