<svg xmlns="http://www.w3.org/2000/svg" viewBox="0 0 25 25" id="node">
  <path d="M23.0382813,2 C23.0382813,2 23.0382813,2 23.0382813,2 C23.0382813,2 18.153125,2 18.153125,2 C17.721875,2 17.3867188,2.14375 17.0992188,2.43125 C16.8117188,2.71875 16.6679688,3.05390625 16.6679688,3.48515625 C16.6679688,3.48515625 16.6679688,3.48515625 16.6679688,3.48515625 C16.6679688,3.48515625 16.6679688,7.9390625 16.6679688,7.9390625 C15.6140625,8.178125 14.9914063,8.80078125 14.7523437,9.80703125 C14.7523437,9.80703125 14.7523437,9.80703125 14.7523437,9.80703125 C14.7523437,9.80703125 12.740625,9.8546875 12.740625,9.8546875 C12.5015625,9.8546875 12.2617188,9.95078125 12.0703125,10.1421875 C11.8789062,10.3335938 11.7828125,10.5734375 11.7828125,10.8125 C11.7828125,10.8125 11.7828125,10.8125 11.7828125,10.8125 C11.7828125,10.8125 11.7828125,14.7398437 11.7828125,14.7398437 C11.7828125,14.7398437 9.77109375,14.7398437 9.77109375,14.7398437 C9.53203125,13.6859375 8.909375,13.0632812 7.85546875,12.8242188 C7.85546875,12.8242188 7.85546875,12.8242188 7.85546875,12.8242188 C7.85546875,12.8242188 7.85546875,8.3703125 7.85546875,8.3703125 C7.85546875,7.9390625 7.71171875,7.60390625 7.42421875,7.31640625 C7.13671875,7.02890625 6.8015625,6.88515625 6.3703125,6.88515625 C6.3703125,6.88515625 6.3703125,6.88515625 6.3703125,6.88515625 C6.3703125,6.88515625 1.48515625,6.88515625 1.48515625,6.88515625 C1.05390625,6.88515625 0.71875,7.02890625 0.43125,7.31640625 C0.14375,7.60390625 0,7.9390625 0,8.3703125 C0,8.3703125 0,8.3703125 0,8.3703125 C0,8.3703125 0,22.115625 0,22.115625 C0,22.546875 0.14375,22.8820313 0.43125,23.1210938 C0.71875,23.4085937 1.05390625,23.5523437 1.48515625,23.5523437 C1.48515625,23.5523437 1.48515625,23.5523437 1.48515625,23.5523437 C1.48515625,23.5523437 6.3703125,23.5523437 6.3703125,23.5523437 C6.8015625,23.5523437 7.13671875,23.4085937 7.42421875,23.1210938 C7.71171875,22.8820312 7.85546875,22.5460937 7.85546875,22.115625 C7.85546875,22.115625 7.85546875,22.115625 7.85546875,22.115625 C7.85546875,22.115625 7.85546875,17.6617187 7.85546875,17.6617187 C8.95703125,17.4226562 9.5796875,16.7515625 9.77109375,15.7460938 C9.77109375,15.7460938 9.77109375,15.7460938 9.77109375,15.7460938 C9.77109375,15.7460938 11.7828125,15.7460938 11.7828125,15.7460938 C12.021875,15.7460938 12.2617188,15.65 12.453125,15.4109375 C12.6445313,15.2195313 12.740625,14.9796875 12.740625,14.740625 C12.740625,14.740625 12.740625,14.740625 12.740625,14.740625 C12.740625,14.740625 12.740625,10.8132813 12.740625,10.8132813 C12.740625,10.8132813 14.7523437,10.8132813 14.7523437,10.8132813 C14.9914063,11.8671875 15.6140625,12.4898438 16.6679688,12.7289063 C16.6679688,12.7289063 16.6679688,12.7289063 16.6679688,12.7289063 C16.6679688,12.7289063 16.6679688,17.1828125 16.6679688,17.1828125 C16.6679688,17.6140625 16.8117188,17.9492188 17.0992187,18.2367187 C17.3867188,18.5242187 17.721875,18.6679688 18.153125,18.6679688 C18.153125,18.6679688 18.153125,18.6679688 18.153125,18.6679688 C18.153125,18.6679688 23.0382813,18.6679688 23.0382813,18.6679688 C23.4695312,18.6679688 23.8046875,18.5242187 24.0921875,18.2367187 C24.3796875,17.9492188 24.5234375,17.6140625 24.5234375,17.1828125 C24.5234375,17.1828125 24.5234375,17.1828125 24.5234375,17.1828125 C24.5234375,17.1828125 24.5234375,3.48515625 24.5234375,3.48515625 C24.5234375,3.05390625 24.3796875,2.71875 24.0921875,2.43125 C23.8046875,2.14375 23.4695312,2 23.0382813,2 Z M6.37109375,22.5945312 C6.37109375,22.5945312 6.37109375,22.5945312 6.37109375,22.5945312 C6.37109375,22.5945312 1.4859375,22.5945312 1.4859375,22.5945312 C1.15078125,22.5945312 0.959375,22.4507812 0.959375,22.115625 C0.959375,22.115625 0.959375,22.115625 0.959375,22.115625 C0.959375,22.115625 0.959375,8.3703125 0.959375,8.3703125 C0.959375,8.03515625 1.15078125,7.89140625 1.4859375,7.89140625 C1.4859375,7.89140625 1.4859375,7.89140625 1.4859375,7.89140625 C1.4859375,7.89140625 6.37109375,7.89140625 6.37109375,7.89140625 C6.70625,7.89140625 6.85,8.03515625 6.85,8.3703125 C6.85,8.3703125 6.85,8.3703125 6.85,8.3703125 C6.85,8.3703125 6.85,12.8242188 6.85,12.8242188 C6.3234375,12.9679688 5.84453125,13.2554687 5.4609375,13.6859375 C5.07734375,14.1164063 4.8859375,14.64375 4.8859375,15.21875 C4.8859375,15.21875 4.8859375,15.21875 4.8859375,15.21875 C4.8859375,15.8414062 5.07734375,16.3679687 5.4609375,16.7992187 C5.84453125,17.2304688 6.32265625,17.5179688 6.85,17.6609375 C6.85,17.6609375 6.85,17.6609375 6.85,17.6609375 C6.85,17.6609375 6.85,22.1148438 6.85,22.1148438 C6.85,22.45 6.70625,22.59375 6.37109375,22.59375 L6.37109375,22.5945312 Z M8.43046875,16.2726562 C8.14296875,16.5601562 7.8078125,16.7039062 7.3765625,16.7039062 C6.9453125,16.7039062 6.61015625,16.5601562 6.32265625,16.2726562 C6.03515625,15.9851562 5.89140625,15.65 5.89140625,15.21875 C5.89140625,14.7875 6.03515625,14.4523437 6.32265625,14.1648437 C6.61015625,13.9257812 6.9453125,13.7820312 7.3765625,13.7820312 C7.8078125,13.7820312 8.14296875,13.9257812 8.43046875,14.1648437 C8.66953125,14.4523437 8.81328125,14.7875 8.81328125,15.21875 C8.81328125,15.65 8.66953125,15.9851562 8.43046875,16.2726562 Z M16.1414062,11.3875 C15.8539063,11.1 15.7101563,10.7648438 15.7101563,10.3335938 C15.7101563,9.90234375 15.8539063,9.5671875 16.1414062,9.2796875 C16.3804688,8.9921875 16.7164063,8.8484375 17.146875,8.8484375 C17.5773438,8.8484375 17.9132813,8.9921875 18.2007813,9.2796875 C18.4882812,9.5671875 18.6320313,9.90234375 18.6320313,10.3335938 C18.6320313,10.7648438 18.4882812,11.1 18.2007813,11.3875 C17.9132813,11.675 17.578125,11.81875 17.146875,11.81875 C16.715625,11.81875 16.3804687,11.675 16.1414062,11.3875 Z M23.5648438,3.48515625 C23.5648438,3.48515625 23.5648438,17.1828125 23.5648438,17.1828125 C23.5648438,17.5179688 23.3734375,17.709375 23.0382813,17.709375 C23.0382813,17.709375 23.0382813,17.709375 23.0382813,17.709375 C23.0382813,17.709375 18.153125,17.709375 18.153125,17.709375 C17.8179688,17.709375 17.6742188,17.5179688 17.6742188,17.1828125 C17.6742188,17.1828125 17.6742188,17.1828125 17.6742188,17.1828125 C17.6742188,17.1828125 17.6742188,12.7289063 17.6742188,12.7289063 C18.2492188,12.5851563 18.728125,12.2976563 19.1109375,11.8671875 C19.4460937,11.4359375 19.6375,10.909375 19.6375,10.334375 C19.6375,9.759375 19.4460937,9.2328125 19.1109375,8.8015625 C18.728125,8.3703125 18.2492188,8.0828125 17.6742188,7.93984375 C17.6742188,7.93984375 17.6742188,7.93984375 17.6742188,7.93984375 C17.6742188,7.93984375 17.6742188,3.4859375 17.6742188,3.4859375 C17.6742188,3.15078125 17.8179688,2.959375 18.153125,2.959375 C18.153125,2.959375 18.153125,2.959375 18.153125,2.959375 C18.153125,2.959375 23.0382813,2.959375 23.0382813,2.959375 C23.3734375,2.959375 23.5648438,3.15078125 23.5648438,3.4859375 C23.5648438,3.4859375 23.5648438,3.4859375 23.5648438,3.4859375 L23.5648438,3.48515625 Z"/>
  <title>Node</title>
</svg>