<svg xmlns="http://www.w3.org/2000/svg" viewBox="0 0 25 25" id="nodes-right">
  <path d="M19.1453125,20.109375 C18.8578125,20.396875 18.7140625,20.7320313 18.7140625,21.1632813 C18.7140625,21.5945312 18.8578125,21.9296875 19.1453125,22.2171875 C19.1453125,22.2171875 19.1453125,22.2171875 19.1453125,22.2171875 C19.384375,22.5046875 19.7203125,22.6484375 20.1507812,22.6484375 C20.1507812,22.6484375 20.1507812,22.6484375 20.1507812,22.6484375 C20.5820312,22.6484375 20.9171875,22.5046875 21.2046875,22.2171875 C21.4921875,21.9296875 21.6359375,21.5945312 21.6359375,21.1632813 C21.6359375,20.7320313 21.4921875,20.396875 21.2046875,20.109375 C20.9171875,19.821875 20.5820312,19.678125 20.1507812,19.678125 C20.1507812,19.678125 20.1507812,19.678125 20.1507812,19.678125 C19.7195312,19.678125 19.384375,19.821875 19.1453125,20.109375 C19.1453125,20.109375 19.1453125,20.109375 19.1453125,20.109375 Z M19.1453125,11.2492188 C18.8578125,11.5367188 18.7140625,11.871875 18.7140625,12.303125 C18.7140625,12.734375 18.8578125,13.0695313 19.1453125,13.3570313 C19.1453125,13.3570313 19.1453125,13.3570313 19.1453125,13.3570313 C19.384375,13.5960938 19.7203125,13.7398438 20.1507812,13.7398438 C20.58125,13.7398438 20.9648438,13.5960938 21.2046875,13.3570313 C21.2046875,13.3570313 21.2046875,13.3570313 21.2046875,13.3570313 C21.4921875,13.0695313 21.6359375,12.734375 21.6359375,12.303125 C21.6359375,11.871875 21.4921875,11.5367188 21.2046875,11.2492188 C21.2046875,11.2492188 21.2046875,11.2492188 21.2046875,11.2492188 C20.965625,11.0101563 20.5820312,10.8664063 20.1507812,10.8664063 C19.7195312,10.8664063 19.384375,11.0101562 19.1453125,11.2492188 C19.1453125,11.2492188 19.1453125,11.2492188 19.1453125,11.2492188 L19.1453125,11.2492188 Z M20.1507812,1.9578125 C20.1507812,1.9578125 20.1507812,1.9578125 20.1507812,1.9578125 C19.7195312,1.9578125 19.384375,2.1015625 19.1453125,2.3890625 C19.1453125,2.3890625 19.1453125,2.3890625 19.1453125,2.3890625 C18.8578125,2.6765625 18.7140625,3.01171875 18.7140625,3.44296875 C18.7140625,3.87421875 18.8578125,4.209375 19.1453125,4.496875 C19.1453125,4.496875 19.1453125,4.496875 19.1453125,4.496875 C19.384375,4.83203125 19.7203125,4.97578125 20.1507812,4.97578125 C20.1507812,4.97578125 20.1507812,4.97578125 20.1507812,4.97578125 C20.5335937,4.97578125 20.8695312,4.83203125 21.2046875,4.496875 C21.2046875,4.496875 21.2046875,4.496875 21.2046875,4.496875 C21.4921875,4.209375 21.6359375,3.87421875 21.6359375,3.44296875 C21.6359375,3.01171875 21.4921875,2.6765625 21.2046875,2.3890625 C20.9171875,2.1015625 20.5820312,1.9578125 20.1507812,1.9578125 Z M5.49609375,11.2492188 C5.49609375,11.2492188 5.49609375,11.2492188 5.49609375,11.2492188 C5.25703125,11.0101563 4.92109375,10.8664063 4.490625,10.8664063 C4.06015625,10.8664063 3.6765625,11.0101562 3.43671875,11.2492188 C3.43671875,11.2492188 3.43671875,11.2492188 3.43671875,11.2492188 C3.14921875,11.5367188 3.00546875,11.871875 3.00546875,12.303125 C3.00546875,12.734375 3.14921875,13.0695313 3.43671875,13.3570313 C3.43671875,13.3570313 3.43671875,13.3570313 3.43671875,13.3570313 C3.67578125,13.5960938 4.059375,13.7398438 4.490625,13.7398438 C4.921875,13.7398438 5.25703125,13.5960937 5.49609375,13.3570313 C5.49609375,13.3570313 5.49609375,13.3570313 5.49609375,13.3570313 C5.78359375,13.0695313 5.92734375,12.734375 5.92734375,12.303125 C5.92734375,11.871875 5.78359375,11.5367188 5.49609375,11.2492187 L5.49609375,11.2492188 Z M18.61875,1.575 C18.61875,1.575 18.61875,1.575 18.61875,1.575 C19.05,1.1921875 19.5765625,1 20.1515625,1 C20.1515625,1 20.1515625,1 20.1515625,1 C20.8703125,1 21.4445312,1.2390625 21.9234375,1.71875 C22.4023437,2.1984375 22.6421875,2.77265625 22.6421875,3.44296875 C22.6421875,4.11328125 22.403125,4.68828125 21.9234375,5.21484375 C21.9234375,5.21484375 21.9234375,5.21484375 21.9234375,5.21484375 C21.396875,5.64609375 20.821875,5.88515625 20.1515625,5.88515625 C20.1515625,5.88515625 20.1515625,5.88515625 20.1515625,5.88515625 C19.5289062,5.88515625 19.0023437,5.69375 18.61875,5.35859375 C18.61875,5.35859375 18.61875,5.35859375 18.61875,5.35859375 C18.1875,4.97578125 17.9,4.496875 17.7570312,3.921875 C17.7570312,3.921875 17.7570312,3.921875 17.7570312,3.921875 C17.7570312,3.921875 13.303125,3.921875 13.303125,3.921875 C12.9679687,3.921875 12.8242187,4.11328125 12.8242187,4.4484375 C12.8242187,4.4484375 12.8242187,4.4484375 12.8242187,4.4484375 C12.8242187,4.4484375 12.8242187,11.7757812 12.8242187,11.7757812 C12.8242187,11.7757812 17.7570312,11.7757812 17.7570312,11.7757812 C17.9007812,11.296875 18.1882812,10.8179688 18.61875,10.3867188 C18.61875,10.3867188 18.61875,10.3867188 18.61875,10.3867188 C19.0015625,10.0515625 19.5289062,9.86015625 20.1515625,9.86015625 C20.1515625,9.86015625 20.1515625,9.86015625 20.1515625,9.86015625 C20.8703125,9.86015625 21.4921875,10.0992188 21.9234375,10.5789062 C21.9234375,10.5789062 21.9234375,10.5789062 21.9234375,10.5789062 C22.4023437,11.0578125 22.6421875,11.6328125 22.6421875,12.303125 C22.6421875,12.303125 22.6421875,12.303125 22.6421875,12.303125 C22.6421875,13.021875 22.403125,13.5960938 21.9234375,14.0273438 C21.9234375,14.0273438 21.9234375,14.0273438 21.9234375,14.0273438 C21.4445312,14.5539063 20.8695312,14.79375 20.1515625,14.79375 C20.1515625,14.79375 20.1515625,14.79375 20.1515625,14.79375 C19.5765625,14.79375 19.05,14.6023438 18.61875,14.21875 C18.61875,14.21875 18.61875,14.21875 18.61875,14.21875 C18.1875,13.8359375 17.9,13.3570313 17.7570312,12.8296875 C17.7570312,12.8296875 17.7570312,12.8296875 17.7570312,12.8296875 C17.7570312,12.8296875 12.8242187,12.8296875 12.8242187,12.8296875 C12.8242187,12.8296875 12.8242187,20.1570313 12.8242187,20.1570313 C12.8242187,20.4921875 12.9679687,20.6835938 13.303125,20.6835938 C13.303125,20.6835938 13.303125,20.6835938 13.303125,20.6835938 C13.303125,20.6835938 17.7570312,20.6359375 17.7570312,20.6359375 C17.9007812,20.109375 18.1882812,19.6304688 18.61875,19.246875 C18.61875,19.246875 18.61875,19.246875 18.61875,19.246875 C19.0015625,18.9117188 19.5289062,18.7203125 20.1515625,18.7203125 C20.1515625,18.7203125 20.1515625,18.7203125 20.1515625,18.7203125 C20.8703125,18.7203125 21.4445312,18.959375 21.9234375,19.4390625 C22.4023437,19.91875 22.6421875,20.4929688 22.6421875,21.1632813 C22.6421875,21.8335938 22.403125,22.4085938 21.9234375,22.8875 C21.44375,23.3664063 20.8695312,23.60625 20.1515625,23.60625 C20.1515625,23.60625 20.1515625,23.60625 20.1515625,23.60625 C19.5765625,23.60625 19.05,23.4148438 18.61875,23.03125 C18.1875,22.6476563 17.9,22.1695313 17.7570312,21.6421875 C17.7570312,21.6421875 17.7570312,21.6421875 17.7570312,21.6421875 C17.7570312,21.6421875 13.303125,21.6421875 13.303125,21.6421875 C12.871875,21.6421875 12.5367187,21.4984375 12.2492187,21.2109375 C11.9617187,20.9234375 11.8179687,20.5882813 11.8179687,20.1570313 C11.8179687,20.1570313 11.8179687,20.1570313 11.8179687,20.1570313 C11.8179687,20.1570313 11.8179687,12.8296875 11.8179687,12.8296875 C11.8179687,12.8296875 6.88515625,12.8296875 6.88515625,12.8296875 C6.74140625,13.35625 6.45390625,13.8351563 6.0234375,14.21875 C5.59296875,14.6023438 5.11328125,14.79375 4.490625,14.79375 C4.490625,14.79375 4.490625,14.79375 4.490625,14.79375 C3.771875,14.79375 3.19765625,14.5546875 2.71875,14.0273438 C2.71875,14.0273438 2.71875,14.0273438 2.71875,14.0273438 C2.23984375,13.5960938 2,13.021875 2,12.303125 C2,12.303125 2,12.303125 2,12.303125 C2,11.6328125 2.23984375,11.0578125 2.71875,10.5789063 C2.71875,10.5789063 2.71875,10.5789063 2.71875,10.5789063 C3.15,10.1 3.77265625,9.86015625 4.490625,9.86015625 C4.490625,9.86015625 4.490625,9.86015625 4.490625,9.86015625 C5.11328125,9.86015625 5.63984375,10.0515625 6.0234375,10.3867188 C6.0234375,10.3867188 6.0234375,10.3867188 6.0234375,10.3867188 C6.4546875,10.8179688 6.7421875,11.296875 6.88515625,11.7757813 C6.88515625,11.7757813 6.88515625,11.7757813 6.88515625,11.7757813 C6.88515625,11.7757813 11.8179687,11.7757813 11.8179687,11.7757813 C11.8179687,11.7757813 11.8179687,4.4484375 11.8179687,4.4484375 C11.8179687,4.0171875 11.9617187,3.68203125 12.2492187,3.39453125 C12.5367187,3.10703125 12.871875,2.96328125 13.303125,2.96328125 C13.303125,2.96328125 13.303125,2.96328125 13.303125,2.96328125 C13.303125,2.96328125 17.7570312,2.96328125 17.7570312,2.96328125 C17.9007812,2.43671875 18.1882812,1.9578125 18.61875,1.57421875 C18.61875,1.57421875 18.61875,1.57421875 18.61875,1.57421875 L18.61875,1.575 Z"/>
  <title>Nodes Right</title>
</svg>