<svg xmlns="http://www.w3.org/2000/svg" viewBox="0 0 25 25" id="nodes-down">
  <path d="M21.5945313,17.7570312 C21.5945313,17.7570312 21.5945313,17.7570312 21.5945313,17.7570312 C21.5945313,17.7570312 21.5945313,13.303125 21.5945313,13.303125 C21.5945313,12.871875 21.4507813,12.5367187 21.1632813,12.2492187 C20.8757813,11.9617187 20.540625,11.8179687 20.109375,11.8179687 C20.109375,11.8179687 20.109375,11.8179687 20.109375,11.8179687 C20.109375,11.8179687 12.7820313,11.8179687 12.7820313,11.8179687 C12.7820313,11.8179687 12.7820313,6.88515625 12.7820313,6.88515625 C13.3085938,6.74140625 13.7875,6.45390625 14.1710938,6.0234375 C14.5546875,5.59296875 14.7460938,5.065625 14.7460938,4.490625 C14.7460938,4.490625 14.7460938,4.490625 14.7460938,4.490625 C14.7460938,3.771875 14.5070313,3.19765625 14.0273438,2.71875 C13.5476563,2.23984375 12.9734375,2 12.303125,2 C12.303125,2 12.303125,2 12.303125,2 C11.584375,2 11.0101563,2.23984375 10.53125,2.71875 C10.0523438,3.19765625 9.8125,3.77265625 9.8125,4.490625 C9.8125,4.490625 9.8125,4.490625 9.8125,4.490625 C9.8125,5.065625 10.0039063,5.5921875 10.3875,6.0234375 C10.7710938,6.4546875 11.2492188,6.7421875 11.7765625,6.88515625 C11.7765625,6.88515625 11.7765625,6.88515625 11.7765625,6.88515625 C11.7765625,6.88515625 11.7765625,11.8179687 11.7765625,11.8179687 C11.7765625,11.8179687 4.44921875,11.8179687 4.44921875,11.8179687 C4.01796875,11.8179687 3.6828125,11.9617187 3.3953125,12.2492187 C3.1078125,12.5367187 2.9640625,12.871875 2.9640625,13.303125 C2.9640625,13.303125 2.9640625,13.303125 2.9640625,13.303125 C2.9640625,13.303125 2.9640625,17.7570312 2.9640625,17.7570312 C2.3890625,17.9007812 1.91015625,18.1882812 1.575,18.61875 C1.1921875,19.05 1,19.5765625 1,20.1515625 C1,20.1515625 1,20.1515625 1,20.1515625 C1,20.8703125 1.2390625,21.4445312 1.71875,21.9234375 C2.1984375,22.4023437 2.77265625,22.6421875 3.44296875,22.6421875 C4.11328125,22.6421875 4.68828125,22.403125 5.1671875,21.9234375 C5.64609375,21.44375 5.8859375,20.8695312 5.8859375,20.1515625 C5.8859375,20.1515625 5.8859375,20.1515625 5.8859375,20.1515625 C5.8859375,19.5765625 5.69453125,19.05 5.359375,18.61875 C4.9765625,18.1875 4.49765625,17.9 3.9703125,17.7570312 C3.9703125,17.7570312 3.9703125,17.7570312 3.9703125,17.7570312 C3.9703125,17.7570312 3.92265625,13.303125 3.92265625,13.303125 C3.92265625,12.9679687 4.1140625,12.8242187 4.44921875,12.8242187 C4.44921875,12.8242187 4.44921875,12.8242187 4.44921875,12.8242187 C4.44921875,12.8242187 11.7765625,12.8242187 11.7765625,12.8242187 C11.7765625,12.8242187 11.7765625,17.7570312 11.7765625,17.7570312 C11.25,17.9007812 10.7710938,18.1882812 10.3875,18.61875 C10.0039063,19.0492188 9.8125,19.5765625 9.8125,20.1515625 C9.8125,20.1515625 9.8125,20.1515625 9.8125,20.1515625 C9.8125,20.8703125 10.0515625,21.4445312 10.53125,21.9234375 C11.0109375,22.4023437 11.5851563,22.6421875 12.303125,22.6421875 C12.303125,22.6421875 12.303125,22.6421875 12.303125,22.6421875 C12.9734375,22.6421875 13.5484375,22.403125 14.0273438,21.9234375 C14.50625,21.44375 14.7460938,20.8695312 14.7460938,20.1515625 C14.7460938,20.1515625 14.7460938,20.1515625 14.7460938,20.1515625 C14.7460938,19.5765625 14.5546875,19.05 14.1710938,18.61875 C13.7875,18.1875 13.309375,17.9 12.7820313,17.7570312 C12.7820313,17.7570312 12.7820313,17.7570312 12.7820313,17.7570312 C12.7820313,17.7570312 12.7820313,12.8242187 12.7820313,12.8242187 C12.7820313,12.8242187 20.109375,12.8242187 20.109375,12.8242187 C20.4445313,12.8242187 20.6359375,12.9679687 20.6359375,13.303125 C20.6359375,13.303125 20.6359375,13.303125 20.6359375,13.303125 C20.6359375,13.303125 20.6359375,17.7570312 20.6359375,17.7570312 C20.0609375,17.9007812 19.5820313,18.1882812 19.246875,18.61875 C18.8640625,19.05 18.671875,19.5765625 18.671875,20.1515625 C18.671875,20.1515625 18.671875,20.1515625 18.671875,20.1515625 C18.671875,20.8703125 18.9109375,21.4445312 19.390625,21.9234375 C19.8703125,22.4023437 20.4445313,22.6421875 21.1148438,22.6421875 C21.7851563,22.6421875 22.3601563,22.403125 22.8390625,21.9234375 C23.3179688,21.44375 23.5578125,20.8695312 23.5578125,20.1515625 C23.5578125,20.1515625 23.5578125,20.1515625 23.5578125,20.1515625 C23.5578125,19.5765625 23.3664063,19.05 23.03125,18.61875 C22.6484375,18.1875 22.1695313,17.9 21.5945313,17.7570312 Z M4.496875,19.0976562 C4.784375,19.3851562 4.928125,19.7203125 4.928125,20.1515625 C4.928125,20.5828125 4.784375,20.9179688 4.496875,21.2054688 C4.209375,21.4929687 3.87421875,21.6367188 3.44296875,21.6367188 C3.01171875,21.6367188 2.6765625,21.4929687 2.3890625,21.2054688 C2.1015625,20.9179688 1.9578125,20.5828125 1.9578125,20.1515625 C1.9578125,19.7203125 2.1015625,19.3851562 2.3890625,19.0976562 C2.6765625,18.8585937 3.01171875,18.7148438 3.44296875,18.7148438 C3.87421875,18.7148438 4.209375,18.8585938 4.496875,19.0976562 L4.496875,19.0976562 Z M13.309375,19.0976562 C13.596875,19.3851562 13.740625,19.7203125 13.740625,20.1515625 C13.740625,20.5828125 13.596875,20.9179688 13.309375,21.2054688 C13.021875,21.4929687 12.6867188,21.6367188 12.3039063,21.6367188 C12.3039063,21.6367188 12.3039063,21.6367188 12.3039063,21.6367188 C11.8726563,21.6367188 11.5375,21.4929687 11.25,21.2054688 C10.9625,20.9179688 10.81875,20.5828125 10.81875,20.1515625 C10.81875,19.7203125 10.9625,19.3851562 11.25,19.0976562 C11.5375,18.8585937 11.8726563,18.7148438 12.3039063,18.7148438 C12.3039063,18.7148438 12.3039063,18.7148438 12.3039063,18.7148438 C12.6867188,18.7148438 13.0226563,18.8585938 13.309375,19.0976562 Z M12.3039063,5.92734375 C12.3039063,5.92734375 12.3039063,5.92734375 12.3039063,5.92734375 C11.8726563,5.92734375 11.5375,5.78359375 11.25,5.49609375 C10.9625,5.25703125 10.81875,4.92109375 10.81875,4.490625 C10.81875,4.06015625 10.9625,3.72421875 11.25,3.43671875 C11.5375,3.14921875 11.8726563,3.00546875 12.3039063,3.00546875 C12.3039063,3.00546875 12.3039063,3.00546875 12.3039063,3.00546875 C12.6867188,3.00546875 13.0226563,3.14921875 13.309375,3.43671875 C13.5960938,3.72421875 13.740625,4.059375 13.740625,4.490625 C13.740625,4.921875 13.596875,5.25703125 13.309375,5.49609375 C13.021875,5.78359375 12.6867188,5.92734375 12.3039063,5.92734375 L12.3039063,5.92734375 Z M22.1695312,21.2046875 C21.8820313,21.4921875 21.546875,21.6359375 21.115625,21.6359375 C20.684375,21.6359375 20.3492187,21.4921875 20.0617187,21.2046875 C19.7742187,20.9171875 19.6304687,20.5820312 19.6304687,20.1507812 C19.6304687,19.7195312 19.7742187,19.384375 20.0617187,19.096875 C20.3492187,18.8578125 20.684375,18.7140625 21.115625,18.7140625 C21.546875,18.7140625 21.8820313,18.8578125 22.1695312,19.096875 C22.4570312,19.384375 22.6007812,19.7195312 22.6007812,20.1507812 C22.6007812,20.5820312 22.4570312,20.9171875 22.1695312,21.2046875 Z"/>
  <title>Nodes Down</title>
</svg>