<svg xmlns="http://www.w3.org/2000/svg" viewBox="0 0 25 25" id="notepad-solid">
  <path d="M4,5.890625 C4,5.890625 4,23.0359375 4,23.0359375 C4,23.4671875 4.14375,23.8023438 4.43125,24.0898438 C4.71875,24.3773438 5.05390625,24.5210938 5.48515625,24.5210938 C5.48515625,24.5210938 5.48515625,24.5210938 5.48515625,24.5210938 C5.48515625,24.5210938 19.1828125,24.5210938 19.1828125,24.5210938 C19.6140625,24.5210938 19.9492188,24.3773438 20.2367188,24.0898438 C20.5242187,23.8023438 20.6679688,23.4671875 20.6679688,23.0359375 C20.6679688,23.0359375 20.6679688,23.0359375 20.6679688,23.0359375 C20.6679688,23.0359375 20.6679688,5.890625 20.6679688,5.890625 C20.6679688,5.890625 4.0015625,5.890625 4.0015625,5.890625 L4,5.890625 Z M10.3695313,9.81796875 C10.3695313,9.81796875 10.3695313,9.81796875 10.3695313,9.81796875 C10.3695313,9.81796875 16.2601563,9.81796875 16.2601563,9.81796875 C16.5953125,9.81796875 16.7390625,9.96171875 16.7390625,10.296875 C16.7390625,10.6320313 16.5953125,10.7757812 16.2601563,10.7757812 C16.2601563,10.7757812 16.2601563,10.7757812 16.2601563,10.7757812 C16.2601563,10.7757812 10.3695313,10.7757812 10.3695313,10.7757812 C10.034375,10.7757812 9.890625,10.6320313 9.890625,10.296875 C9.890625,9.96171875 10.034375,9.81796875 10.3695313,9.81796875 Z M10.3695313,13.7453125 C10.3695313,13.7453125 10.3695313,13.7453125 10.3695313,13.7453125 C10.3695313,13.7453125 16.2601563,13.7453125 16.2601563,13.7453125 C16.5953125,13.7453125 16.7390625,13.8890625 16.7390625,14.2242188 C16.7390625,14.559375 16.5953125,14.703125 16.2601563,14.703125 C16.2601563,14.703125 16.2601563,14.703125 16.2601563,14.703125 C16.2601563,14.703125 10.3695313,14.703125 10.3695313,14.703125 C10.034375,14.703125 9.890625,14.559375 9.890625,14.2242188 C9.890625,13.8890625 10.034375,13.7453125 10.3695313,13.7453125 Z M10.3695313,17.6726562 C10.3695313,17.6726562 10.3695313,17.6726562 10.3695313,17.6726562 C10.3695313,17.6726562 16.2601563,17.6726562 16.2601563,17.6726562 C16.5953125,17.6726562 16.7390625,17.8164062 16.7390625,18.1515625 C16.7390625,18.4867187 16.5953125,18.6304687 16.2601563,18.6304687 C16.2601563,18.6304687 16.2601563,18.6304687 16.2601563,18.6304687 C16.2601563,18.6304687 10.3695313,18.6304687 10.3695313,18.6304687 C10.034375,18.6304687 9.890625,18.4867187 9.890625,18.1515625 C9.890625,17.8164062 10.034375,17.6726562 10.3695313,17.6726562 Z M7.92734375,10.296875 C7.92734375,9.96171875 8.07109375,9.81796875 8.40625,9.81796875 C8.74140625,9.81796875 8.88515625,9.96171875 8.88515625,10.296875 C8.88515625,10.6320313 8.74140625,10.7757812 8.40625,10.7757812 C8.07109375,10.7757812 7.92734375,10.6320313 7.92734375,10.296875 Z M7.92734375,14.2242188 C7.92734375,13.8890625 8.07109375,13.7453125 8.40625,13.7453125 C8.74140625,13.7453125 8.88515625,13.8890625 8.88515625,14.2242188 C8.88515625,14.559375 8.74140625,14.703125 8.40625,14.703125 C8.07109375,14.703125 7.92734375,14.559375 7.92734375,14.2242188 Z M7.92734375,18.1515625 C7.92734375,17.8164062 8.07109375,17.6726562 8.40625,17.6726562 C8.74140625,17.6726562 8.88515625,17.8164062 8.88515625,18.1515625 C8.88515625,18.4867187 8.74140625,18.6304687 8.40625,18.6304687 C8.07109375,18.6304687 7.92734375,18.4867187 7.92734375,18.1515625 Z M20.6664063,3.4484375 C20.6664063,3.4484375 20.6664063,3.4484375 20.6664063,3.4484375 C20.6664063,3.4484375 20.6664063,4.88515625 20.6664063,4.88515625 C20.6664063,4.88515625 4,4.88515625 4,4.88515625 C4,4.88515625 4,3.4484375 4,3.4484375 C4,3.0171875 4.14375,2.68203125 4.43125,2.39453125 C4.71875,2.10703125 5.05390625,1.96328125 5.48515625,1.96328125 C5.48515625,1.96328125 5.48515625,1.96328125 5.48515625,1.96328125 C5.48515625,1.96328125 6.921875,1.96328125 6.921875,1.96328125 C6.921875,1.96328125 6.921875,0.47890625 6.921875,0.47890625 C6.921875,0.14375 7.11328125,0 7.4484375,0 C7.4484375,0 7.4484375,0 7.4484375,0 C7.78359375,0 7.92734375,0.14375 7.92734375,0.47890625 C7.92734375,0.47890625 7.92734375,0.47890625 7.92734375,0.47890625 C7.92734375,0.47890625 7.92734375,1.96328125 7.92734375,1.96328125 C7.92734375,1.96328125 11.8546875,1.96328125 11.8546875,1.96328125 C11.8546875,1.96328125 11.8546875,0.47890625 11.8546875,0.47890625 C11.8546875,0.14375 11.9984375,0 12.3335938,0 C12.66875,0 12.8125,0.14375 12.8125,0.47890625 C12.8125,0.47890625 12.8125,0.47890625 12.8125,0.47890625 C12.8125,0.47890625 12.8125,1.96328125 12.8125,1.96328125 C12.8125,1.96328125 16.7398438,1.96328125 16.7398438,1.96328125 C16.7398438,1.96328125 16.7398438,0.47890625 16.7398438,0.47890625 C16.7398438,0.14375 16.8835938,0 17.21875,0 C17.21875,0 17.21875,0 17.21875,0 C17.5539063,0 17.7453125,0.14375 17.7453125,0.47890625 C17.7453125,0.47890625 17.7453125,0.47890625 17.7453125,0.47890625 C17.7453125,0.47890625 17.7453125,1.96328125 17.7453125,1.96328125 C17.7453125,1.96328125 19.1820313,1.96328125 19.1820313,1.96328125 C19.6132812,1.96328125 19.9484375,2.10703125 20.2359375,2.39453125 C20.5234375,2.68203125 20.6671875,3.0171875 20.6671875,3.4484375 L20.6664063,3.4484375 Z"/>
  <title>Notepad Solid</title>
</svg>