<svg xmlns="http://www.w3.org/2000/svg" viewBox="0 0 25 25" id="notepad">
  <path d="M19.1820313,1.96328125 C19.1820313,1.96328125 19.1820313,1.96328125 19.1820313,1.96328125 C19.1820313,1.96328125 17.7453125,1.96328125 17.7453125,1.96328125 C17.7453125,1.96328125 17.7453125,0.47890625 17.7453125,0.47890625 C17.7453125,0.14375 17.5539062,0 17.21875,0 C17.21875,0 17.21875,0 17.21875,0 C16.8835937,0 16.7398438,0.14375 16.7398438,0.47890625 C16.7398438,0.47890625 16.7398438,0.47890625 16.7398438,0.47890625 C16.7398438,0.47890625 16.7398438,1.96328125 16.7398438,1.96328125 C16.7398438,1.96328125 12.8125,1.96328125 12.8125,1.96328125 C12.8125,1.96328125 12.8125,0.47890625 12.8125,0.47890625 C12.8125,0.14375 12.66875,0 12.3335938,0 C11.9984375,0 11.8546875,0.14375 11.8546875,0.47890625 C11.8546875,0.47890625 11.8546875,0.47890625 11.8546875,0.47890625 C11.8546875,0.47890625 11.8546875,1.96328125 11.8546875,1.96328125 C11.8546875,1.96328125 7.92734375,1.96328125 7.92734375,1.96328125 C7.92734375,1.96328125 7.92734375,0.47890625 7.92734375,0.47890625 C7.92734375,0.14375 7.78359375,0 7.4484375,0 C7.4484375,0 7.4484375,0 7.4484375,0 C7.11328125,0 6.921875,0.14375 6.921875,0.47890625 C6.921875,0.47890625 6.921875,0.47890625 6.921875,0.47890625 C6.921875,0.47890625 6.921875,1.96328125 6.921875,1.96328125 C6.921875,1.96328125 5.48515625,1.96328125 5.48515625,1.96328125 C5.05390625,1.96328125 4.71875,2.10703125 4.43125,2.39453125 C4.14375,2.68203125 4,3.0171875 4,3.4484375 C4,3.4484375 4,3.4484375 4,3.4484375 C4,3.4484375 4,23.0367188 4,23.0367188 C4,23.4679688 4.14375,23.803125 4.43125,24.090625 C4.71875,24.378125 5.05390625,24.521875 5.48515625,24.521875 C5.48515625,24.521875 5.48515625,24.521875 5.48515625,24.521875 C5.48515625,24.521875 19.1828125,24.521875 19.1828125,24.521875 C19.6140625,24.521875 19.9492188,24.378125 20.2367188,24.090625 C20.5242188,23.803125 20.6679688,23.4679688 20.6679688,23.0367188 C20.6679688,23.0367188 20.6679688,23.0367188 20.6679688,23.0367188 C20.6679688,23.0367188 20.6679688,3.4484375 20.6679688,3.4484375 C20.6679688,3.0171875 20.5242188,2.68203125 20.2367188,2.39453125 C19.9492188,2.10703125 19.6140625,1.96328125 19.1828125,1.96328125 L19.1820313,1.96328125 Z M19.7085937,5.890625 C19.7085937,5.890625 19.7085937,23.0359375 19.7085937,23.0359375 C19.7085937,23.3710938 19.5171875,23.5148438 19.1820312,23.5148438 C19.1820312,23.5148438 19.1820312,23.5148438 19.1820312,23.5148438 C19.1820312,23.5148438 5.484375,23.5148438 5.484375,23.5148438 C5.14921875,23.5148438 4.9578125,23.3710938 4.9578125,23.0359375 C4.9578125,23.0359375 4.9578125,23.0359375 4.9578125,23.0359375 C4.9578125,23.0359375 4.9578125,5.890625 4.9578125,5.890625 C4.9578125,5.890625 19.7085937,5.890625 19.7085937,5.890625 Z M19.7085937,3.4484375 C19.7085937,3.4484375 19.7085937,4.88515625 19.7085937,4.88515625 C19.7085937,4.88515625 4.9578125,4.88515625 4.9578125,4.88515625 C4.9578125,4.88515625 4.9578125,3.4484375 4.9578125,3.4484375 C4.9578125,3.11328125 5.14921875,2.921875 5.484375,2.921875 C5.484375,2.921875 5.484375,2.921875 5.484375,2.921875 C5.484375,2.921875 19.1820312,2.921875 19.1820312,2.921875 C19.5171875,2.921875 19.7085937,3.11328125 19.7085937,3.4484375 C19.7085937,3.4484375 19.7085937,3.4484375 19.7085937,3.4484375 Z M10.3695312,10.7757812 C10.034375,10.7757812 9.890625,10.6320313 9.890625,10.296875 C9.890625,9.96171875 10.034375,9.81796875 10.3695312,9.81796875 C10.3695312,9.81796875 10.3695312,9.81796875 10.3695312,9.81796875 C10.3695312,9.81796875 16.2601562,9.81796875 16.2601562,9.81796875 C16.5953125,9.81796875 16.7390625,9.96171875 16.7390625,10.296875 C16.7390625,10.6320313 16.5953125,10.7757812 16.2601562,10.7757812 C16.2601562,10.7757812 16.2601562,10.7757812 16.2601562,10.7757812 C16.2601562,10.7757812 10.3695312,10.7757812 10.3695312,10.7757812 Z M8.40625,10.7757812 C8.07109375,10.7757812 7.92734375,10.6320313 7.92734375,10.296875 C7.92734375,9.96171875 8.07109375,9.81796875 8.40625,9.81796875 C8.74140625,9.81796875 8.88515625,9.96171875 8.88515625,10.296875 C8.88515625,10.6320313 8.74140625,10.7757812 8.40625,10.7757812 Z M10.3695312,14.703125 C10.034375,14.703125 9.890625,14.559375 9.890625,14.2242188 C9.890625,13.8890625 10.034375,13.7453125 10.3695312,13.7453125 C10.3695312,13.7453125 10.3695312,13.7453125 10.3695312,13.7453125 C10.3695312,13.7453125 16.2601562,13.7453125 16.2601562,13.7453125 C16.5953125,13.7453125 16.7390625,13.8890625 16.7390625,14.2242188 C16.7390625,14.559375 16.5953125,14.703125 16.2601562,14.703125 C16.2601562,14.703125 16.2601562,14.703125 16.2601562,14.703125 C16.2601562,14.703125 10.3695312,14.703125 10.3695312,14.703125 Z M8.40625,14.703125 C8.07109375,14.703125 7.92734375,14.559375 7.92734375,14.2242188 C7.92734375,13.8890625 8.07109375,13.7453125 8.40625,13.7453125 C8.74140625,13.7453125 8.88515625,13.8890625 8.88515625,14.2242188 C8.88515625,14.559375 8.74140625,14.703125 8.40625,14.703125 Z M10.3695312,18.6304687 C10.034375,18.6304687 9.890625,18.4867187 9.890625,18.1515625 C9.890625,17.8164062 10.034375,17.6726562 10.3695312,17.6726562 C10.3695312,17.6726562 10.3695312,17.6726562 10.3695312,17.6726562 C10.3695312,17.6726562 16.2601562,17.6726562 16.2601562,17.6726562 C16.5953125,17.6726562 16.7390625,17.8164062 16.7390625,18.1515625 C16.7390625,18.4867187 16.5953125,18.6304687 16.2601562,18.6304687 C16.2601562,18.6304687 16.2601562,18.6304687 16.2601562,18.6304687 C16.2601562,18.6304687 10.3695312,18.6304687 10.3695312,18.6304687 Z M8.40625,18.6304687 C8.07109375,18.6304687 7.92734375,18.4867187 7.92734375,18.1515625 C7.92734375,17.8164062 8.07109375,17.6726562 8.40625,17.6726562 C8.74140625,17.6726562 8.88515625,17.8164062 8.88515625,18.1515625 C8.88515625,18.4867187 8.74140625,18.6304687 8.40625,18.6304687 Z"/>
  <title>Notepad</title>
</svg>