<svg xmlns="http://www.w3.org/2000/svg" viewBox="0 0 25 25" id="notes-solid">
  <path d="M5.890625,3.4484375 C5.890625,3.4484375 5.890625,3.4484375 5.890625,3.4484375 C5.890625,3.4484375 5.890625,4.88515625 5.890625,4.88515625 C5.890625,4.88515625 1.96328125,4.88515625 1.96328125,4.88515625 C1.96328125,4.88515625 1.96328125,3.4484375 1.96328125,3.4484375 C1.96328125,3.0171875 2.10703125,2.68203125 2.39453125,2.39453125 C2.68203125,2.10703125 3.0171875,1.96328125 3.4484375,1.96328125 C3.4484375,1.96328125 3.4484375,1.96328125 3.4484375,1.96328125 C3.4484375,1.96328125 4.40625,1.96328125 4.40625,1.96328125 C4.8375,1.96328125 5.17265625,2.10703125 5.46015625,2.39453125 C5.74765625,2.68203125 5.89140625,3.0171875 5.89140625,3.4484375 L5.890625,3.4484375 Z M5.890625,5.890625 C5.890625,5.890625 0.9578125,5.890625 0.9578125,5.890625 C0.71875,5.890625 0.47890625,5.98671875 0.2875,6.178125 C0.09609375,6.36953125 0,6.609375 0,6.8484375 C0,6.8484375 0,6.8484375 0,6.8484375 C0,6.8484375 0,10.296875 0,10.296875 C0,10.6320313 0.14375,10.7757813 0.47890625,10.7757813 C0.8140625,10.7757813 0.9578125,10.6320313 0.9578125,10.296875 C0.9578125,10.296875 0.9578125,10.296875 0.9578125,10.296875 C0.9578125,10.296875 0.9578125,6.8484375 0.9578125,6.8484375 C0.9578125,6.8484375 1.96328125,6.8484375 1.96328125,6.8484375 C1.96328125,6.8484375 1.96328125,23.0359375 1.96328125,23.0359375 C1.96328125,23.4671875 2.10703125,23.8023437 2.39453125,24.0898438 C2.68203125,24.3773437 3.0171875,24.5210937 3.4484375,24.5210937 C3.4484375,24.5210937 3.4484375,24.5210937 3.4484375,24.5210937 C3.4484375,24.5210937 4.40625,24.5210937 4.40625,24.5210937 C4.8375,24.5210937 5.17265625,24.3773437 5.46015625,24.0898438 C5.74765625,23.8023437 5.89140625,23.4671875 5.89140625,23.0359375 C5.89140625,23.0359375 5.89140625,23.0359375 5.89140625,23.0359375 C5.89140625,23.0359375 5.89140625,5.890625 5.89140625,5.890625 L5.890625,5.890625 Z M23.0367188,1.96328125 C23.0367188,1.96328125 23.0367188,1.96328125 23.0367188,1.96328125 C23.0367188,1.96328125 21.6,1.96328125 21.6,1.96328125 C21.6,1.96328125 21.6,0.47890625 21.6,0.47890625 C21.6,0.14375 21.4085938,0 21.0734375,0 C21.0734375,0 21.0734375,0 21.0734375,0 C20.7382813,0 20.5945313,0.14375 20.5945313,0.47890625 C20.5945313,0.47890625 20.5945313,0.47890625 20.5945313,0.47890625 C20.5945313,0.47890625 20.5945313,1.96328125 20.5945313,1.96328125 C20.5945313,1.96328125 16.6671875,1.96328125 16.6671875,1.96328125 C16.6671875,1.96328125 16.6671875,0.47890625 16.6671875,0.47890625 C16.6671875,0.14375 16.5234375,0 16.1882813,0 C15.853125,0 15.709375,0.14375 15.709375,0.47890625 C15.709375,0.47890625 15.709375,0.47890625 15.709375,0.47890625 C15.709375,0.47890625 15.709375,1.96328125 15.709375,1.96328125 C15.709375,1.96328125 11.7820313,1.96328125 11.7820313,1.96328125 C11.7820313,1.96328125 11.7820313,0.47890625 11.7820313,0.47890625 C11.7820313,0.14375 11.6382813,0 11.303125,0 C11.303125,0 11.303125,0 11.303125,0 C10.9679688,0 10.7765625,0.14375 10.7765625,0.47890625 C10.7765625,0.47890625 10.7765625,0.47890625 10.7765625,0.47890625 C10.7765625,0.47890625 10.7765625,1.96328125 10.7765625,1.96328125 C10.7765625,1.96328125 9.33984375,1.96328125 9.33984375,1.96328125 C8.90859375,1.96328125 8.5734375,2.10703125 8.2859375,2.39453125 C7.9984375,2.68203125 7.8546875,3.0171875 7.8546875,3.4484375 C7.8546875,3.4484375 7.8546875,3.4484375 7.8546875,3.4484375 C7.8546875,3.4484375 7.8546875,4.88515625 7.8546875,4.88515625 C7.8546875,4.88515625 24.5210938,4.88515625 24.5210938,4.88515625 C24.5210938,4.88515625 24.5210938,3.4484375 24.5210938,3.4484375 C24.5210938,3.0171875 24.3773438,2.68203125 24.0898438,2.39453125 C23.8023437,2.10703125 23.4671875,1.96328125 23.0359375,1.96328125 L23.0367188,1.96328125 Z M7.8546875,5.890625 C7.8546875,5.890625 7.8546875,23.0359375 7.8546875,23.0359375 C7.8546875,23.4671875 7.9984375,23.8023438 8.2859375,24.0898438 C8.5734375,24.3773438 8.90859375,24.5210938 9.33984375,24.5210938 C9.33984375,24.5210938 9.33984375,24.5210938 9.33984375,24.5210938 C9.33984375,24.5210938 23.0375,24.5210938 23.0375,24.5210938 C23.46875,24.5210938 23.8039063,24.3773438 24.0914063,24.0898438 C24.3789062,23.8023438 24.5226563,23.4671875 24.5226563,23.0359375 C24.5226563,23.0359375 24.5226563,23.0359375 24.5226563,23.0359375 C24.5226563,23.0359375 24.5226563,5.890625 24.5226563,5.890625 C24.5226563,5.890625 7.85625,5.890625 7.85625,5.890625 L7.8546875,5.890625 Z"/>
  <title>Notes Solid</title>
</svg>