<svg xmlns="http://www.w3.org/2000/svg" viewBox="0 0 25 25" id="notes">
  <path d="M22.1210938,1.96328125 C22.1210938,1.96328125 22.1210938,1.96328125 22.1210938,1.96328125 C22.1210938,1.96328125 20.6367188,1.96328125 20.6367188,1.96328125 C20.6367188,1.96328125 20.6367188,0.47890625 20.6367188,0.47890625 C20.6367188,0.14375 20.4929688,0 20.1578125,0 C19.8226563,0 19.6789063,0.14375 19.6789063,0.47890625 C19.6789063,0.47890625 19.6789063,0.47890625 19.6789063,0.47890625 C19.6789063,0.47890625 19.6789063,1.96328125 19.6789063,1.96328125 C19.6789063,1.96328125 15.7515625,1.96328125 15.7515625,1.96328125 C15.7515625,1.96328125 15.7515625,0.47890625 15.7515625,0.47890625 C15.7515625,0.14375 15.5601563,0 15.225,0 C15.225,0 15.225,0 15.225,0 C14.8898438,0 14.7460938,0.14375 14.7460938,0.47890625 C14.7460938,0.47890625 14.7460938,0.47890625 14.7460938,0.47890625 C14.7460938,0.47890625 14.7460938,1.96328125 14.7460938,1.96328125 C14.7460938,1.96328125 10.81875,1.96328125 10.81875,1.96328125 C10.81875,1.96328125 10.81875,0.47890625 10.81875,0.47890625 C10.81875,0.14375 10.675,0 10.3398438,0 C10.0046875,0 9.8609375,0.14375 9.8609375,0.47890625 C9.8609375,0.47890625 9.8609375,0.47890625 9.8609375,0.47890625 C9.8609375,0.47890625 9.8609375,1.96328125 9.8609375,1.96328125 C9.8609375,1.96328125 8.3765625,1.96328125 8.3765625,1.96328125 C7.9453125,1.96328125 7.61015625,2.10703125 7.32265625,2.39453125 C7.03515625,2.68203125 6.89140625,3.0171875 6.89140625,3.4484375 C6.89140625,3.4484375 6.89140625,3.4484375 6.89140625,3.4484375 C6.89140625,3.4484375 6.89140625,23.0367188 6.89140625,23.0367188 C6.89140625,23.4679688 7.03515625,23.803125 7.32265625,24.090625 C7.61015625,24.378125 7.9453125,24.521875 8.3765625,24.521875 C8.3765625,24.521875 8.3765625,24.521875 8.3765625,24.521875 C8.3765625,24.521875 22.121875,24.521875 22.121875,24.521875 C22.553125,24.521875 22.8882812,24.378125 23.1757812,24.090625 C23.4632813,23.803125 23.6070312,23.4679688 23.6070312,23.0367188 C23.6070312,23.0367188 23.6070312,23.0367188 23.6070312,23.0367188 C23.6070312,23.0367188 23.6070312,3.4484375 23.6070312,3.4484375 C23.6070312,3.0171875 23.4632813,2.68203125 23.1757812,2.39453125 C22.8882812,2.10703125 22.553125,1.96328125 22.121875,1.96328125 L22.1210938,1.96328125 Z M22.6,5.890625 C22.6,5.890625 22.6,23.0359375 22.6,23.0359375 C22.6,23.3710938 22.45625,23.5148438 22.1210938,23.5148438 C22.1210938,23.5148438 22.1210938,23.5148438 22.1210938,23.5148438 C22.1210938,23.5148438 8.37578125,23.5148438 8.37578125,23.5148438 C8.040625,23.5148438 7.896875,23.3710938 7.896875,23.0359375 C7.896875,23.0359375 7.896875,23.0359375 7.896875,23.0359375 C7.896875,23.0359375 7.896875,5.890625 7.896875,5.890625 C7.896875,5.890625 22.6,5.890625 22.6,5.890625 Z M22.6,3.4484375 C22.6,3.4484375 22.6,4.88515625 22.6,4.88515625 C22.6,4.88515625 7.896875,4.88515625 7.896875,4.88515625 C7.896875,4.88515625 7.896875,3.4484375 7.896875,3.4484375 C7.896875,3.11328125 8.040625,2.921875 8.37578125,2.921875 C8.37578125,2.921875 8.37578125,2.921875 8.37578125,2.921875 C8.37578125,2.921875 22.1210938,2.921875 22.1210938,2.921875 C22.45625,2.921875 22.6,3.11328125 22.6,3.4484375 C22.6,3.4484375 22.6,3.4484375 22.6,3.4484375 Z M3.490625,1.96328125 C3.490625,1.96328125 3.490625,1.96328125 3.490625,1.96328125 C3.490625,1.96328125 2.48515625,1.96328125 2.48515625,1.96328125 C2.05390625,1.96328125 1.71875,2.10703125 1.43125,2.39453125 C1.14375,2.68203125 1,3.0171875 1,3.4484375 C1,3.4484375 1,3.4484375 1,3.4484375 C1,3.4484375 1,23.0367188 1,23.0367188 C1,23.4679688 1.14375,23.803125 1.43125,24.090625 C1.71875,24.378125 2.05390625,24.521875 2.48515625,24.521875 C2.48515625,24.521875 2.48515625,24.521875 2.48515625,24.521875 C2.48515625,24.521875 3.490625,24.521875 3.490625,24.521875 C3.921875,24.521875 4.25703125,24.378125 4.54453125,24.090625 C4.78359375,23.803125 4.92734375,23.4679688 4.92734375,23.0367188 C4.92734375,23.0367188 4.92734375,23.0367188 4.92734375,23.0367188 C4.92734375,23.0367188 4.92734375,3.4484375 4.92734375,3.4484375 C4.92734375,3.0171875 4.78359375,2.68203125 4.54453125,2.39453125 C4.25703125,2.10703125 3.921875,1.96328125 3.490625,1.96328125 Z M3.96953125,8.8125 C3.96953125,8.8125 3.96953125,23.0367187 3.96953125,23.0367187 C3.96953125,23.371875 3.82578125,23.515625 3.490625,23.515625 C3.490625,23.515625 3.490625,23.515625 3.490625,23.515625 C3.490625,23.515625 2.48515625,23.515625 2.48515625,23.515625 C2.15,23.515625 2.00625,23.371875 2.00625,23.0367187 C2.00625,23.0367187 2.00625,23.0367187 2.00625,23.0367187 C2.00625,23.0367187 2.00625,8.8125 2.00625,8.8125 C2.00625,8.8125 3.96953125,8.8125 3.96953125,8.8125 Z M3.96953125,3.4484375 C3.96953125,3.4484375 3.96953125,7.8546875 3.96953125,7.8546875 C3.96953125,7.8546875 2.00625,7.8546875 2.00625,7.8546875 C2.00625,7.8546875 2.00625,3.4484375 2.00625,3.4484375 C2.00625,3.11328125 2.15,2.921875 2.48515625,2.921875 C2.48515625,2.921875 2.48515625,2.921875 2.48515625,2.921875 C2.48515625,2.921875 3.490625,2.921875 3.490625,2.921875 C3.82578125,2.921875 3.96953125,3.11328125 3.96953125,3.4484375 C3.96953125,3.4484375 3.96953125,3.4484375 3.96953125,3.4484375 Z"/>
  <title>Notes</title>
</svg>