<svg xmlns="http://www.w3.org/2000/svg" viewBox="0 0 25 25" id="opportunity-solid">
  <path d="M4.921875,6.890625 C4.921875,6.890625 21.0140625,6.890625 21.0140625,6.890625 C21.0140625,6.890625 23.9351562,1 23.9351562,1 C23.9351562,1 2,1 2,1 C2,1 4.92109375,6.890625 4.92109375,6.890625 L4.921875,6.890625 Z M12.9679688,22.9820312 C12.9679688,22.9820312 16.6078125,15.75 16.6078125,15.75 C16.6078125,15.75 9.328125,15.75 9.328125,15.75 C9.328125,15.75 12.9679688,22.9820312 12.9679688,22.9820312 L12.9679688,22.9820312 Z M8.84921875,14.7445313 C8.84921875,14.7445313 17.0867187,14.7445313 17.0867187,14.7445313 C17.0867187,14.7445313 20.4867188,7.89609375 20.4867188,7.89609375 C20.4867188,7.89609375 5.4484375,7.89609375 5.4484375,7.89609375 C5.4484375,7.89609375 8.8484375,14.7445313 8.8484375,14.7445313 L8.84921875,14.7445313 Z"/>
  <title>Opportunity Solid</title>
</svg>