<svg xmlns="http://www.w3.org/2000/svg" viewBox="0 0 25 25" id="opportunity">
  <path d="M15.9007812,15.709375 C15.9007812,15.709375 12.2609375,22.9414062 12.2609375,22.9414062 C12.2609375,22.9414062 8.62109375,15.709375 8.62109375,15.709375 C8.62109375,15.709375 15.9007812,15.709375 15.9007812,15.709375 L15.9007812,15.709375 Z M19.8273437,7.8546875 C19.8273437,7.8546875 16.3789062,14.703125 16.3789062,14.703125 C16.3789062,14.703125 8.14140625,14.703125 8.14140625,14.703125 C8.14140625,14.703125 4.69296875,7.8546875 4.69296875,7.8546875 C4.69296875,7.8546875 19.8273437,7.8546875 19.8273437,7.8546875 Z M23.228125,0.9578125 C23.228125,0.9578125 20.3070312,6.8484375 20.3070312,6.8484375 C20.3070312,6.8484375 4.21484375,6.8484375 4.21484375,6.8484375 C4.21484375,6.8484375 1.29375,0.9578125 1.29375,0.9578125 C1.29375,0.9578125 23.2289062,0.9578125 23.2289062,0.9578125 L23.228125,0.9578125 Z M24.5210937,0.62265625 C24.5210937,0.62265625 24.5210937,0.5265625 24.5210937,0.5265625 C24.5210937,0.5265625 24.5210937,0.47890625 24.5210937,0.47890625 C24.5210937,0.47890625 24.5210937,0.43125 24.5210937,0.43125 C24.5210937,0.38359375 24.5210937,0.33515625 24.4734375,0.33515625 C24.4734375,0.33515625 24.4734375,0.33515625 24.4734375,0.33515625 C24.4734375,0.2875 24.4734375,0.2875 24.4257812,0.2390625 C24.4257812,0.2390625 24.4257812,0.2390625 24.4257812,0.2390625 C24.4257812,0.19140625 24.4257812,0.19140625 24.378125,0.14296875 C24.3304687,0.09453125 24.3304687,0.0953125 24.2820312,0.0953125 C24.2820312,0.0953125 24.2820312,0.0953125 24.2820312,0.0953125 C24.2820312,0.04765625 24.2820312,0.04765625 24.234375,0.04765625 C24.1867187,0.04765625 24.1867187,0.04765625 24.1382812,0 C24.1382812,0 24.1382812,0 24.1382812,0 C24.1382812,0 24.0421875,0 24.0421875,0 C24.0421875,0 0.47890625,0 0.47890625,0 C0.47890625,0 0.3828125,0 0.3828125,0 C0.33515625,0.04765625 0.33515625,0.04765625 0.28671875,0.04765625 C0.28671875,0.04765625 0.28671875,0.04765625 0.28671875,0.04765625 C0.28671875,0.04765625 0.2390625,0.0953125 0.2390625,0.0953125 C0.2390625,0.0953125 0.14296875,0.14296875 0.14296875,0.14296875 C0.0953125,0.190625 0.0953125,0.190625 0.0953125,0.2390625 C0.0953125,0.2390625 0.0953125,0.2390625 0.0953125,0.2390625 C0.04765625,0.28671875 0.04765625,0.28671875 0.04765625,0.33515625 C0.04765625,0.33515625 0.04765625,0.33515625 0.04765625,0.33515625 C0,0.33515625 0,0.3828125 0,0.43125 C0,0.43125 0,0.43125 0,0.43125 C0,0.43125 0,0.47890625 0,0.47890625 C0,0.47890625 0,0.5265625 0,0.5265625 C0,0.5265625 0,0.62265625 0,0.62265625 C0.04765625,0.62265625 0.04765625,0.6703125 0.04765625,0.71875 C0.04765625,0.71875 0.04765625,0.71875 0.04765625,0.71875 C0.04765625,0.71875 11.8289062,24.234375 11.8289062,24.234375 C11.8289062,24.234375 11.8289062,24.2820312 11.8289062,24.2820312 C11.8289062,24.2820312 11.9726562,24.4257812 11.9726562,24.4257812 C12.0203125,24.4257812 12.0203125,24.4257812 12.0203125,24.4734375 C12.0203125,24.4734375 12.0203125,24.4734375 12.0203125,24.4734375 C12.0679687,24.5210937 12.1640625,24.5210937 12.259375,24.5210937 C12.3546875,24.5210937 12.4507813,24.5210937 12.4984375,24.4734375 C12.4984375,24.4734375 12.4984375,24.4734375 12.4984375,24.4734375 C12.4984375,24.4734375 12.5460937,24.4257812 12.5460937,24.4257812 C12.5460937,24.4257812 12.6898438,24.2820312 12.6898438,24.2820312 C12.6898438,24.2820312 12.6898438,24.234375 12.6898438,24.234375 C12.6898438,24.234375 24.4710937,0.71875 24.4710937,0.71875 C24.4710937,0.67109375 24.4710937,0.62265625 24.51875,0.62265625 C24.51875,0.62265625 24.51875,0.62265625 24.51875,0.62265625 L24.5210937,0.62265625 Z"/>
  <title>Opportunity</title>
</svg>