<svg xmlns="http://www.w3.org/2000/svg" viewBox="0 0 25 25" id="or-delete">
  <path d="M0,14.6554688 C0,14.6554688 0,9.81796875 0,9.81796875 C0,9.81796875 24.5210937,9.81796875 24.5210937,9.81796875 C24.5210937,9.81796875 24.5210937,14.6554688 24.5210937,14.6554688 C24.5210937,14.6554688 0,14.6554688 0,14.6554688 Z M18.6304687,7.8546875 C18.6304687,7.8546875 18.6304687,0 18.6304687,0 C18.6304687,0 19.6359375,0 19.6359375,0 C19.6359375,0 19.6359375,7.8546875 19.6359375,7.8546875 C19.6359375,7.8546875 18.6304687,7.8546875 18.6304687,7.8546875 Z M23.5632812,7.8546875 C23.5632812,7.8546875 23.5632812,0 23.5632812,0 C23.5632812,0 24.5210937,0 24.5210937,0 C24.5210937,0 24.5210937,7.8546875 24.5210937,7.8546875 C24.5210937,7.8546875 23.5632812,7.8546875 23.5632812,7.8546875 Z M18.6304687,24.5210938 C18.6304687,24.5210938 18.6304687,16.6664063 18.6304687,16.6664063 C18.6304687,16.6664063 19.6359375,16.6664063 19.6359375,16.6664063 C19.6359375,16.6664063 19.6359375,24.5210938 19.6359375,24.5210938 C19.6359375,24.5210938 18.6304687,24.5210938 18.6304687,24.5210938 Z M23.5632812,24.5210938 C23.5632812,24.5210938 23.5632812,16.6664063 23.5632812,16.6664063 C23.5632812,16.6664063 24.5210937,16.6664063 24.5210937,16.6664063 C24.5210937,16.6664063 24.5210937,24.5210938 24.5210937,24.5210938 C24.5210937,24.5210938 23.5632812,24.5210938 23.5632812,24.5210938 Z"/>
  <title>Or Delete</title>
</svg>