<svg xmlns="http://www.w3.org/2000/svg" viewBox="0 0 25 25" id="os-android">
  <path d="M9.75234375,5.85618078 C9.75234375,5.85618078 9.75234375,5.85618078 9.75234375,5.85618078 C9.89609375,5.85618078 9.99140625,5.80852453 10.1351563,5.71243078 C10.1351563,5.71243078 10.1351563,5.71243078 10.1351563,5.71243078 C10.23125,5.61633703 10.2789063,5.47336828 10.2789063,5.32961828 C10.2789063,5.18586828 10.23125,5.04211828 10.1351563,4.94680578 C10.1351563,4.94680578 10.1351563,4.94680578 10.1351563,4.94680578 C9.99140625,4.85071203 9.89609375,4.80305578 9.75234375,4.80305578 C9.75234375,4.80305578 9.75234375,4.80305578 9.75234375,4.80305578 C9.60859375,4.80305578 9.46484375,4.85071203 9.36953125,4.94680578 C9.27421875,5.04289953 9.22578125,5.18586828 9.22578125,5.32961828 C9.22578125,5.47336828 9.2734375,5.61711828 9.36953125,5.71243078 C9.465625,5.80774328 9.60859375,5.85618078 9.75234375,5.85618078 Z M15.5,5.85618078 C15.5,5.85618078 15.5,5.85618078 15.5,5.85618078 C15.64375,5.85618078 15.7875,5.80852453 15.8828125,5.71243078 C15.978125,5.61633703 16.0265625,5.47336828 16.0265625,5.32961828 C16.0265625,5.18586828 15.9789062,5.04211828 15.8828125,4.94680578 C15.7867187,4.85149328 15.64375,4.80305578 15.5,4.80305578 C15.5,4.80305578 15.5,4.80305578 15.5,4.80305578 C15.35625,4.80305578 15.2609375,4.85071203 15.1171875,4.94680578 C15.1171875,4.94680578 15.1171875,4.94680578 15.1171875,4.94680578 C15.0210937,5.04289953 14.9734375,5.18586828 14.9734375,5.32961828 C14.9734375,5.47336828 15.0210937,5.61711828 15.1171875,5.71243078 C15.1171875,5.71243078 15.1171875,5.71243078 15.1171875,5.71243078 C15.2609375,5.80852453 15.4046875,5.85618078 15.5,5.85618078 Z M3.3828125,8.77805578 C3.621875,8.53899328 3.9578125,8.39524328 4.38828125,8.39524328 C4.81875,8.39524328 5.1546875,8.53899328 5.39375,8.77805578 C5.6328125,9.01711828 5.7765625,9.35305578 5.7765625,9.78352453 C5.7765625,9.78352453 5.7765625,9.78352453 5.7765625,9.78352453 C5.7765625,9.78352453 5.7765625,15.6741495 5.7765625,15.6741495 C5.7765625,16.1053995 5.6328125,16.3928995 5.39375,16.631962 C5.39375,16.631962 5.39375,16.631962 5.39375,16.631962 C5.10625,16.919462 4.77109375,17.063212 4.38828125,17.063212 C4.00546875,17.063212 3.66953125,16.919462 3.3828125,16.631962 C3.3828125,16.631962 3.3828125,16.631962 3.3828125,16.631962 C3.14375,16.3928995 3,16.056962 3,15.6741495 C3,15.6741495 3,15.6741495 3,15.6741495 C3,15.6741495 3,9.78352453 3,9.78352453 C3,9.44836828 3.14375,9.11321203 3.3828125,8.77805578 C3.3828125,8.77805578 3.3828125,8.77805578 3.3828125,8.77805578 L3.3828125,8.77805578 Z M6.35234375,8.63430578 C6.35234375,8.63430578 18.9,8.63430578 18.9,8.63430578 C18.9,8.63430578 18.9,17.7343058 18.9,17.7343058 C18.9,18.1171183 18.75625,18.500712 18.46875,18.8358683 C18.46875,18.8358683 18.46875,18.8358683 18.46875,18.8358683 C18.18125,19.1233683 17.8460938,19.2671183 17.4148438,19.2671183 C17.4148438,19.2671183 17.4148438,19.2671183 17.4148438,19.2671183 C17.4148438,19.2671183 16.409375,19.2671183 16.409375,19.2671183 C16.409375,19.2671183 16.409375,22.3803995 16.409375,22.3803995 C16.409375,22.8116495 16.265625,23.0991495 15.978125,23.338212 C15.978125,23.338212 15.978125,23.338212 15.978125,23.338212 C15.690625,23.625712 15.3554688,23.769462 14.9726563,23.769462 C14.5898438,23.769462 14.2539063,23.625712 13.9671875,23.338212 C13.9671875,23.338212 13.9671875,23.338212 13.9671875,23.338212 C13.728125,23.0991495 13.584375,22.763212 13.584375,22.3803995 C13.584375,22.3803995 13.584375,22.3803995 13.584375,22.3803995 C13.584375,22.3803995 13.584375,19.2671183 13.584375,19.2671183 C13.584375,19.2671183 11.66875,19.2671183 11.66875,19.2671183 C11.66875,19.2671183 11.66875,22.3803995 11.66875,22.3803995 C11.66875,22.763212 11.525,23.0991495 11.2859375,23.338212 C11.2859375,23.338212 11.2859375,23.338212 11.2859375,23.338212 C10.9984375,23.625712 10.6632813,23.769462 10.2804688,23.769462 C9.89765625,23.769462 9.56171875,23.625712 9.275,23.338212 C9.275,23.338212 9.275,23.338212 9.275,23.338212 C9.0359375,23.0991495 8.8921875,22.763212 8.8921875,22.3803995 C8.8921875,22.3803995 8.8921875,22.3803995 8.8921875,22.3803995 C8.8921875,22.3803995 8.84453125,19.2671183 8.84453125,19.2671183 C8.84453125,19.2671183 7.8390625,19.2671183 7.8390625,19.2671183 C7.4078125,19.2671183 7.07265625,19.1233683 6.78515625,18.8358683 C6.78515625,18.8358683 6.78515625,18.8358683 6.78515625,18.8358683 C6.49765625,18.500712 6.35390625,18.1655558 6.35390625,17.7343058 C6.35390625,17.7343058 6.35390625,17.7343058 6.35390625,17.7343058 C6.35390625,17.7343058 6.35390625,8.63430578 6.35390625,8.63430578 L6.35234375,8.63430578 Z M16.696875,1.30618078 C16.696875,1.30618078 15.7390625,3.07805578 15.7390625,3.07805578 C16.7929688,3.65305578 17.5585938,4.37102453 18.0859375,5.18508703 C18.0859375,5.18508703 18.0859375,5.18508703 18.0859375,5.18508703 C18.6609375,6.09524328 18.9476563,7.10071203 18.9476563,8.15461828 C18.9476563,8.15461828 18.9476563,8.15461828 18.9476563,8.15461828 C18.9476563,8.15461828 6.30390625,8.15461828 6.30390625,8.15461828 C6.30390625,7.05305578 6.59140625,6.09524328 7.165625,5.18508703 C7.165625,5.18508703 7.165625,5.18508703 7.165625,5.18508703 C7.6921875,4.37102453 8.50625,3.65227453 9.5125,3.07805578 C9.5125,3.07805578 9.5125,3.07805578 9.5125,3.07805578 C9.5125,3.07805578 8.5546875,1.30618078 8.5546875,1.30618078 C8.50703125,1.16243078 8.50703125,1.06711828 8.60234375,1.01868078 C8.60234375,1.01868078 8.60234375,1.01868078 8.60234375,1.01868078 C8.74609375,0.971024527 8.84140625,1.01868078 8.88984375,1.11477453 C8.88984375,1.11477453 8.88984375,1.11477453 8.88984375,1.11477453 C8.88984375,1.11477453 9.8953125,2.93430578 9.8953125,2.93430578 C10.7570313,2.55149328 11.6671875,2.35930578 12.625,2.35930578 C13.5828125,2.35930578 14.4929688,2.55071203 15.3546875,2.93430578 C15.3546875,2.93430578 15.3546875,2.93430578 15.3546875,2.93430578 C15.3546875,2.93430578 16.3601563,1.11477453 16.3601563,1.11477453 C16.4078125,1.01868078 16.5039063,0.971024527 16.6476563,1.01868078 C16.6476563,1.01868078 16.6476563,1.01868078 16.6476563,1.01868078 C16.74375,1.06633703 16.74375,1.16243078 16.6953125,1.30618078 C16.6953125,1.30618078 16.6953125,1.30618078 16.6953125,1.30618078 L16.696875,1.30618078 Z M22.2523438,9.78352453 C22.2523438,9.78352453 22.2523438,9.78352453 22.2523438,9.78352453 C22.2523438,9.78352453 22.2523438,15.6741495 22.2523438,15.6741495 C22.2523438,16.056962 22.1085938,16.3928995 21.8695313,16.631962 C21.8695313,16.631962 21.8695313,16.631962 21.8695313,16.631962 C21.5820313,16.919462 21.246875,17.063212 20.8640625,17.063212 C20.48125,17.063212 20.1453125,16.919462 19.8585938,16.631962 C19.8585938,16.631962 19.8585938,16.631962 19.8585938,16.631962 C19.6195313,16.3928995 19.4757813,16.1053995 19.4757813,15.6741495 C19.4757813,15.6741495 19.4757813,15.6741495 19.4757813,15.6741495 C19.4757813,15.6741495 19.4757813,9.78352453 19.4757813,9.78352453 C19.4757813,9.35227453 19.6195313,9.01711828 19.8585938,8.77805578 C20.0976563,8.53899328 20.4335938,8.39524328 20.8640625,8.39524328 C21.2953125,8.39524328 21.6304688,8.53899328 21.8695313,8.77805578 C21.8695313,8.77805578 21.8695313,8.77805578 21.8695313,8.77805578 C22.1085938,9.11321203 22.2523438,9.44836828 22.2523438,9.78352453 L22.2523438,9.78352453 Z"/>
  <title>Os Android</title>
</svg>