<svg xmlns="http://www.w3.org/2000/svg" viewBox="0 0 25 25" id="os-apple">
  <path d="M22.0609375,17.61875 C22.0609375,17.61875 22.0609375,17.61875 22.0609375,17.61875 C21.6296875,18.8640625 21.103125,20.0132812 20.384375,21.0671875 C20.384375,21.0671875 20.384375,21.0671875 20.384375,21.0671875 C19.1867188,22.8390625 17.9898437,23.7492188 16.840625,23.7492188 C16.840625,23.7492188 16.840625,23.7492188 16.840625,23.7492188 C16.409375,23.7492188 15.7390625,23.6054688 14.925,23.2703125 C14.925,23.2703125 14.925,23.2703125 14.925,23.2703125 C14.1585938,22.9828125 13.4882813,22.8390625 12.865625,22.8390625 C12.2429688,22.8390625 11.6203125,22.9828125 10.95,23.3179688 C10.95,23.3179688 10.95,23.3179688 10.95,23.3179688 C10.1835938,23.6054688 9.5609375,23.7492188 9.13046875,23.7492188 C9.13046875,23.7492188 9.13046875,23.7492188 9.13046875,23.7492188 C7.69375,23.7492188 6.3046875,22.5515625 5.01171875,20.2054688 C5.01171875,20.2054688 5.01171875,20.2054688 5.01171875,20.2054688 C3.67109375,17.8585937 3,15.6078125 3,13.3570312 C3,13.3570312 3,13.3570312 3,13.3570312 C3,11.2976562 3.5265625,9.62109375 4.5328125,8.2328125 C4.5328125,8.2328125 4.5328125,8.2328125 4.5328125,8.2328125 C5.53828125,6.93984375 6.83203125,6.26953125 8.4125,6.26953125 C8.4125,6.26953125 8.4125,6.26953125 8.4125,6.26953125 C9.03515625,6.26953125 9.84921875,6.41328125 10.8546875,6.65234375 C10.8546875,6.65234375 10.8546875,6.65234375 10.8546875,6.65234375 C11.8125,6.93984375 12.4351563,7.08359375 12.7226562,7.08359375 C12.7226562,7.08359375 12.7226562,7.08359375 12.7226562,7.08359375 C13.1539062,7.08359375 13.8242188,6.93984375 14.6859375,6.6046875 C14.6859375,6.6046875 14.6859375,6.6046875 14.6859375,6.6046875 C15.7398437,6.26953125 16.5539062,6.12578125 17.0804688,6.12578125 C17.0804688,6.12578125 17.0804688,6.12578125 17.0804688,6.12578125 C18.134375,6.12578125 19.0921875,6.41328125 19.9539063,7.0359375 C19.9539063,7.0359375 19.9539063,7.0359375 19.9539063,7.0359375 C20.4804688,7.41875 20.959375,7.89765625 21.390625,8.425 C21.390625,8.425 21.390625,8.425 21.390625,8.425 C20.7203125,8.9515625 20.1929688,9.47890625 19.8578125,10.0054687 C19.8578125,10.0054687 19.8578125,10.0054687 19.8578125,10.0054687 C19.2351562,10.8195312 18.9476563,11.7773438 18.9476563,12.83125 C18.9476563,12.83125 18.9476563,12.83125 18.9476563,12.83125 C18.9476563,13.9328125 19.2828125,14.9867187 19.9054688,15.8960938 C19.9054688,15.8960938 19.9054688,15.8960938 19.9054688,15.8960938 C20.528125,16.80625 21.2460938,17.3804687 22.0609375,17.6203125 L22.0609375,17.61875 Z M16.8882812,1.43125 C16.8882812,1.43125 16.8882812,1.575 16.8882812,1.575 C16.8882812,2.19765625 16.7445312,2.8203125 16.5054687,3.44296875 C16.5054687,3.44296875 16.5054687,3.44296875 16.5054687,3.44296875 C16.1703125,4.16171875 15.7867187,4.78359375 15.2601562,5.3109375 C15.2601562,5.3109375 15.2601562,5.3109375 15.2601562,5.3109375 C14.8289062,5.7421875 14.3023438,6.07734375 13.7757813,6.31640625 C13.7757813,6.31640625 13.7757813,6.31640625 13.7757813,6.31640625 C13.3445313,6.46015625 12.865625,6.5078125 12.3390625,6.55546875 C12.3390625,6.55546875 12.3390625,6.55546875 12.3390625,6.55546875 C12.3867188,5.16640625 12.721875,4.0171875 13.3929688,3.01171875 C13.3929688,3.01171875 13.3929688,3.01171875 13.3929688,3.01171875 C14.0632813,2.05390625 15.2125,1.38359375 16.8414063,1 C16.8414063,1 16.8414063,1 16.8414063,1 C16.8414063,1 16.8414063,1.14375 16.8414063,1.14375 C16.8414063,1.14375 16.8890625,1.2875 16.8890625,1.2875 C16.8890625,1.2875 16.8890625,1.43125 16.8890625,1.43125 L16.8882812,1.43125 Z"/>
  <title>Os Apple</title>
</svg>