<svg xmlns="http://www.w3.org/2000/svg" viewBox="0 0 25 25" id="os-windows">
  <path d="M1,12.9734375 C1,12.9734375 10.3390625,12.9734375 10.3390625,12.9734375 C10.3390625,12.9734375 10.3390625,21.88125 10.3390625,21.88125 C10.3390625,21.88125 1,20.6359375 1,20.6359375 C1,20.6359375 1,12.9734375 1,12.9734375 Z M1,4.11328125 C1,4.11328125 10.3390625,2.8203125 10.3390625,2.8203125 C10.3390625,2.8203125 10.3390625,11.8242188 10.3390625,11.8242188 C10.3390625,11.8242188 1,11.8242188 1,11.8242188 C1,11.8242188 1,4.11328125 1,4.11328125 Z M11.3929688,12.9734375 C11.3929688,12.9734375 23.796875,12.9734375 23.796875,12.9734375 C23.796875,12.9734375 23.796875,23.7492187 23.796875,23.7492187 C23.796875,23.7492187 11.3929688,22.025 11.3929688,22.025 C11.3929688,22.025 11.3929688,12.9734375 11.3929688,12.9734375 Z M11.3929688,2.6765625 C11.3929688,2.6765625 23.796875,1 23.796875,1 C23.796875,1 23.796875,11.8234375 23.796875,11.8234375 C23.796875,11.8234375 11.3929688,11.8234375 11.3929688,11.8234375 C11.3929688,11.8234375 11.3929688,2.67578125 11.3929688,2.67578125 L11.3929688,2.6765625 Z"/>
  <title>Os Windows</title>
</svg>