<svg xmlns="http://www.w3.org/2000/svg" viewBox="0 0 25 25" id="passbook-solid">
  <path d="M23.5632813,15.2242188 L23.5632813,16.2296875 L23.5632813,16.2296875 L0.9578125,16.2296875 L0.9578125,16.2296875 L0.9578125,15.2242188 L0.9578125,15.2242188 L23.5632813,15.2242188 L23.5632813,15.2242188 Z M23.5632812,2.00625 L23.5632812,7.41796875 L23.5632812,7.41796875 L14.7992187,7.41796875 L14.7992187,7.41796875 C14.7515625,7.465625 14.7515625,7.56171875 14.7515625,7.65703125 C14.7158203,7.72910156 14.7068848,7.80073242 14.7046509,7.85214844 L14.7039063,7.89609375 L14.7039063,7.89609375 C14.7039063,8.56640625 14.4648437,9.14140625 13.9851562,9.6203125 C13.5054687,10.0992188 12.93125,10.3390625 12.2609375,10.3390625 C11.590625,10.3390625 11.015625,10.1 10.5367187,9.6203125 C10.1057031,9.18859375 9.86832812,8.68030469 9.82516328,8.09430625 L9.81796875,7.89609375 L9.81796875,7.89609375 L9.81796875,7.65703125 L9.81796875,7.65703125 C9.78222656,7.58496094 9.77329102,7.51333008 9.75062256,7.46191406 L9.721875,7.41796875 L9.721875,7.41796875 L0.9578125,7.41796875 L0.9578125,7.41796875 L0.9578125,2.00625 L0.9578125,2.00625 L23.5632812,2.00625 L23.5632812,2.00625 Z M24.5210937,1 C24.5210937,1 0,1 0,1 C0,1 0,23.6054688 0,23.6054688 C0,23.6054688 24.5210937,23.6054688 24.5210937,23.6054688 C24.5210937,23.6054688 24.5210937,1 24.5210937,1 Z"/>
  <title>Passbook Solid</title>
</svg>