<svg xmlns="http://www.w3.org/2000/svg" viewBox="0 0 25 25" id="passbook">
  <path d="M24.0421875,1.46119987 C24.0421875,1.46119987 24.0421875,1.46119987 24.0421875,1.46119987 C24.0421875,1.46119987 0.47890625,1.46119987 0.47890625,1.46119987 C0.33515625,0.838543617 0.23984375,0.838543617 0.09609375,1.50885612 C0.09609375,1.50885612 0.09609375,1.50885612 0.09609375,1.50885612 C0.0484375,1.65260612 0.0484375,1.79635612 0,1.98776237 C0,1.98776237 0,1.98776237 0,1.98776237 C0,1.98776237 0,24.0666686 0,24.0666686 C0,24.0666686 24.5210937,24.0666686 24.5210937,24.0666686 C24.5210937,24.0666686 24.5210937,1.98776237 24.5210937,1.98776237 C24.425,1.31744987 24.3296875,0.982293617 24.2335937,1.02994987 C24.2335937,1.02994987 24.2335937,1.02994987 24.2335937,1.02994987 C24.1859375,1.07760612 24.0898438,1.22135612 24.0421875,1.46119987 Z M0.9578125,15.6854186 C0.9578125,15.6854186 0.9578125,8.83698112 0.9578125,8.83698112 C0.9578125,8.83698112 8.8125,8.83698112 8.8125,8.83698112 C8.8125,9.79479362 9.14765625,10.6088561 9.81796875,11.2791686 C10.4882812,11.9494811 11.3023438,12.2846374 12.2601563,12.2846374 C13.2179688,12.2846374 14.0320313,11.9494811 14.7023438,11.2791686 C15.3726563,10.6088561 15.7078125,9.79479362 15.7078125,8.83698112 C15.7078125,8.83698112 15.7078125,8.83698112 15.7078125,8.83698112 C15.7078125,8.83698112 23.5625,8.83698112 23.5625,8.83698112 C23.5625,8.83698112 23.5625,15.6854186 23.5625,15.6854186 C23.5625,15.6854186 0.95703125,15.6854186 0.95703125,15.6854186 L0.9578125,15.6854186 Z M0.9578125,2.46744987 C0.9578125,2.46744987 23.5632812,2.46744987 23.5632812,2.46744987 C23.5632812,2.46744987 23.5632812,7.87916862 23.5632812,7.87916862 C23.5632812,7.87916862 15.1820312,7.87916862 15.1820312,7.87916862 C15.0382812,7.25651237 14.9429687,7.20885612 14.7992187,7.83151237 C14.7992187,7.83151237 14.7992187,7.83151237 14.7992187,7.83151237 C14.7515625,7.97526237 14.7515625,8.11901237 14.703125,8.35807487 C14.703125,8.35807487 14.703125,8.35807487 14.703125,8.35807487 C14.703125,9.02838737 14.4640625,9.60338737 13.984375,10.0822936 C13.5046875,10.5611999 12.9304687,10.8010436 12.2601562,10.8010436 C11.5898437,10.8010436 11.0148437,10.5619811 10.5359375,10.0822936 C10.0570312,9.60260612 9.8171875,9.02838737 9.8171875,8.35807487 C9.8171875,8.35807487 9.8171875,8.35807487 9.8171875,8.35807487 C9.72109375,7.73541862 9.62578125,7.40026237 9.5296875,7.40026237 C9.5296875,7.40026237 9.5296875,7.40026237 9.5296875,7.40026237 C9.48203125,7.40026237 9.3859375,7.54401237 9.33828125,7.87916862 C9.33828125,7.87916862 9.33828125,7.87916862 9.33828125,7.87916862 C9.33828125,7.87916862 0.95703125,7.87916862 0.95703125,7.87916862 C0.95703125,7.87916862 0.95703125,2.46744987 0.95703125,2.46744987 L0.9578125,2.46744987 Z M23.5632813,23.0611999 C23.5632813,23.0611999 0.9578125,23.0611999 0.9578125,23.0611999 C0.9578125,23.0611999 0.9578125,16.6916686 0.9578125,16.6916686 C0.9578125,16.6916686 23.5632813,16.6916686 23.5632813,16.6916686 C23.5632813,16.6916686 23.5632813,23.0611999 23.5632813,23.0611999 L23.5632813,23.0611999 Z"/>
  <title>Passbook</title>
</svg>