<svg xmlns="http://www.w3.org/2000/svg" viewBox="0 0 25 25" id="pause">
  <path d="M6.48515625,5 C6.48515625,5 9.4546875,5 9.4546875,5 C9.78984375,5 10.1734375,5.09609375 10.5085938,5.33515625 C10.5085938,5.33515625 10.5085938,5.33515625 10.5085938,5.33515625 C10.7476563,5.5265625 10.8914063,5.76640625 10.8914063,6.1015625 C10.8914063,6.1015625 10.8914063,6.1015625 10.8914063,6.1015625 C10.8914063,6.1015625 10.8914063,18.6492187 10.8914063,18.6492187 C10.8914063,18.984375 10.7476563,19.2242187 10.5085938,19.415625 C10.5085938,19.415625 10.5085938,19.415625 10.5085938,19.415625 C10.1734375,19.6546875 9.78984375,19.7507812 9.4546875,19.7507812 C9.4546875,19.7507812 9.4546875,19.7507812 9.4546875,19.7507812 C9.4546875,19.7507812 6.48515625,19.7507812 6.48515625,19.7507812 C6.15,19.7507812 5.76640625,19.6546875 5.43125,19.415625 C5.43125,19.415625 5.43125,19.415625 5.43125,19.415625 C5.14375,19.2242187 5,18.984375 5,18.6492187 C5,18.6492187 5,18.6492187 5,18.6492187 C5,18.6492187 5,6.1015625 5,6.1015625 C5,5.76640625 5.14375,5.5265625 5.43125,5.33515625 C5.43125,5.33515625 5.43125,5.33515625 5.43125,5.33515625 C5.76640625,5.09609375 6.15,5 6.48515625,5 C6.48515625,5 6.48515625,5 6.48515625,5 Z M9.93359375,18.4101562 C9.93359375,18.4101562 9.93359375,18.4101562 9.93359375,18.4101562 C9.93359375,18.4101562 9.93359375,6.34140625 9.93359375,6.34140625 C9.93359375,6.10234375 9.78984375,5.95859375 9.4546875,5.95859375 C9.4546875,5.95859375 9.4546875,5.95859375 9.4546875,5.95859375 C9.4546875,5.95859375 6.48515625,5.95859375 6.48515625,5.95859375 C6.15,5.95859375 6.00625,6.10234375 6.00625,6.34140625 C6.00625,6.34140625 6.00625,6.34140625 6.00625,6.34140625 C6.00625,6.34140625 6.00625,18.4101562 6.00625,18.4101562 C6.00625,18.6492188 6.15,18.7453125 6.48515625,18.7453125 C6.48515625,18.7453125 6.48515625,18.7453125 6.48515625,18.7453125 C6.48515625,18.7453125 9.4546875,18.7453125 9.4546875,18.7453125 C9.78984375,18.7453125 9.93359375,18.6492188 9.93359375,18.4101562 Z M15.2976563,5 C15.2976563,5 18.2671875,5 18.2671875,5 C18.6023438,5 18.9859375,5.09609375 19.3210938,5.33515625 C19.3210938,5.33515625 19.3210938,5.33515625 19.3210938,5.33515625 C19.6085938,5.5265625 19.7523438,5.76640625 19.7523438,6.1015625 C19.7523438,6.1015625 19.7523438,6.1015625 19.7523438,6.1015625 C19.7523438,6.1015625 19.7523438,18.6492187 19.7523438,18.6492187 C19.7523438,18.984375 19.6085938,19.2242187 19.3210938,19.415625 C19.3210938,19.415625 19.3210938,19.415625 19.3210938,19.415625 C18.9859375,19.6546875 18.6023438,19.7507812 18.2671875,19.7507812 C18.2671875,19.7507812 18.2671875,19.7507812 18.2671875,19.7507812 C18.2671875,19.7507812 15.2976563,19.7507812 15.2976563,19.7507812 C14.9625,19.7507812 14.5789062,19.6546875 14.24375,19.415625 C14.24375,19.415625 14.24375,19.415625 14.24375,19.415625 C14.0046875,19.2242187 13.8609375,18.984375 13.8609375,18.6492187 C13.8609375,18.6492187 13.8609375,18.6492187 13.8609375,18.6492187 C13.8609375,18.6492187 13.8609375,6.1015625 13.8609375,6.1015625 C13.8609375,5.76640625 14.0046875,5.5265625 14.24375,5.33515625 C14.24375,5.33515625 14.24375,5.33515625 14.24375,5.33515625 C14.5789062,5.09609375 14.9625,5 15.2976563,5 C15.2976563,5 15.2976563,5 15.2976563,5 Z M18.7460938,18.4101562 C18.7460938,18.4101562 18.7460938,18.4101562 18.7460938,18.4101562 C18.7460938,18.4101562 18.7460938,6.34140625 18.7460938,6.34140625 C18.7460938,6.10234375 18.6023438,5.95859375 18.2671875,5.95859375 C18.2671875,5.95859375 18.2671875,5.95859375 18.2671875,5.95859375 C18.2671875,5.95859375 15.2976563,5.95859375 15.2976563,5.95859375 C14.9625,5.95859375 14.81875,6.10234375 14.81875,6.34140625 C14.81875,6.34140625 14.81875,6.34140625 14.81875,6.34140625 C14.81875,6.34140625 14.81875,18.4101562 14.81875,18.4101562 C14.81875,18.6492188 14.9625,18.7453125 15.2976563,18.7453125 C15.2976563,18.7453125 15.2976563,18.7453125 15.2976563,18.7453125 C15.2976563,18.7453125 18.2671875,18.7453125 18.2671875,18.7453125 C18.6023438,18.7453125 18.7460938,18.6492188 18.7460938,18.4101562 Z"/>
  <title>Pause</title>
</svg>