<svg xmlns="http://www.w3.org/2000/svg" viewBox="0 0 25 25" id="pause-solid">
  <path d="M10.8914063,6.48515625 C10.8914063,6.48515625 10.8914063,6.48515625 10.8914063,6.48515625 C10.8914063,6.48515625 10.8914063,18.2664063 10.8914063,18.2664063 C10.8914063,18.6492188 10.7476563,18.9851563 10.5085938,19.3203125 C10.5085938,19.3203125 10.5085938,19.3203125 10.5085938,19.3203125 C10.2210938,19.6078125 9.8859375,19.7515625 9.4546875,19.7515625 C9.4546875,19.7515625 9.4546875,19.7515625 9.4546875,19.7515625 C9.4546875,19.7515625 6.48515625,19.7515625 6.48515625,19.7515625 C6.05390625,19.7515625 5.71875,19.6078125 5.43125,19.3203125 C5.14375,19.0328125 5,18.6976563 5,18.2664063 C5,18.2664063 5,18.2664063 5,18.2664063 C5,18.2664063 5,6.48515625 5,6.48515625 C5,6.05390625 5.14375,5.71875 5.43125,5.43125 C5.71875,5.14375 6.05390625,5 6.48515625,5 C6.48515625,5 6.48515625,5 6.48515625,5 C6.48515625,5 9.4546875,5 9.4546875,5 C9.8859375,5 10.2210938,5.14375 10.5085938,5.43125 C10.5085938,5.43125 10.5085938,5.43125 10.5085938,5.43125 C10.7476563,5.76640625 10.8914063,6.1015625 10.8914063,6.48515625 Z M15.2976563,5 C15.2976563,5 18.2671875,5 18.2671875,5 C18.6984375,5 19.0335938,5.14375 19.3210938,5.43125 C19.6085938,5.71875 19.7523438,6.05390625 19.7523438,6.48515625 C19.7523438,6.48515625 19.7523438,6.48515625 19.7523438,6.48515625 C19.7523438,6.48515625 19.7523438,18.2664062 19.7523438,18.2664062 C19.7523438,18.6976563 19.6085938,19.0328125 19.3210938,19.3203125 C19.0335938,19.6078125 18.6984375,19.7515625 18.2671875,19.7515625 C18.2671875,19.7515625 18.2671875,19.7515625 18.2671875,19.7515625 C18.2671875,19.7515625 15.2976563,19.7515625 15.2976563,19.7515625 C14.8664063,19.7515625 14.53125,19.6078125 14.24375,19.3203125 C14.24375,19.3203125 14.24375,19.3203125 14.24375,19.3203125 C14.0046875,18.9851563 13.8609375,18.65 13.8609375,18.2664062 C13.8609375,18.2664062 13.8609375,18.2664062 13.8609375,18.2664062 C13.8609375,18.2664062 13.8609375,6.48515625 13.8609375,6.48515625 C13.8609375,6.10234375 14.0046875,5.76640625 14.24375,5.43125 C14.24375,5.43125 14.24375,5.43125 14.24375,5.43125 C14.53125,5.14375 14.8664063,5 15.2976563,5 C15.2976563,5 15.2976563,5 15.2976563,5 Z"/>
  <title>Pause Solid</title>
</svg>