<svg xmlns="http://www.w3.org/2000/svg" viewBox="0 0 25 25" id="paypal">
  <path d="M22.6898438,8.85859375 C22.6898438,8.85859375 22.6898438,8.85859375 22.6898438,8.85859375 C22.8335938,9.67265625 22.8335938,10.6304687 22.59375,11.6367187 C22.59375,11.6367187 22.59375,11.6367187 22.59375,11.6367187 C21.8273438,15.7078125 19.2414063,17.71875 14.8828125,17.71875 C14.8828125,17.71875 14.8828125,17.71875 14.8828125,17.71875 C14.8828125,17.71875 14.2601563,17.71875 14.2601563,17.71875 C14.0210938,17.71875 13.8289063,17.7664062 13.6851563,17.9101562 C13.6851563,17.9101562 13.6851563,17.9101562 13.6851563,17.9101562 C13.5414063,18.1015625 13.3976563,18.2929687 13.35,18.5328125 C13.35,18.5328125 13.35,18.5328125 13.35,18.5328125 C13.35,18.5328125 13.3023438,18.771875 13.3023438,18.771875 C13.3023438,18.771875 12.5359375,23.5132812 12.5359375,23.5132812 C12.5359375,23.5132812 12.5359375,23.7046875 12.5359375,23.7046875 C12.4882813,23.8960938 12.3921875,24.0875 12.2007813,24.2796875 C12.2007813,24.2796875 12.2007813,24.2796875 12.2007813,24.2796875 C11.9617188,24.4234375 11.7695313,24.51875 11.578125,24.51875 C11.578125,24.51875 11.578125,24.51875 11.578125,24.51875 C11.578125,24.51875 8.1296875,24.51875 8.1296875,24.51875 C7.93828125,24.51875 7.79453125,24.4710937 7.6984375,24.3273438 C7.6984375,24.3273438 7.6984375,24.3273438 7.6984375,24.3273438 C7.60234375,24.23125 7.5546875,24.0398437 7.5546875,23.8007812 C7.5546875,23.8007812 7.5546875,23.8007812 7.5546875,23.8007812 C7.60234375,23.6570312 7.65078125,23.321875 7.74609375,22.7953125 C7.79375,22.3164062 7.88984375,21.8851563 7.9375,21.5023438 C7.9375,21.5023438 7.9375,21.5023438 7.9375,21.5023438 C7.98515625,21.2632812 8.03359375,20.9273437 8.08125,20.5921875 C8.12890625,20.2570312 8.17734375,20.0171875 8.225,19.778125 C8.27265625,19.5390625 8.27265625,19.346875 8.27265625,19.203125 C8.27265625,19.203125 8.27265625,19.203125 8.27265625,19.203125 C8.41640625,18.484375 8.51171875,17.7664062 8.65546875,16.9523437 C8.65546875,16.9523437 8.65546875,16.9523437 8.65546875,16.9523437 C8.7515625,16.1382812 8.89453125,15.371875 9.03828125,14.653125 C9.03828125,14.653125 9.03828125,14.653125 9.03828125,14.653125 C9.0859375,14.3179687 9.27734375,14.1265625 9.61328125,14.1265625 C9.61328125,14.1265625 9.61328125,14.1265625 9.61328125,14.1265625 C9.61328125,14.1265625 11.3851563,14.1265625 11.3851563,14.1265625 C12.5828125,14.1742187 13.684375,14.0789062 14.6421875,13.8390625 C14.6421875,13.8390625 14.6421875,13.8390625 14.6421875,13.8390625 C16.2226563,13.5039062 17.5632813,12.8335937 18.5695313,11.8757812 C18.5695313,11.8757812 18.5695313,11.8757812 18.5695313,11.8757812 C19.4796875,11.0140625 20.1976563,9.9125 20.6765625,8.5234375 C20.6765625,8.5234375 20.6765625,8.5234375 20.6765625,8.5234375 C20.915625,7.90078125 21.059375,7.32578125 21.1554688,6.70390625 C21.1554688,6.70390625 21.1554688,6.70390625 21.1554688,6.70390625 C21.1554688,6.70390625 21.203125,6.6078125 21.203125,6.6078125 C21.203125,6.56015625 21.203125,6.56015625 21.2507813,6.56015625 C21.2507813,6.56015625 21.2507813,6.56015625 21.2507813,6.56015625 C21.2984375,6.6078125 21.2984375,6.6078125 21.346875,6.6078125 C21.346875,6.6078125 21.346875,6.6078125 21.346875,6.6078125 C22.065625,7.1828125 22.4960938,7.9484375 22.6875,8.85859375 L22.6898438,8.85859375 Z M20.2945312,4.9796875 C20.2945312,4.9796875 20.2945312,4.9796875 20.2945312,4.9796875 C20.2945312,5.98515625 20.103125,7.08671875 19.671875,8.18828125 C19.671875,8.18828125 19.671875,8.18828125 19.671875,8.18828125 C18.953125,10.34375 17.6125,11.7804687 15.553125,12.4984375 C15.553125,12.4984375 15.553125,12.4984375 15.553125,12.4984375 C14.4992187,12.88125 13.35,13.0734375 12.1046875,13.0734375 C12.1046875,13.0734375 12.1046875,13.0734375 12.1046875,13.0734375 C12.1046875,13.1210937 11.6734375,13.1210937 10.859375,13.1210937 C10.859375,13.1210937 10.859375,13.1210937 10.859375,13.1210937 C10.859375,13.1210937 9.66171875,13.0734375 9.66171875,13.0734375 C8.7515625,13.0734375 8.17734375,13.5046875 8.03359375,14.4140625 C8.03359375,14.4140625 8.03359375,14.4140625 8.03359375,14.4140625 C7.9859375,14.4617187 7.60234375,16.85625 6.884375,21.6460937 C6.884375,21.6460937 6.884375,21.6460937 6.884375,21.6460937 C6.83671875,21.7421875 6.78828125,21.7898437 6.69296875,21.7898437 C6.69296875,21.7898437 6.69296875,21.7898437 6.69296875,21.7898437 C6.69296875,21.7898437 2.6703125,21.7898437 2.6703125,21.7898437 C2.43125,21.7898437 2.2875,21.69375 2.14375,21.5507812 C2.14375,21.5507812 2.14375,21.5507812 2.14375,21.5507812 C2.04765625,21.4070312 2,21.2632812 2,21.0242187 C2,21.0242187 2,21.0242187 2,21.0242187 C2,21.0242187 5.1609375,0.909375 5.1609375,0.909375 C5.20859375,0.6703125 5.3046875,0.478125 5.54375,0.2390625 C5.54375,0.2390625 5.54375,0.2390625 5.54375,0.2390625 C5.7828125,0.0953125 6.02265625,0 6.2625,0 C6.2625,0 6.2625,0 6.2625,0 C6.2625,0 14.4523437,0 14.4523437,0 C14.8351562,0 15.2664063,0.04765625 15.7929688,0.19140625 C15.7929688,0.19140625 15.7929688,0.19140625 15.7929688,0.19140625 C16.3195312,0.2875 16.7984375,0.43046875 17.3257812,0.62265625 C17.3257812,0.62265625 17.3257812,0.62265625 17.3257812,0.62265625 C18.33125,1.05390625 19.0976562,1.58046875 19.5289063,2.29921875 C19.5289063,2.29921875 19.5289063,2.29921875 19.5289063,2.29921875 C20.0554687,3.01796875 20.2953125,3.92734375 20.2953125,4.98125 L20.2945312,4.9796875 Z"/>
  <title>Paypal</title>
</svg>