<svg xmlns="http://www.w3.org/2000/svg" viewBox="0 0 25 25" id="peekpanel-arrow-left-solid">
  <path d="M5.88515625 0C5.88515625 0 7.846875.878125 7.846875 1.96171875 7.846875 1.96171875 7.846875 22.559375 7.846875 22.559375 7.846875 23.6429687 6.96875 24.5210937 5.88515625 24.5210937 5.88515625 24.5210937 1.96171875 24.5210937 1.96171875 24.5210937.878125 24.5210937 0 23.6429687 0 22.559375 0 22.559375 0 1.96171875 0 1.96171875 0 .878125.878125 0 1.96171875 0 1.96171875 0 5.88515625 0 5.88515625 0zM15.1145312 10.890625C15.1145312 10.890625 23.5528125 10.890625 23.5528125 10.890625 24.141875 10.890625 24.5207812 11.2703125 24.5207812 11.8609375 24.5207812 12.4734375 24.1528125 12.8789062 23.5528125 12.8789062 23.5528125 12.8789062 15.1160937 12.8789062 15.1160937 12.8789062 15.1160937 12.8789062 18.2864062 16.0570312 18.2864062 16.0570312 18.535625 16.2 18.6332812 16.4726562 18.6332812 16.8 18.6332812 17.390625 18.254375 17.7703125 17.6653125 17.7703125 17.4059375 17.7703125 17.17 17.6695312 16.9840625 17.4828125 16.9840625 17.4828125 12.0582812 12.5929688 12.0582812 12.5929688 12.0582812 12.5929688 11.9653125 12.4640625 11.9653125 12.4640625 11.8340625 12.2007812 11.77 12.0304688 11.77 11.8609375 11.77 11.7109375 11.8114062 11.6132812 11.9653125 11.30625 11.9653125 11.30625 12.0582812 11.1773438 12.0582812 11.1773438 12.0582812 11.1773438 16.9848437 6.2859375 16.9848437 6.2859375 17.17 6.10078125 17.4051562 6 17.6645312 6 18.2535937 6 18.6325 6.3796875 18.6325 6.9703125 18.6325 7.28125 18.5176562 7.54921875 18.2707812 7.7140625 18.2707812 7.7140625 15.11375 10.8914063 15.11375 10.8914063L15.1145312 10.890625z"/>
  <title>Peekpanel Arrow Left Solid</title>
</svg>