<svg xmlns="http://www.w3.org/2000/svg" viewBox="0 0 25 25" id="peekpanel-arrow-left">
  <path d="M5.88515625,0 C5.88515625,0 7.846875,0.878125 7.846875,1.96171875 C7.846875,1.96171875 7.846875,22.559375 7.846875,22.559375 C7.846875,23.6429687 6.96875,24.5210937 5.88515625,24.5210937 C5.88515625,24.5210937 1.96171875,24.5210937 1.96171875,24.5210937 C0.878125,24.5210937 0,23.6429687 0,22.559375 C0,22.559375 0,1.96171875 0,1.96171875 C0,0.878125 0.878125,0 1.96171875,0 C1.96171875,0 5.88515625,0 5.88515625,0 Z M5.88515625,1.96171875 C5.88515625,1.96171875 1.96171875,1.96171875 1.96171875,1.96171875 C1.96171875,1.96171875 1.96171875,22.559375 1.96171875,22.559375 C1.96171875,22.559375 5.88515625,22.559375 5.88515625,22.559375 C5.88515625,22.559375 5.88515625,1.96171875 5.88515625,1.96171875 Z M15.1140625,11.7570313 C15.1140625,11.7570313 23.5523437,11.7570313 23.5523437,11.7570313 C24.1414062,11.7570313 24.5203125,12.1367188 24.5203125,12.7273438 C24.5203125,13.3398438 24.1523437,13.7453125 23.5523437,13.7453125 C23.5523437,13.7453125 15.115625,13.7453125 15.115625,13.7453125 C15.115625,13.7453125 18.2859375,16.9234375 18.2859375,16.9234375 C18.5351562,17.0664063 18.6328125,17.3390625 18.6328125,17.6664063 C18.6328125,18.2570313 18.2539062,18.6367188 17.6648437,18.6367188 C17.4054687,18.6367188 17.1695312,18.5359375 16.9835937,18.3492188 C16.9835937,18.3492188 12.0578125,13.459375 12.0578125,13.459375 C12.0578125,13.459375 11.9648437,13.3304688 11.9648437,13.3304688 C11.8335937,13.0671875 11.7695312,12.896875 11.7695312,12.7273438 C11.7695312,12.5773438 11.8109375,12.4796875 11.9648437,12.1726563 C11.9648437,12.1726563 12.0578125,12.04375 12.0578125,12.04375 C12.0578125,12.04375 16.984375,7.15234375 16.984375,7.15234375 C17.1695312,6.9671875 17.4046875,6.86640625 17.6640625,6.86640625 C18.253125,6.86640625 18.6320312,7.24609375 18.6320312,7.83671875 C18.6320312,8.14765625 18.5171875,8.415625 18.2703125,8.58046875 C18.2703125,8.58046875 15.1132812,11.7578125 15.1132812,11.7578125 L15.1140625,11.7570313 Z"/>
  <title>Peekpanel Arrow Left</title>
</svg>