<svg xmlns="http://www.w3.org/2000/svg" viewBox="0 0 25 25" id="peekpanel-arrow-right">
  <path d="M18.6367188,0 C18.6367188,0 22.5601563,0 22.5601563,0 C23.64375,0 24.521875,0.878125 24.521875,1.96171875 C24.521875,1.96171875 24.521875,22.559375 24.521875,22.559375 C24.521875,23.6429687 23.64375,24.5210937 22.5601563,24.5210937 C22.5601563,24.5210937 18.6367188,24.5210937 18.6367188,24.5210937 C17.553125,24.5210937 16.675,23.6429687 16.675,22.559375 C16.675,22.559375 16.675,1.96171875 16.675,1.96171875 C16.675,0.878125 17.553125,0 18.6367188,0 Z M18.6367188,1.96171875 C18.6367188,1.96171875 18.6367188,22.559375 18.6367188,22.559375 C18.6367188,22.559375 22.5601562,22.559375 22.5601562,22.559375 C22.5601562,22.559375 22.5601562,1.96171875 22.5601562,1.96171875 C22.5601562,1.96171875 18.6367188,1.96171875 18.6367188,1.96171875 Z M6.25,8.5796875 C6.003125,8.41484375 5.88828125,8.146875 5.88828125,7.8359375 C5.88828125,7.2453125 6.2671875,6.865625 6.85625,6.865625 C7.115625,6.865625 7.3515625,6.96640625 7.5359375,7.1515625 C7.5359375,7.1515625 12.4625,12.0429688 12.4625,12.0429688 C12.4625,12.0429688 12.5554687,12.171875 12.5554687,12.171875 C12.7085938,12.4796875 12.7507812,12.5773438 12.7507812,12.7265625 C12.7507812,12.8953125 12.6867187,13.0664062 12.5554687,13.3296875 C12.5554687,13.3296875 12.4625,13.4585938 12.4625,13.4585938 C12.4625,13.4585938 7.53671875,18.3484375 7.53671875,18.3484375 C7.35078125,18.5351562 7.115625,18.6359375 6.85546875,18.6359375 C6.26640625,18.6359375 5.8875,18.25625 5.8875,17.665625 C5.8875,17.3390625 5.98515625,17.0664062 6.234375,16.9226562 C6.234375,16.9226562 9.4046875,13.7445313 9.4046875,13.7445313 C9.4046875,13.7445313 0.96796875,13.7445313 0.96796875,13.7445313 C0.36796875,13.7445313 0,13.3390625 0,12.7265625 C0,12.1359375 0.37890625,11.75625 0.96796875,11.75625 C0.96796875,11.75625 9.40625,11.75625 9.40625,11.75625 C9.40625,11.75625 6.24921875,8.57890625 6.24921875,8.57890625 L6.25,8.5796875 Z"/>
  <title>Peekpanel Arrow Right</title>
</svg>