<svg xmlns="http://www.w3.org/2000/svg" viewBox="0 0 25 25" id="pega">
  <path d="M12.9734375,9.91015625 C12.9734375,9.91015625 12.9734375,9.91015625 12.9734375,9.91015625 C13.5960937,9.2875 14.3625,9 15.3203125,9 C15.3203125,9 15.3203125,9 15.3203125,9 C16.2304688,9 16.9484375,9.2390625 17.5234375,9.76640625 C17.5234375,9.76640625 17.5234375,9.76640625 17.5234375,9.76640625 C17.5234375,9.76640625 16.8046875,10.7242188 16.8046875,10.7242188 C16.6132812,10.5328125 16.421875,10.3890625 16.1820313,10.3414063 C16.1820313,10.3414063 16.1820313,10.3414063 16.1820313,10.3414063 C15.9429687,10.2453125 15.703125,10.1976563 15.3679687,10.1976563 C15.3679687,10.1976563 15.3679687,10.1976563 15.3679687,10.1976563 C14.7929687,10.1976563 14.3140625,10.3890625 13.93125,10.7726563 C13.5484375,11.15625 13.35625,11.634375 13.35625,12.209375 C13.35625,12.209375 13.35625,12.209375 13.35625,12.209375 C13.35625,12.8320313 13.5476562,13.3109375 13.93125,13.69375 C13.93125,13.69375 13.93125,13.69375 13.93125,13.69375 C14.3625,14.0289063 14.7929688,14.2203125 15.271875,14.2203125 C15.271875,14.2203125 15.271875,14.2203125 15.271875,14.2203125 C15.7984375,14.2203125 16.2296875,14.1242188 16.5648438,13.9328125 C16.5648438,13.9328125 16.5648438,13.9328125 16.5648438,13.9328125 C16.5648438,13.9328125 16.5648438,12.7835938 16.5648438,12.7835938 C16.5648438,12.7835938 15.2242188,12.7835938 15.2242188,12.7835938 C15.2242188,12.7835938 15.2242188,11.6820313 15.2242188,11.6820313 C15.2242188,11.6820313 17.8585938,11.6820313 17.8585938,11.6820313 C17.8585938,11.6820313 17.8585938,14.4601563 17.8585938,14.4601563 C17.8585938,14.4601563 17.8109375,14.5078125 17.8109375,14.5078125 C17.2359375,15.1304688 16.421875,15.465625 15.3203125,15.465625 C15.3203125,15.465625 15.3203125,15.465625 15.3203125,15.465625 C14.4101563,15.465625 13.64375,15.178125 12.9734375,14.5554688 C12.9734375,14.5554688 12.9734375,14.5554688 12.9734375,14.5554688 C12.3507812,13.9328125 12.015625,13.11875 12.015625,12.2085938 C12.015625,12.2085938 12.015625,12.2085938 12.015625,12.2085938 C12.015625,11.2984375 12.3507812,10.5320313 12.9734375,9.909375 L12.9734375,9.91015625 Z M1,9.23984375 C1,9.23984375 3.39453125,9.23984375 3.39453125,9.23984375 C4.11328125,9.23984375 4.6875,9.43125 5.11875,9.81484375 C5.55,10.1984375 5.74140625,10.725 5.74140625,11.3476562 C5.74140625,11.3476562 5.74140625,11.3476562 5.74140625,11.3476562 C5.74140625,12.0179687 5.50234375,12.5453125 5.07109375,12.8804688 C4.5921875,13.2632812 4.0171875,13.4554687 3.29921875,13.4554687 C3.29921875,13.4554687 3.29921875,13.4554687 3.29921875,13.4554687 C3.29921875,13.4554687 2.29375,13.4554687 2.29375,13.4554687 C2.29375,13.4554687 2.29375,15.275 2.29375,15.275 C2.29375,15.275 1.00078125,15.275 1.00078125,15.275 C1.00078125,15.275 1.00078125,9.240625 1.00078125,9.240625 L1,9.23984375 Z M10.675,12.83125 C10.675,12.83125 8.040625,12.83125 8.040625,12.83125 C8.040625,12.83125 8.040625,14.0765625 8.040625,14.0765625 C8.040625,14.0765625 11.2976563,14.0765625 11.2976563,14.0765625 C11.2976563,14.0765625 11.2976563,15.2742188 11.2976563,15.2742188 C11.2976563,15.2742188 6.7,15.2742188 6.7,15.2742188 C6.7,15.2742188 6.7,9.23984375 6.7,9.23984375 C6.7,9.23984375 11.2976563,9.23984375 11.2976563,9.23984375 C11.2976563,9.23984375 11.2976563,10.4375 11.2976563,10.4375 C11.2976563,10.4375 8.040625,10.4375 8.040625,10.4375 C8.040625,10.4375 8.040625,11.6828125 8.040625,11.6828125 C8.040625,11.6828125 10.675,11.6828125 10.675,11.6828125 C10.675,11.6828125 10.675,12.8320312 10.675,12.8320312 L10.675,12.83125 Z M18.48125,15.2742187 C18.48125,15.2742187 21.0671875,9.23984375 21.0671875,9.23984375 C21.0671875,9.23984375 22.2648438,9.23984375 22.2648438,9.23984375 C22.2648438,9.23984375 24.8507813,15.2742187 24.8507813,15.2742187 C24.8507813,15.2742187 23.4617188,15.2742187 23.4617188,15.2742187 C23.4617188,15.2742187 22.8867188,13.9335937 22.8867188,13.9335937 C22.8867188,13.9335937 20.3960938,13.9335937 20.3960938,13.9335937 C20.3960938,13.9335937 19.8210938,15.2742187 19.8210938,15.2742187 C19.8210938,15.2742187 18.4804688,15.2742187 18.4804688,15.2742187 L18.48125,15.2742187 Z M23.8453125,9.23984375 C23.8453125,9.23984375 23.8453125,9.23984375 23.8453125,9.23984375 C24.1804687,9.23984375 24.3242188,9.38359375 24.3242188,9.67109375 C24.3242188,9.67109375 24.3242188,9.67109375 24.3242188,9.67109375 C24.3242188,10.00625 24.1804687,10.15 23.8453125,10.15 C23.8453125,10.15 23.8453125,10.15 23.8453125,10.15 C23.5578125,10.15 23.4140625,10.00625 23.4140625,9.67109375 C23.4140625,9.67109375 23.4140625,9.67109375 23.4140625,9.67109375 C23.4140625,9.38359375 23.5578125,9.23984375 23.8453125,9.23984375 Z M24.228125,9.67109375 C24.228125,9.67109375 24.228125,9.67109375 24.228125,9.67109375 C24.228125,9.43203125 24.084375,9.28828125 23.8453125,9.28828125 C23.60625,9.28828125 23.4625,9.43203125 23.4625,9.67109375 C23.4625,9.67109375 23.4625,9.67109375 23.4625,9.67109375 C23.4625,9.95859375 23.60625,10.1023437 23.8453125,10.1023437 C24.084375,10.1023437 24.228125,9.95859375 24.228125,9.67109375 Z M23.796875,9.76640625 C23.796875,9.76640625 23.796875,9.9578125 23.796875,9.9578125 C23.796875,9.9578125 23.7007812,9.9578125 23.7007812,9.9578125 C23.7007812,9.9578125 23.7007812,9.43125 23.7007812,9.43125 C23.7007812,9.43125 23.8445312,9.43125 23.8445312,9.43125 C23.8445312,9.43125 23.9882812,9.43125 23.9882812,9.43125 C24.0359375,9.47890625 24.0359375,9.52734375 24.0359375,9.575 C24.0359375,9.575 24.0359375,9.575 24.0359375,9.575 C24.0359375,9.62265625 24.0359375,9.62265625 23.9882812,9.67109375 C23.9882812,9.67109375 23.9882812,9.67109375 23.9882812,9.67109375 C23.9882812,9.67109375 23.940625,9.71875 23.940625,9.71875 C23.940625,9.71875 24.084375,9.9578125 24.084375,9.9578125 C24.084375,9.9578125 23.940625,9.9578125 23.940625,9.9578125 C23.940625,9.9578125 23.8445312,9.76640625 23.8445312,9.76640625 C23.8445312,9.76640625 23.796875,9.76640625 23.796875,9.76640625 L23.796875,9.76640625 Z M23.8453125,9.47890625 C23.8453125,9.47890625 23.7976562,9.47890625 23.7976562,9.47890625 C23.7976562,9.47890625 23.7976562,9.6703125 23.7976562,9.6703125 C23.7976562,9.6703125 23.8453125,9.6703125 23.8453125,9.6703125 C23.8929687,9.6703125 23.8929687,9.6703125 23.9414062,9.62265625 C23.9414062,9.62265625 23.9414062,9.62265625 23.9414062,9.62265625 C23.9414062,9.62265625 23.9414062,9.575 23.9414062,9.575 C23.9414062,9.575 23.9414062,9.52734375 23.9414062,9.52734375 C23.89375,9.4796875 23.89375,9.4796875 23.8453125,9.4796875 C23.8453125,9.4796875 23.8453125,9.4796875 23.8453125,9.4796875 L23.8453125,9.47890625 Z M3.346875,12.2570312 C4.065625,12.2570312 4.40078125,11.9695312 4.40078125,11.346875 C4.40078125,10.7242187 4.01796875,10.4367187 3.29921875,10.4367187 C3.29921875,10.4367187 3.29921875,10.4367187 3.29921875,10.4367187 C3.29921875,10.4367187 2.29375,10.4367187 2.29375,10.4367187 C2.29375,10.4367187 2.29375,12.25625 2.29375,12.25625 C2.29375,12.25625 3.34765625,12.25625 3.34765625,12.25625 L3.346875,12.2570312 Z M21.6421875,10.8203125 C21.6421875,10.8203125 20.828125,12.7835937 20.828125,12.7835937 C20.828125,12.7835937 22.45625,12.7835937 22.45625,12.7835937 C22.45625,12.7835937 21.6421875,10.8203125 21.6421875,10.8203125 L21.6421875,10.8203125 Z"/>
  <title>Pega</title>
</svg>