<svg xmlns="http://www.w3.org/2000/svg" viewBox="0 0 25 25" id="pegasus">
  <path d="M12.5476563,8.57403079 C12.5476563,8.57403079 12.5476563,8.57403079 12.5476563,8.57403079 C12.3085938,9.48418704 12.3085938,10.4419995 12.4515625,11.4951245 C12.4515625,11.4951245 12.4515625,11.4951245 12.4515625,11.4951245 C12.3554688,11.4474683 12.2125,11.4474683 12.06875,11.3990308 C11.8773438,11.3513745 11.7335938,11.3513745 11.6859375,11.3513745 C11.6859375,11.3513745 11.6859375,11.3513745 11.6859375,11.3513745 C9.1,10.9201245 7.23203125,11.2076245 6.13046875,12.1177808 C5.02890625,13.027937 4.64609375,14.1771558 5.02890625,15.4701245 C5.02890625,15.4701245 5.02890625,15.4701245 5.02890625,15.4701245 C3.3046875,16.0927808 1.628125,16.859187 0,17.7693433 C0,17.7693433 0,17.7693433 0,17.7693433 C1.1015625,15.087312 2.7296875,12.740437 4.88515625,10.681062 C6.9921875,8.66934329 9.0515625,7.52012454 11.0632813,7.18496829 C11.0632813,7.18496829 11.0632813,7.18496829 11.0632813,7.18496829 C11.6859375,7.13731204 12.1171875,7.23262454 12.35625,7.52012454 C12.5953125,7.80762454 12.64375,8.14278079 12.5476563,8.57403079 L12.5476563,8.57403079 Z M24.3773438,12.8357495 C24.3773438,12.8357495 24.3773438,12.8357495 24.3773438,12.8357495 C24.2335938,13.1232495 24.0898438,13.3146558 24.0421875,13.4107495 C24.0421875,13.4107495 24.0421875,13.4107495 24.0421875,13.4107495 C23.8984375,13.6982495 23.659375,13.7459058 23.2757813,13.5544995 C23.2757813,13.5544995 23.2757813,13.5544995 23.2757813,13.5544995 C22.4617188,13.027937 21.7914063,12.740437 21.3601563,12.7880933 C21.3601563,12.7880933 21.3601563,12.7880933 21.3601563,12.7880933 C19.9234375,12.884187 18.8695313,12.596687 18.1515625,11.877937 C18.1515625,11.877937 18.1515625,11.877937 18.1515625,11.877937 C18.0554688,11.7818433 18.0078125,11.7818433 18.0078125,11.877937 C18.0078125,11.877937 18.0078125,11.877937 18.0078125,11.877937 C18.0078125,11.9255933 18.0078125,11.9740308 18.0554688,12.021687 C18.0554688,12.021687 18.0554688,12.021687 18.0554688,12.021687 C18.1992188,12.2607495 18.4867188,12.5005933 18.821875,12.740437 C19.1570313,12.9802808 19.4921875,13.1232495 19.7320313,13.2193433 C19.7320313,13.2193433 19.7320313,13.2193433 19.7320313,13.2193433 C19.7320313,13.2193433 20.1632813,13.3630933 20.1632813,13.3630933 C20.4507813,14.0334058 20.5945313,14.6084058 20.6421875,15.087312 C20.6421875,15.087312 20.6421875,15.087312 20.6421875,15.087312 C20.403125,14.8482495 19.9234375,14.6084058 19.3015625,14.2732495 C19.3015625,14.2732495 19.3015625,14.2732495 19.3015625,14.2732495 C17.5296875,13.0755933 15.5179688,12.2138745 13.3148438,11.687312 C13.3148438,11.687312 13.3148438,11.687312 13.3148438,11.687312 C13.3625,11.0646558 13.4585938,10.4419995 13.65,9.91543704 C13.8414062,9.38887454 14.1765625,8.86153079 14.6078125,8.33496829 C15.0390625,7.80840579 15.709375,7.42481204 16.5710938,7.18574954 C17.4328125,6.94668704 18.4867188,6.94668704 19.684375,7.13809329 C19.684375,7.13809329 19.684375,7.13809329 19.684375,7.13809329 C20.403125,7.23418704 20.9773438,7.42559329 21.4085938,7.76074954 C21.4085938,7.76074954 21.4085938,7.76074954 21.4085938,7.76074954 C21.3125,7.90449954 21.1695313,7.99981204 21.0257813,8.14356204 C21.0257813,8.14356204 21.0257813,8.14356204 21.0257813,8.14356204 C20.978125,8.19121829 20.9296875,8.28731204 20.9296875,8.33496829 C20.9296875,8.33496829 20.9296875,8.33496829 20.9296875,8.33496829 C20.9296875,8.43106204 20.9773438,8.47871829 21.0734375,8.52637454 C21.0734375,8.52637454 21.0734375,8.52637454 21.0734375,8.52637454 C21.0734375,8.52637454 22.1273438,9.34043704 22.1273438,9.34043704 C22.1273438,9.72324954 22.2710938,10.059187 22.5101563,10.3459058 C22.5101563,10.3459058 22.5101563,10.3459058 22.5101563,10.3459058 C22.6539063,10.4896558 22.9890625,10.8724683 23.515625,11.399812 C24.0421875,11.9271558 24.2820313,12.2615308 24.3296875,12.3099683 C24.3296875,12.3099683 24.3296875,12.3099683 24.3296875,12.3099683 C24.4734375,12.4537183 24.4734375,12.5974683 24.3773438,12.8365308 L24.3773438,12.8357495 Z M21.6953125,10.1544995 C21.6953125,10.1544995 21.8390625,9.72324954 21.8390625,9.72324954 C21.8390625,9.72324954 21.7914062,9.72324954 21.7914062,9.72324954 C21.5523437,9.57949954 21.3125,9.62715579 21.16875,9.86699954 C21.16875,9.86699954 21.16875,9.86699954 21.16875,9.86699954 C21.16875,9.86699954 21.1210937,9.86699954 21.1210937,9.86699954 C21.1210937,9.86699954 21.6960937,10.1544995 21.6960937,10.1544995 L21.6953125,10.1544995 Z M5.2203125,15.374812 C5.2203125,15.374812 5.2203125,15.374812 5.2203125,15.374812 C4.88515625,14.1294995 5.2203125,13.0755933 6.321875,12.2138745 C7.4234375,11.3521558 9.1953125,11.112312 11.7335937,11.4951245 C11.7335937,11.4951245 11.7335937,11.4951245 11.7335937,11.4951245 C12.06875,11.5427808 12.3085937,11.5912183 12.5,11.6388745 C12.5,11.6388745 12.5,11.6388745 12.5,11.6388745 C12.5960914,12.2138745 12.7875,12.8365308 13.0265625,13.459187 C13.0265625,13.459187 13.0265625,13.459187 13.0265625,13.459187 C10.8234375,13.6982495 8.2375,14.3209058 5.2203125,15.374812 L5.2203125,15.374812 Z M13.3140625,13.4584058 C13.3140625,13.4584058 13.3140625,13.4584058 13.3140625,13.4584058 C15.4695313,13.2669995 17.3851563,13.5544995 18.965625,14.2724683 C18.965625,14.2724683 18.965625,14.2724683 18.965625,14.2724683 C17.19375,13.074812 15.278125,12.2607495 13.2664063,11.8302808 C13.2664063,11.8302808 13.2664063,11.8302808 13.2664063,11.8302808 C13.21875,12.4052808 13.21875,12.9318433 13.3140625,13.4584058 L13.3140625,13.4584058 Z"/>
  <title>Pegasus</title>
</svg>