<svg xmlns="http://www.w3.org/2000/svg" viewBox="0 0 25 25" id="pen-solid">
  <path d="M16.1710938,4.3890625 C16.1710938,4.3890625 17.5601563,3 17.5601563,3 C17.5601563,3 21.05625,6.4484375 21.05625,6.4484375 C21.05625,6.4484375 7.35859375,20.1460937 7.35859375,20.1460937 C7.35859375,20.1460937 5.634375,19.8109375 5.634375,19.8109375 C5.634375,19.8109375 4.3890625,21.0085937 4.3890625,21.0085937 C4.3890625,21.0085937 3.33515625,20.6734375 3.33515625,20.6734375 C3.33515625,20.6734375 3,19.6195313 3,19.6195313 C3,19.6195313 4.2453125,18.421875 4.2453125,18.421875 C4.2453125,18.421875 3.8625,16.6976563 3.8625,16.6976563 C3.8625,16.6976563 15.5007812,5.059375 15.5007812,5.059375 C15.5007812,5.059375 14.8304687,4.3890625 14.8304687,4.3890625 C14.8304687,4.3890625 7.8859375,11.3335938 7.8859375,11.3335938 C7.8859375,11.3335938 7.1671875,10.6148438 7.1671875,10.6148438 C7.1671875,10.6148438 14.7820312,3 14.7820312,3 C14.7820312,3 16.1710937,4.3890625 16.1710937,4.3890625 L16.1710938,4.3890625 Z M15.5007813,5.059375 C15.5007813,5.059375 18.9492188,8.55546875 18.9492188,8.55546875 C18.9492188,8.55546875 19.6679688,7.83671875 19.6679688,7.83671875 C19.6679688,7.83671875 16.171875,4.38828125 16.171875,4.38828125 C16.171875,4.38828125 15.5015625,5.05859375 15.5015625,5.05859375 L15.5007813,5.059375 Z"/>
  <title>Pen Solid</title>
</svg>