<svg xmlns="http://www.w3.org/2000/svg" viewBox="0 0 25 25" id="pen">
  <path d="M16.1710938,4.3890625 C16.1710938,4.3890625 17.5601563,3 17.5601563,3 C17.5601563,3 21.05625,6.4484375 21.05625,6.4484375 C21.05625,6.4484375 7.35859375,20.1460937 7.35859375,20.1460937 C7.35859375,20.1460937 5.634375,19.8109375 5.634375,19.8109375 C5.634375,19.8109375 4.3890625,21.0085937 4.3890625,21.0085937 C4.3890625,21.0085937 3.33515625,20.6734375 3.33515625,20.6734375 C3.33515625,20.6734375 3,19.6195313 3,19.6195313 C3,19.6195313 4.2453125,18.421875 4.2453125,18.421875 C4.2453125,18.421875 3.8625,16.6976563 3.8625,16.6976563 C3.8625,16.6976563 15.5007812,5.059375 15.5007812,5.059375 C15.5007812,5.059375 14.8304687,4.3890625 14.8304687,4.3890625 C14.8304687,4.3890625 7.8859375,11.3335938 7.8859375,11.3335938 C7.8859375,11.3335938 7.1671875,10.6148438 7.1671875,10.6148438 C7.1671875,10.6148438 14.7820312,3 14.7820312,3 C14.7820312,3 16.1710937,4.3890625 16.1710937,4.3890625 L16.1710938,4.3890625 Z M5.44296875,18.6132812 C5.44296875,18.6132812 7.2625,18.9007812 7.2625,18.9007812 C7.2625,18.9007812 18.278125,7.8375 18.278125,7.8375 C18.278125,7.8375 16.21875,5.778125 16.21875,5.778125 C16.21875,5.778125 5.15546875,16.79375 5.15546875,16.79375 C5.15546875,16.79375 5.44296875,18.6132812 5.44296875,18.6132812 Z M16.8898438,5.10703125 C16.8898438,5.10703125 18.996875,7.16640625 18.996875,7.16640625 C18.996875,7.16640625 19.6671875,6.44765625 19.6671875,6.44765625 C19.6671875,6.44765625 17.6078125,4.38828125 17.6078125,4.38828125 C17.6078125,4.38828125 16.8890625,5.10703125 16.8890625,5.10703125 L16.8898438,5.10703125 Z"/>
  <title>Pen</title>
</svg>