<svg xmlns="http://www.w3.org/2000/svg" viewBox="0 0 25 25" id="pencil-solid">
  <path d="M21.1992188,8.26875 C21.1992188,8.26875 21.1992188,8.26875 21.1992188,8.26875 C21.1992188,8.26875 20.1453125,9.32265625 20.1453125,9.32265625 C20.1453125,9.32265625 15.3078125,4.48515625 15.3078125,4.48515625 C15.3078125,4.48515625 16.3617188,3.43125 16.3617188,3.43125 C16.6007813,3.14375 16.9367188,3 17.3671875,3 C17.3671875,3 17.3671875,3 17.3671875,3 C17.8460938,3 18.18125,3.14375 18.4210938,3.43125 C18.4210938,3.43125 18.4210938,3.43125 18.4210938,3.43125 C18.4210938,3.43125 21.1992188,6.209375 21.1992188,6.209375 C21.4867188,6.4484375 21.6304688,6.784375 21.6304688,7.26328125 C21.6304688,7.7421875 21.4867188,8.07734375 21.1992188,8.26875 Z M3.43046875,16.3625 C3.43046875,16.3625 14.5898438,5.15546875 14.5898438,5.15546875 C14.5898438,5.15546875 19.475,9.99296875 19.475,9.99296875 C19.475,9.99296875 8.26796875,21.2 8.26796875,21.2 C8.0765625,21.4875 7.74140625,21.63125 7.2625,21.63125 C7.2625,21.63125 7.2625,21.63125 7.2625,21.63125 C7.2625,21.63125 3.9578125,21.63125 3.9578125,21.63125 C3.71875,21.63125 3.47890625,21.5351562 3.2875,21.34375 C3.09609375,21.1523438 3,20.9125 3,20.625 C3,20.625 3,20.625 3,20.625 C3,20.625 3,17.3679687 3,17.3679687 C3,16.9367187 3.14375,16.6015625 3.43125,16.3625 C3.43125,16.3625 3.43125,16.3625 3.43125,16.3625 L3.43046875,16.3625 Z"/>
  <title>Pencil Solid</title>
</svg>