<svg xmlns="http://www.w3.org/2000/svg" viewBox="0 0 25 25" id="pencil">
  <path d="M18.4210937,3.43125 C18.4210937,3.43125 21.1992188,6.209375 21.1992188,6.209375 C21.4867187,6.496875 21.6304687,6.83203125 21.6304687,7.26328125 C21.6304687,7.26328125 21.6304687,7.26328125 21.6304687,7.26328125 C21.6304687,7.7421875 21.4867187,8.07734375 21.1992188,8.26875 C21.1992188,8.26875 21.1992188,8.26875 21.1992188,8.26875 C21.1992188,8.26875 8.26796875,21.2 8.26796875,21.2 C8.02890625,21.4875 7.69296875,21.63125 7.2625,21.63125 C7.2625,21.63125 7.2625,21.63125 7.2625,21.63125 C7.2625,21.63125 3.9578125,21.63125 3.9578125,21.63125 C3.71875,21.63125 3.47890625,21.5351562 3.2875,21.34375 C3.09609375,21.1523438 3,20.9125 3,20.625 C3,20.625 3,20.625 3,20.625 C3,20.625 3,17.3679687 3,17.3679687 C3,16.9367187 3.14375,16.6015625 3.43125,16.3625 C3.43125,16.3625 3.43125,16.3625 3.43125,16.3625 C3.43125,16.3625 16.3625,3.43125 16.3625,3.43125 C16.65,3.14375 16.9851562,3 17.3679687,3 C17.3679687,3 17.3679687,3 17.3679687,3 C17.846875,3 18.1820313,3.14375 18.421875,3.43125 C18.421875,3.43125 18.421875,3.43125 18.421875,3.43125 L18.4210937,3.43125 Z M7.59765625,20.4804688 C7.59765625,20.4804688 7.59765625,20.4804688 7.59765625,20.4804688 C7.59765625,20.4804688 18.7570313,9.32109375 18.7570313,9.32109375 C18.7570313,9.32109375 15.3085938,5.87265625 15.3085938,5.87265625 C15.3085938,5.87265625 4.1015625,17.0320312 4.1015625,17.0320312 C4.1015625,17.0320312 3.9578125,17.3671875 3.9578125,17.3671875 C3.9578125,17.3671875 3.9578125,20.6242188 3.9578125,20.6242188 C3.9578125,20.6242188 7.2625,20.6242188 7.2625,20.6242188 C7.40625,20.6242188 7.5015625,20.5765625 7.59765625,20.4804688 Z M19.475,8.603125 C19.475,8.603125 20.5289062,7.59765625 20.5289062,7.59765625 C20.625,7.40625 20.6726562,7.31015625 20.6726562,7.2625 C20.6726562,7.2625 20.6726562,7.2625 20.6726562,7.2625 C20.6726562,7.21484375 20.625,7.07109375 20.5289062,6.8796875 C20.5289062,6.8796875 20.5289062,6.8796875 20.5289062,6.8796875 C20.5289062,6.8796875 17.7507812,4.1015625 17.7507812,4.1015625 C17.6546875,4.00546875 17.5117187,3.9578125 17.3679687,3.9578125 C17.3679687,3.9578125 17.3679687,3.9578125 17.3679687,3.9578125 C17.2242187,3.9578125 17.1289062,4.00546875 17.0328125,4.1015625 C17.0328125,4.1015625 17.0328125,4.1015625 17.0328125,4.1015625 C17.0328125,4.1015625 15.9789062,5.15546875 15.9789062,5.15546875 C15.9789062,5.15546875 19.475,8.60390625 19.475,8.60390625 L19.475,8.603125 Z"/>
  <title>Pencil</title>
</svg>