<svg xmlns="http://www.w3.org/2000/svg" viewBox="0 0 25 25" id="person-solid">
  <path d="M10.3,6.028125 C10.3,6.028125 10.3,6.028125 10.3,6.028125 C9.7734375,5.5015625 9.4859375,4.7828125 9.4859375,3.96875 C9.4859375,3.1546875 9.7734375,2.4359375 10.3476562,1.86171875 C10.9226562,1.28671875 11.5929687,1 12.4070312,1 C13.2210937,1 13.8914062,1.2875 14.5140625,1.91015625 C14.5140625,1.91015625 14.5140625,1.91015625 14.5140625,1.91015625 C15.0890625,2.48515625 15.3757812,3.15546875 15.3757812,3.96953125 C15.3757812,4.78359375 15.0882812,5.45390625 14.5140625,6.02890625 C13.9390625,6.60390625 13.2210937,6.890625 12.4070312,6.890625 C11.5929687,6.890625 10.8742187,6.603125 10.3,6.02890625 L10.3,6.028125 Z M9.43828125,8.9015625 C10.0609375,8.23125 11.0664062,7.89609375 12.4078125,7.89609375 C13.7492188,7.89609375 14.7546875,8.23125 15.3773438,8.9015625 C15.3773438,8.9015625 15.3773438,8.9015625 15.3773438,8.9015625 C16.3351563,9.859375 16.8140625,11.0570312 16.8140625,12.4453125 C16.8140625,12.4453125 16.8140625,12.4453125 16.8140625,12.4453125 C16.8140625,12.4453125 16.8140625,14.9835937 16.8140625,14.9835937 C16.8140625,15.3664062 16.6703125,15.75 16.3828125,16.0851562 C16.3828125,16.0851562 16.3828125,16.0851562 16.3828125,16.0851562 C16.0953125,16.3726562 15.7601562,16.5164062 15.3289062,16.5164062 C15.3289062,16.5164062 15.3289062,16.5164062 15.3289062,16.5164062 C15.3289062,16.5164062 14.85,16.5164062 14.85,16.5164062 C14.85,16.5164062 14.85,22.071875 14.85,22.071875 C14.85,22.503125 14.70625,22.8382812 14.41875,23.1257812 C14.41875,23.1257812 14.41875,23.1257812 14.41875,23.1257812 C14.0835938,23.4609375 13.7484375,23.6046875 13.3648438,23.6046875 C13.3648438,23.6046875 13.3648438,23.6046875 13.3648438,23.6046875 C13.3648438,23.6046875 11.4492188,23.6046875 11.4492188,23.6046875 C11.0664062,23.6046875 10.7304688,23.4609375 10.3953125,23.1257812 C10.3953125,23.1257812 10.3953125,23.1257812 10.3953125,23.1257812 C10.1078125,22.8382812 9.9640625,22.503125 9.9640625,22.071875 C9.9640625,22.071875 9.9640625,22.071875 9.9640625,22.071875 C9.9640625,22.071875 9.9640625,16.5164062 9.9640625,16.5164062 C9.9640625,16.5164062 9.48515625,16.5164062 9.48515625,16.5164062 C9.05390625,16.5164062 8.71875,16.3726562 8.43125,16.0851562 C8.43125,16.0851562 8.43125,16.0851562 8.43125,16.0851562 C8.14375,15.75 8,15.3664062 8,14.9835937 C8,14.9835937 8,14.9835937 8,14.9835937 C8,14.9835937 8,12.4453125 8,12.4453125 C8,11.05625 8.47890625,9.859375 9.43671875,8.9015625 C9.43671875,8.9015625 9.43671875,8.9015625 9.43671875,8.9015625 L9.43828125,8.9015625 Z"/>
  <title>Person Solid</title>
</svg>