<svg xmlns="http://www.w3.org/2000/svg" viewBox="0 0 25 25" id="person">
  <path d="M10.3,6.028125 C10.3,6.028125 10.3,6.028125 10.3,6.028125 C9.7734375,5.5015625 9.4859375,4.7828125 9.4859375,3.96875 C9.4859375,3.1546875 9.7734375,2.4359375 10.3476562,1.86171875 C10.9226562,1.28671875 11.5929687,1 12.4070312,1 C13.2210937,1 13.8914062,1.2875 14.5140625,1.91015625 C14.5140625,1.91015625 14.5140625,1.91015625 14.5140625,1.91015625 C15.0890625,2.48515625 15.3757812,3.15546875 15.3757812,3.96953125 C15.3757812,4.78359375 15.0882812,5.45390625 14.5140625,6.02890625 C13.9390625,6.60390625 13.2210937,6.890625 12.4070312,6.890625 C11.5929687,6.890625 10.8742187,6.603125 10.3,6.02890625 L10.3,6.028125 Z M12.4078125,2.00546875 C11.88125,2.00546875 11.4023438,2.196875 11.01875,2.58046875 C10.6351562,2.9640625 10.44375,3.4421875 10.44375,3.96953125 C10.44375,4.49609375 10.6351562,4.975 11.01875,5.35859375 C11.4023438,5.7421875 11.8804687,5.93359375 12.4078125,5.93359375 C12.934375,5.93359375 13.4132812,5.7421875 13.796875,5.35859375 C14.1804687,4.975 14.371875,4.496875 14.371875,3.96953125 C14.371875,3.44296875 14.1804687,2.9640625 13.796875,2.58046875 C13.4132812,2.196875 12.9351562,2.00546875 12.4078125,2.00546875 Z M9.43828125,8.9015625 C10.0609375,8.23125 11.0664062,7.89609375 12.4078125,7.89609375 C13.7492188,7.89609375 14.7546875,8.23125 15.3773438,8.9015625 C15.3773438,8.9015625 15.3773438,8.9015625 15.3773438,8.9015625 C16.3351563,9.859375 16.8140625,11.0570312 16.8140625,12.4453125 C16.8140625,12.4453125 16.8140625,12.4453125 16.8140625,12.4453125 C16.8140625,12.4453125 16.8140625,14.9835937 16.8140625,14.9835937 C16.8140625,15.3664062 16.6703125,15.75 16.3828125,16.0851562 C16.3828125,16.0851562 16.3828125,16.0851562 16.3828125,16.0851562 C16.0953125,16.3726562 15.7601562,16.5164062 15.3289062,16.5164062 C15.3289062,16.5164062 15.3289062,16.5164062 15.3289062,16.5164062 C15.3289062,16.5164062 14.85,16.5164062 14.85,16.5164062 C14.85,16.5164062 14.85,22.071875 14.85,22.071875 C14.85,22.503125 14.70625,22.8382812 14.41875,23.1257812 C14.41875,23.1257812 14.41875,23.1257812 14.41875,23.1257812 C14.0835938,23.4609375 13.7484375,23.6046875 13.3648438,23.6046875 C13.3648438,23.6046875 13.3648438,23.6046875 13.3648438,23.6046875 C13.3648438,23.6046875 11.4492188,23.6046875 11.4492188,23.6046875 C11.0664062,23.6046875 10.7304688,23.4609375 10.3953125,23.1257812 C10.3953125,23.1257812 10.3953125,23.1257812 10.3953125,23.1257812 C10.1078125,22.8382812 9.9640625,22.503125 9.9640625,22.071875 C9.9640625,22.071875 9.9640625,22.071875 9.9640625,22.071875 C9.9640625,22.071875 9.9640625,16.5164062 9.9640625,16.5164062 C9.9640625,16.5164062 9.48515625,16.5164062 9.48515625,16.5164062 C9.05390625,16.5164062 8.71875,16.3726562 8.43125,16.0851562 C8.43125,16.0851562 8.43125,16.0851562 8.43125,16.0851562 C8.14375,15.75 8,15.3664062 8,14.9835937 C8,14.9835937 8,14.9835937 8,14.9835937 C8,14.9835937 8,12.4453125 8,12.4453125 C8,11.05625 8.47890625,9.859375 9.43671875,8.9015625 C9.43671875,8.9015625 9.43671875,8.9015625 9.43671875,8.9015625 L9.43828125,8.9015625 Z M15.8078125,14.984375 C15.8078125,14.984375 15.8078125,14.984375 15.8078125,14.984375 C15.8078125,14.984375 15.8078125,12.4460937 15.8078125,12.4460937 C15.8078125,11.296875 15.425,10.3390625 14.6585937,9.57265625 C14.6585937,9.57265625 14.6585937,9.57265625 14.6585937,9.57265625 C14.2273437,9.09375 13.5570312,8.85390625 12.7429687,8.85390625 C12.7429687,8.85390625 12.7429687,8.85390625 12.7429687,8.85390625 C12.5992187,8.85390625 12.4554687,8.85390625 12.4078125,8.85390625 C12.3601562,8.85390625 12.2164062,8.85390625 12.025,8.85390625 C11.8335937,8.85390625 11.7375,8.85390625 11.6898437,8.85390625 C11.6421875,8.85390625 11.59375,8.85390625 11.4507812,8.85390625 C11.3070312,8.9015625 11.2117187,8.9015625 11.1632812,8.9015625 C11.115625,8.94921875 11.0195312,8.94921875 10.9242187,8.99765625 C10.7804688,9.0453125 10.6851563,9.0453125 10.6367188,9.09375 C10.5882812,9.1421875 10.4929687,9.2375 10.3976563,9.28515625 C10.3015625,9.38125 10.20625,9.4765625 10.1101562,9.57265625 C10.1101562,9.57265625 10.1101562,9.57265625 10.1101562,9.57265625 C9.34375,10.3390625 8.9609375,11.296875 8.9609375,12.4460937 C8.9609375,12.4460937 8.9609375,12.4460937 8.9609375,12.4460937 C8.9609375,12.4460937 8.9609375,14.984375 8.9609375,14.984375 C8.9609375,15.3195312 9.15234375,15.4632812 9.4875,15.4632812 C9.4875,15.4632812 9.4875,15.4632812 9.4875,15.4632812 C9.4875,15.4632812 9.96640625,15.4632812 9.96640625,15.4632812 C10.2054687,15.4632812 10.3976562,15.559375 10.6367188,15.7984375 C10.6367188,15.7984375 10.6367188,15.7984375 10.6367188,15.7984375 C10.828125,15.9898437 10.9242187,16.2296875 10.9242187,16.5171875 C10.9242187,16.5171875 10.9242187,16.5171875 10.9242187,16.5171875 C10.9242187,16.5171875 10.9242187,22.1203125 10.9242187,22.1203125 C10.9242187,22.4554687 11.115625,22.5992187 11.4507812,22.5992187 C11.4507812,22.5992187 11.4507812,22.5992187 11.4507812,22.5992187 C11.4507812,22.5992187 13.3664062,22.5992187 13.3664062,22.5992187 C13.7015625,22.5992187 13.8453125,22.4554687 13.8453125,22.1203125 C13.8453125,22.1203125 13.8453125,22.1203125 13.8453125,22.1203125 C13.8453125,22.1203125 13.8453125,16.5171875 13.8453125,16.5171875 C13.8453125,16.2296875 13.9414062,15.990625 14.1328125,15.7984375 C14.1328125,15.7984375 14.1328125,15.7984375 14.1328125,15.7984375 C14.371875,15.559375 14.6117187,15.4632812 14.8515625,15.4632812 C14.8515625,15.4632812 14.8515625,15.4632812 14.8515625,15.4632812 C14.8515625,15.4632812 15.3304687,15.4632812 15.3304687,15.4632812 C15.665625,15.4632812 15.809375,15.3195312 15.809375,14.984375 L15.8078125,14.984375 Z"/>
  <title>Person</title>
</svg>