<svg xmlns="http://www.w3.org/2000/svg" viewBox="0 0 25 25" id="phone-pause-solid">
  <path d="M23.1265625,20.396875 C23.1265625,20.396875 23.1265625,20.396875 23.1265625,20.396875 C23.1265625,20.396875 21.45,22.1210938 21.45,22.1210938 C20.4445313,23.0789062 19.246875,23.5578125 17.9539062,23.5578125 C17.9539062,23.5578125 17.9539062,23.5578125 17.9539062,23.5578125 C16.8523438,23.5578125 15.9421875,23.2703125 15.128125,22.6476563 C15.128125,22.6476563 15.128125,22.6476563 15.128125,22.6476563 C12.4460938,20.8757813 9.95546875,18.9601563 7.65703125,16.8523438 C7.65703125,16.8523438 7.65703125,16.8523438 7.65703125,16.8523438 C5.5015625,14.4578125 3.634375,12.0632813 2.05390625,9.66875 C2.05390625,9.66875 2.05390625,9.66875 2.05390625,9.66875 C1.33515625,8.66328125 1,7.65703125 1,6.6515625 C1,6.6515625 1,6.6515625 1,6.6515625 C1,5.2625 1.47890625,4.11328125 2.484375,3.1078125 C2.484375,3.1078125 2.484375,3.1078125 2.484375,3.1078125 C2.484375,3.1078125 4.1609375,1.43125 4.1609375,1.43125 C4.4484375,1.14375 4.78359375,1 5.21484375,1 C5.21484375,1 5.21484375,1 5.21484375,1 C5.64609375,1 6.02890625,1.14375 6.26875,1.43125 C6.26875,1.43125 6.26875,1.43125 6.26875,1.43125 C6.26875,1.43125 9.09453125,4.25703125 9.09453125,4.25703125 C9.38203125,4.49609375 9.52578125,4.83203125 9.52578125,5.3109375 C9.52578125,5.3109375 9.52578125,5.3109375 9.52578125,5.3109375 C9.52578125,5.7421875 9.38203125,6.07734375 9.09453125,6.36484375 C9.09453125,6.36484375 9.09453125,6.36484375 9.09453125,6.36484375 C9.09453125,6.36484375 7.896875,7.5625 7.896875,7.5625 C7.70546875,7.75390625 7.609375,7.99375 7.609375,8.28125 C7.609375,8.28125 7.609375,8.28125 7.609375,8.28125 C7.609375,8.47265625 7.65703125,8.6640625 7.753125,8.8078125 C7.753125,8.8078125 7.753125,8.8078125 7.753125,8.8078125 C8.66328125,10.3882813 9.8125,11.9210938 11.2015625,13.4054688 C11.2015625,13.4054688 11.2015625,13.4054688 11.2015625,13.4054688 C12.5421875,14.6507813 14.0273437,15.7523438 15.6554687,16.7578125 C15.6554687,16.7578125 15.6554687,16.7578125 15.6554687,16.7578125 C15.8945312,16.9015625 16.134375,16.996875 16.3257812,16.996875 C16.3257812,16.996875 16.3257812,16.996875 16.3257812,16.996875 C16.6609375,16.996875 16.8523437,16.9007813 16.9960937,16.709375 C16.9960937,16.709375 16.9960937,16.709375 16.9960937,16.709375 C16.9960937,16.709375 18.2414062,15.5117188 18.2414062,15.5117188 C18.4804688,15.1765625 18.8640625,15.0328125 19.2953125,15.0328125 C19.2953125,15.0328125 19.2953125,15.0328125 19.2953125,15.0328125 C19.678125,15.0328125 20.0140625,15.1765625 20.3492187,15.5117188 C20.3492187,15.5117188 20.3492187,15.5117188 20.3492187,15.5117188 C20.3492187,15.5117188 23.1273437,18.2898438 23.1273437,18.2898438 C23.4625,18.625 23.60625,18.9601563 23.60625,19.34375 C23.60625,19.34375 23.60625,19.34375 23.60625,19.34375 C23.60625,19.775 23.4625,20.1578125 23.1273437,20.3976563 L23.1265625,20.396875 Z M16.7085937,8.8546875 C16.7085937,8.8546875 16.7085937,8.8546875 16.7085937,8.8546875 C16.7085937,8.8546875 17.7140625,8.8546875 17.7140625,8.8546875 C17.953125,8.8546875 18.1929687,8.75859375 18.384375,8.5671875 C18.5757812,8.37578125 18.671875,8.1359375 18.671875,7.8484375 C18.671875,7.8484375 18.671875,7.8484375 18.671875,7.8484375 C18.671875,7.8484375 18.671875,2.96328125 18.671875,2.96328125 C18.671875,2.72421875 18.5757812,2.484375 18.384375,2.24453125 C18.1929687,2.053125 17.953125,1.95703125 17.7140625,1.95703125 C17.7140625,1.95703125 17.7140625,1.95703125 17.7140625,1.95703125 C17.7140625,1.95703125 16.7085937,1.95703125 16.7085937,1.95703125 C16.4695312,1.95703125 16.2296875,2.053125 16.0382812,2.24453125 C15.846875,2.48359375 15.7507812,2.7234375 15.7507812,2.96328125 C15.7507812,2.96328125 15.7507812,2.96328125 15.7507812,2.96328125 C15.7507812,2.96328125 15.7507812,7.8484375 15.7507812,7.8484375 C15.7507812,8.1359375 15.846875,8.375 16.0382812,8.5671875 C16.2296875,8.759375 16.4695312,8.8546875 16.7085937,8.8546875 Z M20.6359375,8.8546875 C20.6359375,8.8546875 20.6359375,8.8546875 20.6359375,8.8546875 C20.6359375,8.8546875 21.6414062,8.8546875 21.6414062,8.8546875 C21.8804687,8.8546875 22.1203125,8.75859375 22.3117188,8.5671875 C22.503125,8.37578125 22.5992187,8.1359375 22.5992187,7.8484375 C22.5992187,7.8484375 22.5992187,7.8484375 22.5992187,7.8484375 C22.5992187,7.8484375 22.5992187,2.96328125 22.5992187,2.96328125 C22.5992187,2.72421875 22.503125,2.484375 22.3117188,2.24453125 C22.1203125,2.053125 21.8804687,1.95703125 21.6414062,1.95703125 C21.6414062,1.95703125 21.6414062,1.95703125 21.6414062,1.95703125 C21.6414062,1.95703125 20.6359375,1.95703125 20.6359375,1.95703125 C20.396875,1.95703125 20.1570312,2.053125 19.965625,2.24453125 C19.7742187,2.48359375 19.678125,2.7234375 19.678125,2.96328125 C19.678125,2.96328125 19.678125,2.96328125 19.678125,2.96328125 C19.678125,2.96328125 19.678125,7.8484375 19.678125,7.8484375 C19.678125,8.1359375 19.7742188,8.375 19.965625,8.5671875 C20.1570312,8.759375 20.396875,8.8546875 20.6359375,8.8546875 Z"/>
  <title>Phone Pause Solid</title>
</svg>