<svg xmlns="http://www.w3.org/2000/svg" viewBox="0 0 25 25" id="phone-list">
  <path d="M20.3,15.5117187 C20.3,15.5117187 23.1257813,18.3375 23.1257813,18.3375 C23.4132813,18.5765625 23.5570313,18.9601563 23.5570313,19.3914062 C23.5570313,19.3914062 23.5570313,19.3914062 23.5570313,19.3914062 C23.5570313,19.8226562 23.4132813,20.1578125 23.1257813,20.4453125 C23.1257813,20.4453125 23.1257813,20.4453125 23.1257813,20.4453125 C23.1257813,20.4453125 21.4492188,22.121875 21.4492188,22.121875 C20.4914063,23.1273437 19.29375,23.60625 17.9054688,23.60625 C17.9054688,23.60625 17.9054688,23.60625 17.9054688,23.60625 C16.9,23.60625 15.89375,23.2710938 14.8882813,22.5523437 C14.8882813,22.5523437 14.8882813,22.5523437 14.8882813,22.5523437 C12.6375,21.115625 10.2429687,19.2476562 7.7046875,16.996875 C7.7046875,16.996875 7.7046875,16.996875 7.7046875,16.996875 C5.69296875,14.7460937 3.7296875,12.2554688 1.86171875,9.47734375 C1.86171875,9.47734375 1.86171875,9.47734375 1.86171875,9.47734375 C1.28671875,8.66328125 1,7.70546875 1,6.6515625 C1,6.6515625 1,6.6515625 1,6.6515625 C1,5.35859375 1.47890625,4.209375 2.43671875,3.15546875 C2.43671875,3.15546875 2.43671875,3.15546875 2.43671875,3.15546875 C2.43671875,3.15546875 4.1609375,1.47890625 4.1609375,1.47890625 C4.49609375,1.14375 4.83125,1 5.21484375,1 C5.5984375,1 5.93359375,1.14375 6.26875,1.47890625 C6.26875,1.47890625 6.26875,1.47890625 6.26875,1.47890625 C6.26875,1.47890625 9.046875,4.25703125 9.046875,4.25703125 C9.38203125,4.5921875 9.52578125,4.92734375 9.52578125,5.3109375 C9.52578125,5.3109375 9.52578125,5.3109375 9.52578125,5.3109375 C9.52578125,5.78984375 9.38203125,6.125 9.046875,6.36484375 C9.046875,6.36484375 9.046875,6.36484375 9.046875,6.36484375 C9.046875,6.36484375 7.84921875,7.61015625 7.84921875,7.61015625 C7.6578125,7.8015625 7.56171875,8.04140625 7.56171875,8.28046875 C7.56171875,8.28046875 7.56171875,8.28046875 7.56171875,8.28046875 C7.56171875,8.51953125 7.6578125,8.71171875 7.80078125,8.95078125 C7.80078125,8.95078125 7.80078125,8.95078125 7.80078125,8.95078125 C8.80625,10.6273438 9.95625,12.1117187 11.153125,13.4046875 C11.153125,13.4046875 11.153125,13.4046875 11.153125,13.4046875 C12.6375,14.79375 14.1703125,15.9429687 15.7507812,16.853125 C15.7507812,16.853125 15.7507812,16.853125 15.7507812,16.853125 C15.8945312,16.9492188 16.0859375,16.996875 16.2773438,16.996875 C16.2773438,16.996875 16.2773438,16.996875 16.2773438,16.996875 C16.5648437,16.996875 16.8039062,16.9007813 16.9960938,16.709375 C16.9960938,16.709375 16.9960938,16.709375 16.9960938,16.709375 C16.9960938,16.709375 18.19375,15.5117188 18.19375,15.5117188 C18.48125,15.2242188 18.8164062,15.0804688 19.2476562,15.0804688 C19.2476562,15.0804688 19.2476562,15.0804688 19.2476562,15.0804688 C19.7265625,15.0804688 20.0617188,15.2242188 20.3015625,15.5117188 C20.3015625,15.5117188 20.3015625,15.5117188 20.3015625,15.5117188 L20.3,15.5117187 Z M20.73125,21.4507812 C20.73125,21.4507812 22.4078125,19.7265625 22.4078125,19.7265625 C22.5515625,19.6304687 22.5992188,19.5351562 22.5992188,19.3914062 C22.5992188,19.2476562 22.5515625,19.1523437 22.4078125,19.0085937 C22.4078125,19.0085937 22.4078125,19.0085937 22.4078125,19.0085937 C22.4078125,19.0085937 19.6296875,16.2304688 19.6296875,16.2304688 C19.4859375,16.0867187 19.390625,16.0390625 19.246875,16.0390625 C19.246875,16.0390625 19.246875,16.0390625 19.246875,16.0390625 C19.1992188,16.0390625 19.103125,16.0867187 18.9117188,16.2304688 C18.9117188,16.2304688 18.9117188,16.2304688 18.9117188,16.2304688 C18.9117188,16.2304688 17.6664063,17.428125 17.6664063,17.428125 C17.2835938,17.8109375 16.8046875,18.003125 16.2773438,18.003125 C16.2773438,18.003125 16.2773438,18.003125 16.2773438,18.003125 C15.8460938,18.003125 15.4632813,17.859375 15.128125,17.6203125 C15.128125,17.6203125 15.128125,17.6203125 15.128125,17.6203125 C13.5,16.6625 11.9671875,15.5132813 10.4828125,14.1242188 C10.4828125,14.1242188 10.4828125,14.1242188 10.4828125,14.1242188 C8.9984375,12.54375 7.80078125,10.9632813 6.890625,9.33515625 C6.890625,9.33515625 6.890625,9.33515625 6.890625,9.33515625 C6.69921875,9.04765625 6.603125,8.7125 6.603125,8.28125 C6.603125,8.28125 6.603125,8.28125 6.603125,8.28125 C6.603125,7.7546875 6.79453125,7.27578125 7.178125,6.8921875 C7.178125,6.8921875 7.178125,6.8921875 7.178125,6.8921875 C7.178125,6.8921875 8.37578125,5.69453125 8.37578125,5.69453125 C8.471875,5.5984375 8.51953125,5.45546875 8.51953125,5.31171875 C8.51953125,5.31171875 8.51953125,5.31171875 8.51953125,5.31171875 C8.51953125,5.16796875 8.471875,5.07265625 8.37578125,4.9765625 C8.37578125,4.9765625 8.37578125,4.9765625 8.37578125,4.9765625 C8.37578125,4.9765625 5.55,2.15078125 5.55,2.15078125 C5.45390625,2.0546875 5.35859375,2.00703125 5.21484375,2.00703125 C5.21484375,2.00703125 5.21484375,2.00703125 5.21484375,2.00703125 C5.07109375,2.00703125 4.92734375,2.0546875 4.83203125,2.15078125 C4.83203125,2.15078125 4.83203125,2.15078125 4.83203125,2.15078125 C4.83203125,2.15078125 3.15546875,3.82734375 3.15546875,3.82734375 C2.34140625,4.6890625 1.9578125,5.646875 1.9578125,6.653125 C1.9578125,6.653125 1.9578125,6.653125 1.9578125,6.653125 C1.9578125,7.4671875 2.2453125,8.28125 2.81953125,9.14375 C2.81953125,9.14375 2.81953125,9.14375 2.81953125,9.14375 C4.35234375,11.490625 6.171875,13.8375 8.2796875,16.1835938 C8.2796875,16.1835938 8.2796875,16.1835938 8.2796875,16.1835938 C10.5304688,18.2429688 13.0210938,20.1109375 15.6554688,21.8828125 C15.6554688,21.8828125 15.6554688,21.8828125 15.6554688,21.8828125 C16.3257813,22.3617188 17.0921875,22.6015625 17.90625,22.6015625 C17.90625,22.6015625 17.90625,22.6015625 17.90625,22.6015625 C19.0078125,22.6015625 19.965625,22.21875 20.7320313,21.4523438 C20.7320313,21.4523438 20.7320313,21.4523438 20.7320313,21.4523438 L20.73125,21.4507812 Z M22.1203125,2.9640625 C22.1203125,2.9640625 14.265625,2.9640625 14.265625,2.9640625 C13.9304687,2.9640625 13.7867187,2.8203125 13.7867187,2.5328125 C13.7867187,2.5328125 13.7867187,2.5328125 13.7867187,2.5328125 C13.7867187,2.19765625 13.9304687,2.00625 14.265625,2.00625 C14.265625,2.00625 14.265625,2.00625 14.265625,2.00625 C14.265625,2.00625 22.1203125,2.00625 22.1203125,2.00625 C22.4554687,2.00625 22.5992187,2.19765625 22.5992187,2.5328125 C22.5992187,2.5328125 22.5992187,2.5328125 22.5992187,2.5328125 C22.5992187,2.8203125 22.4554687,2.9640625 22.1203125,2.9640625 C22.1203125,2.9640625 22.1203125,2.9640625 22.1203125,2.9640625 L22.1203125,2.9640625 Z M22.1203125,6.89140625 C22.1203125,6.89140625 14.265625,6.89140625 14.265625,6.89140625 C13.9304687,6.89140625 13.7867187,6.74765625 13.7867187,6.46015625 C13.7867187,6.46015625 13.7867187,6.46015625 13.7867187,6.46015625 C13.7867187,6.125 13.9304687,5.93359375 14.265625,5.93359375 C14.265625,5.93359375 14.265625,5.93359375 14.265625,5.93359375 C14.265625,5.93359375 22.1203125,5.93359375 22.1203125,5.93359375 C22.4554687,5.93359375 22.5992187,6.125 22.5992187,6.46015625 C22.5992187,6.46015625 22.5992187,6.46015625 22.5992187,6.46015625 C22.5992187,6.74765625 22.4554687,6.89140625 22.1203125,6.89140625 C22.1203125,6.89140625 22.1203125,6.89140625 22.1203125,6.89140625 L22.1203125,6.89140625 Z M14.265625,9.86015625 C14.265625,9.86015625 22.1203125,9.86015625 22.1203125,9.86015625 C22.4554687,9.86015625 22.5992187,10.0039062 22.5992187,10.3390625 C22.5992187,10.6742187 22.4554687,10.8179687 22.1203125,10.8179687 C22.1203125,10.8179687 22.1203125,10.8179687 22.1203125,10.8179687 C22.1203125,10.8179687 14.265625,10.8179687 14.265625,10.8179687 C13.9304687,10.8179687 13.7867187,10.6742187 13.7867187,10.3390625 C13.7867187,10.0039062 13.9304687,9.86015625 14.265625,9.86015625 C14.265625,9.86015625 14.265625,9.86015625 14.265625,9.86015625 Z"/>
  <title>Phone List</title>
</svg>