<svg xmlns="http://www.w3.org/2000/svg" viewBox="0 0 25 25" id="phone-call-solid">
  <path d="M20.3,16.46875 C20.3,16.46875 23.1257813,19.246875 23.1257813,19.246875 C23.4132812,19.534375 23.5570313,19.8695313 23.5570313,20.3007813 C23.5570313,20.3007813 23.5570313,20.3007813 23.5570313,20.3007813 C23.5570313,20.7796875 23.4132812,21.1148438 23.1257813,21.3546875 C23.1257813,21.3546875 23.1257813,21.3546875 23.1257813,21.3546875 C23.1257813,21.3546875 21.4492188,23.0789063 21.4492188,23.0789063 C20.44375,24.0367188 19.2460938,24.515625 17.9054688,24.515625 C17.9054688,24.515625 17.9054688,24.515625 17.9054688,24.515625 C16.9,24.515625 15.9421875,24.228125 15.0796875,23.6054688 C15.0796875,23.6054688 15.0796875,23.6054688 15.0796875,23.6054688 C12.5890625,21.9773438 10.0992187,20.0617188 7.60859375,17.8101563 C7.60859375,17.8101563 7.60859375,17.8101563 7.60859375,17.8101563 C5.453125,15.3679688 3.5859375,12.9726563 2.00546875,10.6265625 C2.00546875,10.6265625 2.00546875,10.6265625 2.00546875,10.6265625 C1.33515625,9.62109375 1,8.61484375 1,7.609375 C1,7.609375 1,7.609375 1,7.609375 C1,6.26875 1.47890625,5.07109375 2.43671875,4.065625 C2.43671875,4.065625 2.43671875,4.065625 2.43671875,4.065625 C2.43671875,4.065625 4.1609375,2.3890625 4.1609375,2.3890625 C4.4,2.1015625 4.78359375,1.9578125 5.21484375,1.9578125 C5.21484375,1.9578125 5.21484375,1.9578125 5.21484375,1.9578125 C5.64609375,1.9578125 5.98125,2.1015625 6.26875,2.3890625 C6.26875,2.3890625 6.26875,2.3890625 6.26875,2.3890625 C6.26875,2.3890625 9.046875,5.21484375 9.046875,5.21484375 C9.38203125,5.45390625 9.52578125,5.8375 9.52578125,6.26875 C9.52578125,6.26875 9.52578125,6.26875 9.52578125,6.26875 C9.52578125,6.6515625 9.38203125,6.9875 9.046875,7.32265625 C9.046875,7.32265625 9.046875,7.32265625 9.046875,7.32265625 C9.046875,7.32265625 7.84921875,8.5203125 7.84921875,8.5203125 C7.6578125,8.71171875 7.56171875,8.9515625 7.56171875,9.2390625 C7.56171875,9.2390625 7.56171875,9.2390625 7.56171875,9.2390625 C7.56171875,9.43046875 7.609375,9.621875 7.70546875,9.765625 C7.70546875,9.765625 7.70546875,9.765625 7.70546875,9.765625 C8.7109375,11.39375 9.8609375,12.9265625 11.2015625,14.3632813 C11.2015625,14.3632813 11.2015625,14.3632813 11.2015625,14.3632813 C12.6382812,15.7039063 14.1226562,16.8054688 15.6554687,17.715625 C15.6554687,17.715625 15.6554687,17.715625 15.6554687,17.715625 C15.846875,17.859375 16.0382812,17.9546875 16.278125,17.9546875 C16.278125,17.9546875 16.278125,17.9546875 16.278125,17.9546875 C16.565625,17.9546875 16.8046875,17.8585938 16.996875,17.6671875 C16.996875,17.6671875 16.996875,17.6671875 16.996875,17.6671875 C16.996875,17.6671875 18.1945313,16.4695313 18.1945313,16.4695313 C18.5296875,16.134375 18.8648438,15.990625 19.2484375,15.990625 C19.2484375,15.990625 19.2484375,15.990625 19.2484375,15.990625 C19.6796875,15.990625 20.0625,16.134375 20.3023437,16.4695313 C20.3023437,16.4695313 20.3023437,16.4695313 20.3023437,16.4695313 L20.3,16.46875 Z M19.4859375,12.3023438 C19.4859375,12.3023438 19.4859375,12.3023438 19.4859375,12.3023438 C19.5335938,12.3984375 19.6773438,12.4460938 19.8210938,12.4460938 C19.8210938,12.4460938 19.8210938,12.4460938 19.8210938,12.4460938 C19.9648438,12.4460938 20.0601563,12.3984375 20.15625,12.3023438 C20.15625,12.3023438 20.15625,12.3023438 20.15625,12.3023438 C21.1617188,11.296875 21.640625,10.146875 21.640625,8.80625 C21.640625,8.80625 21.640625,8.80625 21.640625,8.80625 C21.640625,7.4171875 21.1617188,6.26796875 20.2039063,5.31015625 C19.2460938,4.35234375 18.096875,3.8734375 16.7078125,3.8734375 C16.7078125,3.8734375 16.7078125,3.8734375 16.7078125,3.8734375 C15.3671875,3.8734375 14.2171875,4.35234375 13.2117188,5.3578125 C13.2117188,5.3578125 13.2117188,5.3578125 13.2117188,5.3578125 C13.115625,5.54921875 13.0679688,5.6453125 13.0679688,5.69296875 C13.0679688,5.69296875 13.0679688,5.69296875 13.0679688,5.69296875 C13.0679688,6.028125 13.259375,6.171875 13.5945313,6.171875 C13.5945313,6.171875 13.5945313,6.171875 13.5945313,6.171875 C13.7382813,6.171875 13.8335938,6.12421875 13.9296875,6.028125 C13.9296875,6.028125 13.9296875,6.028125 13.9296875,6.028125 C14.6960938,5.26171875 15.6539063,4.87890625 16.7554688,4.87890625 C16.7554688,4.87890625 16.7554688,4.87890625 16.7554688,4.87890625 C17.8570313,4.87890625 18.7671875,5.26171875 19.5335938,5.98046875 C20.2523438,6.746875 20.6351563,7.65703125 20.6351563,8.75859375 C20.6351563,8.75859375 20.6351563,8.75859375 20.6351563,8.75859375 C20.6351563,9.86015625 20.2523438,10.8179688 19.4859375,11.584375 C19.4859375,11.584375 19.4859375,11.584375 19.4859375,11.584375 C19.3898438,11.6804688 19.3421875,11.7757813 19.3421875,11.9195313 C19.3421875,11.9195313 19.3421875,11.9195313 19.3421875,11.9195313 C19.3421875,12.0632813 19.3898438,12.2070313 19.4859375,12.3023438 L19.4859375,12.3023438 Z M11.8226562,3.96875 C11.8226562,3.96875 11.8226562,3.96875 11.8226562,3.96875 C13.115625,2.67578125 14.74375,2.00546875 16.6601562,2.00546875 C16.6601562,2.00546875 16.6601562,2.00546875 16.6601562,2.00546875 C18.528125,2.00546875 20.15625,2.67578125 21.4976562,4.0171875 C22.8390625,5.35859375 23.509375,6.98671875 23.509375,8.8546875 C23.509375,8.8546875 23.509375,8.8546875 23.509375,8.8546875 C23.509375,10.7703125 22.8390625,12.3984375 21.5460937,13.6921875 C21.5460937,13.6921875 21.5460937,13.6921875 21.5460937,13.6921875 C21.45,13.7882813 21.4023437,13.8835938 21.4023437,14.0273438 C21.4023437,14.0273438 21.4023437,14.0273438 21.4023437,14.0273438 C21.4023437,14.3625 21.5460937,14.50625 21.88125,14.50625 C21.88125,14.50625 21.88125,14.50625 21.88125,14.50625 C22.025,14.50625 22.16875,14.4585938 22.2640625,14.3625 C22.2640625,14.3625 22.2640625,14.3625 22.2640625,14.3625 C23.7484375,12.878125 24.5148437,11.0101562 24.5148437,8.8546875 C24.5148437,6.69921875 23.7484375,4.83203125 22.215625,3.29921875 C20.6828125,1.76640625 18.815625,1 16.6601562,1 C14.5046875,1 12.6375,1.76640625 11.1523437,3.25078125 C11.1523437,3.25078125 11.1523437,3.25078125 11.1523437,3.25078125 C11.05625,3.346875 11.0085937,3.48984375 11.0085937,3.63359375 C11.0085937,3.63359375 11.0085937,3.63359375 11.0085937,3.63359375 C11.0085937,3.96875 11.1523437,4.1125 11.4875,4.1125 C11.4875,4.1125 11.4875,4.1125 11.4875,4.1125 C11.63125,4.1125 11.7265625,4.06484375 11.8226562,3.96875 L11.8226562,3.96875 Z"/>
  <title>Phone Call Solid</title>
</svg>