<svg xmlns="http://www.w3.org/2000/svg" viewBox="0 0 25 25" id="phone-in-solid">
  <path d="M20.3,16.5171875 C20.3,16.5171875 23.1257813,19.2953125 23.1257813,19.2953125 C23.4132812,19.5828125 23.5570313,19.9179688 23.5570313,20.3492188 C23.5570313,20.3492188 23.5570313,20.3492188 23.5570313,20.3492188 C23.5570313,20.828125 23.4132812,21.1632813 23.1257813,21.403125 C23.1257813,21.403125 23.1257813,21.403125 23.1257813,21.403125 C23.1257813,21.403125 21.4492188,23.1273438 21.4492188,23.1273438 C20.44375,24.0851563 19.2460938,24.5640625 17.9054688,24.5640625 C17.9054688,24.5640625 17.9054688,24.5640625 17.9054688,24.5640625 C16.9,24.5640625 15.9421875,24.2765625 15.0796875,23.6539063 C15.0796875,23.6539063 15.0796875,23.6539063 15.0796875,23.6539063 C12.5890625,22.0257813 10.0992187,20.1101563 7.60859375,17.8585938 C7.60859375,17.8585938 7.60859375,17.8585938 7.60859375,17.8585938 C5.453125,15.4164063 3.5859375,13.0210938 2.00546875,10.675 C2.00546875,10.675 2.00546875,10.675 2.00546875,10.675 C1.33515625,9.66953125 1,8.66328125 1,7.6578125 C1,7.6578125 1,7.6578125 1,7.6578125 C1,6.3171875 1.47890625,5.11953125 2.43671875,4.1140625 C2.43671875,4.1140625 2.43671875,4.1140625 2.43671875,4.1140625 C2.43671875,4.1140625 4.1609375,2.4375 4.1609375,2.4375 C4.4,2.15 4.78359375,2.00625 5.21484375,2.00625 C5.21484375,2.00625 5.21484375,2.00625 5.21484375,2.00625 C5.64609375,2.00625 5.98125,2.15 6.26875,2.4375 C6.26875,2.4375 6.26875,2.4375 6.26875,2.4375 C6.26875,2.4375 9.046875,5.26328125 9.046875,5.26328125 C9.38203125,5.50234375 9.52578125,5.8859375 9.52578125,6.3171875 C9.52578125,6.3171875 9.52578125,6.3171875 9.52578125,6.3171875 C9.52578125,6.7 9.38203125,7.0359375 9.046875,7.37109375 C9.046875,7.37109375 9.046875,7.37109375 9.046875,7.37109375 C9.046875,7.37109375 7.84921875,8.56875 7.84921875,8.56875 C7.6578125,8.76015625 7.56171875,9 7.56171875,9.2875 C7.56171875,9.2875 7.56171875,9.2875 7.56171875,9.2875 C7.56171875,9.47890625 7.609375,9.6703125 7.70546875,9.8140625 C7.70546875,9.8140625 7.70546875,9.8140625 7.70546875,9.8140625 C8.7109375,11.4421875 9.8609375,12.975 11.2015625,14.4117188 C11.2015625,14.4117188 11.2015625,14.4117188 11.2015625,14.4117188 C12.6382812,15.7523438 14.1226562,16.8539063 15.6554687,17.7640625 C15.6554687,17.7640625 15.6554687,17.7640625 15.6554687,17.7640625 C15.846875,17.9078125 16.0382812,18.003125 16.278125,18.003125 C16.278125,18.003125 16.278125,18.003125 16.278125,18.003125 C16.565625,18.003125 16.8046875,17.9070313 16.996875,17.715625 C16.996875,17.715625 16.996875,17.715625 16.996875,17.715625 C16.996875,17.715625 18.1945313,16.5179688 18.1945313,16.5179688 C18.5296875,16.1828125 18.8648438,16.0390625 19.2484375,16.0390625 C19.2484375,16.0390625 19.2484375,16.0390625 19.2484375,16.0390625 C19.6796875,16.0390625 20.0625,16.1828125 20.3023437,16.5179688 C20.3023437,16.5179688 20.3023437,16.5179688 20.3023437,16.5179688 L20.3,16.5171875 Z M24.41875,1.19140625 C24.41875,1.19140625 24.41875,1.19140625 24.41875,1.19140625 C24.275,1.04765625 24.1796875,1 24.0359375,1 C23.8921875,1 23.796875,1.04765625 23.7007812,1.14375 C23.7007812,1.14375 23.7007812,1.14375 23.7007812,1.14375 C23.7007812,1.14375 13.7390625,10.1953125 13.7390625,10.1953125 C13.7390625,10.1953125 13.7390625,5.45390625 13.7390625,5.45390625 C13.7390625,5.11875 13.5953125,4.92734375 13.2601562,4.92734375 C12.925,4.92734375 12.78125,5.11875 12.78125,5.45390625 C12.78125,5.45390625 12.78125,5.45390625 12.78125,5.45390625 C12.78125,5.45390625 12.78125,11.296875 12.78125,11.296875 C12.78125,11.296875 12.78125,11.3929687 12.78125,11.3929687 C12.78125,11.440625 12.8289062,11.5367188 12.8773437,11.584375 C12.8773437,11.584375 12.8773437,11.584375 12.8773437,11.584375 C12.8773437,11.584375 12.8773437,11.6320313 12.8773437,11.6320313 C12.8773437,11.6320313 12.925,11.6796875 12.925,11.6796875 C12.9726562,11.6796875 12.9726562,11.6796875 12.9726562,11.7273437 C12.9726562,11.7273437 12.9726562,11.7273437 12.9726562,11.7273437 C12.9726562,11.7273437 13.0203125,11.775 13.0203125,11.775 C13.0203125,11.775 13.0679687,11.775 13.0679687,11.775 C13.0679687,11.775 13.115625,11.775 13.115625,11.775 C13.115625,11.775 13.1632812,11.775 13.1632812,11.775 C13.1632812,11.775 13.1632812,11.775 13.1632812,11.775 C13.1632812,11.775 13.259375,11.8226562 13.259375,11.8226562 C13.259375,11.8226562 19.15,11.8226562 19.15,11.8226562 C19.4851562,11.8226562 19.6289062,11.63125 19.6289062,11.2960937 C19.6289062,11.2960937 19.6289062,11.2960937 19.6289062,11.2960937 C19.6289062,10.9609375 19.4851562,10.8171875 19.15,10.8171875 C19.15,10.8171875 19.15,10.8171875 19.15,10.8171875 C19.15,10.8171875 14.5046875,10.8171875 14.5046875,10.8171875 C14.5046875,10.8171875 24.3703125,1.8609375 24.3703125,1.8609375 C24.5140625,1.7171875 24.5617187,1.621875 24.5617187,1.52578125 C24.5617187,1.52578125 24.5617187,1.52578125 24.5617187,1.52578125 C24.5617187,1.38203125 24.5140625,1.28671875 24.4179688,1.190625 L24.41875,1.19140625 Z"/>
  <title>Phone In Solid</title>
</svg>