<svg xmlns="http://www.w3.org/2000/svg" viewBox="0 0 25 25" id="phone">
  <path d="M23.1265625,18.3375 C23.1265625,18.3375 23.1265625,18.3375 23.1265625,18.3375 C23.1265625,18.3375 20.3484375,15.5117188 20.3484375,15.5117188 C20.0609375,15.2242188 19.7257813,15.0804687 19.2945313,15.0804687 C19.2945313,15.0804687 19.2945313,15.0804687 19.2945313,15.0804687 C18.8632812,15.0804687 18.4804688,15.2242188 18.240625,15.5117188 C18.240625,15.5117188 18.240625,15.5117188 18.240625,15.5117188 C18.240625,15.5117188 16.9953125,16.709375 16.9953125,16.709375 C16.8515625,16.9007813 16.6601562,16.996875 16.325,16.996875 C16.325,16.996875 16.325,16.996875 16.325,16.996875 C16.1335937,16.996875 15.9421875,16.9492188 15.7984375,16.853125 C15.7984375,16.853125 15.7984375,16.853125 15.7984375,16.853125 C14.0742187,15.8476562 12.5414062,14.6976562 11.2007813,13.4046875 C11.2007813,13.4046875 11.2007813,13.4046875 11.2007813,13.4046875 C9.95546875,12.1117187 8.80625,10.6265625 7.80078125,8.95078125 C7.80078125,8.95078125 7.80078125,8.95078125 7.80078125,8.95078125 C7.65703125,8.71171875 7.609375,8.471875 7.609375,8.28046875 C7.609375,8.28046875 7.609375,8.28046875 7.609375,8.28046875 C7.609375,7.99296875 7.70546875,7.75390625 7.896875,7.61015625 C7.896875,7.61015625 7.896875,7.61015625 7.896875,7.61015625 C7.896875,7.61015625 9.09453125,6.36484375 9.09453125,6.36484375 C9.38203125,6.12578125 9.52578125,5.78984375 9.52578125,5.3109375 C9.52578125,5.3109375 9.52578125,5.3109375 9.52578125,5.3109375 C9.52578125,4.8796875 9.38203125,4.54453125 9.09453125,4.25703125 C9.09453125,4.25703125 9.09453125,4.25703125 9.09453125,4.25703125 C9.09453125,4.25703125 6.26875,1.47890625 6.26875,1.47890625 C6.0296875,1.14375 5.64609375,1 5.21484375,1 C5.21484375,1 5.21484375,1 5.21484375,1 C4.83203125,1 4.49609375,1.14375 4.1609375,1.47890625 C4.1609375,1.47890625 4.1609375,1.47890625 4.1609375,1.47890625 C4.1609375,1.47890625 2.484375,3.15546875 2.484375,3.15546875 C1.47890625,4.1609375 1,5.3109375 1,6.6515625 C1,6.6515625 1,6.6515625 1,6.6515625 C1,7.65703125 1.2875,8.61484375 1.91015625,9.47734375 C1.91015625,9.47734375 1.91015625,9.47734375 1.91015625,9.47734375 C3.68203125,12.159375 5.59765625,14.65 7.70546875,16.9484375 C7.70546875,16.9484375 7.70546875,16.9484375 7.70546875,16.9484375 C9.76484375,18.8164062 12.159375,20.684375 14.8890625,22.5515625 C14.8890625,22.5515625 14.8890625,22.5515625 14.8890625,22.5515625 C15.7992187,23.221875 16.8523437,23.5570313 17.9539062,23.5570313 C17.9539062,23.5570313 17.9539062,23.5570313 17.9539062,23.5570313 C19.3429687,23.5570313 20.4921875,23.078125 21.45,22.1203125 C21.45,22.1203125 21.45,22.1203125 21.45,22.1203125 C21.45,22.1203125 23.1265625,20.44375 23.1265625,20.44375 C23.4617187,20.1085938 23.6054688,19.7734375 23.6054688,19.3898438 C23.6054688,19.3898438 23.6054688,19.3898438 23.6054688,19.3898438 C23.6054688,18.9585938 23.4617187,18.5757813 23.1265625,18.3359375 L23.1265625,18.3375 Z M22.45625,19.7257813 C22.45625,19.7257813 22.45625,19.7257813 22.45625,19.7257813 C22.45625,19.7257813 20.7796875,21.45 20.7796875,21.45 C20.0132812,22.2164063 19.0554688,22.5992188 17.9539063,22.5992188 C17.9539063,22.5992188 17.9539063,22.5992188 17.9539063,22.5992188 C17.0921875,22.5992188 16.3257813,22.3601562 15.6546875,21.8804688 C15.6546875,21.8804688 15.6546875,21.8804688 15.6546875,21.8804688 C13.1640625,20.2039062 10.721875,18.3367188 8.32734375,16.18125 C8.32734375,16.18125 8.32734375,16.18125 8.32734375,16.18125 C6.2203125,13.834375 4.4,11.4875 2.8671875,9.14140625 C2.8671875,9.14140625 2.8671875,9.14140625 2.8671875,9.14140625 C2.2921875,8.32734375 2.00546875,7.51328125 2.00546875,6.65078125 C2.00546875,6.65078125 2.00546875,6.65078125 2.00546875,6.65078125 C2.00546875,5.54921875 2.38828125,4.59140625 3.1546875,3.825 C3.1546875,3.825 3.1546875,3.825 3.1546875,3.825 C3.1546875,3.825 4.87890625,2.1484375 4.87890625,2.1484375 C4.975,2.05234375 5.0703125,2.0046875 5.2140625,2.0046875 C5.2140625,2.0046875 5.2140625,2.0046875 5.2140625,2.0046875 C5.3578125,2.0046875 5.5015625,2.05234375 5.596875,2.1484375 C5.596875,2.1484375 5.596875,2.1484375 5.596875,2.1484375 C5.596875,2.1484375 8.375,4.97421875 8.375,4.97421875 C8.51875,5.11796875 8.56640625,5.21328125 8.56640625,5.309375 C8.56640625,5.309375 8.56640625,5.309375 8.56640625,5.309375 C8.56640625,5.453125 8.51875,5.5484375 8.375,5.6921875 C8.375,5.6921875 8.375,5.6921875 8.375,5.6921875 C8.375,5.6921875 7.17734375,6.88984375 7.17734375,6.88984375 C6.79453125,7.32109375 6.60234375,7.8 6.60234375,8.27890625 C6.60234375,8.27890625 6.60234375,8.27890625 6.60234375,8.27890625 C6.60234375,8.71015625 6.6984375,9.0453125 6.88984375,9.3328125 C6.88984375,9.3328125 6.88984375,9.3328125 6.88984375,9.3328125 C7.99140625,11.1046875 9.23671875,12.7335938 10.5296875,14.121875 C10.5296875,14.121875 10.5296875,14.121875 10.5296875,14.121875 C12.0140625,15.5109375 13.5945313,16.7078125 15.175,17.6179688 C15.175,17.6179688 15.175,17.6179688 15.175,17.6179688 C15.5101562,17.8570312 15.89375,18.0007813 16.3242188,18.0007813 C16.3242188,18.0007813 16.3242188,18.0007813 16.3242188,18.0007813 C16.803125,18.0007813 17.2820313,17.809375 17.7132813,17.4257812 C17.7132813,17.4257812 17.7132813,17.4257812 17.7132813,17.4257812 C17.7132813,17.4257812 18.9109375,16.228125 18.9109375,16.228125 C19.0546875,16.084375 19.15,16.0367187 19.29375,16.0367187 C19.29375,16.0367187 19.29375,16.0367187 19.29375,16.0367187 C19.3898437,16.0367187 19.4851563,16.084375 19.6289062,16.228125 C19.6289062,16.228125 19.6289062,16.228125 19.6289062,16.228125 C19.6289062,16.228125 22.4546875,19.00625 22.4546875,19.00625 C22.5507812,19.1023437 22.5984375,19.2453125 22.5984375,19.3890625 C22.5984375,19.3890625 22.5984375,19.3890625 22.5984375,19.3890625 C22.5984375,19.5328125 22.5507812,19.628125 22.4546875,19.7242187 L22.45625,19.7257813 Z"/>
  <title>Phone</title>
</svg>