<svg xmlns="http://www.w3.org/2000/svg" viewBox="0 0 25 25" id="phone-solid">
  <path d="M23.1265625,20.44375 C23.1265625,20.44375 23.1265625,20.44375 23.1265625,20.44375 C23.1265625,20.44375 21.45,22.1203125 21.45,22.1203125 C20.4921875,23.078125 19.3429688,23.5570313 17.9539062,23.5570313 C17.9539062,23.5570313 17.9539062,23.5570313 17.9539062,23.5570313 C16.8523438,23.5570313 15.8945313,23.2695313 15.128125,22.6953125 C15.128125,22.6953125 15.128125,22.6953125 15.128125,22.6953125 C12.2546875,20.7796875 9.7640625,18.8640625 7.65703125,16.9 C7.65703125,16.9 7.65703125,16.9 7.65703125,16.9 C5.59765625,14.6492188 3.7296875,12.2546875 2.05390625,9.71640625 C2.05390625,9.71640625 2.05390625,9.71640625 2.05390625,9.71640625 C1.33515625,8.7109375 1,7.65703125 1,6.6515625 C1,6.6515625 1,6.6515625 1,6.6515625 C1,5.3109375 1.47890625,4.1609375 2.484375,3.15546875 C2.484375,3.15546875 2.484375,3.15546875 2.484375,3.15546875 C2.484375,3.15546875 4.1609375,1.47890625 4.1609375,1.47890625 C4.49609375,1.14375 4.83125,1 5.21484375,1 C5.21484375,1 5.21484375,1 5.21484375,1 C5.64609375,1 6.02890625,1.14375 6.26875,1.47890625 C6.26875,1.47890625 6.26875,1.47890625 6.26875,1.47890625 C6.26875,1.47890625 9.09453125,4.25703125 9.09453125,4.25703125 C9.38203125,4.54453125 9.52578125,4.8796875 9.52578125,5.3109375 C9.52578125,5.3109375 9.52578125,5.3109375 9.52578125,5.3109375 C9.52578125,5.78984375 9.38203125,6.125 9.09453125,6.36484375 C9.09453125,6.36484375 9.09453125,6.36484375 9.09453125,6.36484375 C9.09453125,6.36484375 7.896875,7.61015625 7.896875,7.61015625 C7.70546875,7.75390625 7.609375,7.99296875 7.609375,8.28046875 C7.609375,8.28046875 7.609375,8.28046875 7.609375,8.28046875 C7.609375,8.51953125 7.65703125,8.66328125 7.753125,8.80703125 C7.753125,8.80703125 7.753125,8.80703125 7.753125,8.80703125 C8.75859375,10.53125 9.90859375,12.0640625 11.2015625,13.4046875 C11.2015625,13.4046875 11.2015625,13.4046875 11.2015625,13.4046875 C12.4945312,14.65 13.9796875,15.7992187 15.6554687,16.8046875 C15.6554687,16.8046875 15.6554687,16.8046875 15.6554687,16.8046875 C15.8945312,16.9484375 16.134375,16.9960938 16.3257812,16.9960938 C16.3257812,16.9960938 16.3257812,16.9960938 16.3257812,16.9960938 C16.6609375,16.9960938 16.8523437,16.9 16.9960937,16.7085938 C16.9960937,16.7085938 16.9960937,16.7085938 16.9960937,16.7085938 C16.9960937,16.7085938 18.2414062,15.5109375 18.2414062,15.5109375 C18.4804688,15.2234375 18.8640625,15.0796875 19.2953125,15.0796875 C19.2953125,15.0796875 19.2953125,15.0796875 19.2953125,15.0796875 C19.7265625,15.0796875 20.0617188,15.2234375 20.3492187,15.5109375 C20.3492187,15.5109375 20.3492187,15.5109375 20.3492187,15.5109375 C20.3492187,15.5109375 23.1273437,18.3367188 23.1273437,18.3367188 C23.4625,18.5757813 23.60625,18.959375 23.60625,19.390625 C23.60625,19.390625 23.60625,19.390625 23.60625,19.390625 C23.60625,19.7734375 23.4625,20.109375 23.1273437,20.4445313 L23.1265625,20.44375 Z"/>
  <title>Phone Solid</title>
</svg>