<svg xmlns="http://www.w3.org/2000/svg" viewBox="0 0 25 25" id="phone-in">
  <path d="M23.1273438,19.2945312 C23.1273438,19.2945312 20.3015625,16.46875 20.3015625,16.46875 C20.0625,16.18125 19.6789063,16.0375 19.2476562,16.0375 C19.2476562,16.0375 19.2476562,16.0375 19.2476562,16.0375 C18.8164062,16.0375 18.48125,16.18125 18.19375,16.46875 C18.19375,16.46875 18.19375,16.46875 18.19375,16.46875 C18.19375,16.46875 16.9960938,17.6664062 16.9960938,17.6664062 C16.8046875,17.8578125 16.5648438,17.9539062 16.2773438,17.9539062 C16.2773438,17.9539062 16.2773438,17.9539062 16.2773438,17.9539062 C16.0382812,17.9539062 15.8945312,17.90625 15.7507812,17.8101562 C15.7507812,17.8101562 15.7507812,17.8101562 15.7507812,17.8101562 C14.1703125,16.9 12.6375,15.7507812 11.153125,14.3617187 C11.153125,14.3617187 11.153125,14.3617187 11.153125,14.3617187 C9.9078125,13.0210937 8.80625,11.5359375 7.80078125,9.9078125 C7.80078125,9.9078125 7.80078125,9.9078125 7.80078125,9.9078125 C7.65703125,9.66875 7.56171875,9.4765625 7.56171875,9.2375 C7.56171875,9.2375 7.56171875,9.2375 7.56171875,9.2375 C7.56171875,8.95 7.6578125,8.7109375 7.84921875,8.5671875 C7.84921875,8.5671875 7.84921875,8.5671875 7.84921875,8.5671875 C7.84921875,8.5671875 9.046875,7.321875 9.046875,7.321875 C9.38203125,7.0828125 9.52578125,6.69921875 9.52578125,6.26796875 C9.52578125,6.26796875 9.52578125,6.26796875 9.52578125,6.26796875 C9.52578125,5.88515625 9.38203125,5.54921875 9.046875,5.2140625 C9.046875,5.2140625 9.046875,5.2140625 9.046875,5.2140625 C9.046875,5.2140625 6.26875,2.4359375 6.26875,2.4359375 C5.93359375,2.10078125 5.5984375,1.95703125 5.21484375,1.95703125 C5.21484375,1.95703125 5.21484375,1.95703125 5.21484375,1.95703125 C4.78359375,1.95703125 4.40078125,2.10078125 4.1609375,2.4359375 C4.1609375,2.4359375 4.1609375,2.4359375 4.1609375,2.4359375 C4.1609375,2.4359375 2.43671875,4.1125 2.43671875,4.1125 C1.47890625,5.11796875 1,6.315625 1,7.60859375 C1,7.60859375 1,7.60859375 1,7.60859375 C1,8.6625 1.2875,9.6203125 1.86171875,10.434375 C1.86171875,10.434375 1.86171875,10.434375 1.86171875,10.434375 C3.63359375,13.06875 5.59765625,15.6070312 7.7046875,17.9539062 C7.7046875,17.9539062 7.7046875,17.9539062 7.7046875,17.9539062 C10.146875,20.1570312 12.5421875,22.025 14.8882813,23.509375 C14.8882813,23.509375 14.8882813,23.509375 14.8882813,23.509375 C15.89375,24.228125 16.9,24.5632812 17.9054688,24.5632812 C17.9054688,24.5632812 17.9054688,24.5632812 17.9054688,24.5632812 C19.2945312,24.5632812 20.44375,24.084375 21.4492188,23.0789062 C21.4492188,23.0789062 21.4492188,23.0789062 21.4492188,23.0789062 C21.4492188,23.0789062 23.1257813,21.4023438 23.1257813,21.4023438 C23.4132813,21.1148437 23.5570313,20.7796875 23.5570313,20.3484375 C23.5570313,20.3484375 23.5570313,20.3484375 23.5570313,20.3484375 C23.5570313,19.8695312 23.4132813,19.534375 23.1257813,19.2945312 C23.1257813,19.2945312 23.1257813,19.2945312 23.1257813,19.2945312 L23.1273438,19.2945312 Z M22.4085938,20.6828125 C22.4085938,20.6828125 22.4085938,20.6828125 22.4085938,20.6828125 C22.4085938,20.6828125 20.7320313,22.4070313 20.7320313,22.4070313 C19.965625,23.1734375 19.0078125,23.55625 17.90625,23.55625 C17.90625,23.55625 17.90625,23.55625 17.90625,23.55625 C17.0445313,23.55625 16.278125,23.3171875 15.6554688,22.8375 C15.6554688,22.8375 15.6554688,22.8375 15.6554688,22.8375 C13.0210938,21.065625 10.5789063,19.1976562 8.2796875,17.1382812 C8.2796875,17.1382812 8.2796875,17.1382812 8.2796875,17.1382812 C6.17265625,14.7914062 4.35234375,12.4445313 2.81953125,10.0984375 C2.81953125,10.0984375 2.81953125,10.0984375 2.81953125,10.0984375 C2.24453125,9.23671875 1.9578125,8.421875 1.9578125,7.6078125 C1.9578125,7.6078125 1.9578125,7.6078125 1.9578125,7.6078125 C1.9578125,6.50625 2.340625,5.59609375 3.15546875,4.78203125 C3.15546875,4.78203125 3.15546875,4.78203125 3.15546875,4.78203125 C3.15546875,4.78203125 4.83203125,3.10546875 4.83203125,3.10546875 C4.928125,3.009375 5.07109375,2.96171875 5.21484375,2.96171875 C5.21484375,2.96171875 5.21484375,2.96171875 5.21484375,2.96171875 C5.35859375,2.96171875 5.45390625,3.009375 5.55,3.10546875 C5.55,3.10546875 5.55,3.10546875 5.55,3.10546875 C5.55,3.10546875 8.37578125,5.93125 8.37578125,5.93125 C8.471875,6.02734375 8.51953125,6.12265625 8.51953125,6.26640625 C8.51953125,6.26640625 8.51953125,6.26640625 8.51953125,6.26640625 C8.51953125,6.41015625 8.471875,6.55390625 8.37578125,6.64921875 C8.37578125,6.64921875 8.37578125,6.64921875 8.37578125,6.64921875 C8.37578125,6.64921875 7.178125,7.846875 7.178125,7.846875 C6.7953125,8.2296875 6.603125,8.70859375 6.603125,9.2359375 C6.603125,9.2359375 6.603125,9.2359375 6.603125,9.2359375 C6.603125,9.6671875 6.69921875,10.0023438 6.890625,10.2898437 C6.890625,10.2898437 6.890625,10.2898437 6.890625,10.2898437 C7.8484375,11.9664063 9.04609375,13.546875 10.4828125,15.0789062 C10.4828125,15.0789062 10.4828125,15.0789062 10.4828125,15.0789062 C11.9195313,16.4195312 13.4523438,17.5695313 15.128125,18.575 C15.128125,18.575 15.128125,18.575 15.128125,18.575 C15.5109375,18.8140625 15.8945313,18.9578125 16.2773438,18.9578125 C16.2773438,18.9578125 16.2773438,18.9578125 16.2773438,18.9578125 C16.8039063,18.9578125 17.2828125,18.7664062 17.6664063,18.3828125 C17.6664063,18.3828125 17.6664063,18.3828125 17.6664063,18.3828125 C17.6664063,18.3828125 18.9117188,17.1851562 18.9117188,17.1851562 C19.0554688,17.0414062 19.1507813,16.99375 19.246875,16.99375 C19.246875,16.99375 19.246875,16.99375 19.246875,16.99375 C19.390625,16.99375 19.4859375,17.0414062 19.6296875,17.1851562 C19.6296875,17.1851562 19.6296875,17.1851562 19.6296875,17.1851562 C19.6296875,17.1851562 22.4078125,19.9632812 22.4078125,19.9632812 C22.5515625,20.1070312 22.5992188,20.2023437 22.5992188,20.3460937 C22.5992188,20.3460937 22.5992188,20.3460937 22.5992188,20.3460937 C22.5992188,20.4421875 22.5515625,20.5375 22.4078125,20.68125 L22.4085938,20.6828125 Z M24.3726562,1.8609375 C24.3726562,1.8609375 24.3726562,1.8609375 24.3726562,1.8609375 C24.3726562,1.8609375 14.5070312,10.8171875 14.5070312,10.8171875 C14.5070312,10.8171875 19.1523438,10.8171875 19.1523438,10.8171875 C19.4875,10.8171875 19.63125,10.9609375 19.63125,11.2960938 C19.63125,11.63125 19.4875,11.775 19.1523438,11.775 C19.1523438,11.775 19.1523438,11.775 19.1523438,11.775 C19.1523438,11.775 13.2617188,11.775 13.2617188,11.775 C13.2617188,11.775 13.1179688,11.775 13.1179688,11.775 C13.0703125,11.775 13.0703125,11.775 13.0703125,11.7273438 C13.0703125,11.7273438 13.0703125,11.7273438 13.0703125,11.7273438 C13.0226563,11.7273438 13.0226563,11.7273438 12.9742187,11.6796875 C12.9742187,11.6796875 12.9742187,11.6796875 12.9742187,11.6796875 C12.9265625,11.6796875 12.9265625,11.6796875 12.9265625,11.6320313 C12.9265625,11.6320313 12.9265625,11.6320313 12.9265625,11.6320313 C12.9265625,11.6320313 12.8789062,11.6320313 12.8789062,11.6320313 C12.8789062,11.6320313 12.8789062,11.584375 12.8789062,11.584375 C12.83125,11.5367188 12.7828125,11.440625 12.7828125,11.3929688 C12.7828125,11.3929688 12.7828125,11.3929688 12.7828125,11.3929688 C12.7828125,11.3929688 12.7828125,11.296875 12.7828125,11.296875 C12.7828125,11.296875 12.7828125,5.40625 12.7828125,5.40625 C12.7828125,5.07109375 12.9265625,4.92734375 13.2617187,4.92734375 C13.596875,4.92734375 13.740625,5.07109375 13.740625,5.40625 C13.740625,5.40625 13.740625,5.40625 13.740625,5.40625 C13.740625,5.40625 13.740625,10.1953125 13.740625,10.1953125 C13.740625,10.1953125 23.7023438,1.14375 23.7023438,1.14375 C23.7984375,1.04765625 23.89375,1 24.0375,1 C24.0375,1 24.0375,1 24.0375,1 C24.3726562,1 24.5640625,1.14375 24.5640625,1.47890625 C24.5640625,1.47890625 24.5640625,1.47890625 24.5640625,1.47890625 C24.5640625,1.62265625 24.5164062,1.71796875 24.3726562,1.86171875 L24.3726562,1.8609375 Z"/>
  <title>Phone In</title>
</svg>