<svg xmlns="http://www.w3.org/2000/svg" viewBox="0 0 25 25" id="phone-split-solid">
  <path d="M20.3,16.5164062 C20.3,16.5164062 23.1257813,19.2945312 23.1257813,19.2945312 C23.4132812,19.5820312 23.5570313,19.9171875 23.5570313,20.3484375 C23.5570313,20.3484375 23.5570313,20.3484375 23.5570313,20.3484375 C23.5570313,20.8273438 23.4132812,21.1625 23.1257813,21.4023438 C23.1257813,21.4023438 23.1257813,21.4023438 23.1257813,21.4023438 C23.1257813,21.4023438 21.4492188,23.1265625 21.4492188,23.1265625 C20.44375,24.084375 19.2460938,24.5632813 17.9054688,24.5632813 C17.9054688,24.5632813 17.9054688,24.5632813 17.9054688,24.5632813 C16.9,24.5632813 15.9421875,24.2757813 15.0796875,23.653125 C15.0796875,23.653125 15.0796875,23.653125 15.0796875,23.653125 C12.5890625,22.025 10.0992187,20.109375 7.60859375,17.8578125 C7.60859375,17.8578125 7.60859375,17.8578125 7.60859375,17.8578125 C5.453125,15.415625 3.5859375,13.0203125 2.00546875,10.6742188 C2.00546875,10.6742188 2.00546875,10.6742188 2.00546875,10.6742188 C1.33515625,9.66875 1,8.6625 1,7.65703125 C1,7.65703125 1,7.65703125 1,7.65703125 C1,6.31640625 1.47890625,5.11875 2.43671875,4.11328125 C2.43671875,4.11328125 2.43671875,4.11328125 2.43671875,4.11328125 C2.43671875,4.11328125 4.1609375,2.43671875 4.1609375,2.43671875 C4.4,2.14921875 4.78359375,2.00546875 5.21484375,2.00546875 C5.21484375,2.00546875 5.21484375,2.00546875 5.21484375,2.00546875 C5.64609375,2.00546875 5.98125,2.14921875 6.26875,2.43671875 C6.26875,2.43671875 6.26875,2.43671875 6.26875,2.43671875 C6.26875,2.43671875 9.046875,5.2625 9.046875,5.2625 C9.38203125,5.5015625 9.52578125,5.88515625 9.52578125,6.31640625 C9.52578125,6.31640625 9.52578125,6.31640625 9.52578125,6.31640625 C9.52578125,6.69921875 9.38203125,7.03515625 9.046875,7.3703125 C9.046875,7.3703125 9.046875,7.3703125 9.046875,7.3703125 C9.046875,7.3703125 7.84921875,8.56796875 7.84921875,8.56796875 C7.6578125,8.759375 7.56171875,8.99921875 7.56171875,9.28671875 C7.56171875,9.28671875 7.56171875,9.28671875 7.56171875,9.28671875 C7.56171875,9.478125 7.609375,9.66953125 7.70546875,9.81328125 C7.70546875,9.81328125 7.70546875,9.81328125 7.70546875,9.81328125 C8.7109375,11.4414063 9.8609375,12.9742188 11.2015625,14.4109375 C11.2015625,14.4109375 11.2015625,14.4109375 11.2015625,14.4109375 C12.6382812,15.7515625 14.1226562,16.853125 15.6554687,17.7632813 C15.6554687,17.7632813 15.6554687,17.7632813 15.6554687,17.7632813 C15.846875,17.9070313 16.0382812,18.0023438 16.278125,18.0023438 C16.278125,18.0023438 16.278125,18.0023438 16.278125,18.0023438 C16.565625,18.0023438 16.8046875,17.90625 16.996875,17.7148438 C16.996875,17.7148438 16.996875,17.7148438 16.996875,17.7148438 C16.996875,17.7148438 18.1945313,16.5171875 18.1945313,16.5171875 C18.5296875,16.1820313 18.8648438,16.0382813 19.2484375,16.0382813 C19.2484375,16.0382813 19.2484375,16.0382813 19.2484375,16.0382813 C19.6796875,16.0382813 20.0625,16.1820313 20.3023437,16.5171875 C20.3023437,16.5171875 20.3023437,16.5171875 20.3023437,16.5171875 L20.3,16.5164062 Z M24.41875,8.03984375 C24.41875,8.03984375 24.41875,8.03984375 24.41875,8.03984375 C24.41875,8.03984375 22.4554688,6.0765625 22.4554688,6.0765625 C22.359375,5.98046875 22.2164062,5.9328125 22.0726563,5.9328125 C22.0726563,5.9328125 22.0726563,5.9328125 22.0726563,5.9328125 C21.7375,5.9328125 21.59375,6.0765625 21.59375,6.41171875 C21.59375,6.41171875 21.59375,6.41171875 21.59375,6.41171875 C21.59375,6.55546875 21.6414063,6.65078125 21.7375,6.746875 C21.7375,6.746875 21.7375,6.746875 21.7375,6.746875 C21.7375,6.746875 22.8867188,7.89609375 22.8867188,7.89609375 C22.8867188,7.89609375 17.6664063,7.89609375 17.6664063,7.89609375 C17.6664063,7.89609375 17.6664063,2.67578125 17.6664063,2.67578125 C17.6664063,2.67578125 18.815625,3.825 18.815625,3.825 C18.9117188,3.92109375 19.0070313,3.96875 19.1507813,3.96875 C19.1507813,3.96875 19.1507813,3.96875 19.1507813,3.96875 C19.4859375,3.96875 19.6296875,3.825 19.6296875,3.48984375 C19.6296875,3.48984375 19.6296875,3.48984375 19.6296875,3.48984375 C19.6296875,3.34609375 19.5820313,3.20234375 19.4859375,3.10703125 C19.4859375,3.10703125 19.4859375,3.10703125 19.4859375,3.10703125 C19.4859375,3.10703125 17.5226563,1.14375 17.5226563,1.14375 C17.33125,1.04765625 17.2351563,1 17.1875,1 C17.1398438,1 17.04375,1.04765625 16.8523438,1.14375 C16.8523438,1.14375 16.8523438,1.14375 16.8523438,1.14375 C16.8523438,1.14375 14.8890625,3.10703125 14.8890625,3.10703125 C14.7929688,3.203125 14.7453125,3.34609375 14.7453125,3.48984375 C14.7453125,3.48984375 14.7453125,3.48984375 14.7453125,3.48984375 C14.7453125,3.825 14.8890625,3.96875 15.2242188,3.96875 C15.2242188,3.96875 15.2242188,3.96875 15.2242188,3.96875 C15.3679688,3.96875 15.4632813,3.92109375 15.559375,3.825 C15.559375,3.825 15.559375,3.825 15.559375,3.825 C15.559375,3.825 16.7085938,2.67578125 16.7085938,2.67578125 C16.7085938,2.67578125 16.7085938,8.18359375 16.7085938,8.18359375 C16.7085938,8.18359375 13.4039063,11.440625 13.4039063,11.440625 C13.3078125,11.5367187 13.2601563,11.6796875 13.2601563,11.8234375 C13.2601563,11.8234375 13.2601563,11.8234375 13.2601563,11.8234375 C13.2601563,12.1585937 13.4039063,12.3023438 13.7390625,12.3023438 C13.7390625,12.3023438 13.7390625,12.3023438 13.7390625,12.3023438 C13.9304688,12.3023438 14.0265625,12.2546875 14.0742188,12.1585937 C14.0742188,12.1585937 14.0742188,12.1585937 14.0742188,12.1585937 C14.0742188,12.1585937 17.3789062,8.85390625 17.3789062,8.85390625 C17.3789062,8.85390625 22.8867188,8.85390625 22.8867188,8.85390625 C22.8867188,8.85390625 21.7375,10.003125 21.7375,10.003125 C21.6414063,10.0992187 21.59375,10.1945312 21.59375,10.3382812 C21.59375,10.3382812 21.59375,10.3382812 21.59375,10.3382812 C21.59375,10.6734375 21.7375,10.8171875 22.0726563,10.8171875 C22.0726563,10.8171875 22.0726563,10.8171875 22.0726563,10.8171875 C22.2164062,10.8171875 22.3601562,10.7695312 22.4554688,10.6734375 C22.4554688,10.6734375 22.4554688,10.6734375 22.4554688,10.6734375 C22.4554688,10.6734375 24.41875,8.71015625 24.41875,8.71015625 C24.5148438,8.51875 24.5625,8.42265625 24.5625,8.375 C24.5625,8.32734375 24.5148438,8.23125 24.41875,8.03984375 Z"/>
  <title>Phone Split Solid</title>
</svg>