<svg xmlns="http://www.w3.org/2000/svg" viewBox="0 0 25 25" id="phone-split">
  <path d="M23.1273438,19.2945313 C23.1273438,19.2945313 20.3015625,16.5164063 20.3015625,16.5164063 C20.0625,16.18125 19.6789063,16.0375 19.2476562,16.0375 C19.2476562,16.0375 19.2476562,16.0375 19.2476562,16.0375 C18.8648438,16.0375 18.5289062,16.18125 18.19375,16.5164063 C18.19375,16.5164063 18.19375,16.5164063 18.19375,16.5164063 C18.19375,16.5164063 16.9960938,17.7140625 16.9960938,17.7140625 C16.8046875,17.9054688 16.5648438,18.0015625 16.2773438,18.0015625 C16.2773438,18.0015625 16.2773438,18.0015625 16.2773438,18.0015625 C16.0382812,18.0015625 15.8945312,17.9539063 15.7507812,17.8578125 C15.7507812,17.8578125 15.7507812,17.8578125 15.7507812,17.8578125 C14.1226562,16.8523438 12.5898438,15.7023438 11.153125,14.3617187 C11.153125,14.3617187 11.153125,14.3617187 11.153125,14.3617187 C9.8125,12.925 8.7109375,11.440625 7.80078125,9.9078125 C7.80078125,9.9078125 7.80078125,9.9078125 7.80078125,9.9078125 C7.65703125,9.71640625 7.56171875,9.525 7.56171875,9.28515625 C7.56171875,9.28515625 7.56171875,9.28515625 7.56171875,9.28515625 C7.56171875,8.99765625 7.6578125,8.75859375 7.84921875,8.56640625 C7.84921875,8.56640625 7.84921875,8.56640625 7.84921875,8.56640625 C7.84921875,8.56640625 9.046875,7.36875 9.046875,7.36875 C9.38203125,7.03359375 9.52578125,6.6984375 9.52578125,6.31484375 C9.52578125,6.31484375 9.52578125,6.31484375 9.52578125,6.31484375 C9.52578125,5.88359375 9.38203125,5.50078125 9.046875,5.2609375 C9.046875,5.2609375 9.046875,5.2609375 9.046875,5.2609375 C9.046875,5.2609375 6.26875,2.43515625 6.26875,2.43515625 C5.98125,2.14765625 5.64609375,2.00390625 5.21484375,2.00390625 C5.21484375,2.00390625 5.21484375,2.00390625 5.21484375,2.00390625 C4.78359375,2.00390625 4.40078125,2.14765625 4.1609375,2.43515625 C4.1609375,2.43515625 4.1609375,2.43515625 4.1609375,2.43515625 C4.1609375,2.43515625 2.43671875,4.11171875 2.43671875,4.11171875 C1.47890625,5.1171875 1,6.31484375 1,7.65546875 C1,7.65546875 1,7.65546875 1,7.65546875 C1,8.6609375 1.2875,9.57109375 1.86171875,10.48125 C1.86171875,10.48125 1.86171875,10.48125 1.86171875,10.48125 C3.53828125,13.0195312 5.5015625,15.5101562 7.7046875,17.9523437 C7.7046875,17.9523437 7.7046875,17.9523437 7.7046875,17.9523437 C10.146875,20.1078125 12.5421875,21.975 14.8882813,23.5554687 C14.8882813,23.5554687 14.8882813,23.5554687 14.8882813,23.5554687 C15.89375,24.2257813 16.9,24.5609375 17.9054688,24.5609375 C17.9054688,24.5609375 17.9054688,24.5609375 17.9054688,24.5609375 C19.2460938,24.5609375 20.44375,24.0820312 21.4492188,23.1242187 C21.4492188,23.1242187 21.4492188,23.1242187 21.4492188,23.1242187 C21.4492188,23.1242187 23.1257813,21.4 23.1257813,21.4 C23.4132813,21.1609375 23.5570313,20.825 23.5570313,20.3460937 C23.5570313,20.3460937 23.5570313,20.3460937 23.5570313,20.3460937 C23.5570313,19.9148437 23.4132813,19.5796875 23.1257813,19.2921875 C23.1257813,19.2921875 23.1257813,19.2921875 23.1257813,19.2921875 L23.1273438,19.2945313 Z M22.4085938,20.73125 C22.4085938,20.73125 22.4085938,20.73125 22.4085938,20.73125 C22.4085938,20.73125 20.7320313,22.4078125 20.7320313,22.4078125 C19.965625,23.1742188 19.0078125,23.5570313 17.90625,23.5570313 C17.90625,23.5570313 17.90625,23.5570313 17.90625,23.5570313 C17.0445313,23.5570313 16.278125,23.3179688 15.6554688,22.8867188 C15.6554688,22.8867188 15.6554688,22.8867188 15.6554688,22.8867188 C12.9734375,21.1148437 10.53125,19.1992188 8.2796875,17.1398438 C8.2796875,17.1398438 8.2796875,17.1398438 8.2796875,17.1398438 C6.31640625,14.984375 4.49609375,12.6382813 2.81953125,10.1 C2.81953125,10.1 2.81953125,10.1 2.81953125,10.1 C2.24453125,9.2859375 1.9578125,8.471875 1.9578125,7.6578125 C1.9578125,7.6578125 1.9578125,7.6578125 1.9578125,7.6578125 C1.9578125,6.55625 2.340625,5.64609375 3.15546875,4.83203125 C3.15546875,4.83203125 3.15546875,4.83203125 3.15546875,4.83203125 C3.15546875,4.83203125 4.83203125,3.15546875 4.83203125,3.15546875 C4.97578125,3.01171875 5.07109375,2.9640625 5.21484375,2.9640625 C5.21484375,2.9640625 5.21484375,2.9640625 5.21484375,2.9640625 C5.3109375,2.9640625 5.40625,3.01171875 5.55,3.15546875 C5.55,3.15546875 5.55,3.15546875 5.55,3.15546875 C5.55,3.15546875 8.37578125,5.93359375 8.37578125,5.93359375 C8.471875,6.0296875 8.51953125,6.17265625 8.51953125,6.31640625 C8.51953125,6.31640625 8.51953125,6.31640625 8.51953125,6.31640625 C8.51953125,6.46015625 8.471875,6.55546875 8.37578125,6.6515625 C8.37578125,6.6515625 8.37578125,6.6515625 8.37578125,6.6515625 C8.37578125,6.6515625 7.178125,7.896875 7.178125,7.896875 C6.7953125,8.23203125 6.603125,8.7109375 6.603125,9.2859375 C6.603125,9.2859375 6.603125,9.2859375 6.603125,9.2859375 C6.603125,9.66875 6.69921875,10.0046875 6.890625,10.2914063 C6.890625,10.2914063 6.890625,10.2914063 6.890625,10.2914063 C7.89609375,12.0632813 9.09375,13.6921875 10.4828125,15.0804688 C10.4828125,15.0804688 10.4828125,15.0804688 10.4828125,15.0804688 C11.871875,16.4210938 13.4039063,17.61875 15.128125,18.6242188 C15.128125,18.6242188 15.128125,18.6242188 15.128125,18.6242188 C15.559375,18.8632813 15.9421875,18.959375 16.2773438,18.959375 C16.2773438,18.959375 16.2773438,18.959375 16.2773438,18.959375 C16.9,18.959375 17.33125,18.7679688 17.6664063,18.384375 C17.6664063,18.384375 17.6664063,18.384375 17.6664063,18.384375 C17.6664063,18.384375 18.9117188,17.1867188 18.9117188,17.1867188 C19.0078125,17.090625 19.103125,17.0429688 19.246875,17.0429688 C19.246875,17.0429688 19.246875,17.0429688 19.246875,17.0429688 C19.390625,17.0429688 19.534375,17.090625 19.6296875,17.1867188 C19.6296875,17.1867188 19.6296875,17.1867188 19.6296875,17.1867188 C19.6296875,17.1867188 22.4078125,20.0125 22.4078125,20.0125 C22.5515625,20.15625 22.5992188,20.2515625 22.5992188,20.3476562 C22.5992188,20.3476562 22.5992188,20.3476562 22.5992188,20.3476562 C22.5992188,20.4914062 22.5515625,20.5867188 22.4078125,20.7304688 L22.4085938,20.73125 Z M24.4203125,8.71015625 C24.4203125,8.71015625 24.4203125,8.71015625 24.4203125,8.71015625 C24.4203125,8.71015625 22.4570313,10.6734375 22.4570313,10.6734375 C22.3609375,10.7695312 22.2179688,10.8171875 22.0742188,10.8171875 C22.0742188,10.8171875 22.0742188,10.8171875 22.0742188,10.8171875 C21.7390625,10.8171875 21.5953125,10.6734375 21.5953125,10.3382813 C21.5953125,10.3382813 21.5953125,10.3382813 21.5953125,10.3382813 C21.5953125,10.1945313 21.6429688,10.0992188 21.7390625,10.003125 C21.7390625,10.003125 21.7390625,10.003125 21.7390625,10.003125 C21.7390625,10.003125 22.8882813,8.85390625 22.8882813,8.85390625 C22.8882813,8.85390625 17.3804688,8.85390625 17.3804688,8.85390625 C17.3804688,8.85390625 14.0757813,12.1585937 14.0757813,12.1585937 C14.028125,12.2546875 13.9320313,12.3023438 13.740625,12.3023438 C13.740625,12.3023438 13.740625,12.3023438 13.740625,12.3023438 C13.4054688,12.3023438 13.2617188,12.1585937 13.2617188,11.8234375 C13.2617188,11.8234375 13.2617188,11.8234375 13.2617188,11.8234375 C13.2617188,11.6796875 13.309375,11.5359375 13.4054688,11.440625 C13.4054688,11.440625 13.4054688,11.440625 13.4054688,11.440625 C13.4054688,11.440625 16.7101563,8.18359375 16.7101563,8.18359375 C16.7101563,8.18359375 16.7101563,2.67578125 16.7101563,2.67578125 C16.7101563,2.67578125 15.5609375,3.825 15.5609375,3.825 C15.4648438,3.92109375 15.3695313,3.96875 15.2257813,3.96875 C15.2257813,3.96875 15.2257813,3.96875 15.2257813,3.96875 C14.890625,3.96875 14.746875,3.825 14.746875,3.48984375 C14.746875,3.48984375 14.746875,3.48984375 14.746875,3.48984375 C14.746875,3.34609375 14.7945313,3.20234375 14.890625,3.10703125 C14.890625,3.10703125 14.890625,3.10703125 14.890625,3.10703125 C14.890625,3.10703125 16.8539063,1.14375 16.8539063,1.14375 C17.0453125,1.04765625 17.1414063,1 17.1890625,1 C17.2367188,1 17.3328125,1.04765625 17.5242188,1.14375 C17.5242188,1.14375 17.5242188,1.14375 17.5242188,1.14375 C17.5242188,1.14375 19.4875,3.10703125 19.4875,3.10703125 C19.5835938,3.203125 19.63125,3.34609375 19.63125,3.48984375 C19.63125,3.48984375 19.63125,3.48984375 19.63125,3.48984375 C19.63125,3.825 19.4875,3.96875 19.1523438,3.96875 C19.1523438,3.96875 19.1523438,3.96875 19.1523438,3.96875 C19.0085938,3.96875 18.9132813,3.92109375 18.8171875,3.825 C18.8171875,3.825 18.8171875,3.825 18.8171875,3.825 C18.8171875,3.825 17.6679688,2.67578125 17.6679688,2.67578125 C17.6679688,2.67578125 17.6679688,7.89609375 17.6679688,7.89609375 C17.6679688,7.89609375 22.8882813,7.89609375 22.8882813,7.89609375 C22.8882813,7.89609375 21.7390625,6.746875 21.7390625,6.746875 C21.6429688,6.65078125 21.5953125,6.55546875 21.5953125,6.41171875 C21.5953125,6.41171875 21.5953125,6.41171875 21.5953125,6.41171875 C21.5953125,6.0765625 21.7390625,5.9328125 22.0742188,5.9328125 C22.0742188,5.9328125 22.0742188,5.9328125 22.0742188,5.9328125 C22.2179688,5.9328125 22.3617188,5.98046875 22.4570313,6.0765625 C22.4570313,6.0765625 22.4570313,6.0765625 22.4570313,6.0765625 C22.4570313,6.0765625 24.4203125,8.03984375 24.4203125,8.03984375 C24.5164063,8.23125 24.5640625,8.32734375 24.5640625,8.375 C24.5640625,8.42265625 24.5164063,8.51875 24.4203125,8.71015625 L24.4203125,8.71015625 Z"/>
  <title>Phone Split</title>
</svg>