<svg xmlns="http://www.w3.org/2000/svg" viewBox="0 0 25 25" id="phone-hangup">
  <path d="M1.00546875,16.0453125 C1.00546875,16.0453125 1.00546875,16.0453125 1.00546875,16.0453125 C1.14921875,16.1414063 1.29296875,16.1890625 1.340625,16.1890625 C1.340625,16.1890625 1.340625,16.1890625 1.340625,16.1890625 C1.340625,16.1890625 4.98046875,16.1890625 4.98046875,16.1890625 C5.12421875,16.1890625 5.26796875,16.1414063 5.315625,16.0929688 C5.315625,16.0929688 5.315625,16.0929688 5.315625,16.0929688 C5.41171875,15.996875 5.459375,15.8539063 5.459375,15.7101563 C5.459375,15.7101563 5.459375,15.7101563 5.459375,15.7101563 C5.459375,15.7101563 5.459375,14.1296875 5.459375,14.1296875 C5.50703125,13.5546875 5.6984375,13.1242188 5.9859375,12.884375 C5.9859375,12.884375 5.9859375,12.884375 5.9859375,12.884375 C6.225,12.6453125 6.5125,12.453125 6.94375,12.4054688 C6.94375,12.4054688 6.94375,12.4054688 6.94375,12.4054688 C8.76328125,11.9265625 10.5359375,11.6867188 12.2117187,11.6390625 C12.2117187,11.6390625 12.2117187,11.6390625 12.2117187,11.6390625 C13.8398437,11.6867188 15.6601562,11.9265625 17.671875,12.4054688 C17.671875,12.4054688 17.671875,12.4054688 17.671875,12.4054688 C18.0070312,12.453125 18.2945312,12.6453125 18.5335937,12.884375 C18.5335937,12.884375 18.5335937,12.884375 18.5335937,12.884375 C18.8210937,13.1234375 19.0125,13.5546875 19.0601562,14.1296875 C19.0601562,14.1296875 19.0601562,14.1296875 19.0601562,14.1296875 C19.0601562,14.1296875 19.0601562,15.7101563 19.0601562,15.7101563 C19.0601562,15.8539063 19.1078125,15.9976563 19.2039062,16.0929688 C19.2039062,16.0929688 19.2039062,16.0929688 19.2039062,16.0929688 C19.2515625,16.140625 19.3953125,16.1890625 19.5390625,16.1890625 C19.5390625,16.1890625 19.5390625,16.1890625 19.5390625,16.1890625 C19.5390625,16.1890625 23.1789063,16.1890625 23.1789063,16.1890625 C23.3226562,16.1890625 23.4179688,16.1414063 23.5140625,16.0453125 C23.5140625,16.0453125 23.5140625,16.0453125 23.5140625,16.0453125 C23.5617187,15.9015625 23.6101562,15.80625 23.6101562,15.7101563 C23.6101562,15.7101563 23.6101562,15.7101563 23.6101562,15.7101563 C23.6101562,15.7101563 23.6578125,13.5546875 23.6578125,13.5546875 C23.6578125,12.5492188 23.275,11.6867188 22.55625,10.96875 C22.55625,10.96875 22.55625,10.96875 22.55625,10.96875 C22.0296875,10.4421875 21.3109375,10.0585938 20.4007812,9.91484375 C20.4007812,9.91484375 20.4007812,9.91484375 20.4007812,9.91484375 C17.9101562,9.38828125 15.228125,9.053125 12.3070312,8.909375 C12.3070312,8.909375 12.3070312,8.909375 12.3070312,8.909375 C9.28984375,9.053125 6.4640625,9.4359375 3.878125,9.96328125 C3.878125,9.96328125 3.878125,9.96328125 3.878125,9.96328125 C3.11171875,10.059375 2.4890625,10.3945312 1.9625,10.96875 C1.9625,10.96875 1.9625,10.96875 1.9625,10.96875 C1.24375,11.6875 0.8609375,12.5492187 0.8609375,13.5546875 C0.8609375,13.5546875 0.8609375,13.5546875 0.8609375,13.5546875 C0.8609375,13.5546875 0.90859375,15.7101563 0.90859375,15.7101563 C0.90859375,15.80625 0.95625,15.9015625 1.0046875,16.0453125 L1.00546875,16.0453125 Z M0.3828125,16.6679688 C0.3828125,16.6679688 0.3828125,16.6679688 0.3828125,16.6679688 C0.14375,16.4289062 0,16.0929687 0,15.7101563 C0,15.7101563 0,15.7101563 0,15.7101563 C0,15.7101563 0,13.5546875 0,13.5546875 C0,12.309375 0.43125,11.2554688 1.340625,10.3460937 C1.340625,10.3460937 1.340625,10.3460937 1.340625,10.3460937 C2.059375,9.62734375 2.92109375,9.196875 3.975,9.00546875 C3.975,9.00546875 3.975,9.00546875 3.975,9.00546875 C7.23203125,8.43046875 9.96171875,8.0953125 12.2125,8 C12.2125,8 12.2125,8 12.2125,8 C14.9421875,8.09609375 17.7679688,8.43125 20.7851562,9.05390625 C20.7851562,9.05390625 20.7851562,9.05390625 20.7851562,9.05390625 C21.6953125,9.2453125 22.509375,9.6765625 23.2273438,10.2992187 C23.2273438,10.2992187 23.2273438,10.2992187 23.2273438,10.2992187 C24.0890625,11.1609375 24.5203125,12.2625 24.5203125,13.55625 C24.5203125,13.55625 24.5203125,13.55625 24.5203125,13.55625 C24.5203125,13.55625 24.5203125,15.7117187 24.5203125,15.7117187 C24.5203125,16.0945312 24.3765625,16.4304688 24.1375,16.6695312 C24.1375,16.6695312 24.1375,16.6695312 24.1375,16.6695312 C23.8984375,17.0046875 23.5625,17.1007812 23.1796875,17.0523437 C23.1796875,17.0523437 23.1796875,17.0523437 23.1796875,17.0523437 C23.1796875,17.0523437 19.5398437,17.1 19.5398437,17.1 C19.1570313,17.1 18.8210937,16.95625 18.5820312,16.66875 C18.5820312,16.66875 18.5820312,16.66875 18.5820312,16.66875 C18.2945313,16.4296875 18.1507813,16.09375 18.1507813,15.7109375 C18.1507813,15.7109375 18.1507813,15.7109375 18.1507813,15.7109375 C18.1507813,15.7109375 18.1507813,14.1304687 18.1507813,14.1304687 C18.1507813,13.8914062 18.0546875,13.6992188 17.9117187,13.5554687 C17.9117187,13.5554687 17.9117187,13.5554687 17.9117187,13.5554687 C17.7679688,13.4117187 17.5765625,13.3164062 17.3367187,13.2203125 C17.3367187,13.2203125 17.3367187,13.2203125 17.3367187,13.2203125 C15.75625,12.8375 14.0796875,12.5976562 12.2601562,12.55 C12.2601562,12.55 12.2601562,12.55 12.2601562,12.55 C10.5359375,12.5976562 8.81171875,12.8375 7.03984375,13.26875 C7.03984375,13.26875 7.03984375,13.26875 7.03984375,13.26875 C6.89609375,13.3164062 6.75234375,13.4125 6.60859375,13.55625 C6.60859375,13.55625 6.60859375,13.55625 6.60859375,13.55625 C6.4171875,13.7476563 6.32109375,13.9390625 6.36953125,14.13125 C6.36953125,14.13125 6.36953125,14.13125 6.36953125,14.13125 C6.36953125,14.13125 6.36953125,15.7117187 6.36953125,15.7117187 C6.36953125,16.046875 6.22578125,16.3820313 5.93828125,16.6695312 C5.93828125,16.6695312 5.93828125,16.6695312 5.93828125,16.6695312 C5.69921875,16.9570312 5.36328125,17.1007812 4.98046875,17.1007812 C4.98046875,17.1007812 4.98046875,17.1007812 4.98046875,17.1007812 C4.98046875,17.1007812 1.340625,17.053125 1.340625,17.053125 C0.9578125,17.1007812 0.621875,17.0054687 0.3828125,16.6703125 C0.3828125,16.6703125 0.3828125,16.6703125 0.3828125,16.6703125 L0.3828125,16.6679688 Z"/>
  <title>Phone Hangup</title>
</svg>