<svg xmlns="http://www.w3.org/2000/svg" viewBox="0 0 25 25" id="phone-disabled">
  <path d="M16.0390625,8.5671875 C16.9007813,9.42890625 17.9546875,9.86015625 19.1523438,9.86015625 C20.35,9.86015625 21.403125,9.42890625 22.265625,8.5671875 C23.1273438,7.70546875 23.5585938,6.6515625 23.5585938,5.45390625 C23.5585938,4.25625 23.1273438,3.203125 22.265625,2.29296875 C21.4039063,1.43125 20.35,1 19.1523438,1 C17.9546875,1 16.9015625,1.43125 16.0390625,2.29296875 C15.1773438,3.203125 14.7460938,4.25625 14.7460938,5.45390625 C14.7460938,6.6515625 15.1773438,7.7046875 16.0390625,8.5671875 Z M19.1523438,2.00546875 C19.1523438,2.00546875 19.1523438,2.00546875 19.1523438,2.00546875 C20.0625,2.00546875 20.8765625,2.340625 21.5945313,3.0109375 C22.2648438,3.68125 22.6,4.4953125 22.6,5.453125 C22.6,5.453125 22.6,5.453125 22.6,5.453125 C22.6,6.171875 22.3609375,6.88984375 21.88125,7.5125 C21.88125,7.5125 21.88125,7.5125 21.88125,7.5125 C21.88125,7.5125 17.0921875,2.675 17.0921875,2.675 C17.7148438,2.24375 18.3851563,2.0046875 19.1515625,2.0046875 L19.1523438,2.00546875 Z M16.4226563,3.39453125 C16.4226563,3.39453125 16.4226563,3.39453125 16.4226563,3.39453125 C16.4226563,3.39453125 21.2117188,8.18359375 21.2117188,8.18359375 C20.5890625,8.61484375 19.91875,8.85390625 19.1523438,8.85390625 C19.1523438,8.85390625 19.1523438,8.85390625 19.1523438,8.85390625 C18.1945313,8.85390625 17.3804688,8.51875 16.7101563,7.8484375 C16.0398438,7.178125 15.7046875,6.3640625 15.7046875,5.45390625 C15.7046875,5.45390625 15.7046875,5.45390625 15.7046875,5.45390625 C15.7046875,4.73515625 15.94375,4.0171875 16.4234375,3.39453125 L16.4226563,3.39453125 Z M23.1273438,18.3375 C23.1273438,18.3375 20.3015625,15.5117187 20.3015625,15.5117187 C20.0625,15.2242188 19.6789063,15.0804687 19.2476562,15.0804687 C19.2476562,15.0804687 19.2476562,15.0804687 19.2476562,15.0804687 C18.8164062,15.0804687 18.48125,15.2242188 18.19375,15.5117187 C18.19375,15.5117187 18.19375,15.5117187 18.19375,15.5117187 C18.19375,15.5117187 16.9960938,16.709375 16.9960938,16.709375 C16.8046875,16.9007813 16.5648438,16.996875 16.2773438,16.996875 C16.2773438,16.996875 16.2773438,16.996875 16.2773438,16.996875 C16.0382812,16.996875 15.8945312,16.9492188 15.7507812,16.853125 C15.7507812,16.853125 15.7507812,16.853125 15.7507812,16.853125 C14.1703125,15.9429687 12.6375,14.79375 11.153125,13.4046875 C11.153125,13.4046875 11.153125,13.4046875 11.153125,13.4046875 C9.9078125,12.0640625 8.80625,10.5789063 7.80078125,8.95078125 C7.80078125,8.95078125 7.80078125,8.95078125 7.80078125,8.95078125 C7.65703125,8.71171875 7.56171875,8.51953125 7.56171875,8.28046875 C7.56171875,8.28046875 7.56171875,8.28046875 7.56171875,8.28046875 C7.56171875,7.99296875 7.6578125,7.75390625 7.84921875,7.61015625 C7.84921875,7.61015625 7.84921875,7.61015625 7.84921875,7.61015625 C7.84921875,7.61015625 9.046875,6.36484375 9.046875,6.36484375 C9.38203125,6.12578125 9.52578125,5.7421875 9.52578125,5.3109375 C9.52578125,5.3109375 9.52578125,5.3109375 9.52578125,5.3109375 C9.52578125,4.928125 9.38203125,4.5921875 9.046875,4.25703125 C9.046875,4.25703125 9.046875,4.25703125 9.046875,4.25703125 C9.046875,4.25703125 6.26875,1.47890625 6.26875,1.47890625 C5.93359375,1.14375 5.5984375,1 5.21484375,1 C5.21484375,1 5.21484375,1 5.21484375,1 C4.78359375,1 4.40078125,1.14375 4.1609375,1.47890625 C4.1609375,1.47890625 4.1609375,1.47890625 4.1609375,1.47890625 C4.1609375,1.47890625 2.43671875,3.15546875 2.43671875,3.15546875 C1.47890625,4.1609375 1,5.35859375 1,6.6515625 C1,6.6515625 1,6.6515625 1,6.6515625 C1,7.70546875 1.2875,8.66328125 1.86171875,9.47734375 C1.86171875,9.47734375 1.86171875,9.47734375 1.86171875,9.47734375 C3.63359375,12.1117187 5.59765625,14.65 7.7046875,16.996875 C7.7046875,16.996875 7.7046875,16.996875 7.7046875,16.996875 C10.146875,19.2 12.5421875,21.0679687 14.8882813,22.5523437 C14.8882813,22.5523437 14.8882813,22.5523437 14.8882813,22.5523437 C15.89375,23.2710938 16.9,23.60625 17.9054688,23.60625 C17.9054688,23.60625 17.9054688,23.60625 17.9054688,23.60625 C19.2945312,23.60625 20.44375,23.1273437 21.4492188,22.121875 C21.4492188,22.121875 21.4492188,22.121875 21.4492188,22.121875 C21.4492188,22.121875 23.1257813,20.4453125 23.1257813,20.4453125 C23.4132813,20.1578125 23.5570313,19.8226562 23.5570313,19.3914062 C23.5570313,19.3914062 23.5570313,19.3914062 23.5570313,19.3914062 C23.5570313,18.9125 23.4132813,18.5773437 23.1257813,18.3375 C23.1257813,18.3375 23.1257813,18.3375 23.1257813,18.3375 L23.1273438,18.3375 Z M22.4085938,19.7257813 C22.4085938,19.7257813 22.4085938,19.7257813 22.4085938,19.7257813 C22.4085938,19.7257813 20.7320313,21.45 20.7320313,21.45 C19.965625,22.2164063 19.0078125,22.5992188 17.90625,22.5992188 C17.90625,22.5992188 17.90625,22.5992188 17.90625,22.5992188 C17.0445313,22.5992188 16.278125,22.3601562 15.6554688,21.8804688 C15.6554688,21.8804688 15.6554688,21.8804688 15.6554688,21.8804688 C13.0210938,20.1085938 10.5789063,18.240625 8.2796875,16.18125 C8.2796875,16.18125 8.2796875,16.18125 8.2796875,16.18125 C6.17265625,13.834375 4.35234375,11.4875 2.81953125,9.14140625 C2.81953125,9.14140625 2.81953125,9.14140625 2.81953125,9.14140625 C2.24453125,8.2796875 1.9578125,7.46484375 1.9578125,6.65078125 C1.9578125,6.65078125 1.9578125,6.65078125 1.9578125,6.65078125 C1.9578125,5.54921875 2.340625,4.6390625 3.15546875,3.825 C3.15546875,3.825 3.15546875,3.825 3.15546875,3.825 C3.15546875,3.825 4.83203125,2.1484375 4.83203125,2.1484375 C4.928125,2.05234375 5.07109375,2.0046875 5.21484375,2.0046875 C5.21484375,2.0046875 5.21484375,2.0046875 5.21484375,2.0046875 C5.35859375,2.0046875 5.45390625,2.05234375 5.55,2.1484375 C5.55,2.1484375 5.55,2.1484375 5.55,2.1484375 C5.55,2.1484375 8.37578125,4.97421875 8.37578125,4.97421875 C8.471875,5.0703125 8.51953125,5.165625 8.51953125,5.309375 C8.51953125,5.309375 8.51953125,5.309375 8.51953125,5.309375 C8.51953125,5.453125 8.471875,5.596875 8.37578125,5.6921875 C8.37578125,5.6921875 8.37578125,5.6921875 8.37578125,5.6921875 C8.37578125,5.6921875 7.178125,6.88984375 7.178125,6.88984375 C6.7953125,7.27265625 6.603125,7.7515625 6.603125,8.27890625 C6.603125,8.27890625 6.603125,8.27890625 6.603125,8.27890625 C6.603125,8.71015625 6.69921875,9.0453125 6.890625,9.3328125 C6.890625,9.3328125 6.890625,9.3328125 6.890625,9.3328125 C7.8484375,11.009375 9.04609375,12.5898438 10.4828125,14.121875 C10.4828125,14.121875 10.4828125,14.121875 10.4828125,14.121875 C11.9195313,15.4625 13.4523438,16.6125 15.128125,17.6179688 C15.128125,17.6179688 15.128125,17.6179688 15.128125,17.6179688 C15.5109375,17.8570312 15.8945313,18.0007813 16.2773438,18.0007813 C16.2773438,18.0007813 16.2773438,18.0007813 16.2773438,18.0007813 C16.8039063,18.0007813 17.2828125,17.809375 17.6664063,17.4257812 C17.6664063,17.4257812 17.6664063,17.4257812 17.6664063,17.4257812 C17.6664063,17.4257812 18.9117188,16.228125 18.9117188,16.228125 C19.0554688,16.084375 19.1507813,16.0367187 19.246875,16.0367187 C19.246875,16.0367187 19.246875,16.0367187 19.246875,16.0367187 C19.390625,16.0367187 19.4859375,16.084375 19.6296875,16.228125 C19.6296875,16.228125 19.6296875,16.228125 19.6296875,16.228125 C19.6296875,16.228125 22.4078125,19.00625 22.4078125,19.00625 C22.5515625,19.15 22.5992188,19.2453125 22.5992188,19.3890625 C22.5992188,19.3890625 22.5992188,19.3890625 22.5992188,19.3890625 C22.5992188,19.4851562 22.5515625,19.5804687 22.4078125,19.7242187 L22.4085938,19.7257813 Z"/>
  <title>Phone Disabled</title>
</svg>