<svg xmlns="http://www.w3.org/2000/svg" viewBox="0 0 25 25" id="phone-list-solid">
  <path d="M20.3,15.5117187 C20.3,15.5117187 23.1257813,18.3375 23.1257813,18.3375 C23.4132813,18.5765625 23.5570313,18.9601563 23.5570313,19.3914062 C23.5570313,19.3914062 23.5570313,19.3914062 23.5570313,19.3914062 C23.5570313,19.8226562 23.4132813,20.1578125 23.1257813,20.4453125 C23.1257813,20.4453125 23.1257813,20.4453125 23.1257813,20.4453125 C23.1257813,20.4453125 21.4492188,22.121875 21.4492188,22.121875 C20.4914063,23.1273437 19.29375,23.60625 17.9054688,23.60625 C17.9054688,23.60625 17.9054688,23.60625 17.9054688,23.60625 C16.9,23.60625 15.89375,23.2710938 14.8882813,22.5523437 C14.8882813,22.5523437 14.8882813,22.5523437 14.8882813,22.5523437 C12.6375,21.115625 10.2429687,19.2476562 7.7046875,16.996875 C7.7046875,16.996875 7.7046875,16.996875 7.7046875,16.996875 C5.69296875,14.7460937 3.7296875,12.2554688 1.86171875,9.47734375 C1.86171875,9.47734375 1.86171875,9.47734375 1.86171875,9.47734375 C1.28671875,8.66328125 1,7.70546875 1,6.6515625 C1,6.6515625 1,6.6515625 1,6.6515625 C1,5.35859375 1.47890625,4.209375 2.43671875,3.15546875 C2.43671875,3.15546875 2.43671875,3.15546875 2.43671875,3.15546875 C2.43671875,3.15546875 4.1609375,1.47890625 4.1609375,1.47890625 C4.49609375,1.14375 4.83125,1 5.21484375,1 C5.5984375,1 5.93359375,1.14375 6.26875,1.47890625 C6.26875,1.47890625 6.26875,1.47890625 6.26875,1.47890625 C6.26875,1.47890625 9.046875,4.25703125 9.046875,4.25703125 C9.38203125,4.5921875 9.52578125,4.92734375 9.52578125,5.3109375 C9.52578125,5.3109375 9.52578125,5.3109375 9.52578125,5.3109375 C9.52578125,5.78984375 9.38203125,6.125 9.046875,6.36484375 C9.046875,6.36484375 9.046875,6.36484375 9.046875,6.36484375 C9.046875,6.36484375 7.84921875,7.61015625 7.84921875,7.61015625 C7.6578125,7.8015625 7.56171875,8.04140625 7.56171875,8.28046875 C7.56171875,8.28046875 7.56171875,8.28046875 7.56171875,8.28046875 C7.56171875,8.51953125 7.6578125,8.71171875 7.80078125,8.95078125 C7.80078125,8.95078125 7.80078125,8.95078125 7.80078125,8.95078125 C8.80625,10.6273438 9.95625,12.1117187 11.153125,13.4046875 C11.153125,13.4046875 11.153125,13.4046875 11.153125,13.4046875 C12.6375,14.79375 14.1703125,15.9429687 15.7507812,16.853125 C15.7507812,16.853125 15.7507812,16.853125 15.7507812,16.853125 C15.8945312,16.9492188 16.0859375,16.996875 16.2773438,16.996875 C16.2773438,16.996875 16.2773438,16.996875 16.2773438,16.996875 C16.5648437,16.996875 16.8039062,16.9007813 16.9960938,16.709375 C16.9960938,16.709375 16.9960938,16.709375 16.9960938,16.709375 C16.9960938,16.709375 18.19375,15.5117188 18.19375,15.5117188 C18.48125,15.2242188 18.8164062,15.0804688 19.2476562,15.0804688 C19.2476562,15.0804688 19.2476562,15.0804688 19.2476562,15.0804688 C19.7265625,15.0804688 20.0617188,15.2242188 20.3015625,15.5117188 C20.3015625,15.5117188 20.3015625,15.5117188 20.3015625,15.5117188 L20.3,15.5117187 Z M22.1203125,2.9640625 C22.1203125,2.9640625 14.265625,2.9640625 14.265625,2.9640625 C13.9304687,2.9640625 13.7867187,2.8203125 13.7867187,2.5328125 C13.7867187,2.5328125 13.7867187,2.5328125 13.7867187,2.5328125 C13.7867187,2.19765625 13.9304687,2.00625 14.265625,2.00625 C14.265625,2.00625 14.265625,2.00625 14.265625,2.00625 C14.265625,2.00625 22.1203125,2.00625 22.1203125,2.00625 C22.4554687,2.00625 22.5992187,2.19765625 22.5992187,2.5328125 C22.5992187,2.5328125 22.5992187,2.5328125 22.5992187,2.5328125 C22.5992187,2.8203125 22.4554687,2.9640625 22.1203125,2.9640625 C22.1203125,2.9640625 22.1203125,2.9640625 22.1203125,2.9640625 L22.1203125,2.9640625 Z M22.1203125,6.89140625 C22.1203125,6.89140625 14.265625,6.89140625 14.265625,6.89140625 C13.9304687,6.89140625 13.7867187,6.74765625 13.7867187,6.46015625 C13.7867187,6.46015625 13.7867187,6.46015625 13.7867187,6.46015625 C13.7867187,6.125 13.9304687,5.93359375 14.265625,5.93359375 C14.265625,5.93359375 14.265625,5.93359375 14.265625,5.93359375 C14.265625,5.93359375 22.1203125,5.93359375 22.1203125,5.93359375 C22.4554687,5.93359375 22.5992187,6.125 22.5992187,6.46015625 C22.5992187,6.46015625 22.5992187,6.46015625 22.5992187,6.46015625 C22.5992187,6.74765625 22.4554687,6.89140625 22.1203125,6.89140625 C22.1203125,6.89140625 22.1203125,6.89140625 22.1203125,6.89140625 L22.1203125,6.89140625 Z M14.265625,9.86015625 C14.265625,9.86015625 22.1203125,9.86015625 22.1203125,9.86015625 C22.4554687,9.86015625 22.5992187,10.0039062 22.5992187,10.3390625 C22.5992187,10.6742187 22.4554687,10.8179687 22.1203125,10.8179687 C22.1203125,10.8179687 22.1203125,10.8179687 22.1203125,10.8179687 C22.1203125,10.8179687 14.265625,10.8179687 14.265625,10.8179687 C13.9304687,10.8179687 13.7867187,10.6742187 13.7867187,10.3390625 C13.7867187,10.0039062 13.9304687,9.86015625 14.265625,9.86015625 C14.265625,9.86015625 14.265625,9.86015625 14.265625,9.86015625 Z"/>
  <title>Phone List Solid</title>
</svg>