<svg xmlns="http://www.w3.org/2000/svg" viewBox="0 0 25 25" id="phone-disabled-solid">
  <path d="M16.0382812,8.51953125 C16.9,9.38125 17.9539062,9.8125 19.1515625,9.8125 C20.3492187,9.8125 21.4023438,9.38125 22.3125,8.51953125 C23.1742188,7.6578125 23.6054688,6.60390625 23.6054688,5.40625 C23.6054688,4.20859375 23.1742188,3.15546875 22.3125,2.29296875 C21.4023438,1.43125 20.3492187,1 19.1515625,1 C17.9539062,1 16.9007812,1.43125 16.0382812,2.29296875 C15.1765625,3.1546875 14.7453125,4.20859375 14.7453125,5.40625 C14.7453125,6.60390625 15.1765625,7.65703125 16.0382812,8.51953125 Z M19.1515625,1.95859375 C19.1515625,1.95859375 19.1515625,1.95859375 19.1515625,1.95859375 C20.109375,1.95859375 20.9234375,2.29375 21.59375,2.9640625 C22.2640625,3.6828125 22.5992188,4.496875 22.5992188,5.40625 C22.5992188,5.40625 22.5992188,5.40625 22.5992188,5.40625 C22.5992188,6.2203125 22.3601563,6.890625 21.8804687,7.465625 C21.8804687,7.465625 21.8804687,7.465625 21.8804687,7.465625 C21.8804687,7.465625 17.1390625,2.6765625 17.1390625,2.6765625 C17.7140625,2.19765625 18.384375,1.9578125 19.1507813,1.9578125 L19.1515625,1.95859375 Z M16.421875,3.346875 C16.421875,3.346875 16.421875,3.346875 16.421875,3.346875 C16.421875,3.346875 21.2109375,8.1359375 21.2109375,8.1359375 C20.5882812,8.61484375 19.8703125,8.8546875 19.1515625,8.8546875 C19.1515625,8.8546875 19.1515625,8.8546875 19.1515625,8.8546875 C18.2414063,8.8546875 17.4273437,8.51953125 16.7570312,7.84921875 C16.0867187,7.17890625 15.7515625,6.36484375 15.7515625,5.40703125 C15.7515625,5.40703125 15.7515625,5.40703125 15.7515625,5.40703125 C15.7515625,4.640625 15.990625,3.9703125 16.421875,3.34765625 L16.421875,3.346875 Z M20.3484375,15.5117188 C20.3484375,15.5117188 23.1265625,18.2898438 23.1265625,18.2898438 C23.4617187,18.625 23.6054688,18.9601563 23.6054688,19.34375 C23.6054688,19.34375 23.6054688,19.34375 23.6054688,19.34375 C23.6054688,19.775 23.4617187,20.1578125 23.1265625,20.3976563 C23.1265625,20.3976563 23.1265625,20.3976563 23.1265625,20.3976563 C23.1265625,20.3976563 21.45,22.121875 21.45,22.121875 C20.4445313,23.0796875 19.246875,23.5585938 17.9539062,23.5585938 C17.9539062,23.5585938 17.9539062,23.5585938 17.9539062,23.5585938 C16.8523437,23.5585938 15.9421875,23.2710938 15.128125,22.6484375 C15.128125,22.6484375 15.128125,22.6484375 15.128125,22.6484375 C12.4460937,20.8765625 9.95546875,18.9609375 7.65703125,16.853125 C7.65703125,16.853125 7.65703125,16.853125 7.65703125,16.853125 C5.5015625,14.4585938 3.634375,12.0640625 2.05390625,9.66953125 C2.05390625,9.66953125 2.05390625,9.66953125 2.05390625,9.66953125 C1.33515625,8.6640625 1,7.6578125 1,6.65234375 C1,6.65234375 1,6.65234375 1,6.65234375 C1,5.26328125 1.47890625,4.1140625 2.484375,3.10859375 C2.484375,3.10859375 2.484375,3.10859375 2.484375,3.10859375 C2.484375,3.10859375 4.1609375,1.43203125 4.1609375,1.43203125 C4.4484375,1.14453125 4.78359375,1.00078125 5.21484375,1.00078125 C5.21484375,1.00078125 5.21484375,1.00078125 5.21484375,1.00078125 C5.64609375,1.00078125 6.02890625,1.14453125 6.26875,1.43203125 C6.26875,1.43203125 6.26875,1.43203125 6.26875,1.43203125 C6.26875,1.43203125 9.09453125,4.2578125 9.09453125,4.2578125 C9.38203125,4.496875 9.52578125,4.8328125 9.52578125,5.31171875 C9.52578125,5.31171875 9.52578125,5.31171875 9.52578125,5.31171875 C9.52578125,5.74296875 9.38203125,6.078125 9.09453125,6.365625 C9.09453125,6.365625 9.09453125,6.365625 9.09453125,6.365625 C9.09453125,6.365625 7.896875,7.56328125 7.896875,7.56328125 C7.70546875,7.7546875 7.609375,7.99453125 7.609375,8.28203125 C7.609375,8.28203125 7.609375,8.28203125 7.609375,8.28203125 C7.609375,8.4734375 7.65703125,8.66484375 7.753125,8.80859375 C7.753125,8.80859375 7.753125,8.80859375 7.753125,8.80859375 C8.66328125,10.3890625 9.8125,11.921875 11.2015625,13.40625 C11.2015625,13.40625 11.2015625,13.40625 11.2015625,13.40625 C12.5421875,14.6515625 14.0273437,15.753125 15.6554687,16.7585938 C15.6554687,16.7585938 15.6554687,16.7585938 15.6554687,16.7585938 C15.8945312,16.9023438 16.134375,16.9976563 16.3257812,16.9976563 C16.3257812,16.9976563 16.3257812,16.9976563 16.3257812,16.9976563 C16.6609375,16.9976563 16.8523437,16.9015625 16.9960938,16.7101563 C16.9960938,16.7101563 16.9960938,16.7101563 16.9960938,16.7101563 C16.9960938,16.7101563 18.2414062,15.5125 18.2414062,15.5125 C18.4804688,15.1773438 18.8640625,15.0335938 19.2953125,15.0335938 C19.2953125,15.0335938 19.2953125,15.0335938 19.2953125,15.0335938 C19.678125,15.0335938 20.0140625,15.1773438 20.3492187,15.5125 C20.3492187,15.5125 20.3492187,15.5125 20.3492187,15.5125 L20.3484375,15.5117188 Z"/>
  <title>Phone Disabled Solid</title>
</svg>