<svg xmlns="http://www.w3.org/2000/svg" viewBox="0 0 25 25" id="phone-hangup-solid">
  <path d="M0,15.6632813 C0,15.6632813 0,15.6632813 0,15.6632813 C0,15.6632813 0,13.5078125 0,13.5078125 C0,12.2625 0.43125,11.2085938 1.340625,10.346875 C1.340625,10.346875 1.340625,10.346875 1.340625,10.346875 C2.059375,9.628125 2.8734375,9.19765625 3.6875,9.05390625 C3.6875,9.05390625 3.6875,9.05390625 3.6875,9.05390625 C6.65703125,8.43125 9.4828125,8.09609375 12.2125,8 C12.2125,8 12.2125,8 12.2125,8 C15.0382813,8.09609375 17.7679688,8.43125 20.45,9.00546875 C20.45,9.00546875 20.45,9.00546875 20.45,9.00546875 C21.5515625,9.196875 22.4132812,9.628125 23.084375,10.2984375 C23.084375,10.2984375 23.084375,10.2984375 23.084375,10.2984375 C23.9460937,11.1601562 24.3773438,12.2140625 24.3773438,13.5070313 C24.3773438,13.5070313 24.3773438,13.5070313 24.3773438,13.5070313 C24.3773438,13.5070313 24.3773438,15.6625 24.3773438,15.6625 C24.3773438,16.09375 24.2335938,16.4289063 23.9945313,16.6679688 C23.9945313,16.6679688 23.9945313,16.6679688 23.9945313,16.6679688 C23.659375,16.9070313 23.371875,17.0507812 23.0367188,17.003125 C23.0367188,17.003125 23.0367188,17.003125 23.0367188,17.003125 C23.0367188,17.003125 19.4445313,17.0507812 19.4445313,17.0507812 C19.0617188,17.0507812 18.7257813,16.9070313 18.4867188,16.6195313 C18.4867188,16.6195313 18.4867188,16.6195313 18.4867188,16.6195313 C18.1992188,16.3804687 18.0554688,16.0445313 18.0554688,15.709375 C18.0554688,15.709375 18.0554688,15.709375 18.0554688,15.709375 C18.0554688,15.709375 18.0554688,14.1289063 18.0554688,14.1289063 C18.0554688,13.9375 17.959375,13.7460938 17.8164063,13.50625 C17.8164063,13.50625 17.8164063,13.50625 17.8164063,13.50625 C17.6726563,13.3625 17.5289063,13.2671875 17.3851563,13.2671875 C17.3851563,13.2671875 17.3851563,13.2671875 17.3851563,13.2671875 C15.7085938,12.8359375 13.9851563,12.5484375 12.2125,12.5007813 C12.2125,12.5007813 12.2125,12.5007813 12.2125,12.5007813 C10.6320313,12.5484375 8.95546875,12.740625 7.1359375,13.1710938 C7.1359375,13.1710938 7.1359375,13.1710938 7.1359375,13.1710938 C6.8484375,13.2671875 6.65703125,13.3625 6.609375,13.50625 C6.609375,13.50625 6.609375,13.50625 6.609375,13.50625 C6.41796875,13.65 6.321875,13.8890625 6.321875,14.1289062 C6.321875,14.1289062 6.321875,14.1289062 6.321875,14.1289062 C6.321875,14.1289062 6.321875,15.709375 6.321875,15.709375 C6.321875,16.0445312 6.178125,16.3320312 5.890625,16.6195313 C5.890625,16.6195313 5.890625,16.6195313 5.890625,16.6195313 C5.6515625,16.9070312 5.3640625,17.0507812 4.98046875,17.0507812 C4.98046875,17.0507812 4.98046875,17.0507812 4.98046875,17.0507812 C4.98046875,17.0507812 1.340625,17.003125 1.340625,17.003125 C1.00546875,17.0507812 0.71796875,16.9554688 0.3828125,16.6203125 C0.3828125,16.6203125 0.3828125,16.6203125 0.3828125,16.6203125 C0.14375,16.38125 0,16.0453125 0,15.6625 C0,15.6625 0,15.6625 0,15.6625 L0,15.6632813 Z"/>
  <title>Phone Hangup Solid</title>
</svg>