<svg xmlns="http://www.w3.org/2000/svg" viewBox="0 0 25 25" id="phone-out-solid">
  <path d="M20.3,16.5171875 C20.3,16.5171875 23.1257813,19.2953125 23.1257813,19.2953125 C23.4132812,19.5828125 23.5570313,19.9179688 23.5570313,20.3492188 C23.5570313,20.3492188 23.5570313,20.3492188 23.5570313,20.3492188 C23.5570313,20.828125 23.4132812,21.1632813 23.1257813,21.403125 C23.1257813,21.403125 23.1257813,21.403125 23.1257813,21.403125 C23.1257813,21.403125 21.4492188,23.1273438 21.4492188,23.1273438 C20.44375,24.0851563 19.2460938,24.5640625 17.9054688,24.5640625 C17.9054688,24.5640625 17.9054688,24.5640625 17.9054688,24.5640625 C16.9,24.5640625 15.9421875,24.2765625 15.0796875,23.6539063 C15.0796875,23.6539063 15.0796875,23.6539063 15.0796875,23.6539063 C12.5890625,22.0257813 10.0992187,20.1101563 7.60859375,17.8585938 C7.60859375,17.8585938 7.60859375,17.8585938 7.60859375,17.8585938 C5.453125,15.4164063 3.5859375,13.0210938 2.00546875,10.675 C2.00546875,10.675 2.00546875,10.675 2.00546875,10.675 C1.33515625,9.66953125 1,8.66328125 1,7.6578125 C1,7.6578125 1,7.6578125 1,7.6578125 C1,6.3171875 1.47890625,5.11953125 2.43671875,4.1140625 C2.43671875,4.1140625 2.43671875,4.1140625 2.43671875,4.1140625 C2.43671875,4.1140625 4.1609375,2.4375 4.1609375,2.4375 C4.4,2.15 4.78359375,2.00625 5.21484375,2.00625 C5.21484375,2.00625 5.21484375,2.00625 5.21484375,2.00625 C5.64609375,2.00625 5.98125,2.15 6.26875,2.4375 C6.26875,2.4375 6.26875,2.4375 6.26875,2.4375 C6.26875,2.4375 9.046875,5.26328125 9.046875,5.26328125 C9.38203125,5.50234375 9.52578125,5.8859375 9.52578125,6.3171875 C9.52578125,6.3171875 9.52578125,6.3171875 9.52578125,6.3171875 C9.52578125,6.7 9.38203125,7.0359375 9.046875,7.37109375 C9.046875,7.37109375 9.046875,7.37109375 9.046875,7.37109375 C9.046875,7.37109375 7.84921875,8.56875 7.84921875,8.56875 C7.6578125,8.76015625 7.56171875,9 7.56171875,9.2875 C7.56171875,9.2875 7.56171875,9.2875 7.56171875,9.2875 C7.56171875,9.47890625 7.609375,9.6703125 7.70546875,9.8140625 C7.70546875,9.8140625 7.70546875,9.8140625 7.70546875,9.8140625 C8.7109375,11.4421875 9.8609375,12.975 11.2015625,14.4117188 C11.2015625,14.4117188 11.2015625,14.4117188 11.2015625,14.4117188 C12.6382812,15.7523438 14.1226562,16.8539063 15.6554687,17.7640625 C15.6554687,17.7640625 15.6554687,17.7640625 15.6554687,17.7640625 C15.846875,17.9078125 16.0382812,18.003125 16.278125,18.003125 C16.278125,18.003125 16.278125,18.003125 16.278125,18.003125 C16.565625,18.003125 16.8046875,17.9070313 16.996875,17.715625 C16.996875,17.715625 16.996875,17.715625 16.996875,17.715625 C16.996875,17.715625 18.1945313,16.5179688 18.1945313,16.5179688 C18.5296875,16.1828125 18.8648438,16.0390625 19.2484375,16.0390625 C19.2484375,16.0390625 19.2484375,16.0390625 19.2484375,16.0390625 C19.6796875,16.0390625 20.0625,16.1828125 20.3023437,16.5179688 C20.3023437,16.5179688 20.3023437,16.5179688 20.3023437,16.5179688 L20.3,16.5171875 Z M24.5148438,1.43125 C24.5148438,1.43125 24.5148438,1.43125 24.5148438,1.43125 C24.5148438,1.43125 24.5148438,1.33515625 24.5148438,1.33515625 C24.4671875,1.2875 24.4671875,1.2875 24.4671875,1.2390625 C24.4671875,1.2390625 24.4671875,1.2390625 24.4671875,1.2390625 C24.4671875,1.2390625 24.4195313,1.19140625 24.4195313,1.19140625 C24.4195313,1.19140625 24.3234375,1.0953125 24.3234375,1.0953125 C24.2757813,1.0953125 24.2757813,1.0953125 24.2273438,1.04765625 C24.2273438,1.04765625 24.2273438,1.04765625 24.2273438,1.04765625 C24.2273438,1.04765625 24.1796875,1.04765625 24.1796875,1.04765625 C24.1796875,1.04765625 24.0835937,1.04765625 24.0835937,1 C24.0835937,1 24.0835937,1 24.0835937,1 C24.0835937,1 24.0359375,1 24.0359375,1 C24.0359375,1 18.1453125,1 18.1453125,1 C17.8101563,1 17.6664063,1.19140625 17.6664063,1.5265625 C17.6664063,1.5265625 17.6664063,1.5265625 17.6664063,1.5265625 C17.6664063,1.86171875 17.8101563,2.00546875 18.1453125,2.00546875 C18.1453125,2.00546875 18.1453125,2.00546875 18.1453125,2.00546875 C18.1453125,2.00546875 22.790625,2.00546875 22.790625,2.00546875 C22.790625,2.00546875 12.925,10.9617188 12.925,10.9617188 C12.8289062,11.0578125 12.78125,11.153125 12.78125,11.296875 C12.78125,11.296875 12.78125,11.296875 12.78125,11.296875 C12.78125,11.6320313 12.925,11.8234375 13.2601562,11.8234375 C13.2601562,11.8234375 13.2601562,11.8234375 13.2601562,11.8234375 C13.4039063,11.8234375 13.4992188,11.7757813 13.5953125,11.6796875 C13.5953125,11.6796875 13.5953125,11.6796875 13.5953125,11.6796875 C13.5953125,11.6796875 23.5570313,2.628125 23.5570313,2.628125 C23.5570313,2.628125 23.5570313,7.4171875 23.5570313,7.4171875 C23.5570313,7.75234375 23.7007812,7.89609375 24.0359375,7.89609375 C24.0359375,7.89609375 24.0359375,7.89609375 24.0359375,7.89609375 C24.3710937,7.89609375 24.5625,7.75234375 24.5625,7.4171875 C24.5625,7.4171875 24.5625,7.4171875 24.5625,7.4171875 C24.5625,7.4171875 24.5625,1.5265625 24.5625,1.5265625 C24.5148437,1.47890625 24.5148437,1.47890625 24.5148437,1.43046875 L24.5148438,1.43125 Z"/>
  <title>Phone Out Solid</title>
</svg>