<svg xmlns="http://www.w3.org/2000/svg" viewBox="0 0 25 25" id="phone-call">
  <path d="M23.1273438,19.2953125 C23.1273438,19.2953125 20.3015625,16.4695313 20.3015625,16.4695313 C20.0625,16.1820312 19.6789063,16.0382813 19.2476562,16.0382813 C19.2476562,16.0382813 19.2476562,16.0382813 19.2476562,16.0382813 C18.8164062,16.0382813 18.48125,16.1820312 18.19375,16.4695313 C18.19375,16.4695313 18.19375,16.4695313 18.19375,16.4695313 C18.19375,16.4695313 16.9960938,17.6671875 16.9960938,17.6671875 C16.8046875,17.8585937 16.5648438,17.9546875 16.2773438,17.9546875 C16.2773438,17.9546875 16.2773438,17.9546875 16.2773438,17.9546875 C16.0382812,17.9546875 15.8945312,17.9070312 15.7507812,17.8109375 C15.7507812,17.8109375 15.7507812,17.8109375 15.7507812,17.8109375 C14.1703125,16.9007812 12.6375,15.7515625 11.153125,14.3625 C11.153125,14.3625 11.153125,14.3625 11.153125,14.3625 C9.9078125,13.021875 8.80625,11.5367187 7.80078125,9.90859375 C7.80078125,9.90859375 7.80078125,9.90859375 7.80078125,9.90859375 C7.65703125,9.66953125 7.56171875,9.47734375 7.56171875,9.23828125 C7.56171875,9.23828125 7.56171875,9.23828125 7.56171875,9.23828125 C7.56171875,8.95078125 7.6578125,8.71171875 7.84921875,8.56796875 C7.84921875,8.56796875 7.84921875,8.56796875 7.84921875,8.56796875 C7.84921875,8.56796875 9.046875,7.32265625 9.046875,7.32265625 C9.38203125,7.08359375 9.52578125,6.7 9.52578125,6.26875 C9.52578125,6.26875 9.52578125,6.26875 9.52578125,6.26875 C9.52578125,5.8859375 9.38203125,5.55 9.046875,5.21484375 C9.046875,5.21484375 9.046875,5.21484375 9.046875,5.21484375 C9.046875,5.21484375 6.26875,2.43671875 6.26875,2.43671875 C5.93359375,2.1015625 5.5984375,1.9578125 5.21484375,1.9578125 C5.21484375,1.9578125 5.21484375,1.9578125 5.21484375,1.9578125 C4.78359375,1.9578125 4.40078125,2.1015625 4.1609375,2.43671875 C4.1609375,2.43671875 4.1609375,2.43671875 4.1609375,2.43671875 C4.1609375,2.43671875 2.43671875,4.11328125 2.43671875,4.11328125 C1.47890625,5.11875 1,6.31640625 1,7.609375 C1,7.609375 1,7.609375 1,7.609375 C1,8.66328125 1.2875,9.62109375 1.86171875,10.4351562 C1.86171875,10.4351562 1.86171875,10.4351562 1.86171875,10.4351562 C3.63359375,13.0695312 5.59765625,15.6078125 7.7046875,17.9546875 C7.7046875,17.9546875 7.7046875,17.9546875 7.7046875,17.9546875 C10.146875,20.1578125 12.5421875,22.0257812 14.8882813,23.5101563 C14.8882813,23.5101563 14.8882813,23.5101563 14.8882813,23.5101563 C15.89375,24.2289063 16.9,24.5640625 17.9054688,24.5640625 C17.9054688,24.5640625 17.9054688,24.5640625 17.9054688,24.5640625 C19.2945312,24.5640625 20.44375,24.0851562 21.4492188,23.0796875 C21.4492188,23.0796875 21.4492188,23.0796875 21.4492188,23.0796875 C21.4492188,23.0796875 23.1257813,21.403125 23.1257813,21.403125 C23.4132813,21.115625 23.5570313,20.7804687 23.5570313,20.3492187 C23.5570313,20.3492187 23.5570313,20.3492187 23.5570313,20.3492187 C23.5570313,19.8703125 23.4132813,19.5351562 23.1257813,19.2953125 C23.1257813,19.2953125 23.1257813,19.2953125 23.1257813,19.2953125 L23.1273438,19.2953125 Z M22.4085938,20.6835938 C22.4085938,20.6835938 22.4085938,20.6835938 22.4085938,20.6835938 C22.4085938,20.6835938 20.7320313,22.4078125 20.7320313,22.4078125 C19.965625,23.1742188 19.0078125,23.5570313 17.90625,23.5570313 C17.90625,23.5570313 17.90625,23.5570313 17.90625,23.5570313 C17.0445313,23.5570313 16.278125,23.3179687 15.6554688,22.8382813 C15.6554688,22.8382813 15.6554688,22.8382813 15.6554688,22.8382813 C13.0210938,21.0664062 10.5789063,19.1984375 8.2796875,17.1390625 C8.2796875,17.1390625 8.2796875,17.1390625 8.2796875,17.1390625 C6.17265625,14.7921875 4.35234375,12.4453125 2.81953125,10.0992188 C2.81953125,10.0992188 2.81953125,10.0992188 2.81953125,10.0992188 C2.24453125,9.2375 1.9578125,8.42265625 1.9578125,7.60859375 C1.9578125,7.60859375 1.9578125,7.60859375 1.9578125,7.60859375 C1.9578125,6.50703125 2.340625,5.596875 3.15546875,4.7828125 C3.15546875,4.7828125 3.15546875,4.7828125 3.15546875,4.7828125 C3.15546875,4.7828125 4.83203125,3.10625 4.83203125,3.10625 C4.928125,3.01015625 5.07109375,2.9625 5.21484375,2.9625 C5.21484375,2.9625 5.21484375,2.9625 5.21484375,2.9625 C5.35859375,2.9625 5.45390625,3.01015625 5.55,3.10625 C5.55,3.10625 5.55,3.10625 5.55,3.10625 C5.55,3.10625 8.37578125,5.93203125 8.37578125,5.93203125 C8.471875,6.028125 8.51953125,6.1234375 8.51953125,6.2671875 C8.51953125,6.2671875 8.51953125,6.2671875 8.51953125,6.2671875 C8.51953125,6.4109375 8.471875,6.5546875 8.37578125,6.65 C8.37578125,6.65 8.37578125,6.65 8.37578125,6.65 C8.37578125,6.65 7.178125,7.84765625 7.178125,7.84765625 C6.7953125,8.23046875 6.603125,8.709375 6.603125,9.23671875 C6.603125,9.23671875 6.603125,9.23671875 6.603125,9.23671875 C6.603125,9.66796875 6.69921875,10.003125 6.890625,10.290625 C6.890625,10.290625 6.890625,10.290625 6.890625,10.290625 C7.8484375,11.9671875 9.04609375,13.5476563 10.4828125,15.0796875 C10.4828125,15.0796875 10.4828125,15.0796875 10.4828125,15.0796875 C11.9195313,16.4203125 13.4523438,17.5703125 15.128125,18.5757812 C15.128125,18.5757812 15.128125,18.5757812 15.128125,18.5757812 C15.5109375,18.8148438 15.8945313,18.9585937 16.2773438,18.9585937 C16.2773438,18.9585937 16.2773438,18.9585937 16.2773438,18.9585937 C16.8039063,18.9585937 17.2828125,18.7671875 17.6664063,18.3835937 C17.6664063,18.3835937 17.6664063,18.3835937 17.6664063,18.3835937 C17.6664063,18.3835937 18.9117188,17.1859375 18.9117188,17.1859375 C19.0554688,17.0421875 19.1507813,16.9945312 19.246875,16.9945312 C19.246875,16.9945312 19.246875,16.9945312 19.246875,16.9945312 C19.390625,16.9945312 19.4859375,17.0421875 19.6296875,17.1859375 C19.6296875,17.1859375 19.6296875,17.1859375 19.6296875,17.1859375 C19.6296875,17.1859375 22.4078125,19.9640625 22.4078125,19.9640625 C22.5515625,20.1078125 22.5992188,20.203125 22.5992188,20.346875 C22.5992188,20.346875 22.5992188,20.346875 22.5992188,20.346875 C22.5992188,20.4429687 22.5515625,20.5382812 22.4078125,20.6820312 L22.4085938,20.6835938 Z M19.4875,11.6320313 C19.4875,11.6320313 19.4875,11.6320313 19.4875,11.6320313 C20.2539063,10.865625 20.6367188,9.9078125 20.6367188,8.80625 C20.6367188,8.80625 20.6367188,8.80625 20.6367188,8.80625 C20.6367188,7.7046875 20.2539063,6.79453125 19.5351563,6.028125 C18.76875,5.26171875 17.8585938,4.87890625 16.7570313,4.87890625 C15.6554688,4.87890625 14.7453125,5.26171875 13.93125,6.0765625 C13.93125,6.0765625 13.93125,6.0765625 13.93125,6.0765625 C13.8351563,6.17265625 13.7398438,6.2203125 13.5960938,6.2203125 C13.5960938,6.2203125 13.5960938,6.2203125 13.5960938,6.2203125 C13.2609375,6.2203125 13.0695313,6.0765625 13.0695313,5.74140625 C13.0695313,5.74140625 13.0695313,5.74140625 13.0695313,5.74140625 C13.0695313,5.69375 13.1171875,5.55 13.2132813,5.35859375 C13.2132813,5.35859375 13.2132813,5.35859375 13.2132813,5.35859375 C14.1710938,4.40078125 15.3203125,3.921875 16.709375,3.921875 C18.0984375,3.921875 19.2476563,4.40078125 20.2054688,5.35859375 C21.1632813,6.31640625 21.6421875,7.465625 21.6421875,8.80703125 C21.6421875,8.80703125 21.6421875,8.80703125 21.6421875,8.80703125 C21.6421875,10.1960938 21.1632813,11.3929688 20.1578125,12.303125 C20.1578125,12.303125 20.1578125,12.303125 20.1578125,12.303125 C20.0617188,12.3992187 19.9664063,12.446875 19.8226563,12.446875 C19.8226563,12.446875 19.8226563,12.446875 19.8226563,12.446875 C19.4875,12.446875 19.34375,12.303125 19.34375,11.9679688 C19.34375,11.9679688 19.34375,11.9679688 19.34375,11.9679688 C19.34375,11.8242188 19.3914063,11.7289063 19.4875,11.6328125 L19.4875,11.6320313 Z M11.1539063,3.96953125 C11.1539063,3.96953125 11.1539063,3.96953125 11.1539063,3.96953125 C11.0578125,3.921875 11.0101563,3.82578125 11.0101563,3.634375 C11.0101563,3.634375 11.0101563,3.634375 11.0101563,3.634375 C11.0101563,3.490625 11.0578125,3.3953125 11.1539063,3.29921875 C11.1539063,3.29921875 11.1539063,3.29921875 11.1539063,3.29921875 C12.6382813,1.76640625 14.4585938,1 16.6617188,1 C16.6617188,1 16.6617188,1 16.6617188,1 C18.8171875,1 20.684375,1.76640625 22.2171875,3.29921875 C23.75,4.83203125 24.5164063,6.7 24.5164063,8.8546875 C24.5164063,8.8546875 24.5164063,8.8546875 24.5164063,8.8546875 C24.5164063,11.0101563 23.75,12.8296875 22.265625,14.4101562 C22.265625,14.4101562 22.265625,14.4101562 22.265625,14.4101562 C22.0742188,14.50625 21.9304688,14.5539063 21.8828125,14.5539063 C21.8828125,14.5539063 21.8828125,14.5539063 21.8828125,14.5539063 C21.5476563,14.5539063 21.4039063,14.3625 21.4039063,14.0273438 C21.4039063,14.0273438 21.4039063,14.0273438 21.4039063,14.0273438 C21.4039063,13.8835937 21.4515625,13.7882813 21.5476563,13.6921875 C21.5476563,13.6921875 21.5476563,13.6921875 21.5476563,13.6921875 C22.840625,12.3992188 23.5109375,10.7710938 23.5109375,8.903125 C23.5109375,7.03515625 22.840625,5.40703125 21.4992188,4.01796875 C20.1585938,2.67734375 18.5296875,2.00625 16.6617188,2.00625 C16.6617188,2.00625 16.6617188,2.00625 16.6617188,2.00625 C14.79375,2.00625 13.2132813,2.6765625 11.8242188,3.96953125 C11.8242188,3.96953125 11.8242188,3.96953125 11.8242188,3.96953125 C11.728125,4.065625 11.6328125,4.11328125 11.4890625,4.11328125 C11.3453125,4.11328125 11.25,4.065625 11.1539063,3.96953125 Z"/>
  <title>Phone Call</title>
</svg>