<svg xmlns="http://www.w3.org/2000/svg" viewBox="0 0 25 25" id="picture-solid">
  <path d="M22.1210938,1 C22.1210938,1 22.1210938,1 22.1210938,1 C22.1210938,1 2.48515625,1 2.48515625,1 C2.05390625,1 1.71875,1.14375 1.43125,1.43125 C1.14375,1.71875 1,2.05390625 1,2.48515625 C1,2.48515625 1,2.48515625 1,2.48515625 C1,2.48515625 1,22.0734375 1,22.0734375 C1,22.5046875 1.14375,22.8398438 1.43125,23.1273438 C1.71875,23.4148437 2.05390625,23.5585938 2.48515625,23.5585938 C2.48515625,23.5585938 2.48515625,23.5585938 2.48515625,23.5585938 C2.48515625,23.5585938 22.1210938,23.5585938 22.1210938,23.5585938 C22.5523437,23.5585938 22.8875,23.4148437 23.175,23.1273438 C23.4625,22.8398438 23.60625,22.5046875 23.60625,22.0734375 C23.60625,22.0734375 23.60625,22.0734375 23.60625,22.0734375 C23.60625,22.0734375 23.60625,2.48515625 23.60625,2.48515625 C23.60625,2.05390625 23.4625,1.71875 23.175,1.43125 C22.8875,1.14375 22.5523437,1 22.1210938,1 Z M5.0234375,5.5015625 C5.40625,5.11875 5.88515625,4.9265625 6.4125,4.9265625 C6.93984375,4.9265625 7.41796875,5.11796875 7.8015625,5.5015625 C8.184375,5.884375 8.3765625,6.36328125 8.3765625,6.890625 C8.3765625,7.41796875 8.18515625,7.89609375 7.8015625,8.2796875 C7.41875,8.6625 6.93984375,8.8546875 6.4125,8.8546875 C5.88515625,8.8546875 5.40703125,8.66328125 5.0234375,8.23203125 C4.640625,7.84921875 4.4484375,7.41796875 4.4484375,6.89140625 C4.4484375,6.89140625 4.4484375,6.89140625 4.4484375,6.89140625 C4.4484375,6.36484375 4.63984375,5.8859375 5.0234375,5.50234375 L5.0234375,5.5015625 Z M22.6,19.6304687 C22.6,19.6304687 22.6,22.0726563 22.6,22.0726563 C22.6,22.4078125 22.45625,22.5992188 22.1210938,22.5992188 C22.1210938,22.5992188 22.1210938,22.5992188 22.1210938,22.5992188 C22.1210938,22.5992188 2.48515625,22.5992188 2.48515625,22.5992188 C2.15,22.5992188 2.00625,22.4078125 2.00625,22.0726563 C2.00625,22.0726563 2.00625,22.0726563 2.00625,22.0726563 C2.00625,22.0726563 2.00625,19.6304687 2.00625,19.6304687 C2.00625,19.6304687 22.6,19.6304687 22.6,19.6304687 Z M22.6,15.415625 C22.6,15.415625 22.6,18.6726563 22.6,18.6726563 C22.6,18.6726563 2.00625,18.6726563 2.00625,18.6726563 C2.00625,18.6726563 2.00625,16.9007813 2.00625,16.9007813 C2.00625,16.9007813 7.3703125,11.9679687 7.3703125,11.9679687 C7.3703125,11.9679687 12.9257813,17.5234375 12.9257813,17.5234375 C13.021875,17.6195313 13.1171875,17.6671875 13.2609375,17.6671875 C13.2609375,17.6671875 13.2609375,17.6671875 13.2609375,17.6671875 C13.5960938,17.6671875 13.7875,17.5234375 13.7875,17.1882813 C13.7875,17.1882813 13.7875,17.1882813 13.7875,17.1882813 C13.7875,17.0445313 13.7398438,16.9007813 13.64375,16.853125 C13.64375,16.853125 13.64375,16.853125 13.64375,16.853125 C13.64375,16.853125 10.8179688,13.9796875 10.8179688,13.9796875 C10.8179688,13.9796875 16.2296875,9.046875 16.2296875,9.046875 C16.2296875,9.046875 22.5992187,15.4164063 22.5992187,15.4164063 L22.6,15.415625 Z"/>
  <title>Picture Solid</title>
</svg>