<svg xmlns="http://www.w3.org/2000/svg" viewBox="0 0 25 25" id="piggybank-solid">
  <path d="M16.0429688,3.771875 C16.0429688,3.771875 15.9953125,3.72421875 15.9953125,3.72421875 C16.521875,3.34140625 17.2882813,3.00546875 18.1984375,2.71875 C19.1085938,2.43203125 19.9226563,2.23984375 20.5929688,2.14375 C20.5929688,2.14375 20.5929688,2.14375 20.5929688,2.14375 C20.5929688,2.14375 21.5984375,2 21.5984375,2 C21.5984375,2 21.1195313,7.6515625 21.1195313,7.6515625 C19.8265625,5.78359375 18.1023438,4.490625 16.0429688,3.771875 C16.0429688,3.771875 16.0429688,3.771875 16.0429688,3.771875 Z M21.5992187,12.296875 C21.5992187,12.296875 21.5992187,12.296875 21.5992187,12.296875 C21.5992187,14.5960937 20.6414062,16.559375 18.7257812,18.1875 C16.8101562,19.8640625 14.5109375,20.678125 11.78125,20.678125 C9.0515625,20.678125 6.75234375,19.8640625 4.83671875,18.1875 C2.92109375,16.559375 1.96328125,14.5953125 1.96328125,12.296875 C1.96328125,12.296875 1.96328125,12.296875 1.96328125,12.296875 C1.96328125,11.3867188 2.1546875,10.525 2.48984375,9.6625 C2.48984375,9.6625 2.48984375,9.6625 2.48984375,9.6625 C2.48984375,9.6625 0.2390625,8.321875 0.2390625,8.321875 C0.0953125,8.22578125 0,8.0828125 0,7.890625 C0,7.890625 0,7.890625 0,7.890625 C0,7.55546875 0.14375,7.41171875 0.47890625,7.41171875 C0.47890625,7.41171875 0.47890625,7.41171875 0.47890625,7.41171875 C0.5265625,7.41171875 0.62265625,7.459375 0.76640625,7.5078125 C0.76640625,7.5078125 0.76640625,7.5078125 0.76640625,7.5078125 C0.76640625,7.5078125 2.8734375,8.80078125 2.8734375,8.80078125 C3.63984375,7.5078125 4.6453125,6.45390625 5.890625,5.6875 C5.890625,5.6875 5.890625,5.6875 5.890625,5.6875 C5.93828125,6.11875 6.034375,6.54921875 6.178125,6.9328125 C6.178125,6.9328125 6.178125,6.9328125 6.178125,6.9328125 C6.178125,6.9328125 14.4632812,6.9328125 14.4632812,6.9328125 C14.6070313,6.45390625 14.7023438,5.975 14.7023438,5.4484375 C14.7023438,5.4484375 14.7023438,5.4484375 14.7023438,5.4484375 C14.7023438,5.065625 14.6546875,4.68203125 14.5585938,4.29921875 C14.5585938,4.29921875 14.5585938,4.29921875 14.5585938,4.29921875 C16.6179687,4.82578125 18.2945312,5.83203125 19.6351563,7.31640625 C20.928125,8.80078125 21.5984375,10.4296875 21.5984375,12.296875 L21.5992187,12.296875 Z M18.1507813,9.8546875 C18.4859375,9.8546875 18.6296875,9.7109375 18.6296875,9.37578125 C18.6296875,9.040625 18.4859375,8.896875 18.1507813,8.896875 C17.815625,8.896875 17.671875,9.040625 17.671875,9.37578125 C17.671875,9.7109375 17.815625,9.8546875 18.1507813,9.8546875 Z M6.89609375,5.975 C6.89609375,5.975 13.696875,5.92734375 13.696875,5.92734375 C13.696875,5.8796875 13.696875,5.83125 13.7445313,5.68828125 C13.7445313,5.5921875 13.7445313,5.496875 13.7445313,5.44921875 C13.7445313,5.44921875 13.7445313,5.44921875 13.7445313,5.44921875 C13.7445313,4.5390625 13.409375,3.725 12.7390625,3.00703125 C12.06875,2.33671875 11.2546875,2.0015625 10.296875,2.0015625 C9.3390625,2.0015625 8.525,2.33671875 7.8546875,3.00703125 C7.184375,3.72578125 6.84921875,4.53984375 6.84921875,5.44921875 C6.84921875,5.44921875 6.84921875,5.44921875 6.84921875,5.44921875 C6.84921875,5.496875 6.84921875,5.59296875 6.896875,5.68828125 C6.896875,5.83203125 6.896875,5.92734375 6.896875,5.97578125 C6.896875,5.97578125 6.896875,5.97578125 6.896875,5.97578125 L6.89609375,5.975 Z M23.7539062,9.7109375 C23.7539062,9.7109375 23.7539062,9.7109375 23.7539062,9.7109375 C23.7539062,9.7109375 21.9820312,9.37578125 21.9820312,9.37578125 C22.3648437,10.2375 22.5570313,11.24375 22.5570313,12.3453125 C22.5570313,12.3453125 22.5570313,12.3453125 22.5570313,12.3453125 C22.5570313,12.9203125 22.4609375,13.590625 22.3179687,14.3085938 C22.3179687,14.3085938 22.3179687,14.3085938 22.3179687,14.3085938 C22.3179687,14.3085938 23.7546875,13.9257813 23.7546875,13.9257813 C24.28125,13.878125 24.5210937,13.5429688 24.5210937,12.9679688 C24.5210937,12.9679688 24.5210937,12.9679688 24.5210937,12.9679688 C24.5210937,12.9679688 24.5210937,10.66875 24.5210937,10.66875 C24.5210937,10.1421875 24.2820312,9.8546875 23.7546875,9.7109375 L23.7539062,9.7109375 Z M15.18125,21.1570313 C15.18125,21.1570313 15.0851563,21.3007813 15.0851563,21.3007813 C15.0851563,21.3007813 15.0851563,21.6359375 15.0851563,21.6359375 C15.0851563,22.1625 15.2765625,22.6414062 15.6601563,23.025 C16.04375,23.4085938 16.521875,23.6 17.0492188,23.6 C17.0492188,23.6 17.0492188,23.6 17.0492188,23.6 C17.0492188,23.6 17.671875,23.6 17.671875,23.6 C18.1984375,23.6 18.6773438,23.4085938 19.0609375,23.025 C19.4445313,22.6414062 19.6359375,22.1632813 19.6359375,21.6359375 C19.6359375,21.6359375 19.6359375,21.6359375 19.6359375,21.6359375 C19.6359375,21.6359375 19.6359375,18.7148438 19.6359375,18.7148438 C18.3429688,19.8640625 16.8578125,20.678125 15.1820312,21.1570313 C15.1820312,21.1570313 15.1820312,21.1570313 15.1820312,21.1570313 L15.18125,21.1570313 Z M8.6203125,21.3007812 C8.6203125,21.3007812 8.6203125,21.253125 8.6203125,21.253125 C6.94375,20.821875 5.41171875,20.0078125 4.0703125,18.8585938 C4.0703125,18.8585938 4.0703125,18.8585938 4.0703125,18.8585938 C4.0703125,18.8585938 4.11796875,21.6367188 4.11796875,21.6367188 C4.11796875,22.1632813 4.309375,22.6421875 4.69296875,23.0257813 C5.0765625,23.409375 5.5546875,23.6007813 6.08203125,23.6007813 C6.08203125,23.6007813 6.08203125,23.6007813 6.08203125,23.6007813 C6.08203125,23.6007813 6.7046875,23.6007813 6.7046875,23.6007813 C7.23125,23.6007813 7.71015625,23.409375 8.09375,23.0257813 C8.47734375,22.6421875 8.66875,22.1640625 8.66875,21.6367188 C8.66875,21.6367188 8.66875,21.6367188 8.66875,21.6367188 C8.66875,21.5890625 8.66875,21.540625 8.66875,21.4453125 C8.62109375,21.3976563 8.62109375,21.3492187 8.62109375,21.3015625 C8.62109375,21.3015625 8.62109375,21.3015625 8.62109375,21.3015625 L8.6203125,21.3007812 Z"/>
  <title>Piggybank Solid</title>
</svg>