<svg xmlns="http://www.w3.org/2000/svg" viewBox="0 0 25 25" id="piggybank">
  <path d="M23.7546875,9.66796875 C23.7546875,9.66796875 23.7546875,9.66796875 23.7546875,9.66796875 C23.7546875,9.66796875 21.9828125,9.3328125 21.9828125,9.3328125 C21.74375,8.6625 21.4078125,8.0875 21.0726563,7.5609375 C21.0726563,7.5609375 21.0726563,7.5609375 21.0726563,7.5609375 C21.0726563,7.5609375 21.5992188,1.9578125 21.5992188,1.9578125 C19.0609375,2.2453125 17.1929688,2.81953125 15.9960938,3.7296875 C15.9960938,3.7296875 15.9960938,3.7296875 15.9960938,3.7296875 C15.4695313,3.490625 14.846875,3.2984375 14.1765625,3.203125 C14.1765625,3.203125 14.1765625,3.203125 14.1765625,3.203125 C13.21875,1.71875 11.9257813,1 10.296875,1 C10.296875,1 10.296875,1 10.296875,1 C9.24296875,1 8.33359375,1.33515625 7.5671875,1.9578125 C6.753125,2.58046875 6.2265625,3.39453125 5.98671875,4.4 C5.98671875,4.4 5.98671875,4.4 5.98671875,4.4 C4.2625,5.40546875 2.96953125,6.65078125 2.059375,8.23125 C2.059375,8.23125 2.059375,8.23125 2.059375,8.23125 C2.059375,8.23125 0.76640625,7.46484375 0.76640625,7.46484375 C0.62265625,7.4171875 0.52734375,7.36875 0.47890625,7.36875 C0.47890625,7.36875 0.47890625,7.36875 0.47890625,7.36875 C0.14375,7.36875 0,7.5125 0,7.84765625 C0,7.84765625 0,7.84765625 0,7.84765625 C0,8.0390625 0.09609375,8.1828125 0.2390625,8.27890625 C0.2390625,8.27890625 0.2390625,8.27890625 0.2390625,8.27890625 C0.2390625,8.27890625 1.628125,9.1890625 1.628125,9.1890625 C1.2453125,10.003125 1.00546875,11.0570312 0.9578125,12.2539062 C0.9578125,12.2539062 0.9578125,12.2539062 0.9578125,12.2539062 C1.00546875,14.8882812 2.059375,17.0914062 4.07109375,18.8148438 C4.07109375,18.8148438 4.07109375,18.8148438 4.07109375,18.8148438 C4.07109375,18.8148438 4.11875,21.5929688 4.11875,21.5929688 C4.11875,22.1195313 4.31015625,22.5984375 4.69375,22.9820312 C5.07734375,23.365625 5.55546875,23.5570313 6.0828125,23.5570313 C6.0828125,23.5570313 6.0828125,23.5570313 6.0828125,23.5570313 C6.0828125,23.5570313 6.70546875,23.5570313 6.70546875,23.5570313 C7.23203125,23.5570313 7.7109375,23.365625 8.09453125,22.9820312 C8.478125,22.5984375 8.66953125,22.1203125 8.66953125,21.5929688 C8.66953125,21.5929688 8.66953125,21.5929688 8.66953125,21.5929688 C8.66953125,21.5453125 8.66953125,21.496875 8.66953125,21.4015625 C8.621875,21.3539063 8.621875,21.3054687 8.621875,21.2578125 C8.621875,21.2578125 8.621875,21.2578125 8.621875,21.2578125 C8.621875,21.2578125 8.621875,21.2101563 8.621875,21.2101563 C9.62734375,21.4492188 10.68125,21.5929687 11.7828125,21.5929687 C11.7828125,21.5929687 11.7828125,21.5929687 11.7828125,21.5929687 C13.0757813,21.5929687 14.1773438,21.4492188 15.1828125,21.1140625 C15.1828125,21.1140625 15.1828125,21.1140625 15.1828125,21.1140625 C15.1828125,21.1140625 15.0867188,21.2578125 15.0867188,21.2578125 C15.0867188,21.2578125 15.0867188,21.5929687 15.0867188,21.5929687 C15.0867188,22.1195313 15.278125,22.5984375 15.6617188,22.9820312 C16.0453125,23.365625 16.5234375,23.5570313 17.0507812,23.5570313 C17.0507812,23.5570313 17.0507812,23.5570313 17.0507812,23.5570313 C17.0507812,23.5570313 17.6734375,23.5570313 17.6734375,23.5570313 C18.2,23.5570313 18.6789063,23.365625 19.0625,22.9820312 C19.4460938,22.5984375 19.6375,22.1203125 19.6375,21.5929687 C19.6375,21.5929687 19.6375,21.5929687 19.6375,21.5929687 C19.6375,21.5929687 19.6375,18.671875 19.6375,18.671875 C21.0265625,17.3789062 21.8882813,15.9421875 22.3195313,14.265625 C22.3195313,14.265625 22.3195313,14.265625 22.3195313,14.265625 C22.3195313,14.265625 23.75625,13.8828125 23.75625,13.8828125 C24.2828125,13.8351563 24.5226563,13.5 24.5226563,12.925 C24.5226563,12.925 24.5226563,12.925 24.5226563,12.925 C24.5226563,12.925 24.5226563,10.6257813 24.5226563,10.6257813 C24.5226563,10.0992188 24.2835938,9.81171875 23.75625,9.66796875 L23.7546875,9.66796875 Z M20.4023438,3.1546875 C20.4023438,3.1546875 20.4984375,3.10703125 20.4984375,3.10703125 C20.4984375,3.10703125 20.259375,6.26796875 20.259375,6.26796875 C20.1632813,6.2203125 20.0679688,6.171875 19.9242188,6.0765625 C19.7804688,6.02890625 19.6851563,5.98046875 19.6367188,5.9328125 C19.6367188,5.9328125 19.6367188,5.9328125 19.6367188,5.9328125 C18.8226563,5.2140625 18.0085938,4.63984375 17.1460938,4.20859375 C17.1460938,4.20859375 17.1460938,4.20859375 17.1460938,4.20859375 C18.0078125,3.7296875 19.109375,3.39453125 20.403125,3.1546875 C20.403125,3.1546875 20.403125,3.1546875 20.403125,3.1546875 L20.4023438,3.1546875 Z M7.8546875,2.9625 C8.525,2.2921875 9.3390625,1.95703125 10.296875,1.95703125 C11.2546875,1.95703125 12.06875,2.2921875 12.7390625,2.9625 C13.409375,3.68125 13.7445312,4.4953125 13.7445312,5.4046875 C13.7445312,5.4046875 13.7445312,5.4046875 13.7445312,5.4046875 C13.7445312,5.45234375 13.7445312,5.5484375 13.7445312,5.64375 C13.696875,5.7875 13.696875,5.8828125 13.696875,5.93125 C13.696875,5.93125 13.696875,5.93125 13.696875,5.93125 C13.696875,5.93125 6.89609375,5.88359375 6.89609375,5.88359375 C6.89609375,5.8359375 6.89609375,5.7875 6.89609375,5.64453125 C6.8484375,5.5484375 6.8484375,5.453125 6.8484375,5.40546875 C6.8484375,5.40546875 6.8484375,5.40546875 6.8484375,5.40546875 C6.8484375,4.4953125 7.18359375,3.68125 7.85390625,2.96328125 L7.8546875,2.9625 Z M7.4234375,22.215625 C7.4234375,22.215625 7.4234375,22.215625 7.4234375,22.215625 C7.2796875,22.4546875 7.040625,22.5984375 6.7046875,22.5984375 C6.7046875,22.5984375 6.7046875,22.5984375 6.7046875,22.5984375 C6.7046875,22.5984375 6.08203125,22.5984375 6.08203125,22.5984375 C5.79453125,22.5984375 5.55546875,22.5023437 5.36328125,22.2632813 C5.171875,22.071875 5.07578125,21.8320312 5.07578125,21.5929688 C5.07578125,21.5929688 5.07578125,21.5929688 5.07578125,21.5929688 C5.07578125,21.5929688 5.07578125,19.58125 5.07578125,19.58125 C5.8421875,20.1078125 6.65625,20.4914063 7.4703125,20.8265625 C7.4703125,20.8265625 7.4703125,20.8265625 7.4703125,20.8265625 C7.4703125,20.8265625 7.66171875,21.4492188 7.66171875,21.4492188 C7.66171875,21.4492188 7.66171875,21.5929688 7.66171875,21.5929688 C7.66171875,21.8320313 7.565625,22.071875 7.42265625,22.215625 L7.4234375,22.215625 Z M18.678125,19.4382812 C18.678125,19.4382812 18.6304687,21.59375 18.6304687,21.59375 C18.6304687,21.8328125 18.534375,22.0726562 18.3429688,22.2640625 C18.1515625,22.503125 17.9117187,22.5992187 17.6726562,22.5992187 C17.6726562,22.5992187 17.6726562,22.5992187 17.6726562,22.5992187 C17.6726562,22.5992187 17.05,22.5992187 17.05,22.5992187 C16.7625,22.5992187 16.5234375,22.503125 16.33125,22.2640625 C16.1398437,22.0726562 16.04375,21.8328125 16.04375,21.59375 C16.04375,21.59375 16.04375,21.59375 16.04375,21.59375 C16.04375,21.59375 16.04375,21.45 16.04375,21.45 C16.04375,21.45 16.1875,20.7796875 16.1875,20.7796875 C17.0976562,20.396875 17.959375,19.965625 18.678125,19.4390625 C18.678125,19.4390625 18.678125,19.4390625 18.678125,19.4390625 L18.678125,19.4382812 Z M18.7257813,18.1445312 C16.8101563,19.8210938 14.5109375,20.6351563 11.78125,20.6351563 C9.0515625,20.6351563 6.75234375,19.8210937 4.83671875,18.1445312 C2.92109375,16.5164063 1.96328125,14.5523438 1.96328125,12.2539062 C1.96328125,12.2539062 1.96328125,12.2539062 1.96328125,12.2539062 C2.0109375,10.8648438 2.39453125,9.571875 3.1125,8.37421875 C3.83125,7.225 4.740625,6.31484375 5.890625,5.64453125 C5.890625,5.64453125 5.890625,5.64453125 5.890625,5.64453125 C5.93828125,6.07578125 6.034375,6.50625 6.178125,6.88984375 C6.178125,6.88984375 6.178125,6.88984375 6.178125,6.88984375 C6.178125,6.88984375 14.4632813,6.88984375 14.4632813,6.88984375 C14.6070313,6.4109375 14.7023438,5.93203125 14.7023438,5.40546875 C14.7023438,5.40546875 14.7023438,5.40546875 14.7023438,5.40546875 C14.7023438,5.02265625 14.6546875,4.6390625 14.5585938,4.25625 C14.5585938,4.25625 14.5585938,4.25625 14.5585938,4.25625 C16.6179688,4.7828125 18.2945313,5.7890625 19.6351563,7.2734375 C20.928125,8.7578125 21.5984375,10.3867188 21.5984375,12.2539062 C21.5984375,12.2539062 21.5984375,12.2539062 21.5984375,12.2539062 C21.5984375,14.553125 20.640625,16.5164063 18.725,18.1445312 L18.7257813,18.1445312 Z M23.5632813,12.9242187 C23.5632813,12.9242187 22.509375,13.1632812 22.509375,13.1632812 C22.5570313,12.971875 22.5570313,12.684375 22.5570313,12.253125 C22.5570313,12.253125 22.5570313,12.253125 22.5570313,12.253125 C22.5570313,11.678125 22.4609375,11.0554688 22.3179687,10.3375 C22.3179687,10.3375 22.3179687,10.3375 22.3179687,10.3375 C22.3179687,10.3375 23.5632813,10.625 23.5632813,10.625 C23.5632813,10.625 23.5632813,12.9242187 23.5632813,12.9242187 Z M18.1515625,8.85390625 C18.4867187,8.85390625 18.6304687,8.99765625 18.6304687,9.3328125 C18.6304687,9.66796875 18.4867187,9.81171875 18.1515625,9.81171875 C17.8164062,9.81171875 17.6726562,9.66796875 17.6726562,9.3328125 C17.6726562,8.99765625 17.8164062,8.85390625 18.1515625,8.85390625 Z"/>
  <title>Piggybank</title>
</svg>