<svg xmlns="http://www.w3.org/2000/svg" viewBox="0 0 25 25" id="pin-solid">
  <path d="M11.6382813,2.346875 C11.6382813,2.346875 11.6382813,0 11.6382813,0 C11.6382813,0 0,11.6859375 0,11.6859375 C0,11.6859375 2.346875,11.6859375 2.346875,11.6859375 C2.346875,11.6859375 9.4828125,18.821875 9.4828125,18.821875 C9.4828125,18.821875 18.821875,9.4828125 18.821875,9.4828125 C18.821875,9.4828125 11.6382813,2.346875 11.6382813,2.346875 Z M19.4921875,10.153125 C19.4921875,10.153125 10.153125,19.4921875 10.153125,19.4921875 C10.153125,19.4921875 12.8351562,22.1742187 12.8351562,22.1742187 C12.8351562,22.1742187 12.8351562,24.5210937 12.8351562,24.5210937 C12.8351562,24.5210937 17.5289063,19.8757812 17.5289063,19.8757812 C17.5289063,19.8757812 24.5210938,24.5210937 24.5210938,24.5210937 C24.5210938,24.5210937 19.8757813,17.5289062 19.8757813,17.5289062 C19.8757813,17.5289062 24.5210938,12.8351562 24.5210938,12.8351562 C24.5210938,12.8351562 22.1742188,12.8351562 22.1742188,12.8351562 C22.1742188,12.8351562 19.4921875,10.153125 19.4921875,10.153125 Z"/>
  <title>Pin Solid</title>
</svg>