<svg xmlns="http://www.w3.org/2000/svg" viewBox="0 0 25 25" id="pin">
  <g fill="none" fill-rule="evenodd">
    <path fill="#000" fill-rule="nonzero" d="M11.6382812,2.346875 C11.6382812,2.346875 11.6382812,0 11.6382812,0 C11.6382812,0 0,11.6859375 0,11.6859375 C0,11.6859375 2.346875,11.6859375 2.346875,11.6859375 C2.346875,11.6859375 12.8351563,22.1742187 12.8351563,22.1742187 C12.8351563,22.1742187 12.8351563,24.5210937 12.8351563,24.5210937 C12.8351563,24.5210937 17.5289062,19.8757812 17.5289062,19.8757812 C17.5289062,19.8757812 24.5210937,24.5210937 24.5210937,24.5210937 C24.5210937,24.5210937 19.8757812,17.5289062 19.8757812,17.5289062 C19.8757812,17.5289062 24.5210937,12.8351562 24.5210937,12.8351562 C24.5210937,12.8351562 22.1742187,12.8351562 22.1742187,12.8351562 C22.1742187,12.8351562 11.6375,2.346875 11.6375,2.346875 L11.6382812,2.346875 Z M2.346875,10.728125 C2.346875,10.728125 10.6804688,2.39453125 10.6804688,2.39453125 C10.6804688,2.39453125 10.6804688,2.77734375 10.6804688,2.77734375 C10.6804688,2.77734375 10.9679688,3.06484375 10.9679688,3.06484375 C10.9679688,3.06484375 21.45625,13.5054687 21.45625,13.5054687 C21.45625,13.5054687 21.74375,13.7929687 21.74375,13.7929687 C21.74375,13.7929687 22.175,13.7929687 22.175,13.7929687 C22.175,13.7929687 19.1578125,16.8101562 19.1578125,16.8101562 C19.1578125,16.8101562 18.63125,17.3851562 18.63125,17.3851562 C18.63125,17.3851562 19.0625,18.0554687 19.0625,18.0554687 C19.0625,18.0554687 21.0257813,21.025 21.0257813,21.025 C21.0257813,21.025 18.05625,19.0617188 18.05625,19.0617188 C18.05625,19.0617188 17.3859375,18.6304687 17.3859375,18.6304687 C17.3859375,18.6304687 16.8109375,19.1570312 16.8109375,19.1570312 C16.8109375,19.1570312 13.79375,22.1742188 13.79375,22.1742188 C13.79375,22.1742188 13.79375,21.7429687 13.79375,21.7429687 C13.79375,21.7429687 13.50625,21.4554687 13.50625,21.4554687 C13.50625,21.4554687 3.065625,11.0148438 3.065625,11.0148438 C3.065625,11.0148438 2.778125,10.7273438 2.778125,10.7273438 C2.778125,10.7273438 2.346875,10.7273438 2.346875,10.7273438 L2.346875,10.728125 Z"/>
    <path fill="#000" fill-rule="nonzero" d="M19.4921875,10.153125 C19.4921875,10.153125 10.153125,19.4921875 10.153125,19.4921875 C10.153125,19.4921875 9.4828125,18.821875 9.4828125,18.821875 C9.4828125,18.821875 18.821875,9.4828125 18.821875,9.4828125 C18.821875,9.4828125 19.4921875,10.153125 19.4921875,10.153125 Z"/>
  </g>
  <title>Pin</title>
</svg>