<svg xmlns="http://www.w3.org/2000/svg" viewBox="0 0 25 25" id="pipeline">
  <path d="M0.9578125,2.00546875 C0.9578125,2.00546875 23.5632813,2.00546875 23.5632813,2.00546875 C23.5632813,2.00546875 23.5632813,5.9328125 23.5632813,5.9328125 C23.5632813,5.9328125 0.9578125,5.9328125 0.9578125,5.9328125 C0.9578125,5.9328125 0.9578125,2.00546875 0.9578125,2.00546875 Z M24.5210937,6.890625 C24.5210937,6.890625 24.5210937,1 24.5210937,1 C24.5210937,1 0,1 0,1 C0,1 0,6.890625 0,6.890625 C0,6.890625 24.5210937,6.890625 24.5210937,6.890625 Z M3.92734375,10.8171875 C3.92734375,10.8171875 20.59375,10.8171875 20.59375,10.8171875 C20.59375,10.8171875 20.59375,14.7445313 20.59375,14.7445313 C20.59375,14.7445313 3.92734375,14.7445313 3.92734375,14.7445313 C3.92734375,14.7445313 3.92734375,10.8171875 3.92734375,10.8171875 Z M21.6,15.7023437 C21.6,15.7023437 21.6,9.859375 21.6,9.859375 C21.6,9.859375 2.921875,9.859375 2.921875,9.859375 C2.921875,9.859375 2.921875,15.7023437 2.921875,15.7023437 C2.921875,15.7023437 21.6,15.7023437 21.6,15.7023437 Z M6.8484375,19.6296875 C6.8484375,19.6296875 17.671875,19.6296875 17.671875,19.6296875 C17.671875,19.6296875 17.671875,23.5570312 17.671875,23.5570312 C17.671875,23.5570312 6.8484375,23.5570312 6.8484375,23.5570312 C6.8484375,23.5570312 6.8484375,19.6296875 6.8484375,19.6296875 Z M18.6304687,24.5625 C18.6304687,24.5625 18.6304687,18.671875 18.6304687,18.671875 C18.6304687,18.671875 5.89140625,18.671875 5.89140625,18.671875 C5.89140625,18.671875 5.89140625,24.5625 5.89140625,24.5625 C5.89140625,24.5625 18.6304687,24.5625 18.6304687,24.5625 Z"/>
  <title>Pipeline</title>
</svg>