<svg xmlns="http://www.w3.org/2000/svg" viewBox="0 0 25 25" id="pipeline-solid">
  <path d="M24.5210937,6.890625 C24.5210937,6.890625 24.5210937,1 24.5210937,1 C24.5210937,1 0,1 0,1 C0,1 0,6.890625 0,6.890625 C0,6.890625 24.5210937,6.890625 24.5210937,6.890625 Z M21.6,15.7023437 C21.6,15.7023437 21.6,9.859375 21.6,9.859375 C21.6,9.859375 2.921875,9.859375 2.921875,9.859375 C2.921875,9.859375 2.921875,15.7023437 2.921875,15.7023437 C2.921875,15.7023437 21.6,15.7023437 21.6,15.7023437 Z M18.6304687,24.5625 C18.6304687,24.5625 18.6304687,18.671875 18.6304687,18.671875 C18.6304687,18.671875 5.89140625,18.671875 5.89140625,18.671875 C5.89140625,18.671875 5.89140625,24.5625 5.89140625,24.5625 C5.89140625,24.5625 18.6304687,24.5625 18.6304687,24.5625 Z"/>
  <title>Pipeline Solid</title>
</svg>