<svg xmlns="http://www.w3.org/2000/svg" viewBox="0 0 25 25" id="plane">
  <path d="M23.946875,12.4523438 C23.946875,12.4523438 23.946875,12.4523438 23.946875,12.4523438 C23.946875,12.4523438 14.7039063,8.2859375 14.7039063,8.2859375 C14.7039063,8.2859375 14.7039063,2.44296875 14.7039063,2.44296875 C14.7039063,1.77265625 14.4648438,1.19765625 13.9851562,0.71875 C13.5054688,0.23984375 12.93125,0 12.2609375,0 C11.590625,0 11.015625,0.2390625 10.5367188,0.71875 C10.0578125,1.1984375 9.81796875,1.77265625 9.81796875,2.44296875 C9.81796875,2.44296875 9.81796875,2.44296875 9.81796875,2.44296875 C9.81796875,2.44296875 9.81796875,8.2859375 9.81796875,8.2859375 C9.81796875,8.2859375 0.575,12.4523438 0.575,12.4523438 C0.1921875,12.5960938 0,12.93125 0,13.3625 C0,13.3625 0,13.3625 0,13.3625 C0,13.50625 0,13.6015625 0.04765625,13.65 C0.04765625,13.65 0.04765625,13.65 0.04765625,13.65 C0.04765625,13.65 0.5265625,15.0390625 0.5265625,15.0390625 C0.62265625,15.4703125 0.909375,15.709375 1.43671875,15.709375 C1.43671875,15.709375 1.43671875,15.709375 1.43671875,15.709375 C1.43671875,15.709375 1.5328125,15.709375 1.5328125,15.709375 C1.5328125,15.709375 3.92734375,15.421875 3.92734375,15.421875 C3.92734375,15.421875 3.92734375,16.1882812 3.92734375,16.1882812 C3.92734375,16.5234375 4.07109375,16.6671875 4.40625,16.6671875 C4.74140625,16.6671875 4.88515625,16.5234375 4.88515625,16.1882812 C4.88515625,16.1882812 4.88515625,16.1882812 4.88515625,16.1882812 C4.88515625,16.1882812 4.88515625,15.3265625 4.88515625,15.3265625 C4.88515625,15.3265625 5.890625,15.2304687 5.890625,15.2304687 C5.890625,15.2304687 5.890625,16.1882812 5.890625,16.1882812 C5.890625,16.5234375 6.034375,16.6671875 6.36953125,16.6671875 C6.7046875,16.6671875 6.8484375,16.5234375 6.8484375,16.1882812 C6.8484375,16.1882812 6.8484375,16.1882812 6.8484375,16.1882812 C6.8484375,16.1882812 6.8484375,15.1828125 6.8484375,15.1828125 C6.8484375,15.1828125 6.8484375,15.1351562 6.8484375,15.1351562 C6.8484375,15.1351562 9.81796875,14.8 9.81796875,14.8 C9.81796875,14.8 9.81796875,20.5953125 9.81796875,20.5953125 C9.81796875,20.5953125 8.38125,21.3140625 8.38125,21.3140625 C8.04609375,21.4578125 7.8546875,21.7453125 7.8546875,22.1757812 C7.8546875,22.1757812 7.8546875,22.1757812 7.8546875,22.1757812 C7.8546875,22.1757812 7.8546875,23.5164062 7.8546875,23.5164062 C7.8546875,23.8039063 7.95078125,24.0429688 8.1421875,24.2351563 C8.33359375,24.4273438 8.5734375,24.5226563 8.8125,24.5226563 C8.8125,24.5226563 8.8125,24.5226563 8.8125,24.5226563 C8.8125,24.5226563 15.709375,24.5226563 15.709375,24.5226563 C15.9484375,24.5226563 16.1882812,24.4265625 16.3796875,24.2351563 C16.5710938,24.04375 16.6671875,23.8039063 16.6671875,23.5164062 C16.6671875,23.5164062 16.6671875,23.5164062 16.6671875,23.5164062 C16.6671875,23.5164062 16.6671875,22.1757812 16.6671875,22.1757812 C16.6671875,21.7445312 16.4757812,21.4570312 16.140625,21.3140625 C16.140625,21.3140625 16.140625,21.3140625 16.140625,21.3140625 C16.140625,21.3140625 14.7039063,20.5953125 14.7039063,20.5953125 C14.7039063,20.5953125 14.7039063,14.8 14.7039063,14.8 C14.7039063,14.8 17.6734375,15.1351562 17.6734375,15.1351562 C17.6734375,15.1351562 17.6734375,15.1828125 17.6734375,15.1828125 C17.6734375,15.1828125 17.6734375,16.1882812 17.6734375,16.1882812 C17.6734375,16.5234375 17.8171875,16.6671875 18.1523438,16.6671875 C18.4875,16.6671875 18.63125,16.5234375 18.63125,16.1882812 C18.63125,16.1882812 18.63125,16.1882812 18.63125,16.1882812 C18.63125,16.1882812 18.63125,15.2304687 18.63125,15.2304687 C18.63125,15.2304687 19.6367188,15.3265625 19.6367188,15.3265625 C19.6367188,15.3265625 19.6367188,16.1882812 19.6367188,16.1882812 C19.6367188,16.5234375 19.7804688,16.6671875 20.115625,16.6671875 C20.4507812,16.6671875 20.5945313,16.5234375 20.5945313,16.1882812 C20.5945313,16.1882812 20.5945313,16.1882812 20.5945313,16.1882812 C20.5945313,16.1882812 20.5945313,15.421875 20.5945313,15.421875 C20.5945313,15.421875 22.9890625,15.709375 22.9890625,15.709375 C22.9890625,15.709375 23.0851563,15.709375 23.0851563,15.709375 C23.6117188,15.709375 23.8992188,15.4703125 23.9953125,15.0390625 C23.9953125,15.0390625 23.9953125,15.0390625 23.9953125,15.0390625 C23.9953125,15.0390625 24.4742188,13.65 24.4742188,13.65 C24.521875,13.6023437 24.521875,13.50625 24.521875,13.3625 C24.521875,13.3625 24.521875,13.3625 24.521875,13.3625 C24.521875,12.93125 24.3304688,12.5960937 23.946875,12.4523438 Z M9.81875,13.840625 C9.81875,13.840625 1.4375,14.7023438 1.4375,14.7023438 C1.4375,14.7023438 0.95859375,13.3617187 0.95859375,13.3617187 C0.95859375,13.3617187 9.81875,9.38671875 9.81875,9.38671875 C9.81875,9.38671875 9.81875,13.840625 9.81875,13.840625 Z M14.2726563,21.45625 C14.2726563,21.45625 15.709375,22.175 15.709375,22.175 C15.709375,22.175 15.709375,23.515625 15.709375,23.515625 C15.709375,23.515625 8.8125,23.515625 8.8125,23.515625 C8.8125,23.515625 8.8125,22.175 8.8125,22.175 C8.8125,22.175 10.2492188,21.45625 10.2492188,21.45625 C10.584375,21.3125 10.7757812,21.025 10.7757812,20.5945312 C10.7757812,20.5945312 10.7757812,20.5945312 10.7757812,20.5945312 C10.7757812,20.5945312 10.7757812,2.44296875 10.7757812,2.44296875 C10.7757812,2.01171875 10.9195313,1.6765625 11.2070312,1.3890625 C11.4945312,1.1015625 11.8296875,0.9578125 12.2609375,0.9578125 C12.6921875,0.9578125 13.0273438,1.1015625 13.3148437,1.3890625 C13.6023437,1.6765625 13.7460937,2.01171875 13.7460937,2.44296875 C13.7460937,2.44296875 13.7460937,2.44296875 13.7460937,2.44296875 C13.7460937,2.44296875 13.7460937,20.5945312 13.7460937,20.5945312 C13.7460937,21.0257812 13.9375,21.3132812 14.2726562,21.45625 C14.2726562,21.45625 14.2726562,21.45625 14.2726562,21.45625 L14.2726563,21.45625 Z M23.5640625,13.3617187 C23.5640625,13.3617187 23.0851562,14.7023438 23.0851562,14.7023438 C23.0851562,14.7023438 14.7039062,13.840625 14.7039062,13.840625 C14.7039062,13.840625 14.7039062,9.38671875 14.7039062,9.38671875 C14.7039062,9.38671875 23.5640625,13.3617187 23.5640625,13.3617187 Z"/>
  <title>Plane</title>
</svg>