<svg xmlns="http://www.w3.org/2000/svg" viewBox="0 0 25 25" id="plant">
  <path d="M16.4679688,14.7023437 C16.4679688,14.7023437 16.6117188,14.7023437 16.6117188,14.7023437 C18.8625,14.7023437 20.7304688,13.696875 22.2148438,11.7328125 C23.6992187,9.76875 24.465625,7.80546875 24.465625,5.88984375 C24.465625,5.88984375 24.465625,5.88984375 24.465625,5.88984375 C23.5078125,6.60859375 22.4539063,6.99140625 21.3046875,6.99140625 C21.3046875,6.99140625 21.3046875,6.99140625 21.3046875,6.99140625 C21.065625,6.99140625 20.921875,6.99140625 20.778125,6.94375 C20.778125,6.94375 20.778125,6.94375 20.778125,6.94375 C20.2992188,6.99140625 19.5804688,6.94375 18.6710938,6.84765625 C17.7609375,6.8 17.1382813,6.7515625 16.803125,6.7515625 C16.803125,6.7515625 16.803125,6.7515625 16.803125,6.7515625 C16.803125,6.7515625 16.7070312,6.7515625 16.7070312,6.7515625 C16.4195312,6.7515625 16.0367187,6.79921875 15.6054688,6.84765625 C15.6054688,6.84765625 15.6054688,6.84765625 15.6054688,6.84765625 C14.5039062,7.08671875 13.5460938,7.66171875 12.8273438,8.52421875 C12.1085937,9.434375 11.7257813,10.4398437 11.7257813,11.5890625 C11.7257813,11.5890625 11.7257813,11.5890625 11.7257813,11.5890625 C11.7257813,11.5890625 11.7257813,11.7804687 11.7257813,11.7804687 C11.7257813,11.7804687 11.7257813,18.6773437 11.7257813,18.6773437 C10.3367187,18.8210937 9.13984375,19.3960937 8.2296875,20.4015625 C7.271875,21.4070312 6.79296875,22.6523437 6.79296875,24.0414062 C6.79296875,24.0414062 6.79296875,24.0414062 6.79296875,24.0414062 C6.79296875,24.0414062 6.79296875,24.5203125 6.79296875,24.5203125 C6.79296875,24.5203125 17.6164062,24.5203125 17.6164062,24.5203125 C17.6164062,24.5203125 17.6164062,24.0414062 17.6164062,24.0414062 C17.6164062,22.6523437 17.1375,21.4070312 16.2273437,20.4015625 C15.2695312,19.3960937 14.1203125,18.8210937 12.73125,18.6773437 C12.73125,18.6773437 12.73125,18.6773437 12.73125,18.6773437 C12.73125,18.6773437 12.6835937,13.4570312 12.6835937,13.4570312 C13.8328125,14.2710937 15.078125,14.7023437 16.4671875,14.7023437 C16.4671875,14.7023437 16.4671875,14.7023437 16.4671875,14.7023437 L16.4679688,14.7023437 Z M15.7976562,7.85390625 C15.7976562,7.85390625 15.8453125,7.80625 15.8453125,7.80625 C15.9890625,7.75859375 16.2765625,7.75859375 16.7070312,7.75859375 C16.7070312,7.75859375 16.7070312,7.75859375 16.7070312,7.75859375 C16.7070312,7.75859375 16.803125,7.75859375 16.803125,7.75859375 C17.1382812,7.75859375 17.7609375,7.80625 18.575,7.8546875 C18.575,7.8546875 18.575,7.8546875 18.575,7.8546875 C19.5328125,7.90234375 20.2992187,7.95078125 20.8257812,7.95078125 C20.8257812,7.95078125 20.8257812,7.95078125 20.8257812,7.95078125 C20.8257812,7.95078125 20.9695312,7.95078125 20.9695312,7.95078125 C21.7835938,7.95078125 22.55,7.8546875 23.26875,7.66328125 C23.26875,7.66328125 23.26875,7.66328125 23.26875,7.66328125 C22.7421875,9.24375 21.928125,10.6804687 20.778125,11.878125 C19.5804687,13.1234375 18.1921875,13.7460937 16.6117188,13.7460937 C16.6117188,13.7460937 16.6117188,13.7460937 16.6117188,13.7460937 C15.5578125,13.7460937 14.6484375,13.5070312 13.8820313,13.0757812 C13.0679687,12.6445312 12.684375,12.2140625 12.684375,11.7828125 C12.684375,11.7828125 12.684375,11.7828125 12.684375,11.7828125 C12.684375,11.7828125 12.684375,11.6390625 12.684375,11.6390625 C12.684375,10.7289062 12.971875,9.8671875 13.5945312,9.1484375 C14.1695312,8.4296875 14.8875,7.99921875 15.7976562,7.85546875 C15.7976562,7.85546875 15.7976562,7.85546875 15.7976562,7.85546875 L15.7976562,7.85390625 Z M16.6117188,23.5148438 C16.6117188,23.5148438 16.6117188,23.5148438 16.6117188,23.5148438 C16.6117188,23.5148438 7.79921875,23.5148438 7.79921875,23.5148438 C7.94296875,22.4132813 8.46953125,21.4554688 9.28359375,20.7367188 C10.0976563,20.0179688 11.103125,19.6351563 12.2046875,19.6351563 C13.30625,19.6351563 14.3117188,20.0179688 15.1257813,20.7367188 C15.9398438,21.4554688 16.4664063,22.4132813 16.6101563,23.5148438 L16.6117188,23.5148438 Z M10.7210938,12.7390625 C10.7210938,12.7390625 10.7210938,12.7390625 10.7210938,12.7390625 C10.7210938,10.9195313 10.4335938,9.38671875 9.90703125,8.14140625 C9.38046875,6.89609375 8.709375,5.93828125 7.94375,5.315625 C7.17734375,4.69296875 6.4109375,4.16640625 5.64453125,3.6875 C4.878125,3.25625 4.2078125,2.7296875 3.68125,2.10703125 C3.1546875,1.53203125 2.8671875,0.8140625 2.8671875,0 C2.8671875,0 2.8671875,0 2.8671875,0 C2.00546875,0.86171875 1.3828125,2.490625 1.04765625,4.8375 C1.04765625,4.8375 1.04765625,4.8375 1.04765625,4.8375 C1.04765625,4.93359375 1.04765625,5.0765625 1.04765625,5.26875 C1,5.46015625 1,5.60390625 1,5.74765625 C1,5.74765625 1,5.74765625 1,5.74765625 C1,7.51953125 1.62265625,9.1 2.81953125,10.3929687 C4.01640625,11.6859375 5.5015625,12.4523438 7.2734375,12.5960937 C7.2734375,12.5960937 7.2734375,12.5960937 7.2734375,12.5960937 C8.47109375,12.6921875 9.6203125,12.7398438 10.721875,12.7398438 L10.7210938,12.7390625 Z M3.25,9.3859375 C3.25,9.3859375 3.25,9.3859375 3.25,9.3859375 C2.4359375,8.33203125 2.0046875,7.13515625 2.0046875,5.74609375 C2.0046875,5.74609375 2.0046875,5.74609375 2.0046875,5.74609375 C2.0046875,5.4109375 2.0046875,5.1234375 2.05234375,4.93203125 C2.05234375,4.93203125 2.05234375,4.93203125 2.05234375,4.93203125 C2.1,4.21328125 2.2921875,3.3515625 2.62734375,2.29765625 C2.62734375,2.29765625 2.62734375,2.29765625 2.62734375,2.29765625 C3.25,3.2078125 4.11171875,3.97421875 5.165625,4.596875 C5.165625,4.596875 5.165625,4.596875 5.165625,4.596875 C6.07578125,5.171875 6.79375,5.65078125 7.32109375,6.08125 C7.8,6.5125 8.27890625,7.1828125 8.80546875,8.18828125 C9.33203125,9.19375 9.61953125,10.34375 9.715625,11.7320312 C9.715625,11.7320312 9.715625,11.7320312 9.715625,11.7320312 C8.996875,11.7320312 8.23125,11.684375 7.41640625,11.5882813 C7.41640625,11.5882813 7.41640625,11.5882813 7.41640625,11.5882813 C5.73984375,11.4445313 4.3515625,10.7265625 3.25,9.38515625 L3.25,9.3859375 Z"/>
  <title>Plant</title>
</svg>