<svg xmlns="http://www.w3.org/2000/svg" viewBox="0 0 25 25" id="plant-solid">
  <path d="M12.6367188,13.4570312 C12.6367188,13.4570312 12.684375,13.4570312 12.684375,13.4570312 C12.684375,13.4570312 12.684375,18.6773437 12.684375,18.6773437 C14.0734375,18.8210938 15.2226562,19.3960937 16.1804688,20.4015625 C17.090625,21.4070312 17.5695312,22.6523438 17.5695312,24.0414063 C17.5695312,24.0414063 17.5695312,24.0414063 17.5695312,24.0414063 C17.5695312,24.0414063 17.5695312,24.5203125 17.5695312,24.5203125 C17.5695312,24.5203125 6.79375,24.5203125 6.79375,24.5203125 C6.79375,24.5203125 6.79375,24.0414063 6.79375,24.0414063 C6.79375,22.6523438 7.27265625,21.4070312 8.23046875,20.4015625 C9.140625,19.3960937 10.2898438,18.8210938 11.6789063,18.6773437 C11.6789063,18.6773437 11.6789063,18.6773437 11.6789063,18.6773437 C11.6789063,18.6773437 11.6789063,11.7804688 11.6789063,11.7804688 C11.6789063,11.7804688 11.6789063,11.5890625 11.6789063,11.5890625 C11.6789063,10.4398438 12.0617188,9.43359375 12.7804688,8.52421875 C13.4992188,7.6625 14.4570312,7.0875 15.60625,6.84765625 C15.60625,6.84765625 15.60625,6.84765625 15.60625,6.84765625 C16.1328125,6.7515625 17.0429688,6.7515625 18.3359375,6.84765625 C19.6289063,6.99140625 20.8265625,6.99140625 21.928125,6.8953125 C23.0296875,6.84765625 23.84375,6.5125 24.4664062,5.88984375 C24.4664062,5.88984375 24.4664062,5.88984375 24.4664062,5.88984375 C24.4664062,7.80546875 23.7,9.76953125 22.215625,11.7328125 C20.6828125,13.6960938 18.815625,14.7023437 16.6125,14.7023437 C16.6125,14.7023437 16.6125,14.7023437 16.6125,14.7023437 C16.6125,14.7023437 16.46875,14.7023437 16.46875,14.7023437 C15.0796875,14.7023437 13.834375,14.2710938 12.6375,13.4570312 C12.6375,13.4570312 12.6375,13.4570312 12.6375,13.4570312 L12.6367188,13.4570312 Z M10.7210938,12.7390625 C10.7210938,12.7390625 10.7210938,12.7390625 10.7210938,12.7390625 C10.7210938,10.9195313 10.4335938,9.38671875 9.90703125,8.14140625 C9.38046875,6.89609375 8.709375,5.93828125 7.94375,5.315625 C7.17734375,4.69296875 6.4109375,4.16640625 5.64453125,3.6875 C4.878125,3.25625 4.2078125,2.7296875 3.68125,2.10703125 C3.1546875,1.53203125 2.8671875,0.8140625 2.8671875,0 C2.8671875,0 2.8671875,0 2.8671875,0 C2.00546875,0.86171875 1.3828125,2.490625 1.04765625,4.8375 C1.04765625,4.8375 1.04765625,4.8375 1.04765625,4.8375 C1,5.02890625 1,5.31640625 1,5.74765625 C1,5.74765625 1,5.74765625 1,5.74765625 C1,7.51953125 1.62265625,9.1 2.81953125,10.3929687 C4.01640625,11.6859375 5.5015625,12.4523437 7.2734375,12.5960937 C7.2734375,12.5960937 7.2734375,12.5960937 7.2734375,12.5960937 C8.47109375,12.6921875 9.6203125,12.7398438 10.721875,12.7398438 L10.7210938,12.7390625 Z"/>
  <title>Plant Solid</title>
</svg>