<svg xmlns="http://www.w3.org/2000/svg" viewBox="0 0 25 25" id="plane-solid">
  <path d="M16.6671875,21.8875 C16.6671875,21.8875 16.6671875,21.8875 16.6671875,21.8875 C16.6671875,21.8875 16.6671875,24.0429688 16.6671875,24.0429688 C16.6671875,24.378125 16.5234375,24.521875 16.1882812,24.521875 C16.1882812,24.521875 16.1882812,24.521875 16.1882812,24.521875 C16.1882812,24.521875 13.7460937,24.521875 13.7460937,24.521875 C13.7460937,24.521875 12.2617188,23.5164063 12.2617188,23.5164063 C12.2617188,23.5164063 10.7773437,24.521875 10.7773437,24.521875 C10.7773437,24.521875 8.33515625,24.521875 8.33515625,24.521875 C8,24.521875 7.85625,24.378125 7.85625,24.0429688 C7.85625,24.0429688 7.85625,24.0429688 7.85625,24.0429688 C7.85625,24.0429688 7.85625,21.8875 7.85625,21.8875 C7.85625,21.6484375 7.95234375,21.5046875 8.0953125,21.45625 C8.0953125,21.45625 8.0953125,21.45625 8.0953125,21.45625 C8.0953125,21.45625 9.81953125,20.5945313 9.81953125,20.5945313 C9.81953125,20.5945313 9.81953125,2.44296875 9.81953125,2.44296875 C9.81953125,1.77265625 10.0585937,1.19765625 10.5382812,0.71875 C11.0179687,0.23984375 11.5921875,0 12.2625,0 C12.9328125,0 13.5078125,0.2390625 13.9867187,0.71875 C14.465625,1.1984375 14.7054687,1.77265625 14.7054687,2.44296875 C14.7054687,2.44296875 14.7054687,2.44296875 14.7054687,2.44296875 C14.7054687,2.44296875 14.7054687,20.5945313 14.7054687,20.5945313 C14.7054687,20.5945313 16.4296875,21.45625 16.4296875,21.45625 C16.5734375,21.5039062 16.66875,21.6476563 16.66875,21.8875 L16.6671875,21.8875 Z M23.946875,12.453125 C23.946875,12.453125 23.946875,12.453125 23.946875,12.453125 C23.946875,12.453125 15.709375,8.7171875 15.709375,8.7171875 C15.709375,8.7171875 15.709375,14.8953125 15.709375,14.8953125 C15.709375,14.8953125 17.6726562,15.134375 17.6726562,15.134375 C17.6726562,15.134375 17.6726562,15.1820312 17.6726562,15.1820312 C17.6726562,15.1820312 17.6726562,16.1875 17.6726562,16.1875 C17.6726562,16.5226562 17.8164062,16.6664062 18.1515625,16.6664062 C18.4867187,16.6664062 18.6304687,16.5226562 18.6304687,16.1875 C18.6304687,16.1875 18.6304687,16.1875 18.6304687,16.1875 C18.6304687,16.1875 18.6304687,15.2296875 18.6304687,15.2296875 C18.6304687,15.2296875 19.6359375,15.3257812 19.6359375,15.3257812 C19.6359375,15.3257812 19.6359375,16.1875 19.6359375,16.1875 C19.6359375,16.5226562 19.7796875,16.6664062 20.1148437,16.6664062 C20.45,16.6664062 20.59375,16.5226562 20.59375,16.1875 C20.59375,16.1875 20.59375,16.1875 20.59375,16.1875 C20.59375,16.1875 20.59375,15.4210937 20.59375,15.4210937 C20.59375,15.4210937 22.9882812,15.7085937 22.9882812,15.7085937 C22.9882812,15.7085937 23.084375,15.7085937 23.084375,15.7085937 C23.6109375,15.7085937 23.8984375,15.4695312 23.9945313,15.0382812 C23.9945313,15.0382812 23.9945313,15.0382812 23.9945313,15.0382812 C23.9945313,15.0382812 24.4734375,13.6492187 24.4734375,13.6492187 C24.5210937,13.6015625 24.5210937,13.5054687 24.5210937,13.3617187 C24.5210937,13.3617187 24.5210937,13.3617187 24.5210937,13.3617187 C24.5210937,12.9304687 24.3296875,12.5953125 23.9460937,12.4515625 L23.946875,12.453125 Z M6.84921875,15.1351563 C6.84921875,15.1351563 8.8125,14.8960938 8.8125,14.8960938 C8.8125,14.8960938 8.8125,8.71796875 8.8125,8.71796875 C8.8125,8.71796875 0.575,12.4539063 0.575,12.4539063 C0.1921875,12.5976562 0,12.9328125 0,13.3640625 C0,13.3640625 0,13.3640625 0,13.3640625 C0,13.5078125 0,13.603125 0.04765625,13.6515625 C0.04765625,13.6515625 0.04765625,13.6515625 0.04765625,13.6515625 C0.04765625,13.6515625 0.5265625,15.040625 0.5265625,15.040625 C0.62265625,15.471875 0.909375,15.7109375 1.43671875,15.7109375 C1.43671875,15.7109375 1.43671875,15.7109375 1.43671875,15.7109375 C1.43671875,15.7109375 1.5328125,15.7109375 1.5328125,15.7109375 C1.5328125,15.7109375 3.92734375,15.4234375 3.92734375,15.4234375 C3.92734375,15.4234375 3.92734375,16.1898438 3.92734375,16.1898438 C3.92734375,16.525 4.07109375,16.66875 4.40625,16.66875 C4.74140625,16.66875 4.88515625,16.525 4.88515625,16.1898438 C4.88515625,16.1898438 4.88515625,16.1898438 4.88515625,16.1898438 C4.88515625,16.1898438 4.88515625,15.328125 4.88515625,15.328125 C4.88515625,15.328125 5.890625,15.2320312 5.890625,15.2320312 C5.890625,15.2320312 5.890625,16.1898437 5.890625,16.1898437 C5.890625,16.525 6.034375,16.66875 6.36953125,16.66875 C6.7046875,16.66875 6.8484375,16.525 6.8484375,16.1898437 C6.8484375,16.1898437 6.8484375,16.1898437 6.8484375,16.1898437 C6.8484375,16.1898437 6.8484375,15.184375 6.8484375,15.184375 C6.8484375,15.184375 6.8484375,15.1367187 6.8484375,15.1367187 L6.84921875,15.1351563 Z"/>
  <title>Plane Solid</title>
</svg>