<svg xmlns="http://www.w3.org/2000/svg" viewBox="0 0 25 25" id="playbook-solid">
  <path d="M24.5210937,3.44375 C24.5210937,3.44375 24.5210937,3.44375 24.5210937,3.44375 C24.5210937,3.44375 24.5210937,21.5953125 24.5210937,21.5953125 C24.5210937,22.121875 24.3296875,22.6007813 23.9460937,22.984375 C23.5625,23.3679688 23.084375,23.559375 22.5570313,23.559375 C22.5570313,23.559375 22.5570313,23.559375 22.5570313,23.559375 C22.5570313,23.559375 20.59375,23.559375 20.59375,23.559375 C20.59375,23.559375 20.59375,5.88671875 20.59375,5.88671875 C20.59375,5.88671875 22.078125,5.88671875 22.078125,5.88671875 C22.7484375,5.88671875 23.3234375,5.64765625 23.8023437,5.16796875 C24.28125,4.68828125 24.5210937,4.1140625 24.5210937,3.44375 Z M5.46015625,15.1296875 C5.17265625,14.890625 4.8375,14.746875 4.40625,14.746875 C3.975,14.746875 3.63984375,14.890625 3.35234375,15.1296875 C3.06484375,15.4171875 2.92109375,15.7523437 2.92109375,16.1835938 C2.92109375,16.6148437 3.06484375,16.95 3.35234375,17.2375 C3.63984375,17.525 3.975,17.66875 4.40625,17.66875 C4.8375,17.66875 5.17265625,17.525 5.46015625,17.2375 C5.74765625,16.95 5.89140625,16.6148437 5.89140625,16.1835938 C5.89140625,15.7523437 5.74765625,15.4171875 5.46015625,15.1296875 Z M21.6,4.928125 C21.6,4.928125 21.6,4.928125 21.6,4.928125 C21.6,4.928125 19.6367188,4.928125 19.6367188,4.928125 C19.6367188,4.928125 19.6367188,21.5945312 19.6367188,21.5945312 C19.6367188,21.5945312 1.48515625,21.5945312 1.48515625,21.5945312 C1.05390625,21.5945312 0.71875,21.4507812 0.43125,21.1632813 C0.14375,20.8757812 0,20.540625 0,20.109375 C0,20.109375 0,20.109375 0,20.109375 C0,20.109375 0,2.48515625 0,2.48515625 C0,2.05390625 0.14375,1.71875 0.43125,1.43125 C0.71875,1.14375 1.05390625,1 1.48515625,1 C1.48515625,1 1.48515625,1 1.48515625,1 C1.48515625,1 21.6,1 21.6,1 C22.1265625,1 22.6054688,1.19140625 22.9890625,1.575 C23.3726562,1.95859375 23.5640625,2.43671875 23.5640625,2.9640625 C23.5640625,3.490625 23.3726562,3.96953125 22.9890625,4.353125 C22.6054688,4.73671875 22.1273437,4.928125 21.6,4.928125 Z M6.8484375,16.1828125 C6.8484375,16.1828125 6.8484375,16.1828125 6.8484375,16.1828125 C6.8484375,15.5125 6.609375,14.9375 6.1296875,14.4585938 C5.65,13.9796875 5.07578125,13.7398437 4.40546875,13.7398437 C3.73515625,13.7398437 3.16015625,13.9789062 2.68125,14.4585938 C2.20234375,14.9382813 1.9625,15.5125 1.9625,16.1828125 C1.9625,16.1828125 1.9625,16.1828125 1.9625,16.1828125 C1.9625,16.9015625 2.20234375,17.4757813 2.68125,17.9546875 C3.16015625,18.4335938 3.73515625,18.6734375 4.40546875,18.6734375 C5.07578125,18.6734375 5.65078125,18.434375 6.1296875,17.9546875 C6.60859375,17.475 6.8484375,16.9007813 6.8484375,16.1828125 Z M5.746875,9.66953125 C5.746875,9.66953125 6.8484375,8.56796875 6.8484375,8.56796875 C6.8484375,8.56796875 7.99765625,9.66953125 7.99765625,9.66953125 C8.09375,9.765625 8.1890625,9.81328125 8.3328125,9.81328125 C8.3328125,9.81328125 8.3328125,9.81328125 8.3328125,9.81328125 C8.66796875,9.81328125 8.81171875,9.66953125 8.81171875,9.334375 C8.81171875,9.334375 8.81171875,9.334375 8.81171875,9.334375 C8.81171875,9.190625 8.7640625,9.0953125 8.66796875,8.99921875 C8.66796875,8.99921875 8.66796875,8.99921875 8.66796875,8.99921875 C8.66796875,8.99921875 7.56640625,7.85 7.56640625,7.85 C7.56640625,7.85 8.66796875,6.7484375 8.66796875,6.7484375 C8.7640625,6.65234375 8.81171875,6.55703125 8.81171875,6.41328125 C8.81171875,6.41328125 8.81171875,6.41328125 8.81171875,6.41328125 C8.81171875,6.078125 8.66796875,5.88671875 8.3328125,5.88671875 C8.3328125,5.88671875 8.3328125,5.88671875 8.3328125,5.88671875 C8.28515625,5.88671875 8.1890625,5.934375 7.99765625,6.03046875 C7.99765625,6.03046875 7.99765625,6.03046875 7.99765625,6.03046875 C7.99765625,6.03046875 6.8484375,7.1796875 6.8484375,7.1796875 C6.8484375,7.1796875 5.746875,6.03046875 5.746875,6.03046875 C5.55546875,5.934375 5.459375,5.88671875 5.41171875,5.88671875 C5.41171875,5.88671875 5.41171875,5.88671875 5.41171875,5.88671875 C5.0765625,5.88671875 4.9328125,6.078125 4.9328125,6.41328125 C4.9328125,6.41328125 4.9328125,6.41328125 4.9328125,6.41328125 C4.9328125,6.509375 4.98046875,6.6046875 5.02890625,6.7484375 C5.02890625,6.7484375 5.02890625,6.7484375 5.02890625,6.7484375 C5.02890625,6.7484375 6.178125,7.85 6.178125,7.85 C6.178125,7.85 5.02890625,8.99921875 5.02890625,8.99921875 C4.9328125,9.0953125 4.88515625,9.190625 4.88515625,9.334375 C4.88515625,9.334375 4.88515625,9.334375 4.88515625,9.334375 C4.88515625,9.66953125 5.0765625,9.81328125 5.41171875,9.81328125 C5.41171875,9.81328125 5.41171875,9.81328125 5.41171875,9.81328125 C5.55546875,9.81328125 5.65078125,9.765625 5.746875,9.66953125 C5.746875,9.66953125 5.746875,9.66953125 5.746875,9.66953125 Z M16.5226563,7.0359375 C16.5226563,7.0359375 16.5226563,7.0359375 16.5226563,7.0359375 C16.5226563,7.0359375 14.559375,5.07265625 14.559375,5.07265625 C14.4632813,4.9765625 14.3679688,4.92890625 14.2242188,4.92890625 C14.0804688,4.92890625 13.9851563,4.9765625 13.8890625,5.07265625 C13.8890625,5.07265625 13.8890625,5.07265625 13.8890625,5.07265625 C13.8890625,5.07265625 11.9257813,7.0359375 11.9257813,7.0359375 C11.8296875,7.13203125 11.7820313,7.22734375 11.7820313,7.37109375 C11.7820313,7.37109375 11.7820313,7.37109375 11.7820313,7.37109375 C11.7820313,7.70625 11.9257813,7.85 12.2609375,7.85 C12.2609375,7.85 12.2609375,7.85 12.2609375,7.85 C12.4046875,7.85 12.5,7.80234375 12.5960938,7.70625 C12.5960938,7.70625 12.5960938,7.70625 12.5960938,7.70625 C12.5960938,7.70625 13.7453125,6.6046875 13.7453125,6.6046875 C13.7453125,6.6046875 13.7453125,11.2984375 13.7453125,11.2984375 C13.7453125,12.4960938 13.3140625,13.5492188 12.4523438,14.4117188 C11.590625,15.2742188 10.5367188,15.7046875 9.3390625,15.7046875 C9.3390625,15.7046875 9.3390625,15.7046875 9.3390625,15.7046875 C9.3390625,15.7046875 8.33359375,15.7046875 8.33359375,15.7046875 C7.9984375,15.7046875 7.8546875,15.8484375 7.8546875,16.1835938 C7.8546875,16.1835938 7.8546875,16.1835938 7.8546875,16.1835938 C7.8546875,16.51875 7.9984375,16.7101563 8.33359375,16.7101563 C8.33359375,16.7101563 8.33359375,16.7101563 8.33359375,16.7101563 C8.33359375,16.7101563 9.3390625,16.7101563 9.3390625,16.7101563 C10.8234375,16.7101563 12.06875,16.1835938 13.1226563,15.1296875 C14.1765625,14.0757813 14.703125,12.7828125 14.703125,11.2984375 C14.703125,11.2984375 14.703125,11.2984375 14.703125,11.2984375 C14.703125,11.2984375 14.703125,6.6046875 14.703125,6.6046875 C14.703125,6.6046875 15.8523438,7.70625 15.8523438,7.70625 C15.9484375,7.80234375 16.04375,7.85 16.1875,7.85 C16.1875,7.85 16.1875,7.85 16.1875,7.85 C16.5226563,7.85 16.6664063,7.70625 16.6664063,7.37109375 C16.6664063,7.37109375 16.6664063,7.37109375 16.6664063,7.37109375 C16.6664063,7.22734375 16.61875,7.13203125 16.5226563,7.0359375 Z"/>
  <title>Playbook Solid</title>
</svg>