<svg xmlns="http://www.w3.org/2000/svg" viewBox="0 0 25 25" id="playbook">
  <path d="M22.0789063,1.00078125 C22.0789063,1.00078125 22.0789063,1.00078125 22.0789063,1.00078125 C22.0789063,1.00078125 1.48515625,1.00078125 1.48515625,1.00078125 C1.05390625,1.00078125 0.71875,1.14453125 0.43125,1.43203125 C0.14375,1.71953125 0,2.0546875 0,2.4859375 C0,2.4859375 0,2.4859375 0,2.4859375 C0,2.4859375 0,20.1101563 0,20.1101563 C0,20.5414063 0.14375,20.8765625 0.43125,21.1640625 C0.71875,21.4515625 1.05390625,21.5953125 1.48515625,21.5953125 C1.48515625,21.5953125 1.48515625,21.5953125 1.48515625,21.5953125 C1.48515625,21.5953125 19.6367188,21.5953125 19.6367188,21.5953125 C19.6367188,21.5953125 19.6367188,23.0796875 19.6367188,23.0796875 C19.6367188,23.4148437 19.7804688,23.5585938 20.115625,23.5585938 C20.115625,23.5585938 20.115625,23.5585938 20.115625,23.5585938 C20.115625,23.5585938 22.5578125,23.5585938 22.5578125,23.5585938 C23.084375,23.5585938 23.5632813,23.3671875 23.946875,22.9835937 C24.3304688,22.6 24.521875,22.121875 24.521875,21.5945312 C24.521875,21.5945312 24.521875,21.5945312 24.521875,21.5945312 C24.521875,21.5945312 24.521875,3.44296875 24.521875,3.44296875 C24.521875,2.77265625 24.2828125,2.19765625 23.803125,1.71875 C23.3234375,1.23984375 22.7492187,1 22.0789062,1 L22.0789063,1.00078125 Z M23.5632813,5.40703125 C23.5632813,5.40703125 23.5632813,21.5945312 23.5632813,21.5945312 C23.5632813,21.8335937 23.4671875,22.0734375 23.2757813,22.2648438 C23.0367188,22.45625 22.796875,22.5523437 22.5570313,22.5523437 C22.5570313,22.5523437 22.5570313,22.5523437 22.5570313,22.5523437 C22.5570313,22.5523437 20.59375,22.5523437 20.59375,22.5523437 C20.59375,22.5523437 20.59375,5.8859375 20.59375,5.8859375 C20.59375,5.8859375 22.078125,5.8859375 22.078125,5.8859375 C22.6046875,5.8859375 23.0835937,5.7421875 23.5625,5.40703125 C23.5625,5.40703125 23.5625,5.40703125 23.5625,5.40703125 L23.5632813,5.40703125 Z M22.0789063,4.928125 C22.0789063,4.928125 22.0789063,4.928125 22.0789063,4.928125 C22.0789063,4.928125 20.115625,4.928125 20.115625,4.928125 C19.7804688,4.928125 19.6367188,5.071875 19.6367188,5.40703125 C19.6367188,5.40703125 19.6367188,5.40703125 19.6367188,5.40703125 C19.6367188,5.40703125 19.6367188,20.6367187 19.6367188,20.6367187 C19.6367188,20.6367187 1.48515625,20.6367187 1.48515625,20.6367187 C1.15,20.6367187 0.95859375,20.4453125 0.95859375,20.1101562 C0.95859375,20.1101562 0.95859375,20.1101562 0.95859375,20.1101562 C0.95859375,20.1101562 0.95859375,2.4859375 0.95859375,2.4859375 C0.95859375,2.15078125 1.15,1.959375 1.48515625,1.959375 C1.48515625,1.959375 1.48515625,1.959375 1.48515625,1.959375 C1.48515625,1.959375 22.0789062,1.959375 22.0789062,1.959375 C22.5101562,1.959375 22.8453125,2.103125 23.1328125,2.390625 C23.4203125,2.678125 23.5640625,3.01328125 23.5640625,3.44453125 C23.5640625,3.87578125 23.4203125,4.2109375 23.1328125,4.4984375 C22.8453125,4.7859375 22.5101562,4.9296875 22.0789062,4.9296875 L22.0789063,4.928125 Z M15.5648437,5.071875 C15.5648437,5.071875 17.528125,7.03515625 17.528125,7.03515625 C17.6242187,7.2265625 17.671875,7.32265625 17.671875,7.3703125 C17.671875,7.3703125 17.671875,7.3703125 17.671875,7.3703125 C17.671875,7.70546875 17.4804687,7.84921875 17.1453125,7.84921875 C17.1453125,7.84921875 17.1453125,7.84921875 17.1453125,7.84921875 C17.0015625,7.84921875 16.90625,7.8015625 16.8101562,7.70546875 C16.8101562,7.70546875 16.8101562,7.70546875 16.8101562,7.70546875 C16.8101562,7.70546875 15.7085937,6.60390625 15.7085937,6.60390625 C15.7085937,6.60390625 15.7085937,11.2976563 15.7085937,11.2976563 C15.7085937,12.7820312 15.1820312,14.0757813 14.128125,15.1289063 C13.0742187,16.1820313 11.78125,16.709375 10.296875,16.709375 C10.296875,16.709375 10.296875,16.709375 10.296875,16.709375 C10.296875,16.709375 9.3390625,16.709375 9.3390625,16.709375 C9.00390625,16.709375 8.8125,16.5179688 8.8125,16.1828125 C8.8125,16.1828125 8.8125,16.1828125 8.8125,16.1828125 C8.8125,15.8476563 9.00390625,15.7039063 9.3390625,15.7039063 C9.3390625,15.7039063 9.3390625,15.7039063 9.3390625,15.7039063 C9.3390625,15.7039063 10.296875,15.7039063 10.296875,15.7039063 C11.4945312,15.7039063 12.5476562,15.2726563 13.4101562,14.4109375 C14.2726562,13.5492187 14.703125,12.4953125 14.703125,11.2976563 C14.703125,11.2976563 14.703125,11.2976563 14.703125,11.2976563 C14.703125,11.2976563 14.703125,6.60390625 14.703125,6.60390625 C14.703125,6.60390625 13.6015625,7.70546875 13.6015625,7.70546875 C13.5054687,7.8015625 13.3625,7.84921875 13.21875,7.84921875 C13.21875,7.84921875 13.21875,7.84921875 13.21875,7.84921875 C12.8835938,7.84921875 12.7398438,7.70546875 12.7398438,7.3703125 C12.7398438,7.3703125 12.7398438,7.3703125 12.7398438,7.3703125 C12.7398438,7.2265625 12.7875,7.13125 12.8835938,7.03515625 C12.8835938,7.03515625 12.8835938,7.03515625 12.8835938,7.03515625 C12.8835938,7.03515625 14.846875,5.071875 14.846875,5.071875 C14.9429688,4.97578125 15.0382813,4.928125 15.1820312,4.928125 C15.1820312,4.928125 15.1820312,4.928125 15.1820312,4.928125 C15.3257812,4.928125 15.4695312,4.97578125 15.5648437,5.071875 C15.5648437,5.071875 15.5648437,5.071875 15.5648437,5.071875 Z M5.41171875,13.740625 C5.41171875,13.740625 5.41171875,13.740625 5.41171875,13.740625 C4.69296875,13.740625 4.11875,13.9796875 3.63984375,14.459375 C3.1609375,14.9390625 2.92109375,15.5132813 2.92109375,16.1835938 C2.92109375,16.1835938 2.92109375,16.1835938 2.92109375,16.1835938 C2.92109375,16.9023438 3.16015625,17.4765625 3.63984375,17.9554688 C4.11953125,18.434375 4.69375,18.6742188 5.41171875,18.6742188 C5.41171875,18.6742188 5.41171875,18.6742188 5.41171875,18.6742188 C6.08203125,18.6742188 6.65703125,18.4351563 7.1359375,17.9554688 C7.61484375,17.4757813 7.8546875,16.9015625 7.8546875,16.1835938 C7.8546875,16.1835938 7.8546875,16.1835938 7.8546875,16.1835938 C7.8546875,15.5132813 7.615625,14.9382812 7.1359375,14.459375 C6.65625,13.9804688 6.08203125,13.740625 5.41171875,13.740625 L5.41171875,13.740625 Z M6.465625,17.2367187 C6.178125,17.5242187 5.84296875,17.6679687 5.41171875,17.6679687 C4.98046875,17.6679687 4.6453125,17.5242187 4.3578125,17.2367187 C4.0703125,16.9492188 3.9265625,16.6140625 3.9265625,16.1828125 C3.9265625,15.7515625 4.0703125,15.4164062 4.3578125,15.1289062 C4.6453125,14.8898437 4.98046875,14.7460938 5.41171875,14.7460938 C5.84296875,14.7460938 6.178125,14.8898438 6.465625,15.1289062 C6.7046875,15.4164062 6.8484375,15.7515625 6.8484375,16.1828125 C6.8484375,16.6140625 6.7046875,16.9492188 6.465625,17.2367187 Z M8.95625,9.66953125 C8.95625,9.66953125 8.95625,9.66953125 8.95625,9.66953125 C8.95625,9.66953125 7.8546875,8.56796875 7.8546875,8.56796875 C7.8546875,8.56796875 6.70546875,9.66953125 6.70546875,9.66953125 C6.6578125,9.765625 6.5140625,9.81328125 6.3703125,9.81328125 C6.3703125,9.81328125 6.3703125,9.81328125 6.3703125,9.81328125 C6.03515625,9.81328125 5.89140625,9.66953125 5.89140625,9.334375 C5.89140625,9.334375 5.89140625,9.334375 5.89140625,9.334375 C5.89140625,9.190625 5.9390625,9.0953125 6.03515625,8.99921875 C6.03515625,8.99921875 6.03515625,8.99921875 6.03515625,8.99921875 C6.03515625,8.99921875 7.13671875,7.85 7.13671875,7.85 C7.13671875,7.85 6.03515625,6.7484375 6.03515625,6.7484375 C5.9390625,6.65234375 5.89140625,6.55703125 5.89140625,6.41328125 C5.89140625,6.41328125 5.89140625,6.41328125 5.89140625,6.41328125 C5.89140625,6.078125 6.03515625,5.88671875 6.3703125,5.88671875 C6.3703125,5.88671875 6.3703125,5.88671875 6.3703125,5.88671875 C6.5140625,5.88671875 6.609375,5.934375 6.70546875,6.03046875 C6.70546875,6.03046875 6.70546875,6.03046875 6.70546875,6.03046875 C6.70546875,6.03046875 7.8546875,7.1796875 7.8546875,7.1796875 C7.8546875,7.1796875 8.95625,6.03046875 8.95625,6.03046875 C9.14765625,5.934375 9.24375,5.88671875 9.29140625,5.88671875 C9.29140625,5.88671875 9.29140625,5.88671875 9.29140625,5.88671875 C9.6265625,5.88671875 9.81796875,6.078125 9.81796875,6.41328125 C9.81796875,6.41328125 9.81796875,6.41328125 9.81796875,6.41328125 C9.81796875,6.55703125 9.7703125,6.65234375 9.67421875,6.7484375 C9.67421875,6.7484375 9.67421875,6.7484375 9.67421875,6.7484375 C9.67421875,6.7484375 8.525,7.85 8.525,7.85 C8.525,7.85 9.67421875,8.99921875 9.67421875,8.99921875 C9.7703125,9.0953125 9.81796875,9.190625 9.81796875,9.334375 C9.81796875,9.334375 9.81796875,9.334375 9.81796875,9.334375 C9.81796875,9.66953125 9.67421875,9.81328125 9.3390625,9.81328125 C9.3390625,9.81328125 9.3390625,9.81328125 9.3390625,9.81328125 C9.1953125,9.81328125 9.0515625,9.765625 8.95625,9.66953125 Z"/>
  <title>Playbook</title>
</svg>