<svg xmlns="http://www.w3.org/2000/svg" viewBox="0 0 25 25" id="play-solid">
  <path d="M20.2351563,13.153125 C20.2351563,13.153125 20.2351563,13.153125 20.2351563,13.153125 C20.2351563,13.153125 5.484375,21.4867187 5.484375,21.4867187 C5.340625,21.5828125 5.14921875,21.6304687 4.9578125,21.6304687 C4.9578125,21.6304687 4.9578125,21.6304687 4.9578125,21.6304687 C4.71875,21.6304687 4.47890625,21.534375 4.2875,21.3429688 C4.09609375,21.1515625 4,20.9117187 4,20.6726562 C4,20.6726562 4,20.6726562 4,20.6726562 C4,20.6726562 4,4.00625 4,4.00625 C4,3.71875 4.09609375,3.4796875 4.2875,3.2875 C4.47890625,3.0953125 4.71875,3 4.9578125,3 C4.9578125,3 4.9578125,3 4.9578125,3 C5.05390625,3 5.2453125,3.04765625 5.484375,3.19140625 C5.484375,3.19140625 5.484375,3.19140625 5.484375,3.19140625 C5.484375,3.19140625 20.2351563,11.525 20.2351563,11.525 C20.5226563,11.7640625 20.6664063,12.0515625 20.6664063,12.3390625 C20.6664063,12.3390625 20.6664063,12.3390625 20.6664063,12.3390625 C20.6664063,12.721875 20.5226563,13.009375 20.2351563,13.153125 Z"/>
  <title>Play Solid</title>
</svg>