<svg xmlns="http://www.w3.org/2000/svg" viewBox="0 0 25 25" id="plug">
  <path d="M22.15625,22.6421875 C22.15625,22.6421875 22.15625,22.6421875 22.15625,22.6421875 C22.15625,22.6421875 12.3382812,22.6421875 12.3382812,22.6421875 C11.9070313,22.6421875 11.571875,22.4984375 11.284375,22.2109375 C10.996875,21.9234375 10.853125,21.5882813 10.853125,21.1570312 C10.853125,21.1570312 10.853125,21.1570312 10.853125,21.1570312 C10.853125,21.1570312 10.853125,18.7148438 10.853125,18.7148438 C10.853125,18.7148438 13.2953125,18.7148438 13.2953125,18.7148438 C13.7265625,18.7148438 14.0617188,18.5710937 14.3492188,18.2835938 C14.6367188,17.9960938 14.7804688,17.6609375 14.7804688,17.2296875 C14.7804688,17.2296875 14.7804688,17.2296875 14.7804688,17.2296875 C14.7804688,17.2296875 14.7804688,14.7875 14.7804688,14.7875 C14.7804688,14.7875 16.2648438,14.7875 16.2648438,14.7875 C16.6960938,14.7875 17.03125,14.64375 17.31875,14.35625 C17.60625,14.06875 17.75,13.7335938 17.75,13.3023438 C17.75,13.3023438 17.75,13.3023438 17.75,13.3023438 C17.75,13.3023438 17.75,5.9265625 17.75,5.9265625 C17.75,5.6875 17.6539062,5.44765625 17.4625,5.25625 C17.2234375,5.06484375 16.9835938,4.96875 16.74375,4.96875 C16.74375,4.96875 16.74375,4.96875 16.74375,4.96875 C16.74375,4.96875 13.8226562,4.96875 13.8226562,4.96875 C13.8226562,4.96875 13.8226562,2.5265625 13.8226562,2.5265625 C13.8226562,2.19140625 13.63125,2 13.2960937,2 C13.2960937,2 13.2960937,2 13.2960937,2 C12.9609375,2 12.8171875,2.19140625 12.8171875,2.5265625 C12.8171875,2.5265625 12.8171875,2.5265625 12.8171875,2.5265625 C12.8171875,2.5265625 12.8171875,4.96875 12.8171875,4.96875 C12.8171875,4.96875 7.93203125,4.96875 7.93203125,4.96875 C7.93203125,4.96875 7.93203125,2.5265625 7.93203125,2.5265625 C7.93203125,2.19140625 7.78828125,2 7.453125,2 C7.453125,2 7.453125,2 7.453125,2 C7.11796875,2 6.9265625,2.19140625 6.9265625,2.5265625 C6.9265625,2.5265625 6.9265625,2.5265625 6.9265625,2.5265625 C6.9265625,2.5265625 6.9265625,4.96875 6.9265625,4.96875 C6.9265625,4.96875 4.00546875,4.96875 4.00546875,4.96875 C3.76640625,4.96875 3.5265625,5.06484375 3.33515625,5.25625 C3.09609375,5.44765625 3,5.6875 3,5.9265625 C3,5.9265625 3,5.9265625 3,5.9265625 C3,5.9265625 3,13.3023438 3,13.3023438 C3,13.7335938 3.14375,14.06875 3.43125,14.35625 C3.71875,14.64375 4.05390625,14.7875 4.48515625,14.7875 C4.48515625,14.7875 4.48515625,14.7875 4.48515625,14.7875 C4.48515625,14.7875 5.96953125,14.7875 5.96953125,14.7875 C5.96953125,14.7875 5.96953125,17.2296875 5.96953125,17.2296875 C5.96953125,17.6609375 6.11328125,17.9960938 6.40078125,18.2835938 C6.68828125,18.5710937 7.0234375,18.7148438 7.4546875,18.7148438 C7.4546875,18.7148438 7.4546875,18.7148438 7.4546875,18.7148438 C7.4546875,18.7148438 9.896875,18.7148438 9.896875,18.7148438 C9.896875,18.7148438 9.896875,21.1570312 9.896875,21.1570312 C9.896875,21.8273438 10.1359375,22.4023438 10.615625,22.88125 C11.0953125,23.3601562 11.6695312,23.6 12.3398438,23.6 C12.3398438,23.6 12.3398438,23.6 12.3398438,23.6 C12.3398438,23.6 22.1578125,23.6 22.1578125,23.6 C22.4929687,23.6 22.6367188,23.45625 22.6367188,23.1210938 C22.6367188,22.7859375 22.4929687,22.6421875 22.1578125,22.6421875 L22.15625,22.6421875 Z M13.2960938,17.7085938 C13.2960938,17.7085938 7.453125,17.7085938 7.453125,17.7085938 C7.11796875,17.7085938 6.9265625,17.5648438 6.9265625,17.2296875 C6.9265625,17.2296875 6.9265625,17.2296875 6.9265625,17.2296875 C6.9265625,17.2296875 6.9265625,14.7875 6.9265625,14.7875 C6.9265625,14.7875 8.4109375,14.7875 8.4109375,14.7875 C8.74609375,14.7875 8.88984375,14.5960938 8.88984375,14.2609375 C8.88984375,14.2609375 8.88984375,14.2609375 8.88984375,14.2609375 C8.88984375,13.9257813 8.74609375,13.7820313 8.4109375,13.7820313 C8.4109375,13.7820313 8.4109375,13.7820313 8.4109375,13.7820313 C8.4109375,13.7820313 4.48359375,13.7820313 4.48359375,13.7820313 C4.1484375,13.7820313 4.0046875,13.6382813 4.0046875,13.303125 C4.0046875,13.303125 4.0046875,13.303125 4.0046875,13.303125 C4.0046875,13.303125 4.0046875,8.896875 4.0046875,8.896875 C4.0046875,8.896875 14.3015625,8.896875 14.3015625,8.896875 C14.6367187,8.896875 14.7804687,8.753125 14.7804687,8.41796875 C14.7804687,8.41796875 14.7804687,8.41796875 14.7804687,8.41796875 C14.7804687,8.0828125 14.6367187,7.89140625 14.3015625,7.89140625 C14.3015625,7.89140625 14.3015625,7.89140625 14.3015625,7.89140625 C14.3015625,7.89140625 4.0046875,7.89140625 4.0046875,7.89140625 C4.0046875,7.89140625 4.0046875,5.928125 4.0046875,5.928125 C4.0046875,5.928125 16.74375,5.928125 16.74375,5.928125 C16.74375,5.928125 16.74375,13.3039063 16.74375,13.3039063 C16.74375,13.6390625 16.6,13.7828125 16.2648438,13.7828125 C16.2648438,13.7828125 16.2648438,13.7828125 16.2648438,13.7828125 C16.2648438,13.7828125 12.3375,13.7828125 12.3375,13.7828125 C12.0023438,13.7828125 11.8585938,13.9265625 11.8585938,14.2617188 C11.8585938,14.2617188 11.8585938,14.2617188 11.8585938,14.2617188 C11.8585938,14.596875 12.0023438,14.7882813 12.3375,14.7882813 C12.3375,14.7882813 12.3375,14.7882813 12.3375,14.7882813 C12.3375,14.7882813 13.821875,14.7882813 13.821875,14.7882813 C13.821875,14.7882813 13.821875,17.2304688 13.821875,17.2304688 C13.821875,17.565625 13.6304687,17.709375 13.2953125,17.709375 C13.2953125,17.709375 13.2953125,17.709375 13.2953125,17.709375 L13.2960938,17.7085938 Z"/>
  <title>Plug</title>
</svg>