<svg xmlns="http://www.w3.org/2000/svg" viewBox="0 0 25 25" id="plug-solid">
  <path d="M22.6359375,23.0726563 C22.6359375,23.0726563 22.6359375,23.0726563 22.6359375,23.0726563 C22.6359375,23.4078125 22.4445313,23.5992187 22.109375,23.5992187 C22.109375,23.5992187 22.109375,23.5992187 22.109375,23.5992187 C22.109375,23.5992187 12.2914063,23.5992187 12.2914063,23.5992187 C11.6210938,23.5515625 11.0460938,23.3117188 10.5671875,22.8328125 C10.0882813,22.4015625 9.8484375,21.8273438 9.8484375,21.1085937 C9.8484375,21.1085937 9.8484375,21.1085937 9.8484375,21.1085937 C9.8484375,21.1085937 9.8484375,18.6664062 9.8484375,18.6664062 C9.8484375,18.6664062 7.40625,18.6664062 7.40625,18.6664062 C6.975,18.6664062 6.63984375,18.5226562 6.35234375,18.2351562 C6.06484375,17.9476563 5.92109375,17.6125 5.92109375,17.18125 C5.92109375,17.18125 5.92109375,17.18125 5.92109375,17.18125 C5.92109375,17.18125 5.92109375,15.7445313 5.92109375,15.7445313 C5.92109375,15.7445313 14.78125,15.7445313 14.78125,15.7445313 C14.78125,15.7445313 14.78125,17.18125 14.78125,17.18125 C14.78125,17.6125 14.6375,17.9476563 14.35,18.2351562 C14.0625,18.5226562 13.7273437,18.6664062 13.2960937,18.6664062 C13.2960937,18.6664062 13.2960937,18.6664062 13.2960937,18.6664062 C13.2960937,18.6664062 10.8539062,18.6664062 10.8539062,18.6664062 C10.8539062,18.6664062 10.8539062,21.1085937 10.8539062,21.1085937 C10.8539062,21.5398437 10.9976562,21.875 11.2851562,22.1625 C11.5726562,22.45 11.9078125,22.59375 12.290625,22.59375 C12.290625,22.59375 12.290625,22.59375 12.290625,22.59375 C12.290625,22.59375 22.1085937,22.59375 22.1085937,22.59375 C22.44375,22.59375 22.6351562,22.7375 22.6351562,23.0726562 L22.6359375,23.0726563 Z M17.703125,7.890625 C17.703125,7.890625 17.703125,5.92734375 17.703125,5.92734375 C17.703125,5.68828125 17.6070313,5.4484375 17.415625,5.20859375 C17.2242188,5.0171875 16.984375,4.92109375 16.7453125,4.92109375 C16.7453125,4.92109375 16.7453125,4.92109375 16.7453125,4.92109375 C16.7453125,4.92109375 13.7757812,4.92109375 13.7757812,4.92109375 C13.7757812,4.92109375 13.7757812,2.47890625 13.7757812,2.47890625 C13.7757812,2.14375 13.6320313,2 13.296875,2 C12.9617188,2 12.8179687,2.14375 12.8179687,2.47890625 C12.8179687,2.47890625 12.8179687,2.47890625 12.8179687,2.47890625 C12.8179687,2.47890625 12.8179687,4.92109375 12.8179687,4.92109375 C12.8179687,4.92109375 7.88515625,4.92109375 7.88515625,4.92109375 C7.88515625,4.92109375 7.88515625,2.47890625 7.88515625,2.47890625 C7.88515625,2.14375 7.74140625,2 7.40625,2 C7.07109375,2 6.92734375,2.14375 6.92734375,2.47890625 C6.92734375,2.47890625 6.92734375,2.47890625 6.92734375,2.47890625 C6.92734375,2.47890625 6.92734375,4.92109375 6.92734375,4.92109375 C6.92734375,4.92109375 3.9578125,4.92109375 3.9578125,4.92109375 C3.71875,4.92109375 3.47890625,5.0171875 3.2875,5.20859375 C3.09609375,5.44765625 3,5.6875 3,5.92734375 C3,5.92734375 3,5.92734375 3,5.92734375 C3,5.92734375 3,7.890625 3,7.890625 C3,7.890625 17.703125,7.890625 17.703125,7.890625 Z M17.703125,13.2546875 C17.703125,13.2546875 17.703125,13.2546875 17.703125,13.2546875 C17.703125,13.2546875 17.703125,8.8484375 17.703125,8.8484375 C17.703125,8.8484375 3,8.8484375 3,8.8484375 C3,8.8484375 3,13.2546875 3,13.2546875 C3,13.6859375 3.14375,14.0210938 3.43125,14.3085938 C3.71875,14.5960938 4.05390625,14.7398438 4.48515625,14.7398438 C4.48515625,14.7398438 4.48515625,14.7398438 4.48515625,14.7398438 C4.48515625,14.7398438 16.21875,14.7398438 16.21875,14.7398438 C16.65,14.7398438 16.9851562,14.5960938 17.2726562,14.3085938 C17.5601562,14.0210938 17.7039062,13.6859375 17.7039062,13.2546875 L17.703125,13.2546875 Z"/>
  <title>Plug Solid</title>
</svg>