<svg xmlns="http://www.w3.org/2000/svg" viewBox="0 0 25 25" id="plus-line-below">
  <path d="M25 24C25 24 25 25 25 25 25 25 0 25 0 25 0 25 0 24 0 24 0 24 25 24 25 24zM12.8484375 6C12.8484375 6 11.890625 6 11.890625 6 11.890625 6 11.890625 11.890625 11.890625 11.890625 11.890625 11.890625 6 11.890625 6 11.890625 6 11.890625 6 12.8484375 6 12.8484375 6 12.8484375 11.890625 12.8484375 11.890625 12.8484375 11.890625 12.8484375 11.890625 18.7390625 11.890625 18.7390625 11.890625 18.7390625 12.8484375 18.7390625 12.8484375 18.7390625 12.8484375 18.7390625 12.8484375 12.8484375 12.8484375 12.8484375 12.8484375 12.8484375 18.7390625 12.8484375 18.7390625 12.8484375 18.7390625 12.8484375 18.7390625 11.890625 18.7390625 11.890625 18.7390625 11.890625 12.8484375 11.890625 12.8484375 11.890625 12.8484375 11.890625 12.8484375 6 12.8484375 6z"/>
  <title>Plus Line Below</title>
</svg>