<svg xmlns="http://www.w3.org/2000/svg" viewBox="0 0 25 25" id="plus-line-above">
  <path d="M0 1C0 1 0 0 0 0 0 0 25 0 25 0 25 0 25 1 25 1 25 1 0 1 0 1zM11.890625 18.7390625C11.890625 18.7390625 12.8484375 18.7390625 12.8484375 18.7390625 12.8484375 18.7390625 12.8484375 12.8484375 12.8484375 12.8484375 12.8484375 12.8484375 18.7390625 12.8484375 18.7390625 12.8484375 18.7390625 12.8484375 18.7390625 11.890625 18.7390625 11.890625 18.7390625 11.890625 12.8484375 11.890625 12.8484375 11.890625 12.8484375 11.890625 12.8484375 6 12.8484375 6 12.8484375 6 11.890625 6 11.890625 6 11.890625 6 11.890625 11.890625 11.890625 11.890625 11.890625 11.890625 6 11.890625 6 11.890625 6 11.890625 6 12.8484375 6 12.8484375 6 12.8484375 11.890625 12.8484375 11.890625 12.8484375 11.890625 12.8484375 11.890625 18.7390625 11.890625 18.7390625z"/>
  <title>Plus Line Above</title>
</svg>