<svg xmlns="http://www.w3.org/2000/svg" viewBox="0 0 25 25" id="plus-line-left">
  <path d="M7.8546875,14.78125 C7.8546875,14.78125 7.8546875,15.7390625 7.8546875,15.7390625 C7.8546875,15.7390625 0,15.7390625 0,15.7390625 C0,15.7390625 0,3 0,3 C0,3 0.9578125,3 0.9578125,3 C0.9578125,3 0.9578125,14.78125 0.9578125,14.78125 C0.9578125,14.78125 7.8546875,14.78125 7.8546875,14.78125 L7.8546875,14.78125 Z M18.6304687,15.7390625 C18.6304687,15.7390625 18.6304687,21.6296875 18.6304687,21.6296875 C18.6304687,21.6296875 17.6726562,21.6296875 17.6726562,21.6296875 C17.6726562,21.6296875 17.6726562,15.7390625 17.6726562,15.7390625 C17.6726562,15.7390625 11.7820312,15.7390625 11.7820312,15.7390625 C11.7820312,15.7390625 11.7820312,14.78125 11.7820312,14.78125 C11.7820312,14.78125 17.6726562,14.78125 17.6726562,14.78125 C17.6726562,14.78125 17.6726562,8.890625 17.6726562,8.890625 C17.6726562,8.890625 18.6304687,8.890625 18.6304687,8.890625 C18.6304687,8.890625 18.6304687,14.78125 18.6304687,14.78125 C18.6304687,14.78125 24.5210937,14.78125 24.5210937,14.78125 C24.5210937,14.78125 24.5210937,15.7390625 24.5210937,15.7390625 C24.5210937,15.7390625 18.6304687,15.7390625 18.6304687,15.7390625 Z"/>
  <title>Plus Line Left</title>
</svg>