<svg xmlns="http://www.w3.org/2000/svg" viewBox="0 0 25 25" id="plus-between-right-column">
  <path d="M0,5.88515625 C0,5.88515625 0.9578125,5.88515625 0.9578125,5.88515625 C0.9578125,5.88515625 0.9578125,22.6 0.9578125,22.6 C0.9578125,22.6 8.8125,22.6 8.8125,22.6 C8.8125,22.6 8.8125,13.5484375 8.8125,13.5484375 C8.8125,13.5484375 9.81796875,13.5484375 9.81796875,13.5484375 C9.81796875,13.5484375 9.81796875,22.6 9.81796875,22.6 C9.81796875,22.6 23.5632812,22.6 23.5632812,22.6 C23.5632812,22.6 23.5632812,5.88515625 23.5632812,5.88515625 C23.5632812,5.88515625 24.5210937,5.88515625 24.5210937,5.88515625 C24.5210937,5.88515625 24.5210937,23.5578125 24.5210937,23.5578125 C24.5210937,23.5578125 0,23.5578125 0,23.5578125 C0,23.5578125 0,5.88515625 0,5.88515625 Z M15.7085938,5.88515625 C15.7085938,5.88515625 15.7085938,9.8125 15.7085938,9.8125 C15.7085938,9.8125 14.703125,9.8125 14.703125,9.8125 C14.703125,9.8125 14.703125,5.88515625 14.703125,5.88515625 C14.703125,5.88515625 10.7757812,5.88515625 10.7757812,5.88515625 C10.7757812,5.88515625 10.7757812,4.92734375 10.7757812,4.92734375 C10.7757812,4.92734375 14.703125,4.92734375 14.703125,4.92734375 C14.703125,4.92734375 14.703125,1 14.703125,1 C14.703125,1 15.7085938,1 15.7085938,1 C15.7085938,1 15.7085938,4.92734375 15.7085938,4.92734375 C15.7085938,4.92734375 19.6359375,4.92734375 19.6359375,4.92734375 C19.6359375,4.92734375 19.6359375,5.88515625 19.6359375,5.88515625 C19.6359375,5.88515625 15.7085938,5.88515625 15.7085938,5.88515625 Z"/>
  <title>Plus Between Right Column</title>
</svg>