<svg xmlns="http://www.w3.org/2000/svg" viewBox="0 0 25 25" id="plus-between-left-column">
  <path d="M8.8125,5.88515625 C8.8125,5.88515625 8.8125,9.8125 8.8125,9.8125 C8.8125,9.8125 9.81796875,9.8125 9.81796875,9.8125 C9.81796875,9.8125 9.81796875,5.88515625 9.81796875,5.88515625 C9.81796875,5.88515625 13.7453125,5.88515625 13.7453125,5.88515625 C13.7453125,5.88515625 13.7453125,4.92734375 13.7453125,4.92734375 C13.7453125,4.92734375 9.81796875,4.92734375 9.81796875,4.92734375 C9.81796875,4.92734375 9.81796875,1 9.81796875,1 C9.81796875,1 8.8125,1 8.8125,1 C8.8125,1 8.8125,4.92734375 8.8125,4.92734375 C8.8125,4.92734375 4.88515625,4.92734375 4.88515625,4.92734375 C4.88515625,4.92734375 4.88515625,5.88515625 4.88515625,5.88515625 C4.88515625,5.88515625 8.8125,5.88515625 8.8125,5.88515625 Z M24.5210937,5.88515625 C24.5210937,5.88515625 23.5632812,5.88515625 23.5632812,5.88515625 C23.5632812,5.88515625 23.5632812,22.6 23.5632812,22.6 C23.5632812,22.6 15.7085937,22.6 15.7085937,22.6 C15.7085937,22.6 15.7085937,13.5484375 15.7085937,13.5484375 C15.7085937,13.5484375 14.703125,13.5484375 14.703125,13.5484375 C14.703125,13.5484375 14.703125,22.6 14.703125,22.6 C14.703125,22.6 0.9578125,22.6 0.9578125,22.6 C0.9578125,22.6 0.9578125,5.88515625 0.9578125,5.88515625 C0.9578125,5.88515625 0,5.88515625 0,5.88515625 C0,5.88515625 0,23.5578125 0,23.5578125 C0,23.5578125 24.5210937,23.5578125 24.5210937,23.5578125 C24.5210937,23.5578125 24.5210937,5.88515625 24.5210937,5.88515625 Z"/>
  <title>Plus Between Left Column</title>
</svg>