<svg xmlns="http://www.w3.org/2000/svg" viewBox="0 0 25 25" id="plus-line-right">
  <path d="M17,15.7398438 C17,15.7398438 19.6023437,15.7398958 24.8070313,15.74 C24.8388021,7.24666667 24.8546875,3 24.8546875,3 C24.8546875,3 23.896875,3 23.896875,3 C23.896875,3 23.896875,14.78125 23.896875,14.78125 C23.896875,14.78125 17,14.78125 17,14.78125 C17,14.7820313 17,15.7398438 17,15.7398438 Z M5.890625,15.7398438 C5.890625,15.7398438 5.890625,21.6304687 5.890625,21.6304687 C5.890625,21.6304687 6.8484375,21.6304687 6.8484375,21.6304687 C6.8484375,21.6304687 6.8484375,15.7398438 6.8484375,15.7398438 C6.8484375,15.7398438 12.7390625,15.7398438 12.7390625,15.7398438 C12.7390625,15.7398438 12.7390625,14.7820313 12.7390625,14.7820313 C12.7390625,14.7820313 6.8484375,14.7820313 6.8484375,14.7820313 C6.8484375,14.7820313 6.8484375,8.89140625 6.8484375,8.89140625 C6.8484375,8.89140625 5.890625,8.89140625 5.890625,8.89140625 C5.890625,8.89140625 5.890625,14.7820313 5.890625,14.7820313 C5.890625,14.7820313 0,14.7820313 0,14.7820313 C0,14.7820313 0,15.7398438 0,15.7398438 C0,15.7398438 5.890625,15.7398438 5.890625,15.7398438 Z"/>
  <title>Plus Line Right</title>
</svg>