<svg xmlns="http://www.w3.org/2000/svg" viewBox="0 0 25 25" id="podium-solid">
  <path d="M24.5164063,15.8 C24.5164063,15.8 24.5164063,15.8 24.5164063,15.8 C24.5164063,15.8 22.3609375,7.9453125 22.3609375,7.9453125 C22.2171875,7.2265625 21.7382813,6.89140625 20.971875,6.89140625 C20.971875,6.89140625 20.971875,6.89140625 20.971875,6.89140625 C20.971875,6.89140625 8.37578125,6.89140625 8.37578125,6.89140625 C8.37578125,6.89140625 8.37578125,8.37578125 8.37578125,8.37578125 C8.37578125,8.7109375 8.23203125,8.8546875 7.896875,8.8546875 C7.56171875,8.8546875 7.41796875,8.7109375 7.41796875,8.37578125 C7.41796875,8.37578125 7.41796875,8.37578125 7.41796875,8.37578125 C7.41796875,8.37578125 7.41796875,3.44296875 7.41796875,3.44296875 C7.41796875,3.1078125 7.56171875,2.9640625 7.896875,2.9640625 C7.896875,2.9640625 7.896875,2.9640625 7.896875,2.9640625 C7.896875,2.9640625 10.4351563,2.9640625 10.4351563,2.9640625 C10.6742188,3.58671875 11.1054688,3.921875 11.8242188,3.921875 C11.8242188,3.921875 11.8242188,3.921875 11.8242188,3.921875 C12.2554688,3.921875 12.590625,3.778125 12.878125,3.490625 C13.165625,3.2515625 13.309375,2.915625 13.309375,2.48515625 C13.309375,2.0546875 13.165625,1.71875 12.878125,1.43125 C12.590625,1.14375 12.2554688,1 11.8242188,1 C11.8242188,1 11.8242188,1 11.8242188,1 C11.1054688,1 10.675,1.33515625 10.4351563,1.9578125 C10.4351563,1.9578125 10.4351563,1.9578125 10.4351563,1.9578125 C10.4351563,1.9578125 7.896875,1.9578125 7.896875,1.9578125 C7.465625,1.9578125 7.13046875,2.1015625 6.84296875,2.3890625 C6.55546875,2.6765625 6.41171875,3.01171875 6.41171875,3.44296875 C6.41171875,3.44296875 6.41171875,3.44296875 6.41171875,3.44296875 C6.41171875,3.44296875 6.41171875,6.89140625 6.41171875,6.89140625 C6.41171875,6.89140625 4.63984375,6.89140625 4.63984375,6.89140625 C3.92109375,6.89140625 3.4421875,7.2265625 3.203125,7.9453125 C3.203125,7.9453125 3.203125,7.9453125 3.203125,7.9453125 C3.203125,7.9453125 1.09609375,15.8 1.09609375,15.8 C1.0484375,15.9914063 1,16.1351563 1,16.1828125 C1,16.1828125 1,16.1828125 1,16.1828125 C1,16.6140625 1.14375,16.9492188 1.43125,17.2367188 C1.71875,17.5242187 2.05390625,17.6679688 2.48515625,17.6679688 C2.48515625,17.6679688 2.48515625,17.6679688 2.48515625,17.6679688 C2.48515625,17.6679688 12.303125,17.6679688 12.303125,17.6679688 C12.303125,17.6679688 12.303125,22.6007813 12.303125,22.6007813 C12.303125,22.6007813 10.81875,22.6007813 10.81875,22.6007813 C10.4835938,22.6007813 10.3398438,22.7445313 10.3398438,23.0796875 C10.3398438,23.4148437 10.4835938,23.5585938 10.81875,23.5585938 C10.81875,23.5585938 10.81875,23.5585938 10.81875,23.5585938 C10.81875,23.5585938 14.7460938,23.5585938 14.7460938,23.5585938 C15.08125,23.5585938 15.225,23.4148437 15.225,23.0796875 C15.225,22.7445313 15.08125,22.6007813 14.7460938,22.6007813 C14.7460938,22.6007813 14.7460938,22.6007813 14.7460938,22.6007813 C14.7460938,22.6007813 13.2617188,22.6007813 13.2617188,22.6007813 C13.2617188,22.6007813 13.2617188,17.6679688 13.2617188,17.6679688 C13.2617188,17.6679688 23.0796875,17.6679688 23.0796875,17.6679688 C23.5109375,17.6679688 23.8460938,17.5242187 24.1335937,17.2367188 C24.4210937,16.9492188 24.5648438,16.6140625 24.5648438,16.1828125 C24.5648438,16.1828125 24.5648438,16.1828125 24.5648438,16.1828125 C24.5648438,16.0390625 24.5648438,15.8953125 24.5171875,15.8 L24.5164063,15.8 Z M10.81875,9.81328125 C10.81875,9.81328125 10.81875,9.81328125 10.81875,9.81328125 C10.81875,9.81328125 14.7460937,9.81328125 14.7460937,9.81328125 C15.08125,9.81328125 15.225,10.0046875 15.225,10.3398438 C15.225,10.3398438 15.225,10.3398438 15.225,10.3398438 C15.225,10.675 15.08125,10.81875 14.7460937,10.81875 C14.7460937,10.81875 14.7460937,10.81875 14.7460937,10.81875 C14.7460937,10.81875 10.81875,10.81875 10.81875,10.81875 C10.4835937,10.81875 10.3398438,10.675 10.3398438,10.3398438 C10.3398438,10.3398438 10.3398438,10.3398438 10.3398438,10.3398438 C10.3398438,10.0046875 10.4835937,9.81328125 10.81875,9.81328125 L10.81875,9.81328125 Z M16.709375,13.740625 C16.709375,13.740625 16.709375,13.740625 16.709375,13.740625 C16.709375,13.740625 8.8546875,13.740625 8.8546875,13.740625 C8.51953125,13.740625 8.37578125,13.596875 8.37578125,13.2617188 C8.37578125,12.9265625 8.51953125,12.7828125 8.8546875,12.7828125 C8.8546875,12.7828125 8.8546875,12.7828125 8.8546875,12.7828125 C8.8546875,12.7828125 16.709375,12.7828125 16.709375,12.7828125 C17.0445312,12.7828125 17.1882812,12.9265625 17.1882812,13.2617188 C17.1882812,13.596875 17.0445312,13.740625 16.709375,13.740625 Z"/>
  <title>Podium Solid</title>
</svg>