<svg xmlns="http://www.w3.org/2000/svg" viewBox="0 0 25 25" id="podium">
  <path d="M24.5148438,15.8 C24.5148438,15.8 24.5148438,15.8 24.5148438,15.8 C24.5148438,15.8 22.4078125,7.9453125 22.4078125,7.9453125 C22.16875,7.2265625 21.6890625,6.89140625 20.9710938,6.89140625 C20.9710938,6.89140625 20.9710938,6.89140625 20.9710938,6.89140625 C20.9710938,6.89140625 7.36953125,6.89140625 7.36953125,6.89140625 C7.36953125,6.89140625 7.36953125,3.44296875 7.36953125,3.44296875 C7.36953125,3.1078125 7.5609375,2.9640625 7.89609375,2.9640625 C7.89609375,2.9640625 7.89609375,2.9640625 7.89609375,2.9640625 C7.89609375,2.9640625 10.434375,2.9640625 10.434375,2.9640625 C10.6734375,3.58671875 11.1046875,3.921875 11.8234375,3.921875 C11.8234375,3.921875 11.8234375,3.921875 11.8234375,3.921875 C12.2546875,3.921875 12.5898438,3.778125 12.8773438,3.490625 C13.1164063,3.2515625 13.2601563,2.915625 13.2601563,2.48515625 C13.2601563,2.0546875 13.1164062,1.71875 12.8773438,1.43125 C12.5898438,1.14375 12.2546875,1 11.8234375,1 C11.8234375,1 11.8234375,1 11.8234375,1 C11.1046875,1 10.6742188,1.33515625 10.434375,1.9578125 C10.434375,1.9578125 10.434375,1.9578125 10.434375,1.9578125 C10.434375,1.9578125 7.89609375,1.9578125 7.89609375,1.9578125 C7.46484375,1.9578125 7.1296875,2.1015625 6.8421875,2.3890625 C6.5546875,2.6765625 6.4109375,3.01171875 6.4109375,3.44296875 C6.4109375,3.44296875 6.4109375,3.44296875 6.4109375,3.44296875 C6.4109375,3.44296875 6.4109375,6.89140625 6.4109375,6.89140625 C6.4109375,6.89140625 4.59140625,6.89140625 4.59140625,6.89140625 C3.87265625,6.89140625 3.39375,7.2265625 3.1546875,7.9453125 C3.1546875,7.9453125 3.1546875,7.9453125 3.1546875,7.9453125 C3.1546875,7.9453125 1.04765625,15.8 1.04765625,15.8 C1,15.8960938 1,16.0390625 1,16.1828125 C1,16.1828125 1,16.1828125 1,16.1828125 C1,16.6140625 1.14375,16.9492188 1.43125,17.2367188 C1.67109375,17.5242187 2.00625,17.6679688 2.43671875,17.6679688 C2.43671875,17.6679688 2.43671875,17.6679688 2.43671875,17.6679688 C2.43671875,17.6679688 12.3023438,17.6679688 12.3023438,17.6679688 C12.3023438,17.6679688 12.3023438,22.553125 12.3023438,22.553125 C12.3023438,22.553125 10.8179688,22.553125 10.8179688,22.553125 C10.4828125,22.553125 10.3390625,22.7445313 10.3390625,23.0796875 C10.3390625,23.0796875 10.3390625,23.0796875 10.3390625,23.0796875 C10.3390625,23.4148437 10.4828125,23.5585938 10.8179688,23.5585938 C10.8179688,23.5585938 10.8179688,23.5585938 10.8179688,23.5585938 C10.8179688,23.5585938 14.7453125,23.5585938 14.7453125,23.5585938 C15.0804687,23.5585938 15.2242188,23.4148437 15.2242188,23.0796875 C15.2242188,23.0796875 15.2242188,23.0796875 15.2242188,23.0796875 C15.2242188,22.7445313 15.0804687,22.553125 14.7453125,22.553125 C14.7453125,22.553125 14.7453125,22.553125 14.7453125,22.553125 C14.7453125,22.553125 13.2609375,22.553125 13.2609375,22.553125 C13.2609375,22.553125 13.2609375,17.6679688 13.2609375,17.6679688 C13.2609375,17.6679688 23.1265625,17.6679688 23.1265625,17.6679688 C23.5578125,17.6679688 23.8929688,17.5242187 24.1804688,17.2367188 C24.4679688,16.9492188 24.6117188,16.6140625 24.6117188,16.1828125 C24.6117188,16.1828125 24.6117188,16.1828125 24.6117188,16.1828125 C24.6117188,16.1351563 24.5640625,15.9914063 24.515625,15.8 L24.5148438,15.8 Z M23.5085937,16.5179688 C23.5085937,16.5179688 23.5085937,16.5179688 23.5085937,16.5179688 C23.3648437,16.6617187 23.2695312,16.709375 23.1257813,16.709375 C23.1257813,16.709375 23.1257813,16.709375 23.1257813,16.709375 C23.1257813,16.709375 2.4359375,16.709375 2.4359375,16.709375 C2.10078125,16.709375 1.95703125,16.5179688 1.95703125,16.1828125 C1.95703125,16.1828125 1.95703125,16.1828125 1.95703125,16.1828125 C1.95703125,16.1828125 1.95703125,16.0867187 1.95703125,16.0867187 C1.95703125,16.0867187 4.1125,8.23203125 4.1125,8.23203125 C4.16015625,7.99296875 4.3515625,7.84921875 4.59140625,7.84921875 C4.59140625,7.84921875 4.59140625,7.84921875 4.59140625,7.84921875 C4.59140625,7.84921875 6.41171875,7.84921875 6.41171875,7.84921875 C6.41171875,7.84921875 6.41171875,9.33359375 6.41171875,9.33359375 C6.41171875,9.66875 6.55546875,9.8125 6.890625,9.8125 C7.22578125,9.8125 7.36953125,9.66875 7.36953125,9.33359375 C7.36953125,9.33359375 7.36953125,9.33359375 7.36953125,9.33359375 C7.36953125,9.33359375 7.36953125,7.84921875 7.36953125,7.84921875 C7.36953125,7.84921875 20.9710938,7.84921875 20.9710938,7.84921875 C21.2101563,7.84921875 21.4023438,7.99296875 21.45,8.23203125 C21.45,8.23203125 21.45,8.23203125 21.45,8.23203125 C21.45,8.23203125 23.6054688,16.0867187 23.6054688,16.0867187 C23.6054688,16.0867187 23.6054688,16.1828125 23.6054688,16.1828125 C23.6054688,16.2789062 23.5578125,16.3742188 23.509375,16.5179688 L23.5085937,16.5179688 Z M10.3382812,10.2921875 C10.3382812,10.2921875 10.3382812,10.2921875 10.3382812,10.2921875 C10.3382812,9.95703125 10.4820312,9.81328125 10.8171875,9.81328125 C10.8171875,9.81328125 10.8171875,9.81328125 10.8171875,9.81328125 C10.8171875,9.81328125 14.7445312,9.81328125 14.7445312,9.81328125 C15.0796875,9.81328125 15.2234375,9.95703125 15.2234375,10.2921875 C15.2234375,10.2921875 15.2234375,10.2921875 15.2234375,10.2921875 C15.2234375,10.6273438 15.0796875,10.81875 14.7445312,10.81875 C14.7445312,10.81875 14.7445312,10.81875 14.7445312,10.81875 C14.7445312,10.81875 10.8171875,10.81875 10.8171875,10.81875 C10.4820312,10.81875 10.3382812,10.6273438 10.3382812,10.2921875 Z M16.7078125,12.7828125 C17.0429688,12.7828125 17.1867188,12.9265625 17.1867188,13.2617188 C17.1867188,13.596875 17.0429688,13.740625 16.7078125,13.740625 C16.7078125,13.740625 16.7078125,13.740625 16.7078125,13.740625 C16.7078125,13.740625 8.853125,13.740625 8.853125,13.740625 C8.51796875,13.740625 8.37421875,13.596875 8.37421875,13.2617188 C8.37421875,12.9265625 8.51796875,12.7828125 8.853125,12.7828125 C8.853125,12.7828125 8.853125,12.7828125 8.853125,12.7828125 C8.853125,12.7828125 16.7078125,12.7828125 16.7078125,12.7828125 Z"/>
  <title>Podium</title>
</svg>