<svg xmlns="http://www.w3.org/2000/svg" viewBox="0 0 25 25" id="polaris">
  <path d="M12.2601562,0 C12.2601562,0 12.2601562,0 12.2601562,0 C11.8773437,3.83125 10.6796875,6.753125 8.6203125,8.8125 C8.6203125,8.8125 8.6203125,8.8125 8.6203125,8.8125 C6.5609375,10.8242188 3.6875,11.9734375 0,12.2609375 C0,12.2609375 0,12.2609375 0,12.2609375 C3.49609375,12.5960938 6.27421875,13.6976563 8.28515625,15.565625 C8.28515625,15.565625 8.28515625,15.565625 8.28515625,15.565625 C10.440625,17.625 11.78125,20.5945313 12.2601562,24.521875 C12.2601562,24.521875 12.2601562,24.521875 12.2601562,24.521875 C12.4992188,20.6421875 13.7445312,17.6734375 15.9960938,15.6140625 C15.9960938,15.6140625 15.9960938,15.6140625 15.9960938,15.6140625 C17.959375,13.7460938 20.8335938,12.6445312 24.5210937,12.2617187 C24.5210937,12.2617187 24.5210937,12.2617187 24.5210937,12.2617187 C21.2164063,12.0226562 18.534375,11.1125 16.475,9.48359375 C16.475,9.48359375 16.475,9.48359375 16.475,9.48359375 C13.9367188,7.42421875 12.5476562,4.26328125 12.2601563,0.00078125 L12.2601562,0 Z M12.2117187,4.88515625 C12.2117187,4.88515625 12.2117187,4.88515625 12.2117187,4.88515625 C12.978125,7.040625 14.2234375,8.86015625 15.8992188,10.2492188 C15.8992188,10.2492188 15.8992188,10.2492188 15.8992188,10.2492188 C16.9046875,11.0632813 18.1984375,11.7820313 19.7304688,12.3085938 C19.7304688,12.3085938 19.7304688,12.3085938 19.7304688,12.3085938 C17.9585937,12.93125 16.521875,13.7929688 15.3242187,14.8945312 C15.3242187,14.8945312 15.3242187,14.8945312 15.3242187,14.8945312 C13.8875,16.1875 12.8335938,17.815625 12.1632812,19.8273437 C12.1632812,19.8273437 12.1632812,19.8273437 12.1632812,19.8273437 C11.3492187,17.7679688 10.2953125,16.1398438 8.9546875,14.8945312 C8.9546875,14.8945312 8.9546875,14.8945312 8.9546875,14.8945312 C7.853125,13.840625 6.4640625,12.9789063 4.78828125,12.3085938 C4.78828125,12.3085938 4.78828125,12.3085938 4.78828125,12.3085938 C6.56015625,11.6859375 8.09296875,10.7757812 9.28984375,9.53046875 C9.28984375,9.53046875 9.28984375,9.53046875 9.28984375,9.53046875 C10.5351562,8.3328125 11.4929687,6.75234375 12.2109375,4.88515625 L12.2117187,4.88515625 Z M19.9226562,1.5328125 C19.9226562,1.5328125 19.9226562,1.5328125 19.9226562,1.5328125 C19.8265625,2.490625 19.4914062,3.25703125 18.9648438,3.78359375 C18.9648438,3.78359375 18.9648438,3.78359375 18.9648438,3.78359375 C18.4382812,4.2625 17.7671875,4.55 16.8578125,4.59765625 C16.8578125,4.59765625 16.8578125,4.59765625 16.8578125,4.59765625 C17.815625,4.69375 18.534375,5.02890625 19.0609375,5.55546875 C19.0609375,5.55546875 19.0609375,5.55546875 19.0609375,5.55546875 C19.5398438,6.034375 19.8273438,6.753125 19.9226563,7.6625 C19.9226563,7.6625 19.9226563,7.6625 19.9226563,7.6625 C19.9703125,6.75234375 20.2578125,6.034375 20.784375,5.50703125 C20.784375,5.50703125 20.784375,5.50703125 20.784375,5.50703125 C21.359375,4.98046875 22.0773438,4.69296875 22.9875,4.596875 C22.9875,4.596875 22.9875,4.596875 22.9875,4.596875 C22.0773438,4.54921875 21.4070313,4.26171875 20.8804688,3.7828125 C20.8804688,3.7828125 20.8804688,3.7828125 20.8804688,3.7828125 C20.3054688,3.30390625 19.9703125,2.5375 19.9226563,1.53203125 L19.9226562,1.5328125 Z M4.596875,16.8585937 C4.596875,16.8585937 4.596875,16.8585937 4.596875,16.8585937 C4.50078125,17.9601562 4.11796875,18.7265625 3.4953125,19.2054687 C3.4953125,19.2054687 3.4953125,19.2054687 3.4953125,19.2054687 C3.01640625,19.6367187 2.34609375,19.8757812 1.53203125,19.9242187 C1.53203125,19.9242187 1.53203125,19.9242187 1.53203125,19.9242187 C2.4421875,20.0203125 3.16015625,20.3070312 3.59140625,20.7382812 C3.59140625,20.7382812 3.59140625,20.7382812 3.59140625,20.7382812 C4.16640625,21.2648437 4.5015625,21.9835938 4.596875,22.9890625 C4.596875,22.9890625 4.596875,22.9890625 4.596875,22.9890625 C4.64453125,22.03125 4.93203125,21.3125 5.45859375,20.8335937 C5.45859375,20.8335937 5.45859375,20.8335937 5.45859375,20.8335937 C5.98515625,20.3070313 6.70390625,20.0195312 7.66171875,19.9234375 C7.66171875,19.9234375 7.66171875,19.9234375 7.66171875,19.9234375 C6.6078125,19.8273438 5.8421875,19.4921875 5.3625,18.965625 C5.3625,18.965625 5.3625,18.965625 5.3625,18.965625 C4.88359375,18.390625 4.64375,17.6726562 4.59609375,16.8585937 C4.59609375,16.8585937 4.59609375,16.8585937 4.59609375,16.8585937 L4.596875,16.8585937 Z"/>
  <title>Polaris</title>
</svg>