<svg xmlns="http://www.w3.org/2000/svg" viewBox="0 0 25 25" id="pong">
  <path d="M22.784375,12.871875 C22.784375,12.871875 22.784375,12.871875 22.784375,12.871875 C22.7367187,12.7757813 22.5929687,12.6804688 22.4015625,12.5367188 C22.4015625,12.5367188 22.4015625,12.5367188 22.4015625,12.5367188 C22.5453125,11.8179688 22.5929687,11.24375 22.5929687,10.7648438 C22.5929687,10.7648438 22.5929687,10.7648438 22.5929687,10.7648438 C22.5929687,8.13046875 21.5875,5.92734375 19.5757812,4.15546875 C19.5757812,4.15546875 19.5757812,4.15546875 19.5757812,4.15546875 C17.9953125,2.71875 16.0796875,2 13.9242187,2 C13.9242187,2 13.9242187,2 13.9242187,2 C13.9242187,2 13.8765625,2 13.8765625,2 C11.2421875,2.04765625 9.0875,3.00546875 7.315625,4.778125 C7.315625,4.778125 7.315625,4.778125 7.315625,4.778125 C7.315625,4.778125 6.83671875,5.25703125 6.83671875,5.25703125 C5.1125,6.98125 4.25078125,9.040625 4.25078125,11.4828125 C4.25078125,11.4828125 4.25078125,11.4828125 4.25078125,11.4828125 C4.25078125,12.7757812 4.53828125,14.06875 5.1609375,15.3625 C5.1609375,15.3625 5.1609375,15.3625 5.1609375,15.3625 C5.20859375,15.50625 5.25703125,15.6976562 5.25703125,15.9375 C5.25703125,15.9375 5.25703125,15.9375 5.25703125,15.9375 C5.25703125,16.36875 5.11328125,16.7039063 4.82578125,16.9429688 C4.82578125,16.9429688 4.82578125,16.9429688 4.82578125,16.9429688 C4.82578125,16.9429688 2.43125,19.4335938 2.43125,19.4335938 C2.14375,19.6726563 2,20.0085938 2,20.4390625 C2,20.4390625 2,20.4390625 2,20.4390625 C2,20.8703125 2.14375,21.2054688 2.43125,21.4929688 C2.43125,21.4929688 2.43125,21.4929688 2.43125,21.4929688 C2.43125,21.4929688 3.1015625,22.2117188 3.1015625,22.2117188 C3.43671875,22.4992188 3.8203125,22.6429688 4.15546875,22.6429688 C4.490625,22.6429688 4.87421875,22.4992188 5.209375,22.2117188 C5.209375,22.2117188 5.209375,22.2117188 5.209375,22.2117188 C5.209375,22.2117188 7.60390625,19.7210938 7.60390625,19.7210938 C7.89140625,19.4335938 8.2265625,19.2898438 8.6578125,19.2898438 C8.6578125,19.2898438 8.6578125,19.2898438 8.6578125,19.2898438 C8.896875,19.2898438 9.0890625,19.3375 9.28046875,19.4335938 C9.28046875,19.4335938 9.28046875,19.4335938 9.28046875,19.4335938 C10.478125,20.0085938 11.7710938,20.2953125 13.0640625,20.2953125 C13.0640625,20.2953125 13.0640625,20.2953125 13.0640625,20.2953125 C15.4585937,20.2953125 17.565625,19.4335938 19.3382812,17.709375 C19.3382812,17.709375 19.3382812,17.709375 19.3382812,17.709375 C19.3382812,17.709375 19.434375,17.6132813 19.434375,17.6132813 C19.9609375,17.8046875 20.3921875,17.9007813 20.7273437,17.9007813 C20.7273437,17.9007813 20.7273437,17.9007813 20.7273437,17.9007813 C21.5414063,17.9007813 22.2117187,17.6132813 22.7867187,17.0390625 C23.3617187,16.4648438 23.6484375,15.7460938 23.6484375,14.9320313 C23.6484375,14.9320313 23.6484375,14.9320313 23.6484375,14.9320313 C23.6484375,14.1179688 23.3609375,13.4476563 22.7867187,12.8726563 L22.784375,12.871875 Z M9.66171875,18.5226562 C9.66171875,18.5226562 9.709375,18.5703125 9.709375,18.5703125 C9.421875,18.4265625 9.08671875,18.33125 8.65546875,18.33125 C8.65546875,18.33125 8.65546875,18.33125 8.65546875,18.33125 C8.65546875,18.33125 8.65546875,18.33125 8.65546875,18.33125 C7.93671875,18.33125 7.3625,18.5703125 6.88359375,19.05 C6.88359375,19.05 6.88359375,19.05 6.88359375,19.05 C6.88359375,19.05 4.4890625,21.4921875 4.4890625,21.4921875 C4.44140625,21.5882813 4.29765625,21.6359375 4.15390625,21.6359375 C4.15390625,21.6359375 4.15390625,21.6359375 4.15390625,21.6359375 C4.01015625,21.6359375 3.91484375,21.5882813 3.81875,21.4921875 C3.81875,21.4921875 3.81875,21.4921875 3.81875,21.4921875 C3.81875,21.4921875 3.1,20.821875 3.1,20.821875 C3.00390625,20.6304687 2.95625,20.4867188 2.95625,20.4390625 C2.95625,20.4390625 2.95625,20.4390625 2.95625,20.4390625 C3.00390625,20.2953125 3.1,20.2 3.14765625,20.1039063 C3.14765625,20.1039063 3.14765625,20.1039063 3.14765625,20.1039063 C3.14765625,20.1039063 5.5421875,17.6617187 5.5421875,17.6617187 C6.02109375,17.1351563 6.2609375,16.5601562 6.2609375,15.9375 C6.2609375,15.9375 6.2609375,15.9375 6.2609375,15.9375 C6.2609375,15.5546875 6.16484375,15.1710937 5.9734375,14.8359375 C5.9734375,14.8359375 5.9734375,14.8359375 5.9734375,14.8359375 C5.590625,14.021875 5.35078125,13.1117187 5.2546875,12.0101562 C5.2546875,12.0101562 5.2546875,12.0101562 5.2546875,12.0101562 C5.2546875,12.0101562 12.5820312,19.2898437 12.5820312,19.2898437 C11.5765625,19.2421875 10.5703125,19.0023437 9.6609375,18.5234375 C9.6609375,18.5234375 9.6609375,18.5234375 9.6609375,18.5234375 L9.66171875,18.5226562 Z M18.6179688,17.0382813 C18.6179688,17.0382813 18.6179688,17.0382813 18.6179688,17.0382813 C17.3726562,18.2835938 15.8398438,19.05 13.9726562,19.2890625 C13.9726562,19.2890625 13.9726562,19.2890625 13.9726562,19.2890625 C13.9726562,19.2890625 5.30390625,10.6203125 5.30390625,10.6203125 C5.4953125,8.8484375 6.2140625,7.26796875 7.50703125,5.9265625 C7.50703125,5.9265625 7.50703125,5.9265625 7.50703125,5.9265625 C7.50703125,5.9265625 7.9859375,5.44765625 7.9859375,5.44765625 C9.6625,3.81953125 11.6257812,3.00546875 13.8765625,3.00546875 C13.8765625,3.00546875 13.8765625,3.00546875 13.8765625,3.00546875 C13.8765625,3.00546875 13.9242187,3.00546875 13.9242187,3.00546875 C15.8398438,3.00546875 17.5164062,3.628125 18.953125,4.8734375 C18.953125,4.8734375 18.953125,4.8734375 18.953125,4.8734375 C20.725,6.45390625 21.6351563,8.36953125 21.6351563,10.7164063 C21.6351563,10.7164063 21.6351563,10.7164063 21.6351563,10.7164063 C21.6351563,11.1953125 21.5875,11.6742187 21.4914062,12.153125 C21.4914062,12.153125 21.4914062,12.153125 21.4914062,12.153125 C21.2523437,12.0570313 20.9648438,12.009375 20.6773437,12.009375 C20.6773437,12.009375 20.6773437,12.009375 20.6773437,12.009375 C19.8632812,12.009375 19.1445312,12.296875 18.6179687,12.8710938 C18.0429687,13.4460938 17.75625,14.1164063 17.75625,14.9304688 C17.75625,14.9304688 17.75625,14.9304688 17.75625,14.9304688 C17.75625,15.7445313 18.04375,16.4632813 18.6179687,17.0375 L18.6179688,17.0382813 Z M22.6890625,14.93125 C22.6890625,15.4578125 22.4976563,15.9367187 22.1140625,16.3203125 C21.7304688,16.7039062 21.2523438,16.8953125 20.725,16.8953125 C20.1984375,16.8953125 19.7195313,16.7039062 19.3359375,16.3203125 C18.9523438,15.9367187 18.7609375,15.4585937 18.7609375,14.93125 C18.7609375,14.4046875 18.9523438,13.9257812 19.3359375,13.5421875 C19.7195313,13.1585937 20.1976563,12.9671875 20.725,12.9671875 C21.2515625,12.9671875 21.7304688,13.1585937 22.1140625,13.5421875 C22.4976563,13.9257812 22.6890625,14.4039063 22.6890625,14.93125 Z"/>
  <title>Pong</title>
</svg>