<svg xmlns="http://www.w3.org/2000/svg" viewBox="0 0 25 25" id="pong-solid">
  <path d="M22.6898437,14.8820313 C22.6898437,14.8820313 22.6898437,14.8820313 22.6898437,14.8820313 C22.6898437,15.4085937 22.4984375,15.8875 22.1148437,16.2710937 C21.73125,16.6546875 21.253125,16.8460938 20.7257812,16.8460938 C20.1992188,16.8460938 19.7203125,16.6546875 19.3367187,16.2710937 C18.953125,15.8875 18.7617188,15.409375 18.7617188,14.8820313 C18.7617188,14.3554688 18.953125,13.8765625 19.3367187,13.4929688 C19.7203125,13.109375 20.1984375,12.9179688 20.7257812,12.9179688 C20.7257812,12.9179688 20.7257812,12.9179688 20.7257812,12.9179688 C21.2046875,12.9179688 21.6835938,13.109375 22.1148437,13.4929688 C22.1148437,13.4929688 22.1148437,13.4929688 22.1148437,13.4929688 C22.4976562,13.9242187 22.6898437,14.403125 22.6898437,14.8820313 Z M5.1609375,15.3132812 C5.1609375,15.3132812 5.11328125,15.265625 5.11328125,15.265625 C5.209375,15.409375 5.25703125,15.6484375 5.25703125,15.8882812 C5.25703125,15.8882812 5.25703125,15.8882812 5.25703125,15.8882812 C5.25703125,16.3195312 5.11328125,16.6546875 4.82578125,16.89375 C4.82578125,16.89375 4.82578125,16.89375 4.82578125,16.89375 C4.82578125,16.89375 2.43125,19.384375 2.43125,19.384375 C2.14375,19.671875 2,20.0070312 2,20.3898437 C2,20.3898437 2,20.3898437 2,20.3898437 C2,20.8210937 2.14375,21.15625 2.43125,21.44375 C2.43125,21.44375 2.43125,21.44375 2.43125,21.44375 C2.43125,21.44375 3.15,22.1625 3.15,22.1625 C3.4375,22.45 3.77265625,22.59375 4.15546875,22.59375 C4.15546875,22.59375 4.15546875,22.59375 4.15546875,22.59375 C4.58671875,22.59375 4.921875,22.45 5.209375,22.1625 C5.209375,22.1625 5.209375,22.1625 5.209375,22.1625 C5.209375,22.1625 7.60390625,19.671875 7.60390625,19.671875 C7.9390625,19.384375 8.32265625,19.240625 8.6578125,19.240625 C8.6578125,19.240625 8.6578125,19.240625 8.6578125,19.240625 C8.896875,19.240625 9.0890625,19.2882812 9.28046875,19.384375 C9.28046875,19.384375 9.28046875,19.384375 9.28046875,19.384375 C10.478125,19.959375 11.7710938,20.2460938 13.0640625,20.2460938 C13.0640625,20.2460938 13.0640625,20.2460938 13.0640625,20.2460938 C13.0640625,20.2460938 13.590625,20.2460938 13.590625,20.2460938 C13.590625,20.2460938 4.29921875,10.9546875 4.29921875,10.9546875 C4.29921875,10.9546875 4.29921875,11.48125 4.29921875,11.48125 C4.29921875,12.8703125 4.58671875,14.1632812 5.1609375,15.3125 C5.1609375,15.3125 5.1609375,15.3125 5.1609375,15.3125 L5.1609375,15.3132812 Z M17.7570313,14.8820313 C17.7570313,14.0679687 18.0445312,13.3976563 18.61875,12.8226563 C19.1929688,12.2476563 19.9117188,11.9609375 20.7257812,11.9609375 C20.7257812,11.9609375 20.7257812,11.9609375 20.7257812,11.9609375 C21.3484375,11.9609375 21.9234375,12.1523438 22.4023438,12.5359375 C22.4023438,12.5359375 22.4023438,12.5359375 22.4023438,12.5359375 C22.5460938,12.009375 22.59375,11.434375 22.59375,10.7164062 C22.59375,10.7164062 22.59375,10.7164062 22.59375,10.7164062 C22.59375,8.08203125 21.5882813,5.87890625 19.5765625,4.10703125 C19.5765625,4.10703125 19.5765625,4.10703125 19.5765625,4.10703125 C17.9960938,2.71796875 16.0328125,2 13.78125,2 C13.78125,2 13.78125,2 13.78125,2 C11.1953125,2 9.03984375,2.91015625 7.315625,4.7296875 C7.315625,4.7296875 7.315625,4.7296875 7.315625,4.7296875 C7.315625,4.7296875 6.83671875,5.20859375 6.83671875,5.20859375 C5.54375,6.5015625 4.77734375,7.98671875 4.4421875,9.6625 C4.4421875,9.6625 4.4421875,9.6625 4.4421875,9.6625 C4.4421875,9.6625 14.7867188,20.0554687 14.7867188,20.0554687 C16.5585938,19.7203125 18.0914062,18.90625 19.3367187,17.6609375 C19.3367187,17.6609375 19.3367187,17.6609375 19.3367187,17.6609375 C19.3367187,17.6609375 19.4328125,17.5648437 19.4328125,17.5648437 C19.0976562,17.4210937 18.8578125,17.2296875 18.61875,16.9898437 C18.61875,16.9898437 18.61875,16.9898437 18.61875,16.9898437 C18.04375,16.4148437 17.7570312,15.696875 17.7570312,14.8828125 C17.7570312,14.8828125 17.7570312,14.8828125 17.7570312,14.8828125 L17.7570313,14.8820313 Z"/>
  <title>Pong Solid</title>
</svg>