<svg xmlns="http://www.w3.org/2000/svg" viewBox="0 0 25 25" id="potion">
  <path d="M18.8039063,15.7984375 C18.8039063,15.7984375 18.8039063,15.7984375 18.8039063,15.7984375 C18.8039063,15.7984375 15.6429688,12.6375 15.6429688,12.6375 C15.0679688,12.0625 14.78125,11.3921875 14.78125,10.578125 C14.78125,10.578125 14.78125,10.578125 14.78125,10.578125 C14.78125,10.578125 14.78125,1.9578125 14.78125,1.9578125 C14.78125,1.9578125 15.2601563,1.9578125 15.2601563,1.9578125 C15.5953125,1.9578125 15.7867188,1.8140625 15.7867188,1.47890625 C15.7867188,1.14375 15.5953125,1 15.2601563,1 C15.2601563,1 15.2601563,1 15.2601563,1 C15.2601563,1 9.4171875,1 9.4171875,1 C9.08203125,1 8.890625,1.14375 8.890625,1.47890625 C8.890625,1.8140625 9.08203125,1.9578125 9.4171875,1.9578125 C9.4171875,1.9578125 9.4171875,1.9578125 9.4171875,1.9578125 C9.4171875,1.9578125 9.89609375,1.9578125 9.89609375,1.9578125 C9.89609375,1.9578125 9.89609375,10.578125 9.89609375,10.578125 C9.89609375,11.3921875 9.60859375,12.0625 9.034375,12.6375 C9.034375,12.6375 9.034375,12.6375 9.034375,12.6375 C9.034375,12.6375 5.8734375,15.7984375 5.8734375,15.7984375 C3.9578125,17.7140625 3,20.0132813 3,22.6953125 C3,22.6953125 3,22.6953125 3,22.6953125 C3,22.6953125 3,23.078125 3,23.078125 C3,23.509375 3.14375,23.8445313 3.43125,24.0835938 C3.71875,24.3710938 4.05390625,24.5148438 4.48515625,24.5148438 C4.48515625,24.5148438 4.48515625,24.5148438 4.48515625,24.5148438 C4.48515625,24.5148438 20.19375,24.5148438 20.19375,24.5148438 C20.625,24.5148438 20.9601563,24.3710938 21.2476563,24.0835938 C21.5351562,23.8445312 21.6789063,23.5085937 21.6789063,23.078125 C21.6789063,23.078125 21.6789063,23.078125 21.6789063,23.078125 C21.6789063,23.078125 21.6789063,22.6953125 21.6789063,22.6953125 C21.6789063,20.0132813 20.7210938,17.7148438 18.8054688,15.7984375 L18.8039063,15.7984375 Z M6.59140625,16.46875 C6.59140625,16.46875 6.59140625,16.46875 6.59140625,16.46875 C6.59140625,16.46875 9.7046875,13.3554688 9.7046875,13.3554688 C10.4710938,12.5890625 10.8539063,11.6789063 10.8539063,10.5773438 C10.8539063,10.5773438 10.8539063,10.5773438 10.8539063,10.5773438 C10.8539063,10.5773438 10.8539063,1.95703125 10.8539063,1.95703125 C10.8539063,1.95703125 13.8234375,1.95703125 13.8234375,1.95703125 C13.8234375,1.95703125 13.8234375,5.884375 13.8234375,5.884375 C13.8234375,5.884375 12.3390625,5.884375 12.3390625,5.884375 C12.0039063,5.884375 11.8601563,6.07578125 11.8601563,6.4109375 C11.8601563,6.4109375 11.8601563,6.4109375 11.8601563,6.4109375 C11.8601563,6.74609375 12.0039063,6.88984375 12.3390625,6.88984375 C12.3390625,6.88984375 12.3390625,6.88984375 12.3390625,6.88984375 C12.3390625,6.88984375 13.8234375,6.88984375 13.8234375,6.88984375 C13.8234375,6.88984375 13.8234375,8.853125 13.8234375,8.853125 C13.8234375,8.853125 12.3390625,8.853125 12.3390625,8.853125 C12.0039063,8.853125 11.8601563,8.996875 11.8601563,9.33203125 C11.8601563,9.6671875 12.0039063,9.8109375 12.3390625,9.8109375 C12.3390625,9.8109375 12.3390625,9.8109375 12.3390625,9.8109375 C12.3390625,9.8109375 13.8234375,9.8109375 13.8234375,9.8109375 C13.8234375,9.8109375 13.8234375,10.5773437 13.8234375,10.5773437 C13.8234375,11.6789062 14.20625,12.5890625 14.9726562,13.3554688 C14.9726562,13.3554688 14.9726562,13.3554688 14.9726562,13.3554688 C14.9726562,13.3554688 18.0859375,16.46875 18.0859375,16.46875 C18.1820313,16.5648438 18.2296875,16.6601562 18.2773438,16.7078125 C18.2773438,16.7078125 18.2773438,16.7078125 18.2773438,16.7078125 C18.2773438,16.7078125 6.4,16.7078125 6.4,16.7078125 C6.44765625,16.6601562 6.49609375,16.5640625 6.59140625,16.46875 L6.59140625,16.46875 Z M20.671875,22.6945312 C20.671875,22.6945312 20.671875,23.0773437 20.671875,23.0773437 C20.671875,23.4125 20.528125,23.55625 20.1929687,23.55625 C20.1929687,23.55625 20.1929687,23.55625 20.1929687,23.55625 C20.1929687,23.55625 4.484375,23.55625 4.484375,23.55625 C4.14921875,23.55625 4.00546875,23.4125 4.00546875,23.0773437 C4.00546875,23.0773437 4.00546875,23.0773437 4.00546875,23.0773437 C4.00546875,23.0773437 4.00546875,22.6945312 4.00546875,22.6945312 C4.00546875,20.8265625 4.53203125,19.1507813 5.5859375,17.665625 C5.5859375,17.665625 5.5859375,17.665625 5.5859375,17.665625 C5.5859375,17.665625 19.0914063,17.665625 19.0914063,17.665625 C20.1453125,19.15 20.671875,20.8265625 20.671875,22.6945312 C20.671875,22.6945312 20.671875,22.6945312 20.671875,22.6945312 Z M7.9328125,20.1085937 C7.9328125,20.1085937 7.9328125,20.1085937 7.9328125,20.1085937 C7.9328125,20.44375 7.7890625,20.6351562 7.45390625,20.6351562 C7.45390625,20.6351562 7.45390625,20.6351562 7.45390625,20.6351562 C7.11875,20.6351562 6.92734375,20.44375 6.92734375,20.1085937 C6.92734375,20.1085937 6.92734375,20.1085937 6.92734375,20.1085937 C6.92734375,19.7734375 7.11875,19.6296875 7.45390625,19.6296875 C7.45390625,19.6296875 7.45390625,19.6296875 7.45390625,19.6296875 C7.7890625,19.6296875 7.9328125,19.7734375 7.9328125,20.1085937 Z M9.89609375,22.071875 C9.89609375,22.071875 9.89609375,22.071875 9.89609375,22.071875 C9.89609375,22.4070312 9.75234375,22.5984375 9.4171875,22.5984375 C9.4171875,22.5984375 9.4171875,22.5984375 9.4171875,22.5984375 C9.08203125,22.5984375 8.890625,22.4070312 8.890625,22.071875 C8.890625,22.071875 8.890625,22.071875 8.890625,22.071875 C8.890625,21.7367188 9.08203125,21.5929688 9.4171875,21.5929688 C9.4171875,21.5929688 9.4171875,21.5929688 9.4171875,21.5929688 C9.75234375,21.5929688 9.89609375,21.7367188 9.89609375,22.071875 Z"/>
  <title>Potion</title>
</svg>