<svg xmlns="http://www.w3.org/2000/svg" viewBox="0 0 25 25" id="power">
  <path d="M11.8585938,10.3335938 C11.8585938,10.3335938 11.8585938,10.3335938 11.8585938,10.3335938 C11.8585938,10.3335938 11.8585938,2.47890625 11.8585938,2.47890625 C11.8585938,2.14375 12.0023438,2 12.3375,2 C12.6726562,2 12.8164062,2.14375 12.8164062,2.47890625 C12.8164062,2.47890625 12.8164062,2.47890625 12.8164062,2.47890625 C12.8164062,2.47890625 12.8164062,10.3335938 12.8164062,10.3335938 C12.8164062,10.66875 12.6726562,10.8125 12.3375,10.8125 C12.0023438,10.8125 11.8585938,10.66875 11.8585938,10.3335938 Z M14.8765625,4.29921875 C14.8765625,4.29921875 14.7804688,4.29921875 14.7804688,4.29921875 C14.7804688,4.29921875 14.7804688,5.3046875 14.7804688,5.3046875 C16.5523438,5.83125 17.9414062,6.8375 19.0429688,8.321875 C20.1445312,9.80625 20.6710938,11.4351562 20.6710938,13.3023438 C20.6710938,13.3023438 20.6710938,13.3023438 20.6710938,13.3023438 C20.6710938,15.6015625 19.8570312,17.5648438 18.2289063,19.1929687 C16.6007813,20.8210937 14.6367188,21.6351563 12.3382812,21.6351563 C10.0390625,21.6351563 8.07578125,20.8210937 6.44765625,19.1929687 C4.81953125,17.5648438 4.00546875,15.6007812 4.00546875,13.3023438 C4.00546875,13.3023438 4.00546875,13.3023438 4.00546875,13.3023438 C4.00546875,11.434375 4.53203125,9.80625 5.63359375,8.321875 C6.73515625,6.88515625 8.12421875,5.8796875 9.8484375,5.35234375 C9.8484375,5.35234375 9.8484375,5.35234375 9.8484375,5.35234375 C9.8484375,5.35234375 9.89609375,4.2984375 9.89609375,4.2984375 C7.884375,4.825 6.25625,5.9265625 4.96328125,7.603125 C3.6703125,9.2796875 3,11.1953125 3,13.3023438 C3,13.3023438 3,13.3023438 3,13.3023438 C3,15.840625 3.91015625,18.04375 5.778125,19.8632812 C7.59765625,21.6828125 9.80078125,22.5929687 12.3390625,22.5929687 C14.8773437,22.5929687 17.0804688,21.6828125 18.9484375,19.8632812 C20.7679688,18.04375 21.678125,15.840625 21.678125,13.3023438 C21.678125,13.3023438 21.678125,13.3023438 21.678125,13.3023438 C21.678125,11.1953125 21.0554687,9.2796875 19.7625,7.603125 C18.4695313,5.9265625 16.8414063,4.825 14.8773438,4.2984375 C14.8773438,4.2984375 14.8773438,4.2984375 14.8773438,4.2984375 L14.8765625,4.29921875 Z"/>
  <title>Power</title>
</svg>