<svg xmlns="http://www.w3.org/2000/svg" viewBox="0 0 25 25" id="print-solid">
  <path d="M18.6726563,2.48515625 C18.6726563,2.48515625 18.6726563,9.8125 18.6726563,9.8125 C18.6726563,9.8125 5.93359375,9.8125 5.93359375,9.8125 C5.93359375,9.8125 5.93359375,2.48515625 5.93359375,2.48515625 C5.93359375,2.05390625 6.07734375,1.71875 6.36484375,1.43125 C6.65234375,1.14375 6.9875,1 7.41875,1 C7.41875,1 7.41875,1 7.41875,1 C7.41875,1 17.1890625,1 17.1890625,1 C17.6203125,1 17.9554688,1.14375 18.2429687,1.43125 C18.5304688,1.71875 18.6742188,2.05390625 18.6742188,2.48515625 C18.6742188,2.48515625 18.6742188,2.48515625 18.6742188,2.48515625 L18.6726563,2.48515625 Z M5.9328125,19.63125 C5.9328125,19.63125 5.9328125,24.0375 5.9328125,24.0375 C5.9328125,24.3726563 6.0765625,24.5164063 6.41171875,24.5164063 C6.41171875,24.5164063 6.41171875,24.5164063 6.41171875,24.5164063 C6.41171875,24.5164063 18.1929687,24.5164063 18.1929687,24.5164063 C18.528125,24.5164063 18.671875,24.3726563 18.671875,24.0375 C18.671875,24.0375 18.671875,24.0375 18.671875,24.0375 C18.671875,24.0375 18.671875,19.63125 18.671875,19.63125 C18.671875,19.63125 5.9328125,19.63125 5.9328125,19.63125 Z M23.6054688,12.2554687 C23.6054688,12.2554687 23.6054688,12.2554687 23.6054688,12.2554687 C23.6054688,12.2554687 23.6054688,21.115625 23.6054688,21.115625 C23.6054688,21.546875 23.4617187,21.8820312 23.1742188,22.1695312 C22.8867188,22.4570312 22.5515625,22.6007812 22.1203125,22.6007812 C22.1203125,22.6007812 22.1203125,22.6007812 22.1203125,22.6007812 C22.1203125,22.6007812 19.678125,22.6007812 19.678125,22.6007812 C19.678125,22.6007812 19.678125,19.63125 19.678125,19.63125 C19.678125,19.63125 21.1148438,19.63125 21.1148438,19.63125 C21.45,19.63125 21.6414062,19.4875 21.6414062,19.1523438 C21.6414062,18.8171875 21.45,18.6734375 21.1148438,18.6734375 C21.1148438,18.6734375 21.1148438,18.6734375 21.1148438,18.6734375 C21.1148438,18.6734375 3.490625,18.6734375 3.490625,18.6734375 C3.15546875,18.6734375 2.9640625,18.8171875 2.9640625,19.1523438 C2.9640625,19.4875 3.15546875,19.63125 3.490625,19.63125 C3.490625,19.63125 3.490625,19.63125 3.490625,19.63125 C3.490625,19.63125 4.92734375,19.63125 4.92734375,19.63125 C4.92734375,19.63125 4.92734375,22.6007812 4.92734375,22.6007812 C4.92734375,22.6007812 2.48515625,22.6007812 2.48515625,22.6007812 C2.05390625,22.6007812 1.71875,22.4570312 1.43125,22.1695312 C1.14375,21.8820313 1,21.546875 1,21.115625 C1,21.115625 1,21.115625 1,21.115625 C1,21.115625 1,12.2554688 1,12.2554688 C1,11.8726563 1.14375,11.5367188 1.43125,11.25 C1.71875,10.9632812 2.05390625,10.81875 2.48515625,10.81875 C2.48515625,10.81875 2.48515625,10.81875 2.48515625,10.81875 C2.48515625,10.81875 22.1210938,10.81875 22.1210938,10.81875 C22.5523437,10.81875 22.8875,10.9625 23.175,11.25 C23.4625,11.5375 23.60625,11.8726563 23.60625,12.2554687 L23.6054688,12.2554687 Z M6.890625,14.2195312 C6.890625,14.2195312 6.890625,14.2195312 6.890625,14.2195312 C6.890625,13.884375 6.746875,13.740625 6.41171875,13.740625 C6.41171875,13.740625 6.41171875,13.740625 6.41171875,13.740625 C6.41171875,13.740625 4.4484375,13.740625 4.4484375,13.740625 C4.11328125,13.740625 3.96953125,13.884375 3.96953125,14.2195312 C3.96953125,14.2195312 3.96953125,14.2195312 3.96953125,14.2195312 C3.96953125,14.5546875 4.11328125,14.7460938 4.4484375,14.7460938 C4.4484375,14.7460938 4.4484375,14.7460938 4.4484375,14.7460938 C4.4484375,14.7460938 6.41171875,14.7460938 6.41171875,14.7460938 C6.746875,14.7460938 6.890625,14.5546875 6.890625,14.2195312 Z"/>
  <title>Print Solid</title>
</svg>