<svg xmlns="http://www.w3.org/2000/svg" viewBox="0 0 25 25" id="print">
  <path d="M22.1226562,9.81875 C22.1226562,9.81875 22.1226562,9.81875 22.1226562,9.81875 C22.1226562,9.81875 18.6742188,9.81875 18.6742188,9.81875 C18.6742188,9.81875 18.6742188,1.48515625 18.6742188,1.48515625 C18.6742188,1.05390625 18.5304687,0.71875 18.2429688,0.43125 C17.9554688,0.14375 17.6203125,0 17.1890625,0 C17.1890625,0 17.1890625,0 17.1890625,0 C17.1890625,0 7.41875,0 7.41875,0 C6.9875,0 6.65234375,0.14375 6.36484375,0.43125 C6.07734375,0.71875 5.93359375,1.05390625 5.93359375,1.48515625 C5.93359375,1.48515625 5.93359375,1.48515625 5.93359375,1.48515625 C5.93359375,1.48515625 5.93359375,9.81875 5.93359375,9.81875 C5.93359375,9.81875 2.48515625,9.81875 2.48515625,9.81875 C2.05390625,9.81875 1.71875,9.9625 1.43125,10.25 C1.14375,10.5375 1,10.8726563 1,11.2554687 C1,11.2554687 1,11.2554687 1,11.2554687 C1,11.2554687 1,20.115625 1,20.115625 C1,20.546875 1.14375,20.8820313 1.43125,21.1695313 C1.71875,21.4570312 2.05390625,21.6007813 2.48515625,21.6007813 C2.48515625,21.6007813 2.48515625,21.6007813 2.48515625,21.6007813 C2.48515625,21.6007813 4.92734375,21.6007813 4.92734375,21.6007813 C4.92734375,21.6007813 4.92734375,23.0375 4.92734375,23.0375 C4.92734375,23.46875 5.07109375,23.8039063 5.35859375,24.0914063 C5.64609375,24.3789062 5.98125,24.5226563 6.4125,24.5226563 C6.4125,24.5226563 6.4125,24.5226563 6.4125,24.5226563 C6.4125,24.5226563 18.19375,24.5226563 18.19375,24.5226563 C18.625,24.5226563 18.9601563,24.3789062 19.2476562,24.0914063 C19.5351562,23.8039063 19.6789062,23.46875 19.6789062,23.0375 C19.6789062,23.0375 19.6789062,23.0375 19.6789062,23.0375 C19.6789062,23.0375 19.6789062,21.6007813 19.6789062,21.6007813 C19.6789062,21.6007813 22.1210938,21.6007813 22.1210938,21.6007813 C22.5523437,21.6007813 22.8875,21.4570312 23.175,21.1695313 C23.4625,20.8820313 23.60625,20.546875 23.60625,20.115625 C23.60625,20.115625 23.60625,20.115625 23.60625,20.115625 C23.60625,20.115625 23.60625,11.2554688 23.60625,11.2554688 C23.60625,10.8726563 23.4625,10.5367188 23.175,10.25 C22.8875,9.96328125 22.5523437,9.81875 22.1210938,9.81875 L22.1226562,9.81875 Z M6.8921875,9.81875 C6.8921875,9.81875 6.8921875,1.48515625 6.8921875,1.48515625 C6.8921875,1.15 7.08359375,0.95859375 7.41875,0.95859375 C7.41875,0.95859375 7.41875,0.95859375 7.41875,0.95859375 C7.41875,0.95859375 17.1890625,0.95859375 17.1890625,0.95859375 C17.5242187,0.95859375 17.715625,1.15 17.715625,1.48515625 C17.715625,1.48515625 17.715625,1.48515625 17.715625,1.48515625 C17.715625,1.48515625 17.715625,9.81875 17.715625,9.81875 C17.715625,9.81875 6.8921875,9.81875 6.8921875,9.81875 Z M18.6742188,18.63125 C18.6742188,18.63125 18.6742188,23.0375 18.6742188,23.0375 C18.6742188,23.3726563 18.5304687,23.5164063 18.1953125,23.5164063 C18.1953125,23.5164063 18.1953125,23.5164063 18.1953125,23.5164063 C18.1953125,23.5164063 6.4140625,23.5164063 6.4140625,23.5164063 C6.07890625,23.5164063 5.93515625,23.3726563 5.93515625,23.0375 C5.93515625,23.0375 5.93515625,23.0375 5.93515625,23.0375 C5.93515625,23.0375 5.93515625,18.63125 5.93515625,18.63125 C5.93515625,18.63125 18.6742188,18.63125 18.6742188,18.63125 Z M22.6015625,11.2554688 C22.6015625,11.2554688 22.6015625,20.115625 22.6015625,20.115625 C22.6015625,20.4507812 22.4578125,20.5945312 22.1226563,20.5945312 C22.1226563,20.5945312 22.1226563,20.5945312 22.1226563,20.5945312 C22.1226563,20.5945312 19.6804688,20.5945312 19.6804688,20.5945312 C19.6804688,20.5945312 19.6804688,18.63125 19.6804688,18.63125 C19.6804688,18.63125 21.1171875,18.63125 21.1171875,18.63125 C21.4523438,18.63125 21.64375,18.4875 21.64375,18.1523438 C21.64375,17.8171875 21.4523438,17.6734375 21.1171875,17.6734375 C21.1171875,17.6734375 21.1171875,17.6734375 21.1171875,17.6734375 C21.1171875,17.6734375 3.49296875,17.6734375 3.49296875,17.6734375 C3.1578125,17.6734375 2.96640625,17.8171875 2.96640625,18.1523438 C2.96640625,18.4875 3.1578125,18.63125 3.49296875,18.63125 C3.49296875,18.63125 3.49296875,18.63125 3.49296875,18.63125 C3.49296875,18.63125 4.9296875,18.63125 4.9296875,18.63125 C4.9296875,18.63125 4.9296875,20.5945312 4.9296875,20.5945312 C4.9296875,20.5945312 2.4875,20.5945312 2.4875,20.5945312 C2.15234375,20.5945312 2.00859375,20.4507812 2.00859375,20.115625 C2.00859375,20.115625 2.00859375,20.115625 2.00859375,20.115625 C2.00859375,20.115625 2.00859375,11.2554688 2.00859375,11.2554688 C2.00859375,10.9203125 2.15234375,10.7765625 2.4875,10.7765625 C2.4875,10.7765625 2.4875,10.7765625 2.4875,10.7765625 C2.4875,10.7765625 22.1234375,10.7765625 22.1234375,10.7765625 C22.4585938,10.7765625 22.6023437,10.9203125 22.6023437,11.2554688 C22.6023437,11.2554688 22.6023437,11.2554688 22.6023437,11.2554688 L22.6015625,11.2554688 Z M6.8921875,13.2195312 C6.8921875,13.2195312 6.8921875,13.2195312 6.8921875,13.2195312 C6.8921875,13.5546875 6.7484375,13.7460938 6.41328125,13.7460938 C6.41328125,13.7460938 6.41328125,13.7460938 6.41328125,13.7460938 C6.41328125,13.7460938 4.45,13.7460938 4.45,13.7460938 C4.11484375,13.7460938 3.97109375,13.5546875 3.97109375,13.2195312 C3.97109375,13.2195312 3.97109375,13.2195312 3.97109375,13.2195312 C3.97109375,12.884375 4.11484375,12.740625 4.45,12.740625 C4.45,12.740625 4.45,12.740625 4.45,12.740625 C4.45,12.740625 6.41328125,12.740625 6.41328125,12.740625 C6.7484375,12.740625 6.8921875,12.884375 6.8921875,13.2195312 Z"/>
  <title>Print</title>
</svg>