<svg xmlns="http://www.w3.org/2000/svg" viewBox="0 0 25 25" id="processor">
  <path d="M21.5992187,8.81171875 C21.5992187,8.81171875 24.5203125,8.81171875 24.5203125,8.81171875 C24.5203125,8.81171875 24.5203125,7.85390625 24.5203125,7.85390625 C24.5203125,7.85390625 21.5992187,7.85390625 21.5992187,7.85390625 C21.5992187,7.85390625 21.5992187,2.92109375 21.5992187,2.92109375 C21.5992187,2.92109375 16.6664062,2.92109375 16.6664062,2.92109375 C16.6664062,2.92109375 16.6664062,0 16.6664062,0 C16.6664062,0 15.7085937,0 15.7085937,0 C15.7085937,0 15.7085937,2.92109375 15.7085937,2.92109375 C15.7085937,2.92109375 12.7390625,2.92109375 12.7390625,2.92109375 C12.7390625,2.92109375 12.7390625,0 12.7390625,0 C12.7390625,0 11.78125,0 11.78125,0 C11.78125,0 11.78125,2.92109375 11.78125,2.92109375 C11.78125,2.92109375 8.81171875,2.92109375 8.81171875,2.92109375 C8.81171875,2.92109375 8.81171875,0 8.81171875,0 C8.81171875,0 7.85390625,0 7.85390625,0 C7.85390625,0 7.85390625,2.92109375 7.85390625,2.92109375 C7.85390625,2.92109375 2.92109375,2.92109375 2.92109375,2.92109375 C2.92109375,2.92109375 2.92109375,7.85390625 2.92109375,7.85390625 C2.92109375,7.85390625 0,7.85390625 0,7.85390625 C0,7.85390625 0,8.81171875 0,8.81171875 C0,8.81171875 2.92109375,8.81171875 2.92109375,8.81171875 C2.92109375,8.81171875 2.92109375,11.78125 2.92109375,11.78125 C2.92109375,11.78125 0,11.78125 0,11.78125 C0,11.78125 0,12.7390625 0,12.7390625 C0,12.7390625 2.92109375,12.7390625 2.92109375,12.7390625 C2.92109375,12.7390625 2.92109375,15.7085937 2.92109375,15.7085937 C2.92109375,15.7085937 0,15.7085937 0,15.7085937 C0,15.7085937 0,16.6664062 0,16.6664062 C0,16.6664062 2.92109375,16.6664062 2.92109375,16.6664062 C2.92109375,16.6664062 2.92109375,21.5992187 2.92109375,21.5992187 C2.92109375,21.5992187 7.85390625,21.5992187 7.85390625,21.5992187 C7.85390625,21.5992187 7.85390625,24.5203125 7.85390625,24.5203125 C7.85390625,24.5203125 8.81171875,24.5203125 8.81171875,24.5203125 C8.81171875,24.5203125 8.81171875,21.5992187 8.81171875,21.5992187 C8.81171875,21.5992187 11.78125,21.5992187 11.78125,21.5992187 C11.78125,21.5992187 11.78125,24.5203125 11.78125,24.5203125 C11.78125,24.5203125 12.7390625,24.5203125 12.7390625,24.5203125 C12.7390625,24.5203125 12.7390625,21.5992187 12.7390625,21.5992187 C12.7390625,21.5992187 15.7085938,21.5992187 15.7085938,21.5992187 C15.7085938,21.5992187 15.7085938,24.5203125 15.7085938,24.5203125 C15.7085938,24.5203125 16.6664063,24.5203125 16.6664063,24.5203125 C16.6664063,24.5203125 16.6664063,21.5992187 16.6664063,21.5992187 C16.6664063,21.5992187 21.5992188,21.5992187 21.5992188,21.5992187 C21.5992188,21.5992187 21.5992188,16.6664062 21.5992188,16.6664062 C21.5992188,16.6664062 24.5203125,16.6664062 24.5203125,16.6664062 C24.5203125,16.6664062 24.5203125,15.7085937 24.5203125,15.7085937 C24.5203125,15.7085937 21.5992187,15.7085937 21.5992187,15.7085937 C21.5992187,15.7085937 21.5992187,12.7390625 21.5992187,12.7390625 C21.5992187,12.7390625 24.5203125,12.7390625 24.5203125,12.7390625 C24.5203125,12.7390625 24.5203125,11.78125 24.5203125,11.78125 C24.5203125,11.78125 21.5992187,11.78125 21.5992187,11.78125 C21.5992187,11.78125 21.5992187,8.81171875 21.5992187,8.81171875 Z M20.5929688,3.9265625 C20.5929688,3.9265625 20.5929688,11.78125 20.5929688,11.78125 C20.5929688,11.78125 20.5929688,20.59375 20.5929688,20.59375 C20.5929688,20.59375 3.9265625,20.59375 3.9265625,20.59375 C3.9265625,20.59375 3.9265625,3.92734375 3.9265625,3.92734375 C3.9265625,3.92734375 20.5929688,3.92734375 20.5929688,3.92734375 L20.5929688,3.9265625 Z"/>
  <title>Processor</title>
</svg>