<svg xmlns="http://www.w3.org/2000/svg" viewBox="0 0 25 25" id="processor-solid">
  <path d="M20.5945313,8.8125 C20.5945313,8.8125 24.521875,8.8125 24.521875,8.8125 C24.521875,8.8125 24.521875,7.8546875 24.521875,7.8546875 C24.521875,7.8546875 20.5945313,7.8546875 20.5945313,7.8546875 C20.5945313,7.8546875 20.5945313,3.92734375 20.5945313,3.92734375 C20.5945313,3.92734375 16.6671875,3.92734375 16.6671875,3.92734375 C16.6671875,3.92734375 16.6671875,0 16.6671875,0 C16.6671875,0 15.709375,0 15.709375,0 C15.709375,0 15.709375,3.92734375 15.709375,3.92734375 C15.709375,3.92734375 12.7398438,3.92734375 12.7398438,3.92734375 C12.7398438,3.92734375 12.7398438,0 12.7398438,0 C12.7398438,0 11.7820313,0 11.7820313,0 C11.7820313,0 11.7820313,3.92734375 11.7820313,3.92734375 C11.7820313,3.92734375 8.8125,3.92734375 8.8125,3.92734375 C8.8125,3.92734375 8.8125,0 8.8125,0 C8.8125,0 7.8546875,0 7.8546875,0 C7.8546875,0 7.8546875,3.92734375 7.8546875,3.92734375 C7.8546875,3.92734375 3.92734375,3.92734375 3.92734375,3.92734375 C3.92734375,3.92734375 3.92734375,7.8546875 3.92734375,7.8546875 C3.92734375,7.8546875 0,7.8546875 0,7.8546875 C0,7.8546875 0,8.8125 0,8.8125 C0,8.8125 3.92734375,8.8125 3.92734375,8.8125 C3.92734375,8.8125 3.92734375,11.7820313 3.92734375,11.7820313 C3.92734375,11.7820313 0,11.7820313 0,11.7820313 C0,11.7820313 0,12.7398438 0,12.7398438 C0,12.7398438 3.92734375,12.7398438 3.92734375,12.7398438 C3.92734375,12.7398438 3.92734375,15.709375 3.92734375,15.709375 C3.92734375,15.709375 0,15.709375 0,15.709375 C0,15.709375 0,16.6671875 0,16.6671875 C0,16.6671875 3.92734375,16.6671875 3.92734375,16.6671875 C3.92734375,16.6671875 3.92734375,20.5945312 3.92734375,20.5945312 C3.92734375,20.5945312 7.8546875,20.5945312 7.8546875,20.5945312 C7.8546875,20.5945312 7.8546875,24.521875 7.8546875,24.521875 C7.8546875,24.521875 8.8125,24.521875 8.8125,24.521875 C8.8125,24.521875 8.8125,20.5945312 8.8125,20.5945312 C8.8125,20.5945312 11.7820313,20.5945312 11.7820313,20.5945312 C11.7820313,20.5945312 11.7820313,24.521875 11.7820313,24.521875 C11.7820313,24.521875 12.7398438,24.521875 12.7398438,24.521875 C12.7398438,24.521875 12.7398438,20.5945312 12.7398438,20.5945312 C12.7398438,20.5945312 15.709375,20.5945312 15.709375,20.5945312 C15.709375,20.5945312 15.709375,24.521875 15.709375,24.521875 C15.709375,24.521875 16.6671875,24.521875 16.6671875,24.521875 C16.6671875,24.521875 16.6671875,20.5945312 16.6671875,20.5945312 C16.6671875,20.5945312 20.5945313,20.5945312 20.5945313,20.5945312 C20.5945313,20.5945312 20.5945313,16.6671875 20.5945313,16.6671875 C20.5945313,16.6671875 24.521875,16.6671875 24.521875,16.6671875 C24.521875,16.6671875 24.521875,15.709375 24.521875,15.709375 C24.521875,15.709375 20.5945313,15.709375 20.5945313,15.709375 C20.5945313,15.709375 20.5945313,12.7398437 20.5945313,12.7398437 C20.5945313,12.7398437 24.521875,12.7398437 24.521875,12.7398437 C24.521875,12.7398437 24.521875,11.7820312 24.521875,11.7820312 C24.521875,11.7820312 20.5945313,11.7820312 20.5945313,11.7820312 C20.5945313,11.7820312 20.5945313,8.8125 20.5945313,8.8125 Z"/>
  <title>Processor Solid</title>
</svg>