<svg xmlns="http://www.w3.org/2000/svg" viewBox="0 0 25 25" id="progress-solid">
  <path d="M15.7515625,11.9273438 C15.7515625,11.9273438 16.7570313,11.9273438 16.7570313,11.9273438 C16.853125,11.3523438 17.1398438,10.8734375 17.5710938,10.490625 C18.0023438,10.1554688 18.5289063,9.9640625 19.1515625,9.9640625 C19.1515625,9.9640625 19.1515625,9.9640625 19.1515625,9.9640625 C19.821875,9.9640625 20.396875,10.203125 20.8757813,10.6828125 C21.3546875,11.1625 21.5945313,11.7367188 21.5945313,12.4070313 C21.5945313,13.0773438 21.3554688,13.6523438 20.8757813,14.13125 C20.3960938,14.6101563 19.821875,14.85 19.1515625,14.85 C19.1515625,14.85 19.1515625,14.85 19.1515625,14.85 C18.5289063,14.85 18.0023438,14.6585938 17.5710938,14.275 C17.1398438,13.9398438 16.8523438,13.4609375 16.7570313,12.8859375 C16.7570313,12.8859375 16.7570313,12.8859375 16.7570313,12.8859375 C16.7570313,12.8859375 15.7515625,12.8859375 15.7515625,12.8859375 C15.8953125,13.7 16.278125,14.41875 16.9007813,14.9929688 C17.5234375,15.5671875 18.2898438,15.8546875 19.1515625,15.8546875 C19.1515625,15.8546875 19.1515625,15.8546875 19.1515625,15.8546875 C20.0617188,15.8546875 20.8757813,15.5195313 21.59375,14.8492188 C22.2640625,14.1789063 22.5992188,13.3648438 22.5992188,12.4070313 C22.5992188,11.4492188 22.2640625,10.6351563 21.59375,9.96484375 C20.875,9.29453125 20.0609375,8.959375 19.1515625,8.959375 C19.1515625,8.959375 19.1515625,8.959375 19.1515625,8.959375 C18.2898438,8.959375 17.5234375,9.246875 16.9007813,9.82109375 C16.278125,10.3953125 15.8953125,11.1140625 15.7515625,11.928125 C15.7515625,11.928125 15.7515625,11.928125 15.7515625,11.928125 L15.7515625,11.9273438 Z M5.8375,11.9273438 C5.8375,11.9273438 8.90234375,11.9273438 8.90234375,11.9273438 C9.04609375,11.3523437 9.33359375,10.8734375 9.7640625,10.490625 C10.1953125,10.1554688 10.6742188,9.9640625 11.296875,9.9640625 C11.9195313,9.9640625 12.4460938,10.1554688 12.8773438,10.490625 C13.3085938,10.8734375 13.5476563,11.3523437 13.6914063,11.9273438 C13.6914063,11.9273438 13.6914063,11.9273438 13.6914063,11.9273438 C13.6914063,11.9273438 14.7453125,11.9273438 14.7453125,11.9273438 C14.8890625,10.8257813 15.3679688,9.86796875 16.1820313,9.1015625 C16.9960938,8.3828125 18.0015625,8 19.1515625,8 C19.1515625,8 19.1515625,8 19.1515625,8 C20.3492188,8 21.4023438,8.43125 22.2648438,9.29296875 C23.1273437,10.1546875 23.5578125,11.2085937 23.5578125,12.40625 C23.5578125,13.6039062 23.1265625,14.6570312 22.2648438,15.5195312 C21.403125,16.3820313 20.3492188,16.8125 19.1515625,16.8125 C19.1515625,16.8125 19.1515625,16.8125 19.1515625,16.8125 C18.0023438,16.8125 16.9960938,16.4296875 16.1820313,15.6632813 C15.3679687,14.9445312 14.8890625,13.9867187 14.7453125,12.8851562 C14.7453125,12.8851562 14.7453125,12.8851562 14.7453125,12.8851562 C14.7453125,12.8851562 13.6914062,12.8851562 13.6914062,12.8851562 C13.5476563,13.4601563 13.3085938,13.9390625 12.8773437,14.2742187 C12.4460937,14.6570312 11.9195313,14.8492187 11.296875,14.8492187 C10.6742187,14.8492187 10.1953125,14.6578125 9.7640625,14.2742187 C9.3328125,13.9390625 9.0453125,13.4601562 8.90234375,12.8851562 C8.90234375,12.8851562 8.90234375,12.8851562 8.90234375,12.8851562 C8.90234375,12.8851562 5.8375,12.8851562 5.8375,12.8851562 C5.74140625,13.4601563 5.4546875,13.9390625 5.0234375,14.2742187 C4.5921875,14.6570312 4.065625,14.8492187 3.44296875,14.8492187 C3.44296875,14.8492187 3.44296875,14.8492187 3.44296875,14.8492187 C2.77265625,14.8492187 2.19765625,14.6101562 1.71875,14.1304687 C1.23984375,13.6507812 1,13.0765625 1,12.40625 C1,11.7359375 1.23984375,11.1609375 1.71875,10.6820312 C2.19765625,10.203125 2.77265625,9.96328125 3.44296875,9.96328125 C3.44296875,9.96328125 3.44296875,9.96328125 3.44296875,9.96328125 C4.065625,9.96328125 4.5921875,10.1546875 5.0234375,10.4898437 C5.4546875,10.8726562 5.7421875,11.3515625 5.8375,11.9265625 C5.8375,11.9265625 5.8375,11.9265625 5.8375,11.9265625 L5.8375,11.9273438 Z"/>
  <title>Progress Solid</title>
</svg>