<svg xmlns="http://www.w3.org/2000/svg" viewBox="0 0 25 25" id="progress">
  <path d="M13.6914063,11.9273438 C13.6914063,11.9273438 14.7453125,11.9273438 14.7453125,11.9273438 C14.8890625,10.8257813 15.3679688,9.86796875 16.1820313,9.1015625 C16.9960938,8.3828125 18.0015625,8 19.1515625,8 C19.1515625,8 19.1515625,8 19.1515625,8 C20.3492188,8 21.4023438,8.43125 22.2648438,9.29296875 C23.1273437,10.1546875 23.5578125,11.2085937 23.5578125,12.40625 C23.5578125,13.6039062 23.1265625,14.6570312 22.2648438,15.5195312 C21.403125,16.3820313 20.3492188,16.8125 19.1515625,16.8125 C19.1515625,16.8125 19.1515625,16.8125 19.1515625,16.8125 C18.0023438,16.8125 16.9960938,16.4296875 16.1820313,15.6632813 C15.3679687,14.9445312 14.8890625,13.9867187 14.7453125,12.8851562 C14.7453125,12.8851562 14.7453125,12.8851562 14.7453125,12.8851562 C14.7453125,12.8851562 13.6914062,12.8851562 13.6914062,12.8851562 C13.5476563,13.4601563 13.3085938,13.9390625 12.8773437,14.2742187 C12.4460937,14.6570312 11.9195313,14.8492187 11.296875,14.8492187 C10.6742187,14.8492187 10.1953125,14.6578125 9.7640625,14.2742187 C9.3328125,13.9390625 9.0453125,13.4601562 8.90234375,12.8851562 C8.90234375,12.8851562 8.90234375,12.8851562 8.90234375,12.8851562 C8.90234375,12.8851562 5.8375,12.8851562 5.8375,12.8851562 C5.74140625,13.4601563 5.4546875,13.9390625 5.0234375,14.2742187 C4.5921875,14.6570312 4.065625,14.8492187 3.44296875,14.8492187 C3.44296875,14.8492187 3.44296875,14.8492187 3.44296875,14.8492187 C2.77265625,14.8492187 2.19765625,14.6101562 1.71875,14.1304687 C1.23984375,13.6507812 1,13.0765625 1,12.40625 C1,11.7359375 1.23984375,11.1609375 1.71875,10.6820312 C2.19765625,10.203125 2.77265625,9.96328125 3.44296875,9.96328125 C3.44296875,9.96328125 3.44296875,9.96328125 3.44296875,9.96328125 C4.065625,9.96328125 4.5921875,10.1546875 5.0234375,10.4898437 C5.4546875,10.8726562 5.7421875,11.3515625 5.8375,11.9265625 C5.8375,11.9265625 5.8375,11.9265625 5.8375,11.9265625 C5.8375,11.9265625 8.90234375,11.9265625 8.90234375,11.9265625 C9.04609375,11.3515625 9.33359375,10.8726562 9.7640625,10.4898437 C10.1953125,10.1546875 10.6742187,9.96328125 11.296875,9.96328125 C11.9195313,9.96328125 12.4460937,10.1546875 12.8773437,10.4898437 C13.3085938,10.8726562 13.5476563,11.3515625 13.6914062,11.9265625 C13.6914062,11.9265625 13.6914062,11.9265625 13.6914062,11.9265625 L13.6914063,11.9273438 Z M15.7507812,11.9273438 C15.7507812,11.9273438 15.7507812,11.9273438 15.7507812,11.9273438 C15.7507812,11.9273438 16.75625,11.9273438 16.75625,11.9273438 C16.8523437,11.3523438 17.1390625,10.8734375 17.5703125,10.490625 C18.0015625,10.1554688 18.528125,9.9640625 19.1507813,9.9640625 C19.1507813,9.9640625 19.1507813,9.9640625 19.1507813,9.9640625 C19.8210937,9.9640625 20.3960938,10.203125 20.875,10.6828125 C21.3539063,11.1625 21.59375,11.7367188 21.59375,12.4070313 C21.59375,13.0773438 21.3546875,13.6523438 20.875,14.13125 C20.3953125,14.6101563 19.8210937,14.85 19.1507813,14.85 C19.1507813,14.85 19.1507813,14.85 19.1507813,14.85 C18.528125,14.85 18.0015625,14.6585938 17.5703125,14.275 C17.1390625,13.9398438 16.8515625,13.4609375 16.75625,12.8859375 C16.75625,12.8859375 16.75625,12.8859375 16.75625,12.8859375 C16.75625,12.8859375 15.7507812,12.8859375 15.7507812,12.8859375 C15.8945312,13.7 16.2773438,14.41875 16.9,14.9929688 C17.5226563,15.5671875 18.2890625,15.8546875 19.1507813,15.8546875 C19.1507813,15.8546875 19.1507813,15.8546875 19.1507813,15.8546875 C20.0609375,15.8546875 20.875,15.5195313 21.5929688,14.8492188 C22.2632813,14.1789063 22.5984375,13.3648438 22.5984375,12.4070313 C22.5984375,11.4492188 22.2632813,10.6351563 21.5929688,9.96484375 C20.8742188,9.29453125 20.0601563,8.959375 19.1507813,8.959375 C19.1507813,8.959375 19.1507813,8.959375 19.1507813,8.959375 C18.2890625,8.959375 17.5226563,9.246875 16.9,9.82109375 C16.2773438,10.3953125 15.8945312,11.1140625 15.7507812,11.928125 L15.7507812,11.9273438 Z M18.0976562,13.459375 C18.3851563,13.746875 18.7203125,13.890625 19.1515625,13.890625 C19.5828125,13.890625 19.9179688,13.746875 20.2054688,13.459375 C20.4929687,13.171875 20.6367188,12.8367188 20.6367188,12.4054688 C20.6367188,11.9742188 20.4929687,11.6390625 20.2054688,11.3515625 C19.9179688,11.0640625 19.5828125,10.9203125 19.1515625,10.9203125 C18.7203125,10.9203125 18.3851563,11.0640625 18.0976562,11.3515625 C17.8101563,11.6390625 17.6664063,11.9742188 17.6664063,12.4054688 C17.6664063,12.8367188 17.8101563,13.171875 18.0976562,13.459375 Z M10.2429687,13.459375 C10.5304688,13.746875 10.865625,13.890625 11.296875,13.890625 C11.728125,13.890625 12.0632812,13.746875 12.3507812,13.459375 C12.6382812,13.171875 12.7820312,12.8367188 12.7820312,12.4054688 C12.7820312,11.9742188 12.6382812,11.6390625 12.3507812,11.3515625 C12.0632812,11.0640625 11.728125,10.9203125 11.296875,10.9203125 C10.865625,10.9203125 10.5304687,11.0640625 10.2429687,11.3515625 C9.95546875,11.6390625 9.81171875,11.9742188 9.81171875,12.4054688 C9.81171875,12.8367188 9.95546875,13.171875 10.2429687,13.459375 Z M2.38828125,13.459375 C2.67578125,13.746875 3.0109375,13.890625 3.4421875,13.890625 C3.8734375,13.890625 4.20859375,13.746875 4.49609375,13.459375 C4.78359375,13.171875 4.92734375,12.8367188 4.92734375,12.4054688 C4.92734375,11.9742188 4.78359375,11.6390625 4.49609375,11.3515625 C4.20859375,11.0640625 3.8734375,10.9203125 3.4421875,10.9203125 C3.0109375,10.9203125 2.67578125,11.0640625 2.38828125,11.3515625 C2.10078125,11.6390625 1.95703125,11.9742188 1.95703125,12.4054688 C1.95703125,12.8367188 2.10078125,13.171875 2.38828125,13.459375 L2.38828125,13.459375 Z"/>
  <title>Progress</title>
</svg>