<svg xmlns="http://www.w3.org/2000/svg" viewBox="0 0 25 25" id="puzzle">
  <path d="M8.28046875,4.1625 C8.28046875,4.1625 8.28046875,4.1625 8.28046875,4.1625 C8.66328125,4.7375 8.85546875,5.36015625 8.85546875,5.9828125 C8.85546875,5.9828125 8.85546875,5.9828125 8.85546875,5.9828125 C8.85546875,6.98828125 8.47265625,7.85078125 7.75390625,8.66484375 C7.03515625,9.47890625 6.1734375,9.8625 5.215625,9.8625 C5.215625,9.8625 5.215625,9.8625 5.215625,9.8625 C5.215625,9.8625 2.00703125,9.8625 2.00703125,9.8625 C2.00703125,9.8625 2.00703125,12.7835937 2.00703125,12.7835937 C2.00703125,13.0226562 2.103125,13.1664062 2.3421875,13.1664062 C2.3421875,13.1664062 2.3421875,13.1664062 2.3421875,13.1664062 C2.38984375,13.1664062 2.4859375,13.1664062 2.53359375,13.11875 C2.53359375,13.11875 2.53359375,13.11875 2.53359375,13.11875 C2.53359375,13.11875 2.6296875,13.0710937 2.6296875,13.0710937 C3.15625,12.8320312 3.68359375,12.6882812 4.21015625,12.6882812 C4.21015625,12.6882812 4.21015625,12.6882812 4.21015625,12.6882812 C5.215625,12.6882812 6.078125,13.0234375 6.79609375,13.69375 C7.51484375,14.4125 7.89765625,15.2265625 7.89765625,16.184375 C7.89765625,17.1421875 7.51484375,17.95625 6.79609375,18.6265625 C6.07734375,19.3453125 5.215625,19.6804687 4.21015625,19.6804687 C4.21015625,19.6804687 4.21015625,19.6804687 4.21015625,19.6804687 C3.63515625,19.6804687 3.0609375,19.5367187 2.53359375,19.2492187 C2.53359375,19.2492187 2.53359375,19.2492187 2.53359375,19.2492187 C2.4859375,19.2015625 2.4375,19.2015625 2.3421875,19.2015625 C2.3421875,19.2015625 2.3421875,19.2015625 2.3421875,19.2015625 C2.103125,19.2015625 2.00703125,19.3453125 2.00703125,19.584375 C2.00703125,19.584375 2.00703125,19.584375 2.00703125,19.584375 C2.00703125,19.584375 2.00703125,22.6015625 2.00703125,22.6015625 C2.00703125,22.6015625 16.7101563,22.6015625 16.7101563,22.6015625 C16.7101563,22.6015625 16.7101563,19.440625 16.7101563,19.440625 C16.7101563,18.8179687 16.9492188,18.2914062 17.4289063,17.8601562 C17.9085938,17.4289062 18.4828125,17.2375 19.1054688,17.2375 C19.1054688,17.2375 19.1054688,17.2375 19.1054688,17.2375 C19.5367188,17.2375 19.9195313,17.3335937 20.303125,17.5726562 C20.303125,17.5726562 20.303125,17.5726562 20.303125,17.5726562 C20.4945313,17.66875 20.734375,17.7164062 20.9734375,17.7164062 C20.9734375,17.7164062 20.9734375,17.7164062 20.9734375,17.7164062 C21.4046875,17.7164062 21.7875,17.5726562 22.1226563,17.2375 C22.4578125,16.95 22.6015625,16.6148437 22.6015625,16.1835937 C22.6015625,15.7523437 22.4578125,15.4171875 22.1226563,15.0820312 C21.7875,14.7945312 21.4039063,14.6507812 20.9734375,14.6507812 C20.9734375,14.6507812 20.9734375,14.6507812 20.9734375,14.6507812 C20.734375,14.6507812 20.4945313,14.6984375 20.303125,14.7945312 C20.303125,14.7945312 20.303125,14.7945312 20.303125,14.7945312 C19.9679688,15.0335937 19.5367188,15.1296875 19.1054688,15.1296875 C19.1054688,15.1296875 19.1054688,15.1296875 19.1054688,15.1296875 C18.4828125,15.1296875 17.9078125,14.890625 17.4289063,14.459375 C16.95,14.028125 16.7101563,13.5015625 16.7101563,12.8789062 C16.7101563,12.8789062 16.7101563,12.8789062 16.7101563,12.8789062 C16.7101563,12.8789062 16.7101563,9.86171875 16.7101563,9.86171875 C16.7101563,9.86171875 14.315625,9.86171875 14.315625,9.86171875 C13.3578125,9.86171875 12.54375,9.47890625 11.825,8.6640625 C11.10625,7.89765625 10.7234375,6.9875 10.7234375,5.98203125 C10.7234375,5.98203125 10.7234375,5.98203125 10.7234375,5.98203125 C10.7234375,5.359375 10.8671875,4.73671875 11.2023438,4.1625 C11.2023438,4.1625 11.2023438,4.1625 11.2023438,4.1625 C11.3460938,4.01875 11.39375,3.7796875 11.39375,3.53984375 C11.39375,3.53984375 11.39375,3.53984375 11.39375,3.53984375 C11.39375,3.10859375 11.25,2.7734375 10.9148438,2.43828125 C10.5796875,2.15078125 10.1960938,2.00703125 9.765625,2.00703125 C9.33515625,2.00703125 8.9515625,2.15078125 8.61640625,2.43828125 C8.28125,2.7734375 8.1375,3.10859375 8.1375,3.53984375 C8.1375,3.53984375 8.1375,3.53984375 8.1375,3.53984375 C8.1375,3.77890625 8.18515625,3.97109375 8.28125,4.1625 L8.28046875,4.1625 Z M14.3148437,8.85625 C14.3148437,8.85625 14.3148437,8.85625 14.3148437,8.85625 C14.3148437,8.85625 17.7148438,8.85625 17.7148438,8.85625 C17.7148438,8.85625 17.7148438,12.8789062 17.7148438,12.8789062 C17.7148438,13.2140625 17.8585938,13.5015625 18.1460937,13.740625 C18.3851563,13.9796875 18.7210937,14.1234375 19.1039062,14.1234375 C19.1039062,14.1234375 19.1039062,14.1234375 19.1039062,14.1234375 C19.4390625,14.1234375 19.6789062,14.0757812 19.8226562,13.9320312 C19.8226562,13.9320312 19.8226562,13.9320312 19.8226562,13.9320312 C20.2054687,13.7882812 20.5890625,13.6929687 20.971875,13.6929687 C20.971875,13.6929687 20.971875,13.6929687 20.971875,13.6929687 C21.690625,13.6929687 22.3125,13.9320312 22.8398437,14.4117187 C23.3671875,14.8914062 23.60625,15.465625 23.60625,16.1835937 C23.60625,16.9023438 23.3671875,17.4765625 22.8398437,17.9554687 C22.3132812,18.4820312 21.690625,18.721875 20.971875,18.721875 C20.971875,18.721875 20.971875,18.721875 20.971875,18.721875 C20.540625,18.721875 20.1578125,18.6257812 19.8226562,18.434375 C19.8226562,18.434375 19.8226562,18.434375 19.8226562,18.434375 C19.5835937,18.290625 19.34375,18.1953125 19.1039062,18.1953125 C19.1039062,18.1953125 19.1039062,18.1953125 19.1039062,18.1953125 C18.76875,18.1953125 18.4335937,18.3390625 18.1460937,18.578125 C17.8585938,18.8171875 17.7148438,19.1046875 17.7148438,19.4398437 C17.7148438,19.4398437 17.7148438,19.4398437 17.7148438,19.4398437 C17.7148438,19.4398437 17.7148438,23.60625 17.7148438,23.60625 C17.7148438,23.60625 1,23.60625 1,23.60625 C1,23.60625 1,19.5835937 1,19.5835937 C1,19.2484375 1.14375,18.9132813 1.43125,18.6257812 C1.6703125,18.3382813 2.00625,18.1945313 2.34140625,18.1945313 C2.34140625,18.1945313 2.34140625,18.1945313 2.34140625,18.1945313 C2.48515625,18.1945313 2.72421875,18.2421875 3.06015625,18.3859375 C3.06015625,18.3859375 3.06015625,18.3859375 3.06015625,18.3859375 C3.44296875,18.625 3.8265625,18.7210937 4.209375,18.7210937 C4.209375,18.7210937 4.209375,18.7210937 4.209375,18.7210937 C4.928125,18.7210937 5.5984375,18.4820312 6.125,17.9546875 C6.6515625,17.4757813 6.89140625,16.9007812 6.89140625,16.1828125 C6.89140625,15.4648437 6.65234375,14.8898437 6.125,14.4109375 C5.5984375,13.9320312 4.92734375,13.6921875 4.209375,13.6921875 C4.209375,13.6921875 4.209375,13.6921875 4.209375,13.6921875 C3.8265625,13.6921875 3.44296875,13.7882812 3.06015625,13.93125 C3.06015625,13.93125 3.06015625,13.93125 3.06015625,13.93125 C2.82109375,14.075 2.58125,14.1226562 2.34140625,14.1226562 C2.34140625,14.1226562 2.34140625,14.1226562 2.34140625,14.1226562 C2.00625,14.1226562 1.67109375,13.9789062 1.43125,13.6914062 C1.14375,13.4523437 1,13.1164062 1,12.78125 C1,12.78125 1,12.78125 1,12.78125 C1,12.78125 1,8.85390625 1,8.85390625 C1,8.85390625 5.21484375,8.85390625 5.21484375,8.85390625 C5.93359375,8.85390625 6.55546875,8.56640625 7.0828125,7.94375 C7.61015625,7.32109375 7.84921875,6.6984375 7.84921875,5.98046875 C7.84921875,5.98046875 7.84921875,5.98046875 7.84921875,5.98046875 C7.84921875,5.45390625 7.70546875,5.02265625 7.41796875,4.63984375 C7.41796875,4.63984375 7.41796875,4.63984375 7.41796875,4.63984375 C7.27421875,4.25703125 7.17890625,3.8734375 7.17890625,3.53828125 C7.17890625,3.53828125 7.17890625,3.53828125 7.17890625,3.53828125 C7.17890625,2.81953125 7.41796875,2.2453125 7.9453125,1.71875 C8.471875,1.23984375 9.046875,1 9.76484375,1 C9.76484375,1 9.76484375,1 9.76484375,1 C10.4835938,1 11.1054688,1.2390625 11.6328125,1.71875 C12.159375,2.2453125 12.3992188,2.8203125 12.3992188,3.53828125 C12.3992188,3.53828125 12.3992188,3.53828125 12.3992188,3.53828125 C12.3992188,3.8734375 12.303125,4.25703125 12.0640625,4.63984375 C12.0640625,4.63984375 12.0640625,4.63984375 12.0640625,4.63984375 C11.825,5.07109375 11.68125,5.5015625 11.68125,5.98046875 C11.68125,5.98046875 11.68125,5.98046875 11.68125,5.98046875 C11.68125,6.69921875 11.9203125,7.36953125 12.4476563,7.94375 C12.9742188,8.56640625 13.596875,8.85390625 14.315625,8.85390625 L14.3148437,8.85625 Z"/>
  <title>Puzzle</title>
</svg>