<svg xmlns="http://www.w3.org/2000/svg" viewBox="0 0 25 25" id="puzzle-solid">
  <path d="M14.3148437,8.85625 C14.3148437,8.85625 14.3148437,8.85625 14.3148437,8.85625 C14.3148437,8.85625 17.7148438,8.85625 17.7148438,8.85625 C17.7148438,8.85625 17.7148438,12.8789062 17.7148438,12.8789062 C17.7148438,13.2140625 17.8585938,13.5015625 18.1460937,13.740625 C18.3851563,13.9796875 18.7210937,14.1234375 19.1039062,14.1234375 C19.1039062,14.1234375 19.1039062,14.1234375 19.1039062,14.1234375 C19.4390625,14.1234375 19.6789062,14.0757812 19.8226562,13.9320312 C19.8226562,13.9320312 19.8226562,13.9320312 19.8226562,13.9320312 C20.2054687,13.7882812 20.5890625,13.6929687 20.971875,13.6929687 C20.971875,13.6929687 20.971875,13.6929687 20.971875,13.6929687 C21.690625,13.6929687 22.3125,13.9320312 22.8398437,14.4117187 C23.3671875,14.8914062 23.60625,15.465625 23.60625,16.1835937 C23.60625,16.9023438 23.3671875,17.4765625 22.8398437,17.9554687 C22.3132812,18.4820312 21.690625,18.721875 20.971875,18.721875 C20.971875,18.721875 20.971875,18.721875 20.971875,18.721875 C20.540625,18.721875 20.1578125,18.6257812 19.8226562,18.434375 C19.8226562,18.434375 19.8226562,18.434375 19.8226562,18.434375 C19.5835937,18.290625 19.34375,18.1953125 19.1039062,18.1953125 C19.1039062,18.1953125 19.1039062,18.1953125 19.1039062,18.1953125 C18.76875,18.1953125 18.4335937,18.3390625 18.1460937,18.578125 C17.8585938,18.8171875 17.7148438,19.1046875 17.7148438,19.4398437 C17.7148438,19.4398437 17.7148438,19.4398437 17.7148438,19.4398437 C17.7148438,19.4398437 17.7148438,23.60625 17.7148438,23.60625 C17.7148438,23.60625 1,23.60625 1,23.60625 C1,23.60625 1,19.5835937 1,19.5835937 C1,19.2484375 1.14375,18.9132813 1.43125,18.6257812 C1.6703125,18.3382813 2.00625,18.1945313 2.34140625,18.1945313 C2.34140625,18.1945313 2.34140625,18.1945313 2.34140625,18.1945313 C2.48515625,18.1945313 2.72421875,18.2421875 3.06015625,18.3859375 C3.06015625,18.3859375 3.06015625,18.3859375 3.06015625,18.3859375 C3.44296875,18.625 3.8265625,18.7210937 4.209375,18.7210937 C4.209375,18.7210937 4.209375,18.7210937 4.209375,18.7210937 C4.928125,18.7210937 5.5984375,18.4820312 6.125,17.9546875 C6.6515625,17.4757813 6.89140625,16.9007812 6.89140625,16.1828125 C6.89140625,15.4648437 6.65234375,14.8898437 6.125,14.4109375 C5.5984375,13.9320312 4.92734375,13.6921875 4.209375,13.6921875 C4.209375,13.6921875 4.209375,13.6921875 4.209375,13.6921875 C3.8265625,13.6921875 3.44296875,13.7882812 3.06015625,13.93125 C3.06015625,13.93125 3.06015625,13.93125 3.06015625,13.93125 C2.82109375,14.075 2.58125,14.1226562 2.34140625,14.1226562 C2.34140625,14.1226562 2.34140625,14.1226562 2.34140625,14.1226562 C2.00625,14.1226562 1.67109375,13.9789062 1.43125,13.6914062 C1.14375,13.4523437 1,13.1164062 1,12.78125 C1,12.78125 1,12.78125 1,12.78125 C1,12.78125 1,8.85390625 1,8.85390625 C1,8.85390625 5.21484375,8.85390625 5.21484375,8.85390625 C5.93359375,8.85390625 6.55546875,8.56640625 7.0828125,7.94375 C7.61015625,7.32109375 7.84921875,6.6984375 7.84921875,5.98046875 C7.84921875,5.98046875 7.84921875,5.98046875 7.84921875,5.98046875 C7.84921875,5.45390625 7.70546875,5.02265625 7.41796875,4.63984375 C7.41796875,4.63984375 7.41796875,4.63984375 7.41796875,4.63984375 C7.27421875,4.25703125 7.17890625,3.8734375 7.17890625,3.53828125 C7.17890625,3.53828125 7.17890625,3.53828125 7.17890625,3.53828125 C7.17890625,2.81953125 7.41796875,2.2453125 7.9453125,1.71875 C8.471875,1.23984375 9.046875,1 9.76484375,1 C9.76484375,1 9.76484375,1 9.76484375,1 C10.4835938,1 11.1054688,1.2390625 11.6328125,1.71875 C12.159375,2.2453125 12.3992188,2.8203125 12.3992188,3.53828125 C12.3992188,3.53828125 12.3992188,3.53828125 12.3992188,3.53828125 C12.3992188,3.8734375 12.303125,4.25703125 12.0640625,4.63984375 C12.0640625,4.63984375 12.0640625,4.63984375 12.0640625,4.63984375 C11.825,5.07109375 11.68125,5.5015625 11.68125,5.98046875 C11.68125,5.98046875 11.68125,5.98046875 11.68125,5.98046875 C11.68125,6.69921875 11.9203125,7.36953125 12.4476563,7.94375 C12.9742188,8.56640625 13.596875,8.85390625 14.315625,8.85390625 L14.3148437,8.85625 Z"/>
  <title>Puzzle Solid</title>
</svg>