<svg xmlns="http://www.w3.org/2000/svg" viewBox="0 0 25 25" id="qr">
  <path d="M2.921875,7.8546875 C2.921875,7.8546875 2.921875,2.921875 2.921875,2.921875 C2.921875,2.921875 7.8546875,2.921875 7.8546875,2.921875 C7.8546875,2.921875 7.8546875,7.8546875 7.8546875,7.8546875 C7.8546875,7.8546875 2.921875,7.8546875 2.921875,7.8546875 Z M0.9578125,0.9578125 C0.9578125,0.9578125 9.81796875,0.9578125 9.81796875,0.9578125 C9.81796875,0.9578125 9.81796875,9.81796875 9.81796875,9.81796875 C9.81796875,9.81796875 0.9578125,9.81796875 0.9578125,9.81796875 C0.9578125,9.81796875 0.9578125,0.9578125 0.9578125,0.9578125 Z M10.7757812,10.7757812 C10.7757812,10.7757812 10.7757812,0 10.7757812,0 C10.7757812,0 0,0 0,0 C0,0 0,10.7757812 0,10.7757812 C0,10.7757812 10.7757812,10.7757812 10.7757812,10.7757812 Z M2.921875,21.5523438 C2.921875,21.5523438 2.921875,16.6671875 2.921875,16.6671875 C2.921875,16.6671875 7.8546875,16.6671875 7.8546875,16.6671875 C7.8546875,16.6671875 7.8546875,21.5523438 7.8546875,21.5523438 C7.8546875,21.5523438 2.921875,21.5523438 2.921875,21.5523438 Z M0.9578125,14.703125 C0.9578125,14.703125 9.81796875,14.703125 9.81796875,14.703125 C9.81796875,14.703125 9.81796875,23.515625 9.81796875,23.515625 C9.81796875,23.515625 0.9578125,23.515625 0.9578125,23.515625 C0.9578125,23.515625 0.9578125,14.703125 0.9578125,14.703125 Z M10.7757812,24.5210937 C10.7757812,24.5210937 10.7757812,13.7453125 10.7757812,13.7453125 C10.7757812,13.7453125 0,13.7453125 0,13.7453125 C0,13.7453125 0,24.5210937 0,24.5210937 C0,24.5210937 10.7757812,24.5210937 10.7757812,24.5210937 Z M16.6664063,7.8546875 C16.6664063,7.8546875 16.6664063,2.921875 16.6664063,2.921875 C16.6664063,2.921875 21.5992188,2.921875 21.5992188,2.921875 C21.5992188,2.921875 21.5992188,7.8546875 21.5992188,7.8546875 C21.5992188,7.8546875 16.6664063,7.8546875 16.6664063,7.8546875 Z M15.7085938,22.5578125 C15.7085938,22.5578125 15.7085938,15.709375 15.7085938,15.709375 C15.7085938,15.709375 22.5570313,15.709375 22.5570313,15.709375 C22.5570313,15.709375 22.5570313,22.5578125 22.5570313,22.5578125 C22.5570313,22.5578125 15.7085938,22.5578125 15.7085938,22.5578125 L15.7085938,22.5578125 Z M14.703125,0.9578125 C14.703125,0.9578125 23.5632813,0.9578125 23.5632813,0.9578125 C23.5632813,0.9578125 23.5632813,9.81796875 23.5632813,9.81796875 C23.5632813,9.81796875 14.703125,9.81796875 14.703125,9.81796875 C14.703125,9.81796875 14.703125,0.9578125 14.703125,0.9578125 Z M24.5210937,10.7757812 C24.5210937,10.7757812 24.5210937,0 24.5210937,0 C24.5210937,0 13.7453125,0 13.7453125,0 C13.7453125,0 13.7453125,10.7757812 13.7453125,10.7757812 C13.7453125,10.7757812 24.5210937,10.7757812 24.5210937,10.7757812 Z"/>
  <title>Qr</title>
</svg>