<svg xmlns="http://www.w3.org/2000/svg" viewBox="0 0 25 25" id="quill">
  <path d="M0,24.5203125 C0,24.5203125 0,24.5203125 0,24.5203125 C0,24.5203125 1.5328125,24.5203125 1.5328125,24.5203125 C1.5328125,24.5203125 6.13046875,16.8578125 6.13046875,16.8578125 C6.13046875,16.8578125 10.728125,16.8578125 10.728125,16.8578125 C11.7820313,16.8578125 12.8835938,16.1875 13.9851563,14.8945312 C15.0867188,13.6015625 16.0445313,12.06875 16.9546875,10.3445313 C17.8648437,8.66796875 19.0140625,6.80078125 20.403125,4.74140625 C21.7921875,2.68203125 23.1328125,1.1015625 24.521875,0 C24.521875,0 24.521875,0 24.521875,0 C21.9835938,0 19.4929687,0.575 17.1460937,1.6765625 C14.7515625,2.82578125 12.6921875,4.2625 10.9679687,5.9390625 C9.24375,7.66328125 7.615625,9.675 6.13046875,11.9257813 C4.59765625,14.225 3.35234375,16.3796875 2.44296875,18.3914062 C1.48515625,20.4507813 0.67109375,22.4625 0.00078125,24.521875 L0,24.5203125 Z"/>
  <title>Quill</title>
</svg>