<svg xmlns="http://www.w3.org/2000/svg" viewBox="0 0 25 25" id="rabbit">
  <path d="M21.59375,20.1515625 C21.59375,20.1515625 21.59375,20.1515625 21.59375,20.1515625 C21.59375,20.1515625 21.59375,21.109375 21.59375,21.109375 C21.59375,21.4445313 21.45,21.6359375 21.1148438,21.6359375 C21.1148438,21.6359375 21.1148438,21.6359375 21.1148438,21.6359375 C21.1148438,21.6359375 16.1820313,21.6359375 16.1820313,21.6359375 C15.846875,21.6359375 15.703125,21.4445313 15.703125,21.109375 C15.703125,21.109375 15.703125,21.109375 15.703125,21.109375 C15.703125,20.7742188 15.846875,20.6304688 16.1820313,20.6304688 C16.1820313,20.6304688 16.1820313,20.6304688 16.1820313,20.6304688 C16.1820313,20.6304688 20.6359375,20.6304688 20.6359375,20.6304688 C20.6359375,20.6304688 20.6359375,20.4390625 20.6359375,20.4390625 C20.6359375,20.4390625 18.9117188,19.5773438 18.9117188,19.5773438 C18.9117188,19.5773438 18.815625,19.5296875 18.815625,19.5296875 C18.384375,19.0507813 18.1453125,18.0929688 18.1929688,16.65625 C18.240625,15.2195313 18.4320313,14.309375 18.815625,13.9265625 C18.815625,13.9265625 18.815625,13.9265625 18.815625,13.9265625 C18.8632813,13.8304688 19.0070313,13.7828125 19.1507813,13.7828125 C19.1507813,13.7828125 19.1507813,13.7828125 19.1507813,13.7828125 C19.4859375,13.7828125 19.6296875,13.9265625 19.6296875,14.2617188 C19.6296875,14.2617188 19.6296875,14.2617188 19.6296875,14.2617188 C19.6296875,14.4054688 19.5820313,14.5007813 19.4859375,14.596875 C19.4859375,14.596875 19.4859375,14.596875 19.4859375,14.596875 C19.246875,15.4109375 19.1507813,16.1296875 19.1507813,16.7523438 C19.1507813,16.7523438 19.1507813,16.7523438 19.1507813,16.7523438 C19.1507813,17.5664062 19.246875,18.2367187 19.4859375,18.8117187 C19.4859375,18.8117187 19.4859375,18.8117187 19.4859375,18.8117187 C19.4859375,18.8117187 21.3054688,19.721875 21.3054688,19.721875 C21.496875,19.7695312 21.5929688,19.9132812 21.5929688,20.153125 L21.59375,20.1515625 Z M23.1742188,7.07734375 C24.084375,7.84375 24.5632813,8.75390625 24.5632813,9.85546875 C24.5632813,10.9570313 24.1804688,11.8671875 23.4140625,12.6335938 C22.6476563,13.4 21.7375,13.7828125 20.6359375,13.7828125 C19.534375,13.7828125 18.6242188,13.4 17.8578125,12.6335938 C17.8578125,12.6335938 17.8578125,12.6335938 17.8578125,12.6335938 C17.7617188,12.5375 17.7140625,12.4421875 17.7140625,12.2984375 C17.7140625,12.2984375 17.7140625,12.2984375 17.7140625,12.2984375 C17.7140625,11.9632813 17.8578125,11.8195313 18.1929688,11.8195313 C18.1929688,11.8195313 18.1929688,11.8195313 18.1929688,11.8195313 C18.3367188,11.8195313 18.4804688,11.8671875 18.5757813,11.9632813 C18.5757813,11.9632813 18.5757813,11.9632813 18.5757813,11.9632813 C19.1984375,12.4898438 19.86875,12.7773438 20.6351563,12.7773438 C21.4015625,12.7773438 22.071875,12.4898438 22.646875,11.9632813 C23.1734375,11.4367188 23.5085938,10.8140625 23.5570313,10.0953125 C23.5570313,10.0953125 23.5570313,10.0953125 23.5570313,10.0953125 C23.5570313,10.0953125 23.078125,9.85625 23.078125,9.85625 C23.078125,9.85625 23.078125,9.425 23.078125,9.425 C23.078125,9.425 23.4132813,9.08984375 23.4132813,9.08984375 C22.790625,7.70078125 21.6890625,6.934375 20.1085938,6.88671875 C20.1085938,6.88671875 20.1085938,6.88671875 20.1085938,6.88671875 C20.1085938,6.88671875 19.1507813,6.88671875 19.1507813,6.88671875 C18.815625,6.88671875 18.671875,6.74296875 18.671875,6.4078125 C18.671875,6.4078125 18.671875,6.4078125 18.671875,6.4078125 C18.671875,5.78515625 17.9054688,5.0671875 16.325,4.2046875 C14.7445313,3.390625 13.4039063,2.959375 12.3023438,2.959375 C12.3023438,2.959375 12.3023438,2.959375 12.3023438,2.959375 C10.6257813,2.959375 9.81171875,3.390625 9.81171875,4.3 C9.81171875,4.3 9.81171875,4.3 9.81171875,4.3 C9.859375,4.73125 10.0992188,5.1140625 10.434375,5.4015625 C10.7695313,5.73671875 11.153125,5.88046875 11.5835938,5.928125 C11.5835938,5.928125 11.5835938,5.928125 11.5835938,5.928125 C11.5835938,5.928125 12.0148438,5.928125 12.0148438,5.928125 C14.5054688,5.73671875 16.18125,6.071875 17.04375,6.8859375 C17.04375,6.8859375 17.04375,6.8859375 17.04375,6.8859375 C17.475,7.3171875 17.6664063,7.79609375 17.6664063,8.32265625 C17.6664063,8.32265625 17.6664063,8.32265625 17.6664063,8.32265625 C17.6664063,8.32265625 17.6664063,8.3703125 17.6664063,8.3703125 C17.6664063,9.184375 17.2835938,10.0945313 16.5171875,11.1484375 C15.703125,12.25 14.9367188,12.7765625 14.2179688,12.7765625 C14.2179688,12.7765625 14.2179688,12.7765625 14.2179688,12.7765625 C13.4039063,12.6804688 12.6375,12.4890625 11.8710938,12.2015625 C11.8710938,12.2015625 11.8710938,12.2015625 11.8710938,12.2015625 C11.4398438,12.0578125 10.9132813,11.9140625 10.3867188,11.81875 C10.3867188,11.81875 10.3867188,11.81875 10.3867188,11.81875 C10.3867188,11.81875 10.0992188,11.81875 10.0992188,11.81875 C8.9015625,11.81875 7.94375,12.2015625 7.1296875,13.0164063 C6.315625,13.83125 5.884375,14.8359375 5.884375,15.9859375 C5.884375,15.9859375 5.884375,15.9859375 5.884375,15.9859375 C5.884375,15.9859375 5.884375,16.225 5.884375,16.225 C5.884375,17.2789063 6.2671875,18.284375 7.03359375,19.1945313 C7.8,20.1523438 8.56640625,20.63125 9.3328125,20.63125 C9.3328125,20.63125 9.3328125,20.63125 9.3328125,20.63125 C9.3328125,20.63125 13.7390625,20.63125 13.7390625,20.63125 C13.7390625,20.63125 13.7390625,20.5351563 13.7390625,20.5351563 C13.7390625,20.5351563 10.6742187,19.625 10.6742187,19.625 C10.6742187,19.625 10.6265625,19.625 10.6265625,19.625 C10.6265625,19.625 10.5789063,19.5773438 10.5789063,19.5773438 C10.5789063,19.5773438 10.3875,19.3859375 10.3875,19.3859375 C10.3398438,19.3382813 10.3398438,19.3382813 10.3398438,19.2898438 C10.3398438,19.2898438 10.3398438,19.2898438 10.3398438,19.2898438 C10.3398438,19.2898438 10.3398438,19.19375 10.3398438,19.19375 C10.3398438,19.19375 10.3398438,19.1460938 10.3398438,19.1460938 C10.3398438,19.1460938 10.3398438,19.05 10.3398438,19.05 C10.3398438,19.05 10.3398438,19.0023438 10.3398438,19.0023438 C10.3875,18.9546875 10.3875,18.9546875 10.3875,18.90625 C10.3875,18.8578125 10.3875,18.8585938 10.4351563,18.8585938 C10.4351563,18.8585938 10.4351563,18.8585938 10.4351563,18.8585938 C10.4351563,18.8585938 10.4828125,18.7625 10.4828125,18.7625 C10.5304688,18.7625 10.5789063,18.7625 10.5789063,18.7148438 C10.5789063,18.7148438 10.5789063,18.7148438 10.5789063,18.7148438 C10.6265625,18.7148438 10.6265625,18.7148438 10.675,18.6671875 C10.675,18.6671875 10.675,18.6671875 10.675,18.6671875 C10.675,18.6671875 10.7710937,18.6671875 10.7710937,18.6671875 C10.7710937,18.6671875 10.81875,18.6671875 10.81875,18.6671875 C11.3453125,18.6671875 11.8242187,18.4757813 12.2078125,18.0921875 C12.5914062,17.7085937 12.7828125,17.2304688 12.7828125,16.703125 C12.7828125,16.1765625 12.5914062,15.6976563 12.2078125,15.3140625 C11.8242187,14.9304688 11.3460937,14.7390625 10.81875,14.7390625 C10.2921875,14.7390625 9.81328125,14.9304688 9.4296875,15.3140625 C9.04609375,15.6976563 8.8546875,16.1757812 8.8546875,16.703125 C8.8546875,16.703125 8.8546875,16.703125 8.8546875,16.703125 C8.8546875,17.0382813 8.7109375,17.1820313 8.37578125,17.1820313 C8.37578125,17.1820313 8.37578125,17.1820313 8.37578125,17.1820313 C8.040625,17.1820313 7.84921875,17.0382813 7.84921875,16.703125 C7.84921875,16.703125 7.84921875,16.703125 7.84921875,16.703125 C7.84921875,15.8890625 8.13671875,15.21875 8.7109375,14.64375 C9.28515625,14.06875 10.0039062,13.7820312 10.8179688,13.7820312 C10.8179688,13.7820312 10.8179688,13.7820312 10.8179688,13.7820312 C11.6320312,13.7820312 12.3023437,14.0695312 12.8773437,14.64375 C13.4523437,15.2179688 13.7390625,15.8890625 13.7390625,16.703125 C13.7390625,16.703125 13.7390625,16.703125 13.7390625,16.703125 C13.7390625,17.7085937 13.3078125,18.5226563 12.49375,19.0976562 C12.49375,19.0976562 12.49375,19.0976562 12.49375,19.0976562 C12.49375,19.0976562 14.3617187,19.6726563 14.3617187,19.6726563 C14.6007813,19.7203125 14.7445312,19.9117188 14.7445312,20.1515625 C14.7445312,20.1515625 14.7445312,20.1515625 14.7445312,20.1515625 C14.7445312,20.1515625 14.7445312,21.109375 14.7445312,21.109375 C14.7445312,21.4445313 14.553125,21.6359375 14.2179687,21.6359375 C14.2179687,21.6359375 14.2179687,21.6359375 14.2179687,21.6359375 C14.2179687,21.6359375 9.3328125,21.6359375 9.3328125,21.6359375 C8.47109375,21.6359375 7.60859375,21.2046875 6.79453125,20.3429688 C5.9328125,19.5289062 5.3578125,18.5710937 5.0703125,17.4695312 C5.0703125,17.4695312 5.0703125,17.4695312 5.0703125,17.4695312 C4.6875,17.6132812 4.30390625,17.7085937 3.92109375,17.7085937 C3.92109375,17.7085937 3.92109375,17.7085937 3.92109375,17.7085937 C3.10703125,17.7085937 2.43671875,17.4210938 1.86171875,16.846875 C1.28671875,16.2726562 1,15.5539062 1,14.7398438 C1,13.9257812 1.2875,13.2070312 1.86171875,12.6328125 C2.43671875,12.10625 3.10703125,11.81875 3.92109375,11.81875 C3.92109375,11.81875 3.92109375,11.81875 3.92109375,11.81875 C4.83125,11.81875 5.54921875,12.10625 6.0765625,12.7289063 C6.0765625,12.7289063 6.0765625,12.7289063 6.0765625,12.7289063 C7.178125,11.4359375 8.5671875,10.8132813 10.1476562,10.8132813 C10.1476562,10.8132813 10.1476562,10.8132813 10.1476562,10.8132813 C10.1476562,10.8132813 10.3390625,10.8132813 10.3390625,10.8132813 C10.9617187,10.909375 11.584375,11.1007813 12.3023437,11.3398438 C12.3023437,11.3398438 12.3023437,11.3398438 12.3023437,11.3398438 C12.6375,11.4835938 13.2601562,11.6273438 14.1703125,11.81875 C14.1703125,11.81875 14.1703125,11.81875 14.1703125,11.81875 C14.6492187,11.81875 15.1757812,11.3875 15.7984375,10.5257812 C16.4210937,9.6640625 16.7085937,8.9453125 16.7085937,8.3703125 C16.7085937,8.3703125 16.7085937,8.3703125 16.7085937,8.3703125 C16.7085937,8.3703125 16.7085937,8.32265625 16.7085937,8.32265625 C16.7085937,8.08359375 16.6125,7.84375 16.3734375,7.60390625 C16.3734375,7.60390625 16.3734375,7.60390625 16.3734375,7.60390625 C15.7984375,7.02890625 14.3617187,6.78984375 12.0632812,6.88515625 C12.0632812,6.88515625 12.0632812,6.88515625 12.0632812,6.88515625 C12.0632812,6.88515625 11.584375,6.88515625 11.584375,6.88515625 C10.865625,6.88515625 10.2914062,6.64609375 9.76484375,6.11875 C9.23828125,5.63984375 8.903125,5.06484375 8.8546875,4.346875 C8.8546875,4.346875 8.8546875,4.346875 8.8546875,4.346875 C8.8546875,3.628125 9.1421875,3.05390625 9.76484375,2.62265625 C10.3875,2.19140625 11.2015625,2 12.303125,2 C12.303125,2 12.303125,2 12.303125,2 C13.4523437,2 14.8890625,2.43125 16.565625,3.2453125 C18.2421875,4.10703125 19.2,5.0171875 19.5351562,5.92734375 C19.5351562,5.92734375 19.5351562,5.92734375 19.5351562,5.92734375 C19.5351562,5.92734375 20.1101562,5.92734375 20.1101562,5.92734375 C21.2117187,5.92734375 22.265625,6.31015625 23.175,7.0765625 L23.1742188,7.07734375 Z M5.55,13.590625 C5.55,13.590625 5.55,13.6382813 5.55,13.6382813 C5.11875,13.0632813 4.5921875,12.7765625 3.8734375,12.7765625 C3.8734375,12.7765625 3.8734375,12.7765625 3.8734375,12.7765625 C3.346875,12.7765625 2.86796875,12.9679688 2.484375,13.3515625 C2.10078125,13.7351563 1.909375,14.2132813 1.909375,14.740625 C1.909375,15.2671875 2.10078125,15.7460938 2.484375,16.1296875 C2.86796875,16.5132813 3.34609375,16.7046875 3.8734375,16.7046875 C3.8734375,16.7046875 3.8734375,16.7046875 3.8734375,16.7046875 C4.3046875,16.7046875 4.63984375,16.6085938 4.92734375,16.4171875 C4.92734375,16.4171875 4.92734375,16.4171875 4.92734375,16.4171875 C4.92734375,16.4171875 4.92734375,16.2257813 4.92734375,16.2257813 C4.92734375,16.2257813 4.92734375,16.178125 4.92734375,16.178125 C4.92734375,15.2679688 5.11875,14.40625 5.55,13.5921875 C5.55,13.5921875 5.55,13.5921875 5.55,13.5921875 L5.55,13.590625 Z M21.1148438,8.84921875 C21.45,8.84921875 21.59375,8.70546875 21.59375,8.3703125 C21.59375,8.03515625 21.45,7.89140625 21.1148438,7.89140625 C20.7796875,7.89140625 20.6359375,8.03515625 20.6359375,8.3703125 C20.6359375,8.70546875 20.7796875,8.84921875 21.1148438,8.84921875 Z"/>
  <title>Rabbit</title>
</svg>