<svg xmlns="http://www.w3.org/2000/svg" viewBox="0 0 25 25" id="radio-solid">
  <path d="M20.5945312,17.1453125 C20.5945312,17.1453125 20.5945312,17.1453125 20.5945312,17.1453125 C20.5945312,18.103125 20.259375,18.9171875 19.5890625,19.5875 C18.91875,20.2578125 18.1046875,20.5929687 17.146875,20.5929687 C17.146875,20.5929687 17.146875,20.5929687 17.146875,20.5929687 C16.2367188,20.5929687 15.4226562,20.2578125 14.7523437,19.5875 C14.0820312,18.9171875 13.746875,18.103125 13.746875,17.1453125 C13.746875,17.1453125 13.746875,17.1453125 13.746875,17.1453125 C13.746875,16.2351562 14.0820312,15.4210937 14.7523437,14.7507812 C15.4226562,14.0804687 16.2367187,13.7453125 17.146875,13.7453125 C17.146875,13.7453125 17.146875,13.7453125 17.146875,13.7453125 C18.1046875,13.7453125 18.91875,14.0804687 19.5890625,14.7507812 C20.259375,15.4210937 20.5945312,16.2351562 20.5945312,17.1453125 Z M24.521875,7.37578125 C24.521875,7.37578125 24.521875,7.37578125 24.521875,7.37578125 C24.521875,7.37578125 24.521875,23.0367187 24.521875,23.0367187 C24.521875,23.4679687 24.378125,23.803125 24.090625,24.090625 C23.803125,24.378125 23.4679688,24.521875 23.0367188,24.521875 C23.0367188,24.521875 23.0367188,24.521875 23.0367188,24.521875 C23.0367188,24.521875 1.48515625,24.521875 1.48515625,24.521875 C1.05390625,24.521875 0.71875,24.378125 0.43125,24.090625 C0.14375,23.803125 0,23.4679688 0,23.0367188 C0,23.0367188 0,23.0367188 0,23.0367188 C0,23.0367188 0,7.37578125 0,7.37578125 C0,6.94453125 0.14375,6.609375 0.43125,6.321875 C0.71875,6.034375 1.05390625,5.890625 1.48515625,5.890625 C1.48515625,5.890625 1.48515625,5.890625 1.48515625,5.890625 C1.48515625,5.890625 18.8703125,5.890625 18.8703125,5.890625 C18.8703125,5.890625 3.30546875,0.9578125 3.30546875,0.9578125 C3.06640625,0.86171875 2.9703125,0.71875 2.9703125,0.47890625 C2.9703125,0.47890625 2.9703125,0.47890625 2.9703125,0.47890625 C2.9703125,0.14375 3.1140625,0 3.44921875,0 C3.44921875,0 3.44921875,0 3.44921875,0 C3.44921875,0 3.59296875,0 3.59296875,0 C3.59296875,0 22.1273438,5.890625 22.1273438,5.890625 C22.1273438,5.890625 23.0375,5.890625 23.0375,5.890625 C23.46875,5.890625 23.8039063,6.034375 24.0914063,6.321875 C24.3789062,6.609375 24.5226563,6.94453125 24.5226563,7.37578125 L24.521875,7.37578125 Z M9.33984375,18.6304687 C9.675,18.6304687 9.81875,18.4867187 9.81875,18.1515625 C9.81875,17.8164062 9.675,17.6726562 9.33984375,17.6726562 C9.33984375,17.6726562 9.33984375,17.6726562 9.33984375,17.6726562 C9.33984375,17.6726562 3.44921875,17.6726562 3.44921875,17.6726562 C3.1140625,17.6726562 2.92265625,17.8164062 2.92265625,18.1515625 C2.92265625,18.4867187 3.1140625,18.6304687 3.44921875,18.6304687 C3.44921875,18.6304687 3.44921875,18.6304687 3.44921875,18.6304687 C3.44921875,18.6304687 9.33984375,18.6304687 9.33984375,18.6304687 Z M9.81875,15.1820312 C9.81875,15.1820312 9.81875,15.1820312 9.81875,15.1820312 C9.81875,14.846875 9.675,14.703125 9.33984375,14.703125 C9.33984375,14.703125 9.33984375,14.703125 9.33984375,14.703125 C9.33984375,14.703125 3.44921875,14.703125 3.44921875,14.703125 C3.1140625,14.703125 2.92265625,14.846875 2.92265625,15.1820312 C2.92265625,15.1820312 2.92265625,15.1820312 2.92265625,15.1820312 C2.92265625,15.5171875 3.1140625,15.7085937 3.44921875,15.7085937 C3.44921875,15.7085937 3.44921875,15.7085937 3.44921875,15.7085937 C3.44921875,15.7085937 9.33984375,15.7085937 9.33984375,15.7085937 C9.675,15.7085937 9.81875,15.5171875 9.81875,15.1820312 Z M20.3070312,20.2585937 C21.16875,19.396875 21.6,18.3429687 21.6,17.1453125 C21.6,15.9476562 21.16875,14.8945312 20.3070312,14.0320312 C19.396875,13.1703125 18.34375,12.7390625 17.1460937,12.7390625 C15.9484375,12.7390625 14.8953125,13.1703125 14.0328125,14.0320312 C13.1710938,14.89375 12.7398438,15.9476562 12.7398438,17.1453125 C12.7398438,18.3429687 13.1710938,19.3960937 14.0328125,20.2585937 C14.8945313,21.16875 15.9484375,21.5992187 17.1460937,21.5992187 C18.34375,21.5992187 19.396875,21.1679687 20.3070312,20.2585937 Z M21.0734375,10.7757812 C21.4085938,10.7757812 21.6,10.6320312 21.6,10.296875 C21.6,9.96171875 21.4085938,9.81796875 21.0734375,9.81796875 C21.0734375,9.81796875 21.0734375,9.81796875 21.0734375,9.81796875 C21.0734375,9.81796875 20.5945313,9.81796875 20.5945313,9.81796875 C20.5945313,9.81796875 20.5945313,8.8125 20.5945313,8.8125 C20.5945313,8.8125 19.6367188,8.8125 19.6367188,8.8125 C19.6367188,8.8125 19.6367188,9.81796875 19.6367188,9.81796875 C19.6367188,9.81796875 3.44921875,9.81796875 3.44921875,9.81796875 C3.1140625,9.81796875 2.92265625,9.96171875 2.92265625,10.296875 C2.92265625,10.6320312 3.1140625,10.7757812 3.44921875,10.7757812 C3.44921875,10.7757812 3.44921875,10.7757812 3.44921875,10.7757812 C3.44921875,10.7757812 21.0734375,10.7757812 21.0734375,10.7757812 L21.0734375,10.7757812 Z"/>
  <title>Radio Solid</title>
</svg>