<svg xmlns="http://www.w3.org/2000/svg" viewBox="0 0 25 25" id="radio">
  <path d="M23.0367188,5.9328125 C23.0367188,5.9328125 23.0367188,5.9328125 23.0367188,5.9328125 C23.0367188,5.9328125 22.1265625,5.9328125 22.1265625,5.9328125 C22.1265625,5.9328125 3.54453125,1.04765625 3.54453125,1.04765625 C3.54453125,1.04765625 3.4484375,1 3.4484375,1 C3.11328125,1 2.921875,1.19140625 2.921875,1.5265625 C2.921875,1.5265625 2.921875,1.5265625 2.921875,1.5265625 C2.921875,1.71796875 3.065625,1.86171875 3.3046875,2.00546875 C3.3046875,2.00546875 3.3046875,2.00546875 3.3046875,2.00546875 C3.3046875,2.00546875 18.2953125,5.9328125 18.2953125,5.9328125 C18.2953125,5.9328125 1.48515625,5.9328125 1.48515625,5.9328125 C1.05390625,5.9328125 0.71875,6.0765625 0.43125,6.3640625 C0.14375,6.6515625 0,6.98671875 0,7.41796875 C0,7.41796875 0,7.41796875 0,7.41796875 C0,7.41796875 0,23.0789063 0,23.0789063 C0,23.5101563 0.14375,23.8453125 0.43125,24.1328125 C0.71875,24.4203125 1.05390625,24.5640625 1.48515625,24.5640625 C1.48515625,24.5640625 1.48515625,24.5640625 1.48515625,24.5640625 C1.48515625,24.5640625 23.0367188,24.5640625 23.0367188,24.5640625 C23.4679688,24.5640625 23.803125,24.4203125 24.090625,24.1328125 C24.378125,23.8453125 24.521875,23.5101563 24.521875,23.0789063 C24.521875,23.0789063 24.521875,23.0789063 24.521875,23.0789063 C24.521875,23.0789063 24.521875,7.41796875 24.521875,7.41796875 C24.521875,6.98671875 24.378125,6.6515625 24.090625,6.3640625 C23.803125,6.0765625 23.4679688,5.9328125 23.0367188,5.9328125 Z M23.5632813,7.36953125 C23.5632813,7.36953125 23.5632813,23.1265625 23.5632813,23.1265625 C23.5632813,23.4140625 23.4195312,23.5578125 23.084375,23.5578125 C23.084375,23.5578125 23.084375,23.5578125 23.084375,23.5578125 C23.084375,23.5578125 1.43671875,23.5578125 1.43671875,23.5578125 C1.1015625,23.5578125 0.9578125,23.4140625 0.9578125,23.1265625 C0.9578125,23.1265625 0.9578125,23.1265625 0.9578125,23.1265625 C0.9578125,23.1265625 0.9578125,7.36953125 0.9578125,7.36953125 C0.9578125,7.034375 1.1015625,6.890625 1.43671875,6.890625 C1.43671875,6.890625 1.43671875,6.890625 1.43671875,6.890625 C1.43671875,6.890625 23.084375,6.890625 23.084375,6.890625 C23.4195312,6.890625 23.5632813,7.034375 23.5632813,7.36953125 C23.5632813,7.36953125 23.5632813,7.36953125 23.5632813,7.36953125 Z M21.0726562,9.86015625 C21.4078125,9.86015625 21.5992187,10.0039062 21.5992187,10.3390625 C21.5992187,10.6742187 21.4078125,10.8179687 21.0726562,10.8179687 C21.0726562,10.8179687 21.0726562,10.8179687 21.0726562,10.8179687 C21.0726562,10.8179687 3.4484375,10.8179687 3.4484375,10.8179687 C3.11328125,10.8179687 2.921875,10.6742187 2.921875,10.3390625 C2.921875,10.0039062 3.11328125,9.86015625 3.4484375,9.86015625 C3.4484375,9.86015625 3.4484375,9.86015625 3.4484375,9.86015625 C3.4484375,9.86015625 19.6359375,9.86015625 19.6359375,9.86015625 C19.6359375,9.86015625 19.6359375,8.8546875 19.6359375,8.8546875 C19.6359375,8.8546875 20.59375,8.8546875 20.59375,8.8546875 C20.59375,8.8546875 20.59375,9.86015625 20.59375,9.86015625 C20.59375,9.86015625 21.0726562,9.86015625 21.0726562,9.86015625 Z M9.81796875,15.2242188 C9.81796875,15.2242188 9.81796875,15.2242188 9.81796875,15.2242188 C9.81796875,15.559375 9.67421875,15.7507812 9.3390625,15.7507812 C9.3390625,15.7507812 9.3390625,15.7507812 9.3390625,15.7507812 C9.3390625,15.7507812 3.4484375,15.7507812 3.4484375,15.7507812 C3.11328125,15.7507812 2.921875,15.559375 2.921875,15.2242188 C2.921875,15.2242188 2.921875,15.2242188 2.921875,15.2242188 C2.921875,14.8890625 3.11328125,14.7453125 3.4484375,14.7453125 C3.4484375,14.7453125 3.4484375,14.7453125 3.4484375,14.7453125 C3.4484375,14.7453125 9.3390625,14.7453125 9.3390625,14.7453125 C9.67421875,14.7453125 9.81796875,14.8890625 9.81796875,15.2242188 Z M9.3390625,17.7148438 C9.67421875,17.7148438 9.81796875,17.8585937 9.81796875,18.19375 C9.81796875,18.5289062 9.67421875,18.6726562 9.3390625,18.6726562 C9.3390625,18.6726562 9.3390625,18.6726562 9.3390625,18.6726562 C9.3390625,18.6726562 3.4484375,18.6726562 3.4484375,18.6726562 C3.11328125,18.6726562 2.921875,18.5289062 2.921875,18.19375 C2.921875,17.8585937 3.11328125,17.7148438 3.4484375,17.7148438 C3.4484375,17.7148438 3.4484375,17.7148438 3.4484375,17.7148438 C3.4484375,17.7148438 9.3390625,17.7148438 9.3390625,17.7148438 Z M20.30625,14.075 C19.3960937,13.2132812 18.3429687,12.7820312 17.1453125,12.7820312 C15.9476563,12.7820312 14.8945312,13.2132812 14.0320312,14.075 C13.1703125,14.9367187 12.7390625,15.990625 12.7390625,17.1882812 C12.7390625,18.3859375 13.1703125,19.4390625 14.0320312,20.3015625 C14.89375,21.2117187 15.9476563,21.6421875 17.1453125,21.6421875 C18.3429687,21.6421875 19.3960937,21.2109375 20.30625,20.3015625 C21.1679688,19.4398437 21.5992187,18.3859375 21.5992187,17.1882812 C21.5992187,15.990625 21.1679688,14.9375 20.30625,14.075 Z M17.1453125,20.6359375 C17.1453125,20.6359375 17.1453125,20.6359375 17.1453125,20.6359375 C16.2351563,20.6359375 15.4210938,20.3007812 14.7507812,19.6304688 C14.0804687,18.9601562 13.7453125,18.1460938 13.7453125,17.1882812 C13.7453125,17.1882812 13.7453125,17.1882812 13.7453125,17.1882812 C13.7453125,16.278125 14.0804687,15.4640625 14.7507812,14.79375 C15.4210938,14.1234375 16.2351562,13.7882813 17.1453125,13.7882813 C17.1453125,13.7882813 17.1453125,13.7882813 17.1453125,13.7882813 C18.103125,13.7882813 18.9171875,14.1234375 19.5875,14.79375 C20.2578125,15.4640625 20.5929688,16.278125 20.5929688,17.1882812 C20.5929688,17.1882812 20.5929688,17.1882812 20.5929688,17.1882812 C20.5929688,18.1460937 20.2578125,18.9601562 19.5875,19.6304688 C18.9171875,20.3007812 18.103125,20.6359375 17.1453125,20.6359375 Z"/>
  <title>Radio</title>
</svg>