<svg xmlns="http://www.w3.org/2000/svg" viewBox="0 0 25 25" id="rain">
  <path d="M15.415625,2.484375 C15.415625,2.484375 15.415625,2.484375 15.415625,2.484375 C15.415625,2.484375 15.415625,1.5265625 15.415625,1.5265625 C15.415625,1.19140625 15.559375,1 15.8945312,1 C16.2296875,1 16.3734375,1.19140625 16.3734375,1.5265625 C16.3734375,1.5265625 16.3734375,1.5265625 16.3734375,1.5265625 C16.3734375,1.5265625 16.3734375,2.484375 16.3734375,2.484375 C16.3734375,2.81953125 16.2296875,2.96328125 15.8945312,2.96328125 C15.559375,2.96328125 15.415625,2.81953125 15.415625,2.484375 L15.415625,2.484375 Z M24.084375,8.8546875 C24.084375,8.8546875 24.084375,8.8546875 24.084375,8.8546875 C24.084375,8.8546875 23.0789062,8.8546875 23.0789062,8.8546875 C22.74375,8.8546875 22.6,9.04609375 22.6,9.38125 C22.6,9.38125 22.6,9.38125 22.6,9.38125 C22.6,9.71640625 22.74375,9.86015625 23.0789062,9.86015625 C23.0789062,9.86015625 23.0789062,9.86015625 23.0789062,9.86015625 C23.0789062,9.86015625 24.084375,9.86015625 24.084375,9.86015625 C24.4195313,9.86015625 24.5632812,9.71640625 24.5632812,9.38125 C24.5632812,9.38125 24.5632812,9.38125 24.5632812,9.38125 C24.5632812,9.04609375 24.4195313,8.8546875 24.084375,8.8546875 Z M10.0039062,4.1609375 C10.0039062,4.1609375 10.6742187,4.83125 10.6742187,4.83125 C10.7703125,4.92734375 10.9132812,4.975 11.0570312,4.975 C11.0570312,4.975 11.0570312,4.975 11.0570312,4.975 C11.3921875,4.975 11.5359375,4.83125 11.5359375,4.49609375 C11.5359375,4.49609375 11.5359375,4.49609375 11.5359375,4.49609375 C11.5359375,4.35234375 11.4882812,4.25703125 11.3921875,4.1609375 C11.3921875,4.1609375 11.3921875,4.1609375 11.3921875,4.1609375 C11.3921875,4.1609375 10.6734375,3.4421875 10.6734375,3.4421875 C10.4820312,3.34609375 10.3859375,3.2984375 10.3382812,3.2984375 C10.3382812,3.2984375 10.3382812,3.2984375 10.3382812,3.2984375 C10.003125,3.2984375 9.859375,3.48984375 9.859375,3.825 C9.859375,3.825 9.859375,3.825 9.859375,3.825 C9.859375,3.96875 9.90703125,4.0640625 10.003125,4.16015625 C10.003125,4.16015625 10.003125,4.16015625 10.003125,4.16015625 L10.0039062,4.1609375 Z M21.1148437,4.83125 C21.1148437,4.83125 21.1148437,4.83125 21.1148437,4.83125 C21.1148437,4.83125 21.7851562,4.1609375 21.7851562,4.1609375 C21.88125,4.06484375 21.9289063,3.96953125 21.9289063,3.82578125 C21.9289063,3.82578125 21.9289063,3.82578125 21.9289063,3.82578125 C21.9289063,3.490625 21.7851562,3.346875 21.45,3.346875 C21.45,3.346875 21.45,3.346875 21.45,3.346875 C21.30625,3.346875 21.2109375,3.39453125 21.0671875,3.44296875 C21.0671875,3.44296875 21.0671875,3.44296875 21.0671875,3.44296875 C21.0671875,3.44296875 20.396875,4.16171875 20.396875,4.16171875 C20.3007812,4.2578125 20.253125,4.353125 20.253125,4.496875 C20.253125,4.496875 20.253125,4.496875 20.253125,4.496875 C20.253125,4.83203125 20.396875,4.97578125 20.7320313,4.97578125 C20.7320313,4.97578125 20.7320313,4.97578125 20.7320313,4.97578125 C20.8757813,4.97578125 21.0195312,4.928125 21.1148437,4.83203125 L21.1148437,4.83125 Z M21.0671875,10.8179687 C21.0671875,10.8179687 21.0671875,10.8179687 21.0671875,10.8179687 C22.0726563,11.9195312 22.6,13.2125 22.6,14.7453125 C22.6,14.7453125 22.6,14.7453125 22.6,14.7453125 C22.6,16.0859375 22.2171875,17.2835937 21.4507813,18.2890625 C20.6367188,19.3429687 19.63125,20.0609375 18.3859375,20.3960937 C18.3859375,20.3960937 18.3859375,20.3960937 18.3859375,20.3960937 C18.3382813,20.44375 18.2421875,20.44375 18.1945313,20.44375 C18.1945313,20.44375 18.1945313,20.44375 18.1945313,20.44375 C17.859375,20.44375 17.715625,20.3 17.715625,19.9648438 C17.715625,19.9648438 17.715625,19.9648438 17.715625,19.9648438 C17.715625,19.7257812 17.8117188,19.5335937 18.0507813,19.4859375 C18.0507813,19.4859375 18.0507813,19.4859375 18.0507813,19.4859375 C19.1046875,19.1507813 19.9664062,18.5757812 20.6367188,17.7140625 C21.3070313,16.8523437 21.6421875,15.8460937 21.6421875,14.7445312 C21.6421875,14.7445312 21.6421875,14.7445312 21.6421875,14.7445312 C21.6421875,13.4039062 21.1632813,12.2539063 20.2054688,11.2960938 C19.2476562,10.3382812 18.0984375,9.859375 16.709375,9.859375 C16.709375,9.859375 16.709375,9.859375 16.709375,9.859375 C15.990625,9.859375 15.2726563,10.003125 14.5539063,10.3382812 C14.5539063,10.3382812 14.5539063,10.3382812 14.5539063,10.3382812 C14.50625,10.3859375 14.4578125,10.3859375 14.3625,10.3859375 C14.3625,10.3859375 14.3625,10.3859375 14.3625,10.3859375 C14.1710938,10.3859375 14.0273438,10.2898437 13.93125,10.146875 C13.93125,10.146875 13.93125,10.146875 13.93125,10.146875 C13.35625,9.14140625 12.590625,8.375 11.6320312,7.75234375 C10.6265625,7.17734375 9.57265625,6.890625 8.375,6.890625 C8.375,6.890625 8.375,6.890625 8.375,6.890625 C6.603125,6.890625 5.11796875,7.51328125 3.8734375,8.75859375 C2.628125,10.0515625 2.00546875,11.5367188 2.00546875,13.3085938 C2.00546875,13.3085938 2.00546875,13.3085938 2.00546875,13.3085938 C2.00546875,14.6976562 2.43671875,15.990625 3.2984375,17.0921875 C4.1125,18.19375 5.2140625,18.9601563 6.50703125,19.3914062 C6.50703125,19.3914062 6.50703125,19.3914062 6.50703125,19.3914062 C6.79453125,19.4390625 6.93828125,19.6304687 6.93828125,19.8703125 C6.93828125,19.8703125 6.93828125,19.8703125 6.93828125,19.8703125 C6.93828125,20.2054687 6.746875,20.3492187 6.41171875,20.3492187 C6.41171875,20.3492187 6.41171875,20.3492187 6.41171875,20.3492187 C6.41171875,20.3492187 6.26796875,20.3492187 6.26796875,20.3492187 C4.6875,19.8703125 3.4421875,18.9601563 2.484375,17.6671875 C1.47890625,16.3742188 1,14.9375 1,13.2609375 C1,13.2609375 1,13.2609375 1,13.2609375 C1,11.2492188 1.71875,9.525 3.15546875,8.08828125 C4.5921875,6.6515625 6.31640625,5.9328125 8.37578125,5.9328125 C8.37578125,5.9328125 8.37578125,5.9328125 8.37578125,5.9328125 C9.38125,5.9328125 10.3390625,6.12421875 11.3453125,6.55546875 C11.3453125,6.55546875 11.3453125,6.55546875 11.3453125,6.55546875 C12.3507813,4.83125 13.8359375,3.96953125 15.8953125,3.96953125 C15.8953125,3.96953125 15.8953125,3.96953125 15.8953125,3.96953125 C17.3796875,3.96953125 18.6734375,4.49609375 19.7265625,5.55 C20.7796875,6.60390625 21.3070313,7.84921875 21.3070313,9.33359375 C21.3070313,9.33359375 21.3070313,9.33359375 21.3070313,9.33359375 C21.3070313,9.33359375 21.3070313,9.38125 21.3070313,9.38125 C21.259375,10.0515625 21.1632813,10.5304687 21.0679687,10.8179687 L21.0671875,10.8179687 Z M20.3007812,9.38125 C20.3007812,9.38125 20.3007812,9.38125 20.3007812,9.38125 C20.3007812,9.38125 20.3007812,9.33359375 20.3007812,9.33359375 C20.3007812,8.1359375 19.8695312,7.0828125 19.0078125,6.2203125 C18.1460937,5.3578125 17.0921875,4.92734375 15.8945312,4.92734375 C15.8945312,4.92734375 15.8945312,4.92734375 15.8945312,4.92734375 C14.2664062,4.92734375 13.0210937,5.59765625 12.2070312,6.98671875 C12.2070312,6.98671875 12.2070312,6.98671875 12.2070312,6.98671875 C13.1648437,7.609375 13.93125,8.37578125 14.5539063,9.2375 C14.5539063,9.2375 14.5539063,9.2375 14.5539063,9.2375 C15.2242188,8.9984375 15.9429687,8.8546875 16.709375,8.8546875 C16.709375,8.8546875 16.709375,8.8546875 16.709375,8.8546875 C17.9546875,8.8546875 19.1515625,9.2375 20.253125,10.0523437 C20.253125,10.0523437 20.253125,10.0523437 20.253125,10.0523437 C20.253125,10.0046875 20.253125,9.8609375 20.3007812,9.7171875 C20.3007812,9.5734375 20.3007812,9.478125 20.3007812,9.38203125 L20.3007812,9.38125 Z M11.584375,16.8046875 C11.584375,16.8046875 11.584375,16.8046875 11.584375,16.8046875 C11.440625,16.7570312 11.3929687,16.7085937 11.3453125,16.7085937 C11.3453125,16.7085937 11.3453125,16.7085937 11.3453125,16.7085937 C11.1539062,16.7085937 11.0101562,16.8046875 10.9140625,16.9476563 C10.9140625,16.9476563 10.9140625,16.9476563 10.9140625,16.9476563 C10.9140625,16.9476563 7.94453125,21.8328125 7.94453125,21.8328125 C7.896875,21.8804687 7.896875,21.9765625 7.896875,22.1203125 C7.896875,22.1203125 7.896875,22.1203125 7.896875,22.1203125 C7.896875,22.4554687 8.040625,22.5992187 8.37578125,22.5992187 C8.37578125,22.5992187 8.37578125,22.5992187 8.37578125,22.5992187 C8.5671875,22.5992187 8.7109375,22.503125 8.80703125,22.3601562 C8.80703125,22.3601562 8.80703125,22.3601562 8.80703125,22.3601562 C8.80703125,22.3601562 11.728125,17.475 11.728125,17.475 C11.7757812,17.33125 11.8242187,17.2359375 11.8242187,17.1875 C11.8242187,17.1875 11.8242187,17.1875 11.8242187,17.1875 C11.8242187,16.9960938 11.728125,16.8523437 11.5851562,16.8046875 L11.584375,16.8046875 Z M14.5054688,16.8046875 C14.5054688,16.8046875 14.5054688,16.8046875 14.5054688,16.8046875 C14.4578125,16.7570312 14.3617187,16.7085937 14.2664062,16.7085937 C14.2664062,16.7085937 14.2664062,16.7085937 14.2664062,16.7085937 C14.075,16.7085937 13.93125,16.8046875 13.8351563,16.9476563 C13.8351563,16.9476563 13.8351563,16.9476563 13.8351563,16.9476563 C13.8351563,16.9476563 10.9140625,21.8328125 10.9140625,21.8328125 C10.8664062,21.9765625 10.8179687,22.071875 10.8179687,22.1203125 C10.8179687,22.1203125 10.8179687,22.1203125 10.8179687,22.1203125 C10.8179687,22.4554687 11.009375,22.5992187 11.3445312,22.5992187 C11.3445312,22.5992187 11.3445312,22.5992187 11.3445312,22.5992187 C11.4882812,22.5992187 11.6320312,22.503125 11.7273437,22.3601562 C11.7273437,22.3601562 11.7273437,22.3601562 11.7273437,22.3601562 C11.7273437,22.3601562 14.696875,17.475 14.696875,17.475 C14.7445313,17.4273437 14.7445313,17.33125 14.7445313,17.1875 C14.7445313,17.1875 14.7445313,17.1875 14.7445313,17.1875 C14.7445313,16.9960938 14.6484375,16.8523437 14.5054688,16.8046875 Z M17.475,16.8046875 C17.475,16.8046875 17.475,16.8046875 17.475,16.8046875 C17.33125,16.7570312 17.2359375,16.7085937 17.1875,16.7085937 C17.1875,16.7085937 17.1875,16.7085937 17.1875,16.7085937 C16.9960937,16.7085937 16.8523437,16.8046875 16.8046875,16.9476563 C16.8046875,16.9476563 16.8046875,16.9476563 16.8046875,16.9476563 C16.8046875,16.9476563 13.8351562,21.8328125 13.8351562,21.8328125 C13.7875,21.8804687 13.7875,21.9765625 13.7875,22.1203125 C13.7875,22.1203125 13.7875,22.1203125 13.7875,22.1203125 C13.7875,22.4554687 13.93125,22.5992187 14.2664062,22.5992187 C14.2664062,22.5992187 14.2664062,22.5992187 14.2664062,22.5992187 C14.4578125,22.5992187 14.6015625,22.503125 14.6976562,22.3601562 C14.6976562,22.3601562 14.6976562,22.3601562 14.6976562,22.3601562 C14.6976562,22.3601562 17.61875,17.475 17.61875,17.475 C17.6664062,17.33125 17.7148438,17.2359375 17.7148438,17.1875 C17.7148438,17.1875 17.7148438,17.1875 17.7148438,17.1875 C17.7148438,16.9960938 17.61875,16.8523437 17.4757812,16.8046875 L17.475,16.8046875 Z M7.41796875,23.5578125 C7.41796875,23.5578125 7.41796875,23.5578125 7.41796875,23.5578125 C7.0828125,23.5578125 6.89140625,23.7492188 6.89140625,24.084375 C6.89140625,24.084375 6.89140625,24.084375 6.89140625,24.084375 C6.89140625,24.4195312 7.0828125,24.5632812 7.41796875,24.5632812 C7.41796875,24.5632812 7.41796875,24.5632812 7.41796875,24.5632812 C7.753125,24.5632812 7.896875,24.4195312 7.896875,24.084375 C7.896875,24.084375 7.896875,24.084375 7.896875,24.084375 C7.896875,23.7492188 7.753125,23.5578125 7.41796875,23.5578125 Z M10.8179687,24.084375 C10.8179687,23.7492188 10.6742187,23.5578125 10.3390625,23.5578125 C10.0039062,23.5578125 9.86015625,23.7492188 9.86015625,24.084375 C9.86015625,24.084375 9.86015625,24.084375 9.86015625,24.084375 C9.86015625,24.4195312 10.0039062,24.5632812 10.3390625,24.5632812 C10.6742187,24.5632812 10.8179687,24.4195312 10.8179687,24.084375 C10.8179687,24.084375 10.8179687,24.084375 10.8179687,24.084375 Z M13.2609375,23.5578125 C13.2609375,23.5578125 13.2609375,23.5578125 13.2609375,23.5578125 C12.9257812,23.5578125 12.7820312,23.7492188 12.7820312,24.084375 C12.7820312,24.084375 12.7820312,24.084375 12.7820312,24.084375 C12.7820312,24.4195312 12.9257812,24.5632812 13.2609375,24.5632812 C13.2609375,24.5632812 13.2609375,24.5632812 13.2609375,24.5632812 C13.5960937,24.5632812 13.7875,24.4195312 13.7875,24.084375 C13.7875,24.084375 13.7875,24.084375 13.7875,24.084375 C13.7875,23.7492188 13.5960937,23.5578125 13.2609375,23.5578125 Z"/>
  <title>Rain</title>
</svg>