<svg xmlns="http://www.w3.org/2000/svg" viewBox="0 0 25 25" id="rain-solid">
  <path d="M15.4164062,2.484375 C15.4164062,2.484375 15.4164062,2.484375 15.4164062,2.484375 C15.4164062,2.484375 15.4164062,1.5265625 15.4164062,1.5265625 C15.4164062,1.19140625 15.5601563,1 15.8953125,1 C16.2304688,1 16.3742187,1.19140625 16.3742187,1.5265625 C16.3742187,1.5265625 16.3742187,1.5265625 16.3742187,1.5265625 C16.3742187,1.5265625 16.3742187,2.484375 16.3742187,2.484375 C16.3742187,2.81953125 16.2304688,2.96328125 15.8953125,2.96328125 C15.5601563,2.96328125 15.4164062,2.81953125 15.4164062,2.484375 L15.4164062,2.484375 Z M24.0851563,8.8546875 C24.0851563,8.8546875 24.0851563,8.8546875 24.0851563,8.8546875 C24.0851563,8.8546875 23.0796875,8.8546875 23.0796875,8.8546875 C22.7445313,8.8546875 22.6007813,9.04609375 22.6007813,9.38125 C22.6007813,9.38125 22.6007813,9.38125 22.6007813,9.38125 C22.6007813,9.71640625 22.7445313,9.86015625 23.0796875,9.86015625 C23.0796875,9.86015625 23.0796875,9.86015625 23.0796875,9.86015625 C23.0796875,9.86015625 24.0851563,9.86015625 24.0851563,9.86015625 C24.4203125,9.86015625 24.5640625,9.71640625 24.5640625,9.38125 C24.5640625,9.38125 24.5640625,9.38125 24.5640625,9.38125 C24.5640625,9.04609375 24.4203125,8.8546875 24.0851563,8.8546875 Z M10.0046875,4.1609375 C10.0046875,4.1609375 10.675,4.83125 10.675,4.83125 C10.7710938,4.92734375 10.9140625,4.975 11.0578125,4.975 C11.0578125,4.975 11.0578125,4.975 11.0578125,4.975 C11.3929688,4.975 11.5367188,4.83125 11.5367188,4.49609375 C11.5367188,4.49609375 11.5367188,4.49609375 11.5367188,4.49609375 C11.5367188,4.35234375 11.4890625,4.25703125 11.3929688,4.1609375 C11.3929688,4.1609375 11.3929688,4.1609375 11.3929688,4.1609375 C11.3929688,4.1609375 10.6742188,3.4421875 10.6742188,3.4421875 C10.4828125,3.34609375 10.3867188,3.2984375 10.3390625,3.2984375 C10.3390625,3.2984375 10.3390625,3.2984375 10.3390625,3.2984375 C10.0039062,3.2984375 9.86015625,3.48984375 9.86015625,3.825 C9.86015625,3.825 9.86015625,3.825 9.86015625,3.825 C9.86015625,3.96875 9.9078125,4.0640625 10.0039062,4.16015625 C10.0039062,4.16015625 10.0039062,4.16015625 10.0039062,4.16015625 L10.0046875,4.1609375 Z M21.115625,4.83125 C21.115625,4.83125 21.115625,4.83125 21.115625,4.83125 C21.115625,4.83125 21.7859375,4.1609375 21.7859375,4.1609375 C21.8820313,4.06484375 21.9296875,3.96953125 21.9296875,3.82578125 C21.9296875,3.82578125 21.9296875,3.82578125 21.9296875,3.82578125 C21.9296875,3.490625 21.7859375,3.346875 21.4507812,3.346875 C21.4507812,3.346875 21.4507812,3.346875 21.4507812,3.346875 C21.3070312,3.346875 21.2117187,3.39453125 21.0679688,3.44296875 C21.0679688,3.44296875 21.0679688,3.44296875 21.0679688,3.44296875 C21.0679688,3.44296875 20.3976563,4.16171875 20.3976563,4.16171875 C20.3015625,4.2578125 20.2539062,4.353125 20.2539062,4.496875 C20.2539062,4.496875 20.2539062,4.496875 20.2539062,4.496875 C20.2539062,4.83203125 20.3976563,4.97578125 20.7328125,4.97578125 C20.7328125,4.97578125 20.7328125,4.97578125 20.7328125,4.97578125 C20.8765625,4.97578125 21.0203125,4.928125 21.115625,4.83203125 L21.115625,4.83125 Z M21.3070313,9.38125 C21.3070313,9.38125 21.3070313,9.38125 21.3070313,9.38125 C21.3070313,9.38125 21.3070313,9.33359375 21.3070313,9.33359375 C21.3070313,7.84921875 20.7804688,6.60390625 19.7265625,5.55 C18.6726562,4.49609375 17.3796875,3.96953125 15.8953125,3.96953125 C15.8953125,3.96953125 15.8953125,3.96953125 15.8953125,3.96953125 C13.8835938,3.96953125 12.3515625,4.83125 11.2976563,6.5078125 C11.2976563,6.5078125 11.2976563,6.5078125 11.2976563,6.5078125 C10.2921875,6.125 9.334375,5.9328125 8.328125,5.9328125 C8.328125,5.9328125 8.328125,5.9328125 8.328125,5.9328125 C6.31640625,5.9328125 4.5921875,6.6515625 3.15546875,8.03984375 C1.71875,9.4765625 1,11.2007813 1,13.2601563 C1,13.2601563 1,13.2601563 1,13.2601563 C1.04765625,14.9367188 1.5265625,16.3734375 2.484375,17.6664063 C3.4421875,18.959375 4.6875,19.8695313 6.2203125,20.3007812 C6.2203125,20.3007812 6.2203125,20.3007812 6.2203125,20.3007812 C6.26796875,20.3484375 6.3640625,20.3484375 6.41171875,20.3484375 C6.41171875,20.3484375 6.41171875,20.3484375 6.41171875,20.3484375 C6.746875,20.3484375 6.93828125,20.2046875 6.93828125,19.8695313 C6.93828125,19.8695313 6.93828125,19.8695313 6.93828125,19.8695313 C6.93828125,19.6304688 6.79453125,19.4382813 6.55546875,19.390625 C6.55546875,19.390625 6.55546875,19.390625 6.55546875,19.390625 C5.21484375,18.959375 4.11328125,18.1929688 3.2984375,17.04375 C2.43671875,15.9421875 2.00546875,14.6492188 2.00546875,13.2601563 C2.00546875,13.2601563 2.00546875,13.2601563 2.00546875,13.2601563 C2.00546875,11.4882813 2.628125,10.003125 3.8734375,8.75859375 C5.11875,7.5140625 6.603125,6.890625 8.375,6.890625 C8.375,6.890625 8.375,6.890625 8.375,6.890625 C9.52421875,6.890625 10.6257812,7.178125 11.6320312,7.75234375 C12.6375,8.375 13.4039063,9.14140625 13.93125,10.0992188 C13.93125,10.0992188 13.93125,10.0992188 13.93125,10.0992188 C14.0273438,10.290625 14.1703125,10.3867188 14.3625,10.3867188 C14.3625,10.3867188 14.3625,10.3867188 14.3625,10.3867188 C14.4585938,10.3867188 14.50625,10.3867188 14.5539062,10.3390625 C14.5539062,10.3390625 14.5539062,10.3390625 14.5539062,10.3390625 C15.2726563,10.0039062 15.990625,9.86015625 16.709375,9.86015625 C16.709375,9.86015625 16.709375,9.86015625 16.709375,9.86015625 C18.0984375,9.86015625 19.2476563,10.3390625 20.2054687,11.296875 C21.1632812,12.2546875 21.6421875,13.4039063 21.6421875,14.7453125 C21.6421875,14.7453125 21.6421875,14.7453125 21.6421875,14.7453125 C21.6421875,15.846875 21.3070313,16.8523438 20.6367188,17.7148438 C19.9664062,18.5773437 19.1039062,19.1515625 18.0984375,19.4867188 C18.0984375,19.4867188 18.0984375,19.4867188 18.0984375,19.4867188 C17.859375,19.534375 17.715625,19.7257813 17.715625,19.965625 C17.715625,19.965625 17.715625,19.965625 17.715625,19.965625 C17.715625,20.3007812 17.859375,20.4445313 18.1945313,20.4445313 C18.1945313,20.4445313 18.1945313,20.4445313 18.1945313,20.4445313 C18.2421875,20.4445313 18.290625,20.4445313 18.3382813,20.396875 C18.3382813,20.396875 18.3382813,20.396875 18.3382813,20.396875 C19.5835938,20.0617188 20.5890625,19.3429688 21.403125,18.2898438 C22.2171875,17.284375 22.6007813,16.0867188 22.6007813,14.7460938 C22.6007813,14.7460938 22.6007813,14.7460938 22.6007813,14.7460938 C22.6007813,13.2132813 22.0742188,11.9203125 21.0679688,10.81875 C21.0679688,10.81875 21.0679688,10.81875 21.0679688,10.81875 C21.1640625,10.53125 21.259375,10.0523438 21.3070313,9.38203125 L21.3070313,9.38125 Z M11.5851563,16.8046875 C11.5851563,16.8046875 11.5851563,16.8046875 11.5851563,16.8046875 C11.4414063,16.7570312 11.39375,16.7085937 11.3460938,16.7085937 C11.3460938,16.7085937 11.3460938,16.7085937 11.3460938,16.7085937 C11.1546875,16.7085937 11.0109375,16.8046875 10.9148438,16.9476563 C10.9148438,16.9476563 10.9148438,16.9476563 10.9148438,16.9476563 C10.9148438,16.9476563 7.9453125,21.8328125 7.9453125,21.8328125 C7.89765625,21.8804687 7.89765625,21.9765625 7.89765625,22.1203125 C7.89765625,22.1203125 7.89765625,22.1203125 7.89765625,22.1203125 C7.89765625,22.4554687 8.04140625,22.5992187 8.3765625,22.5992187 C8.3765625,22.5992187 8.3765625,22.5992187 8.3765625,22.5992187 C8.56796875,22.5992187 8.71171875,22.503125 8.8078125,22.3601562 C8.8078125,22.3601562 8.8078125,22.3601562 8.8078125,22.3601562 C8.8078125,22.3601562 11.7289063,17.475 11.7289063,17.475 C11.7765625,17.33125 11.825,17.2359375 11.825,17.1875 C11.825,17.1875 11.825,17.1875 11.825,17.1875 C11.825,16.9960938 11.7289063,16.8523437 11.5859375,16.8046875 L11.5851563,16.8046875 Z M14.50625,16.8046875 C14.50625,16.8046875 14.50625,16.8046875 14.50625,16.8046875 C14.4585938,16.7570312 14.3625,16.7085937 14.2671875,16.7085937 C14.2671875,16.7085937 14.2671875,16.7085937 14.2671875,16.7085937 C14.0757813,16.7085937 13.9320313,16.8046875 13.8359375,16.9476563 C13.8359375,16.9476563 13.8359375,16.9476563 13.8359375,16.9476563 C13.8359375,16.9476563 10.9148438,21.8328125 10.9148438,21.8328125 C10.8671875,21.9765625 10.81875,22.071875 10.81875,22.1203125 C10.81875,22.1203125 10.81875,22.1203125 10.81875,22.1203125 C10.81875,22.4554687 11.0101563,22.5992187 11.3453125,22.5992187 C11.3453125,22.5992187 11.3453125,22.5992187 11.3453125,22.5992187 C11.4890625,22.5992187 11.6328125,22.503125 11.728125,22.3601562 C11.728125,22.3601562 11.728125,22.3601562 11.728125,22.3601562 C11.728125,22.3601562 14.6976563,17.475 14.6976563,17.475 C14.7453125,17.4273437 14.7453125,17.33125 14.7453125,17.1875 C14.7453125,17.1875 14.7453125,17.1875 14.7453125,17.1875 C14.7453125,16.9960938 14.6492188,16.8523437 14.50625,16.8046875 Z M17.4757812,16.8046875 C17.4757812,16.8046875 17.4757812,16.8046875 17.4757812,16.8046875 C17.3320312,16.7570312 17.2367187,16.7085937 17.1882812,16.7085937 C17.1882812,16.7085937 17.1882812,16.7085937 17.1882812,16.7085937 C16.996875,16.7085937 16.853125,16.8046875 16.8054688,16.9476563 C16.8054688,16.9476563 16.8054688,16.9476563 16.8054688,16.9476563 C16.8054688,16.9476563 13.8359375,21.8328125 13.8359375,21.8328125 C13.7882813,21.8804687 13.7882813,21.9765625 13.7882813,22.1203125 C13.7882813,22.1203125 13.7882813,22.1203125 13.7882813,22.1203125 C13.7882813,22.4554687 13.9320313,22.5992187 14.2671875,22.5992187 C14.2671875,22.5992187 14.2671875,22.5992187 14.2671875,22.5992187 C14.4585938,22.5992187 14.6023437,22.503125 14.6984375,22.3601562 C14.6984375,22.3601562 14.6984375,22.3601562 14.6984375,22.3601562 C14.6984375,22.3601562 17.6195313,17.475 17.6195313,17.475 C17.6671875,17.33125 17.715625,17.2359375 17.715625,17.1875 C17.715625,17.1875 17.715625,17.1875 17.715625,17.1875 C17.715625,16.9960938 17.6195313,16.8523437 17.4765625,16.8046875 L17.4757812,16.8046875 Z M7.41875,23.5578125 C7.41875,23.5578125 7.41875,23.5578125 7.41875,23.5578125 C7.08359375,23.5578125 6.8921875,23.7492188 6.8921875,24.084375 C6.8921875,24.084375 6.8921875,24.084375 6.8921875,24.084375 C6.8921875,24.4195312 7.08359375,24.5632812 7.41875,24.5632812 C7.41875,24.5632812 7.41875,24.5632812 7.41875,24.5632812 C7.75390625,24.5632812 7.89765625,24.4195312 7.89765625,24.084375 C7.89765625,24.084375 7.89765625,24.084375 7.89765625,24.084375 C7.89765625,23.7492188 7.75390625,23.5578125 7.41875,23.5578125 Z M10.81875,24.084375 C10.81875,23.7492188 10.675,23.5578125 10.3398438,23.5578125 C10.0046875,23.5578125 9.8609375,23.7492188 9.8609375,24.084375 C9.8609375,24.084375 9.8609375,24.084375 9.8609375,24.084375 C9.8609375,24.4195312 10.0046875,24.5632812 10.3398438,24.5632812 C10.675,24.5632812 10.81875,24.4195312 10.81875,24.084375 C10.81875,24.084375 10.81875,24.084375 10.81875,24.084375 Z M13.2617188,23.5578125 C13.2617188,23.5578125 13.2617188,23.5578125 13.2617188,23.5578125 C12.9265625,23.5578125 12.7828125,23.7492188 12.7828125,24.084375 C12.7828125,24.084375 12.7828125,24.084375 12.7828125,24.084375 C12.7828125,24.4195312 12.9265625,24.5632812 13.2617188,24.5632812 C13.2617188,24.5632812 13.2617188,24.5632812 13.2617188,24.5632812 C13.596875,24.5632812 13.7882812,24.4195312 13.7882812,24.084375 C13.7882812,24.084375 13.7882812,24.084375 13.7882812,24.084375 C13.7882812,23.7492188 13.596875,23.5578125 13.2617188,23.5578125 Z"/>
  <title>Rain Solid</title>
</svg>