<svg xmlns="http://www.w3.org/2000/svg" viewBox="0 0 25 25" id="receipt">
  <path d="M19.1515625,9.85 C19.1515625,9.85 15.703125,9.85 15.703125,9.85 C15.703125,9.85 15.703125,11.8132812 15.703125,11.8132812 C15.703125,11.8132812 18.6726563,11.8132812 18.6726563,11.8132812 C18.9117188,11.8132812 19.1515625,11.909375 19.3429688,12.1007812 C19.534375,12.2921875 19.6304688,12.5320312 19.6304688,12.8195312 C19.6304688,12.8195312 19.6304688,12.8195312 19.6304688,12.8195312 C19.6304688,12.8195312 19.6304688,14.7828125 19.6304688,14.7828125 C19.6304688,15.021875 19.534375,15.2617188 19.3429688,15.453125 C19.1515625,15.6445313 18.9117188,15.740625 18.6726563,15.740625 C18.6726563,15.740625 18.6726563,15.740625 18.6726563,15.740625 C18.6726563,15.740625 17.6671875,15.740625 17.6671875,15.740625 C17.6671875,15.740625 17.6671875,16.2195313 17.6671875,16.2195313 C17.6671875,16.5546875 17.5234375,16.7460938 17.1882813,16.7460938 C16.853125,16.7460938 16.709375,16.5546875 16.709375,16.2195313 C16.709375,16.2195313 16.709375,16.2195313 16.709375,16.2195313 C16.709375,16.2195313 16.709375,15.740625 16.709375,15.740625 C16.709375,15.740625 15.225,15.740625 15.225,15.740625 C14.8898438,15.740625 14.7460938,15.596875 14.7460938,15.2617188 C14.7460938,14.9265625 14.8898438,14.7828125 15.225,14.7828125 C15.225,14.7828125 15.225,14.7828125 15.225,14.7828125 C15.225,14.7828125 18.6734375,14.7828125 18.6734375,14.7828125 C18.6734375,14.7828125 18.6734375,12.8195313 18.6734375,12.8195313 C18.6734375,12.8195313 15.7039063,12.8195313 15.7039063,12.8195313 C15.4648438,12.8195313 15.225,12.7234375 15.0335938,12.484375 C14.8421875,12.2929688 14.7460938,12.053125 14.7460938,11.8140625 C14.7460938,11.8140625 14.7460938,11.8140625 14.7460938,11.8140625 C14.7460938,11.8140625 14.7460938,9.85078125 14.7460938,9.85078125 C14.7460938,9.61171875 14.8421875,9.371875 15.0335938,9.18046875 C15.225,8.9890625 15.4648438,8.89296875 15.7039063,8.89296875 C15.7039063,8.89296875 15.7039063,8.89296875 15.7039063,8.89296875 C15.7039063,8.89296875 16.709375,8.89296875 16.709375,8.89296875 C16.709375,8.89296875 16.709375,8.36640625 16.709375,8.36640625 C16.709375,8.03125 16.853125,7.8875 17.1882813,7.8875 C17.5234375,7.8875 17.6671875,8.03125 17.6671875,8.36640625 C17.6671875,8.36640625 17.6671875,8.36640625 17.6671875,8.36640625 C17.6671875,8.36640625 17.6671875,8.89296875 17.6671875,8.89296875 C17.6671875,8.89296875 19.1515625,8.89296875 19.1515625,8.89296875 C19.4867188,8.89296875 19.6304688,9.03671875 19.6304688,9.371875 C19.6304688,9.70703125 19.4867188,9.85078125 19.1515625,9.85078125 C19.1515625,9.85078125 19.1515625,9.85078125 19.1515625,9.85078125 L19.1515625,9.85 Z M24.5632812,4.4859375 C24.5632812,4.4859375 24.5632812,4.4859375 24.5632812,4.4859375 C24.5632812,4.4859375 24.5632812,17.225 24.5632812,17.225 C24.5632812,18.4226563 24.1320313,19.4757813 23.2703125,20.3382813 C22.3601562,21.2 21.3070313,21.63125 20.109375,21.63125 C20.109375,21.63125 20.109375,21.63125 20.109375,21.63125 C20.109375,21.63125 5.88515625,21.63125 5.88515625,21.63125 C4.54453125,21.63125 3.39453125,21.1523438 2.43671875,20.1945313 C1.47890625,19.2367188 1,18.0875 1,16.7460938 C1,16.7460938 1,16.7460938 1,16.7460938 C1,16.7460938 1,9.84921875 1,9.84921875 C1,8.9390625 1.33515625,8.125 2.00546875,7.4546875 C2.67578125,6.784375 3.48984375,6.44921875 4.44765625,6.44921875 C4.44765625,6.44921875 4.44765625,6.44921875 4.44765625,6.44921875 C5.3578125,6.44921875 6.171875,6.784375 6.8421875,7.4546875 C7.5125,8.125 7.84765625,8.9390625 7.84765625,9.84921875 C7.84765625,9.84921875 7.84765625,9.84921875 7.84765625,9.84921875 C7.84765625,9.84921875 7.84765625,16.21875 7.84765625,16.21875 C7.84765625,16.7453125 7.65625,17.2242188 7.27265625,17.6078125 C6.8890625,17.9914063 6.4109375,18.1828125 5.88359375,18.1828125 C5.35703125,18.1828125 4.878125,17.9914063 4.49453125,17.6078125 C4.1109375,17.2242188 3.91953125,16.7460938 3.91953125,16.21875 C3.91953125,16.21875 3.91953125,16.21875 3.91953125,16.21875 C3.91953125,16.21875 3.91953125,9.84921875 3.91953125,9.84921875 C3.91953125,9.5140625 4.1109375,9.3703125 4.44609375,9.3703125 C4.44609375,9.3703125 4.44609375,9.3703125 4.44609375,9.3703125 C4.78125,9.3703125 4.925,9.5140625 4.925,9.84921875 C4.925,9.84921875 4.925,9.84921875 4.925,9.84921875 C4.925,9.84921875 4.925,16.21875 4.925,16.21875 C4.925,16.50625 5.02109375,16.7453125 5.2125,16.9375 C5.40390625,17.1296875 5.64375,17.225 5.8828125,17.225 C5.8828125,17.225 5.8828125,17.225 5.8828125,17.225 C6.1703125,17.225 6.409375,17.1289063 6.6015625,16.9375 C6.79375,16.7460938 6.8890625,16.50625 6.8890625,16.21875 C6.8890625,16.21875 6.8890625,16.21875 6.8890625,16.21875 C6.8890625,16.21875 6.8890625,9.84921875 6.8890625,9.84921875 C6.8890625,9.17890625 6.65,8.60390625 6.1703125,8.125 C5.690625,7.64609375 5.11640625,7.40625 4.44609375,7.40625 C4.44609375,7.40625 4.44609375,7.40625 4.44609375,7.40625 C3.72734375,7.40625 3.153125,7.6453125 2.67421875,8.125 C2.1953125,8.6046875 1.95546875,9.17890625 1.95546875,9.84921875 C1.95546875,9.84921875 1.95546875,9.84921875 1.95546875,9.84921875 C1.95546875,9.84921875 1.95546875,16.7460938 1.95546875,16.7460938 C1.95546875,17.8476563 2.33828125,18.7578125 3.1046875,19.4757813 C3.87109375,20.2421875 4.78125,20.625 5.8828125,20.625 C6.984375,20.625 7.89453125,20.2421875 8.6609375,19.4757813 C9.42734375,18.7570312 9.81015625,17.8476563 9.81015625,16.7460938 C9.81015625,16.7460938 9.81015625,16.7460938 9.81015625,16.7460938 C9.81015625,16.7460938 9.81015625,4.48515625 9.81015625,4.48515625 C9.81015625,4.05390625 9.95390625,3.71875 10.2414062,3.43125 C10.5289063,3.14375 10.8640625,3 11.2953125,3 C11.2953125,3 11.2953125,3 11.2953125,3 C11.2953125,3 23.0765625,3 23.0765625,3 C23.5078125,3 23.8429688,3.14375 24.1304687,3.43125 C24.4179688,3.71875 24.5617188,4.05390625 24.5617188,4.48515625 L24.5632812,4.4859375 Z M23.5578125,17.225 C23.5578125,17.225 23.5578125,4.4859375 23.5578125,4.4859375 C23.5578125,4.15078125 23.4140625,3.959375 23.0789063,3.959375 C23.0789063,3.959375 23.0789063,3.959375 23.0789063,3.959375 C23.0789063,3.959375 11.2976563,3.959375 11.2976563,3.959375 C10.9625,3.959375 10.81875,4.15078125 10.81875,4.4859375 C10.81875,4.4859375 10.81875,4.4859375 10.81875,4.4859375 C10.81875,4.4859375 10.81875,16.746875 10.81875,16.746875 C10.81875,18.375 10.1484375,19.6679687 8.80703125,20.6265625 C8.80703125,20.6265625 8.80703125,20.6265625 8.80703125,20.6265625 C8.80703125,20.6265625 20.109375,20.6265625 20.109375,20.6265625 C21.0671875,20.6265625 21.88125,20.2914062 22.5515625,19.6210937 C23.221875,18.9507812 23.5570313,18.1367187 23.5570313,17.2265625 C23.5570313,17.2265625 23.5570313,17.2265625 23.5570313,17.2265625 L23.5578125,17.225 Z"/>
  <title>Receipt</title>
</svg>