<svg xmlns="http://www.w3.org/2000/svg" viewBox="0 0 25 25" id="receipt-solid">
  <path d="M15.7015625,11.8125 C15.7015625,11.8125 18.6710937,11.8125 18.6710937,11.8125 C18.9101562,11.8125 19.15,11.9085938 19.3414062,12.1 C19.5328125,12.2914062 19.6289062,12.53125 19.6289062,12.81875 C19.6289062,12.81875 19.6289062,12.81875 19.6289062,12.81875 C19.6289062,12.81875 19.6289062,14.7820313 19.6289062,14.7820313 C19.6289062,15.0210938 19.5328125,15.2609375 19.3414062,15.4523438 C19.15,15.64375 18.9101562,15.7398438 18.6710937,15.7398438 C18.6710937,15.7398438 18.6710937,15.7398438 18.6710937,15.7398438 C18.6710937,15.7398438 17.665625,15.7398438 17.665625,15.7398438 C17.665625,15.7398438 17.665625,16.21875 17.665625,16.21875 C17.665625,16.5539063 17.521875,16.7453125 17.1867187,16.7453125 C16.8515625,16.7453125 16.7078125,16.5539063 16.7078125,16.21875 C16.7078125,16.21875 16.7078125,16.21875 16.7078125,16.21875 C16.7078125,16.21875 16.7078125,15.7398438 16.7078125,15.7398438 C16.7078125,15.7398438 15.2234375,15.7398438 15.2234375,15.7398438 C14.8882813,15.7398438 14.7445312,15.5960938 14.7445312,15.2609375 C14.7445312,14.9257813 14.8882813,14.7820313 15.2234375,14.7820313 C15.2234375,14.7820313 15.2234375,14.7820313 15.2234375,14.7820313 C15.2234375,14.7820313 18.671875,14.7820313 18.671875,14.7820313 C18.671875,14.7820313 18.671875,12.81875 18.671875,12.81875 C18.671875,12.81875 15.7023437,12.81875 15.7023437,12.81875 C15.4632812,12.81875 15.2234375,12.7226563 15.0320312,12.4835938 C15.0320312,12.4835938 15.0320312,12.4835938 15.0320312,12.4835938 C14.840625,12.2921875 14.7445312,12.0523438 14.7445312,11.8132813 C14.7445312,11.8132813 14.7445312,11.8132813 14.7445312,11.8132813 C14.7445312,11.8132813 14.7445312,9.85 14.7445312,9.85 C14.7445312,9.6109375 14.840625,9.37109375 15.0320312,9.1796875 C15.2234375,8.98828125 15.4632812,8.8921875 15.7023437,8.8921875 C15.7023437,8.8921875 15.7023437,8.8921875 15.7023437,8.8921875 C15.7023437,8.8921875 16.7078125,8.8921875 16.7078125,8.8921875 C16.7078125,8.8921875 16.7078125,8.365625 16.7078125,8.365625 C16.7078125,8.03046875 16.8515625,7.88671875 17.1867187,7.88671875 C17.521875,7.88671875 17.665625,8.03046875 17.665625,8.365625 C17.665625,8.365625 17.665625,8.365625 17.665625,8.365625 C17.665625,8.365625 17.665625,8.8921875 17.665625,8.8921875 C17.665625,8.8921875 19.15,8.8921875 19.15,8.8921875 C19.4851562,8.8921875 19.6289062,9.0359375 19.6289062,9.37109375 C19.6289062,9.70625 19.4851562,9.85 19.15,9.85 C19.15,9.85 19.15,9.85 19.15,9.85 C19.15,9.85 15.7015625,9.85 15.7015625,9.85 C15.7015625,9.85 15.7015625,11.8132813 15.7015625,11.8132813 L15.7015625,11.8125 Z M24.5617187,4.48515625 C24.5617187,4.05390625 24.4179687,3.71875 24.1304687,3.43125 C23.8429688,3.14375 23.5078125,3 23.0765625,3 C23.0765625,3 23.0765625,3 23.0765625,3 C23.0765625,3 11.2953125,3 11.2953125,3 C10.8640625,3 10.5289063,3.14375 10.2414062,3.43125 C9.95390625,3.71875 9.81015625,4.05390625 9.81015625,4.48515625 C9.81015625,4.48515625 9.81015625,4.48515625 9.81015625,4.48515625 C9.81015625,4.48515625 9.81015625,16.7453125 9.81015625,16.7453125 C9.81015625,17.846875 9.42734375,18.7570312 8.6609375,19.475 C8.6609375,19.475 8.6609375,19.475 8.6609375,19.475 C7.89453125,20.2414063 6.984375,20.6242187 5.8828125,20.6242187 C4.78125,20.6242187 3.87109375,20.2414063 3.1046875,19.475 C3.1046875,19.475 3.1046875,19.475 3.1046875,19.475 C2.33828125,18.75625 1.95546875,17.846875 1.95546875,16.7453125 C1.95546875,16.7453125 1.95546875,16.7453125 1.95546875,16.7453125 C1.95546875,16.7453125 1.95546875,9.8484375 1.95546875,9.8484375 C1.95546875,9.178125 2.19453125,8.603125 2.67421875,8.12421875 C3.15390625,7.6453125 3.728125,7.40546875 4.44609375,7.40546875 C4.44609375,7.40546875 4.44609375,7.40546875 4.44609375,7.40546875 C5.11640625,7.40546875 5.69140625,7.64453125 6.1703125,8.12421875 C6.64921875,8.60390625 6.8890625,9.178125 6.8890625,9.8484375 C6.8890625,9.8484375 6.8890625,9.8484375 6.8890625,9.8484375 C6.8890625,9.8484375 6.8890625,16.2179688 6.8890625,16.2179688 C6.8890625,16.5054687 6.79296875,16.7445313 6.6015625,16.9367188 C6.41015625,17.1289063 6.1703125,17.2242187 5.8828125,17.2242187 C5.8828125,17.2242187 5.8828125,17.2242187 5.8828125,17.2242187 C5.64375,17.2242187 5.40390625,17.128125 5.2125,16.9367188 C5.02109375,16.7453125 4.925,16.5054688 4.925,16.2179688 C4.925,16.2179688 4.925,16.2179688 4.925,16.2179688 C4.925,16.2179688 4.925,9.8484375 4.925,9.8484375 C4.925,9.51328125 4.78125,9.36953125 4.44609375,9.36953125 C4.44609375,9.36953125 4.44609375,9.36953125 4.44609375,9.36953125 C4.1109375,9.36953125 3.91953125,9.51328125 3.91953125,9.8484375 C3.91953125,9.8484375 3.91953125,9.8484375 3.91953125,9.8484375 C3.91953125,9.8484375 3.91953125,16.2179688 3.91953125,16.2179688 C3.91953125,16.7445313 4.1109375,17.2234375 4.49453125,17.6070312 C4.878125,17.990625 5.35625,18.1820312 5.88359375,18.1820312 C6.41015625,18.1820312 6.8890625,17.990625 7.27265625,17.6070312 C7.65625,17.2234375 7.84765625,16.7453125 7.84765625,16.2179688 C7.84765625,16.2179688 7.84765625,16.2179688 7.84765625,16.2179688 C7.84765625,16.2179688 7.84765625,9.8484375 7.84765625,9.8484375 C7.84765625,8.93828125 7.5125,8.12421875 6.8421875,7.45390625 C6.171875,6.78359375 5.3578125,6.4484375 4.44765625,6.4484375 C4.44765625,6.4484375 4.44765625,6.4484375 4.44765625,6.4484375 C3.48984375,6.4484375 2.67578125,6.78359375 2.00546875,7.45390625 C1.33515625,8.12421875 1,8.93828125 1,9.8484375 C1,9.8484375 1,9.8484375 1,9.8484375 C1,9.8484375 1,16.7453125 1,16.7453125 C1,18.0859375 1.47890625,19.2359375 2.43671875,20.19375 C3.39453125,21.1515625 4.54375,21.6304687 5.88515625,21.6304687 C5.88515625,21.6304687 5.88515625,21.6304687 5.88515625,21.6304687 C5.88515625,21.6304687 20.109375,21.6304687 20.109375,21.6304687 C21.3070313,21.6304687 22.3601562,21.1992188 23.2703125,20.3375 C23.2703125,20.3375 23.2703125,20.3375 23.2703125,20.3375 C24.1320313,19.4757812 24.5632812,18.421875 24.5632812,17.2242187 C24.5632812,17.2242187 24.5632812,17.2242187 24.5632812,17.2242187 C24.5632812,17.2242187 24.5632812,4.48515625 24.5632812,4.48515625 L24.5617187,4.48515625 Z"/>
  <title>Receipt Solid</title>
</svg>