<svg xmlns="http://www.w3.org/2000/svg" viewBox="0 0 25 25" id="reply-solid">
  <path d="M0,10.38125 C0,10.38125 0,10.38125 0,10.38125 C0,10.0460938 0.09609375,9.8546875 0.2875,9.7109375 C0.2875,9.7109375 0.2875,9.7109375 0.2875,9.7109375 C0.2875,9.7109375 7.9984375,2.14375 7.9984375,2.14375 C8.09453125,2.04765625 8.18984375,2 8.33359375,2 C8.33359375,2 8.33359375,2 8.33359375,2 C8.66875,2 8.8125,2.14375 8.8125,2.47890625 C8.8125,2.47890625 8.8125,2.47890625 8.8125,2.47890625 C8.8125,2.47890625 8.8125,6.7890625 8.8125,6.7890625 C12.93125,6.7890625 16.5234375,8.1296875 19.5882812,10.8601563 C19.5882812,10.8601563 19.5882812,10.8601563 19.5882812,10.8601563 C22.6054688,13.5898438 24.2820312,17.2296875 24.5210937,21.6835938 C24.5210937,21.6835938 24.5210937,21.6835938 24.5210937,21.6835938 C24.5210937,21.6835938 24.5210937,21.73125 24.5210937,21.73125 C24.5210937,22.0664062 24.3773438,22.2101563 24.0421875,22.2101563 C24.0421875,22.2101563 24.0421875,22.2101563 24.0421875,22.2101563 C23.8507812,22.2101563 23.7070312,22.1140625 23.6109375,21.9710938 C23.6109375,21.9710938 23.6109375,21.9710938 23.6109375,21.9710938 C21.9828125,19.5289062 19.6835937,17.4695313 16.7625,15.840625 C16.7625,15.840625 16.7625,15.840625 16.7625,15.840625 C13.8890625,14.3078125 11.2546875,13.5414062 8.8125,13.5414062 C8.8125,13.5414062 8.8125,13.5414062 8.8125,13.5414062 C8.8125,13.5414062 8.8125,17.9 8.8125,17.9 C8.8125,18.1875 8.66875,18.33125 8.33359375,18.33125 C8.33359375,18.33125 8.33359375,18.33125 8.33359375,18.33125 C8.18984375,18.33125 8.04609375,18.2835937 7.9984375,18.2351562 C7.9984375,18.2351562 7.9984375,18.2351562 7.9984375,18.2351562 C7.9984375,18.2351562 0.2875,11.003125 0.2875,11.003125 C0.09609375,10.859375 0,10.6203125 0,10.3804687 C0,10.3804687 0,10.3804687 0,10.3804687 L0,10.38125 Z"/>
  <title>Reply Solid</title>
</svg>