<svg xmlns="http://www.w3.org/2000/svg" viewBox="0 0 25 25" id="reply">
  <path d="M0.9578125,10.3820313 C0.9578125,10.3820313 7.7109375,16.8 7.7109375,16.8 C7.7109375,16.8 7.7109375,12.6335937 7.7109375,12.6335937 C7.7109375,12.6335937 8.66875,12.6335937 8.66875,12.6335937 C10.871875,12.6335937 13.3140625,13.3039063 16.0445312,14.596875 C16.0445312,14.596875 16.0445312,14.596875 16.0445312,14.596875 C18.7265625,15.8898438 21.025,17.7101562 22.8929687,20.0570313 C22.8929687,20.0570313 22.8929687,20.0570313 22.8929687,20.0570313 C22.3664062,16.5609375 20.7859375,13.6390625 18.1515625,11.2929688 C18.1515625,11.2929688 18.1515625,11.2929688 18.1515625,11.2929688 C15.5171875,8.94609375 12.4046875,7.796875 8.86015625,7.796875 C8.86015625,7.796875 8.86015625,7.796875 8.86015625,7.796875 C8.86015625,7.796875 7.7109375,7.796875 7.7109375,7.796875 C7.7109375,7.796875 7.7109375,3.63046875 7.7109375,3.63046875 C7.7109375,3.63046875 0.9578125,10.3835938 0.9578125,10.3835938 L0.9578125,10.3820313 Z M0.2875,9.7109375 C0.2875,9.7109375 0.2875,9.7109375 0.2875,9.7109375 C0.2875,9.7109375 7.8546875,2.14375 7.8546875,2.14375 C8.04609375,2.04765625 8.1421875,2 8.18984375,2 C8.18984375,2 8.18984375,2 8.18984375,2 C8.525,2 8.66875,2.19140625 8.66875,2.5265625 C8.66875,2.5265625 8.66875,2.5265625 8.66875,2.5265625 C8.66875,2.5265625 8.66875,6.83671875 8.66875,6.83671875 C12.6914063,6.83671875 16.1882812,8.17734375 19.2054688,10.9078125 C19.2054688,10.9078125 19.2054688,10.9078125 19.2054688,10.9078125 C22.175,13.5898437 23.803125,17.1820313 24.0429688,21.73125 C24.0429688,21.73125 24.0429688,21.73125 24.0429688,21.73125 C24.0429688,22.0664062 23.8992187,22.2578125 23.6117188,22.2578125 C23.6117188,22.2578125 23.6117188,22.2578125 23.6117188,22.2578125 C23.4203125,22.2578125 23.2765625,22.1617187 23.1804687,22.01875 C23.1804687,22.01875 23.1804687,22.01875 23.1804687,22.01875 C21.5039062,19.4804688 19.253125,17.4210937 16.4273437,15.8882812 C16.4273437,15.8882812 16.4273437,15.8882812 16.4273437,15.8882812 C13.5539063,14.3078125 10.9671875,13.5414062 8.66875,13.5414062 C8.66875,13.5414062 8.66875,13.5414062 8.66875,13.5414062 C8.66875,13.5414062 8.66875,17.9 8.66875,17.9 C8.66875,18.2351562 8.525,18.3789062 8.18984375,18.3789062 C8.18984375,18.3789062 8.18984375,18.3789062 8.18984375,18.3789062 C8.04609375,18.3789062 7.90234375,18.33125 7.8546875,18.2828125 C7.8546875,18.2828125 7.8546875,18.2828125 7.8546875,18.2828125 C7.8546875,18.2828125 0.2875,11.0507812 0.2875,11.0507812 C0.09609375,10.859375 0,10.6679687 0,10.428125 C0,10.428125 0,10.428125 0,10.428125 C0,10.140625 0.09609375,9.9015625 0.2875,9.709375 L0.2875,9.7109375 Z"/>
  <title>Reply</title>
</svg>