<svg xmlns="http://www.w3.org/2000/svg" viewBox="0 0 25 25" id="reply-all-solid">
  <path d="M2.8734375,11.4296875 C2.8734375,11.4296875 2.8734375,11.4296875 2.8734375,11.4296875 C2.8734375,11.66875 2.96953125,11.8609375 3.1609375,12.1 C3.1609375,12.1 3.1609375,12.1 3.1609375,12.1 C3.1609375,12.1 10.728125,19.2835937 10.728125,19.2835937 C10.9195313,19.3796875 11.0632813,19.4273437 11.1109375,19.4273437 C11.1109375,19.4273437 11.1109375,19.4273437 11.1109375,19.4273437 C11.3984375,19.4273437 11.5421875,19.2359375 11.5421875,18.9007813 C11.5421875,18.9007813 11.5421875,18.9007813 11.5421875,18.9007813 C11.5421875,18.9007813 11.5421875,14.590625 11.5421875,14.590625 C13.984375,14.590625 16.0921875,15.0695312 17.9601563,15.9796875 C17.9601563,15.9796875 17.9601563,15.9796875 17.9601563,15.9796875 C19.7320313,16.8898437 21.5039062,18.565625 23.1804688,21.1039062 C23.1804688,21.1039062 23.1804688,21.1039062 23.1804688,21.1039062 C23.228125,21.2476562 23.371875,21.3429688 23.6117188,21.3429688 C23.6117188,21.3429688 23.6117188,21.3429688 23.6117188,21.3429688 C23.946875,21.3429688 24.090625,21.1515625 24.090625,20.8164062 C24.090625,20.8164062 24.090625,20.8164062 24.090625,20.8164062 C23.6117188,12.1960938 19.4453125,7.88515625 11.5429688,7.88515625 C11.5429688,7.88515625 11.5429688,7.88515625 11.5429688,7.88515625 C11.5429688,7.88515625 11.5429688,3.5265625 11.5429688,3.5265625 C11.5429688,3.19140625 11.3992187,3 11.1117187,3 C11.1117187,3 11.1117187,3 11.1117187,3 C10.9679687,3 10.8242187,3.04765625 10.7289062,3.14375 C10.7289062,3.14375 10.7289062,3.14375 10.7289062,3.14375 C10.7289062,3.14375 3.16171875,10.7109375 3.16171875,10.7109375 C2.9703125,10.9984375 2.87421875,11.2375 2.87421875,11.4296875 L2.8734375,11.4296875 Z M0,11.4296875 C0,11.4296875 0,11.4296875 0,11.4296875 C0,10.9507812 0.14375,10.615625 0.43125,10.4242187 C0.43125,10.4242187 0.43125,10.4242187 0.43125,10.4242187 C0.43125,10.4242187 7.8546875,3.14453125 7.8546875,3.14453125 C8.04609375,3.0484375 8.1421875,3.00078125 8.18984375,3.00078125 C8.18984375,3.00078125 8.18984375,3.00078125 8.18984375,3.00078125 C8.525,3.00078125 8.66875,3.1921875 8.66875,3.52734375 C8.66875,3.52734375 8.66875,3.52734375 8.66875,3.52734375 C8.66875,3.67109375 8.62109375,3.76640625 8.525,3.8625 C8.525,3.8625 8.525,3.8625 8.525,3.8625 C8.525,3.8625 1.1015625,11.0460937 1.1015625,11.0460937 C1.00546875,11.2375 0.9578125,11.38125 0.9578125,11.4289062 C0.9578125,11.4289062 0.9578125,11.4289062 0.9578125,11.4289062 C0.9578125,11.5726562 1.00546875,11.6679687 1.1015625,11.7164063 C1.1015625,11.7164063 1.1015625,11.7164063 1.1015625,11.7164063 C1.1015625,11.7164063 8.525,18.5648438 8.525,18.5648438 C8.62109375,18.6609375 8.66875,18.75625 8.66875,18.9 C8.66875,18.9 8.66875,18.9 8.66875,18.9 C8.66875,19.2351562 8.525,19.4265625 8.18984375,19.4265625 C8.18984375,19.4265625 8.18984375,19.4265625 8.18984375,19.4265625 C8.04609375,19.4265625 7.95078125,19.3789062 7.8546875,19.2828125 C7.8546875,19.2828125 7.8546875,19.2828125 7.8546875,19.2828125 C7.8546875,19.2828125 0.43125,12.434375 0.43125,12.434375 C0.14375,12.146875 0,11.8117187 0,11.4289062 C0,11.4289062 0,11.4289062 0,11.4289062 L0,11.4296875 Z"/>
  <title>Reply All Solid</title>
</svg>