<svg xmlns="http://www.w3.org/2000/svg" viewBox="0 0 25 25" id="reply-all">
  <path d="M3.8796875,11.3820312 C3.8796875,11.3820312 10.7765625,17.8 10.7765625,17.8 C10.7765625,17.8 10.7765625,13.6335937 10.7765625,13.6335937 C10.7765625,13.6335937 11.734375,13.6335937 11.734375,13.6335937 C11.7820313,13.6335937 11.9257813,13.6335937 12.1171875,13.5859375 C12.2609375,13.5859375 12.4046875,13.5859375 12.5484375,13.5859375 C12.5484375,13.5859375 12.5484375,13.5859375 12.5484375,13.5859375 C14.7039063,13.5859375 16.7632813,14.0648438 18.6789063,15.0703125 C18.6789063,15.0703125 18.6789063,15.0703125 18.6789063,15.0703125 C20.5945313,16.0757812 22.175,17.4648438 23.3726563,19.1414062 C23.3726563,19.1414062 23.3726563,19.1414062 23.3726563,19.1414062 C22.4625,12.2445312 18.63125,8.796875 11.7828125,8.796875 C11.7828125,8.796875 11.7828125,8.796875 11.7828125,8.796875 C11.7828125,8.796875 10.7773438,8.796875 10.7773438,8.796875 C10.7773438,8.796875 10.7773438,4.678125 10.7773438,4.678125 C10.7773438,4.678125 3.88046875,11.3828125 3.88046875,11.3828125 L3.8796875,11.3820312 Z M2.921875,11.4296875 C2.921875,11.4296875 2.921875,11.4296875 2.921875,11.4296875 C2.921875,11.2382813 3.01796875,10.9984375 3.209375,10.7109375 C3.209375,10.7109375 3.209375,10.7109375 3.209375,10.7109375 C3.209375,10.7109375 10.9203125,3.14375 10.9203125,3.14375 C11.0164063,3.04765625 11.1117188,3 11.2554688,3 C11.2554688,3 11.2554688,3 11.2554688,3 C11.2554688,3 11.303125,3 11.303125,3 C11.6382813,3 11.7820313,3.19140625 11.7820313,3.5265625 C11.7820313,3.5265625 11.7820313,3.5265625 11.7820313,3.5265625 C11.7820313,3.5265625 11.7820313,7.88515625 11.7820313,7.88515625 C19.7804688,7.88515625 24.0429688,12.1953125 24.5210938,20.8164062 C24.5210938,20.8164062 24.5210938,20.8164062 24.5210938,20.8164062 C24.5210938,21.1515625 24.3773438,21.3429688 24.0421875,21.3429688 C24.0421875,21.3429688 24.0421875,21.3429688 24.0421875,21.3429688 C23.8507813,21.3429688 23.7070313,21.246875 23.6109375,21.1039062 C23.6109375,21.1039062 23.6109375,21.1039062 23.6109375,21.1039062 C21.934375,18.565625 20.1625,16.8890625 18.2945313,15.9796875 C18.2945313,15.9796875 18.2945313,15.9796875 18.2945313,15.9796875 C16.3789063,15.0695312 14.2234375,14.590625 11.78125,14.590625 C11.78125,14.590625 11.78125,14.590625 11.78125,14.590625 C11.78125,14.590625 11.78125,18.9007813 11.78125,18.9007813 C11.78125,19.2359375 11.6375,19.4273437 11.3023438,19.4273437 C11.3023438,19.4273437 11.3023438,19.4273437 11.3023438,19.4273437 C11.3023438,19.4273437 11.2546875,19.4273437 11.2546875,19.4273437 C11.2546875,19.4273437 11.1109375,19.3796875 10.9195313,19.2835937 C10.9195313,19.2835937 10.9195313,19.2835937 10.9195313,19.2835937 C10.9195313,19.2835937 3.20859375,12.1 3.20859375,12.1 C3.0171875,11.8609375 2.92109375,11.66875 2.92109375,11.4296875 L2.921875,11.4296875 Z M0,11.4296875 C0,11.4296875 0,11.4296875 0,11.4296875 C0,10.9507813 0.14375,10.615625 0.43125,10.4242188 C0.43125,10.4242188 0.43125,10.4242188 0.43125,10.4242188 C0.43125,10.4242188 7.9984375,3.14453125 7.9984375,3.14453125 C8.18984375,3.0484375 8.2859375,3.00078125 8.33359375,3.00078125 C8.33359375,3.00078125 8.33359375,3.00078125 8.33359375,3.00078125 C8.66875,3.00078125 8.8125,3.1921875 8.8125,3.52734375 C8.8125,3.52734375 8.8125,3.52734375 8.8125,3.52734375 C8.8125,3.67109375 8.76484375,3.76640625 8.66875,3.8625 C8.66875,3.8625 8.66875,3.8625 8.66875,3.8625 C8.66875,3.8625 1.1015625,11.0460938 1.1015625,11.0460938 C1.00546875,11.1421875 0.9578125,11.2851563 0.9578125,11.4289063 C0.9578125,11.4289063 0.9578125,11.4289063 0.9578125,11.4289063 C0.9578125,11.5726563 1.00546875,11.6679688 1.1015625,11.7164063 C1.1015625,11.7164063 1.1015625,11.7164063 1.1015625,11.7164063 C1.1015625,11.7164063 8.66875,18.5648438 8.66875,18.5648438 C8.76484375,18.6609375 8.8125,18.75625 8.8125,18.9 C8.8125,18.9 8.8125,18.9 8.8125,18.9 C8.8125,19.2351563 8.66875,19.4265625 8.33359375,19.4265625 C8.33359375,19.4265625 8.33359375,19.4265625 8.33359375,19.4265625 C8.18984375,19.4265625 8.09453125,19.3789062 7.9984375,19.2828125 C7.9984375,19.2828125 7.9984375,19.2828125 7.9984375,19.2828125 C7.9984375,19.2828125 0.43125,12.434375 0.43125,12.434375 C0.14375,12.146875 0,11.8117188 0,11.4289062 L0,11.4296875 Z"/>
  <title>Reply All</title>
</svg>