<svg xmlns="http://www.w3.org/2000/svg" viewBox="0 0 25 25" id="reset">
  <path d="M19.9539062,7.1671875 C19.9539062,7.1671875 20.0015625,4.58125 20.0015625,4.58125 C20.0015625,4.00625 20.2890625,3.71953125 20.815625,3.71953125 C20.815625,3.71953125 20.815625,3.71953125 20.815625,3.71953125 C21.390625,3.71953125 21.6773437,4.00703125 21.6773437,4.58125 C21.6773437,4.58125 21.6773437,4.58125 21.6773437,4.58125 C21.6773437,4.58125 21.6773437,9.5140625 21.6773437,9.5140625 C21.6773437,10.040625 21.3898437,10.328125 20.815625,10.328125 C20.815625,10.328125 20.815625,10.328125 20.815625,10.328125 C20.815625,10.328125 15.8351562,10.328125 15.8351562,10.328125 C15.3085937,10.328125 15.0210937,10.040625 15.0210937,9.5140625 C15.0210937,8.9875 15.3085937,8.7 15.8351562,8.7 C15.8351562,8.7 15.8351562,8.7 15.8351562,8.7 C15.8351562,8.7 19.04375,8.7 19.04375,8.7 C18.4210937,7.5984375 17.559375,6.68828125 16.553125,5.9703125 C16.553125,5.9703125 16.553125,5.9703125 16.553125,5.9703125 C15.2601562,5.15625 13.8710937,4.725 12.3382812,4.725 C12.3382812,4.725 12.3382812,4.725 12.3382812,4.725 C10.23125,4.725 8.4109375,5.49140625 6.9265625,6.97578125 C6.9265625,6.97578125 6.9265625,6.97578125 6.9265625,6.97578125 C5.4421875,8.46015625 4.7234375,10.2328125 4.7234375,12.3398438 C4.7234375,14.446875 5.4421875,16.2195313 6.9265625,17.7039063 C6.9265625,17.7039063 6.9265625,17.7039063 6.9265625,17.7039063 C8.4109375,19.1882812 10.23125,19.9546875 12.3382812,19.9546875 C12.3382812,19.9546875 12.3382812,19.9546875 12.3382812,19.9546875 C14.6375,19.9546875 16.553125,19.0929688 18.0375,17.4164063 C18.0375,17.4164063 18.0375,17.4164063 18.0375,17.4164063 C18.0375,17.4164063 18.1335937,17.3203125 18.1335937,17.3203125 C18.3726563,17.1765625 18.5648438,17.08125 18.6601562,17.08125 C18.6601562,17.08125 18.6601562,17.08125 18.6601562,17.08125 C19.2828125,17.08125 19.5703125,17.36875 19.5703125,17.9429688 C19.5703125,17.9429688 19.5703125,17.9429688 19.5703125,17.9429688 C19.5703125,18.1820313 19.4742187,18.3742188 19.33125,18.4695313 C19.33125,18.4695313 19.33125,18.4695313 19.33125,18.4695313 C17.4632813,20.625 15.1648438,21.678125 12.3390625,21.678125 C12.3390625,21.678125 12.3390625,21.678125 12.3390625,21.678125 C9.80078125,21.678125 7.59765625,20.7679688 5.7296875,18.9484375 C5.7296875,18.9484375 5.7296875,18.9484375 5.7296875,18.9484375 C3.91015625,17.0804688 3,14.8773438 3,12.3390625 C3,9.80078125 3.91015625,7.59765625 5.7296875,5.7296875 C5.7296875,5.7296875 5.7296875,5.7296875 5.7296875,5.7296875 C7.59765625,3.91015625 9.80078125,3 12.3390625,3 C12.3390625,3 12.3390625,3 12.3390625,3 C14.2070312,3 15.93125,3.5265625 17.5117188,4.58046875 C17.5117188,4.58046875 17.5117188,4.58046875 17.5117188,4.58046875 C18.3257812,5.10703125 19.1398437,5.96953125 19.9539062,7.16640625 C19.9539062,7.16640625 19.9539062,7.16640625 19.9539062,7.16640625 L19.9539062,7.1671875 Z"/>
  <title>Reset</title>
</svg>