<svg xmlns="http://www.w3.org/2000/svg" viewBox="0 0 25 25" id="retweet">
  <path d="M21.6,5 C21.6,5 2.921875,5 2.921875,5 C2.921875,5 2.921875,6.96328125 2.921875,6.96328125 C2.921875,6.96328125 3.92734375,6.96328125 3.92734375,6.96328125 C3.92734375,6.96328125 3.92734375,6.00546875 3.92734375,6.00546875 C3.92734375,6.00546875 20.59375,6.00546875 20.59375,6.00546875 C20.59375,6.00546875 20.59375,14.8179687 20.59375,14.8179687 C20.59375,14.8179687 18.6304687,12.8546875 18.6304687,12.8546875 C18.6304687,12.8546875 17.6726562,12.8546875 17.6726562,12.8546875 C17.6726562,12.8546875 21.0726562,16.303125 21.0726562,16.303125 C21.0726562,16.303125 24.5210937,12.8546875 24.5210937,12.8546875 C24.5210937,12.8546875 23.5632812,12.8546875 23.5632812,12.8546875 C23.5632812,12.8546875 21.6,14.8179687 21.6,14.8179687 C21.6,14.8179687 21.6,5 21.6,5 Z M3.4484375,8.4484375 C3.4484375,8.4484375 0,11.896875 0,11.896875 C0,11.896875 0.9578125,11.896875 0.9578125,11.896875 C0.9578125,11.896875 2.92109375,9.93359375 2.92109375,9.93359375 C2.92109375,9.93359375 2.92109375,19.7515625 2.92109375,19.7515625 C2.92109375,19.7515625 21.5992187,19.7515625 21.5992187,19.7515625 C21.5992187,19.7515625 21.5992187,17.7882813 21.5992187,17.7882813 C21.5992187,17.7882813 20.59375,17.7882813 20.59375,17.7882813 C20.59375,17.7882813 20.59375,18.7460938 20.59375,18.7460938 C20.59375,18.7460938 3.92734375,18.7460938 3.92734375,18.7460938 C3.92734375,18.7460938 3.92734375,9.93359375 3.92734375,9.93359375 C3.92734375,9.93359375 5.890625,11.896875 5.890625,11.896875 C5.890625,11.896875 6.8484375,11.896875 6.8484375,11.896875 C6.8484375,11.896875 3.44765625,8.4484375 3.44765625,8.4484375 L3.4484375,8.4484375 Z"/>
  <title>Retweet</title>
</svg>