<svg xmlns="http://www.w3.org/2000/svg" viewBox="0 0 25 25" id="rewind-solid">
  <path d="M22.0734375,21.4867188 C22.0734375,21.4867188 7.32265625,13.1054688 7.32265625,13.1054688 C7.03515625,12.8664062 6.89140625,12.6265625 6.89140625,12.2914063 C6.89140625,11.95625 7.03515625,11.7164063 7.32265625,11.4773437 C7.32265625,11.4773437 7.32265625,11.4773437 7.32265625,11.4773437 C7.32265625,11.4773437 22.0734375,3.14375 22.0734375,3.14375 C22.1695312,3.04765625 22.3609375,3 22.6,3 C22.8390625,3 23.0789062,3.09609375 23.2703125,3.2875 C23.4617187,3.47890625 23.5578125,3.71875 23.5578125,3.9578125 C23.5578125,3.9578125 23.5578125,3.9578125 23.5578125,3.9578125 C23.5578125,3.9578125 23.5578125,20.6726562 23.5578125,20.6726562 C23.5578125,20.9117187 23.4617187,21.1515625 23.2703125,21.3429688 C23.0789062,21.534375 22.8390625,21.6304687 22.6,21.6304687 C22.3609375,21.6304687 22.16875,21.5828125 22.0734375,21.4867187 C22.0734375,21.4867187 22.0734375,21.4867187 22.0734375,21.4867188 Z M16.1820313,21.4867188 C16.1820313,21.4867188 1.43125,13.1054688 1.43125,13.1054688 C1.14375,12.8664062 1,12.6265625 1,12.2914063 C1,11.95625 1.14375,11.7164063 1.43125,11.4773437 C1.43125,11.4773437 1.43125,11.4773437 1.43125,11.4773437 C1.43125,11.4773437 16.1820313,3.14375 16.1820313,3.14375 C16.278125,3.04765625 16.4695313,3 16.7085938,3 C16.9476563,3 17.1875,3.09609375 17.3789063,3.2875 C17.5703125,3.47890625 17.6664063,3.71875 17.6664063,3.9578125 C17.6664063,3.9578125 17.6664063,3.9578125 17.6664063,3.9578125 C17.6664063,3.9578125 17.6664063,20.6726562 17.6664063,20.6726562 C17.6664063,20.9117187 17.5703125,21.1515625 17.3789063,21.3429688 C17.1875,21.534375 16.9476563,21.6304687 16.7085938,21.6304687 C16.4695313,21.6304687 16.2773438,21.5828125 16.1820313,21.4867187 C16.1820313,21.4867187 16.1820313,21.4867187 16.1820313,21.4867188 Z"/>
  <title>Rewind Solid</title>
</svg>