<svg xmlns="http://www.w3.org/2000/svg" viewBox="0 0 25 25" id="robot-happy-solid">
  <path d="M5.890625,4.92734375 C5.890625,4.92734375 5.890625,4.92734375 5.890625,4.92734375 C5.890625,4.92734375 18.6296875,4.92734375 18.6296875,4.92734375 C19.73125,4.92734375 20.6414062,5.31015625 21.4078125,6.0765625 C22.1742188,6.84296875 22.5570313,7.753125 22.5570313,8.8546875 C22.5570313,8.8546875 22.5570313,8.8546875 22.5570313,8.8546875 C22.5570313,8.8546875 22.5570313,16.709375 22.5570313,16.709375 C22.5570313,17.8109375 22.1742188,18.7210938 21.4078125,19.4875 C20.6414062,20.2539063 19.73125,20.6367188 18.6296875,20.6367188 C18.6296875,20.6367188 18.6296875,20.6367188 18.6296875,20.6367188 C18.6296875,20.6367188 5.890625,20.6367188 5.890625,20.6367188 C4.7890625,20.6367188 3.87890625,20.2539063 3.1125,19.4875 C2.34609375,18.7210938 1.96328125,17.8109375 1.96328125,16.709375 C1.96328125,16.709375 1.96328125,16.709375 1.96328125,16.709375 C1.96328125,16.709375 1.96328125,8.8546875 1.96328125,8.8546875 C1.96328125,7.753125 2.34609375,6.84296875 3.1125,6.0765625 C3.87890625,5.31015625 4.7890625,4.92734375 5.890625,4.92734375 Z M8.8125,9.86015625 C8.8125,9.86015625 8.8125,9.86015625 8.8125,9.86015625 C8.5734375,9.86015625 8.33359375,9.95625 8.1421875,10.1476562 C7.95078125,10.3390625 7.8546875,10.5789062 7.8546875,10.8179687 C7.8546875,10.8179687 7.8546875,10.8179687 7.8546875,10.8179687 C7.8546875,10.8179687 7.8546875,12.78125 7.8546875,12.78125 C7.8546875,12.78125 9.81796875,12.78125 9.81796875,12.78125 C9.81796875,12.78125 9.81796875,10.8179687 9.81796875,10.8179687 C9.81796875,10.5789062 9.721875,10.3390625 9.53046875,10.1476562 C9.3390625,9.95625 9.09921875,9.86015625 8.81171875,9.86015625 L8.8125,9.86015625 Z M15.7085938,9.86015625 C15.7085938,9.86015625 15.7085938,9.86015625 15.7085938,9.86015625 C15.4210938,9.86015625 15.1820313,9.95625 14.9898438,10.1476562 C14.7976562,10.3390625 14.7023438,10.5789062 14.7023438,10.8179687 C14.7023438,10.8179687 14.7023438,10.8179687 14.7023438,10.8179687 C14.7023438,10.8179687 14.7023438,12.78125 14.7023438,12.78125 C14.7023438,12.78125 16.665625,12.78125 16.665625,12.78125 C16.665625,12.78125 16.665625,10.8179687 16.665625,10.8179687 C16.665625,10.5789062 16.5695313,10.3390625 16.378125,10.1476562 C16.1867188,9.95625 15.946875,9.86015625 15.7078125,9.86015625 L15.7085938,9.86015625 Z M18.6304688,14.7453125 C18.6304688,14.7453125 5.89140625,14.7453125 5.89140625,14.7453125 C5.89140625,14.7453125 5.89140625,16.2296875 5.89140625,16.2296875 C5.89140625,16.6609375 6.03515625,16.9960938 6.32265625,17.2835937 C6.61015625,17.5710937 6.9453125,17.7148438 7.3765625,17.7148438 C7.3765625,17.7148438 7.3765625,17.7148438 7.3765625,17.7148438 C7.3765625,17.7148438 17.146875,17.7148438 17.146875,17.7148438 C17.578125,17.7148438 17.9132813,17.5710937 18.2007812,17.2835937 C18.4882812,16.9960938 18.6320313,16.6609375 18.6320313,16.2296875 C18.6320313,16.2296875 18.6320313,16.2296875 18.6320313,16.2296875 C18.6320313,16.2296875 18.6320313,14.7453125 18.6320313,14.7453125 L18.6304688,14.7453125 Z M6.8484375,13.7875 C6.8484375,13.7875 6.36953125,13.7875 6.36953125,13.7875 C6.034375,13.7875 5.890625,13.93125 5.890625,14.2664062 C5.890625,14.2664062 5.890625,14.2664062 5.890625,14.2664062 C5.890625,14.2664062 5.890625,14.7453125 5.890625,14.7453125 C5.890625,14.7453125 6.8484375,14.7453125 6.8484375,14.7453125 C6.8484375,14.7453125 6.8484375,13.7875 6.8484375,13.7875 Z M18.1515625,13.7875 C18.1515625,13.7875 17.6726562,13.7875 17.6726562,13.7875 C17.6726562,13.7875 17.6726562,14.7453125 17.6726562,14.7453125 C17.6726562,14.7453125 18.6304687,14.7453125 18.6304687,14.7453125 C18.6304687,14.7453125 18.6304687,14.2664062 18.6304687,14.2664062 C18.6304687,13.93125 18.4867187,13.7875 18.1515625,13.7875 C18.1515625,13.7875 18.1515625,13.7875 18.1515625,13.7875 Z M0.9578125,13.7875 C0.9578125,13.7875 0.9578125,12.7820312 0.9578125,12.7820312 C0.9578125,12.7820312 1.96328125,12.7820312 1.96328125,12.7820312 C1.96328125,12.7820312 1.96328125,13.7875 1.96328125,13.7875 C1.96328125,13.7875 0.9578125,13.7875 0.9578125,13.7875 Z M22.5578125,13.7875 C22.5578125,13.7875 22.5578125,12.7820312 22.5578125,12.7820312 C22.5578125,12.7820312 23.5632813,12.7820312 23.5632813,12.7820312 C23.5632813,12.7820312 23.5632813,13.7875 23.5632813,13.7875 C23.5632813,13.7875 22.5578125,13.7875 22.5578125,13.7875 Z M0,11.3453125 C0,11.0101562 0.14375,10.81875 0.47890625,10.81875 C0.8140625,10.81875 0.9578125,11.0101562 0.9578125,11.3453125 C0.9578125,11.3453125 0.9578125,11.3453125 0.9578125,11.3453125 C0.9578125,11.3453125 0.9578125,15.225 0.9578125,15.225 C0.9578125,15.5601562 0.8140625,15.7515625 0.47890625,15.7515625 C0.14375,15.7515625 0,15.5601562 0,15.225 C0,15.225 0,15.225 0,15.225 C0,15.225 0,11.3453125 0,11.3453125 Z M23.5632812,11.3453125 C23.5632812,11.0101562 23.7070312,10.81875 24.0421875,10.81875 C24.3773437,10.81875 24.5210937,11.0101562 24.5210937,11.3453125 C24.5210937,11.3453125 24.5210937,11.3453125 24.5210937,11.3453125 C24.5210937,11.3453125 24.5210937,15.225 24.5210937,15.225 C24.5210937,15.5601562 24.3773437,15.7515625 24.0421875,15.7515625 C23.7070312,15.7515625 23.5632812,15.5601562 23.5632812,15.225 C23.5632812,15.225 23.5632812,15.225 23.5632812,15.225 C23.5632812,15.225 23.5632812,11.3453125 23.5632812,11.3453125 Z M6.36953125,22.6 C6.36953125,22.6 6.36953125,22.6 6.36953125,22.6 C6.36953125,22.6 18.1507812,22.6 18.1507812,22.6 C18.4859375,22.6 18.6296875,22.74375 18.6296875,23.0789062 C18.6296875,23.0789062 18.6296875,23.0789062 18.6296875,23.0789062 C18.6296875,23.0789062 18.6296875,23.6054688 18.6296875,23.6054688 C18.6296875,23.6054688 5.890625,23.6054688 5.890625,23.6054688 C5.890625,23.6054688 5.890625,23.0789062 5.890625,23.0789062 C5.890625,22.74375 6.034375,22.6 6.36953125,22.6 Z M10.7757812,23.6054688 C10.7757812,23.6054688 10.7757812,20.6359375 10.7757812,20.6359375 C10.7757812,20.6359375 13.7453125,20.6359375 13.7453125,20.6359375 C13.7453125,20.6359375 13.7453125,23.6054688 13.7453125,23.6054688 C13.7453125,23.6054688 10.7757812,23.6054688 10.7757812,23.6054688 Z M13.3140625,1.43125 C13.6015625,1.71875 13.7453125,2.05390625 13.7453125,2.48515625 C13.7453125,2.91640625 13.6015625,3.2515625 13.3140625,3.5390625 C13.0265625,3.8265625 12.6914062,3.9703125 12.2601562,3.9703125 C11.8289063,3.9703125 11.49375,3.8265625 11.20625,3.5390625 C10.91875,3.2515625 10.775,2.91640625 10.775,2.48515625 C10.775,2.05390625 10.91875,1.71875 11.20625,1.43125 C11.49375,1.14375 11.8289063,1 12.2601562,1 C12.6914062,1 13.0265625,1.14375 13.3140625,1.43125 Z M11.78125,4.92734375 C11.78125,4.92734375 11.78125,2.9640625 11.78125,2.9640625 C11.78125,2.9640625 12.7390625,2.9640625 12.7390625,2.9640625 C12.7390625,2.9640625 12.7390625,4.92734375 12.7390625,4.92734375 C12.7390625,4.92734375 11.78125,4.92734375 11.78125,4.92734375 Z"/>
  <title>Robot Happy Solid</title>
</svg>