<svg xmlns="http://www.w3.org/2000/svg" viewBox="0 0 25 25" id="robot-sad-solid">
  <path d="M5.890625,4.92734375 C5.890625,4.92734375 5.890625,4.92734375 5.890625,4.92734375 C5.890625,4.92734375 18.6296875,4.92734375 18.6296875,4.92734375 C19.73125,4.92734375 20.6414062,5.31015625 21.4078125,6.0765625 C22.1742188,6.84296875 22.5570313,7.753125 22.5570313,8.8546875 C22.5570313,8.8546875 22.5570313,8.8546875 22.5570313,8.8546875 C22.5570313,8.8546875 22.5570313,16.709375 22.5570313,16.709375 C22.5570313,17.8109375 22.1742188,18.7210938 21.4078125,19.4875 C20.6414062,20.2539063 19.73125,20.6367188 18.6296875,20.6367188 C18.6296875,20.6367188 18.6296875,20.6367188 18.6296875,20.6367188 C18.6296875,20.6367188 5.890625,20.6367188 5.890625,20.6367188 C4.7890625,20.6367188 3.87890625,20.2539063 3.1125,19.4875 C2.34609375,18.7210938 1.96328125,17.8109375 1.96328125,16.709375 C1.96328125,16.709375 1.96328125,16.709375 1.96328125,16.709375 C1.96328125,16.709375 1.96328125,8.8546875 1.96328125,8.8546875 C1.96328125,7.753125 2.34609375,6.84296875 3.1125,6.0765625 C3.87890625,5.31015625 4.7890625,4.92734375 5.890625,4.92734375 Z M17.6726563,11.3453125 C17.6726563,11.3453125 17.6726563,11.3453125 17.6726563,11.3453125 C17.6726563,11.0101562 17.48125,10.81875 17.1460938,10.81875 C17.1460938,10.81875 17.1460938,10.81875 17.1460938,10.81875 C17.1460938,10.81875 14.225,10.81875 14.225,10.81875 C13.8898438,10.81875 13.7460938,11.0101562 13.7460938,11.3453125 C13.7460938,11.3453125 13.7460938,11.3453125 13.7460938,11.3453125 C13.7460938,11.6804687 13.8898438,11.8242187 14.225,11.8242187 C14.225,11.8242187 14.225,11.8242187 14.225,11.8242187 C14.225,11.8242187 17.1460938,11.8242187 17.1460938,11.8242187 C17.48125,11.8242187 17.6726563,11.6804687 17.6726563,11.3453125 Z M10.7757813,11.3453125 C10.7757813,11.3453125 10.7757813,11.3453125 10.7757813,11.3453125 C10.7757813,11.0101562 10.6320313,10.81875 10.296875,10.81875 C10.296875,10.81875 10.296875,10.81875 10.296875,10.81875 C10.296875,10.81875 7.37578125,10.81875 7.37578125,10.81875 C7.040625,10.81875 6.84921875,11.0101562 6.84921875,11.3453125 C6.84921875,11.3453125 6.84921875,11.3453125 6.84921875,11.3453125 C6.84921875,11.6804687 7.040625,11.8242187 7.37578125,11.8242187 C7.37578125,11.8242187 7.37578125,11.8242187 7.37578125,11.8242187 C7.37578125,11.8242187 10.296875,11.8242187 10.296875,11.8242187 C10.6320313,11.8242187 10.7757813,11.6804687 10.7757813,11.3453125 L10.7757813,11.3453125 Z M7.8546875,14.7453125 C7.8546875,14.7453125 16.6671875,14.7453125 16.6671875,14.7453125 C16.6671875,14.50625 16.5710937,14.2664062 16.3796875,14.075 C16.1882813,13.8835937 15.9484375,13.7875 15.709375,13.7875 C15.709375,13.7875 15.709375,13.7875 15.709375,13.7875 C15.709375,13.7875 8.8125,13.7875 8.8125,13.7875 C8.5734375,13.7875 8.33359375,13.8835938 8.1421875,14.075 C7.95078125,14.2664062 7.8546875,14.50625 7.8546875,14.7453125 C7.8546875,14.7453125 7.8546875,14.7453125 7.8546875,14.7453125 Z M16.6664063,15.7515625 C16.6664063,15.7515625 17.1453125,15.7515625 17.1453125,15.7515625 C17.4804688,15.7515625 17.671875,15.5601562 17.671875,15.225 C17.671875,15.225 17.671875,15.225 17.671875,15.225 C17.671875,15.225 17.671875,14.7460938 17.671875,14.7460938 C17.671875,14.7460938 16.6664063,14.7460938 16.6664063,14.7460938 C16.6664063,14.7460938 16.6664063,15.7515625 16.6664063,15.7515625 Z M7.37578125,15.7515625 C7.37578125,15.7515625 7.8546875,15.7515625 7.8546875,15.7515625 C7.8546875,15.7515625 7.8546875,14.7460938 7.8546875,14.7460938 C7.8546875,14.7460938 6.84921875,14.7460938 6.84921875,14.7460938 C6.84921875,14.7460938 6.84921875,15.225 6.84921875,15.225 C6.84921875,15.5601562 7.040625,15.7515625 7.37578125,15.7515625 C7.37578125,15.7515625 7.37578125,15.7515625 7.37578125,15.7515625 Z M0.9578125,13.7875 C0.9578125,13.7875 0.9578125,12.7820312 0.9578125,12.7820312 C0.9578125,12.7820312 1.96328125,12.7820312 1.96328125,12.7820312 C1.96328125,12.7820312 1.96328125,13.7875 1.96328125,13.7875 C1.96328125,13.7875 0.9578125,13.7875 0.9578125,13.7875 Z M22.5578125,13.7875 C22.5578125,13.7875 22.5578125,12.7820312 22.5578125,12.7820312 C22.5578125,12.7820312 23.5632813,12.7820312 23.5632813,12.7820312 C23.5632813,12.7820312 23.5632813,13.7875 23.5632813,13.7875 C23.5632813,13.7875 22.5578125,13.7875 22.5578125,13.7875 Z M0,11.3453125 C0,11.0101562 0.14375,10.81875 0.47890625,10.81875 C0.8140625,10.81875 0.9578125,11.0101562 0.9578125,11.3453125 C0.9578125,11.3453125 0.9578125,11.3453125 0.9578125,11.3453125 C0.9578125,11.3453125 0.9578125,15.225 0.9578125,15.225 C0.9578125,15.5601562 0.8140625,15.7515625 0.47890625,15.7515625 C0.14375,15.7515625 0,15.5601562 0,15.225 C0,15.225 0,15.225 0,15.225 C0,15.225 0,11.3453125 0,11.3453125 Z M23.5632812,11.3453125 C23.5632812,11.0101562 23.7070312,10.81875 24.0421875,10.81875 C24.3773437,10.81875 24.5210937,11.0101562 24.5210937,11.3453125 C24.5210937,11.3453125 24.5210937,11.3453125 24.5210937,11.3453125 C24.5210937,11.3453125 24.5210937,15.225 24.5210937,15.225 C24.5210937,15.5601562 24.3773437,15.7515625 24.0421875,15.7515625 C23.7070312,15.7515625 23.5632812,15.5601562 23.5632812,15.225 C23.5632812,15.225 23.5632812,15.225 23.5632812,15.225 C23.5632812,15.225 23.5632812,11.3453125 23.5632812,11.3453125 Z M6.36953125,22.6 C6.36953125,22.6 6.36953125,22.6 6.36953125,22.6 C6.36953125,22.6 18.1507812,22.6 18.1507812,22.6 C18.4859375,22.6 18.6296875,22.74375 18.6296875,23.0789062 C18.6296875,23.0789062 18.6296875,23.0789062 18.6296875,23.0789062 C18.6296875,23.0789062 18.6296875,23.6054688 18.6296875,23.6054688 C18.6296875,23.6054688 5.890625,23.6054688 5.890625,23.6054688 C5.890625,23.6054688 5.890625,23.0789062 5.890625,23.0789062 C5.890625,22.74375 6.034375,22.6 6.36953125,22.6 Z M10.7757812,23.6054688 C10.7757812,23.6054688 10.7757812,20.6359375 10.7757812,20.6359375 C10.7757812,20.6359375 13.7453125,20.6359375 13.7453125,20.6359375 C13.7453125,20.6359375 13.7453125,23.6054688 13.7453125,23.6054688 C13.7453125,23.6054688 10.7757812,23.6054688 10.7757812,23.6054688 Z M13.3140625,1.43125 C13.6015625,1.71875 13.7453125,2.05390625 13.7453125,2.48515625 C13.7453125,2.91640625 13.6015625,3.2515625 13.3140625,3.5390625 C13.0265625,3.8265625 12.6914062,3.9703125 12.2601562,3.9703125 C11.8289063,3.9703125 11.49375,3.8265625 11.20625,3.5390625 C10.91875,3.2515625 10.775,2.91640625 10.775,2.48515625 C10.775,2.05390625 10.91875,1.71875 11.20625,1.43125 C11.49375,1.14375 11.8289063,1 12.2601562,1 C12.6914062,1 13.0265625,1.14375 13.3140625,1.43125 Z M11.78125,4.92734375 C11.78125,4.92734375 11.78125,2.9640625 11.78125,2.9640625 C11.78125,2.9640625 12.7390625,2.9640625 12.7390625,2.9640625 C12.7390625,2.9640625 12.7390625,4.92734375 12.7390625,4.92734375 C12.7390625,4.92734375 11.78125,4.92734375 11.78125,4.92734375 Z"/>
  <title>Robot Sad Solid</title>
</svg>