<svg xmlns="http://www.w3.org/2000/svg" viewBox="0 0 25 25" id="robot-solid">
  <path d="M5.890625,4.92734375 C5.890625,4.92734375 5.890625,4.92734375 5.890625,4.92734375 C5.890625,4.92734375 18.6296875,4.92734375 18.6296875,4.92734375 C19.73125,4.92734375 20.6414062,5.31015625 21.4078125,6.0765625 C22.1742188,6.84296875 22.5570313,7.753125 22.5570313,8.8546875 C22.5570313,8.8546875 22.5570313,8.8546875 22.5570313,8.8546875 C22.5570313,8.8546875 22.5570313,16.709375 22.5570313,16.709375 C22.5570313,17.8109375 22.1742188,18.7210938 21.4078125,19.4875 C20.6414062,20.2539063 19.73125,20.6367188 18.6296875,20.6367188 C18.6296875,20.6367188 18.6296875,20.6367188 18.6296875,20.6367188 C18.6296875,20.6367188 5.890625,20.6367188 5.890625,20.6367188 C4.7890625,20.6367188 3.87890625,20.2539063 3.1125,19.4875 C2.34609375,18.7210938 1.96328125,17.8109375 1.96328125,16.709375 C1.96328125,16.709375 1.96328125,16.709375 1.96328125,16.709375 C1.96328125,16.709375 1.96328125,8.8546875 1.96328125,8.8546875 C1.96328125,7.753125 2.34609375,6.84296875 3.1125,6.0765625 C3.87890625,5.31015625 4.7890625,4.92734375 5.890625,4.92734375 Z M15.7085938,9.38125 C15.7085938,9.38125 15.7085938,9.38125 15.7085938,9.38125 C15.4210938,9.38125 15.1820313,9.47734375 14.9898438,9.66875 C14.7976562,9.86015625 14.7023438,10.1 14.7023438,10.3390625 C14.7023438,10.3390625 14.7023438,10.3390625 14.7023438,10.3390625 C14.7023438,10.3390625 14.7023438,11.3445312 14.7023438,11.3445312 C14.7023438,11.5835937 14.7984375,11.8234375 14.9898438,12.0148438 C15.18125,12.20625 15.4210938,12.3023438 15.7085938,12.3023438 C15.7085938,12.3023438 15.7085938,12.3023438 15.7085938,12.3023438 C15.9476563,12.3023438 16.1875,12.20625 16.3789063,12.0148438 C16.5703125,11.8234375 16.6664063,11.5835938 16.6664063,11.3445312 C16.6664063,11.3445312 16.6664063,11.3445312 16.6664063,11.3445312 C16.6664063,11.3445312 16.6664063,10.3390625 16.6664063,10.3390625 C16.6664063,10.1 16.5703125,9.86015625 16.3789063,9.66875 C16.1875,9.47734375 15.9476563,9.38125 15.7085938,9.38125 L15.7085938,9.38125 Z M8.8125,9.38125 C8.8125,9.38125 8.8125,9.38125 8.8125,9.38125 C8.5734375,9.38125 8.33359375,9.47734375 8.1421875,9.66875 C7.95078125,9.86015625 7.8546875,10.1 7.8546875,10.3390625 C7.8546875,10.3390625 7.8546875,10.3390625 7.8546875,10.3390625 C7.8546875,10.3390625 7.8546875,11.3445312 7.8546875,11.3445312 C7.8546875,11.5835937 7.95078125,11.8234375 8.1421875,12.0148438 C8.33359375,12.20625 8.5734375,12.3023438 8.8125,12.3023438 C8.8125,12.3023438 8.8125,12.3023438 8.8125,12.3023438 C9.1,12.3023438 9.3390625,12.20625 9.53125,12.0148438 C9.7234375,11.8234375 9.81875,11.5835938 9.81875,11.3445312 C9.81875,11.3445312 9.81875,11.3445312 9.81875,11.3445312 C9.81875,11.3445312 9.81875,10.3390625 9.81875,10.3390625 C9.81875,10.1 9.72265625,9.86015625 9.53125,9.66875 C9.33984375,9.47734375 9.1,9.38125 8.8125,9.38125 L8.8125,9.38125 Z M10.296875,15.7515625 C10.296875,15.7515625 14.2242188,15.7515625 14.2242188,15.7515625 C14.559375,15.7515625 14.703125,15.5601562 14.703125,15.225 C14.703125,15.225 14.703125,15.225 14.703125,15.225 C14.703125,14.8898438 14.559375,14.7460938 14.2242188,14.7460938 C14.2242188,14.7460938 14.2242188,14.7460938 14.2242188,14.7460938 C14.2242188,14.7460938 10.296875,14.7460938 10.296875,14.7460938 C9.96171875,14.7460938 9.81796875,14.8898438 9.81796875,15.225 C9.81796875,15.225 9.81796875,15.225 9.81796875,15.225 C9.81796875,15.5601562 9.96171875,15.7515625 10.296875,15.7515625 C10.296875,15.7515625 10.296875,15.7515625 10.296875,15.7515625 Z M0.9578125,13.7875 C0.9578125,13.7875 0.9578125,12.7820312 0.9578125,12.7820312 C0.9578125,12.7820312 1.96328125,12.7820312 1.96328125,12.7820312 C1.96328125,12.7820312 1.96328125,13.7875 1.96328125,13.7875 C1.96328125,13.7875 0.9578125,13.7875 0.9578125,13.7875 Z M22.5578125,13.7875 C22.5578125,13.7875 22.5578125,12.7820312 22.5578125,12.7820312 C22.5578125,12.7820312 23.5632813,12.7820312 23.5632813,12.7820312 C23.5632813,12.7820312 23.5632813,13.7875 23.5632813,13.7875 C23.5632813,13.7875 22.5578125,13.7875 22.5578125,13.7875 Z M0,11.3453125 C0,11.0101562 0.14375,10.81875 0.47890625,10.81875 C0.8140625,10.81875 0.9578125,11.0101562 0.9578125,11.3453125 C0.9578125,11.3453125 0.9578125,11.3453125 0.9578125,11.3453125 C0.9578125,11.3453125 0.9578125,15.225 0.9578125,15.225 C0.9578125,15.5601562 0.8140625,15.7515625 0.47890625,15.7515625 C0.14375,15.7515625 0,15.5601562 0,15.225 C0,15.225 0,15.225 0,15.225 C0,15.225 0,11.3453125 0,11.3453125 Z M23.5632812,11.3453125 C23.5632812,11.0101562 23.7070312,10.81875 24.0421875,10.81875 C24.3773437,10.81875 24.5210937,11.0101562 24.5210937,11.3453125 C24.5210937,11.3453125 24.5210937,11.3453125 24.5210937,11.3453125 C24.5210937,11.3453125 24.5210937,15.225 24.5210937,15.225 C24.5210937,15.5601562 24.3773437,15.7515625 24.0421875,15.7515625 C23.7070312,15.7515625 23.5632812,15.5601562 23.5632812,15.225 C23.5632812,15.225 23.5632812,15.225 23.5632812,15.225 C23.5632812,15.225 23.5632812,11.3453125 23.5632812,11.3453125 Z M6.36953125,22.6 C6.36953125,22.6 6.36953125,22.6 6.36953125,22.6 C6.36953125,22.6 18.1507812,22.6 18.1507812,22.6 C18.4859375,22.6 18.6296875,22.74375 18.6296875,23.0789062 C18.6296875,23.0789062 18.6296875,23.0789062 18.6296875,23.0789062 C18.6296875,23.0789062 18.6296875,23.6054688 18.6296875,23.6054688 C18.6296875,23.6054688 5.890625,23.6054688 5.890625,23.6054688 C5.890625,23.6054688 5.890625,23.0789062 5.890625,23.0789062 C5.890625,22.74375 6.034375,22.6 6.36953125,22.6 Z M10.7757812,23.6054688 C10.7757812,23.6054688 10.7757812,20.6359375 10.7757812,20.6359375 C10.7757812,20.6359375 13.7453125,20.6359375 13.7453125,20.6359375 C13.7453125,20.6359375 13.7453125,23.6054688 13.7453125,23.6054688 C13.7453125,23.6054688 10.7757812,23.6054688 10.7757812,23.6054688 Z M13.3140625,1.43125 C13.6015625,1.71875 13.7453125,2.05390625 13.7453125,2.48515625 C13.7453125,2.91640625 13.6015625,3.2515625 13.3140625,3.5390625 C13.0265625,3.8265625 12.6914062,3.9703125 12.2601562,3.9703125 C11.8289063,3.9703125 11.49375,3.8265625 11.20625,3.5390625 C10.91875,3.2515625 10.775,2.91640625 10.775,2.48515625 C10.775,2.05390625 10.91875,1.71875 11.20625,1.43125 C11.49375,1.14375 11.8289063,1 12.2601562,1 C12.6914062,1 13.0265625,1.14375 13.3140625,1.43125 Z M11.78125,4.92734375 C11.78125,4.92734375 11.78125,2.9640625 11.78125,2.9640625 C11.78125,2.9640625 12.7390625,2.9640625 12.7390625,2.9640625 C12.7390625,2.9640625 12.7390625,4.92734375 12.7390625,4.92734375 C12.7390625,4.92734375 11.78125,4.92734375 11.78125,4.92734375 Z"/>
  <title>Robot Solid</title>
</svg>