<svg xmlns="http://www.w3.org/2000/svg" viewBox="0 0 25 25" id="robot-sad">
  <path d="M12.7390625,3.87421875 C12.7390625,3.87421875 12.7390625,4.928125 12.7390625,4.928125 C12.7390625,4.928125 18.6296875,4.928125 18.6296875,4.928125 C19.73125,4.928125 20.6414062,5.3109375 21.4078125,6.07734375 C22.1742188,6.84375 22.5570313,7.75390625 22.5570313,8.85546875 C22.5570313,8.85546875 22.5570313,8.85546875 22.5570313,8.85546875 C22.5570313,8.85546875 22.5570313,12.7828125 22.5570313,12.7828125 C22.5570313,12.7828125 23.5625,12.7828125 23.5625,12.7828125 C23.5625,12.7828125 23.5625,11.3460938 23.5625,11.3460938 C23.5625,11.0109375 23.70625,10.8195313 24.0414062,10.8195313 C24.3765625,10.8195313 24.5203125,11.0109375 24.5203125,11.3460938 C24.5203125,11.3460938 24.5203125,11.3460938 24.5203125,11.3460938 C24.5203125,11.3460938 24.5203125,15.2257813 24.5203125,15.2257813 C24.5203125,15.5609375 24.3765625,15.7523438 24.0414062,15.7523438 C23.70625,15.7523438 23.5625,15.5609375 23.5625,15.2257813 C23.5625,15.2257813 23.5625,15.2257813 23.5625,15.2257813 C23.5625,15.2257813 23.5625,13.7890625 23.5625,13.7890625 C23.5625,13.7890625 22.5570313,13.7890625 22.5570313,13.7890625 C22.5570313,13.7890625 22.5570313,16.7101563 22.5570313,16.7101563 C22.5570313,17.8117188 22.1742188,18.721875 21.4078125,19.4882812 C20.6414062,20.2546875 19.73125,20.6375 18.6296875,20.6375 C18.6296875,20.6375 18.6296875,20.6375 18.6296875,20.6375 C18.6296875,20.6375 13.7445312,20.6375 13.7445312,20.6375 C13.7445312,20.6375 13.7445312,22.6007813 13.7445312,22.6007813 C13.7445312,22.6007813 18.1507813,22.6007813 18.1507813,22.6007813 C18.4859375,22.6007813 18.6296875,22.7445313 18.6296875,23.0796875 C18.6296875,23.0796875 18.6296875,23.0796875 18.6296875,23.0796875 C18.6296875,23.0796875 18.6296875,23.60625 18.6296875,23.60625 C18.6296875,23.60625 5.890625,23.60625 5.890625,23.60625 C5.890625,23.60625 5.890625,23.0796875 5.890625,23.0796875 C5.890625,22.7445313 6.034375,22.6007813 6.36953125,22.6007813 C6.36953125,22.6007813 6.36953125,22.6007813 6.36953125,22.6007813 C6.36953125,22.6007813 10.7757812,22.6007813 10.7757812,22.6007813 C10.7757812,22.6007813 10.7757812,20.6375 10.7757812,20.6375 C10.7757812,20.6375 5.890625,20.6375 5.890625,20.6375 C4.7890625,20.6375 3.87890625,20.2546875 3.1125,19.4882812 C2.34609375,18.721875 1.96328125,17.8117188 1.96328125,16.7101563 C1.96328125,16.7101563 1.96328125,16.7101563 1.96328125,16.7101563 C1.96328125,16.7101563 1.96328125,13.7890625 1.96328125,13.7890625 C1.96328125,13.7890625 0.9578125,13.7890625 0.9578125,13.7890625 C0.9578125,13.7890625 0.9578125,15.2257813 0.9578125,15.2257813 C0.9578125,15.5609375 0.8140625,15.7523438 0.47890625,15.7523438 C0.14375,15.7523438 0,15.5609375 0,15.2257813 C0,15.2257813 0,15.2257813 0,15.2257813 C0,15.2257813 0,11.3460937 0,11.3460937 C0,11.0109375 0.14375,10.8195313 0.47890625,10.8195313 C0.8140625,10.8195313 0.9578125,11.0109375 0.9578125,11.3460937 C0.9578125,11.3460937 0.9578125,11.3460937 0.9578125,11.3460937 C0.9578125,11.3460937 0.9578125,12.7828125 0.9578125,12.7828125 C0.9578125,12.7828125 1.96328125,12.7828125 1.96328125,12.7828125 C1.96328125,12.7828125 1.96328125,8.85546875 1.96328125,8.85546875 C1.96328125,7.75390625 2.34609375,6.84375 3.1125,6.07734375 C3.87890625,5.3109375 4.7890625,4.928125 5.890625,4.928125 C5.890625,4.928125 5.890625,4.928125 5.890625,4.928125 C5.890625,4.928125 11.78125,4.928125 11.78125,4.928125 C11.78125,4.928125 11.78125,3.87421875 11.78125,3.87421875 C11.1109375,3.63515625 10.7757812,3.20390625 10.7757812,2.48515625 C10.7757812,2.48515625 10.7757812,2.48515625 10.7757812,2.48515625 C10.7757812,2.05390625 10.9195313,1.71875 11.2070312,1.43125 C11.4945312,1.14375 11.8296875,1 12.2609375,1 C12.6921875,1 13.0273438,1.14375 13.3148437,1.43125 C13.6023437,1.71875 13.7460938,2.05390625 13.7460938,2.48515625 C13.7460938,2.48515625 13.7460938,2.48515625 13.7460938,2.48515625 C13.7460938,3.20390625 13.4109375,3.634375 12.740625,3.87421875 C12.740625,3.87421875 12.740625,3.87421875 12.740625,3.87421875 L12.7390625,3.87421875 Z M18.6296875,5.93359375 C18.6296875,5.93359375 5.890625,5.93359375 5.890625,5.93359375 C5.0765625,5.93359375 4.3578125,6.22109375 3.78359375,6.7953125 C3.209375,7.36953125 2.921875,8.040625 2.921875,8.8546875 C2.921875,8.8546875 2.921875,8.8546875 2.921875,8.8546875 C2.921875,8.8546875 2.921875,16.709375 2.921875,16.709375 C2.921875,17.5234375 3.209375,18.2421875 3.83203125,18.8164063 C4.40703125,19.3914063 5.07734375,19.678125 5.89140625,19.678125 C5.89140625,19.678125 5.89140625,19.678125 5.89140625,19.678125 C5.89140625,19.678125 18.6304687,19.678125 18.6304687,19.678125 C19.4445312,19.678125 20.1148437,19.390625 20.7375,18.8164063 C21.3125,18.2414063 21.5992187,17.5234375 21.5992187,16.709375 C21.5992187,16.709375 21.5992187,16.709375 21.5992187,16.709375 C21.5992187,16.709375 21.5992187,8.8546875 21.5992187,8.8546875 C21.5992187,8.040625 21.3117187,7.3703125 20.7375,6.7953125 C20.1632812,6.2203125 19.4445312,5.93359375 18.6304687,5.93359375 C18.6304687,5.93359375 18.6304687,5.93359375 18.6304687,5.93359375 L18.6296875,5.93359375 Z M17.671875,11.3453125 C17.671875,11.3453125 17.671875,11.3453125 17.671875,11.3453125 C17.671875,11.6804688 17.4804688,11.8242188 17.1453125,11.8242188 C17.1453125,11.8242188 17.1453125,11.8242188 17.1453125,11.8242188 C17.1453125,11.8242188 14.2242188,11.8242188 14.2242188,11.8242188 C13.8890625,11.8242188 13.7453125,11.6804688 13.7453125,11.3453125 C13.7453125,11.3453125 13.7453125,11.3453125 13.7453125,11.3453125 C13.7453125,11.0101563 13.8890625,10.81875 14.2242188,10.81875 C14.2242188,10.81875 14.2242188,10.81875 14.2242188,10.81875 C14.2242188,10.81875 17.1453125,10.81875 17.1453125,10.81875 C17.4804688,10.81875 17.671875,11.0101563 17.671875,11.3453125 Z M10.775,11.3453125 C10.775,11.3453125 10.775,11.3453125 10.775,11.3453125 C10.775,11.6804688 10.63125,11.8242188 10.2960938,11.8242188 C10.2960938,11.8242188 10.2960938,11.8242188 10.2960938,11.8242188 C10.2960938,11.8242188 7.375,11.8242188 7.375,11.8242188 C7.03984375,11.8242188 6.8484375,11.6804688 6.8484375,11.3453125 C6.8484375,11.3453125 6.8484375,11.3453125 6.8484375,11.3453125 C6.8484375,11.0101563 7.03984375,10.81875 7.375,10.81875 C7.375,10.81875 7.375,10.81875 7.375,10.81875 C7.375,10.81875 10.2960938,10.81875 10.2960938,10.81875 C10.63125,10.81875 10.775,11.0101563 10.775,11.3453125 Z M16.665625,14.7453125 C16.665625,14.7453125 16.665625,14.7453125 16.665625,14.7453125 C16.665625,14.7453125 7.853125,14.7453125 7.853125,14.7453125 C7.853125,14.50625 7.94921875,14.2664063 8.140625,14.075 C8.33203125,13.8835938 8.571875,13.7875 8.8109375,13.7875 C8.8109375,13.7875 8.8109375,13.7875 8.8109375,13.7875 C8.8109375,13.7875 15.7078125,13.7875 15.7078125,13.7875 C15.946875,13.7875 16.1867188,13.8835938 16.378125,14.075 C16.5695313,14.2664063 16.665625,14.50625 16.665625,14.7453125 Z M17.1445312,15.7515625 C17.1445312,15.7515625 17.1445312,15.7515625 17.1445312,15.7515625 C17.1445312,15.7515625 16.665625,15.7515625 16.665625,15.7515625 C16.665625,15.7515625 16.665625,14.7460938 16.665625,14.7460938 C16.665625,14.7460938 17.6710937,14.7460938 17.6710937,14.7460938 C17.6710937,14.7460938 17.6710937,15.225 17.6710937,15.225 C17.6710937,15.5601563 17.4796875,15.7515625 17.1445312,15.7515625 Z M7.85390625,14.7453125 C7.85390625,14.7453125 7.85390625,15.7507813 7.85390625,15.7507813 C7.85390625,15.7507813 7.375,15.7507813 7.375,15.7507813 C7.03984375,15.7507813 6.8484375,15.559375 6.8484375,15.2242188 C6.8484375,15.2242188 6.8484375,15.2242188 6.8484375,15.2242188 C6.8484375,15.2242188 6.8484375,14.7453125 6.8484375,14.7453125 C6.8484375,14.7453125 7.85390625,14.7453125 7.85390625,14.7453125 Z"/>
  <title>Robot Sad</title>
</svg>