<svg xmlns="http://www.w3.org/2000/svg" viewBox="0 0 25 25" id="rocket">
  <path d="M21.246875,15.278125 C21.246875,15.278125 21.246875,15.278125 21.246875,15.278125 C21.246875,15.278125 16.7453125,10.7765625 16.7453125,10.7765625 C16.7453125,10.7765625 16.7453125,5.89140625 16.7453125,5.89140625 C16.7453125,4.8859375 16.1226563,3.640625 14.8773438,2.15546875 C13.584375,0.71875 12.7703125,0 12.3390625,0 C11.9078125,0 11.09375,0.71875 9.8484375,2.15546875 C8.55546875,3.63984375 7.9328125,4.88515625 7.9328125,5.89140625 C7.9328125,5.89140625 7.9328125,5.89140625 7.9328125,5.89140625 C7.9328125,5.89140625 7.9328125,10.7765625 7.9328125,10.7765625 C7.9328125,10.7765625 3.43125,15.278125 3.43125,15.278125 C3.14375,15.565625 3,15.9007813 3,16.2835938 C3,16.2835938 3,16.2835938 3,16.2835938 C3,16.2835938 3,19.109375 3,19.109375 C3,19.540625 3.14375,19.8757813 3.43125,20.1632813 C3.71875,20.4507813 4.05390625,20.5945313 4.48515625,20.5945313 C4.48515625,20.5945313 4.48515625,20.5945313 4.48515625,20.5945313 C4.48515625,20.5945313 7.93359375,20.5945313 7.93359375,20.5945313 C8.4125,20.7859375 8.9875,20.9773438 9.61015625,21.1210938 C9.61015625,21.1210938 9.61015625,21.1210938 9.61015625,21.1210938 C9.61015625,21.1210938 9.13125,23.3242188 9.13125,23.3242188 C9.13125,23.3242188 9.13125,23.515625 9.13125,23.515625 C9.13125,23.803125 9.22734375,24.0421875 9.41875,24.234375 C9.61015625,24.4265625 9.85,24.521875 10.0890625,24.521875 C10.0890625,24.521875 10.0890625,24.521875 10.0890625,24.521875 C10.0890625,24.521875 14.590625,24.521875 14.590625,24.521875 C14.8296875,24.521875 15.0695313,24.4257813 15.2609375,24.234375 C15.4523438,24.0429688 15.5484375,23.803125 15.5484375,23.515625 C15.5484375,23.515625 15.5484375,23.515625 15.5484375,23.515625 C15.5484375,23.515625 15.5484375,23.3242188 15.5484375,23.3242188 C15.5484375,23.3242188 15.0695313,21.1210938 15.0695313,21.1210938 C15.0695313,21.1210938 16.7460938,20.5945313 16.7460938,20.5945313 C16.7460938,20.5945313 20.1945313,20.5945313 20.1945313,20.5945313 C20.6257812,20.5945313 20.9609375,20.4507813 21.2484375,20.1632813 C21.5359375,19.8757813 21.6796875,19.540625 21.6796875,19.109375 C21.6796875,19.109375 21.6796875,19.109375 21.6796875,19.109375 C21.6796875,19.109375 21.6796875,16.2835938 21.6796875,16.2835938 C21.6796875,15.9007813 21.5359375,15.5648438 21.2484375,15.278125 L21.246875,15.278125 Z M7.9328125,19.6359375 C7.9328125,19.6359375 4.484375,19.6359375 4.484375,19.6359375 C4.14921875,19.6359375 4.00546875,19.4445313 4.00546875,19.109375 C4.00546875,19.109375 4.00546875,19.109375 4.00546875,19.109375 C4.00546875,19.109375 4.00546875,16.2835937 4.00546875,16.2835937 C4.00546875,16.1398437 4.053125,16.0445312 4.14921875,15.9484375 C4.14921875,15.9484375 4.14921875,15.9484375 4.14921875,15.9484375 C4.14921875,15.9484375 7.9328125,12.1648437 7.9328125,12.1648437 C7.9328125,12.1648437 7.9328125,19.6359375 7.9328125,19.6359375 L7.9328125,19.6359375 Z M8.79453125,19.8757813 C8.79453125,19.8757813 8.890625,5.89140625 8.890625,5.89140625 C8.890625,5.22109375 9.321875,4.35859375 10.1359375,3.30546875 C10.95,2.25234375 11.7164063,1.53359375 12.3390625,1.10234375 C12.3390625,1.10234375 12.3390625,1.10234375 12.3390625,1.10234375 C12.9617188,1.53359375 13.728125,2.2515625 14.5421875,3.30546875 C15.35625,4.359375 15.7875,5.22109375 15.7875,5.89140625 C15.7875,5.89140625 15.7875,5.89140625 15.7875,5.89140625 C15.7875,5.89140625 15.7875,19.8757813 15.7875,19.8757813 C14.8773438,20.2109375 13.9195313,20.4023438 12.9140625,20.5460938 C12.9140625,20.5460938 12.9140625,20.5460938 12.9140625,20.5460938 C12.9140625,20.5460938 12.8179688,14.2242188 12.8179688,14.2242188 C12.8179688,13.8890625 12.6742187,13.7453125 12.3390625,13.7453125 C12.0039063,13.7453125 11.8601563,13.8890625 11.8601563,14.2242188 C11.8601563,14.2242188 11.8601563,14.2242188 11.8601563,14.2242188 C11.8601563,14.2242188 11.8601563,20.5460938 11.8601563,20.5460938 C10.8546875,20.4023438 9.8484375,20.2109375 8.7953125,19.8757813 C8.7953125,19.8757813 8.7953125,19.8757813 8.7953125,19.8757813 L8.79453125,19.8757813 Z M14.20625,21.3125 C14.20625,21.3125 14.5890625,23.515625 14.5890625,23.515625 C14.5890625,23.515625 10.0875,23.515625 10.0875,23.515625 C10.0875,23.515625 10.51875,21.3601562 10.51875,21.3601562 C11.2375,21.5039062 11.859375,21.5515625 12.3382812,21.5992187 C12.3382812,21.5992187 12.3382812,21.5992187 12.3382812,21.5992187 C12.9609375,21.5515625 13.5835937,21.4554687 14.20625,21.3117188 C14.20625,21.3117188 14.20625,21.3117188 14.20625,21.3117188 L14.20625,21.3125 Z M20.671875,16.2835938 C20.671875,16.2835938 20.671875,19.109375 20.671875,19.109375 C20.671875,19.4445313 20.528125,19.6359375 20.1929687,19.6359375 C20.1929687,19.6359375 20.1929687,19.6359375 20.1929687,19.6359375 C20.1929687,19.6359375 16.7445313,19.6359375 16.7445313,19.6359375 C16.7445313,19.6359375 16.7445313,12.1648437 16.7445313,12.1648437 C16.7445313,12.1648437 20.528125,15.9484375 20.528125,15.9484375 C20.6242188,16.0445312 20.671875,16.1398438 20.671875,16.2835937 C20.671875,16.2835937 20.671875,16.2835937 20.671875,16.2835937 L20.671875,16.2835938 Z M19.7140625,22.0789063 C19.7140625,22.0789063 19.7140625,22.0789063 19.7140625,22.0789063 C19.7140625,22.0789063 19.7140625,23.0367188 19.7140625,23.0367188 C19.7140625,23.371875 19.5226563,23.515625 19.1875,23.515625 C19.1875,23.515625 19.1875,23.515625 19.1875,23.515625 C18.8523438,23.515625 18.7085938,23.371875 18.7085938,23.0367188 C18.7085938,23.0367188 18.7085938,23.0367188 18.7085938,23.0367188 C18.7085938,23.0367188 18.7085938,22.0789063 18.7085938,22.0789063 C18.7085938,21.74375 18.8523438,21.6 19.1875,21.6 C19.1875,21.6 19.1875,21.6 19.1875,21.6 C19.5226563,21.6 19.7140625,21.74375 19.7140625,22.0789063 Z M5.96875,22.0789063 C5.96875,22.0789063 5.96875,22.0789063 5.96875,22.0789063 C5.96875,22.0789063 5.96875,23.0367188 5.96875,23.0367188 C5.96875,23.371875 5.825,23.515625 5.48984375,23.515625 C5.48984375,23.515625 5.48984375,23.515625 5.48984375,23.515625 C5.1546875,23.515625 4.96328125,23.371875 4.96328125,23.0367188 C4.96328125,23.0367188 4.96328125,23.0367188 4.96328125,23.0367188 C4.96328125,23.0367188 4.96328125,22.0789063 4.96328125,22.0789063 C4.96328125,21.74375 5.1546875,21.6 5.48984375,21.6 C5.48984375,21.6 5.48984375,21.6 5.48984375,21.6 C5.825,21.6 5.96875,21.74375 5.96875,22.0789063 Z M10.7101563,7.7109375 C10.7101563,7.7109375 10.7101563,7.7109375 10.7101563,7.7109375 C10.6140625,7.80703125 10.51875,7.8546875 10.375,7.8546875 C10.375,7.8546875 10.375,7.8546875 10.375,7.8546875 C10.0398438,7.8546875 9.89609375,7.7109375 9.89609375,7.37578125 C9.89609375,7.37578125 9.89609375,7.37578125 9.89609375,7.37578125 C9.89609375,7.23203125 9.94375,7.08828125 10.0398438,6.99296875 C10.0398438,6.99296875 10.0398438,6.99296875 10.0398438,6.99296875 C10.7585938,6.3703125 11.5242188,5.9875 12.3390625,5.89140625 C12.3390625,5.89140625 12.3390625,5.89140625 12.3390625,5.89140625 C13.2492188,6.03515625 14.015625,6.3703125 14.6382813,6.99296875 C14.6382813,6.99296875 14.6382813,6.99296875 14.6382813,6.99296875 C14.734375,7.0890625 14.7820313,7.23203125 14.7820313,7.37578125 C14.7820313,7.37578125 14.7820313,7.37578125 14.7820313,7.37578125 C14.7820313,7.7109375 14.6382813,7.8546875 14.303125,7.8546875 C14.303125,7.8546875 14.303125,7.8546875 14.303125,7.8546875 C14.159375,7.8546875 14.0640625,7.80703125 13.9679688,7.7109375 C13.9679688,7.7109375 13.9679688,7.7109375 13.9679688,7.7109375 C13.5367188,7.2796875 13.0101563,6.9921875 12.3398438,6.84921875 C12.3398438,6.84921875 12.3398438,6.84921875 12.3398438,6.84921875 C11.6695313,6.99296875 11.1421875,7.28046875 10.7117188,7.7109375 L10.7101563,7.7109375 Z"/>
  <title>Rocket</title>
</svg>