<svg xmlns="http://www.w3.org/2000/svg" viewBox="0 0 25 25" id="rocket-solid">
  <path d="M19.7140625,22.0796875 C19.7140625,22.0796875 19.7140625,22.0796875 19.7140625,22.0796875 C19.7140625,22.0796875 19.7140625,23.0375 19.7140625,23.0375 C19.7140625,23.3726562 19.5226563,23.5164062 19.1875,23.5164062 C19.1875,23.5164062 19.1875,23.5164062 19.1875,23.5164062 C18.8523438,23.5164062 18.7085938,23.3726562 18.7085938,23.0375 C18.7085938,23.0375 18.7085938,23.0375 18.7085938,23.0375 C18.7085938,23.0375 18.7085938,22.0796875 18.7085938,22.0796875 C18.7085938,21.7445313 18.8523438,21.553125 19.1875,21.553125 C19.1875,21.553125 19.1875,21.553125 19.1875,21.553125 C19.5226563,21.553125 19.7140625,21.7445313 19.7140625,22.0796875 Z M5.48984375,21.5523437 C5.48984375,21.5523437 5.48984375,21.5523437 5.48984375,21.5523437 C5.1546875,21.5523437 4.96328125,21.74375 4.96328125,22.0789062 C4.96328125,22.0789062 4.96328125,22.0789062 4.96328125,22.0789062 C4.96328125,22.0789062 4.96328125,23.0367187 4.96328125,23.0367187 C4.96328125,23.371875 5.1546875,23.515625 5.48984375,23.515625 C5.48984375,23.515625 5.48984375,23.515625 5.48984375,23.515625 C5.825,23.515625 5.96875,23.371875 5.96875,23.0367187 C5.96875,23.0367187 5.96875,23.0367187 5.96875,23.0367187 C5.96875,23.0367187 5.96875,22.0789062 5.96875,22.0789062 C5.96875,21.74375 5.825,21.5523437 5.48984375,21.5523437 Z M12.3390625,22.5585938 C12.3390625,22.5585938 12.3390625,22.5585938 12.3390625,22.5585938 C11.4289063,22.5109375 10.6148438,22.3671875 9.80078125,22.1273438 C9.80078125,22.1273438 9.80078125,22.1273438 9.80078125,22.1273438 C9.80078125,22.1273438 9.609375,23.8992188 9.609375,23.8992188 C9.609375,23.8992188 9.609375,24.0429688 9.609375,24.0429688 C9.609375,24.090625 9.65703125,24.1867188 9.70546875,24.3304688 C9.70546875,24.3304688 9.70546875,24.3304688 9.70546875,24.3304688 C9.8015625,24.4742188 9.94453125,24.521875 10.0882813,24.521875 C10.0882813,24.521875 10.0882813,24.521875 10.0882813,24.521875 C10.0882813,24.521875 14.5898438,24.521875 14.5898438,24.521875 C14.925,24.521875 15.06875,24.378125 15.06875,24.0429688 C15.06875,24.0429688 15.06875,24.0429688 15.06875,24.0429688 C15.06875,24.0429688 15.06875,23.946875 15.06875,23.946875 C15.06875,23.946875 14.78125,22.175 14.78125,22.175 C14.0148438,22.4140625 13.2007813,22.5101563 12.3390625,22.5578125 L12.3390625,22.5585938 Z M21.246875,15.2789063 C21.246875,15.2789063 21.246875,15.2789063 21.246875,15.2789063 C21.246875,15.2789063 17.7507812,11.7828125 17.7507812,11.7828125 C17.7507812,11.7828125 17.7507812,20.5953125 17.7507812,20.5953125 C17.7507812,20.5953125 20.1929687,20.5953125 20.1929687,20.5953125 C20.6242188,20.5953125 20.959375,20.4515625 21.246875,20.1640625 C21.534375,19.8765625 21.678125,19.5414063 21.678125,19.1101563 C21.678125,19.1101563 21.678125,19.1101563 21.678125,19.1101563 C21.678125,19.1101563 21.678125,16.284375 21.678125,16.284375 C21.678125,15.9015625 21.534375,15.565625 21.246875,15.2789063 L21.246875,15.2789063 Z M16.7445313,5.89140625 C16.7445313,5.89140625 16.7445313,5.89140625 16.7445313,5.89140625 C16.7445313,5.89140625 16.7445313,20.5945312 16.7445313,20.5945312 C15.546875,21.0257812 14.2539062,21.3609375 12.9132813,21.5523437 C12.9132813,21.5523437 12.9132813,21.5523437 12.9132813,21.5523437 C12.9132813,21.5523437 12.8171875,14.225 12.8171875,14.225 C12.8171875,13.8898438 12.6734375,13.7460938 12.3382812,13.7460938 C12.003125,13.7460938 11.859375,13.8898438 11.859375,14.225 C11.859375,14.225 11.859375,14.225 11.859375,14.225 C11.859375,14.225 11.859375,21.5523437 11.859375,21.5523437 C10.4703125,21.3609375 9.1296875,21.0257812 7.78828125,20.546875 C7.78828125,20.546875 7.78828125,20.546875 7.78828125,20.546875 C7.78828125,20.546875 7.93203125,20.5945312 7.93203125,20.5945312 C7.93203125,20.5945312 7.93203125,5.89140625 7.93203125,5.89140625 C7.93203125,4.8859375 8.50703125,3.68828125 9.70390625,2.29921875 C10.9007812,0.91015625 11.7632812,0.14375 12.3382812,0 C12.3382812,0 12.3382812,0 12.3382812,0 C12.9132813,0.14375 13.775,0.91015625 14.9726562,2.29921875 C16.1703125,3.68828125 16.7445313,4.88515625 16.7445313,5.89140625 Z M14.6375,6.99296875 C14.6375,6.99296875 14.6375,6.99296875 14.6375,6.99296875 C14.0148437,6.3703125 13.2484375,6.03515625 12.3867187,5.89140625 C12.3867187,5.89140625 12.3867187,5.89140625 12.3867187,5.89140625 C11.525,5.9875 10.7585937,6.3703125 10.0398437,6.99296875 C10.0398437,6.99296875 10.0398437,6.99296875 10.0398437,6.99296875 C9.94375,7.0890625 9.89609375,7.184375 9.89609375,7.328125 C9.89609375,7.328125 9.89609375,7.328125 9.89609375,7.328125 C9.89609375,7.66328125 10.0398437,7.8546875 10.375,7.8546875 C10.375,7.8546875 10.375,7.8546875 10.375,7.8546875 C10.51875,7.8546875 10.6140625,7.80703125 10.7101563,7.7109375 C10.7101563,7.7109375 10.7101563,7.7109375 10.7101563,7.7109375 C11.1414062,7.2796875 11.6679687,6.9921875 12.3382812,6.84921875 C12.3382812,6.84921875 12.3382812,6.84921875 12.3382812,6.84921875 C13.0085937,6.99296875 13.5359375,7.28046875 13.9664062,7.7109375 C13.9664062,7.7109375 13.9664062,7.7109375 13.9664062,7.7109375 C14.0625,7.80703125 14.1578125,7.8546875 14.3015625,7.8546875 C14.3015625,7.8546875 14.3015625,7.8546875 14.3015625,7.8546875 C14.6367187,7.8546875 14.7804687,7.66328125 14.7804687,7.328125 C14.7804687,7.328125 14.7804687,7.328125 14.7804687,7.328125 C14.7804687,7.184375 14.7328125,7.0890625 14.6367187,6.99296875 L14.6375,6.99296875 Z M3,16.284375 C3,16.284375 3,16.284375 3,16.284375 C3,16.284375 3,19.1101563 3,19.1101563 C3,19.5414063 3.14375,19.8765625 3.43125,20.1640625 C3.71875,20.4515625 4.05390625,20.5953125 4.48515625,20.5953125 C4.48515625,20.5953125 4.48515625,20.5953125 4.48515625,20.5953125 C4.48515625,20.5953125 6.92734375,20.5953125 6.92734375,20.5953125 C6.92734375,20.5953125 6.92734375,11.7828125 6.92734375,11.7828125 C6.92734375,11.7828125 3.43125,15.2789063 3.43125,15.2789063 C3.14375,15.5664063 3,15.9015625 3,16.284375 Z"/>
  <title>Rocket Solid</title>
</svg>