<svg xmlns="http://www.w3.org/2000/svg" viewBox="0 0 25 25" id="roller-solid">
  <path d="M23.5669611,1.00546875 C23.5669611,1.00546875 23.5669611,1.00546875 23.5669611,1.00546875 C24.1896173,1.628125 24.5247736,2.4421875 24.5247736,3.44765625 C24.5247736,3.44765625 24.5247736,3.44765625 24.5247736,3.44765625 C24.5724298,4.3578125 24.2372736,5.171875 23.5669611,5.88984375 C23.5669611,5.88984375 23.5669611,5.88984375 23.5669611,5.88984375 C22.8482111,6.60859375 22.0341486,6.8953125 21.1247736,6.84765625 C21.1247736,6.84765625 21.1247736,6.84765625 21.1247736,6.84765625 C21.1247736,6.84765625 8.81617985,6.84765625 8.81617985,6.84765625 C8.81617985,6.84765625 8.81617985,11.7804687 8.81617985,11.7804687 C8.81617985,11.7804687 13.7489923,11.7804687 13.7489923,11.7804687 C13.7489923,11.7804687 13.7489923,16.665625 13.7489923,16.665625 C13.7489923,16.665625 14.7068048,16.665625 14.7068048,16.665625 C14.7068048,16.665625 14.7068048,24.5203125 14.7068048,24.5203125 C14.7068048,24.5203125 11.7857111,24.5203125 11.7857111,24.5203125 C11.7857111,24.5203125 11.7857111,16.665625 11.7857111,16.665625 C11.7857111,16.665625 12.7435236,16.665625 12.7435236,16.665625 C12.7435236,16.665625 12.7435236,12.7382812 12.7435236,12.7382812 C12.7435236,12.7382812 7.85836735,12.7382812 7.85836735,12.7382812 C7.85836735,12.7382812 7.85836735,6.84765625 7.85836735,6.84765625 C7.85836735,6.84765625 3.4044611,6.84765625 3.4044611,6.84765625 C2.49430485,6.8953125 1.68024235,6.60859375 0.962273598,5.88984375 C0.962273598,5.88984375 0.962273598,5.88984375 0.962273598,5.88984375 C0.291961098,5.17109375 -0.0431951521,4.35703125 0.00446109788,3.44765625 C0.00446109788,3.44765625 0.00446109788,3.44765625 0.00446109788,3.44765625 C0.00446109788,2.48984375 0.339617348,1.67578125 1.00992985,1.00546875 C1.68024235,0.33515625 2.49430485,0 3.4044611,0 C3.4044611,0 3.4044611,0 3.4044611,0 C3.4044611,0 21.1247736,0 21.1247736,0 C22.0825861,0 22.8966486,0.33515625 23.5669611,1.00546875 C23.5669611,1.00546875 23.5669611,1.00546875 23.5669611,1.00546875 Z"/>
  <title>Roller Solid</title>
</svg>