<svg xmlns="http://www.w3.org/2000/svg" viewBox="0 0 25 25" id="roller">
  <path d="M21.1247736,0 C21.1247736,0 21.1247736,0 21.1247736,0 C21.1247736,0 3.4044611,0 3.4044611,0 C2.49430485,0 1.68024235,0.33515625 1.00992985,1.00546875 C0.339617348,1.67578125 0.00446109788,2.48984375 0.00446109788,3.44765625 C0.00446109788,3.44765625 0.00446109788,3.44765625 0.00446109788,3.44765625 C-0.0431951521,4.3578125 0.291961098,5.171875 0.962273598,5.88984375 C0.962273598,5.88984375 0.962273598,5.88984375 0.962273598,5.88984375 C1.6810236,6.60859375 2.4950861,6.8953125 3.4044611,6.84765625 C3.4044611,6.84765625 3.4044611,6.84765625 3.4044611,6.84765625 C3.4044611,6.84765625 7.85836735,6.84765625 7.85836735,6.84765625 C7.85836735,6.84765625 7.85836735,12.7382812 7.85836735,12.7382812 C7.85836735,12.7382812 12.7435236,12.7382812 12.7435236,12.7382812 C12.7435236,12.7382812 12.7435236,16.665625 12.7435236,16.665625 C12.7435236,16.665625 11.7857111,16.665625 11.7857111,16.665625 C11.7857111,16.665625 11.7857111,24.5203125 11.7857111,24.5203125 C11.7857111,24.5203125 14.7068048,24.5203125 14.7068048,24.5203125 C14.7068048,24.5203125 14.7068048,16.665625 14.7068048,16.665625 C14.7068048,16.665625 13.7489923,16.665625 13.7489923,16.665625 C13.7489923,16.665625 13.7489923,11.7804687 13.7489923,11.7804687 C13.7489923,11.7804687 8.81617985,11.7804687 8.81617985,11.7804687 C8.81617985,11.7804687 8.81617985,6.84765625 8.81617985,6.84765625 C8.81617985,6.84765625 21.1247736,6.84765625 21.1247736,6.84765625 C22.0349298,6.8953125 22.8489923,6.60859375 23.5669611,5.88984375 C23.5669611,5.88984375 23.5669611,5.88984375 23.5669611,5.88984375 C24.2372736,5.17109375 24.5724298,4.35703125 24.5247736,3.44765625 C24.5247736,3.44765625 24.5247736,3.44765625 24.5247736,3.44765625 C24.5247736,2.4421875 24.1896173,1.628125 23.5669611,1.00546875 C23.5669611,1.00546875 23.5669611,1.00546875 23.5669611,1.00546875 C22.8966486,0.33515625 22.0825861,0 21.1247736,0 L21.1247736,0 Z M13.7489923,17.6726562 C13.7489923,17.6726562 13.7489923,23.5632812 13.7489923,23.5632812 C13.7489923,23.5632812 12.7435236,23.5632812 12.7435236,23.5632812 C12.7435236,23.5632812 12.7435236,17.6726562 12.7435236,17.6726562 C12.7435236,17.6726562 13.7489923,17.6726562 13.7489923,17.6726562 Z M21.1247736,5.89140625 C21.1247736,5.89140625 21.1247736,5.89140625 21.1247736,5.89140625 C21.1247736,5.89140625 3.4044611,5.89140625 3.4044611,5.89140625 C2.6857111,5.89140625 2.11149235,5.65234375 1.68024235,5.17265625 C1.68024235,5.17265625 1.68024235,5.17265625 1.68024235,5.17265625 C1.2013361,4.69375 0.961492348,4.11875 0.961492348,3.4484375 C0.961492348,2.778125 1.20055485,2.203125 1.68024235,1.72421875 C2.1591486,1.2453125 2.7341486,1.00546875 3.4044611,0.9578125 C3.4044611,0.9578125 3.4044611,0.9578125 3.4044611,0.9578125 C3.4044611,0.9578125 21.1247736,0.9578125 21.1247736,0.9578125 C21.7950861,0.9578125 22.3700861,1.196875 22.8489923,1.6765625 C23.3278986,2.15625 23.5677423,2.73046875 23.5677423,3.4484375 C23.5677423,3.4484375 23.5677423,3.4484375 23.5677423,3.4484375 C23.5677423,4.11875 23.3286798,4.69375 22.8489923,5.17265625 C22.8489923,5.17265625 22.8489923,5.17265625 22.8489923,5.17265625 C22.4177423,5.6515625 21.8435236,5.89140625 21.1247736,5.89140625 Z"/>
  <title>Roller</title>
</svg>