<svg xmlns="http://www.w3.org/2000/svg" viewBox="0 0 25 25" id="route-solid">
  <path d="M12.165625,4.5375 C12.5484375,4.9203125 12.740625,5.39921875 12.740625,5.9265625 C12.740625,6.45390625 12.5492187,6.93203125 12.165625,7.315625 C11.7828125,7.6984375 11.3039063,7.890625 10.7765625,7.890625 C10.2492188,7.890625 9.77109375,7.69921875 9.3875,7.315625 C9.0046875,6.9328125 8.8125,6.45390625 8.8125,5.9265625 C8.8125,5.39921875 9.00390625,4.92109375 9.3875,4.5375 C9.7703125,4.1546875 10.2492188,3.9625 10.7765625,3.9625 C11.3039063,3.9625 11.7820313,4.15390625 12.165625,4.5375 L12.165625,4.5375 Z M3.353125,11.2421875 C3.7359375,10.859375 3.928125,10.3804688 3.928125,9.853125 C3.928125,9.32578125 3.73671875,8.84765625 3.353125,8.4640625 C2.9703125,8.08125 2.49140625,7.8890625 1.9640625,7.8890625 C1.43671875,7.8890625 0.95859375,8.08046875 0.575,8.4640625 C0.1921875,8.846875 0,9.32578125 0,9.853125 C0,10.3804688 0.19140625,10.8585938 0.575,11.2421875 C0.9578125,11.625 1.43671875,11.8171875 1.9640625,11.8171875 C2.49140625,11.8171875 2.96953125,11.6257813 3.353125,11.2421875 Z M11.2078125,19.240625 C10.825,18.8578125 10.3460938,18.665625 9.81875,18.665625 C9.29140625,18.665625 8.81328125,18.8570312 8.4296875,19.240625 C8.046875,19.6234375 7.8546875,20.1023437 7.8546875,20.6296875 C7.8546875,21.1570312 8.04609375,21.6351562 8.4296875,22.01875 C8.8125,22.4015625 9.29140625,22.59375 9.81875,22.59375 C10.3460938,22.59375 10.8242188,22.4023437 11.2078125,22.01875 C11.590625,21.6359375 11.7828125,21.1570312 11.7828125,20.6296875 C11.7828125,20.1023437 11.5914062,19.6242187 11.2078125,19.240625 L11.2078125,19.240625 Z M4.78984375,9.0875 C4.78984375,9.0875 8.33359375,7.5546875 8.33359375,7.5546875 C8.1421875,7.171875 7.9984375,6.884375 7.95078125,6.64453125 C7.95078125,6.64453125 7.95078125,6.64453125 7.95078125,6.64453125 C7.95078125,6.64453125 4.40703125,8.225 4.40703125,8.225 C4.5984375,8.4640625 4.7421875,8.7515625 4.78984375,9.08671875 C4.78984375,9.08671875 4.78984375,9.08671875 4.78984375,9.08671875 L4.78984375,9.0875 Z M8.478125,17.9953125 C8.478125,17.9953125 4.071875,11.9132813 4.071875,11.9132813 C3.73671875,12.1523438 3.496875,12.3445313 3.30546875,12.4398437 C3.30546875,12.4398437 3.30546875,12.4398437 3.30546875,12.4398437 C3.30546875,12.4398437 7.71171875,18.5703125 7.71171875,18.5703125 C7.95078125,18.33125 8.23828125,18.1390625 8.478125,17.9953125 C8.478125,17.9953125 8.478125,17.9953125 8.478125,17.9953125 Z M24.521875,6.3578125 C24.521875,6.3578125 24.521875,6.31015625 24.521875,6.31015625 C24.521875,7.459375 24.1390625,8.8484375 23.3726562,10.4289063 C22.60625,12.0570313 21.8398438,13.3984375 21.121875,14.4515625 C21.121875,14.4515625 21.121875,14.4515625 21.121875,14.4515625 C21.0742188,14.5953125 20.978125,14.6429687 20.834375,14.690625 C20.834375,14.690625 20.834375,14.690625 20.834375,14.690625 C20.7867187,14.7382812 20.7382812,14.7382812 20.5953125,14.7382812 C20.5953125,14.7382812 20.5953125,14.7382812 20.5953125,14.7382812 C20.5953125,14.7382812 20.5476562,14.7382812 20.5476562,14.7382812 C20.5476562,14.7382812 20.4515625,14.7382812 20.4039062,14.690625 C20.4039062,14.690625 20.4039062,14.690625 20.4039062,14.690625 C20.2601562,14.6429687 20.1164062,14.546875 20.06875,14.4515625 C20.06875,14.4515625 20.06875,14.4515625 20.06875,14.4515625 C20.06875,14.4515625 20.0210937,14.4039062 20.0210937,14.4039062 C20.0210937,14.4039062 12.69375,8.178125 12.69375,8.178125 C12.9328125,7.9390625 13.125,7.69921875 13.3164062,7.41171875 C13.3164062,7.41171875 13.3164062,7.41171875 13.3164062,7.41171875 C13.3164062,7.41171875 18.4890625,11.8179687 18.4890625,11.8179687 C17.53125,10.2375 16.9085937,8.41796875 16.6695312,6.40625 C16.6695312,6.40625 16.6695312,6.40625 16.6695312,6.40625 C16.6695312,6.40625 16.6695312,6.11875 16.6695312,6.11875 C16.6695312,5.0171875 17.0523437,4.059375 17.81875,3.2453125 C18.5851562,2.43125 19.4953125,2.04765625 20.596875,2 C20.596875,2 20.596875,2 20.596875,2 C21.6984375,2.04765625 22.6085937,2.43125 23.375,3.2453125 C24.1414063,4.059375 24.5242187,5.0171875 24.5242187,6.11875 C24.5242187,6.11875 24.5242187,6.11875 24.5242187,6.11875 C24.5242187,6.11875 24.5242187,6.3578125 24.5242187,6.3578125 L24.521875,6.3578125 Z M21.3132813,6.596875 C21.5046875,6.40546875 21.6007813,6.165625 21.6007813,5.9265625 C21.6007813,5.6875 21.5046875,5.44765625 21.3132813,5.2078125 C21.0742188,5.01640625 20.834375,4.9203125 20.5945312,4.9203125 C20.3546875,4.9203125 20.115625,5.01640625 19.9242187,5.2078125 C19.7328125,5.446875 19.6367188,5.68671875 19.6367188,5.9265625 C19.6367188,6.16640625 19.7328125,6.40546875 19.9242187,6.596875 C20.115625,6.78828125 20.3554688,6.884375 20.5945312,6.884375 C20.8335938,6.884375 21.0734375,6.78828125 21.3132813,6.596875 Z"/>
  <title>Route Solid</title>
</svg>