<svg xmlns="http://www.w3.org/2000/svg" viewBox="0 0 25 25" id="route">
  <path d="M20.5953125,2 C20.5953125,2 20.5953125,2 20.5953125,2 C19.49375,2.04765625 18.5835938,2.43125 17.8171875,3.2453125 C17.0507812,4.059375 16.6679687,5.0171875 16.6679687,6.11875 C16.6679687,6.11875 16.6679687,6.11875 16.6679687,6.11875 C16.6679687,6.11875 16.6679687,6.3578125 16.6679687,6.3578125 C16.859375,8.1296875 17.3867188,9.7578125 18.2007812,11.2429688 C18.2007812,11.2429688 18.2007812,11.2429688 18.2007812,11.2429688 C18.2007812,11.2429688 12.5976562,6.74140625 12.5976562,6.74140625 C12.7414062,6.35859375 12.7890625,6.07109375 12.7890625,5.8796875 C12.7890625,5.8796875 12.7890625,5.8796875 12.7890625,5.8796875 C12.7890625,5.353125 12.5976562,4.87421875 12.2140625,4.490625 C11.7828125,4.1078125 11.3039063,3.915625 10.7773437,3.915625 C10.2507812,3.915625 9.771875,4.10703125 9.38828125,4.490625 C9.00546875,4.8734375 8.81328125,5.35234375 8.81328125,5.8796875 C8.81328125,5.8796875 8.81328125,5.8796875 8.81328125,5.8796875 C8.81328125,5.92734375 8.81328125,5.97578125 8.8609375,6.0234375 C8.8609375,6.11953125 8.8609375,6.21484375 8.8609375,6.2625 C8.8609375,6.2625 8.8609375,6.2625 8.8609375,6.2625 C8.8609375,6.2625 3.496875,8.609375 3.496875,8.609375 C3.065625,8.13046875 2.58671875,7.890625 1.9640625,7.890625 C1.9640625,7.890625 1.9640625,7.890625 1.9640625,7.890625 C1.4375,7.890625 0.95859375,8.08203125 0.575,8.465625 C0.19140625,8.84921875 0,9.32734375 0,9.8546875 C0,10.38125 0.19140625,10.8601562 0.575,11.24375 C0.95859375,11.6273437 1.43671875,11.81875 1.9640625,11.81875 C1.9640625,11.81875 1.9640625,11.81875 1.9640625,11.81875 C2.203125,11.81875 2.44296875,11.7710937 2.6828125,11.675 C2.6828125,11.675 2.6828125,11.675 2.6828125,11.675 C2.6828125,11.675 8.2859375,19.3859375 8.2859375,19.3859375 C7.9984375,19.8171875 7.8546875,20.2 7.8546875,20.63125 C7.8546875,20.63125 7.8546875,20.63125 7.8546875,20.63125 C7.8546875,21.1578125 8.04609375,21.6367188 8.4296875,22.0203125 C8.81328125,22.4039063 9.29140625,22.5953125 9.81875,22.5953125 C10.3453125,22.5953125 10.8242187,22.4039062 11.2078125,22.0203125 C11.5914062,21.6367187 11.7828125,21.1585937 11.7828125,20.63125 C11.7828125,20.1046875 11.5914062,19.6257812 11.2078125,19.2421875 C10.8242187,18.8585937 10.3460937,18.6671875 9.81875,18.6671875 C9.81875,18.6671875 9.81875,18.6671875 9.81875,18.6671875 C9.53125,18.6671875 9.2921875,18.7148438 9.1,18.8109375 C9.1,18.8109375 9.1,18.8109375 9.1,18.8109375 C9.1,18.8109375 3.4484375,11.1 3.4484375,11.1 C3.78359375,10.7171875 3.92734375,10.2859375 3.92734375,9.8546875 C3.92734375,9.8546875 3.92734375,9.8546875 3.92734375,9.8546875 C3.92734375,9.7109375 3.92734375,9.5671875 3.8796875,9.51953125 C3.8796875,9.51953125 3.8796875,9.51953125 3.8796875,9.51953125 C3.8796875,9.51953125 9.24375,7.125 9.24375,7.125 C9.675,7.6515625 10.1539062,7.89140625 10.7765625,7.89140625 C10.7765625,7.89140625 10.7765625,7.89140625 10.7765625,7.89140625 C11.2554687,7.89140625 11.6382812,7.74765625 11.9742187,7.46015625 C11.9742187,7.46015625 11.9742187,7.46015625 11.9742187,7.46015625 C11.9742187,7.46015625 19.3976562,13.446875 19.3976562,13.446875 C19.4453125,13.590625 19.5414063,13.6859375 19.6367188,13.7820312 C19.684375,13.9257812 19.7804688,14.0210937 19.8757812,14.1648437 C19.9710938,14.3085937 20.0195312,14.4039062 20.0671875,14.4523437 C20.0671875,14.4523437 20.0671875,14.4523437 20.0671875,14.4523437 C20.1632813,14.64375 20.3546875,14.7398437 20.59375,14.7398437 C20.8328125,14.7398437 21.025,14.64375 21.1203125,14.4523437 C21.1203125,14.4523437 21.1203125,14.4523437 21.1203125,14.4523437 C21.8390625,13.3984375 22.6046875,12.0578125 23.3710938,10.4296875 C24.1375,8.84921875 24.5203125,7.46015625 24.5203125,6.3109375 C24.5203125,6.3109375 24.5203125,6.3109375 24.5203125,6.3109375 C24.5203125,6.3109375 24.5203125,6.11953125 24.5203125,6.11953125 C24.5203125,5.01796875 24.1375,4.06015625 23.3710938,3.24609375 C22.6046875,2.43203125 21.6945312,2.0484375 20.5929687,2.00078125 L20.5953125,2 Z M2.6359375,10.525 C2.44453125,10.7164063 2.2046875,10.8125 1.965625,10.8125 C1.7265625,10.8125 1.48671875,10.7164062 1.2953125,10.525 C1.05625,10.3335938 0.96015625,10.09375 0.96015625,9.8546875 C0.96015625,9.8546875 0.96015625,9.8546875 0.96015625,9.8546875 C0.96015625,9.5671875 1.05625,9.328125 1.2953125,9.1359375 C1.48671875,8.94453125 1.7265625,8.8484375 1.965625,8.8484375 C2.2046875,8.8484375 2.44453125,8.94453125 2.6359375,9.1359375 C2.82734375,9.32734375 2.9234375,9.5671875 2.9234375,9.8546875 C2.9234375,9.8546875 2.9234375,9.8546875 2.9234375,9.8546875 C2.9234375,10.09375 2.82734375,10.3335938 2.6359375,10.525 Z M9.81953125,19.6726562 C9.81953125,19.6726562 9.81953125,19.6726562 9.81953125,19.6726562 C10.0585938,19.6726562 10.2984375,19.76875 10.4898438,19.9601562 C10.68125,20.1515625 10.7773438,20.3914062 10.7773438,20.6304687 C10.7773438,20.8695313 10.68125,21.109375 10.4898438,21.3007812 C10.2984375,21.4921875 10.0585938,21.5882812 9.81953125,21.5882812 C9.81953125,21.5882812 9.81953125,21.5882812 9.81953125,21.5882812 C9.53203125,21.5882812 9.29296875,21.4921875 9.10078125,21.3007812 C8.90859375,21.109375 8.81328125,20.8695313 8.81328125,20.6304687 C8.81328125,20.3914062 8.909375,20.1515625 9.10078125,19.9601562 C9.2921875,19.76875 9.53203125,19.6726562 9.81953125,19.6726562 Z M10.7773438,6.88515625 C10.7773438,6.88515625 10.7773438,6.88515625 10.7773438,6.88515625 C10.5382813,6.88515625 10.2984375,6.7890625 10.1070313,6.59765625 C9.915625,6.40625 9.81953125,6.16640625 9.81953125,5.92734375 C9.81953125,5.92734375 9.81953125,5.92734375 9.81953125,5.92734375 C9.81953125,5.63984375 9.915625,5.40078125 10.1070313,5.20859375 C10.2984375,5.01640625 10.5382813,4.92109375 10.7773438,4.92109375 C10.7773438,4.92109375 10.7773438,4.92109375 10.7773438,4.92109375 C11.0648438,4.92109375 11.3039063,5.0171875 11.4960938,5.20859375 C11.6882813,5.4 11.7835937,5.63984375 11.7835937,5.92734375 C11.7835937,5.92734375 11.7835937,5.92734375 11.7835937,5.92734375 C11.7835937,6.16640625 11.6875,6.40625 11.4960938,6.59765625 C11.3046875,6.7890625 11.0648437,6.88515625 10.7773438,6.88515625 L10.7773438,6.88515625 Z M20.5953125,13.49375 C20.5953125,13.49375 20.5953125,13.49375 20.5953125,13.49375 C18.6320313,10.4765625 17.6742188,8.08203125 17.6742188,6.31015625 C17.6742188,6.31015625 17.6742188,6.31015625 17.6742188,6.31015625 C17.6742188,6.31015625 17.6742188,6.11875 17.6742188,6.11875 C17.6742188,5.3046875 17.9617187,4.5859375 18.5359375,3.96328125 C19.0625,3.340625 19.78125,3.00546875 20.5953125,2.9578125 C20.5953125,2.9578125 20.5953125,2.9578125 20.5953125,2.9578125 C21.409375,3.00546875 22.128125,3.340625 22.7023438,3.96328125 C23.2765625,4.5859375 23.5640625,5.30390625 23.5640625,6.11875 C23.5640625,6.11875 23.5640625,6.11875 23.5640625,6.11875 C23.5640625,6.11875 23.5640625,6.3578125 23.5640625,6.3578125 C23.5640625,7.21953125 23.2765625,8.36953125 22.6539063,9.75859375 C22.03125,11.1476563 21.3132813,12.3929687 20.5945313,13.4945313 L20.5953125,13.49375 Z M21.6015625,5.92734375 C21.6015625,5.92734375 21.6015625,5.92734375 21.6015625,5.92734375 C21.6015625,6.16640625 21.5054687,6.40625 21.3140625,6.59765625 C21.075,6.7890625 20.8351563,6.88515625 20.5953125,6.88515625 C20.3554687,6.88515625 20.1164063,6.7890625 19.925,6.59765625 C19.7335937,6.40625 19.6375,6.16640625 19.6375,5.92734375 C19.6375,5.92734375 19.6375,5.92734375 19.6375,5.92734375 C19.6375,5.63984375 19.7335938,5.40078125 19.925,5.20859375 C20.1164062,5.01640625 20.35625,4.92109375 20.5953125,4.92109375 C20.834375,4.92109375 21.0742188,5.0171875 21.3140625,5.20859375 C21.5054688,5.4 21.6015625,5.63984375 21.6015625,5.92734375 Z"/>
  <title>Route</title>
</svg>