<svg xmlns="http://www.w3.org/2000/svg" viewBox="0 0 25 25" id="row-delete">
  <path d="M17.775,13.2609375 C17.775,13.2609375 17.775,13.2609375 17.775,13.2609375 C17.775,13.5960937 17.5835937,13.7875 17.2484375,13.7875 C17.2484375,13.7875 17.2484375,13.7875 17.2484375,13.7875 C17.2484375,13.7875 7.5265625,13.7875 7.5265625,13.7875 C7.19140625,13.7875 7,13.5960937 7,13.2609375 C7,13.2609375 7,13.2609375 7,13.2609375 C7,12.9257812 7.19140625,12.7820312 7.5265625,12.7820312 C7.5265625,12.7820312 7.5265625,12.7820312 7.5265625,12.7820312 C7.5265625,12.7820312 17.2484375,12.7820312 17.2484375,12.7820312 C17.5835937,12.7820312 17.775,12.9257812 17.775,13.2609375 Z M17.2484375,11.7757812 C17.2484375,11.7757812 7.5265625,11.7757812 7.5265625,11.7757812 C7.19140625,11.7757812 7,11.6320313 7,11.296875 C7,10.9617187 7.19140625,10.8179688 7.5265625,10.8179688 C7.5265625,10.8179688 7.5265625,10.8179688 7.5265625,10.8179688 C7.5265625,10.8179688 17.2484375,10.8179688 17.2484375,10.8179688 C17.5835937,10.8179688 17.775,10.9617187 17.775,11.296875 C17.775,11.6320313 17.5835937,11.7757812 17.2484375,11.7757812 C17.2484375,11.7757812 17.2484375,11.7757812 17.2484375,11.7757812 Z M11.9320313,17.3796875 C11.9320313,17.3796875 9.825,19.4867187 9.825,19.4867187 C9.72890625,19.5828125 9.63359375,19.6304687 9.48984375,19.6304687 C9.48984375,19.6304687 9.48984375,19.6304687 9.48984375,19.6304687 C9.1546875,19.6304687 8.96328125,19.4867187 8.96328125,19.1515625 C8.96328125,19.1515625 8.96328125,19.1515625 8.96328125,19.1515625 C8.96328125,19.1039062 9.0109375,19.0078125 9.10703125,18.8164062 C9.10703125,18.8164062 9.10703125,18.8164062 9.10703125,18.8164062 C9.10703125,18.8164062 12.0765625,15.8953125 12.0765625,15.8953125 C12.1726563,15.7992187 12.2679688,15.7515625 12.4117187,15.7515625 C12.5554687,15.7515625 12.6507812,15.7992187 12.746875,15.8953125 C12.746875,15.8953125 12.746875,15.8953125 12.746875,15.8953125 C12.746875,15.8953125 15.7164062,18.8164062 15.7164062,18.8164062 C15.8125,19.0078125 15.8601562,19.1039062 15.8601562,19.1515625 C15.8601562,19.1515625 15.8601562,19.1515625 15.8601562,19.1515625 C15.8601562,19.4867187 15.66875,19.6304687 15.3335938,19.6304687 C15.3335938,19.6304687 15.3335938,19.6304687 15.3335938,19.6304687 C15.1898437,19.6304687 15.0945312,19.5828125 14.9984375,19.4867187 C14.9984375,19.4867187 14.9984375,19.4867187 14.9984375,19.4867187 C14.9984375,19.4867187 12.8914063,17.3796875 12.8914063,17.3796875 C12.8914063,17.3796875 12.8914063,23.0789062 12.8914063,23.0789062 C12.8914063,23.4140625 12.7476563,23.6054688 12.4125,23.6054688 C12.0773438,23.6054688 11.9335938,23.4140625 11.9335938,23.0789062 C11.9335938,23.0789062 11.9335938,23.0789062 11.9335938,23.0789062 C11.9335938,23.0789062 11.9335938,17.3796875 11.9335938,17.3796875 L11.9320313,17.3796875 Z M12.890625,7.178125 C12.890625,7.178125 14.9976563,5.07109375 14.9976563,5.07109375 C15.09375,4.975 15.1890625,4.92734375 15.3328125,4.92734375 C15.3328125,4.92734375 15.3328125,4.92734375 15.3328125,4.92734375 C15.6679687,4.92734375 15.859375,5.07109375 15.859375,5.40625 C15.859375,5.40625 15.859375,5.40625 15.859375,5.40625 C15.859375,5.45390625 15.8117187,5.59765625 15.715625,5.7890625 C15.715625,5.7890625 15.715625,5.7890625 15.715625,5.7890625 C15.715625,5.7890625 12.7460937,8.71015625 12.7460937,8.71015625 C12.65,8.80625 12.5546875,8.85390625 12.4109375,8.85390625 C12.2671875,8.85390625 12.171875,8.80625 12.0757813,8.71015625 C12.0757813,8.71015625 12.0757813,8.71015625 12.0757813,8.71015625 C12.0757813,8.71015625 9.10625,5.7890625 9.10625,5.7890625 C9.01015625,5.69296875 8.9625,5.55 8.9625,5.40625 C8.9625,5.40625 8.9625,5.40625 8.9625,5.40625 C8.9625,5.07109375 9.10625,4.92734375 9.44140625,4.92734375 C9.44140625,4.92734375 9.44140625,4.92734375 9.44140625,4.92734375 C9.58515625,4.92734375 9.72890625,4.975 9.82421875,5.07109375 C9.82421875,5.07109375 9.82421875,5.07109375 9.82421875,5.07109375 C9.82421875,5.07109375 11.93125,7.178125 11.93125,7.178125 C11.93125,7.178125 11.93125,1.47890625 11.93125,1.47890625 C11.93125,1.14375 12.075,1 12.4101562,1 C12.7453125,1 12.8890625,1.14375 12.8890625,1.47890625 C12.8890625,1.47890625 12.8890625,1.47890625 12.8890625,1.47890625 C12.8890625,1.47890625 12.8890625,7.178125 12.8890625,7.178125 L12.890625,7.178125 Z"/>
  <title>Row Delete</title>
</svg>