<svg xmlns="http://www.w3.org/2000/svg" viewBox="0 0 25 25" id="row-insert">
  <path d="M17.775,13.2601562 C17.775,13.2601562 17.775,13.2601562 17.775,13.2601562 C17.775,13.5953125 17.5835937,13.7867187 17.2484375,13.7867187 C17.2484375,13.7867187 17.2484375,13.7867187 17.2484375,13.7867187 C17.2484375,13.7867187 7.5265625,13.7867187 7.5265625,13.7867187 C7.19140625,13.7867187 7,13.5953125 7,13.2601562 C7,13.2601562 7,13.2601562 7,13.2601562 C7,12.925 7.19140625,12.78125 7.5265625,12.78125 C7.5265625,12.78125 7.5265625,12.78125 7.5265625,12.78125 C7.5265625,12.78125 17.2484375,12.78125 17.2484375,12.78125 C17.5835937,12.78125 17.775,12.925 17.775,13.2601562 Z M17.2484375,11.775 C17.2484375,11.775 7.5265625,11.775 7.5265625,11.775 C7.19140625,11.775 7,11.63125 7,11.2960937 C7,10.9609375 7.19140625,10.8171875 7.5265625,10.8171875 C7.5265625,10.8171875 7.5265625,10.8171875 7.5265625,10.8171875 C7.5265625,10.8171875 17.2484375,10.8171875 17.2484375,10.8171875 C17.5835937,10.8171875 17.775,10.9609375 17.775,11.2960937 C17.775,11.63125 17.5835937,11.775 17.2484375,11.775 C17.2484375,11.775 17.2484375,11.775 17.2484375,11.775 Z M12.890625,21.9289063 C12.890625,21.9289063 14.9976563,19.821875 14.9976563,19.821875 C15.09375,19.7257813 15.1890625,19.678125 15.3328125,19.678125 C15.3328125,19.678125 15.3328125,19.678125 15.3328125,19.678125 C15.6679687,19.678125 15.859375,19.821875 15.859375,20.1570312 C15.859375,20.1570312 15.859375,20.1570312 15.859375,20.1570312 C15.859375,20.2046875 15.8117187,20.3007812 15.715625,20.4921875 C15.715625,20.4921875 15.715625,20.4921875 15.715625,20.4921875 C15.715625,20.4921875 12.7460937,23.4617188 12.7460937,23.4617188 C12.65,23.5578125 12.5546875,23.6054688 12.4109375,23.6054688 C12.2671875,23.6054688 12.171875,23.5578125 12.0757813,23.4617188 C12.0757813,23.4617188 12.0757813,23.4617188 12.0757813,23.4617188 C12.0757813,23.4617188 9.10625,20.4921875 9.10625,20.4921875 C9.01015625,20.3007812 8.9625,20.2046875 8.9625,20.1570312 C8.9625,20.1570312 8.9625,20.1570312 8.9625,20.1570312 C8.9625,19.821875 9.15390625,19.678125 9.4890625,19.678125 C9.4890625,19.678125 9.4890625,19.678125 9.4890625,19.678125 C9.6328125,19.678125 9.728125,19.7257813 9.82421875,19.821875 C9.82421875,19.821875 9.82421875,19.821875 9.82421875,19.821875 C9.82421875,19.821875 11.93125,21.9289063 11.93125,21.9289063 C11.93125,21.9289063 11.93125,16.2296875 11.93125,16.2296875 C11.93125,15.8945313 12.075,15.7507813 12.4101562,15.7507813 C12.7453125,15.7507813 12.8890625,15.8945313 12.8890625,16.2296875 C12.8890625,16.2296875 12.8890625,16.2296875 12.8890625,16.2296875 C12.8890625,16.2296875 12.8890625,21.9289063 12.8890625,21.9289063 L12.890625,21.9289063 Z M11.9320313,2.67578125 C11.9320313,2.67578125 9.825,4.7828125 9.825,4.7828125 C9.72890625,4.87890625 9.63359375,4.9265625 9.48984375,4.9265625 C9.48984375,4.9265625 9.48984375,4.9265625 9.48984375,4.9265625 C9.1546875,4.9265625 8.96328125,4.7828125 8.96328125,4.44765625 C8.96328125,4.44765625 8.96328125,4.44765625 8.96328125,4.44765625 C8.96328125,4.4 9.0109375,4.25625 9.10703125,4.06484375 C9.10703125,4.06484375 9.10703125,4.06484375 9.10703125,4.06484375 C9.10703125,4.06484375 12.0765625,1.14375 12.0765625,1.14375 C12.1726563,1.04765625 12.2679688,1 12.4117187,1 C12.5554687,1 12.6507812,1.04765625 12.746875,1.14375 C12.746875,1.14375 12.746875,1.14375 12.746875,1.14375 C12.746875,1.14375 15.7164062,4.06484375 15.7164062,4.06484375 C15.8125,4.1609375 15.8601562,4.30390625 15.8601562,4.44765625 C15.8601562,4.44765625 15.8601562,4.44765625 15.8601562,4.44765625 C15.8601562,4.7828125 15.7164062,4.9265625 15.38125,4.9265625 C15.38125,4.9265625 15.38125,4.9265625 15.38125,4.9265625 C15.2375,4.9265625 15.09375,4.87890625 14.9984375,4.7828125 C14.9984375,4.7828125 14.9984375,4.7828125 14.9984375,4.7828125 C14.9984375,4.7828125 12.8914063,2.67578125 12.8914063,2.67578125 C12.8914063,2.67578125 12.8914063,8.375 12.8914063,8.375 C12.8914063,8.71015625 12.7476563,8.85390625 12.4125,8.85390625 C12.0773438,8.85390625 11.9335938,8.71015625 11.9335938,8.375 C11.9335938,8.375 11.9335938,8.375 11.9335938,8.375 C11.9335938,8.375 11.9335938,2.67578125 11.9335938,2.67578125 L11.9320313,2.67578125 Z"/>
  <title>Row Insert</title>
</svg>