<svg xmlns="http://www.w3.org/2000/svg" viewBox="0 0 25 25" id="row-right-fill">
  <path d="M23.5632812,0 C23.5632812,0 23.5632812,0 23.5632812,0 C23.5632812,0 0.9578125,0 0.9578125,0 C0.71875,0 0.47890625,0.09609375 0.2875,0.2875 C0.09609375,0.47890625 0,0.71875 0,0.9578125 C0,0.9578125 0,0.9578125 0,0.9578125 C0,0.9578125 0,23.5632812 0,23.5632812 C0,23.8023438 0.09609375,24.0421875 0.2875,24.2335937 C0.47890625,24.425 0.71875,24.5210937 0.9578125,24.5210937 C0.9578125,24.5210937 0.9578125,24.5210937 0.9578125,24.5210937 C0.9578125,24.5210937 23.5632812,24.5210937 23.5632812,24.5210937 C23.8023438,24.5210937 24.0421875,24.425 24.2335937,24.2335937 C24.425,24.0421875 24.5210937,23.8023438 24.5210937,23.5632812 C24.5210937,23.5632812 24.5210937,23.5632812 24.5210937,23.5632812 C24.5210937,23.5632812 24.5210937,0.9578125 24.5210937,0.9578125 C24.5210937,0.71875 24.425,0.47890625 24.2335937,0.2875 C24.0421875,0.09609375 23.8023437,0 23.5632812,0 Z M0.9578125,7.8546875 C0.9578125,7.8546875 0.9578125,0.9578125 0.9578125,0.9578125 C0.9578125,0.9578125 15.7085937,0.9578125 15.7085937,0.9578125 C15.7085937,0.9578125 15.7085937,7.8546875 15.7085937,7.8546875 C15.7085937,7.8546875 0.9578125,7.8546875 0.9578125,7.8546875 Z M0.9578125,15.709375 C0.9578125,15.709375 0.9578125,8.8125 0.9578125,8.8125 C0.9578125,8.8125 15.7085937,8.8125 15.7085937,8.8125 C15.7085937,8.8125 15.7085937,15.709375 15.7085937,15.709375 C15.7085937,15.709375 0.9578125,15.709375 0.9578125,15.709375 Z M15.7085937,23.5632813 C15.7085937,23.5632813 0.9578125,23.5632813 0.9578125,23.5632813 C0.9578125,23.5632813 0.9578125,16.6664063 0.9578125,16.6664063 C0.9578125,16.6664063 15.7085937,16.6664063 15.7085937,16.6664063 C15.7085937,16.6664063 15.7085937,23.5632813 15.7085937,23.5632813 Z"/>
  <title>Row Right Fill</title>
</svg>