<svg xmlns="http://www.w3.org/2000/svg" viewBox="0 0 25 25" id="row">
  <path d="M0.9578125,1.95703125 C0.9578125,1.95703125 23.5632813,1.95703125 23.5632813,1.95703125 C23.5632813,1.95703125 23.5632813,5.884375 23.5632813,5.884375 C23.5632813,5.884375 0.9578125,5.884375 0.9578125,5.884375 C0.9578125,5.884375 0.9578125,1.95703125 0.9578125,1.95703125 Z M24.5210937,6.890625 C24.5210937,6.890625 24.5210937,1 24.5210937,1 C24.5210937,1 0,1 0,1 C0,1 0,6.890625 0,6.890625 C0,6.890625 24.5210937,6.890625 24.5210937,6.890625 Z M0.9578125,10.8171875 C0.9578125,10.8171875 23.5632813,10.8171875 23.5632813,10.8171875 C23.5632813,10.8171875 23.5632813,14.7445313 23.5632813,14.7445313 C23.5632813,14.7445313 0.9578125,14.7445313 0.9578125,14.7445313 C0.9578125,14.7445313 0.9578125,10.8171875 0.9578125,10.8171875 Z M24.5210937,15.7023438 C24.5210937,15.7023438 24.5210937,9.81171875 24.5210937,9.81171875 C24.5210937,9.81171875 0,9.81171875 0,9.81171875 C0,9.81171875 0,15.7023438 0,15.7023438 C0,15.7023438 24.5210937,15.7023438 24.5210937,15.7023438 Z M0.9578125,19.6296875 C0.9578125,19.6296875 23.5632813,19.6296875 23.5632813,19.6296875 C23.5632813,19.6296875 23.5632813,23.5570312 23.5632813,23.5570312 C23.5632813,23.5570312 0.9578125,23.5570312 0.9578125,23.5570312 C0.9578125,23.5570312 0.9578125,19.6296875 0.9578125,19.6296875 Z M24.5210937,24.5625 C24.5210937,24.5625 24.5210937,18.671875 24.5210937,18.671875 C24.5210937,18.671875 0,18.671875 0,18.671875 C0,18.671875 0,24.5625 0,24.5625 C0,24.5625 24.5210937,24.5625 24.5210937,24.5625 Z"/>
  <title>Row</title>
</svg>