<svg xmlns="http://www.w3.org/2000/svg" viewBox="0 0 25 25" id="scale-down">
  <path d="M23.6054688,17.1820313 C23.6054688,17.1820313 23.6054688,17.1820313 23.6054688,17.1820313 C23.6054688,17.5171875 23.4140625,17.7085937 23.0789062,17.7085937 C23.0789062,17.7085937 23.0789062,17.7085937 23.0789062,17.7085937 C23.0789062,17.7085937 18.6726562,17.7085937 18.6726562,17.7085937 C18.6726562,17.7085937 18.6726562,22.1148437 18.6726562,22.1148437 C18.6726562,22.45 18.5289062,22.59375 18.19375,22.59375 C17.8585938,22.59375 17.7148438,22.45 17.7148438,22.1148437 C17.7148438,22.1148437 17.7148438,22.1148437 17.7148438,22.1148437 C17.7148438,22.1148437 17.7148438,17.1820313 17.7148438,17.1820313 C17.7148438,16.846875 17.8585938,16.703125 18.19375,16.703125 C18.19375,16.703125 18.19375,16.703125 18.19375,16.703125 C18.19375,16.703125 23.0789062,16.703125 23.0789062,16.703125 C23.4140625,16.703125 23.6054688,16.846875 23.6054688,17.1820313 Z M18.19375,7.89140625 C18.19375,7.89140625 18.19375,7.89140625 18.19375,7.89140625 C18.19375,7.89140625 23.0789062,7.89140625 23.0789062,7.89140625 C23.4140625,7.89140625 23.6054688,7.74765625 23.6054688,7.4125 C23.6054688,7.4125 23.6054688,7.4125 23.6054688,7.4125 C23.6054688,7.07734375 23.4140625,6.8859375 23.0789062,6.8859375 C23.0789062,6.8859375 23.0789062,6.8859375 23.0789062,6.8859375 C23.0789062,6.8859375 18.6726562,6.8859375 18.6726562,6.8859375 C18.6726562,6.8859375 18.6726562,2.4796875 18.6726562,2.4796875 C18.6726562,2.14453125 18.5289062,2.00078125 18.19375,2.00078125 C17.8585938,2.00078125 17.7148438,2.14453125 17.7148438,2.4796875 C17.7148438,2.4796875 17.7148438,2.4796875 17.7148438,2.4796875 C17.7148438,2.4796875 17.7148438,7.4125 17.7148438,7.4125 C17.7148438,7.74765625 17.8585938,7.89140625 18.19375,7.89140625 L18.19375,7.89140625 Z M6.41171875,16.703125 C6.41171875,16.703125 6.41171875,16.703125 6.41171875,16.703125 C6.41171875,16.703125 1.5265625,16.703125 1.5265625,16.703125 C1.19140625,16.703125 1,16.846875 1,17.1820313 C1,17.1820313 1,17.1820313 1,17.1820313 C1,17.5171875 1.19140625,17.7085937 1.5265625,17.7085937 C1.5265625,17.7085937 1.5265625,17.7085937 1.5265625,17.7085937 C1.5265625,17.7085937 5.9328125,17.7085937 5.9328125,17.7085937 C5.9328125,17.7085937 5.9328125,22.1148437 5.9328125,22.1148437 C5.9328125,22.45 6.0765625,22.59375 6.41171875,22.59375 C6.746875,22.59375 6.890625,22.45 6.890625,22.1148437 C6.890625,22.1148437 6.890625,22.1148437 6.890625,22.1148437 C6.890625,22.1148437 6.890625,17.1820313 6.890625,17.1820313 C6.890625,16.846875 6.746875,16.703125 6.41171875,16.703125 L6.41171875,16.703125 Z M6.890625,2.47890625 C6.890625,2.14375 6.746875,2 6.41171875,2 C6.0765625,2 5.9328125,2.14375 5.9328125,2.47890625 C5.9328125,2.47890625 5.9328125,2.47890625 5.9328125,2.47890625 C5.9328125,2.47890625 5.9328125,6.88515625 5.9328125,6.88515625 C5.9328125,6.88515625 1.5265625,6.88515625 1.5265625,6.88515625 C1.19140625,6.88515625 1,7.0765625 1,7.41171875 C1,7.41171875 1,7.41171875 1,7.41171875 C1,7.746875 1.19140625,7.890625 1.5265625,7.890625 C1.5265625,7.890625 1.5265625,7.890625 1.5265625,7.890625 C1.5265625,7.890625 6.41171875,7.890625 6.41171875,7.890625 C6.746875,7.890625 6.890625,7.746875 6.890625,7.41171875 C6.890625,7.41171875 6.890625,7.41171875 6.890625,7.41171875 C6.890625,7.41171875 6.890625,2.47890625 6.890625,2.47890625 Z"/>
  <title>Scale Down</title>
</svg>