<svg xmlns="http://www.w3.org/2000/svg" viewBox="0 0 25 25" id="scale-up">
  <path d="M1,7.41171875 C1,7.41171875 1,7.41171875 1,7.41171875 C1,7.41171875 1,2.5265625 1,2.5265625 C1,2.19140625 1.19140625,2 1.5265625,2 C1.5265625,2 1.5265625,2 1.5265625,2 C1.5265625,2 6.41171875,2 6.41171875,2 C6.746875,2 6.890625,2.19140625 6.890625,2.5265625 C6.890625,2.5265625 6.890625,2.5265625 6.890625,2.5265625 C6.890625,2.86171875 6.746875,3.00546875 6.41171875,3.00546875 C6.41171875,3.00546875 6.41171875,3.00546875 6.41171875,3.00546875 C6.41171875,3.00546875 2.00546875,3.00546875 2.00546875,3.00546875 C2.00546875,3.00546875 2.00546875,7.41171875 2.00546875,7.41171875 C2.00546875,7.746875 1.86171875,7.890625 1.5265625,7.890625 C1.5265625,7.890625 1.5265625,7.890625 1.5265625,7.890625 C1.19140625,7.890625 1,7.746875 1,7.41171875 Z M23.0789062,2 C23.0789062,2 23.0789062,2 23.0789062,2 C23.0789062,2 18.19375,2 18.19375,2 C17.8585937,2 17.7148438,2.19140625 17.7148438,2.5265625 C17.7148438,2.5265625 17.7148438,2.5265625 17.7148438,2.5265625 C17.7148438,2.86171875 17.8585937,3.00546875 18.19375,3.00546875 C18.19375,3.00546875 18.19375,3.00546875 18.19375,3.00546875 C18.19375,3.00546875 22.6,3.00546875 22.6,3.00546875 C22.6,3.00546875 22.6,7.41171875 22.6,7.41171875 C22.6,7.746875 22.74375,7.890625 23.0789062,7.890625 C23.0789062,7.890625 23.0789062,7.890625 23.0789062,7.890625 C23.4140625,7.890625 23.6054688,7.746875 23.6054688,7.41171875 C23.6054688,7.41171875 23.6054688,7.41171875 23.6054688,7.41171875 C23.6054688,7.41171875 23.6054688,2.5265625 23.6054688,2.5265625 C23.6054688,2.19140625 23.4140625,2 23.0789062,2 Z M6.41171875,22.6421875 C6.41171875,22.6421875 6.41171875,22.6421875 6.41171875,22.6421875 C6.41171875,22.6421875 2.00546875,22.6421875 2.00546875,22.6421875 C2.00546875,22.6421875 2.00546875,18.1882813 2.00546875,18.1882813 C2.00546875,17.853125 1.86171875,17.709375 1.5265625,17.709375 C1.5265625,17.709375 1.5265625,17.709375 1.5265625,17.709375 C1.19140625,17.709375 1,17.853125 1,18.1882813 C1,18.1882813 1,18.1882813 1,18.1882813 C1,18.1882813 1,23.1210938 1,23.1210938 C1,23.45625 1.19140625,23.6 1.5265625,23.6 C1.5265625,23.6 1.5265625,23.6 1.5265625,23.6 C1.5265625,23.6 6.41171875,23.6 6.41171875,23.6 C6.746875,23.6 6.890625,23.45625 6.890625,23.1210938 C6.890625,22.7859375 6.746875,22.6421875 6.41171875,22.6421875 Z M23.0789062,17.7085937 C23.0789062,17.7085937 23.0789062,17.7085937 23.0789062,17.7085937 C22.74375,17.7085937 22.6,17.8523437 22.6,18.1875 C22.6,18.1875 22.6,18.1875 22.6,18.1875 C22.6,18.1875 22.6,22.6414062 22.6,22.6414062 C22.6,22.6414062 18.19375,22.6414062 18.19375,22.6414062 C17.8585937,22.6414062 17.7148438,22.7851562 17.7148438,23.1203125 C17.7148438,23.4554687 17.8585937,23.5992187 18.19375,23.5992187 C18.19375,23.5992187 18.19375,23.5992187 18.19375,23.5992187 C18.19375,23.5992187 23.0789062,23.5992187 23.0789062,23.5992187 C23.4140625,23.5992187 23.6054688,23.4554687 23.6054688,23.1203125 C23.6054688,23.1203125 23.6054688,23.1203125 23.6054688,23.1203125 C23.6054688,23.1203125 23.6054688,18.1875 23.6054688,18.1875 C23.6054688,17.8523437 23.4140625,17.7085937 23.0789062,17.7085937 Z M5.9328125,5.92734375 C5.9328125,5.92734375 5.9328125,5.92734375 5.9328125,5.92734375 C5.9328125,5.92734375 18.671875,5.92734375 18.671875,5.92734375 C18.9109375,5.92734375 19.1507813,6.0234375 19.390625,6.21484375 C19.5820313,6.45390625 19.678125,6.69375 19.678125,6.93359375 C19.678125,6.93359375 19.678125,6.93359375 19.678125,6.93359375 C19.678125,6.93359375 19.678125,19.6726562 19.678125,19.6726562 C19.678125,19.9117188 19.5820313,20.1515625 19.390625,20.3429688 C19.1515625,20.5820312 18.9117188,20.678125 18.671875,20.678125 C18.671875,20.678125 18.671875,20.678125 18.671875,20.678125 C18.671875,20.678125 5.9328125,20.678125 5.9328125,20.678125 C5.69375,20.678125 5.45390625,20.5820312 5.2625,20.3429688 C5.0234375,20.1515625 4.92734375,19.9117188 4.92734375,19.6726562 C4.92734375,19.6726562 4.92734375,19.6726562 4.92734375,19.6726562 C4.92734375,19.6726562 4.92734375,6.93359375 4.92734375,6.93359375 C4.92734375,6.69453125 5.0234375,6.4546875 5.2625,6.21484375 C5.45390625,6.0234375 5.69375,5.92734375 5.9328125,5.92734375 Z M18.6726562,19.6726562 C18.6726562,19.6726562 18.6726562,6.93359375 18.6726562,6.93359375 C18.6726562,6.93359375 5.93359375,6.93359375 5.93359375,6.93359375 C5.93359375,6.93359375 5.93359375,19.6726562 5.93359375,19.6726562 C5.93359375,19.6726562 18.6726562,19.6726562 18.6726562,19.6726562 Z"/>
  <title>Scale Up</title>
</svg>