<svg xmlns="http://www.w3.org/2000/svg" viewBox="0 0 25 25" id="school">
  <path d="M24.0421875,23.5148438 C24.0421875,23.5148438 24.0421875,23.5148438 24.0421875,23.5148438 C24.0421875,23.5148438 23.5632812,23.5148438 23.5632812,23.5148438 C23.5632812,23.5148438 23.5632812,14.3671875 23.5632812,14.3671875 C23.5632812,13.8882813 23.4195312,13.4570313 23.1320313,13.121875 C22.796875,12.7867188 22.4132812,12.546875 21.9828125,12.4515625 C21.9828125,12.4515625 21.9828125,12.4515625 21.9828125,12.4515625 C21.9828125,12.4515625 18.6304687,11.78125 18.6304687,11.78125 C18.6304687,11.78125 13.1710938,7.18359375 13.1710938,7.18359375 C12.9796875,7.03984375 12.8359375,6.9921875 12.7398438,6.94453125 C12.7398438,6.94453125 12.7398438,6.94453125 12.7398438,6.94453125 C12.7398438,6.94453125 12.7398438,5.46015625 12.7398438,5.46015625 C13.2664062,5.69921875 13.79375,5.84296875 14.2242188,5.89140625 C14.2242188,5.89140625 14.2242188,5.89140625 14.2242188,5.89140625 C14.5117187,5.89140625 15.0382813,5.7 15.8523437,5.36484375 C16.61875,5.0296875 17.2414062,4.8859375 17.671875,4.8859375 C18.1023437,4.8859375 18.5335938,5.0296875 18.8695312,5.26875 C18.8695312,5.26875 18.8695312,5.26875 18.8695312,5.26875 C18.9171875,5.31640625 19.0132813,5.31640625 19.1570312,5.31640625 C19.1570312,5.31640625 19.1570312,5.31640625 19.1570312,5.31640625 C19.4921875,5.31640625 19.6359375,5.17265625 19.6359375,4.8375 C19.6359375,4.8375 19.6359375,4.8375 19.6359375,4.8375 C19.6359375,4.8375 19.6359375,0.9578125 19.6359375,0.9578125 C19.1570312,0.3828125 18.4867187,0.04765625 17.6726562,0 C17.6726562,0 17.6726562,0 17.6726562,0 C17.2414063,0 16.61875,0.14375 15.853125,0.47890625 C15.0390625,0.8140625 14.5125,0.9578125 14.225,0.9578125 C14.225,0.9578125 14.225,0.9578125 14.225,0.9578125 C13.6023438,0.91015625 12.9796875,0.71875 12.453125,0.3828125 C12.453125,0.3828125 12.453125,0.3828125 12.453125,0.3828125 C12.453125,0.3828125 12.3570313,0.33515625 12.3570313,0.33515625 C12.309375,0.33515625 12.309375,0.33515625 12.2609375,0.33515625 C12.2609375,0.33515625 12.2609375,0.33515625 12.2609375,0.33515625 C11.9257813,0.33515625 11.7820313,0.5265625 11.7820313,0.86171875 C11.7820313,0.86171875 11.7820313,0.86171875 11.7820313,0.86171875 C11.7820313,0.86171875 11.7820313,6.94375 11.7820313,6.94375 C11.6859375,6.99140625 11.5429688,7.03984375 11.3507813,7.1828125 C11.3507813,7.1828125 11.3507813,7.1828125 11.3507813,7.1828125 C11.3507813,7.1828125 5.890625,11.7804687 5.890625,11.7804687 C5.890625,11.7804687 2.53828125,12.4507812 2.53828125,12.4507812 C2.10703125,12.4984375 1.72421875,12.7382812 1.43671875,13.0734375 C1.1015625,13.45625 0.9578125,13.8875 0.9578125,14.3664063 C0.9578125,14.3664063 0.9578125,14.3664063 0.9578125,14.3664063 C0.9578125,14.3664063 0.9578125,23.5140625 0.9578125,23.5140625 C0.9578125,23.5140625 0.47890625,23.5140625 0.47890625,23.5140625 C0.14375,23.5140625 0,23.7054688 0,24.040625 C0,24.040625 0,24.040625 0,24.040625 C0,24.3757813 0.14375,24.5195312 0.47890625,24.5195312 C0.47890625,24.5195312 0.47890625,24.5195312 0.47890625,24.5195312 C0.47890625,24.5195312 24.0421875,24.5195312 24.0421875,24.5195312 C24.3773438,24.5195312 24.5210937,24.3757813 24.5210937,24.040625 C24.5210937,24.040625 24.5210937,24.040625 24.5210937,24.040625 C24.5210937,23.7054688 24.3773438,23.5140625 24.0421875,23.5140625 L24.0421875,23.5148438 Z M12.7398438,4.309375 C12.7398438,4.309375 12.7398438,1.62734375 12.7398438,1.62734375 C13.1226563,1.77109375 13.6015625,1.91484375 14.2242188,1.9625 C14.2242188,1.9625 14.2242188,1.9625 14.2242188,1.9625 C14.846875,1.91484375 15.4695313,1.77109375 16.0921875,1.4359375 C16.0921875,1.4359375 16.0921875,1.4359375 16.0921875,1.4359375 C16.475,1.196875 17.0023438,1.053125 17.625,0.95703125 C17.625,0.95703125 17.625,0.95703125 17.625,0.95703125 C18.05625,1.0046875 18.3914063,1.1484375 18.6304688,1.38828125 C18.6304688,1.38828125 18.6304688,1.38828125 18.6304688,1.38828125 C18.6304688,1.38828125 18.6304688,4.0703125 18.6304688,4.0703125 C18.3429688,3.97421875 18.0078125,3.9265625 17.6726563,3.9265625 C17.6726563,3.9265625 17.6726563,3.9265625 17.6726563,3.9265625 C16.8585938,3.97421875 16.0921875,4.165625 15.278125,4.54921875 C15.278125,4.54921875 15.278125,4.54921875 15.278125,4.54921875 C14.8953125,4.740625 14.559375,4.83671875 14.2242188,4.884375 C14.2242188,4.884375 14.2242188,4.884375 14.2242188,4.884375 C13.6976563,4.78828125 13.1703125,4.596875 12.7398438,4.309375 C12.7398438,4.309375 12.7398438,4.309375 12.7398438,4.309375 L12.7398438,4.309375 Z M13.7453125,20.1140625 C13.7453125,20.1140625 13.7453125,23.5140625 13.7453125,23.5140625 C13.7453125,23.5140625 10.7757812,23.5140625 10.7757812,23.5140625 C10.7757812,23.5140625 10.7757812,20.1140625 10.7757812,20.1140625 C10.7757812,19.6828125 10.9195312,19.3476562 11.2070312,19.0601562 C11.4945312,18.7726563 11.8296875,18.6289062 12.2609375,18.6289062 C12.6921875,18.6289062 13.0273437,18.7726563 13.3148437,19.0601562 C13.6023437,19.3476562 13.7460937,19.6828125 13.7460937,20.1140625 C13.7460937,20.1140625 13.7460937,20.1140625 13.7460937,20.1140625 L13.7453125,20.1140625 Z M22.5578125,14.3671875 C22.5578125,14.3671875 22.5578125,23.5148437 22.5578125,23.5148437 C22.5578125,23.5148437 14.703125,23.5148437 14.703125,23.5148437 C14.703125,23.5148437 14.703125,20.1148437 14.703125,20.1148437 C14.703125,19.4445312 14.4640625,18.8695312 13.984375,18.390625 C13.5046875,17.9117187 12.9304688,17.671875 12.2601563,17.671875 C11.5898438,17.671875 11.0148438,17.9109375 10.5359375,18.390625 C10.0570312,18.8703125 9.8171875,19.4445312 9.8171875,20.1148437 C9.8171875,20.1148437 9.8171875,20.1148437 9.8171875,20.1148437 C9.8171875,20.1148437 9.8171875,23.5148437 9.8171875,23.5148437 C9.8171875,23.5148437 1.9625,23.5148437 1.9625,23.5148437 C1.9625,23.5148437 1.9625,14.3671875 1.9625,14.3671875 C1.9625,13.840625 2.2015625,13.553125 2.72890625,13.409375 C2.72890625,13.409375 2.72890625,13.409375 2.72890625,13.409375 C2.72890625,13.409375 6.32109375,12.690625 6.32109375,12.690625 C6.32109375,12.690625 11.9726562,7.94921875 11.9726562,7.94921875 C12.0203125,7.9015625 12.1164063,7.853125 12.2601562,7.853125 C12.2601562,7.853125 12.2601562,7.853125 12.2601562,7.853125 C12.2601562,7.853125 12.2601562,7.853125 12.2601562,7.853125 C12.4039063,7.853125 12.4992187,7.853125 12.5476562,7.90078125 C12.5476562,7.90078125 12.5476562,7.90078125 12.5476562,7.90078125 C12.5476562,7.90078125 18.1992188,12.6898437 18.1992188,12.6898437 C18.1992188,12.6898437 21.7914063,13.4085937 21.7914063,13.4085937 C22.3179688,13.5523438 22.5578125,13.8398437 22.5578125,14.3664062 C22.5578125,14.3664062 22.5578125,14.3664062 22.5578125,14.3664062 L22.5578125,14.3671875 Z M16.6664063,19.6351562 C16.6664063,19.6351562 16.6664063,18.6296875 16.6664063,18.6296875 C16.6664063,18.6296875 18.6296875,18.6296875 18.6296875,18.6296875 C18.6296875,18.6296875 18.6296875,19.6351562 18.6296875,19.6351562 C18.6296875,19.6351562 16.6664063,19.6351562 16.6664063,19.6351562 L16.6664063,19.6351562 Z M19.6359375,19.6351562 C19.6359375,19.6351562 19.6359375,18.6296875 19.6359375,18.6296875 C19.6359375,18.6296875 21.5992187,18.6296875 21.5992187,18.6296875 C21.5992187,18.6296875 21.5992187,19.6351562 21.5992187,19.6351562 C21.5992187,19.6351562 19.6359375,19.6351562 19.6359375,19.6351562 Z M16.6664063,22.5570312 C16.6664063,22.5570312 16.6664063,20.59375 16.6664063,20.59375 C16.6664063,20.59375 18.6296875,20.59375 18.6296875,20.59375 C18.6296875,20.59375 18.6296875,22.5570312 18.6296875,22.5570312 C18.6296875,22.5570312 16.6664063,22.5570312 16.6664063,22.5570312 L16.6664063,22.5570312 Z M19.6359375,22.5570312 C19.6359375,22.5570312 19.6359375,20.59375 19.6359375,20.59375 C19.6359375,20.59375 21.5992187,20.59375 21.5992187,20.59375 C21.5992187,20.59375 21.5992187,22.5570312 21.5992187,22.5570312 C21.5992187,22.5570312 19.6359375,22.5570312 19.6359375,22.5570312 Z M2.921875,19.6351562 C2.921875,19.6351562 2.921875,18.6296875 2.921875,18.6296875 C2.921875,18.6296875 4.88515625,18.6296875 4.88515625,18.6296875 C4.88515625,18.6296875 4.88515625,19.6351562 4.88515625,19.6351562 C4.88515625,19.6351562 2.921875,19.6351562 2.921875,19.6351562 Z M5.890625,19.6351562 C5.890625,19.6351562 5.890625,18.6296875 5.890625,18.6296875 C5.890625,18.6296875 7.85390625,18.6296875 7.85390625,18.6296875 C7.85390625,18.6296875 7.85390625,19.6351562 7.85390625,19.6351562 C7.85390625,19.6351562 5.890625,19.6351562 5.890625,19.6351562 Z M2.921875,22.5570312 C2.921875,22.5570312 2.921875,20.59375 2.921875,20.59375 C2.921875,20.59375 4.88515625,20.59375 4.88515625,20.59375 C4.88515625,20.59375 4.88515625,22.5570312 4.88515625,22.5570312 C4.88515625,22.5570312 2.921875,22.5570312 2.921875,22.5570312 Z M5.890625,22.5570312 C5.890625,22.5570312 5.890625,20.59375 5.890625,20.59375 C5.890625,20.59375 7.85390625,20.59375 7.85390625,20.59375 C7.85390625,20.59375 7.85390625,22.5570312 7.85390625,22.5570312 C7.85390625,22.5570312 5.890625,22.5570312 5.890625,22.5570312 Z M13.984375,11.49375 C13.5054688,11.0148437 12.9304688,10.775 12.2601563,10.775 C11.5898438,10.775 11.0148438,11.0140625 10.5359375,11.49375 C10.0570313,11.9726562 9.8171875,12.5476562 9.8171875,13.2179688 C9.8171875,13.2179688 9.8171875,13.2179688 9.8171875,13.2179688 C9.8171875,13.9367188 10.05625,14.5109375 10.5359375,14.9898438 C11.015625,15.46875 11.5898438,15.7085938 12.2601563,15.7085938 C12.9304688,15.7085938 13.5054688,15.4695312 13.984375,14.9898438 C14.4632812,14.5101562 14.703125,13.9359375 14.703125,13.2179688 C14.703125,13.2179688 14.703125,13.2179688 14.703125,13.2179688 C14.703125,12.5476562 14.4640625,11.9726562 13.984375,11.49375 Z M13.3140625,14.2710938 C13.0265625,14.5585938 12.6914062,14.7023438 12.2601563,14.7023438 C11.8289063,14.7023438 11.49375,14.5585938 11.20625,14.2710938 C10.91875,13.9835938 10.775,13.6484375 10.775,13.2171875 C10.775,12.7859375 10.91875,12.4507813 11.20625,12.1632813 C11.49375,11.9242188 11.8289063,11.7804688 12.2601563,11.7804688 C12.6914062,11.7804688 13.0265625,11.9242187 13.3140625,12.1632813 C13.6015625,12.4507813 13.7453125,12.7859375 13.7453125,13.2171875 C13.7453125,13.6484375 13.6015625,13.9835938 13.3140625,14.2710938 Z"/>
  <title>School</title>
</svg>