<svg xmlns="http://www.w3.org/2000/svg" viewBox="0 0 25 25" id="school-solid">
  <path d="M24.0421875,23.5148438 C24.0421875,23.5148438 24.0421875,23.5148438 24.0421875,23.5148438 C24.0421875,23.5148438 23.5632813,23.5148438 23.5632813,23.5148438 C23.5632813,23.5148438 23.5632813,14.3671875 23.5632813,14.3671875 C23.5632813,13.8882813 23.4195313,13.4570313 23.1320313,13.121875 C22.796875,12.7867188 22.4132813,12.546875 21.9828125,12.4515625 C21.9828125,12.4515625 21.9828125,12.4515625 21.9828125,12.4515625 C21.9828125,12.4515625 18.6304688,11.78125 18.6304688,11.78125 C18.6304688,11.78125 13.1710938,7.18359375 13.1710938,7.18359375 C12.9796875,7.03984375 12.8359375,6.9921875 12.7398438,6.94453125 C12.7398438,6.94453125 12.7398438,6.94453125 12.7398438,6.94453125 C12.7398438,6.94453125 12.7398438,5.46015625 12.7398438,5.46015625 C13.2664063,5.69921875 13.79375,5.84296875 14.2242188,5.89140625 C14.2242188,5.89140625 14.2242188,5.89140625 14.2242188,5.89140625 C14.5117188,5.89140625 15.0382813,5.7 15.8523438,5.36484375 C16.61875,5.0296875 17.2414063,4.8859375 17.671875,4.8859375 C18.1023438,4.8859375 18.5335938,5.0296875 18.8695313,5.26875 C18.8695313,5.26875 18.8695313,5.26875 18.8695313,5.26875 C18.9171875,5.31640625 19.0132813,5.31640625 19.1570313,5.31640625 C19.1570313,5.31640625 19.1570313,5.31640625 19.1570313,5.31640625 C19.4921875,5.31640625 19.6359375,5.17265625 19.6359375,4.8375 C19.6359375,4.8375 19.6359375,4.8375 19.6359375,4.8375 C19.6359375,4.8375 19.6359375,0.9578125 19.6359375,0.9578125 C19.1570313,0.3828125 18.4867188,0.04765625 17.6726563,0 C17.6726563,0 17.6726563,0 17.6726563,0 C17.2414063,0 16.61875,0.14375 15.853125,0.47890625 C15.0390625,0.8140625 14.5125,0.9578125 14.225,0.9578125 C14.225,0.9578125 14.225,0.9578125 14.225,0.9578125 C13.6023438,0.91015625 12.9796875,0.71875 12.453125,0.3828125 C12.453125,0.3828125 12.453125,0.3828125 12.453125,0.3828125 C12.453125,0.3828125 12.3570313,0.33515625 12.3570313,0.33515625 C12.309375,0.33515625 12.309375,0.33515625 12.2609375,0.33515625 C12.2609375,0.33515625 12.2609375,0.33515625 12.2609375,0.33515625 C11.9257813,0.33515625 11.7820313,0.47890625 11.7820313,0.8140625 C11.7820313,0.8140625 11.7820313,0.8140625 11.7820313,0.8140625 C11.7820313,0.8140625 11.7820313,0.86171875 11.7820313,0.86171875 C11.7820313,0.86171875 11.7820313,6.94375 11.7820313,6.94375 C11.6859375,6.99140625 11.5429688,7.03984375 11.3507813,7.1828125 C11.3507813,7.1828125 11.3507813,7.1828125 11.3507813,7.1828125 C11.3507813,7.1828125 5.890625,11.7804687 5.890625,11.7804687 C5.890625,11.7804687 2.53828125,12.4507812 2.53828125,12.4507812 C2.10703125,12.4984375 1.72421875,12.7382812 1.43671875,13.0734375 C1.1015625,13.45625 0.9578125,13.8875 0.9578125,14.3664063 C0.9578125,14.3664063 0.9578125,14.3664063 0.9578125,14.3664063 C0.9578125,14.3664063 0.9578125,23.5140625 0.9578125,23.5140625 C0.9578125,23.5140625 0.47890625,23.5140625 0.47890625,23.5140625 C0.14375,23.5140625 0,23.7054688 0,24.040625 C0,24.040625 0,24.040625 0,24.040625 C0,24.3757813 0.14375,24.5195312 0.47890625,24.5195312 C0.47890625,24.5195312 0.47890625,24.5195312 0.47890625,24.5195312 C0.47890625,24.5195312 9.81796875,24.5195312 9.81796875,24.5195312 C9.81796875,24.5195312 9.81796875,20.1132812 9.81796875,20.1132812 C9.81796875,19.4429688 10.0570313,18.8679687 10.5367188,18.3890625 C11.0164063,17.9101562 11.590625,17.6703125 12.2609375,17.6703125 C12.93125,17.6703125 13.50625,17.909375 13.9851563,18.3890625 C14.4640625,18.86875 14.7039063,19.4429688 14.7039063,20.1132812 C14.7039063,20.1132812 14.7039063,20.1132812 14.7039063,20.1132812 C14.7039063,20.1132812 14.7039063,24.5195312 14.7039063,24.5195312 C14.7039063,24.5195312 24.0429688,24.5195312 24.0429688,24.5195312 C24.378125,24.5195312 24.521875,24.3757813 24.521875,24.040625 C24.521875,24.040625 24.521875,24.040625 24.521875,24.040625 C24.521875,23.7054688 24.378125,23.5140625 24.0429688,23.5140625 L24.0421875,23.5148438 Z M4.88515625,20.5929688 C4.88515625,20.5929688 4.88515625,22.55625 4.88515625,22.55625 C4.88515625,22.55625 2.921875,22.55625 2.921875,22.55625 C2.921875,22.55625 2.921875,20.5929688 2.921875,20.5929688 C2.921875,20.5929688 4.88515625,20.5929688 4.88515625,20.5929688 Z M4.88515625,18.6296875 C4.88515625,18.6296875 4.88515625,19.6351562 4.88515625,19.6351562 C4.88515625,19.6351562 2.921875,19.6351562 2.921875,19.6351562 C2.921875,19.6351562 2.921875,18.6296875 2.921875,18.6296875 C2.921875,18.6296875 4.88515625,18.6296875 4.88515625,18.6296875 Z M7.8546875,20.5929688 C7.8546875,20.5929688 7.8546875,22.55625 7.8546875,22.55625 C7.8546875,22.55625 5.89140625,22.55625 5.89140625,22.55625 C5.89140625,22.55625 5.89140625,20.5929688 5.89140625,20.5929688 C5.89140625,20.5929688 7.8546875,20.5929688 7.8546875,20.5929688 Z M7.8546875,18.6296875 C7.8546875,18.6296875 7.8546875,19.6351562 7.8546875,19.6351562 C7.8546875,19.6351562 5.89140625,19.6351562 5.89140625,19.6351562 C5.89140625,19.6351562 5.89140625,18.6296875 5.89140625,18.6296875 C5.89140625,18.6296875 7.8546875,18.6296875 7.8546875,18.6296875 Z M13.3140625,14.2710938 C13.0265625,14.5585938 12.6914062,14.7023438 12.2601563,14.7023438 C11.8289063,14.7023438 11.49375,14.5585938 11.20625,14.2710938 C10.91875,13.9835938 10.775,13.6484375 10.775,13.2171875 C10.775,12.7859375 10.91875,12.4507813 11.20625,12.1632813 C11.49375,11.9242188 11.8289063,11.7804688 12.2601563,11.7804688 C12.6914062,11.7804688 13.0265625,11.9242187 13.3140625,12.1632813 C13.6015625,12.4507813 13.7453125,12.7859375 13.7453125,13.2171875 C13.7453125,13.6484375 13.6015625,13.9835938 13.3140625,14.2710938 Z M18.6304687,20.5929688 C18.6304687,20.5929688 18.6304687,22.55625 18.6304687,22.55625 C18.6304687,22.55625 16.6671875,22.55625 16.6671875,22.55625 C16.6671875,22.55625 16.6671875,20.5929688 16.6671875,20.5929688 C16.6671875,20.5929688 18.6304687,20.5929688 18.6304687,20.5929688 Z M18.6304687,18.6296875 C18.6304687,18.6296875 18.6304687,19.6351562 18.6304687,19.6351562 C18.6304687,19.6351562 16.6671875,19.6351562 16.6671875,19.6351562 C16.6671875,19.6351562 16.6671875,18.6296875 16.6671875,18.6296875 C16.6671875,18.6296875 18.6304687,18.6296875 18.6304687,18.6296875 Z M21.6,20.5929688 C21.6,20.5929688 21.6,22.55625 21.6,22.55625 C21.6,22.55625 19.6367188,22.55625 19.6367188,22.55625 C19.6367188,22.55625 19.6367188,20.5929688 19.6367188,20.5929688 C19.6367188,20.5929688 21.6,20.5929688 21.6,20.5929688 L21.6,20.5929688 Z M21.6,18.6296875 C21.6,18.6296875 21.6,19.6351562 21.6,19.6351562 C21.6,19.6351562 19.6367188,19.6351562 19.6367188,19.6351562 C19.6367188,19.6351562 19.6367188,18.6296875 19.6367188,18.6296875 C19.6367188,18.6296875 21.6,18.6296875 21.6,18.6296875 L21.6,18.6296875 Z"/>
  <title>School Solid</title>
</svg>