<svg xmlns="http://www.w3.org/2000/svg" viewBox="0 0 25 25" id="scissors">
  <path d="M15.2711992,12.3875 C15.2711992,12.3875 22.5985429,8.89140625 22.5985429,8.89140625 C22.5985429,8.89140625 22.5985429,7.93359375 22.5985429,7.93359375 C22.5985429,7.93359375 14.1211992,11.8609375 14.1211992,11.8609375 C14.1211992,11.8609375 5.45244917,7.64609375 5.45244917,7.64609375 C6.36260542,7.21484375 6.84151167,6.496875 6.88916792,5.490625 C6.88916792,5.490625 6.88916792,5.490625 6.88916792,5.490625 C6.88916792,4.771875 6.65010542,4.19765625 6.17041792,3.71875 C5.69073042,3.23984375 5.11651167,3 4.44619917,3 C3.77588667,3 3.20088667,3.23984375 2.72198042,3.71875 C2.24307417,4.19765625 2.00323042,4.77265625 2.00323042,5.490625 C2.00323042,5.490625 2.00323042,5.490625 2.00323042,5.490625 C1.95557417,6.5921875 2.43448042,7.40625 3.48760542,7.9328125 C3.48760542,7.9328125 3.48760542,7.9328125 3.48760542,7.9328125 C3.48760542,7.9328125 13.0180742,12.3867187 13.0180742,12.3867187 C13.0180742,12.3867187 3.96651167,16.7453125 3.96651167,16.7453125 C3.43994917,16.8890625 2.96104292,17.2242187 2.62588667,17.6554687 C2.29073042,18.0867187 2.05088667,18.6132812 2.00323042,19.1882812 C2.00323042,19.1882812 2.00323042,19.1882812 2.00323042,19.1882812 C2.00323042,19.9070312 2.24307417,20.48125 2.72198042,20.9601562 C3.20088667,21.4390625 3.77588667,21.6789063 4.44619917,21.6789063 C5.11651167,21.6789063 5.69151167,21.4398437 6.17041792,20.9601562 C6.64932417,20.4804687 6.88916792,19.90625 6.88916792,19.1882812 C6.88916792,19.1882812 6.88916792,19.1882812 6.88916792,19.1882812 C6.88916792,18.6617187 6.74541792,18.134375 6.41026167,17.7039062 C6.07510542,17.2734375 5.78760542,17.08125 5.45244917,17.08125 C5.45244917,17.08125 5.45244917,17.08125 5.45244917,17.08125 C5.45244917,17.08125 14.1211992,12.9148437 14.1211992,12.9148437 C14.1211992,12.9148437 22.5985429,16.7460938 22.5985429,16.7460938 C22.5985429,16.7460938 22.5985429,15.7882812 22.5985429,15.7882812 C22.5985429,15.7882812 15.2711992,12.3882812 15.2711992,12.3882812 L15.2711992,12.3875 Z M3.39385542,6.496875 C3.10635542,6.2578125 2.96260542,5.921875 2.96260542,5.49140625 C2.96260542,5.0609375 3.10635542,4.725 3.39385542,4.4375 C3.68135542,4.15 4.01651167,4.00625 4.44776167,4.00625 C4.87901167,4.00625 5.21416792,4.15 5.50166792,4.4375 C5.78916792,4.725 5.93291792,5.06015625 5.93291792,5.49140625 C5.93291792,5.92265625 5.78916792,6.2578125 5.50166792,6.496875 C5.21416792,6.784375 4.87901167,6.928125 4.44776167,6.928125 C4.01651167,6.928125 3.68135542,6.784375 3.39385542,6.496875 L3.39385542,6.496875 Z M4.44776167,17.7515625 C4.44776167,17.7515625 4.44776167,17.7515625 4.44776167,17.7515625 C4.87901167,17.7039062 5.26182417,17.7992187 5.50166792,18.134375 C5.50166792,18.134375 5.50166792,18.134375 5.50166792,18.134375 C5.78916792,18.421875 5.93291792,18.7570312 5.93291792,19.1882812 C5.93291792,19.6195312 5.78916792,19.9546875 5.50166792,20.2421875 C5.21416792,20.5296875 4.87901167,20.6734375 4.44776167,20.6734375 C4.01651167,20.6734375 3.68135542,20.5296875 3.39385542,20.2421875 C3.10635542,19.9546875 2.96260542,19.6195312 2.96260542,19.1882812 C2.96260542,18.7570312 3.10635542,18.421875 3.39385542,18.134375 C3.39385542,18.134375 3.39385542,18.134375 3.39385542,18.134375 C3.72901167,17.846875 4.11260542,17.703125 4.44776167,17.7515625 Z"/>
  <title>Scissors</title>
</svg>