<svg xmlns="http://www.w3.org/2000/svg" viewBox="0 0 25 25" id="script-solid">
  <path d="M6.8859375,20.59375 C6.8859375,20.59375 22.5945313,20.59375 22.5945313,20.59375 C22.5945313,20.59375 22.5945313,22.5570313 22.5945313,22.5570313 C22.5945313,23.0835938 22.403125,23.5625 22.0195313,23.9460938 C21.6359375,24.3296875 21.1578125,24.5210938 20.6304688,24.5210938 C20.6304688,24.5210938 20.6304688,24.5210938 20.6304688,24.5210938 C20.6304688,24.5210938 4.44296875,24.5210938 4.44296875,24.5210938 C5.11328125,24.5210938 5.68828125,24.2820313 6.1671875,23.8023437 C6.64609375,23.3226563 6.8859375,22.7484375 6.8859375,22.078125 C6.8859375,22.078125 6.8859375,22.078125 6.8859375,22.078125 C6.8859375,22.078125 6.8859375,20.59375 6.8859375,20.59375 L6.8859375,20.59375 Z M5.928125,21.6 C5.928125,21.6 5.928125,21.6 5.928125,21.6 C5.928125,21.6 5.928125,19.6367188 5.928125,19.6367188 C5.928125,19.6367188 20.63125,19.6367188 20.63125,19.6367188 C20.63125,19.6367188 20.63125,1.48515625 20.63125,1.48515625 C20.63125,1.05390625 20.4875,0.71875 20.2,0.43125 C19.9125,0.14375 19.5773438,0 19.1460938,0 C19.1460938,0 19.1460938,0 19.1460938,0 C19.1460938,0 3.48515625,0 3.48515625,0 C3.05390625,0 2.71875,0.14375 2.43125,0.43125 C2.14375,0.71875 2,1.05390625 2,1.48515625 C2,1.48515625 2,1.48515625 2,1.48515625 C2,1.48515625 2,21.6 2,21.6 C2,22.1265625 2.19140625,22.6054687 2.575,22.940625 C2.9578125,23.3234375 3.43671875,23.515625 3.9640625,23.515625 C4.49140625,23.515625 4.96953125,23.3242188 5.353125,22.940625 C5.7359375,22.6054688 5.928125,22.1265625 5.928125,21.6 Z"/>
  <title>Script Solid</title>
</svg>