<svg xmlns="http://www.w3.org/2000/svg" viewBox="0 0 25 25" id="script">
  <path d="M22.115625,19.6367188 C22.115625,19.6367188 22.115625,19.6367188 22.115625,19.6367188 C22.115625,19.6367188 20.63125,19.6367188 20.63125,19.6367188 C20.63125,19.6367188 20.63125,1.48515625 20.63125,1.48515625 C20.63125,1.05390625 20.4875,0.71875 20.2,0.43125 C19.9125,0.14375 19.5773438,0 19.1460938,0 C19.1460938,0 19.1460938,0 19.1460938,0 C19.1460938,0 3.48515625,0 3.48515625,0 C3.05390625,0 2.71875,0.14375 2.43125,0.43125 C2.14375,0.71875 2,1.05390625 2,1.48515625 C2,1.48515625 2,1.48515625 2,1.48515625 C2,1.48515625 2,22.0789062 2,22.0789062 C2,22.7492188 2.2390625,23.3242188 2.71875,23.803125 C3.1984375,24.2820312 3.77265625,24.521875 4.44296875,24.521875 C4.44296875,24.521875 4.44296875,24.521875 4.44296875,24.521875 C4.44296875,24.521875 20.6304687,24.521875 20.6304687,24.521875 C21.1570312,24.521875 21.6359375,24.3304688 22.0195312,23.946875 C22.403125,23.5632812 22.5945312,23.0851563 22.5945312,22.5578125 C22.5945312,22.5578125 22.5945312,22.5578125 22.5945312,22.5578125 C22.5945312,22.5578125 22.5945312,20.115625 22.5945312,20.115625 C22.5945312,19.7804688 22.4507813,19.6367188 22.115625,19.6367188 Z M5.928125,20.115625 C5.928125,20.115625 5.928125,20.115625 5.928125,20.115625 C5.928125,20.115625 5.928125,22.0789063 5.928125,22.0789063 C5.928125,22.5101563 5.784375,22.8453125 5.496875,23.084375 C5.209375,23.371875 4.87421875,23.515625 4.44296875,23.515625 C4.01171875,23.515625 3.6765625,23.371875 3.3890625,23.084375 C3.1015625,22.8453125 2.9578125,22.509375 2.9578125,22.0789063 C2.9578125,22.0789063 2.9578125,22.0789063 2.9578125,22.0789063 C2.9578125,22.0789063 2.9578125,1.48515625 2.9578125,1.48515625 C2.9578125,1.15 3.14921875,0.95859375 3.484375,0.95859375 C3.484375,0.95859375 3.484375,0.95859375 3.484375,0.95859375 C3.484375,0.95859375 19.1453125,0.95859375 19.1453125,0.95859375 C19.4804688,0.95859375 19.671875,1.15 19.671875,1.48515625 C19.671875,1.48515625 19.671875,1.48515625 19.671875,1.48515625 C19.671875,1.48515625 19.671875,19.6367188 19.671875,19.6367188 C19.671875,19.6367188 6.40546875,19.6367188 6.40546875,19.6367188 C6.0703125,19.6367188 5.9265625,19.7804688 5.9265625,20.115625 L5.928125,20.115625 Z M21.6367187,20.5945312 C21.6367187,20.5945312 21.6367187,22.5578125 21.6367187,22.5578125 C21.6367187,22.796875 21.540625,23.0367187 21.3492187,23.228125 C21.1101562,23.4195313 20.8703125,23.515625 20.6304687,23.515625 C20.6304687,23.515625 20.6304687,23.515625 20.6304687,23.515625 C20.6304687,23.515625 6.40625,23.515625 6.40625,23.515625 C6.74140625,23.084375 6.88515625,22.6054688 6.88515625,22.0789062 C6.88515625,22.0789062 6.88515625,22.0789062 6.88515625,22.0789062 C6.88515625,22.0789062 6.88515625,20.5945312 6.88515625,20.5945312 C6.88515625,20.5945312 21.6359375,20.5945312 21.6359375,20.5945312 L21.6367187,20.5945312 Z"/>
  <title>Script</title>
</svg>