<svg xmlns="http://www.w3.org/2000/svg" viewBox="0 0 25 25" id="search-check">
  <path d="M15.60625,7.1296875 C15.60625,7.1296875 15.60625,7.1296875 15.60625,7.1296875 C15.7023437,7.17734375 15.75,7.2734375 15.75,7.46484375 C15.75,7.46484375 15.75,7.46484375 15.75,7.46484375 C15.75,7.60859375 15.7023437,7.70390625 15.60625,7.8 C15.60625,7.8 15.60625,7.8 15.60625,7.8 C15.60625,7.8 10.0984375,13.690625 10.0984375,13.690625 C10.0023437,13.7867188 9.859375,13.834375 9.715625,13.834375 C9.715625,13.834375 9.715625,13.834375 9.715625,13.834375 C9.61953125,13.834375 9.52421875,13.7867188 9.38046875,13.7382812 C9.38046875,13.7382812 9.38046875,13.7382812 9.38046875,13.7382812 C9.38046875,13.7382812 6.1234375,10.76875 6.1234375,10.76875 C6.02734375,10.6726562 5.9796875,10.5296875 5.9796875,10.3859375 C5.9796875,10.3859375 5.9796875,10.3859375 5.9796875,10.3859375 C5.9796875,10.0507812 6.1234375,9.90703125 6.45859375,9.90703125 C6.45859375,9.90703125 6.45859375,9.90703125 6.45859375,9.90703125 C6.5546875,9.90703125 6.65,9.9546875 6.79375,10.003125 C6.79375,10.003125 6.79375,10.003125 6.79375,10.003125 C6.79375,10.003125 9.71484375,12.6851562 9.71484375,12.6851562 C9.71484375,12.6851562 14.9351562,7.1296875 14.9351562,7.1296875 C14.9828125,7.03359375 15.1265625,6.9859375 15.2703125,6.9859375 C15.2703125,6.9859375 15.2703125,6.9859375 15.2703125,6.9859375 C15.4140625,6.9859375 15.509375,7.03359375 15.6054687,7.1296875 L15.60625,7.1296875 Z M24.6101562,24.1320312 C24.6101562,24.2757813 24.5625,24.3710938 24.4664062,24.4671875 C24.3703125,24.5632812 24.2273437,24.6109375 24.0835937,24.6109375 C24.0835937,24.6109375 24.0835937,24.6109375 24.0835937,24.6109375 C23.9398437,24.6109375 23.8445312,24.5632812 23.7484375,24.4671875 C23.7484375,24.4671875 23.7484375,24.4671875 23.7484375,24.4671875 C23.7484375,24.4671875 16.5648438,17.33125 16.5648438,17.33125 C14.7929688,18.9117187 12.7335938,19.7257812 10.3390625,19.7257812 C10.3390625,19.7257812 10.3390625,19.7257812 10.3390625,19.7257812 C7.753125,19.7257812 5.55,18.815625 3.7296875,16.9960938 C1.909375,15.1765625 1,12.9734375 1,10.3867187 C1,7.80078125 1.91015625,5.59765625 3.7296875,3.7296875 C5.54921875,1.91015625 7.75234375,1 10.3390625,1 C12.9257812,1 15.128125,1.91015625 16.9484375,3.7296875 C18.7679688,5.59765625 19.678125,7.80078125 19.678125,10.3867187 C19.678125,10.3867187 19.678125,10.3867187 19.678125,10.3867187 C19.678125,12.78125 18.8640625,14.8882813 17.2835937,16.6609375 C17.2835937,16.6609375 17.2835937,16.6609375 17.2835937,16.6609375 C17.2835937,16.6609375 24.4671875,23.796875 24.4671875,23.796875 C24.5632812,23.9882812 24.6109375,24.084375 24.6109375,24.1320312 C24.6109375,24.1320312 24.6109375,24.1320312 24.6109375,24.1320312 L24.6101562,24.1320312 Z M18.7195313,10.434375 C18.7195313,10.434375 18.7195313,10.434375 18.7195313,10.434375 C18.7195313,8.0875 17.9054687,6.12421875 16.2773438,4.4953125 C14.6492188,2.86640625 12.6851563,2.053125 10.3867188,2.053125 C10.3867188,2.053125 10.3867188,2.053125 10.3867188,2.053125 C8.03984375,2.053125 6.0765625,2.8671875 4.44765625,4.4953125 C2.81875,6.1234375 2.00546875,8.0875 2.00546875,10.434375 C2.00546875,10.434375 2.00546875,10.434375 2.00546875,10.434375 C2.00546875,12.7335938 2.81953125,14.696875 4.44765625,16.325 C6.07578125,17.953125 8.03984375,18.7671875 10.3867188,18.7671875 C10.3867188,18.7671875 10.3867188,18.7671875 10.3867188,18.7671875 C12.6859375,18.7195313 14.6492188,17.9054688 16.2773438,16.2765625 C17.9054687,14.6960938 18.7195313,12.7328125 18.7195313,10.4335938 L18.7195313,10.434375 Z"/>
  <title>Search Check</title>
</svg>