<svg xmlns="http://www.w3.org/2000/svg" viewBox="0 0 25 25" id="search-case">
  <path d="M23.5148438,5.65078125 C23.5148438,5.65078125 23.5148438,6.1296875 23.5148438,6.1296875 C23.5148438,6.1296875 5.12421875,6.1296875 5.12421875,6.1296875 C5.12421875,6.1296875 5.12421875,5.65078125 5.12421875,5.65078125 C5.12421875,5.07578125 5.315625,4.596875 5.746875,4.16640625 C6.1296875,3.78359375 6.60859375,3.59140625 7.1359375,3.59140625 C7.1359375,3.59140625 7.1359375,3.59140625 7.1359375,3.59140625 C7.1359375,3.59140625 21.4554688,3.59140625 21.4554688,3.59140625 C22.0304688,3.59140625 22.509375,3.7828125 22.9398438,4.16640625 C23.3226563,4.59765625 23.5148438,5.0765625 23.5148438,5.65078125 C23.5148438,5.65078125 23.5148438,5.65078125 23.5148438,5.65078125 Z M11.7328125,2.5859375 C11.7328125,2.5859375 11.7328125,1.14921875 11.7328125,1.14921875 C11.7328125,1.053125 11.7804687,1.00546875 11.8765625,1.00546875 C11.8765625,1.00546875 11.8765625,1.00546875 11.8765625,1.00546875 C11.8765625,1.00546875 16.7617188,1.00546875 16.7617188,1.00546875 C16.809375,1.00546875 16.8578125,1.053125 16.8578125,1.14921875 C16.8578125,1.14921875 16.8578125,1.14921875 16.8578125,1.14921875 C16.8578125,1.14921875 16.8578125,2.5859375 16.8578125,2.5859375 C16.8578125,2.5859375 11.7335938,2.5859375 11.7335938,2.5859375 L11.7328125,2.5859375 Z M24.5203125,13.7921875 C24.5203125,13.7921875 24.5203125,6.1296875 24.5203125,6.1296875 C24.5203125,6.1296875 24.5203125,5.65078125 24.5203125,5.65078125 C24.5203125,4.7890625 24.2328125,4.0703125 23.6101563,3.44765625 C22.9875,2.87265625 22.2695313,2.5859375 21.4546875,2.5859375 C21.4546875,2.5859375 21.4546875,2.5859375 21.4546875,2.5859375 C21.4546875,2.5859375 17.8625,2.5859375 17.8625,2.5859375 C17.8625,2.5859375 17.8625,1.14921875 17.8625,1.14921875 C17.8625,0.8140625 17.7664063,0.57421875 17.575,0.33515625 C17.3359375,0.09609375 17.0960938,0 16.7609375,0 C16.7609375,0 16.7609375,0 16.7609375,0 C16.7609375,0 11.8757813,0 11.8757813,0 C11.540625,0 11.3007813,0.09609375 11.0617188,0.33515625 C10.8226563,0.57421875 10.7265625,0.8140625 10.7265625,1.14921875 C10.7265625,1.14921875 10.7265625,1.14921875 10.7265625,1.14921875 C10.7265625,1.14921875 10.7265625,2.5859375 10.7265625,2.5859375 C10.7265625,2.5859375 7.134375,2.5859375 7.134375,2.5859375 C6.3203125,2.5859375 5.6015625,2.8734375 4.97890625,3.44765625 C4.35625,4.0703125 4.06875,4.78828125 4.06875,5.65078125 C4.06875,5.65078125 4.06875,5.65078125 4.06875,5.65078125 C4.06875,5.65078125 4.06875,9.003125 4.06875,9.003125 C4.5,8.95546875 4.8828125,8.90703125 5.12265625,8.90703125 C5.12265625,8.90703125 5.12265625,8.90703125 5.12265625,8.90703125 C5.12265625,8.90703125 5.12265625,7.1828125 5.12265625,7.1828125 C5.12265625,7.1828125 23.5132813,7.1828125 23.5132813,7.1828125 C23.5132813,7.1828125 23.5132813,13.7921875 23.5132813,13.7921875 C23.5132813,14.3671875 23.321875,14.8460937 22.9382813,15.2289062 C22.5070313,15.6601562 22.028125,15.8515625 21.4539063,15.8515625 C21.4539063,15.8515625 21.4539063,15.8515625 21.4539063,15.8515625 C21.4539063,15.8515625 12.2585938,15.8515625 12.2585938,15.8515625 C12.2585938,16.2828125 12.2585938,16.6179688 12.2109375,16.8570312 C12.2109375,16.8570312 12.2109375,16.8570312 12.2109375,16.8570312 C12.2109375,16.8570312 21.4539063,16.8570312 21.4539063,16.8570312 C22.2679688,16.8570312 22.9867188,16.5695313 23.609375,15.946875 C24.2320313,15.371875 24.5195313,14.6539062 24.5195313,13.7914062 C24.5195313,13.7914062 24.5195313,13.7914062 24.5195313,13.7914062 L24.5203125,13.7921875 Z M9.19453125,16.04375 C9.19453125,17.1929687 8.81171875,18.1507813 7.996875,18.9648438 C7.18203125,19.7789063 6.225,20.1625 5.1234375,20.1625 C5.1234375,20.1625 5.1234375,20.1625 5.1234375,20.1625 C3.97421875,20.1625 3.01640625,19.7796875 2.20234375,18.9648438 C1.38828125,18.15 1.0046875,17.1929687 1.0046875,16.04375 C1.0046875,16.04375 1.0046875,16.04375 1.0046875,16.04375 C1.0046875,14.9421875 1.3875,13.984375 2.20234375,13.1703125 C3.0171875,12.35625 3.97421875,11.9726562 5.1234375,11.9726562 C5.1234375,11.9726562 5.1234375,11.9726562 5.1234375,11.9726562 C6.225,11.9726562 7.1828125,12.3554688 7.996875,13.1703125 C8.8109375,13.9851562 9.19453125,14.9421875 9.19453125,16.04375 C9.19453125,16.04375 9.19453125,16.04375 9.19453125,16.04375 Z M13.409375,23.6585937 C13.409375,23.6585937 9.09921875,19.3 9.09921875,19.3 C9.09921875,19.3 9.0515625,19.3 9.0515625,19.3 C9.865625,18.2945312 10.2492188,17.1445312 10.2007813,15.8039062 C10.153125,14.5109375 9.62578125,13.3617187 8.71640625,12.4515625 C8.71640625,12.4515625 8.71640625,12.4515625 8.71640625,12.4515625 C7.7109375,11.4460937 6.51328125,10.9671875 5.12421875,10.9671875 C5.12421875,10.9671875 5.12421875,10.9671875 5.12421875,10.9671875 C3.6875,10.9671875 2.48984375,11.4460937 1.484375,12.4515625 C1.484375,12.4515625 1.484375,12.4515625 1.484375,12.4515625 C0.47890625,13.4570312 0,14.6546875 0,16.04375 C0,17.4328125 0.47890625,18.678125 1.484375,19.6835937 C1.484375,19.6835937 1.484375,19.6835937 1.484375,19.6835937 C2.48984375,20.6890625 3.6875,21.1679687 5.12421875,21.1679687 C5.12421875,21.1679687 5.12421875,21.1679687 5.12421875,21.1679687 C6.321875,21.1679687 7.4234375,20.7851562 8.3328125,19.9703125 C8.3328125,19.9703125 8.3328125,19.9703125 8.3328125,19.9703125 C8.3328125,20.0179687 8.3328125,20.0179687 8.38046875,20.0179687 C8.38046875,20.0179687 8.38046875,20.0179687 8.38046875,20.0179687 C8.38046875,20.0179687 12.690625,24.3765625 12.690625,24.3765625 C12.7867188,24.4726562 12.9296875,24.5203125 13.0734375,24.5203125 C13.0734375,24.5203125 13.0734375,24.5203125 13.0734375,24.5203125 C13.2171875,24.5203125 13.3125,24.4726562 13.4085937,24.3765625 C13.4085937,24.3765625 13.4085937,24.3765625 13.4085937,24.3765625 C13.6476562,24.1375 13.6476562,23.8976562 13.4085937,23.6578125 C13.4085937,23.6578125 13.4085937,23.6578125 13.4085937,23.6578125 L13.409375,23.6585937 Z"/>
  <title>Search Case</title>
</svg>