<svg xmlns="http://www.w3.org/2000/svg" viewBox="0 0 25 25" id="search-analytics-solid">
  <path d="M0.71796875,13.3609375 C0.71796875,13.3609375 5.746875,8.38046875 5.746875,8.38046875 C5.65078125,8.1890625 5.603125,7.99765625 5.603125,7.80546875 C5.603125,7.80546875 5.603125,7.80546875 5.603125,7.80546875 C5.603125,7.37421875 5.746875,7.0390625 6.08203125,6.70390625 C6.36953125,6.41640625 6.7046875,6.27265625 7.1359375,6.27265625 C7.5671875,6.27265625 7.90234375,6.41640625 8.2375,6.70390625 C8.525,7.0390625 8.66875,7.37421875 8.66875,7.80546875 C8.66875,7.80546875 8.66875,7.80546875 8.66875,7.80546875 C8.66875,7.94921875 8.62109375,8.140625 8.57265625,8.38046875 C8.57265625,8.38046875 8.57265625,8.38046875 8.57265625,8.38046875 C8.57265625,8.38046875 11.925,11.7328125 11.925,11.7328125 C11.9726563,11.6851563 12.1164063,11.6851563 12.2601563,11.6851563 C12.2601563,11.6851563 12.2601563,11.6851563 12.2601563,11.6851563 C12.5953125,11.6851563 12.8828125,11.78125 13.2179688,12.0203125 C13.2179688,12.0203125 13.2179688,12.0203125 13.2179688,12.0203125 C13.2179688,12.0203125 18.8695313,6.46484375 18.8695313,6.46484375 C18.1992188,4.596875 17.05,3.01640625 15.3734375,1.81953125 C13.696875,0.62265625 11.78125,0 9.721875,0 C9.721875,0 9.721875,0 9.721875,0 C7.03984375,0 4.74140625,0.9578125 2.8734375,2.82578125 C0.9578125,4.74140625 0,7.040625 0,9.72265625 C0,9.72265625 0,9.72265625 0,9.72265625 C0,11.015625 0.2390625,12.2609375 0.71875,13.3625 C0.71875,13.3625 0.71875,13.3625 0.71875,13.3625 L0.71796875,13.3609375 Z M24.3765625,23.6578125 C24.3765625,23.6578125 24.3765625,23.6578125 24.3765625,23.6578125 C24.3765625,23.6578125 16.9054688,16.1867187 16.9054688,16.1867187 C18.5820312,14.31875 19.3960937,12.1640625 19.3960937,9.72109375 C19.3960937,9.72109375 19.3960937,9.72109375 19.3960937,9.72109375 C19.3960937,8.90703125 19.3,8.18828125 19.1570312,7.565625 C19.1570312,7.565625 19.1570312,7.565625 19.1570312,7.565625 C19.1570312,7.565625 13.7453125,12.8820312 13.7453125,12.8820312 C13.7929688,12.9296875 13.7929688,13.0734375 13.7929688,13.2171875 C13.7929688,13.2171875 13.7929688,13.2171875 13.7929688,13.2171875 C13.7929688,13.6484375 13.6492187,14.03125 13.3617188,14.31875 C13.0742188,14.60625 12.6914063,14.75 12.2601563,14.75 C11.8289063,14.75 11.4460938,14.60625 11.1585938,14.31875 C10.8710938,14.03125 10.7273438,13.6484375 10.7273438,13.2171875 C10.7273438,13.2171875 10.7273438,13.2171875 10.7273438,13.2171875 C10.7273438,12.8820312 10.8234375,12.5945312 11.0625,12.259375 C11.0625,12.259375 11.0625,12.259375 11.0625,12.259375 C11.0625,12.259375 7.9015625,9.14609375 7.9015625,9.14609375 C7.56640625,9.28984375 7.3265625,9.3375 7.13515625,9.3375 C7.13515625,9.3375 7.13515625,9.3375 7.13515625,9.3375 C6.89609375,9.3375 6.65625,9.28984375 6.41640625,9.14609375 C6.41640625,9.14609375 6.41640625,9.14609375 6.41640625,9.14609375 C6.41640625,9.14609375 1.19609375,14.3664062 1.19609375,14.3664062 C2.01015625,15.8992187 3.2078125,17.0960937 4.73984375,18.00625 C6.22421875,18.9164062 7.90078125,19.3953125 9.7203125,19.3953125 C9.7203125,19.3953125 9.7203125,19.3953125 9.7203125,19.3953125 C12.1625,19.3953125 14.3179687,18.58125 16.1859375,16.9046875 C16.1859375,16.9046875 16.1859375,16.9046875 16.1859375,16.9046875 C16.1859375,16.9046875 23.6570312,24.3757812 23.6570312,24.3757812 C23.753125,24.471875 23.8484375,24.5195312 23.9921875,24.5195312 C23.9921875,24.5195312 23.9921875,24.5195312 23.9921875,24.5195312 C24.1359375,24.5195312 24.2796875,24.471875 24.375,24.3757812 C24.375,24.3757812 24.375,24.3757812 24.375,24.3757812 C24.6140625,24.1367187 24.6140625,23.896875 24.375,23.6570312 C24.375,23.6570312 24.375,23.6570312 24.375,23.6570312 L24.3765625,23.6578125 Z"/>
  <title>Search Analytics Solid</title>
</svg>