<svg xmlns="http://www.w3.org/2000/svg" viewBox="0 0 25 25" id="search-solid">
  <g fill="none" fill-rule="evenodd">
    <path fill="#000" fill-rule="nonzero" d="M10.009375,0 C10.009375,0 10.009375,0 10.009375,0 C7.2796875,0 4.9328125,0.9578125 2.96953125,2.92109375 C1.00625,4.884375 0,7.2796875 0,10.009375 C0,10.009375 0,10.009375 0,10.009375 C0,12.7875 1.00546875,15.1335938 2.96953125,17.0976562 C4.93359375,19.0617188 7.2796875,20.0671875 10.009375,20.0671875 C10.009375,20.0671875 10.009375,20.0671875 10.009375,20.0671875 C12.7875,20.0671875 15.1335938,19.0617188 17.0976562,17.0976562 C19.0617188,15.1335937 20.01875,12.7875 20.01875,10.009375 C20.01875,10.009375 20.01875,10.009375 20.01875,10.009375 C20.01875,7.2796875 19.0609375,4.88515625 17.0976562,2.92109375 C15.134375,0.95703125 12.7875,0 10.009375,0 Z M10.009375,0.9578125 C10.009375,0.9578125 10.009375,0.9578125 10.009375,0.9578125 C12.5476563,0.9578125 14.6546875,1.81953125 16.4273437,3.5921875 C18.2,5.36484375 19.0617188,7.51953125 19.0617188,10.0101563 C19.0617188,10.0101563 19.0617188,10.0101563 19.0617188,10.0101563 C19.0617188,12.5484375 18.2,14.6554688 16.4273437,16.428125 C14.6546875,18.2007812 12.5476563,19.0625 10.009375,19.0625 C10.009375,19.0625 10.009375,19.0625 10.009375,19.0625 C7.51875,19.0625 5.41171875,18.2007812 3.63984375,16.428125 C1.86796875,14.6554688 0.9578125,12.5484375 0.9578125,10.0101563 C0.9578125,10.0101563 0.9578125,10.0101563 0.9578125,10.0101563 C0.9578125,7.51953125 1.86796875,5.36484375 3.63984375,3.5921875 C5.41171875,1.81953125 7.51953125,0.9578125 10.009375,0.9578125 Z M15.8046875,10.0101562 C15.8046875,10.0101562 15.8046875,10.0101562 15.8046875,10.0101562 C15.8046875,11.590625 15.2296875,12.93125 14.128125,14.0328125 C13.0265625,15.1820312 11.6375,15.7570313 10.0570312,15.7570313 C10.0570312,15.7570313 10.0570312,15.7570313 10.0570312,15.7570313 C8.4765625,15.7570313 7.1359375,15.1820312 6.034375,14.0328125 C4.9328125,12.93125 4.3578125,11.590625 4.3578125,10.0101562 C4.3578125,8.4296875 4.9328125,7.0890625 6.034375,5.9390625 C7.1359375,4.8375 8.4765625,4.2625 10.0570312,4.2625 C10.0570312,4.2625 10.0570312,4.2625 10.0570312,4.2625 C11.6375,4.2625 13.0265625,4.8375 14.128125,5.9390625 C15.2296875,7.08828125 15.8046875,8.4296875 15.8046875,10.0101562 C15.8046875,10.0101562 15.8046875,10.0101562 15.8046875,10.0101562 L15.8046875,10.0101562 Z"/>
    <path fill="#000" fill-rule="nonzero" d="M23.9460937,24.4257812 C23.9460937,24.4257812 23.9460937,24.4257812 23.9460937,24.4257812 C23.8023437,24.4257812 23.6585938,24.378125 23.5632813,24.2820312 C23.5632813,24.2820312 23.5632813,24.2820312 23.5632813,24.2820312 C23.5632813,24.2820312 16.61875,17.3375 16.61875,17.3375 C16.3796875,17.0984375 16.3796875,16.8585938 16.61875,16.61875 C16.8578125,16.3789062 17.0976562,16.3796875 17.3375,16.61875 C17.3375,16.61875 17.3375,16.61875 17.3375,16.61875 C17.3375,16.61875 24.2820313,23.5632812 24.2820313,23.5632812 C24.5210938,23.8023437 24.5210938,24.0421875 24.2820313,24.2820312 C24.2820313,24.2820312 24.2820313,24.2820312 24.2820313,24.2820312 C24.1859375,24.378125 24.090625,24.4257812 23.946875,24.4257812 L23.9460937,24.4257812 Z"/>
  </g>
  <title>Search Solid</title>
</svg>