<svg xmlns="http://www.w3.org/2000/svg" viewBox="0 0 25 25" id="search-org">
  <path d="M14.7453125,12.7398438 C14.7453125,12.7398438 14.7453125,18.6304687 14.7453125,18.6304687 C14.7453125,18.6304687 20.6359375,18.6304687 20.6359375,18.6304687 C20.6359375,18.6304687 20.6359375,12.7398438 20.6359375,12.7398438 C20.6359375,12.7398438 14.7453125,12.7398438 14.7453125,12.7398438 Z M24.5632813,0 C24.5632813,0 10.8179688,0 10.8179688,0 C10.8179688,0 10.8179688,11.5898438 10.8179688,11.5898438 C11.2007813,11.9726562 11.5367188,12.4039063 11.8234375,12.8828125 C11.8234375,12.8828125 11.8234375,12.8828125 11.8234375,12.8828125 C11.8234375,12.8828125 11.8234375,0.9578125 11.8234375,0.9578125 C11.8234375,0.9578125 23.5570313,0.9578125 23.5570313,0.9578125 C23.5570313,0.9578125 23.5570313,18.6304688 23.5570313,18.6304688 C23.5570313,18.6304688 21.59375,18.6304688 21.59375,18.6304688 C21.59375,18.6304688 21.59375,11.7820313 21.59375,11.7820313 C21.59375,11.7820313 13.7390625,11.7820313 13.7390625,11.7820313 C13.7390625,11.7820313 13.7390625,18.6304688 13.7390625,18.6304688 C13.7390625,18.6304688 12.3984375,18.6304688 12.3984375,18.6304688 C12.3023438,18.965625 12.159375,19.3007813 11.9671875,19.6359375 C11.9671875,19.6359375 11.9671875,19.6359375 11.9671875,19.6359375 C11.9671875,19.6359375 24.5632813,19.6359375 24.5632813,19.6359375 C24.5632813,19.6359375 24.5632813,0 24.5632813,0 Z M9.86015625,16.3796875 C9.86015625,17.48125 9.47734375,18.3914062 8.7109375,19.1578125 C7.94453125,19.9242188 7.034375,20.3070313 5.9328125,20.3070313 C5.9328125,20.3070313 5.9328125,20.3070313 5.9328125,20.3070313 C4.83125,20.3070313 3.8734375,19.9242188 3.1546875,19.1578125 C3.1546875,19.1578125 3.1546875,19.1578125 3.1546875,19.1578125 C2.38828125,18.4390625 2.00546875,17.5296875 2.00546875,16.3796875 C2.00546875,16.3796875 2.00546875,16.3796875 2.00546875,16.3796875 C2.00546875,15.278125 2.38828125,14.3679687 3.1546875,13.65 C3.1546875,13.65 3.1546875,13.65 3.1546875,13.65 C3.8734375,12.8835937 4.83125,12.5007812 5.9328125,12.5007812 C5.9328125,12.5007812 5.9328125,12.5007812 5.9328125,12.5007812 C7.034375,12.5007812 7.94453125,12.8835937 8.7109375,13.65 C9.47734375,14.4164063 9.86015625,15.3265625 9.86015625,16.3796875 C9.86015625,16.3796875 9.86015625,16.3796875 9.86015625,16.3796875 Z M13.8828125,23.7070312 C13.8828125,23.7070312 9.71640625,19.540625 9.71640625,19.540625 C9.71640625,19.4929688 9.71640625,19.4929688 9.66875,19.4929688 C9.66875,19.4929688 9.66875,19.4929688 9.66875,19.4929688 C10.4828125,18.5351563 10.8664063,17.4335938 10.8179688,16.140625 C10.8179688,16.140625 10.8179688,16.140625 10.8179688,16.140625 C10.721875,14.8476563 10.2429688,13.79375 9.38125,12.9320313 C9.38125,12.9320313 9.38125,12.9320313 9.38125,12.9320313 C8.4234375,11.9742188 7.27421875,11.4953125 5.9328125,11.4953125 C5.9328125,11.4953125 5.9328125,11.4953125 5.9328125,11.4953125 C4.54375,11.4953125 3.39453125,11.9742188 2.43671875,12.9320313 C1.47890625,13.8898438 1,15.0390625 1,16.3804688 C1,16.3804688 1,16.3804688 1,16.3804688 C1,17.7695312 1.47890625,18.91875 2.43671875,19.8765625 C3.39453125,20.834375 4.54375,21.3132813 5.9328125,21.3132813 C5.9328125,21.3132813 5.9328125,21.3132813 5.9328125,21.3132813 C7.034375,21.3132813 8.08828125,20.9304688 8.99765625,20.1640625 C8.99765625,20.1640625 8.99765625,20.1640625 8.99765625,20.1640625 C8.99765625,20.1640625 9.0453125,20.2117188 9.0453125,20.2117188 C9.0453125,20.2117188 13.2117188,24.378125 13.2117188,24.378125 C13.3078125,24.4742188 13.403125,24.521875 13.546875,24.521875 C13.690625,24.521875 13.7859375,24.4742188 13.8820312,24.378125 C13.8820312,24.378125 13.8820312,24.378125 13.8820312,24.378125 C14.1210937,24.1390625 14.1210937,23.946875 13.8820312,23.7078125 C13.8820312,23.7078125 13.8820312,23.7078125 13.8820312,23.7078125 L13.8828125,23.7070312 Z M13.7398437,5.84296875 C13.7398437,5.84296875 13.7398437,5.84296875 13.7398437,5.84296875 C13.7398437,5.84296875 21.5945313,5.84296875 21.5945313,5.84296875 C21.9296875,5.84296875 22.1210938,5.69921875 22.1210938,5.3640625 C22.1210938,5.02890625 21.9296875,4.88515625 21.5945313,4.88515625 C21.5945313,4.88515625 21.5945313,4.88515625 21.5945313,4.88515625 C21.5945313,4.88515625 13.7398437,4.88515625 13.7398437,4.88515625 C13.4046875,4.88515625 13.2609375,5.02890625 13.2609375,5.3640625 C13.2609375,5.69921875 13.4046875,5.84296875 13.7398437,5.84296875 L13.7398437,5.84296875 Z M13.7398437,8.86015625 C13.7398437,8.86015625 13.7398437,8.86015625 13.7398437,8.86015625 C13.7398437,8.86015625 21.5945313,8.86015625 21.5945313,8.86015625 C21.9296875,8.86015625 22.1210938,8.66875 22.1210938,8.33359375 C22.1210938,8.33359375 22.1210938,8.33359375 22.1210938,8.33359375 C22.1210938,7.9984375 21.9296875,7.8546875 21.5945313,7.8546875 C21.5945313,7.8546875 21.5945313,7.8546875 21.5945313,7.8546875 C21.5945313,7.8546875 13.7398437,7.8546875 13.7398437,7.8546875 C13.4046875,7.8546875 13.2609375,7.9984375 13.2609375,8.33359375 C13.2609375,8.33359375 13.2609375,8.33359375 13.2609375,8.33359375 C13.2609375,8.66875 13.4046875,8.86015625 13.7398437,8.86015625 C13.7398437,8.86015625 13.7398437,8.86015625 13.7398437,8.86015625 Z"/>
  <title>Search Org</title>
</svg>