<svg xmlns="http://www.w3.org/2000/svg" viewBox="0 0 25 25" id="search-table">
  <path d="M18.1515625,22.8882812 C18.1515625,22.8882812 18.8703125,22.2179687 18.8703125,22.2179687 C18.8703125,22.2179687 12.5960938,15.94375 12.5960938,15.94375 C13.3625,15.0335937 13.7453125,13.9804688 13.7453125,12.8789062 C13.7453125,12.8789062 13.7453125,12.8789062 13.7453125,12.8789062 C13.7453125,11.4898437 13.2664063,10.340625 12.3085938,9.3828125 C11.3507813,8.425 10.2015625,7.94609375 8.8125,7.94609375 C8.8125,7.94609375 8.8125,7.94609375 8.8125,7.94609375 C7.471875,7.94609375 6.321875,8.425 5.3640625,9.3828125 C4.40625,10.340625 3.92734375,11.4898437 3.92734375,12.8789062 C3.92734375,12.8789062 3.92734375,12.8789062 3.92734375,12.8789062 C3.92734375,14.2195312 4.40625,15.3695312 5.3640625,16.3273437 C6.321875,17.2851562 7.47109375,17.7640625 8.8125,17.7640625 C8.8125,17.7640625 8.8125,17.7640625 8.8125,17.7640625 C10.0101563,17.7640625 11.015625,17.38125 11.9257813,16.6625 C11.9257813,16.6625 11.9257813,16.6625 11.9257813,16.6625 C11.9257813,16.6625 18.1515625,22.8882812 18.1515625,22.8882812 L18.1515625,22.8882812 Z M6.034375,15.65625 C5.26796875,14.8898437 4.88515625,13.9796875 4.88515625,12.878125 C4.88515625,11.7765625 5.26796875,10.8664063 6.034375,10.1 C6.80078125,9.33359375 7.7109375,8.95078125 8.8125,8.95078125 C9.9140625,8.95078125 10.8242188,9.33359375 11.590625,10.1 C12.3570313,10.8664062 12.7398438,11.7765625 12.7398438,12.878125 C12.7398438,13.9796875 12.3570313,14.8898437 11.590625,15.65625 C10.8242188,16.4226563 9.9140625,16.8054687 8.8125,16.8054687 C7.7109375,16.8054687 6.80078125,16.4226563 6.034375,15.65625 Z M24.5210938,1.00078125 C24.5210938,1.00078125 0,1.00078125 0,1.00078125 C0,1.00078125 0,11.8242188 0,11.8242188 C0,11.8242188 3.0171875,11.8242188 3.0171875,11.8242188 C3.06484375,11.4890625 3.1609375,11.1539063 3.3046875,10.81875 C3.3046875,10.81875 3.3046875,10.81875 3.3046875,10.81875 C3.3046875,10.81875 0.9578125,10.81875 0.9578125,10.81875 C0.9578125,10.81875 0.9578125,2.00625 0.9578125,2.00625 C0.9578125,2.00625 7.8546875,2.00625 7.8546875,2.00625 C7.8546875,2.00625 7.8546875,6.98671875 7.8546875,6.98671875 C8.2859375,6.9390625 8.62109375,6.890625 8.8125,6.890625 C8.8125,6.890625 8.8125,6.890625 8.8125,6.890625 C8.8125,6.890625 8.8125,2.00546875 8.8125,2.00546875 C8.8125,2.00546875 15.709375,2.00546875 15.709375,2.00546875 C15.709375,2.00546875 15.709375,10.8179688 15.709375,10.8179688 C15.709375,10.8179688 14.36875,10.8179688 14.36875,10.8179688 C14.5125,11.2492188 14.5601563,11.584375 14.6078125,11.8234375 C14.6078125,11.8234375 14.6078125,11.8234375 14.6078125,11.8234375 C14.6078125,11.8234375 24.521875,11.8234375 24.521875,11.8234375 C24.521875,11.8234375 24.521875,1 24.521875,1 L24.5210938,1.00078125 Z M23.5632813,2.00703125 C23.5632813,2.00703125 23.5632813,10.8195312 23.5632813,10.8195312 C23.5632813,10.8195312 16.6664063,10.8195312 16.6664063,10.8195312 C16.6664063,10.8195312 16.6664063,2.00703125 16.6664063,2.00703125 C16.6664063,2.00703125 23.5632813,2.00703125 23.5632813,2.00703125 Z"/>
  <title>Search Table</title>
</svg>