<svg xmlns="http://www.w3.org/2000/svg" viewBox="0 0 25 25" id="search">
  <path d="M18.4804688,17.0445312 C18.4804688,17.0445312 23.365625,21.9296875 23.365625,21.9296875 C23.365625,21.9296875 23.4132813,22.0734375 23.4132813,22.0734375 C23.5570313,22.3125 23.6046875,22.5046875 23.6046875,22.6 C23.6046875,22.6 23.6046875,22.6 23.6046875,22.6 C23.6046875,23.2703125 23.2695312,23.6054688 22.5992188,23.6054688 C22.5992188,23.6054688 22.5992188,23.6054688 22.5992188,23.6054688 C22.4078125,23.6054688 22.1679688,23.509375 21.9289063,23.3179687 C21.9289063,23.3179687 21.9289063,23.3179687 21.9289063,23.3179687 C21.9289063,23.3179687 17.0914063,18.4804688 17.0914063,18.4804688 C15.271875,19.9648438 13.2117188,20.6835938 10.865625,20.6835938 C10.865625,20.6835938 10.865625,20.6835938 10.865625,20.6835938 C8.1359375,20.6835938 5.83671875,19.7257813 3.92109375,17.8101562 C3.92109375,17.8101562 3.92109375,17.8101562 3.92109375,17.8101562 C1.9578125,15.846875 1,13.5476563 1,10.865625 C1,8.18359375 1.9578125,5.88515625 3.92109375,3.92109375 C5.884375,1.9578125 8.18359375,1 10.865625,1 C13.5476563,1 15.8460937,1.9578125 17.8101563,3.92109375 C17.8101563,3.92109375 17.8101563,3.92109375 17.8101563,3.92109375 C19.7257812,5.83671875 20.6835938,8.1359375 20.6835938,10.865625 C20.6835938,10.865625 20.6835938,10.865625 20.6835938,10.865625 C20.6835938,13.1648438 19.9648438,15.2242188 18.4804688,17.04375 C18.4804688,17.04375 18.4804688,17.04375 18.4804688,17.04375 L18.4804688,17.0445312 Z M10.9132812,18.7203125 C13.06875,18.7203125 14.8882812,17.9539062 16.4210937,16.4210937 C17.9539062,14.8882812 18.7203125,13.06875 18.7203125,10.9132812 C18.7203125,10.9132812 18.7203125,10.9132812 18.7203125,10.9132812 C18.7203125,8.7578125 17.9539062,6.890625 16.4210937,5.3578125 C14.8882812,3.825 13.06875,3.05859375 10.9132812,3.05859375 C10.9132812,3.05859375 10.9132812,3.05859375 10.9132812,3.05859375 C8.7578125,3.05859375 6.890625,3.825 5.3578125,5.3578125 C3.825,6.890625 3.05859375,8.75859375 3.05859375,10.9132812 C3.05859375,10.9132812 3.05859375,10.9132812 3.05859375,10.9132812 C3.05859375,13.06875 3.825,14.8882812 5.3578125,16.4210937 C6.890625,17.9539062 8.7578125,18.7203125 10.9132812,18.7203125 C10.9132812,18.7203125 10.9132812,18.7203125 10.9132812,18.7203125 Z"/>
  <title>Search</title>
</svg>