<svg xmlns="http://www.w3.org/2000/svg" viewBox="0 0 25 25" id="send">
  <path d="M21.2109375,12.3929688 C21.2109375,12.3929688 2.5328125,3.77265625 2.5328125,3.77265625 C2.5328125,3.77265625 4.92734375,12.4414063 4.92734375,12.4414063 C4.92734375,12.4414063 2.5328125,21.0140625 2.5328125,21.0140625 C2.5328125,21.0140625 21.2109375,12.39375 21.2109375,12.39375 L21.2109375,12.3929688 Z M1,22.7851562 C1,22.7851562 3.92109375,12.440625 3.92109375,12.440625 C3.92109375,12.440625 1,2 1,2 C1,2 23.5578125,12.3929687 23.5578125,12.3929687 C23.5578125,12.3929687 1,22.7859375 1,22.7859375 L1,22.7851562 Z M4.92734375,11.9140625 C4.92734375,11.9140625 4.92734375,12.871875 4.92734375,12.871875 C4.92734375,12.871875 15.7507813,12.871875 15.7507813,12.871875 C15.7507813,12.871875 15.7507813,11.9140625 15.7507813,11.9140625 C15.7507813,11.9140625 4.92734375,11.9140625 4.92734375,11.9140625 Z"/>
  <title>Send</title>
</svg>