<svg xmlns="http://www.w3.org/2000/svg" viewBox="0 0 25 25" id="server">
  <path d="M20.1460938,0 C20.1460938,0 20.1460938,0 20.1460938,0 C20.1460938,0 4.48515625,0 4.48515625,0 C4.05390625,0 3.71875,0.14375 3.43125,0.43125 C3.14375,0.71875 3,1.05390625 3,1.48515625 C3,1.48515625 3,1.48515625 3,1.48515625 C3,1.48515625 3,23.0367188 3,23.0367188 C3,23.4679688 3.14375,23.803125 3.43125,24.090625 C3.71875,24.378125 4.05390625,24.521875 4.48515625,24.521875 C4.48515625,24.521875 4.48515625,24.521875 4.48515625,24.521875 C4.48515625,24.521875 20.1460938,24.521875 20.1460938,24.521875 C20.5773438,24.521875 20.9125,24.378125 21.2,24.090625 C21.4875,23.803125 21.63125,23.4679688 21.63125,23.0367188 C21.63125,23.0367188 21.63125,23.0367188 21.63125,23.0367188 C21.63125,23.0367188 21.63125,1.48515625 21.63125,1.48515625 C21.63125,1.05390625 21.4875,0.71875 21.2,0.43125 C20.9125,0.14375 20.5773438,0 20.1460938,0 Z M20.6726563,1.484375 C20.6726563,1.484375 20.6726563,23.0359375 20.6726563,23.0359375 C20.6726563,23.3710938 20.48125,23.5148438 20.1460937,23.5148438 C20.1460937,23.5148438 20.1460937,23.5148438 20.1460937,23.5148438 C20.1460937,23.5148438 4.48515625,23.5148438 4.48515625,23.5148438 C4.15,23.5148438 3.95859375,23.3710938 3.95859375,23.0359375 C3.95859375,23.0359375 3.95859375,23.0359375 3.95859375,23.0359375 C3.95859375,23.0359375 3.95859375,16.6664063 3.95859375,16.6664063 C3.95859375,16.6664063 17.225,16.6664063 17.225,16.6664063 C17.5601563,16.6664063 17.7039063,16.5226563 17.7039063,16.1875 C17.7039063,15.8523438 17.5601563,15.7085938 17.225,15.7085938 C17.225,15.7085938 17.225,15.7085938 17.225,15.7085938 C17.225,15.7085938 3.95859375,15.7085938 3.95859375,15.7085938 C3.95859375,15.7085938 3.95859375,8.81171875 3.95859375,8.81171875 C3.95859375,8.81171875 17.225,8.81171875 17.225,8.81171875 C17.5601563,8.81171875 17.7039063,8.66796875 17.7039063,8.3328125 C17.7039063,7.99765625 17.5601563,7.85390625 17.225,7.85390625 C17.225,7.85390625 17.225,7.85390625 17.225,7.85390625 C17.225,7.85390625 3.95859375,7.85390625 3.95859375,7.85390625 C3.95859375,7.85390625 3.95859375,1.484375 3.95859375,1.484375 C3.95859375,1.14921875 4.15,0.9578125 4.48515625,0.9578125 C4.48515625,0.9578125 4.48515625,0.9578125 4.48515625,0.9578125 C4.48515625,0.9578125 20.1460937,0.9578125 20.1460937,0.9578125 C20.48125,0.9578125 20.6726563,1.14921875 20.6726563,1.484375 C20.6726563,1.484375 20.6726563,1.484375 20.6726563,1.484375 Z M7.88515625,12.2125 C7.88515625,12.2125 7.88515625,12.2125 7.88515625,12.2125 C7.88515625,12.2125 7.88515625,12.3085938 7.88515625,12.3085938 C7.88515625,12.5960937 7.74140625,12.7398437 7.45390625,12.7398437 C7.45390625,12.7398437 7.45390625,12.7398437 7.45390625,12.7398437 C7.45390625,12.7398437 6.4,12.7398437 6.4,12.7398437 C6.06484375,12.7398437 5.92109375,12.5960937 5.92109375,12.3085938 C5.92109375,12.3085938 5.92109375,12.3085938 5.92109375,12.3085938 C5.92109375,12.3085938 5.92109375,12.2125 5.92109375,12.2125 C5.92109375,11.925 6.06484375,11.78125 6.4,11.78125 C6.4,11.78125 6.4,11.78125 6.4,11.78125 C6.4,11.78125 7.45390625,11.78125 7.45390625,11.78125 C7.74140625,11.78125 7.88515625,11.925 7.88515625,12.2125 Z M7.40625,19.6359375 C7.74140625,19.6359375 7.88515625,19.7796875 7.88515625,20.1148437 C7.88515625,20.45 7.74140625,20.59375 7.40625,20.59375 C7.40625,20.59375 7.40625,20.59375 7.40625,20.59375 C7.40625,20.59375 6.4484375,20.59375 6.4484375,20.59375 C6.11328125,20.59375 5.921875,20.45 5.921875,20.1148437 C5.921875,19.7796875 6.11328125,19.6359375 6.4484375,19.6359375 C6.4484375,19.6359375 6.4484375,19.6359375 6.4484375,19.6359375 C6.4484375,19.6359375 7.40625,19.6359375 7.40625,19.6359375 L7.40625,19.6359375 Z M7.40625,3.92734375 C7.74140625,3.92734375 7.88515625,4.07109375 7.88515625,4.40625 C7.88515625,4.74140625 7.74140625,4.88515625 7.40625,4.88515625 C7.40625,4.88515625 7.40625,4.88515625 7.40625,4.88515625 C7.40625,4.88515625 6.4484375,4.88515625 6.4484375,4.88515625 C6.11328125,4.88515625 5.921875,4.74140625 5.921875,4.40625 C5.921875,4.07109375 6.11328125,3.92734375 6.4484375,3.92734375 C6.4484375,3.92734375 6.4484375,3.92734375 6.4484375,3.92734375 C6.4484375,3.92734375 7.40625,3.92734375 7.40625,3.92734375 L7.40625,3.92734375 Z"/>
  <title>Server</title>
</svg>