<svg xmlns="http://www.w3.org/2000/svg" viewBox="0 0 25 25" id="server-solid">
  <path d="M20.19375,0 C20.19375,0 20.19375,0 20.19375,0 C20.19375,0 4.48515625,0 4.48515625,0 C4.05390625,0 3.71875,0.14375 3.43125,0.43125 C3.14375,0.71875 3,1.05390625 3,1.48515625 C3,1.48515625 3,1.48515625 3,1.48515625 C3,1.48515625 3,7.8546875 3,7.8546875 C3,7.8546875 17.2242187,7.8546875 17.2242187,7.8546875 C17.559375,7.8546875 17.7507813,7.9984375 17.7507813,8.33359375 C17.7507813,8.66875 17.559375,8.8125 17.2242187,8.8125 C17.2242187,8.8125 17.2242187,8.8125 17.2242187,8.8125 C17.2242187,8.8125 3,8.8125 3,8.8125 C3,8.8125 3,15.709375 3,15.709375 C3,15.709375 17.2242187,15.709375 17.2242187,15.709375 C17.559375,15.709375 17.7507813,15.853125 17.7507813,16.1882813 C17.7507813,16.5234375 17.559375,16.6671875 17.2242187,16.6671875 C17.2242187,16.6671875 17.2242187,16.6671875 17.2242187,16.6671875 C17.2242187,16.6671875 3,16.6671875 3,16.6671875 C3,16.6671875 3,23.0367188 3,23.0367188 C3,23.4679688 3.14375,23.803125 3.43125,24.090625 C3.71875,24.378125 4.05390625,24.521875 4.48515625,24.521875 C4.48515625,24.521875 4.48515625,24.521875 4.48515625,24.521875 C4.48515625,24.521875 20.19375,24.521875 20.19375,24.521875 C20.625,24.521875 20.9601563,24.378125 21.2476563,24.090625 C21.5351562,23.803125 21.6789063,23.4679688 21.6789063,23.0367188 C21.6789063,23.0367188 21.6789063,23.0367188 21.6789063,23.0367188 C21.6789063,23.0367188 21.6789063,1.48515625 21.6789063,1.48515625 C21.6789063,1.05390625 21.5351562,0.71875 21.2476563,0.43125 C20.9601563,0.14375 20.625,0 20.19375,0 Z M7.4546875,4.88515625 C7.4546875,4.88515625 7.4546875,4.88515625 7.4546875,4.88515625 C7.4546875,4.88515625 6.44921875,4.88515625 6.44921875,4.88515625 C6.1140625,4.88515625 5.9703125,4.74140625 5.9703125,4.40625 C5.9703125,4.07109375 6.1140625,3.92734375 6.44921875,3.92734375 C6.44921875,3.92734375 6.44921875,3.92734375 6.44921875,3.92734375 C6.44921875,3.92734375 7.4546875,3.92734375 7.4546875,3.92734375 C7.78984375,3.92734375 7.93359375,4.07109375 7.93359375,4.40625 C7.93359375,4.74140625 7.78984375,4.88515625 7.4546875,4.88515625 L7.4546875,4.88515625 Z M7.93359375,12.2125 C7.93359375,12.2125 7.93359375,12.3085938 7.93359375,12.3085938 C7.93359375,12.5960937 7.78984375,12.7398437 7.4546875,12.7398437 C7.4546875,12.7398437 7.4546875,12.7398437 7.4546875,12.7398437 C7.4546875,12.7398437 6.40078125,12.7398437 6.40078125,12.7398437 C6.11328125,12.7398437 5.96953125,12.5960937 5.96953125,12.3085938 C5.96953125,12.3085938 5.96953125,12.3085938 5.96953125,12.3085938 C5.96953125,12.3085938 5.96953125,12.2125 5.96953125,12.2125 C5.96953125,11.925 6.11328125,11.78125 6.40078125,11.78125 C6.40078125,11.78125 6.40078125,11.78125 6.40078125,11.78125 C6.40078125,11.78125 7.4546875,11.78125 7.4546875,11.78125 C7.78984375,11.78125 7.93359375,11.925 7.93359375,12.2125 C7.93359375,12.2125 7.93359375,12.2125 7.93359375,12.2125 Z M7.4546875,20.59375 C7.4546875,20.59375 7.4546875,20.59375 7.4546875,20.59375 C7.4546875,20.59375 6.44921875,20.59375 6.44921875,20.59375 C6.1140625,20.59375 5.9703125,20.45 5.9703125,20.1148437 C5.9703125,19.7796875 6.1140625,19.6359375 6.44921875,19.6359375 C6.44921875,19.6359375 6.44921875,19.6359375 6.44921875,19.6359375 C6.44921875,19.6359375 7.4546875,19.6359375 7.4546875,19.6359375 C7.78984375,19.6359375 7.93359375,19.7796875 7.93359375,20.1148437 C7.93359375,20.45 7.78984375,20.59375 7.4546875,20.59375 L7.4546875,20.59375 Z"/>
  <title>Server Solid</title>
</svg>