<svg xmlns="http://www.w3.org/2000/svg" viewBox="0 0 25 25" id="server-cloud-solid">
  <path d="M7.22109375,8.51953125 C6.359375,7.6578125 5.928125,6.60390625 5.928125,5.40625 C5.928125,4.20859375 6.359375,3.15546875 7.22109375,2.29296875 C8.0828125,1.43125 9.13671875,1 10.334375,1 C10.334375,1 10.334375,1 10.334375,1 C11.3398437,1 12.2023437,1.2875 13.0164062,1.86171875 C13.7828125,2.484375 14.309375,3.25078125 14.5492187,4.1609375 C14.5492187,4.1609375 14.5492187,4.1609375 14.5492187,4.1609375 C14.9320312,4.0171875 15.315625,3.921875 15.746875,3.921875 C15.746875,3.921875 15.746875,3.921875 15.746875,3.921875 C16.5609375,3.921875 17.23125,4.209375 17.80625,4.78359375 C18.38125,5.3578125 18.6679688,6.0765625 18.6679688,6.890625 C18.6679688,7.7046875 18.3804688,8.4234375 17.8539062,8.95 C17.2789062,9.525 16.5609375,9.81171875 15.746875,9.81171875 C15.746875,9.81171875 15.746875,9.81171875 15.746875,9.81171875 C15.746875,9.81171875 10.3351563,9.81171875 10.3351563,9.81171875 C9.1375,9.81171875 8.084375,9.38046875 7.221875,8.51875 L7.22109375,8.51953125 Z M2.00078125,23.0789063 C2.00078125,23.0789063 2.00078125,18.6726563 2.00078125,18.6726563 C2.00078125,18.6726563 22.5945312,18.6726563 22.5945312,18.6726563 C22.5945312,18.6726563 22.5945312,23.0789063 22.5945312,23.0789063 C22.5945312,23.5101563 22.4507812,23.8453125 22.1632813,24.084375 C21.8757812,24.371875 21.540625,24.515625 21.109375,24.515625 C21.109375,24.515625 21.109375,24.515625 21.109375,24.515625 C21.109375,24.515625 3.48515625,24.515625 3.48515625,24.515625 C3.05390625,24.515625 2.71875,24.371875 2.43125,24.084375 C2.14375,23.8453125 2,23.509375 2,23.0789063 C2,23.0789063 2,23.0789063 2,23.0789063 L2.00078125,23.0789063 Z M10.334375,20.6359375 C9.99921875,20.6359375 9.85546875,20.7796875 9.85546875,21.1148437 C9.85546875,21.45 9.99921875,21.59375 10.334375,21.59375 C10.334375,21.59375 10.334375,21.59375 10.334375,21.59375 C10.334375,21.59375 19.146875,21.59375 19.146875,21.59375 C19.4820313,21.59375 19.6734375,21.45 19.6734375,21.1148437 C19.6734375,20.7796875 19.4820313,20.6359375 19.146875,20.6359375 C19.146875,20.6359375 19.146875,20.6359375 19.146875,20.6359375 C19.146875,20.6359375 10.334375,20.6359375 10.334375,20.6359375 Z M5.35390625,20.0617187 C5.06640625,20.3492187 4.92265625,20.684375 4.92265625,21.115625 C4.92265625,21.546875 5.06640625,21.8820313 5.35390625,22.1695312 C5.64140625,22.4570312 5.9765625,22.6007812 6.4078125,22.6007812 C6.8390625,22.6007812 7.17421875,22.4570312 7.46171875,22.1695312 C7.74921875,21.8820313 7.89296875,21.546875 7.89296875,21.115625 C7.89296875,20.684375 7.74921875,20.3492187 7.46171875,20.0617187 C7.17421875,19.7742187 6.8390625,19.6304687 6.4078125,19.6304687 C5.9765625,19.6304687 5.64140625,19.7742187 5.35390625,20.0617187 Z M22.5953125,13.2601562 C22.5953125,13.2601562 22.5953125,13.2601562 22.5953125,13.2601562 C22.5953125,13.2601562 22.5953125,17.6664062 22.5953125,17.6664062 C22.5953125,17.6664062 2.0015625,17.6664062 2.0015625,17.6664062 C2.0015625,17.6664062 2.0015625,13.2601562 2.0015625,13.2601562 C2.0015625,12.8289062 2.1453125,12.49375 2.4328125,12.20625 C2.7203125,11.91875 3.05546875,11.775 3.48671875,11.775 C3.48671875,11.775 3.48671875,11.775 3.48671875,11.775 C3.48671875,11.775 21.1109375,11.775 21.1109375,11.775 C21.5421875,11.775 21.8773438,11.91875 22.1648438,12.20625 C22.4523438,12.49375 22.5960938,12.8289062 22.5960938,13.2601562 L22.5953125,13.2601562 Z M7.4609375,16.278125 C7.7484375,15.990625 7.8921875,15.6554687 7.8921875,15.2242187 C7.8921875,14.7929688 7.7484375,14.4578125 7.4609375,14.1703125 C7.1734375,13.8828125 6.83828125,13.7390625 6.40703125,13.7390625 C5.97578125,13.7390625 5.640625,13.8828125 5.353125,14.1703125 C5.065625,14.4578125 4.921875,14.7929688 4.921875,15.2242187 C4.921875,15.6554687 5.065625,15.990625 5.353125,16.278125 C5.640625,16.565625 5.97578125,16.709375 6.40703125,16.709375 C6.83828125,16.709375 7.1734375,16.565625 7.4609375,16.278125 Z M19.146875,15.703125 C19.4820313,15.703125 19.6734375,15.559375 19.6734375,15.2242188 C19.6734375,14.8890625 19.4820313,14.7453125 19.146875,14.7453125 C19.146875,14.7453125 19.146875,14.7453125 19.146875,14.7453125 C19.146875,14.7453125 10.334375,14.7453125 10.334375,14.7453125 C9.99921875,14.7453125 9.85546875,14.8890625 9.85546875,15.2242188 C9.85546875,15.559375 9.99921875,15.703125 10.334375,15.703125 C10.334375,15.703125 10.334375,15.703125 10.334375,15.703125 C10.334375,15.703125 19.146875,15.703125 19.146875,15.703125 Z"/>
  <title>Server Cloud Solid</title>
</svg>