<svg xmlns="http://www.w3.org/2000/svg" viewBox="0 0 25 25" id="server-cloud">
  <path d="M9.85546875,21.1148437 C9.85546875,21.1148437 9.85546875,21.1148437 9.85546875,21.1148437 C9.85546875,20.7796875 10.046875,20.6359375 10.3820313,20.6359375 C10.3820313,20.6359375 10.3820313,20.6359375 10.3820313,20.6359375 C10.3820313,20.6359375 19.1945313,20.6359375 19.1945313,20.6359375 C19.5296875,20.6359375 19.6734375,20.7796875 19.6734375,21.1148437 C19.6734375,21.1148437 19.6734375,21.1148437 19.6734375,21.1148437 C19.6734375,21.45 19.5296875,21.6414062 19.1945313,21.6414062 C19.1945313,21.6414062 19.1945313,21.6414062 19.1945313,21.6414062 C19.1945313,21.6414062 10.3820313,21.6414062 10.3820313,21.6414062 C10.046875,21.6414062 9.85546875,21.45 9.85546875,21.1148437 Z M5.4015625,22.16875 C5.1140625,21.88125 4.9703125,21.5460938 4.9703125,21.1148438 C4.9703125,20.6835938 5.1140625,20.3484375 5.4015625,20.0609375 C5.6890625,19.821875 6.02421875,19.678125 6.45546875,19.678125 C6.88671875,19.678125 7.221875,19.821875 7.509375,20.0609375 C7.7484375,20.3484375 7.8921875,20.6835938 7.8921875,21.1148438 C7.8921875,21.5460938 7.7484375,21.88125 7.509375,22.16875 C7.221875,22.45625 6.88671875,22.6 6.45546875,22.6 C6.02421875,22.6 5.6890625,22.45625 5.4015625,22.16875 Z M5.928125,21.1148437 C5.928125,21.1148437 5.928125,21.1148437 5.928125,21.1148437 C5.928125,21.45 6.11953125,21.6414062 6.4546875,21.6414062 C6.4546875,21.6414062 6.4546875,21.6414062 6.4546875,21.6414062 C6.78984375,21.6414062 6.93359375,21.45 6.93359375,21.1148437 C6.93359375,21.1148437 6.93359375,21.1148437 6.93359375,21.1148437 C6.93359375,20.7796875 6.78984375,20.6359375 6.4546875,20.6359375 C6.4546875,20.6359375 6.4546875,20.6359375 6.4546875,20.6359375 C6.11953125,20.6359375 5.928125,20.7796875 5.928125,21.1148437 Z M19.1945313,14.7453125 C19.1945313,14.7453125 19.1945313,14.7453125 19.1945313,14.7453125 C19.1945313,14.7453125 10.3820313,14.7453125 10.3820313,14.7453125 C10.046875,14.7453125 9.85546875,14.8890625 9.85546875,15.2242188 C9.85546875,15.2242188 9.85546875,15.2242188 9.85546875,15.2242188 C9.85546875,15.559375 10.046875,15.7507812 10.3820313,15.7507812 C10.3820313,15.7507812 10.3820313,15.7507812 10.3820313,15.7507812 C10.3820313,15.7507812 19.1945313,15.7507812 19.1945313,15.7507812 C19.5296875,15.7507812 19.6734375,15.559375 19.6734375,15.2242188 C19.6734375,15.2242188 19.6734375,15.2242188 19.6734375,15.2242188 C19.6734375,14.8890625 19.5296875,14.7453125 19.1945313,14.7453125 Z M22.6429688,13.2609375 C22.6429688,13.2609375 22.6429688,13.2609375 22.6429688,13.2609375 C22.6429688,13.2609375 22.6429688,23.0789062 22.6429688,23.0789062 C22.6429688,23.5101562 22.4992188,23.8453125 22.2117188,24.1328125 C21.9242188,24.4203125 21.5890625,24.5640625 21.1578125,24.5640625 C21.1578125,24.5640625 21.1578125,24.5640625 21.1578125,24.5640625 C21.1578125,24.5640625 3.48515625,24.5640625 3.48515625,24.5640625 C3.05390625,24.5640625 2.71875,24.4203125 2.43125,24.1328125 C2.14375,23.8453125 2,23.5101563 2,23.0789063 C2,23.0789063 2,23.0789063 2,23.0789063 C2,23.0789063 2,13.2609375 2,13.2609375 C2,12.8296875 2.14375,12.4945312 2.43125,12.2070312 C2.71875,11.9679688 3.05390625,11.8242188 3.48515625,11.8242188 C3.48515625,11.8242188 3.48515625,11.8242188 3.48515625,11.8242188 C3.48515625,11.8242188 21.1578125,11.8242188 21.1578125,11.8242188 C21.5890625,11.8242188 21.9242188,11.9679687 22.2117188,12.2070312 C22.4992188,12.4945312 22.6429688,12.8296875 22.6429688,13.2609375 L22.6429688,13.2609375 Z M21.6367187,23.0789063 C21.6367187,23.0789063 21.6367187,18.6726562 21.6367187,18.6726562 C21.6367187,18.6726562 3.00625,18.6726562 3.00625,18.6726562 C3.00625,18.6726562 3.00625,23.0789063 3.00625,23.0789063 C3.00625,23.4140625 3.15,23.5578125 3.48515625,23.5578125 C3.48515625,23.5578125 3.48515625,23.5578125 3.48515625,23.5578125 C3.48515625,23.5578125 21.1578125,23.5578125 21.1578125,23.5578125 C21.4929687,23.5578125 21.6367187,23.4140625 21.6367187,23.0789063 C21.6367187,23.0789063 21.6367187,23.0789063 21.6367187,23.0789063 Z M21.6367188,17.7148438 C21.6367188,17.7148438 21.6367188,13.2609375 21.6367188,13.2609375 C21.6367188,12.9257812 21.4929687,12.7820312 21.1578125,12.7820312 C21.1578125,12.7820312 21.1578125,12.7820312 21.1578125,12.7820312 C21.1578125,12.7820312 3.48515625,12.7820312 3.48515625,12.7820312 C3.15,12.7820312 3.00625,12.9257812 3.00625,13.2609375 C3.00625,13.2609375 3.00625,13.2609375 3.00625,13.2609375 C3.00625,13.2609375 3.00625,17.7148438 3.00625,17.7148438 C3.00625,17.7148438 21.6367188,17.7148438 21.6367188,17.7148438 Z M7.50859375,14.1703125 C7.74765625,14.4578125 7.89140625,14.7929687 7.89140625,15.2242187 C7.89140625,15.6554687 7.74765625,15.990625 7.50859375,16.278125 C7.22109375,16.565625 6.8859375,16.709375 6.4546875,16.709375 C6.0234375,16.709375 5.68828125,16.565625 5.40078125,16.278125 C5.11328125,15.990625 4.96953125,15.6554687 4.96953125,15.2242187 C4.96953125,14.7929687 5.11328125,14.4578125 5.40078125,14.1703125 C5.68828125,13.93125 6.0234375,13.7875 6.4546875,13.7875 C6.8859375,13.7875 7.22109375,13.93125 7.50859375,14.1703125 Z M6.93359375,15.2242188 C6.93359375,15.2242188 6.93359375,15.2242188 6.93359375,15.2242188 C6.93359375,14.8890625 6.78984375,14.7453125 6.4546875,14.7453125 C6.4546875,14.7453125 6.4546875,14.7453125 6.4546875,14.7453125 C6.11953125,14.7453125 5.928125,14.8890625 5.928125,15.2242188 C5.928125,15.2242188 5.928125,15.2242188 5.928125,15.2242188 C5.928125,15.559375 6.11953125,15.7507812 6.4546875,15.7507812 C6.4546875,15.7507812 6.4546875,15.7507812 6.4546875,15.7507812 C6.78984375,15.7507812 6.93359375,15.559375 6.93359375,15.2242188 Z M5.928125,5.45390625 C5.928125,5.45390625 5.928125,5.45390625 5.928125,5.45390625 C5.928125,5.45390625 5.928125,5.40625 5.928125,5.40625 C5.928125,4.20859375 6.359375,3.203125 7.22109375,2.29296875 C8.0828125,1.43125 9.13671875,1 10.334375,1 C10.334375,1 10.334375,1 10.334375,1 C11.3398438,1 12.2023438,1.2875 13.0164063,1.86171875 C13.7828125,2.484375 14.309375,3.25078125 14.596875,4.1609375 C14.596875,4.1609375 14.596875,4.1609375 14.596875,4.1609375 C15.028125,4.0171875 15.4109375,3.96953125 15.7460938,3.96953125 C15.7460938,3.96953125 15.7460938,3.96953125 15.7460938,3.96953125 C16.5601563,3.96953125 17.2789063,4.25703125 17.853125,4.83125 C18.4273438,5.40546875 18.7148438,6.0765625 18.7148438,6.890625 C18.7148438,6.890625 18.7148438,6.890625 18.7148438,6.890625 C18.7148438,7.7046875 18.4273438,8.4234375 17.853125,8.99765625 C17.2304688,9.57265625 16.5601562,9.859375 15.7460938,9.859375 C15.7460938,9.859375 15.7460938,9.859375 15.7460938,9.859375 C15.7460938,9.859375 10.3820313,9.859375 10.3820313,9.859375 C9.184375,9.859375 8.13125,9.428125 7.26875,8.56640625 C6.35859375,7.7046875 5.928125,6.65078125 5.928125,5.453125 L5.928125,5.45390625 Z M6.93359375,5.45390625 C6.93359375,5.45390625 6.93359375,5.45390625 6.93359375,5.45390625 C6.93359375,6.3640625 7.26875,7.178125 7.9390625,7.8484375 C8.609375,8.51875 9.4234375,8.85390625 10.38125,8.85390625 C10.38125,8.85390625 10.38125,8.85390625 10.38125,8.85390625 C10.38125,8.85390625 15.7453125,8.85390625 15.7453125,8.85390625 C16.271875,8.85390625 16.7507812,8.6625 17.134375,8.27890625 C17.5179687,7.8953125 17.709375,7.4171875 17.709375,6.88984375 C17.709375,6.36328125 17.5179687,5.884375 17.134375,5.50078125 C16.7507812,5.1171875 16.2726563,4.92578125 15.7453125,4.92578125 C15.7453125,4.92578125 15.7453125,4.92578125 15.7453125,4.92578125 C15.5539063,4.92578125 15.3140625,4.9734375 14.9789063,5.1171875 C14.9789063,5.1171875 14.9789063,5.1171875 14.9789063,5.1171875 C14.7875,5.16484375 14.64375,5.21328125 14.5960938,5.21328125 C14.5960938,5.21328125 14.5960938,5.21328125 14.5960938,5.21328125 C14.1648438,5.21328125 13.8296875,4.97421875 13.6382813,4.49453125 C13.6382813,4.49453125 13.6382813,4.49453125 13.6382813,4.49453125 C13.3992188,3.77578125 13.015625,3.15390625 12.440625,2.675 C11.8179688,2.24375 11.1476563,2.0046875 10.38125,2.0046875 C10.38125,2.0046875 10.38125,2.0046875 10.38125,2.0046875 C9.4234375,2.0046875 8.609375,2.33984375 7.9390625,3.01015625 C7.26875,3.68046875 6.93359375,4.49453125 6.93359375,5.45234375 L6.93359375,5.45390625 Z"/>
  <title>Server Cloud</title>
</svg>