<svg xmlns="http://www.w3.org/2000/svg" viewBox="0 0 25 25" id="sextant">
  <path d="M22.5875,23.85 C22.5875,23.85 22.5875,23.85 22.5875,23.85 C22.5875,23.85 15.546875,7.95 15.546875,7.95 C16.3609375,7.32734375 16.7445313,6.465625 16.7445313,5.3640625 C16.7445313,5.3640625 16.7445313,5.3640625 16.7445313,5.3640625 C16.7445313,4.55 16.4570312,3.78359375 15.9304687,3.1609375 C15.3554687,2.53828125 14.6375,2.15546875 13.8234375,2.01171875 C13.8234375,2.01171875 13.8234375,2.01171875 13.8234375,2.01171875 C13.8234375,2.01171875 13.8234375,0.47890625 13.8234375,0.47890625 C13.8234375,0.14375 13.6320312,0 13.296875,0 C13.296875,0 13.296875,0 13.296875,0 C12.9617188,0 12.8179687,0.14375 12.8179687,0.47890625 C12.8179687,0.47890625 12.8179687,0.47890625 12.8179687,0.47890625 C12.8179687,0.47890625 12.8179687,2.01171875 12.8179687,2.01171875 C12.0039062,2.15546875 11.2851562,2.53828125 10.7585937,3.1609375 C10.1835938,3.78359375 9.896875,4.55 9.896875,5.3640625 C9.896875,5.3640625 9.896875,5.3640625 9.896875,5.3640625 C9.896875,6.41796875 10.2796875,7.2796875 11.0460937,7.95 C11.0460937,7.95 11.0460937,7.95 11.0460937,7.95 C11.0460937,7.95 7.31015625,16.4273437 7.31015625,16.4273437 C5.10703125,14.559375 4.00546875,12.1648437 4.00546875,9.3390625 C4.00546875,9.3390625 4.00546875,9.3390625 4.00546875,9.3390625 C4.00546875,9.00390625 3.86171875,8.8125 3.5265625,8.8125 C3.5265625,8.8125 3.5265625,8.8125 3.5265625,8.8125 C3.19140625,8.8125 3,9.00390625 3,9.3390625 C3,9.3390625 3,9.3390625 3,9.3390625 C3,10.9195312 3.33515625,12.4039063 4.05390625,13.7929687 C4.77265625,15.1820312 5.68203125,16.3789062 6.8796875,17.3367187 C6.8796875,17.3367187 6.8796875,17.3367187 6.8796875,17.3367187 C6.8796875,17.3367187 4.05390625,23.85 4.05390625,23.85 C4.00625,23.8976563 4.00625,23.9460937 4.00625,24.0414062 C4.00625,24.0414062 4.00625,24.0414062 4.00625,24.0414062 C4.00625,24.2328125 4.10234375,24.3765625 4.29375,24.4726562 C4.29375,24.4726562 4.29375,24.4726562 4.29375,24.4726562 C4.34140625,24.5203125 4.38984375,24.5203125 4.48515625,24.5203125 C4.48515625,24.5203125 4.48515625,24.5203125 4.48515625,24.5203125 C4.72421875,24.5203125 4.86796875,24.4242187 4.91640625,24.2328125 C4.91640625,24.2328125 4.91640625,24.2328125 4.91640625,24.2328125 C4.91640625,24.2328125 7.7421875,17.9585937 7.7421875,17.9585937 C9.41875,19.0601562 11.2859375,19.6351563 13.3453125,19.6351563 C13.3453125,19.6351563 13.3453125,19.6351563 13.3453125,19.6351563 C15.3570313,19.6351563 17.225,19.0601562 18.9007813,17.9585937 C18.9007813,17.9585937 18.9007813,17.9585937 18.9007813,17.9585937 C18.9007813,17.9585937 21.6789063,24.2328125 21.6789063,24.2328125 C21.8226563,24.4242187 21.9664062,24.5203125 22.1578125,24.5203125 C22.1578125,24.5203125 22.1578125,24.5203125 22.1578125,24.5203125 C22.1578125,24.5203125 22.1578125,24.5203125 22.1578125,24.5203125 C22.2539063,24.5203125 22.3015625,24.5203125 22.3492188,24.4726562 C22.3492188,24.4726562 22.3492188,24.4726562 22.3492188,24.4726562 C22.540625,24.3765625 22.6367188,24.2335937 22.6367188,24.0414062 C22.6367188,24.0414062 22.6367188,24.0414062 22.6367188,24.0414062 C22.6367188,23.9453125 22.6367188,23.8976562 22.5890625,23.85 L22.5875,23.85 Z M10.8539063,5.4109375 C10.8539063,5.4109375 10.8539063,5.4109375 10.8539063,5.4109375 C10.8539063,4.6921875 11.0929688,4.11796875 11.5726563,3.6390625 C12.0523438,3.16015625 12.6265625,2.9203125 13.296875,2.9203125 C13.296875,2.9203125 13.296875,2.9203125 13.296875,2.9203125 C14.015625,2.9203125 14.5898438,3.159375 15.06875,3.6390625 C15.5476563,4.11875 15.7875,4.69296875 15.7875,5.4109375 C15.7875,5.4109375 15.7875,5.4109375 15.7875,5.4109375 C15.7875,6.08125 15.5484375,6.65625 15.06875,7.13515625 C14.5890625,7.6140625 14.0148438,7.85390625 13.296875,7.85390625 C13.296875,7.85390625 13.296875,7.85390625 13.296875,7.85390625 C12.6265625,7.85390625 12.0515625,7.61484375 11.5726563,7.13515625 C11.09375,6.65546875 10.8539063,6.08125 10.8539063,5.4109375 Z M18.325,17.1445312 C18.325,17.1445312 18.325,17.1445312 18.325,17.1445312 C16.8882813,18.15 15.2117188,18.6289062 13.2960938,18.6289062 C11.3804687,18.6289062 9.65625,18.1023438 8.07578125,17.0484375 C8.07578125,17.0484375 8.07578125,17.0484375 8.07578125,17.0484375 C8.07578125,17.0484375 11.9070312,8.5234375 11.9070312,8.5234375 C12.3382812,8.71484375 12.76875,8.8109375 13.2960937,8.8109375 C13.2960937,8.8109375 13.2960937,8.8109375 13.2960937,8.8109375 C13.8226562,8.8109375 14.3015625,8.71484375 14.7328125,8.5234375 C14.7328125,8.5234375 14.7328125,8.5234375 14.7328125,8.5234375 C14.7328125,8.5234375 18.5164062,17.0960938 18.5164062,17.0960938 C18.4203125,17.0960938 18.3726562,17.0960938 18.325,17.14375 L18.325,17.1445312 Z"/>
  <title>Sextant</title>
</svg>