<svg xmlns="http://www.w3.org/2000/svg" viewBox="0 0 25 25" id="share-point-up-solid">
  <path d="M9.58287135,1.29173382 C10.1094338,0.669077566 10.7805276,0.237827566 11.5945901,0.0940775656 C12.3609963,-0.0973286844 13.1274026,-0.00201618439 13.8453713,0.429233816 C14.5641213,0.812046316 15.0906838,1.38704632 15.4258401,2.10579632 C15.7609963,2.87220257 15.8086526,3.63860882 15.5695901,4.40501507 C15.3305276,5.17142132 14.8508401,5.79407757 14.2289651,6.27298382 C14.2289651,6.27298382 20.0242776,17.8628276 20.0242776,17.8628276 C20.2633401,17.7667338 20.6469338,17.6714213 21.0781838,17.6714213 C21.9883401,17.6714213 22.7547463,17.9589213 23.3289651,18.4854838 C23.9516213,19.0604838 24.3344338,19.7307963 24.4781838,20.5448588 C24.6219338,21.4065776 24.4781838,22.1729838 23.9992776,22.8917338 C23.5203713,23.6104838 22.8977151,24.0893901 22.1313088,24.3284526 C21.3172463,24.5675151 20.5508401,24.5198588 19.7367776,24.1847026 C18.9703713,23.8495463 18.3961526,23.3229838 18.0125588,22.6042338 C17.6774026,21.8378276 17.5813088,21.0237651 17.7734963,20.2097026 C18.0125588,19.4432963 18.4438088,18.7729838 19.1141213,18.2940776 C19.1141213,18.2940776 13.3188088,6.70423382 13.3188088,6.70423382 C12.6484963,6.99173382 11.9297463,6.99173382 11.2117776,6.70423382 C11.2117776,6.70423382 5.4649026,18.2940776 5.4649026,18.2940776 C6.1352151,18.7729838 6.5664651,19.4432963 6.75787135,20.2097026 C6.99693385,21.0237651 6.90162135,21.8378276 6.5664651,22.6042338 C6.1836526,23.3706401 5.56099635,23.9448588 4.7945901,24.2323588 C4.02818385,24.5675151 3.21412135,24.6151713 2.4477151,24.3761088 C1.63755885,24.1229838 1.01099635,23.7057963 0.532090099,22.9393901 C0.0531838493,22.1729838 -0.0905661507,21.3589213 0.0531838493,20.5448588 C0.188340099,19.7768901 0.579746349,19.0604838 1.2508401,18.4378276 C1.8258401,17.8628276 2.5914651,17.6237651 3.50162135,17.6714213 C3.93287135,17.6714213 4.2680276,17.7675151 4.5555276,17.8628276 C4.5555276,17.8628276 10.3024026,6.27298382 10.3024026,6.27298382 C9.3445901,5.60267132 8.8180276,4.64485882 8.8180276,3.49485882 C8.8180276,2.63314007 9.1055276,1.91439007 9.58443385,1.29173382 L9.58287135,1.29173382 Z"/>
  <title>Share Point Up Solid</title>
</svg>