<svg xmlns="http://www.w3.org/2000/svg" viewBox="0 0 25 25" id="share">
  <path d="M21.0791264,8.86050836 C21.0791264,8.86050836 21.0791264,8.86050836 21.0791264,8.86050836 C19.8814702,8.86050836 18.9720952,9.33941461 18.3010014,10.3448834 C18.3010014,10.3448834 18.3010014,10.3448834 18.3010014,10.3448834 C18.3010014,10.3448834 6.66272018,4.54957086 6.66272018,4.54957086 C6.80647018,4.26207086 6.85412643,3.92691461 6.85412643,3.49566461 C6.85412643,3.49566461 6.85412643,3.49566461 6.85412643,3.49566461 C6.90178268,2.63394586 6.61506393,1.86753961 6.08772018,1.24488336 C5.51272018,0.62222711 4.79475143,0.19097711 3.98068893,0.0472271097 C3.98068893,0.0472271097 3.98068893,0.0472271097 3.98068893,0.0472271097 C3.11897018,-0.0965228903 2.30412643,0.0948833597 1.58615768,0.52613336 C0.867407679,1.00503961 0.388501429,1.62769586 0.149438929,2.44175836 C0.149438929,2.44175836 0.149438929,2.44175836 0.149438929,2.44175836 C-0.0896235712,3.25582086 -0.0419673212,4.02222711 0.293188929,4.78863336 C0.628345179,5.60269586 1.15490768,6.17769586 1.92131393,6.56050836 C2.68772018,6.94332086 3.50178268,7.03941461 4.31584518,6.79957086 C5.12990768,6.60816461 5.75256393,6.17691461 6.23147018,5.45894586 C6.23147018,5.45894586 6.23147018,5.45894586 6.23147018,5.45894586 C6.23147018,5.45894586 17.8697514,11.2542584 17.8697514,11.2542584 C17.5822514,11.9730084 17.5822514,12.6433209 17.8697514,13.3612896 C17.8697514,13.3612896 17.8697514,13.3612896 17.8697514,13.3612896 C17.8697514,13.3612896 6.23147018,19.1566021 6.23147018,19.1566021 C5.75256393,18.4862896 5.12990768,18.0550396 4.31584518,17.8159771 C3.50178268,17.6245709 2.68772018,17.7198834 1.92131393,18.0550396 C1.92131393,18.0550396 1.92131393,18.0550396 1.92131393,18.0550396 C1.20256393,18.4378521 0.676001429,19.0128521 0.340845179,19.7792584 C0.00568892875,20.5933209 -0.0419673212,21.3597271 0.197095179,22.1737896 C0.197095179,22.1737896 0.197095179,22.1737896 0.197095179,22.1737896 C0.436157679,22.9878521 0.915845179,23.6105084 1.63381393,24.0417584 C2.35256393,24.5206646 3.16662643,24.6644146 3.98068893,24.5206646 C3.98068893,24.5206646 3.98068893,24.5206646 3.98068893,24.5206646 C4.79475143,24.3769146 5.51350143,23.9941021 6.04006393,23.3714459 C6.56662643,22.7487896 6.85412643,21.9823834 6.85412643,21.1206646 C6.85412643,21.1206646 6.85412643,21.1206646 6.85412643,21.1206646 C6.85412643,20.6894146 6.80647018,20.3542584 6.66272018,20.0667584 C6.66272018,20.0667584 6.66272018,20.0667584 6.66272018,20.0667584 C6.66272018,20.0667584 18.3010014,14.2714459 18.3010014,14.2714459 C18.7322514,14.9417584 19.3549077,15.3730084 20.1689702,15.6120709 C20.9353764,15.8511334 21.7017827,15.8034771 22.4681889,15.4683209 C22.4681889,15.4683209 22.4681889,15.4683209 22.4681889,15.4683209 C23.1869389,15.1331646 23.7611577,14.6066021 24.1447514,13.8878521 C24.5283452,13.1691021 24.6236577,12.4511334 24.4799077,11.6370709 C24.3361577,10.8230084 23.9049077,10.1526959 23.2822514,9.62535211 C22.6595952,9.09800836 21.8931889,8.85894586 21.0791264,8.85894586 L21.0791264,8.86050836 Z M3.45490768,5.93941461 C3.45490768,5.93941461 3.45490768,5.93941461 3.45490768,5.93941461 C2.73615768,5.93941461 2.16193893,5.70035211 1.68303268,5.22066461 C1.20412643,4.74097711 0.964282679,4.16675836 0.964282679,3.49644586 C0.964282679,3.49644586 0.964282679,3.49644586 0.964282679,3.49644586 C0.964282679,2.77769586 1.20412643,2.20347711 1.68303268,1.72457086 C2.16193893,1.24566461 2.73693893,1.00582086 3.45490768,1.00582086 C3.45490768,1.00582086 3.45490768,1.00582086 3.45490768,1.00582086 C4.12522018,1.00582086 4.70022018,1.24488336 5.17912643,1.72457086 C5.65803268,2.20425836 5.89787643,2.77847711 5.89787643,3.49644586 C5.89787643,3.49644586 5.89787643,3.49644586 5.89787643,3.49644586 C5.89787643,4.16675836 5.65881393,4.74175836 5.17912643,5.22066461 C4.69943893,5.69957086 4.12522018,5.93941461 3.45490768,5.93941461 Z M3.45490768,23.6112896 C3.45490768,23.6112896 3.45490768,23.6112896 3.45490768,23.6112896 C2.73615768,23.6112896 2.16193893,23.3722271 1.68303268,22.8925396 C1.20412643,22.4128521 0.964282679,21.8386334 0.964282679,21.1206646 C0.964282679,21.1206646 0.964282679,21.1206646 0.964282679,21.1206646 C0.964282679,20.4503521 1.20412643,19.8753521 1.68303268,19.3964459 C2.16193893,18.9175396 2.73693893,18.6776959 3.45490768,18.6776959 C3.45490768,18.6776959 3.45490768,18.6776959 3.45490768,18.6776959 C4.12522018,18.6776959 4.70022018,18.9167584 5.17912643,19.3964459 C5.65803268,19.8761334 5.89787643,20.4503521 5.89787643,21.1206646 C5.89787643,21.1206646 5.89787643,21.1206646 5.89787643,21.1206646 C5.89787643,21.8394146 5.65881393,22.4136334 5.17912643,22.8448834 C4.70022018,23.3237896 4.12522018,23.5636334 3.45490768,23.6112896 Z M21.0791264,14.7511334 C21.0791264,14.7511334 21.0791264,14.7511334 21.0791264,14.7511334 C20.4088139,14.7511334 19.8338139,14.5120709 19.3549077,14.0323834 C18.8760014,13.5526959 18.6361577,12.9784771 18.6361577,12.3081646 C18.6361577,11.6378521 18.8752202,11.0628521 19.3549077,10.5839459 C19.8345952,10.1050396 20.4088139,9.86519586 21.0791264,9.86519586 C21.0791264,9.86519586 21.0791264,9.86519586 21.0791264,9.86519586 C21.7978764,9.86519586 22.3720952,10.1042584 22.8510014,10.5839459 C23.3299077,11.0636334 23.5697514,11.6378521 23.5697514,12.3081646 C23.5697514,12.3081646 23.5697514,12.3081646 23.5697514,12.3081646 C23.5220952,12.9784771 23.2822514,13.5534771 22.8510014,14.0323834 C22.3720952,14.5112896 21.7970952,14.7511334 21.0791264,14.7511334 Z"/>
  <title>Share</title>
</svg>