<svg xmlns="http://www.w3.org/2000/svg" viewBox="0 0 25 25" id="share-solid">
  <path d="M23.2822514,9.62535211 C23.2822514,9.62535211 23.2822514,9.62535211 23.2822514,9.62535211 C23.9049077,10.1519146 24.3361577,10.8230084 24.4799077,11.6370709 C24.4799077,11.6370709 24.4799077,11.6370709 24.4799077,11.6370709 C24.6713139,12.4034771 24.5760014,13.1698834 24.1447514,13.8878521 C24.1447514,13.8878521 24.1447514,13.8878521 24.1447514,13.8878521 C23.7619389,14.6066021 23.1869389,15.1331646 22.4681889,15.4683209 C22.4681889,15.4683209 22.4681889,15.4683209 22.4681889,15.4683209 C21.7017827,15.8034771 20.9353764,15.8511334 20.1689702,15.6120709 C20.1689702,15.6120709 20.1689702,15.6120709 20.1689702,15.6120709 C19.4025639,15.3730084 18.7799077,14.8933209 18.3010014,14.2714459 C18.3010014,14.2714459 18.3010014,14.2714459 18.3010014,14.2714459 C18.3010014,14.2714459 6.66272018,20.0667584 6.66272018,20.0667584 C6.80647018,20.3058209 6.85412643,20.6894146 6.85412643,21.1206646 C6.85412643,21.1206646 6.85412643,21.1206646 6.85412643,21.1206646 C6.85412643,22.0308209 6.56662643,22.7972271 6.04006393,23.3714459 C6.04006393,23.3714459 6.04006393,23.3714459 6.04006393,23.3714459 C5.51350143,23.9941021 4.79475143,24.3769146 3.98068893,24.5206646 C3.98068893,24.5206646 3.98068893,24.5206646 3.98068893,24.5206646 C3.16662643,24.6644146 2.35256393,24.5206646 1.63381393,24.0417584 C1.63381393,24.0417584 1.63381393,24.0417584 1.63381393,24.0417584 C0.915063929,23.6105084 0.436157679,22.9878521 0.197095179,22.1737896 C0.197095179,22.1737896 0.197095179,22.1737896 0.197095179,22.1737896 C-0.0419673212,21.3597271 0.00568892875,20.5933209 0.340845179,19.7792584 C0.340845179,19.7792584 0.340845179,19.7792584 0.340845179,19.7792584 C0.676001429,19.0128521 1.20256393,18.4386334 1.92131393,18.0550396 C1.92131393,18.0550396 1.92131393,18.0550396 1.92131393,18.0550396 C2.73537643,17.7198834 3.50178268,17.6237896 4.31584518,17.8159771 C4.31584518,17.8159771 4.31584518,17.8159771 4.31584518,17.8159771 C5.12990768,18.0550396 5.75256393,18.4862896 6.23147018,19.1566021 C6.23147018,19.1566021 6.23147018,19.1566021 6.23147018,19.1566021 C6.23147018,19.1566021 17.8697514,13.3612896 17.8697514,13.3612896 C17.5822514,12.6425396 17.5822514,11.9722271 17.8697514,11.2542584 C17.8697514,11.2542584 17.8697514,11.2542584 17.8697514,11.2542584 C17.8697514,11.2542584 6.23147018,5.45894586 6.23147018,5.45894586 C5.75256393,6.17769586 5.12990768,6.60816461 4.31584518,6.79957086 C4.31584518,6.79957086 4.31584518,6.79957086 4.31584518,6.79957086 C3.50178268,7.03863336 2.73537643,6.94332086 1.92131393,6.56050836 C1.92131393,6.56050836 1.92131393,6.56050836 1.92131393,6.56050836 C1.15490768,6.17769586 0.628345179,5.60269586 0.293188929,4.78863336 C0.293188929,4.78863336 0.293188929,4.78863336 0.293188929,4.78863336 C-0.0419673212,4.02222711 -0.0896235712,3.25582086 0.149438929,2.44175836 C0.388501429,1.62769586 0.868188929,1.00503961 1.58615768,0.52613336 C1.58615768,0.52613336 1.58615768,0.52613336 1.58615768,0.52613336 C2.40022018,0.0948833597 3.16662643,-0.0965228903 3.98068893,0.0472271097 C4.79475143,0.19097711 5.46506393,0.57378961 6.08772018,1.24488336 C6.08772018,1.24488336 6.08772018,1.24488336 6.08772018,1.24488336 C6.66272018,1.86753961 6.90178268,2.58550836 6.85412643,3.49566461 C6.85412643,3.49566461 6.85412643,3.49566461 6.85412643,3.49566461 C6.85412643,3.92691461 6.80647018,4.30972711 6.66272018,4.54957086 C6.66272018,4.54957086 6.66272018,4.54957086 6.66272018,4.54957086 C6.66272018,4.54957086 18.3010014,10.3448834 18.3010014,10.3448834 C18.9713139,9.33941461 19.8814702,8.86050836 21.0791264,8.86050836 C21.0791264,8.86050836 21.0791264,8.86050836 21.0791264,8.86050836 C21.9408452,8.86050836 22.6595952,9.09957086 23.2822514,9.62691461 C23.2822514,9.62691461 23.2822514,9.62691461 23.2822514,9.62691461 L23.2822514,9.62535211 Z"/>
  <title>Share Solid</title>
</svg>