<svg xmlns="http://www.w3.org/2000/svg" viewBox="0 0 25 25" id="share-point-up">
  <path d="M8.84780312,3.45605328 C8.84780312,3.45605328 9.08686562,1.87870953 9.61264687,1.25761578 C10.1626469,0.608397034 10.8071781,0.206053284 11.6196781,0.0630845343 C12.4321781,-0.0798842157 13.1485844,0.0154282843 13.8657719,0.397459534 C14.5829594,0.779490784 15.1079594,1.30527203 15.4431156,2.07011578 C15.7774906,2.83495953 15.8251469,3.59980328 15.5868656,4.36386578 C15.3485844,5.12792828 14.9181156,5.74980328 14.2485844,6.22792828 C14.2485844,6.22792828 20.0313969,17.8412095 20.0313969,17.8412095 C20.3181156,17.6982408 20.6524906,17.6498033 21.0829594,17.6498033 C21.9431156,17.6498033 22.7079594,17.8888658 23.3290531,18.4623033 C23.9267094,19.014647 24.3329594,19.6568345 24.4759281,20.5169908 C24.6188969,21.3294908 24.4759281,22.0943345 23.9978031,22.858397 C23.5548344,23.5669908 22.9462406,24.0529283 22.1337406,24.2919908 C21.3212406,24.5310533 20.5563969,24.483397 19.7438969,24.149022 C18.9720219,23.8310533 18.4056156,23.2888658 18.0235844,22.5716783 C17.6892094,21.8068345 17.5931156,20.9943345 17.7845219,20.1818345 C17.9782719,19.3576158 18.4532719,18.7482408 19.1228031,18.2701158 C19.1228031,18.2701158 13.3399906,6.65683453 13.3399906,6.65683453 C12.6228031,6.94355328 11.9540531,6.94355328 11.2368656,6.65683453 C11.2368656,6.65683453 5.45405312,18.2701158 5.45405312,18.2701158 C6.17124062,18.7482408 6.60092812,19.3693345 6.79233437,20.1818345 C6.98608437,21.0060533 6.93608437,21.8068345 6.55327187,22.5716783 C6.17045937,23.336522 5.59780312,23.8623033 4.78530312,24.1966783 C4.01342812,24.514647 3.25561562,24.5787095 2.44389687,24.3404283 C1.63217812,24.102147 1.01030312,23.6232408 0.532178121,22.9068345 C0.0454593709,22.177147 -0.0889156291,21.377147 0.0540531209,20.5169908 C0.197021871,19.6568345 0.627490621,18.9873033 1.24858437,18.4138658 C1.86967812,17.8404283 2.63452187,17.6013658 3.49467812,17.649022 C3.92514687,17.649022 4.25952187,17.6966783 4.54624062,17.8404283 C4.54624062,17.8404283 10.3290531,6.22714703 10.3290531,6.22714703 C9.32514687,5.55839703 8.84780312,4.60214703 8.84780312,3.45527203 L8.84780312,3.45605328 Z M5.93217812,21.042772 C5.93217812,21.042772 5.69311562,19.8005845 5.21499062,19.3224595 C4.73686562,18.8443345 4.16342812,18.605272 3.49467812,18.605272 C2.77749062,18.605272 2.20405312,18.8443345 1.72670937,19.3224595 C1.24936562,19.8005845 1.00952187,20.374022 1.00952187,21.042772 C1.00952187,21.711522 1.24858437,22.333397 1.72670937,22.8107408 C2.20483437,23.2888658 2.77827187,23.5279283 3.49467812,23.5279283 C4.16342812,23.5279283 4.73686562,23.2888658 5.21499062,22.8107408 C5.69311562,22.3326158 5.93217812,21.711522 5.93217812,21.042772 L5.93217812,21.042772 Z M23.5673344,21.042772 C23.5673344,21.042772 23.2806156,19.8005845 22.8024906,19.3224595 C22.3478031,18.867772 21.7985844,18.605272 21.0821781,18.605272 C20.4134281,18.605272 19.8399906,18.8443345 19.3618656,19.3224595 C18.8837406,19.8005845 18.6446781,20.374022 18.6446781,21.042772 C18.6446781,21.711522 18.8837406,22.333397 19.3618656,22.8107408 C19.8399906,23.2880845 20.4134281,23.5279283 21.0821781,23.5279283 C21.7993656,23.5279283 22.3728031,23.2888658 22.8501469,22.8107408 C23.3274906,22.3326158 23.5673344,21.711522 23.5673344,21.042772 L23.5673344,21.042772 Z M14.7259281,3.45605328 C14.7259281,2.73886578 14.4868656,2.16542828 14.0087406,1.68808453 C13.5306156,1.21074078 12.9571781,0.970897034 12.2884281,0.970897034 C11.6196781,0.970897034 11.0454594,1.20995953 10.5681156,1.68808453 C10.0899906,2.16620953 9.85092812,2.73964703 9.85092812,3.45605328 C9.85092812,4.12480328 10.0899906,4.69902203 10.5681156,5.17636578 C11.0462406,5.65370953 11.6196781,5.89355328 12.2884281,5.89355328 C12.9571781,5.89355328 13.5306156,5.65449078 14.0087406,5.17636578 C14.4868656,4.69824078 14.7259281,4.12480328 14.7259281,3.45605328 Z"/>
  <title>Share Point Up</title>
</svg>