<svg xmlns="http://www.w3.org/2000/svg" viewBox="0 0 25 25" id="shield">
  <path d="M22.59375,1 C22.59375,1 2,1 2,1 C2,1 2,11.7757813 2,11.7757813 C2,14.1703125 3.1015625,16.7085937 5.35234375,19.4382813 C7.603125,22.1679688 9.90234375,23.5570313 12.296875,23.5570313 C14.6914063,23.5570313 16.990625,22.1679688 19.2414063,19.4382813 C21.4921875,16.7085937 22.59375,14.1703125 22.59375,11.7757813 C22.59375,11.7757813 22.59375,11.7757813 22.59375,11.7757813 C22.59375,11.7757813 22.59375,1 22.59375,1 Z M21.6359375,1.9578125 C21.6359375,1.9578125 21.6359375,11.7757812 21.6359375,11.7757812 C21.6359375,13.93125 20.5820312,16.2773438 18.5226562,18.815625 C16.415625,21.3539062 14.35625,22.5992187 12.296875,22.5992187 C10.2375,22.5992187 8.178125,21.3539062 6.11875,18.815625 C4.01171875,16.2773438 2.9578125,13.9304687 2.9578125,11.7757812 C2.9578125,11.7757812 2.9578125,11.7757812 2.9578125,11.7757812 C2.9578125,11.7757812 2.9578125,1.9578125 2.9578125,1.9578125 C2.9578125,1.9578125 21.6359375,1.9578125 21.6359375,1.9578125 Z M4.92109375,12.2546875 C4.92109375,12.2546875 4.92109375,12.2546875 4.92109375,12.2546875 C4.92109375,12.2546875 4.92109375,4.4484375 4.92109375,4.4484375 C4.92109375,4.11328125 5.1125,3.921875 5.44765625,3.921875 C5.44765625,3.921875 5.44765625,3.921875 5.44765625,3.921875 C5.44765625,3.921875 10.3328125,3.921875 10.3328125,3.921875 C10.6679687,3.921875 10.8117187,4.11328125 10.8117187,4.4484375 C10.8117187,4.4484375 10.8117187,4.4484375 10.8117187,4.4484375 C10.8117187,4.78359375 10.6679687,4.92734375 10.3328125,4.92734375 C10.3328125,4.92734375 10.3328125,4.92734375 10.3328125,4.92734375 C10.3328125,4.92734375 5.9265625,4.92734375 5.9265625,4.92734375 C5.9265625,4.92734375 5.9265625,12.2546875 5.9265625,12.2546875 C5.9265625,13.7390625 6.6453125,15.3679688 8.08203125,17.04375 C9.47109375,18.7679688 10.9078125,19.6296875 12.296875,19.6296875 C12.296875,19.6296875 12.296875,19.6296875 12.296875,19.6296875 C12.6320312,19.6296875 12.7757812,19.7734375 12.7757812,20.1085938 C12.7757812,20.1085938 12.7757812,20.1085938 12.7757812,20.1085938 C12.7757812,20.44375 12.6320312,20.6351563 12.296875,20.6351563 C12.296875,20.6351563 12.296875,20.6351563 12.296875,20.6351563 C10.6203125,20.6351563 8.94453125,19.6773438 7.3640625,17.7617188 C5.7359375,15.8460937 4.921875,14.0257812 4.921875,12.2539062 L4.92109375,12.2546875 Z"/>
  <title>Shield</title>
</svg>