<svg xmlns="http://www.w3.org/2000/svg" viewBox="0 0 25 25" id="shield-solid">
  <path d="M22.59375,1 C22.59375,1 2,1 2,1 C2,1 2,11.7757813 2,11.7757813 C2,14.1703125 3.1015625,16.7085937 5.35234375,19.4382813 C7.603125,22.1679688 9.90234375,23.5570313 12.296875,23.5570313 C14.6914063,23.5570313 16.990625,22.1679688 19.2414063,19.4382813 C21.4921875,16.7085937 22.59375,14.1703125 22.59375,11.7757813 C22.59375,11.7757813 22.59375,11.7757813 22.59375,11.7757813 C22.59375,11.7757813 22.59375,1 22.59375,1 Z M12.296875,20.6359375 C12.296875,20.6359375 12.296875,20.6359375 12.296875,20.6359375 C10.6203125,20.6359375 8.94453125,19.678125 7.3640625,17.7625 C5.7359375,15.846875 4.921875,14.0265625 4.921875,12.2546875 C4.921875,12.2546875 4.921875,12.2546875 4.921875,12.2546875 C4.921875,12.2546875 4.921875,4.4484375 4.921875,4.4484375 C4.921875,4.11328125 5.11328125,3.921875 5.4484375,3.921875 C5.4484375,3.921875 5.4484375,3.921875 5.4484375,3.921875 C5.4484375,3.921875 10.3335938,3.921875 10.3335938,3.921875 C10.66875,3.921875 10.8125,4.11328125 10.8125,4.4484375 C10.8125,4.4484375 10.8125,4.4484375 10.8125,4.4484375 C10.8125,4.78359375 10.66875,4.92734375 10.3335938,4.92734375 C10.3335938,4.92734375 10.3335938,4.92734375 10.3335938,4.92734375 C10.3335938,4.92734375 5.92734375,4.92734375 5.92734375,4.92734375 C5.92734375,4.92734375 5.92734375,12.2546875 5.92734375,12.2546875 C5.92734375,13.7390625 6.64609375,15.3679687 8.0828125,17.04375 C9.471875,18.7679687 10.9085938,19.6296875 12.2976563,19.6296875 C12.2976563,19.6296875 12.2976563,19.6296875 12.2976563,19.6296875 C12.6328125,19.6296875 12.7765625,19.7734375 12.7765625,20.1085937 C12.7765625,20.1085937 12.7765625,20.1085937 12.7765625,20.1085937 C12.7765625,20.44375 12.6328125,20.6351562 12.2976563,20.6351562 L12.296875,20.6359375 Z"/>
  <title>Shield Solid</title>
</svg>