<svg xmlns="http://www.w3.org/2000/svg" viewBox="0 0 25 25" id="shoe-solid">
  <path d="M24.4734375,14.8117187 C24.4734375,14.8117187 10.3929688,14.8117187 10.3929688,14.8117187 C10.3929688,14.8117187 6.94453125,8.7296875 6.94453125,8.7296875 C7.5671875,8.10703125 7.8546875,7.3890625 7.8546875,6.47890625 C7.8546875,6.47890625 7.8546875,6.47890625 7.8546875,6.47890625 C7.8546875,6.14375 7.9984375,6 8.33359375,6 C8.33359375,6 8.33359375,6 8.33359375,6 C8.47734375,6 8.525,6 8.57265625,6.04765625 C8.57265625,6.04765625 8.57265625,6.04765625 8.57265625,6.04765625 C8.57265625,6.04765625 12.1164063,8.0109375 12.1164063,8.0109375 C12.1164063,8.0109375 11.1109375,9.54375 11.1109375,9.54375 C11.0632813,9.59140625 11.0148438,9.6875 11.0148438,9.7828125 C11.0148438,9.7828125 11.0148438,9.7828125 11.0148438,9.7828125 C11.0148438,10.1179687 11.20625,10.2617187 11.5414063,10.2617187 C11.5414063,10.2617187 11.5414063,10.2617187 11.5414063,10.2617187 C11.6851563,10.2617187 11.7804688,10.2140625 11.8289063,10.1179687 C11.8289063,10.1179687 11.8289063,10.1179687 11.8289063,10.1179687 C11.8289063,10.1179687 13.3132812,7.91484375 13.3132812,7.91484375 C13.409375,7.77109375 13.5523438,7.7234375 13.7445313,7.7234375 C13.7445313,7.7234375 13.7445313,7.7234375 13.7445313,7.7234375 C14.0796875,7.7234375 14.2234375,7.8671875 14.2234375,8.20234375 C14.2234375,8.20234375 14.2234375,8.20234375 14.2234375,8.20234375 C14.2234375,8.25 14.1757812,8.34609375 14.1273437,8.48984375 C14.1273437,8.48984375 14.1273437,8.48984375 14.1273437,8.48984375 C14.1273437,8.48984375 13.8398438,8.92109375 13.8398438,8.92109375 C13.8398438,8.92109375 14.75,9.44765625 14.75,9.44765625 C14.75,9.44765625 14.0796875,10.5015625 14.0796875,10.5015625 C14.0320312,10.5492187 13.9835937,10.6453125 13.9835937,10.7890625 C13.9835937,10.7890625 13.9835937,10.7890625 13.9835937,10.7890625 C13.9835937,11.1242187 14.1273437,11.2679687 14.4625,11.2679687 C14.4625,11.2679687 14.4625,11.2679687 14.4625,11.2679687 C14.60625,11.2679687 14.7015625,11.2203125 14.7976562,11.1242187 C14.7976562,11.1242187 14.7976562,11.1242187 14.7976562,11.1242187 C14.7976562,11.1242187 16.2820312,8.92109375 16.2820312,8.92109375 C16.3296875,8.77734375 16.4734375,8.68203125 16.6648437,8.68203125 C16.6648437,8.68203125 16.6648437,8.68203125 16.6648437,8.68203125 C17,8.68203125 17.14375,8.82578125 17.14375,9.1609375 C17.14375,9.1609375 17.14375,9.1609375 17.14375,9.1609375 C17.14375,9.3046875 17.14375,9.4 17.0960937,9.4484375 C17.0960937,9.4484375 17.0960937,9.4484375 17.0960937,9.4484375 C17.0960937,9.4484375 16.4734375,10.3585937 16.4734375,10.3585937 C16.4734375,10.3585937 19.2515625,11.8914062 19.2515625,11.8914062 C19.2515625,11.8914062 21.0710937,11.8914062 21.0710937,11.8914062 C21.9328125,11.8914062 22.6992187,12.1789062 23.321875,12.7054687 C23.9445313,13.2804688 24.3273437,13.9984375 24.4710937,14.8125 C24.4710937,14.8125 24.4710937,14.8125 24.4710937,14.8125 L24.4734375,14.8117187 Z M7.4234375,14.8117187 C7.4234375,14.8117187 9.24296875,14.8117187 9.24296875,14.8117187 C9.24296875,14.8117187 6.178125,9.4 6.178125,9.4 C5.69921875,9.73515625 5.2203125,9.87890625 4.69375,9.87890625 C4.69375,9.87890625 4.69375,9.87890625 4.69375,9.87890625 C4.69375,9.87890625 7.4234375,14.8117187 7.4234375,14.8117187 Z M6.321875,14.8117187 C6.321875,14.8117187 3.4484375,9.6875 3.4484375,9.6875 C2.39453125,9.1125 1.58046875,8.2984375 0.9578125,7.2453125 C0.9578125,7.2453125 0.9578125,7.2453125 0.9578125,7.2453125 C0.8140625,7.05390625 0.62265625,6.9578125 0.47890625,6.9578125 C0.47890625,6.9578125 0.47890625,6.9578125 0.47890625,6.9578125 C0.14375,6.9578125 0,7.14921875 0,7.484375 C0,7.484375 0,7.484375 0,7.484375 C0,7.484375 0,14.8117187 0,14.8117187 C0,14.8117187 6.321875,14.8117187 6.321875,14.8117187 Z M0,15.8171875 C0,15.8171875 0,16.2960937 0,16.2960937 C0,16.9664062 0.2390625,17.5414063 0.71875,18.0203125 C1.1984375,18.4992188 1.77265625,18.7390625 2.44296875,18.7390625 C2.44296875,18.7390625 2.44296875,18.7390625 2.44296875,18.7390625 C2.44296875,18.7390625 21.0734375,18.7390625 21.0734375,18.7390625 C21.9351563,18.7390625 22.7015625,18.4515625 23.3242188,17.8773438 C23.946875,17.3507813 24.3296875,16.6320312 24.4734375,15.8179688 C24.4734375,15.8179688 24.4734375,15.8179688 24.4734375,15.8179688 C24.4734375,15.8179688 0,15.8179688 0,15.8179688 L0,15.8171875 Z"/>
  <title>Shoe Solid</title>
</svg>