<svg xmlns="http://www.w3.org/2000/svg" viewBox="0 0 25 25" id="shoe">
  <path d="M21.0710937,11.8921875 C21.0710937,11.8921875 21.0710937,11.8921875 21.0710937,11.8921875 C21.0710937,11.8921875 19.2515625,11.8921875 19.2515625,11.8921875 C19.2515625,11.8921875 16.4734375,10.359375 16.4734375,10.359375 C16.4734375,10.359375 17.0960937,9.44921875 17.0960937,9.44921875 C17.14375,9.4015625 17.14375,9.30546875 17.14375,9.16171875 C17.14375,9.16171875 17.14375,9.16171875 17.14375,9.16171875 C17.14375,8.8265625 17,8.6828125 16.6648437,8.6828125 C16.6648437,8.6828125 16.6648437,8.6828125 16.6648437,8.6828125 C16.4734375,8.6828125 16.3296875,8.77890625 16.2820312,8.921875 C16.2820312,8.921875 16.2820312,8.921875 16.2820312,8.921875 C16.2820312,8.921875 15.6117187,9.8796875 15.6117187,9.8796875 C15.6117187,9.8796875 13.8398437,8.921875 13.8398437,8.921875 C13.8398437,8.921875 14.1273437,8.490625 14.1273437,8.490625 C14.175,8.346875 14.2234375,8.2515625 14.2234375,8.203125 C14.2234375,8.203125 14.2234375,8.203125 14.2234375,8.203125 C14.2234375,7.86796875 14.0796875,7.72421875 13.7445312,7.72421875 C13.7445312,7.72421875 13.7445312,7.72421875 13.7445312,7.72421875 C13.553125,7.72421875 13.409375,7.771875 13.3132812,7.915625 C13.3132812,7.915625 13.3132812,7.915625 13.3132812,7.915625 C13.3132812,7.915625 12.978125,8.4421875 12.978125,8.4421875 C12.978125,8.4421875 8.571875,6.04765625 8.571875,6.04765625 C8.52421875,6 8.47578125,6 8.3328125,6 C8.3328125,6 8.3328125,6 8.3328125,6 C7.99765625,6 7.85390625,6.14375 7.85390625,6.47890625 C7.85390625,6.47890625 7.85390625,6.47890625 7.85390625,6.47890625 C7.80625,7.3890625 7.47109375,8.203125 6.8484375,8.8734375 C6.22578125,9.54375 5.41171875,9.87890625 4.5015625,9.92734375 C4.5015625,9.92734375 4.5015625,9.92734375 4.5015625,9.92734375 C4.11875,9.92734375 3.73515625,9.83125 3.35234375,9.63984375 C2.96953125,9.4484375 2.63359375,9.20859375 2.346875,8.96953125 C2.059375,8.73046875 1.8203125,8.44296875 1.628125,8.203125 C1.38828125,7.9640625 1.2453125,7.72421875 1.1015625,7.5328125 C1.1015625,7.5328125 1.1015625,7.5328125 1.1015625,7.5328125 C1.1015625,7.5328125 0.91015625,7.2453125 0.91015625,7.2453125 C0.8140625,7.05390625 0.6703125,6.9578125 0.47890625,6.9578125 C0.47890625,6.9578125 0.47890625,6.9578125 0.47890625,6.9578125 C0.14375,6.9578125 0,7.14921875 0,7.484375 C0,7.484375 0,7.484375 0,7.484375 C0,7.484375 0,16.296875 0,16.296875 C0,16.9671875 0.2390625,17.5421875 0.71875,18.0210937 C1.1984375,18.5 1.77265625,18.7398437 2.44296875,18.7398437 C2.44296875,18.7398437 2.44296875,18.7398437 2.44296875,18.7398437 C2.44296875,18.7398437 21.0734375,18.7398437 21.0734375,18.7398437 C22.03125,18.7398437 22.8453125,18.4046875 23.515625,17.734375 C24.1859375,17.0640625 24.5210937,16.25 24.5210937,15.2921875 C24.5210937,15.2921875 24.5210937,15.2921875 24.5210937,15.2921875 C24.5210937,14.3820313 24.1859375,13.5679687 23.515625,12.8976562 C22.8453125,12.2273437 22.03125,11.8921875 21.0734375,11.8921875 L21.0710937,11.8921875 Z M6.703125,10.215625 C6.703125,10.215625 6.703125,10.2632813 6.703125,10.2632813 C6.703125,10.2632813 9.24140625,14.8132812 9.24140625,14.8132812 C9.24140625,14.8132812 7.32578125,14.8132812 7.32578125,14.8132812 C7.32578125,14.6695312 7.32578125,14.621875 7.278125,14.5742187 C7.278125,14.5742187 7.278125,14.5742187 7.278125,14.5742187 C7.278125,14.5742187 5.21875,10.8382812 5.21875,10.8382812 C5.69765625,10.7421875 6.1765625,10.5507812 6.703125,10.215625 C6.703125,10.215625 6.703125,10.215625 6.703125,10.215625 L6.703125,10.215625 Z M0.95625,14.8132813 C0.95625,14.8132813 0.95625,8.9703125 0.95625,8.9703125 C1.7703125,9.97578125 2.77578125,10.5984375 4.06953125,10.8382813 C4.06953125,10.8382813 4.06953125,10.8382813 4.06953125,10.8382813 C4.06953125,10.8382813 6.3203125,14.8132813 6.3203125,14.8132813 C6.3203125,14.8132813 0.95625,14.8132813 0.95625,14.8132813 L0.95625,14.8132813 Z M21.0710938,17.7828125 C21.0710938,17.7828125 21.0710938,17.7828125 21.0710938,17.7828125 C21.0710938,17.7828125 2.440625,17.7828125 2.440625,17.7828125 C2.009375,17.7828125 1.67421875,17.6390625 1.43515625,17.3515625 C1.14765625,17.0640625 1.00390625,16.7289063 0.95625,16.2976563 C0.95625,16.2976563 0.95625,16.2976563 0.95625,16.2976563 C0.95625,16.2976563 0.95625,15.81875 0.95625,15.81875 C0.95625,15.81875 23.465625,15.81875 23.465625,15.81875 C23.3695313,16.3453125 23.0828125,16.8242188 22.6515625,17.2078125 C22.2203125,17.5914062 21.69375,17.7828125 21.0710938,17.7828125 Z M23.465625,14.8132813 C23.465625,14.8132813 10.2953125,14.8132813 10.2953125,14.8132813 C10.2953125,14.765625 10.2953125,14.7171875 10.2476562,14.6695313 C10.2476562,14.6695313 10.2476562,14.6695313 10.2476562,14.6695313 C10.2476562,14.6695313 10.2476562,14.5734375 10.2476562,14.5734375 C10.2476562,14.5734375 7.46953125,9.640625 7.46953125,9.640625 C8.13984375,9.01796875 8.57109375,8.2515625 8.7625,7.29375 C8.7625,7.29375 8.7625,7.29375 8.7625,7.29375 C8.7625,7.29375 12.4023437,9.25703125 12.4023437,9.25703125 C12.4023437,9.25703125 11.8273437,10.11875 11.8273437,10.11875 C11.7796875,10.1664062 11.7796875,10.2625 11.7796875,10.40625 C11.7796875,10.40625 11.7796875,10.40625 11.7796875,10.40625 C11.7796875,10.7414062 11.9234375,10.8851562 12.2585937,10.8851562 C12.2585937,10.8851562 12.2585937,10.8851562 12.2585937,10.8851562 C12.4023437,10.8851562 12.5460937,10.8375 12.6898437,10.69375 C12.6898437,10.69375 12.6898437,10.69375 12.6898437,10.69375 C12.6898437,10.69375 13.3125,9.7359375 13.3125,9.7359375 C13.3125,9.7359375 15.084375,10.69375 15.084375,10.69375 C15.084375,10.69375 14.796875,11.125 14.796875,11.125 C14.7492187,11.1726562 14.7007812,11.26875 14.7007812,11.4125 C14.7007812,11.4125 14.7007812,11.4125 14.7007812,11.4125 C14.7007812,11.7476562 14.8445312,11.8914062 15.1796875,11.8914062 C15.1796875,11.8914062 15.1796875,11.8914062 15.1796875,11.8914062 C15.3710937,11.8914062 15.5148437,11.7953125 15.6109375,11.6523437 C15.6109375,11.6523437 15.6109375,11.6523437 15.6109375,11.6523437 C15.6109375,11.6523437 15.9460937,11.1734375 15.9460937,11.1734375 C15.9460937,11.1734375 18.8671875,12.8015625 18.8671875,12.8015625 C18.9148437,12.8492187 19.0109375,12.8492187 19.10625,12.8492187 C19.10625,12.8492187 19.10625,12.8492187 19.10625,12.8492187 C19.10625,12.8492187 21.0695312,12.8492187 21.0695312,12.8492187 C21.6921875,12.8492187 22.21875,13.040625 22.65,13.4242187 C23.08125,13.8078125 23.36875,14.2859375 23.4640625,14.8132813 C23.4640625,14.8132813 23.4640625,14.8132813 23.4640625,14.8132813 L23.465625,14.8132813 Z"/>
  <title>Shoe</title>
</svg>