<svg xmlns="http://www.w3.org/2000/svg" viewBox="0 0 25 25" id="shuffle">
  <path d="M23.55625,16.06875 C23.55625,16.06875 23.55625,16.06875 23.55625,16.06875 C23.55625,16.1164062 23.55625,16.1648437 23.6039063,16.2125 C23.6039063,16.2125 23.6039063,16.2125 23.6039063,16.2125 C23.6039063,16.2125 23.6039063,16.2601562 23.6039063,16.2601562 C23.6039063,16.2601562 23.55625,16.4515625 23.4601562,16.6429687 C23.4601562,16.6429687 23.4601562,16.6429687 23.4601562,16.6429687 C23.4601562,16.6429687 20.490625,19.5640625 20.490625,19.5640625 C20.3945312,19.6601562 20.2992187,19.7078125 20.1554688,19.7078125 C20.1554688,19.7078125 20.1554688,19.7078125 20.1554688,19.7078125 C19.8203125,19.7078125 19.6765625,19.5640625 19.6765625,19.2289063 C19.6765625,19.2289063 19.6765625,19.2289063 19.6765625,19.2289063 C19.6765625,19.0851562 19.7242188,18.9414062 19.8203125,18.89375 C19.8203125,18.89375 19.8203125,18.89375 19.8203125,18.89375 C19.8203125,18.89375 21.9273438,16.7867188 21.9273438,16.7867188 C21.9273438,16.7867188 15.2226562,16.7867188 15.2226562,16.7867188 C15.0789062,16.7867188 14.9835938,16.7390625 14.8398438,16.5953125 C14.8398438,16.5953125 14.8398438,16.5953125 14.8398438,16.5953125 C14.8398438,16.5953125 11.8226562,12.6679687 11.8226562,12.6679687 C11.8226562,12.6679687 8.7578125,16.5953125 8.7578125,16.5953125 C8.6140625,16.7390625 8.51875,16.7867188 8.375,16.7867188 C8.375,16.7867188 8.375,16.7867188 8.375,16.7867188 C8.375,16.7867188 1.5265625,16.7867188 1.5265625,16.7867188 C1.19140625,16.7867188 1,16.5953125 1,16.2601563 C1,16.2601563 1,16.2601563 1,16.2601563 C1,15.925 1.19140625,15.78125 1.5265625,15.78125 C1.5265625,15.78125 1.5265625,15.78125 1.5265625,15.78125 C1.5265625,15.78125 8.1359375,15.78125 8.1359375,15.78125 C8.1359375,15.78125 11.2007813,11.8539063 11.2007813,11.8539063 C11.2007813,11.8539063 8.1359375,7.9265625 8.1359375,7.9265625 C8.1359375,7.9265625 1.5265625,7.9265625 1.5265625,7.9265625 C1.19140625,7.9265625 1,7.7828125 1,7.44765625 C1,7.1125 1.19140625,6.96875 1.5265625,6.96875 C1.5265625,6.96875 1.5265625,6.96875 1.5265625,6.96875 C1.5265625,6.96875 8.375,6.96875 8.375,6.96875 C8.51875,6.96875 8.6625,7.01640625 8.7578125,7.16015625 C8.7578125,7.16015625 8.7578125,7.16015625 8.7578125,7.16015625 C8.7578125,7.16015625 11.8226562,11.0875 11.8226562,11.0875 C11.8226562,11.0875 14.8398438,7.16015625 14.8398438,7.16015625 C14.9359375,7.01640625 15.0789063,6.96875 15.2226562,6.96875 C15.2226562,6.96875 15.2226562,6.96875 15.2226562,6.96875 C15.2226562,6.96875 21.9273438,6.96875 21.9273438,6.96875 C21.9273438,6.96875 19.8203125,4.86171875 19.8203125,4.86171875 C19.7242188,4.765625 19.6765625,4.6703125 19.6765625,4.5265625 C19.6765625,4.5265625 19.6765625,4.5265625 19.6765625,4.5265625 C19.6765625,4.19140625 19.8203125,4 20.1554688,4 C20.1554688,4 20.1554688,4 20.1554688,4 C20.203125,4 20.2992188,4.04765625 20.490625,4.14375 C20.490625,4.14375 20.490625,4.14375 20.490625,4.14375 C20.490625,4.14375 23.4601563,7.11328125 23.4601563,7.11328125 C23.55625,7.3046875 23.6039063,7.40078125 23.6039063,7.4484375 C23.6039063,7.49609375 23.55625,7.5921875 23.4601563,7.78359375 C23.4601563,7.78359375 23.4601563,7.78359375 23.4601563,7.78359375 C23.4601563,7.78359375 20.490625,10.753125 20.490625,10.753125 C20.3945312,10.8492188 20.2992187,10.896875 20.1554688,10.896875 C20.1554688,10.896875 20.1554688,10.896875 20.1554688,10.896875 C19.8203125,10.896875 19.6765625,10.7054688 19.6765625,10.3703125 C19.6765625,10.3703125 19.6765625,10.3703125 19.6765625,10.3703125 C19.6765625,10.2265625 19.7242188,10.13125 19.8203125,10.0351562 C19.8203125,10.0351562 19.8203125,10.0351562 19.8203125,10.0351562 C19.8203125,10.0351562 21.9273438,7.928125 21.9273438,7.928125 C21.9273438,7.928125 15.4617188,7.928125 15.4617188,7.928125 C15.4617188,7.928125 12.4445312,11.8554688 12.4445312,11.8554688 C12.4445312,11.8554688 15.4617188,15.7828125 15.4617188,15.7828125 C15.4617188,15.7828125 21.9273438,15.7828125 21.9273438,15.7828125 C21.9273438,15.7828125 19.8203125,13.6757813 19.8203125,13.6757813 C19.7242188,13.5796875 19.6765625,13.484375 19.6765625,13.340625 C19.6765625,13.340625 19.6765625,13.340625 19.6765625,13.340625 C19.6765625,13.0054688 19.8203125,12.8617188 20.1554688,12.8617188 C20.1554688,12.8617188 20.1554688,12.8617188 20.1554688,12.8617188 C20.2992188,12.8617188 20.3945312,12.909375 20.490625,13.0054688 C20.490625,13.0054688 20.490625,13.0054688 20.490625,13.0054688 C20.490625,13.0054688 23.4601563,15.9265625 23.4601563,15.9265625 C23.4601563,15.9742188 23.5078125,16.0226563 23.55625,16.0703125 L23.55625,16.06875 Z"/>
  <title>Shuffle</title>
</svg>