<svg xmlns="http://www.w3.org/2000/svg" viewBox="0 0 25 25" id="sigma">
  <path d="M21.19375,21.1695313 C21.19375,21.1695313 21.19375,24.521875 21.19375,24.521875 C21.19375,24.521875 4.09609375,24.521875 4.09609375,24.521875 C4.09609375,24.521875 13.2914063,12.2609375 13.2914063,12.2609375 C13.2914063,12.2609375 4,0 4,0 C4,0 21.19375,0 21.19375,0 C21.19375,0 21.19375,3.35234375 21.19375,3.35234375 C21.19375,3.35234375 20.2359375,3.35234375 20.2359375,3.35234375 C20.2359375,3.35234375 20.2359375,0.9578125 20.2359375,0.9578125 C20.2359375,0.9578125 5.9640625,0.9578125 5.9640625,0.9578125 C5.9640625,0.9578125 14.4890625,12.2601563 14.4890625,12.2601563 C14.4890625,12.2601563 6.06015625,23.5625 6.06015625,23.5625 C6.06015625,23.5625 20.2367188,23.5625 20.2367188,23.5625 C20.2367188,23.5625 20.2367188,21.1679688 20.2367188,21.1679688 C20.2367188,21.1679688 21.1945313,21.1679688 21.1945313,21.1679688 L21.19375,21.1695313 Z"/>
  <title>Sigma</title>
</svg>