<svg xmlns="http://www.w3.org/2000/svg" viewBox="0 0 25 25" id="signpost">
  <path d="M13.81875,9.86015625 C13.81875,9.86015625 18.2726562,9.86015625 18.2726562,9.86015625 C18.6078125,9.86015625 18.8953125,9.71640625 19.134375,9.38125 C19.134375,9.38125 19.134375,9.38125 19.134375,9.38125 C19.134375,9.38125 20.5234375,6.890625 20.5234375,6.890625 C20.6195313,6.746875 20.6671875,6.603125 20.6671875,6.41171875 C20.6671875,6.2203125 20.6195313,6.0765625 20.5234375,5.9328125 C20.5234375,5.9328125 20.5234375,5.9328125 20.5234375,5.9328125 C20.5234375,5.9328125 19.134375,3.490625 19.134375,3.490625 C18.8953125,3.15546875 18.6078125,2.9640625 18.2726562,2.9640625 C18.2726562,2.9640625 18.2726562,2.9640625 18.2726562,2.9640625 C18.2726562,2.9640625 13.81875,2.9640625 13.81875,2.9640625 C13.81875,2.9640625 13.81875,2.48515625 13.81875,2.48515625 C13.81875,2.05390625 13.675,1.71875 13.3875,1.43125 C13.1,1.14375 12.7648437,1 12.3335937,1 C11.9023438,1 11.5671875,1.14375 11.2796875,1.43125 C10.9921875,1.71875 10.8484375,2.05390625 10.8484375,2.48515625 C10.8484375,2.48515625 10.8484375,2.48515625 10.8484375,2.48515625 C10.8484375,2.48515625 10.8484375,2.9640625 10.8484375,2.9640625 C10.8484375,2.9640625 5.96328125,2.9640625 5.96328125,2.9640625 C5.67578125,2.9640625 5.43671875,3.06015625 5.24453125,3.2515625 C5.053125,3.490625 4.95703125,3.73046875 4.95703125,3.9703125 C4.95703125,3.9703125 4.95703125,3.9703125 4.95703125,3.9703125 C4.95703125,3.9703125 4.95703125,8.85546875 4.95703125,8.85546875 C4.95703125,9.14296875 5.053125,9.38203125 5.24453125,9.57421875 C5.4359375,9.76640625 5.67578125,9.86171875 5.96328125,9.86171875 C5.96328125,9.86171875 5.96328125,9.86171875 5.96328125,9.86171875 C5.96328125,9.86171875 10.8484375,9.86171875 10.8484375,9.86171875 C10.8484375,9.86171875 10.8484375,10.8195313 10.8484375,10.8195313 C10.8484375,10.8195313 6.346875,10.8195313 6.346875,10.8195313 C5.9640625,10.8195313 5.6765625,10.9632813 5.5328125,11.2984375 C5.5328125,11.2984375 5.5328125,11.2984375 5.5328125,11.2984375 C5.5328125,11.2984375 4.09609375,13.7890625 4.09609375,13.7890625 C4.0484375,13.9804688 4,14.1242187 4,14.2679687 C4,14.2679687 4,14.2679687 4,14.2679687 C4,14.459375 4.04765625,14.603125 4.14375,14.746875 C4.14375,14.746875 4.14375,14.746875 4.14375,14.746875 C4.14375,14.746875 5.5328125,17.1890625 5.5328125,17.1890625 C5.72421875,17.5242187 6.01171875,17.715625 6.346875,17.715625 C6.346875,17.715625 6.346875,17.715625 6.346875,17.715625 C6.346875,17.715625 10.8484375,17.715625 10.8484375,17.715625 C10.8484375,17.715625 10.8484375,23.0796875 10.8484375,23.0796875 C10.8484375,23.5109375 10.9921875,23.8460938 11.2796875,24.1335937 C11.5671875,24.4210937 11.9023438,24.5648438 12.3335937,24.5648438 C12.7648437,24.5648438 13.1,24.4210938 13.3875,24.1335937 C13.675,23.8460938 13.81875,23.5109375 13.81875,23.0796875 C13.81875,23.0796875 13.81875,23.0796875 13.81875,23.0796875 C13.81875,23.0796875 13.81875,17.715625 13.81875,17.715625 C13.81875,17.715625 18.7039062,17.715625 18.7039062,17.715625 C18.9429687,17.715625 19.1828125,17.6195312 19.3742188,17.3804688 C19.565625,17.1890625 19.6617187,16.9492188 19.6617187,16.7101563 C19.6617187,16.7101563 19.6617187,16.7101563 19.6617187,16.7101563 C19.6617187,16.7101563 19.6617187,11.825 19.6617187,11.825 C19.6617187,11.5375 19.565625,11.2984375 19.3742188,11.10625 C19.1828125,10.9140625 18.9429687,10.81875 18.7039062,10.81875 C18.7039062,10.81875 18.7039062,10.81875 18.7039062,10.81875 C18.7039062,10.81875 13.81875,10.81875 13.81875,10.81875 C13.81875,10.81875 13.81875,9.8609375 13.81875,9.8609375 L13.81875,9.86015625 Z M11.8546875,2.9640625 C11.8546875,2.9640625 11.8546875,2.48515625 11.8546875,2.48515625 C11.8546875,2.15 11.9984375,2.00625 12.3335937,2.00625 C12.66875,2.00625 12.8125,2.15 12.8125,2.48515625 C12.8125,2.48515625 12.8125,2.48515625 12.8125,2.48515625 C12.8125,2.48515625 12.8125,2.9640625 12.8125,2.9640625 C12.8125,2.9640625 11.8546875,2.9640625 11.8546875,2.9640625 Z M12.8125,17.7148438 C12.8125,17.7148438 12.8125,23.0789063 12.8125,23.0789063 C12.8125,23.4140625 12.66875,23.5578125 12.3335937,23.5578125 C11.9984375,23.5578125 11.8546875,23.4140625 11.8546875,23.0789063 C11.8546875,23.0789063 11.8546875,23.0789063 11.8546875,23.0789063 C11.8546875,23.0789063 11.8546875,17.7148438 11.8546875,17.7148438 C11.8546875,17.7148438 12.8125,17.7148438 12.8125,17.7148438 Z M6.34765625,11.8242188 C6.34765625,11.8242188 18.7039062,11.8242188 18.7039062,11.8242188 C18.7039062,11.8242188 18.7039062,16.709375 18.7039062,16.709375 C18.7039062,16.709375 6.34765625,16.709375 6.34765625,16.709375 C6.34765625,16.709375 4.95859375,14.2671875 4.95859375,14.2671875 C4.95859375,14.2671875 6.34765625,11.825 6.34765625,11.825 L6.34765625,11.8242188 Z M12.8125,10.8179688 C12.8125,10.8179688 11.8546875,10.8179688 11.8546875,10.8179688 C11.8546875,10.8179688 11.8546875,9.86015625 11.8546875,9.86015625 C11.8546875,9.86015625 12.8125,9.86015625 12.8125,9.86015625 C12.8125,9.86015625 12.8125,10.8179688 12.8125,10.8179688 L12.8125,10.8179688 Z M18.2726563,8.8546875 C18.2726563,8.8546875 5.9640625,8.8546875 5.9640625,8.8546875 C5.9640625,8.8546875 5.9640625,3.96953125 5.9640625,3.96953125 C5.9640625,3.96953125 18.2726563,3.96953125 18.2726563,3.96953125 C18.2726563,3.96953125 19.6617187,6.41171875 19.6617187,6.41171875 C19.6617187,6.41171875 18.2726563,8.85390625 18.2726563,8.85390625 L18.2726563,8.8546875 Z M14.2976562,5.9328125 C14.6328125,5.9328125 14.7765625,6.0765625 14.7765625,6.41171875 C14.7765625,6.746875 14.6328125,6.890625 14.2976562,6.890625 C14.2976562,6.890625 14.2976562,6.890625 14.2976562,6.890625 C14.2976562,6.890625 10.3703125,6.890625 10.3703125,6.890625 C10.0351562,6.890625 9.89140625,6.746875 9.89140625,6.41171875 C9.89140625,6.0765625 10.0351562,5.9328125 10.3703125,5.9328125 C10.3703125,5.9328125 10.3703125,5.9328125 10.3703125,5.9328125 C10.3703125,5.9328125 14.2976562,5.9328125 14.2976562,5.9328125 Z M10.3703125,14.7453125 C10.0351562,14.7453125 9.89140625,14.6015625 9.89140625,14.2664062 C9.89140625,13.93125 10.0351562,13.7875 10.3703125,13.7875 C10.3703125,13.7875 10.3703125,13.7875 10.3703125,13.7875 C10.3703125,13.7875 14.2976562,13.7875 14.2976562,13.7875 C14.6328125,13.7875 14.7765625,13.93125 14.7765625,14.2664062 C14.7765625,14.6015625 14.6328125,14.7453125 14.2976562,14.7453125 C14.2976562,14.7453125 14.2976562,14.7453125 14.2976562,14.7453125 C14.2976562,14.7453125 10.3703125,14.7453125 10.3703125,14.7453125 Z"/>
  <title>Signpost</title>
</svg>