<svg xmlns="http://www.w3.org/2000/svg" viewBox="0 0 25 25" id="signpost-solid">
  <path d="M13.8179688,9.81171875 C13.8179688,9.81171875 18.3195313,9.81171875 18.3195313,9.81171875 C18.6546875,9.81171875 18.9421875,9.66796875 19.18125,9.3328125 C19.18125,9.3328125 19.18125,9.3328125 19.18125,9.3328125 C19.18125,9.3328125 20.5703125,6.890625 20.5703125,6.890625 C20.6664063,6.746875 20.7140625,6.603125 20.7140625,6.41171875 C20.7140625,6.2203125 20.6664063,6.02890625 20.5703125,5.88515625 C20.5703125,5.88515625 20.5703125,5.88515625 20.5703125,5.88515625 C20.5703125,5.88515625 19.18125,3.44296875 19.18125,3.44296875 C18.9421875,3.1078125 18.6546875,2.9640625 18.3195313,2.9640625 C18.3195313,2.9640625 18.3195313,2.9640625 18.3195313,2.9640625 C18.3195313,2.9640625 13.8179688,2.9640625 13.8179688,2.9640625 C13.8179688,2.9640625 13.8179688,2.48515625 13.8179688,2.48515625 C13.8179688,2.05390625 13.6742187,1.71875 13.3867188,1.43125 C13.0992188,1.14375 12.7640625,1 12.38125,1 C12.38125,1 12.38125,1 12.38125,1 C11.95,1 11.6148437,1.14375 11.3273438,1.43125 C11.0398437,1.71875 10.8960938,2.05390625 10.8960938,2.48515625 C10.8960938,2.48515625 10.8960938,2.48515625 10.8960938,2.48515625 C10.8960938,2.48515625 10.8960938,2.9640625 10.8960938,2.9640625 C10.8960938,2.9640625 5.96328125,2.9640625 5.96328125,2.9640625 C5.72421875,2.9640625 5.484375,3.06015625 5.29296875,3.2515625 C5.1015625,3.44296875 5.00546875,3.6828125 5.00546875,3.921875 C5.00546875,3.921875 5.00546875,3.921875 5.00546875,3.921875 C5.00546875,3.921875 5.00546875,8.8546875 5.00546875,8.8546875 C5.00546875,9.09375 5.1015625,9.33359375 5.29296875,9.525 C5.484375,9.71640625 5.72421875,9.8125 5.96328125,9.8125 C5.96328125,9.8125 5.96328125,9.8125 5.96328125,9.8125 C5.96328125,9.8125 10.8960938,9.8125 10.8960938,9.8125 C10.8960938,9.8125 10.8960938,10.8179687 10.8960938,10.8179687 C10.8960938,10.8179687 6.39453125,10.8179687 6.39453125,10.8179687 C6.059375,10.8179687 5.771875,10.9617187 5.5328125,11.296875 C5.5328125,11.296875 5.5328125,11.296875 5.5328125,11.296875 C5.5328125,11.296875 4.14375,13.7390625 4.14375,13.7390625 C4.04765625,13.8828125 4,14.0742187 4,14.2179688 C4,14.2179688 4,14.2179688 4,14.2179688 C4,14.4570312 4.04765625,14.6007812 4.14375,14.7445312 C4.14375,14.7445312 4.14375,14.7445312 4.14375,14.7445312 C4.14375,14.7445312 5.5328125,17.1867187 5.5328125,17.1867187 C5.771875,17.521875 6.059375,17.665625 6.39453125,17.665625 C6.39453125,17.665625 6.39453125,17.665625 6.39453125,17.665625 C6.39453125,17.665625 18.7507812,17.665625 18.7507812,17.665625 C18.9898437,17.665625 19.2296875,17.5695312 19.4210937,17.378125 C19.6125,17.1867188 19.7085937,16.946875 19.7085937,16.7078125 C19.7085937,16.7078125 19.7085937,16.7078125 19.7085937,16.7078125 C19.7085937,16.7078125 19.7085937,11.775 19.7085937,11.775 C19.7085937,11.5359375 19.6125,11.2960938 19.4210937,11.1046875 C19.2296875,10.9132812 18.9898437,10.8171875 18.7507812,10.8171875 C18.7507812,10.8171875 18.7507812,10.8171875 18.7507812,10.8171875 C18.7507812,10.8171875 13.8179688,10.8171875 13.8179688,10.8171875 C13.8179688,10.8171875 13.8179688,9.81171875 13.8179688,9.81171875 L13.8179688,9.81171875 Z M10.4171875,13.7390625 C10.4171875,13.7390625 14.296875,13.7390625 14.296875,13.7390625 C14.6320312,13.7390625 14.8234375,13.8828125 14.8234375,14.2179687 C14.8234375,14.2179687 14.8234375,14.2179687 14.8234375,14.2179687 C14.8234375,14.553125 14.6320312,14.7445312 14.296875,14.7445312 C14.296875,14.7445312 14.296875,14.7445312 14.296875,14.7445312 C14.296875,14.7445312 10.4171875,14.7445312 10.4171875,14.7445312 C10.0820312,14.7445312 9.890625,14.553125 9.890625,14.2179687 C9.890625,14.2179687 9.890625,14.2179687 9.890625,14.2179687 C9.890625,13.8828125 10.0820312,13.7390625 10.4171875,13.7390625 C10.4171875,13.7390625 10.4171875,13.7390625 10.4171875,13.7390625 Z M14.296875,6.88984375 C14.296875,6.88984375 10.4171875,6.88984375 10.4171875,6.88984375 C10.0820312,6.88984375 9.890625,6.74609375 9.890625,6.4109375 C9.890625,6.4109375 9.890625,6.4109375 9.890625,6.4109375 C9.890625,6.07578125 10.0820312,5.884375 10.4171875,5.884375 C10.4171875,5.884375 10.4171875,5.884375 10.4171875,5.884375 C10.4171875,5.884375 14.296875,5.884375 14.296875,5.884375 C14.6320312,5.884375 14.8234375,6.07578125 14.8234375,6.4109375 C14.8234375,6.4109375 14.8234375,6.4109375 14.8234375,6.4109375 C14.8234375,6.74609375 14.6320312,6.88984375 14.296875,6.88984375 C14.296875,6.88984375 14.296875,6.88984375 14.296875,6.88984375 Z M10.8960937,23.078125 C10.8960937,23.078125 10.8960937,18.671875 10.8960937,18.671875 C10.8960937,18.671875 13.8171875,18.671875 13.8171875,18.671875 C13.8171875,18.671875 13.8171875,23.078125 13.8171875,23.078125 C13.8171875,23.509375 13.6734375,23.8445313 13.3859375,24.0835937 C13.0984375,24.3710938 12.7632812,24.5148438 12.3804687,24.5148438 C12.3804687,24.5148438 12.3804687,24.5148438 12.3804687,24.5148438 C11.9492187,24.5148438 11.6140625,24.3710938 11.3265625,24.0835937 C11.0390625,23.8445312 10.8953125,23.5085937 10.8953125,23.078125 C10.8953125,23.078125 10.8953125,23.078125 10.8953125,23.078125 L10.8960937,23.078125 Z"/>
  <title>Signpost Solid</title>
</svg>