<svg xmlns="http://www.w3.org/2000/svg" viewBox="0 0 25 25" id="slideshow">
  <path d="M24.0421875,2 C24.0421875,2 24.0421875,2 24.0421875,2 C24.0421875,2 0.47890625,2 0.47890625,2 C0.14375,2 0,2.19140625 0,2.5265625 C0,2.5265625 0,2.5265625 0,2.5265625 C0,2.86171875 0.14375,3.00546875 0.47890625,3.00546875 C0.47890625,3.00546875 0.47890625,3.00546875 0.47890625,3.00546875 C0.47890625,3.00546875 0.9578125,3.00546875 0.9578125,3.00546875 C0.9578125,3.00546875 0.9578125,17.2296875 0.9578125,17.2296875 C1.00546875,17.6609375 1.14921875,17.9960938 1.43671875,18.2835938 C1.67578125,18.5710937 2.01171875,18.7148438 2.4421875,18.7148438 C2.4421875,18.7148438 2.4421875,18.7148438 2.4421875,18.7148438 C2.4421875,18.7148438 9.67421875,18.7148438 9.67421875,18.7148438 C9.67421875,18.7148438 7.90234375,21.8757813 7.90234375,21.8757813 C7.8546875,21.9234375 7.8546875,22.0195312 7.8546875,22.1148437 C7.8546875,22.1148437 7.8546875,22.1148437 7.8546875,22.1148437 C7.8546875,22.30625 7.95078125,22.45 8.09375,22.5460938 C8.09375,22.5460938 8.09375,22.5460938 8.09375,22.5460938 C8.14140625,22.59375 8.2375,22.59375 8.3328125,22.59375 C8.3328125,22.59375 8.3328125,22.59375 8.3328125,22.59375 C8.3328125,22.59375 8.3328125,22.59375 8.3328125,22.59375 C8.52421875,22.59375 8.66796875,22.4976563 8.7640625,22.3546875 C8.7640625,22.3546875 8.7640625,22.3546875 8.7640625,22.3546875 C8.7640625,22.3546875 10.8234375,18.7148438 10.8234375,18.7148438 C10.8234375,18.7148438 13.696875,18.7148438 13.696875,18.7148438 C13.696875,18.7148438 15.75625,22.3546875 15.75625,22.3546875 C15.8523437,22.4984375 15.9953125,22.59375 16.1875,22.59375 C16.1875,22.59375 16.1875,22.59375 16.1875,22.59375 C16.2835937,22.59375 16.3789062,22.59375 16.4265625,22.5460938 C16.4265625,22.5460938 16.4265625,22.5460938 16.4265625,22.5460938 C16.5703125,22.45 16.665625,22.3070313 16.665625,22.1148437 C16.665625,22.1148437 16.665625,22.1148437 16.665625,22.1148437 C16.665625,22.01875 16.665625,21.9234375 16.6179687,21.8757813 C16.6179687,21.8757813 16.6179687,21.8757813 16.6179687,21.8757813 C16.6179687,21.8757813 14.8460937,18.7148438 14.8460937,18.7148438 C14.8460937,18.7148438 22.078125,18.7148438 22.078125,18.7148438 C22.509375,18.7148438 22.8445312,18.5710937 23.1320312,18.2835938 C23.4195312,17.9960938 23.5632812,17.6609375 23.5632812,17.2296875 C23.5632812,17.2296875 23.5632812,17.2296875 23.5632812,17.2296875 C23.5632812,17.2296875 23.5632812,3.00546875 23.5632812,3.00546875 C23.5632812,3.00546875 24.0421875,3.00546875 24.0421875,3.00546875 C24.3773437,3.00546875 24.5210937,2.86171875 24.5210937,2.5265625 C24.5210937,2.5265625 24.5210937,2.5265625 24.5210937,2.5265625 C24.5210937,2.19140625 24.3773438,2 24.0421875,2 Z M22.5578125,3.00546875 C22.5578125,3.00546875 22.5578125,17.2296875 22.5578125,17.2296875 C22.5578125,17.5648438 22.4140625,17.7085937 22.0789063,17.7085937 C22.0789063,17.7085937 22.0789063,17.7085937 22.0789063,17.7085937 C22.0789063,17.7085937 2.44296875,17.7085937 2.44296875,17.7085937 C2.1078125,17.7085937 1.9640625,17.5648438 1.9640625,17.2296875 C1.9640625,17.2296875 1.9640625,17.2296875 1.9640625,17.2296875 C1.9640625,17.2296875 1.9640625,3.00546875 1.9640625,3.00546875 C1.9640625,3.00546875 22.5578125,3.00546875 22.5578125,3.00546875 Z M4.55,14.1164063 C4.55,14.1164063 4.55,14.1164063 4.55,14.1164063 C4.45390625,14.06875 4.40625,13.9726562 4.40625,13.78125 C4.40625,13.78125 4.40625,13.78125 4.40625,13.78125 C4.40625,13.6375 4.45390625,13.5421875 4.55,13.4460938 C4.55,13.4460938 4.55,13.4460938 4.55,13.4460938 C4.55,13.4460938 9.4828125,8.5609375 9.4828125,8.5609375 C9.53046875,8.46484375 9.67421875,8.4171875 9.81796875,8.4171875 C9.81796875,8.4171875 9.81796875,8.4171875 9.81796875,8.4171875 C9.96171875,8.4171875 10.0570313,8.46484375 10.153125,8.5609375 C10.153125,8.5609375 10.153125,8.5609375 10.153125,8.5609375 C10.153125,8.5609375 13.7453125,12.1046875 13.7453125,12.1046875 C13.7453125,12.1046875 17.9601563,7.88984375 17.9601563,7.88984375 C17.9601563,7.88984375 16.1882813,7.88984375 16.1882813,7.88984375 C15.853125,7.88984375 15.709375,7.74609375 15.709375,7.4109375 C15.709375,7.07578125 15.853125,6.93203125 16.1882813,6.93203125 C16.1882813,6.93203125 16.1882813,6.93203125 16.1882813,6.93203125 C16.1882813,6.93203125 19.109375,6.93203125 19.109375,6.93203125 C19.4445313,6.93203125 19.6359375,7.07578125 19.6359375,7.4109375 C19.6359375,7.4109375 19.6359375,7.4109375 19.6359375,7.4109375 C19.6359375,7.4109375 19.6359375,10.3320313 19.6359375,10.3320313 C19.6359375,10.6671875 19.4445313,10.8585938 19.109375,10.8585938 C19.109375,10.8585938 19.109375,10.8585938 19.109375,10.8585938 C18.7742188,10.8585938 18.6304688,10.6671875 18.6304688,10.3320313 C18.6304688,10.3320313 18.6304688,10.3320313 18.6304688,10.3320313 C18.6304688,10.3320313 18.6304688,8.6078125 18.6304688,8.6078125 C18.6304688,8.6078125 14.0804688,13.1578125 14.0804688,13.1578125 C13.984375,13.2539062 13.8890625,13.3015625 13.7453125,13.3015625 C13.7453125,13.3015625 13.7453125,13.3015625 13.7453125,13.3015625 C13.6015625,13.3015625 13.4578125,13.2539062 13.3625,13.1578125 C13.3625,13.1578125 13.3625,13.1578125 13.3625,13.1578125 C13.3625,13.1578125 9.81875,9.565625 9.81875,9.565625 C9.81875,9.565625 5.26875,14.115625 5.26875,14.115625 C5.17265625,14.2117187 5.0296875,14.259375 4.8859375,14.259375 C4.8859375,14.259375 4.8859375,14.259375 4.8859375,14.259375 C4.7421875,14.259375 4.646875,14.2117187 4.55078125,14.115625 L4.55,14.1164063 Z"/>
  <title>Slideshow</title>
</svg>