<svg xmlns="http://www.w3.org/2000/svg" viewBox="0 0 25 25" id="slideshow-solid">
  <path d="M24.0421875,2 C24.0421875,2 24.0421875,2 24.0421875,2 C24.0421875,2 0.47890625,2 0.47890625,2 C0.14375,2 0,2.14375 0,2.47890625 C0,2.8140625 0.14375,2.9578125 0.47890625,2.9578125 C0.47890625,2.9578125 0.47890625,2.9578125 0.47890625,2.9578125 C0.47890625,2.9578125 0.9578125,2.9578125 0.9578125,2.9578125 C0.9578125,2.9578125 0.9578125,17.1820313 0.9578125,17.1820313 C1.00546875,17.6132812 1.14921875,17.9484375 1.43671875,18.2359375 C1.67578125,18.5234375 2.01171875,18.6671875 2.4421875,18.6671875 C2.4421875,18.6671875 2.4421875,18.6671875 2.4421875,18.6671875 C2.4421875,18.6671875 9.67421875,18.6671875 9.67421875,18.6671875 C9.67421875,18.6671875 7.90234375,21.8757812 7.90234375,21.8757812 C7.8546875,21.9234375 7.8546875,21.971875 7.8546875,22.1148437 C7.8546875,22.1148437 7.8546875,22.1148437 7.8546875,22.1148437 C7.8546875,22.30625 7.95078125,22.45 8.09375,22.5460938 C8.09375,22.5460938 8.09375,22.5460938 8.09375,22.5460938 C8.14140625,22.59375 8.2375,22.59375 8.3328125,22.59375 C8.3328125,22.59375 8.3328125,22.59375 8.3328125,22.59375 C8.3328125,22.59375 8.3328125,22.59375 8.3328125,22.59375 C8.52421875,22.59375 8.66796875,22.4976562 8.7640625,22.3546875 C8.7640625,22.3546875 8.7640625,22.3546875 8.7640625,22.3546875 C8.7640625,22.3546875 10.8234375,18.6671875 10.8234375,18.6671875 C10.8234375,18.6671875 13.696875,18.6671875 13.696875,18.6671875 C13.696875,18.6671875 15.75625,22.3546875 15.75625,22.3546875 C15.8523437,22.4984375 15.9953125,22.59375 16.1875,22.59375 C16.1875,22.59375 16.1875,22.59375 16.1875,22.59375 C16.2835937,22.59375 16.3789062,22.59375 16.4265625,22.5460938 C16.4265625,22.5460938 16.4265625,22.5460938 16.4265625,22.5460938 C16.5703125,22.45 16.665625,22.3070312 16.665625,22.1148437 C16.665625,22.1148437 16.665625,22.1148437 16.665625,22.1148437 C16.665625,21.9710938 16.665625,21.9234375 16.6179687,21.8757812 C16.6179687,21.8757812 16.6179687,21.8757812 16.6179687,21.8757812 C16.6179687,21.8757812 14.8460937,18.6671875 14.8460937,18.6671875 C14.8460937,18.6671875 22.078125,18.6671875 22.078125,18.6671875 C22.509375,18.6671875 22.8445312,18.5234375 23.1320312,18.2359375 C23.4195312,17.9484375 23.5632812,17.6132812 23.5632812,17.1820313 C23.5632812,17.1820313 23.5632812,17.1820313 23.5632812,17.1820313 C23.5632812,17.1820313 23.5632812,2.9578125 23.5632812,2.9578125 C23.5632812,2.9578125 24.0421875,2.9578125 24.0421875,2.9578125 C24.3773437,2.9578125 24.5210937,2.8140625 24.5210937,2.47890625 C24.5210937,2.14375 24.3773438,2 24.0421875,2 Z M19.6359375,7.4125 C19.6359375,7.4125 19.6359375,10.3335938 19.6359375,10.3335938 C19.6359375,10.66875 19.4445313,10.8125 19.109375,10.8125 C19.109375,10.8125 19.109375,10.8125 19.109375,10.8125 C18.7742188,10.8125 18.6304688,10.66875 18.6304688,10.3335938 C18.6304688,10.3335938 18.6304688,10.3335938 18.6304688,10.3335938 C18.6304688,10.3335938 18.6304688,8.56171875 18.6304688,8.56171875 C18.6304688,8.56171875 14.0804688,13.1117187 14.0804688,13.1117187 C13.984375,13.2078125 13.8890625,13.2554687 13.7453125,13.2554687 C13.7453125,13.2554687 13.7453125,13.2554687 13.7453125,13.2554687 C13.6015625,13.2554687 13.4578125,13.2078125 13.3625,13.1117187 C13.3625,13.1117187 13.3625,13.1117187 13.3625,13.1117187 C13.3625,13.1117187 9.81875,9.56796875 9.81875,9.56796875 C9.81875,9.56796875 5.26875,14.1179687 5.26875,14.1179687 C5.17265625,14.2140625 5.07734375,14.2617188 4.93359375,14.2617188 C4.93359375,14.2617188 4.93359375,14.2617188 4.93359375,14.2617188 C4.5984375,14.2617188 4.40703125,14.1179687 4.40703125,13.7828125 C4.40703125,13.7828125 4.40703125,13.7828125 4.40703125,13.7828125 C4.40703125,13.6390625 4.4546875,13.4953125 4.55078125,13.4 C4.55078125,13.4 4.55078125,13.4 4.55078125,13.4 C4.55078125,13.4 9.48359375,8.51484375 9.48359375,8.51484375 C9.53125,8.41875 9.675,8.37109375 9.81875,8.37109375 C9.81875,8.37109375 9.81875,8.37109375 9.81875,8.37109375 C9.9625,8.37109375 10.0578125,8.41875 10.1539063,8.51484375 C10.1539063,8.51484375 10.1539063,8.51484375 10.1539063,8.51484375 C10.1539063,8.51484375 13.7460938,12.1070313 13.7460938,12.1070313 C13.7460938,12.1070313 17.9609375,7.8921875 17.9609375,7.8921875 C17.9609375,7.8921875 16.1890625,7.8921875 16.1890625,7.8921875 C15.8539063,7.8921875 15.7101563,7.7484375 15.7101563,7.41328125 C15.7101563,7.41328125 15.7101563,7.41328125 15.7101563,7.41328125 C15.7101563,7.078125 15.8539063,6.88671875 16.1890625,6.88671875 C16.1890625,6.88671875 16.1890625,6.88671875 16.1890625,6.88671875 C16.1890625,6.88671875 19.1101563,6.88671875 19.1101563,6.88671875 C19.4453125,6.88671875 19.6367188,7.078125 19.6367188,7.41328125 C19.6367188,7.41328125 19.6367188,7.41328125 19.6367188,7.41328125 L19.6359375,7.4125 Z"/>
  <title>Slideshow Solid</title>
</svg>