<svg xmlns="http://www.w3.org/2000/svg" viewBox="0 0 25 25" id="snail">
  <path d="M24.1320313,16.121875 C24.1320313,16.121875 24.1320313,16.121875 24.1320313,16.121875 C24.1320313,16.121875 23.0304688,14.8289063 23.0304688,14.8289063 C23.3179688,14.3976563 23.509375,13.8710938 23.5570313,13.3445313 C23.5570313,13.3445313 23.5570313,13.3445313 23.5570313,13.3445313 C23.6046875,13.2007813 23.5570313,13.1054688 23.4609375,12.9617188 C23.3648438,12.865625 23.221875,12.8179688 23.078125,12.8179688 C23.078125,12.8179688 23.078125,12.8179688 23.078125,12.8179688 C22.7429688,12.8179688 22.5992188,12.9617188 22.5992188,13.296875 C22.5992188,13.296875 22.5992188,13.296875 22.5992188,13.296875 C22.5992188,13.7757813 22.1679688,14.4945313 21.2585938,15.5 C20.3492188,16.5054688 19.3429688,17.128125 18.1453125,17.415625 C18.1453125,17.415625 18.1453125,17.415625 18.1453125,17.415625 C19.1507813,15.8828125 19.678125,14.2070313 19.678125,12.3390625 C19.678125,12.3390625 19.678125,12.3390625 19.678125,12.3390625 C19.678125,9.7046875 18.8164062,7.45390625 17.1398438,5.68203125 C15.4632813,3.91015625 13.35625,3 10.8179688,3 C10.8179688,3 10.8179688,3 10.8179688,3 C8.08828125,3 5.7890625,3.86171875 3.8734375,5.5859375 C1.9578125,7.3578125 1,9.4171875 1,11.8601563 C1,11.8601563 1,11.8601563 1,11.8601563 C1.09609375,14.015625 1.91015625,15.8351563 3.39453125,17.3203125 C4.87890625,18.8054688 6.69921875,19.6195313 8.8546875,19.7148438 C8.8546875,19.7148438 8.8546875,19.7148438 8.8546875,19.7148438 C10.9617188,19.7148438 12.734375,19.0445313 14.1226563,17.7515625 C15.5109375,16.4585938 16.2296875,14.7820313 16.2296875,12.81875 C16.2296875,12.81875 16.2296875,12.81875 16.2296875,12.81875 C16.2296875,12.81875 16.2296875,12.7226563 16.2296875,12.7226563 C16.2296875,11.1421875 15.6546875,9.753125 14.553125,8.60390625 C13.4515625,7.50234375 12.0625,6.92734375 10.4820313,6.92734375 C10.4820313,6.92734375 10.4820313,6.92734375 10.4820313,6.92734375 C10.4820313,6.92734375 10.3382813,6.92734375 10.3382813,6.92734375 C10.3382813,6.92734375 10.2421875,6.92734375 10.2421875,6.92734375 C8.7578125,6.92734375 7.5125,7.45390625 6.50625,8.46015625 C5.45234375,9.5140625 4.92578125,10.759375 4.92578125,12.1960938 C4.92578125,12.1960938 4.92578125,12.1960938 4.92578125,12.1960938 C4.92578125,12.1960938 4.92578125,12.3398438 4.92578125,12.3398438 C4.9734375,13.7289063 5.5484375,14.8304688 6.60234375,15.6445313 C6.60234375,15.6445313 6.60234375,15.6445313 6.60234375,15.6445313 C6.6984375,15.740625 6.79375,15.7882813 6.9375,15.7882813 C6.9375,15.7882813 6.9375,15.7882813 6.9375,15.7882813 C7.27265625,15.7882813 7.41640625,15.6445313 7.41640625,15.309375 C7.41640625,15.309375 7.41640625,15.309375 7.41640625,15.309375 C7.41640625,15.165625 7.36875,15.021875 7.225,14.878125 C7.225,14.878125 7.225,14.878125 7.225,14.878125 C6.36328125,14.2554688 5.93203125,13.39375 5.93203125,12.3398438 C5.93203125,12.3398438 5.93203125,12.3398438 5.93203125,12.3398438 C5.93203125,12.3398438 5.93203125,12.1960938 5.93203125,12.1960938 C5.93203125,10.9984375 6.36328125,9.99296875 7.17734375,9.17890625 C7.99140625,8.36484375 8.996875,7.93359375 10.1945313,7.93359375 C10.1945313,7.93359375 10.1945313,7.93359375 10.1945313,7.93359375 C10.1945313,7.93359375 10.3382813,7.93359375 10.3382813,7.93359375 C10.3382813,7.93359375 10.434375,7.93359375 10.434375,7.93359375 C11.775,7.93359375 12.925,8.4125 13.8351563,9.32265625 C14.7453125,10.2804688 15.2242188,11.4296875 15.2242188,12.7226563 C15.2242188,12.7226563 15.2242188,12.7226563 15.2242188,12.7226563 C15.2242188,12.7226563 15.2242188,12.81875 15.2242188,12.81875 C15.2242188,14.4953125 14.6492188,15.9320313 13.4523438,17.0335938 C12.2554688,18.1351563 10.7226562,18.7101563 8.8546875,18.7101563 C8.8546875,18.7101563 8.8546875,18.7101563 8.8546875,18.7101563 C6.98671875,18.6625 5.40625,17.94375 4.11328125,16.603125 C2.77265625,15.3101563 2.05390625,13.7296875 2.00625,11.8617188 C2.00625,11.8617188 2.00625,11.8617188 2.00625,11.8617188 C2.00625,9.70625 2.86796875,7.8390625 4.5921875,6.30625 C6.31640625,4.7734375 8.37578125,4.00703125 10.8179688,4.00703125 C10.8179688,4.00703125 10.8179688,4.00703125 10.8179688,4.00703125 C13.06875,4.00703125 14.9367188,4.82109375 16.4210938,6.4015625 C17.9054688,7.98203125 18.671875,9.99375 18.671875,12.340625 C18.671875,12.340625 18.671875,12.340625 18.671875,12.340625 C18.671875,14.6398438 17.8578125,16.603125 16.2296875,18.23125 C14.6015625,19.859375 12.6375,20.6734375 10.3390625,20.6734375 C10.3390625,20.6734375 10.3390625,20.6734375 10.3390625,20.6734375 C10.3390625,20.6734375 1.5265625,20.6734375 1.5265625,20.6734375 C1.19140625,20.6734375 1,20.8171875 1,21.1523438 C1,21.1523438 1,21.1523438 1,21.1523438 C1,21.4875 1.19140625,21.6789063 1.5265625,21.6789063 C1.5265625,21.6789063 1.5265625,21.6789063 1.5265625,21.6789063 C1.5265625,21.6789063 17.7140625,21.6789063 17.7140625,21.6789063 C20.5398437,21.4875 22.7429688,20.2898438 24.3234375,18.0390625 C24.3234375,18.0390625 24.3234375,18.0390625 24.3234375,18.0390625 C24.4671875,17.8 24.5625,17.5125 24.5625,17.1773438 C24.5625,17.1773438 24.5625,17.1773438 24.5625,17.1773438 C24.5625,16.7460938 24.41875,16.4109375 24.13125,16.1234375 L24.1320313,16.121875 Z M23.509375,17.4632813 C23.509375,17.4632813 23.509375,17.4632813 23.509375,17.4632813 C22.025,19.475 20.109375,20.528125 17.7140625,20.671875 C17.7140625,20.671875 17.7140625,20.671875 17.7140625,20.671875 C17.7140625,20.671875 14.4570312,20.671875 14.4570312,20.671875 C15.5109375,20.1453125 16.46875,19.4265625 17.3304687,18.5164062 C17.3304687,18.5164062 17.3304687,18.5164062 17.3304687,18.5164062 C19.4375,18.2773438 21.1140625,17.3671875 22.4070312,15.690625 C22.4070312,15.690625 22.4070312,15.690625 22.4070312,15.690625 C22.4070312,15.690625 23.4125,16.7921875 23.4125,16.7921875 C23.5085937,16.8882813 23.55625,17.03125 23.55625,17.2234375 C23.55625,17.2234375 23.55625,17.2234375 23.55625,17.2234375 C23.55625,17.3671875 23.55625,17.4148438 23.5085937,17.4625 L23.509375,17.4632813 Z"/>
  <title>Snail</title>
</svg>