<svg xmlns="http://www.w3.org/2000/svg" viewBox="0 0 25 25" id="snow">
  <path d="M21.2476563,14.7375 C21.2476563,14.7375 21.2476563,14.7375 21.2476563,14.7375 C21.2476563,14.7375 18.6617188,15.4078125 18.6617188,15.4078125 C18.6617188,15.4078125 21.05625,16.796875 21.05625,16.796875 C21.2,16.8445312 21.2953125,16.9882812 21.2953125,17.1796875 C21.2953125,17.1796875 21.2953125,17.1796875 21.2953125,17.1796875 C21.2953125,17.2757812 21.2476563,17.3710938 21.1992188,17.41875 C21.1992188,17.41875 21.1992188,17.41875 21.1992188,17.41875 C21.1992188,17.41875 21.1992188,17.4664062 21.1992188,17.4664062 C21.103125,17.6101563 20.9601563,17.7054688 20.7679688,17.7054688 C20.7679688,17.7054688 20.7679688,17.7054688 20.7679688,17.7054688 C20.7203125,17.7054688 20.671875,17.6578125 20.5289063,17.609375 C20.5289063,17.609375 20.5289063,17.609375 20.5289063,17.609375 C20.5289063,17.609375 17.846875,16.0765625 17.846875,16.0765625 C17.846875,16.0765625 18.6609375,19.0460938 18.6609375,19.0460938 C18.6609375,19.0460938 18.6609375,19.1421875 18.6609375,19.1421875 C18.6609375,19.4773437 18.5171875,19.6210938 18.1820313,19.6210938 C18.1820313,19.6210938 18.1820313,19.6210938 18.1820313,19.6210938 C17.9429688,19.6210938 17.7507813,19.525 17.703125,19.2859375 C17.703125,19.2859375 17.703125,19.2859375 17.703125,19.2859375 C17.703125,19.2859375 16.6492188,15.3585938 16.6492188,15.3585938 C16.6492188,15.3585938 12.7695313,13.1554688 12.7695313,13.1554688 C12.7695313,13.1554688 12.7695313,17.9929688 12.7695313,17.9929688 C12.7695313,17.9929688 15.5953125,20.7710938 15.5953125,20.7710938 C15.6914063,20.9625 15.7390625,21.0585938 15.7390625,21.10625 C15.7390625,21.10625 15.7390625,21.10625 15.7390625,21.10625 C15.7390625,21.4414062 15.5476563,21.5851563 15.2125,21.5851563 C15.2125,21.5851563 15.2125,21.5851563 15.2125,21.5851563 C15.1164063,21.5851563 15.0210938,21.5375 14.8773438,21.4890625 C14.8773438,21.4890625 14.8773438,21.4890625 14.8773438,21.4890625 C14.8773438,21.4890625 12.7703125,19.3820313 12.7703125,19.3820313 C12.7703125,19.3820313 12.7703125,22.1117187 12.7703125,22.1117187 C12.7703125,22.446875 12.6265625,22.590625 12.2914063,22.590625 C11.95625,22.590625 11.8125,22.446875 11.8125,22.1117187 C11.8125,22.1117187 11.8125,22.1117187 11.8125,22.1117187 C11.8125,22.1117187 11.8125,19.3820313 11.8125,19.3820313 C11.8125,19.3820313 9.70546875,21.4890625 9.70546875,21.4890625 C9.56171875,21.5367187 9.46640625,21.5851563 9.3703125,21.5851563 C9.3703125,21.5851563 9.3703125,21.5851563 9.3703125,21.5851563 C9.03515625,21.5851563 8.84375,21.4414062 8.84375,21.10625 C8.84375,21.10625 8.84375,21.10625 8.84375,21.10625 C8.84375,21.0585938 8.89140625,20.9625 8.9875,20.7710938 C8.9875,20.7710938 8.9875,20.7710938 8.9875,20.7710938 C8.9875,20.7710938 11.8132813,17.9929688 11.8132813,17.9929688 C11.8132813,17.9929688 11.8132813,13.1554688 11.8132813,13.1554688 C11.8132813,13.1554688 7.93359375,15.3585938 7.93359375,15.3585938 C7.93359375,15.3585938 6.8796875,19.2859375 6.8796875,19.2859375 C6.83203125,19.525 6.640625,19.6210938 6.40078125,19.6210938 C6.40078125,19.6210938 6.40078125,19.6210938 6.40078125,19.6210938 C6.065625,19.6210938 5.921875,19.4773437 5.921875,19.1421875 C5.921875,19.1421875 5.921875,19.1421875 5.921875,19.1421875 C5.921875,19.1421875 5.921875,19.0460938 5.921875,19.0460938 C5.921875,19.0460938 6.7359375,16.0765625 6.7359375,16.0765625 C6.7359375,16.0765625 4.05390625,17.609375 4.05390625,17.609375 C3.91015625,17.6570312 3.8625,17.7054688 3.81484375,17.7054688 C3.81484375,17.7054688 3.81484375,17.7054688 3.81484375,17.7054688 C3.6234375,17.7054688 3.4796875,17.609375 3.38359375,17.4664062 C3.38359375,17.4664062 3.38359375,17.4664062 3.38359375,17.4664062 C3.38359375,17.4664062 3.38359375,17.41875 3.38359375,17.41875 C3.3359375,17.3710938 3.2875,17.275 3.2875,17.1796875 C3.2875,17.1796875 3.2875,17.1796875 3.2875,17.1796875 C3.2875,16.9882812 3.38359375,16.8445312 3.5265625,16.796875 C3.5265625,16.796875 3.5265625,16.796875 3.5265625,16.796875 C3.5265625,16.796875 5.92109375,15.4078125 5.92109375,15.4078125 C5.92109375,15.4078125 3.33515625,14.7375 3.33515625,14.7375 C3.09609375,14.6898437 3,14.4984375 3,14.2585937 C3,14.2585937 3,14.2585937 3,14.2585937 C3,13.9234375 3.14375,13.7796875 3.47890625,13.7796875 C3.47890625,13.7796875 3.47890625,13.7796875 3.47890625,13.7796875 C3.47890625,13.7796875 3.575,13.7796875 3.575,13.7796875 C3.575,13.7796875 7.11875,14.7375 7.11875,14.7375 C7.11875,14.7375 11.3335938,12.2953125 11.3335938,12.2953125 C11.3335938,12.2953125 7.11875,9.853125 7.11875,9.853125 C7.11875,9.853125 3.575,10.8109375 3.575,10.8109375 C3.575,10.8109375 3.47890625,10.8109375 3.47890625,10.8109375 C3.14375,10.8109375 3,10.6671875 3,10.3320313 C3,10.3320313 3,10.3320313 3,10.3320313 C3,10.0929688 3.09609375,9.90078125 3.33515625,9.853125 C3.33515625,9.853125 3.33515625,9.853125 3.33515625,9.853125 C3.33515625,9.853125 5.92109375,9.1828125 5.92109375,9.1828125 C5.92109375,9.1828125 3.5265625,7.79375 3.5265625,7.79375 C3.3828125,7.74609375 3.2875,7.60234375 3.2875,7.4109375 C3.2875,7.4109375 3.2875,7.4109375 3.2875,7.4109375 C3.2875,7.31484375 3.33515625,7.21953125 3.38359375,7.171875 C3.38359375,7.171875 3.38359375,7.171875 3.38359375,7.171875 C3.38359375,7.171875 3.38359375,7.12421875 3.38359375,7.12421875 C3.4796875,6.98046875 3.62265625,6.88515625 3.81484375,6.88515625 C3.81484375,6.88515625 3.81484375,6.88515625 3.81484375,6.88515625 C3.8625,6.88515625 3.9109375,6.9328125 4.05390625,6.98125 C4.05390625,6.98125 4.05390625,6.98125 4.05390625,6.98125 C4.05390625,6.98125 6.7359375,8.5140625 6.7359375,8.5140625 C6.7359375,8.5140625 5.921875,5.54453125 5.921875,5.54453125 C5.921875,5.54453125 5.921875,5.40078125 5.921875,5.40078125 C5.921875,5.065625 6.065625,4.921875 6.40078125,4.921875 C6.40078125,4.921875 6.40078125,4.921875 6.40078125,4.921875 C6.63984375,4.921875 6.83203125,5.065625 6.8796875,5.3046875 C6.8796875,5.3046875 6.8796875,5.3046875 6.8796875,5.3046875 C6.8796875,5.3046875 7.93359375,9.23203125 7.93359375,9.23203125 C7.93359375,9.23203125 11.8132813,11.4351563 11.8132813,11.4351563 C11.8132813,11.4351563 11.8132813,6.59765625 11.8132813,6.59765625 C11.8132813,6.59765625 8.9875,3.81953125 8.9875,3.81953125 C8.89140625,3.7234375 8.84375,3.628125 8.84375,3.484375 C8.84375,3.484375 8.84375,3.484375 8.84375,3.484375 C8.84375,3.14921875 8.9875,2.9578125 9.32265625,2.9578125 C9.32265625,2.9578125 9.32265625,2.9578125 9.32265625,2.9578125 C9.46640625,2.9578125 9.61015625,3.00546875 9.70546875,3.1015625 C9.70546875,3.1015625 9.70546875,3.1015625 9.70546875,3.1015625 C9.70546875,3.1015625 11.8125,5.20859375 11.8125,5.20859375 C11.8125,5.20859375 11.8125,2.47890625 11.8125,2.47890625 C11.8125,2.14375 11.95625,2 12.2914063,2 C12.6265625,2 12.7703125,2.14375 12.7703125,2.47890625 C12.7703125,2.47890625 12.7703125,2.47890625 12.7703125,2.47890625 C12.7703125,2.47890625 12.7703125,5.20859375 12.7703125,5.20859375 C12.7703125,5.20859375 14.8773438,3.1015625 14.8773438,3.1015625 C14.9734375,3.00546875 15.1164063,2.9578125 15.2601563,2.9578125 C15.2601563,2.9578125 15.2601563,2.9578125 15.2601563,2.9578125 C15.5953125,2.9578125 15.7390625,3.14921875 15.7390625,3.484375 C15.7390625,3.484375 15.7390625,3.484375 15.7390625,3.484375 C15.7390625,3.628125 15.6914063,3.7234375 15.5953125,3.81953125 C15.5953125,3.81953125 15.5953125,3.81953125 15.5953125,3.81953125 C15.5953125,3.81953125 12.7695312,6.59765625 12.7695312,6.59765625 C12.7695312,6.59765625 12.7695312,11.4351563 12.7695312,11.4351563 C12.7695312,11.4351563 16.6492188,9.23203125 16.6492188,9.23203125 C16.6492188,9.23203125 17.703125,5.3046875 17.703125,5.3046875 C17.7507813,5.065625 17.9421875,4.96953125 18.1820313,4.96953125 C18.1820313,4.96953125 18.1820313,4.96953125 18.1820313,4.96953125 C18.5171875,4.96953125 18.6609375,5.11328125 18.6609375,5.4484375 C18.6609375,5.4484375 18.6609375,5.4484375 18.6609375,5.4484375 C18.6609375,5.4484375 18.6609375,5.54453125 18.6609375,5.54453125 C18.6609375,5.54453125 17.846875,8.5140625 17.846875,8.5140625 C17.846875,8.5140625 20.5289062,6.98125 20.5289062,6.98125 C20.6726563,6.93359375 20.7203125,6.88515625 20.7679688,6.88515625 C20.7679688,6.88515625 20.7679688,6.88515625 20.7679688,6.88515625 C20.959375,6.88515625 21.103125,6.98125 21.1992188,7.12421875 C21.1992188,7.12421875 21.1992188,7.12421875 21.1992188,7.12421875 C21.1992188,7.12421875 21.1992188,7.171875 21.1992188,7.171875 C21.246875,7.21953125 21.2953125,7.315625 21.2953125,7.4109375 C21.2953125,7.4109375 21.2953125,7.4109375 21.2953125,7.4109375 C21.2953125,7.60234375 21.1992188,7.74609375 21.05625,7.79375 C21.05625,7.79375 21.05625,7.79375 21.05625,7.79375 C21.05625,7.79375 18.6617187,9.1828125 18.6617187,9.1828125 C18.6617187,9.1828125 21.2476563,9.853125 21.2476563,9.853125 C21.4867188,9.90078125 21.6304687,10.0921875 21.6304687,10.3320312 C21.6304687,10.3320312 21.6304687,10.3320312 21.6304687,10.3320312 C21.6304687,10.6671875 21.4390625,10.8109375 21.1039062,10.8109375 C21.1039062,10.8109375 21.1039062,10.8109375 21.1039062,10.8109375 C21.1039062,10.8109375 21.0078125,10.8109375 21.0078125,10.8109375 C21.0078125,10.8109375 17.4640625,9.853125 17.4640625,9.853125 C17.4640625,9.853125 13.2492187,12.2953125 13.2492187,12.2953125 C13.2492187,12.2953125 17.4640625,14.7375 17.4640625,14.7375 C17.4640625,14.7375 21.0078125,13.7796875 21.0078125,13.7796875 C21.0078125,13.7796875 21.1039062,13.7796875 21.1039062,13.7796875 C21.4390625,13.7796875 21.5828125,13.9234375 21.5828125,14.2585937 C21.5828125,14.2585937 21.5828125,14.2585937 21.5828125,14.2585937 C21.5828125,14.4976563 21.4867188,14.6898437 21.2476563,14.7375 Z"/>
  <title>Snow</title>
</svg>