<svg xmlns="http://www.w3.org/2000/svg" viewBox="0 0 25 25" id="social">
  <path d="M20.115625,12.7398437 C20.115625,12.7398437 20.115625,12.7398437 20.115625,12.7398437 C18.4875,12.7398437 17.2421875,13.4101562 16.3796875,14.7992187 C16.3796875,14.7992187 16.3796875,14.7992187 16.3796875,14.7992187 C16.3796875,14.7992187 5.69921875,8.90859375 5.69921875,8.90859375 C5.84296875,8.47734375 5.890625,8.09453125 5.890625,7.8546875 C5.890625,7.8546875 5.890625,7.8546875 5.890625,7.8546875 C5.890625,7.8546875 5.890625,7.75859375 5.890625,7.75859375 C5.890625,7.75859375 17.8640625,4.02265625 17.8640625,4.02265625 C18.103125,4.54921875 18.4390625,5.028125 18.965625,5.36328125 C19.4445313,5.6984375 19.9710938,5.88984375 20.59375,5.88984375 C20.59375,5.88984375 20.59375,5.88984375 20.59375,5.88984375 C21.4078125,5.88984375 22.1265625,5.60234375 22.7007813,5.028125 C23.275,4.45390625 23.5625,3.73515625 23.5625,2.92109375 C23.5625,2.92109375 23.5625,2.92109375 23.5625,2.92109375 C23.5625,2.10703125 23.275,1.43671875 22.7007813,0.86171875 C22.078125,0.28671875 21.4078125,0 20.59375,0 C19.7796875,0 19.109375,0.2875 18.534375,0.86171875 C17.959375,1.43671875 17.6726563,2.10703125 17.6726563,2.92109375 C17.6726563,2.92109375 17.6726563,2.92109375 17.6726563,2.92109375 C17.6726563,2.92109375 17.6726563,3.0171875 17.6726563,3.0171875 C17.6726563,3.0171875 5.69921875,6.753125 5.69921875,6.753125 C5.17265625,5.55546875 4.2625,4.93359375 2.92109375,4.88515625 C2.92109375,4.88515625 2.92109375,4.88515625 2.92109375,4.88515625 C2.059375,4.88515625 1.38828125,5.17265625 0.86171875,5.746875 C0.86171875,5.746875 0.86171875,5.746875 0.86171875,5.746875 C0.28671875,6.321875 0,7.03984375 0,7.85390625 C0,8.66796875 0.2875,9.38671875 0.86171875,9.9609375 C0.86171875,9.9609375 0.86171875,9.9609375 0.86171875,9.9609375 C1.484375,10.5835937 2.1546875,10.8226562 2.92109375,10.775 C2.92109375,10.775 2.92109375,10.775 2.92109375,10.775 C3.83125,10.775 4.59765625,10.4398437 5.2203125,9.72109375 C5.2203125,9.72109375 5.2203125,9.72109375 5.2203125,9.72109375 C5.2203125,9.72109375 15.9960938,15.6117187 15.9960938,15.6117187 C15.8046875,16.090625 15.7085938,16.6171875 15.7085938,17.1445312 C15.7085938,17.1445312 15.7085938,17.1445312 15.7085938,17.1445312 C15.7085938,17.6710937 15.8046875,18.15 15.9960938,18.6289062 C15.9960938,18.6289062 15.9960938,18.6289062 15.9960938,18.6289062 C15.9960938,18.6289062 11.3023438,20.5921875 11.3023438,20.5921875 C10.8234375,19.9695312 10.153125,19.634375 9.3390625,19.634375 C9.3390625,19.634375 9.3390625,19.634375 9.3390625,19.634375 C8.6203125,19.634375 8.04609375,19.8734375 7.5671875,20.353125 C7.08828125,20.8328125 6.8484375,21.4070312 6.8484375,22.0773437 C6.8484375,22.7476562 7.0875,23.3226562 7.5671875,23.8015625 C8.046875,24.2804687 8.62109375,24.5203125 9.3390625,24.5203125 C9.3390625,24.5203125 9.3390625,24.5203125 9.3390625,24.5203125 C10.009375,24.5203125 10.584375,24.28125 11.0632813,23.8015625 C11.5421875,23.321875 11.7820313,22.7476562 11.7820313,22.0773437 C11.7820313,22.0773437 11.7820313,22.0773437 11.7820313,22.0773437 C11.7820313,21.8859375 11.734375,21.6945312 11.6859375,21.5023437 C11.6859375,21.5023437 11.6859375,21.5023437 11.6859375,21.5023437 C11.6859375,21.5023437 16.3796875,19.634375 16.3796875,19.634375 C17.2414063,20.9273437 18.4867188,21.6460937 20.115625,21.69375 C20.115625,21.69375 20.115625,21.69375 20.115625,21.69375 C21.3132813,21.69375 22.3664063,21.2625 23.2289063,20.4007812 C23.2289063,20.4007812 23.2289063,20.4007812 23.2289063,20.4007812 C24.090625,19.490625 24.521875,18.4375 24.521875,17.2398437 C24.521875,17.2398437 24.521875,17.2398437 24.521875,17.2398437 C24.521875,16.0421875 24.090625,14.9890625 23.2289063,14.0789062 C22.3671875,13.2171875 21.3132812,12.7859375 20.115625,12.7382812 L20.115625,12.7398437 Z M20.5945312,0.9578125 C20.5945312,0.9578125 20.5945312,0.9578125 20.5945312,0.9578125 C21.1210937,0.9578125 21.6,1.14921875 21.9835937,1.5328125 C22.3671875,1.91640625 22.5585937,2.39453125 22.5585937,2.921875 C22.5585937,3.4484375 22.3671875,3.92734375 21.9835937,4.3109375 C21.6,4.69453125 21.121875,4.8859375 20.5945312,4.8859375 C20.0679687,4.8859375 19.5890625,4.69453125 19.2054687,4.3109375 C18.821875,3.92734375 18.6304687,3.44921875 18.6304687,2.921875 C18.6304687,2.3953125 18.821875,1.91640625 19.2054687,1.5328125 C19.5882812,1.19765625 20.0671875,1.00625 20.5945312,0.9578125 Z M4.3109375,9.24375 C3.928125,9.6265625 3.44921875,9.81875 2.921875,9.81875 C2.39453125,9.81875 1.91640625,9.62734375 1.5328125,9.19609375 C1.15,8.81328125 0.9578125,8.38203125 0.9578125,7.85546875 C0.9578125,7.85546875 0.9578125,7.85546875 0.9578125,7.85546875 C0.9578125,7.32890625 1.14921875,6.85 1.5328125,6.46640625 C1.91640625,6.0828125 2.39453125,5.89140625 2.921875,5.89140625 C3.4484375,5.89140625 3.92734375,6.0828125 4.3109375,6.46640625 C4.69453125,6.85 4.8859375,7.328125 4.8859375,7.85546875 C4.8859375,8.38203125 4.69453125,8.8609375 4.3109375,9.24453125 L4.3109375,9.24375 Z M9.33984375,23.5632812 C9.33984375,23.5632812 9.33984375,23.5632812 9.33984375,23.5632812 C8.90859375,23.5632812 8.5734375,23.4195312 8.2859375,23.1320313 C7.9984375,22.8445312 7.8546875,22.509375 7.8546875,22.078125 C7.8546875,21.646875 7.9984375,21.3117187 8.2859375,21.0242187 C8.5734375,20.7367187 8.90859375,20.5929687 9.33984375,20.5929687 C9.77109375,20.5929687 10.10625,20.7367187 10.39375,21.0242187 C10.6328125,21.3117187 10.7765625,21.646875 10.7765625,22.078125 C10.7765625,22.509375 10.6328125,22.8445312 10.3453125,23.0835937 C10.0578125,23.3710937 9.72265625,23.5148437 9.33984375,23.5625 L9.33984375,23.5632812 Z M20.115625,20.59375 C20.115625,20.59375 20.115625,20.59375 20.115625,20.59375 C19.1578125,20.59375 18.34375,20.2585938 17.6734375,19.5882813 C17.003125,18.9179688 16.6679688,18.1039063 16.6679688,17.1460937 C16.6679688,17.1460937 16.6679688,17.1460937 16.6679688,17.1460937 C16.6679688,16.2359375 17.003125,15.421875 17.6734375,14.7515625 C18.34375,14.08125 19.1578125,13.7460938 20.115625,13.7460938 C20.115625,13.7460938 20.115625,13.7460938 20.115625,13.7460938 C21.0257813,13.7460938 21.8398438,14.08125 22.5578125,14.7515625 C23.228125,15.421875 23.5632813,16.2359375 23.5632813,17.1460937 C23.5632813,17.1460937 23.5632813,17.1460937 23.5632813,17.1460937 C23.515625,18.1039063 23.1804688,18.9179688 22.509375,19.5882813 C21.8382813,20.2585938 21.025,20.59375 20.1148437,20.59375 L20.115625,20.59375 Z"/>
  <title>Social</title>
</svg>