<svg xmlns="http://www.w3.org/2000/svg" viewBox="0 0 25 25" id="social-solid">
  <path d="M23.2289062,14.1265625 C23.2289062,14.1265625 23.2289062,14.1265625 23.2289062,14.1265625 C24.090625,14.9882813 24.521875,16.0421875 24.521875,17.2398438 C24.521875,17.2398438 24.521875,17.2398438 24.521875,17.2398438 C24.521875,18.4375 24.090625,19.490625 23.2289062,20.4007813 C23.2289062,20.4007813 23.2289062,20.4007813 23.2289062,20.4007813 C22.3671875,21.2625 21.3132812,21.69375 20.115625,21.69375 C20.115625,21.69375 20.115625,21.69375 20.115625,21.69375 C18.5351562,21.6460938 17.2898437,20.975 16.3796875,19.634375 C16.3796875,19.634375 16.3796875,19.634375 16.3796875,19.634375 C16.3796875,19.634375 11.6859375,21.5023438 11.6859375,21.5023438 C11.7335937,21.7414063 11.7820312,21.9335938 11.7820312,22.0773438 C11.7820312,22.0773438 11.7820312,22.0773438 11.7820312,22.0773438 C11.7820312,22.7476563 11.5429687,23.3226563 11.0632812,23.8015625 C10.5835937,24.2804688 10.009375,24.5203125 9.3390625,24.5203125 C9.3390625,24.5203125 9.3390625,24.5203125 9.3390625,24.5203125 C8.6203125,24.5203125 8.04609375,24.28125 7.5671875,23.8015625 C7.08828125,23.321875 6.8484375,22.7476563 6.8484375,22.0773438 C6.8484375,21.4070313 7.0875,20.8320313 7.5671875,20.353125 C8.046875,19.8742188 8.62109375,19.634375 9.3390625,19.634375 C9.3390625,19.634375 9.3390625,19.634375 9.3390625,19.634375 C10.153125,19.634375 10.8234375,19.9695313 11.3023437,20.5921875 C11.3023437,20.5921875 11.3023437,20.5921875 11.3023437,20.5921875 C11.3023437,20.5921875 15.9960937,18.6289063 15.9960937,18.6289063 C15.8046875,18.15 15.7085937,17.6710938 15.7085937,17.1445313 C15.7085937,17.1445313 15.7085937,17.1445313 15.7085937,17.1445313 C15.7085937,16.6179688 15.8046875,16.090625 15.9960937,15.6117188 C15.9960937,15.6117188 15.9960937,15.6117188 15.9960937,15.6117188 C15.9960937,15.6117188 5.2203125,9.72109375 5.2203125,9.72109375 C4.59765625,10.4398438 3.83125,10.775 2.92109375,10.775 C2.92109375,10.775 2.92109375,10.775 2.92109375,10.775 C2.1546875,10.8226563 1.484375,10.5835938 0.86171875,9.9609375 C0.86171875,9.9609375 0.86171875,9.9609375 0.86171875,9.9609375 C0.28671875,9.3859375 0,8.66796875 0,7.85390625 C0,7.03984375 0.2875,6.32109375 0.86171875,5.746875 C0.86171875,5.746875 0.86171875,5.746875 0.86171875,5.746875 C1.38828125,5.171875 2.059375,4.88515625 2.92109375,4.88515625 C2.92109375,4.88515625 2.92109375,4.88515625 2.92109375,4.88515625 C4.2140625,4.9328125 5.171875,5.55546875 5.69921875,6.753125 C5.69921875,6.753125 5.69921875,6.753125 5.69921875,6.753125 C5.69921875,6.753125 17.6726562,3.0171875 17.6726562,3.0171875 C17.6726562,3.0171875 17.6726562,2.92109375 17.6726562,2.92109375 C17.6726562,2.10703125 17.9601562,1.43671875 18.534375,0.86171875 C19.1085938,0.28671875 19.7796875,0 20.59375,0 C21.4078125,0 22.078125,0.2875 22.653125,0.86171875 C22.653125,0.86171875 22.653125,0.86171875 22.653125,0.86171875 C23.2757812,1.43671875 23.5632812,2.10703125 23.5632812,2.92109375 C23.5632812,2.92109375 23.5632812,2.92109375 23.5632812,2.92109375 C23.5632812,3.73515625 23.2757812,4.45390625 22.7015625,5.028125 C22.1273437,5.60234375 21.4085937,5.88984375 20.5945312,5.88984375 C20.5945312,5.88984375 20.5945312,5.88984375 20.5945312,5.88984375 C20.0195312,5.88984375 19.4929687,5.6984375 18.9664062,5.36328125 C18.9664062,5.36328125 18.9664062,5.36328125 18.9664062,5.36328125 C18.5351562,5.07578125 18.1523437,4.64453125 17.8648437,4.02265625 C17.8648437,4.02265625 17.8648437,4.02265625 17.8648437,4.02265625 C17.8648437,4.02265625 5.89140625,7.75859375 5.89140625,7.75859375 C5.89140625,7.75859375 5.89140625,7.8546875 5.89140625,7.8546875 C5.89140625,8.18984375 5.84375,8.525 5.7,8.90859375 C5.7,8.90859375 5.7,8.90859375 5.7,8.90859375 C5.7,8.90859375 16.3796875,14.7992188 16.3796875,14.7992188 C17.2414062,13.4101563 18.4867187,12.7398438 20.115625,12.7398438 C20.115625,12.7398438 20.115625,12.7398438 20.115625,12.7398438 C21.3609375,12.7875 22.4148437,13.2664063 23.2289062,14.1289063 C23.2289062,14.1289063 23.2289062,14.1289063 23.2289062,14.1289063 L23.2289062,14.1265625 Z"/>
  <title>Social Solid</title>
</svg>