<svg xmlns="http://www.w3.org/2000/svg" viewBox="0 0 25 25" id="speaker-mute">
  <path d="M17.7390625,7.17265625 C17.7390625,7.17265625 18.7445313,5.7359375 18.7445313,5.7359375 C18.7445313,5.7359375 18.7445313,20.1515625 18.7445313,20.1515625 C18.7445313,20.5828125 18.6007812,20.9179688 18.3132813,21.2054687 C18.0257813,21.4929687 17.690625,21.6367187 17.259375,21.6367187 C17.259375,21.6367187 17.259375,21.6367187 17.259375,21.6367187 C16.9242188,21.6367187 16.5890625,21.540625 16.3492188,21.3015625 C16.3492188,21.3015625 16.3492188,21.3015625 16.3492188,21.3015625 C16.3492188,21.3015625 10.9851563,16.8 10.9851563,16.8 C10.9851563,16.8 11.5601563,16.0335937 11.5601563,16.0335937 C11.5601563,16.0335937 16.971875,20.5351562 16.971875,20.5351562 C17.0195313,20.5828125 17.115625,20.63125 17.259375,20.63125 C17.259375,20.63125 17.259375,20.63125 17.259375,20.63125 C17.5945313,20.63125 17.7382812,20.4875 17.7382812,20.1523437 C17.7382812,20.1523437 17.7382812,20.1523437 17.7382812,20.1523437 C17.7382812,20.1523437 17.7382812,7.1734375 17.7382812,7.1734375 L17.7390625,7.17265625 Z M8.1609375,15.7460938 C8.1609375,15.7460938 7.490625,16.7039062 7.490625,16.7039062 C7.490625,16.7039062 5.9578125,16.7039062 5.9578125,16.7039062 C5.71875,16.7039062 5.47890625,16.6078125 5.2875,16.4164063 C5.09609375,16.225 5,15.9851562 5,15.7460938 C5,15.7460938 5,15.7460938 5,15.7460938 C5,15.7460938 5,8.84921875 5,8.84921875 C5,8.61015625 5.09609375,8.3703125 5.2875,8.17890625 C5.47890625,7.9875 5.71875,7.89140625 5.9578125,7.89140625 C5.9578125,7.89140625 5.9578125,7.89140625 5.9578125,7.89140625 C5.9578125,7.89140625 10.890625,7.89140625 10.890625,7.89140625 C10.890625,7.89140625 16.3507813,3.29375 16.3507813,3.29375 C16.5898438,3.15 16.8296875,3.0546875 17.0695313,3.00625 C17.0695313,3.00625 17.0695313,3.00625 17.0695313,3.00625 C17.0695313,3.00625 15.4414063,5.353125 15.4414063,5.353125 C15.4414063,5.353125 11.2265625,8.84921875 11.2265625,8.84921875 C11.2265625,8.84921875 5.95859375,8.84921875 5.95859375,8.84921875 C5.95859375,8.84921875 5.95859375,15.7460938 5.95859375,15.7460938 C5.95859375,15.7460938 8.16171875,15.7460938 8.16171875,15.7460938 L8.1609375,15.7460938 Z M19.559375,2.09609375 C19.559375,2.09609375 19.559375,2.09609375 19.559375,2.09609375 C19.703125,2.23984375 19.7507812,2.33515625 19.7507812,2.47890625 C19.7507812,2.62265625 19.703125,2.71875 19.6546875,2.76640625 C19.6546875,2.76640625 19.6546875,2.76640625 19.6546875,2.76640625 C19.6546875,2.76640625 5.86171875,22.4023438 5.86171875,22.4023438 C5.765625,22.5460938 5.62265625,22.59375 5.47890625,22.59375 C5.47890625,22.59375 5.47890625,22.59375 5.47890625,22.59375 C5.14375,22.59375 5,22.45 5,22.1148437 C5,22.1148437 5,22.1148437 5,22.1148437 C5,21.9710938 5.04765625,21.8757812 5.09609375,21.8273438 C5.09609375,21.8273438 5.09609375,21.8273438 5.09609375,21.8273438 C5.09609375,21.8273438 18.8414062,2.19140625 18.8414062,2.19140625 C18.9375,2.04765625 19.0804688,2 19.2242187,2 C19.2242187,2 19.2242187,2 19.2242187,2 C19.271875,2 19.3679687,2.04765625 19.559375,2.09609375 L19.559375,2.09609375 Z"/>
  <title>Speaker Mute</title>
</svg>