<svg xmlns="http://www.w3.org/2000/svg" viewBox="0 0 25 25" id="speaker-solid">
  <path d="M19.7460938,4.48515625 C19.7460938,4.48515625 19.7460938,4.48515625 19.7460938,4.48515625 C19.7460938,4.48515625 19.7460938,20.19375 19.7460938,20.19375 C19.7460938,20.625 19.6023437,20.9601563 19.3148438,21.2476563 C19.3148438,21.2476563 19.3148438,21.2476563 19.3148438,21.2476563 C19.0757812,21.4867188 18.6921875,21.6304687 18.2609375,21.6304687 C18.2609375,21.6304687 18.2609375,21.6304687 18.2609375,21.6304687 C17.878125,21.6304687 17.590625,21.534375 17.3507813,21.3429688 C17.3507813,21.3429688 17.3507813,21.3429688 17.3507813,21.3429688 C17.3507813,21.3429688 11.890625,16.7453125 11.890625,16.7453125 C11.890625,16.7453125 6.9578125,16.7453125 6.9578125,16.7453125 C6.71875,16.7453125 6.47890625,16.6492187 6.2875,16.4578125 C6.09609375,16.2664063 6,16.0265625 6,15.7875 C6,15.7875 6,15.7875 6,15.7875 C6,15.7875 6,8.890625 6,8.890625 C6,8.6515625 6.09609375,8.41171875 6.2875,8.2203125 C6.47890625,8.02890625 6.71875,7.9328125 6.9578125,7.9328125 C6.9578125,7.9328125 6.9578125,7.9328125 6.9578125,7.9328125 C6.9578125,7.9328125 11.890625,7.9328125 11.890625,7.9328125 C11.890625,7.9328125 17.35,3.33515625 17.35,3.33515625 C17.6851562,3.09609375 18.0203125,3 18.2601562,3 C18.2601562,3 18.2601562,3 18.2601562,3 C18.6914062,3 19.0265625,3.14375 19.3140625,3.43125 C19.6015625,3.71875 19.7453125,4.05390625 19.7453125,4.48515625 L19.7460938,4.48515625 Z"/>
  <title>Speaker Solid</title>
</svg>