<svg xmlns="http://www.w3.org/2000/svg" viewBox="0 0 25 25" id="speaker-on">
  <path d="M19.715625,8.84296875 C19.715625,8.84296875 19.715625,8.84296875 19.715625,8.84296875 C19.715625,8.84296875 19.715625,15.6914063 19.715625,15.6914063 C19.715625,16.0265625 19.5242187,16.2179688 19.1890625,16.2179688 C19.1890625,16.2179688 19.1890625,16.2179688 19.1890625,16.2179688 C18.8539063,16.2179688 18.7101563,16.0265625 18.7101563,15.6914063 C18.7101563,15.6914063 18.7101563,15.6914063 18.7101563,15.6914063 C18.7101563,15.6914063 18.7101563,8.84296875 18.7101563,8.84296875 C18.7101563,8.5078125 18.8539063,8.3640625 19.1890625,8.3640625 C19.1890625,8.3640625 19.1890625,8.3640625 19.1890625,8.3640625 C19.5242187,8.3640625 19.715625,8.5078125 19.715625,8.84296875 Z M22.6367187,6.87890625 C22.6367187,6.87890625 22.6367187,6.87890625 22.6367187,6.87890625 C22.6367187,6.87890625 22.6367187,17.6546875 22.6367187,17.6546875 C22.6367187,17.9898438 22.4929687,18.18125 22.1578125,18.18125 C21.8226562,18.18125 21.6789062,17.9898438 21.6789062,17.6546875 C21.6789062,17.6546875 21.6789062,17.6546875 21.6789062,17.6546875 C21.6789062,17.6546875 21.6789062,6.87890625 21.6789062,6.87890625 C21.6789062,6.54375 21.8226562,6.4 22.1578125,6.4 C22.4929687,6.4 22.6367187,6.54375 22.6367187,6.87890625 Z M15.2609375,3 C15.2609375,3 15.2609375,3 15.2609375,3 C15.6921875,3 16.0273438,3.14375 16.3148438,3.43125 C16.6023437,3.71875 16.7460938,4.05390625 16.7460938,4.48515625 C16.7460938,4.48515625 16.7460938,4.48515625 16.7460938,4.48515625 C16.7460938,4.48515625 16.7460938,20.19375 16.7460938,20.19375 C16.7460938,20.625 16.6023437,20.9601562 16.3148438,21.2476563 C16.0273438,21.5351562 15.6921875,21.6789063 15.2609375,21.6789063 C15.2609375,21.6789063 15.2609375,21.6789063 15.2609375,21.6789063 C14.9257813,21.6789063 14.590625,21.5828125 14.3507813,21.34375 C14.3507813,21.34375 14.3507813,21.34375 14.3507813,21.34375 C14.3507813,21.34375 8.890625,16.7460938 8.890625,16.7460938 C8.890625,16.7460938 3.9578125,16.7460938 3.9578125,16.7460938 C3.71875,16.7460938 3.47890625,16.65 3.2875,16.4585938 C3.09609375,16.2671875 3,16.0273438 3,15.7882813 C3,15.7882813 3,15.7882813 3,15.7882813 C3,15.7882813 3,8.89140625 3,8.89140625 C3,8.65234375 3.09609375,8.4125 3.2875,8.22109375 C3.47890625,8.0296875 3.71875,7.93359375 3.9578125,7.93359375 C3.9578125,7.93359375 3.9578125,7.93359375 3.9578125,7.93359375 C3.9578125,7.93359375 8.890625,7.93359375 8.890625,7.93359375 C8.890625,7.93359375 14.35,3.3359375 14.35,3.3359375 C14.6851562,3.096875 15.0203125,3.00078125 15.2601562,3.00078125 L15.2609375,3 Z M15.7398438,20.1929687 C15.7398438,20.1929687 15.7398438,20.1929687 15.7398438,20.1929687 C15.7398438,20.1929687 15.7398438,4.484375 15.7398438,4.484375 C15.7398438,4.14921875 15.5960937,4.00546875 15.2609375,4.00546875 C15.2609375,4.00546875 15.2609375,4.00546875 15.2609375,4.00546875 C15.2132813,4.00546875 15.1171875,4.053125 14.9257813,4.1015625 C14.9257813,4.1015625 14.9257813,4.1015625 14.9257813,4.1015625 C14.9257813,4.1015625 9.2265625,8.890625 9.2265625,8.890625 C9.2265625,8.890625 3.95859375,8.890625 3.95859375,8.890625 C3.95859375,8.890625 3.95859375,15.7875 3.95859375,15.7875 C3.95859375,15.7875 9.2265625,15.7875 9.2265625,15.7875 C9.2265625,15.7875 14.9734375,20.5765625 14.9734375,20.5765625 C15.0210938,20.6242187 15.1171875,20.6726563 15.2609375,20.6726563 C15.2609375,20.6726563 15.2609375,20.6726563 15.2609375,20.6726563 C15.5960937,20.6726563 15.7398438,20.5289062 15.7398438,20.19375 L15.7398438,20.1929687 Z"/>
  <title>Speaker On</title>
</svg>