<svg xmlns="http://www.w3.org/2000/svg" viewBox="0 0 25 25" id="speaker">
  <path d="M18.2609375,3 C18.2609375,3 18.2609375,3 18.2609375,3 C18.6921875,3 19.0273438,3.14375 19.3148438,3.43125 C19.6023437,3.71875 19.7460938,4.05390625 19.7460938,4.48515625 C19.7460938,4.48515625 19.7460938,4.48515625 19.7460938,4.48515625 C19.7460938,4.48515625 19.7460938,20.19375 19.7460938,20.19375 C19.7460938,20.625 19.6023437,20.9601562 19.3148438,21.2476563 C19.0273438,21.5351562 18.6921875,21.6789063 18.2609375,21.6789063 C18.2609375,21.6789063 18.2609375,21.6789063 18.2609375,21.6789063 C17.9257812,21.6789063 17.590625,21.5828125 17.3507813,21.34375 C17.3507813,21.34375 17.3507813,21.34375 17.3507813,21.34375 C17.3507813,21.34375 11.890625,16.7460938 11.890625,16.7460938 C11.890625,16.7460938 6.9578125,16.7460938 6.9578125,16.7460938 C6.71875,16.7460938 6.47890625,16.65 6.2875,16.4585938 C6.09609375,16.2671875 6,16.0273438 6,15.7882813 C6,15.7882813 6,15.7882813 6,15.7882813 C6,15.7882813 6,8.89140625 6,8.89140625 C6,8.65234375 6.09609375,8.4125 6.2875,8.22109375 C6.47890625,8.0296875 6.71875,7.93359375 6.9578125,7.93359375 C6.9578125,7.93359375 6.9578125,7.93359375 6.9578125,7.93359375 C6.9578125,7.93359375 11.890625,7.93359375 11.890625,7.93359375 C11.890625,7.93359375 17.35,3.3359375 17.35,3.3359375 C17.6851562,3.096875 18.0203125,3.00078125 18.2601562,3.00078125 L18.2609375,3 Z M18.7398437,20.1929687 C18.7398437,20.1929687 18.7398437,20.1929687 18.7398437,20.1929687 C18.7398437,20.1929687 18.7398437,4.484375 18.7398437,4.484375 C18.7398437,4.14921875 18.5960938,4.00546875 18.2609375,4.00546875 C18.2609375,4.00546875 18.2609375,4.00546875 18.2609375,4.00546875 C18.2132813,4.00546875 18.1171875,4.053125 17.9257812,4.1015625 C17.9257812,4.1015625 17.9257812,4.1015625 17.9257812,4.1015625 C17.9257812,4.1015625 12.2265625,8.890625 12.2265625,8.890625 C12.2265625,8.890625 6.95859375,8.890625 6.95859375,8.890625 C6.95859375,8.890625 6.95859375,15.7875 6.95859375,15.7875 C6.95859375,15.7875 12.2265625,15.7875 12.2265625,15.7875 C12.2265625,15.7875 17.9734375,20.5765625 17.9734375,20.5765625 C18.0210938,20.6242187 18.1171875,20.6726563 18.2609375,20.6726563 C18.2609375,20.6726563 18.2609375,20.6726563 18.2609375,20.6726563 C18.5960938,20.6726563 18.7398437,20.5289062 18.7398437,20.19375 L18.7398437,20.1929687 Z"/>
  <title>Speaker</title>
</svg>