<svg xmlns="http://www.w3.org/2000/svg" viewBox="0 0 25 25" id="speaker-mute-solid">
  <path d="M10.9875,16.7992188 C10.9875,16.7992188 18.7460938,5.7359375 18.7460938,5.7359375 C18.7460938,5.7359375 18.7460938,20.1515625 18.7460938,20.1515625 C18.7460938,20.5828125 18.6023437,20.9179688 18.3148438,21.2054687 C18.3148438,21.2054687 18.3148438,21.2054687 18.3148438,21.2054687 C18.0757812,21.4445312 17.6921875,21.5882812 17.2609375,21.5882812 C17.2609375,21.5882812 17.2609375,21.5882812 17.2609375,21.5882812 C16.878125,21.5882812 16.590625,21.4921875 16.3507813,21.3007812 C16.3507813,21.3007812 16.3507813,21.3007812 16.3507813,21.3007812 C16.3507813,21.3007812 10.9867188,16.7992188 10.9867188,16.7992188 L10.9875,16.7992188 Z M17.0695313,3.00625 C17.0695313,3.00625 7.490625,16.7039062 7.490625,16.7039062 C7.490625,16.7039062 5.9578125,16.7039062 5.9578125,16.7039062 C5.71875,16.7039062 5.47890625,16.6078125 5.2875,16.4164063 C5.09609375,16.225 5,15.9851562 5,15.7460938 C5,15.7460938 5,15.7460938 5,15.7460938 C5,15.7460938 5,8.84921875 5,8.84921875 C5,8.61015625 5.09609375,8.3703125 5.2875,8.17890625 C5.47890625,7.9875 5.71875,7.89140625 5.9578125,7.89140625 C5.9578125,7.89140625 5.9578125,7.89140625 5.9578125,7.89140625 C5.9578125,7.89140625 10.890625,7.89140625 10.890625,7.89140625 C10.890625,7.89140625 16.35,3.29375 16.35,3.29375 C16.5890625,3.15 16.8289063,3.0546875 17.06875,3.00625 C17.06875,3.00625 17.06875,3.00625 17.06875,3.00625 L17.0695313,3.00625 Z M19.5601562,2.09609375 C19.5601562,2.09609375 19.5601562,2.09609375 19.5601562,2.09609375 C19.7039062,2.23984375 19.7515625,2.33515625 19.7515625,2.47890625 C19.7515625,2.62265625 19.7039062,2.71875 19.6554687,2.76640625 C19.6554687,2.76640625 19.6554687,2.76640625 19.6554687,2.76640625 C19.6554687,2.76640625 5.8625,22.4023438 5.8625,22.4023438 C5.76640625,22.5460938 5.6234375,22.59375 5.4796875,22.59375 C5.4796875,22.59375 5.4796875,22.59375 5.4796875,22.59375 C5.14453125,22.59375 5.00078125,22.45 5.00078125,22.1148437 C5.00078125,22.1148437 5.00078125,22.1148437 5.00078125,22.1148437 C5.00078125,21.9710938 5.0484375,21.8757812 5.096875,21.8273438 C5.096875,21.8273438 5.096875,21.8273438 5.096875,21.8273438 C5.096875,21.8273438 18.8421875,2.19140625 18.8421875,2.19140625 C18.9382812,2.04765625 19.08125,2 19.225,2 C19.225,2 19.225,2 19.225,2 C19.2726562,2 19.36875,2.04765625 19.5601562,2.09609375 L19.5601562,2.09609375 Z"/>
  <title>Speaker Mute Solid</title>
</svg>