<svg xmlns="http://www.w3.org/2000/svg" viewBox="0 0 25 25" id="speaker-on-solid">
  <path d="M19.1882813,9.32265625 C19.1882813,9.32265625 19.1882813,9.32265625 19.1882813,9.32265625 C19.5234375,9.32265625 19.7148438,9.5140625 19.7148438,9.84921875 C19.7148438,9.84921875 19.7148438,9.84921875 19.7148438,9.84921875 C19.7148438,9.84921875 19.7148438,16.6976563 19.7148438,16.6976563 C19.7148438,17.0328125 19.5234375,17.1765625 19.1882813,17.1765625 C19.1882813,17.1765625 19.1882813,17.1765625 19.1882813,17.1765625 C18.853125,17.1765625 18.709375,17.0328125 18.709375,16.6976563 C18.709375,16.6976563 18.709375,16.6976563 18.709375,16.6976563 C18.709375,16.6976563 18.709375,9.84921875 18.709375,9.84921875 C18.709375,9.5140625 18.853125,9.32265625 19.1882813,9.32265625 Z M22.6367187,7.8859375 C22.6367187,7.8859375 22.6367187,7.8859375 22.6367187,7.8859375 C22.6367187,7.8859375 22.6367187,18.6617188 22.6367187,18.6617188 C22.6367187,18.996875 22.4929687,19.140625 22.1578125,19.140625 C21.8226562,19.140625 21.6789062,18.996875 21.6789062,18.6617188 C21.6789062,18.6617188 21.6789062,18.6617188 21.6789062,18.6617188 C21.6789062,18.6617188 21.6789062,7.8859375 21.6789062,7.8859375 C21.6789062,7.55078125 21.8226562,7.359375 22.1578125,7.359375 C22.4929687,7.359375 22.6367187,7.55078125 22.6367187,7.8859375 Z M16.7460938,4.48515625 C16.7460938,4.48515625 16.7460938,4.48515625 16.7460938,4.48515625 C16.7460938,4.48515625 16.7460938,20.19375 16.7460938,20.19375 C16.7460938,20.625 16.6023437,20.9601563 16.3148438,21.2476563 C16.3148438,21.2476563 16.3148438,21.2476563 16.3148438,21.2476563 C16.0757812,21.4867188 15.6921875,21.6304687 15.2609375,21.6304687 C15.2609375,21.6304687 15.2609375,21.6304687 15.2609375,21.6304687 C14.878125,21.6304687 14.590625,21.534375 14.3507813,21.3429688 C14.3507813,21.3429688 14.3507813,21.3429688 14.3507813,21.3429688 C14.3507813,21.3429688 8.890625,16.7453125 8.890625,16.7453125 C8.890625,16.7453125 3.9578125,16.7453125 3.9578125,16.7453125 C3.71875,16.7453125 3.47890625,16.6492187 3.2875,16.4578125 C3.09609375,16.2664063 3,16.0265625 3,15.7875 C3,15.7875 3,15.7875 3,15.7875 C3,15.7875 3,8.890625 3,8.890625 C3,8.6515625 3.09609375,8.41171875 3.2875,8.2203125 C3.47890625,8.02890625 3.71875,7.9328125 3.9578125,7.9328125 C3.9578125,7.9328125 3.9578125,7.9328125 3.9578125,7.9328125 C3.9578125,7.9328125 8.890625,7.9328125 8.890625,7.9328125 C8.890625,7.9328125 14.35,3.33515625 14.35,3.33515625 C14.6851562,3.09609375 15.0203125,3 15.2601562,3 C15.2601562,3 15.2601562,3 15.2601562,3 C15.6914062,3 16.0265625,3.14375 16.3140625,3.43125 C16.6015625,3.71875 16.7453125,4.05390625 16.7453125,4.48515625 L16.7460938,4.48515625 Z"/>
  <title>Speaker On Solid</title>
</svg>