<svg xmlns="http://www.w3.org/2000/svg" viewBox="0 0 25 25" id="spellcheck">
  <path d="M23.6953125,8.31640625 C23.6953125,8.31640625 23.025,7.64609375 23.025,7.64609375 C23.025,7.64609375 10.2375,20.3851562 10.2375,20.3851562 C10.2375,20.3851562 3.3890625,13.5367188 3.3890625,13.5367188 C3.3890625,13.5367188 2.71875,14.2070313 2.71875,14.2070313 C2.71875,14.2070313 10.2382813,21.7742188 10.2382813,21.7742188 C10.2382813,21.7742188 23.6960938,8.31640625 23.6960938,8.31640625 L23.6953125,8.31640625 Z M5.25625,6.92734375 C5.25625,6.92734375 5.9265625,8.890625 5.9265625,8.890625 C5.9265625,8.890625 6.884375,8.890625 6.884375,8.890625 C6.884375,8.890625 4.92109375,3 4.92109375,3 C4.92109375,3 3.96328125,3 3.96328125,3 C3.96328125,3 2,8.890625 2,8.890625 C2,8.890625 2.9578125,8.890625 2.9578125,8.890625 C2.9578125,8.890625 3.58046875,6.92734375 3.58046875,6.92734375 C3.58046875,6.92734375 5.25703125,6.92734375 5.25703125,6.92734375 L5.25625,6.92734375 Z M4.92109375,5.921875 C4.92109375,5.921875 3.96328125,5.921875 3.96328125,5.921875 C3.96328125,5.921875 4.4421875,4.29375 4.4421875,4.29375 C4.4421875,4.29375 4.92109375,5.921875 4.92109375,5.921875 L4.92109375,5.921875 Z M16.7023438,8.890625 C16.7023438,8.890625 16.7023438,7.88515625 16.7023438,7.88515625 C16.7023438,7.88515625 13.78125,7.88515625 13.78125,7.88515625 C13.78125,7.88515625 13.78125,3.9578125 13.78125,3.9578125 C13.78125,3.9578125 16.7023438,3.9578125 16.7023438,3.9578125 C16.7023438,3.9578125 16.7023438,3 16.7023438,3 C16.7023438,3 14.2601563,3 14.2601563,3 C13.8289063,3 13.49375,3.14375 13.20625,3.43125 C12.91875,3.71875 12.775,4.05390625 12.775,4.48515625 C12.775,4.48515625 12.775,4.48515625 12.775,4.48515625 C12.775,4.48515625 12.775,7.40625 12.775,7.40625 C12.775,7.8375 12.91875,8.17265625 13.20625,8.46015625 C13.49375,8.74765625 13.8289063,8.89140625 14.2601563,8.89140625 C14.2601563,8.89140625 14.2601563,8.89140625 14.2601563,8.89140625 C14.2601563,8.89140625 16.7023438,8.89140625 16.7023438,8.89140625 L16.7023438,8.890625 Z M11.8171875,4.48515625 C11.8171875,4.48515625 11.8171875,4.48515625 11.8171875,4.48515625 C11.8171875,4.05390625 11.6734375,3.71875 11.3859375,3.43125 C11.0984375,3.14375 10.7632813,3 10.3320312,3 C10.3320312,3 10.3320312,3 10.3320312,3 C10.3320312,3 7.88984375,3 7.88984375,3 C7.88984375,3 7.88984375,8.890625 7.88984375,8.890625 C7.88984375,8.890625 10.3320312,8.890625 10.3320312,8.890625 C10.7632813,8.890625 11.0984375,8.746875 11.3859375,8.459375 C11.6734375,8.171875 11.8171875,7.83671875 11.8171875,7.40546875 C11.8171875,7.40546875 11.8171875,7.40546875 11.8171875,7.40546875 C11.8171875,7.40546875 11.8171875,6.44765625 11.8171875,6.44765625 C11.8171875,6.1125 11.6734375,5.77734375 11.434375,5.4421875 C11.434375,5.4421875 11.434375,5.4421875 11.434375,5.4421875 C11.6734375,5.203125 11.8171875,4.8671875 11.8171875,4.484375 L11.8171875,4.48515625 Z M10.8117188,5.921875 C10.8117188,5.921875 10.8117188,7.40625 10.8117188,7.40625 C10.8117188,7.40625 10.8117188,7.88515625 10.8117188,7.88515625 C10.8117188,7.88515625 8.8484375,7.88515625 8.8484375,7.88515625 C8.8484375,7.88515625 8.8484375,5.921875 8.8484375,5.921875 C8.8484375,5.921875 10.8117188,5.921875 10.8117188,5.921875 Z M10.8117188,3.9578125 C10.8117188,3.9578125 10.8117188,4.484375 10.8117188,4.484375 C10.8117188,4.484375 10.8117188,4.96328125 10.8117188,4.96328125 C10.8117188,4.96328125 8.8484375,4.96328125 8.8484375,4.96328125 C8.8484375,4.96328125 8.8484375,3.9578125 8.8484375,3.9578125 C8.8484375,3.9578125 10.8117188,3.9578125 10.8117188,3.9578125 L10.8117188,3.9578125 Z"/>
  <title>Spellcheck</title>
</svg>