<svg xmlns="http://www.w3.org/2000/svg" viewBox="0 0 25 25" id="square-solid">
  <path d="M19.7515625,6.48515625 C19.7515625,6.48515625 19.7515625,6.48515625 19.7515625,6.48515625 C19.7515625,6.48515625 19.7515625,18.2664063 19.7515625,18.2664063 C19.7515625,18.6976563 19.6078125,19.0328125 19.3203125,19.3203125 C19.0328125,19.6078125 18.6976563,19.7515625 18.2664063,19.7515625 C18.2664063,19.7515625 18.2664063,19.7515625 18.2664063,19.7515625 C18.2664063,19.7515625 6.48515625,19.7515625 6.48515625,19.7515625 C6.05390625,19.7515625 5.71875,19.6078125 5.43125,19.3203125 C5.14375,19.0328125 5,18.6976563 5,18.2664063 C5,18.2664063 5,18.2664063 5,18.2664063 C5,18.2664063 5,6.48515625 5,6.48515625 C5,6.05390625 5.14375,5.71875 5.43125,5.43125 C5.71875,5.14375 6.05390625,5 6.48515625,5 C6.48515625,5 6.48515625,5 6.48515625,5 C6.48515625,5 18.2664063,5 18.2664063,5 C18.6976563,5 19.0328125,5.14375 19.3203125,5.43125 C19.6078125,5.71875 19.7515625,6.05390625 19.7515625,6.48515625 Z"/>
  <title>Square Solid</title>
</svg>