<svg xmlns="http://www.w3.org/2000/svg" viewBox="0 0 25 25" id="square">
  <path d="M6.48515625,5 C6.48515625,5 18.2664063,5 18.2664063,5 C18.6976563,5 19.0328125,5.14375 19.3203125,5.43125 C19.6078125,5.71875 19.7515625,6.05390625 19.7515625,6.48515625 C19.7515625,6.48515625 19.7515625,6.48515625 19.7515625,6.48515625 C19.7515625,6.48515625 19.7515625,18.2664062 19.7515625,18.2664062 C19.7515625,18.6976563 19.6078125,19.0328125 19.3203125,19.3203125 C19.0328125,19.6078125 18.6976563,19.7515625 18.2664063,19.7515625 C18.2664063,19.7515625 18.2664063,19.7515625 18.2664063,19.7515625 C18.2664063,19.7515625 6.48515625,19.7515625 6.48515625,19.7515625 C6.05390625,19.7515625 5.71875,19.6078125 5.43125,19.3203125 C5.14375,19.0328125 5,18.6976563 5,18.2664062 C5,18.2664062 5,18.2664062 5,18.2664062 C5,18.2664062 5,6.48515625 5,6.48515625 C5,6.05390625 5.14375,5.71875 5.43125,5.43125 C5.71875,5.14375 6.05390625,5 6.48515625,5 C6.48515625,5 6.48515625,5 6.48515625,5 Z M18.7460938,18.2664063 C18.7460938,18.2664063 18.7460938,18.2664063 18.7460938,18.2664063 C18.7460938,18.2664063 18.7460938,6.48515625 18.7460938,6.48515625 C18.7460938,6.15 18.6023438,6.00625 18.2671875,6.00625 C18.2671875,6.00625 18.2671875,6.00625 18.2671875,6.00625 C18.2671875,6.00625 6.4859375,6.00625 6.4859375,6.00625 C6.15078125,6.00625 6.00703125,6.15 6.00703125,6.48515625 C6.00703125,6.48515625 6.00703125,6.48515625 6.00703125,6.48515625 C6.00703125,6.48515625 6.00703125,18.2664063 6.00703125,18.2664063 C6.00703125,18.6015625 6.15078125,18.7453125 6.4859375,18.7453125 C6.4859375,18.7453125 6.4859375,18.7453125 6.4859375,18.7453125 C6.4859375,18.7453125 18.2671875,18.7453125 18.2671875,18.7453125 C18.6023438,18.7453125 18.7460938,18.6015625 18.7460938,18.2664063 Z"/>
  <title>Square</title>
</svg>