<svg xmlns="http://www.w3.org/2000/svg" viewBox="0 0 25 25" id="star">
  <path d="M24.1328125,9.09453125 C24.1328125,9.09453125 24.1328125,9.09453125 24.1328125,9.09453125 C24.1328125,9.09453125 16.6132812,7.896875 16.6132812,7.896875 C16.6132812,7.896875 13.2132812,1.2875 13.2132812,1.2875 C13.1171875,1.09609375 12.9742187,1 12.7820312,1 C12.7820312,1 12.7820312,1 12.7820312,1 C12.5429687,1 12.3992187,1.09609375 12.3507813,1.2390625 C12.3507813,1.2390625 12.3507813,1.2390625 12.3507813,1.2390625 C12.3507813,1.2390625 8.95078125,7.89609375 8.95078125,7.89609375 C8.95078125,7.89609375 1.43125,9.09375 1.43125,9.09375 C1.14375,9.14140625 1,9.3328125 1,9.57265625 C1,9.57265625 1,9.57265625 1,9.57265625 C1,9.71640625 1.04765625,9.86015625 1.14375,9.95546875 C1.14375,9.95546875 1.14375,9.95546875 1.14375,9.95546875 C1.14375,9.95546875 6.890625,15.0320312 6.890625,15.0320312 C6.890625,15.0320312 5.31015625,22.9820312 5.31015625,22.9820312 C5.31015625,22.9820312 5.31015625,23.078125 5.31015625,23.078125 C5.31015625,23.4132812 5.45390625,23.5570313 5.7890625,23.5570313 C5.7890625,23.5570313 5.7890625,23.5570313 5.7890625,23.5570313 C5.88515625,23.5570313 5.98046875,23.5570313 6.028125,23.509375 C6.028125,23.509375 6.028125,23.509375 6.028125,23.509375 C6.028125,23.509375 12.7328125,20.0132812 12.7328125,20.0132812 C12.7328125,20.0132812 19.4859375,23.509375 19.4859375,23.509375 C19.5335937,23.5570313 19.5820312,23.5570313 19.725,23.5570313 C19.725,23.5570313 19.725,23.5570313 19.725,23.5570313 C20.0601562,23.5570313 20.2039062,23.4132813 20.2039062,23.078125 C20.2039062,23.078125 20.2039062,23.078125 20.2039062,23.078125 C20.2039062,23.078125 20.2039062,22.9820312 20.2039062,22.9820312 C20.2039062,22.9820312 18.6710938,15.0320313 18.6710938,15.0320313 C18.6710938,15.0320313 24.3703125,9.95546875 24.3703125,9.95546875 C24.5140625,9.81171875 24.5617188,9.71640625 24.5617188,9.57265625 C24.5617188,9.57265625 24.5617188,9.57265625 24.5617188,9.57265625 C24.5617188,9.33359375 24.4179688,9.14140625 24.1304688,9.09375 L24.1328125,9.09453125 Z M22.9359375,9.90859375 C22.9359375,9.90859375 18.003125,14.3148437 18.003125,14.3148437 C18.003125,14.3148437 17.571875,14.6976562 17.571875,14.6976562 C17.571875,14.6976562 19.0085937,22.16875 19.0085937,22.16875 C19.0085937,22.16875 12.734375,18.9117187 12.734375,18.9117187 C12.734375,18.9117187 6.46015625,22.16875 6.46015625,22.16875 C6.46015625,22.16875 7.94453125,14.6976562 7.94453125,14.6976562 C7.94453125,14.6976562 2.58046875,9.90859375 2.58046875,9.90859375 C2.58046875,9.90859375 9.57265625,8.759375 9.57265625,8.759375 C9.57265625,8.759375 9.81171875,8.328125 9.81171875,8.328125 C9.81171875,8.328125 12.78125,2.58125 12.78125,2.58125 C12.78125,2.58125 15.9421875,8.759375 15.9421875,8.759375 C15.9421875,8.759375 22.934375,9.90859375 22.934375,9.90859375 L22.9359375,9.90859375 Z"/>
  <title>Star</title>
</svg>