<svg xmlns="http://www.w3.org/2000/svg" viewBox="0 0 25 25" id="star-mixed">
  <path d="M16.6125,7.89765625 C16.6125,7.89765625 24.1320313,9.0953125 24.1320313,9.0953125 C24.4195312,9.19140625 24.5632812,9.334375 24.5632812,9.57421875 C24.5632812,9.57421875 24.5632812,9.57421875 24.5632812,9.57421875 C24.5632812,9.71796875 24.515625,9.86171875 24.371875,9.95703125 C24.371875,9.95703125 24.371875,9.95703125 24.371875,9.95703125 C24.371875,9.95703125 18.6726562,15.0335938 18.6726562,15.0335938 C18.6726562,15.0335938 20.2054688,22.9835938 20.2054688,22.9835938 C20.2054688,22.9835938 20.2054688,23.0796875 20.2054688,23.0796875 C20.2054688,23.4148438 20.0617188,23.5585938 19.7265625,23.5585938 C19.7265625,23.5585938 19.7265625,23.5585938 19.7265625,23.5585938 C19.5828125,23.5585938 19.5351562,23.5585938 19.4875,23.5109375 C19.4875,23.5109375 19.4875,23.5109375 19.4875,23.5109375 C19.4875,23.5109375 12.734375,20.0148438 12.734375,20.0148438 C12.734375,20.0148438 6.0296875,23.5109375 6.0296875,23.5109375 C5.98203125,23.5585938 5.93359375,23.5585938 5.790625,23.5585938 C5.790625,23.5585938 5.790625,23.5585938 5.790625,23.5585938 C5.45546875,23.5585938 5.31171875,23.4148438 5.31171875,23.0796875 C5.31171875,23.0796875 5.31171875,23.0796875 5.31171875,23.0796875 C5.31171875,23.0796875 5.31171875,22.9835938 5.31171875,22.9835938 C5.31171875,22.9835938 6.8921875,15.0335938 6.8921875,15.0335938 C6.8921875,15.0335938 1.1453125,9.95703125 1.1453125,9.95703125 C1.04921875,9.8609375 1.0015625,9.71796875 1.0015625,9.57421875 C1.0015625,9.57421875 1.0015625,9.57421875 1.0015625,9.57421875 C1.0015625,9.33515625 1.1453125,9.19140625 1.4328125,9.0953125 C1.4328125,9.0953125 1.4328125,9.0953125 1.4328125,9.0953125 C1.4328125,9.0953125 8.95234375,7.89765625 8.95234375,7.89765625 C8.95234375,7.89765625 12.3523437,1.240625 12.3523437,1.240625 C12.4,1.096875 12.54375,1.0015625 12.7835937,1.0015625 C12.7835937,1.0015625 12.7835937,1.0015625 12.7835937,1.0015625 C12.975,1.0015625 13.11875,1.09765625 13.2148437,1.2890625 C13.2148437,1.2890625 13.2148437,1.2890625 13.2148437,1.2890625 C13.2148437,1.2890625 16.6148437,7.8984375 16.6148437,7.8984375 L16.6125,7.89765625 Z M17.5703125,14.6984375 C17.5703125,14.6984375 18.0015625,14.315625 18.0015625,14.315625 C18.0015625,14.315625 22.934375,9.909375 22.934375,9.909375 C22.934375,9.909375 15.9421875,8.76015625 15.9421875,8.76015625 C15.9421875,8.76015625 12.78125,2.58203125 12.78125,2.58203125 C12.78125,2.58203125 9.81171875,8.32890625 9.81171875,8.32890625 C9.81171875,8.32890625 9.57265625,8.76015625 9.57265625,8.76015625 C9.57265625,8.76015625 2.58046875,9.909375 2.58046875,9.909375 C2.58046875,9.909375 7.94453125,14.6984375 7.94453125,14.6984375 C7.94453125,14.6984375 6.46015625,22.1695313 6.46015625,22.1695313 C6.46015625,22.1695313 12.734375,18.9125 12.734375,18.9125 C12.734375,18.9125 19.0085938,22.1695313 19.0085938,22.1695313 C19.0085938,22.1695313 17.571875,14.6984375 17.571875,14.6984375 L17.5703125,14.6984375 Z M12.7804687,1.00078125 C12.7804687,1.00078125 12.7804687,20.0617188 12.7804687,20.0617188 C12.7804687,20.0617188 12.7328125,20.0140625 12.7328125,20.0140625 C12.7328125,20.0140625 6.028125,23.5101563 6.028125,23.5101563 C5.98046875,23.5101563 5.98046875,23.5101563 5.98046875,23.5101563 C5.98046875,23.5578125 5.98046875,23.5578125 5.9328125,23.5578125 C5.9328125,23.5578125 5.9328125,23.5578125 5.9328125,23.5578125 C5.9328125,23.5578125 5.7890625,23.5578125 5.7890625,23.5578125 C5.45390625,23.5578125 5.31015625,23.4140625 5.31015625,23.0789062 C5.31015625,23.0789062 5.31015625,23.0789062 5.31015625,23.0789062 C5.31015625,23.0789062 5.31015625,22.9828125 5.31015625,22.9828125 C5.31015625,22.9828125 6.890625,15.0328125 6.890625,15.0328125 C6.890625,15.0328125 1.14375,9.95625 1.14375,9.95625 C1.04765625,9.86015625 1,9.7171875 1,9.5734375 C1,9.5734375 1,9.5734375 1,9.5734375 C1,9.334375 1.14375,9.190625 1.43125,9.09453125 C1.43125,9.09453125 1.43125,9.09453125 1.43125,9.09453125 C1.43125,9.09453125 8.95078125,7.896875 8.95078125,7.896875 C8.95078125,7.896875 12.3507812,1.2875 12.3507812,1.2875 C12.3984375,1.14375 12.5421875,1.0484375 12.7820312,1 C12.7820312,1 12.7820312,1 12.7820312,1 L12.7804687,1.00078125 Z"/>
  <title>Star Mixed</title>
</svg>