<svg xmlns="http://www.w3.org/2000/svg" viewBox="0 0 25 25" id="steps">
  <path d="M14.81875,11.6804687 C14.81875,11.6804687 18.9851563,13.0695313 18.9851563,13.0695313 C19.08125,12.734375 19.2726563,12.015625 19.6078125,10.9140625 C19.9429688,9.86015625 20.1828125,8.90234375 20.421875,8.040625 C20.6132813,7.2265625 20.709375,6.5078125 20.709375,5.93359375 C20.709375,5.93359375 20.709375,5.93359375 20.709375,5.93359375 C20.709375,4.7359375 20.278125,3.58671875 19.4640625,2.5328125 C18.65,1.52734375 17.7398438,1 16.7820313,1 C16.7820313,1 16.7820313,1 16.7820313,1 C16.7820313,1 16.6859375,1 16.6859375,1 C15.871875,1 15.2015625,1.2875 14.6742188,1.8140625 C14.0992188,2.3890625 13.8125,3.059375 13.8125,3.8734375 C13.8125,3.8734375 13.8125,3.8734375 13.8125,3.8734375 C13.8125,3.8734375 13.8125,3.96953125 13.8125,3.96953125 C13.8125,4.5921875 14.0039062,5.9328125 14.3390625,7.896875 C14.6742187,9.8609375 14.8179687,11.1539063 14.8179687,11.6804688 C14.8179687,11.6804688 14.8179687,11.6804688 14.8179687,11.6804688 L14.81875,11.6804687 Z M16.6867187,2.00546875 C16.6867187,2.00546875 16.7828125,2.00546875 16.7828125,2.00546875 C17.4054688,2.00546875 18.0757812,2.43671875 18.7460938,3.25078125 C19.36875,4.06484375 19.7039062,4.975 19.7039062,5.9328125 C19.7039062,5.9328125 19.7039062,5.9328125 19.7039062,5.9328125 C19.5125,7.75234375 19.08125,9.525 18.4585937,11.296875 C18.4585937,11.296875 18.4585937,11.296875 18.4585937,11.296875 C18.4585937,11.296875 18.4109375,11.3929687 18.4109375,11.3929687 C18.4109375,11.440625 18.4109375,11.5367187 18.3632812,11.584375 C18.315625,11.6804687 18.315625,11.7757812 18.315625,11.8234375 C18.315625,11.8234375 18.315625,11.8234375 18.315625,11.8234375 C18.315625,11.8234375 15.7296875,10.9617187 15.7296875,10.9617187 C15.6820312,10.4828125 15.5382812,9.47734375 15.2984375,7.896875 C15.2984375,7.896875 15.2984375,7.896875 15.2984375,7.896875 C15.059375,6.89140625 14.915625,5.64609375 14.8195313,4.065625 C14.8195313,4.065625 14.8195313,4.065625 14.8195313,4.065625 C14.8195313,4.065625 14.8195313,3.921875 14.8195313,3.921875 C14.8195313,3.3953125 15.0109375,2.91640625 15.3945313,2.5328125 C15.7296875,2.19765625 16.1609375,2.00625 16.6875,2.00625 C16.6875,2.00625 16.6875,2.00625 16.6875,2.00625 L16.6867187,2.00546875 Z M18.9375,15.846875 C18.9375,15.846875 18.79375,14.9851562 18.79375,14.9851562 C18.79375,14.9851562 14.6273437,13.5960937 14.6273437,13.5960937 C14.4835937,14.79375 14.3398438,15.559375 14.2921875,15.8953125 C14.2921875,15.8953125 14.2921875,15.8953125 14.2921875,15.8953125 C14.2921875,15.9429688 14.2921875,15.9914063 14.2921875,16.0867188 C14.2445312,16.1828125 14.2445312,16.278125 14.2445312,16.3257813 C14.2445312,16.3257813 14.2445312,16.3257813 14.2445312,16.3257813 C14.2445312,16.9007813 14.4359375,17.3796875 14.8195313,17.8101563 C15.203125,18.240625 15.68125,18.5289063 16.2085937,18.6242188 C16.2085937,18.6242188 16.2085937,18.6242188 16.2085937,18.6242188 C16.3046875,18.671875 16.4476563,18.671875 16.6398437,18.671875 C16.6398437,18.671875 16.6398437,18.671875 16.6398437,18.671875 C17.2625,18.671875 17.8375,18.4328125 18.3164062,17.953125 C18.7476562,17.521875 18.9867188,16.9476563 18.9867188,16.325 C18.9867188,16.325 18.9867188,16.325 18.9867188,16.325 C18.9867188,16.2773438 18.9867188,16.2289063 18.9867188,16.0859375 C18.9390625,15.9421875 18.9390625,15.8945312 18.9390625,15.846875 C18.9390625,15.846875 18.9390625,15.846875 18.9390625,15.846875 L18.9375,15.846875 Z M17.6921875,17.1875 C17.6921875,17.1875 17.6921875,17.1875 17.6921875,17.1875 C17.453125,17.5226562 17.0695313,17.7140625 16.6382813,17.7140625 C16.6382813,17.7140625 16.6382813,17.7140625 16.6382813,17.7140625 C16.590625,17.7140625 16.5421875,17.7140625 16.4945313,17.7140625 C16.4945313,17.7140625 16.4945313,17.7140625 16.4945313,17.7140625 C16.4945313,17.7140625 16.3984375,17.6664062 16.3984375,17.6664062 C16.0632813,17.61875 15.8234375,17.475 15.584375,17.2351562 C15.3453125,16.9953125 15.2492188,16.6601562 15.2492188,16.325 C15.2492188,16.325 15.2492188,16.325 15.2492188,16.325 C15.2492188,16.325 15.2492188,16.0375 15.2492188,16.0375 C15.296875,15.7984375 15.3929688,15.4625 15.440625,14.9359375 C15.440625,14.9359375 15.440625,14.9359375 15.440625,14.9359375 C15.440625,14.9359375 17.93125,15.75 17.93125,15.75 C17.93125,15.89375 17.93125,15.9890625 17.9789063,16.0851562 C17.9789063,16.0851562 17.9789063,16.0851562 17.9789063,16.0851562 C17.9789063,16.0851562 17.9789063,16.3242188 17.9789063,16.3242188 C17.9789063,16.659375 17.8828125,16.946875 17.6914062,17.1859375 L17.6921875,17.1875 Z M9.0234375,6.890625 C9.0234375,6.890625 8.92734375,6.890625 8.92734375,6.890625 C7.96953125,6.890625 7.059375,7.4171875 6.2453125,8.4234375 C5.43125,9.47734375 5,10.6265625 5,11.8242187 C5,11.8242187 5,11.8242187 5,11.8242187 C5,12.3992187 5.09609375,13.0695312 5.2875,13.8835937 C5.43125,14.6976562 5.71875,15.6554687 6.1015625,16.853125 C6.43671875,18.0507812 6.6765625,18.76875 6.72421875,18.9601562 C6.72421875,18.9601562 6.72421875,18.9601562 6.72421875,18.9601562 C6.72421875,18.9601562 10.890625,17.5710937 10.890625,17.5710937 C10.890625,17.0445312 11.034375,15.7515625 11.3695312,13.7398438 C11.7046875,11.7765625 11.8484375,10.4828125 11.8484375,9.86015625 C11.8484375,9.86015625 11.8484375,9.86015625 11.8484375,9.86015625 C11.8484375,9.86015625 11.8484375,9.7640625 11.8484375,9.7640625 C11.8484375,8.95 11.5609375,8.2796875 11.034375,7.7046875 C10.5078125,7.178125 9.83671875,6.890625 9.02265625,6.890625 C9.02265625,6.890625 9.02265625,6.890625 9.02265625,6.890625 L9.0234375,6.890625 Z M10.3648437,13.9789063 C10.3648437,13.9789063 10.4125,13.7875 10.4125,13.7875 C10.125,15.4640625 9.98125,16.4695313 9.93359375,16.8523438 C9.93359375,16.8523438 9.93359375,16.8523438 9.93359375,16.8523438 C9.93359375,16.8523438 7.3953125,17.7140625 7.3953125,17.7140625 C7.34765625,17.6179688 7.34765625,17.475 7.29921875,17.33125 C7.25078125,17.1875 7.203125,17.04375 7.15546875,16.9960938 C7.15546875,16.9960938 7.15546875,16.9960938 7.15546875,16.9960938 C6.58046875,15.3679688 6.19765625,13.6914063 6.00625,11.9195313 C6.00625,11.9195313 6.00625,11.9195313 6.00625,11.9195313 C5.95859375,10.9140625 6.29375,9.95625 6.9640625,9.14140625 C7.58671875,8.32734375 8.25703125,7.89609375 8.92734375,7.89609375 C8.92734375,7.89609375 8.92734375,7.89609375 8.92734375,7.89609375 C8.92734375,7.89609375 8.975,7.89609375 8.975,7.89609375 C9.5015625,7.89609375 9.98046875,8.0875 10.3640625,8.42265625 C10.6992188,8.80546875 10.890625,9.284375 10.890625,9.81171875 C10.890625,9.81171875 10.890625,9.81171875 10.890625,9.81171875 C10.890625,9.81171875 10.890625,9.859375 10.890625,9.859375 C10.7945313,11.1046875 10.603125,12.49375 10.3640625,13.978125 C10.3640625,13.978125 10.3640625,13.978125 10.3640625,13.978125 L10.3648437,13.9789063 Z M11.0351562,19.4867188 C11.0351562,19.4867188 11.0351562,19.4867188 11.0351562,19.4867188 C11.0351562,19.4867188 6.91640625,20.8757812 6.91640625,20.8757812 C6.86875,21.2585937 6.8203125,21.5460938 6.77265625,21.7859375 C6.77265625,21.7859375 6.77265625,21.7859375 6.77265625,21.7859375 C6.725,21.8335937 6.725,21.9773437 6.725,22.2171875 C6.725,22.2171875 6.725,22.2171875 6.725,22.2171875 C6.725,22.8398438 6.9640625,23.4148437 7.44375,23.8453125 C7.875,24.3242187 8.44921875,24.5640625 9.071875,24.5640625 C9.071875,24.5640625 9.071875,24.5640625 9.071875,24.5640625 C9.26328125,24.5640625 9.40703125,24.5640625 9.4546875,24.5164062 C9.4546875,24.5164062 9.4546875,24.5164062 9.4546875,24.5164062 C10.0296875,24.4203125 10.5085938,24.1335937 10.8914063,23.7023437 C11.2265625,23.2710937 11.4179688,22.7921875 11.4179688,22.2179688 C11.4179688,22.2179688 11.4179688,22.2179688 11.4179688,22.2179688 C11.4179688,21.9789062 11.4179688,21.8351563 11.3703125,21.7390625 C11.3703125,21.7390625 11.3703125,21.7390625 11.3703125,21.7390625 C11.1789063,20.49375 11.0828125,19.7273438 11.0351562,19.4882812 L11.0351562,19.4867188 Z M10.1734375,22.9828125 C10.1734375,22.9828125 10.2210937,22.9828125 10.2210937,22.9828125 C9.93359375,23.3179687 9.64609375,23.509375 9.3109375,23.5578125 C9.3109375,23.5578125 9.3109375,23.5578125 9.3109375,23.5578125 C9.3109375,23.5578125 9.071875,23.5578125 9.071875,23.5578125 C8.640625,23.5578125 8.2578125,23.4140625 8.01796875,23.0789063 C8.01796875,23.0789063 8.01796875,23.0789063 8.01796875,23.0789063 C7.77890625,22.7914063 7.6828125,22.5039062 7.6828125,22.2171875 C7.6828125,22.2171875 7.6828125,22.2171875 7.6828125,22.2171875 C7.6828125,22.0734375 7.6828125,21.978125 7.73046875,21.9296875 C7.73046875,21.9296875 7.73046875,21.9296875 7.73046875,21.9296875 C7.73046875,21.8820313 7.73046875,21.8335938 7.778125,21.7859375 C7.778125,21.7382813 7.778125,21.6898438 7.778125,21.6421875 C7.778125,21.6421875 7.778125,21.6421875 7.778125,21.6421875 C7.778125,21.6421875 10.2203125,20.7804688 10.2203125,20.7804688 C10.2679687,21.0195312 10.3640625,21.403125 10.4117187,21.9296875 C10.4117187,21.9296875 10.4117187,21.9296875 10.4117187,21.9296875 C10.459375,21.9773437 10.459375,22.0734375 10.459375,22.2171875 C10.459375,22.2171875 10.459375,22.2171875 10.459375,22.2171875 C10.459375,22.5523437 10.3632812,22.7921875 10.171875,22.9835937 C10.171875,22.9835937 10.171875,22.9835937 10.171875,22.9835937 L10.1734375,22.9828125 Z"/>
  <title>Steps</title>
</svg>