<svg xmlns="http://www.w3.org/2000/svg" viewBox="0 0 25 25" id="steps-solid">
  <path d="M18.9851562,13.0695313 C18.9851562,13.0695313 14.81875,11.6804687 14.81875,11.6804687 C14.81875,11.1539063 14.675,9.8609375 14.3398437,7.84921875 C14.0046875,5.8859375 13.8132812,4.54453125 13.8132812,3.921875 C13.8132812,3.921875 13.8132812,3.921875 13.8132812,3.921875 C13.8132812,3.921875 13.8132812,3.82578125 13.8132812,3.82578125 C13.8132812,3.059375 14.1007812,2.3890625 14.675,1.8140625 C15.2015625,1.2875 15.8726563,1 16.6867187,1 C16.6867187,1 16.6867187,1 16.6867187,1 C16.6867187,1 16.7828125,1 16.7828125,1 C17.740625,1 18.6507812,1.5265625 19.4648438,2.5328125 C20.2789062,3.58671875 20.7101562,4.68828125 20.7101562,5.88515625 C20.7101562,5.88515625 20.7101562,5.88515625 20.7101562,5.88515625 C20.7101562,6.46015625 20.6140625,7.178125 20.4226562,8.040625 C20.1835938,8.90234375 19.94375,9.86015625 19.6085937,10.9140625 C19.2734375,12.015625 19.0820312,12.7335938 18.9859375,13.0695313 C18.9859375,13.0695313 18.9859375,13.0695313 18.9859375,13.0695313 L18.9851562,13.0695313 Z M18.79375,14.9851562 C18.79375,14.9851562 18.79375,14.9851562 18.79375,14.9851562 C18.79375,14.9851562 14.6273438,13.5960937 14.6273438,13.5960937 C14.4835938,14.6976562 14.3882813,15.415625 14.2921875,15.846875 C14.2921875,15.846875 14.2921875,15.846875 14.2921875,15.846875 C14.2921875,15.8945312 14.2921875,15.9429687 14.2921875,16.0382812 C14.2445313,16.134375 14.2445313,16.2296875 14.2445313,16.2773438 C14.2445313,16.2773438 14.2445313,16.2773438 14.2445313,16.2773438 C14.2445313,16.9476563 14.4835938,17.5226563 14.9632813,17.9539062 C15.3945313,18.4328125 15.96875,18.6726563 16.6398438,18.6726563 C16.6398438,18.6726563 16.6398438,18.6726563 16.6398438,18.6726563 C17.2625,18.6726563 17.8375,18.4335938 18.3164063,17.9539062 C18.7476563,17.5226563 18.9867188,16.9484375 18.9867188,16.2773438 C18.9867188,16.2773438 18.9867188,16.2773438 18.9867188,16.2773438 C18.9867188,16.2296875 18.9867188,16.1335937 18.9867188,16.0382812 C18.9390625,15.9421875 18.9390625,15.8945312 18.9390625,15.846875 C18.9390625,15.846875 18.9390625,15.846875 18.9390625,15.846875 C18.9390625,15.7992187 18.9390625,15.703125 18.8914063,15.559375 C18.84375,15.415625 18.84375,15.3203125 18.84375,15.2242188 C18.7960938,15.128125 18.7960938,15.0328125 18.7960938,14.9851563 L18.79375,14.9851562 Z M9.0234375,6.89140625 C9.0234375,6.89140625 8.92734375,6.89140625 8.92734375,6.89140625 C7.96953125,6.89140625 7.059375,7.41796875 6.2453125,8.42421875 C5.43125,9.478125 5,10.5796875 5,11.7765625 C5,11.7765625 5,11.7765625 5,11.7765625 C5,12.3515625 5.09609375,13.021875 5.2875,13.8359375 C5.43125,14.65 5.71875,15.6554688 6.1015625,16.9007813 C6.484375,18.1460938 6.6765625,18.8164062 6.72421875,18.9601563 C6.72421875,18.9601563 6.72421875,18.9601563 6.72421875,18.9601563 C6.72421875,18.9601563 10.890625,17.5710938 10.890625,17.5710938 C10.890625,17.0445313 11.034375,15.7515625 11.3695312,13.7398438 C11.7046875,11.7765625 11.8484375,10.4351563 11.8484375,9.8125 C11.8484375,9.8125 11.8484375,9.8125 11.8484375,9.8125 C11.8484375,9.8125 11.8484375,9.71640625 11.8484375,9.71640625 C11.8484375,8.90234375 11.5609375,8.23203125 11.034375,7.7046875 C10.5078125,7.17734375 9.83671875,6.890625 9.02265625,6.890625 C9.02265625,6.890625 9.02265625,6.890625 9.02265625,6.890625 L9.0234375,6.89140625 Z M11.0351563,19.4875 C11.0351563,19.4875 11.0351563,19.4875 11.0351563,19.4875 C11.0351563,19.4875 6.91640625,20.8765625 6.91640625,20.8765625 C6.91640625,20.9242187 6.91640625,21.0203125 6.91640625,21.115625 C6.86875,21.2117188 6.86875,21.3070313 6.8203125,21.4507812 C6.771875,21.5945312 6.77265625,21.6898438 6.77265625,21.7382812 C6.77265625,21.7382812 6.77265625,21.7382812 6.77265625,21.7382812 C6.725,21.834375 6.725,21.9773437 6.725,22.1695312 C6.725,22.1695312 6.725,22.1695312 6.725,22.1695312 C6.725,22.7921875 6.9640625,23.3671875 7.44375,23.7976562 C7.875,24.2765625 8.44921875,24.5164062 9.071875,24.5164062 C9.69453125,24.5164062 10.2695313,24.2773438 10.7484375,23.7976562 C11.1796875,23.3664062 11.41875,22.7921875 11.41875,22.1695312 C11.41875,22.1695312 11.41875,22.1695312 11.41875,22.1695312 C11.41875,21.978125 11.41875,21.834375 11.3710938,21.7382812 C11.3710938,21.7382812 11.3710938,21.7382812 11.3710938,21.7382812 C11.3234375,21.5945312 11.275,21.259375 11.2273438,20.7328125 C11.13125,20.20625 11.0835938,19.775 11.0359375,19.4875 L11.0351563,19.4875 Z"/>
  <title>Steps Solid</title>
</svg>