<svg xmlns="http://www.w3.org/2000/svg" viewBox="0 0 25 25" id="stethoscope-solid">
  <path d="M21.6726562,16.1828125 C21.6726562,16.1828125 21.6726562,16.1828125 21.6726562,16.1828125 C21.6726562,16.8054688 21.48125,17.3320312 21.0976562,17.7632813 C20.7140625,18.1945313 20.2359375,18.4820313 19.7085937,18.625 C19.7085937,18.625 19.7085937,18.625 19.7085937,18.625 C19.7085937,18.625 19.7085937,19.6304688 19.7085937,19.6304688 C19.7085937,21.0195312 19.2296875,22.16875 18.271875,23.0789062 C17.3140625,24.0367188 16.1648437,24.515625 14.7757812,24.515625 C14.7757812,24.515625 14.7757812,24.515625 14.7757812,24.515625 C13.4351562,24.515625 12.2851562,24.0367188 11.3273438,23.0789062 C10.3695312,22.16875 9.890625,21.0195312 9.890625,19.6304687 C9.890625,19.6304687 9.890625,19.6304687 9.890625,19.6304687 C9.890625,19.6304687 9.890625,14.6976562 9.890625,14.6976562 C8.2140625,14.5539062 6.82578125,13.8835937 5.72421875,12.6859375 C4.575,11.4882813 4,10.0515625 4,8.37578125 C4,8.37578125 4,8.37578125 4,8.37578125 C4,8.37578125 4,2.48515625 4,2.48515625 C4,2.05390625 4.14375,1.71875 4.43125,1.43125 C4.71875,1.14375 5.05390625,1 5.48515625,1 C5.48515625,1 5.48515625,1 5.48515625,1 C5.48515625,1 7.4484375,1 7.4484375,1 C7.78359375,1 7.92734375,1.14375 7.92734375,1.47890625 C7.92734375,1.8140625 7.78359375,1.9578125 7.4484375,1.9578125 C7.4484375,1.9578125 7.4484375,1.9578125 7.4484375,1.9578125 C7.4484375,1.9578125 5.48515625,1.9578125 5.48515625,1.9578125 C5.15,1.9578125 4.95859375,2.14921875 4.95859375,2.484375 C4.95859375,2.484375 4.95859375,2.484375 4.95859375,2.484375 C4.95859375,2.484375 4.95859375,8.375 4.95859375,8.375 C4.95859375,9.859375 5.48515625,11.1046875 6.5390625,12.1585938 C7.59296875,13.2125 8.8859375,13.7390625 10.3703125,13.7390625 C11.8546875,13.7390625 13.1484375,13.2125 14.2015625,12.1585938 C15.2546875,11.1046875 15.7820312,9.859375 15.7820312,8.375 C15.7820312,8.375 15.7820312,8.375 15.7820312,8.375 C15.7820312,8.375 15.7820312,2.484375 15.7820312,2.484375 C15.7820312,2.14921875 15.590625,1.9578125 15.2554688,1.9578125 C15.2554688,1.9578125 15.2554688,1.9578125 15.2554688,1.9578125 C15.2554688,1.9578125 13.2921875,1.9578125 13.2921875,1.9578125 C12.9570312,1.9578125 12.8132812,1.8140625 12.8132812,1.47890625 C12.8132812,1.14375 12.9570312,1 13.2921875,1 C13.2921875,1 13.2921875,1 13.2921875,1 C13.2921875,1 15.2554687,1 15.2554687,1 C15.6867187,1 16.021875,1.14375 16.309375,1.43125 C16.596875,1.71875 16.740625,2.05390625 16.740625,2.48515625 C16.740625,2.48515625 16.740625,2.48515625 16.740625,2.48515625 C16.740625,2.48515625 16.740625,8.37578125 16.740625,8.37578125 C16.740625,10.0523438 16.165625,11.4890625 15.0640625,12.6859375 C13.9148437,13.8835938 12.5257812,14.5539063 10.8976562,14.6976563 C10.8976562,14.6976563 10.8976562,14.6976563 10.8976562,14.6976563 C10.8976562,14.6976563 10.85,19.6304688 10.85,19.6304688 C10.85,20.7320313 11.2328125,21.6421875 11.9992187,22.4085938 C12.765625,23.175 13.6757812,23.5578125 14.7773437,23.5578125 C15.8789062,23.5578125 16.7890625,23.175 17.5554687,22.4085938 C18.321875,21.6421875 18.7046875,20.7320313 18.7046875,19.6304688 C18.7046875,19.6304688 18.7046875,19.6304688 18.7046875,19.6304688 C18.7046875,19.6304688 18.7046875,18.625 18.7046875,18.625 C18.178125,18.48125 17.6992188,18.19375 17.315625,17.7632813 C16.9320313,17.3328125 16.740625,16.8054688 16.740625,16.1828125 C16.740625,16.1828125 16.740625,16.1828125 16.740625,16.1828125 C16.740625,15.5125 16.9796875,14.9375 17.459375,14.4585938 C17.9390625,13.9796875 18.5132812,13.7398438 19.1835938,13.7398438 C19.1835938,13.7398438 19.1835938,13.7398438 19.1835938,13.7398438 C19.9023438,13.7398438 20.4765625,13.9789062 20.9554688,14.4585938 C21.434375,14.9382813 21.6742188,15.5125 21.6742188,16.1828125 L21.6726562,16.1828125 Z"/>
  <title>Stethoscope Solid</title>
</svg>