<svg xmlns="http://www.w3.org/2000/svg" viewBox="0 0 25 25" id="stethoscope">
  <path d="M19.1828125,13.7398437 C19.1828125,13.7398437 19.1828125,13.7398437 19.1828125,13.7398437 C18.5125,13.7398437 17.9375,13.9789062 17.4585938,14.4585937 C16.9796875,14.9382812 16.7398438,15.5125 16.7398438,16.1828125 C16.7398438,16.1828125 16.7398438,16.1828125 16.7398438,16.1828125 C16.7398438,16.8054687 16.93125,17.3320312 17.3148438,17.7632812 C17.6984375,18.1945312 18.1765625,18.4820312 18.7039063,18.625 C18.7039063,18.625 18.7039063,18.625 18.7039063,18.625 C18.7039063,18.625 18.7039063,19.6304687 18.7039063,19.6304687 C18.7039063,20.7320312 18.3210938,21.6421875 17.5546875,22.4085937 C16.7882813,23.175 15.878125,23.5578125 14.7765625,23.5578125 C13.675,23.5578125 12.7648438,23.175 11.9984375,22.4085937 C11.2320313,21.6421875 10.8492188,20.7320312 10.8492188,19.6304687 C10.8492188,19.6304687 10.8492188,19.6304687 10.8492188,19.6304687 C10.8492188,19.6304687 10.8492188,14.6976562 10.8492188,14.6976562 C12.5257813,14.5539062 13.9140625,13.8835937 15.0640625,12.6859375 C16.165625,11.4882812 16.740625,10.0515625 16.740625,8.37578125 C16.740625,8.37578125 16.740625,8.37578125 16.740625,8.37578125 C16.740625,8.37578125 16.740625,2.48515625 16.740625,2.48515625 C16.740625,2.05390625 16.596875,1.71875 16.309375,1.43125 C16.021875,1.14375 15.6867188,1 15.2554688,1 C15.2554688,1 15.2554688,1 15.2554688,1 C15.2554688,1 13.2921875,1 13.2921875,1 C12.9570313,1 12.8132813,1.14375 12.8132813,1.47890625 C12.8132813,1.8140625 12.9570313,1.9578125 13.2921875,1.9578125 C13.2921875,1.9578125 13.2921875,1.9578125 13.2921875,1.9578125 C13.2921875,1.9578125 15.2554687,1.9578125 15.2554687,1.9578125 C15.590625,1.9578125 15.7820312,2.14921875 15.7820312,2.484375 C15.7820312,2.484375 15.7820312,2.484375 15.7820312,2.484375 C15.7820312,2.484375 15.7820312,8.375 15.7820312,8.375 C15.7820312,9.859375 15.2554687,11.1046875 14.2015625,12.1585937 C13.1476562,13.2125 11.8546875,13.7390625 10.3703125,13.7390625 C8.8859375,13.7390625 7.5921875,13.2125 6.5390625,12.1585938 C5.4859375,11.1046875 4.95859375,9.859375 4.95859375,8.375 C4.95859375,8.375 4.95859375,8.375 4.95859375,8.375 C4.95859375,8.375 4.95859375,2.484375 4.95859375,2.484375 C4.95859375,2.14921875 5.15,1.9578125 5.48515625,1.9578125 C5.48515625,1.9578125 5.48515625,1.9578125 5.48515625,1.9578125 C5.48515625,1.9578125 7.4484375,1.9578125 7.4484375,1.9578125 C7.78359375,1.9578125 7.92734375,1.8140625 7.92734375,1.47890625 C7.92734375,1.14375 7.78359375,1 7.4484375,1 C7.4484375,1 7.4484375,1 7.4484375,1 C7.4484375,1 5.48515625,1 5.48515625,1 C5.05390625,1 4.71875,1.14375 4.43125,1.43125 C4.14375,1.71875 4,2.05390625 4,2.48515625 C4,2.48515625 4,2.48515625 4,2.48515625 C4,2.48515625 4,8.37578125 4,8.37578125 C4,10.0523438 4.575,11.4890625 5.72421875,12.6859375 C6.82578125,13.8835938 8.21484375,14.5539063 9.84296875,14.6976563 C9.84296875,14.6976563 9.84296875,14.6976563 9.84296875,14.6976563 C9.84296875,14.6976563 9.890625,19.6304687 9.890625,19.6304687 C9.890625,21.0195312 10.3695312,22.16875 11.3273438,23.0789062 C12.2851562,24.0367188 13.434375,24.515625 14.7757812,24.515625 C14.7757812,24.515625 14.7757812,24.515625 14.7757812,24.515625 C16.1648438,24.515625 17.3140625,24.0367188 18.271875,23.0789062 C19.2296875,22.16875 19.7085937,21.0195312 19.7085937,19.6304687 C19.7085937,19.6304687 19.7085937,19.6304687 19.7085937,19.6304687 C19.7085937,19.6304687 19.7085937,18.625 19.7085937,18.625 C20.2351562,18.48125 20.7140625,18.19375 21.0976562,17.7632812 C21.48125,17.3328125 21.6726562,16.8054687 21.6726562,16.1828125 C21.6726562,16.1828125 21.6726562,16.1828125 21.6726562,16.1828125 C21.6726562,15.5125 21.4335937,14.9375 20.9539062,14.4585938 C20.4742187,13.9796875 19.9,13.7398437 19.1820312,13.7398437 L19.1828125,13.7398437 Z M20.2359375,17.2359375 C19.9484375,17.5234375 19.6132813,17.6671875 19.1820313,17.6671875 C18.7507813,17.6671875 18.415625,17.5234375 18.1765625,17.2359375 C17.8890625,16.9484375 17.7453125,16.6132812 17.7453125,16.1820312 C17.7453125,15.7507812 17.8890625,15.415625 18.1765625,15.128125 C18.415625,14.8890625 18.7515625,14.7453125 19.1820313,14.7453125 C19.6125,14.7453125 19.9484375,14.8890625 20.2359375,15.128125 C20.5234375,15.415625 20.6671875,15.7507812 20.6671875,16.1820312 C20.6671875,16.6132812 20.5234375,16.9484375 20.2359375,17.2359375 Z"/>
  <title>Stethoscope</title>
</svg>