<svg xmlns="http://www.w3.org/2000/svg" viewBox="0 0 25 25" id="stopwatch-solid">
  <path d="M8.8484375,1.5265625 C8.8484375,1.5265625 8.8484375,1.5265625 8.8484375,1.5265625 C8.8484375,1.19140625 9.03984375,1 9.375,1 C9.375,1 9.375,1 9.375,1 C9.375,1 15.2179687,1 15.2179687,1 C15.553125,1 15.7445312,1.19140625 15.7445312,1.5265625 C15.7445312,1.5265625 15.7445312,1.5265625 15.7445312,1.5265625 C15.7445312,1.86171875 15.553125,2.00546875 15.2179687,2.00546875 C15.2179687,2.00546875 15.2179687,2.00546875 15.2179687,2.00546875 C15.2179687,2.00546875 9.375,2.00546875 9.375,2.00546875 C9.03984375,2.00546875 8.8484375,1.86171875 8.8484375,1.5265625 Z M21.6359375,4.92734375 C21.6359375,4.92734375 21.6359375,4.92734375 21.6359375,4.92734375 C21.875,4.92734375 22.1148437,4.83125 22.30625,4.63984375 C22.4976563,4.4484375 22.59375,4.20859375 22.59375,3.96953125 C22.59375,3.73046875 22.4976562,3.490625 22.30625,3.25078125 C22.1148437,3.059375 21.875,2.96328125 21.6359375,2.96328125 C21.6359375,2.96328125 21.6359375,2.96328125 21.6359375,2.96328125 C21.3484375,2.96328125 21.109375,3.059375 20.9171875,3.25078125 C20.7257812,3.48984375 20.6296875,3.7296875 20.6296875,3.96953125 C20.6296875,4.209375 20.7257813,4.4484375 20.9171875,4.63984375 C21.1085938,4.83125 21.3484375,4.92734375 21.6359375,4.92734375 Z M19.5765625,5.98125 C21.5882812,7.99296875 22.59375,10.4351562 22.59375,13.2609375 C22.59375,16.0867188 21.5882813,18.5289063 19.5765625,20.540625 C17.5648437,22.5523437 15.1226562,23.5578125 12.296875,23.5578125 C9.47109375,23.5578125 7.02890625,22.5523438 5.0171875,20.540625 C3.00546875,18.5289062 2,16.0867187 2,13.2609375 C2,10.4351563 3.00546875,7.99296875 5.0171875,5.98125 C7.02890625,3.96953125 9.47109375,2.9640625 12.296875,2.9640625 C15.1226563,2.9640625 17.5648438,3.96953125 19.5765625,5.98125 Z M17.5171875,8.08828125 C17.5171875,8.08828125 17.5171875,8.08828125 17.5171875,8.08828125 C17.4210937,7.9921875 17.278125,7.94453125 17.134375,7.94453125 C17.134375,7.94453125 17.134375,7.94453125 17.134375,7.94453125 C16.990625,7.94453125 16.8953125,7.9921875 16.7992188,8.08828125 C16.7992188,8.08828125 16.7992188,8.08828125 16.7992188,8.08828125 C16.7992188,8.08828125 12.9195313,11.9679688 12.9195313,11.9679688 C12.728125,11.871875 12.5367188,11.8242188 12.296875,11.8242188 C12.296875,11.8242188 12.296875,11.8242188 12.296875,11.8242188 C11.865625,11.8242188 11.5304688,11.9679688 11.2429688,12.2554688 C10.9554687,12.5429688 10.8117188,12.878125 10.8117188,13.309375 C10.8117188,13.740625 10.9554687,14.0757813 11.2429688,14.3632813 C11.5304688,14.6507813 11.865625,14.7945313 12.296875,14.7945313 C12.728125,14.7945313 13.0632813,14.6507813 13.3507813,14.3632813 C13.6382812,14.0757813 13.7820312,13.740625 13.7820312,13.309375 C13.7820312,13.309375 13.7820312,13.309375 13.7820312,13.309375 C13.7820312,13.0703125 13.734375,12.8304688 13.6382812,12.6390625 C13.6382812,12.6390625 13.6382812,12.6390625 13.6382812,12.6390625 C13.6382812,12.6390625 17.5179688,8.759375 17.5179688,8.759375 C17.6140625,8.56796875 17.6617187,8.471875 17.6617187,8.42421875 C17.6617187,8.3765625 17.6140625,8.28046875 17.5179688,8.0890625 L17.5171875,8.08828125 Z"/>
  <title>Stopwatch Solid</title>
</svg>