<svg xmlns="http://www.w3.org/2000/svg" viewBox="0 0 25 25" id="stopwatch">
  <path d="M19.5765625,5.98125 C17.5648437,3.96953125 15.1226562,2.9640625 12.296875,2.9640625 C9.47109375,2.9640625 7.02890625,3.96953125 5.0171875,5.98125 C3.00546875,7.99296875 2,10.4351563 2,13.2609375 C2,16.0867188 3.00546875,18.5289063 5.0171875,20.540625 C7.02890625,22.5523437 9.47109375,23.5578125 12.296875,23.5578125 C15.1226563,23.5578125 17.5648438,22.5523438 19.5765625,20.540625 C21.5882812,18.5289062 22.59375,16.0867188 22.59375,13.2609375 C22.59375,10.4351563 21.5882813,7.99296875 19.5765625,5.98125 Z M18.8578125,19.8695313 C17.0382812,21.6890625 14.8351562,22.5992187 12.296875,22.5992187 C9.75859375,22.5992187 7.55546875,21.6890625 5.7359375,19.8695313 C3.86796875,18.05 2.9578125,15.846875 2.9578125,13.2601563 C2.9578125,13.2601563 2.9578125,13.2601563 2.9578125,13.2601563 C2.9578125,10.721875 3.86796875,8.51875 5.7359375,6.69921875 C7.55546875,4.8796875 9.75859375,3.96953125 12.296875,3.96953125 C14.8351562,3.96953125 17.0382812,4.8796875 18.90625,6.69921875 C20.7257813,8.51875 21.6359375,10.721875 21.6359375,13.2601563 C21.6359375,13.2601563 21.6359375,13.2601563 21.6359375,13.2601563 C21.5882813,15.8460938 20.678125,18.0492188 18.8578125,19.8695313 Z M8.8484375,1.5265625 C8.8484375,1.5265625 8.8484375,1.5265625 8.8484375,1.5265625 C8.8484375,1.19140625 9.03984375,1 9.375,1 C9.375,1 9.375,1 9.375,1 C9.375,1 15.2179687,1 15.2179687,1 C15.553125,1 15.7445312,1.19140625 15.7445312,1.5265625 C15.7445312,1.5265625 15.7445312,1.5265625 15.7445312,1.5265625 C15.7445312,1.86171875 15.553125,2.00546875 15.2179687,2.00546875 C15.2179687,2.00546875 15.2179687,2.00546875 15.2179687,2.00546875 C15.2179687,2.00546875 9.375,2.00546875 9.375,2.00546875 C9.03984375,2.00546875 8.8484375,1.86171875 8.8484375,1.5265625 Z M20.9171875,4.63984375 C20.7257812,4.4484375 20.6296875,4.20859375 20.6296875,3.96953125 C20.6296875,3.73046875 20.7257813,3.490625 20.9171875,3.25078125 C21.1085938,3.059375 21.3484375,2.96328125 21.6359375,2.96328125 C21.6359375,2.96328125 21.6359375,2.96328125 21.6359375,2.96328125 C21.875,2.96328125 22.1148437,3.059375 22.30625,3.25078125 C22.4976563,3.48984375 22.59375,3.7296875 22.59375,3.96953125 C22.59375,4.209375 22.4976562,4.4484375 22.30625,4.63984375 C22.1148437,4.83125 21.875,4.92734375 21.6359375,4.92734375 C21.6359375,4.92734375 21.6359375,4.92734375 21.6359375,4.92734375 C21.3484375,4.92734375 21.109375,4.83125 20.9171875,4.63984375 Z M17.5171875,8.08828125 C17.5171875,8.08828125 17.5171875,8.08828125 17.5171875,8.08828125 C17.6132812,8.2796875 17.6609375,8.37578125 17.6609375,8.4234375 C17.6609375,8.47109375 17.6132812,8.5671875 17.5171875,8.75859375 C17.5171875,8.75859375 17.5171875,8.75859375 17.5171875,8.75859375 C17.5171875,8.75859375 13.6375,12.6382812 13.6375,12.6382812 C13.7335937,12.8296875 13.78125,13.0210937 13.78125,13.2609375 C13.78125,13.2609375 13.78125,13.2609375 13.78125,13.2609375 C13.78125,13.2609375 13.78125,13.3085938 13.78125,13.3085938 C13.78125,13.7398438 13.6375,14.075 13.35,14.3625 C13.0625,14.65 12.7273437,14.79375 12.2960937,14.79375 C11.8648437,14.79375 11.5296875,14.65 11.2421875,14.3625 C10.9546875,14.075 10.8109375,13.7398438 10.8109375,13.3085938 C10.8109375,12.8773437 10.9546875,12.5421875 11.2421875,12.2546875 C11.5296875,11.9671875 11.8648437,11.8234375 12.2960937,11.8234375 C12.2960937,11.8234375 12.2960937,11.8234375 12.2960937,11.8234375 C12.5351562,11.8234375 12.7273437,11.8710938 12.91875,11.9671875 C12.91875,11.9671875 12.91875,11.9671875 12.91875,11.9671875 C12.91875,11.9671875 16.7984375,8.0875 16.7984375,8.0875 C16.8945312,7.99140625 16.9898437,7.94375 17.1335937,7.94375 C17.1335937,7.94375 17.1335937,7.94375 17.1335937,7.94375 C17.2773438,7.94375 17.4210937,7.99140625 17.5164062,8.0875 L17.5171875,8.08828125 Z"/>
  <title>Stopwatch</title>
</svg>