<svg xmlns="http://www.w3.org/2000/svg" viewBox="0 0 25 25" id="stoplight">
  <path d="M14.0273437,3.63984375 C13.5484375,3.1609375 12.9734375,2.92109375 12.303125,2.92109375 C11.6328125,2.92109375 11.0578125,3.16015625 10.5789062,3.63984375 C10.1,4.11875 9.86015625,4.69375 9.86015625,5.41171875 C9.86015625,5.41171875 9.86015625,5.41171875 9.86015625,5.41171875 C9.86015625,6.08203125 10.0992187,6.65703125 10.5789062,7.1359375 C11.0585937,7.61484375 11.6328125,7.8546875 12.303125,7.8546875 C12.9734375,7.8546875 13.5484375,7.615625 14.0273437,7.1359375 C14.50625,6.65625 14.7460938,6.08203125 14.7460938,5.41171875 C14.7460938,5.41171875 14.7460938,5.41171875 14.7460938,5.41171875 C14.7460938,4.69296875 14.5070312,4.11875 14.0273437,3.63984375 Z M13.3570312,6.41796875 C13.0695312,6.70546875 12.734375,6.84921875 12.303125,6.84921875 C11.871875,6.84921875 11.5367187,6.70546875 11.2492187,6.41796875 C10.9617187,6.17890625 10.8179687,5.84296875 10.8179687,5.4125 C10.8179687,4.98203125 10.9617187,4.64609375 11.2492187,4.35859375 C11.5367187,4.07109375 11.871875,3.92734375 12.303125,3.92734375 C12.734375,3.92734375 13.0695312,4.07109375 13.3570312,4.35859375 C13.6445312,4.64609375 13.7882812,4.98125 13.7882812,5.4125 C13.7882812,5.84375 13.6445312,6.17890625 13.3570312,6.41796875 Z M14.0273437,10.5367187 C13.5484375,10.0578125 12.9734375,9.81796875 12.303125,9.81796875 C11.6328125,9.81796875 11.0578125,10.0570312 10.5789062,10.5367187 C10.1,11.015625 9.86015625,11.590625 9.86015625,12.2609375 C9.86015625,12.93125 10.0992187,13.50625 10.5789062,13.9851562 C11.0578125,14.4640625 11.6328125,14.7039062 12.303125,14.7039062 C12.9734375,14.7039062 13.5484375,14.4648437 14.0273437,13.9851562 C14.50625,13.50625 14.7460938,12.93125 14.7460938,12.2609375 C14.7460938,11.590625 14.5070312,11.015625 14.0273437,10.5367187 L14.0273437,10.5367187 Z M13.3570312,13.3140625 C13.0695312,13.6015625 12.734375,13.7453125 12.303125,13.7453125 C11.871875,13.7453125 11.5367187,13.6015625 11.2492187,13.3140625 C10.9617187,13.0265625 10.8179687,12.6914062 10.8179687,12.2601562 C10.8179687,11.8289063 10.9617187,11.49375 11.2492187,11.20625 C11.5367187,10.91875 11.871875,10.775 12.303125,10.775 C12.734375,10.775 13.0695312,10.91875 13.3570312,11.20625 C13.6445312,11.49375 13.7882812,11.8289063 13.7882812,12.2601562 C13.7882812,12.6914062 13.6445312,13.0265625 13.3570312,13.3140625 Z M14.0273437,17.3851563 C13.5484375,16.90625 12.9734375,16.6664063 12.303125,16.6664063 C11.6328125,16.6664063 11.0578125,16.9054688 10.5789062,17.3851563 C10.1,17.8640625 9.86015625,18.4390625 9.86015625,19.109375 C9.86015625,19.109375 9.86015625,19.109375 9.86015625,19.109375 C9.86015625,19.828125 10.0992187,20.4023438 10.5789062,20.88125 C11.0585937,21.3601562 11.6328125,21.6 12.303125,21.6 C12.9734375,21.6 13.5484375,21.3609375 14.0273437,20.88125 C14.50625,20.4015625 14.7460938,19.8273438 14.7460938,19.109375 C14.7460938,19.109375 14.7460938,19.109375 14.7460938,19.109375 C14.7460938,18.4390625 14.5070312,17.8640625 14.0273437,17.3851563 Z M13.3570312,20.1625 C13.0695312,20.45 12.734375,20.59375 12.303125,20.59375 C11.871875,20.59375 11.5367187,20.45 11.2492187,20.1625 C10.9617187,19.875 10.8179687,19.5398437 10.8179687,19.1085937 C10.8179687,18.6773437 10.9617187,18.3421875 11.2492187,18.0546875 C11.5367187,17.815625 11.871875,17.671875 12.303125,17.671875 C12.734375,17.671875 13.0695312,17.815625 13.3570312,18.0546875 C13.6445312,18.3421875 13.7882812,18.6773437 13.7882812,19.1085937 C13.7882812,19.5398437 13.6445312,19.875 13.3570312,20.1625 Z M23.0789062,5.41171875 C23.0789062,5.41171875 23.0789062,5.41171875 23.0789062,5.41171875 C23.4140625,5.41171875 23.5578125,5.2203125 23.5578125,4.88515625 C23.5578125,4.88515625 23.5578125,4.88515625 23.5578125,4.88515625 C23.5578125,4.88515625 23.5578125,2.44296875 23.5578125,2.44296875 C23.5578125,2.1078125 23.4140625,1.9640625 23.0789062,1.9640625 C23.0789062,1.9640625 23.0789062,1.9640625 23.0789062,1.9640625 C23.0789062,1.9640625 18.6726562,1.9640625 18.6726562,1.9640625 C18.6726562,1.9640625 18.6726562,1.48515625 18.6726562,1.48515625 C18.6726562,1.05390625 18.5289063,0.71875 18.2414063,0.43125 C17.9539063,0.14375 17.61875,0 17.1875,0 C17.1875,0 17.1875,0 17.1875,0 C17.1875,0 7.36953125,0 7.36953125,0 C6.98671875,0 6.65078125,0.14375 6.3640625,0.43125 C6.07734375,0.71875 5.9328125,1.05390625 5.9328125,1.48515625 C5.9328125,1.48515625 5.9328125,1.48515625 5.9328125,1.48515625 C5.9328125,1.48515625 5.9328125,1.9640625 5.9328125,1.9640625 C5.9328125,1.9640625 1.5265625,1.9640625 1.5265625,1.9640625 C1.19140625,1.9640625 1,2.1078125 1,2.44296875 C1,2.44296875 1,2.44296875 1,2.44296875 C1,2.44296875 1,4.88515625 1,4.88515625 C1,5.2203125 1.19140625,5.41171875 1.5265625,5.41171875 C1.5265625,5.41171875 1.5265625,5.41171875 1.5265625,5.41171875 C2.58046875,5.41171875 3.5859375,5.69921875 4.54375,6.22578125 C5.45390625,6.75234375 5.9328125,7.61484375 5.9328125,8.81171875 C5.9328125,8.81171875 5.9328125,8.81171875 5.9328125,8.81171875 C5.9328125,8.81171875 1.5265625,8.81171875 1.5265625,8.81171875 C1.19140625,8.81171875 1,9.003125 1,9.33828125 C1,9.33828125 1,9.33828125 1,9.33828125 C1,9.33828125 1,11.7804687 1,11.7804687 C1,12.115625 1.19140625,12.259375 1.5265625,12.259375 C1.5265625,12.259375 1.5265625,12.259375 1.5265625,12.259375 C2.628125,12.259375 3.63359375,12.546875 4.54375,13.0734375 C5.45390625,13.6 5.9328125,14.5101562 5.9328125,15.7078125 C5.9328125,15.7078125 5.9328125,15.7078125 5.9328125,15.7078125 C5.9328125,15.7078125 1.5265625,15.7078125 1.5265625,15.7078125 C1.19140625,15.7078125 1,15.8515625 1,16.1867188 C1,16.1867188 1,16.1867188 1,16.1867188 C1,16.1867188 1,18.6289062 1,18.6289062 C1,18.9640625 1.19140625,19.1078125 1.5265625,19.1078125 C1.5265625,19.1078125 1.5265625,19.1078125 1.5265625,19.1078125 C2.628125,19.1078125 3.63359375,19.3953125 4.54375,19.921875 C5.45390625,20.4484375 5.9328125,21.3585937 5.9328125,22.55625 C5.9328125,22.55625 5.9328125,22.55625 5.9328125,22.55625 C5.9328125,22.55625 5.9328125,24.5195312 5.9328125,24.5195312 C5.9328125,24.5195312 18.671875,24.5195312 18.671875,24.5195312 C18.671875,24.5195312 18.671875,22.55625 18.671875,22.55625 C18.671875,21.3585938 19.1507813,20.4492188 20.0609375,19.921875 C20.9710938,19.3945312 21.9765625,19.1078125 23.078125,19.1078125 C23.078125,19.1078125 23.078125,19.1078125 23.078125,19.1078125 C23.4132813,19.1078125 23.5570313,18.9640625 23.5570313,18.6289062 C23.5570313,18.6289062 23.5570313,18.6289062 23.5570313,18.6289062 C23.5570313,18.6289062 23.5570313,16.1867188 23.5570313,16.1867188 C23.5570313,15.8515625 23.4132813,15.7078125 23.078125,15.7078125 C23.078125,15.7078125 23.078125,15.7078125 23.078125,15.7078125 C23.078125,15.7078125 18.671875,15.7078125 18.671875,15.7078125 C18.671875,14.5101563 19.1507813,13.6007813 20.0609375,13.0734375 C20.9710938,12.5460938 21.9765625,12.259375 23.078125,12.259375 C23.078125,12.259375 23.078125,12.259375 23.078125,12.259375 C23.4132813,12.259375 23.5570313,12.115625 23.5570313,11.7804688 C23.5570313,11.7804688 23.5570313,11.7804688 23.5570313,11.7804688 C23.5570313,11.7804688 23.5570313,9.33828125 23.5570313,9.33828125 C23.5570313,9.003125 23.4132813,8.81171875 23.078125,8.81171875 C23.078125,8.81171875 23.078125,8.81171875 23.078125,8.81171875 C23.078125,8.81171875 18.671875,8.81171875 18.671875,8.81171875 C18.671875,7.6140625 19.1507813,6.75234375 20.1085938,6.22578125 C21.01875,5.69921875 22.0242187,5.41171875 23.078125,5.41171875 L23.0789062,5.41171875 Z M5.93359375,16.6664063 C5.93359375,16.6664063 5.93359375,19.875 5.93359375,19.875 C4.83203125,18.7734375 3.49140625,18.1984375 2.00625,18.1507813 C2.00625,18.1507813 2.00625,18.1507813 2.00625,18.1507813 C2.00625,18.1507813 2.00625,16.6664063 2.00625,16.6664063 C2.00625,16.6664063 5.93359375,16.6664063 5.93359375,16.6664063 Z M5.93359375,9.81796875 C5.93359375,9.81796875 5.93359375,13.0265625 5.93359375,13.0265625 C4.8796875,11.925 3.58671875,11.35 2.00625,11.3023437 C2.00625,11.3023437 2.00625,11.3023437 2.00625,11.3023437 C2.00625,11.3023437 2.00625,9.81796875 2.00625,9.81796875 C2.00625,9.81796875 5.93359375,9.81796875 5.93359375,9.81796875 L5.93359375,9.81796875 Z M5.93359375,2.921875 C5.93359375,2.921875 5.93359375,6.13046875 5.93359375,6.13046875 C4.8796875,5.0765625 3.58671875,4.50234375 2.00625,4.40625 C2.00625,4.40625 2.00625,4.40625 2.00625,4.40625 C2.00625,4.40625 2.00625,2.921875 2.00625,2.921875 C2.00625,2.921875 5.93359375,2.921875 5.93359375,2.921875 L5.93359375,2.921875 Z M17.7148438,1.484375 C17.7148438,1.484375 17.7148438,23.5148438 17.7148438,23.5148438 C17.7148438,23.5148438 6.89140625,23.5148438 6.89140625,23.5148438 C6.89140625,23.5148438 6.89140625,1.484375 6.89140625,1.484375 C6.89140625,1.14921875 7.03515625,0.9578125 7.3703125,0.9578125 C7.3703125,0.9578125 7.3703125,0.9578125 7.3703125,0.9578125 C7.3703125,0.9578125 17.1882813,0.9578125 17.1882813,0.9578125 C17.5234375,0.9578125 17.7148438,1.14921875 17.7148438,1.484375 C17.7148438,1.484375 17.7148438,1.484375 17.7148438,1.484375 Z M18.6726562,16.6664063 C18.6726562,16.6664063 22.6,16.6664063 22.6,16.6664063 C22.6,16.6664063 22.6,18.1507813 22.6,18.1507813 C21.115625,18.1984375 19.7742187,18.7734375 18.6726562,19.875 C18.6726562,19.875 18.6726562,19.875 18.6726562,19.875 C18.6726562,19.875 18.6726562,16.6664063 18.6726562,16.6664063 Z M18.6726562,9.81796875 C18.6726562,9.81796875 22.6,9.81796875 22.6,9.81796875 C22.6,9.81796875 22.6,11.3023437 22.6,11.3023437 C21.0195312,11.35 19.7265625,11.925 18.6726562,13.0265625 C18.6726562,13.0265625 18.6726562,13.0265625 18.6726562,13.0265625 C18.6726562,13.0265625 18.6726562,9.81796875 18.6726562,9.81796875 Z M18.6726562,6.13046875 C18.6726562,6.13046875 18.6726562,2.921875 18.6726562,2.921875 C18.6726562,2.921875 22.6,2.921875 22.6,2.921875 C22.6,2.921875 22.6,4.40625 22.6,4.40625 C21.0195312,4.50234375 19.7265625,5.0765625 18.6726562,6.13046875 C18.6726562,6.13046875 18.6726562,6.13046875 18.6726562,6.13046875 Z"/>
  <title>Stoplight</title>
</svg>