<svg xmlns="http://www.w3.org/2000/svg" viewBox="0 0 25 25" id="stoplight-solid">
  <path d="M23.0796875,5.41171875 C23.0796875,5.41171875 23.0796875,5.41171875 23.0796875,5.41171875 C23.4148437,5.41171875 23.60625,5.2203125 23.60625,4.88515625 C23.60625,4.88515625 23.60625,4.88515625 23.60625,4.88515625 C23.60625,4.88515625 23.60625,2.44296875 23.60625,2.44296875 C23.60625,2.1078125 23.4148437,1.9640625 23.0796875,1.9640625 C23.0796875,1.9640625 23.0796875,1.9640625 23.0796875,1.9640625 C23.0796875,1.9640625 18.6734375,1.9640625 18.6734375,1.9640625 C18.6734375,1.9640625 18.6734375,1.48515625 18.6734375,1.48515625 C18.6734375,1.05390625 18.5296875,0.71875 18.2421875,0.43125 C17.9546875,0.14375 17.6195312,0 17.1882812,0 C17.1882812,0 17.1882812,0 17.1882812,0 C17.1882812,0 7.41796875,0 7.41796875,0 C6.98671875,0 6.6515625,0.14375 6.3640625,0.43125 C6.0765625,0.71875 5.9328125,1.05390625 5.9328125,1.48515625 C5.9328125,1.48515625 5.9328125,1.48515625 5.9328125,1.48515625 C5.9328125,1.48515625 5.9328125,1.9640625 5.9328125,1.9640625 C5.9328125,1.9640625 1.5265625,1.9640625 1.5265625,1.9640625 C1.19140625,1.9640625 1,2.1078125 1,2.44296875 C1,2.44296875 1,2.44296875 1,2.44296875 C1,2.44296875 1,4.88515625 1,4.88515625 C1,5.2203125 1.19140625,5.41171875 1.5265625,5.41171875 C1.5265625,5.41171875 1.5265625,5.41171875 1.5265625,5.41171875 C2.58046875,5.41171875 3.5859375,5.69921875 4.54375,6.22578125 C5.45390625,6.75234375 5.9328125,7.61484375 5.9328125,8.81171875 C5.9328125,8.81171875 5.9328125,8.81171875 5.9328125,8.81171875 C5.9328125,8.81171875 1.5265625,8.81171875 1.5265625,8.81171875 C1.19140625,8.81171875 1,9.003125 1,9.33828125 C1,9.33828125 1,9.33828125 1,9.33828125 C1,9.33828125 1,11.7804687 1,11.7804687 C1,12.115625 1.19140625,12.259375 1.5265625,12.259375 C1.5265625,12.259375 1.5265625,12.259375 1.5265625,12.259375 C2.628125,12.259375 3.63359375,12.546875 4.54375,13.0734375 C5.45390625,13.6 5.9328125,14.5101562 5.9328125,15.7078125 C5.9328125,15.7078125 5.9328125,15.7078125 5.9328125,15.7078125 C5.9328125,15.7078125 1.5265625,15.7078125 1.5265625,15.7078125 C1.19140625,15.7078125 1,15.8515625 1,16.1867188 C1,16.1867188 1,16.1867188 1,16.1867188 C1,16.1867188 1,18.6289062 1,18.6289062 C1,18.9640625 1.19140625,19.1078125 1.5265625,19.1078125 C1.5265625,19.1078125 1.5265625,19.1078125 1.5265625,19.1078125 C2.628125,19.1078125 3.63359375,19.3953125 4.54375,19.921875 C5.45390625,20.4484375 5.9328125,21.3585937 5.9328125,22.55625 C5.9328125,22.55625 5.9328125,22.55625 5.9328125,22.55625 C5.9328125,22.55625 5.9328125,24.5195312 5.9328125,24.5195312 C5.9328125,24.5195312 18.671875,24.5195312 18.671875,24.5195312 C18.671875,24.5195312 18.671875,22.55625 18.671875,22.55625 C18.671875,21.3585938 19.1507812,20.4492188 20.0609375,19.921875 C20.9710937,19.3945312 21.9765625,19.1078125 23.078125,19.1078125 C23.078125,19.1078125 23.078125,19.1078125 23.078125,19.1078125 C23.4132812,19.1078125 23.6046875,18.9640625 23.6046875,18.6289062 C23.6046875,18.6289062 23.6046875,18.6289062 23.6046875,18.6289062 C23.6046875,18.6289062 23.6046875,16.1867188 23.6046875,16.1867188 C23.6046875,15.8515625 23.4132812,15.7078125 23.078125,15.7078125 C23.078125,15.7078125 23.078125,15.7078125 23.078125,15.7078125 C23.078125,15.7078125 18.671875,15.7078125 18.671875,15.7078125 C18.671875,14.5101563 19.1507812,13.6007813 20.0609375,13.0734375 C20.9710937,12.5460938 21.9765625,12.259375 23.078125,12.259375 C23.078125,12.259375 23.078125,12.259375 23.078125,12.259375 C23.4132812,12.259375 23.6046875,12.115625 23.6046875,11.7804688 C23.6046875,11.7804688 23.6046875,11.7804688 23.6046875,11.7804688 C23.6046875,11.7804688 23.6046875,9.33828125 23.6046875,9.33828125 C23.6046875,9.003125 23.4132812,8.81171875 23.078125,8.81171875 C23.078125,8.81171875 23.078125,8.81171875 23.078125,8.81171875 C23.078125,8.81171875 18.671875,8.81171875 18.671875,8.81171875 C18.671875,7.6140625 19.1507812,6.75234375 20.1085937,6.22578125 C21.01875,5.69921875 22.0242187,5.41171875 23.078125,5.41171875 L23.0796875,5.41171875 Z M5.93359375,16.6664063 C5.93359375,16.6664063 5.93359375,19.875 5.93359375,19.875 C4.83203125,18.7734375 3.49140625,18.1984375 2.00625,18.1507813 C2.00625,18.1507813 2.00625,18.1507813 2.00625,18.1507813 C2.00625,18.1507813 2.00625,16.6664063 2.00625,16.6664063 C2.00625,16.6664063 5.93359375,16.6664063 5.93359375,16.6664063 Z M5.93359375,9.81796875 C5.93359375,9.81796875 5.93359375,13.0265625 5.93359375,13.0265625 C4.8796875,11.925 3.58671875,11.35 2.00625,11.3023437 C2.00625,11.3023437 2.00625,11.3023437 2.00625,11.3023437 C2.00625,11.3023437 2.00625,9.81796875 2.00625,9.81796875 C2.00625,9.81796875 5.93359375,9.81796875 5.93359375,9.81796875 L5.93359375,9.81796875 Z M5.93359375,2.921875 C5.93359375,2.921875 5.93359375,6.13046875 5.93359375,6.13046875 C4.8796875,5.0765625 3.58671875,4.50234375 2.00625,4.40625 C2.00625,4.40625 2.00625,4.40625 2.00625,4.40625 C2.00625,4.40625 2.00625,2.921875 2.00625,2.921875 C2.00625,2.921875 5.93359375,2.921875 5.93359375,2.921875 L5.93359375,2.921875 Z M14.0273438,20.88125 C13.5484375,21.3601562 12.9734375,21.6 12.303125,21.6 C11.6328125,21.6 11.0578125,21.3609375 10.5789062,20.88125 C10.1,20.4023438 9.86015625,19.8273438 9.86015625,19.109375 C9.86015625,19.109375 9.86015625,19.109375 9.86015625,19.109375 C9.86015625,18.4390625 10.0992187,17.8640625 10.5789062,17.3851563 C11.0585938,16.90625 11.6328125,16.6664063 12.303125,16.6664063 C12.9734375,16.6664063 13.5484375,16.9054688 14.0273438,17.3851563 C14.50625,17.8648438 14.7460938,18.4390625 14.7460938,19.109375 C14.7460938,19.109375 14.7460938,19.109375 14.7460938,19.109375 C14.7460938,19.828125 14.5070313,20.4023438 14.0273438,20.88125 Z M14.0273438,13.984375 C13.5484375,14.4632812 12.9734375,14.703125 12.303125,14.703125 C11.6328125,14.703125 11.0578125,14.4640625 10.5789062,13.984375 C10.1,13.5054688 9.86015625,12.9304687 9.86015625,12.2601562 C9.86015625,11.5898438 10.0992187,11.0148438 10.5789062,10.5359375 C11.0578125,10.0570312 11.6328125,9.8171875 12.303125,9.8171875 C12.9734375,9.8171875 13.5484375,10.05625 14.0273438,10.5359375 C14.50625,11.0148437 14.7460938,11.5898438 14.7460938,12.2601562 C14.7460938,12.9304687 14.5070313,13.5054688 14.0273438,13.984375 Z M14.0273438,7.1359375 C13.5484375,7.61484375 12.9734375,7.8546875 12.303125,7.8546875 C11.6328125,7.8546875 11.0578125,7.615625 10.5789062,7.1359375 C10.1,6.65703125 9.86015625,6.08203125 9.86015625,5.41171875 C9.86015625,5.41171875 9.86015625,5.41171875 9.86015625,5.41171875 C9.86015625,4.69296875 10.0992187,4.11875 10.5789062,3.63984375 C11.0585938,3.1609375 11.6328125,2.92109375 12.303125,2.92109375 C12.9734375,2.92109375 13.5484375,3.16015625 14.0273438,3.63984375 C14.50625,4.11953125 14.7460938,4.69375 14.7460938,5.41171875 C14.7460938,5.41171875 14.7460938,5.41171875 14.7460938,5.41171875 C14.7460938,6.08203125 14.5070313,6.65703125 14.0273438,7.1359375 Z M18.6734375,16.6664063 C18.6734375,16.6664063 22.6007813,16.6664063 22.6007813,16.6664063 C22.6007813,16.6664063 22.6007813,18.1507813 22.6007813,18.1507813 C21.1164063,18.1984375 19.775,18.7734375 18.6734375,19.875 C18.6734375,19.875 18.6734375,19.875 18.6734375,19.875 C18.6734375,19.875 18.6734375,16.6664063 18.6734375,16.6664063 Z M18.6734375,9.81796875 C18.6734375,9.81796875 22.6007813,9.81796875 22.6007813,9.81796875 C22.6007813,9.81796875 22.6007813,11.3023437 22.6007813,11.3023437 C21.0203125,11.35 19.7273437,11.925 18.6734375,13.0265625 C18.6734375,13.0265625 18.6734375,13.0265625 18.6734375,13.0265625 C18.6734375,13.0265625 18.6734375,9.81796875 18.6734375,9.81796875 Z M18.6734375,6.13046875 C18.6734375,6.13046875 18.6734375,2.921875 18.6734375,2.921875 C18.6734375,2.921875 22.6007813,2.921875 22.6007813,2.921875 C22.6007813,2.921875 22.6007813,4.40625 22.6007813,4.40625 C21.0203125,4.50234375 19.7273437,5.0765625 18.6734375,6.13046875 C18.6734375,6.13046875 18.6734375,6.13046875 18.6734375,6.13046875 Z"/>
  <title>Stoplight Solid</title>
</svg>