<svg xmlns="http://www.w3.org/2000/svg" viewBox="0 0 25 25" id="store">
  <path d="M18.6304688,21.109375 C18.6304688,21.109375 18.6304688,21.109375 18.6304688,21.109375 C18.6304688,21.4445312 18.4867188,21.6359375 18.1515625,21.6359375 C18.1515625,21.6359375 18.1515625,21.6359375 18.1515625,21.6359375 C18.1515625,21.6359375 15.1820313,21.6359375 15.1820313,21.6359375 C14.846875,21.6359375 14.703125,21.4445312 14.703125,21.109375 C14.703125,21.109375 14.703125,21.109375 14.703125,21.109375 C14.703125,20.7742187 14.846875,20.6304687 15.1820313,20.6304687 C15.1820313,20.6304687 15.1820313,20.6304687 15.1820313,20.6304687 C15.1820313,20.6304687 18.1515625,20.6304687 18.1515625,20.6304687 C18.4867188,20.6304687 18.6304688,20.7742187 18.6304688,21.109375 Z M19.6359375,14.7398437 C19.6359375,14.7398437 19.6359375,14.7398437 19.6359375,14.7398437 C19.6359375,14.7398437 19.6359375,18.6671875 19.6359375,18.6671875 C19.6359375,18.90625 19.5398437,19.1460937 19.3484375,19.3375 C19.109375,19.5765625 18.8695313,19.6726562 18.6296875,19.6726562 C18.6296875,19.6726562 18.6296875,19.6726562 18.6296875,19.6726562 C18.6296875,19.6726562 14.7023437,19.6726562 14.7023437,19.6726562 C14.4632812,19.6726562 14.2234375,19.5765625 14.0320312,19.3375 C13.840625,19.1460937 13.7445312,18.90625 13.7445312,18.6671875 C13.7445312,18.6671875 13.7445312,18.6671875 13.7445312,18.6671875 C13.7445312,18.6671875 13.7445312,14.7398437 13.7445312,14.7398437 C13.7445312,14.5007812 13.840625,14.2609375 14.0320312,14.0695312 C14.2234375,13.878125 14.4632812,13.7820312 14.7023437,13.7820312 C14.7023437,13.7820312 14.7023437,13.7820312 14.7023437,13.7820312 C14.7023437,13.7820312 18.6296875,13.7820312 18.6296875,13.7820312 C18.86875,13.7820312 19.1085937,13.878125 19.3484375,14.0695312 C19.5398438,14.2609375 19.6359375,14.5007812 19.6359375,14.7398437 Z M18.6304688,18.6671875 C18.6304688,18.6671875 18.6304688,14.7398438 18.6304688,14.7398438 C18.6304688,14.7398438 14.703125,14.7398438 14.703125,14.7398438 C14.703125,14.7398438 14.703125,18.6671875 14.703125,18.6671875 C14.703125,18.6671875 18.6304688,18.6671875 18.6304688,18.6671875 Z M24.4734375,8.56171875 C24.4734375,8.56171875 24.4734375,8.56171875 24.4734375,8.56171875 C24.1382812,9.615625 23.515625,10.38125 22.5578125,10.8125 C22.5578125,10.8125 22.5578125,10.8125 22.5578125,10.8125 C22.5578125,10.8125 22.5578125,22.1148438 22.5578125,22.1148438 C22.5578125,22.5460937 22.4140625,22.88125 22.1265625,23.1203125 C21.8390625,23.4078125 21.5039062,23.5515625 21.0726562,23.5515625 C21.0726562,23.5515625 21.0726562,23.5515625 21.0726562,23.5515625 C21.0726562,23.5515625 3.4484375,23.5515625 3.4484375,23.5515625 C3.0171875,23.5515625 2.68203125,23.4078125 2.39453125,23.1203125 C2.10703125,22.88125 1.96328125,22.5453125 1.96328125,22.1148438 C1.96328125,22.1148438 1.96328125,22.1148438 1.96328125,22.1148438 C1.96328125,22.1148438 1.96328125,10.8601562 1.96328125,10.8601562 C1.1015625,10.4773437 0.47890625,9.8546875 0.14375,8.94453125 C0.14375,8.94453125 0.14375,8.94453125 0.14375,8.94453125 C0.04765625,8.70546875 0,8.465625 0,8.13046875 C0,8.13046875 0,8.13046875 0,8.13046875 C0,7.74765625 0.09609375,7.31640625 0.33515625,6.88515625 C0.33515625,6.88515625 0.33515625,6.88515625 0.33515625,6.88515625 C0.33515625,6.88515625 3.87890625,2.33515625 3.87890625,2.33515625 C3.975,2.09609375 4.16640625,2 4.45390625,2 C4.45390625,2 4.45390625,2 4.45390625,2 C4.45390625,2 20.9765625,2 20.9765625,2 C21.3117187,2 21.503125,2.14375 21.646875,2.43125 C21.646875,2.43125 21.646875,2.43125 21.646875,2.43125 C21.646875,2.43125 24.3289063,7.0765625 24.3289063,7.0765625 C24.4726562,7.459375 24.5203125,7.7953125 24.5203125,8.034375 C24.5203125,8.034375 24.5203125,8.034375 24.5203125,8.034375 C24.5203125,8.2734375 24.5203125,8.4171875 24.4726562,8.5609375 L24.4734375,8.56171875 Z M10.7757813,22.5945313 C10.7757813,22.5945313 10.7757813,14.7398438 10.7757813,14.7398438 C10.7757813,14.7398438 5.890625,14.7398438 5.890625,14.7398438 C5.890625,14.7398438 5.890625,22.5945313 5.890625,22.5945313 C5.890625,22.5945313 10.7757813,22.5945313 10.7757813,22.5945313 L10.7757813,22.5945313 Z M21.6,22.115625 C21.6,22.115625 21.6,11.1484375 21.6,11.1484375 C21.6,11.1484375 21.0734375,11.1484375 21.0734375,11.1484375 C19.7804687,11.1484375 18.7742188,10.5734375 18.1523438,9.471875 C18.1523438,9.471875 18.1523438,9.471875 18.1523438,9.471875 C17.4335938,10.5734375 16.4757813,11.1484375 15.1828125,11.1484375 C15.1828125,11.1484375 15.1828125,11.1484375 15.1828125,11.1484375 C13.8898437,11.1484375 12.8835937,10.5734375 12.2617187,9.471875 C12.2617187,9.471875 12.2617187,9.471875 12.2617187,9.471875 C11.5429687,10.5734375 10.5851562,11.1484375 9.2921875,11.1484375 C9.2921875,11.1484375 9.2921875,11.1484375 9.2921875,11.1484375 C7.99921875,11.1484375 6.99296875,10.5734375 6.37109375,9.471875 C6.37109375,9.471875 6.37109375,9.471875 6.37109375,9.471875 C5.65234375,10.5734375 4.69453125,11.1484375 3.4015625,11.1484375 C3.4015625,11.1484375 3.4015625,11.1484375 3.4015625,11.1484375 C3.4015625,11.1484375 2.92265625,11.1484375 2.92265625,11.1484375 C2.92265625,11.1484375 2.92265625,22.115625 2.92265625,22.115625 C2.92265625,22.4507812 3.1140625,22.5945312 3.44921875,22.5945312 C3.44921875,22.5945312 3.44921875,22.5945312 3.44921875,22.5945312 C3.44921875,22.5945312 4.8859375,22.5945312 4.8859375,22.5945312 C4.8859375,22.5945312 4.8859375,14.7398437 4.8859375,14.7398437 C4.8859375,14.5007812 4.98203125,14.2609375 5.22109375,14.0695312 C5.4125,13.878125 5.65234375,13.7820312 5.89140625,13.7820312 C5.89140625,13.7820312 5.89140625,13.7820312 5.89140625,13.7820312 C5.89140625,13.7820312 10.7765625,13.7820312 10.7765625,13.7820312 C11.0640625,13.7820312 11.303125,13.878125 11.4953125,14.0695312 C11.6875,14.2609375 11.7828125,14.5007812 11.7828125,14.7398437 C11.7828125,14.7398437 11.7828125,14.7398437 11.7828125,14.7398437 C11.7828125,14.7398437 11.7828125,22.5945312 11.7828125,22.5945312 C11.7828125,22.5945312 21.0742188,22.5945312 21.0742188,22.5945312 C21.409375,22.5945312 21.6007812,22.4507812 21.6007812,22.115625 C21.6007812,22.115625 21.6007812,22.115625 21.6007812,22.115625 L21.6,22.115625 Z M23.4195313,7.46015625 C23.4195313,7.46015625 23.4195313,7.46015625 23.4195313,7.46015625 C23.4195313,7.46015625 20.7851563,2.95859375 20.7851563,2.95859375 C20.7851563,2.95859375 4.6453125,2.95859375 4.6453125,2.95859375 C4.6453125,2.95859375 1.196875,7.36484375 1.196875,7.36484375 C1.053125,7.60390625 1.00546875,7.84375 1.00546875,8.13125 C1.00546875,8.13125 1.00546875,8.13125 1.00546875,8.13125 C1.00546875,8.3703125 1.00546875,8.5140625 1.053125,8.61015625 C1.053125,8.61015625 1.053125,8.61015625 1.053125,8.61015625 C1.484375,9.6640625 2.2984375,10.190625 3.4,10.190625 C3.4,10.190625 3.4,10.190625 3.4,10.190625 C4.0703125,10.190625 4.6453125,9.9515625 5.12421875,9.471875 C5.603125,8.9921875 5.84296875,8.41796875 5.890625,7.74765625 C5.890625,7.74765625 5.890625,7.74765625 5.890625,7.74765625 C5.890625,7.4125 6.034375,7.26875 6.36953125,7.26875 C6.7046875,7.26875 6.8484375,7.4125 6.8484375,7.74765625 C6.8484375,7.74765625 6.8484375,7.74765625 6.8484375,7.74765625 C6.8484375,8.41796875 7.0875,8.99296875 7.5671875,9.471875 C8.046875,9.95078125 8.62109375,10.190625 9.29140625,10.190625 C9.96171875,10.190625 10.5367188,9.9515625 11.015625,9.471875 C11.4945313,8.9921875 11.734375,8.41796875 11.734375,7.74765625 C11.734375,7.74765625 11.734375,7.74765625 11.734375,7.74765625 C11.734375,7.4125 11.9257813,7.26875 12.2609375,7.26875 C12.2609375,7.26875 12.2609375,7.26875 12.2609375,7.26875 C12.5960938,7.26875 12.7398438,7.4125 12.7398438,7.74765625 C12.7398438,7.74765625 12.7398438,7.74765625 12.7398438,7.74765625 C12.7398438,8.41796875 12.9789063,8.99296875 13.4585938,9.471875 C13.9382813,9.95078125 14.5125,10.190625 15.1828125,10.190625 C15.853125,10.190625 16.428125,9.9515625 16.9070313,9.471875 C17.3859375,8.9921875 17.6257813,8.41796875 17.6257813,7.74765625 C17.6257813,7.74765625 17.6257813,7.74765625 17.6257813,7.74765625 C17.6257813,7.4125 17.8171875,7.26875 18.1523438,7.26875 C18.1523438,7.26875 18.1523438,7.26875 18.1523438,7.26875 C18.4875,7.26875 18.63125,7.4125 18.63125,7.74765625 C18.63125,7.74765625 18.63125,7.74765625 18.63125,7.74765625 C18.63125,8.41796875 18.8703125,8.99296875 19.35,9.471875 C19.8296875,9.95078125 20.4039063,10.190625 21.121875,10.190625 C21.121875,10.190625 21.121875,10.190625 21.121875,10.190625 C21.696875,10.190625 22.2234375,9.99921875 22.6546875,9.6640625 C23.0859375,9.32890625 23.3734375,8.85 23.5164063,8.3234375 C23.5164063,8.3234375 23.5164063,8.3234375 23.5164063,8.3234375 C23.5164063,8.3234375 23.5164063,8.0359375 23.5164063,8.0359375 C23.5164063,7.84453125 23.46875,7.653125 23.4203125,7.4609375 L23.4195313,7.46015625 Z"/>
  <title>Store</title>
</svg>