<svg xmlns="http://www.w3.org/2000/svg" viewBox="0 0 25 25" id="store-solid">
  <path d="M21.121875,13.1171875 C21.121875,13.1171875 21.121875,13.1171875 21.121875,13.1171875 C19.9726563,13.1171875 18.9664063,12.734375 18.1523438,11.9679687 C18.1523438,11.9679687 18.1523438,11.9679687 18.1523438,11.9679687 C17.3382813,12.734375 16.3328125,13.1171875 15.1828125,13.1171875 C15.1828125,13.1171875 15.1828125,13.1171875 15.1828125,13.1171875 C14.08125,13.1171875 13.0757813,12.734375 12.2617188,11.9679687 C12.2617188,11.9679687 12.2617188,11.9679687 12.2617188,11.9679687 C11.4476563,12.734375 10.4421875,13.1171875 9.2921875,13.1171875 C9.2921875,13.1171875 9.2921875,13.1171875 9.2921875,13.1171875 C8.190625,13.1171875 7.18515625,12.734375 6.37109375,11.9679687 C6.37109375,11.9679687 6.37109375,11.9679687 6.37109375,11.9679687 C5.509375,12.734375 4.503125,13.1171875 3.4015625,13.1171875 C3.4015625,13.1171875 3.4015625,13.1171875 3.4015625,13.1171875 C2.44375,13.1171875 1.96484375,13.0210937 1.96484375,12.878125 C1.96484375,12.878125 1.96484375,12.878125 1.96484375,12.878125 C1.96484375,12.878125 1.96484375,23.0789062 1.96484375,23.0789062 C1.96484375,23.5101563 2.10859375,23.8453125 2.39609375,24.084375 C2.68359375,24.371875 3.01875,24.515625 3.45,24.515625 C3.45,24.515625 3.45,24.515625 3.45,24.515625 C3.45,24.515625 4.88671875,24.515625 4.88671875,24.515625 C4.88671875,24.515625 4.88671875,16.709375 4.88671875,16.709375 C4.88671875,16.421875 4.9828125,16.1828125 5.221875,15.990625 C5.41328125,15.7992187 5.653125,15.703125 5.8921875,15.703125 C5.8921875,15.703125 5.8921875,15.703125 5.8921875,15.703125 C5.8921875,15.703125 10.7773438,15.703125 10.7773438,15.703125 C11.0648438,15.703125 11.3039063,15.7992187 11.4960938,15.990625 C11.6882813,16.1820312 11.7835938,16.421875 11.7835938,16.709375 C11.7835938,16.709375 11.7835938,16.709375 11.7835938,16.709375 C11.7835938,16.709375 11.7835938,24.515625 11.7835938,24.515625 C11.7835938,24.515625 21.075,24.515625 21.075,24.515625 C21.50625,24.515625 21.8414063,24.371875 22.1289063,24.084375 C22.4164063,23.8453125 22.5601563,23.509375 22.5601563,23.0789062 C22.5601563,23.0789062 22.5601563,23.0789062 22.5601563,23.0789062 C22.5601563,23.0789062 22.5601563,12.878125 22.5601563,12.878125 C22.5601563,13.021875 22.08125,13.1179687 21.1234375,13.1179687 L21.121875,13.1171875 Z M18.1523438,22.6 C18.1523438,22.6 18.1523438,22.6 18.1523438,22.6 C18.1523438,22.6 15.1828125,22.6 15.1828125,22.6 C14.8476563,22.6 14.7039063,22.4085938 14.7039063,22.0734375 C14.7039063,22.0734375 14.7039063,22.0734375 14.7039063,22.0734375 C14.7039063,21.7382812 14.8476563,21.5945312 15.1828125,21.5945312 C15.1828125,21.5945312 15.1828125,21.5945312 15.1828125,21.5945312 C15.1828125,21.5945312 18.1523438,21.5945312 18.1523438,21.5945312 C18.4875,21.5945312 18.63125,21.7382812 18.63125,22.0734375 C18.63125,22.0734375 18.63125,22.0734375 18.63125,22.0734375 C18.63125,22.4085938 18.4875,22.6 18.1523438,22.6 Z M18.63125,16.7085937 C18.63125,16.7085937 18.63125,18.671875 18.63125,18.671875 C18.63125,18.9109375 18.5351563,19.1507812 18.34375,19.3421875 C18.1523438,19.5335937 17.9125,19.6296875 17.6734375,19.6296875 C17.6734375,19.6296875 17.6734375,19.6296875 17.6734375,19.6296875 C17.6734375,19.6296875 15.7101563,19.6296875 15.7101563,19.6296875 C15.4226563,19.6296875 15.1835938,19.5335937 14.9914063,19.3421875 C14.7992188,19.1507813 14.7039063,18.9109375 14.7039063,18.671875 C14.7039063,18.671875 14.7039063,18.671875 14.7039063,18.671875 C14.7039063,18.671875 14.7039063,16.7085937 14.7039063,16.7085937 C14.7039063,16.4210938 14.8,16.1820313 14.9914063,15.9898438 C15.1828125,15.7976562 15.4226563,15.7023438 15.7101563,15.7023438 C15.7101563,15.7023438 15.7101563,15.7023438 15.7101563,15.7023438 C15.7101563,15.7023438 17.6734375,15.7023438 17.6734375,15.7023438 C17.9125,15.7023438 18.1523438,15.7984375 18.34375,15.9898438 C18.5351563,16.18125 18.63125,16.4210937 18.63125,16.7085937 C18.63125,16.7085937 18.63125,16.7085937 18.63125,16.7085937 Z M20.7859375,1.6703125 C20.7859375,1.6703125 21.2171875,2.96328125 21.2171875,2.96328125 C21.2171875,2.96328125 4.215625,2.96328125 4.215625,2.96328125 C4.215625,2.96328125 4.646875,1.6703125 4.646875,1.6703125 C4.790625,1.2390625 5.12578125,1 5.6046875,1 C5.6046875,1 5.6046875,1 5.6046875,1 C5.6046875,1 19.8765625,1 19.8765625,1 C20.3078125,1 20.6429688,1.2390625 20.7867187,1.6703125 C20.7867187,1.6703125 20.7867187,1.6703125 20.7867187,1.6703125 L20.7859375,1.6703125 Z M24.4742188,9.525 C24.4742188,9.525 24.4742188,9.525 24.4742188,9.525 C24.2828125,10.24375 23.8992188,10.865625 23.2765625,11.3445313 C22.6539063,11.8710938 21.9359375,12.1109375 21.1210938,12.1109375 C21.1210938,12.1109375 21.1210938,12.1109375 21.1210938,12.1109375 C19.7804688,12.1109375 18.7742188,11.5359375 18.1515625,10.434375 C18.1515625,10.434375 18.1515625,10.434375 18.1515625,10.434375 C17.4328125,11.5359375 16.475,12.1109375 15.1820313,12.1109375 C15.1820313,12.1109375 15.1820313,12.1109375 15.1820313,12.1109375 C13.8890625,12.1109375 12.8828125,11.5359375 12.2609375,10.434375 C12.2609375,10.434375 12.2609375,10.434375 12.2609375,10.434375 C11.5421875,11.5359375 10.584375,12.1109375 9.29140625,12.1109375 C9.29140625,12.1109375 9.29140625,12.1109375 9.29140625,12.1109375 C7.9984375,12.1109375 6.9921875,11.5359375 6.3703125,10.434375 C6.3703125,10.434375 6.3703125,10.434375 6.3703125,10.434375 C5.6515625,11.5359375 4.69375,12.1109375 3.40078125,12.1109375 C3.40078125,12.1109375 3.40078125,12.1109375 3.40078125,12.1109375 C1.8203125,12.1109375 0.76640625,11.3921875 0.14375,9.9078125 C0.14375,9.9078125 0.14375,9.9078125 0.14375,9.9078125 C0.04765625,9.66875 0,9.42890625 0,9.09375 C0,9.09375 0,9.09375 0,9.09375 C0,8.7109375 0.09609375,8.2796875 0.33515625,7.8484375 C0.33515625,7.8484375 0.33515625,7.8484375 0.33515625,7.8484375 C0.33515625,7.8484375 3.35234375,3.92109375 3.35234375,3.92109375 C3.35234375,3.92109375 21.934375,3.92109375 21.934375,3.92109375 C21.934375,3.92109375 24.3289063,8.03984375 24.3289063,8.03984375 C24.4726562,8.42265625 24.5203125,8.75859375 24.5203125,8.99765625 C24.5203125,8.99765625 24.5203125,8.99765625 24.5203125,8.99765625 C24.5203125,9.23671875 24.5203125,9.38046875 24.4726562,9.52421875 L24.4742188,9.525 Z"/>
  <title>Store Solid</title>
</svg>