<svg xmlns="http://www.w3.org/2000/svg" viewBox="0 0 25 25" id="sun-solid">
  <path d="M17.4804688,7.040625 C18.9171875,8.47734375 19.6359375,10.2015625 19.6359375,12.2609375 C19.6359375,14.3203125 18.9171875,16.0445312 17.4804688,17.48125 C16.04375,18.9179688 14.3195313,19.6367188 12.2601563,19.6367188 C10.2007813,19.6367188 8.4765625,18.9179688 7.03984375,17.48125 C5.603125,16.0445313 4.884375,14.3203125 4.884375,12.2609375 C4.884375,10.2015625 5.603125,8.47734375 7.03984375,7.040625 C8.4765625,5.60390625 10.2007813,4.88515625 12.2601563,4.88515625 C14.3195313,4.88515625 16.04375,5.60390625 17.4804688,7.040625 L17.4804688,7.040625 Z M11.7804688,2.4421875 C11.7804688,2.77734375 11.9242188,2.92109375 12.259375,2.92109375 C12.5945312,2.92109375 12.7382812,2.77734375 12.7382812,2.4421875 C12.7382812,2.4421875 12.7382812,2.4421875 12.7382812,2.4421875 C12.7382812,2.4421875 12.7382812,0.47890625 12.7382812,0.47890625 C12.7382812,0.14375 12.5945312,0 12.259375,0 C11.9242188,0 11.7804688,0.14375 11.7804688,0.47890625 C11.7804688,0.47890625 11.7804688,0.47890625 11.7804688,0.47890625 C11.7804688,0.47890625 11.7804688,2.4421875 11.7804688,2.4421875 Z M12.7390625,22.0789063 C12.7390625,21.74375 12.5953125,21.6 12.2601562,21.6 C11.925,21.6 11.78125,21.74375 11.78125,22.0789063 C11.78125,22.0789063 11.78125,22.0789063 11.78125,22.0789063 C11.78125,22.0789063 11.78125,24.0421875 11.78125,24.0421875 C11.78125,24.3773438 11.925,24.5210938 12.2601562,24.5210938 C12.5953125,24.5210938 12.7390625,24.3773438 12.7390625,24.0421875 C12.7390625,24.0421875 12.7390625,24.0421875 12.7390625,24.0421875 C12.7390625,24.0421875 12.7390625,22.0789063 12.7390625,22.0789063 L12.7390625,22.0789063 Z M2.4421875,11.7820312 C2.4421875,11.7820312 2.4421875,11.7820312 2.4421875,11.7820312 C2.4421875,11.7820312 0.47890625,11.7820312 0.47890625,11.7820312 C0.14375,11.7820312 0,11.9257812 0,12.2609375 C0,12.5960938 0.14375,12.7398438 0.47890625,12.7398438 C0.47890625,12.7398438 0.47890625,12.7398438 0.47890625,12.7398438 C0.47890625,12.7398438 2.4421875,12.7398438 2.4421875,12.7398438 C2.77734375,12.7398438 2.92109375,12.5960938 2.92109375,12.2609375 C2.92109375,11.9257813 2.77734375,11.7820312 2.4421875,11.7820312 L2.4421875,11.7820312 Z M24.0414062,11.7820312 C24.0414062,11.7820312 24.0414062,11.7820312 24.0414062,11.7820312 C24.0414062,11.7820312 22.078125,11.7820312 22.078125,11.7820312 C21.7429687,11.7820312 21.5992187,11.9257812 21.5992187,12.2609375 C21.5992187,12.5960938 21.7429687,12.7398438 22.078125,12.7398438 C22.078125,12.7398438 22.078125,12.7398438 22.078125,12.7398438 C22.078125,12.7398438 24.0414062,12.7398438 24.0414062,12.7398438 C24.3765625,12.7398438 24.5203125,12.5960938 24.5203125,12.2609375 C24.5203125,11.9257813 24.3765625,11.7820312 24.0414062,11.7820312 L24.0414062,11.7820312 Z M3.59140625,4.2625 C3.59140625,4.2625 4.98046875,5.6515625 4.98046875,5.6515625 C5.0765625,5.74765625 5.171875,5.7953125 5.315625,5.7953125 C5.315625,5.7953125 5.315625,5.7953125 5.315625,5.7953125 C5.65078125,5.7953125 5.8421875,5.6515625 5.8421875,5.31640625 C5.8421875,5.31640625 5.8421875,5.31640625 5.8421875,5.31640625 C5.8421875,5.2203125 5.79453125,5.125 5.65078125,4.98125 C5.65078125,4.98125 5.65078125,4.98125 5.65078125,4.98125 C5.65078125,4.98125 4.26171875,3.5921875 4.26171875,3.5921875 C4.2140625,3.49609375 4.11796875,3.4484375 3.9265625,3.4484375 C3.9265625,3.4484375 3.9265625,3.4484375 3.9265625,3.4484375 C3.59140625,3.4484375 3.44765625,3.5921875 3.44765625,3.92734375 C3.44765625,3.92734375 3.44765625,3.92734375 3.44765625,3.92734375 C3.44765625,4.07109375 3.4953125,4.21484375 3.59140625,4.2625 C3.59140625,4.2625 3.59140625,4.2625 3.59140625,4.2625 L3.59140625,4.2625 Z M20.928125,20.2585938 C20.928125,20.2585938 19.5390625,18.8695313 19.5390625,18.8695313 C19.4429687,18.7734375 19.3476562,18.7257813 19.2039063,18.7257813 C19.2039063,18.7257813 19.2039063,18.7257813 19.2039063,18.7257813 C18.86875,18.7257813 18.725,18.8695313 18.725,19.2046875 C18.725,19.2046875 18.725,19.2046875 18.725,19.2046875 C18.725,19.3484375 18.7726563,19.44375 18.86875,19.5398437 C18.86875,19.5398437 18.86875,19.5398437 18.86875,19.5398437 C18.86875,19.5398437 20.2578125,20.9289063 20.2578125,20.9289063 C20.3054688,21.025 20.4015625,21.0726563 20.5929688,21.0726563 C20.5929688,21.0726563 20.5929688,21.0726563 20.5929688,21.0726563 C20.928125,21.0726563 21.071875,20.9289063 21.071875,20.59375 C21.071875,20.59375 21.071875,20.59375 21.071875,20.59375 C21.071875,20.45 21.0242188,20.30625 20.928125,20.2585938 C20.928125,20.2585938 20.928125,20.2585938 20.928125,20.2585938 Z M4.98046875,18.8695313 C4.98046875,18.8695313 4.98046875,18.8695313 4.98046875,18.8695313 C4.98046875,18.8695313 3.59140625,20.2585938 3.59140625,20.2585938 C3.4953125,20.30625 3.44765625,20.45 3.44765625,20.59375 C3.44765625,20.59375 3.44765625,20.59375 3.44765625,20.59375 C3.44765625,20.9289063 3.59140625,21.0726563 3.9265625,21.0726563 C3.9265625,21.0726563 3.9265625,21.0726563 3.9265625,21.0726563 C4.11796875,21.0726563 4.2140625,21.025 4.26171875,20.9289063 C4.26171875,20.9289063 4.26171875,20.9289063 4.26171875,20.9289063 C4.26171875,20.9289063 5.65078125,19.5398437 5.65078125,19.5398437 C5.79453125,19.3960937 5.8421875,19.3007812 5.8421875,19.2046875 C5.8421875,19.2046875 5.8421875,19.2046875 5.8421875,19.2046875 C5.8421875,18.8695313 5.65078125,18.678125 5.315625,18.678125 C5.315625,18.678125 5.315625,18.678125 5.315625,18.678125 C5.21953125,18.678125 5.12421875,18.7257813 4.98046875,18.8695313 Z M20.2578125,3.5921875 C20.2578125,3.5921875 20.2578125,3.5921875 20.2578125,3.5921875 C20.2578125,3.5921875 18.86875,4.98125 18.86875,4.98125 C18.7726563,5.07734375 18.725,5.17265625 18.725,5.31640625 C18.725,5.31640625 18.725,5.31640625 18.725,5.31640625 C18.725,5.6515625 18.86875,5.7953125 19.2039063,5.7953125 C19.2039063,5.7953125 19.2039063,5.7953125 19.2039063,5.7953125 C19.3476563,5.7953125 19.4429688,5.74765625 19.5390625,5.6515625 C19.5390625,5.6515625 19.5390625,5.6515625 19.5390625,5.6515625 C19.5390625,5.6515625 20.928125,4.2625 20.928125,4.2625 C21.0242188,4.21484375 21.071875,4.07109375 21.071875,3.92734375 C21.071875,3.92734375 21.071875,3.92734375 21.071875,3.92734375 C21.071875,3.5921875 20.928125,3.4484375 20.5929688,3.4484375 C20.5929688,3.4484375 20.5929688,3.4484375 20.5929688,3.4484375 C20.4015625,3.4484375 20.3054688,3.49609375 20.2578125,3.5921875 L20.2578125,3.5921875 Z"/>
  <title>Sun Solid</title>
</svg>