<svg xmlns="http://www.w3.org/2000/svg" viewBox="0 0 25 25" id="sun">
  <path d="M17.4804688,7.040625 C16.04375,5.60390625 14.3195313,4.88515625 12.2601563,4.88515625 C10.2007813,4.88515625 8.4765625,5.60390625 7.03984375,7.040625 C5.603125,8.47734375 4.884375,10.2015625 4.884375,12.2609375 C4.884375,14.3203125 5.603125,16.0445312 7.03984375,17.48125 C8.4765625,18.9179688 10.2007813,19.6367188 12.2601563,19.6367188 C14.3195313,19.6367188 16.04375,18.9179688 17.4804688,17.48125 C18.9171875,16.0445313 19.6359375,14.3203125 19.6359375,12.2609375 C19.6359375,10.2015625 18.9171875,8.47734375 17.4804688,7.040625 L17.4804688,7.040625 Z M16.7617187,16.7625 C15.5164062,18.0078125 14.0320312,18.6304687 12.2601562,18.6304687 C10.4882812,18.6304687 9.003125,18.0078125 7.75859375,16.7625 C6.51328125,15.5171875 5.890625,14.0328125 5.890625,12.2609375 C5.890625,10.4890625 6.51328125,9.00390625 7.75859375,7.759375 C8.95625,6.5140625 10.4882812,5.89140625 12.2601562,5.89140625 C14.0320312,5.89140625 15.5648437,6.5140625 16.8101562,7.759375 C18.0078125,9.0046875 18.6296875,10.4890625 18.6296875,12.2609375 C18.6296875,14.0328125 18.0070312,15.5179688 16.7617188,16.7625 L16.7617187,16.7625 Z M11.7804688,2.4421875 C11.7804688,2.4421875 11.7804688,2.4421875 11.7804688,2.4421875 C11.7804688,2.4421875 11.7804688,0.47890625 11.7804688,0.47890625 C11.7804688,0.14375 11.9242188,0 12.259375,0 C12.5945312,0 12.7382812,0.14375 12.7382812,0.47890625 C12.7382812,0.47890625 12.7382812,0.47890625 12.7382812,0.47890625 C12.7382812,0.47890625 12.7382812,2.4421875 12.7382812,2.4421875 C12.7382812,2.77734375 12.5945312,2.92109375 12.259375,2.92109375 C11.9242188,2.92109375 11.7804688,2.77734375 11.7804688,2.4421875 L11.7804688,2.4421875 Z M12.7390625,22.0789062 C12.7390625,22.0789062 12.7390625,22.0789062 12.7390625,22.0789062 C12.7390625,22.0789062 12.7390625,24.0421875 12.7390625,24.0421875 C12.7390625,24.3773437 12.5953125,24.5210937 12.2601562,24.5210937 C11.925,24.5210937 11.78125,24.3773437 11.78125,24.0421875 C11.78125,24.0421875 11.78125,24.0421875 11.78125,24.0421875 C11.78125,24.0421875 11.78125,22.0789062 11.78125,22.0789062 C11.78125,21.74375 11.925,21.6 12.2601562,21.6 C12.5953125,21.6 12.7390625,21.74375 12.7390625,22.0789062 L12.7390625,22.0789062 Z M2.4421875,11.7820312 C2.77734375,11.7820312 2.92109375,11.9257812 2.92109375,12.2609375 C2.92109375,12.5960938 2.77734375,12.7398438 2.4421875,12.7398438 C2.4421875,12.7398438 2.4421875,12.7398438 2.4421875,12.7398438 C2.4421875,12.7398438 0.47890625,12.7398438 0.47890625,12.7398438 C0.14375,12.7398438 0,12.5960938 0,12.2609375 C0,11.9257813 0.14375,11.7820312 0.47890625,11.7820312 C0.47890625,11.7820312 0.47890625,11.7820312 0.47890625,11.7820312 C0.47890625,11.7820312 2.4421875,11.7820312 2.4421875,11.7820312 L2.4421875,11.7820312 Z M24.0414062,11.7820312 C24.3765625,11.7820312 24.5203125,11.9257812 24.5203125,12.2609375 C24.5203125,12.5960938 24.3765625,12.7398438 24.0414062,12.7398438 C24.0414062,12.7398438 24.0414062,12.7398438 24.0414062,12.7398438 C24.0414062,12.7398438 22.078125,12.7398438 22.078125,12.7398438 C21.7429687,12.7398438 21.5992187,12.5960938 21.5992187,12.2609375 C21.5992187,11.9257813 21.7429687,11.7820312 22.078125,11.7820312 C22.078125,11.7820312 22.078125,11.7820312 22.078125,11.7820312 C22.078125,11.7820312 24.0414062,11.7820312 24.0414062,11.7820312 L24.0414062,11.7820312 Z M4.98046875,5.6515625 C4.98046875,5.6515625 3.59140625,4.2625 3.59140625,4.2625 C3.4953125,4.21484375 3.44765625,4.07109375 3.44765625,3.92734375 C3.44765625,3.92734375 3.44765625,3.92734375 3.44765625,3.92734375 C3.44765625,3.5921875 3.59140625,3.4484375 3.9265625,3.4484375 C3.9265625,3.4484375 3.9265625,3.4484375 3.9265625,3.4484375 C4.11796875,3.4484375 4.2140625,3.49609375 4.26171875,3.5921875 C4.26171875,3.5921875 4.26171875,3.5921875 4.26171875,3.5921875 C4.26171875,3.5921875 5.65078125,4.98125 5.65078125,4.98125 C5.746875,5.07734375 5.79453125,5.17265625 5.79453125,5.31640625 C5.79453125,5.31640625 5.79453125,5.31640625 5.79453125,5.31640625 C5.79453125,5.6515625 5.65078125,5.7953125 5.315625,5.7953125 C5.315625,5.7953125 5.315625,5.7953125 5.315625,5.7953125 C5.171875,5.7953125 5.0765625,5.74765625 4.98046875,5.6515625 C4.98046875,5.6515625 4.98046875,5.6515625 4.98046875,5.6515625 Z M19.5398437,18.8695313 C19.5398437,18.8695313 20.9289062,20.2101563 20.9289062,20.2101563 C21.025,20.30625 21.0726562,20.4492188 21.0726562,20.5929688 C21.0726562,20.5929688 21.0726562,20.5929688 21.0726562,20.5929688 C21.0726562,20.928125 20.9289062,21.071875 20.59375,21.071875 C20.59375,21.071875 20.59375,21.071875 20.59375,21.071875 C20.4023437,21.071875 20.30625,21.0242187 20.2585937,20.928125 C20.2585937,20.928125 20.2585937,20.928125 20.2585937,20.928125 C20.2585937,20.928125 18.8695313,19.5390625 18.8695313,19.5390625 C18.7734375,19.4429687 18.7257813,19.3476562 18.7257813,19.2039062 C18.7257813,19.2039062 18.7257813,19.2039062 18.7257813,19.2039062 C18.7257813,18.86875 18.8695313,18.725 19.2046875,18.725 C19.2046875,18.725 19.2046875,18.725 19.2046875,18.725 C19.3484375,18.725 19.44375,18.7726563 19.5398437,18.86875 C19.5398437,18.86875 19.5398437,18.86875 19.5398437,18.86875 L19.5398437,18.8695313 Z M5.65078125,18.8695313 C5.65078125,18.8695313 5.65078125,18.8695313 5.65078125,18.8695313 C5.746875,18.9171875 5.79453125,19.0132813 5.79453125,19.2046875 C5.79453125,19.2046875 5.79453125,19.2046875 5.79453125,19.2046875 C5.79453125,19.3484375 5.746875,19.44375 5.65078125,19.5398437 C5.65078125,19.5398437 5.65078125,19.5398437 5.65078125,19.5398437 C5.65078125,19.5398437 4.26171875,20.9289063 4.26171875,20.9289063 C4.2140625,21.025 4.11796875,21.0726563 3.9265625,21.0726563 C3.9265625,21.0726563 3.9265625,21.0726563 3.9265625,21.0726563 C3.59140625,21.0726563 3.44765625,20.9289063 3.44765625,20.59375 C3.44765625,20.59375 3.44765625,20.59375 3.44765625,20.59375 C3.44765625,20.45 3.4953125,20.30625 3.59140625,20.2109375 C3.59140625,20.2109375 3.59140625,20.2109375 3.59140625,20.2109375 C3.59140625,20.2109375 4.98046875,18.8703125 4.98046875,18.8703125 C5.0765625,18.7742187 5.171875,18.7265625 5.315625,18.7265625 C5.315625,18.7265625 5.315625,18.7265625 5.315625,18.7265625 C5.459375,18.7265625 5.603125,18.7742187 5.65078125,18.8703125 L5.65078125,18.8695313 Z M20.5929688,3.4484375 C20.7367188,3.4484375 20.8320313,3.49609375 20.928125,3.5921875 C21.0242187,3.68828125 21.071875,3.78359375 21.071875,3.92734375 C21.071875,3.92734375 21.071875,3.92734375 21.071875,3.92734375 C21.071875,4.07109375 21.0242188,4.21484375 20.928125,4.2625 C20.928125,4.2625 20.928125,4.2625 20.928125,4.2625 C20.928125,4.2625 19.5390625,5.6515625 19.5390625,5.6515625 C19.4429687,5.74765625 19.3476562,5.7953125 19.2039063,5.7953125 C19.2039063,5.7953125 19.2039063,5.7953125 19.2039063,5.7953125 C18.86875,5.7953125 18.725,5.6515625 18.725,5.31640625 C18.725,5.31640625 18.725,5.31640625 18.725,5.31640625 C18.725,5.17265625 18.7726563,5.07734375 18.86875,4.98125 C18.86875,4.98125 18.86875,4.98125 18.86875,4.98125 C18.86875,4.98125 20.2578125,3.5921875 20.2578125,3.5921875 C20.3054688,3.49609375 20.4015625,3.4484375 20.5929688,3.4484375 C20.5929688,3.4484375 20.5929688,3.4484375 20.5929688,3.4484375 Z"/>
  <title>Sun</title>
</svg>