<svg xmlns="http://www.w3.org/2000/svg" viewBox="0 0 25 25" id="swipe-left-solid">
  <path d="M14.3203125,2.00625 C14.3203125,2.00625 14.3203125,2.00625 14.3203125,2.00625 C13.6015625,2.05390625 12.9796875,2.29375 12.5007812,2.8203125 C11.9742188,3.346875 11.734375,3.921875 11.734375,4.63984375 C11.734375,4.63984375 11.734375,4.63984375 11.734375,4.63984375 C11.734375,4.63984375 11.734375,11.5367187 11.734375,11.5367187 C11.734375,11.5367187 3.8796875,14.4578125 3.8796875,14.4578125 C3.8796875,14.4578125 3.8796875,24.2757813 3.8796875,24.2757813 C3.8796875,24.2757813 17.625,24.2757813 17.625,24.2757813 C17.625,24.2757813 22.9890625,17.90625 22.9890625,17.90625 C23.515625,17.1398437 23.6117188,16.3257813 23.371875,15.4640625 C23.084375,14.6023437 22.6054687,14.0273438 21.9828125,13.7875 C21.3125,13.5484375 20.6898438,13.5960937 20.0671875,13.9789062 C20.0671875,13.9789062 20.0671875,13.9789062 20.0671875,13.9789062 C20.0671875,13.9789062 16.61875,16.4210938 16.61875,16.4210938 C16.61875,16.4210938 16.61875,4.63984375 16.61875,4.63984375 C16.7148438,3.96953125 16.5226562,3.346875 16.0921875,2.8203125 C16.0921875,2.8203125 16.0921875,2.8203125 16.0921875,2.8203125 C15.565625,2.29375 14.9429687,2.00625 14.3203125,2.00625 Z M18.5828125,4.63984375 C18.5828125,4.63984375 18.5828125,3.68203125 18.5828125,3.68203125 C18.5828125,3.68203125 24.4257812,3.68203125 24.4257812,3.68203125 C24.4257812,3.68203125 24.4257812,4.63984375 24.4257812,4.63984375 C24.4257812,4.63984375 18.5828125,4.63984375 18.5828125,4.63984375 Z M0,4.1609375 C0,4.1609375 3.40078125,7.321875 3.40078125,7.321875 C3.40078125,7.321875 4.07109375,6.603125 4.07109375,6.603125 C4.07109375,6.603125 1.9640625,4.63984375 1.9640625,4.63984375 C1.9640625,4.63984375 10.0101562,4.63984375 10.0101562,4.63984375 C10.0101562,4.63984375 10.0101562,3.68203125 10.0101562,3.68203125 C10.0101562,3.68203125 1.9640625,3.68203125 1.9640625,3.68203125 C1.9640625,3.68203125 4.07109375,1.76640625 4.07109375,1.76640625 C4.07109375,1.76640625 3.40078125,1 3.40078125,1 C3.40078125,1 0,4.1609375 0,4.1609375 Z"/>
  <title>Swipe Left Solid</title>
</svg>