<svg xmlns="http://www.w3.org/2000/svg" viewBox="0 0 25 25" id="swipe-right">
  <path d="M21.1210938,7.36953125 C21.1210938,7.36953125 24.5210937,4.20859375 24.5210937,4.20859375 C24.5210937,4.20859375 21.1210938,1 21.1210938,1 C21.1210938,1 20.4507812,1.8140625 20.4507812,1.8140625 C20.4507812,1.8140625 22.5578125,3.77734375 22.5578125,3.77734375 C22.5578125,3.77734375 14.703125,3.77734375 14.703125,3.77734375 C14.703125,3.77734375 14.703125,4.7828125 14.703125,4.7828125 C14.703125,4.7828125 22.5578125,4.7828125 22.5578125,4.7828125 C22.5578125,4.7828125 20.4507813,6.65078125 20.4507813,6.65078125 C20.4507813,6.65078125 21.1210938,7.36953125 21.1210938,7.36953125 L21.1210938,7.36953125 Z M4.35859375,15.0796875 C4.35859375,15.0796875 8.8125,18.4796875 8.8125,18.4796875 C8.8125,18.4796875 8.8125,4.68671875 8.8125,4.68671875 C8.8125,3.58515625 9.24375,3.05859375 10.153125,3.05859375 C10.153125,3.05859375 10.153125,3.05859375 10.153125,3.05859375 C10.584375,3.05859375 10.9671875,3.20234375 11.3023437,3.5375 C11.3023437,3.5375 11.3023437,3.5375 11.3023437,3.5375 C11.6375,3.825 11.78125,4.2078125 11.78125,4.68671875 C11.78125,4.68671875 11.78125,4.68671875 11.78125,4.68671875 C11.78125,4.68671875 11.78125,12.5414062 11.78125,12.5414062 C11.78125,12.5414062 19.6835938,15.5585937 19.6835938,15.5585937 C19.6835938,15.5585937 19.6835938,23.4132812 19.6835938,23.4132812 C19.6835938,23.4132812 7.85390625,23.4132812 7.85390625,23.4132812 C7.85390625,23.4132812 2.10703125,17.4265625 2.10703125,17.4265625 C1.771875,16.9 1.628125,16.4210938 1.771875,15.89375 C1.771875,15.89375 1.771875,15.89375 1.771875,15.89375 C1.86796875,15.3671875 2.203125,14.9359375 2.77734375,14.6960938 C2.77734375,14.6960938 2.77734375,14.6960938 2.77734375,14.6960938 C3.30390625,14.4085938 3.83125,14.5523437 4.3578125,15.0789062 C4.3578125,15.0789062 4.3578125,15.0789062 4.3578125,15.0789062 L4.35859375,15.0796875 Z M8.38125,2.8671875 C8.38125,2.8671875 8.38125,2.8671875 8.38125,2.8671875 C7.95,3.39375 7.75859375,3.96875 7.8546875,4.6875 C7.8546875,4.6875 7.8546875,4.6875 7.8546875,4.6875 C7.8546875,4.6875 7.8546875,16.5171875 7.8546875,16.5171875 C7.8546875,16.5171875 4.35859375,14.075 4.35859375,14.075 C3.7359375,13.64375 3.11328125,13.5960937 2.490625,13.8835937 C2.490625,13.8835937 2.490625,13.8835937 2.490625,13.8835937 C1.8203125,14.1226562 1.34140625,14.6976562 1.1015625,15.5601562 C1.1015625,15.5601562 1.1015625,15.5601562 1.1015625,15.5601562 C0.8140625,16.421875 0.91015625,17.2367187 1.43671875,18.0023437 C1.43671875,18.0023437 1.43671875,18.0023437 1.43671875,18.0023437 C1.43671875,18.0023437 6.8484375,24.371875 6.8484375,24.371875 C6.8484375,24.371875 20.6414063,24.371875 20.6414063,24.371875 C20.6414063,24.371875 20.6414063,14.5539063 20.6414063,14.5539063 C20.6414063,14.5539063 12.7390625,11.584375 12.7390625,11.584375 C12.7390625,11.584375 12.7390625,4.6875 12.7390625,4.6875 C12.7390625,3.96875 12.5,3.346875 11.9726563,2.86796875 C11.9726563,2.86796875 11.9726563,2.86796875 11.9726563,2.86796875 C11.49375,2.34140625 10.8710938,2.05390625 10.153125,2.05390625 C10.153125,2.05390625 10.153125,2.05390625 10.153125,2.05390625 C9.4828125,2.05390625 8.9078125,2.34140625 8.38125,2.86796875 L8.38125,2.8671875 Z M0,3.77734375 C0,3.77734375 0,4.7828125 0,4.7828125 C0,4.7828125 5.84296875,4.7828125 5.84296875,4.7828125 C5.84296875,4.7828125 5.84296875,3.77734375 5.84296875,3.77734375 C5.84296875,3.77734375 0,3.77734375 0,3.77734375 Z"/>
  <title>Swipe Right</title>
</svg>