<svg xmlns="http://www.w3.org/2000/svg" viewBox="0 0 25 25" id="swipe-right-solid">
  <path d="M21.1210938,7.36953125 C21.1210938,7.36953125 24.5210937,4.20859375 24.5210937,4.20859375 C24.5210937,4.20859375 21.1210938,1 21.1210938,1 C21.1210938,1 20.4507812,1.8140625 20.4507812,1.8140625 C20.4507812,1.8140625 22.5578125,3.7296875 22.5578125,3.7296875 C22.5578125,3.7296875 14.4640625,3.7296875 14.4640625,3.7296875 C14.4640625,3.7296875 14.4640625,4.6875 14.4640625,4.6875 C14.4640625,4.6875 22.5578125,4.6875 22.5578125,4.6875 C22.5578125,4.6875 20.4507812,6.65078125 20.4507812,6.65078125 C20.4507812,6.65078125 21.1210938,7.36953125 21.1210938,7.36953125 Z M8.38125,2.8671875 C8.38125,2.8671875 8.38125,2.8671875 8.38125,2.8671875 C7.95,3.39375 7.75859375,3.96875 7.8546875,4.6875 C7.8546875,4.6875 7.8546875,4.6875 7.8546875,4.6875 C7.8546875,4.6875 7.8546875,16.5171875 7.8546875,16.5171875 C7.8546875,16.5171875 4.35859375,14.075 4.35859375,14.075 C3.7359375,13.64375 3.11328125,13.5960937 2.490625,13.8835937 C2.490625,13.8835937 2.490625,13.8835937 2.490625,13.8835937 C1.8203125,14.1226562 1.34140625,14.6976562 1.1015625,15.5601562 C1.1015625,15.5601562 1.1015625,15.5601562 1.1015625,15.5601562 C0.8140625,16.421875 0.91015625,17.2367187 1.43671875,18.0023437 C1.43671875,18.0023437 1.43671875,18.0023437 1.43671875,18.0023437 C1.43671875,18.0023437 6.8484375,24.371875 6.8484375,24.371875 C6.8484375,24.371875 20.6414063,24.371875 20.6414063,24.371875 C20.6414063,24.371875 20.6414063,14.5539063 20.6414063,14.5539063 C20.6414063,14.5539063 12.7390625,11.584375 12.7390625,11.584375 C12.7390625,11.584375 12.7390625,4.6875 12.7390625,4.6875 C12.7390625,3.96875 12.5,3.346875 11.9726563,2.86796875 C11.9726563,2.86796875 11.9726563,2.86796875 11.9726563,2.86796875 C11.49375,2.34140625 10.8710938,2.05390625 10.153125,2.05390625 C10.153125,2.05390625 10.153125,2.05390625 10.153125,2.05390625 C9.4828125,2.05390625 8.9078125,2.34140625 8.38125,2.86796875 L8.38125,2.8671875 Z M0,3.77734375 C0,3.77734375 0,4.7828125 0,4.7828125 C0,4.7828125 5.890625,4.7828125 5.890625,4.7828125 C5.890625,4.7828125 5.890625,3.77734375 5.890625,3.77734375 C5.890625,3.77734375 0,3.77734375 0,3.77734375 Z"/>
  <title>Swipe Right Solid</title>
</svg>