<svg xmlns="http://www.w3.org/2000/svg" viewBox="0 0 25 25" id="tablet">
  <path d="M19.1828125,2 C19.1828125,2 19.1828125,2 19.1828125,2 C19.1828125,2 5.48515625,2 5.48515625,2 C5.05390625,2 4.71875,2.14375 4.43125,2.43125 C4.14375,2.71875 4,3.05390625 4,3.48515625 C4,3.48515625 4,3.48515625 4,3.48515625 C4,3.48515625 4,21.1578125 4,21.1578125 C4,21.5890625 4.14375,21.9242188 4.43125,22.1632813 C4.71875,22.4507812 5.05390625,22.5945312 5.48515625,22.5945312 C5.48515625,22.5945312 5.48515625,22.5945312 5.48515625,22.5945312 C5.48515625,22.5945312 19.1828125,22.5945312 19.1828125,22.5945312 C19.6140625,22.5945312 19.9492188,22.4507812 20.2367188,22.1632813 C20.5242187,21.9242187 20.6679688,21.5882813 20.6679688,21.1578125 C20.6679688,21.1578125 20.6679688,21.1578125 20.6679688,21.1578125 C20.6679688,21.1578125 20.6679688,3.48515625 20.6679688,3.48515625 C20.6679688,3.05390625 20.5242187,2.71875 20.2367188,2.43125 C19.9492188,2.14375 19.6140625,2 19.1828125,2 Z M4.95859375,3.00625 C4.95859375,3.00625 19.709375,3.00625 19.709375,3.00625 C19.709375,3.00625 19.709375,17.6132812 19.709375,17.6132812 C19.709375,17.6132812 4.95859375,17.7570313 4.95859375,17.7570313 C4.95859375,17.7570313 4.95859375,3.00625 4.95859375,3.00625 Z M19.709375,21.684375 C19.709375,21.684375 4.95859375,21.684375 4.95859375,21.684375 C4.95859375,21.684375 4.95859375,18.7148438 4.95859375,18.7148438 C4.95859375,18.7148438 19.709375,18.7148438 19.709375,18.7148438 C19.709375,18.7148438 19.709375,21.684375 19.709375,21.684375 L19.709375,21.684375 Z M13.2921875,19.7203125 C13.2921875,19.7203125 13.2921875,19.7203125 13.2921875,19.7203125 C13.2921875,19.7203125 11.3765625,19.7203125 11.3765625,19.7203125 C11.3289063,20.0078125 11.3289063,20.3429688 11.3765625,20.678125 C11.3765625,20.678125 11.3765625,20.678125 11.3765625,20.678125 C11.3765625,20.678125 13.2921875,20.678125 13.2921875,20.678125 C13.3398438,20.3429688 13.3398438,20.0078125 13.2921875,19.7203125 Z"/>
  <title>Tablet</title>
</svg>