<svg xmlns="http://www.w3.org/2000/svg" viewBox="0 0 25 25" id="tag-close-solid">
  <path d="M13.3820313,0.3828125 C13.3820313,0.3828125 19.2726563,5.890625 19.2726563,5.890625 C19.6078125,6.22578125 19.7515625,6.5609375 19.7515625,6.94453125 C19.7515625,6.94453125 19.7515625,6.94453125 19.7515625,6.94453125 C19.7515625,6.94453125 19.7515625,23.0367188 19.7515625,23.0367188 C19.7515625,23.4679688 19.6078125,23.803125 19.3203125,24.090625 C19.0328125,24.378125 18.6976563,24.521875 18.2664063,24.521875 C18.2664063,24.521875 18.2664063,24.521875 18.2664063,24.521875 C18.2664063,24.521875 6.48515625,24.521875 6.48515625,24.521875 C6.05390625,24.521875 5.71875,24.378125 5.43125,24.090625 C5.14375,23.803125 5,23.4679688 5,23.0367188 C5,23.0367188 5,23.0367188 5,23.0367188 C5,23.0367188 5,6.94453125 5,6.94453125 C5,6.609375 5.14375,6.27421875 5.47890625,5.890625 C5.47890625,5.890625 5.47890625,5.890625 5.47890625,5.890625 C5.47890625,5.890625 11.3695313,0.3828125 11.3695313,0.3828125 C11.7046875,0.14375 12.0398438,0 12.375,0 C12.375,0 12.375,0 12.375,0 C12.7101563,0 13.0453125,0.14375 13.3804687,0.3828125 C13.3804687,0.3828125 13.3804687,0.3828125 13.3804687,0.3828125 L13.3820313,0.3828125 Z M15.6804688,19.73125 C15.6804688,19.73125 13.0460938,17.1453125 13.0460938,17.1453125 C13.0460938,17.1453125 15.6804688,14.6070312 15.6804688,14.6070312 C15.7765625,14.415625 15.8242188,14.271875 15.8242188,14.2242187 C15.8242188,14.2242187 15.8242188,14.2242187 15.8242188,14.2242187 C15.8242188,13.8890625 15.6328125,13.7453125 15.2976563,13.7453125 C15.2976563,13.7453125 15.2976563,13.7453125 15.2976563,13.7453125 C15.1539063,13.7453125 15.0585938,13.7929687 14.9625,13.8890625 C14.9625,13.8890625 14.9625,13.8890625 14.9625,13.8890625 C14.9625,13.8890625 12.3765625,16.475 12.3765625,16.475 C12.3765625,16.475 9.790625,13.8890625 9.790625,13.8890625 C9.59921875,13.7929687 9.503125,13.7453125 9.45546875,13.7453125 C9.45546875,13.7453125 9.45546875,13.7453125 9.45546875,13.7453125 C9.1203125,13.7453125 8.92890625,13.9367187 8.92890625,14.271875 C8.92890625,14.271875 8.92890625,14.271875 8.92890625,14.271875 C8.92890625,14.415625 8.9765625,14.5109375 9.07265625,14.6070312 C9.07265625,14.6070312 9.07265625,14.6070312 9.07265625,14.6070312 C9.07265625,14.6070312 11.6585938,17.1453125 11.6585938,17.1453125 C11.6585938,17.1453125 9.07265625,19.73125 9.07265625,19.73125 C8.9765625,19.8273437 8.92890625,19.9703125 8.92890625,20.1140625 C8.92890625,20.1140625 8.92890625,20.1140625 8.92890625,20.1140625 C8.92890625,20.4492187 9.07265625,20.5929687 9.4078125,20.5929687 C9.4078125,20.5929687 9.4078125,20.5929687 9.4078125,20.5929687 C9.5515625,20.5929687 9.6953125,20.5453125 9.790625,20.4492187 C9.790625,20.4492187 9.790625,20.4492187 9.790625,20.4492187 C9.790625,20.4492187 12.3765625,17.8148437 12.3765625,17.8148437 C12.3765625,17.8148437 14.9625,20.4492187 14.9625,20.4492187 C15.1539063,20.5453125 15.25,20.5929687 15.2976563,20.5929687 C15.2976563,20.5929687 15.2976563,20.5929687 15.2976563,20.5929687 C15.6328125,20.5929687 15.7765625,20.4015625 15.7765625,20.0664062 C15.7765625,20.0664062 15.7765625,20.0664062 15.7765625,20.0664062 C15.7765625,20.01875 15.7289063,19.9226562 15.6804688,19.73125 C15.6804688,19.73125 15.6804688,19.73125 15.6804688,19.73125 Z M14.81875,7.375 C14.81875,6.65625 14.5796875,6.08203125 14.1,5.603125 C13.6203125,5.12421875 13.0460937,4.884375 12.3757812,4.884375 C11.7054687,4.884375 11.1304687,5.1234375 10.6515625,5.603125 C10.1726562,6.0828125 9.9328125,6.65703125 9.9328125,7.375 C9.9328125,7.375 9.9328125,7.375 9.9328125,7.375 C9.9328125,8.0453125 10.171875,8.6203125 10.6515625,9.09921875 C11.13125,9.578125 11.7054687,9.81796875 12.3757812,9.81796875 C13.0460937,9.81796875 13.6210938,9.57890625 14.1,9.09921875 C14.5789062,8.61953125 14.81875,8.0453125 14.81875,7.375 C14.81875,7.375 14.81875,7.375 14.81875,7.375 L14.81875,7.375 Z"/>
  <title>Tag Close Solid</title>
</svg>