<svg xmlns="http://www.w3.org/2000/svg" viewBox="0 0 25 25" id="tag-solid">
  <path d="M19.2710937,5.890625 C19.2710937,5.890625 19.2710937,5.890625 19.2710937,5.890625 C19.2710937,5.890625 13.3804687,0.3828125 13.3804687,0.3828125 C13.0453125,0.14375 12.7101562,0 12.375,0 C12.0398437,0 11.7046875,0.14375 11.3695312,0.3828125 C11.3695312,0.3828125 11.3695312,0.3828125 11.3695312,0.3828125 C11.3695312,0.3828125 5.47890625,5.890625 5.47890625,5.890625 C5.14375,6.22578125 5,6.5609375 5,6.94453125 C5,6.94453125 5,6.94453125 5,6.94453125 C5,6.94453125 5,23.0367188 5,23.0367188 C5,23.4679688 5.14375,23.803125 5.43125,24.090625 C5.71875,24.378125 6.05390625,24.521875 6.48515625,24.521875 C6.48515625,24.521875 6.48515625,24.521875 6.48515625,24.521875 C6.48515625,24.521875 18.2664062,24.521875 18.2664062,24.521875 C18.6976563,24.521875 19.0328125,24.378125 19.3203125,24.090625 C19.6078125,23.803125 19.7515625,23.4679688 19.7515625,23.0367188 C19.7515625,23.0367188 19.7515625,23.0367188 19.7515625,23.0367188 C19.7515625,23.0367188 19.7515625,6.94453125 19.7515625,6.94453125 C19.7515625,6.56171875 19.6078125,6.22578125 19.2726563,5.890625 L19.2710937,5.890625 Z M14.0984375,9.1 C13.6195312,9.57890625 13.0445312,9.81875 12.3742187,9.81875 C11.7039062,9.81875 11.1289062,9.5796875 10.65,9.1 C10.1710937,8.62109375 9.93125,8.04609375 9.93125,7.37578125 C9.93125,7.37578125 9.93125,7.37578125 9.93125,7.37578125 C9.93125,6.65703125 10.1703125,6.0828125 10.65,5.60390625 C11.1296875,5.125 11.7039062,4.88515625 12.3742187,4.88515625 C13.0445312,4.88515625 13.6195312,5.12421875 14.0984375,5.60390625 C14.5773437,6.08359375 14.8171875,6.6578125 14.8171875,7.37578125 C14.8171875,7.37578125 14.8171875,7.37578125 14.8171875,7.37578125 C14.8171875,8.04609375 14.578125,8.62109375 14.0984375,9.1 Z"/>
  <title>Tag Solid</title>
</svg>