<svg xmlns="http://www.w3.org/2000/svg" viewBox="0 0 25 25" id="tag-check">
  <path d="M13.3820313,0.3828125 C13.3820313,0.3828125 19.2726563,5.890625 19.2726563,5.890625 C19.6078125,6.22578125 19.7515625,6.5609375 19.7515625,6.94453125 C19.7515625,6.94453125 19.7515625,6.94453125 19.7515625,6.94453125 C19.7515625,6.94453125 19.7515625,23.0367188 19.7515625,23.0367188 C19.7515625,23.4679688 19.6078125,23.803125 19.3203125,24.090625 C19.0328125,24.378125 18.6976563,24.521875 18.2664063,24.521875 C18.2664063,24.521875 18.2664063,24.521875 18.2664063,24.521875 C18.2664063,24.521875 6.48515625,24.521875 6.48515625,24.521875 C6.05390625,24.521875 5.71875,24.378125 5.43125,24.090625 C5.14375,23.803125 5,23.4679688 5,23.0367188 C5,23.0367188 5,23.0367188 5,23.0367188 C5,23.0367188 5,6.94453125 5,6.94453125 C5,6.609375 5.14375,6.27421875 5.47890625,5.890625 C5.47890625,5.890625 5.47890625,5.890625 5.47890625,5.890625 C5.47890625,5.890625 11.3695313,0.3828125 11.3695313,0.3828125 C11.7046875,0.14375 12.0398438,0 12.375,0 C12.375,0 12.375,0 12.375,0 C12.7101563,0 13.0453125,0.14375 13.3804687,0.3828125 C13.3804687,0.3828125 13.3804687,0.3828125 13.3804687,0.3828125 L13.3820313,0.3828125 Z M18.7460938,23.0359375 C18.7460938,23.0359375 18.7460938,23.0359375 18.7460938,23.0359375 C18.7460938,23.0359375 18.7460938,6.94375 18.7460938,6.94375 C18.7460938,6.8 18.6984375,6.7046875 18.6023438,6.60859375 C18.6023438,6.60859375 18.6023438,6.60859375 18.6023438,6.60859375 C18.6023438,6.60859375 12.7117187,1.10078125 12.7117187,1.10078125 C12.615625,1.0046875 12.5203125,0.95703125 12.3765625,0.95703125 C12.2328125,0.95703125 12.1375,1.0046875 12.0414063,1.10078125 C12.0414063,1.10078125 12.0414063,1.10078125 12.0414063,1.10078125 C12.0414063,1.10078125 6.15078125,6.60859375 6.15078125,6.60859375 C6.0546875,6.7046875 6.00703125,6.8 6.00703125,6.94375 C6.00703125,6.94375 6.00703125,6.94375 6.00703125,6.94375 C6.00703125,6.94375 6.00703125,23.0359375 6.00703125,23.0359375 C6.00703125,23.3710938 6.15078125,23.5148438 6.4859375,23.5148438 C6.4859375,23.5148438 6.4859375,23.5148438 6.4859375,23.5148438 C6.4859375,23.5148438 18.2671875,23.5148438 18.2671875,23.5148438 C18.6023438,23.5148438 18.7460938,23.3710938 18.7460938,23.0359375 L18.7460938,23.0359375 Z M12.3765625,4.884375 C13.046875,4.884375 13.621875,5.1234375 14.1007813,5.603125 C14.5796875,6.0828125 14.8195313,6.65703125 14.8195313,7.375 C14.8195313,7.375 14.8195313,7.375 14.8195313,7.375 C14.8195313,8.0453125 14.5804688,8.6203125 14.1007813,9.09921875 C13.6210938,9.578125 13.046875,9.81796875 12.3765625,9.81796875 C11.70625,9.81796875 11.13125,9.57890625 10.6523438,9.09921875 C10.1734375,8.61953125 9.93359375,8.0453125 9.93359375,7.375 C9.93359375,7.375 9.93359375,7.375 9.93359375,7.375 C9.93359375,6.65625 10.1726562,6.08203125 10.6523438,5.603125 C11.1320313,5.12421875 11.70625,4.884375 12.3765625,4.884375 Z M13.4296875,8.42890625 C13.4296875,8.42890625 13.4296875,8.42890625 13.4296875,8.42890625 C13.7171875,8.14140625 13.8609375,7.80625 13.8609375,7.375 C13.8609375,6.94375 13.7171875,6.60859375 13.4296875,6.32109375 C13.1421875,6.03359375 12.8070312,5.88984375 12.3757812,5.88984375 C11.9445313,5.88984375 11.609375,6.03359375 11.321875,6.32109375 C11.034375,6.60859375 10.890625,6.94375 10.890625,7.375 C10.890625,7.80625 11.034375,8.14140625 11.321875,8.42890625 C11.321875,8.42890625 11.321875,8.42890625 11.321875,8.42890625 C11.6570312,8.66796875 11.9921875,8.81171875 12.3757812,8.81171875 C12.759375,8.81171875 13.0945313,8.66796875 13.4296875,8.42890625 Z M16.6382812,14.3671875 C16.734375,14.4632813 16.7820312,14.5585938 16.7820312,14.7023438 C16.7820312,14.8460937 16.734375,14.9414063 16.6382812,15.0375 C16.6382812,15.0375 16.6382812,15.0375 16.6382812,15.0375 C16.6382812,15.0375 11.753125,19.9703125 11.753125,19.9703125 C11.6570312,20.0664062 11.5140625,20.1140625 11.3703125,20.1140625 C11.3703125,20.1140625 11.3703125,20.1140625 11.3703125,20.1140625 C11.2742187,20.1140625 11.1789063,20.0664062 11.0828125,19.9703125 C11.0828125,19.9703125 11.0828125,19.9703125 11.0828125,19.9703125 C11.0828125,19.9703125 8.11328125,17.528125 8.11328125,17.528125 C8.0171875,17.4320312 7.96953125,17.2890625 7.96953125,17.1453125 C7.96953125,17.1453125 7.96953125,17.1453125 7.96953125,17.1453125 C7.96953125,16.8101563 8.11328125,16.6664063 8.4484375,16.6664063 C8.4484375,16.6664063 8.4484375,16.6664063 8.4484375,16.6664063 C8.5921875,16.6664063 8.6875,16.7140625 8.7359375,16.7625 C8.7359375,16.7625 8.7359375,16.7625 8.7359375,16.7625 C8.7359375,16.7625 11.3703125,18.965625 11.3703125,18.965625 C11.3703125,18.965625 15.9679687,14.3679688 15.9679687,14.3679688 C16.015625,14.271875 16.1117188,14.2242188 16.303125,14.2242188 C16.303125,14.2242188 16.303125,14.2242188 16.303125,14.2242188 C16.446875,14.2242188 16.5421875,14.271875 16.6382812,14.3679688 L16.6382812,14.3671875 Z"/>
  <title>Tag Check</title>
</svg>