<svg xmlns="http://www.w3.org/2000/svg" viewBox="0 0 25 25" id="tag-check-solid">
  <path d="M13.3820313,0.3828125 C13.3820313,0.3828125 19.2726563,5.890625 19.2726563,5.890625 C19.6078125,6.22578125 19.7515625,6.5609375 19.7515625,6.94453125 C19.7515625,6.94453125 19.7515625,6.94453125 19.7515625,6.94453125 C19.7515625,6.94453125 19.7515625,23.0367188 19.7515625,23.0367188 C19.7515625,23.4679688 19.6078125,23.803125 19.3203125,24.090625 C19.0328125,24.378125 18.6976563,24.521875 18.2664063,24.521875 C18.2664063,24.521875 18.2664063,24.521875 18.2664063,24.521875 C18.2664063,24.521875 6.48515625,24.521875 6.48515625,24.521875 C6.05390625,24.521875 5.71875,24.378125 5.43125,24.090625 C5.14375,23.803125 5,23.4679688 5,23.0367188 C5,23.0367188 5,23.0367188 5,23.0367188 C5,23.0367188 5,6.94453125 5,6.94453125 C5,6.609375 5.14375,6.27421875 5.47890625,5.890625 C5.47890625,5.890625 5.47890625,5.890625 5.47890625,5.890625 C5.47890625,5.890625 11.3695313,0.3828125 11.3695313,0.3828125 C11.7046875,0.14375 12.0398438,0 12.375,0 C12.375,0 12.375,0 12.375,0 C12.7101563,0 13.0453125,0.14375 13.3804687,0.3828125 C13.3804687,0.3828125 13.3804687,0.3828125 13.3804687,0.3828125 L13.3820313,0.3828125 Z M14.81875,7.375 C14.81875,6.65625 14.5796875,6.08203125 14.1,5.603125 C13.6203125,5.12421875 13.0460937,4.884375 12.3757812,4.884375 C11.7054687,4.884375 11.1304687,5.1234375 10.6515625,5.603125 C10.1726562,6.0828125 9.9328125,6.65703125 9.9328125,7.375 C9.9328125,7.375 9.9328125,7.375 9.9328125,7.375 C9.9328125,8.0453125 10.171875,8.6203125 10.6515625,9.09921875 C11.13125,9.578125 11.7054687,9.81796875 12.3757812,9.81796875 C13.0460937,9.81796875 13.6210938,9.57890625 14.1,9.09921875 C14.5789062,8.61953125 14.81875,8.0453125 14.81875,7.375 C14.81875,7.375 14.81875,7.375 14.81875,7.375 L14.81875,7.375 Z M16.6382813,15.0375 C16.734375,14.9414062 16.7820313,14.8460937 16.7820313,14.7023438 C16.7820313,14.5585938 16.734375,14.4632812 16.6382813,14.3671875 C16.5421875,14.2710938 16.446875,14.2234375 16.303125,14.2234375 C16.303125,14.2234375 16.303125,14.2234375 16.303125,14.2234375 C16.1117188,14.2234375 16.015625,14.2710938 15.9679688,14.3671875 C15.9679688,14.3671875 15.9679688,14.3671875 15.9679688,14.3671875 C15.9679688,14.3671875 11.3703125,18.9648438 11.3703125,18.9648438 C11.3703125,18.9648438 8.7359375,16.7617188 8.7359375,16.7617188 C8.68828125,16.7140625 8.5921875,16.665625 8.4484375,16.665625 C8.4484375,16.665625 8.4484375,16.665625 8.4484375,16.665625 C8.11328125,16.665625 7.96953125,16.809375 7.96953125,17.1445312 C7.96953125,17.1445312 7.96953125,17.1445312 7.96953125,17.1445312 C7.96953125,17.2882813 8.0171875,17.4320313 8.11328125,17.5273438 C8.11328125,17.5273438 8.11328125,17.5273438 8.11328125,17.5273438 C8.11328125,17.5273438 11.0828125,19.9695313 11.0828125,19.9695313 C11.1789063,20.065625 11.2742188,20.1132812 11.3703125,20.1132812 C11.3703125,20.1132812 11.3703125,20.1132812 11.3703125,20.1132812 C11.5140625,20.1132812 11.6578125,20.065625 11.753125,19.9695313 C11.753125,19.9695313 11.753125,19.9695313 11.753125,19.9695313 C11.753125,19.9695313 16.6382813,15.0367188 16.6382813,15.0367188 L16.6382813,15.0375 Z"/>
  <title>Tag Check Solid</title>
</svg>