<svg xmlns="http://www.w3.org/2000/svg" viewBox="0 0 25 25" id="tag">
  <path d="M19.2710937,5.890625 C19.2710937,5.890625 19.2710937,5.890625 19.2710937,5.890625 C19.2710937,5.890625 13.3804687,0.3828125 13.3804687,0.3828125 C13.0453125,0.14375 12.7101562,0 12.375,0 C12.0398437,0 11.7046875,0.14375 11.3695312,0.3828125 C11.3695312,0.3828125 11.3695312,0.3828125 11.3695312,0.3828125 C11.3695312,0.3828125 5.47890625,5.890625 5.47890625,5.890625 C5.14375,6.22578125 5,6.5609375 5,6.94453125 C5,6.94453125 5,6.94453125 5,6.94453125 C5,6.94453125 5,23.0367188 5,23.0367188 C5,23.4679688 5.14375,23.803125 5.43125,24.090625 C5.71875,24.378125 6.05390625,24.521875 6.48515625,24.521875 C6.48515625,24.521875 6.48515625,24.521875 6.48515625,24.521875 C6.48515625,24.521875 18.2664062,24.521875 18.2664062,24.521875 C18.6976563,24.521875 19.0328125,24.378125 19.3203125,24.090625 C19.6078125,23.803125 19.7515625,23.4679688 19.7515625,23.0367188 C19.7515625,23.0367188 19.7515625,23.0367188 19.7515625,23.0367188 C19.7515625,23.0367188 19.7515625,6.94453125 19.7515625,6.94453125 C19.7515625,6.56171875 19.6078125,6.22578125 19.2726563,5.890625 L19.2710937,5.890625 Z M18.7445312,6.94453125 C18.7445312,6.94453125 18.7445312,23.0367187 18.7445312,23.0367187 C18.7445312,23.371875 18.6007813,23.515625 18.265625,23.515625 C18.265625,23.515625 18.265625,23.515625 18.265625,23.515625 C18.265625,23.515625 6.484375,23.515625 6.484375,23.515625 C6.14921875,23.515625 6.00546875,23.371875 6.00546875,23.0367187 C6.00546875,23.0367187 6.00546875,23.0367187 6.00546875,23.0367187 C6.00546875,23.0367187 6.00546875,6.94453125 6.00546875,6.94453125 C6.00546875,6.80078125 6.053125,6.70546875 6.14921875,6.609375 C6.14921875,6.609375 6.14921875,6.609375 6.14921875,6.609375 C6.14921875,6.609375 12.0398437,1.1015625 12.0398437,1.1015625 C12.1359375,1.00546875 12.23125,0.9578125 12.375,0.9578125 C12.51875,0.9578125 12.6140625,1.00546875 12.7101562,1.1015625 C12.7101562,1.1015625 12.7101562,1.1015625 12.7101562,1.1015625 C12.7101562,1.1015625 18.6007812,6.609375 18.6007812,6.609375 C18.696875,6.70546875 18.7445312,6.80078125 18.7445312,6.94453125 C18.7445312,6.94453125 18.7445312,6.94453125 18.7445312,6.94453125 Z M14.0984375,5.603125 C13.6195312,5.12421875 13.0445312,4.884375 12.3742187,4.884375 C11.7039062,4.884375 11.1289062,5.1234375 10.65,5.603125 C10.1710937,6.08203125 9.93125,6.65703125 9.93125,7.375 C9.93125,7.375 9.93125,7.375 9.93125,7.375 C9.93125,8.0453125 10.1703125,8.6203125 10.65,9.09921875 C11.1296875,9.578125 11.7039062,9.81796875 12.3742187,9.81796875 C13.0445312,9.81796875 13.6195312,9.57890625 14.0984375,9.09921875 C14.5773437,8.61953125 14.8171875,8.0453125 14.8171875,7.375 C14.8171875,7.375 14.8171875,7.375 14.8171875,7.375 C14.8171875,6.65625 14.578125,6.08203125 14.0984375,5.603125 Z M13.428125,8.38125 C13.140625,8.66875 12.8054687,8.8125 12.3742187,8.8125 C11.9429687,8.8125 11.6078125,8.66875 11.3203125,8.38125 C11.0328125,8.1421875 10.8890625,7.80625 10.8890625,7.37578125 C10.8890625,6.9453125 11.0328125,6.609375 11.3203125,6.321875 C11.6078125,6.034375 11.9429687,5.890625 12.3742187,5.890625 C12.8054687,5.890625 13.140625,6.034375 13.428125,6.321875 C13.715625,6.609375 13.859375,6.94453125 13.859375,7.37578125 C13.859375,7.80703125 13.715625,8.1421875 13.428125,8.38125 L13.428125,8.38125 Z"/>
  <title>Tag</title>
</svg>