<svg xmlns="http://www.w3.org/2000/svg" viewBox="0 0 25 25" id="target-solid">
  <path d="M15.3726563,9.14765625 C16.234375,10.009375 16.665625,11.0632812 16.665625,12.2609375 C16.665625,13.4585937 16.234375,14.5117187 15.3726563,15.3742187 C14.5109375,16.2359375 13.4570312,16.6671875 12.259375,16.6671875 C11.0617188,16.6671875 10.0085937,16.2359375 9.14609375,15.3742187 C8.284375,14.5125 7.853125,13.4585937 7.853125,12.2609375 C7.853125,11.0632812 8.284375,10.0101562 9.14609375,9.14765625 C10.0078125,8.2859375 11.0617187,7.8546875 12.259375,7.8546875 C13.4570312,7.8546875 14.5101563,8.2859375 15.3726563,9.14765625 Z M24.0414062,11.7820313 C24.3765625,11.7820313 24.5203125,11.9257812 24.5203125,12.2609375 C24.5203125,12.5960938 24.3765625,12.7398437 24.0414062,12.7398437 C24.0414062,12.7398437 24.0414062,12.7398437 24.0414062,12.7398437 C24.0414062,12.7398437 21.5507813,12.7398437 21.5507813,12.7398437 C21.4070312,15.0867188 20.5453125,17.1460937 18.86875,18.821875 C17.1921875,20.4976562 15.1328125,21.4078125 12.7867188,21.5515625 C12.7867188,21.5515625 12.7867188,21.5515625 12.7867188,21.5515625 C12.7867188,21.5515625 12.7390625,24.0421875 12.7390625,24.0421875 C12.7390625,24.3773437 12.5953125,24.5210937 12.2601563,24.5210937 C11.925,24.5210937 11.78125,24.3773437 11.78125,24.0421875 C11.78125,24.0421875 11.78125,24.0421875 11.78125,24.0421875 C11.78125,24.0421875 11.78125,21.5515625 11.78125,21.5515625 C9.38671875,21.4078125 7.375,20.4976562 5.69921875,18.821875 C4.0234375,17.1460937 3.11328125,15.134375 2.96953125,12.7875 C2.96953125,12.7875 2.96953125,12.7875 2.96953125,12.7875 C2.96953125,12.7875 0.47890625,12.7398437 0.47890625,12.7398437 C0.14375,12.7398437 0,12.5960937 0,12.2609375 C0,11.9257812 0.14375,11.7820313 0.47890625,11.7820313 C0.47890625,11.7820313 0.47890625,11.7820313 0.47890625,11.7820313 C0.47890625,11.7820313 2.96953125,11.7820313 2.96953125,11.7820313 C3.11328125,9.3875 4.0234375,7.328125 5.69921875,5.6515625 C7.375,3.975 9.38671875,3.11328125 11.7335938,2.96953125 C11.7335938,2.96953125 11.7335938,2.96953125 11.7335938,2.96953125 C11.7335938,2.96953125 11.78125,0.47890625 11.78125,0.47890625 C11.78125,0.14375 11.925,0 12.2601563,0 C12.5953125,0 12.7390625,0.14375 12.7390625,0.47890625 C12.7390625,0.47890625 12.7390625,0.47890625 12.7390625,0.47890625 C12.7390625,0.47890625 12.7390625,2.96953125 12.7390625,2.96953125 C15.1335938,3.11328125 17.1929688,3.975 18.8695313,5.6515625 C20.5460938,7.328125 21.4078125,9.3875 21.5515625,11.7335937 C21.5515625,11.7335937 21.5515625,11.7335937 21.5515625,11.7335937 C21.5515625,11.7335937 24.0421875,11.78125 24.0421875,11.78125 L24.0414062,11.7820313 Z M18.1507812,18.1515625 C19.7789062,16.5234375 20.5929687,14.559375 20.5929687,12.2609375 C20.5929687,9.9625 19.7789062,7.9984375 18.1507812,6.3703125 C16.5226562,4.7421875 14.5585937,3.928125 12.2601562,3.928125 C9.96171875,3.928125 7.99765625,4.7421875 6.36953125,6.3703125 C4.74140625,7.9984375 3.92734375,9.9625 3.92734375,12.2609375 C3.92734375,14.559375 4.74140625,16.5234375 6.36953125,18.1515625 C7.99765625,19.7796875 9.96171875,20.59375 12.2601562,20.59375 C14.5585937,20.59375 16.5226562,19.7796875 18.1507812,18.1515625 Z"/>
  <title>Target Solid</title>
</svg>