<svg xmlns="http://www.w3.org/2000/svg" viewBox="0 0 25 25" id="target">
  <path d="M15.3726563,9.14765625 C14.5109375,8.2859375 13.4570312,7.8546875 12.259375,7.8546875 C11.0617188,7.8546875 10.0085938,8.2859375 9.14609375,9.14765625 C8.284375,10.009375 7.853125,11.0632812 7.853125,12.2609375 C7.853125,13.4585937 8.284375,14.5117188 9.14609375,15.3742188 C10.0078125,16.2359375 11.0617188,16.6671875 12.259375,16.6671875 C13.4570312,16.6671875 14.5101563,16.2359375 15.3726563,15.3742188 C16.234375,14.5125 16.665625,13.4585937 16.665625,12.2609375 C16.665625,11.0632813 16.234375,10.0101563 15.3726563,9.14765625 Z M14.7023438,14.703125 C14.0320313,15.3734375 13.2179688,15.7085937 12.2601563,15.7085937 C11.3023437,15.7085937 10.4882812,15.3734375 9.81796875,14.703125 C9.14765625,14.0328125 8.8125,13.21875 8.8125,12.2609375 C8.8125,11.303125 9.14765625,10.4890625 9.81796875,9.81875 C10.4882812,9.1484375 11.3023438,8.81328125 12.2601563,8.81328125 C13.2179688,8.81328125 14.0320313,9.1484375 14.7023438,9.81875 C15.3726563,10.4890625 15.7078125,11.303125 15.7078125,12.2609375 C15.7078125,13.21875 15.3726563,14.0328125 14.7023438,14.703125 Z M24.0414062,11.7820312 C24.0414062,11.7820312 24.0414062,11.7820312 24.0414062,11.7820312 C24.0414062,11.7820312 21.5507812,11.7820312 21.5507812,11.7820312 C21.4070312,9.3875 20.5453125,7.328125 18.86875,5.6515625 C17.1921875,3.975 15.1328125,3.11328125 12.7867187,2.96953125 C12.7867187,2.96953125 12.7867187,2.96953125 12.7867187,2.96953125 C12.7867187,2.96953125 12.7390625,0.47890625 12.7390625,0.47890625 C12.7390625,0.14375 12.5953125,0 12.2601562,0 C11.925,0 11.78125,0.14375 11.78125,0.47890625 C11.78125,0.47890625 11.78125,0.47890625 11.78125,0.47890625 C11.78125,0.47890625 11.78125,2.96953125 11.78125,2.96953125 C9.38671875,3.11328125 7.375,3.975 5.69921875,5.6515625 C4.0234375,7.328125 3.11328125,9.3875 2.96953125,11.7335938 C2.96953125,11.7335938 2.96953125,11.7335938 2.96953125,11.7335938 C2.96953125,11.7335938 0.47890625,11.78125 0.47890625,11.78125 C0.14375,11.78125 0,11.925 0,12.2601563 C0,12.5953125 0.14375,12.7390625 0.47890625,12.7390625 C0.47890625,12.7390625 0.47890625,12.7390625 0.47890625,12.7390625 C0.47890625,12.7390625 2.96953125,12.7390625 2.96953125,12.7390625 C3.11328125,15.0859375 4.0234375,17.1453125 5.69921875,18.8210937 C7.375,20.496875 9.38671875,21.4070312 11.7335937,21.5507812 C11.7335937,21.5507812 11.7335937,21.5507812 11.7335937,21.5507812 C11.7335937,21.5507812 11.78125,24.0414062 11.78125,24.0414062 C11.78125,24.3765625 11.925,24.5203125 12.2601562,24.5203125 C12.5953125,24.5203125 12.7390625,24.3765625 12.7390625,24.0414062 C12.7390625,24.0414062 12.7390625,24.0414062 12.7390625,24.0414062 C12.7390625,24.0414062 12.7390625,21.5507812 12.7390625,21.5507812 C15.1335938,21.4070312 17.1929687,20.496875 18.8695312,18.8210937 C20.5460937,17.1453125 21.4078125,15.1335938 21.5515625,12.7867188 C21.5515625,12.7867188 21.5515625,12.7867188 21.5515625,12.7867188 C21.5515625,12.7867188 24.0421875,12.7390625 24.0421875,12.7390625 C24.3773438,12.7390625 24.5210937,12.5953125 24.5210937,12.2601563 C24.5210937,11.925 24.3773438,11.78125 24.0421875,11.78125 L24.0414062,11.7820312 Z M18.1507812,18.1515625 C16.5226562,19.7796875 14.5585937,20.59375 12.2601562,20.59375 C9.96171875,20.59375 7.99765625,19.7796875 6.36953125,18.1515625 C4.74140625,16.5234375 3.92734375,14.559375 3.92734375,12.2609375 C3.92734375,9.9625 4.74140625,7.9984375 6.36953125,6.3703125 C7.99765625,4.7421875 9.96171875,3.928125 12.2601562,3.928125 C14.5585937,3.928125 16.5226562,4.7421875 18.1507812,6.3703125 C19.7789062,7.9984375 20.5929687,9.9625 20.5929687,12.2609375 C20.5929687,14.559375 19.7789062,16.5234375 18.1507812,18.1515625 Z"/>
  <title>Target</title>
</svg>