<svg xmlns="http://www.w3.org/2000/svg" viewBox="0 0 25 25" id="temp-solid">
  <path d="M14.8960937,16.4695313 C14.8960937,16.4695313 14.8484375,16.4695313 14.8484375,16.4695313 C14.8484375,16.4695313 14.8484375,2.00625 14.8484375,2.00625 C14.8484375,1.7671875 14.7523437,1.52734375 14.5609375,1.2875 C14.3695312,1.09609375 14.1296875,1 13.890625,1 C13.890625,1 13.890625,1 13.890625,1 C13.890625,1 10.9210938,1 10.9210938,1 C10.6820313,1 10.4421875,1.09609375 10.2507812,1.2875 C10.059375,1.52734375 9.96328125,1.76640625 9.96328125,2.00625 C9.96328125,2.00625 9.96328125,2.00625 9.96328125,2.00625 C9.96328125,2.00625 9.96328125,16.4695313 9.96328125,16.4695313 C8.6703125,17.3796875 8,18.5765625 8,20.1570312 C8,20.1570312 8,20.1570312 8,20.1570312 C8,21.3546875 8.43125,22.4078125 9.29296875,23.2703125 C10.1546875,24.1328125 11.2085937,24.5632812 12.40625,24.5632812 C13.6039062,24.5632812 14.6570312,24.1320313 15.5195312,23.2703125 C16.3820312,22.4085937 16.8125,21.3546875 16.8125,20.1570312 C16.8125,20.1570312 16.8125,20.1570312 16.8125,20.1570312 C16.8125,18.5765625 16.1898437,17.3789062 14.896875,16.4695313 C14.896875,16.4695313 14.896875,16.4695313 14.896875,16.4695313 L14.8960937,16.4695313 Z M14.1296875,21.88125 C13.6507813,22.3601562 13.0757813,22.6 12.4054688,22.6 C11.7351562,22.6 11.1601562,22.3609375 10.68125,21.88125 C10.2023438,21.4023438 9.9625,20.8273438 9.9625,20.1570312 C9.9625,20.1570312 9.9625,20.1570312 9.9625,20.1570312 C9.9625,19.534375 10.1539062,19.0078125 10.5375,18.5765625 C10.8726563,18.1453125 11.3515625,17.90625 11.878125,17.7625 C11.878125,17.7625 11.878125,17.7625 11.878125,17.7625 C11.878125,17.7625 11.9257812,9.86015625 11.9257812,9.86015625 C11.9257812,9.86015625 12.8835937,9.86015625 12.8835937,9.86015625 C12.8835937,9.86015625 12.8835937,17.7625 12.8835937,17.7625 C13.4585937,17.90625 13.9375,18.1453125 14.3203125,18.5765625 C14.6554687,19.0078125 14.846875,19.534375 14.846875,20.1570312 C14.846875,20.1570312 14.846875,20.1570312 14.846875,20.1570312 C14.846875,20.8273438 14.6078125,21.4023438 14.128125,21.88125 L14.1296875,21.88125 Z"/>
  <title>Temp Solid</title>
</svg>