<svg xmlns="http://www.w3.org/2000/svg" viewBox="0 0 25 25" id="temp">
  <path d="M14.8960937,16.4695313 C14.8960937,16.4695313 14.8484375,16.4695313 14.8484375,16.4695313 C14.8484375,16.4695313 14.8484375,2.00625 14.8484375,2.00625 C14.8484375,1.7671875 14.7523437,1.52734375 14.5609375,1.2875 C14.3695312,1.09609375 14.1296875,1 13.890625,1 C13.890625,1 13.890625,1 13.890625,1 C13.890625,1 10.9210938,1 10.9210938,1 C10.6820313,1 10.4421875,1.09609375 10.2507812,1.2875 C10.059375,1.52734375 9.96328125,1.76640625 9.96328125,2.00625 C9.96328125,2.00625 9.96328125,2.00625 9.96328125,2.00625 C9.96328125,2.00625 9.96328125,16.4695313 9.96328125,16.4695313 C8.6703125,17.3796875 8,18.5765625 8,20.1570312 C8,20.1570312 8,20.1570312 8,20.1570312 C8,21.3546875 8.43125,22.4078125 9.29296875,23.2703125 C10.1546875,24.1328125 11.2085937,24.5632812 12.40625,24.5632812 C13.6039062,24.5632812 14.6570312,24.1320313 15.5195312,23.2703125 C16.3820312,22.4085937 16.8125,21.3546875 16.8125,20.1570312 C16.8125,20.1570312 16.8125,20.1570312 16.8125,20.1570312 C16.8125,18.5765625 16.1898437,17.3789062 14.896875,16.4695313 C14.896875,16.4695313 14.896875,16.4695313 14.896875,16.4695313 L14.8960937,16.4695313 Z M14.8484375,22.5515625 C14.178125,23.221875 13.3640625,23.5570313 12.40625,23.5570313 C11.4484375,23.5570313 10.634375,23.221875 9.9640625,22.5515625 C9.29375,21.88125 8.95859375,21.0671875 8.95859375,20.1570312 C8.95859375,20.1570312 8.95859375,20.1570312 8.95859375,20.1570312 C8.95859375,18.959375 9.48515625,18.0015625 10.4914062,17.2835937 C10.4914062,17.2835937 10.4914062,17.2835937 10.4914062,17.2835937 C10.4914062,17.2835937 10.9226562,16.9960938 10.9226562,16.9960938 C10.9226562,16.9960938 10.9226562,2.00546875 10.9226562,2.00546875 C10.9226562,2.00546875 13.8921875,2.00546875 13.8921875,2.00546875 C13.8921875,2.00546875 13.8921875,16.9960938 13.8921875,16.9960938 C13.8921875,16.9960938 14.3234375,17.2835937 14.3234375,17.2835937 C15.3289062,18.0023438 15.85625,18.9601562 15.85625,20.1570312 C15.85625,20.1570312 15.85625,20.1570312 15.85625,20.1570312 C15.85625,21.0671875 15.5210937,21.88125 14.8507812,22.5515625 L14.8484375,22.5515625 Z M14.8484375,20.1570312 C14.8484375,20.1570312 14.8484375,20.1570312 14.8484375,20.1570312 C14.8484375,20.8273438 14.609375,21.4023438 14.1296875,21.88125 C13.65,22.3601562 13.0757812,22.6 12.4054687,22.6 C11.7351562,22.6 11.1601562,22.3609375 10.68125,21.88125 C10.2023437,21.4015625 9.9625,20.8273438 9.9625,20.1570312 C9.9625,20.1570312 9.9625,20.1570312 9.9625,20.1570312 C9.9625,19.534375 10.1539062,19.0078125 10.5375,18.5765625 C10.8726562,18.1453125 11.3515625,17.90625 11.878125,17.7625 C11.878125,17.7625 11.878125,17.7625 11.878125,17.7625 C11.878125,17.7625 11.9257812,10.3390625 11.9257812,10.3390625 C11.9257812,10.0039062 12.0695312,9.86015625 12.4046875,9.86015625 C12.7398437,9.86015625 12.8835937,10.0039062 12.8835937,10.3390625 C12.8835937,10.3390625 12.8835937,10.3390625 12.8835937,10.3390625 C12.8835937,10.3390625 12.8835937,17.7625 12.8835937,17.7625 C13.4585937,17.90625 13.9375,18.1453125 14.3203125,18.5765625 C14.6554687,19.0078125 14.846875,19.534375 14.846875,20.1570312 L14.8484375,20.1570312 Z"/>
  <title>Temp</title>
</svg>