<svg xmlns="http://www.w3.org/2000/svg" viewBox="0 0 25 25" id="thumbs-up">
  <path d="M21.59375,8.5671875 C21.59375,8.5671875 21.59375,8.5671875 21.59375,8.5671875 C21.4023438,8.5671875 21.2585938,8.5671875 21.1625,8.61484375 C21.1625,8.61484375 21.1625,8.61484375 21.1625,8.61484375 C21.1625,8.61484375 14.9367187,9.6203125 14.9367187,9.6203125 C14.9367187,9.6203125 14.7453125,9.6203125 14.7453125,9.6203125 C14.50625,9.6203125 14.2664062,9.52421875 14.075,9.3328125 C13.8835937,9.14140625 13.7875,8.9015625 13.7875,8.6625 C13.7875,8.6625 13.7875,8.6625 13.7875,8.6625 C13.7875,8.6625 13.7875,3.059375 13.7875,3.059375 C13.7875,2.484375 13.5960937,2.00546875 13.2125,1.575 C12.78125,1.1921875 12.3023438,1 11.728125,1 C11.728125,1 11.728125,1 11.728125,1 C11.728125,1 11.728125,1 11.728125,1 C11.2015625,1 10.7703125,1.14375 10.3875,1.47890625 C10.0046875,1.8140625 9.76484375,2.19765625 9.66875,2.6765625 C9.66875,2.6765625 9.66875,2.6765625 9.66875,2.6765625 C9.33359375,4.25703125 8.80703125,5.88515625 8.08828125,7.465625 C7.321875,9.09375 6.55546875,10.1476562 5.74140625,10.5789062 C5.74140625,10.5789062 5.74140625,10.5789062 5.74140625,10.5789062 C5.45390625,10.0523437 5.02265625,9.8125 4.4484375,9.8125 C4.4484375,9.8125 4.4484375,9.8125 4.4484375,9.8125 C4.4484375,9.8125 2.48515625,9.8125 2.48515625,9.8125 C2.05390625,9.8125 1.71875,9.95625 1.43125,10.24375 C1.14375,10.53125 1,10.8664062 1,11.2976562 C1,11.2976562 1,11.2976562 1,11.2976562 C1,11.2976562 1,23.0789062 1,23.0789062 C1,23.5101562 1.14375,23.8453125 1.43125,24.084375 C1.71875,24.371875 2.05390625,24.515625 2.48515625,24.515625 C2.48515625,24.515625 2.48515625,24.515625 2.48515625,24.515625 C2.48515625,24.515625 4.4484375,24.515625 4.4484375,24.515625 C4.8796875,24.515625 5.21484375,24.371875 5.50234375,24.084375 C5.78984375,23.8453125 5.93359375,23.509375 5.93359375,23.0789062 C5.93359375,23.0789062 5.93359375,23.0789062 5.93359375,23.0789062 C5.93359375,23.0789062 5.93359375,22.0734375 5.93359375,22.0734375 C5.93359375,22.0734375 8.8546875,23.5578125 8.8546875,23.5578125 C8.8546875,23.5578125 19.4390625,23.5578125 19.4390625,23.5578125 C20.109375,23.5578125 20.7320312,23.3664062 21.2585937,22.9351562 C21.7851562,22.5039062 22.16875,21.9773437 22.3125,21.3070312 C22.3125,21.3070312 22.3125,21.3070312 22.3125,21.3070312 C23.03125,18.05 23.4617187,14.50625 23.5578125,10.675 C23.5578125,10.675 23.5578125,10.675 23.5578125,10.675 C23.5578125,10.675 23.5578125,10.53125 23.5578125,10.53125 C23.5578125,10.0046875 23.3664063,9.52578125 22.9828125,9.1421875 C22.5992188,8.75859375 22.1210938,8.5671875 21.59375,8.5671875 Z M4.92734375,11.296875 C4.92734375,11.296875 4.92734375,21.59375 4.92734375,21.59375 C4.92734375,21.59375 4.92734375,23.078125 4.92734375,23.078125 C4.92734375,23.4132812 4.78359375,23.5570313 4.4484375,23.5570313 C4.4484375,23.5570313 4.4484375,23.5570313 4.4484375,23.5570313 C4.4484375,23.5570313 2.48515625,23.5570313 2.48515625,23.5570313 C2.15,23.5570313 2.00625,23.4132812 2.00625,23.078125 C2.00625,23.078125 2.00625,23.078125 2.00625,23.078125 C2.00625,23.078125 2.00625,11.296875 2.00625,11.296875 C2.00625,10.9617187 2.15,10.8179688 2.48515625,10.8179688 C2.48515625,10.8179688 2.48515625,10.8179688 2.48515625,10.8179688 C2.48515625,10.8179688 4.4484375,10.8179688 4.4484375,10.8179688 C4.78359375,10.8179688 4.92734375,10.9617187 4.92734375,11.296875 C4.92734375,11.296875 4.92734375,11.296875 4.92734375,11.296875 Z M21.2585938,21.4023438 C21.2585938,21.4023438 21.3546875,21.0671875 21.3546875,21.0671875 C21.2109375,21.4984375 20.971875,21.88125 20.6359375,22.16875 C20.3,22.45625 19.8695313,22.6 19.4382813,22.6 C19.4382813,22.6 19.4382813,22.6 19.4382813,22.6 C19.4382813,22.6 9.09375,22.6 9.09375,22.6 C9.09375,22.6 5.9328125,21.0195313 5.9328125,21.0195313 C5.9328125,21.0195313 5.9328125,11.584375 5.9328125,11.584375 C7.034375,11.1054688 8.03984375,9.95625 8.85390625,8.1359375 C9.66796875,6.3640625 10.290625,4.5921875 10.6257813,2.86796875 C10.6257813,2.86796875 10.6257813,2.86796875 10.6257813,2.86796875 C10.721875,2.2453125 11.1046875,1.9578125 11.7273438,1.9578125 C11.7273438,1.9578125 11.7273438,1.9578125 11.7273438,1.9578125 C11.7273438,1.9578125 11.7273438,1.9578125 11.7273438,1.9578125 C12.0148438,1.9578125 12.2539062,2.05390625 12.49375,2.2453125 C12.6851563,2.48515625 12.78125,2.72421875 12.78125,3.059375 C12.78125,3.059375 12.78125,3.059375 12.78125,3.059375 C12.78125,3.059375 12.78125,8.61484375 12.78125,8.61484375 C12.78125,9.14140625 12.9726563,9.6203125 13.35625,10.0039063 C13.7398438,10.3875 14.2179688,10.5789063 14.7453125,10.5789063 C14.7453125,10.5789063 14.7453125,10.5789063 14.7453125,10.5789063 C14.7453125,10.5789063 15.0804687,10.5789063 15.0804687,10.5789063 C17.7625,10.24375 19.8695312,9.90859375 21.4023438,9.5734375 C21.4023438,9.5734375 21.4023438,9.5734375 21.4023438,9.5734375 C21.4023438,9.5734375 21.4984375,9.5734375 21.4984375,9.5734375 C21.4984375,9.5734375 21.5945312,9.52578125 21.5945312,9.52578125 C21.8335937,9.52578125 22.0734375,9.621875 22.3132812,9.8609375 C22.3132812,9.8609375 22.3132812,9.8609375 22.3132812,9.8609375 C22.5046875,10.0523438 22.6007813,10.2921875 22.6007813,10.53125 C22.6007813,10.53125 22.6007813,10.53125 22.6007813,10.53125 C22.6007813,10.53125 22.6007813,10.5789063 22.6007813,10.5789063 C22.5046875,14.4101563 22.0742188,18.0023438 21.2601563,21.4023438 C21.2601563,21.4023438 21.2601563,21.4023438 21.2601563,21.4023438 L21.2585938,21.4023438 Z"/>
  <title>Thumbs Up</title>
</svg>