<svg xmlns="http://www.w3.org/2000/svg" viewBox="0 0 25 25" id="thumbs-down-solid">
  <path d="M22.2171875,3.921875 C22.2171875,3.921875 22.2648438,4.25703125 22.2648438,4.25703125 C22.1210938,3.58671875 21.7382813,3.059375 21.2109375,2.62890625 C20.6835938,2.1984375 20.0617188,2.00625 19.3914063,2.00625 C19.3914063,2.00625 19.3914063,2.00625 19.3914063,2.00625 C19.3914063,2.00625 8.8546875,2.00625 8.8546875,2.00625 C8.8546875,2.00625 5.88515625,3.44296875 5.88515625,3.44296875 C5.88515625,3.44296875 5.88515625,2.48515625 5.88515625,2.48515625 C5.88515625,2.05390625 5.74140625,1.71875 5.50234375,1.43125 C5.21484375,1.14375 4.8796875,1 4.4484375,1 C4.4484375,1 4.4484375,1 4.4484375,1 C4.4484375,1 2.48515625,1 2.48515625,1 C2.05390625,1 1.71875,1.14375 1.43125,1.43125 C1.14375,1.71875 1,2.05390625 1,2.48515625 C1,2.48515625 1,2.48515625 1,2.48515625 C1,2.48515625 1,14.2664063 1,14.2664063 C1,14.6976563 1.14375,15.0328125 1.43125,15.3203125 C1.71875,15.6078125 2.05390625,15.7515625 2.48515625,15.7515625 C2.48515625,15.7515625 2.48515625,15.7515625 2.48515625,15.7515625 C2.48515625,15.7515625 4.4484375,15.7515625 4.4484375,15.7515625 C4.975,15.7515625 5.40625,15.5125 5.69375,14.9851562 C5.69375,14.9851562 5.69375,14.9851562 5.69375,14.9851562 C6.5078125,15.4164062 7.321875,16.4695313 8.08828125,18.05 C8.80703125,19.678125 9.33359375,21.2585937 9.62109375,22.8390625 C9.62109375,22.8390625 9.62109375,22.8390625 9.62109375,22.8390625 C9.7171875,23.365625 9.95625,23.7492187 10.3398438,24.084375 C10.7234375,24.4195313 11.1539062,24.5632812 11.6804688,24.5632812 C11.6804688,24.5632812 11.6804688,24.5632812 11.6804688,24.5632812 C11.6804688,24.5632812 11.728125,24.5632812 11.728125,24.5632812 C12.2546875,24.5632812 12.7335937,24.371875 13.1648437,23.940625 C13.5476562,23.5578125 13.7398438,23.0789062 13.7398438,22.5039062 C13.7398438,22.5039062 13.7398438,22.5039062 13.7398438,22.5039062 C13.7398438,22.5039062 13.7398438,16.9007813 13.7398438,16.9007813 C13.7398438,16.6617187 13.8359375,16.421875 14.0273438,16.2304688 C14.21875,16.0390625 14.4585938,15.9429687 14.7460938,15.9429687 C14.7460938,15.9429687 14.7460938,15.9429687 14.7460938,15.9429687 C14.7460938,15.9429687 14.9375,15.9429687 14.9375,15.9429687 C14.9375,15.9429687 15.8953125,16.0867188 15.8953125,16.0867188 C16.5179688,16.1828125 17.3796875,16.3257812 18.4335938,16.4695313 C19.4875,16.6132812 20.396875,16.8046875 21.1632813,16.9484375 C21.1632813,16.9484375 21.1632813,16.9484375 21.1632813,16.9484375 C21.2109375,16.9960938 21.3546875,16.9960938 21.5945312,16.9960938 C21.5945312,16.9960938 21.5945312,16.9960938 21.5945312,16.9960938 C22.1210938,16.9960938 22.6,16.8046875 22.9835937,16.4210937 C23.3671875,16.0375 23.5585938,15.559375 23.5585938,15.0320313 C23.5585938,15.0320313 23.5585938,15.0320313 23.5585938,15.0320313 C23.5585938,14.984375 23.5585938,14.984375 23.5109375,14.9359375 C23.5109375,14.9359375 23.5109375,14.9359375 23.5109375,14.9359375 C23.4632812,11.34375 23.0320312,7.70390625 22.2179687,3.9203125 C22.2179687,3.9203125 22.2179687,3.9203125 22.2179687,3.9203125 L22.2171875,3.921875 Z M4.92734375,2.484375 C4.92734375,2.484375 4.92734375,3.96875 4.92734375,3.96875 C4.92734375,3.96875 4.8796875,3.96875 4.8796875,3.96875 C4.8796875,3.96875 4.92734375,9.28515625 4.92734375,9.28515625 C4.92734375,9.28515625 4.92734375,14.265625 4.92734375,14.265625 C4.92734375,14.6007812 4.78359375,14.7445312 4.4484375,14.7445312 C4.4484375,14.7445312 4.4484375,14.7445312 4.4484375,14.7445312 C4.4484375,14.7445312 2.48515625,14.7445312 2.48515625,14.7445312 C2.15,14.7445312 1.95859375,14.6007812 1.95859375,14.265625 C1.95859375,14.265625 1.95859375,14.265625 1.95859375,14.265625 C1.95859375,14.265625 1.95859375,2.484375 1.95859375,2.484375 C1.95859375,2.14921875 2.15,2.00546875 2.48515625,2.00546875 C2.48515625,2.00546875 2.48515625,2.00546875 2.48515625,2.00546875 C2.48515625,2.00546875 4.4484375,2.00546875 4.4484375,2.00546875 C4.78359375,2.00546875 4.92734375,2.14921875 4.92734375,2.484375 C4.92734375,2.484375 4.92734375,2.484375 4.92734375,2.484375 L4.92734375,2.484375 Z"/>
  <title>Thumbs Down Solid</title>
</svg>