<svg xmlns="http://www.w3.org/2000/svg" viewBox="0 0 25 25" id="thumbs-down">
  <path d="M21.59375,16.9484375 C21.59375,16.9484375 21.2585938,16.9328125 21.1625,16.9007813 C21.1625,16.9007813 14.9367188,15.8953125 14.9367188,15.8953125 C14.9367188,15.8953125 14.7453125,15.8953125 14.7453125,15.8953125 C14.4898438,15.8953125 14.2664063,15.9914063 14.075,16.1828125 C13.8835937,16.3742187 13.7875,16.5976562 13.7875,16.853125 C13.7875,16.853125 13.7875,22.45625 13.7875,22.45625 C13.7875,23.03125 13.5882813,23.5179687 13.1890625,23.9171875 C12.7898437,24.3164063 12.303125,24.515625 11.728125,24.515625 C11.2171875,24.515625 10.7703125,24.35625 10.3875,24.0367188 C10.0046875,23.7171875 9.76484375,23.3179687 9.66875,22.8390625 C9.34921875,21.2429687 8.81484375,19.6382812 8.0640625,18.0257812 C7.31328125,16.4132812 6.53984375,15.3835937 5.74140625,14.9367187 C5.45390625,15.4476562 5.02265625,15.703125 4.4484375,15.703125 C4.4484375,15.703125 2.48515625,15.703125 2.48515625,15.703125 C2.0703125,15.703125 1.71875,15.559375 1.43125,15.271875 C1.14375,14.984375 1,14.6335938 1,14.2179687 C1,14.2179687 1,2.43671875 1,2.43671875 C1,2.021875 1.14375,1.678125 1.43125,1.40703125 C1.71875,1.1359375 2.06953125,1 2.48515625,1 C2.48515625,1 4.4484375,1 4.4484375,1 C4.86328125,1 5.21484375,1.1359375 5.50234375,1.40703125 C5.78984375,1.678125 5.93359375,2.021875 5.93359375,2.43671875 C5.93359375,2.43671875 5.93359375,3.4421875 5.93359375,3.4421875 C5.93359375,3.4421875 8.8546875,1.9578125 8.8546875,1.9578125 C8.8546875,1.9578125 19.4390625,1.9578125 19.4390625,1.9578125 C20.109375,1.9578125 20.7164062,2.165625 21.2585937,2.58046875 C21.8007812,2.9953125 22.1523438,3.53828125 22.3125,4.20859375 C23.046875,7.465625 23.4617187,11.009375 23.5578125,14.840625 C23.5578125,14.840625 23.5578125,14.984375 23.5578125,14.984375 C23.5578125,15.5273438 23.3664063,15.9898438 22.9828125,16.3734375 C22.5992188,16.7570313 22.1367188,16.9484375 21.59375,16.9484375 Z M4.92734375,14.21875 C4.92734375,14.21875 4.92734375,2.4375 4.92734375,2.4375 C4.92734375,2.11796875 4.76796875,1.95859375 4.4484375,1.95859375 C4.4484375,1.95859375 2.48515625,1.95859375 2.48515625,1.95859375 C2.165625,1.95859375 2.00625,2.11796875 2.00625,2.4375 C2.00625,2.4375 2.00625,14.21875 2.00625,14.21875 C2.00625,14.5382812 2.165625,14.6976562 2.48515625,14.6976562 C2.48515625,14.6976562 4.4484375,14.6976562 4.4484375,14.6976562 C4.76796875,14.6976562 4.92734375,14.5382812 4.92734375,14.21875 Z M21.2945313,4.265625 C21.1578125,3.9 20.9382813,3.59375 20.6359375,3.346875 C20.284375,3.059375 19.8859375,2.915625 19.4382813,2.915625 C19.4382813,2.915625 9.09375,2.915625 9.09375,2.915625 C9.09375,2.915625 5.9328125,4.49609375 5.9328125,4.49609375 C5.9328125,4.49609375 5.9328125,13.93125 5.9328125,13.93125 C7.05,14.4101562 8.02421875,15.5515625 8.85390625,17.3554688 C9.68359375,19.159375 10.275,20.9234375 10.6257813,22.6476562 C10.721875,23.2546875 11.0890625,23.5578125 11.7273438,23.5578125 C12.0148438,23.5578125 12.2625,23.4539063 12.4695312,23.246875 C12.6765625,23.0398438 12.7804688,22.7757813 12.7804688,22.45625 C12.7804688,22.45625 12.7804688,16.9007812 12.7804688,16.9007812 C12.7804688,16.3578125 12.971875,15.8953125 13.3554688,15.5117187 C13.7390625,15.128125 14.2015625,14.9367188 14.7445312,14.9367188 C14.7445312,14.9367188 15.0796875,14.9367188 15.0796875,14.9367188 C17.7617188,15.25625 19.86875,15.5914063 21.4015625,15.9421875 C21.4015625,15.9421875 21.4976563,15.9421875 21.4976563,15.9421875 C21.4976563,15.9421875 21.59375,15.9898438 21.59375,15.9898438 C21.8492188,15.9898438 22.0882813,15.878125 22.3125,15.6546875 C22.5039063,15.4632813 22.6,15.2398438 22.6,14.984375 C22.6,14.984375 22.6,14.9367188 22.6,14.9367188 C22.5054688,11.1625 22.0703125,7.60546875 21.2945313,4.265625 C21.2945313,4.265625 21.2945313,4.265625 21.2945313,4.265625 Z"/>
  <title>Thumbs Down</title>
</svg>