<svg xmlns="http://www.w3.org/2000/svg" viewBox="0 0 25 25" id="thumbs-up-solid">
  <path d="M21.59375,8.5671875 C21.59375,8.5671875 21.59375,8.5671875 21.59375,8.5671875 C21.5460937,8.5671875 21.45,8.5671875 21.3546875,8.5671875 C21.2109375,8.61484375 21.1632812,8.61484375 21.115625,8.61484375 C21.115625,8.61484375 21.115625,8.61484375 21.115625,8.61484375 C20.3492187,8.80625 19.4390625,8.99765625 18.4335937,9.14140625 C17.3796875,9.28515625 16.5179687,9.42890625 15.8953125,9.4765625 C15.8953125,9.4765625 15.8953125,9.4765625 15.8953125,9.4765625 C15.8953125,9.4765625 14.9375,9.6203125 14.9375,9.6203125 C14.9375,9.6203125 14.7460937,9.6203125 14.7460937,9.6203125 C14.4585938,9.6203125 14.2195312,9.52421875 14.0273437,9.3328125 C13.8351562,9.14140625 13.7398437,8.9015625 13.7398437,8.6625 C13.7398437,8.6625 13.7398437,8.6625 13.7398437,8.6625 C13.7398437,8.6625 13.7398437,3.059375 13.7398437,3.059375 C13.7398437,2.5328125 13.5484375,2.05390625 13.1648437,1.62265625 C12.7335937,1.19140625 12.2546875,1 11.728125,1 C11.728125,1 11.728125,1 11.728125,1 C11.728125,1 11.6804687,1 11.6804687,1 C11.1539063,1 10.7226562,1.14375 10.3398438,1.47890625 C9.95703125,1.8140625 9.7171875,2.2453125 9.62109375,2.72421875 C9.62109375,2.72421875 9.62109375,2.72421875 9.62109375,2.72421875 C9.33359375,4.3046875 8.80703125,5.88515625 8.08828125,7.465625 C7.321875,9.09375 6.5078125,10.1476563 5.69375,10.6265625 C5.69375,10.6265625 5.69375,10.6265625 5.69375,10.6265625 C5.4546875,10.1 5.0234375,9.86015625 4.4484375,9.86015625 C4.4484375,9.86015625 4.4484375,9.86015625 4.4484375,9.86015625 C4.4484375,9.86015625 2.48515625,9.86015625 2.48515625,9.86015625 C2.05390625,9.86015625 1.71875,10.0039062 1.43125,10.2914062 C1.14375,10.5789062 1,10.9140625 1,11.296875 C1,11.296875 1,11.296875 1,11.296875 C1,11.296875 1,23.078125 1,23.078125 C1,23.509375 1.14375,23.8445313 1.43125,24.1320313 C1.71875,24.4195312 2.05390625,24.5632812 2.48515625,24.5632812 C2.48515625,24.5632812 2.48515625,24.5632812 2.48515625,24.5632812 C2.48515625,24.5632812 4.4484375,24.5632812 4.4484375,24.5632812 C4.8796875,24.5632812 5.21484375,24.4195312 5.50234375,24.1320313 C5.74140625,23.8445313 5.88515625,23.509375 5.88515625,23.078125 C5.88515625,23.078125 5.88515625,23.078125 5.88515625,23.078125 C5.88515625,23.078125 5.88515625,22.1203125 5.88515625,22.1203125 C5.88515625,22.1203125 8.8546875,23.5570312 8.8546875,23.5570312 C8.8546875,23.5570312 19.3914062,23.5570312 19.3914062,23.5570312 C20.0617188,23.5570312 20.684375,23.365625 21.2109375,22.934375 C21.7375,22.503125 22.1210938,21.9765625 22.2648438,21.30625 C22.2648438,21.30625 22.2648438,21.30625 22.2648438,21.30625 C23.0789062,17.8578125 23.4625,14.3140625 23.5101563,10.6742187 C23.5101563,10.6742187 23.5101563,10.6742187 23.5101563,10.6742187 C23.5101563,10.6742187 23.5578125,10.578125 23.5578125,10.578125 C23.5578125,10.0515625 23.3664063,9.57265625 22.9828125,9.14140625 C22.6,8.75859375 22.1210938,8.56640625 21.59375,8.56640625 L21.59375,8.5671875 Z M4.9265625,11.296875 C4.9265625,11.296875 4.9265625,16.2773438 4.9265625,16.2773438 C4.9265625,16.2773438 4.87890625,21.6414063 4.87890625,21.6414063 C4.87890625,21.6414063 4.9265625,21.6414063 4.9265625,21.6414063 C4.9265625,21.6414063 4.9265625,23.078125 4.9265625,23.078125 C4.9265625,23.4132813 4.7828125,23.5570313 4.44765625,23.5570313 C4.44765625,23.5570313 4.44765625,23.5570313 4.44765625,23.5570313 C4.44765625,23.5570313 2.484375,23.5570313 2.484375,23.5570313 C2.14921875,23.5570313 1.9578125,23.4132813 1.9578125,23.078125 C1.9578125,23.078125 1.9578125,23.078125 1.9578125,23.078125 C1.9578125,23.078125 1.9578125,11.296875 1.9578125,11.296875 C1.9578125,10.9617187 2.14921875,10.8179688 2.484375,10.8179688 C2.484375,10.8179688 2.484375,10.8179688 2.484375,10.8179688 C2.484375,10.8179688 4.44765625,10.8179688 4.44765625,10.8179688 C4.7828125,10.8179688 4.9265625,10.9617187 4.9265625,11.296875 C4.9265625,11.296875 4.9265625,11.296875 4.9265625,11.296875 Z"/>
  <title>Thumbs Up Solid</title>
</svg>