<svg xmlns="http://www.w3.org/2000/svg" viewBox="0 0 25 25" id="todo-solid">
  <path d="M23.0789062,1.00078125 C23.0789062,1.00078125 23.0789062,1.00078125 23.0789062,1.00078125 C23.0789062,1.00078125 8.37578125,1.00078125 8.37578125,1.00078125 C7.94453125,1.00078125 7.609375,1.14453125 7.321875,1.43203125 C7.034375,1.71953125 6.890625,2.0546875 6.890625,2.4859375 C6.890625,2.4859375 6.890625,2.4859375 6.890625,2.4859375 C6.890625,2.4859375 6.890625,22.0742188 6.890625,22.0742188 C6.890625,22.5054687 7.034375,22.840625 7.321875,23.128125 C7.609375,23.415625 7.94453125,23.559375 8.37578125,23.559375 C8.37578125,23.559375 8.37578125,23.559375 8.37578125,23.559375 C8.37578125,23.559375 23.0789062,23.559375 23.0789062,23.559375 C23.5101563,23.559375 23.8453125,23.415625 24.1328125,23.128125 C24.4203125,22.840625 24.5640625,22.5054687 24.5640625,22.0742188 C24.5640625,22.0742188 24.5640625,22.0742188 24.5640625,22.0742188 C24.5640625,22.0742188 24.5640625,2.4859375 24.5640625,2.4859375 C24.5640625,2.0546875 24.4203125,1.71953125 24.1328125,1.43203125 C23.8453125,1.14453125 23.5101562,1.00078125 23.0789062,1.00078125 L23.0789062,1.00078125 Z M13.64375,16.565625 C13.64375,16.565625 13.64375,16.565625 13.64375,16.565625 C13.64375,16.565625 11.6804687,18.5289063 11.6804687,18.5289063 C11.4890625,18.625 11.3929687,18.6726563 11.3453125,18.6726563 C11.3453125,18.6726563 11.3453125,18.6726563 11.3453125,18.6726563 C11.2976562,18.6726563 11.1539062,18.625 10.9625,18.5289063 C10.9625,18.5289063 10.9625,18.5289063 10.9625,18.5289063 C10.9625,18.5289063 10.0046875,17.5234375 10.0046875,17.5234375 C9.90859375,17.4273438 9.8609375,17.3320313 9.8609375,17.1882813 C9.8609375,17.1882813 9.8609375,17.1882813 9.8609375,17.1882813 C9.8609375,16.853125 10.0046875,16.709375 10.3398437,16.709375 C10.3398437,16.709375 10.3398437,16.709375 10.3398437,16.709375 C10.4835937,16.709375 10.5789062,16.7570313 10.675,16.853125 C10.675,16.853125 10.675,16.853125 10.675,16.853125 C10.675,16.853125 11.3453125,17.4757813 11.3453125,17.4757813 C11.3453125,17.4757813 12.9257812,15.8476563 12.9257812,15.8476563 C13.021875,15.7515625 13.1171875,15.7039063 13.2609375,15.7039063 C13.2609375,15.7039063 13.2609375,15.7039063 13.2609375,15.7039063 C13.5960937,15.7039063 13.7875,15.8953125 13.7875,16.2304688 C13.7875,16.2304688 13.7875,16.2304688 13.7875,16.2304688 C13.7875,16.3742188 13.7398437,16.4695313 13.64375,16.565625 L13.64375,16.565625 Z M13.64375,11.6328125 C13.64375,11.6328125 13.64375,11.6328125 13.64375,11.6328125 C13.64375,11.6328125 11.6804687,13.5960938 11.6804687,13.5960938 C11.584375,13.6921875 11.4890625,13.7398438 11.3453125,13.7398438 C11.3453125,13.7398438 11.3453125,13.7398438 11.3453125,13.7398438 C11.2015625,13.7398438 11.0578125,13.6921875 10.9625,13.5960938 C10.9625,13.5960938 10.9625,13.5960938 10.9625,13.5960938 C10.9625,13.5960938 10.0046875,12.6382813 10.0046875,12.6382813 C9.90859375,12.5421875 9.8609375,12.446875 9.8609375,12.303125 C9.8609375,12.303125 9.8609375,12.303125 9.8609375,12.303125 C9.8609375,11.9679688 10.0046875,11.7765625 10.3398437,11.7765625 C10.3398437,11.7765625 10.3398437,11.7765625 10.3398437,11.7765625 C10.4835937,11.7765625 10.5789062,11.8242188 10.675,11.9203125 C10.675,11.9203125 10.675,11.9203125 10.675,11.9203125 C10.675,11.9203125 11.3453125,12.5429688 11.3453125,12.5429688 C11.3453125,12.5429688 12.9257812,10.9625 12.9257812,10.9625 C13.021875,10.8664063 13.1171875,10.81875 13.2609375,10.81875 C13.2609375,10.81875 13.2609375,10.81875 13.2609375,10.81875 C13.5960937,10.81875 13.7875,10.9625 13.7875,11.2976563 C13.7875,11.2976563 13.7875,11.2976563 13.7875,11.2976563 C13.7875,11.4414062 13.7398437,11.5367188 13.64375,11.6328125 L13.64375,11.6328125 Z M13.64375,6.74765625 C13.64375,6.74765625 13.64375,6.74765625 13.64375,6.74765625 C13.64375,6.74765625 11.6804687,8.7109375 11.6804687,8.7109375 C11.584375,8.80703125 11.4890625,8.8546875 11.3453125,8.8546875 C11.3453125,8.8546875 11.3453125,8.8546875 11.3453125,8.8546875 C11.2015625,8.8546875 11.0578125,8.80703125 10.9625,8.7109375 C10.9625,8.7109375 10.9625,8.7109375 10.9625,8.7109375 C10.9625,8.7109375 10.0046875,7.70546875 10.0046875,7.70546875 C9.90859375,7.609375 9.8609375,7.5140625 9.8609375,7.3703125 C9.8609375,7.3703125 9.8609375,7.3703125 9.8609375,7.3703125 C9.8609375,7.03515625 10.0046875,6.89140625 10.3398437,6.89140625 C10.3398437,6.89140625 10.3398437,6.89140625 10.3398437,6.89140625 C10.4835937,6.89140625 10.5789062,6.9390625 10.675,7.03515625 C10.675,7.03515625 10.675,7.03515625 10.675,7.03515625 C10.675,7.03515625 11.3453125,7.6578125 11.3453125,7.6578125 C11.3453125,7.6578125 12.9257812,6.0296875 12.9257812,6.0296875 C13.021875,5.93359375 13.1648438,5.8859375 13.3085937,5.8859375 C13.3085937,5.8859375 13.3085937,5.8859375 13.3085937,5.8859375 C13.64375,5.8859375 13.7875,6.0296875 13.7875,6.36484375 C13.7875,6.36484375 13.7875,6.36484375 13.7875,6.36484375 C13.7875,6.50859375 13.7398437,6.65234375 13.64375,6.74765625 L13.64375,6.74765625 Z M21.1148437,17.6671875 C21.1148437,17.6671875 21.1148437,17.6671875 21.1148437,17.6671875 C21.1148437,17.6671875 15.2242188,17.6671875 15.2242188,17.6671875 C14.8890625,17.6671875 14.7453125,17.5234375 14.7453125,17.1882812 C14.7453125,16.853125 14.8890625,16.709375 15.2242188,16.709375 C15.2242188,16.709375 15.2242188,16.709375 15.2242188,16.709375 C15.2242188,16.709375 21.1148437,16.709375 21.1148437,16.709375 C21.45,16.709375 21.6414062,16.853125 21.6414062,17.1882812 C21.6414062,17.5234375 21.45,17.6671875 21.1148437,17.6671875 Z M21.1148437,12.7828125 C21.1148437,12.7828125 21.1148437,12.7828125 21.1148437,12.7828125 C21.1148437,12.7828125 15.2242188,12.7828125 15.2242188,12.7828125 C14.8890625,12.7828125 14.7453125,12.5914063 14.7453125,12.25625 C14.7453125,12.25625 14.7453125,12.25625 14.7453125,12.25625 C14.7453125,11.9210937 14.8890625,11.7773438 15.2242188,11.7773438 C15.2242188,11.7773438 15.2242188,11.7773438 15.2242188,11.7773438 C15.2242188,11.7773438 21.1148437,11.7773438 21.1148437,11.7773438 C21.45,11.7773438 21.6414062,11.9210937 21.6414062,12.25625 C21.6414062,12.25625 21.6414062,12.25625 21.6414062,12.25625 C21.6414062,12.5914063 21.45,12.7828125 21.1148437,12.7828125 Z M21.1148437,7.84921875 C21.1148437,7.84921875 21.1148437,7.84921875 21.1148437,7.84921875 C21.1148437,7.84921875 15.2242188,7.84921875 15.2242188,7.84921875 C14.8890625,7.84921875 14.7453125,7.70546875 14.7453125,7.3703125 C14.7453125,7.03515625 14.8890625,6.89140625 15.2242188,6.89140625 C15.2242188,6.89140625 15.2242188,6.89140625 15.2242188,6.89140625 C15.2242188,6.89140625 21.1148437,6.89140625 21.1148437,6.89140625 C21.45,6.89140625 21.6414062,7.03515625 21.6414062,7.3703125 C21.6414062,7.70546875 21.45,7.84921875 21.1148437,7.84921875 Z M4.92734375,2.48515625 C4.92734375,2.48515625 4.92734375,2.48515625 4.92734375,2.48515625 C4.92734375,2.48515625 4.92734375,4.92734375 4.92734375,4.92734375 C4.92734375,4.92734375 1,4.92734375 1,4.92734375 C1,4.92734375 1,2.48515625 1,2.48515625 C1,2.05390625 1.14375,1.71875 1.43125,1.43125 C1.71875,1.14375 2.05390625,1 2.48515625,1 C2.48515625,1 2.48515625,1 2.48515625,1 C2.48515625,1 3.490625,1 3.490625,1 C3.921875,1 4.25703125,1.14375 4.54453125,1.43125 C4.78359375,1.71875 4.92734375,2.05390625 4.92734375,2.48515625 Z M1,22.0734375 C1,22.0734375 1,5.8859375 1,5.8859375 C1,5.8859375 4.92734375,5.8859375 4.92734375,5.8859375 C4.92734375,5.8859375 4.92734375,22.0734375 4.92734375,22.0734375 C4.92734375,22.5046875 4.78359375,22.8398438 4.54453125,23.1273437 C4.25703125,23.4148437 3.921875,23.5585938 3.490625,23.5585938 C3.490625,23.5585938 3.490625,23.5585938 3.490625,23.5585938 C3.490625,23.5585938 2.48515625,23.5585938 2.48515625,23.5585938 C2.05390625,23.5585938 1.71875,23.4148437 1.43125,23.1273437 C1.14375,22.8398438 1,22.5046875 1,22.0734375 C1,22.0734375 1,22.0734375 1,22.0734375 Z"/>
  <title>Todo Solid</title>
</svg>