<svg xmlns="http://www.w3.org/2000/svg" viewBox="0 0 25 25" id="todo">
  <path d="M23.0789062,1 C23.0789062,1 23.0789062,1 23.0789062,1 C23.0789062,1 8.37578125,1 8.37578125,1 C7.94453125,1 7.609375,1.14375 7.321875,1.43125 C7.034375,1.71875 6.890625,2.05390625 6.890625,2.48515625 C6.890625,2.48515625 6.890625,2.48515625 6.890625,2.48515625 C6.890625,2.48515625 6.890625,22.1210938 6.890625,22.1210938 C6.890625,22.5523438 7.034375,22.8875 7.321875,23.1265625 C7.609375,23.4140625 7.94453125,23.5578125 8.37578125,23.5578125 C8.37578125,23.5578125 8.37578125,23.5578125 8.37578125,23.5578125 C8.37578125,23.5578125 23.0789062,23.5578125 23.0789062,23.5578125 C23.5101563,23.5578125 23.8453125,23.4140625 24.1328125,23.1265625 C24.4203125,22.8875 24.5640625,22.5515625 24.5640625,22.1210938 C24.5640625,22.1210938 24.5640625,22.1210938 24.5640625,22.1210938 C24.5640625,22.1210938 24.5640625,2.48515625 24.5640625,2.48515625 C24.5640625,2.05390625 24.4203125,1.71875 24.1328125,1.43125 C23.8453125,1.14375 23.5101562,1 23.0789062,1 L23.0789062,1 Z M23.6054688,2.484375 C23.6054688,2.484375 23.6054688,22.1203125 23.6054688,22.1203125 C23.6054688,22.4554688 23.4140625,22.5992187 23.0789063,22.5992187 C23.0789063,22.5992187 23.0789063,22.5992187 23.0789063,22.5992187 C23.0789063,22.5992187 8.37578125,22.5992187 8.37578125,22.5992187 C8.040625,22.5992187 7.896875,22.4554688 7.896875,22.1203125 C7.896875,22.1203125 7.896875,22.1203125 7.896875,22.1203125 C7.896875,22.1203125 7.896875,2.484375 7.896875,2.484375 C7.896875,2.14921875 8.040625,2.00546875 8.37578125,2.00546875 C8.37578125,2.00546875 8.37578125,2.00546875 8.37578125,2.00546875 C8.37578125,2.00546875 23.0789063,2.00546875 23.0789063,2.00546875 C23.4140625,2.00546875 23.6054688,2.14921875 23.6054688,2.484375 C23.6054688,2.484375 23.6054688,2.484375 23.6054688,2.484375 Z M21.6421875,7.41796875 C21.6421875,7.41796875 21.6421875,7.41796875 21.6421875,7.41796875 C21.6421875,7.753125 21.4507812,7.896875 21.115625,7.896875 C21.115625,7.896875 21.115625,7.896875 21.115625,7.896875 C21.115625,7.896875 15.225,7.896875 15.225,7.896875 C14.8898438,7.896875 14.7460938,7.753125 14.7460938,7.41796875 C14.7460938,7.41796875 14.7460938,7.41796875 14.7460938,7.41796875 C14.7460938,7.0828125 14.8898438,6.89140625 15.225,6.89140625 C15.225,6.89140625 15.225,6.89140625 15.225,6.89140625 C15.225,6.89140625 21.115625,6.89140625 21.115625,6.89140625 C21.4507812,6.89140625 21.6421875,7.0828125 21.6421875,7.41796875 Z M13.2609375,5.9328125 C13.4046875,5.9328125 13.5484375,5.98046875 13.64375,6.0765625 C13.7390625,6.17265625 13.7875,6.26796875 13.7875,6.41171875 C13.7875,6.55546875 13.7398437,6.65078125 13.64375,6.746875 C13.64375,6.746875 13.64375,6.746875 13.64375,6.746875 C13.64375,6.746875 11.6804687,8.71015625 11.6804687,8.71015625 C11.584375,8.80625 11.4890625,8.85390625 11.3453125,8.85390625 C11.3453125,8.85390625 11.3453125,8.85390625 11.3453125,8.85390625 C11.2015625,8.85390625 11.0578125,8.80625 10.9625,8.71015625 C10.9625,8.71015625 10.9625,8.71015625 10.9625,8.71015625 C10.9625,8.71015625 10.0046875,7.75234375 10.0046875,7.75234375 C9.90859375,7.65625 9.8609375,7.5609375 9.8609375,7.4171875 C9.8609375,7.4171875 9.8609375,7.4171875 9.8609375,7.4171875 C9.8609375,7.08203125 10.0046875,6.890625 10.3398437,6.890625 C10.3398437,6.890625 10.3398437,6.890625 10.3398437,6.890625 C10.3875,6.890625 10.4835937,6.93828125 10.675,7.034375 C10.675,7.034375 10.675,7.034375 10.675,7.034375 C10.675,7.034375 11.3453125,7.7046875 11.3453125,7.7046875 C11.3453125,7.7046875 12.9257812,6.0765625 12.9257812,6.0765625 C13.021875,5.98046875 13.1171875,5.9328125 13.2609375,5.9328125 C13.2609375,5.9328125 13.2609375,5.9328125 13.2609375,5.9328125 L13.2609375,5.9328125 Z M21.1148437,11.8242188 C21.45,11.8242188 21.6414062,11.9679687 21.6414062,12.303125 C21.6414062,12.6382813 21.45,12.7820313 21.1148437,12.7820313 C21.1148437,12.7820313 21.1148437,12.7820313 21.1148437,12.7820313 C21.1148437,12.7820313 15.2242188,12.7820313 15.2242188,12.7820313 C14.8890625,12.7820313 14.7453125,12.6382813 14.7453125,12.303125 C14.7453125,11.9679688 14.8890625,11.8242188 15.2242188,11.8242188 C15.2242188,11.8242188 15.2242188,11.8242188 15.2242188,11.8242188 C15.2242188,11.8242188 21.1148437,11.8242188 21.1148437,11.8242188 L21.1148437,11.8242188 Z M13.2609375,10.8179687 C13.4046875,10.8179687 13.5484375,10.865625 13.64375,10.9617187 C13.7390625,11.0578125 13.7875,11.153125 13.7875,11.296875 C13.7875,11.296875 13.7875,11.296875 13.7875,11.296875 C13.7875,11.440625 13.7398437,11.584375 13.64375,11.6796875 C13.64375,11.6796875 13.64375,11.6796875 13.64375,11.6796875 C13.64375,11.6796875 11.6804687,13.6429687 11.6804687,13.6429687 C11.584375,13.7390625 11.4890625,13.7867187 11.3453125,13.7867187 C11.3453125,13.7867187 11.3453125,13.7867187 11.3453125,13.7867187 C11.2015625,13.7867187 11.0578125,13.7390625 10.9625,13.6429687 C10.9625,13.6429687 10.9625,13.6429687 10.9625,13.6429687 C10.9625,13.6429687 10.0046875,12.6375 10.0046875,12.6375 C9.90859375,12.5414062 9.8609375,12.4460937 9.8609375,12.3023437 C9.8609375,12.3023437 9.8609375,12.3023437 9.8609375,12.3023437 C9.8609375,11.9671875 10.0046875,11.8234375 10.3398437,11.8234375 C10.3398437,11.8234375 10.3398437,11.8234375 10.3398437,11.8234375 C10.4835937,11.8234375 10.5789062,11.8710937 10.675,11.9671875 C10.675,11.9671875 10.675,11.9671875 10.675,11.9671875 C10.675,11.9671875 11.3453125,12.5898437 11.3453125,12.5898437 C11.3453125,12.5898437 12.9257812,10.9617187 12.9257812,10.9617187 C13.021875,10.865625 13.1171875,10.8179687 13.2609375,10.8179687 C13.2609375,10.8179687 13.2609375,10.8179687 13.2609375,10.8179687 L13.2609375,10.8179687 Z M21.6421875,17.1875 C21.6421875,17.1875 21.6421875,17.1875 21.6421875,17.1875 C21.6421875,17.5226563 21.4507812,17.7140625 21.115625,17.7140625 C21.115625,17.7140625 21.115625,17.7140625 21.115625,17.7140625 C21.115625,17.7140625 15.225,17.7140625 15.225,17.7140625 C14.8898438,17.7140625 14.7460938,17.5226563 14.7460938,17.1875 C14.7460938,17.1875 14.7460938,17.1875 14.7460938,17.1875 C14.7460938,16.8523438 14.8898438,16.7085938 15.225,16.7085938 C15.225,16.7085938 15.225,16.7085938 15.225,16.7085938 C15.225,16.7085938 21.115625,16.7085938 21.115625,16.7085938 C21.4507812,16.7085938 21.6421875,16.8523438 21.6421875,17.1875 Z M13.64375,15.8945312 C13.64375,15.8945312 13.64375,15.8945312 13.64375,15.8945312 C13.7398437,15.9421875 13.7875,16.0859375 13.7875,16.2296875 C13.7875,16.2296875 13.7875,16.2296875 13.7875,16.2296875 C13.7875,16.3734375 13.7398437,16.46875 13.64375,16.5648437 C13.64375,16.5648437 13.64375,16.5648437 13.64375,16.5648437 C13.64375,16.5648437 11.6804687,18.528125 11.6804687,18.528125 C11.584375,18.6242187 11.4890625,18.671875 11.3453125,18.671875 C11.3453125,18.671875 11.3453125,18.671875 11.3453125,18.671875 C11.2015625,18.671875 11.0578125,18.6242187 10.9625,18.528125 C10.9625,18.528125 10.9625,18.528125 10.9625,18.528125 C10.9625,18.528125 10.0046875,17.5703125 10.0046875,17.5703125 C9.90859375,17.4742187 9.8609375,17.33125 9.8609375,17.1875 C9.8609375,17.1875 9.8609375,17.1875 9.8609375,17.1875 C9.8609375,16.8523437 10.0046875,16.7085937 10.3398437,16.7085937 C10.3398437,16.7085937 10.3398437,16.7085937 10.3398437,16.7085937 C10.4835937,16.7085937 10.5789062,16.75625 10.675,16.8523437 C10.675,16.8523437 10.675,16.8523437 10.675,16.8523437 C10.675,16.8523437 11.3453125,17.475 11.3453125,17.475 C11.3453125,17.475 12.9257812,15.8945312 12.9257812,15.8945312 C13.021875,15.7984375 13.1171875,15.7507812 13.2609375,15.7507812 C13.2609375,15.7507812 13.2609375,15.7507812 13.2609375,15.7507812 C13.4046875,15.7507812 13.5484375,15.7984375 13.64375,15.8945312 L13.64375,15.8945312 Z M3.490625,1 C3.490625,1 3.490625,1 3.490625,1 C3.490625,1 2.48515625,1 2.48515625,1 C2.05390625,1 1.71875,1.14375 1.43125,1.43125 C1.14375,1.71875 1,2.05390625 1,2.48515625 C1,2.48515625 1,2.48515625 1,2.48515625 C1,2.48515625 1,22.1210938 1,22.1210938 C1,22.5523438 1.14375,22.8875 1.43125,23.1265625 C1.71875,23.4140625 2.05390625,23.5578125 2.48515625,23.5578125 C2.48515625,23.5578125 2.48515625,23.5578125 2.48515625,23.5578125 C2.48515625,23.5578125 3.490625,23.5578125 3.490625,23.5578125 C3.921875,23.5578125 4.25703125,23.4140625 4.54453125,23.1265625 C4.78359375,22.8875 4.92734375,22.5515625 4.92734375,22.1210938 C4.92734375,22.1210938 4.92734375,22.1210938 4.92734375,22.1210938 C4.92734375,22.1210938 4.92734375,2.48515625 4.92734375,2.48515625 C4.92734375,2.05390625 4.78359375,1.71875 4.54453125,1.43125 C4.25703125,1.14375 3.921875,1 3.490625,1 Z M3.96953125,5.9328125 C3.96953125,5.9328125 3.96953125,22.1203125 3.96953125,22.1203125 C3.96953125,22.4554688 3.82578125,22.5992187 3.490625,22.5992187 C3.490625,22.5992187 3.490625,22.5992187 3.490625,22.5992187 C3.490625,22.5992187 2.48515625,22.5992187 2.48515625,22.5992187 C2.15,22.5992187 2.00625,22.4554688 2.00625,22.1203125 C2.00625,22.1203125 2.00625,22.1203125 2.00625,22.1203125 C2.00625,22.1203125 2.00625,5.9328125 2.00625,5.9328125 C2.00625,5.9328125 3.96953125,5.9328125 3.96953125,5.9328125 Z M3.96953125,2.484375 C3.96953125,2.484375 3.96953125,4.9265625 3.96953125,4.9265625 C3.96953125,4.9265625 2.00625,4.9265625 2.00625,4.9265625 C2.00625,4.9265625 2.00625,2.484375 2.00625,2.484375 C2.00625,2.14921875 2.15,2.00546875 2.48515625,2.00546875 C2.48515625,2.00546875 2.48515625,2.00546875 2.48515625,2.00546875 C2.48515625,2.00546875 3.490625,2.00546875 3.490625,2.00546875 C3.82578125,2.00546875 3.96953125,2.14921875 3.96953125,2.484375 C3.96953125,2.484375 3.96953125,2.484375 3.96953125,2.484375 Z"/>
  <title>Todo</title>
</svg>