<svg xmlns="http://www.w3.org/2000/svg" viewBox="0 0 25 25" id="tow-truck">
  <path d="M20.10625,10.0320313 C20.10625,10.0320313 20.74375,12.484375 20.74375,12.484375 C20.815625,12.7359375 20.7609375,13.00625 20.596875,13.2101563 C20.4414062,13.4226563 20.1929687,13.546875 19.9296875,13.54375 C19.9296875,13.54375 16.2515625,13.54375 16.2515625,13.54375 C15.7859375,13.54375 15.4078125,13.1664063 15.4078125,12.7 C15.4078125,12.7 15.4078125,10.2382813 15.4078125,10.2382813 C15.4078125,9.77265625 15.7851562,9.39453125 16.2515625,9.39453125 C16.2515625,9.39453125 19.2921875,9.39453125 19.2921875,9.39453125 C19.6773437,9.39609375 20.0125,9.65859375 20.10625,10.0320313 L20.10625,10.0320313 Z M16.3992187,12.5625 C16.3992187,12.5625 19.7632813,12.5625 19.7632813,12.5625 C19.7632813,12.5625 19.1945313,10.375 19.1945313,10.375 C19.1945313,10.375 16.3992187,10.375 16.3992187,10.375 C16.3992187,10.375 16.3992187,12.5625 16.3992187,12.5625 Z M23.421875,12.6507813 C23.421875,12.6507813 24.5210938,13.4578125 24.5203129,14.1414063 C24.5203129,14.1414063 24.5203129,17.4273438 24.5203129,17.4273438 C24.5148438,18.2851562 23.8179687,18.9773437 22.9609375,18.9773437 C22.9609375,18.9773437 21.3226562,18.9773437 21.3226562,18.9773437 C21.234375,20.4648438 20.003125,21.6265625 18.5125,21.6265625 C17.021875,21.6265625 15.790625,20.4648437 15.7023437,18.9773437 C15.7023437,18.9773437 9.06171875,18.9773437 9.06171875,18.9773437 C8.9734375,20.4648438 7.74140625,21.6265625 6.2515625,21.6265625 C4.76171875,21.6265625 3.5296875,20.4648437 3.44140625,18.9773437 C3.44140625,18.9773437 2.3921875,18.9773437 2.3921875,18.9773437 C1.8875,18.9773437 1.40390625,18.7765625 1.046875,18.4203125 C0.68984375,18.0640625 0.48984375,17.5796875 0.48984375,17.075 C0.48984375,17.075 0.48984375,16.2023437 0.48984375,16.2023437 C0.48984375,15.1515625 1.34140625,14.2992187 2.39296875,14.2992187 C2.39296875,14.2992187 10.5242187,14.2992187 10.5242187,14.2992187 C10.5242187,14.2992187 2.39296875,5.67734375 2.39296875,5.67734375 C2.39296875,5.67734375 2.39296875,9.30625 2.39296875,9.30625 C3.34609375,9.56015625 3.946875,10.5007812 3.77734375,11.471875 C3.6078125,12.4429688 2.72421875,13.1242187 1.74140625,13.040625 C0.75859375,12.9570312 0.003125,12.1359375 0,11.15 C0,11.15 0.98046875,11.15 0.98046875,11.15 C0.98046875,11.659375 1.39296875,12.071875 1.90234375,12.071875 C2.41171875,12.071875 2.82421875,11.659375 2.82421875,11.15 C2.82421875,10.640625 2.41171875,10.228125 1.90234375,10.228125 C1.90234375,10.228125 1.41171875,10.228125 1.41171875,10.228125 C1.41171875,10.228125 1.41171875,4 1.41171875,4 C1.41171875,4 4.90390625,4 4.90390625,4 C4.90390625,4 13.9765625,13.6023437 13.9765625,13.6023437 C13.9765625,13.6023437 13.9765625,8.109375 13.9765625,8.109375 C13.9765625,8.109375 20.0382812,8.109375 20.0382812,8.109375 C20.7460937,8.11015625 21.3640625,8.590625 21.5390625,9.2765625 C21.5390625,9.2765625 22.2453125,11.9835938 22.2453125,11.9835938 C22.2453125,11.9835938 23.4226562,12.6507812 23.4226562,12.6507812 L23.421875,12.6507813 Z M3.0890625,4.98046875 C3.0890625,4.98046875 11.9164063,14.2984375 11.9164063,14.2984375 C11.9164063,14.2984375 13.240625,14.2984375 13.240625,14.2984375 C13.240625,14.2984375 4.45234375,4.98046875 4.45234375,4.98046875 C4.45234375,4.98046875 3.0890625,4.98046875 3.0890625,4.98046875 Z M4.5453125,19.540625 C4.5453125,19.540625 5.509375,20.678125 6.25703125,20.6742288 C7.26796875,20.66875 8.0859375,19.8507813 8.09143161,18.8398438 C8.0953125,18.0921875 7.64765625,17.4164063 6.9578125,17.128125 C6.26796875,16.8398438 5.47265625,16.9976562 4.94375,17.5257813 C4.41484375,18.0539063 4.2578125,18.85 4.54609375,19.5398437 L4.5453125,19.540625 Z M13.9765625,17.9765625 C13.9765625,17.9765625 13.9765625,15.259375 13.9765625,15.259375 C13.9765625,15.259375 2.39296875,15.259375 2.39296875,15.259375 C1.88359375,15.259375 1.47109375,15.671875 1.47109375,16.18125 C1.47109375,16.18125 1.47109375,17.0539063 1.47109375,17.0539063 C1.47109375,17.5632813 1.88359375,17.9757813 2.39296875,17.9757813 C2.39296875,17.9757813 3.5796875,17.9757813 3.5796875,17.9757813 C3.95078125,16.8125 5.03125,16.021875 6.25234375,16.021875 C7.4734375,16.021875 8.5546875,16.8117188 8.925,17.9757813 C8.925,17.9757813 13.9765625,17.9757813 13.9765625,17.9757813 L13.9765625,17.9765625 Z M18.5078125,20.6742188 C18.5078125,20.6742188 19.4648438,20.484375 19.8109375,20.140625 C20.1570313,19.796875 20.3515879,19.328125 20.3515879,18.8398438 C20.3554688,18.0929688 19.9085938,17.4179688 19.2203125,17.1289063 C18.5320313,16.8398438 17.7367188,16.9960938 17.2078125,17.5226563 C16.678125,18.0492188 16.51875,18.8429688 16.8039063,19.5335938 C17.0890625,20.2242188 17.7617188,20.6742188 18.5085938,20.6742188 L18.5078125,20.6742188 Z M23.5398438,16.1132813 C23.5398438,16.1132813 23.5398438,14.1414063 23.5398438,14.1414063 C23.5390625,13.890625 23.3765625,13.66875 23.1375,13.5921875 C23.1375,13.5921875 21.4304688,12.7585938 21.4304688,12.7585938 C21.4304688,12.7585938 20.5867188,9.521875 20.5867188,9.521875 C20.5242188,9.26953125 20.2976563,9.09140625 20.0375,9.090625 C20.0375,9.090625 14.9570313,9.090625 14.9570313,9.090625 C14.9570313,9.090625 14.9570313,17.9774114 14.9570313,17.9774114 C14.9570313,17.9774114 15.8398438,17.9774114 15.8398438,17.9774114 C16.2109375,16.8140625 17.2914063,16.0234375 18.5125,16.0234375 C19.7335938,16.0234375 20.8148438,16.8132813 21.1851563,17.9774114 C21.1851563,17.9774114 22.9601563,17.9774114 22.9601563,17.9774114 C23.1125,17.9796875 23.2601563,17.9210938 23.36875,17.8140625 C23.4773438,17.7070313 23.5390625,17.5609375 23.5390625,17.4085938 C23.5390625,17.4085938 23.5390625,16.8984375 23.5390625,16.8984375 C23.5390625,16.8984375 22.0679688,16.8984375 22.0679688,16.8984375 C22.0679688,16.8984375 22.0679688,16.1140625 22.0679688,16.1140625 C22.0679688,16.1140625 23.5390625,16.1140625 23.5390625,16.1140625 L23.5398438,16.1132813 Z"/>
  <title>Tow Truck</title>
</svg>