<svg xmlns="http://www.w3.org/2000/svg" viewBox="0 0 25 25" id="tracer">
  <g fill="none" fill-rule="evenodd">
    <path fill="#000" fill-rule="nonzero" d="M18.0554687,9.51875 C18.678125,8.89609375 19.3960938,8.60859375 20.30625,8.60859375 C21.2164063,8.60859375 21.9828125,8.89609375 22.6054688,9.51875 C23.228125,10.1414063 23.5632813,10.9078125 23.5632813,11.8179687 C23.5632813,12.728125 23.228125,13.4945312 22.6054688,14.1171875 C21.9828125,14.7398438 21.2164063,15.075 20.30625,15.075 C19.3960937,15.075 18.678125,14.7398438 18.0554687,14.1171875 C17.4328125,13.4945312 17.0976562,12.728125 17.0976562,11.8179687 C17.0976562,10.9078125 17.4328125,10.1414063 18.0554687,9.51875 Z M20.30625,7.65078125 C20.30625,7.65078125 20.30625,7.65078125 20.30625,7.65078125 C19.1570312,7.65078125 18.1507812,8.03359375 17.3367187,8.8484375 C16.5226563,9.66328125 16.0914062,10.6679688 16.0914062,11.8179687 C16.0914062,11.8179687 16.0914062,11.8179687 16.0914062,11.8179687 C16.0914062,13.015625 16.5226562,13.9734375 17.3367187,14.7875 C18.1507813,15.6015625 19.15625,16.0328125 20.30625,16.0328125 C20.30625,16.0328125 20.30625,16.0328125 20.30625,16.0328125 C21.5039063,16.0328125 22.509375,15.6015625 23.3234375,14.7875 C24.1375,13.9734375 24.5210938,13.015625 24.5210938,11.8179687 C24.5210938,11.8179687 24.5210938,11.8179687 24.5210938,11.8179687 C24.5210938,10.66875 24.1382813,9.6625 23.3234375,8.8484375 C22.5085938,8.034375 21.5039063,7.65078125 20.30625,7.65078125 L20.30625,7.65078125 Z M2.203125,15.0265625 C2.96953125,14.2601562 3.92734375,13.8773437 5.02890625,13.8773437 C6.13046875,13.8773437 7.08828125,14.2601562 7.90234375,15.0265625 C8.66875,15.840625 9.0515625,16.7984375 9.0515625,17.9 C9.0515625,17.9 9.0515625,17.9 9.0515625,17.9 C9.0515625,19.0015625 8.66875,19.9117187 7.90234375,20.7257812 C7.08828125,21.5398437 6.13046875,21.9234375 5.02890625,21.9234375 C3.92734375,21.9234375 2.96953125,21.540625 2.15546875,20.7257812 C1.34140625,19.959375 0.9578125,19.0015625 0.9578125,17.9 C0.9578125,17.9 0.9578125,17.9 0.9578125,17.9 C1.00546875,16.7984375 1.3890625,15.840625 2.203125,15.0265625 Z M8.57265625,14.3554688 C7.5671875,13.35 6.4171875,12.8710938 5.02890625,12.8710938 C3.640625,12.8710938 2.490625,13.35 1.48515625,14.3078125 C0.4796875,15.3132812 0.00078125,16.5109375 0.00078125,17.9 C0.00078125,17.9 0.00078125,17.9 0.00078125,17.9 C0.00078125,19.2890625 0.4796875,20.4382813 1.48515625,21.3960937 C2.490625,22.4015625 3.640625,22.8804687 5.02890625,22.8804687 C6.4171875,22.8804687 7.5671875,22.4015625 8.57265625,21.3960937 C9.53046875,20.4382813 10.009375,19.2890625 10.009375,17.9 C10.009375,16.5109375 9.53046875,15.3617187 8.57265625,14.35625 L8.57265625,14.3554688 Z M3.40078125,2.95703125 C3.40078125,2.95703125 3.40078125,2.95703125 3.40078125,2.95703125 C4.07109375,3.0046875 4.64609375,3.24453125 5.125,3.67578125 C5.55625,4.1546875 5.7953125,4.7296875 5.7953125,5.4 C5.7953125,6.0703125 5.55625,6.6453125 5.125,7.0765625 C4.64609375,7.55546875 4.07109375,7.7953125 3.40078125,7.7953125 C2.73046875,7.7953125 2.15546875,7.55625 1.72421875,7.0765625 C1.2453125,6.6453125 1.00546875,6.07109375 0.9578125,5.4 C0.9578125,5.4 0.9578125,5.4 0.9578125,5.4 C1.00546875,4.7296875 1.2453125,4.1546875 1.72421875,3.67578125 C2.15546875,3.24453125 2.7296875,3.00546875 3.40078125,2.95703125 Z M5.7953125,3.00546875 C5.125,2.33515625 4.3109375,2 3.40078125,2 C2.490625,2 1.6765625,2.33515625 1.05390625,3.00546875 C0.38359375,3.67578125 0.0484375,4.48984375 0,5.4 C0,5.4 0,5.4 0,5.4 C0.04765625,6.31015625 0.3828125,7.12421875 1.05390625,7.746875 C1.6765625,8.4171875 2.490625,8.75234375 3.40078125,8.80078125 C3.40078125,8.80078125 3.40078125,8.80078125 3.40078125,8.80078125 C4.3109375,8.753125 5.125,8.41796875 5.7953125,7.746875 C6.41796875,7.12421875 6.753125,6.31015625 6.80078125,5.4 C6.80078125,5.4 6.80078125,5.4 6.80078125,5.4 C6.753125,4.48984375 6.41796875,3.67578125 5.7953125,3.00546875 L5.7953125,3.00546875 Z"/>
    <path fill="#000" fill-rule="nonzero" d="M9.24296875 17.0859375C9.24296875 17.0859375 8.86015625 16.1757812 8.86015625 16.1757812 8.86015625 16.1757812 17.1453125 12.6320312 17.1453125 12.6320312 17.1453125 12.6320312 17.528125 13.5421875 17.528125 13.5421875 17.528125 13.5421875 9.24296875 17.0859375 9.24296875 17.0859375zM17.0015625 11.3382812C17.0015625 11.3382812 5.69921875 6.453125 5.69921875 6.453125 5.69921875 6.453125 6.08203125 5.54296875 6.08203125 5.54296875 6.08203125 5.54296875 17.384375 10.428125 17.384375 10.428125 17.384375 10.428125 17.0015625 11.3382812 17.0015625 11.3382812L17.0015625 11.3382812z"/>
  </g>
  <title>Tracer</title>
</svg>