<svg xmlns="http://www.w3.org/2000/svg" viewBox="0 0 25 25" id="tracer-solid">
  <path d="M6.84765625,5.87734375 C6.84765625,5.87734375 16.378125,9.9484375 16.378125,9.9484375 C17.1921875,8.559375 18.4375,7.8890625 20.1140625,7.8890625 C20.1140625,7.8890625 20.1140625,7.8890625 20.1140625,7.8890625 C21.3117188,7.8890625 22.3648438,8.3203125 23.2273438,9.18203125 C24.0898438,10.04375 24.5203125,11.0976562 24.5203125,12.2953125 C24.5203125,13.4929688 24.0890625,14.5460937 23.2273437,15.4085937 C22.365625,16.2710937 21.3117188,16.7015625 20.1140625,16.7015625 C20.1140625,16.7015625 20.1140625,16.7015625 20.1140625,16.7015625 C19.2039063,16.7015625 18.4375,16.4625 17.7195312,15.9828125 C17.0015625,15.503125 16.4265625,14.88125 16.0914062,14.0671875 C16.0914062,14.0671875 16.0914062,14.0671875 16.0914062,14.0671875 C16.0914062,14.0671875 9.721875,16.8453125 9.721875,16.8453125 C9.76953125,17.228125 9.81796875,17.515625 9.81796875,17.7070313 C9.81796875,17.7070313 9.81796875,17.7070313 9.81796875,17.7070313 C9.81796875,19.0476563 9.3390625,20.1976563 8.38125,21.1554688 C7.4234375,22.1132812 6.27421875,22.5921875 4.88515625,22.5921875 C4.88515625,22.5921875 4.88515625,22.5921875 4.88515625,22.5921875 C3.54453125,22.5921875 2.39453125,22.1132812 1.43671875,21.1554688 C0.47890625,20.1976563 0,19.0484375 0,17.7070312 C0,17.7070312 0,17.7070312 0,17.7070312 C0,16.3179687 0.47890625,15.16875 1.43671875,14.2109375 C2.39453125,13.253125 3.54375,12.7742188 4.88515625,12.7742188 C4.88515625,12.7742188 4.88515625,12.7742188 4.88515625,12.7742188 C5.890625,12.7742188 6.8484375,13.0617188 7.7109375,13.6359375 C8.525,14.2109375 9.14765625,14.9765625 9.4828125,15.8867188 C9.4828125,15.8867188 9.4828125,15.8867188 9.4828125,15.8867188 C9.4828125,15.8867188 15.7570313,13.1570313 15.7570313,13.1570313 C15.709375,12.965625 15.709375,12.678125 15.709375,12.2953125 C15.709375,12.2953125 15.709375,12.2953125 15.709375,12.2953125 C15.709375,11.8640625 15.8054688,11.3375 15.9484375,10.8109375 C15.9484375,10.8109375 15.9484375,10.8109375 15.9484375,10.8109375 C15.9484375,10.8109375 6.56171875,6.8359375 6.56171875,6.8359375 C6.32265625,7.45859375 5.89140625,7.9375 5.3640625,8.27265625 C4.7890625,8.65546875 4.16640625,8.84765625 3.4484375,8.84765625 C3.4484375,8.84765625 3.4484375,8.84765625 3.4484375,8.84765625 C2.490625,8.84765625 1.6765625,8.5125 1.00625,7.8421875 C0.3359375,7.171875 0.00078125,6.3578125 0.00078125,5.44765625 C0.00078125,5.44765625 0.00078125,5.44765625 0.00078125,5.44765625 C0.00078125,4.48984375 0.3359375,3.67578125 1.00625,3.00546875 C1.6765625,2.33515625 2.490625,2 3.4484375,2 C3.4484375,2 3.4484375,2 3.4484375,2 C4.35859375,2 5.17265625,2.33515625 5.84296875,3.00546875 C6.51328125,3.67578125 6.8484375,4.48984375 6.8484375,5.44765625 C6.8484375,5.44765625 6.8484375,5.44765625 6.8484375,5.44765625 C6.8484375,5.44765625 6.8484375,5.87890625 6.8484375,5.87890625 L6.84765625,5.87734375 Z"/>
  <title>Tracer Solid</title>
</svg>