<svg xmlns="http://www.w3.org/2000/svg" viewBox="0 0 25 25" id="transform">
  <path d="M24.5210938,11.83125 C24.5210938,10.7773438 24.1382812,9.86796875 23.4195312,9.1015625 C22.653125,8.3828125 21.7429687,8 20.6898438,8 C19.6367188,8 18.7265625,8.3828125 18.0078125,9.1015625 C17.2414063,9.86796875 16.8585938,10.778125 16.8585938,11.83125 C16.8585938,12.884375 17.2414063,13.7945313 18.0078125,14.5132813 C18.7265625,15.2796875 19.6359375,15.6625 20.6898438,15.6625 C21.74375,15.6625 22.653125,15.2796875 23.4195312,14.5132813 C24.1382812,13.7945312 24.5210938,12.8851563 24.5210938,11.83125 Z M9.1953125,15.6632813 C9.1953125,15.6632813 4.59765625,8.00078125 4.59765625,8.00078125 C4.59765625,8.00078125 0,15.6632813 0,15.6632813 C0,15.6632813 9.1953125,15.6632813 9.1953125,15.6632813 Z M13.9367188,12.69375 C13.9367188,12.69375 11.8296875,14.6570312 11.8296875,14.6570312 C11.8296875,14.6570312 12.4523438,15.3757813 12.4523438,15.3757813 C12.4523438,15.3757813 15.1820313,12.8851563 15.1820313,12.8851563 C15.1820313,12.8851563 15.2296875,12.8851563 15.2296875,12.8851563 C15.2296875,12.8851563 15.5648438,12.55 15.5648438,12.55 C15.5648438,12.55 15.9,12.2625 15.9,12.2625 C15.9,12.2625 15.8523437,12.2148438 15.8523437,12.2148438 C15.8523437,12.2148438 15.9,12.1671875 15.9,12.1671875 C15.9,12.1671875 15.5648438,11.8796875 15.5648438,11.8796875 C15.5648438,11.8796875 15.2296875,11.5445313 15.2296875,11.5445313 C15.2296875,11.5445313 15.1820313,11.5445313 15.1820313,11.5445313 C15.1820313,11.5445313 12.4523438,9.05390625 12.4523438,9.05390625 C12.4523438,9.05390625 11.8296875,9.77265625 11.8296875,9.77265625 C11.8296875,9.77265625 13.9367188,11.7359375 13.9367188,11.7359375 C13.9367188,11.7359375 8.8125,11.7359375 8.8125,11.7359375 C8.8125,11.7359375 8.8125,12.69375 8.8125,12.69375 C8.8125,12.69375 13.9367188,12.69375 13.9367188,12.69375 L13.9367188,12.69375 Z"/>
  <title>Transform</title>
</svg>