<svg xmlns="http://www.w3.org/2000/svg" viewBox="0 0 25 25" id="triangle-solid">
  <path d="M24.521875,23.6 C24.521875,23.6 12.2609375,2 12.2609375,2 C12.2609375,2 0,23.6 0,23.6 C0,23.6 24.5210938,23.6 24.5210938,23.6 L24.521875,23.6 Z M22.9890625,22.6421875 C22.9890625,22.6421875 1.5328125,22.6421875 1.5328125,22.6421875 C1.5328125,22.6421875 12.2609375,3.9640625 12.2609375,3.9640625 C12.2609375,3.9640625 22.9890625,22.6421875 22.9890625,22.6421875 Z M24.521875,23.6 C24.521875,23.6 12.2609375,2 12.2609375,2 C12.2609375,2 0,23.6 0,23.6 C0,23.6 24.5210938,23.6 24.5210938,23.6 L24.521875,23.6 Z"/>
  <title>Triangle Solid</title>
</svg>