<svg xmlns="http://www.w3.org/2000/svg" viewBox="0 0 25 25" id="tribox">
  <g fill="none" fill-rule="evenodd">
    <path fill="#000" fill-rule="nonzero" d="M0.9578125,8.8546875 C0.9578125,8.8546875 7.8546875,8.8546875 7.8546875,8.8546875 C7.8546875,8.8546875 7.8546875,15.7515625 7.8546875,15.7515625 C7.8546875,15.7515625 0.9578125,15.7515625 0.9578125,15.7515625 C0.9578125,15.7515625 0.9578125,8.8546875 0.9578125,8.8546875 Z M8.8125,16.709375 C8.8125,16.709375 8.8125,7.896875 8.8125,7.896875 C8.8125,7.896875 0,7.896875 0,7.896875 C0,7.896875 0,16.709375 0,16.709375 C0,16.709375 8.8125,16.709375 8.8125,16.709375 Z M16.6664063,2.00625 C16.6664063,2.00625 23.5632813,2.00625 23.5632813,2.00625 C23.5632813,2.00625 23.5632813,8.8546875 23.5632813,8.8546875 C23.5632813,8.8546875 16.6664063,8.8546875 16.6664063,8.8546875 C16.6664063,8.8546875 16.6664063,2.00625 16.6664063,2.00625 Z M24.5210937,9.86015625 C24.5210937,9.86015625 24.5210937,1 24.5210937,1 C24.5210937,1 15.7085937,1 15.7085937,1 C15.7085937,1 15.7085937,9.86015625 15.7085937,9.86015625 C15.7085937,9.86015625 24.5210937,9.86015625 24.5210937,9.86015625 Z M16.6664063,15.7515625 C16.6664063,15.7515625 23.5632813,15.7515625 23.5632813,15.7515625 C23.5632813,15.7515625 23.5632813,22.6 23.5632813,22.6 C23.5632813,22.6 16.6664063,22.6 16.6664063,22.6 C16.6664063,22.6 16.6664063,15.7515625 16.6664063,15.7515625 L16.6664063,15.7515625 Z M24.5210937,23.6054688 C24.5210937,23.6054688 24.5210937,14.7453125 24.5210937,14.7453125 C24.5210937,14.7453125 15.7085937,14.7453125 15.7085937,14.7453125 C15.7085937,14.7453125 15.7085937,23.6054688 15.7085937,23.6054688 C15.7085937,23.6054688 24.5210937,23.6054688 24.5210937,23.6054688 Z"/>
    <path fill="#000" fill-rule="nonzero" d="M8.8125,12.4945312 C8.8125,12.4945312 8.1421875,11.8242187 8.1421875,11.8242187 C8.1421875,11.8242187 15.709375,4.25703125 15.709375,4.25703125 C15.709375,4.25703125 16.3796875,4.92734375 16.3796875,4.92734375 C16.3796875,4.92734375 8.8125,12.4945312 8.8125,12.4945312 Z"/>
    <path fill="#000" fill-rule="nonzero" d="M15.7085938,20.3492187 C15.7085938,20.3492187 8.14140625,12.7820312 8.14140625,12.7820312 C8.14140625,12.7820312 8.81171875,12.1117187 8.81171875,12.1117187 C8.81171875,12.1117187 16.3789063,19.6789062 16.3789063,19.6789062 C16.3789063,19.6789062 15.7085938,20.3492187 15.7085938,20.3492187 Z"/>
  </g>
  <title>Tribox</title>
</svg>