<svg xmlns="http://www.w3.org/2000/svg" viewBox="0 0 25 25" id="truck-solid">
  <path d="M24.33125,9.609375 C24.33125,9.609375 24.33125,9.609375 24.33125,9.609375 C24.33125,9.609375 22.0320313,6.54453125 22.0320313,6.54453125 C21.696875,6.11328125 21.3132812,5.921875 20.834375,5.921875 C20.834375,5.921875 20.834375,5.921875 20.834375,5.921875 C20.834375,5.921875 16.6679688,5.921875 16.6679688,5.921875 C16.6679688,5.921875 16.6679688,4.48515625 16.6679688,4.48515625 C16.6679688,4.05390625 16.5242187,3.71875 16.2367187,3.43125 C15.9492188,3.14375 15.6140625,3 15.1828125,3 C15.1828125,3 15.1828125,3 15.1828125,3 C15.1828125,3 1.48515625,3 1.48515625,3 C1.05390625,3 0.71875,3.14375 0.43125,3.43125 C0.14375,3.71875 0,4.05390625 0,4.48515625 C0,4.48515625 0,4.48515625 0,4.48515625 C0,4.48515625 0,16.21875 0,16.21875 C0,16.65 0.14375,16.9851563 0.43125,17.2726562 C0.71875,17.5601562 1.05390625,17.7039062 1.48515625,17.7039062 C1.48515625,17.7039062 1.48515625,17.7039062 1.48515625,17.7039062 C1.48515625,17.7039062 2.921875,17.7039062 2.921875,17.7039062 C2.921875,18.5179687 3.209375,19.2367187 3.83203125,19.8109375 C4.40703125,20.3859375 5.07734375,20.6726562 5.89140625,20.6726562 C6.70546875,20.6726562 7.37578125,20.3851562 7.95078125,19.8109375 C8.52578125,19.2359375 8.8125,18.5179687 8.8125,17.7039062 C8.8125,17.7039062 8.8125,17.7039062 8.8125,17.7039062 C8.8125,17.7039062 14.703125,17.7039062 14.703125,17.7039062 C14.703125,18.5179687 14.990625,19.2367187 15.6132812,19.8109375 C16.1882812,20.3859375 16.8585937,20.6726562 17.6726562,20.6726562 C18.4867187,20.6726562 19.1570312,20.3851562 19.7320312,19.8109375 C20.3070312,19.2359375 20.59375,18.5179687 20.59375,17.7039062 C20.59375,17.7039062 20.59375,17.7039062 20.59375,17.7039062 C20.59375,17.7039062 22.5570312,17.7039062 22.5570312,17.7039062 C23.0835937,17.7039062 23.5625,17.5125 23.9460937,17.1289062 C24.3296875,16.7453125 24.5210937,16.2671875 24.5210937,15.7398438 C24.5210937,15.7398438 24.5210937,15.7398438 24.5210937,15.7398438 C24.5210937,15.7398438 24.5210937,10.184375 24.5210937,10.184375 C24.5210937,9.99296875 24.4734375,9.8015625 24.3296875,9.609375 L24.33125,9.609375 Z M7.28125,19.0921875 C6.8984375,19.475 6.41953125,19.6671875 5.8921875,19.6671875 C5.36484375,19.6671875 4.88671875,19.4757812 4.503125,19.0921875 C4.1203125,18.709375 3.928125,18.2304687 3.928125,17.703125 C3.928125,17.1757812 4.11953125,16.6976562 4.503125,16.3140625 C4.8859375,15.93125 5.36484375,15.7390625 5.8921875,15.7390625 C6.41953125,15.7390625 6.89765625,15.9304687 7.28125,16.3140625 C7.6640625,16.696875 7.85625,17.1757812 7.85625,17.703125 C7.85625,18.2304687 7.66484375,18.7085937 7.28125,19.0921875 Z M19.0632813,19.0921875 C18.6804688,19.475 18.2015625,19.6671875 17.6742188,19.6671875 C17.146875,19.6671875 16.66875,19.4757812 16.2851563,19.0921875 C15.9023438,18.709375 15.7101563,18.2304687 15.7101563,17.703125 C15.7101563,17.1757812 15.9015625,16.6976562 16.2851563,16.3140625 C16.6679688,15.93125 17.146875,15.7390625 17.6742188,15.7390625 C18.2015625,15.7390625 18.6796875,15.9304687 19.0632813,16.3140625 C19.4460938,16.696875 19.6382813,17.1757812 19.6382813,17.703125 C19.6382813,18.2304687 19.446875,18.7085937 19.0632813,19.0921875 Z M23.5648438,10.1835938 C23.5648438,10.1835938 23.5648438,10.8539063 23.5648438,10.8539063 C23.5648438,10.8539063 16.6679688,10.8539063 16.6679688,10.8539063 C16.6679688,10.8539063 16.6679688,6.9265625 16.6679688,6.9265625 C16.6679688,6.9265625 20.834375,6.9265625 20.834375,6.9265625 C20.978125,6.9265625 21.121875,6.97421875 21.2171875,7.11796875 C21.2171875,7.11796875 21.2171875,7.11796875 21.2171875,7.11796875 C21.2171875,7.11796875 23.5640625,10.1828125 23.5640625,10.1828125 L23.5648438,10.1835938 Z"/>
  <title>Truck Solid</title>
</svg>