<svg xmlns="http://www.w3.org/2000/svg" viewBox="0 0 25 25" id="tv-solid">
  <path d="M20.5929688,9.3375 C20.5929688,9.3375 20.5929688,9.3375 20.5929688,9.3375 C20.5929688,9.3375 20.5929688,20.1132812 20.5929688,20.1132812 C20.5929688,20.4484375 20.4492188,20.5921875 20.1140625,20.5921875 C20.1140625,20.5921875 20.1140625,20.5921875 20.1140625,20.5921875 C20.1140625,20.5921875 4.40546875,20.5921875 4.40546875,20.5921875 C4.0703125,20.5921875 3.9265625,20.4484375 3.9265625,20.1132812 C3.9265625,20.1132812 3.9265625,20.1132812 3.9265625,20.1132812 C3.9265625,20.1132812 3.9265625,9.3375 3.9265625,9.3375 C3.9265625,9.00234375 4.0703125,8.8109375 4.40546875,8.8109375 C4.40546875,8.8109375 4.40546875,8.8109375 4.40546875,8.8109375 C4.40546875,8.8109375 20.1140625,8.8109375 20.1140625,8.8109375 C20.4492188,8.8109375 20.5929688,9.00234375 20.5929688,9.3375 Z M24.5203125,7.853125 C24.5203125,7.853125 24.5203125,7.853125 24.5203125,7.853125 C24.5203125,7.853125 24.5203125,21.5984375 24.5203125,21.5984375 C24.5203125,22.4125 24.2328125,23.0828125 23.6585937,23.6578125 C23.084375,24.2328125 22.4132812,24.5195312 21.5992187,24.5195312 C21.5992187,24.5195312 21.5992187,24.5195312 21.5992187,24.5195312 C21.5992187,24.5195312 2.92109375,24.5195312 2.92109375,24.5195312 C2.10703125,24.5195312 1.43671875,24.2320313 0.86171875,23.6578125 C0.28671875,23.0835937 0,22.4125 0,21.5984375 C0,21.5984375 0,21.5984375 0,21.5984375 C0,21.5984375 0,7.853125 0,7.853125 C0,7.0390625 0.2875,6.36875 0.86171875,5.74609375 C1.43671875,5.17109375 2.10703125,4.884375 2.92109375,4.884375 C2.92109375,4.884375 2.92109375,4.884375 2.92109375,4.884375 C2.92109375,4.884375 10.9195312,4.884375 10.9195312,4.884375 C10.9195312,4.884375 6.08203125,0.86171875 6.08203125,0.86171875 C5.93828125,0.765625 5.890625,0.62265625 5.890625,0.47890625 C5.890625,0.47890625 5.890625,0.47890625 5.890625,0.47890625 C5.890625,0.14375 6.034375,0 6.36953125,0 C6.36953125,0 6.36953125,0 6.36953125,0 C6.465625,0 6.5609375,0.04765625 6.7046875,0.09609375 C6.7046875,0.09609375 6.7046875,0.09609375 6.7046875,0.09609375 C6.7046875,0.09609375 12.2601562,4.74140625 12.2601562,4.74140625 C12.2601562,4.74140625 17.815625,0.09609375 17.815625,0.09609375 C17.959375,0.0484375 18.0546875,0 18.1507812,0 C18.1507812,0 18.1507812,0 18.1507812,0 C18.4859375,0 18.6296875,0.14375 18.6296875,0.47890625 C18.6296875,0.47890625 18.6296875,0.47890625 18.6296875,0.47890625 C18.6296875,0.62265625 18.5820312,0.76640625 18.4382812,0.86171875 C18.4382812,0.86171875 18.4382812,0.86171875 18.4382812,0.86171875 C18.4382812,0.86171875 13.6007812,4.884375 13.6007812,4.884375 C13.6007812,4.884375 21.5992187,4.884375 21.5992187,4.884375 C22.4132812,4.884375 23.0835937,5.171875 23.6585937,5.74609375 C24.2335937,6.36875 24.5203125,7.0390625 24.5203125,7.853125 L24.5203125,7.853125 Z M21.5992188,20.1132812 C21.5992188,20.1132812 21.5992188,9.3375 21.5992188,9.3375 C21.5992188,8.90625 21.4554688,8.57109375 21.1679688,8.28359375 C20.8804688,7.99609375 20.5453125,7.85234375 20.1140625,7.85234375 C20.1140625,7.85234375 20.1140625,7.85234375 20.1140625,7.85234375 C20.1140625,7.85234375 4.40546875,7.85234375 4.40546875,7.85234375 C3.97421875,7.85234375 3.6390625,7.99609375 3.3515625,8.28359375 C3.0640625,8.57109375 2.9203125,8.90625 2.9203125,9.3375 C2.9203125,9.3375 2.9203125,9.3375 2.9203125,9.3375 C2.9203125,9.3375 2.9203125,20.1132812 2.9203125,20.1132812 C2.9203125,20.5445312 3.0640625,20.8796875 3.3515625,21.1671875 C3.6390625,21.4546875 3.97421875,21.5984375 4.40546875,21.5984375 C4.40546875,21.5984375 4.40546875,21.5984375 4.40546875,21.5984375 C4.40546875,21.5984375 20.1140625,21.5984375 20.1140625,21.5984375 C20.5453125,21.5984375 20.8804688,21.4546875 21.1679688,21.1671875 C21.4554688,20.8796875 21.5992188,20.5445312 21.5992188,20.1132812 C21.5992188,20.1132812 21.5992188,20.1132812 21.5992188,20.1132812 Z"/>
  <title>Tv Solid</title>
</svg>