<svg xmlns="http://www.w3.org/2000/svg" viewBox="0 0 25 25" id="tv">
  <path d="M21.5992187,4.884375 C21.5992187,4.884375 21.5992187,4.884375 21.5992187,4.884375 C21.5992187,4.884375 13.6007813,4.884375 13.6007813,4.884375 C13.6007813,4.884375 18.4382812,0.86171875 18.4382812,0.86171875 C18.5820312,0.765625 18.6296875,0.62265625 18.6296875,0.47890625 C18.6296875,0.47890625 18.6296875,0.47890625 18.6296875,0.47890625 C18.6296875,0.14375 18.4859375,0 18.1507813,0 C18.1507813,0 18.1507813,0 18.1507813,0 C18.0546875,0 17.959375,0.04765625 17.815625,0.09609375 C17.815625,0.09609375 17.815625,0.09609375 17.815625,0.09609375 C17.815625,0.09609375 12.2601563,4.74140625 12.2601563,4.74140625 C12.2601563,4.74140625 6.7046875,0.09609375 6.7046875,0.09609375 C6.5609375,0.0484375 6.465625,0 6.36953125,0 C6.36953125,0 6.36953125,0 6.36953125,0 C6.034375,0 5.890625,0.14375 5.890625,0.47890625 C5.890625,0.47890625 5.890625,0.47890625 5.890625,0.47890625 C5.890625,0.62265625 5.93828125,0.76640625 6.08203125,0.86171875 C6.08203125,0.86171875 6.08203125,0.86171875 6.08203125,0.86171875 C6.08203125,0.86171875 10.9195313,4.884375 10.9195313,4.884375 C10.9195313,4.884375 2.92109375,4.884375 2.92109375,4.884375 C2.10703125,4.884375 1.43671875,5.171875 0.86171875,5.74609375 C0.28671875,6.36875 0,7.0390625 0,7.853125 C0,7.853125 0,7.853125 0,7.853125 C0,7.853125 0,21.5984375 0,21.5984375 C0,22.4125 0.2875,23.0828125 0.86171875,23.6578125 C1.4359375,24.2328125 2.10703125,24.5195312 2.92109375,24.5195312 C2.92109375,24.5195312 2.92109375,24.5195312 2.92109375,24.5195312 C2.92109375,24.5195312 21.5992188,24.5195312 21.5992188,24.5195312 C22.4132813,24.5195312 23.0835937,24.2320313 23.6585938,23.6578125 C24.2335938,23.0835937 24.5203125,22.4125 24.5203125,21.5984375 C24.5203125,21.5984375 24.5203125,21.5984375 24.5203125,21.5984375 C24.5203125,21.5984375 24.5203125,7.853125 24.5203125,7.853125 C24.5203125,7.0390625 24.2328125,6.36875 23.6585937,5.74609375 C23.0835937,5.17109375 22.4132812,4.884375 21.5992187,4.884375 Z M23.5625,7.85390625 C23.5625,7.85390625 23.5625,21.5992187 23.5625,21.5992187 C23.5148437,22.1257812 23.3234375,22.6046875 22.9398438,22.9398438 C22.5570313,23.3226562 22.1257812,23.5148438 21.5992187,23.5148438 C21.5992187,23.5148438 21.5992187,23.5148438 21.5992187,23.5148438 C21.5992187,23.5148438 2.92109375,23.5148438 2.92109375,23.5148438 C2.39453125,23.5148438 1.96328125,23.3234375 1.58046875,22.9398438 C1.19765625,22.6046875 1.00546875,22.1257812 0.9578125,21.5992187 C0.9578125,21.5992187 0.9578125,21.5992187 0.9578125,21.5992187 C0.9578125,21.5992187 0.9578125,7.85390625 0.9578125,7.85390625 C1.00546875,7.32734375 1.19765625,6.8484375 1.58046875,6.46484375 C1.915625,6.08203125 2.39453125,5.88984375 2.92109375,5.88984375 C2.92109375,5.88984375 2.92109375,5.88984375 2.92109375,5.88984375 C2.92109375,5.88984375 21.5992187,5.88984375 21.5992187,5.88984375 C22.1257812,5.88984375 22.6046875,6.08125 22.9882812,6.46484375 C23.3234375,6.84765625 23.5148437,7.3265625 23.5632812,7.85390625 C23.5632812,7.85390625 23.5632812,7.85390625 23.5632812,7.85390625 L23.5625,7.85390625 Z M20.1140625,7.85390625 C20.1140625,7.85390625 20.1140625,7.85390625 20.1140625,7.85390625 C20.1140625,7.85390625 4.40546875,7.85390625 4.40546875,7.85390625 C3.97421875,7.85390625 3.6390625,7.99765625 3.3515625,8.28515625 C3.0640625,8.57265625 2.9203125,8.9078125 2.9203125,9.3390625 C2.9203125,9.3390625 2.9203125,9.3390625 2.9203125,9.3390625 C2.9203125,9.3390625 2.9203125,20.1148437 2.9203125,20.1148437 C2.9203125,20.5460937 3.0640625,20.88125 3.3515625,21.16875 C3.6390625,21.45625 3.97421875,21.6 4.40546875,21.6 C4.40546875,21.6 4.40546875,21.6 4.40546875,21.6 C4.40546875,21.6 20.1140625,21.6 20.1140625,21.6 C20.5453125,21.6 20.8804688,21.45625 21.1679688,21.16875 C21.4554688,20.88125 21.5992187,20.5460937 21.5992187,20.1148437 C21.5992187,20.1148437 21.5992187,20.1148437 21.5992187,20.1148437 C21.5992187,20.1148437 21.5992187,9.3390625 21.5992187,9.3390625 C21.5992187,8.9078125 21.4554688,8.57265625 21.1679688,8.28515625 C20.8804688,7.99765625 20.5453125,7.85390625 20.1140625,7.85390625 Z M20.5929688,9.33828125 C20.5929688,9.33828125 20.5929688,20.1140625 20.5929688,20.1140625 C20.5929688,20.4492188 20.4492188,20.5929688 20.1140625,20.5929688 C20.1140625,20.5929688 20.1140625,20.5929688 20.1140625,20.5929688 C20.1140625,20.5929688 4.40546875,20.5929688 4.40546875,20.5929688 C4.0703125,20.5929688 3.9265625,20.4492188 3.9265625,20.1140625 C3.9265625,20.1140625 3.9265625,20.1140625 3.9265625,20.1140625 C3.9265625,20.1140625 3.9265625,9.33828125 3.9265625,9.33828125 C3.9265625,9.003125 4.0703125,8.81171875 4.40546875,8.81171875 C4.40546875,8.81171875 4.40546875,8.81171875 4.40546875,8.81171875 C4.40546875,8.81171875 20.1140625,8.81171875 20.1140625,8.81171875 C20.4492188,8.81171875 20.5929688,9.003125 20.5929688,9.33828125 C20.5929688,9.33828125 20.5929688,9.33828125 20.5929688,9.33828125 Z"/>
  <title>Tv</title>
</svg>