<svg xmlns="http://www.w3.org/2000/svg" viewBox="0 0 25 25" id="twitter">
  <path d="M23.6054688,5.1546875 C23.6054688,5.1546875 23.6054688,5.1546875 23.6054688,5.1546875 C22.9351562,6.06484375 22.16875,6.87890625 21.2585937,7.54921875 C21.2585937,7.54921875 21.2585937,7.54921875 21.2585937,7.54921875 C21.2585937,7.54921875 21.2585937,8.12421875 21.2585937,8.12421875 C21.2585937,10.23125 20.7796875,12.290625 19.821875,14.2546875 C19.821875,14.2546875 19.821875,14.2546875 19.821875,14.2546875 C18.8164062,16.2179688 17.2835938,17.8945312 15.2242187,19.2351562 C15.2242187,19.2351562 15.2242187,19.2351562 15.2242187,19.2351562 C13.1648437,20.5757812 10.7703125,21.246875 8.1359375,21.246875 C8.1359375,21.246875 8.1359375,21.246875 8.1359375,21.246875 C5.5015625,21.246875 3.15546875,20.5765625 1,19.1875 C1,19.1875 1,19.1875 1,19.1875 C1.14375,19.2351562 1.5265625,19.2351562 2.14921875,19.2351562 C2.14921875,19.2351562 2.14921875,19.2351562 2.14921875,19.2351562 C4.3046875,19.2351562 6.2203125,18.6125 7.89609375,17.3195312 C7.89609375,17.3195312 7.89609375,17.3195312 7.89609375,17.3195312 C6.890625,17.271875 6.028125,16.984375 5.2140625,16.3617188 C5.2140625,16.3617188 5.2140625,16.3617188 5.2140625,16.3617188 C4.4,15.7867187 3.8734375,15.0210937 3.5859375,14.0625 C3.5859375,14.0625 3.5859375,14.0625 3.5859375,14.0625 C3.77734375,14.1101562 4.06484375,14.1585937 4.4,14.1585937 C4.4,14.1585937 4.4,14.1585937 4.4,14.1585937 C4.83125,14.1585937 5.26171875,14.1109375 5.6453125,14.0148437 C5.6453125,14.0148437 5.6453125,14.0148437 5.6453125,14.0148437 C4.54375,13.7757812 3.68203125,13.2484375 2.96328125,12.3867187 C2.96328125,12.3867187 2.96328125,12.3867187 2.96328125,12.3867187 C2.29296875,11.525 1.9578125,10.5671875 1.9578125,9.465625 C1.9578125,9.465625 1.9578125,9.465625 1.9578125,9.465625 C1.9578125,9.465625 1.9578125,9.41796875 1.9578125,9.41796875 C2.628125,9.753125 3.2984375,9.94453125 4.0171875,9.99296875 C4.0171875,9.99296875 4.0171875,9.99296875 4.0171875,9.99296875 C2.628125,9.03515625 1.9578125,7.7421875 1.9578125,6.11328125 C1.9578125,6.11328125 1.9578125,6.11328125 1.9578125,6.11328125 C1.9578125,5.29921875 2.14921875,4.5328125 2.58046875,3.8140625 C2.58046875,3.8140625 2.58046875,3.8140625 2.58046875,3.8140625 C5.11875,6.92734375 8.32734375,8.5078125 12.159375,8.603125 C12.159375,8.603125 12.159375,8.603125 12.159375,8.603125 C12.0632812,8.315625 12.015625,7.98046875 12.015625,7.59765625 C12.015625,7.59765625 12.015625,7.59765625 12.015625,7.59765625 C12.015625,6.3046875 12.446875,5.203125 13.35625,4.340625 C13.35625,4.340625 13.35625,4.340625 13.35625,4.340625 C14.2664062,3.43046875 15.3679687,3 16.6609375,3 C16.6609375,3 16.6609375,3 16.6609375,3 C18.0015625,3 19.103125,3.47890625 20.0132812,4.3890625 C20.0132812,4.3890625 20.0132812,4.3890625 20.0132812,4.3890625 C21.0671875,4.15 22.025,3.8140625 22.934375,3.33515625 C22.934375,3.33515625 22.934375,3.33515625 22.934375,3.33515625 C22.5992188,4.43671875 21.9289063,5.25078125 20.9226562,5.8734375 C20.9226562,5.8734375 20.9226562,5.8734375 20.9226562,5.8734375 C21.8328125,5.7296875 22.7421875,5.490625 23.6046875,5.1546875 C23.6046875,5.1546875 23.6046875,5.1546875 23.6046875,5.1546875 L23.6054688,5.1546875 Z"/>
  <title>Twitter</title>
</svg>