<svg xmlns="http://www.w3.org/2000/svg" viewBox="0 0 25 25" id="umbrella">
  <path d="M20.3492188,4.06484375 C18.1460938,2.00546875 15.4640625,1 12.303125,1 C9.1421875,1 6.46015625,2.00546875 4.3046875,4.06484375 C2.1015625,6.12421875 1,8.71015625 1,11.7757812 C1,11.7757812 1,11.7757812 1,11.7757812 C1,11.7757812 11.8234375,11.7757812 11.8234375,11.7757812 C11.8234375,11.7757812 11.8234375,21.59375 11.8234375,21.59375 C11.8234375,22.1203125 11.6320313,22.5992187 11.2484375,22.9828125 C10.8648438,23.3664062 10.3867188,23.5578125 9.859375,23.5578125 C9.3328125,23.5578125 8.85390625,23.3664062 8.4703125,22.9828125 C8.08671875,22.5992187 7.8953125,22.1210937 7.8953125,21.59375 C7.8953125,21.59375 7.8953125,21.59375 7.8953125,21.59375 C7.8953125,21.59375 6.88984375,21.59375 6.88984375,21.59375 C6.88984375,22.4078125 7.17734375,23.1265625 7.8,23.7007812 C8.375,24.2757813 9.0453125,24.5625 9.859375,24.5625 C10.6734375,24.5625 11.34375,24.275 11.91875,23.7007812 C12.49375,23.1257812 12.7804687,22.4078125 12.7804687,21.59375 C12.7804687,21.59375 12.7804687,21.59375 12.7804687,21.59375 C12.7804687,21.59375 12.7804687,11.7757812 12.7804687,11.7757812 C12.7804687,11.7757812 23.6039063,11.7757812 23.6039063,11.7757812 C23.6039063,8.7109375 22.5023438,6.12421875 20.346875,4.06484375 L20.3492188,4.06484375 Z M22.5523438,10.8171875 C22.5523438,10.8171875 2.05390625,10.8171875 2.05390625,10.8171875 C2.29296875,8.27890625 3.39453125,6.1234375 5.3109375,4.44765625 C7.22734375,2.771875 9.5734375,1.95703125 12.303125,1.95703125 C15.0328125,1.95703125 17.3796875,2.77109375 19.34375,4.44765625 C21.259375,6.12421875 22.3132813,8.27890625 22.5523438,10.8171875 C22.5523438,10.8171875 22.5523438,10.8171875 22.5523438,10.8171875 Z"/>
  <title>Umbrella</title>
</svg>