<svg xmlns="http://www.w3.org/2000/svg" viewBox="0 0 25 25" id="undo">
  <path d="M20.2945312,4.29921875 C21.8273438,5.83203125 22.59375,7.69921875 22.59375,9.8546875 C22.59375,12.0101562 21.8273438,13.8773437 20.2945312,15.3625 C18.7617188,16.8953125 16.8945312,17.6617187 14.7390625,17.709375 C14.7390625,17.709375 14.7390625,17.709375 14.7390625,17.709375 C14.7390625,17.709375 3.67578125,17.709375 3.67578125,17.709375 C3.67578125,17.709375 7.746875,21.7804687 7.746875,21.7804687 C7.84296875,21.828125 7.890625,21.9242188 7.890625,22.115625 C7.890625,22.115625 7.890625,22.115625 7.890625,22.115625 C7.890625,22.4507812 7.746875,22.5945312 7.41171875,22.5945312 C7.41171875,22.5945312 7.41171875,22.5945312 7.41171875,22.5945312 C7.26796875,22.5945312 7.12421875,22.546875 7.02890625,22.4507812 C7.02890625,22.4507812 7.02890625,22.4507812 7.02890625,22.4507812 C7.02890625,22.4507812 2.14375,17.565625 2.14375,17.565625 C2.04765625,17.4695312 2,17.3265625 2,17.1828125 C2,17.1828125 2,17.1828125 2,17.1828125 C2,17.0390625 2.04765625,16.94375 2.14375,16.8476562 C2.14375,16.8476562 2.14375,16.8476562 2.14375,16.8476562 C2.14375,16.8476562 7.02890625,11.9625 7.02890625,11.9625 C7.125,11.8664062 7.2203125,11.81875 7.3640625,11.81875 C7.3640625,11.81875 7.3640625,11.81875 7.3640625,11.81875 C7.69921875,11.81875 7.890625,11.9625 7.890625,12.2976562 C7.890625,12.2976562 7.890625,12.2976562 7.890625,12.2976562 C7.890625,12.4414063 7.84296875,12.5367188 7.746875,12.6328125 C7.746875,12.6328125 7.746875,12.6328125 7.746875,12.6328125 C7.746875,12.6328125 3.67578125,16.7039063 3.67578125,16.7039063 C3.67578125,16.7039063 14.7390625,16.7039063 14.7390625,16.7039063 C16.6070312,16.7039063 18.2351562,16.0335938 19.6242188,14.6921875 C20.9648438,13.3515625 21.6359375,11.7226563 21.6359375,9.8546875 C21.6359375,7.98671875 20.965625,6.35859375 19.6242188,4.96953125 C18.2351562,3.62890625 16.6070312,2.9578125 14.7390625,2.9578125 C14.7390625,2.9578125 14.7390625,2.9578125 14.7390625,2.9578125 C14.7390625,2.9578125 7.41171875,2.9578125 7.41171875,2.9578125 C7.0765625,2.9578125 6.88515625,2.8140625 6.88515625,2.47890625 C6.88515625,2.14375 7.0765625,2 7.41171875,2 C7.41171875,2 7.41171875,2 7.41171875,2 C7.41171875,2 14.7390625,2 14.7390625,2 C16.8945312,2 18.7617188,2.76640625 20.2945312,4.29921875 Z"/>
  <title>Undo</title>
</svg>