<svg xmlns="http://www.w3.org/2000/svg" viewBox="0 0 25 25" id="unindent">
  <path d="M1,2.5265625 C1,2.5265625 1,2.5265625 1,2.5265625 C1,2.19140625 1.19140625,2 1.5265625,2 C1.5265625,2 1.5265625,2 1.5265625,2 C1.5265625,2 24.084375,2 24.084375,2 C24.4195313,2 24.5632812,2.19140625 24.5632812,2.5265625 C24.5632812,2.5265625 24.5632812,2.5265625 24.5632812,2.5265625 C24.5632812,2.86171875 24.4195313,3.00546875 24.084375,3.00546875 C24.084375,3.00546875 24.084375,3.00546875 24.084375,3.00546875 C24.084375,3.00546875 1.5265625,3.00546875 1.5265625,3.00546875 C1.19140625,3.00546875 1,2.86171875 1,2.5265625 Z M24.084375,6.9328125 C24.084375,6.9328125 24.084375,6.9328125 24.084375,6.9328125 C24.084375,6.9328125 13.2609375,6.9328125 13.2609375,6.9328125 C12.9257812,6.9328125 12.7820312,7.0765625 12.7820312,7.41171875 C12.7820312,7.746875 12.9257812,7.890625 13.2609375,7.890625 C13.2609375,7.890625 13.2609375,7.890625 13.2609375,7.890625 C13.2609375,7.890625 24.084375,7.890625 24.084375,7.890625 C24.4195312,7.890625 24.5632812,7.746875 24.5632812,7.41171875 C24.5632812,7.0765625 24.4195312,6.9328125 24.084375,6.9328125 Z M24.084375,11.8179688 C24.084375,11.8179688 24.084375,11.8179688 24.084375,11.8179688 C24.084375,11.8179688 13.2609375,11.8179688 13.2609375,11.8179688 C12.9257812,11.8179688 12.7820312,11.9617187 12.7820312,12.296875 C12.7820312,12.296875 12.7820312,12.296875 12.7820312,12.296875 C12.7820312,12.6320313 12.9257812,12.8234375 13.2609375,12.8234375 C13.2609375,12.8234375 13.2609375,12.8234375 13.2609375,12.8234375 C13.2609375,12.8234375 24.084375,12.8234375 24.084375,12.8234375 C24.4195312,12.8234375 24.5632812,12.6320313 24.5632812,12.296875 C24.5632812,12.296875 24.5632812,12.296875 24.5632812,12.296875 C24.5632812,11.9617187 24.4195312,11.8179688 24.084375,11.8179688 Z M24.084375,16.7507812 C24.084375,16.7507812 24.084375,16.7507812 24.084375,16.7507812 C24.084375,16.7507812 13.2609375,16.7507812 13.2609375,16.7507812 C12.9257812,16.7507812 12.7820312,16.8945312 12.7820312,17.2296875 C12.7820312,17.5648437 12.9257812,17.7085937 13.2609375,17.7085937 C13.2609375,17.7085937 13.2609375,17.7085937 13.2609375,17.7085937 C13.2609375,17.7085937 24.084375,17.7085937 24.084375,17.7085937 C24.4195312,17.7085937 24.5632812,17.5648437 24.5632812,17.2296875 C24.5632812,16.8945312 24.4195312,16.7507812 24.084375,16.7507812 Z M24.084375,21.6359375 C24.084375,21.6359375 24.084375,21.6359375 24.084375,21.6359375 C24.084375,21.6359375 1.5265625,21.6359375 1.5265625,21.6359375 C1.19140625,21.6359375 1,21.7796875 1,22.1148437 C1,22.1148437 1,22.1148437 1,22.1148437 C1,22.45 1.19140625,22.6414062 1.5265625,22.6414062 C1.5265625,22.6414062 1.5265625,22.6414062 1.5265625,22.6414062 C1.5265625,22.6414062 24.084375,22.6414062 24.084375,22.6414062 C24.4195313,22.6414062 24.5632813,22.45 24.5632813,22.1148437 C24.5632813,22.1148437 24.5632813,22.1148437 24.5632813,22.1148437 C24.5632813,21.7796875 24.4195313,21.6359375 24.084375,21.6359375 Z M1.14375,12.6804687 C1.14375,12.6804687 4.11328125,15.6015625 4.11328125,15.6015625 C4.209375,15.6976563 4.3046875,15.7453125 4.4484375,15.7453125 C4.4484375,15.7453125 4.4484375,15.7453125 4.4484375,15.7453125 C4.78359375,15.7453125 4.975,15.6015625 4.975,15.2664063 C4.975,15.2664063 4.975,15.2664063 4.975,15.2664063 C4.975,15.1703125 4.92734375,15.075 4.78359375,14.93125 C4.78359375,14.93125 4.78359375,14.93125 4.78359375,14.93125 C4.78359375,14.93125 2.6765625,12.8242188 2.6765625,12.8242188 C2.6765625,12.8242188 9.86015625,12.8242188 9.86015625,12.8242188 C10.1953125,12.8242188 10.3390625,12.6328125 10.3390625,12.2976563 C10.3390625,12.2976563 10.3390625,12.2976563 10.3390625,12.2976563 C10.3390625,11.9625 10.1953125,11.81875 9.86015625,11.81875 C9.86015625,11.81875 9.86015625,11.81875 9.86015625,11.81875 C9.86015625,11.81875 2.6765625,11.81875 2.6765625,11.81875 C2.6765625,11.81875 4.78359375,9.71171875 4.78359375,9.71171875 C4.8796875,9.615625 4.92734375,9.5203125 4.92734375,9.3765625 C4.92734375,9.3765625 4.92734375,9.3765625 4.92734375,9.3765625 C4.92734375,9.04140625 4.78359375,8.89765625 4.4484375,8.89765625 C4.4484375,8.89765625 4.4484375,8.89765625 4.4484375,8.89765625 C4.3046875,8.89765625 4.209375,8.9453125 4.11328125,9.04140625 C4.11328125,9.04140625 4.11328125,9.04140625 4.11328125,9.04140625 C4.11328125,9.04140625 1.14375,11.9625 1.14375,11.9625 C1.04765625,12.1539063 1,12.25 1,12.2976563 C1,12.2976563 1,12.2976563 1,12.2976563 C1,12.3453125 1.04765625,12.4890625 1.14375,12.6804688 C1.14375,12.6804688 1.14375,12.6804688 1.14375,12.6804688 L1.14375,12.6804687 Z"/>
  <title>Unindent</title>
</svg>