<svg xmlns="http://www.w3.org/2000/svg" viewBox="0 0 25 25" id="upload">
  <path d="M2.04765625,20.8609375 C2.04765625,20.8609375 22.5460938,20.8609375 22.5460938,20.8609375 C22.5726562,20.8609375 22.59375,20.8820313 22.59375,20.9085937 C22.59375,20.9085937 22.59375,22.728125 22.59375,22.728125 C22.59375,22.7546875 22.5726562,22.7757812 22.5460938,22.7757812 C22.5460938,22.7757812 2.04765625,22.7757812 2.04765625,22.7757812 C2.02109375,22.7757812 2,22.7546875 2,22.728125 C2,22.728125 2,20.9085937 2,20.9085937 C2,20.8820313 2.02109375,20.8609375 2.04765625,20.8609375 Z M16.4625,8.4984375 C16.4625,8.4984375 13.2820312,5.34296875 13.2820312,5.34296875 C13.2820312,5.34296875 13.2820312,17.6992188 13.2820312,17.6992188 C13.2820312,18.2882813 12.9023437,18.6671875 12.3109375,18.6671875 C11.6976562,18.6671875 11.2921875,18.2992188 11.2921875,17.6992188 C11.2921875,17.6992188 11.2921875,5.34453125 11.2921875,5.34453125 C11.2921875,5.34453125 8.1109375,8.51328125 8.1109375,8.51328125 C7.9671875,8.7625 7.69453125,8.86015625 7.36796875,8.86015625 C6.7765625,8.86015625 6.396875,8.48203125 6.396875,7.8921875 C6.396875,7.6328125 6.4984375,7.39765625 6.684375,7.21171875 C6.684375,7.21171875 11.5789062,2.28828125 11.5789062,2.28828125 C11.5789062,2.28828125 11.7078125,2.1953125 11.7078125,2.1953125 C11.9710937,2.0640625 12.1421875,2 12.3109375,2 C12.4609375,2 12.5585937,2.04140625 12.8664062,2.1953125 C12.8664062,2.1953125 12.9953125,2.28828125 12.9953125,2.28828125 C12.9953125,2.28828125 17.8914062,7.21328125 17.8914062,7.21328125 C18.0765625,7.39765625 18.178125,7.63359375 18.178125,7.89296875 C18.178125,8.48203125 17.7984375,8.8609375 17.2070312,8.8609375 C16.8960937,8.8609375 16.6273437,8.746875 16.4625,8.49921875 L16.4625,8.4984375 Z"/>
  <title>Upload</title>
</svg>