<svg xmlns="http://www.w3.org/2000/svg" viewBox="0 0 25 25" id="users">
  <path d="M16.2304688,6.88515625 C16.2304688,6.88515625 16.2304688,6.88515625 16.2304688,6.88515625 C16.2304688,7.41171875 16.421875,7.890625 16.8054688,8.27421875 C17.1890625,8.6578125 17.6671875,8.84921875 18.1945313,8.84921875 C18.7210938,8.84921875 19.2,8.6578125 19.5835938,8.27421875 C19.9671875,7.890625 20.1585938,7.4125 20.1585938,6.88515625 C20.1585938,6.88515625 20.1585938,6.88515625 20.1585938,6.88515625 C20.1585938,6.40625 19.9671875,5.92734375 19.5835938,5.49609375 C19.5835938,5.49609375 19.5835938,5.49609375 19.5835938,5.49609375 C19.2007812,5.11328125 18.721875,4.92109375 18.1945313,4.92109375 C17.6671875,4.92109375 17.1890625,5.1125 16.8054688,5.49609375 C16.8054688,5.49609375 16.8054688,5.49609375 16.8054688,5.49609375 C16.4226563,5.92734375 16.2304688,6.40625 16.2304688,6.88515625 Z M15.225,6.88515625 C15.225,6.88515625 15.225,6.88515625 15.225,6.88515625 C15.225,6.07109375 15.5125,5.40078125 16.0867188,4.82578125 C16.6609375,4.25078125 17.3796875,3.9640625 18.19375,3.9640625 C18.19375,3.9640625 18.19375,3.9640625 18.19375,3.9640625 C19.0078125,3.9640625 19.678125,4.2515625 20.253125,4.82578125 C20.828125,5.4 21.1148438,6.07109375 21.1148438,6.88515625 C21.1148438,6.88515625 21.1148438,6.88515625 21.1148438,6.88515625 C21.1148438,7.69921875 20.8273438,8.41796875 20.253125,8.9921875 C19.6789062,9.56640625 19.0078125,9.85390625 18.19375,9.85390625 C18.19375,9.85390625 18.19375,9.85390625 18.19375,9.85390625 C17.3796875,9.85390625 16.6609375,9.56640625 16.0867188,8.9921875 C15.5125,8.41796875 15.225,7.69921875 15.225,6.88515625 Z M13.7882812,13.4460937 C13.7882812,13.4460937 13.7882812,13.4460937 13.7882812,13.4460937 C13.9320312,13.1585938 14.2195312,12.7757812 14.6984375,12.296875 C14.6984375,12.296875 14.6984375,12.296875 14.6984375,12.296875 C15.65625,11.2914063 16.8054687,10.8125 18.1945312,10.8125 C18.1945312,10.8125 18.1945312,10.8125 18.1945312,10.8125 C19.5351562,10.8125 20.6851562,11.2914062 21.6429688,12.2492188 C22.6007812,13.2070313 23.0796875,14.35625 23.0796875,15.7453125 C23.0796875,15.7453125 23.0796875,15.7453125 23.0796875,15.7453125 C23.0796875,15.7453125 23.0796875,16.0328125 23.0796875,16.0328125 C23.0796875,16.0328125 23.0796875,16.3203125 23.0796875,16.3203125 C23.0796875,16.3203125 22.121875,16.3203125 22.121875,16.3203125 C22.121875,16.3203125 22.121875,15.7453125 22.121875,15.7453125 C22.121875,14.64375 21.7390625,13.7335937 20.9726562,12.9671875 C20.20625,12.2007812 19.2960937,11.8179687 18.1945312,11.8179687 C17.0929687,11.8179687 16.1828125,12.2007812 15.4164062,12.9671875 C15.4164062,12.9671875 15.4164062,12.9671875 15.4164062,12.9671875 C14.9375,13.4460937 14.65,13.8289062 14.5546875,14.06875 C14.5546875,14.06875 14.5546875,14.06875 14.5546875,14.06875 C14.2195312,13.7335937 13.9796875,13.5421875 13.7882812,13.4460937 L13.7882812,13.4460937 Z M4.928125,6.88515625 C4.928125,6.88515625 4.928125,6.88515625 4.928125,6.88515625 C4.928125,7.98671875 5.3109375,8.896875 6.07734375,9.66328125 C6.07734375,9.66328125 6.07734375,9.66328125 6.07734375,9.66328125 C6.89140625,10.4296875 7.8015625,10.8125 8.85546875,10.8125 C8.85546875,10.8125 8.85546875,10.8125 8.85546875,10.8125 C9.95703125,10.8125 10.8671875,10.4296875 11.6335937,9.66328125 C12.4,8.896875 12.7828125,7.98671875 12.7828125,6.88515625 C12.7828125,6.88515625 12.7828125,6.88515625 12.7828125,6.88515625 C12.7828125,5.83125 12.4,4.921875 11.6335937,4.10703125 C11.6335937,4.10703125 11.6335937,4.10703125 11.6335937,4.10703125 C10.8671875,3.340625 9.95703125,2.9578125 8.85546875,2.9578125 C8.85546875,2.9578125 8.85546875,2.9578125 8.85546875,2.9578125 C7.8015625,2.9578125 6.8921875,3.340625 6.07734375,4.10703125 C6.07734375,4.10703125 6.07734375,4.10703125 6.07734375,4.10703125 C5.3109375,4.92109375 4.928125,5.83125 4.928125,6.88515625 Z M3.9703125,6.88515625 C3.9703125,6.88515625 3.9703125,6.88515625 3.9703125,6.88515625 C3.9703125,5.54453125 4.44921875,4.39453125 5.40703125,3.43671875 C6.36484375,2.47890625 7.5140625,2 8.85546875,2 C8.85546875,2 8.85546875,2 8.85546875,2 C10.2445312,2 11.39375,2.47890625 12.3515625,3.43671875 C13.309375,4.39453125 13.7882812,5.54375 13.7882812,6.88515625 C13.7882812,6.88515625 13.7882812,6.88515625 13.7882812,6.88515625 C13.7882812,8.27421875 13.309375,9.4234375 12.3515625,10.38125 C11.39375,11.3390625 10.2445312,11.8179688 8.85546875,11.8179688 C8.85546875,11.8179688 8.85546875,11.8179688 8.85546875,11.8179688 C7.51484375,11.8179688 6.36484375,11.3390625 5.40703125,10.38125 C4.44921875,9.4234375 3.9703125,8.27421875 3.9703125,6.88515625 Z M16.709375,21.6359375 C16.709375,21.6359375 15.7515625,21.6359375 15.7515625,21.6359375 C15.7515625,21.6359375 15.7515625,20.6304688 15.7515625,20.6304688 C15.7515625,18.7625 15.08125,17.134375 13.7398437,15.7453125 C13.7398437,15.7453125 13.7398437,15.7453125 13.7398437,15.7453125 C12.446875,14.4523438 10.81875,13.7820313 8.8546875,13.7820313 C8.8546875,13.7820313 8.8546875,13.7820313 8.8546875,13.7820313 C6.98671875,13.7820313 5.35859375,14.4523438 4.0171875,15.79375 C2.67578125,17.1351563 2.00546875,18.7632812 2.00546875,20.63125 C2.00546875,20.63125 2.00546875,20.63125 2.00546875,20.63125 C2.00546875,20.63125 2.00546875,21.6367188 2.00546875,21.6367188 C2.00546875,21.6367188 1,21.6367188 1,21.6367188 C1,21.6367188 1,20.63125 1,20.63125 C1,18.4757813 1.76640625,16.65625 3.29921875,15.1234375 C3.29921875,15.1234375 3.29921875,15.1234375 3.29921875,15.1234375 C4.83203125,13.5429688 6.7,12.7765625 8.8546875,12.7765625 C11.009375,12.7765625 12.8773437,13.5429688 14.4101562,15.0757813 C15.9429687,16.6085938 16.709375,18.4757813 16.709375,20.63125 C16.709375,20.63125 16.709375,20.63125 16.709375,20.63125 C16.709375,20.63125 16.709375,21.1101563 16.709375,21.1101563 C16.709375,21.1101563 16.709375,21.6367188 16.709375,21.6367188 L16.709375,21.6359375 Z"/>
  <title>Users</title>
</svg>