<svg xmlns="http://www.w3.org/2000/svg" viewBox="0 0 25 25" id="user-list">
  <path d="M4.928125,6.88515625 C4.928125,6.88515625 4.928125,6.88515625 4.928125,6.88515625 C4.928125,7.98671875 5.3109375,8.896875 6.07734375,9.66328125 C6.07734375,9.66328125 6.07734375,9.66328125 6.07734375,9.66328125 C6.89140625,10.4296875 7.8015625,10.8125 8.85546875,10.8125 C8.85546875,10.8125 8.85546875,10.8125 8.85546875,10.8125 C9.95703125,10.8125 10.8671875,10.4296875 11.6335937,9.66328125 C12.4,8.896875 12.7828125,7.98671875 12.7828125,6.88515625 C12.7828125,6.88515625 12.7828125,6.88515625 12.7828125,6.88515625 C12.7828125,5.83125 12.4,4.921875 11.6335937,4.10703125 C11.6335937,4.10703125 11.6335937,4.10703125 11.6335937,4.10703125 C10.8671875,3.340625 9.95703125,2.9578125 8.85546875,2.9578125 C8.85546875,2.9578125 8.85546875,2.9578125 8.85546875,2.9578125 C7.8015625,2.9578125 6.8921875,3.340625 6.07734375,4.10703125 C6.07734375,4.10703125 6.07734375,4.10703125 6.07734375,4.10703125 C5.3109375,4.92109375 4.928125,5.83125 4.928125,6.88515625 Z M3.9703125,6.88515625 C3.9703125,6.88515625 3.9703125,6.88515625 3.9703125,6.88515625 C3.9703125,5.54453125 4.44921875,4.39453125 5.40703125,3.43671875 C6.36484375,2.47890625 7.5140625,2 8.85546875,2 C8.85546875,2 8.85546875,2 8.85546875,2 C10.2445312,2 11.39375,2.47890625 12.3515625,3.43671875 C13.309375,4.39453125 13.7882812,5.54375 13.7882812,6.88515625 C13.7882812,6.88515625 13.7882812,6.88515625 13.7882812,6.88515625 C13.7882812,8.27421875 13.309375,9.4234375 12.3515625,10.38125 C11.39375,11.3390625 10.2445312,11.8179688 8.85546875,11.8179688 C8.85546875,11.8179688 8.85546875,11.8179688 8.85546875,11.8179688 C7.51484375,11.8179688 6.36484375,11.3390625 5.40703125,10.38125 C4.44921875,9.4234375 3.9703125,8.27421875 3.9703125,6.88515625 Z M16.709375,21.6359375 C16.709375,21.6359375 15.7515625,21.6359375 15.7515625,21.6359375 C15.7515625,21.6359375 15.7515625,20.6304688 15.7515625,20.6304688 C15.7515625,18.7625 15.08125,17.134375 13.7398437,15.7453125 C13.7398437,15.7453125 13.7398437,15.7453125 13.7398437,15.7453125 C12.446875,14.4523438 10.81875,13.7820313 8.8546875,13.7820313 C8.8546875,13.7820313 8.8546875,13.7820313 8.8546875,13.7820313 C6.98671875,13.7820313 5.35859375,14.4523438 4.0171875,15.79375 C2.67578125,17.1351563 2.00546875,18.7632812 2.00546875,20.63125 C2.00546875,20.63125 2.00546875,20.63125 2.00546875,20.63125 C2.00546875,20.63125 2.00546875,21.6367188 2.00546875,21.6367188 C2.00546875,21.6367188 1,21.6367188 1,21.6367188 C1,21.6367188 1,20.63125 1,20.63125 C1,18.4757813 1.76640625,16.65625 3.29921875,15.1234375 C3.29921875,15.1234375 3.29921875,15.1234375 3.29921875,15.1234375 C4.83203125,13.5429688 6.7,12.7765625 8.8546875,12.7765625 C11.009375,12.7765625 12.8773437,13.5429688 14.4101562,15.0757813 C15.9429687,16.6085938 16.709375,18.4757813 16.709375,20.63125 C16.709375,20.63125 16.709375,20.63125 16.709375,20.63125 C16.709375,20.63125 16.709375,21.1101563 16.709375,21.1101563 C16.709375,21.1101563 16.709375,21.6367188 16.709375,21.6367188 L16.709375,21.6359375 Z M23.1273438,4.4421875 C23.1273438,4.4421875 15.225,4.4421875 15.225,4.4421875 C14.8898437,4.4421875 14.7460938,4.2984375 14.7460938,3.96328125 C14.7460938,3.628125 14.8898437,3.484375 15.225,3.484375 C15.225,3.484375 15.225,3.484375 15.225,3.484375 C15.225,3.484375 23.1273438,3.484375 23.1273438,3.484375 C23.4625,3.484375 23.60625,3.628125 23.60625,3.96328125 C23.60625,4.2984375 23.4625,4.4421875 23.1273438,4.4421875 C23.1273438,4.4421875 23.1273438,4.4421875 23.1273438,4.4421875 L23.1273438,4.4421875 Z M16.2304688,7.41171875 C16.2304688,7.41171875 23.1273437,7.41171875 23.1273437,7.41171875 C23.4625,7.41171875 23.60625,7.55546875 23.60625,7.890625 C23.60625,8.22578125 23.4625,8.36953125 23.1273437,8.36953125 C23.1273437,8.36953125 23.1273437,8.36953125 23.1273437,8.36953125 C23.1273437,8.36953125 16.2304688,8.36953125 16.2304688,8.36953125 C15.8953125,8.36953125 15.7515625,8.22578125 15.7515625,7.890625 C15.7515625,7.55546875 15.8953125,7.41171875 16.2304688,7.41171875 C16.2304688,7.41171875 16.2304688,7.41171875 16.2304688,7.41171875 Z M15.225,11.3390625 C15.225,11.3390625 23.1273438,11.3390625 23.1273438,11.3390625 C23.4625,11.3390625 23.60625,11.4828125 23.60625,11.7703125 C23.60625,11.7703125 23.60625,11.7703125 23.60625,11.7703125 C23.60625,12.1054688 23.4625,12.296875 23.1273438,12.296875 C23.1273438,12.296875 23.1273438,12.296875 23.1273438,12.296875 C23.1273438,12.296875 15.225,12.296875 15.225,12.296875 C14.8898437,12.296875 14.7460938,12.1054688 14.7460938,11.7703125 C14.7460938,11.7703125 14.7460938,11.7703125 14.7460938,11.7703125 C14.7460938,11.4828125 14.8898437,11.3390625 15.225,11.3390625 C15.225,11.3390625 15.225,11.3390625 15.225,11.3390625 Z"/>
  <title>User List</title>
</svg>