<svg xmlns="http://www.w3.org/2000/svg" viewBox="0 0 25 25" id="user-search-solid">
  <path d="M23.5570313,5.87890625 C23.5570313,5.87890625 23.5570313,5.9265625 23.5570313,5.9265625 C23.5570313,6.83671875 23.221875,7.65078125 22.5515625,8.32109375 C21.88125,8.99140625 21.0671875,9.3265625 20.1570313,9.3265625 C20.1570313,9.3265625 20.1570313,9.3265625 20.1570313,9.3265625 C19.3429688,9.3265625 18.6242188,9.0875 18.05,8.65625 C18.05,8.65625 18.05,8.65625 18.05,8.65625 C18.05,8.65625 15.415625,11.290625 15.415625,11.290625 C15.415625,11.290625 14.7453125,10.6203125 14.7453125,10.6203125 C14.7453125,10.6203125 17.3796875,7.93828125 17.3796875,7.93828125 C16.9484375,7.41171875 16.709375,6.69296875 16.709375,5.87890625 C16.709375,5.87890625 16.709375,5.87890625 16.709375,5.87890625 C16.709375,4.96875 17.0445313,4.1546875 17.7148438,3.484375 C18.3851563,2.8140625 19.1992188,2.47890625 20.109375,2.47890625 C20.109375,2.47890625 20.109375,2.47890625 20.109375,2.47890625 C21.0671875,2.47890625 21.88125,2.8140625 22.5515625,3.484375 C23.221875,4.1546875 23.5570313,4.96875 23.5570313,5.87890625 C23.5570313,5.87890625 23.5570313,5.87890625 23.5570313,5.87890625 Z M22.5992187,5.92734375 C22.5992187,5.92734375 22.5992187,5.92734375 22.5992187,5.92734375 C22.5992187,5.20859375 22.3601562,4.634375 21.8804687,4.15546875 C21.4007812,3.6765625 20.8265625,3.43671875 20.1085937,3.43671875 C20.1085937,3.43671875 20.1085937,3.43671875 20.1085937,3.43671875 C19.4382812,3.43671875 18.8632812,3.67578125 18.384375,4.15546875 C17.9054687,4.63515625 17.665625,5.209375 17.665625,5.92734375 C17.665625,5.92734375 17.665625,5.92734375 17.665625,5.92734375 C17.665625,6.59765625 17.9046875,7.17265625 18.384375,7.6515625 C18.8640625,8.13046875 19.4382812,8.3703125 20.1085937,8.3703125 C20.1085937,8.3703125 20.1085937,8.3703125 20.1085937,8.3703125 C20.8273437,8.3703125 21.4015625,8.13125 21.8804687,7.6515625 C21.8804687,7.6515625 21.8804687,7.6515625 21.8804687,7.6515625 C22.359375,7.125 22.5992187,6.55 22.5992187,5.92734375 Z M3.96875,6.88515625 C3.96875,6.88515625 3.96875,6.88515625 3.96875,6.88515625 C3.96875,5.54453125 4.44765625,4.39453125 5.40546875,3.43671875 C6.36328125,2.47890625 7.5125,2 8.85390625,2 C8.85390625,2 8.85390625,2 8.85390625,2 C10.2429687,2 11.3921875,2.47890625 12.35,3.43671875 C13.3078125,4.39453125 13.7867187,5.54375 13.7867187,6.88515625 C13.7867187,6.88515625 13.7867187,6.88515625 13.7867187,6.88515625 C13.7867187,8.27421875 13.3078125,9.4234375 12.35,10.38125 C11.3921875,11.3390625 10.2429688,11.8179688 8.85390625,11.8179688 C8.85390625,11.8179688 8.85390625,11.8179688 8.85390625,11.8179688 C7.51328125,11.8179688 6.36328125,11.3390625 5.40546875,10.38125 C4.44765625,9.4234375 3.96875,8.27421875 3.96875,6.88515625 Z M8.85390625,12.7757812 C11.009375,12.7757812 12.8765625,13.5421875 14.409375,15.075 C15.9421875,16.6078125 16.7085937,18.475 16.7085937,20.6304687 C16.7085937,20.6304687 16.7085937,20.6304687 16.7085937,20.6304687 C16.7085937,20.6304687 16.7085937,21.109375 16.7085937,21.109375 C16.7085937,21.4445312 16.5648438,21.6359375 16.2296875,21.6359375 C16.2296875,21.6359375 16.2296875,21.6359375 16.2296875,21.6359375 C16.2296875,21.6359375 1.5265625,21.6359375 1.5265625,21.6359375 C1.19140625,21.6359375 1,21.4445312 1,21.109375 C1,21.109375 1,21.109375 1,21.109375 C1,21.109375 1,20.6304687 1,20.6304687 C1,18.475 1.76640625,16.6554687 3.29921875,15.1226562 C3.29921875,15.1226562 3.29921875,15.1226562 3.29921875,15.1226562 C4.8796875,13.5421875 6.69921875,12.7757812 8.8546875,12.7757812 C8.8546875,12.7757812 8.8546875,12.7757812 8.8546875,12.7757812 L8.85390625,12.7757812 Z"/>
  <title>User Search Solid</title>
</svg>