<svg xmlns="http://www.w3.org/2000/svg" viewBox="0 0 25 25" id="user-female-solid">
  <path d="M5.09609375,17.4695312 C5.09609375,17.4695312 5.09609375,17.4695312 5.09609375,17.4695312 C5.0484375,17.3257812 5,17.2304687 5,17.1820312 C5,17.1820312 5,17.1820312 5,17.1820312 C5,17.134375 5.04765625,17.0859375 5.09609375,16.9429687 C5.09609375,16.9429687 5.09609375,16.9429687 5.09609375,16.9429687 C5.71875,15.8414062 6.00625,13.1117187 6.00625,8.84921875 C6.00625,8.84921875 6.00625,8.84921875 6.00625,8.84921875 C6.00625,6.98125 6.6765625,5.353125 8.01796875,4.01171875 C9.359375,2.6703125 10.9875,2 12.8554688,2 C14.7234375,2 16.3515625,2.6703125 17.740625,4.01171875 C19.08125,5.35234375 19.7523438,6.98125 19.7523438,8.84921875 C19.7523438,8.84921875 19.7523438,8.84921875 19.7523438,8.84921875 C19.7523438,13.2078125 20.0398437,15.9375 20.6625,16.9429687 C20.6625,16.9429687 20.6625,16.9429687 20.6625,16.9429687 C20.7101563,16.990625 20.7101563,17.0867187 20.7101563,17.1820312 C20.7101563,17.1820312 20.7101563,17.1820312 20.7101563,17.1820312 C20.7101563,17.5171875 20.5664062,17.7085937 20.23125,17.7085937 C20.23125,17.7085937 20.23125,17.7085937 20.23125,17.7085937 C20.23125,17.7085937 18.459375,17.7085937 18.459375,17.7085937 C17.2617188,16.9898437 16.3523438,16.5109375 15.825,16.271875 C15.825,16.271875 15.825,16.271875 15.825,16.271875 C16.9265625,14.9789062 17.596875,13.49375 17.740625,11.8179687 C17.740625,11.8179687 17.740625,11.8179687 17.740625,11.8179687 C17.740625,11.7703125 17.740625,11.7703125 17.7882813,11.7703125 C17.7882813,11.7703125 17.7882813,11.7703125 17.7882813,11.7703125 C18.1234375,11.7703125 18.2671875,11.6265625 18.2671875,11.2914062 C18.2671875,10.95625 18.1234375,10.8125 17.8359375,10.8125 C17.8359375,10.8125 17.8359375,10.8125 17.8359375,10.8125 C16.9257813,10.66875 16.159375,10.3335938 15.4890625,9.80703125 C14.81875,9.28046875 14.3398438,8.56171875 14.1,7.74765625 C14.1,7.74765625 14.1,7.74765625 14.1,7.74765625 C13.95625,7.50859375 13.8125,7.4125 13.6210938,7.4125 C13.6210938,7.4125 13.6210938,7.4125 13.6210938,7.4125 C13.3820313,7.4125 13.1898438,7.50859375 13.1421875,7.74765625 C13.1421875,7.74765625 13.1421875,7.74765625 13.1421875,7.74765625 C12.8546875,8.6578125 12.328125,9.42421875 11.5617188,9.9984375 C10.7476563,10.5734375 9.88515625,10.8601563 8.92734375,10.8601563 C8.92734375,10.8601563 8.92734375,10.8601563 8.92734375,10.8601563 C8.68828125,10.8601563 8.40078125,10.8125 8.0171875,10.7640625 C8.0171875,10.7640625 8.0171875,10.7640625 8.0171875,10.7640625 C8.0171875,10.7640625 7.96953125,10.7640625 7.96953125,10.7640625 C7.634375,10.7640625 7.490625,10.9078125 7.490625,11.2429688 C7.490625,11.2429688 7.490625,11.2429688 7.490625,11.2429688 C7.490625,11.4820313 7.634375,11.6742188 7.8734375,11.721875 C7.8734375,11.721875 7.8734375,11.721875 7.8734375,11.721875 C7.8734375,11.721875 8.0171875,11.721875 8.0171875,11.721875 C8.1609375,13.4460938 8.78359375,14.9304687 9.83671875,16.2234375 C9.83671875,16.2234375 9.83671875,16.2234375 9.83671875,16.2234375 C8.83125,16.7023437 7.92109375,17.2289063 7.0109375,17.75625 C7.0109375,17.75625 7.0109375,17.75625 7.0109375,17.75625 C7.0109375,17.75625 5.5265625,17.7085937 5.5265625,17.7085937 C5.33515625,17.7085937 5.19140625,17.6125 5.0953125,17.4695312 L5.09609375,17.4695312 Z M13.6203125,9.13671875 C13.6203125,9.13671875 13.6203125,9.0890625 13.6203125,9.0890625 C12.6148438,10.9085937 11.0820312,11.81875 9.02265625,11.81875 C9.02265625,11.81875 9.02265625,11.81875 9.02265625,11.81875 C9.16640625,13.159375 9.6453125,14.309375 10.3632812,15.2671875 C11.0820312,16.2726562 11.94375,16.7515625 12.8539062,16.7515625 C12.8539062,16.7515625 12.8539062,16.7515625 12.8539062,16.7515625 C13.8117187,16.7515625 14.6734375,16.225 15.4398437,15.21875 C16.20625,14.2125 16.6375,12.9679687 16.7804688,11.5789062 C16.7804688,11.5789062 16.7804688,11.5789062 16.7804688,11.5789062 C15.4875,11.1476562 14.4335937,10.3335937 13.6195312,9.13671875 C13.6195312,9.13671875 13.6195312,9.13671875 13.6195312,9.13671875 L13.6203125,9.13671875 Z M20.1820312,19.8640625 C20.1820312,19.8640625 20.1820312,19.8640625 20.1820312,19.8640625 C18.7929688,19.0023438 17.5476562,18.2835938 16.4460937,17.7085938 C16.4460937,17.7085938 16.4460937,17.7085938 16.4460937,17.7085938 C16.35,17.6609375 16.2070312,17.5648438 16.0632812,17.4695313 C15.871875,17.3734375 15.728125,17.3257813 15.6804688,17.278125 C15.6804688,17.278125 15.6804688,17.278125 15.6804688,17.278125 C15.6804688,17.278125 15.6328125,17.2304688 15.6328125,17.2304688 C15.6328125,17.2304688 15.4890625,17.134375 15.3453125,17.0867188 C15.2015625,17.0390625 15.10625,17.0390625 15.0578125,16.990625 C15.0578125,16.990625 15.0578125,16.990625 15.0578125,16.990625 C14.3390625,17.4695312 13.6210938,17.709375 12.8546875,17.709375 C12.8546875,17.709375 12.8546875,17.709375 12.8546875,17.709375 C12.040625,17.709375 11.321875,17.4703125 10.6515625,16.9429687 C10.6515625,16.9429687 10.6515625,16.9429687 10.6515625,16.9429687 C10.5078125,16.990625 10.3164063,17.0867188 9.98125,17.2304688 C9.98125,17.2304688 9.98125,17.2304688 9.98125,17.2304688 C9.5984375,17.421875 9.3109375,17.565625 9.11953125,17.709375 C9.11953125,17.709375 9.11953125,17.709375 9.11953125,17.709375 C8.209375,18.1882812 7.0125,18.9070312 5.52734375,19.8164062 C5.52734375,19.8164062 5.52734375,19.8164062 5.52734375,19.8164062 C5.1921875,20.1039062 5.00078125,20.4390625 5.00078125,20.821875 C5.00078125,20.821875 5.00078125,20.821875 5.00078125,20.821875 C5.00078125,21.4445312 5.3359375,21.7796875 5.95859375,21.9234375 C5.95859375,21.9234375 5.95859375,21.9234375 5.95859375,21.9234375 C8.1140625,22.30625 10.3648438,22.5460937 12.8070313,22.59375 C12.8070313,22.59375 12.8070313,22.59375 12.8070313,22.59375 C15.2492188,22.5460937 17.6445312,22.3546875 20.0390625,21.9234375 C20.0390625,21.9234375 20.0390625,21.9234375 20.0390625,21.9234375 C20.4703125,21.7796875 20.709375,21.396875 20.709375,20.821875 C20.709375,20.821875 20.709375,20.821875 20.709375,20.821875 C20.709375,20.390625 20.5179687,20.0554687 20.1828125,19.8640625 L20.1820312,19.8640625 Z"/>
  <title>User Female Solid</title>
</svg>