<svg xmlns="http://www.w3.org/2000/svg" viewBox="0 0 25 25" id="users-solid">
  <path d="M3.96875,6.88515625 C3.96875,6.88515625 3.96875,6.88515625 3.96875,6.88515625 C3.96875,5.54453125 4.44765625,4.39453125 5.40546875,3.43671875 C6.36328125,2.47890625 7.5125,2 8.85390625,2 C8.85390625,2 8.85390625,2 8.85390625,2 C10.2429687,2 11.3921875,2.47890625 12.35,3.43671875 C13.3078125,4.39453125 13.7867187,5.54375 13.7867187,6.88515625 C13.7867187,6.88515625 13.7867187,6.88515625 13.7867187,6.88515625 C13.7867187,8.27421875 13.3078125,9.4234375 12.35,10.38125 C11.3921875,11.3390625 10.2429688,11.8179688 8.85390625,11.8179688 C8.85390625,11.8179688 8.85390625,11.8179688 8.85390625,11.8179688 C7.51328125,11.8179688 6.36328125,11.3390625 5.40546875,10.38125 C4.44765625,9.4234375 3.96875,8.27421875 3.96875,6.88515625 Z M8.85390625,12.7757812 C11.009375,12.7757812 12.8765625,13.5421875 14.409375,15.075 C15.9421875,16.6078125 16.7085937,18.475 16.7085937,20.6304687 C16.7085937,20.6304687 16.7085937,20.6304687 16.7085937,20.6304687 C16.7085937,20.6304687 16.7085937,21.109375 16.7085937,21.109375 C16.7085937,21.4445312 16.5648438,21.6359375 16.2296875,21.6359375 C16.2296875,21.6359375 16.2296875,21.6359375 16.2296875,21.6359375 C16.2296875,21.6359375 1.5265625,21.6359375 1.5265625,21.6359375 C1.19140625,21.6359375 1,21.4445312 1,21.109375 C1,21.109375 1,21.109375 1,21.109375 C1,21.109375 1,20.6304687 1,20.6304687 C1,18.475 1.76640625,16.6554687 3.29921875,15.1226562 C3.29921875,15.1226562 3.29921875,15.1226562 3.29921875,15.1226562 C4.83203125,13.5421875 6.69921875,12.7757812 8.8546875,12.7757812 L8.85390625,12.7757812 Z M22.0242187,11.865625 C22.0242187,11.865625 22.0242187,11.865625 22.0242187,11.865625 C23.078125,12.8710938 23.6046875,14.06875 23.6046875,15.553125 C23.6046875,15.553125 23.6046875,15.553125 23.6046875,15.553125 C23.6046875,15.553125 23.6046875,15.8882812 23.6046875,15.8882812 C23.6046875,16.1273437 23.5085937,16.2234375 23.2695312,16.2234375 C23.2695312,16.2234375 23.2695312,16.2234375 23.2695312,16.2234375 C23.2695312,16.2234375 16.6125,16.2234375 16.6125,16.2234375 C16.18125,15.3617187 15.128125,14.3078125 13.5476562,13.0148438 C13.5476562,13.0148438 13.5476562,13.0148438 13.5476562,13.0148438 C13.6914062,12.6796875 13.9789062,12.2960937 14.3617188,11.865625 C14.3617188,11.865625 14.3617188,11.865625 14.3617188,11.865625 C15.4632813,10.8601563 16.7085938,10.3328125 18.1929688,10.3328125 C19.6773437,10.3328125 20.9226563,10.859375 22.0242188,11.865625 L22.0242187,11.865625 Z M15.2234375,6.40625 C15.2234375,6.40625 15.2234375,6.40625 15.2234375,6.40625 C15.2234375,5.5921875 15.5109375,4.921875 16.0851563,4.346875 C16.659375,3.771875 17.378125,3.48515625 18.1921875,3.48515625 C18.1921875,3.48515625 18.1921875,3.48515625 18.1921875,3.48515625 C19.00625,3.48515625 19.6765625,3.77265625 20.2515625,4.346875 C20.8265625,4.92109375 21.1132812,5.5921875 21.1132812,6.40625 C21.1132812,6.40625 21.1132812,6.40625 21.1132812,6.40625 C21.1132812,7.2203125 20.8257813,7.9390625 20.2515625,8.51328125 C19.6773437,9.0875 19.00625,9.375 18.1921875,9.375 C18.1921875,9.375 18.1921875,9.375 18.1921875,9.375 C17.378125,9.375 16.659375,9.0875 16.0851563,8.51328125 C15.5109375,7.9390625 15.2234375,7.2203125 15.2234375,6.40625 Z"/>
  <title>Users Solid</title>
</svg>