<svg xmlns="http://www.w3.org/2000/svg" viewBox="0 0 25 25" id="user-search">
  <path d="M4.928125,6.88515625 C4.928125,6.88515625 4.928125,6.88515625 4.928125,6.88515625 C4.928125,7.98671875 5.3109375,8.896875 6.07734375,9.66328125 C6.07734375,9.66328125 6.07734375,9.66328125 6.07734375,9.66328125 C6.89140625,10.4296875 7.8015625,10.8125 8.85546875,10.8125 C8.85546875,10.8125 8.85546875,10.8125 8.85546875,10.8125 C9.95703125,10.8125 10.8671875,10.4296875 11.6335937,9.66328125 C12.4,8.896875 12.7828125,7.98671875 12.7828125,6.88515625 C12.7828125,6.88515625 12.7828125,6.88515625 12.7828125,6.88515625 C12.7828125,5.83125 12.4,4.921875 11.6335937,4.10703125 C11.6335937,4.10703125 11.6335937,4.10703125 11.6335937,4.10703125 C10.8671875,3.340625 9.95703125,2.9578125 8.85546875,2.9578125 C8.85546875,2.9578125 8.85546875,2.9578125 8.85546875,2.9578125 C7.8015625,2.9578125 6.8921875,3.340625 6.07734375,4.10703125 C6.07734375,4.10703125 6.07734375,4.10703125 6.07734375,4.10703125 C5.3109375,4.92109375 4.928125,5.83125 4.928125,6.88515625 Z M3.9703125,6.88515625 C3.9703125,6.88515625 3.9703125,6.88515625 3.9703125,6.88515625 C3.9703125,5.54453125 4.44921875,4.39453125 5.40703125,3.43671875 C6.36484375,2.47890625 7.5140625,2 8.85546875,2 C8.85546875,2 8.85546875,2 8.85546875,2 C10.2445312,2 11.39375,2.47890625 12.3515625,3.43671875 C13.309375,4.39453125 13.7882812,5.54375 13.7882812,6.88515625 C13.7882812,6.88515625 13.7882812,6.88515625 13.7882812,6.88515625 C13.7882812,8.27421875 13.309375,9.4234375 12.3515625,10.38125 C11.39375,11.3390625 10.2445312,11.8179688 8.85546875,11.8179688 C8.85546875,11.8179688 8.85546875,11.8179688 8.85546875,11.8179688 C7.51484375,11.8179688 6.36484375,11.3390625 5.40703125,10.38125 C4.44921875,9.4234375 3.9703125,8.27421875 3.9703125,6.88515625 Z M16.709375,21.6359375 C16.709375,21.6359375 15.7515625,21.6359375 15.7515625,21.6359375 C15.7515625,21.6359375 15.7515625,20.6304688 15.7515625,20.6304688 C15.7515625,18.7625 15.08125,17.134375 13.7398437,15.7453125 C13.7398437,15.7453125 13.7398437,15.7453125 13.7398437,15.7453125 C12.446875,14.4523438 10.81875,13.7820313 8.8546875,13.7820313 C8.8546875,13.7820313 8.8546875,13.7820313 8.8546875,13.7820313 C6.98671875,13.7820313 5.35859375,14.4523438 4.0171875,15.79375 C2.67578125,17.1351563 2.00546875,18.7632812 2.00546875,20.63125 C2.00546875,20.63125 2.00546875,20.63125 2.00546875,20.63125 C2.00546875,20.63125 2.00546875,21.6367188 2.00546875,21.6367188 C2.00546875,21.6367188 1,21.6367188 1,21.6367188 C1,21.6367188 1,20.63125 1,20.63125 C1,18.4757813 1.76640625,16.65625 3.29921875,15.1234375 C3.29921875,15.1234375 3.29921875,15.1234375 3.29921875,15.1234375 C4.83203125,13.5429688 6.7,12.7765625 8.8546875,12.7765625 C11.009375,12.7765625 12.8773437,13.5429688 14.4101562,15.0757813 C15.9429687,16.6085938 16.709375,18.4757813 16.709375,20.63125 C16.709375,20.63125 16.709375,20.63125 16.709375,20.63125 C16.709375,20.63125 16.709375,21.1101563 16.709375,21.1101563 C16.709375,21.1101563 16.709375,21.6367188 16.709375,21.6367188 L16.709375,21.6359375 Z M23.5585938,6.3578125 C23.5585938,6.3578125 23.5585938,6.40546875 23.5585938,6.40546875 C23.5585938,7.315625 23.2234375,8.1296875 22.553125,8.8 C21.8828125,9.4703125 21.06875,9.80546875 20.1585937,9.80546875 C20.1585937,9.80546875 20.1585937,9.80546875 20.1585937,9.80546875 C19.3445312,9.80546875 18.6257812,9.56640625 18.0515625,9.13515625 C18.0515625,9.13515625 18.0515625,9.13515625 18.0515625,9.13515625 C18.0515625,9.13515625 15.4171875,11.7695312 15.4171875,11.7695312 C15.4171875,11.7695312 14.746875,11.0992187 14.746875,11.0992187 C14.746875,11.0992187 17.38125,8.4171875 17.38125,8.4171875 C16.95,7.890625 16.7109375,7.171875 16.7109375,6.3578125 C16.7109375,6.3578125 16.7109375,6.3578125 16.7109375,6.3578125 C16.7109375,5.44765625 17.0460937,4.63359375 17.7164062,3.96328125 C18.3867187,3.29296875 19.2007812,2.9578125 20.1109375,2.9578125 C20.1109375,2.9578125 20.1109375,2.9578125 20.1109375,2.9578125 C21.06875,2.9578125 21.8828125,3.29296875 22.553125,3.96328125 C23.2234375,4.63359375 23.5585938,5.44765625 23.5585938,6.3578125 C23.5585938,6.3578125 23.5585938,6.3578125 23.5585938,6.3578125 Z M22.6007813,6.40625 C22.6007813,6.40625 22.6007813,6.40625 22.6007813,6.40625 C22.6007813,5.6875 22.3617188,5.11328125 21.8820313,4.634375 C21.4023438,4.15546875 20.828125,3.915625 20.1101563,3.915625 C20.1101563,3.915625 20.1101563,3.915625 20.1101563,3.915625 C19.4398438,3.915625 18.8648438,4.1546875 18.3859375,4.634375 C17.9070313,5.1140625 17.6671875,5.68828125 17.6671875,6.40625 C17.6671875,6.40625 17.6671875,6.40625 17.6671875,6.40625 C17.6671875,7.0765625 17.90625,7.6515625 18.3859375,8.13046875 C18.865625,8.609375 19.4398438,8.84921875 20.1101563,8.84921875 C20.1101563,8.84921875 20.1101563,8.84921875 20.1101563,8.84921875 C20.8289063,8.84921875 21.403125,8.61015625 21.8820313,8.13046875 C21.8820313,8.13046875 21.8820313,8.13046875 21.8820313,8.13046875 C22.3609375,7.60390625 22.6007813,7.02890625 22.6007813,6.40625 Z"/>
  <title>User Search</title>
</svg>