<svg xmlns="http://www.w3.org/2000/svg" viewBox="0 0 25 25" id="user-plus-solid">
  <path d="M20.6351562,6.40625 C20.6351562,6.40625 23.0773438,6.40625 23.0773438,6.40625 C23.4125,6.40625 23.6039063,6.59765625 23.6039063,6.9328125 C23.6039063,6.9328125 23.6039063,6.9328125 23.6039063,6.9328125 C23.6039063,7.26796875 23.4125,7.41171875 23.0773438,7.41171875 C23.0773438,7.41171875 23.0773438,7.41171875 23.0773438,7.41171875 C23.0773438,7.41171875 20.6351562,7.41171875 20.6351562,7.41171875 C20.6351562,7.41171875 20.6351562,9.85390625 20.6351562,9.85390625 C20.6351562,10.1890625 20.4914062,10.3328125 20.15625,10.3328125 C19.8210937,10.3328125 19.6773437,10.1890625 19.6773437,9.85390625 C19.6773437,9.85390625 19.6773437,9.85390625 19.6773437,9.85390625 C19.6773437,9.85390625 19.6773437,7.41171875 19.6773437,7.41171875 C19.6773437,7.41171875 17.1867188,7.41171875 17.1867188,7.41171875 C16.8515625,7.41171875 16.7078125,7.26796875 16.7078125,6.9328125 C16.7078125,6.9328125 16.7078125,6.9328125 16.7078125,6.9328125 C16.7078125,6.59765625 16.8515625,6.40625 17.1867188,6.40625 C17.1867188,6.40625 17.1867188,6.40625 17.1867188,6.40625 C17.1867188,6.40625 19.6773437,6.40625 19.6773437,6.40625 C19.6773437,6.40625 19.6773437,3.9640625 19.6773437,3.9640625 C19.6773437,3.62890625 19.8210937,3.48515625 20.15625,3.48515625 C20.4914062,3.48515625 20.6351562,3.62890625 20.6351562,3.9640625 C20.6351562,3.9640625 20.6351562,3.9640625 20.6351562,3.9640625 C20.6351562,3.9640625 20.6351562,6.40625 20.6351562,6.40625 Z M3.96875,6.88515625 C3.96875,6.88515625 3.96875,6.88515625 3.96875,6.88515625 C3.96875,5.54453125 4.44765625,4.39453125 5.40546875,3.43671875 C6.36328125,2.47890625 7.5125,2 8.85390625,2 C8.85390625,2 8.85390625,2 8.85390625,2 C10.2429687,2 11.3921875,2.47890625 12.35,3.43671875 C13.3078125,4.39453125 13.7867187,5.54375 13.7867187,6.88515625 C13.7867187,6.88515625 13.7867187,6.88515625 13.7867187,6.88515625 C13.7867187,8.27421875 13.3078125,9.4234375 12.35,10.38125 C11.3921875,11.3390625 10.2429688,11.8179688 8.85390625,11.8179688 C8.85390625,11.8179688 8.85390625,11.8179688 8.85390625,11.8179688 C7.51328125,11.8179688 6.36328125,11.3390625 5.40546875,10.38125 C4.44765625,9.4234375 3.96875,8.27421875 3.96875,6.88515625 Z M8.85390625,12.7757812 C11.009375,12.7757812 12.8765625,13.5421875 14.409375,15.075 C15.9421875,16.6078125 16.7085937,18.475 16.7085937,20.6304687 C16.7085937,20.6304687 16.7085937,20.6304687 16.7085937,20.6304687 C16.7085937,20.6304687 16.7085937,21.109375 16.7085937,21.109375 C16.7085937,21.4445312 16.5648438,21.6359375 16.2296875,21.6359375 C16.2296875,21.6359375 16.2296875,21.6359375 16.2296875,21.6359375 C16.2296875,21.6359375 1.5265625,21.6359375 1.5265625,21.6359375 C1.19140625,21.6359375 1,21.4445312 1,21.109375 C1,21.109375 1,21.109375 1,21.109375 C1,21.109375 1,20.6304687 1,20.6304687 C1,18.475 1.76640625,16.6554687 3.29921875,15.1226562 C3.29921875,15.1226562 3.29921875,15.1226562 3.29921875,15.1226562 C4.8796875,13.5421875 6.69921875,12.7757812 8.8546875,12.7757812 C8.8546875,12.7757812 8.8546875,12.7757812 8.8546875,12.7757812 L8.85390625,12.7757812 Z"/>
  <title>User Plus Solid</title>
</svg>