<svg xmlns="http://www.w3.org/2000/svg" viewBox="0 0 25 25" id="user">
  <path d="M8.928125,6.88515625 C8.928125,6.88515625 8.928125,6.88515625 8.928125,6.88515625 C8.928125,7.98671875 9.3109375,8.896875 10.0773437,9.66328125 C10.84375,10.4296875 11.7539062,10.8125 12.8554688,10.8125 C13.9570312,10.8125 14.8671875,10.4296875 15.6335937,9.66328125 C16.4,8.896875 16.7828125,7.98671875 16.7828125,6.88515625 C16.7828125,6.88515625 16.7828125,6.88515625 16.7828125,6.88515625 C16.7828125,5.83125 16.4,4.921875 15.6335937,4.10703125 C15.6335937,4.10703125 15.6335937,4.10703125 15.6335937,4.10703125 C14.8671875,3.340625 13.9570312,2.9578125 12.8554688,2.9578125 C11.7539062,2.9578125 10.84375,3.340625 10.0773437,4.10703125 C10.0773437,4.10703125 10.0773437,4.10703125 10.0773437,4.10703125 C9.3109375,4.92109375 8.928125,5.83125 8.928125,6.88515625 Z M7.9703125,6.88515625 C7.9703125,6.88515625 7.9703125,6.88515625 7.9703125,6.88515625 C7.9703125,5.54453125 8.44921875,4.39453125 9.40703125,3.43671875 C10.3648437,2.47890625 11.5140625,2 12.8554688,2 C14.1960937,2 15.3460937,2.47890625 16.3039062,3.43671875 C17.2617188,4.39453125 17.740625,5.54375 17.740625,6.88515625 C17.740625,6.88515625 17.740625,6.88515625 17.740625,6.88515625 C17.740625,8.27421875 17.2617188,9.4234375 16.3039062,10.38125 C15.3460938,11.3390625 14.196875,11.8179688 12.8554688,11.8179688 C11.5148438,11.8179688 10.3648437,11.3390625 9.40703125,10.38125 C8.44921875,9.4234375 7.9703125,8.27421875 7.9703125,6.88515625 Z M20.709375,21.6359375 C20.709375,21.6359375 19.7039062,21.6359375 19.7039062,21.6359375 C19.7039062,21.6359375 19.7039062,20.6304688 19.7039062,20.6304688 C19.7039062,18.7148438 19.0335937,17.0867188 17.6921875,15.7453125 C17.6921875,15.7453125 17.6921875,15.7453125 17.6921875,15.7453125 C16.3992187,14.4523438 14.7710937,13.7820313 12.8546875,13.7820313 C12.8546875,13.7820313 12.8546875,13.7820313 12.8546875,13.7820313 C10.9867187,13.7820313 9.35859375,14.4523438 8.0171875,15.79375 C8.0171875,15.79375 8.0171875,15.79375 8.0171875,15.79375 C6.6765625,17.0867188 6.00546875,18.7148438 6.00546875,20.63125 C6.00546875,20.63125 6.00546875,20.63125 6.00546875,20.63125 C6.00546875,20.63125 6.00546875,21.6367188 6.00546875,21.6367188 C6.00546875,21.6367188 5,21.6367188 5,21.6367188 C5,21.6367188 5,20.63125 5,20.63125 C5,18.4757813 5.76640625,16.65625 7.29921875,15.1234375 C7.29921875,15.1234375 7.29921875,15.1234375 7.29921875,15.1234375 C8.83203125,13.5429688 10.7,12.7765625 12.8546875,12.7765625 C15.009375,12.7765625 16.8773438,13.5429688 18.4101562,15.0757813 C19.9429687,16.6085938 20.709375,18.4757813 20.709375,20.63125 C20.709375,20.63125 20.709375,20.63125 20.709375,20.63125 C20.709375,20.63125 20.709375,21.1101563 20.709375,21.1101563 C20.709375,21.1101563 20.709375,21.6367188 20.709375,21.6367188 L20.709375,21.6359375 Z"/>
  <title>User</title>
</svg>