<svg xmlns="http://www.w3.org/2000/svg" viewBox="0 0 25 25" id="user-check">
  <path d="M4.928125,6.88515625 C4.928125,6.88515625 4.928125,6.88515625 4.928125,6.88515625 C4.928125,7.98671875 5.3109375,8.896875 6.07734375,9.66328125 C6.07734375,9.66328125 6.07734375,9.66328125 6.07734375,9.66328125 C6.89140625,10.4296875 7.8015625,10.8125 8.85546875,10.8125 C8.85546875,10.8125 8.85546875,10.8125 8.85546875,10.8125 C9.95703125,10.8125 10.8671875,10.4296875 11.6335937,9.66328125 C12.4,8.896875 12.7828125,7.98671875 12.7828125,6.88515625 C12.7828125,6.88515625 12.7828125,6.88515625 12.7828125,6.88515625 C12.7828125,5.83125 12.4,4.921875 11.6335937,4.10703125 C11.6335937,4.10703125 11.6335937,4.10703125 11.6335937,4.10703125 C10.8671875,3.340625 9.95703125,2.9578125 8.85546875,2.9578125 C8.85546875,2.9578125 8.85546875,2.9578125 8.85546875,2.9578125 C7.8015625,2.9578125 6.8921875,3.340625 6.07734375,4.10703125 C6.07734375,4.10703125 6.07734375,4.10703125 6.07734375,4.10703125 C5.3109375,4.92109375 4.928125,5.83125 4.928125,6.88515625 Z M3.9703125,6.88515625 C3.9703125,6.88515625 3.9703125,6.88515625 3.9703125,6.88515625 C3.9703125,5.54453125 4.44921875,4.39453125 5.40703125,3.43671875 C6.36484375,2.47890625 7.5140625,2 8.85546875,2 C8.85546875,2 8.85546875,2 8.85546875,2 C10.2445312,2 11.39375,2.47890625 12.3515625,3.43671875 C13.309375,4.39453125 13.7882812,5.54375 13.7882812,6.88515625 C13.7882812,6.88515625 13.7882812,6.88515625 13.7882812,6.88515625 C13.7882812,8.27421875 13.309375,9.4234375 12.3515625,10.38125 C11.39375,11.3390625 10.2445312,11.8179688 8.85546875,11.8179688 C8.85546875,11.8179688 8.85546875,11.8179688 8.85546875,11.8179688 C7.51484375,11.8179688 6.36484375,11.3390625 5.40703125,10.38125 C4.44921875,9.4234375 3.9703125,8.27421875 3.9703125,6.88515625 Z M16.709375,21.6359375 C16.709375,21.6359375 15.7515625,21.6359375 15.7515625,21.6359375 C15.7515625,21.6359375 15.7515625,20.6304688 15.7515625,20.6304688 C15.7515625,18.7625 15.08125,17.134375 13.7398437,15.7453125 C13.7398437,15.7453125 13.7398437,15.7453125 13.7398437,15.7453125 C12.446875,14.4523438 10.81875,13.7820313 8.8546875,13.7820313 C8.8546875,13.7820313 8.8546875,13.7820313 8.8546875,13.7820313 C6.98671875,13.7820313 5.35859375,14.4523438 4.0171875,15.79375 C2.67578125,17.1351563 2.00546875,18.7632812 2.00546875,20.63125 C2.00546875,20.63125 2.00546875,20.63125 2.00546875,20.63125 C2.00546875,20.63125 2.00546875,21.6367188 2.00546875,21.6367188 C2.00546875,21.6367188 1,21.6367188 1,21.6367188 C1,21.6367188 1,20.63125 1,20.63125 C1,18.4757813 1.76640625,16.65625 3.29921875,15.1234375 C3.29921875,15.1234375 3.29921875,15.1234375 3.29921875,15.1234375 C4.83203125,13.5429688 6.7,12.7765625 8.8546875,12.7765625 C11.009375,12.7765625 12.8773437,13.5429688 14.4101562,15.0757813 C15.9429687,16.6085938 16.709375,18.4757813 16.709375,20.63125 C16.709375,20.63125 16.709375,20.63125 16.709375,20.63125 C16.709375,20.63125 16.709375,21.1101563 16.709375,21.1101563 C16.709375,21.1101563 16.709375,21.6367188 16.709375,21.6367188 L16.709375,21.6359375 Z M23.4625,4.10703125 C23.5585938,4.203125 23.60625,4.2984375 23.60625,4.4421875 C23.60625,4.5859375 23.5585938,4.68125 23.4625,4.77734375 C23.4625,4.77734375 23.4625,4.77734375 23.4625,4.77734375 C23.4625,4.77734375 18.5296875,9.71015625 18.5296875,9.71015625 C18.4335938,9.80625 18.290625,9.85390625 18.146875,9.85390625 C18.146875,9.85390625 18.146875,9.85390625 18.146875,9.85390625 C18.0507812,9.85390625 17.9554687,9.80625 17.859375,9.71015625 C17.859375,9.71015625 17.859375,9.71015625 17.859375,9.71015625 C17.859375,9.71015625 14.8898438,7.26796875 14.8898438,7.26796875 C14.79375,7.171875 14.7460938,7.02890625 14.7460938,6.88515625 C14.7460938,6.88515625 14.7460938,6.88515625 14.7460938,6.88515625 C14.7460938,6.55 14.8898438,6.40625 15.225,6.40625 C15.225,6.40625 15.225,6.40625 15.225,6.40625 C15.36875,6.40625 15.4640625,6.45390625 15.5125,6.50234375 C15.5125,6.50234375 15.5125,6.50234375 15.5125,6.50234375 C15.5125,6.50234375 18.146875,8.70546875 18.146875,8.70546875 C18.146875,8.70546875 22.7445313,4.1078125 22.7445313,4.1078125 C22.7921875,4.01171875 22.9359375,3.9640625 23.1273437,3.9640625 C23.1273437,3.9640625 23.1273437,3.9640625 23.1273437,3.9640625 C23.2710937,3.9640625 23.3664062,4.01171875 23.4625,4.1078125 L23.4625,4.10703125 Z"/>
  <title>User Check</title>
</svg>