<svg xmlns="http://www.w3.org/2000/svg" viewBox="0 0 25 25" id="user-solid">
  <path d="M8.4484375,6.88515625 C8.4484375,6.88515625 8.4484375,6.88515625 8.4484375,6.88515625 C8.4484375,5.54453125 8.92734375,4.39453125 9.88515625,3.43671875 C10.8429688,2.47890625 11.9921875,2 13.3335938,2 C13.3335938,2 13.3335938,2 13.3335938,2 C14.7226562,2 15.871875,2.47890625 16.8296875,3.43671875 C17.7875,4.39453125 18.2664063,5.54375 18.2664063,6.88515625 C18.2664063,6.88515625 18.2664063,6.88515625 18.2664063,6.88515625 C18.2664063,8.27421875 17.7875,9.4234375 16.8296875,10.38125 C15.871875,11.3390625 14.7226563,11.8179688 13.3335938,11.8179688 C13.3335938,11.8179688 13.3335938,11.8179688 13.3335938,11.8179688 C11.9929688,11.8179688 10.8429688,11.3390625 9.88515625,10.38125 C8.92734375,9.4234375 8.4484375,8.27421875 8.4484375,6.88515625 Z M12.8539062,12.7757812 C15.009375,12.7757812 16.8765625,13.5421875 18.409375,15.075 C19.9421875,16.6078125 20.7085937,18.475 20.7085937,20.6304687 C20.7085937,20.6304687 20.7085937,20.6304687 20.7085937,20.6304687 C20.7085937,20.6304687 20.7085937,21.109375 20.7085937,21.109375 C20.7085937,21.4445312 20.5648438,21.6359375 20.2296875,21.6359375 C20.2296875,21.6359375 20.2296875,21.6359375 20.2296875,21.6359375 C20.2296875,21.6359375 5.5265625,21.6359375 5.5265625,21.6359375 C5.19140625,21.6359375 5,21.4445312 5,21.109375 C5,21.109375 5,21.109375 5,21.109375 C5,21.109375 5,20.6304687 5,20.6304687 C5,18.475 5.76640625,16.6554687 7.29921875,15.1226562 C7.29921875,15.1226562 7.29921875,15.1226562 7.29921875,15.1226562 C8.8796875,13.5421875 10.6992188,12.7757812 12.8546875,12.7757812 C12.8546875,12.7757812 12.8546875,12.7757812 12.8546875,12.7757812 L12.8539062,12.7757812 Z"/>
  <title>User Solid</title>
</svg>