<svg xmlns="http://www.w3.org/2000/svg" viewBox="0 0 25 25" id="user-check-solid">
  <path d="M23.4609375,3.628125 C23.5570312,3.72421875 23.6046875,3.81953125 23.6046875,3.96328125 C23.6046875,4.10703125 23.5570312,4.20234375 23.4609375,4.2984375 C23.4609375,4.2984375 23.4609375,4.2984375 23.4609375,4.2984375 C23.4609375,4.2984375 18.528125,9.23125 18.528125,9.23125 C18.4320312,9.32734375 18.2890625,9.375 18.1453125,9.375 C18.1453125,9.375 18.1453125,9.375 18.1453125,9.375 C18.0492187,9.375 17.9539062,9.32734375 17.8578125,9.23125 C17.8578125,9.23125 17.8578125,9.23125 17.8578125,9.23125 C17.8578125,9.23125 14.8882813,6.7890625 14.8882813,6.7890625 C14.7921875,6.69296875 14.7445313,6.55 14.7445313,6.40625 C14.7445313,6.40625 14.7445313,6.40625 14.7445313,6.40625 C14.7445313,6.07109375 14.8882813,5.92734375 15.2234375,5.92734375 C15.2234375,5.92734375 15.2234375,5.92734375 15.2234375,5.92734375 C15.3671875,5.92734375 15.4625,5.975 15.5109375,6.0234375 C15.5109375,6.0234375 15.5109375,6.0234375 15.5109375,6.0234375 C15.5109375,6.0234375 18.1453125,8.2265625 18.1453125,8.2265625 C18.1453125,8.2265625 22.7429687,3.62890625 22.7429687,3.62890625 C22.790625,3.5328125 22.934375,3.48515625 23.1257812,3.48515625 C23.1257812,3.48515625 23.1257812,3.48515625 23.1257812,3.48515625 C23.2695312,3.48515625 23.3648437,3.5328125 23.4609375,3.62890625 L23.4609375,3.628125 Z M3.96875,6.88515625 C3.96875,6.88515625 3.96875,6.88515625 3.96875,6.88515625 C3.96875,5.54453125 4.44765625,4.39453125 5.40546875,3.43671875 C6.36328125,2.47890625 7.5125,2 8.85390625,2 C8.85390625,2 8.85390625,2 8.85390625,2 C10.2429687,2 11.3921875,2.47890625 12.35,3.43671875 C13.3078125,4.39453125 13.7867187,5.54375 13.7867187,6.88515625 C13.7867187,6.88515625 13.7867187,6.88515625 13.7867187,6.88515625 C13.7867187,8.27421875 13.3078125,9.4234375 12.35,10.38125 C11.3921875,11.3390625 10.2429688,11.8179688 8.85390625,11.8179688 C8.85390625,11.8179688 8.85390625,11.8179688 8.85390625,11.8179688 C7.51328125,11.8179688 6.36328125,11.3390625 5.40546875,10.38125 C4.44765625,9.4234375 3.96875,8.27421875 3.96875,6.88515625 Z M8.85390625,12.7757812 C11.009375,12.7757812 12.8765625,13.5421875 14.409375,15.075 C15.9421875,16.6078125 16.7085937,18.475 16.7085937,20.6304687 C16.7085937,20.6304687 16.7085937,20.6304687 16.7085937,20.6304687 C16.7085937,20.6304687 16.7085937,21.109375 16.7085937,21.109375 C16.7085937,21.4445312 16.5648438,21.6359375 16.2296875,21.6359375 C16.2296875,21.6359375 16.2296875,21.6359375 16.2296875,21.6359375 C16.2296875,21.6359375 1.5265625,21.6359375 1.5265625,21.6359375 C1.19140625,21.6359375 1,21.4445312 1,21.109375 C1,21.109375 1,21.109375 1,21.109375 C1,21.109375 1,20.6304687 1,20.6304687 C1,18.475 1.76640625,16.6554687 3.29921875,15.1226562 C3.29921875,15.1226562 3.29921875,15.1226562 3.29921875,15.1226562 C4.8796875,13.5421875 6.69921875,12.7757812 8.8546875,12.7757812 C8.8546875,12.7757812 8.8546875,12.7757812 8.8546875,12.7757812 L8.85390625,12.7757812 Z"/>
  <title>User Check Solid</title>
</svg>