<svg xmlns="http://www.w3.org/2000/svg" viewBox="0 0 25 25" id="user-star-solid">
  <path d="M20.6835938,5.1609375 C20.6835938,5.1609375 23.1742188,5.49609375 23.1742188,5.49609375 C23.4132813,5.5921875 23.5570312,5.78359375 23.5570312,6.02265625 C23.5570312,6.02265625 23.5570312,6.02265625 23.5570312,6.02265625 C23.5570312,6.16640625 23.509375,6.26171875 23.4132812,6.3578125 C23.4132812,6.3578125 23.4132812,6.3578125 23.4132812,6.3578125 C23.4132812,6.3578125 21.6414062,8.17734375 21.6414062,8.17734375 C21.6414062,8.17734375 22.0726562,10.7632812 22.0726562,10.7632812 C22.0726562,10.7632812 22.0726562,10.859375 22.0726562,10.859375 C22.0726562,11.1945312 21.9289062,11.3382812 21.59375,11.3382812 C21.59375,11.3382812 21.59375,11.3382812 21.59375,11.3382812 C21.5460937,11.3382812 21.5460937,11.3382812 21.4976562,11.3382812 C21.4976562,11.3382812 21.4976562,11.3382812 21.4976562,11.3382812 C21.4976562,11.3382812 21.4015625,11.290625 21.4015625,11.290625 C21.4015625,11.290625 19.1507812,10.0453125 19.1507812,10.0453125 C19.1507812,10.0453125 16.9,11.290625 16.9,11.290625 C16.8523437,11.3382812 16.8523437,11.3382812 16.8039062,11.3382812 C16.8039062,11.3382812 16.8039062,11.3382812 16.8039062,11.3382812 C16.8039062,11.3382812 16.6601562,11.3382812 16.6601562,11.3382812 C16.3726562,11.3382812 16.2289062,11.1945312 16.2289062,10.859375 C16.2289062,10.859375 16.2289062,10.859375 16.2289062,10.859375 C16.2289062,10.859375 16.2289062,10.7632812 16.2289062,10.7632812 C16.2289062,10.7632812 16.6601562,8.17734375 16.6601562,8.17734375 C16.6601562,8.17734375 14.8882812,6.3578125 14.8882812,6.3578125 C14.7921875,6.26171875 14.7445312,6.16640625 14.7445312,6.02265625 C14.7445312,6.02265625 14.7445312,6.02265625 14.7445312,6.02265625 C14.7445312,5.78359375 14.8882812,5.59140625 15.1273437,5.49609375 C15.1273437,5.49609375 15.1273437,5.49609375 15.1273437,5.49609375 C15.1273437,5.49609375 17.6179687,5.1609375 17.6179687,5.1609375 C17.6179687,5.1609375 18.7195312,2.76640625 18.7195312,2.76640625 C18.8632812,2.575 19.0070312,2.47890625 19.1507812,2.47890625 C19.1507812,2.47890625 19.1507812,2.47890625 19.1507812,2.47890625 C19.3898437,2.47890625 19.4859375,2.575 19.5335937,2.76640625 C19.5335937,2.76640625 19.5335937,2.76640625 19.5335937,2.76640625 C19.5335937,2.76640625 20.6828125,5.1609375 20.6828125,5.1609375 L20.6835938,5.1609375 Z M3.96875,6.88515625 C3.96875,6.88515625 3.96875,6.88515625 3.96875,6.88515625 C3.96875,5.54453125 4.44765625,4.39453125 5.40546875,3.43671875 C6.36328125,2.47890625 7.5125,2 8.85390625,2 C8.85390625,2 8.85390625,2 8.85390625,2 C10.2429687,2 11.3921875,2.47890625 12.35,3.43671875 C13.3078125,4.39453125 13.7867188,5.54375 13.7867188,6.88515625 C13.7867188,6.88515625 13.7867188,6.88515625 13.7867188,6.88515625 C13.7867188,8.27421875 13.3078125,9.4234375 12.35,10.38125 C11.3921875,11.3390625 10.2429688,11.8179688 8.85390625,11.8179688 C8.85390625,11.8179688 8.85390625,11.8179688 8.85390625,11.8179688 C7.51328125,11.8179688 6.36328125,11.3390625 5.40546875,10.38125 C4.44765625,9.4234375 3.96875,8.27421875 3.96875,6.88515625 Z M8.85390625,12.7757812 C11.009375,12.7757812 12.8765625,13.5421875 14.409375,15.075 C15.9421875,16.6078125 16.7085937,18.475 16.7085937,20.6304687 C16.7085937,20.6304687 16.7085937,20.6304687 16.7085937,20.6304687 C16.7085937,20.6304687 16.7085937,21.109375 16.7085937,21.109375 C16.7085937,21.4445312 16.5648438,21.6359375 16.2296875,21.6359375 C16.2296875,21.6359375 16.2296875,21.6359375 16.2296875,21.6359375 C16.2296875,21.6359375 1.5265625,21.6359375 1.5265625,21.6359375 C1.19140625,21.6359375 1,21.4445312 1,21.109375 C1,21.109375 1,21.109375 1,21.109375 C1,21.109375 1,20.6304687 1,20.6304687 C1,18.475 1.76640625,16.6554687 3.29921875,15.1226562 C3.29921875,15.1226562 3.29921875,15.1226562 3.29921875,15.1226562 C4.8796875,13.5421875 6.69921875,12.7757812 8.8546875,12.7757812 C8.8546875,12.7757812 8.8546875,12.7757812 8.8546875,12.7757812 L8.85390625,12.7757812 Z"/>
  <title>User Star Solid</title>
</svg>