<svg xmlns="http://www.w3.org/2000/svg" viewBox="0 0 25 25" id="user-close-solid">
  <path d="M23.4609375,4.346875 C23.4609375,4.346875 20.8265625,6.9328125 20.8265625,6.9328125 C20.8265625,6.9328125 23.4609375,9.47109375 23.4609375,9.47109375 C23.5085937,9.6625 23.5570312,9.75859375 23.5570312,9.80625 C23.5570312,9.80625 23.5570312,9.80625 23.5570312,9.80625 C23.5570312,10.1414063 23.4132812,10.3328125 23.078125,10.3328125 C23.078125,10.3328125 23.078125,10.3328125 23.078125,10.3328125 C23.0304687,10.3328125 22.934375,10.2851563 22.7429687,10.1890625 C22.7429687,10.1890625 22.7429687,10.1890625 22.7429687,10.1890625 C22.7429687,10.1890625 20.1570312,7.603125 20.1570312,7.603125 C20.1570312,7.603125 17.5710937,10.1890625 17.5710937,10.1890625 C17.475,10.2851563 17.3320312,10.3328125 17.1882812,10.3328125 C17.1882812,10.3328125 17.1882812,10.3328125 17.1882812,10.3328125 C16.853125,10.3328125 16.709375,10.1890625 16.709375,9.85390625 C16.709375,9.85390625 16.709375,9.85390625 16.709375,9.85390625 C16.709375,9.71015625 16.7570312,9.56640625 16.853125,9.47109375 C16.853125,9.47109375 16.853125,9.47109375 16.853125,9.47109375 C16.853125,9.47109375 19.4390625,6.9328125 19.4390625,6.9328125 C19.4390625,6.9328125 16.853125,4.346875 16.853125,4.346875 C16.7570312,4.25078125 16.709375,4.15546875 16.709375,4.01171875 C16.709375,4.01171875 16.709375,4.01171875 16.709375,4.01171875 C16.709375,3.6765625 16.9007812,3.48515625 17.2359375,3.48515625 C17.2359375,3.48515625 17.2359375,3.48515625 17.2359375,3.48515625 C17.2835937,3.48515625 17.3796875,3.5328125 17.5710937,3.62890625 C17.5710937,3.62890625 17.5710937,3.62890625 17.5710937,3.62890625 C17.5710937,3.62890625 20.1570312,6.26328125 20.1570312,6.26328125 C20.1570312,6.26328125 22.7429687,3.62890625 22.7429687,3.62890625 C22.8390625,3.5328125 22.934375,3.48515625 23.078125,3.48515625 C23.078125,3.48515625 23.078125,3.48515625 23.078125,3.48515625 C23.4132812,3.48515625 23.6046875,3.62890625 23.6046875,3.9640625 C23.6046875,3.9640625 23.6046875,3.9640625 23.6046875,3.9640625 C23.6046875,4.01171875 23.5570312,4.15546875 23.4609375,4.346875 C23.4609375,4.346875 23.4609375,4.346875 23.4609375,4.346875 Z M3.96875,6.88515625 C3.96875,6.88515625 3.96875,6.88515625 3.96875,6.88515625 C3.96875,5.54453125 4.44765625,4.39453125 5.40546875,3.43671875 C6.36328125,2.47890625 7.5125,2 8.85390625,2 C8.85390625,2 8.85390625,2 8.85390625,2 C10.2429687,2 11.3921875,2.47890625 12.35,3.43671875 C13.3078125,4.39453125 13.7867187,5.54375 13.7867187,6.88515625 C13.7867187,6.88515625 13.7867187,6.88515625 13.7867187,6.88515625 C13.7867187,8.27421875 13.3078125,9.4234375 12.35,10.38125 C11.3921875,11.3390625 10.2429688,11.8179688 8.85390625,11.8179688 C8.85390625,11.8179688 8.85390625,11.8179688 8.85390625,11.8179688 C7.51328125,11.8179688 6.36328125,11.3390625 5.40546875,10.38125 C4.44765625,9.4234375 3.96875,8.27421875 3.96875,6.88515625 Z M8.85390625,12.7757812 C11.009375,12.7757812 12.8765625,13.5421875 14.409375,15.075 C15.9421875,16.6078125 16.7085937,18.475 16.7085937,20.6304687 C16.7085937,20.6304687 16.7085937,20.6304687 16.7085937,20.6304687 C16.7085937,20.6304687 16.7085937,21.109375 16.7085937,21.109375 C16.7085937,21.4445312 16.5648438,21.6359375 16.2296875,21.6359375 C16.2296875,21.6359375 16.2296875,21.6359375 16.2296875,21.6359375 C16.2296875,21.6359375 1.5265625,21.6359375 1.5265625,21.6359375 C1.19140625,21.6359375 1,21.4445312 1,21.109375 C1,21.109375 1,21.109375 1,21.109375 C1,21.109375 1,20.6304687 1,20.6304687 C1,18.475 1.76640625,16.6554687 3.29921875,15.1226562 C3.29921875,15.1226562 3.29921875,15.1226562 3.29921875,15.1226562 C4.8796875,13.5421875 6.69921875,12.7757812 8.8546875,12.7757812 C8.8546875,12.7757812 8.8546875,12.7757812 8.8546875,12.7757812 L8.85390625,12.7757812 Z"/>
  <title>User Close Solid</title>
</svg>