<svg xmlns="http://www.w3.org/2000/svg" viewBox="0 0 25 25" id="user-list-solid">
  <path d="M3.96875,6.88515625 C3.96875,6.88515625 3.96875,6.88515625 3.96875,6.88515625 C3.96875,5.54453125 4.44765625,4.39453125 5.40546875,3.43671875 C6.36328125,2.47890625 7.5125,2 8.85390625,2 C8.85390625,2 8.85390625,2 8.85390625,2 C10.2429687,2 11.3921875,2.47890625 12.35,3.43671875 C13.3078125,4.39453125 13.7867187,5.54375 13.7867187,6.88515625 C13.7867187,6.88515625 13.7867187,6.88515625 13.7867187,6.88515625 C13.7867187,8.27421875 13.3078125,9.4234375 12.35,10.38125 C11.3921875,11.3390625 10.2429688,11.8179688 8.85390625,11.8179688 C8.85390625,11.8179688 8.85390625,11.8179688 8.85390625,11.8179688 C7.51328125,11.8179688 6.36328125,11.3390625 5.40546875,10.38125 C4.44765625,9.4234375 3.96875,8.27421875 3.96875,6.88515625 Z M8.85390625,12.7757812 C11.009375,12.7757812 12.8765625,13.5421875 14.409375,15.075 C15.9421875,16.6078125 16.7085937,18.475 16.7085937,20.6304687 C16.7085937,20.6304687 16.7085937,20.6304687 16.7085937,20.6304687 C16.7085937,20.6304687 16.7085937,21.109375 16.7085937,21.109375 C16.7085937,21.4445312 16.5648438,21.6359375 16.2296875,21.6359375 C16.2296875,21.6359375 16.2296875,21.6359375 16.2296875,21.6359375 C16.2296875,21.6359375 1.5265625,21.6359375 1.5265625,21.6359375 C1.19140625,21.6359375 1,21.4445312 1,21.109375 C1,21.109375 1,21.109375 1,21.109375 C1,21.109375 1,20.6304687 1,20.6304687 C1,18.475 1.76640625,16.6554687 3.29921875,15.1226562 C3.29921875,15.1226562 3.29921875,15.1226562 3.29921875,15.1226562 C4.8796875,13.5421875 6.69921875,12.7757812 8.8546875,12.7757812 C8.8546875,12.7757812 8.8546875,12.7757812 8.8546875,12.7757812 L8.85390625,12.7757812 Z M23.1257812,3.96328125 C23.1257812,3.96328125 15.2234375,3.96328125 15.2234375,3.96328125 C14.8882813,3.96328125 14.7445313,3.81953125 14.7445313,3.484375 C14.7445313,3.14921875 14.8882813,3.00546875 15.2234375,3.00546875 C15.2234375,3.00546875 15.2234375,3.00546875 15.2234375,3.00546875 C15.2234375,3.00546875 23.1257812,3.00546875 23.1257812,3.00546875 C23.4609375,3.00546875 23.6046875,3.14921875 23.6046875,3.484375 C23.6046875,3.81953125 23.4609375,3.96328125 23.1257812,3.96328125 C23.1257812,3.96328125 23.1257812,3.96328125 23.1257812,3.96328125 L23.1257812,3.96328125 Z M16.2289063,6.9328125 C16.2289063,6.9328125 23.1257812,6.9328125 23.1257812,6.9328125 C23.4609375,6.9328125 23.6046875,7.0765625 23.6046875,7.41171875 C23.6046875,7.746875 23.4609375,7.890625 23.1257812,7.890625 C23.1257812,7.890625 23.1257812,7.890625 23.1257812,7.890625 C23.1257812,7.890625 16.2289063,7.890625 16.2289063,7.890625 C15.89375,7.890625 15.75,7.746875 15.75,7.41171875 C15.75,7.0765625 15.89375,6.9328125 16.2289063,6.9328125 C16.2289063,6.9328125 16.2289063,6.9328125 16.2289063,6.9328125 Z M15.2234375,10.8601562 C15.2234375,10.8601562 23.1257812,10.8601562 23.1257812,10.8601562 C23.4609375,10.8601562 23.6046875,11.0039062 23.6046875,11.2914062 C23.6046875,11.2914062 23.6046875,11.2914062 23.6046875,11.2914062 C23.6046875,11.6265625 23.4609375,11.8179687 23.1257812,11.8179687 C23.1257812,11.8179687 23.1257812,11.8179687 23.1257812,11.8179687 C23.1257812,11.8179687 15.2234375,11.8179687 15.2234375,11.8179687 C14.8882813,11.8179687 14.7445313,11.6265625 14.7445313,11.2914062 C14.7445313,11.2914062 14.7445313,11.2914062 14.7445313,11.2914062 C14.7445313,11.0039062 14.8882813,10.8601562 15.2234375,10.8601562 C15.2234375,10.8601562 15.2234375,10.8601562 15.2234375,10.8601562 Z"/>
  <title>User List Solid</title>
</svg>