<svg xmlns="http://www.w3.org/2000/svg" viewBox="0 0 25 25" id="user-star">
  <path d="M4.928125,6.88515625 C4.928125,6.88515625 4.928125,6.88515625 4.928125,6.88515625 C4.928125,7.98671875 5.3109375,8.896875 6.07734375,9.66328125 C6.07734375,9.66328125 6.07734375,9.66328125 6.07734375,9.66328125 C6.89140625,10.4296875 7.8015625,10.8125 8.85546875,10.8125 C8.85546875,10.8125 8.85546875,10.8125 8.85546875,10.8125 C9.95703125,10.8125 10.8671875,10.4296875 11.6335937,9.66328125 C12.4,8.896875 12.7828125,7.98671875 12.7828125,6.88515625 C12.7828125,6.88515625 12.7828125,6.88515625 12.7828125,6.88515625 C12.7828125,5.83125 12.4,4.921875 11.6335937,4.10703125 C11.6335937,4.10703125 11.6335937,4.10703125 11.6335937,4.10703125 C10.8671875,3.340625 9.95703125,2.9578125 8.85546875,2.9578125 C8.85546875,2.9578125 8.85546875,2.9578125 8.85546875,2.9578125 C7.8015625,2.9578125 6.8921875,3.340625 6.07734375,4.10703125 C6.07734375,4.10703125 6.07734375,4.10703125 6.07734375,4.10703125 C5.3109375,4.92109375 4.928125,5.83125 4.928125,6.88515625 Z M3.9703125,6.88515625 C3.9703125,6.88515625 3.9703125,6.88515625 3.9703125,6.88515625 C3.9703125,5.54453125 4.44921875,4.39453125 5.40703125,3.43671875 C6.36484375,2.47890625 7.5140625,2 8.85546875,2 C8.85546875,2 8.85546875,2 8.85546875,2 C10.2445312,2 11.39375,2.47890625 12.3515625,3.43671875 C13.309375,4.39453125 13.7882813,5.54375 13.7882813,6.88515625 C13.7882813,6.88515625 13.7882813,6.88515625 13.7882813,6.88515625 C13.7882813,8.27421875 13.309375,9.4234375 12.3515625,10.38125 C11.39375,11.3390625 10.2445313,11.8179688 8.85546875,11.8179688 C8.85546875,11.8179688 8.85546875,11.8179688 8.85546875,11.8179688 C7.51484375,11.8179688 6.36484375,11.3390625 5.40703125,10.38125 C4.44921875,9.4234375 3.9703125,8.27421875 3.9703125,6.88515625 Z M16.709375,21.6359375 C16.709375,21.6359375 15.7515625,21.6359375 15.7515625,21.6359375 C15.7515625,21.6359375 15.7515625,20.6304688 15.7515625,20.6304688 C15.7515625,18.7625 15.08125,17.134375 13.7398437,15.7453125 C13.7398437,15.7453125 13.7398437,15.7453125 13.7398437,15.7453125 C12.446875,14.4523438 10.81875,13.7820313 8.8546875,13.7820313 C8.8546875,13.7820313 8.8546875,13.7820313 8.8546875,13.7820313 C6.98671875,13.7820313 5.35859375,14.4523438 4.0171875,15.79375 C2.67578125,17.1351563 2.00546875,18.7632812 2.00546875,20.63125 C2.00546875,20.63125 2.00546875,20.63125 2.00546875,20.63125 C2.00546875,20.63125 2.00546875,21.6367188 2.00546875,21.6367188 C2.00546875,21.6367188 1,21.6367188 1,21.6367188 C1,21.6367188 1,20.63125 1,20.63125 C1,18.4757813 1.76640625,16.65625 3.29921875,15.1234375 C3.29921875,15.1234375 3.29921875,15.1234375 3.29921875,15.1234375 C4.83203125,13.5429688 6.7,12.7765625 8.8546875,12.7765625 C11.009375,12.7765625 12.8773437,13.5429688 14.4101562,15.0757813 C15.9429687,16.6085938 16.709375,18.4757813 16.709375,20.63125 C16.709375,20.63125 16.709375,20.63125 16.709375,20.63125 C16.709375,20.63125 16.709375,21.1101563 16.709375,21.1101563 C16.709375,21.1101563 16.709375,21.6367188 16.709375,21.6367188 L16.709375,21.6359375 Z M20.6851562,5.63984375 C20.6851562,5.63984375 23.1757812,5.975 23.1757812,5.975 C23.4148437,6.07109375 23.5585937,6.2625 23.5585937,6.5015625 C23.5585937,6.5015625 23.5585937,6.5015625 23.5585937,6.5015625 C23.5585937,6.6453125 23.5109375,6.740625 23.4148437,6.83671875 C23.4148437,6.83671875 23.4148437,6.83671875 23.4148437,6.83671875 C23.4148437,6.83671875 21.6429687,8.65625 21.6429687,8.65625 C21.6429687,8.65625 22.0742187,11.2421875 22.0742187,11.2421875 C22.0742187,11.2421875 22.0742187,11.3382812 22.0742187,11.3382812 C22.0742187,11.6734375 21.9304687,11.8171875 21.5953125,11.8171875 C21.5953125,11.8171875 21.5953125,11.8171875 21.5953125,11.8171875 C21.5476562,11.8171875 21.5476562,11.8171875 21.4992187,11.8171875 C21.4992187,11.8171875 21.4992187,11.8171875 21.4992187,11.8171875 C21.4992187,11.8171875 21.403125,11.7695312 21.403125,11.7695312 C21.403125,11.7695312 19.1523437,10.5242187 19.1523437,10.5242187 C19.1523437,10.5242187 16.9015625,11.7695312 16.9015625,11.7695312 C16.8539062,11.8171875 16.8539062,11.8171875 16.8054687,11.8171875 C16.8054687,11.8171875 16.8054687,11.8171875 16.8054687,11.8171875 C16.8054687,11.8171875 16.6617187,11.8171875 16.6617187,11.8171875 C16.3742187,11.8171875 16.2304687,11.6734375 16.2304687,11.3382812 C16.2304687,11.3382812 16.2304687,11.3382812 16.2304687,11.3382812 C16.2304687,11.3382812 16.2304687,11.2421875 16.2304687,11.2421875 C16.2304687,11.2421875 16.6617187,8.65625 16.6617187,8.65625 C16.6617187,8.65625 14.8898437,6.83671875 14.8898437,6.83671875 C14.79375,6.740625 14.7460937,6.6453125 14.7460937,6.5015625 C14.7460937,6.5015625 14.7460937,6.5015625 14.7460937,6.5015625 C14.7460937,6.2625 14.8898437,6.0703125 15.1289062,5.975 C15.1289062,5.975 15.1289062,5.975 15.1289062,5.975 C15.1289062,5.975 17.6195312,5.63984375 17.6195312,5.63984375 C17.6195312,5.63984375 18.7210937,3.2453125 18.7210937,3.2453125 C18.8648437,3.05390625 19.0085937,2.9578125 19.1523437,2.9578125 C19.1523437,2.9578125 19.1523437,2.9578125 19.1523437,2.9578125 C19.3914062,2.9578125 19.4875,3.05390625 19.5351562,3.2453125 C19.5351562,3.2453125 19.5351562,3.2453125 19.5351562,3.2453125 C19.5351562,3.2453125 20.684375,5.63984375 20.684375,5.63984375 L20.6851562,5.63984375 Z M22.0734375,6.83671875 C22.0734375,6.83671875 20.0617188,6.54921875 20.0617188,6.54921875 C20.0617188,6.54921875 19.1515625,4.7296875 19.1515625,4.7296875 C19.1515625,4.7296875 18.2898437,6.54921875 18.2898437,6.54921875 C18.2898437,6.54921875 16.2304688,6.83671875 16.2304688,6.83671875 C16.2304688,6.83671875 17.7148437,8.36953125 17.7148437,8.36953125 C17.7148437,8.36953125 17.3796875,10.4289063 17.3796875,10.4289063 C17.3796875,10.4289063 19.1515625,9.4234375 19.1515625,9.4234375 C19.1515625,9.4234375 20.9234375,10.4289063 20.9234375,10.4289063 C20.9234375,10.4289063 20.5882813,8.36953125 20.5882813,8.36953125 C20.5882813,8.36953125 20.9710938,7.98671875 20.9710938,7.98671875 C20.9710938,7.98671875 22.0726563,6.8375 22.0726563,6.8375 L22.0734375,6.83671875 Z"/>
  <title>User Star</title>
</svg>