<svg xmlns="http://www.w3.org/2000/svg" viewBox="0 0 25 25" id="user-female">
  <path d="M20.6679688,19.0492187 C20.6679688,19.0492187 20.6679688,19.0015625 20.6679688,19.0015625 C20.2851563,18.7625 19.5664062,18.33125 18.4648438,17.7085937 C18.4648438,17.7085937 18.4648438,17.7085937 18.4648438,17.7085937 C18.4648438,17.7085937 20.1890625,17.7085937 20.1890625,17.7085937 C20.5242187,17.7085937 20.715625,17.5171875 20.715625,17.1820312 C20.715625,17.1820312 20.715625,17.1820312 20.715625,17.1820312 C20.715625,17.134375 20.6679688,17.0859375 20.6195313,16.9429687 C20.6195313,16.9429687 20.6195313,16.9429687 20.6195313,16.9429687 C19.996875,15.8414062 19.709375,13.1117187 19.709375,8.84921875 C19.709375,8.84921875 19.709375,8.84921875 19.709375,8.84921875 C19.709375,6.98125 19.0390625,5.353125 17.6976563,4.01171875 C16.35625,2.6703125 14.728125,2 12.8601563,2 C10.9921875,2 9.3640625,2.6703125 8.02265625,4.01171875 C6.63359375,5.35234375 5.96328125,6.98125 5.96328125,8.84921875 C5.96328125,8.84921875 5.96328125,8.84921875 5.96328125,8.84921875 C5.96328125,13.2078125 5.67578125,15.9375 5.053125,16.9429687 C5.053125,16.9429687 5.053125,16.9429687 5.053125,16.9429687 C5.00546875,16.990625 5.00546875,17.0867187 5.00546875,17.1820312 C5.00546875,17.1820312 5.00546875,17.1820312 5.00546875,17.1820312 C5.00546875,17.5171875 5.14921875,17.7085937 5.484375,17.7085937 C5.484375,17.7085937 5.484375,17.7085937 5.484375,17.7085937 C5.484375,17.7085937 7.1125,17.7085937 7.1125,17.7085937 C6.4421875,18.0914062 5.7234375,18.5226562 5.00546875,19.0015625 C5.00546875,19.0015625 5.00546875,19.0015625 5.00546875,19.0015625 C4.33515625,19.4328125 4,20.0070312 4,20.7734375 C4,20.7734375 4,20.7734375 4,20.7734375 C4,20.7734375 4,20.8210937 4,20.8210937 C4,21.3476562 4.19140625,21.7789062 4.5265625,22.1617187 C4.86171875,22.5929687 5.2453125,22.8320312 5.771875,22.928125 C5.771875,22.928125 5.771875,22.928125 5.771875,22.928125 C7.975,23.3109375 10.321875,23.5507812 12.8117188,23.5984375 C12.8117188,23.5984375 12.8117188,23.5984375 12.8117188,23.5984375 C15.35,23.5507812 17.7921875,23.3109375 20.1875,22.8796875 C20.1875,22.8796875 20.1875,22.8796875 20.1875,22.8796875 C20.5703125,22.8320312 20.90625,22.5921875 21.2414062,22.1609375 C21.5289062,21.778125 21.6726562,21.346875 21.6726562,20.8203125 C21.6726562,20.8203125 21.6726562,20.8203125 21.6726562,20.8203125 C21.6726562,20.00625 21.3375,19.3835937 20.6671875,19.0484375 C20.6671875,19.0484375 20.6671875,19.0484375 20.6671875,19.0484375 L20.6679688,19.0492187 Z M8.83828125,16.7023438 C8.83828125,16.7023438 6.20390625,16.7023438 6.20390625,16.7023438 C6.73046875,14.4515625 6.9703125,12.1046875 6.9703125,9.6625 C6.9703125,9.6625 6.9703125,9.6625 6.9703125,9.6625 C6.9703125,9.6625 6.9703125,8.80078125 6.9703125,8.80078125 C6.9703125,7.2203125 7.5453125,5.83125 8.69453125,4.68203125 C9.84375,3.5328125 11.2328125,2.9578125 12.8609375,2.9578125 C14.4890625,2.9578125 15.878125,3.5328125 17.0273438,4.68203125 C18.1765625,5.83125 18.7515625,7.2203125 18.7515625,8.8484375 C18.7515625,8.8484375 18.7515625,8.8484375 18.7515625,8.8484375 C18.7515625,8.89609375 18.7515625,9.03984375 18.7515625,9.23125 C18.7039063,9.42265625 18.7039063,9.56640625 18.7039063,9.6625 C18.7039063,9.6625 18.7039063,9.6625 18.7039063,9.6625 C18.7039063,12.1046875 18.9914063,14.5 19.5179688,16.9421875 C19.5179688,16.9421875 19.5179688,16.9421875 19.5179688,16.9421875 C19.5179688,16.9421875 16.7882813,16.703125 16.7882813,16.703125 C16.7882813,16.703125 16.6921875,16.703125 16.6921875,16.703125 C16.6921875,16.703125 15.8304688,16.271875 15.8304688,16.271875 C16.9320313,15.0265625 17.5546875,13.5421875 17.6984375,11.8179688 C17.6984375,11.8179688 17.6984375,11.8179688 17.6984375,11.8179688 C17.6984375,11.8179688 17.7460938,11.7703125 17.7460938,11.7703125 C18.08125,11.7703125 18.225,11.6265625 18.225,11.2914063 C18.225,11.2914063 18.225,11.2914063 18.225,11.2914063 C18.225,11.0523438 18.08125,10.8601563 17.79375,10.8125 C17.79375,10.8125 17.79375,10.8125 17.79375,10.8125 C16.9320313,10.66875 16.165625,10.3335938 15.4945313,9.80703125 C14.8234375,9.28046875 14.3453125,8.56171875 14.0578125,7.74765625 C14.0578125,7.74765625 14.0578125,7.74765625 14.0578125,7.74765625 C14.0101563,7.50859375 13.81875,7.4125 13.5789063,7.4125 C13.5789063,7.4125 13.5789063,7.4125 13.5789063,7.4125 C13.3398438,7.4125 13.1960938,7.50859375 13.1,7.74765625 C13.1,7.74765625 13.1,7.74765625 13.1,7.74765625 C12.8609375,8.6578125 12.3335938,9.42421875 11.5671875,9.9984375 C10.753125,10.5734375 9.890625,10.8601563 8.88515625,10.8601563 C8.88515625,10.8601563 8.88515625,10.8601563 8.88515625,10.8601563 C8.69375,10.8601563 8.40625,10.8125 8.0234375,10.7640625 C8.0234375,10.7640625 8.0234375,10.7640625 8.0234375,10.7640625 C8.0234375,10.7640625 7.97578125,10.7640625 7.97578125,10.7640625 C7.640625,10.7640625 7.496875,10.9078125 7.496875,11.2429688 C7.496875,11.2429688 7.496875,11.2429688 7.496875,11.2429688 C7.496875,11.4820313 7.59296875,11.6742188 7.83203125,11.721875 C7.83203125,11.721875 7.83203125,11.721875 7.83203125,11.721875 C7.83203125,11.721875 7.97578125,11.721875 7.97578125,11.721875 C8.11953125,13.49375 8.7421875,14.9789062 9.84375,16.2234375 C9.84375,16.2234375 9.84375,16.2234375 9.84375,16.2234375 C9.4125,16.4148438 9.07734375,16.5585938 8.83828125,16.7023438 C8.83828125,16.7023438 8.83828125,16.7023438 8.83828125,16.7023438 Z M12.8609375,16.75 C12.8609375,16.75 12.8609375,16.75 12.8609375,16.75 C11.9507813,16.75 11.0890625,16.2710937 10.3703125,15.265625 C9.60390625,14.3078125 9.125,13.1585938 8.98125,11.8171875 C8.98125,11.8171875 8.98125,11.8171875 8.98125,11.8171875 C9.9390625,11.8171875 10.8492187,11.578125 11.6632812,11.0507812 C12.4773437,10.571875 13.1,9.94921875 13.5789062,9.13515625 C13.5789062,9.13515625 13.5789062,9.13515625 13.5789062,9.13515625 C14.3929688,10.3328125 15.3984375,11.146875 16.6921875,11.5296875 C16.6921875,11.5296875 16.6921875,11.5296875 16.6921875,11.5296875 C16.6445312,12.91875 16.2132812,14.1640625 15.446875,15.1695312 C14.6804687,16.2234375 13.81875,16.75 12.8609375,16.75 Z M19.7578125,21.9226562 C19.7578125,21.9226562 19.7578125,21.9226562 19.7578125,21.9226562 C17.6023437,22.3054687 15.3515625,22.5453125 12.909375,22.5929688 C12.909375,22.5929688 12.909375,22.5929688 12.909375,22.5929688 C10.4671875,22.5453125 8.071875,22.3539063 5.67734375,21.9226562 C5.67734375,21.9226562 5.67734375,21.9226562 5.67734375,21.9226562 C5.24609375,21.7789062 5.00703125,21.3960937 5.00703125,20.8210937 C5.00703125,20.8210937 5.00703125,20.8210937 5.00703125,20.8210937 C5.00703125,20.3898438 5.1984375,20.0546875 5.53359375,19.815625 C5.53359375,19.815625 5.53359375,19.815625 5.53359375,19.815625 C7.01796875,18.8101563 8.646875,17.8523438 10.41875,17.0375 C10.41875,17.0375 10.41875,17.0375 10.41875,17.0375 C11.3765625,17.46875 12.190625,17.7078125 12.8609375,17.7078125 C12.8609375,17.7078125 12.8609375,17.7078125 12.8609375,17.7078125 C13.675,17.7078125 14.39375,17.46875 15.0164063,16.9890625 C15.0164063,16.9890625 15.0164063,16.9890625 15.0164063,16.9890625 C17.028125,17.946875 18.8,18.9523437 20.3328125,19.9585938 C20.3328125,19.9585938 20.3328125,19.9585938 20.3328125,19.9585938 C20.571875,20.1023438 20.715625,20.3898438 20.715625,20.8203125 C20.715625,20.8203125 20.715625,20.8203125 20.715625,20.8203125 C20.715625,21.1078125 20.6195313,21.346875 20.428125,21.5390625 C20.2367188,21.778125 19.996875,21.8742188 19.7578125,21.921875 L19.7578125,21.9226562 Z"/>
  <title>User Female</title>
</svg>