<svg xmlns="http://www.w3.org/2000/svg" viewBox="0 0 25 25" id="video">
  <path d="M7.37109375,8.9703125 C7.70625,8.9703125 7.85,9.1140625 7.85,9.44921875 C7.85,9.784375 7.70625,9.928125 7.37109375,9.928125 C7.37109375,9.928125 7.37109375,9.928125 7.37109375,9.928125 C7.37109375,9.928125 4.45,9.928125 4.45,9.928125 C4.11484375,9.928125 3.9234375,9.784375 3.9234375,9.44921875 C3.9234375,9.1140625 4.11484375,8.9703125 4.45,8.9703125 C4.45,8.9703125 4.45,8.9703125 4.45,8.9703125 C4.45,8.9703125 7.37109375,8.9703125 7.37109375,8.9703125 Z M24.5648438,7.00703125 C24.5648438,7.00703125 24.5648438,7.00703125 24.5648438,7.00703125 C24.5648438,7.00703125 24.5648438,17.7828125 24.5648438,17.7828125 C24.5648438,18.021875 24.46875,18.2617188 24.2773438,18.453125 C24.0382813,18.6921875 23.7984375,18.7882813 23.5585938,18.7882813 C23.5585938,18.7882813 23.5585938,18.7882813 23.5585938,18.7882813 C23.3671875,18.7882813 23.1757813,18.740625 22.9835938,18.596875 C22.9835938,18.596875 22.9835938,18.596875 22.9835938,18.596875 C22.9835938,18.596875 18.6734375,15.4835938 18.6734375,15.4835938 C18.6734375,15.4835938 18.6734375,17.303125 18.6734375,17.303125 C18.6734375,17.734375 18.5296875,18.0695313 18.2421875,18.3570313 C17.9546875,18.6445312 17.6195312,18.7882813 17.1882813,18.7882813 C17.1882813,18.7882813 17.1882813,18.7882813 17.1882813,18.7882813 C17.1882813,18.7882813 2.48515625,18.7882813 2.48515625,18.7882813 C2.05390625,18.7882813 1.71875,18.6445312 1.43125,18.3570313 C1.14375,18.0695313 1,17.734375 1,17.303125 C1,17.303125 1,17.303125 1,17.303125 C1,17.303125 1,7.48515625 1,7.48515625 C1,7.05390625 1.14375,6.71875 1.43125,6.43125 C1.71875,6.14375 2.05390625,6 2.48515625,6 C2.48515625,6 2.48515625,6 2.48515625,6 C2.48515625,6 17.1882813,6 17.1882813,6 C17.6195312,6 17.9546875,6.14375 18.2421875,6.43125 C18.5296875,6.71875 18.6734375,7.05390625 18.6734375,7.48515625 C18.6734375,7.48515625 18.6734375,7.48515625 18.6734375,7.48515625 C18.6734375,7.48515625 18.6734375,9.3046875 18.6734375,9.3046875 C18.6734375,9.3046875 22.9835938,6.19140625 22.9835938,6.19140625 C23.175,6.04765625 23.3664062,6 23.5585938,6 C23.5585938,6 23.5585938,6 23.5585938,6 C23.7976563,6 24.0375,6.09609375 24.2773438,6.2875 C24.46875,6.47890625 24.5648438,6.71875 24.5648438,7.00625 L24.5648438,7.00703125 Z M17.6679688,17.3039063 C17.6679688,17.3039063 17.6679688,7.4859375 17.6679688,7.4859375 C17.6679688,7.15078125 17.5242187,7.00703125 17.1890625,7.00703125 C17.1890625,7.00703125 17.1890625,7.00703125 17.1890625,7.00703125 C17.1890625,7.00703125 2.4859375,7.00703125 2.4859375,7.00703125 C2.15078125,7.00703125 1.959375,7.15078125 1.959375,7.4859375 C1.959375,7.4859375 1.959375,7.4859375 1.959375,7.4859375 C1.959375,7.4859375 1.959375,17.3039063 1.959375,17.3039063 C1.959375,17.6390625 2.15078125,17.7828125 2.4859375,17.7828125 C2.4859375,17.7828125 2.4859375,17.7828125 2.4859375,17.7828125 C2.4859375,17.7828125 17.1890625,17.7828125 17.1890625,17.7828125 C17.5242187,17.7828125 17.6679688,17.6390625 17.6679688,17.3039063 C17.6679688,17.3039063 17.6679688,17.3039063 17.6679688,17.3039063 Z M23.559375,17.7828125 C23.559375,17.7828125 23.559375,7.00703125 23.559375,7.00703125 C23.559375,7.00703125 18.6742188,10.503125 18.6742188,10.503125 C18.6742188,10.503125 18.6742188,14.2867187 18.6742188,14.2867187 C18.6742188,14.2867187 23.559375,17.7828125 23.559375,17.7828125 Z"/>
  <title>Video</title>
</svg>