<svg xmlns="http://www.w3.org/2000/svg" viewBox="0 0 25 25" id="video-solid">
  <path d="M22.9835938,6.19140625 C22.9835938,6.19140625 22.9835938,6.19140625 22.9835938,6.19140625 C22.9835938,6.19140625 18.6734375,9.3046875 18.6734375,9.3046875 C18.6734375,9.3046875 18.6734375,7.48515625 18.6734375,7.48515625 C18.6734375,7.05390625 18.5296875,6.71875 18.2421875,6.43125 C17.9546875,6.14375 17.6195312,6 17.1882813,6 C17.1882813,6 17.1882813,6 17.1882813,6 C17.1882813,6 2.48515625,6 2.48515625,6 C2.05390625,6 1.71875,6.14375 1.43125,6.43125 C1.14375,6.71875 1,7.05390625 1,7.48515625 C1,7.48515625 1,7.48515625 1,7.48515625 C1,7.48515625 1,17.303125 1,17.303125 C1,17.734375 1.14375,18.0695313 1.43125,18.3570313 C1.71875,18.6445312 2.05390625,18.7882813 2.48515625,18.7882813 C2.48515625,18.7882813 2.48515625,18.7882813 2.48515625,18.7882813 C2.48515625,18.7882813 17.1882813,18.7882813 17.1882813,18.7882813 C17.6195312,18.7882813 17.9546875,18.6445312 18.2421875,18.3570313 C18.5296875,18.0695313 18.6734375,17.734375 18.6734375,17.303125 C18.6734375,17.303125 18.6734375,17.303125 18.6734375,17.303125 C18.6734375,17.303125 18.6734375,15.4835938 18.6734375,15.4835938 C18.6734375,15.4835938 22.9835938,18.596875 22.9835938,18.596875 C23.175,18.740625 23.3664062,18.7882813 23.5585938,18.7882813 C23.5585938,18.7882813 23.5585938,18.7882813 23.5585938,18.7882813 C23.7976563,18.7882813 24.0375,18.6921875 24.2773438,18.453125 C24.46875,18.2617188 24.5648438,18.021875 24.5648438,17.7828125 C24.5648438,17.7828125 24.5648438,17.7828125 24.5648438,17.7828125 C24.5648438,17.7828125 24.5648438,7.00703125 24.5648438,7.00703125 C24.5648438,6.76796875 24.46875,6.528125 24.2773438,6.28828125 C24.0382813,6.096875 23.7984375,6.00078125 23.5585938,6.00078125 C23.5585938,6.00078125 23.5585938,6.00078125 23.5585938,6.00078125 C23.3671875,6.00078125 23.1757813,6.0484375 22.9835938,6.1921875 L22.9835938,6.19140625 Z M7.3703125,9.92734375 C7.3703125,9.92734375 7.3703125,9.92734375 7.3703125,9.92734375 C7.3703125,9.92734375 4.44921875,9.92734375 4.44921875,9.92734375 C4.1140625,9.92734375 3.92265625,9.78359375 3.92265625,9.4484375 C3.92265625,9.11328125 4.1140625,8.96953125 4.44921875,8.96953125 C4.44921875,8.96953125 4.44921875,8.96953125 4.44921875,8.96953125 C4.44921875,8.96953125 7.3703125,8.96953125 7.3703125,8.96953125 C7.70546875,8.96953125 7.84921875,9.11328125 7.84921875,9.4484375 C7.84921875,9.78359375 7.70546875,9.92734375 7.3703125,9.92734375 Z"/>
  <title>Video Solid</title>
</svg>