<svg xmlns="http://www.w3.org/2000/svg" viewBox="0 0 25 25" id="voicemail">
  <path d="M19.109375,7 C19.109375,7 19.109375,7 19.109375,7 C17.625,7 16.3796875,7.5265625 15.3257812,8.58046875 C14.271875,9.634375 13.7453125,10.9273438 13.7453125,12.4117188 C13.7453125,12.4117188 13.7453125,12.4117188 13.7453125,12.4117188 C13.7453125,14.2796875 14.5117188,15.7164063 15.9960938,16.8179688 C15.9960938,16.8179688 15.9960938,16.8179688 15.9960938,16.8179688 C15.9960938,16.8179688 8.4765625,16.8179688 8.4765625,16.8179688 C10.009375,15.7640625 10.7757812,14.2796875 10.7757812,12.4117188 C10.7757812,12.4117188 10.7757812,12.4117188 10.7757812,12.4117188 C10.7757812,10.9273438 10.2492187,9.63359375 9.24296875,8.58046875 C8.1890625,7.575 6.89609375,7.04765625 5.41171875,7.04765625 C3.92734375,7.04765625 2.63359375,7.57421875 1.58046875,8.58046875 C0.5265625,9.634375 0,10.9273438 0,12.4117188 C0,13.8960937 0.5265625,15.1898438 1.58046875,16.2429688 C2.634375,17.296875 3.92734375,17.8234375 5.41171875,17.8234375 C5.41171875,17.8234375 5.41171875,17.8234375 5.41171875,17.8234375 C5.41171875,17.8234375 19.109375,17.8234375 19.109375,17.8234375 C20.59375,17.8234375 21.8875,17.296875 22.940625,16.2429688 C23.99375,15.1890625 24.5210937,13.8960937 24.5210937,12.4117188 C24.5210937,10.9273438 23.9945312,9.63359375 22.940625,8.58046875 C21.8867188,7.52734375 20.59375,7 19.109375,7 Z M0.9578125,12.4117188 C0.9578125,12.4117188 0.9578125,12.4117188 0.9578125,12.4117188 C0.9578125,11.2140625 1.3890625,10.1609375 2.2984375,9.2984375 C3.16015625,8.43671875 4.2140625,8.00546875 5.41171875,8.00546875 C6.609375,8.00546875 7.6625,8.43671875 8.525,9.2984375 C9.38671875,10.1601563 9.81796875,11.2140625 9.81796875,12.4117188 C9.81796875,13.609375 9.38671875,14.6625 8.525,15.525 C7.66328125,16.3867188 6.609375,16.8179688 5.41171875,16.8179688 C4.2140625,16.8179688 3.1609375,16.3867188 2.2984375,15.525 C1.43671875,14.6632813 1.00546875,13.609375 0.9578125,12.4117188 Z M22.2226562,15.525 C21.3609375,16.3867188 20.3070313,16.8179688 19.109375,16.8179688 C17.9117187,16.8179688 16.8585938,16.3867188 15.9960938,15.525 C15.134375,14.6632813 14.703125,13.609375 14.703125,12.4117188 C14.703125,11.2140625 15.134375,10.1609375 15.9960938,9.2984375 C16.8578125,8.43671875 17.9117187,8.00546875 19.109375,8.00546875 C20.3070313,8.00546875 21.3601562,8.43671875 22.2703125,9.2984375 C23.1320313,10.1601563 23.5632813,11.2140625 23.5632813,12.4117188 C23.5632813,12.4117188 23.5632813,12.4117188 23.5632813,12.4117188 C23.515625,13.609375 23.084375,14.6625 22.2226562,15.525 Z"/>
  <title>Voicemail</title>
</svg>