<svg xmlns="http://www.w3.org/2000/svg" viewBox="0 0 25 25" id="vr-solid">
  <path d="M23.0375,5.9640625 C23.0375,5.9640625 23.0375,5.9640625 23.0375,5.9640625 C23.0375,5.9640625 22.5585937,5.9640625 22.5585937,5.9640625 C22.5585937,5.9640625 22.5585937,5.48515625 22.5585937,5.48515625 C22.5585937,5.05390625 22.4148437,4.71875 22.1273437,4.43125 C21.8398438,4.14375 21.5046875,4 21.0734375,4 C21.0734375,4 21.0734375,4 21.0734375,4 C21.0734375,4 3.44921875,4 3.44921875,4 C3.01796875,4 2.6828125,4.14375 2.3953125,4.43125 C2.1078125,4.71875 1.9640625,5.05390625 1.9640625,5.48515625 C1.9640625,5.48515625 1.9640625,5.48515625 1.9640625,5.48515625 C1.9640625,5.48515625 1.9640625,5.9640625 1.9640625,5.9640625 C1.9640625,5.9640625 1.48515625,5.9640625 1.48515625,5.9640625 C1.05390625,5.9640625 0.71875,6.1078125 0.43125,6.3953125 C0.14375,6.6828125 0,7.01796875 0,7.44921875 C0,7.44921875 0,7.44921875 0,7.44921875 C0,7.44921875 0,19.1828125 0,19.1828125 C0,19.6140625 0.14375,19.9492188 0.43125,20.2367188 C0.71875,20.5242187 1.05390625,20.6679688 1.48515625,20.6679688 C1.48515625,20.6679688 1.48515625,20.6679688 1.48515625,20.6679688 C1.48515625,20.6679688 7.8546875,20.6679688 7.8546875,20.6679688 C8.47734375,20.6679688 8.90859375,20.3804687 9.1953125,19.7578125 C9.1953125,19.7578125 9.1953125,19.7578125 9.1953125,19.7578125 C9.1953125,19.7578125 9.6265625,18.7039062 9.6265625,18.7039062 C9.6265625,18.7039062 14.8945312,18.7039062 14.8945312,18.7039062 C14.8945312,18.7039062 15.3257812,19.7578125 15.3257812,19.7578125 C15.6132812,20.3804687 16.0445312,20.6679688 16.6664062,20.6679688 C16.6664062,20.6679688 16.6664062,20.6679688 16.6664062,20.6679688 C16.6664062,20.6679688 23.0359375,20.6679688 23.0359375,20.6679688 C23.4671875,20.6679688 23.8023437,20.5242187 24.0898437,20.2367188 C24.3773437,19.9492188 24.5210937,19.6140625 24.5210937,19.1828125 C24.5210937,19.1828125 24.5210937,19.1828125 24.5210937,19.1828125 C24.5210937,19.1828125 24.5210937,7.44921875 24.5210937,7.44921875 C24.5210937,7.01796875 24.3773437,6.6828125 24.0898437,6.3953125 C23.8023437,6.1078125 23.4671875,5.9640625 23.0359375,5.9640625 L23.0375,5.9640625 Z M8.23828125,14.2015625 C7.85546875,14.584375 7.3765625,14.7765625 6.84921875,14.7765625 C6.321875,14.7765625 5.84375,14.5851563 5.46015625,14.2015625 C5.07734375,13.81875 4.88515625,13.3398437 4.88515625,12.8125 C4.88515625,12.2851563 5.0765625,11.8070313 5.46015625,11.4234375 C5.84296875,11.040625 6.321875,10.8484375 6.84921875,10.8484375 C7.3765625,10.8484375 7.8546875,11.0398437 8.23828125,11.4234375 C8.62109375,11.80625 8.81328125,12.2851562 8.81328125,12.8125 C8.81328125,13.3398438 8.621875,13.8179688 8.23828125,14.2015625 Z M14.5125,17.7460938 C14.5125,17.7460938 10.0109375,17.7460938 10.0109375,17.7460938 C10.0109375,17.7460938 10.25,17.1234375 10.25,17.1234375 C10.6328125,16.2132813 11.3039063,15.7828125 12.2617188,15.7828125 C13.2195313,15.7828125 13.8898438,16.2140625 14.2734375,17.1234375 C14.2734375,17.1234375 14.2734375,17.1234375 14.2734375,17.1234375 C14.2734375,17.1234375 14.5125,17.7460938 14.5125,17.7460938 Z M19.0625,14.2015625 C18.6796875,14.584375 18.2007812,14.7765625 17.6734375,14.7765625 C17.1460937,14.7765625 16.6679688,14.5851563 16.284375,14.2015625 C15.9015625,13.81875 15.709375,13.3398437 15.709375,12.8125 C15.709375,12.2851563 15.9007812,11.8070313 16.284375,11.4234375 C16.6671875,11.040625 17.1460937,10.8484375 17.6734375,10.8484375 C18.2007812,10.8484375 18.6789062,11.0398437 19.0625,11.4234375 C19.4453125,11.80625 19.6375,12.2851562 19.6375,12.8125 C19.6375,13.3398438 19.4460937,13.8179688 19.0625,14.2015625 Z M21.6007812,5.48515625 C21.6007812,5.48515625 21.6007812,5.9640625 21.6007812,5.9640625 C21.6007812,5.9640625 2.92265625,5.9640625 2.92265625,5.9640625 C2.92265625,5.9640625 2.92265625,5.48515625 2.92265625,5.48515625 C2.92265625,5.15 3.1140625,4.95859375 3.44921875,4.95859375 C3.44921875,4.95859375 3.44921875,4.95859375 3.44921875,4.95859375 C3.44921875,4.95859375 21.0734375,4.95859375 21.0734375,4.95859375 C21.4085937,4.95859375 21.6,5.15 21.6,5.48515625 C21.6,5.48515625 21.6,5.48515625 21.6,5.48515625 L21.6007812,5.48515625 Z"/>
  <title>Vr Solid</title>
</svg>