<svg xmlns="http://www.w3.org/2000/svg" viewBox="0 0 25 25" id="vr">
  <path d="M23.0375,5.9640625 C23.0375,5.9640625 23.0375,5.9640625 23.0375,5.9640625 C23.0375,5.9640625 22.5585937,5.9640625 22.5585937,5.9640625 C22.5585937,5.9640625 22.5585937,5.48515625 22.5585937,5.48515625 C22.5585937,5.05390625 22.4148437,4.71875 22.1273437,4.43125 C21.8398438,4.14375 21.5046875,4 21.0734375,4 C21.0734375,4 21.0734375,4 21.0734375,4 C21.0734375,4 3.44921875,4 3.44921875,4 C3.01796875,4 2.6828125,4.14375 2.3953125,4.43125 C2.1078125,4.71875 1.9640625,5.05390625 1.9640625,5.48515625 C1.9640625,5.48515625 1.9640625,5.48515625 1.9640625,5.48515625 C1.9640625,5.48515625 1.9640625,5.9640625 1.9640625,5.9640625 C1.9640625,5.9640625 1.48515625,5.9640625 1.48515625,5.9640625 C1.05390625,5.9640625 0.71875,6.1078125 0.43125,6.3953125 C0.14375,6.6828125 0,7.01796875 0,7.44921875 C0,7.44921875 0,7.44921875 0,7.44921875 C0,7.44921875 0,19.2304687 0,19.2304687 C0,19.6617187 0.14375,19.996875 0.43125,20.284375 C0.71875,20.571875 1.05390625,20.715625 1.48515625,20.715625 C1.48515625,20.715625 1.48515625,20.715625 1.48515625,20.715625 C1.48515625,20.715625 7.8546875,20.715625 7.8546875,20.715625 C8.47734375,20.715625 8.95625,20.3804687 9.1953125,19.7578125 C9.1953125,19.7578125 9.1953125,19.7578125 9.1953125,19.7578125 C9.1953125,19.7578125 9.6265625,18.7523438 9.6265625,18.7523438 C9.6265625,18.7523438 14.8945312,18.7523438 14.8945312,18.7523438 C14.8945312,18.7523438 15.3257812,19.7578125 15.3257812,19.7578125 C15.5648437,20.3804687 16.0445312,20.715625 16.6664062,20.715625 C16.6664062,20.715625 16.6664062,20.715625 16.6664062,20.715625 C16.6664062,20.715625 23.0359375,20.715625 23.0359375,20.715625 C23.4671875,20.715625 23.8023437,20.571875 24.0898437,20.284375 C24.3773437,19.996875 24.5210937,19.6617187 24.5210937,19.2304687 C24.5210937,19.2304687 24.5210937,19.2304687 24.5210937,19.2304687 C24.5210937,19.2304687 24.5210937,7.44921875 24.5210937,7.44921875 C24.5210937,7.01796875 24.3773437,6.6828125 24.0898437,6.3953125 C23.8023437,6.1078125 23.4671875,5.9640625 23.0359375,5.9640625 L23.0375,5.9640625 Z M2.92265625,5.9640625 C2.92265625,5.9640625 2.92265625,5.48515625 2.92265625,5.48515625 C2.92265625,5.15 3.1140625,5.00625 3.44921875,5.00625 C3.44921875,5.00625 3.44921875,5.00625 3.44921875,5.00625 C3.44921875,5.00625 21.0734375,5.00625 21.0734375,5.00625 C21.4085938,5.00625 21.6,5.15 21.6,5.48515625 C21.6,5.48515625 21.6,5.48515625 21.6,5.48515625 C21.6,5.48515625 21.6,5.9640625 21.6,5.9640625 C21.6,5.9640625 2.921875,5.9640625 2.921875,5.9640625 L2.92265625,5.9640625 Z M14.5125,17.7460938 C14.5125,17.7460938 10.0109375,17.7460938 10.0109375,17.7460938 C10.0109375,17.7460938 10.25,17.1710938 10.25,17.1710938 C10.6328125,16.2609375 11.3039063,15.7820312 12.2617188,15.7820312 C13.2195313,15.7820312 13.8898438,16.2132813 14.2734375,17.1226563 C14.2734375,17.1226563 14.2734375,17.1226563 14.2734375,17.1226563 C14.2734375,17.1226563 14.5125,17.7453125 14.5125,17.7453125 L14.5125,17.7460938 Z M23.5640625,7.44921875 C23.5640625,7.44921875 23.5640625,19.2304687 23.5640625,19.2304687 C23.5640625,19.565625 23.3726562,19.709375 23.0375,19.709375 C23.0375,19.709375 23.0375,19.709375 23.0375,19.709375 C23.0375,19.709375 16.6679688,19.709375 16.6679688,19.709375 C16.5242187,19.709375 16.3804688,19.6132812 16.2367188,19.421875 C16.2367188,19.421875 16.2367188,19.421875 16.2367188,19.421875 C16.2367188,19.421875 15.1828125,16.7875 15.1828125,16.7875 C14.65625,15.4945312 13.65,14.8242187 12.2617188,14.8242187 C10.8734375,14.8242187 9.8671875,15.4945312 9.340625,16.7875 C9.340625,16.7875 9.340625,16.7875 9.340625,16.7875 C9.340625,16.7875 8.28671875,19.421875 8.28671875,19.421875 C8.14296875,19.6132812 7.99921875,19.709375 7.85546875,19.709375 C7.85546875,19.709375 7.85546875,19.709375 7.85546875,19.709375 C7.85546875,19.709375 1.4859375,19.709375 1.4859375,19.709375 C1.15078125,19.709375 0.959375,19.565625 0.959375,19.2304687 C0.959375,19.2304687 0.959375,19.2304687 0.959375,19.2304687 C0.959375,19.2304687 0.959375,7.44921875 0.959375,7.44921875 C0.959375,7.1140625 1.15078125,6.9703125 1.4859375,6.9703125 C1.4859375,6.9703125 1.4859375,6.9703125 1.4859375,6.9703125 C1.4859375,6.9703125 23.0375,6.9703125 23.0375,6.9703125 C23.3726562,6.9703125 23.5640625,7.1140625 23.5640625,7.44921875 C23.5640625,7.44921875 23.5640625,7.44921875 23.5640625,7.44921875 L23.5640625,7.44921875 Z M8.95703125,10.7539062 C8.334375,10.1789063 7.6640625,9.8921875 6.85,9.8921875 C6.0359375,9.8921875 5.365625,10.1796875 4.790625,10.7539062 C4.215625,11.3289062 3.92890625,12.046875 3.92890625,12.8609375 C3.92890625,13.675 4.21640625,14.39375 4.790625,14.9203125 C5.365625,15.4953125 6.0359375,15.7820313 6.85,15.7820313 C6.85,15.7820313 6.85,15.7820313 6.85,15.7820313 C7.6640625,15.7820313 8.3828125,15.4945313 8.95703125,14.9203125 C9.53125,14.3460937 9.81875,13.675 9.81875,12.8609375 C9.81875,12.8609375 9.81875,12.8609375 9.81875,12.8609375 C9.81875,12.046875 9.53125,11.328125 8.95703125,10.7539063 L8.95703125,10.7539062 Z M8.23828125,14.25 C7.85546875,14.6328125 7.3765625,14.825 6.84921875,14.825 C6.321875,14.825 5.84375,14.6335937 5.46015625,14.2023438 C5.07734375,13.8195313 4.88515625,13.3882812 4.88515625,12.8617187 C4.88515625,12.8617187 4.88515625,12.8617187 4.88515625,12.8617187 C4.88515625,12.3351562 5.0765625,11.85625 5.46015625,11.4726562 C5.84375,11.0890625 6.321875,10.8976563 6.84921875,10.8976563 C7.37578125,10.8976563 7.8546875,11.0890625 8.23828125,11.4726562 C8.621875,11.85625 8.81328125,12.334375 8.81328125,12.8617187 C8.81328125,13.3882812 8.621875,13.8671875 8.23828125,14.2507812 L8.23828125,14.25 Z M19.7328125,10.7539062 C19.1578125,10.1789063 18.4875,9.8921875 17.6734375,9.8921875 C16.859375,9.8921875 16.1890625,10.1796875 15.6140625,10.7539062 C14.9914063,11.3289062 14.7039063,12.046875 14.7039063,12.8609375 C14.7039063,12.8609375 14.7039063,12.8609375 14.7039063,12.8609375 C14.7039063,13.675 14.9914063,14.3453125 15.565625,14.9203125 C16.1398438,15.4953125 16.8585938,15.7820313 17.6726563,15.7820313 C17.6726563,15.7820313 17.6726563,15.7820313 17.6726563,15.7820313 C18.4867188,15.7820313 19.1570312,15.4945313 19.7320313,14.9203125 C20.3070313,14.39375 20.59375,13.675 20.59375,12.8609375 C20.59375,12.046875 20.30625,11.328125 19.7320313,10.7539063 L19.7328125,10.7539062 Z M19.0625,14.2015625 C18.6796875,14.6328125 18.2007812,14.8242188 17.6734375,14.8242188 C17.1460937,14.8242188 16.6679688,14.6328125 16.284375,14.2492188 C15.9015625,13.8664063 15.709375,13.3875 15.709375,12.8601563 C15.709375,12.3328125 15.9007812,11.8546875 16.284375,11.4710938 C16.6671875,11.0882813 17.1460937,10.8960938 17.6734375,10.8960938 C18.2007812,10.8960938 18.6789062,11.0875 19.0625,11.4710938 C19.4453125,11.8539063 19.6375,12.3328125 19.6375,12.8601563 C19.6375,12.8601563 19.6375,12.8601563 19.6375,12.8601563 C19.6375,13.3867188 19.4460937,13.8179688 19.0625,14.2007813 L19.0625,14.2015625 Z"/>
  <title>Vr</title>
</svg>