<svg xmlns="http://www.w3.org/2000/svg" viewBox="0 0 25 25" id="walkie">
  <path d="M14.8273438,4.9234375 C14.8273438,4.9234375 14.8273438,1.490625 14.8273438,1.490625 C14.8273438,1.21953125 15.046875,1 15.3179688,1 C15.5890625,1 15.8085938,1.21953125 15.8085938,1.490625 C15.8085938,1.490625 15.8085938,4.9234375 15.8085938,4.9234375 C15.8085938,4.9234375 16.7890625,4.9234375 16.7890625,4.9234375 C17.8726563,4.9234375 18.7507813,5.8015625 18.7507813,6.88515625 C18.7507813,6.88515625 18.7507813,21.596875 18.7507813,21.596875 C18.7507813,22.6804687 17.8726563,23.5585938 16.7890625,23.5585938 C16.7890625,23.5585938 8.94296875,23.5585938 8.94296875,23.5585938 C7.859375,23.5585938 6.98125,22.6804687 6.98125,21.596875 C6.98125,21.596875 6.98125,6.88515625 6.98125,6.88515625 C6.98125,5.8015625 7.859375,4.9234375 8.94296875,4.9234375 C8.94296875,4.9234375 14.8273438,4.9234375 14.8273438,4.9234375 Z M8.9421875,5.90390625 C8.9421875,5.90390625 7.96171875,6.34296875 7.96171875,6.884375 C7.96171875,6.884375 7.96171875,21.5960937 7.96171875,21.5960937 C7.96171875,22.1375 8.40078125,22.5765625 8.9421875,22.5765625 C8.9421875,22.5765625 16.7882813,22.5765625 16.7882813,22.5765625 C17.3296875,22.5765625 17.76875,22.1375 17.76875,21.5960937 C17.76875,21.5960937 17.76875,6.884375 17.76875,6.884375 C17.76875,6.34296875 17.3296875,5.90390625 16.7882813,5.90390625 C16.7882813,5.90390625 8.9421875,5.90390625 8.9421875,5.90390625 Z M9.9234375,6.88515625 C9.9234375,6.88515625 15.8078125,6.88515625 15.8078125,6.88515625 C16.3492188,6.88515625 16.7882813,7.32421875 16.7882813,7.865625 C16.7882813,7.865625 16.7882813,10.8078125 16.7882813,10.8078125 C16.7882813,11.3492188 16.3492187,11.7882813 15.8078125,11.7882813 C15.8078125,11.7882813 9.9234375,11.7882813 9.9234375,11.7882813 C9.38203125,11.7882813 8.94296875,11.3492188 8.94296875,10.8078125 C8.94296875,10.8078125 8.94296875,7.865625 8.94296875,7.865625 C8.94296875,7.32421875 9.38203125,6.88515625 9.9234375,6.88515625 Z M9.9234375,7.865625 C9.9234375,7.865625 9.9234375,10.8078125 9.9234375,10.8078125 C9.9234375,10.8078125 15.8078125,10.8078125 15.8078125,10.8078125 C15.8078125,10.8078125 15.8078125,7.865625 15.8078125,7.865625 C15.8078125,7.865625 9.9234375,7.865625 9.9234375,7.865625 Z M11.3945312,14.73125 C11.3945312,14.73125 14.3367187,14.73125 14.3367187,14.73125 C14.6078125,14.73125 14.8273437,14.5117188 14.8273437,14.240625 C14.8273437,13.9695312 14.6078125,13.75 14.3367187,13.75 C14.3367187,13.75 11.3945312,13.75 11.3945312,13.75 C11.1234375,13.75 10.9039062,13.9695312 10.9039062,14.240625 C10.9039062,14.5117188 11.1234375,14.73125 11.3945312,14.73125 L11.3945312,14.73125 Z M9.9234375,16.6921875 C9.9234375,16.6921875 15.8078125,16.6921875 15.8078125,16.6921875 C16.0789063,16.6921875 16.2984375,16.4726562 16.2984375,16.2015625 C16.2984375,15.9304687 16.0789063,15.7109375 15.8078125,15.7109375 C15.8078125,15.7109375 9.9234375,15.7109375 9.9234375,15.7109375 C9.65234375,15.7109375 9.4328125,15.9304687 9.4328125,16.2015625 C9.4328125,16.4726562 9.65234375,16.6921875 9.9234375,16.6921875 Z M9.9234375,18.6539063 C9.9234375,18.6539063 15.8078125,18.6539063 15.8078125,18.6539063 C16.0789063,18.6539063 16.2984375,18.434375 16.2984375,18.1632813 C16.2984375,17.8921875 16.0789063,17.6726562 15.8078125,17.6726562 C15.8078125,17.6726562 9.9234375,17.6726562 9.9234375,17.6726562 C9.65234375,17.6726562 9.4328125,17.8921875 9.4328125,18.1632813 C9.4328125,18.434375 9.65234375,18.6539063 9.9234375,18.6539063 Z M11.3945312,20.615625 C11.3945312,20.615625 14.3367187,20.615625 14.3367187,20.615625 C14.6078125,20.615625 14.8273437,20.3960938 14.8273437,20.125 C14.8273437,19.8539062 14.6078125,19.634375 14.3367187,19.634375 C14.3367187,19.634375 11.3945312,19.634375 11.3945312,19.634375 C11.1234375,19.634375 10.9039062,19.8539062 10.9039062,20.125 C10.9039062,20.3960938 11.1234375,20.615625 11.3945312,20.615625 L11.3945312,20.615625 Z M6.47890625,9.82734375 C6.47890625,9.82734375 6.98046875,9.82734375 6.98046875,9.82734375 C6.98046875,9.82734375 6.98046875,12.7695313 6.98046875,12.7695313 C6.98046875,12.7695313 6.47890625,12.7695313 6.47890625,12.7695313 C6.2140625,12.7695313 6,12.5554688 6,12.290625 C6,12.290625 6,10.30625 6,10.30625 C6,10.0414062 6.2140625,9.82734375 6.47890625,9.82734375 L6.47890625,9.82734375 Z"/>
  <title>Walkie</title>
</svg>