<svg xmlns="http://www.w3.org/2000/svg" viewBox="0 0 25 25" id="wallet-solid">
  <path d="M23.0789062,6.89140625 C23.0789062,6.89140625 23.0789062,6.89140625 23.0789062,6.89140625 C23.0789062,6.89140625 22.6,6.89140625 22.6,6.89140625 C22.6,6.89140625 22.6,2.9640625 22.6,2.9640625 C22.6,2.4375 22.4085937,1.95859375 22.025,1.575 C21.6414062,1.19140625 21.1632812,1 20.6359375,1 C20.6359375,1 20.6359375,1 20.6359375,1 C20.6359375,1 4.4484375,1 4.4484375,1 C3.53828125,1 2.72421875,1.33515625 2.05390625,2.00546875 C1.33515625,2.67578125 1,3.48984375 1,4.44765625 C1,4.44765625 1,4.44765625 1,4.44765625 C1,4.44765625 1,22.071875 1,22.071875 C1,22.503125 1.14375,22.8382813 1.43125,23.1257813 C1.71875,23.4132813 2.05390625,23.5570313 2.48515625,23.5570313 C2.48515625,23.5570313 2.48515625,23.5570313 2.48515625,23.5570313 C2.48515625,23.5570313 23.0789062,23.5570313 23.0789062,23.5570313 C23.5101562,23.5570313 23.8453125,23.4132813 24.1328125,23.1257813 C24.4203125,22.8382813 24.5640625,22.503125 24.5640625,22.071875 C24.5640625,22.071875 24.5640625,22.071875 24.5640625,22.071875 C24.5640625,22.071875 24.5640625,17.665625 24.5640625,17.665625 C24.5640625,17.665625 19.6789062,17.665625 19.6789062,17.665625 C19.3914062,17.665625 19.1523437,17.5695313 18.9601562,17.378125 C18.7679687,17.1867188 18.6726562,16.946875 18.6726562,16.7078125 C18.6726562,16.7078125 18.6726562,16.7078125 18.6726562,16.7078125 C18.6726562,16.7078125 18.6726562,13.7382812 18.6726562,13.7382812 C18.6726562,13.4992188 18.76875,13.259375 18.9601562,13.0679688 C19.1515625,12.8765625 19.3914062,12.7804688 19.6789062,12.7804688 C19.6789062,12.7804688 19.6789062,12.7804688 19.6789062,12.7804688 C19.6789062,12.7804688 24.5640625,12.7804688 24.5640625,12.7804688 C24.5640625,12.7804688 24.5640625,8.37421875 24.5640625,8.37421875 C24.5640625,7.94296875 24.4203125,7.6078125 24.1328125,7.3203125 C23.8453125,7.0328125 23.5101562,6.8890625 23.0789062,6.8890625 L23.0789062,6.89140625 Z M20.6359375,3.92265625 C20.6359375,3.92265625 20.6359375,6.8921875 20.6359375,6.8921875 C20.6359375,6.8921875 4.25625,6.8921875 4.25625,6.8921875 C4.06484375,6.6046875 3.96875,6.26953125 3.96875,5.88671875 C3.96875,5.88671875 3.96875,5.88671875 3.96875,5.88671875 C3.96875,5.36015625 4.16015625,4.88125 4.54375,4.49765625 C4.92734375,4.1140625 5.40546875,3.92265625 5.9328125,3.92265625 C5.9328125,3.92265625 5.9328125,3.92265625 5.9328125,3.92265625 C5.9328125,3.92265625 20.6359375,3.92265625 20.6359375,3.92265625 L20.6359375,3.92265625 Z M20.1570312,13.740625 C20.1570312,13.740625 20.1570312,13.740625 20.1570312,13.740625 C20.1570312,13.740625 24.5632812,13.740625 24.5632812,13.740625 C24.5632812,13.740625 24.5632812,16.7101563 24.5632812,16.7101563 C24.5632812,16.7101563 20.1570312,16.7101563 20.1570312,16.7101563 C19.821875,16.7101563 19.678125,16.51875 19.678125,16.1835938 C19.678125,16.1835938 19.678125,16.1835938 19.678125,16.1835938 C19.678125,16.1835938 19.678125,14.2203125 19.678125,14.2203125 C19.678125,13.8851563 19.821875,13.7414063 20.1570312,13.7414063 L20.1570312,13.740625 Z"/>
  <title>Wallet Solid</title>
</svg>