<svg xmlns="http://www.w3.org/2000/svg" viewBox="0 0 25 25" id="wallet">
  <path d="M23.0789062,6.89140625 C23.0789062,6.89140625 23.0789062,6.89140625 23.0789062,6.89140625 C23.0789062,6.89140625 22.6,6.89140625 22.6,6.89140625 C22.6,6.89140625 22.6,2.00625 22.6,2.00625 C22.6,1.7671875 22.5039062,1.52734375 22.3125,1.2875 C22.1210937,1.09609375 21.88125,1 21.6421875,1 C21.6421875,1 21.6421875,1 21.6421875,1 C21.6421875,1 4.4484375,1 4.4484375,1 C3.53828125,1 2.72421875,1.33515625 2.05390625,2.00546875 C1.33515625,2.72421875 1,3.53828125 1,4.44765625 C1,4.44765625 1,4.44765625 1,4.44765625 C1,4.44765625 1,22.1203125 1,22.1203125 C1,22.5515625 1.14375,22.8867188 1.43125,23.1257813 C1.71875,23.4132813 2.05390625,23.5570313 2.48515625,23.5570313 C2.48515625,23.5570313 2.48515625,23.5570313 2.48515625,23.5570313 C2.48515625,23.5570313 23.0789062,23.5570313 23.0789062,23.5570313 C23.5101562,23.5570313 23.8453125,23.4132813 24.1328125,23.1257813 C24.4203125,22.8867188 24.5640625,22.5507812 24.5640625,22.1203125 C24.5640625,22.1203125 24.5640625,22.1203125 24.5640625,22.1203125 C24.5640625,22.1203125 24.5640625,8.375 24.5640625,8.375 C24.5640625,7.94375 24.4203125,7.60859375 24.1328125,7.32109375 C23.8453125,7.03359375 23.5101562,6.88984375 23.0789062,6.88984375 L23.0789062,6.89140625 Z M4.4484375,2.00625 C4.4484375,2.00625 4.4484375,2.00625 4.4484375,2.00625 C4.4484375,2.00625 21.6421875,2.00625 21.6421875,2.00625 C21.6421875,2.00625 21.6421875,3.96953125 21.6421875,3.96953125 C21.6421875,3.96953125 5.93359375,3.96953125 5.93359375,3.96953125 C5.40703125,3.96953125 4.928125,4.1609375 4.54453125,4.54453125 C4.1609375,4.928125 3.96953125,5.40625 3.96953125,5.93359375 C3.96953125,5.93359375 3.96953125,5.93359375 3.96953125,5.93359375 C3.96953125,6.26875 4.065625,6.55625 4.20859375,6.89140625 C4.20859375,6.89140625 4.20859375,6.89140625 4.20859375,6.89140625 C3.5859375,6.84375 3.059375,6.55625 2.628125,6.07734375 C2.196875,5.64609375 2.00546875,5.071875 2.00546875,4.44921875 C2.00546875,4.44921875 2.00546875,4.44921875 2.00546875,4.44921875 C2.00546875,3.77890625 2.2453125,3.20390625 2.72421875,2.725 C3.203125,2.24609375 3.778125,2.00625 4.4484375,2.00625 Z M5.9328125,4.928125 C5.9328125,4.928125 21.6414062,4.928125 21.6414062,4.928125 C21.6414062,4.928125 21.6414062,6.89140625 21.6414062,6.89140625 C21.6414062,6.89140625 5.9328125,6.89140625 5.9328125,6.89140625 C5.69375,6.89140625 5.45390625,6.7953125 5.2625,6.60390625 C5.0234375,6.4125 4.92734375,6.17265625 4.92734375,5.93359375 C4.92734375,5.69453125 5.0234375,5.4546875 5.2625,5.21484375 C5.45390625,5.0234375 5.69375,4.92734375 5.9328125,4.92734375 C5.9328125,4.92734375 5.9328125,4.92734375 5.9328125,4.92734375 L5.9328125,4.928125 Z M23.6054687,13.7882813 C23.6054687,13.7882813 23.6054687,16.709375 23.6054687,16.709375 C23.6054687,16.709375 19.678125,16.709375 19.678125,16.709375 C19.678125,16.709375 19.678125,13.7882813 19.678125,13.7882813 C19.678125,13.7882813 23.6054687,13.7882813 23.6054687,13.7882813 Z M23.6054688,8.3765625 C23.6054688,8.3765625 23.6054688,12.7828125 23.6054688,12.7828125 C23.6054688,12.7828125 19.678125,12.7828125 19.678125,12.7828125 C19.390625,12.7828125 19.1515625,12.8789062 18.959375,13.0703125 C18.7671875,13.2617187 18.671875,13.5015625 18.671875,13.7890625 C18.671875,13.7890625 18.671875,13.7890625 18.671875,13.7890625 C18.671875,13.7890625 18.671875,16.7101563 18.671875,16.7101563 C18.671875,16.9492188 18.7679688,17.1890625 18.959375,17.3804687 C19.1507813,17.6195313 19.390625,17.715625 19.678125,17.715625 C19.678125,17.715625 19.678125,17.715625 19.678125,17.715625 C19.678125,17.715625 23.6054688,17.715625 23.6054688,17.715625 C23.6054688,17.715625 23.6054688,22.121875 23.6054688,22.121875 C23.6054688,22.4570312 23.4140625,22.6007812 23.0789062,22.6007812 C23.0789062,22.6007812 23.0789062,22.6007812 23.0789062,22.6007812 C23.0789062,22.6007812 2.48515625,22.6007812 2.48515625,22.6007812 C2.15,22.6007812 2.00625,22.4570312 2.00625,22.121875 C2.00625,22.121875 2.00625,22.121875 2.00625,22.121875 C2.00625,22.121875 2.00625,6.84375 2.00625,6.84375 C2.62890625,7.5625 3.44296875,7.89765625 4.4484375,7.89765625 C4.4484375,7.89765625 4.4484375,7.89765625 4.4484375,7.89765625 C4.4484375,7.89765625 23.0789062,7.89765625 23.0789062,7.89765625 C23.4140625,7.89765625 23.6054688,8.04140625 23.6054688,8.3765625 C23.6054688,8.3765625 23.6054688,8.3765625 23.6054688,8.3765625 Z"/>
  <title>Wallet</title>
</svg>