<svg xmlns="http://www.w3.org/2000/svg" viewBox="0 0 25 25" id="wand">
  <path d="M0.6703125,24.3289063 C0.6703125,24.3289063 0,23.6101562 0,23.6101562 C0,23.6101562 8.66875,14.9414062 8.66875,14.9414062 C8.66875,14.9414062 9.3875,15.6117187 9.3875,15.6117187 C9.3875,15.6117187 0.67109375,24.328125 0.67109375,24.328125 L0.6703125,24.3289063 Z M12.6914062,22.9882813 C12.6914062,22.9882813 12.6914062,16.8578125 12.6914062,16.8578125 C12.6914062,16.8578125 13.696875,16.8578125 13.696875,16.8578125 C13.696875,16.8578125 13.696875,22.9882813 13.696875,22.9882813 C13.696875,22.9882813 12.6914062,22.9882813 12.6914062,22.9882813 Z M20.4015625,19.7789062 C20.4015625,19.7789062 16.2351562,15.6125 16.2351562,15.6125 C16.2351562,15.6125 16.9539062,14.9421875 16.9539062,14.9421875 C16.9539062,14.9421875 21.0726562,19.0609375 21.0726562,19.0609375 C21.0726562,19.0609375 20.4023437,19.7796875 20.4023437,19.7796875 L20.4015625,19.7789062 Z M18.1507813,11.78125 C18.1507813,11.78125 18.1507813,10.7757812 18.1507813,10.7757812 C18.1507813,10.7757812 24.28125,10.7757812 24.28125,10.7757812 C24.28125,10.7757812 24.28125,11.78125 24.28125,11.78125 C24.28125,11.78125 18.1507813,11.78125 18.1507813,11.78125 Z M16.953125,8.0453125 C16.953125,8.0453125 16.234375,7.375 16.234375,7.375 C16.234375,7.375 20.4007812,3.20859375 20.4007812,3.20859375 C20.4007812,3.20859375 21.0710937,3.92734375 21.0710937,3.92734375 C21.0710937,3.92734375 16.9523437,8.04609375 16.9523437,8.04609375 L16.953125,8.0453125 Z M12.6914062,6.08203125 C12.6914062,6.08203125 12.6914062,0 12.6914062,0 C12.6914062,0 13.696875,0 13.696875,0 C13.696875,0 13.696875,6.08203125 13.696875,6.08203125 C13.696875,6.08203125 12.6914062,6.08203125 12.6914062,6.08203125 Z M8.66796875,8.0453125 C8.66796875,8.0453125 4.54921875,3.9265625 4.54921875,3.9265625 C4.54921875,3.9265625 5.21953125,3.2078125 5.21953125,3.2078125 C5.21953125,3.2078125 9.3859375,7.37421875 9.3859375,7.37421875 C9.3859375,7.37421875 8.6671875,8.04453125 8.6671875,8.04453125 L8.66796875,8.0453125 Z M1.29296875,11.78125 C1.29296875,11.78125 1.29296875,10.7757812 1.29296875,10.7757812 C1.29296875,10.7757812 7.375,10.7757812 7.375,10.7757812 C7.375,10.7757812 7.375,11.78125 7.375,11.78125 C7.375,11.78125 1.29296875,11.78125 1.29296875,11.78125 Z"/>
  <title>Wand</title>
</svg>