<svg xmlns="http://www.w3.org/2000/svg" viewBox="0 0 25 25" id="warn">
  <path d="M12.303125,4.10703125 C12.303125,4.10703125 2.62890625,22.4023438 2.62890625,22.4023438 C2.62890625,22.4023438 21.9773437,22.4023438 21.9773437,22.4023438 C21.9773437,22.4023438 12.303125,4.10703125 12.303125,4.10703125 Z M23.6054688,23.4078125 C23.6054688,23.4078125 1,23.4078125 1,23.4078125 C1,23.4078125 12.3023438,2 12.3023438,2 C12.3023438,2 23.6046875,23.4078125 23.6046875,23.4078125 L23.6054688,23.4078125 Z M13.5960937,9.375 C13.5960937,9.375 13.5960937,15.984375 13.5960937,15.984375 C13.2609375,16.128125 12.8773437,16.2234375 12.3984375,16.2234375 C11.9195312,16.2234375 11.4882812,16.1273438 11.153125,15.984375 C11.153125,15.984375 11.153125,15.984375 11.153125,15.984375 C11.153125,15.984375 11.153125,9.375 11.153125,9.375 C11.584375,9.03984375 11.9671875,8.89609375 12.3984375,8.89609375 C12.3984375,8.89609375 12.3984375,8.89609375 12.3984375,8.89609375 C12.8296875,8.89609375 13.2601562,9.03984375 13.5960937,9.375 C13.5960937,9.375 13.5960937,9.375 13.5960937,9.375 Z M14.075,19.4328125 C14.075,19.4328125 14.075,19.4328125 14.075,19.4328125 C14.075,19.8640625 13.93125,20.246875 13.5960937,20.5820313 C13.2609375,20.9171875 12.8296875,21.1085938 12.3507812,21.1085938 C12.3507812,21.1085938 12.3507812,21.1085938 12.3507812,21.1085938 C11.9195312,21.1085938 11.5367187,20.9171875 11.2015625,20.5820313 C10.8664062,20.246875 10.675,19.8632812 10.675,19.4328125 C10.675,19.4328125 10.675,19.4328125 10.675,19.4328125 C10.675,18.9539063 10.8664062,18.5226563 11.2015625,18.1875 C11.5367187,17.8523437 11.9203125,17.7085938 12.3507812,17.7085938 C12.3507812,17.7085938 12.3507812,17.7085938 12.3507812,17.7085938 C12.8296875,17.7085938 13.2609375,17.8523438 13.5960937,18.1875 C13.93125,18.5226563 14.075,18.9539063 14.075,19.4328125 Z"/>
  <title>Warn</title>
</svg>