<svg xmlns="http://www.w3.org/2000/svg" viewBox="0 0 25 25" id="watch-solid">
  <path d="M16.64375,3.92734375 C16.64375,3.92734375 16.64375,3.92734375 16.64375,3.92734375 C16.64375,3.92734375 6.10703125,3.92734375 6.10703125,3.92734375 C6.34609375,3.11328125 6.5859375,2.203125 6.82578125,1.14921875 C6.82578125,1.14921875 6.82578125,1.14921875 6.82578125,1.14921875 C6.96953125,0.3828125 7.4484375,0 8.21484375,0 C8.21484375,0 8.21484375,0 8.21484375,0 C8.21484375,0 8.2625,0 8.2625,0 C8.2625,0 14.4882812,0 14.4882812,0 C14.4882812,0 14.5359375,0 14.5359375,0 C15.3023438,0 15.78125,0.3828125 15.925,1.14921875 C15.925,1.14921875 15.925,1.14921875 15.925,1.14921875 C16.1640625,2.203125 16.4039062,3.1125 16.64375,3.92734375 Z M6.82578125,23.371875 C6.82578125,23.371875 6.82578125,23.371875 6.82578125,23.371875 C6.96953125,24.1382813 7.4484375,24.5210938 8.21484375,24.5210938 C8.21484375,24.5210938 8.21484375,24.5210938 8.21484375,24.5210938 C8.21484375,24.5210938 8.2625,24.5210938 8.2625,24.5210938 C8.2625,24.5210938 14.4882812,24.5210938 14.4882812,24.5210938 C14.4882812,24.5210938 14.5359375,24.5210938 14.5359375,24.5210938 C15.3023438,24.5210938 15.78125,24.1382813 15.925,23.371875 C15.925,23.371875 15.925,23.371875 15.925,23.371875 C16.1640625,22.3179688 16.4039062,21.4085938 16.64375,20.59375 C16.64375,20.59375 16.64375,20.59375 16.64375,20.59375 C16.64375,20.59375 6.10703125,20.59375 6.10703125,20.59375 C6.34609375,21.4078125 6.5859375,22.3179688 6.82578125,23.371875 Z M19.7085937,6.8484375 C19.7085937,6.8484375 19.7085937,6.8484375 19.7085937,6.8484375 C19.7085937,6.8484375 19.7085937,10.7757812 19.7085937,10.7757812 C19.9476562,10.7757812 20.1875,10.6796875 20.4273438,10.4882812 C20.61875,10.296875 20.7148438,10.0570312 20.7148438,9.81796875 C20.7148438,9.81796875 20.7148438,9.81796875 20.7148438,9.81796875 C20.7148438,9.81796875 20.7148438,7.8546875 20.7148438,7.8546875 C20.7148438,7.5671875 20.61875,7.328125 20.4273438,7.1359375 C20.1882812,6.94453125 19.9484375,6.8484375 19.7085937,6.8484375 L19.7085937,6.8484375 Z M17.2664063,4.88515625 C17.2664063,4.88515625 17.2664063,4.88515625 17.2664063,4.88515625 C17.2664063,4.88515625 5.48515625,4.88515625 5.48515625,4.88515625 C5.05390625,4.88515625 4.71875,5.02890625 4.43125,5.31640625 C4.14375,5.60390625 4,5.9390625 4,6.3703125 C4,6.3703125 4,6.3703125 4,6.3703125 C4,6.3703125 4,18.1515625 4,18.1515625 C4,18.5828125 4.14375,18.9179688 4.43125,19.2054688 C4.71875,19.4929687 5.05390625,19.6367188 5.48515625,19.6367188 C5.48515625,19.6367188 5.48515625,19.6367188 5.48515625,19.6367188 C5.48515625,19.6367188 17.2664063,19.6367188 17.2664063,19.6367188 C17.6976563,19.6367188 18.0328125,19.4929687 18.3203125,19.2054688 C18.6078125,18.9179688 18.7515625,18.5828125 18.7515625,18.1515625 C18.7515625,18.1515625 18.7515625,18.1515625 18.7515625,18.1515625 C18.7515625,18.1515625 18.7515625,6.3703125 18.7515625,6.3703125 C18.7515625,5.9390625 18.6078125,5.60390625 18.3203125,5.31640625 C18.0328125,5.02890625 17.6976563,4.88515625 17.2664063,4.88515625 Z"/>
  <title>Watch Solid</title>
</svg>