<svg xmlns="http://www.w3.org/2000/svg" viewBox="0 0 25 25" id="watch">
  <path d="M19.7085937,6.84921875 C19.7085937,6.84921875 19.7085937,6.84921875 19.7085937,6.84921875 C19.7085937,6.84921875 18.7507813,6.84921875 18.7507813,6.84921875 C18.7507813,6.84921875 18.7507813,6.3703125 18.7507813,6.3703125 C18.7507813,5.9390625 18.6070312,5.60390625 18.3195313,5.31640625 C18.0320313,5.02890625 17.696875,4.88515625 17.265625,4.88515625 C17.265625,4.88515625 17.265625,4.88515625 17.265625,4.88515625 C17.265625,4.88515625 17.0265625,4.88515625 17.0265625,4.88515625 C16.5476562,3.7359375 16.2125,2.53828125 15.9726562,1.29296875 C15.9726562,1.29296875 15.9726562,1.29296875 15.9726562,1.29296875 C15.78125,0.43125 15.3023437,0 14.5359375,0 C14.5359375,0 14.5359375,0 14.5359375,0 C14.5359375,0 14.4882812,0 14.4882812,0 C14.4882812,0 8.2625,0 8.2625,0 C8.2625,0 8.21484375,0 8.21484375,0 C7.4484375,0 6.96953125,0.3828125 6.82578125,1.14921875 C6.82578125,1.14921875 6.82578125,1.14921875 6.82578125,1.14921875 C6.58671875,2.4421875 6.203125,3.78359375 5.72421875,5.0765625 C5.72421875,5.0765625 5.72421875,5.0765625 5.72421875,5.0765625 C5.72421875,5.0765625 5.48515625,4.88515625 5.48515625,4.88515625 C5.05390625,4.88515625 4.71875,5.02890625 4.43125,5.31640625 C4.14375,5.60390625 4,5.9390625 4,6.3703125 C4,6.3703125 4,6.3703125 4,6.3703125 C4,6.3703125 4,18.1515625 4,18.1515625 C4,18.5828125 4.14375,18.9179688 4.43125,19.2054688 C4.71875,19.4929687 5.05390625,19.6367188 5.48515625,19.6367188 C5.48515625,19.6367188 5.48515625,19.6367188 5.48515625,19.6367188 C5.48515625,19.6367188 5.72421875,19.6367188 5.72421875,19.6367188 C6.203125,20.7859375 6.53828125,21.9835938 6.778125,23.2289063 C6.778125,23.2289063 6.778125,23.2289063 6.778125,23.2289063 C6.96953125,24.090625 7.4484375,24.521875 8.21484375,24.521875 C8.21484375,24.521875 8.21484375,24.521875 8.21484375,24.521875 C8.21484375,24.521875 8.2625,24.521875 8.2625,24.521875 C8.2625,24.521875 14.4882812,24.521875 14.4882812,24.521875 C14.4882812,24.521875 14.5359375,24.521875 14.5359375,24.521875 C15.3023438,24.521875 15.78125,24.1390625 15.925,23.3726563 C15.925,23.3726563 15.925,23.3726563 15.925,23.3726563 C16.1640625,22.0320312 16.5476562,20.7382812 17.0742188,19.4929687 C17.0742188,19.4929687 17.0742188,19.4929687 17.0742188,19.4929687 C17.0742188,19.4929687 17.265625,19.6367188 17.265625,19.6367188 C17.696875,19.6367188 18.0320313,19.4929687 18.3195313,19.2054688 C18.6070312,18.9179688 18.7507813,18.5828125 18.7507813,18.1515625 C18.7507813,18.1515625 18.7507813,18.1515625 18.7507813,18.1515625 C18.7507813,18.1515625 18.7507813,10.7757812 18.7507813,10.7757812 C18.7507813,10.7757812 19.7085937,10.7757812 19.7085937,10.7757812 C19.9476563,10.7757812 20.1875,10.6796875 20.4273438,10.4882812 C20.61875,10.296875 20.7148438,10.0570312 20.7148438,9.81796875 C20.7148438,9.81796875 20.7148438,9.81796875 20.7148438,9.81796875 C20.7148438,9.81796875 20.7148438,7.8546875 20.7148438,7.8546875 C20.7148438,7.5671875 20.61875,7.328125 20.4273438,7.1359375 C20.1882813,6.94453125 19.9484375,6.8484375 19.7085937,6.8484375 L19.7085937,6.84921875 Z M7.7359375,1.53359375 C7.7359375,1.53359375 7.78359375,1.3421875 7.78359375,1.3421875 C7.83125,1.103125 8.02265625,0.959375 8.2625,0.959375 C8.2625,0.959375 8.2625,0.959375 8.2625,0.959375 C8.2625,0.959375 14.4882812,0.959375 14.4882812,0.959375 C14.7273438,0.959375 14.9195313,1.103125 14.9671875,1.3421875 C14.9671875,1.3421875 14.9671875,1.3421875 14.9671875,1.3421875 C15.20625,2.63515625 15.5898438,3.88046875 16.0210937,5.078125 C16.0210937,5.078125 16.0210937,5.078125 16.0210937,5.078125 C16.0210937,5.078125 6.82578125,4.88671875 6.82578125,4.88671875 C7.20859375,3.78515625 7.49609375,2.6359375 7.7359375,1.534375 C7.7359375,1.534375 7.7359375,1.534375 7.7359375,1.534375 L7.7359375,1.53359375 Z M15.015625,22.9890625 C15.015625,22.9890625 14.9679688,23.1804687 14.9679688,23.1804687 C14.9203125,23.4195312 14.7289063,23.515625 14.4890625,23.515625 C14.4890625,23.515625 14.4890625,23.515625 14.4890625,23.515625 C14.4890625,23.515625 8.26328125,23.515625 8.26328125,23.515625 C8.02421875,23.515625 7.83203125,23.4195312 7.784375,23.1804687 C7.784375,23.1804687 7.784375,23.1804687 7.784375,23.1804687 C7.5453125,21.8875 7.16171875,20.6421875 6.73046875,19.4445312 C6.73046875,19.4445312 6.73046875,19.4445312 6.73046875,19.4445312 C6.73046875,19.4445312 15.9257812,19.6359375 15.9257812,19.6359375 C15.5429688,20.7375 15.2554687,21.8867188 15.015625,22.9882812 C15.015625,22.9882812 15.015625,22.9882812 15.015625,22.9882812 L15.015625,22.9890625 Z M17.7453125,6.3703125 C17.7453125,6.3703125 17.7453125,18.1515625 17.7453125,18.1515625 C17.7453125,18.4867188 17.6015625,18.6304687 17.2664063,18.6304687 C17.2664063,18.6304687 17.2664063,18.6304687 17.2664063,18.6304687 C17.2664063,18.6304687 5.48515625,18.6304687 5.48515625,18.6304687 C5.15,18.6304687 5.00625,18.4867188 5.00625,18.1515625 C5.00625,18.1515625 5.00625,18.1515625 5.00625,18.1515625 C5.00625,18.1515625 5.00625,6.3703125 5.00625,6.3703125 C5.00625,6.03515625 5.15,5.89140625 5.48515625,5.89140625 C5.48515625,5.89140625 5.48515625,5.89140625 5.48515625,5.89140625 C5.48515625,5.89140625 17.2664063,5.89140625 17.2664063,5.89140625 C17.6015625,5.89140625 17.7453125,6.03515625 17.7453125,6.3703125 C17.7453125,6.3703125 17.7453125,6.3703125 17.7453125,6.3703125 Z M19.7085937,7.85546875 C19.7085937,7.85546875 19.7085937,9.81875 19.7085937,9.81875 C19.7085937,9.81875 18.7507812,9.81875 18.7507812,9.81875 C18.7507812,9.81875 18.7507812,7.85546875 18.7507812,7.85546875 C18.7507812,7.85546875 19.7085937,7.85546875 19.7085937,7.85546875 Z"/>
  <title>Watch</title>
</svg>