<svg xmlns="http://www.w3.org/2000/svg" viewBox="0 0 25 25" id="waypoint-solid">
  <path d="M7.89765625,6.45390625 C7.89765625,6.45390625 7.89765625,6.45390625 7.89765625,6.45390625 C7.89765625,6.45390625 7.89765625,6.40625 7.89765625,6.40625 C7.89765625,5.20859375 8.32890625,4.15546875 9.190625,3.29296875 C10.0523437,2.43046875 11.10625,2 12.3039062,2 C13.5015625,2 14.5546875,2.43125 15.4171875,3.29296875 C16.2796875,4.1546875 16.7101562,5.20859375 16.7101562,6.40625 C16.7101562,6.40625 16.7101562,6.40625 16.7101562,6.40625 C16.7101562,7.5078125 16.3273437,8.51328125 15.6085937,9.32734375 C14.8898437,10.1414062 13.9320312,10.6679687 12.8304687,10.8117187 C12.8304687,10.8117187 12.8304687,10.8117187 12.8304687,10.8117187 C12.8304687,10.8117187 12.7828125,19.1929687 12.7828125,19.1929687 C12.7828125,19.528125 12.6390625,19.671875 12.3039062,19.671875 C11.96875,19.671875 11.825,19.528125 11.825,19.1929687 C11.825,19.1929687 11.825,19.1929687 11.825,19.1929687 C11.825,19.1929687 11.825,10.8117187 11.825,10.8117187 C10.7234375,10.6679688 9.765625,10.1890625 9.046875,9.375 C8.28046875,8.5609375 7.89765625,7.55546875 7.89765625,6.45390625 Z M15.2726562,15.8890625 C15.2726562,15.8890625 15.2726562,15.8890625 15.2726562,15.8890625 C15.2726562,15.8890625 15.225,15.8890625 15.225,15.8890625 C14.8898438,15.8890625 14.7460938,16.0328125 14.7460938,16.3679688 C14.7460938,16.703125 14.8898438,16.846875 15.1773438,16.846875 C15.1773438,16.846875 15.1773438,16.846875 15.1773438,16.846875 C17.3804688,17.0382813 19.1523438,17.421875 20.5414062,17.9484375 C21.9304687,18.5234375 22.6007812,19.0976562 22.6007812,19.6726563 C22.6007812,19.6726563 22.6007812,19.6726563 22.6007812,19.6726563 C22.6007812,20.0078125 22.3617187,20.2953125 21.8820312,20.6304687 C21.3554687,20.965625 20.684375,21.3007812 19.8703125,21.5882813 C19.0085937,21.9234375 17.9070312,22.1632813 16.6132812,22.3546875 C15.2726562,22.5460938 13.8351562,22.6421875 12.303125,22.6421875 C10.7710937,22.6421875 9.33359375,22.5460937 8.040625,22.3546875 C6.7,22.1632813 5.5984375,21.9234375 4.78359375,21.5882813 C3.921875,21.3007812 3.25078125,20.965625 2.771875,20.6304687 C2.2453125,20.2953125 2.00546875,20.0078125 2.00546875,19.6726563 C2.00546875,19.6726563 2.00546875,19.6726563 2.00546875,19.6726563 C2.00546875,19.0976562 2.67578125,18.5234375 4.06484375,17.9484375 C5.40546875,17.421875 7.178125,17.0382813 9.38125,16.846875 C9.38125,16.846875 9.38125,16.846875 9.38125,16.846875 C9.71640625,16.846875 9.86015625,16.703125 9.86015625,16.3679688 C9.86015625,16.0328125 9.71640625,15.8890625 9.38125,15.8890625 C9.38125,15.8890625 9.38125,15.8890625 9.38125,15.8890625 C9.38125,15.8890625 9.33359375,15.8890625 9.33359375,15.8890625 C7.0828125,16.0804688 5.1671875,16.5117188 3.490625,17.134375 C1.8140625,17.8046875 1,18.6671875 1,19.6726563 C1,19.6726563 1,19.6726563 1,19.6726563 C1,20.8703125 2.14921875,21.828125 4.4484375,22.5460938 C6.69921875,23.2648438 9.33359375,23.6 12.303125,23.6 C15.2726562,23.6 17.90625,23.2648438 20.2054688,22.5460938 C22.45625,21.8273438 23.6054688,20.8695313 23.6054688,19.6726563 C23.6054688,19.6726563 23.6054688,19.6726563 23.6054688,19.6726563 C23.6054688,18.6671875 22.7914062,17.8046875 21.1148438,17.134375 C19.4382812,16.5117188 17.5226563,16.0804688 15.271875,15.8890625 L15.2726562,15.8890625 Z"/>
  <title>Waypoint Solid</title>
</svg>