<svg xmlns="http://www.w3.org/2000/svg" viewBox="0 0 25 25" id="waypoint">
  <path d="M11.7757812,10.8117187 C11.7757812,10.8117187 11.8234375,10.8117187 11.8234375,10.8117187 C11.8234375,10.8117187 11.8234375,19.1929687 11.8234375,19.1929687 C11.8234375,19.528125 11.9671875,19.671875 12.3023437,19.671875 C12.6375,19.671875 12.78125,19.528125 12.78125,19.1929687 C12.78125,19.1929687 12.78125,19.1929687 12.78125,19.1929687 C12.78125,19.1929687 12.78125,10.8117187 12.78125,10.8117187 C13.8828125,10.6679688 14.840625,10.1414062 15.6070312,9.32734375 C16.3257812,8.51328125 16.7085937,7.5078125 16.7085937,6.40625 C16.7085937,6.40625 16.7085937,6.40625 16.7085937,6.40625 C16.7085937,5.20859375 16.2773437,4.15546875 15.415625,3.29296875 C14.5539062,2.43046875 13.5,2 12.3023437,2 C11.1046875,2 10.0515625,2.43125 9.1890625,3.29296875 C8.3265625,4.1546875 7.89609375,5.20859375 7.89609375,6.40625 C7.89609375,6.40625 7.89609375,6.40625 7.89609375,6.40625 C7.89609375,7.5078125 8.27890625,8.51328125 8.99765625,9.32734375 C9.71640625,10.1414062 10.6742187,10.6679687 11.7757812,10.8117187 C11.7757812,10.8117187 11.7757812,10.8117187 11.7757812,10.8117187 Z M9.86015625,4.0109375 C10.5304687,3.340625 11.3445312,3.00546875 12.3023438,3.00546875 C13.2601563,3.00546875 14.0742188,3.340625 14.7445313,4.0109375 C15.4148438,4.68125 15.75,5.4953125 15.75,6.453125 C15.75,6.453125 15.75,6.453125 15.75,6.453125 C15.75,7.36328125 15.4148438,8.17734375 14.7445313,8.84765625 C14.0742188,9.51796875 13.2601563,9.853125 12.3023438,9.853125 C11.3445313,9.853125 10.5304687,9.51796875 9.86015625,8.84765625 C9.18984375,8.17734375 8.8546875,7.36328125 8.8546875,6.453125 C8.8546875,6.453125 8.8546875,6.453125 8.8546875,6.453125 C8.8546875,5.4953125 9.18984375,4.68125 9.86015625,4.0109375 Z M23.6054688,19.671875 C23.6054688,19.671875 23.6054688,19.671875 23.6054688,19.671875 C23.6054688,20.8695313 22.45625,21.8273438 20.2054687,22.5453125 C17.90625,23.2640625 15.2726562,23.5992188 12.303125,23.5992188 C9.33359375,23.5992188 6.7,23.2640625 4.4484375,22.5453125 C2.14921875,21.8265625 1,20.86875 1,19.671875 C1,19.671875 1,19.671875 1,19.671875 C1,18.6664063 1.8140625,17.8039063 3.490625,17.1335938 C5.1671875,16.5109375 7.0828125,16.0796875 9.33359375,15.8882813 C9.33359375,15.8882813 9.33359375,15.8882813 9.33359375,15.8882813 C9.33359375,15.8882813 9.38125,15.8882813 9.38125,15.8882813 C9.71640625,15.8882813 9.86015625,16.0320313 9.86015625,16.3671875 C9.86015625,16.7023438 9.71640625,16.8460938 9.42890625,16.8460938 C9.42890625,16.8460938 9.42890625,16.8460938 9.42890625,16.8460938 C7.22578125,17.0375 5.45390625,17.4210938 4.06484375,17.9476563 C2.67578125,18.5226563 2.00546875,19.096875 2.00546875,19.671875 C2.00546875,19.671875 2.00546875,19.671875 2.00546875,19.671875 C2.00546875,20.0070313 2.24453125,20.2945313 2.771875,20.6296875 C3.25078125,20.9648438 3.92109375,21.3 4.78359375,21.5875 C5.59765625,21.9226562 6.69921875,22.1625 8.040625,22.3539063 C9.33359375,22.5453125 10.7703125,22.6414063 12.303125,22.6414063 C13.8359375,22.6414063 15.2726563,22.5453125 16.6132812,22.3539063 C17.90625,22.1625 19.0078125,21.9226563 19.8703125,21.5875 C20.684375,21.3 21.3546875,20.9648438 21.8820312,20.6296875 C22.3609375,20.2945313 22.6007813,20.0070313 22.6007813,19.671875 C22.6007813,19.671875 22.6007813,19.671875 22.6007813,19.671875 C22.6007813,19.096875 21.9304687,18.5226563 20.5890625,17.9476563 C19.2,17.4210938 17.428125,17.0375 15.225,16.8460938 C15.225,16.8460938 15.225,16.8460938 15.225,16.8460938 C14.8898438,16.8460938 14.7460938,16.7023438 14.7460938,16.3671875 C14.7460938,16.0320313 14.8898438,15.8882813 15.225,15.8882813 C15.225,15.8882813 15.225,15.8882813 15.225,15.8882813 C15.225,15.8882813 15.2726563,15.8882813 15.2726563,15.8882813 C17.5234375,16.0796875 19.4390625,16.5109375 21.115625,17.1335938 C22.7921875,17.8039063 23.60625,18.6664063 23.60625,19.671875 L23.6054688,19.671875 Z"/>
  <title>Waypoint</title>
</svg>