<svg xmlns="http://www.w3.org/2000/svg" viewBox="0 0 25 25" id="webcam-solid">
  <path d="M18.2296875,22.6 C18.5648438,22.6 18.7085937,22.74375 18.7085937,23.0789062 C18.7085937,23.4140625 18.5648438,23.5578125 18.2296875,23.5578125 C18.2296875,23.5578125 18.2296875,23.5578125 18.2296875,23.5578125 C18.2296875,23.5578125 6.4484375,23.5578125 6.4484375,23.5578125 C6.11328125,23.5578125 5.96953125,23.4140625 5.96953125,23.0789062 C5.96953125,22.74375 6.11328125,22.6 6.4484375,22.6 C6.4484375,22.6 6.4484375,22.6 6.4484375,22.6 C6.4484375,22.6 8.60390625,22.6 8.60390625,22.6 C8.60390625,22.6 9.465625,20.2054688 9.465625,20.2054688 C10.4710938,20.4929687 11.4289063,20.6367188 12.3390625,20.6367188 C12.3390625,20.6367188 12.3390625,20.6367188 12.3390625,20.6367188 C13.2007813,20.6367188 14.1585938,20.4929687 15.2601563,20.2054688 C15.2601563,20.2054688 15.2601563,20.2054688 15.2601563,20.2054688 C15.2601563,20.2054688 16.0742188,22.6 16.0742188,22.6 C16.0742188,22.6 18.2296875,22.6 18.2296875,22.6 L18.2296875,22.6 Z M13.8234375,8.8546875 C13.8234375,8.8546875 13.8234375,8.8546875 13.8234375,8.8546875 C13.5359375,8.8546875 13.296875,8.75859375 13.1046875,8.5671875 C12.9125,8.37578125 12.8171875,8.1359375 12.8171875,7.8484375 C12.8171875,7.8484375 12.8171875,7.8484375 12.8171875,7.8484375 C12.8171875,7.51328125 12.9609375,7.2734375 13.2960938,7.034375 C13.2960938,7.034375 13.2960938,7.034375 13.2960938,7.034375 C13.0085938,6.93828125 12.6734375,6.890625 12.3382813,6.890625 C12.3382813,6.890625 12.3382813,6.890625 12.3382813,6.890625 C11.3804688,6.890625 10.5664063,7.22578125 9.89609375,7.89609375 C9.22578125,8.56640625 8.890625,9.38046875 8.890625,10.3382813 C8.890625,10.3382813 8.890625,10.3382813 8.890625,10.3382813 C8.890625,11.2484375 9.22578125,12.0625 9.89609375,12.7328125 C10.5664063,13.4515625 11.3804688,13.7867188 12.3382813,13.7867188 C12.3382813,13.7867188 12.3382813,13.7867188 12.3382813,13.7867188 C13.2484375,13.7867188 14.0625,13.4515625 14.7804688,12.7328125 C15.4507813,12.0625 15.7859375,11.2484375 15.7859375,10.3382813 C15.7859375,10.3382813 15.7859375,10.3382813 15.7859375,10.3382813 C15.7859375,9.38046875 15.4507813,8.56640625 14.7804688,7.89609375 C14.7804688,7.89609375 14.7804688,7.89609375 14.7804688,7.89609375 C14.7804688,8.13515625 14.684375,8.375 14.4929688,8.56640625 C14.3015625,8.7578125 14.0617188,8.85390625 13.8226563,8.85390625 L13.8234375,8.8546875 Z M21.678125,10.3390625 C21.678125,10.3390625 21.678125,10.3390625 21.678125,10.3390625 C21.678125,12.8773437 20.7679688,15.0804687 18.9484375,16.9 C17.0804688,18.7195312 14.8773437,19.6296875 12.3390625,19.6296875 C9.80078125,19.6296875 7.59765625,18.7195312 5.778125,16.9 C3.91015625,15.0804687 3,12.8773437 3,10.3390625 C3,10.3390625 3,10.3390625 3,10.3390625 C3,7.753125 3.91015625,5.55 5.778125,3.7296875 C7.59765625,1.91015625 9.80078125,1 12.3390625,1 C14.8773437,1 17.0804688,1.91015625 18.9484375,3.7296875 C20.7679688,5.54921875 21.678125,7.75234375 21.678125,10.3390625 Z M15.4515625,13.4523438 C16.3132813,12.590625 16.7445313,11.5367188 16.7445313,10.3390625 C16.7445313,9.14140625 16.3132813,8.08828125 15.4515625,7.178125 C14.5898438,6.31640625 13.5359375,5.88515625 12.3382813,5.88515625 C11.140625,5.88515625 10.0875,6.31640625 9.225,7.178125 C8.36328125,8.08828125 7.93203125,9.14140625 7.93203125,10.3390625 C7.93203125,11.5367188 8.36328125,12.5898438 9.225,13.4523438 C10.0867187,14.3140625 11.140625,14.7453125 12.3382813,14.7453125 C13.5359375,14.7453125 14.5890625,14.3140625 15.4515625,13.4523438 Z"/>
  <title>Webcam Solid</title>
</svg>