<svg xmlns="http://www.w3.org/2000/svg" viewBox="0 0 25 25" id="webcam">
  <path d="M21.678125,10.3390625 C21.678125,10.3390625 21.678125,10.3390625 21.678125,10.3390625 C21.678125,7.753125 20.7679687,5.55 18.9484375,3.7296875 C17.0804687,1.91015625 14.8773437,1 12.3390625,1 C9.80078125,1 7.59765625,1.91015625 5.778125,3.7296875 C3.91015625,5.54921875 3,7.75234375 3,10.3390625 C3,10.3390625 3,10.3390625 3,10.3390625 C3,12.3507813 3.575,14.1703125 4.771875,15.7507813 C5.96953125,17.3789062 7.45390625,18.5289063 9.321875,19.1507813 C9.321875,19.1507813 9.321875,19.1507813 9.321875,19.1507813 C9.321875,19.1507813 8.0765625,22.5992188 8.0765625,22.5992188 C8.0765625,22.5992188 6.4484375,22.5992188 6.4484375,22.5992188 C6.11328125,22.5992188 5.96953125,22.7429688 5.96953125,23.078125 C5.96953125,23.4132813 6.11328125,23.5570313 6.4484375,23.5570313 C6.4484375,23.5570313 6.4484375,23.5570313 6.4484375,23.5570313 C6.4484375,23.5570313 18.2296875,23.5570313 18.2296875,23.5570313 C18.5648438,23.5570313 18.7085937,23.4132813 18.7085937,23.078125 C18.7085937,22.7429688 18.5648438,22.5992188 18.2296875,22.5992188 C18.2296875,22.5992188 18.2296875,22.5992188 18.2296875,22.5992188 C18.2296875,22.5992188 16.6015625,22.5992188 16.6015625,22.5992188 C16.6015625,22.5992188 15.3085938,19.1507812 15.3085938,19.1507812 C17.1765625,18.528125 18.7085937,17.3789062 19.90625,15.7507813 C21.1039063,14.1703125 21.678125,12.3507812 21.678125,10.3390625 Z M14.4460938,19.4390625 C14.4460938,19.4390625 15.5476563,22.6 15.5476563,22.6 C15.5476563,22.6 9.1296875,22.6 9.1296875,22.6 C9.1296875,22.6 10.3273438,19.4390625 10.3273438,19.4390625 C10.95,19.5828125 11.6203125,19.678125 12.3390625,19.678125 C12.3390625,19.678125 12.3390625,19.678125 12.3390625,19.678125 C13.009375,19.678125 13.728125,19.5820312 14.4460938,19.4390625 C14.4460938,19.4390625 14.4460938,19.4390625 14.4460938,19.4390625 Z M18.2296875,16.2296875 C16.6015625,17.8578125 14.6375,18.671875 12.3390625,18.671875 C10.040625,18.671875 8.0765625,17.8578125 6.4484375,16.2296875 C4.8203125,14.6015625 4.00625,12.6375 4.00625,10.3390625 C4.00625,8.040625 4.8203125,6.0765625 6.4484375,4.4484375 C8.0765625,2.8203125 10.040625,2.00625 12.3390625,2.00625 C14.6375,2.00625 16.6015625,2.8203125 18.2296875,4.4484375 C19.8578125,6.0765625 20.671875,8.040625 20.671875,10.3390625 C20.671875,12.6375 19.8578125,14.6015625 18.2296875,16.2296875 Z M15.4515625,7.22578125 C14.5898438,6.3640625 13.5359375,5.9328125 12.3382813,5.9328125 C11.140625,5.9328125 10.0875,6.3640625 9.225,7.22578125 C8.36328125,8.0875 7.93203125,9.14140625 7.93203125,10.3390625 C7.93203125,11.5367188 8.36328125,12.5898438 9.225,13.4523438 C10.0867187,14.3140625 11.140625,14.7453125 12.3382813,14.7453125 C13.5359375,14.7453125 14.5890625,14.3140625 15.4515625,13.4523438 C16.3132813,12.590625 16.7445313,11.5367188 16.7445313,10.3390625 C16.7445313,9.14140625 16.3132813,8.08828125 15.4515625,7.22578125 Z M14.78125,12.7820313 C14.1109375,13.4523438 13.296875,13.7875 12.3390625,13.7875 C11.38125,13.7875 10.5671875,13.4523438 9.896875,12.7820313 C9.2265625,12.1117188 8.89140625,11.2976563 8.89140625,10.3398438 C8.89140625,9.38203125 9.2265625,8.56796875 9.896875,7.89765625 C10.5671875,7.22734375 11.38125,6.8921875 12.3390625,6.8921875 C13.296875,6.8921875 14.1109375,7.22734375 14.78125,7.89765625 C15.4515625,8.56796875 15.7867187,9.38203125 15.7867187,10.3398438 C15.7867187,11.2976563 15.4515625,12.1117188 14.78125,12.7820313 Z"/>
  <title>Webcam</title>
</svg>