<svg xmlns="http://www.w3.org/2000/svg" viewBox="0 0 25 25" id="wifi-none">
  <path d="M24.521875,5.92734375 C24.521875,5.92734375 12.2609375,22.59375 12.2609375,22.59375 C12.2609375,22.59375 0,5.92734375 0,5.92734375 C3.6875,3.29296875 7.75859375,2 12.2609375,2 C16.7632813,2 20.8335938,3.29296875 24.521875,5.92734375 C24.521875,5.92734375 24.521875,5.92734375 24.521875,5.92734375 Z M1.38984375,6.0703125 C1.38984375,6.0703125 1.4375,6.0703125 1.4375,6.0703125 C1.4375,6.0703125 12.2132813,21.1085937 12.2132813,21.1085937 C12.2132813,21.1085937 23.0367188,6.0703125 23.0367188,6.0703125 C19.7320313,4.0109375 16.0921875,3.00546875 12.2132813,3.00546875 C8.2859375,3.00546875 4.69375,4.0109375 1.38984375,6.0703125 C1.38984375,6.0703125 1.38984375,6.0703125 1.38984375,6.0703125 Z M12.9796875,9.375 C12.9796875,9.375 15.6617188,6.6453125 15.6617188,6.6453125 C15.6617188,6.6453125 14.9429688,5.975 14.9429688,5.975 C14.9429688,5.975 12.2609375,8.65703125 12.2609375,8.65703125 C12.2609375,8.65703125 9.57890625,5.975 9.57890625,5.975 C9.57890625,5.975 8.86015625,6.6453125 8.86015625,6.6453125 C8.86015625,6.6453125 11.5421875,9.375 11.5421875,9.375 C11.5421875,9.375 8.86015625,12.0570313 8.86015625,12.0570313 C8.86015625,12.0570313 9.57890625,12.7273438 9.57890625,12.7273438 C9.57890625,12.7273438 12.2609375,10.0453125 12.2609375,10.0453125 C12.2609375,10.0453125 14.9429688,12.7273438 14.9429688,12.7273438 C14.9429688,12.7273438 15.6617188,12.0570313 15.6617188,12.0570313 C15.6617188,12.0570313 12.9796875,9.375 12.9796875,9.375 Z"/>
  <title>Wifi None</title>
</svg>