<svg xmlns="http://www.w3.org/2000/svg" viewBox="0 0 25 25" id="wifi">
  <path d="M21.4984375,12.0039062 C21.4984375,12.0039062 21.5460937,12.0515625 21.5460937,12.0515625 C21.5460937,12.0992187 21.5460937,12.1476562 21.59375,12.1953125 C21.59375,12.2429687 21.59375,12.2914062 21.59375,12.3390625 C21.59375,12.3390625 21.59375,12.3390625 21.59375,12.3390625 C21.59375,12.5304687 21.4976562,12.6742187 21.3546875,12.721875 C21.3546875,12.721875 21.3546875,12.721875 21.3546875,12.721875 C21.3070312,12.7695312 21.2109375,12.8179687 21.115625,12.8179687 C21.115625,12.8179687 21.115625,12.8179687 21.115625,12.8179687 C20.9242187,12.8179687 20.7804687,12.721875 20.684375,12.5789062 C20.684375,12.5789062 20.684375,12.5789062 20.684375,12.5789062 C19.8226562,11.2382812 18.7210938,10.184375 17.3320312,9.3703125 C15.9429687,8.60390625 14.4109375,8.22109375 12.7820312,8.22109375 C12.7820312,8.22109375 12.7820312,8.22109375 12.7820312,8.22109375 C11.1054687,8.22109375 9.62109375,8.60390625 8.23203125,9.3703125 C6.84296875,10.184375 5.69375,11.2382812 4.8796875,12.53125 C4.8796875,12.53125 4.8796875,12.53125 4.8796875,12.53125 C4.7359375,12.7226562 4.5921875,12.81875 4.4484375,12.81875 C4.4484375,12.81875 4.4484375,12.81875 4.4484375,12.81875 C4.11328125,12.81875 3.96953125,12.675 3.96953125,12.3398437 C3.96953125,12.3398437 3.96953125,12.3398437 3.96953125,12.3398437 C3.96953125,12.1960937 3.96953125,12.1007812 4.0171875,12.0523437 C4.0171875,12.0523437 4.0171875,12.0523437 4.0171875,12.0523437 C4.975,10.5679687 6.2203125,9.3703125 7.753125,8.50859375 C9.2859375,7.646875 10.9617187,7.215625 12.7820312,7.215625 C12.7820312,7.215625 12.7820312,7.215625 12.7820312,7.215625 C14.5539062,7.215625 16.2304687,7.646875 17.8109375,8.50859375 C19.34375,9.3703125 20.5890625,10.5203125 21.4984375,12.0046875 C21.4984375,12.0046875 21.4984375,12.0046875 21.4984375,12.0046875 L21.4984375,12.0039062 Z M13.0210938,11.8125 C13.0210938,11.8125 13.0210938,11.8125 13.0210938,11.8125 C10.6265625,11.8601562 8.75859375,12.9140625 7.465625,14.8773437 C7.465625,14.8773437 7.465625,14.8773437 7.465625,14.8773437 C7.41796875,15.0210937 7.36953125,15.1164062 7.36953125,15.1648437 C7.36953125,15.1648437 7.36953125,15.1648437 7.36953125,15.1648437 C7.36953125,15.5 7.51328125,15.64375 7.8484375,15.64375 C7.8484375,15.64375 7.8484375,15.64375 7.8484375,15.64375 C8.03984375,15.64375 8.18359375,15.5476562 8.2796875,15.4046875 C8.2796875,15.4046875 8.2796875,15.4046875 8.2796875,15.4046875 C9.38125,13.6804687 10.9617188,12.81875 13.0210938,12.81875 C15.0804688,12.81875 16.6609375,13.6804687 17.7625,15.4046875 C17.7625,15.4046875 17.7625,15.4046875 17.7625,15.4046875 C17.8585938,15.5484375 18.0015625,15.64375 18.1453125,15.64375 C18.1453125,15.64375 18.1453125,15.64375 18.1453125,15.64375 C18.4804688,15.64375 18.671875,15.5 18.671875,15.1648437 C18.671875,15.1648437 18.671875,15.1648437 18.671875,15.1648437 C18.671875,15.1171875 18.6242188,15.0210937 18.5757812,14.8773437 C18.5757812,14.8773437 18.5757812,14.8773437 18.5757812,14.8773437 C17.2828125,12.9140625 15.4148437,11.8601562 13.0203125,11.8125 L13.0210938,11.8125 Z M24.4671875,9.41796875 C24.4671875,9.41796875 24.4671875,9.41796875 24.4671875,9.41796875 C23.1742188,7.4546875 21.5460938,5.87421875 19.4867188,4.72421875 C17.4273438,3.57421875 15.1765625,3 12.7820313,3 C10.3875,3 8.184375,3.575 6.125,4.72421875 C4.065625,5.8734375 2.3890625,7.40625 1.09609375,9.36953125 C1.09609375,9.36953125 1.09609375,9.36953125 1.09609375,9.36953125 C1.0484375,9.5609375 1,9.65703125 1,9.7046875 C1,9.7046875 1,9.7046875 1,9.7046875 C1,10.0398437 1.14375,10.1835937 1.47890625,10.1835937 C1.47890625,10.1835937 1.47890625,10.1835937 1.47890625,10.1835937 C1.62265625,10.1835937 1.76640625,10.1359375 1.91015625,9.9921875 C1.91015625,9.9921875 1.91015625,9.9921875 1.91015625,9.9921875 C3.059375,8.12421875 4.5921875,6.6875 6.55546875,5.5859375 C8.47109375,4.53203125 10.5304688,4.00546875 12.78125,4.00546875 C15.0320313,4.00546875 17.0914062,4.53203125 19.0070313,5.5859375 C20.875,6.6875 22.4070313,8.12421875 23.6046875,9.94453125 C23.6046875,9.94453125 23.6046875,9.94453125 23.6046875,9.94453125 C23.7484375,10.0882812 23.8921875,10.1835937 24.0359375,10.1835937 C24.0359375,10.1835937 24.0359375,10.1835937 24.0359375,10.1835937 C24.0359375,10.1835937 24.0359375,10.1835937 24.0359375,10.1835937 C24.1796875,10.1835937 24.275,10.1835937 24.3234375,10.1359375 C24.3234375,10.1359375 24.3234375,10.1359375 24.3234375,10.1359375 C24.4671875,10.0398437 24.5625,9.896875 24.5625,9.7046875 C24.5625,9.7046875 24.5625,9.7046875 24.5625,9.7046875 C24.5625,9.65703125 24.5148438,9.5609375 24.4664062,9.4171875 L24.4671875,9.41796875 Z M12.78125,16.7453125 C12.78125,16.7453125 12.78125,16.7453125 12.78125,16.7453125 C12.0625,16.7453125 11.4882812,16.984375 11.0570312,17.4640625 C10.578125,17.9429688 10.3382812,18.5179688 10.3382812,19.1882813 C10.3382812,19.8585938 10.5773437,20.4335938 11.0570312,20.9125 C11.4882812,21.3914063 12.0625,21.63125 12.78125,21.63125 C12.78125,21.63125 12.78125,21.63125 12.78125,21.63125 C13.4515625,21.63125 14.0265625,21.3921875 14.5054687,20.9125 C14.984375,20.4328125 15.2242188,19.8585938 15.2242188,19.1882813 C15.2242188,18.5179688 14.9851562,17.9429688 14.5054687,17.4640625 C14.0257812,16.9851563 13.4515625,16.7453125 12.78125,16.7453125 Z"/>
  <title>Wifi</title>
</svg>