<svg xmlns="http://www.w3.org/2000/svg" viewBox="0 0 25 25" id="wifi-off">
  <path d="M24.521875,5.92734375 C24.521875,5.92734375 12.2609375,22.59375 12.2609375,22.59375 C12.2609375,22.59375 0,5.92734375 0,5.92734375 C3.6875,3.29296875 7.75859375,2 12.2609375,2 C16.7632813,2 20.8335938,3.29296875 24.521875,5.92734375 C24.521875,5.92734375 24.521875,5.92734375 24.521875,5.92734375 Z M1.38984375,6.0703125 C1.38984375,6.0703125 1.4375,6.0703125 1.4375,6.0703125 C1.4375,6.0703125 12.2132813,21.1085937 12.2132813,21.1085937 C12.2132813,21.1085937 23.0367188,6.0703125 23.0367188,6.0703125 C19.7320313,4.0109375 16.0921875,3.00546875 12.2132813,3.00546875 C8.2859375,3.00546875 4.69375,4.0109375 1.38984375,6.0703125 C1.38984375,6.0703125 1.38984375,6.0703125 1.38984375,6.0703125 Z"/>
  <title>Wifi Off</title>
</svg>