<svg xmlns="http://www.w3.org/2000/svg" viewBox="0 0 25 25" id="wizard-solid">
  <path d="M1,6.85 C1,6.85 23.6054688,6.85 23.6054688,6.85 C23.6054688,6.85 23.6054688,24.5226562 23.6054688,24.5226562 C23.6054688,24.5226562 1,24.5226562 1,24.5226562 C1,24.5226562 1,6.85 1,6.85 Z M20.6359375,9.81875 C20.6359375,9.81875 3.96953125,9.81875 3.96953125,9.81875 C3.96953125,9.81875 3.96953125,11.7820312 3.96953125,11.7820312 C3.96953125,11.7820312 20.6359375,11.7820312 20.6359375,11.7820312 C20.6359375,11.7820312 20.6359375,9.81875 20.6359375,9.81875 Z M13.7875,13.7460938 C13.7875,13.7460938 3.96953125,13.7460938 3.96953125,13.7460938 C3.96953125,13.7460938 3.96953125,15.709375 3.96953125,15.709375 C3.96953125,15.709375 13.7875,15.709375 13.7875,15.709375 C13.7875,15.709375 13.7875,13.7460938 13.7875,13.7460938 Z M20.6359375,13.7460938 C20.6359375,13.7460938 15.7507812,13.7460938 15.7507812,13.7460938 C15.7507812,13.7460938 15.7507812,15.709375 15.7507812,15.709375 C15.7507812,15.709375 20.6359375,15.709375 20.6359375,15.709375 C20.6359375,15.709375 20.6359375,13.7460938 20.6359375,13.7460938 Z M18.8164062,18.1523438 C18.8164062,18.1523438 18.8164062,19.1101562 18.8164062,19.1101562 C18.8164062,19.1101562 15.8953125,19.1101562 15.8953125,19.1101562 C15.8953125,19.1101562 15.8953125,21.0734375 15.8953125,21.0734375 C15.8953125,21.0734375 18.8164062,21.0734375 18.8164062,21.0734375 C18.8164062,21.0734375 18.8164062,22.0789062 18.8164062,22.0789062 C18.8164062,22.0789062 20.7796875,20.115625 20.7796875,20.115625 C20.7796875,20.115625 18.8164062,18.1523438 18.8164062,18.1523438 L18.8164062,18.1523438 Z M5.21484375,0.71953125 C5.69375,1.1984375 5.93359375,1.7734375 5.93359375,2.44375 C5.93359375,3.1140625 5.69453125,3.6890625 5.21484375,4.16796875 C4.7359375,4.646875 4.1609375,4.88671875 3.490625,4.88671875 C3.490625,4.88671875 3.490625,4.88671875 3.490625,4.88671875 C2.771875,4.88671875 2.19765625,4.64765625 1.71875,4.16796875 C1.23984375,3.68828125 1,3.1140625 1,2.44375 C1,1.7734375 1.23984375,1.1984375 1.71875,0.71953125 C2.19765625,0.240625 2.77265625,0.00078125 3.490625,0.00078125 C3.490625,0.00078125 3.490625,0.00078125 3.490625,0.00078125 C4.1609375,0.00078125 4.7359375,0.23984375 5.21484375,0.71953125 L5.21484375,0.71953125 Z M20.109375,3.496875 C20.3484375,3.784375 20.684375,3.928125 21.1148437,3.928125 C21.5453125,3.928125 21.88125,3.784375 22.16875,3.496875 C22.45625,3.209375 22.6,2.87421875 22.6,2.44296875 C22.6,2.01171875 22.45625,1.6765625 22.16875,1.3890625 C21.88125,1.1015625 21.5460938,0.9578125 21.1148437,0.9578125 C20.6835938,0.9578125 20.3484375,1.1015625 20.109375,1.3890625 C19.821875,1.6765625 19.678125,2.01171875 19.678125,2.44296875 C19.678125,2.87421875 19.821875,3.209375 20.109375,3.496875 Z M21.1148438,4.8859375 C21.1148438,4.8859375 21.1148438,4.8859375 21.1148438,4.8859375 C20.4445313,4.8859375 19.8695313,4.646875 19.390625,4.1671875 C18.9117188,3.6875 18.671875,3.11328125 18.671875,2.44296875 C18.671875,1.77265625 18.9109375,1.19765625 19.390625,0.71875 C19.8703125,0.23984375 20.4445313,0 21.1148438,0 C21.1148438,0 21.1148438,0 21.1148438,0 C21.8335938,0 22.4078125,0.2390625 22.8867188,0.71875 C23.365625,1.1984375 23.6054688,1.77265625 23.6054688,2.44296875 C23.6054688,3.11328125 23.3664063,3.68828125 22.8867188,4.1671875 C22.4070313,4.64609375 21.8328125,4.8859375 21.1148438,4.8859375 Z M11.2492188,3.496875 C11.5367188,3.784375 11.871875,3.928125 12.303125,3.928125 C12.734375,3.928125 13.0695313,3.784375 13.3570312,3.496875 C13.6445312,3.209375 13.7882813,2.87421875 13.7882813,2.44296875 C13.7882813,2.01171875 13.6445312,1.6765625 13.3570312,1.3890625 C13.0695313,1.1015625 12.734375,0.9578125 12.303125,0.9578125 C11.871875,0.9578125 11.5367188,1.1015625 11.2492188,1.3890625 C10.9617187,1.6765625 10.8179688,2.01171875 10.8179688,2.44296875 C10.8179688,2.87421875 10.9617187,3.209375 11.2492188,3.496875 L11.2492188,3.496875 Z M14.0265625,4.16796875 C13.5476562,4.646875 12.9726562,4.88671875 12.3023438,4.88671875 C11.6320313,4.88671875 11.0570313,4.64765625 10.578125,4.16796875 C10.0992188,3.6890625 9.859375,3.1140625 9.859375,2.44375 C9.859375,1.7734375 10.0984375,1.1984375 10.578125,0.71953125 C11.0570312,0.240625 11.6320313,0.00078125 12.3023438,0.00078125 C12.9726562,0.00078125 13.5476562,0.23984375 14.0265625,0.71953125 C14.5054687,1.1984375 14.7453125,1.7734375 14.7453125,2.44375 C14.7453125,3.1140625 14.50625,3.6890625 14.0265625,4.16796875 Z M14.2664062,2.92265625 C14.2664062,2.92265625 14.2664062,1.96484375 14.2664062,1.96484375 C14.2664062,1.96484375 19.1515625,1.96484375 19.1515625,1.96484375 C19.1515625,1.96484375 19.1515625,2.92265625 19.1515625,2.92265625 C19.1515625,2.92265625 14.2664062,2.92265625 14.2664062,2.92265625 Z M2.9640625,2.92265625 C2.9640625,2.92265625 2.9640625,1.96484375 2.9640625,1.96484375 C2.9640625,1.96484375 10.3398438,1.96484375 10.3398438,1.96484375 C10.3398438,1.96484375 10.3398438,2.92265625 10.3398438,2.92265625 C10.3398438,2.92265625 2.9640625,2.92265625 2.9640625,2.92265625 Z"/>
  <title>Wizard Solid</title>
</svg>