<svg xmlns="http://www.w3.org/2000/svg" viewBox="0 0 25 25" id="wrench">
  <path d="M16.9539062,0.0015625 C16.9539062,0.0015625 16.9539062,0.0015625 16.9539062,0.0015625 C14.6070313,0.09765625 12.7390625,0.815625 11.4460938,2.2046875 C11.4460938,2.2046875 11.4460938,2.2046875 11.4460938,2.2046875 C10.3445313,3.30625 9.67421875,4.59921875 9.38671875,6.084375 C9.09921875,7.56953125 9.24296875,9.05390625 9.865625,10.4429687 C9.865625,10.4429687 9.865625,10.4429687 9.865625,10.4429687 C9.865625,10.4429687 0.86171875,19.446875 0.86171875,19.446875 C0.28671875,19.9734375 0,20.6445312 0,21.4585937 C0,22.2726562 0.2875,22.9429687 0.86171875,23.4703125 C0.86171875,23.4703125 0.86171875,23.4703125 0.86171875,23.4703125 C1.43671875,24.0453125 2.10703125,24.3320312 2.8734375,24.3320312 C2.8734375,24.3320312 2.8734375,24.3320312 2.8734375,24.3320312 C3.6875,24.3320312 4.3578125,24.0445313 4.88515625,23.421875 C4.88515625,23.421875 4.88515625,23.421875 4.88515625,23.421875 C4.88515625,23.421875 13.8890625,14.465625 13.8890625,14.465625 C14.7992187,14.8484375 15.7570312,15.040625 16.8101563,15.040625 C16.8101563,15.040625 16.8101563,15.040625 16.8101563,15.040625 C18.965625,15.040625 20.7375,14.321875 22.1265625,12.8375 C22.1265625,12.8375 22.1265625,12.8375 22.1265625,12.8375 C23.515625,11.4484375 24.2820312,9.72421875 24.3296875,7.66484375 C24.3296875,7.66484375 24.3296875,7.66484375 24.3296875,7.66484375 C24.3296875,7.23359375 24.1382813,6.8984375 23.7546875,6.7546875 C23.7546875,6.7546875 23.7546875,6.7546875 23.7546875,6.7546875 C23.6585937,6.70703125 23.515625,6.65859375 23.371875,6.65859375 C23.371875,6.65859375 23.371875,6.65859375 23.371875,6.65859375 C23.084375,6.65859375 22.8453125,6.7546875 22.7015625,6.89765625 C22.7015625,6.89765625 22.7015625,6.89765625 22.7015625,6.89765625 C22.7015625,6.89765625 21.6476563,7.85546875 21.6476563,7.85546875 C21.6476563,7.85546875 17.9117187,8.190625 17.9117187,8.190625 C17.9117187,8.190625 16.2351562,6.5140625 16.2351562,6.5140625 C16.2351562,6.5140625 16.6179687,2.73046875 16.6179687,2.73046875 C16.6179687,2.73046875 17.671875,1.6765625 17.671875,1.6765625 C18.0070312,1.34140625 18.0546875,1.00625 17.8632812,0.575 C17.8632812,0.575 17.8632812,0.575 17.8632812,0.575 C17.7195312,0.1921875 17.384375,0 16.953125,0 L16.9539062,0.0015625 Z M16.9539063,0.959375 C16.9539063,0.959375 16.9539063,0.959375 16.9539063,0.959375 C16.9539063,0.959375 15.7085938,2.25234375 15.7085938,2.25234375 C15.7085938,2.25234375 15.1820312,6.85 15.1820312,6.85 C15.1820312,6.85 17.5765625,9.196875 17.5765625,9.196875 C17.5765625,9.196875 22.078125,8.8140625 22.078125,8.8140625 C22.078125,8.8140625 23.3710938,7.61640625 23.3710938,7.61640625 C23.275,9.484375 22.6046875,11.0164062 21.4078125,12.1664062 C21.4078125,12.1664062 21.4078125,12.1664062 21.4078125,12.1664062 C20.1625,13.459375 18.6296875,14.0820312 16.8101563,14.0820312 C16.8101563,14.0820312 16.8101563,14.0820312 16.8101563,14.0820312 C15.7085938,14.0820312 14.703125,13.7945312 13.696875,13.2679687 C13.696875,13.2679687 13.696875,13.2679687 13.696875,13.2679687 C13.696875,13.2679687 4.16640625,22.7507812 4.16640625,22.7507812 C3.83125,23.1335937 3.4,23.3257812 2.8734375,23.3257812 C2.346875,23.3257812 1.915625,23.134375 1.5328125,22.7507812 C1.5328125,22.7507812 1.5328125,22.7507812 1.5328125,22.7507812 C1.19765625,22.415625 1.00625,21.984375 1.00625,21.4578125 C1.00625,20.93125 1.19765625,20.5 1.5328125,20.1648437 C1.5328125,20.1648437 1.5328125,20.1648437 1.5328125,20.1648437 C1.5328125,20.1648437 11.015625,10.634375 11.015625,10.634375 C10.3453125,9.3890625 10.1054688,8.0484375 10.296875,6.61171875 C10.4882813,5.175 11.1109375,3.9296875 12.1171875,2.92421875 C12.1171875,2.92421875 12.1171875,2.92421875 12.1171875,2.92421875 C13.3148438,1.7265625 14.8953125,1.1046875 16.9546875,0.9609375 C16.9546875,0.9609375 16.9546875,0.9609375 16.9546875,0.9609375 L16.9539063,0.959375 Z"/>
  <title>Wrench</title>
</svg>