<svg xmlns="http://www.w3.org/2000/svg" viewBox="0 0 25 25" id="wrench-solid">
  <path d="M18.0070313,0.5734375 C18.0070313,0.5734375 18.0070313,0.5734375 18.0070313,0.5734375 C18.1984375,1.0046875 18.1507813,1.3875 17.815625,1.675 C17.815625,1.675 17.815625,1.675 17.815625,1.675 C17.815625,1.675 16.7617188,2.72890625 16.7617188,2.72890625 C16.7617188,2.72890625 16.3789063,6.56015625 16.3789063,6.56015625 C16.3789063,6.56015625 18.0554688,8.23671875 18.0554688,8.23671875 C18.0554688,8.23671875 21.8390625,7.9015625 21.8390625,7.9015625 C21.8390625,7.9015625 22.8929688,6.94375 22.8929688,6.94375 C23.0367188,6.8 23.2757813,6.7046875 23.5632813,6.7046875 C23.5632813,6.7046875 23.5632813,6.7046875 23.5632813,6.7046875 C23.7070313,6.7046875 23.8023438,6.75234375 23.9460938,6.80078125 C23.9460938,6.80078125 23.9460938,6.80078125 23.9460938,6.80078125 C24.3289063,6.94453125 24.5210937,7.23203125 24.5210937,7.7109375 C24.5210937,7.7109375 24.5210937,7.7109375 24.5210937,7.7109375 C24.4734375,9.7703125 23.7546875,11.4945312 22.3179687,12.93125 C22.3179687,12.93125 22.3179687,12.93125 22.3179687,12.93125 C20.88125,14.415625 19.109375,15.134375 16.9539062,15.134375 C16.9539062,15.134375 16.9539062,15.134375 16.9539062,15.134375 C15.8523437,15.134375 14.8945313,14.9429687 13.984375,14.559375 C13.984375,14.559375 13.984375,14.559375 13.984375,14.559375 C13.984375,14.559375 4.9328125,23.6109375 4.9328125,23.6109375 C4.3578125,24.2335937 3.6875,24.5210937 2.8734375,24.5210937 C2.8734375,24.5210937 2.8734375,24.5210937 2.8734375,24.5210937 C2.10703125,24.5210937 1.43671875,24.2335937 0.86171875,23.659375 C0.86171875,23.659375 0.86171875,23.659375 0.86171875,23.659375 C0.28671875,23.1328125 0,22.4617187 0,21.6476562 C0,21.6476562 0,21.6476562 0,21.6476562 C0,20.8335937 0.2875,20.1148437 0.86171875,19.5882812 C0.86171875,19.5882812 0.86171875,19.5882812 0.86171875,19.5882812 C0.86171875,19.5882812 9.96171875,10.5367187 9.96171875,10.5367187 C9.3390625,9.05234375 9.14765625,7.615625 9.4828125,6.13046875 C9.4828125,6.13046875 9.4828125,6.13046875 9.4828125,6.13046875 C9.7703125,4.59765625 10.440625,3.3046875 11.5421875,2.203125 C11.5421875,2.203125 11.5421875,2.203125 11.5421875,2.203125 C12.8351562,0.8140625 14.6554687,0.09609375 17.0976562,0 C17.0976562,0 17.0976562,0 17.0976562,0 C17.5765625,0 17.8640625,0.19140625 18.0078125,0.575 C18.0078125,0.575 18.0078125,0.575 18.0078125,0.575 L18.0070313,0.5734375 Z"/>
  <title>Wrench Solid</title>
</svg>