<svg xmlns="http://www.w3.org/2000/svg" viewBox="0 0 25 25" id="youtube">
  <path d="M17.0984375,13.4828125 C17.3859375,13.3390625 17.5296875,13.1 17.5296875,12.7640625 C17.5296875,12.428125 17.3859375,12.1890625 17.0984375,12.0453125 C17.0984375,12.0453125 17.0984375,12.0453125 17.0984375,12.0453125 C17.0984375,12.0453125 10.10625,7.6390625 10.10625,7.6390625 C9.81875,7.44765625 9.53125,7.44765625 9.19609375,7.6390625 C9.19609375,7.6390625 9.19609375,7.6390625 9.19609375,7.6390625 C8.90859375,7.7828125 8.76484375,8.0703125 8.76484375,8.40546875 C8.76484375,8.40546875 8.76484375,8.40546875 8.76484375,8.40546875 C8.76484375,8.40546875 8.76484375,17.121875 8.76484375,17.121875 C8.76484375,17.4570312 8.90859375,17.7445312 9.19609375,17.8882812 C9.19609375,17.8882812 9.19609375,17.8882812 9.19609375,17.8882812 C9.33984375,17.984375 9.48359375,18.0320312 9.62734375,18.0320312 C9.62734375,18.0320312 9.62734375,18.0320312 9.62734375,18.0320312 C9.77109375,18.0320312 9.9625,17.984375 10.10625,17.8882812 C10.10625,17.8882812 10.10625,17.8882812 10.10625,17.8882812 C10.10625,17.8882812 17.0984375,13.4820313 17.0984375,13.4820313 L17.0984375,13.4828125 Z M24.521875,10.7054688 C24.521875,10.7054688 24.521875,12.7648438 24.521875,12.7648438 C24.521875,12.7648438 24.521875,14.8242188 24.521875,14.8242188 C24.521875,15.303125 24.4742188,15.9257813 24.378125,16.6921875 C24.378125,16.6921875 24.378125,16.6921875 24.378125,16.6921875 C24.3304688,17.4585938 24.234375,18.1289062 24.090625,18.7039062 C24.090625,18.7039062 24.090625,18.7039062 24.090625,18.7039062 C23.946875,19.3742188 23.6117188,19.9492188 23.1328125,20.3804688 C23.1328125,20.3804688 23.1328125,20.3804688 23.1328125,20.3804688 C22.7015625,20.8117188 22.1273438,21.0992188 21.45625,21.1945313 C21.45625,21.1945313 21.45625,21.1945313 21.45625,21.1945313 C19.0617188,21.4335938 15.9960938,21.5296875 12.2609375,21.5296875 C8.52578125,21.5296875 5.46015625,21.4335938 3.065625,21.1945313 C3.065625,21.1945313 3.065625,21.1945313 3.065625,21.1945313 C2.3953125,21.0984375 1.8203125,20.8117188 1.3890625,20.3804688 C1.3890625,20.3804688 1.3890625,20.3804688 1.3890625,20.3804688 C0.91015625,19.9492188 0.575,19.375 0.43125,18.7039062 C0.43125,18.7039062 0.43125,18.7039062 0.43125,18.7039062 C0.2875,18.1289062 0.1921875,17.4585937 0.14375,16.6921875 C0.14375,16.6921875 0.14375,16.6921875 0.14375,16.6921875 C0.04765625,15.9257812 0,15.303125 0,14.8242188 C0,14.8242188 0,14.8242188 0,14.8242188 C0,14.8242188 0,12.7648438 0,12.7648438 C0,12.7648438 0,10.7054688 0,10.7054688 C0,10.2265625 0.04765625,9.60390625 0.14375,8.8375 C0.14375,8.8375 0.14375,8.8375 0.14375,8.8375 C0.19140625,8.07109375 0.2875,7.40078125 0.43125,6.82578125 C0.43125,6.82578125 0.43125,6.82578125 0.43125,6.82578125 C0.575,6.15546875 0.91015625,5.58046875 1.3890625,5.14921875 C1.3890625,5.14921875 1.3890625,5.14921875 1.3890625,5.14921875 C1.8203125,4.71796875 2.39453125,4.43046875 3.065625,4.33515625 C3.065625,4.33515625 3.065625,4.33515625 3.065625,4.33515625 C5.46015625,4.09609375 8.52578125,4 12.2609375,4 C15.9960938,4 19.0617188,4.09609375 21.45625,4.33515625 C21.45625,4.33515625 21.45625,4.33515625 21.45625,4.33515625 C22.1265625,4.43125 22.7015625,4.71796875 23.1328125,5.14921875 C23.1328125,5.14921875 23.1328125,5.14921875 23.1328125,5.14921875 C23.6117188,5.58046875 23.946875,6.1546875 24.090625,6.82578125 C24.090625,6.82578125 24.090625,6.82578125 24.090625,6.82578125 C24.234375,7.40078125 24.3296875,8.07109375 24.378125,8.8375 C24.378125,8.8375 24.378125,8.8375 24.378125,8.8375 C24.4742188,9.60390625 24.521875,10.2265625 24.521875,10.7054687 C24.521875,10.7054687 24.521875,10.7054687 24.521875,10.7054688 Z"/>
  <title>Youtube</title>
</svg>