<svg width="44" height="46" viewBox="0 0 44 46" fill="none" xmlns="http://www.w3.org/2000/svg">
<path fill-rule="evenodd" clip-rule="evenodd" d="M36.7285 6.8803C32.5448 2.54716 27.5243 0.379883 21.5825 0.379883C15.6406 0.379883 10.6202 2.54716 6.43643 6.8803C2.2527 11.2134 0.160156 16.4132 0.160156 22.5673C0.160156 28.7213 2.2527 33.9211 6.43643 38.2542C10.6202 42.5874 15.6406 44.7547 21.5825 44.7547C27.5243 44.7547 32.5448 42.5874 36.7285 38.2542C40.9122 33.9211 43.0048 28.7213 43.0048 22.5673C43.0048 16.4132 40.9122 11.2134 36.7285 6.8803ZM21.584 42.9338V42.9338C16.1445 42.9338 11.4584 40.9404 7.60913 36.9536C3.75983 32.9669 1.83518 28.1997 1.83518 22.5673C1.83518 16.9335 3.75983 12.1678 7.60913 8.09334C11.4584 4.10656 16.1445 2.11317 21.584 2.11317C27.0235 2.11317 31.7096 4.10656 35.5589 8.09334C39.4082 12.1663 41.3328 16.9335 41.3328 22.5673V22.5673C41.2495 28.2011 39.3249 33.0545 35.4756 36.9536C31.6263 40.9404 27.0235 42.9338 21.5854 42.9338H21.584ZM27.6079 16.327V16.327V17.2799C27.6079 17.8864 27.2735 18.1465 26.6879 18.1465V18.1465C26.1023 18.1465 25.8512 17.8864 25.8512 17.2799V17.2799V16.327C25.8512 15.8944 25.6833 15.4604 25.3488 15.114C25.0144 14.7676 24.5954 14.5937 24.1777 14.5937V14.5937H20.4116C19.4916 14.5937 18.8214 14.9401 18.2358 15.5466C17.6502 16.1531 17.3158 16.9335 17.3158 17.8001V17.8001C17.3158 19.2732 17.9847 20.3138 19.4084 20.9203V20.9203L24.2623 22.5673C26.5214 23.3477 27.6093 24.9933 27.6093 27.3344V27.3344C27.6093 28.7213 27.107 29.9343 26.187 30.8872C25.2669 31.8401 24.0944 32.3603 22.7567 32.3603V32.3603H22.4223V33.227C22.4223 33.8335 22.1711 34.0936 21.5855 34.0936C21 34.0936 20.7488 33.8335 20.7488 33.227V33.227V32.3603H18.992C18.072 32.3603 17.2353 32.014 16.5651 31.3198C15.8949 30.6257 15.5604 29.7604 15.5604 28.8062V28.8062V27.8533C15.5604 27.2468 15.8949 26.9867 16.4804 26.9867V26.9867C17.066 26.9867 17.3172 27.2468 17.3172 27.8533V27.8533V28.8062C17.3172 29.2388 17.4851 29.6728 17.8195 30.0192C18.1539 30.3655 18.573 30.5394 18.9907 30.5394V30.5394H22.7567C23.6767 30.5394 24.4302 30.1931 25.0158 29.5866C25.6014 28.9801 25.8525 28.1997 25.8525 27.333V27.333C25.8525 25.686 25.1837 24.6469 23.76 24.2129V24.2129L18.906 22.5659C16.647 21.7855 15.5591 20.1399 15.5591 17.7987V17.7987C15.5591 16.4118 16.0614 15.1988 16.9814 14.246C17.9014 13.2931 19.0739 12.7728 20.4116 12.7728V12.7728H20.7461V11.9062C20.7461 11.2997 20.9972 11.0396 21.5828 11.0396C22.1684 11.0396 22.4196 11.2997 22.4196 11.9062V11.9062V12.7728H24.1763C25.0963 12.7728 25.9331 13.1192 26.6033 13.8133C27.2735 14.5075 27.6079 15.3727 27.6079 16.327Z" fill="white"/>
</svg>
