<svg width="44" height="46" viewBox="0 0 44 46" fill="none" xmlns="http://www.w3.org/2000/svg">
<path fill-rule="evenodd" clip-rule="evenodd" d="M40.4831 11.1723V11.1723H34.9603C34.7924 11.1723 34.6259 11.0861 34.5426 10.9984V10.9984L29.7733 7.79206C29.69 7.70582 29.5222 7.61816 29.3556 7.61816V7.61816H24.1673C23.9161 7.61816 23.7496 7.7044 23.5817 7.87829V7.87829L20.6524 11.1709H12.7026C12.2003 11.1709 11.698 11.3448 11.2803 11.6035V11.6035L7.0133 14.5498C6.76214 14.636 6.59561 14.7237 6.51098 14.7237V14.7237H2.74495C2.15936 14.7237 1.9082 14.9838 1.9082 15.5903V15.5903V27.9832C1.9082 28.5897 2.15936 28.9361 2.74495 28.9361V28.9361H9.85796C10.1091 28.9361 10.2757 29.0223 10.3603 29.11V29.11C10.4435 29.1962 10.5282 29.2839 10.778 29.4564C11.0291 29.7165 11.197 29.889 11.3636 30.0629V30.0629C13.1203 31.8824 15.2961 33.6156 17.891 35.2626V35.2626C18.811 35.7829 19.8156 36.043 20.7356 36.043V36.043V36.043C22.4924 36.043 23.9994 35.3503 25.2538 33.9634V33.9634L30.8599 27.1166H31.0277H40.4831C41.0687 27.1166 41.3198 26.8565 41.3198 26.25V26.25V12.0361C41.3198 11.4296 41.0687 11.1695 40.4831 11.1695V11.1723ZM30.6085 24.692V24.692L23.9146 32.838C23.1611 33.7909 22.0732 34.2249 20.7355 34.2249V34.2249C20.1499 34.2249 19.4797 34.051 18.8108 33.7923V33.7923C16.5518 32.3192 14.4592 30.6721 12.5346 28.6788V28.6788C12.2834 28.4186 11.949 28.1585 11.5299 27.7259V27.7259C10.9444 27.2933 10.442 27.1194 9.85644 27.1194V27.1194H3.58018V16.4597H6.50947C7.09505 16.4597 7.51411 16.2858 7.9318 16.0271V16.0271L12.1988 13.0809C12.4499 12.9946 12.6165 12.907 12.7011 12.907V12.907H19.1439L16.5504 15.8532C15.9648 16.546 15.7137 17.3263 15.7137 18.193V18.193C15.7137 19.1458 16.0481 20.0125 16.7183 20.619C17.3039 21.3117 18.1406 21.6595 19.0606 21.6595V21.6595C19.9806 21.6595 20.7341 21.3131 21.403 20.619V20.619L25.8379 16.0257L30.6918 22.3522C30.943 22.7848 31.1095 23.1326 31.1095 23.479C31.1095 23.8254 30.9416 24.2594 30.6072 24.692H30.6085ZM39.6461 12.9055V25.3861H32.282C32.6164 24.8658 32.7843 24.2593 32.7843 23.4789V23.4789C32.7843 22.5261 32.5331 21.8319 32.0308 21.2254V21.2254L26.5913 14.1185C26.4234 13.9446 26.1736 13.8584 25.9224 13.8584V13.8584H25.7545C25.7545 13.8584 25.4201 13.9446 25.2522 14.1185V14.1185L20.2317 19.4045C19.8141 19.6647 19.4783 19.8371 19.0606 19.8371V19.8371C18.6429 19.8371 18.2238 19.6632 17.8894 19.3169C17.555 19.0567 17.3871 18.6241 17.3871 18.1901C17.3871 17.7561 17.555 17.3235 17.8048 17.0634V17.0634L24.5834 9.34993H29.1015L33.5364 12.4701C33.9541 12.7302 34.4564 12.9027 34.9587 12.9027V12.9027H39.6448L39.6461 12.9055Z" fill="white"/>
</svg>
