<svg width="45" height="46" viewBox="0 0 45 46" fill="none" xmlns="http://www.w3.org/2000/svg">
<path fill-rule="evenodd" clip-rule="evenodd" d="M35.7899 18.5339L36.9038 22.9717C37.0293 23.4269 36.9338 23.9161 36.6471 24.2851C36.3755 24.6696 35.9414 24.8944 35.4814 24.8887H29.055C28.2415 24.8887 27.5808 24.2059 27.5808 23.3619V18.9072C27.5808 18.0646 28.2401 17.3803 29.055 17.3803H34.3676C35.0405 17.3831 35.6261 17.8581 35.7899 18.5339V18.5339ZM29.313 23.113H35.1907L34.1969 19.1545H29.313V23.113ZM41.5829 23.2729C41.5829 23.2729 43.5034 24.7333 43.502 25.9703V31.9165C43.4925 33.4688 42.2749 34.7214 40.7775 34.7214H37.9151C37.7609 37.4132 35.6096 39.5154 33.0052 39.5154C30.4008 39.5154 28.2495 37.4132 28.0953 34.7214H16.4928C16.3385 37.4132 14.1859 39.5154 11.5829 39.5154C8.97983 39.5154 6.82723 37.4132 6.67298 34.7214H4.83979C3.958 34.7214 3.11306 34.3581 2.48926 33.7134C1.86545 33.0687 1.51601 32.1922 1.51601 31.2789V29.6998C1.51601 27.7983 3.00386 26.2559 4.84115 26.2559H19.0481L4.84115 10.6537V17.2206C6.50645 17.6801 7.55614 19.3822 7.25993 21.1395C6.96373 22.8968 5.41991 24.1296 3.70274 23.9783C1.98557 23.8271 0.665616 22.3412 0.660156 20.557H2.37323C2.37323 21.4788 3.09395 22.2253 3.98393 22.2253C4.87391 22.2253 5.59463 21.4788 5.59463 20.557C5.59463 19.6353 4.87391 18.8888 3.98393 18.8888H3.12671V7.61841H9.22826L25.08 24.9948V15.0547H35.671C36.9077 15.0561 37.9874 15.9256 38.2932 17.1669L39.5272 22.0655L41.5842 23.2729H41.5829ZM6.05769 9.39254L21.4808 26.2543H23.7945L8.43962 9.39254C8.43962 9.39254 6.05769 9.39254 6.05769 9.39254ZM8.602 35.7407C8.602 35.7407 10.2864 37.7991 11.5927 37.792C13.359 37.7821 14.7882 36.3019 14.7977 34.4725C14.8046 33.1196 14.0224 31.8967 12.8171 31.375C11.6118 30.8533 10.2223 31.1389 9.29815 32.0946C8.37405 33.0503 8.09968 34.4909 8.60336 35.7392L8.602 35.7407ZM25.0797 32.9104V27.9933H4.8409C3.95092 27.9933 3.2302 28.7398 3.2302 29.6616V31.2407C3.2302 32.1625 3.95092 32.9089 4.8409 32.9089H6.91433C7.56271 30.8039 9.4505 29.3731 11.584 29.3731C13.7175 29.3731 15.6067 30.8025 16.2537 32.9089H25.0797V32.9104ZM32.9973 37.792C32.9973 37.792 34.6694 37.4485 35.2741 36.8265C35.8788 36.2044 36.2187 35.3562 36.2187 34.4726C36.2255 33.121 35.4448 31.8995 34.2422 31.3764C33.0396 30.8534 31.6501 31.1361 30.726 32.089C29.8005 33.0418 29.522 34.4782 30.0203 35.728C30.5185 36.9777 31.6937 37.792 32.9987 37.792H32.9973ZM41.7891 29.5385V25.9702C41.7877 25.5164 41.5038 25.1149 41.0861 24.9764L38.1036 23.4679L36.6294 17.6107C36.5202 17.1541 36.1243 16.8318 35.6698 16.8303H26.7932V32.9117H28.3357C28.984 30.8067 30.8718 29.376 33.0053 29.376C35.1388 29.376 37.028 30.8053 37.675 32.9117H40.7763C41.0424 32.916 41.3004 32.81 41.4902 32.6163C41.6799 32.4226 41.7877 32.1582 41.7877 31.8825V30.9594H39.2174V29.54H41.7877L41.7891 29.5385Z" fill="white"/>
</svg>
